<svg xmlns="http://www.w3.org/2000/svg" viewBox="0 0 87.87 87.87" width="117.16" height="117.16" ><defs><clipPath id="A"><path d="M0 0h87.87v87.87H0z"/></clipPath></defs><g clip-path="url(#A)"><path d="M39.71 77.14l-1.15 8.94c1.8.23 3.63.35 5.45.35 1.88 0 3.77-.13 5.62-.37l-1.18-8.94c-2.87.39-5.86.39-8.74.02zM69.93 10.2a42.21 42.21 0 0 0-9.6-5.56l-3.46 8.33a33.18 33.18 0 0 1 7.56 4.38l5.5-7.15zM4.78 60.31a42.16 42.16 0 0 0 5.58 9.58l7.13-5.51a33.37 33.37 0 0 1-4.39-7.55l-8.32 3.48zm13.44 17.4a42.23 42.23 0 0 0 9.62 5.53l3.43-8.34a33.17 33.17 0 0 1-7.57-4.36l-5.48 7.17zm38.67-2.85l3.47 8.32c3.42-1.42 6.65-3.3 9.59-5.57l-5.5-7.14c-2.33 1.79-4.87 3.27-7.56 4.39zm29.29-36.5l-8.94 1.17c.19 1.44.28 2.92.28 4.39 0 1.46-.1 2.92-.28 4.36l8.94 1.16c.24-1.82.36-3.68.36-5.52 0-1.86-.12-3.73-.36-5.56zM70.62 64.28l7.15 5.49c2.26-2.95 4.13-6.18 5.55-9.61l-8.33-3.45c-1.12 2.7-2.59 5.25-4.37 7.57zm12.69-36.64c-1.42-3.42-3.29-6.65-5.55-9.6l-7.15 5.49c1.78 2.32 3.26 4.87 4.38 7.56l8.32-3.45zm-72.8 16.27c0-18.47 15.03-33.5 33.5-33.5 1.48 0 2.96.1 4.41.29l1.17-8.94c-1.84-.24-3.72-.36-5.59-.36C20.57 1.39 1.5 20.47 1.5 43.91c0 1.87.12 3.75.36 5.59l8.94-1.18c-.19-1.45-.29-2.93-.29-4.41zm51.72-14.89l-.22-3.3-2.96 1.48c-.07.04-7.42 3.68-15.43 3.68-6.89 0-14.61-3.66-14.69-3.7L26 25.78l-.21 3.24c-.06.9-1.35 22.25 7.58 31.78 2.86 3.06 6.44 4.6 10.64 4.6s7.78-1.55 10.64-4.6c8.93-9.53 7.64-30.87 7.58-31.78zM51.45 57.81c-2.03 2.16-4.46 3.21-7.43 3.21s-5.41-1.05-7.43-3.21c-5.81-6.2-6.49-19.36-6.48-25.38 3.2 1.21 8.45 2.85 13.53 2.85 5.75 0 11.09-1.61 14.3-2.83 0 6.03-.69 19.17-6.49 25.36zM40.39 41.06c0-.76-1.06-1.38-2.36-1.38s-2.36.62-2.36 1.38 1.06 1.38 2.36 1.38c1.31 0 2.36-.62 2.36-1.38zm9.35 1.38c1.3 0 2.36-.62 2.36-1.38s-1.06-1.38-2.36-1.38-2.36.62-2.36 1.38 1.05 1.38 2.36 1.38zM37.23 53.1a10.57 10.57 0 0 0 13.43 0l.75-5.1c-6.55 1.94-8.92 2.29-14.94 0 .3 1.47.54 3.19.76 5.1z"/></g></svg>