<svg xmlns="http://www.w3.org/2000/svg" viewBox="0 0 87.87 87.87" width="117.16" height="117.16" ><defs><clipPath id="A"><path d="M0 0h87.87v87.87H0z"/></clipPath></defs><g clip-path="url(#A)"><path d="M43.86 33.77c2.77.03 5.03-2.19 5.04-4.95a4.97 4.97 0 0 0-5.01-4.98 5 5 0 0 0-4.93 4.96c-.01 2.7 2.19 4.94 4.9 4.97zM21.98 55.92v6.3h9.21l-1.51-6.3h-7.7zm15.86 0l1.23 6.3h10.29l1.24-6.3H37.84zm20.92 0l-1.52 6.3h9.22v-6.3h-7.7zm-.41-4.2c.18-.75.01-1.53-.46-2.14-.47-.6-1.2-.96-1.97-.96h-6.05l.07-9.8h8.89a2 2 0 0 0 2-2V26.49a2 2 0 0 0-2-2c-1.1 0-2 .9-2 2v8.33l-9.14-.01h-6.64c-.33 0-1.15.21-1.27.24l-8.41 2.04-4.96-7.01c-.64-.9-1.89-1.12-2.79-.48s-1.12 1.89-.48 2.79l5.74 8.11c.38.54.99.85 1.64.85.15 0 .3-.02.45-.05l7.83-1.91-.07 9.23h-6.21c-.77 0-1.49.35-1.97.96a2.52 2.52 0 0 0-.46 2.14l1.03 4.2 2.54 10.37c.28 1.14 1.3 1.91 2.43 1.91a2.46 2.46 0 0 0 .6-.07 2.51 2.51 0 0 0 1.84-3.02l-.71-2.89-2.1-8.59h17.04l-2.81 11.48c-.33 1.34.49 2.69 1.84 3.02a2.46 2.46 0 0 0 .6.07c1.13 0 2.15-.77 2.43-1.91l1-4.07 1.54-6.3.99-4.2zm-53.61 8.5a42.7 42.7 0 0 0 5.55 9.59l7.15-5.5a33.71 33.71 0 0 1-4.38-7.55l-8.32 3.46zm13.39 17.42a42.48 42.48 0 0 0 9.59 5.55l3.46-8.33a33.67 33.67 0 0 1-7.55-4.37l-5.5 7.15zM44.01 1.39C20.57 1.39 1.5 20.47 1.5 43.91c0 1.87.12 3.75.36 5.58l8.94-1.18c-.19-1.45-.29-2.93-.29-4.41 0-18.47 15.03-33.5 33.5-33.5 18.48 0 33.51 15.03 33.51 33.5S62.49 77.4 44.01 77.4a34.14 34.14 0 0 1-4.41-.29l-1.17 8.94a43.33 43.33 0 0 0 5.58.36c23.45 0 42.52-19.07 42.52-42.51.01-23.43-19.07-42.51-42.52-42.51z"/></g></svg>