<svg xmlns="http://www.w3.org/2000/svg" viewBox="0 0 87.87 87.87" width="117.16" height="117.16" ><defs><clipPath id="A"><path d="M0 0h87.87v87.87H0z"/></clipPath></defs><g clip-path="url(#A)"><path d="M4.74 60.22a42.7 42.7 0 0 0 5.55 9.59l7.15-5.5a33.71 33.71 0 0 1-4.38-7.55l-8.32 3.46zm13.39 17.42a42.48 42.48 0 0 0 9.59 5.55l3.46-8.33a33.67 33.67 0 0 1-7.55-4.37l-5.5 7.15zM44.01 1.39C20.57 1.39 1.5 20.47 1.5 43.91c0 1.87.12 3.75.36 5.58l8.94-1.18c-.19-1.45-.29-2.93-.29-4.41 0-18.47 15.03-33.5 33.5-33.5 18.48 0 33.51 15.03 33.51 33.5S62.49 77.4 44.01 77.4a34.14 34.14 0 0 1-4.41-.29l-1.17 8.94a43.33 43.33 0 0 0 5.58.36c23.45 0 42.52-19.07 42.52-42.51.01-23.43-19.07-42.51-42.52-42.51zm18.23 27.32l-.22-3.29-2.95 1.48c-.07.04-7.47 3.68-15.43 3.68-6.9 0-14.62-3.66-14.69-3.7l-2.93-1.4-.21 3.24c-.06.9-1.35 22.25 7.58 31.79 2.86 3.06 6.44 4.61 10.64 4.61s7.78-1.55 10.64-4.61c8.92-9.54 7.63-30.89 7.57-31.8zM34.05 39.78c0-.76 1.06-1.38 2.36-1.38s2.36.62 2.36 1.38-1.06 1.38-2.36 1.38-2.36-.62-2.36-1.38zm16.9 15.29a10.57 10.57 0 0 1-13.43 0c-.22-1.91-.46-3.63-.75-5.1 6.01 2.29 8.39 1.94 14.94 0-.3 1.47-.54 3.19-.76 5.1zm.68-13.91c-1.3 0-2.36-.62-2.36-1.38s1.06-1.38 2.36-1.38 2.36.62 2.36 1.38c.01.76-1.05 1.38-2.36 1.38z"/></g></svg>