<svg xmlns="http://www.w3.org/2000/svg" viewBox="0 0 87.87 87.87" width="117.16" height="117.16" ><defs><clipPath id="A"><path d="M0 0h87.87v87.87H0z"/></clipPath></defs><g clip-path="url(#A)"><path d="M44.02 1.39C20.57 1.39 1.5 20.47 1.5 43.91s19.07 42.52 42.52 42.52 42.52-19.07 42.52-42.52c0-23.44-19.08-42.52-42.52-42.52zm0 76.02c-18.47 0-33.5-15.03-33.5-33.5s15.03-33.5 33.5-33.5 33.5 15.03 33.5 33.5-15.03 33.5-33.5 33.5zM31.06 37.58c-.19-.67-1.28-.96-2.44-.63s-1.94 1.14-1.75 1.82 1.29.96 2.45.63c1.14-.33 1.93-1.14 1.74-1.82zm6.81-.9c1.16-.33 1.94-1.14 1.75-1.82s-1.29-.96-2.45-.63-1.94 1.14-1.75 1.82c.2.67 1.29.95 2.45.63zm31.43 9.55c-.06 0-5.91-.37-10.83-3.2-4.25-2.45-7.72-7.44-7.76-7.49l-1.31-1.9-1.28 1.92c-.1.15-.87 1.33-1.87 3.13-.34-6.55-2.5-12.72-2.64-13.12l-.79-2.22-1.74 1.59c-.04.04-4.37 3.96-9.85 5.52-4.72 1.34-10.72.33-10.78.32l-2.28-.39.48 2.26c.13.63 3.39 15.5 11.36 20.3 2.55 1.54 5.31 1.9 8.18 1.09a10.82 10.82 0 0 0 3.11-1.44c-.2 1.82-.17 3.61.22 5.28.68 2.9 2.34 5.13 4.93 6.62s5.35 1.8 8.2.93c8.89-2.72 15.66-16.35 15.95-16.93l1.03-2.11-2.33-.16zm-31.95 4.79c-2.04.58-3.91.33-5.71-.76-5.18-3.12-8.2-12-9.36-16.12 2.43.21 6.34.31 9.82-.68 3.94-1.12 7.28-3.26 9.25-4.71 1.18 4.12 3.26 13.25.48 18.62-.98 1.88-2.44 3.07-4.48 3.65zm12.02-6.37c.4-.63 1.6-.59 2.69.1 1.08.68 1.64 1.75 1.24 2.38s-1.6.59-2.68-.09c-1.09-.69-1.65-1.76-1.25-2.39zm3.83 15.7c-1.65-2.43-3.74-3.5-6.36-3.67-1.05-.07-1.79-1.08-1.48-2.09 0-.01.01-.02.01-.03.18-.61.7-1.06 1.33-1.15 4-.58 7.89 1.66 9.4 5.4.24.59.11 1.26-.32 1.73l-.03.03c-.72.77-1.96.65-2.55-.22zm8.35-8.37c-.4.63-1.6.59-2.69-.1-1.08-.68-1.64-1.75-1.24-2.38s1.6-.59 2.68.09c1.09.69 1.65 1.75 1.25 2.39zm-29.74-7.97c2.78.47 4.77-.23 6.38-1.86.65-.66 1.83-.49 2.43.36.01.01.01.02.02.02.36.51.41 1.15.12 1.63-1.82 3.03-5.72 4.18-9.42 2.77-.58-.22-1.02-.74-1.13-1.33 0-.01 0-.03-.01-.04-.18-.97.61-1.72 1.61-1.55z"/></g></svg>