<svg xmlns="http://www.w3.org/2000/svg" viewBox="0 0 87.87 87.87" width="117.16" height="117.16" ><defs><clipPath id="A"><path d="M0 0h87.87v87.87H0z"/></clipPath></defs><g clip-path="url(#A)"><path d="M44.02 1.39C20.57 1.39 1.5 20.47 1.5 43.91s19.07 42.52 42.52 42.52 42.52-19.07 42.52-42.52c0-23.44-19.08-42.52-42.52-42.52zm0 76.02c-18.47 0-33.5-15.03-33.5-33.5s15.03-33.5 33.5-33.5 33.5 15.03 33.5 33.5-15.03 33.5-33.5 33.5zm-.07-50.14c2.77.03 5.02-2.18 5.03-4.94s-2.25-5.01-5-4.98c-2.71.03-4.91 2.24-4.92 4.95-.01 2.7 2.18 4.93 4.89 4.97zM62.47 45.8H25.56v4h7.93v19.71h21.06V49.8h7.92v-4zm-33.42-2.55a1.98 1.98 0 0 0 1.38-.56l6.68-6.41-.01 7.28h13.8l.01-7.27 6.68 6.41c.39.37.89.56 1.38.56.53 0 1.05-.21 1.44-.62.77-.8.74-2.06-.06-2.83l-10.38-9.96c-.14-.13-.29-.23-.45-.31-.52-.36-1.16-.58-1.84-.58h-7.35c-.68 0-1.3.21-1.82.56a2.22 2.22 0 0 0-.49.33L27.67 39.8c-.8.76-.82 2.03-.06 2.83.39.41.92.62 1.44.62z"/></g></svg>