<?xml version="1.0" encoding="utf-8"?>
<!-- Generator: Adobe Illustrator 24.2.0, SVG Export Plug-In . SVG Version: 6.00 Build 0)  -->
<svg version="1.1" id="Warstwa_2" xmlns="http://www.w3.org/2000/svg" x="0px" y="0px"
	 viewBox="0 0 87.87 87.87" style="enable-background:new 0 0 87.87 87.87;" xml:space="preserve">
<g>
	<path d="M39.71,77.16l-1.15,8.94c1.8,0.23,3.63,0.35,5.45,0.35c1.88,0,3.77-0.13,5.62-0.37l-1.18-8.94
		C45.58,77.52,42.59,77.53,39.71,77.16z"/>
	<path d="M69.93,10.21c-2.94-2.27-6.18-4.14-9.6-5.56l-3.46,8.33c2.7,1.12,5.24,2.59,7.56,4.38L69.93,10.21z"/>
	<path d="M4.78,60.33c1.43,3.42,3.3,6.64,5.58,9.58l7.13-5.51c-1.79-2.32-3.27-4.86-4.39-7.55L4.78,60.33z"/>
	<path d="M18.22,77.73c2.95,2.26,6.19,4.12,9.62,5.53l3.43-8.34c-2.7-1.11-5.25-2.58-7.57-4.36L18.22,77.73z"/>
	<path d="M56.89,74.87l3.47,8.32c3.42-1.42,6.65-3.3,9.59-5.57l-5.5-7.14C62.12,72.28,59.58,73.75,56.89,74.87z"/>
	<path d="M86.18,38.38l-8.94,1.17c0.19,1.44,0.28,2.92,0.28,4.39c0,1.46-0.1,2.92-0.28,4.36l8.94,1.16
		c0.24-1.82,0.36-3.68,0.36-5.52C86.54,42.07,86.42,40.21,86.18,38.38z"/>
	<path d="M70.62,64.3l7.15,5.49c2.26-2.95,4.13-6.18,5.55-9.61l-8.33-3.45C73.87,59.43,72.4,61.98,70.62,64.3z"/>
	<path d="M83.31,27.65c-1.42-3.42-3.29-6.65-5.55-9.6l-7.15,5.49c1.78,2.32,3.26,4.87,4.38,7.56L83.31,27.65z"/>
	<path d="M10.51,43.93c0-18.47,15.03-33.5,33.5-33.5c1.48,0,2.96,0.1,4.41,0.29l1.17-8.94c-1.84-0.24-3.72-0.36-5.59-0.36
		C20.57,1.41,1.5,20.48,1.5,43.93c0,1.87,0.12,3.75,0.36,5.59l8.94-1.18C10.61,46.89,10.51,45.41,10.51,43.93z"/>
</g>
<path d="M64.68,41.8h-3.36c-0.97-7.92-7.26-14.21-15.18-15.18v-3.36h-4.25v3.36c-7.92,0.97-14.21,7.26-15.18,15.18h-3.36v4.25h3.36
	c0.97,7.92,7.26,14.21,15.18,15.18v3.36h4.25v-3.36c7.92-0.97,14.21-7.26,15.18-15.18h3.36V41.8z M46.14,56.87v-2.96h-4.25v2.96
	c-5.53-0.91-9.91-5.28-10.81-10.81h2.96V41.8h-2.96c0.91-5.53,5.28-9.91,10.81-10.81v2.96h4.25v-2.96
	c5.53,0.91,9.91,5.28,10.81,10.81H54v4.25h2.96C56.05,51.59,51.68,55.96,46.14,56.87z"/>
</svg>
