<?xml version="1.0" encoding="utf-8"?>
<!-- Generator: Adobe Illustrator 24.2.0, SVG Export Plug-In . SVG Version: 6.00 Build 0)  -->
<svg version="1.1" id="Warstwa_3" xmlns="http://www.w3.org/2000/svg" x="0px" y="0px"
	 viewBox="0 0 87.87 87.87" style="enable-background:new 0 0 87.87 87.87;" xml:space="preserve">
<g>
	<g>
		<g>
			<path d="M4.74,60.19c1.42,3.42,3.29,6.64,5.55,9.59l7.15-5.5c-1.78-2.32-3.26-4.86-4.38-7.55L4.74,60.19z"/>
		</g>
		<g>
			<path d="M18.12,77.61c2.94,2.26,6.17,4.13,9.59,5.55l3.46-8.33c-2.69-1.12-5.23-2.59-7.55-4.37L18.12,77.61z"/>
		</g>
		<g>
			<path d="M44.01,1.37c-23.44,0-42.52,19.07-42.52,42.52c0,1.87,0.12,3.75,0.36,5.58l8.94-1.18c-0.19-1.45-0.29-2.93-0.29-4.41
				c0-18.47,15.03-33.5,33.5-33.5c18.48,0,33.51,15.03,33.51,33.5c0,18.47-15.03,33.5-33.51,33.5c-1.47,0-2.96-0.1-4.41-0.29
				l-1.17,8.94c1.84,0.24,3.72,0.36,5.58,0.36c23.45,0,42.52-19.07,42.52-42.51C86.53,20.44,67.46,1.37,44.01,1.37z"/>
		</g>
	</g>
</g>
<g>
	<path d="M44.01,40.34c-1.96,0-3.54,1.59-3.54,3.54s1.59,3.54,3.54,3.54s3.54-1.59,3.54-3.54S45.97,40.34,44.01,40.34z"/>
	<path d="M44.01,21.62c-12.28,0-22.27,9.99-22.27,22.27c0,12.28,9.99,22.26,22.27,22.26s22.26-9.99,22.26-22.26
		C66.28,31.6,56.29,21.62,44.01,21.62z M62.92,41.91h-3.58c-0.89-6.95-6.4-12.46-13.36-13.36v-3.58C54.9,25.89,62,33,62.92,41.91z
		 M56.82,45.86c-0.86,5.57-5.26,9.97-10.83,10.83v-3.12h-3.95v3.12c-5.57-0.86-9.97-5.26-10.83-10.83h3.12v-3.95h-3.12
		c0.86-5.57,5.26-9.97,10.83-10.83v3.12h3.95v-3.12c5.57,0.86,9.97,5.26,10.83,10.83H53.7v3.95H56.82z M42.04,24.97v3.58
		c-6.95,0.89-12.46,6.4-13.36,13.36H25.1C26.03,33,33.13,25.89,42.04,24.97z M25.1,45.86h3.58c0.89,6.95,6.4,12.46,13.36,13.36v3.58
		C33.13,61.87,26.02,54.77,25.1,45.86z M45.99,62.79v-3.58c6.95-0.89,12.47-6.4,13.36-13.36h3.58C62,54.77,54.9,61.87,45.99,62.79z"
		/>
</g>
</svg>
