<?xml version="1.0" encoding="utf-8"?>
<!-- Generator: Adobe Illustrator 24.2.0, SVG Export Plug-In . SVG Version: 6.00 Build 0)  -->
<svg version="1.1" id="Warstwa_2" xmlns="http://www.w3.org/2000/svg" x="0px" y="0px"
	 viewBox="0 0 87.87 87.87" style="enable-background:new 0 0 87.87 87.87;" xml:space="preserve">
<g>
	<g>
		<path d="M44.02,1.41C20.57,1.41,1.5,20.48,1.5,43.93c0,23.44,19.07,42.52,42.52,42.52c23.45,0,42.52-19.07,42.52-42.52
			C86.54,20.48,67.46,1.41,44.02,1.41z M44.02,77.43c-18.47,0-33.5-15.03-33.5-33.5c0-18.47,15.03-33.5,33.5-33.5
			c18.47,0,33.5,15.03,33.5,33.5C77.52,62.4,62.49,77.43,44.02,77.43z"/>
	</g>
</g>
<path d="M70.74,42.67h-4.51C65.6,31.28,56.45,22.13,45.06,21.5v-4.3h-2.5v4.3c-11.39,0.63-20.54,9.78-21.17,21.17H17.3v2.5h4.09
	c0.63,11.39,9.78,20.54,21.17,21.17v4.3h2.5v-4.3c11.39-0.63,20.54-9.78,21.17-21.17h4.51V42.67z M63.7,42.67h-3.3
	c-0.61-8.19-7.16-14.73-15.34-15.34v-3.3C55.06,24.65,63.08,32.67,63.7,42.67z M40.5,42.67h-4.94c0.54-3.6,3.39-6.45,7-7v4.94
	C41.61,40.98,40.86,41.73,40.5,42.67z M40.5,45.17c0.36,0.95,1.11,1.7,2.05,2.06v4.94c-3.6-0.54-6.45-3.39-7-7H40.5z M45.06,47.23
	c0.95-0.36,1.7-1.11,2.06-2.06h4.94c-0.54,3.6-3.39,6.45-7,7V47.23z M47.11,42.67c-0.36-0.95-1.11-1.7-2.06-2.05v-4.94
	c3.6,0.54,6.45,3.39,7,7H47.11z M42.56,33.15c-4.98,0.58-8.95,4.54-9.52,9.52h-3.32c0.6-6.81,6.03-12.24,12.84-12.84V33.15z
	 M33.03,45.17c0.58,4.98,4.54,8.95,9.52,9.52v3.32c-6.81-0.6-12.24-6.03-12.84-12.84H33.03z M45.06,54.7
	c4.98-0.58,8.95-4.54,9.52-9.52h3.32c-0.6,6.81-6.03,12.24-12.84,12.84V54.7z M54.58,42.67c-0.58-4.98-4.54-8.95-9.52-9.52v-3.32
	c6.81,0.6,12.24,6.03,12.84,12.84H54.58z M42.56,24.03v3.3c-8.19,0.61-14.73,7.16-15.34,15.34h-3.3
	C24.53,32.67,32.55,24.65,42.56,24.03z M23.91,45.17h3.3c0.61,8.19,7.16,14.73,15.34,15.34v3.3C32.55,63.2,24.53,55.18,23.91,45.17z
	 M45.06,63.82v-3.3c8.19-0.61,14.73-7.16,15.34-15.34h3.3C63.08,55.18,55.06,63.2,45.06,63.82z"/>
</svg>
