<?xml version="1.0" encoding="utf-8"?>
<!-- Generator: Adobe Illustrator 24.2.0, SVG Export Plug-In . SVG Version: 6.00 Build 0)  -->
<svg version="1.1" id="Warstwa_3" xmlns="http://www.w3.org/2000/svg" x="0px" y="0px"
	 viewBox="0 0 87.87 87.87" style="enable-background:new 0 0 87.87 87.87;" xml:space="preserve">
<g>
	<g>
		<g>
			<g>
				<g>
					<g>
						<path d="M4.74,60.23c1.42,3.42,3.29,6.64,5.55,9.59l7.15-5.5c-1.78-2.32-3.26-4.86-4.38-7.55L4.74,60.23z"/>
						<path d="M18.13,77.65c2.94,2.26,6.17,4.13,9.59,5.55l3.46-8.33c-2.69-1.12-5.23-2.59-7.55-4.37L18.13,77.65z"/>
						<path d="M44.01,1.4C20.57,1.4,1.5,20.48,1.5,43.92c0,1.87,0.12,3.75,0.36,5.58l8.94-1.18c-0.19-1.45-0.29-2.93-0.29-4.41
							c0-18.47,15.03-33.5,33.5-33.5c18.48,0,33.51,15.03,33.51,33.5c0,18.47-15.03,33.5-33.51,33.5c-1.47,0-2.96-0.1-4.41-0.29
							l-1.17,8.94c1.84,0.24,3.72,0.36,5.58,0.36c23.45,0,42.52-19.07,42.52-42.51C86.54,20.48,67.46,1.4,44.01,1.4z"/>
					</g>
				</g>
			</g>
		</g>
	</g>
	<path d="M45.52,35.06c1.58,0.31,3.34-0.17,4.59-0.67c1.54-0.61,3.13-1.55,4.24-2.51c1.67-1.44,3.03-3.43,3.82-5.58
		c0.03-0.07,0.02-0.14-0.01-0.21c-0.04-0.06-0.1-0.11-0.17-0.13c-1.7-0.37-5.99-1.04-9.12,0.67c-0.11,0.05-1.24,0.61-2.45,1.68
		c-1.11,0.98-1.92,2.09-2.41,3.25c-0.49-1.16-1.3-2.27-2.41-3.25c-1.21-1.07-2.34-1.63-2.45-1.68c-3.12-1.71-7.41-1.04-9.12-0.67
		c-0.07,0.02-0.13,0.06-0.17,0.13c-0.03,0.06-0.04,0.14-0.01,0.21c0.8,2.16,2.15,4.14,3.82,5.58c1.11,0.96,2.7,1.9,4.24,2.51
		c1.25,0.49,3.01,0.97,4.59,0.67v9.36H32.28l3.27,20.38h16.99l3.27-20.38H45.52V35.06z"/>
</g>
</svg>
