<?xml version="1.0" encoding="utf-8"?>
<!-- Generator: Adobe Illustrator 24.2.0, SVG Export Plug-In . SVG Version: 6.00 Build 0)  -->
<svg version="1.1" id="Warstwa_2" xmlns="http://www.w3.org/2000/svg" x="0px" y="0px"
	 viewBox="0 0 87.87 87.87" style="enable-background:new 0 0 87.87 87.87;" xml:space="preserve">
<g>
	<g>
		<path d="M44.02,1.4C20.57,1.4,1.5,20.48,1.5,43.92c0,23.44,19.07,42.52,42.52,42.52c23.45,0,42.52-19.07,42.52-42.52
			C86.54,20.48,67.46,1.4,44.02,1.4z M44.02,77.42c-18.47,0-33.5-15.03-33.5-33.5c0-18.47,15.03-33.5,33.5-33.5
			c18.47,0,33.5,15.03,33.5,33.5C77.52,62.39,62.49,77.42,44.02,77.42z"/>
	</g>
	<path d="M45.52,54.07V43.18c1.58,0.31,3.34-0.17,4.59-0.67c1.54-0.61,3.13-1.55,4.24-2.51c1.67-1.44,3.03-3.43,3.82-5.58
		c0.03-0.07,0.02-0.14-0.01-0.21c-0.04-0.06-0.1-0.11-0.17-0.13c-1.7-0.37-5.99-1.04-9.12,0.67c-0.11,0.05-1.24,0.61-2.45,1.68
		c-0.33,0.29-0.63,0.6-0.91,0.92v-0.72c0.07-0.02,0.13-0.03,0.14-0.04c0.14-0.11,0.27-0.24,0.4-0.37c1.19-1.27,1.6-3.27,1.74-4.71
		c0.15-1.65,0.03-3.49-0.32-4.92c-0.53-2.14-1.69-4.25-3.25-5.93c-0.05-0.05-0.12-0.08-0.19-0.08c-0.07,0-0.14,0.04-0.19,0.09
		c-1.1,1.35-3.63,4.88-3.52,8.44c0,0.12-0.01,1.38,0.39,2.94c0.37,1.43,0.99,2.65,1.8,3.61v1.7c-0.28-0.31-0.58-0.62-0.91-0.92
		c-1.21-1.07-2.34-1.63-2.45-1.68c-3.12-1.71-7.41-1.04-9.12-0.67c-0.07,0.02-0.13,0.06-0.17,0.13c-0.03,0.06-0.04,0.14-0.01,0.21
		c0.8,2.16,2.15,4.14,3.82,5.58c1.11,0.96,2.7,1.9,4.24,2.51c1.25,0.49,3.01,0.97,4.59,0.67v10.89H17.24
		c3.85,11.09,14.38,19.05,26.78,19.05s22.93-7.96,26.78-19.05H45.52z"/>
</g>
</svg>
