<svg id="ratownik-1" xmlns="http://www.w3.org/2000/svg" viewBox="0 0 177.94 180.23"><defs><style>.cls-1{fill:#194093;}.cls-2{fill:#0083ac;}.cls-3{fill:none;stroke:#f8c409;stroke-linecap:round;stroke-linejoin:round;stroke-width:3.38px;}.cls-4{fill:#fff;}</style></defs><title>sprawnosci-h-kolka</title><circle class="cls-1" cx="89" cy="90.11" r="85.55" transform="translate(-34.45 118.44) rotate(-58.28)"/><path class="cls-2" d="M89,7.06A83.06,83.06,0,1,1,5.94,90.11,83.05,83.05,0,0,1,89,7.06m0-5a88.06,88.06,0,1,0,88.05,88.05A88.15,88.15,0,0,0,89,2.06Z"/><line class="cls-3" x1="70.07" y1="157.03" x2="70.07" y2="129.38"/><polyline class="cls-3" points="99.19 158.51 91.09 150.41 91.09 129.38 60.19 97.7 60.19 87.74 49.41 76.29 49.41 54.8"/><polyline class="cls-3" points="115.22 153.52 101.6 139.9 101.6 108.36 80.58 87.34"/><polyline class="cls-3" points="139.29 135.54 122.62 118.87 122.68 65.69"/><polyline class="cls-3" points="147.88 123.1 133.13 108.36 133.13 55.8 122.62 45.29 112.54 45.29"/><polyline class="cls-3" points="154.16 114.41 154.16 97.85 143.65 87.34 143.65 51.13 122.62 30.11 101.6 30.11"/><line class="cls-3" x1="60.19" y1="87.74" x2="60.19" y2="74.53"/><polyline class="cls-3" points="128.43 145.7 112.11 129.38 112.11 87.34 101.6 76.83"/><polyline class="cls-3" points="39.06 138.48 39.06 118.35 27.65 106.94 27.65 89.78"/><polyline class="cls-3" points="91.09 97.85 91.09 66.32 80.58 55.8 80.58 45.29"/><line class="cls-3" x1="54.51" y1="150.5" x2="54.51" y2="121.55"/><path class="cls-4" d="M27.65,91.72a4.06,4.06,0,1,0-4.06-4A4.05,4.05,0,0,0,27.65,91.72Z"/><path class="cls-4" d="M54.51,123.5a4.06,4.06,0,1,0-4.06-4.06A4.06,4.06,0,0,0,54.51,123.5Z"/><path class="cls-4" d="M70.07,133.42A4.06,4.06,0,1,0,66,129.36,4.06,4.06,0,0,0,70.07,133.42Z"/><path class="cls-4" d="M60.19,78.29a4.06,4.06,0,1,0-4.06-4.06A4.06,4.06,0,0,0,60.19,78.29Z"/><path class="cls-4" d="M49.41,58.86a4.06,4.06,0,1,0-4.06-4.06A4.05,4.05,0,0,0,49.41,58.86Z"/><path class="cls-4" d="M80.58,49.34a4.06,4.06,0,1,0-4.06-4.05A4.05,4.05,0,0,0,80.58,49.34Z"/><path class="cls-4" d="M80.58,91.4a4.06,4.06,0,1,0-4.06-4.06A4.06,4.06,0,0,0,80.58,91.4Z"/><path class="cls-4" d="M101.6,80.89a4.06,4.06,0,1,0-4.06-4.06A4.06,4.06,0,0,0,101.6,80.89Z"/><path class="cls-4" d="M122.68,69.75a4.06,4.06,0,1,0-4.06-4.06A4.06,4.06,0,0,0,122.68,69.75Z"/><path class="cls-4" d="M112.54,49.35a4.06,4.06,0,1,0-4.06-4.06A4.06,4.06,0,0,0,112.54,49.35Z"/><path class="cls-4" d="M101.6,34.17a4.06,4.06,0,1,0-4.06-4.06A4.06,4.06,0,0,0,101.6,34.17Z"/></svg>