<svg xmlns="http://www.w3.org/2000/svg" viewBox="0 0 177.94 180.23"><defs><path id="A" d="M54.51 123.5a4.06 4.06 0 1 0-4.06-4.06 4.06 4.06 0 0 0 4.06 4.06z"/></defs><circle cx="89" cy="90.11" r="85.55" transform="matrix(.525769 -.850628 .850628 .525769 -34.45 118.44)" fill="#194093"/><path d="M89,7.06A83.06,83.06,0,1,1,5.94,90.11,83.05,83.05,0,0,1,89,7.06m0-5a88.06,88.06,0,1,0,88.05,88.05A88.15,88.15,0,0,0,89,2.06Z" fill="#0083ac"/><g fill="none" stroke="#f8c409" stroke-linecap="round" stroke-linejoin="round" stroke-width="3.38"><path d="M70.07 157.03v-27.65m29.12 29.13l-8.1-8.1v-21.03L60.19 97.7v-9.96L49.41 76.29V54.8m65.81 98.72L101.6 139.9v-31.54L80.58 87.34m58.71 48.2l-16.67-16.67.06-53.18m25.2 57.41l-14.75-14.74V55.8l-10.51-10.51h-10.08m41.62 69.12V97.85l-10.51-10.51V51.13l-21.03-21.02H101.6"/><path d="M60.19 87.74V74.53m68.24 71.17l-16.32-16.32V87.34L101.6 76.83m-62.54 61.65v-20.13l-11.41-11.41V89.78m63.44 8.07V66.32L80.58 55.8V45.29M54.51 150.5v-28.95"/></g><g fill="#fff"><path d="M27.65 91.72a4.06 4.06 0 1 0-4.06-4 4.05 4.05 0 0 0 4.06 4z"/><use xlink:href="#A"/><path d="M70.07 133.42a4.06 4.06 0 1 0-4.07-4.06 4.06 4.06 0 0 0 4.07 4.06z"/><use xlink:href="#A" x="5.68" y="-45.21"/><path d="M49.41 58.86a4.06 4.06 0 1 0-4.06-4.06 4.05 4.05 0 0 0 4.06 4.06zm31.17-9.52a4.06 4.06 0 1 0-4.06-4.05 4.05 4.05 0 0 0 4.06 4.05z"/><use xlink:href="#A" x="26.07" y="-32.1"/><use xlink:href="#A" x="47.09" y="-42.61"/><use xlink:href="#A" x="68.17" y="-53.75"/><use xlink:href="#A" x="58.03" y="-74.15"/><use xlink:href="#A" x="47.09" y="-89.33"/></g></svg>