<svg xmlns="http://www.w3.org/2000/svg" viewBox="0 0 90.709 90.709"><circle transform="matrix(.9239 -.3827 .3827 .9239 -13.9041 20.8088)" cx="45.354" cy="45.355" r="43.52" fill="#194093"/><path d="M45.354 2.835c23.483 0 42.52 19.037 42.52 42.52s-19.037 42.52-42.52 42.52-42.52-19.037-42.52-42.52 19.037-42.52 42.52-42.52m0-2C20.806.835.834 20.806.834 45.355s19.971 44.52 44.52 44.52 44.52-19.971 44.52-44.52S69.903.835 45.354.835h0z" fill="#252e78"/><path d="M45.354 63.962a8.21 8.21 0 0 1 5.989 2.597L75.157 52.81l-1.954-3.134c-11.471 6.681-24.33 6.504-27.849 14.154-3.518-7.65-16.378-7.473-27.849-14.154l-1.953 3.134 23.814 13.749c1.503-1.595 3.629-2.597 5.988-2.597z" fill="#fff"/><path d="M80.281 55.667a2 2 0 0 0-2.732-.732L52.99 69.113l-2.655 1.533c-.667-2.129-2.631-3.684-4.98-3.684s-4.314 1.556-4.98 3.685l-2.655-1.533-24.56-14.179a2 2 0 1 0-2 3.464l26.074 15.054 7.12 4.11a1.99 1.99 0 0 0 1 .268c.346 0 .69-.089 1-.268l7.116-4.108L79.548 58.4c.957-.553 1.284-1.776.733-2.733z" fill="#f8c409"/><path d="M61.841 30.56l-5.935 7.574 2.675.52c-.298 2.744-2.254 5.513-3.885 6.455-1.118.646-4.343 1.269-5.919.383l-1.31-23.739h6.045v-3.854h-4.966c1.616-1.049 2.687-2.868 2.687-4.934 0-3.241-2.637-5.878-5.878-5.878s-5.878 2.637-5.878 5.878c0 2.065 1.071 3.885 2.687 4.934h-4.966v3.854h6.045l-1.31 23.739c-1.576.886-4.801.263-5.919-.383-1.631-.942-3.587-3.711-3.885-6.455l2.675-.52-5.935-7.574-2.889 9.289 2.61-.507c.189 1.39.591 2.743 1.202 4.041.851 1.808 2.095 3.402 3.619 4.825 3.974 3.712 11.944 6.985 11.944 6.985s8.482-4.069 11.944-6.985c1.595-1.343 2.768-3.017 3.619-4.825.611-1.297 1.012-2.651 1.202-4.041l2.61.507-2.889-9.289zM45.354 10.308a2.66 2.66 0 0 1 2.657 2.657 2.66 2.66 0 0 1-2.657 2.657 2.66 2.66 0 0 1-2.657-2.657 2.66 2.66 0 0 1 2.657-2.657z" fill="#fff"/></svg>