<?xml version="1.0" encoding="iso-8859-1"?>
<!-- Generator: Adobe Illustrator 22.1.0, SVG Export Plug-In . SVG Version: 6.00 Build 0)  -->
<svg version="1.1" xmlns="http://www.w3.org/2000/svg" xmlns:xlink="http://www.w3.org/1999/xlink" x="0px" y="0px"
	 viewBox="0 0 90.709 90.709" style="enable-background:new 0 0 90.709 90.709;" xml:space="preserve">
<g id="ratownik-1">
	<g>
		<g>
			
				<ellipse transform="matrix(0.9239 -0.3827 0.3827 0.9239 -13.9041 20.8088)" style="fill:#194093;" cx="45.354" cy="45.355" rx="43.52" ry="43.52"/>
			<g>
				<path style="fill:#252E78;" d="M45.354,2.835c23.483,0,42.52,19.037,42.52,42.52s-19.037,42.52-42.52,42.52
					s-42.52-19.037-42.52-42.52S21.871,2.835,45.354,2.835 M45.354,0.835c-24.548,0-44.52,19.971-44.52,44.52
					s19.971,44.52,44.52,44.52s44.52-19.971,44.52-44.52S69.903,0.835,45.354,0.835L45.354,0.835z"/>
			</g>
		</g>
	</g>
</g>
<g id="Warstwa_4">
	<g>
		<path style="fill:#FFFFFF;" d="M45.354,63.962c2.36,0,4.485,1.002,5.989,2.597L75.157,52.81l-1.954-3.134
			C61.732,56.357,48.873,56.18,45.354,63.83c-3.518-7.65-16.378-7.473-27.849-14.154l-1.953,3.134l23.814,13.749
			C40.869,64.964,42.995,63.962,45.354,63.962z"/>
		<path style="fill:#F8C409;" d="M80.281,55.667c-0.554-0.956-1.773-1.285-2.732-0.732L52.99,69.113l-2.655,1.533
			c-0.667-2.129-2.631-3.684-4.98-3.684c-2.349,0-4.314,1.556-4.98,3.685l-2.655-1.533L13.16,54.935
			c-0.959-0.553-2.18-0.224-2.732,0.732c-0.552,0.957-0.225,2.18,0.732,2.732l26.074,15.054l7.12,4.11
			c0.309,0.179,0.654,0.268,1,0.268s0.69-0.089,1-0.268l7.116-4.108L79.548,58.4C80.505,57.847,80.832,56.624,80.281,55.667z"/>
		<path style="fill:#FFFFFF;" d="M61.841,30.56l-5.935,7.574l2.675,0.52c-0.298,2.744-2.254,5.513-3.885,6.455
			c-1.118,0.646-4.343,1.269-5.919,0.383l-1.31-23.739h6.045v-3.854h-4.966c1.616-1.049,2.687-2.868,2.687-4.934
			c0-3.241-2.637-5.878-5.878-5.878c-3.241,0-5.878,2.637-5.878,5.878c0,2.065,1.071,3.885,2.687,4.934h-4.966v3.854h6.045
			l-1.31,23.739c-1.576,0.886-4.801,0.263-5.919-0.383c-1.631-0.942-3.587-3.711-3.885-6.455l2.675-0.52l-5.935-7.574l-2.889,9.289
			l2.61-0.507c0.189,1.39,0.591,2.743,1.202,4.041c0.851,1.808,2.095,3.402,3.619,4.825c3.974,3.712,11.944,6.985,11.944,6.985
			s8.482-4.069,11.944-6.985c1.595-1.343,2.768-3.017,3.619-4.825c0.611-1.297,1.012-2.651,1.202-4.041l2.61,0.507L61.841,30.56z
			 M45.354,10.308c1.465,0,2.657,1.192,2.657,2.657c0,1.465-1.192,2.657-2.657,2.657c-1.465,0-2.657-1.192-2.657-2.657
			C42.698,11.499,43.889,10.308,45.354,10.308z"/>
	</g>
</g>
</svg>
