<?xml version="1.0" encoding="iso-8859-1"?>
<!-- Generator: Adobe Illustrator 22.1.0, SVG Export Plug-In . SVG Version: 6.00 Build 0)  -->
<svg version="1.1" xmlns="http://www.w3.org/2000/svg" xmlns:xlink="http://www.w3.org/1999/xlink" x="0px" y="0px"
	 viewBox="0 0 90.709 90.709" style="enable-background:new 0 0 90.709 90.709;" xml:space="preserve">
<g id="ratownik-1">
	<g>
		<g>
			
				<ellipse transform="matrix(0.9239 -0.3827 0.3827 0.9239 -13.9041 20.8088)" style="fill:#194093;" cx="45.354" cy="45.355" rx="43.52" ry="43.52"/>
			<g>
				<path style="fill:#252E78;" d="M45.354,2.835c23.483,0,42.52,19.037,42.52,42.52s-19.037,42.52-42.52,42.52
					s-42.52-19.037-42.52-42.52S21.871,2.835,45.354,2.835 M45.354,0.835c-24.548,0-44.52,19.971-44.52,44.52
					s19.971,44.52,44.52,44.52s44.52-19.971,44.52-44.52S69.903,0.835,45.354,0.835L45.354,0.835z"/>
			</g>
		</g>
	</g>
</g>
<g id="Warstwa_4">
	<g>
		<g>
			<g>
				<polygon style="fill:#F8C409;" points="34.857,33.121 45.329,39.161 55.8,33.121 45.335,27.08 				"/>
			</g>
			<g>
				<polygon style="fill:#F8C409;" points="57.814,36.697 47.35,42.717 47.35,54.838 57.814,48.755 				"/>
			</g>
			<g>
				<polygon style="fill:#F8C409;" points="32.895,36.697 43.359,42.717 43.359,54.838 32.894,48.755 				"/>
			</g>
		</g>
		<path style="fill:#FFFFFF;" d="M14.92,22.16V68.5h60.869V21.403l-4.29-4.243H19.362L14.92,22.16z M69.229,55.672H55.334
			l-5.708,5.983H24.126l-2.931-3.329V26.523l2.931-3.088h41.932l3.17,3.235V55.672z"/>
	</g>
</g>
</svg>
