<svg xmlns="http://www.w3.org/2000/svg" viewBox="0 0 90.709 90.709"><circle transform="matrix(.9239 -.3827 .3827 .9239 -13.9041 20.8088)" cx="45.354" cy="45.355" r="43.52" fill="#194093"/><path d="M45.354 2.835c23.483 0 42.52 19.037 42.52 42.52s-19.037 42.52-42.52 42.52-42.52-19.037-42.52-42.52 19.037-42.52 42.52-42.52m0-2C20.806.835.834 20.806.834 45.355s19.971 44.52 44.52 44.52 44.52-19.971 44.52-44.52S69.903.835 45.354.835h0z" fill="#252e78"/><path d="M34.857 33.121l10.472 6.04 10.471-6.04-10.465-6.041zm22.957 3.576l-10.464 6.02v12.121l10.464-6.083zm-24.919 0l10.464 6.02v12.121l-10.465-6.083z" fill="#f8c409"/><path d="M14.92 22.16V68.5h60.869V21.403l-4.29-4.243H19.362l-4.442 5zm54.309 33.512H55.334l-5.708 5.983h-25.5l-2.931-3.329V26.523l2.931-3.088h41.932l3.17 3.235v29.002z" fill="#fff"/></svg>