<svg xmlns="http://www.w3.org/2000/svg" viewBox="0 0 90.709 90.709"><circle cx="45.354" cy="45.355" r="43.52" fill="#194093"/><path d="M45.354 2.835c23.483 0 42.52 19.037 42.52 42.52s-19.037 42.52-42.52 42.52-42.52-19.037-42.52-42.52 19.037-42.52 42.52-42.52m0-2C20.806.835.834 20.806.834 45.355s19.971 44.52 44.52 44.52 44.52-19.971 44.52-44.52S69.903.835 45.354.835h0z" fill="#252e78"/><path d="M54.648 33.19H22.061a2 2 0 1 1 0-4h32.587a2 2 0 1 1 0 4zm26.455 10.417H22.061a2 2 0 1 1 0-4h59.042a2 2 0 1 1 0 4zm-51.104 8.139h-7.938a2 2 0 1 1 0-4h7.938a2 2 0 1 1 0 4zm0 8.139h-7.938a2 2 0 1 1 0-4h7.938a2 2 0 1 1 0 4zm0 8.138h-7.938a2 2 0 1 1 0-4h7.938a2 2 0 1 1 0 4z" fill="#f8c409"/><path d="M81.103 51.746H39.81a2 2 0 1 1 0-4h41.293a2 2 0 1 1 0 4zm-14.167 8.139H39.81a2 2 0 1 1 0-4h27.126a2 2 0 1 1 0 4zm0 8.138H39.81a2 2 0 1 1 0-4h27.126a2 2 0 1 1 0 4zm0 8.14H39.81a2 2 0 1 1 0-4h27.126a2 2 0 1 1 0 4z" fill="#fff"/><path d="M26.863 25.469a1.99 1.99 0 0 1-1.414-.586l-4.802-4.803a2 2 0 0 1 0-2.828l4.802-4.803a2 2 0 0 1 2.828 2.828l-3.388 3.389 3.388 3.389a2 2 0 0 1 0 2.828 1.99 1.99 0 0 1-1.414.586zm15.916 0a1.99 1.99 0 0 1-1.414-.586 2 2 0 0 1 0-2.828l3.389-3.389-3.389-3.389a2 2 0 0 1 2.828-2.828l4.803 4.803a2 2 0 0 1 0 2.828l-4.803 4.803a1.99 1.99 0 0 1-1.414.586zm-9.864.001c-.256 0-.517-.05-.768-.154a2 2 0 0 1-1.078-2.615l4-9.605a2 2 0 1 1 3.693 1.537l-4 9.605a2 2 0 0 1-1.847 1.232z" fill="#f8c409"/></svg>