<?xml version="1.0" encoding="iso-8859-1"?>
<!-- Generator: Adobe Illustrator 22.1.0, SVG Export Plug-In . SVG Version: 6.00 Build 0)  -->
<svg version="1.1" xmlns="http://www.w3.org/2000/svg" xmlns:xlink="http://www.w3.org/1999/xlink" x="0px" y="0px"
	 viewBox="0 0 90.709 90.709" style="enable-background:new 0 0 90.709 90.709;" xml:space="preserve">
<g id="ratownik-1">
	<g>
		<g>
			<circle style="fill:#194093;" cx="45.354" cy="45.355" r="43.52"/>
			<g>
				<path style="fill:#252E78;" d="M45.354,2.835c23.483,0,42.52,19.037,42.52,42.52s-19.037,42.52-42.52,42.52
					s-42.52-19.037-42.52-42.52S21.871,2.835,45.354,2.835 M45.354,0.835c-24.548,0-44.52,19.971-44.52,44.52
					s19.971,44.52,44.52,44.52s44.52-19.971,44.52-44.52S69.903,0.835,45.354,0.835L45.354,0.835z"/>
			</g>
		</g>
	</g>
</g>
<g id="Warstwa_4">
	<g>
		<g>
			<path style="fill:#F8C409;" d="M54.648,33.19H22.061c-1.104,0-2-0.896-2-2s0.896-2,2-2h32.587c1.104,0,2,0.896,2,2
				S55.752,33.19,54.648,33.19z"/>
		</g>
		<g>
			<path style="fill:#F8C409;" d="M81.103,43.607H22.061c-1.104,0-2-0.896-2-2s0.896-2,2-2h59.042c1.104,0,2,0.896,2,2
				S82.208,43.607,81.103,43.607z"/>
		</g>
		<g>
			<path style="fill:#F8C409;" d="M29.999,51.746h-7.938c-1.104,0-2-0.896-2-2s0.896-2,2-2h7.938c1.104,0,2,0.896,2,2
				S31.103,51.746,29.999,51.746z"/>
		</g>
		<g>
			<path style="fill:#F8C409;" d="M29.999,59.885h-7.938c-1.104,0-2-0.896-2-2s0.896-2,2-2h7.938c1.104,0,2,0.896,2,2
				S31.103,59.885,29.999,59.885z"/>
		</g>
		<g>
			<path style="fill:#F8C409;" d="M29.999,68.023h-7.938c-1.104,0-2-0.896-2-2s0.896-2,2-2h7.938c1.104,0,2,0.896,2,2
				S31.103,68.023,29.999,68.023z"/>
		</g>
		<g>
			<path style="fill:#FFFFFF;" d="M81.103,51.746H39.81c-1.104,0-2-0.896-2-2s0.896-2,2-2h41.293c1.104,0,2,0.896,2,2
				S82.208,51.746,81.103,51.746z"/>
		</g>
		<g>
			<path style="fill:#FFFFFF;" d="M66.936,59.885H39.81c-1.104,0-2-0.896-2-2s0.896-2,2-2h27.126c1.104,0,2,0.896,2,2
				S68.041,59.885,66.936,59.885z"/>
		</g>
		<g>
			<path style="fill:#FFFFFF;" d="M66.936,68.023H39.81c-1.104,0-2-0.896-2-2s0.896-2,2-2h27.126c1.104,0,2,0.896,2,2
				S68.041,68.023,66.936,68.023z"/>
		</g>
		<g>
			<path style="fill:#FFFFFF;" d="M66.936,76.163H39.81c-1.104,0-2-0.896-2-2s0.896-2,2-2h27.126c1.104,0,2,0.896,2,2
				S68.041,76.163,66.936,76.163z"/>
		</g>
		<g>
			<g>
				<path style="fill:#F8C409;" d="M26.863,25.469c-0.512,0-1.023-0.195-1.414-0.586l-4.802-4.803c-0.781-0.781-0.781-2.047,0-2.828
					l4.802-4.803c0.781-0.781,2.047-0.781,2.828,0c0.781,0.78,0.781,2.047,0,2.828l-3.388,3.389l3.388,3.389
					c0.781,0.781,0.781,2.048,0,2.828C27.886,25.274,27.375,25.469,26.863,25.469z"/>
			</g>
			<g>
				<path style="fill:#F8C409;" d="M42.779,25.469c-0.512,0-1.023-0.195-1.414-0.586c-0.781-0.781-0.781-2.047,0-2.828l3.389-3.389
					l-3.389-3.389c-0.781-0.781-0.781-2.047,0-2.828s2.047-0.781,2.828,0l4.803,4.803c0.781,0.781,0.781,2.047,0,2.828l-4.803,4.803
					C43.802,25.274,43.291,25.469,42.779,25.469z"/>
			</g>
			<g>
				<path style="fill:#F8C409;" d="M32.915,25.47c-0.256,0-0.517-0.05-0.768-0.154c-1.02-0.425-1.502-1.596-1.078-2.615l4-9.605
					c0.425-1.02,1.597-1.502,2.615-1.078c1.02,0.425,1.502,1.596,1.078,2.615l-4,9.605C34.442,25.007,33.698,25.47,32.915,25.47z"/>
			</g>
		</g>
	</g>
</g>
</svg>
