<?xml version="1.0" encoding="iso-8859-1"?>
<!-- Generator: Adobe Illustrator 22.1.0, SVG Export Plug-In . SVG Version: 6.00 Build 0)  -->
<svg version="1.1" xmlns="http://www.w3.org/2000/svg" xmlns:xlink="http://www.w3.org/1999/xlink" x="0px" y="0px"
	 viewBox="0 0 90.709 90.709" style="enable-background:new 0 0 90.709 90.709;" xml:space="preserve">
<g id="ratownik-1">
	<g>
		<g>
			<path style="fill:#194093;" d="M45.354,88.874c-23.997,0-43.52-19.522-43.52-43.52s19.522-43.52,43.52-43.52
				s43.521,19.522,43.521,43.52S69.351,88.874,45.354,88.874z"/>
			<g>
				<path style="fill:#252E78;" d="M45.354,2.835c23.483,0,42.52,19.037,42.52,42.52s-19.037,42.52-42.52,42.52
					c-23.483,0-42.52-19.037-42.52-42.52S21.871,2.835,45.354,2.835 M45.354,0.835c-24.548,0-44.52,19.971-44.52,44.52
					s19.971,44.52,44.52,44.52s44.52-19.971,44.52-44.52S69.903,0.835,45.354,0.835L45.354,0.835z"/>
			</g>
		</g>
	</g>
</g>
<g id="Warstwa_4">
	<g>
		<path style="fill:#F8C409;" d="M79.806,45.596h-6.675c-0.473,0-0.918,0.223-1.201,0.602l-3.232,4.319h-4.604v-3.663h3.355
			c0.828,0,1.5-0.672,1.5-1.5s-0.672-1.5-1.5-1.5h-3.355v-3.663h15.713c0.828,0,1.5-0.672,1.5-1.5s-0.672-1.5-1.5-1.5H64.093v-3.663
			h3.355c0.828,0,1.5-0.672,1.5-1.5s-0.672-1.5-1.5-1.5h-3.373c-0.088-2.117-1.778-3.808-3.895-3.896V23.26v-2.944
			c0-0.59-0.346-1.125-0.884-1.368l-5.779-2.602v-5.962c0-0.828-0.672-1.5-1.5-1.5s-1.5,0.672-1.5,1.5v6.932
			c0,0.59,0.346,1.125,0.884,1.368l5.779,2.602v1.975v3.356h-3.663V23.26c0-0.828-0.672-1.5-1.5-1.5s-1.5,0.672-1.5,1.5v3.356
			h-3.664V23.26c0-0.828-0.672-1.5-1.5-1.5s-1.5,0.672-1.5,1.5v3.356h-3.663V14.014c0-0.828-0.672-1.5-1.5-1.5s-1.5,0.672-1.5,1.5
			v12.601h-3.663V23.26c0-0.828-0.672-1.5-1.5-1.5s-1.5,0.672-1.5,1.5v3.373c-2.117,0.088-3.807,1.779-3.895,3.896H21.26
			c-0.302,0-0.596,0.091-0.845,0.261l-8.204,5.592c-0.685,0.467-0.861,1.399-0.395,2.084c0.29,0.426,0.761,0.655,1.24,0.655
			c0.291,0,0.585-0.084,0.844-0.261l7.822-5.331h4.893v3.663H23.26c-0.828,0-1.5,0.672-1.5,1.5s0.672,1.5,1.5,1.5h3.355v3.663H23.26
			c-0.828,0-1.5,0.672-1.5,1.5s0.672,1.5,1.5,1.5h3.355v3.663H23.26c-0.828,0-1.5,0.672-1.5,1.5s0.672,1.5,1.5,1.5h3.355v3.663
			h-4.039l-4.574-4.063c-0.274-0.244-0.629-0.379-0.996-0.379h-5.939c-0.828,0-1.5,0.672-1.5,1.5s0.672,1.5,1.5,1.5h5.369
			l4.574,4.063c0.274,0.244,0.629,0.379,0.996,0.379h4.626c0.088,2.117,1.778,3.808,3.895,3.896v6.769
			c0,0.545,0.295,1.047,0.771,1.311l3.671,2.041v5.493c0,0.828,0.672,1.5,1.5,1.5s1.5-0.672,1.5-1.5v-6.375
			c0-0.545-0.295-1.047-0.771-1.311l-3.671-2.041v-5.871h3.663v3.356c0,0.828,0.672,1.5,1.5,1.5s1.5-0.672,1.5-1.5v-3.356h3.663
			v5.356c0,0.434,0.188,0.847,0.516,1.132l3.927,3.417v6.527c0,0.828,0.672,1.5,1.5,1.5s1.5-0.672,1.5-1.5v-7.21
			c0-0.434-0.188-0.847-0.516-1.132l-3.927-3.417v-4.673h3.664v3.356c0,0.828,0.672,1.5,1.5,1.5s1.5-0.672,1.5-1.5v-3.356h3.663
			v12.715c0,0.828,0.672,1.5,1.5,1.5s1.5-0.672,1.5-1.5V64.076c2.174-0.09,3.912-1.868,3.912-4.064v-0.064h5.427l4.113,4.016
			c0.292,0.285,0.67,0.427,1.048,0.427c0.39,0,0.779-0.151,1.073-0.452c0.579-0.593,0.567-1.542-0.025-2.121l-4.55-4.442
			c-0.28-0.273-0.656-0.427-1.048-0.427h-6.038v-3.431h5.355c0.473,0,0.918-0.223,1.201-0.602l3.232-4.319h5.924
			c0.828,0,1.5-0.672,1.5-1.5S80.634,45.596,79.806,45.596z"/>
		<g>
			<path style="fill:#FFFFFF;" d="M54.03,58.11h-17.35c-2.254,0-4.081-1.827-4.081-4.081v-17.35c0-2.254,1.827-4.081,4.081-4.081
				h17.35c2.254,0,4.081,1.827,4.081,4.081v17.35C58.11,56.283,56.283,58.11,54.03,58.11z"/>
		</g>
		<g>
			<circle style="fill:#FFFFFF;" cx="38.691" cy="14.015" r="2.835"/>
		</g>
		<g>
			<circle style="fill:#FFFFFF;" cx="36.47" cy="79.69" r="2.835"/>
		</g>
		<g>
			<circle style="fill:#FFFFFF;" cx="49.796" cy="80.525" r="2.835"/>
		</g>
		<g>
			<circle style="fill:#FFFFFF;" cx="52.017" cy="10.384" r="2.835"/>
		</g>
		<g>
			<circle style="fill:#FFFFFF;" cx="58.681" cy="76.809" r="2.835"/>
		</g>
		<g>
			<circle style="fill:#FFFFFF;" cx="79.806" cy="47.097" r="2.835"/>
		</g>
		<g>
			<circle style="fill:#FFFFFF;" cx="74.681" cy="62.89" r="2.835"/>
		</g>
		<g>
			<circle style="fill:#FFFFFF;" cx="79.806" cy="38.691" r="2.835"/>
		</g>
		<g>
			<circle style="fill:#FFFFFF;" cx="13.056" cy="37.62" r="2.835"/>
		</g>
		<g>
			<circle style="fill:#FFFFFF;" cx="11.067" cy="54.239" r="2.835"/>
		</g>
	</g>
</g>
</svg>
