<svg xmlns="http://www.w3.org/2000/svg" viewBox="0 0 90.709 90.709"><path d="M45.354 88.874c-23.997 0-43.52-19.522-43.52-43.52s19.522-43.52 43.52-43.52 43.521 19.522 43.521 43.52-19.524 43.52-43.521 43.52z" fill="#194093"/><path d="M45.354 2.835c23.483 0 42.52 19.037 42.52 42.52s-19.037 42.52-42.52 42.52-42.52-19.037-42.52-42.52 19.037-42.52 42.52-42.52m0-2C20.806.835.834 20.806.834 45.355s19.971 44.52 44.52 44.52 44.52-19.971 44.52-44.52S69.903.835 45.354.835h0z" fill="#252e78"/><path d="M79.806 45.596h-6.675a1.5 1.5 0 0 0-1.201.602l-3.232 4.319h-4.604v-3.663h3.355a1.5 1.5 0 1 0 0-3h-3.355v-3.663h15.713a1.5 1.5 0 1 0 0-3H64.093v-3.663h3.355a1.5 1.5 0 1 0 0-3h-3.373c-.088-2.117-1.778-3.808-3.895-3.896V23.26v-2.944a1.5 1.5 0 0 0-.884-1.368l-5.779-2.602v-5.962a1.5 1.5 0 1 0-3 0v6.932a1.5 1.5 0 0 0 .884 1.368l5.779 2.602v1.975 3.356h-3.663V23.26a1.5 1.5 0 1 0-3 0v3.356h-3.664V23.26a1.5 1.5 0 1 0-3 0v3.356H40.19V14.014a1.5 1.5 0 1 0-3 0v12.601h-3.663V23.26a1.5 1.5 0 1 0-3 0v3.373c-2.117.088-3.807 1.779-3.895 3.896H21.26c-.302 0-.596.091-.845.261l-8.204 5.592a1.5 1.5 0 0 0-.395 2.084c.29.426.761.655 1.24.655a1.49 1.49 0 0 0 .844-.261l7.822-5.331h4.893v3.663H23.26a1.5 1.5 0 1 0 0 3h3.355v3.663H23.26a1.5 1.5 0 1 0 0 3h3.355v3.663H23.26a1.5 1.5 0 1 0 0 3h3.355v3.663h-4.039l-4.574-4.063a1.5 1.5 0 0 0-.996-.379h-5.939a1.5 1.5 0 1 0 0 3h5.369l4.574 4.063a1.5 1.5 0 0 0 .996.379h4.626c.088 2.117 1.778 3.808 3.895 3.896v6.769a1.5 1.5 0 0 0 .771 1.311l3.671 2.041v5.493a1.5 1.5 0 1 0 3 0v-6.375a1.5 1.5 0 0 0-.771-1.311l-3.671-2.041v-5.871h3.663v3.356a1.5 1.5 0 1 0 3 0v-3.356h3.663v5.356a1.5 1.5 0 0 0 .516 1.132l3.927 3.417v6.527a1.5 1.5 0 1 0 3 0v-7.21a1.5 1.5 0 0 0-.516-1.132l-3.927-3.417v-4.673h3.664v3.356a1.5 1.5 0 1 0 3 0v-3.356h3.663v12.715a1.5 1.5 0 1 0 3 0V64.076c2.174-.09 3.912-1.868 3.912-4.064v-.064h5.427l4.113 4.016c.292.285.67.427 1.048.427.39 0 .779-.151 1.073-.452a1.5 1.5 0 0 0-.025-2.121l-4.55-4.442a1.5 1.5 0 0 0-1.048-.427h-6.038v-3.431h5.355a1.5 1.5 0 0 0 1.201-.602l3.232-4.319h5.924a1.5 1.5 0 0 0 .002-3.001z" fill="#f8c409"/><g fill="#fff"><path d="M54.03 58.11H36.68a4.08 4.08 0 0 1-4.081-4.081v-17.35a4.08 4.08 0 0 1 4.081-4.081h17.35a4.08 4.08 0 0 1 4.081 4.081v17.35c-.001 2.254-1.828 4.081-4.081 4.081z"/><circle cx="38.691" cy="14.015" r="2.835"/><circle cx="36.47" cy="79.69" r="2.835"/><circle cx="49.796" cy="80.525" r="2.835"/><circle cx="52.017" cy="10.384" r="2.835"/><circle cx="58.681" cy="76.809" r="2.835"/><circle cx="79.806" cy="47.097" r="2.835"/><circle cx="74.681" cy="62.89" r="2.835"/><circle cx="79.806" cy="38.691" r="2.835"/><circle cx="13.056" cy="37.62" r="2.835"/><circle cx="11.067" cy="54.239" r="2.835"/></g></svg>