<svg xmlns="http://www.w3.org/2000/svg" viewBox="0 0 90.709 90.709"><circle cx="45.354" cy="45.355" r="43.52" fill="#194093"/><path d="M45.354 2.835c23.483 0 42.52 19.037 42.52 42.52s-19.037 42.52-42.52 42.52-42.52-19.037-42.52-42.52 19.037-42.52 42.52-42.52m0-2C20.806.835.834 20.806.834 45.355s19.971 44.52 44.52 44.52 44.52-19.971 44.52-44.52S69.903.835 45.354.835h0z" fill="#252e78"/><path d="M50.121 60.16C48.629 63.898 46.837 66 45.354 66c-2.192 0-5.069-4.553-6.635-12.287h9.607l-1.392-5h-8.971a66.1 66.1 0 0 1-.378-7.093 66.34 66.34 0 0 1 .378-7.092h14.784c.237 2.2.378 4.561.378 7.092 0 1.294-.046 2.531-.112 3.74l4.834 2.571c.183-2.078.278-4.196.278-6.312a71.73 71.73 0 0 0-.351-7.092h10.905c.684 2.245 1.055 4.626 1.055 7.092s-.371 4.847-1.056 7.093h-9.364l12.104 6.439a29.19 29.19 0 0 0 3.315-13.532c0-16.2-13.18-29.379-29.379-29.379S15.975 25.421 15.975 41.62 29.155 71 45.354 71a29.28 29.28 0 0 0 7.513-.978l-2.746-9.862zM32.935 48.713H22.031c-.684-2.246-1.056-4.626-1.056-7.093s.371-4.847 1.055-7.092h10.905a71.73 71.73 0 0 0-.351 7.092c0 2.382.119 4.767.351 7.093zm5.785-19.185c1.565-7.734 4.442-12.287 6.635-12.287s5.069 4.553 6.635 12.287H38.72zm27.79 0h-9.43c-.75-4.137-1.903-7.891-3.445-10.837A24.51 24.51 0 0 1 66.51 29.528zM37.074 18.691c-1.542 2.946-2.694 6.7-3.445 10.837h-9.43c2.856-4.977 7.411-8.858 12.875-10.837zM24.199 53.713h9.43c.75 4.136 1.903 7.89 3.445 10.836-5.463-1.978-10.019-5.859-12.875-10.836z" fill="#f8c409"/><path d="M64.568 61.958l7.548-3.037-22.568-12.005 6.857 24.626 4.592-6.716 6.106 7.601 3.571-2.868z" fill="#fff"/></svg>