<?xml version="1.0" encoding="iso-8859-1"?>
<!-- Generator: Adobe Illustrator 22.1.0, SVG Export Plug-In . SVG Version: 6.00 Build 0)  -->
<svg version="1.1" xmlns="http://www.w3.org/2000/svg" xmlns:xlink="http://www.w3.org/1999/xlink" x="0px" y="0px"
	 viewBox="0 0 90.709 90.709" style="enable-background:new 0 0 90.709 90.709;" xml:space="preserve">
<g id="ratownik-1">
	<g>
		<g>
			<circle style="fill:#194093;" cx="45.354" cy="45.355" r="43.52"/>
			<g>
				<path style="fill:#252E78;" d="M45.354,2.835c23.483,0,42.52,19.037,42.52,42.52s-19.037,42.52-42.52,42.52
					s-42.52-19.037-42.52-42.52S21.871,2.835,45.354,2.835 M45.354,0.835c-24.548,0-44.52,19.971-44.52,44.52
					s19.971,44.52,44.52,44.52s44.52-19.971,44.52-44.52S69.903,0.835,45.354,0.835L45.354,0.835z"/>
			</g>
		</g>
	</g>
</g>
<g id="Warstwa_4">
	<g>
		<path style="fill:#F8C409;" d="M50.121,60.16C48.629,63.898,46.837,66,45.354,66c-2.192,0-5.069-4.553-6.635-12.287h9.607
			l-1.392-5h-8.971c-0.237-2.2-0.378-4.561-0.378-7.093c0-2.531,0.142-4.893,0.378-7.092h14.784c0.237,2.2,0.378,4.561,0.378,7.092
			c0,1.294-0.046,2.531-0.112,3.74l4.834,2.571c0.183-2.078,0.278-4.196,0.278-6.312c0-2.381-0.119-4.766-0.351-7.092h10.905
			c0.684,2.245,1.055,4.626,1.055,7.092c0,2.466-0.371,4.847-1.056,7.093h-9.364l12.104,6.439c2.113-4.053,3.315-8.654,3.315-13.532
			c0-16.2-13.18-29.379-29.379-29.379S15.975,25.421,15.975,41.62S29.155,71,45.354,71c2.596,0,5.114-0.342,7.513-0.978
			L50.121,60.16z M32.935,48.713H22.031c-0.684-2.246-1.056-4.626-1.056-7.093c0-2.466,0.371-4.847,1.055-7.092h10.905
			c-0.232,2.326-0.351,4.711-0.351,7.092C32.584,44.002,32.703,46.387,32.935,48.713z M38.72,29.528
			c1.565-7.734,4.442-12.287,6.635-12.287s5.069,4.553,6.635,12.287H38.72z M66.51,29.528h-9.43
			c-0.75-4.137-1.903-7.891-3.445-10.837C59.098,20.67,63.654,24.551,66.51,29.528z M37.074,18.691
			c-1.542,2.946-2.694,6.7-3.445,10.837h-9.43C27.055,24.551,31.61,20.67,37.074,18.691z M24.199,53.713h9.43
			c0.75,4.136,1.903,7.89,3.445,10.836C31.611,62.571,27.055,58.69,24.199,53.713z"/>
		<polygon style="fill:#FFFFFF;" points="64.568,61.958 72.116,58.921 49.548,46.916 56.405,71.542 60.997,64.826 67.103,72.427 
			70.674,69.559 		"/>
	</g>
</g>
</svg>
