<?xml version="1.0" encoding="iso-8859-1"?>
<!-- Generator: Adobe Illustrator 22.1.0, SVG Export Plug-In . SVG Version: 6.00 Build 0)  -->
<svg version="1.1" xmlns="http://www.w3.org/2000/svg" xmlns:xlink="http://www.w3.org/1999/xlink" x="0px" y="0px"
	 viewBox="0 0 105.473 94.038" style="enable-background:new 0 0 105.473 94.038;" xml:space="preserve">
<g id="Warstwa_1">
	<g>
		<path style="fill:#F0AE00;" d="M52.736,92.494c-3.117,0-5.909-1.612-7.468-4.311L2.715,14.478
			c-1.559-2.699-1.559-5.923-0.001-8.622c1.559-2.699,4.351-4.311,7.468-4.311h85.107c3.117,0,5.909,1.612,7.468,4.311
			c1.558,2.699,1.558,5.923-0.001,8.622L60.204,88.183C58.645,90.882,55.854,92.494,52.736,92.494"/>
		<path style="fill:#F19E19;" d="M95.29,3.088c5.449,0,8.855,5.899,6.131,10.618L58.867,87.411
			c-1.362,2.359-3.746,3.539-6.131,3.539s-4.768-1.18-6.131-3.539L4.052,13.706C1.328,8.987,4.734,3.088,10.183,3.088H95.29
			 M95.29,0H10.183C6.507,0,3.216,1.9,1.378,5.083c-1.838,3.184-1.838,6.984,0,10.167l42.553,73.705
			c1.837,3.183,5.129,5.083,8.805,5.083c3.675,0,6.967-1.9,8.805-5.083l42.553-73.705c1.838-3.183,1.838-6.983,0-10.167
			C102.256,1.9,98.965,0,95.29,0"/>
	</g>
	<g>
		<g>
			<g>
				<path style="fill:#26B4E6;" d="M72.278,43.125c0.581-0.015,2.229-0.103,3.306-0.601c1.327-0.613,2.229-1.383,2.475-1.604
					c2.528-2.279,2.216-4.524,1.698-5.804c-2.219-3.81-5.632-9.731-5.632-9.731l-11.69,6.749c0,0,3.507,5.922,6.493,10.99H72.278z"
					/>
				<path style="fill:#26B4E6;" d="M76.843,45.247c-1.816,0.841-4.144,0.878-4.541,0.878c-0.014,0-5.801,0-8.366,0v-3.302
					l-9.648,9.648l9.648,9.648v-3.321h4.113c2.492-0.048,2.853-1.109,2.853-1.109c2.53-4.534,5.243-8.962,7.791-13.486
					C78.183,44.546,77.565,44.913,76.843,45.247z"/>
			</g>
		</g>
		<g>
			<g>
				<path style="fill:#FFFFFF;" d="M36.272,48.465c-0.278,0.511-1.026,1.982-1.133,3.163c-0.132,1.456,0.083,2.622,0.151,2.945
					c0.71,3.329,2.81,4.181,4.178,4.373c4.409-0.017,11.243-0.012,11.243-0.012l0-13.498c0,0-6.882,0.076-12.764,0.129
					L36.272,48.465z"/>
				<path style="fill:#FFFFFF;" d="M32.151,51.357c0.18-1.993,1.311-4.027,1.51-4.371c0.007-0.012,2.9-5.024,4.183-7.245
					l2.859,1.651l-3.532-13.18l-13.18,3.532l2.876,1.661l-2.057,3.562c-1.205,2.182-0.466,3.025-0.466,3.025
					c2.661,4.458,5.14,9.022,7.784,13.49C32.089,52.868,32.079,52.149,32.151,51.357z"/>
			</g>
		</g>
		<g>
			<g>
				<path style="fill:#94B516;" d="M49.444,14.114c-0.303-0.496-1.204-1.88-2.173-2.562c-1.194-0.842-2.312-1.239-2.626-1.341
					c-3.238-1.049-5.025,0.343-5.876,1.432c-2.19,3.827-5.611,9.742-5.611,9.742l11.69,6.749c0,0,3.375-5.998,6.271-11.118
					L49.444,14.114z"/>
				<path style="fill:#94B516;" d="M48.999,9.1c1.636,1.153,2.832,3.149,3.031,3.493c0.007,0.012,2.901,5.023,4.183,7.245
					l-2.859,1.651l13.18,3.532l3.532-13.18l-2.876,1.661L65.132,9.94c-1.287-2.134-2.386-1.916-2.386-1.916
					c-5.192,0.076-10.383-0.06-15.575-0.004C47.722,8.29,48.349,8.641,48.999,9.1z"/>
			</g>
		</g>
	</g>
</g>
<g id="Warstwa_2">
</g>
<g id="Warstwa_3" style="display:none;">
</g>
</svg>
