<svg xmlns="http://www.w3.org/2000/svg" viewBox="0 0 105.473 94.038"><path d="M52.736 92.494c-3.117 0-5.909-1.612-7.468-4.311L2.715 14.478a8.53 8.53 0 0 1-.001-8.622c1.559-2.699 4.351-4.311 7.468-4.311h85.107c3.117 0 5.909 1.612 7.468 4.311a8.53 8.53 0 0 1-.001 8.622L60.204 88.183c-1.559 2.699-4.35 4.311-7.468 4.311" fill="#f0ae00"/><path d="M95.29 3.088c5.449 0 8.855 5.899 6.131 10.618L58.867 87.411c-1.362 2.359-3.746 3.539-6.131 3.539s-4.768-1.18-6.131-3.539L4.052 13.706c-2.724-4.719.682-10.618 6.131-10.618H95.29m0-3.088H10.183a10.06 10.06 0 0 0-8.805 5.083 10.06 10.06 0 0 0 0 10.167l42.553 73.705a10.06 10.06 0 0 0 8.805 5.083 10.06 10.06 0 0 0 8.805-5.083l42.553-73.705a10.06 10.06 0 0 0 0-10.167A10.06 10.06 0 0 0 95.29 0" fill="#f19e19"/><path d="M72.278 43.125c.581-.015 2.229-.103 3.306-.601 1.327-.613 2.229-1.383 2.475-1.604 2.528-2.279 2.216-4.524 1.698-5.804l-5.632-9.731-11.69 6.749 6.493 10.99h3.35zm4.565 2.122c-1.816.841-4.144.878-4.541.878h-8.366v-3.302l-9.648 9.648 9.648 9.648v-3.321h4.113c2.492-.048 2.853-1.109 2.853-1.109 2.53-4.534 5.243-8.962 7.791-13.486-.51.343-1.128.71-1.85 1.044z" fill="#26b4e6"/><path d="M36.272 48.465c-.278.511-1.026 1.982-1.133 3.163-.132 1.456.083 2.622.151 2.945.71 3.329 2.81 4.181 4.178 4.373l11.243-.012V45.436l-12.764.129-1.675 2.9zm-4.121 2.892c.18-1.993 1.311-4.027 1.51-4.371l4.183-7.245 2.859 1.651-3.532-13.18-13.18 3.532 2.876 1.661-2.057 3.562c-1.205 2.182-.466 3.025-.466 3.025l7.784 13.49c-.039-.614-.049-1.333.023-2.125z" fill="#fff"/><path d="M49.444 14.114c-.303-.496-1.204-1.88-2.173-2.562-1.194-.842-2.312-1.239-2.626-1.341-3.238-1.049-5.025.343-5.876 1.432l-5.611 9.742 11.69 6.749 6.271-11.118-1.675-2.902zM48.999 9.1c1.636 1.153 2.832 3.149 3.031 3.493l4.183 7.245-2.859 1.651 13.18 3.532 3.532-13.18-2.876 1.661-2.058-3.562c-1.287-2.134-2.386-1.916-2.386-1.916-5.192.076-10.383-.06-15.575-.004a13.34 13.34 0 0 1 1.828 1.08z" fill="#94b516"/></svg>