<?xml version="1.0" encoding="iso-8859-1"?>
<!-- Generator: Adobe Illustrator 22.1.0, SVG Export Plug-In . SVG Version: 6.00 Build 0)  -->
<svg version="1.1" xmlns="http://www.w3.org/2000/svg" xmlns:xlink="http://www.w3.org/1999/xlink" x="0px" y="0px"
	 viewBox="0 0 105.473 94.038" style="enable-background:new 0 0 105.473 94.038;" xml:space="preserve">
<g id="Warstwa_1">
	<g>
		<path style="fill:#F0AE00;" d="M52.736,92.494c-3.117,0-5.909-1.612-7.468-4.311L2.715,14.478
			c-1.559-2.699-1.559-5.923-0.001-8.622c1.559-2.699,4.351-4.311,7.468-4.311h85.107c3.117,0,5.909,1.612,7.468,4.311
			c1.558,2.699,1.558,5.923-0.001,8.622L60.204,88.183C58.645,90.882,55.854,92.494,52.736,92.494"/>
		<path style="fill:#F19E19;" d="M95.29,3.088c5.449,0,8.855,5.899,6.131,10.618L58.867,87.411
			c-1.362,2.359-3.746,3.539-6.131,3.539s-4.768-1.18-6.131-3.539L4.052,13.706C1.328,8.987,4.734,3.088,10.183,3.088H95.29
			 M95.29,0H10.183C6.507,0,3.216,1.9,1.378,5.083c-1.838,3.184-1.838,6.984,0,10.167l42.553,73.705
			c1.837,3.183,5.129,5.083,8.805,5.083c3.675,0,6.967-1.9,8.805-5.083l42.553-73.705c1.838-3.183,1.838-6.983,0-10.167
			C102.256,1.9,98.965,0,95.29,0"/>
	</g>
	<g>
		<path style="fill:#FFFFFF;" d="M69.061,32.78c0,0,6.003-20.168-1.918-24.809c-1.649-0.966-8.326,16.211-10.364,21.578
			c-2.452-0.476-5.214-0.474-7.663,0.006c-2.035-5.361-8.716-22.55-10.366-21.584c-7.921,4.641-1.918,24.809-1.918,24.809
			s-4.167,17.167-4.167,20.12c0,1.864,3.583,12.127,20.07,12.127c16.43,0,20.492-10.263,20.492-12.127
			C73.228,49.947,69.061,32.78,69.061,32.78z"/>
		<g>
			<path style="fill:#EC6608;" d="M59.022,54.387c0-2.074-2.814,0.464-6.285,0.464c-3.471,0-6.285-2.538-6.285-0.464
				c0,1.415,2.926,3.526,4.785,4.725v5.886c0.488,0.019,0.987,0.029,1.5,0.029c0.512,0,1.012-0.01,1.5-0.03v-5.886
				C56.096,57.913,59.022,55.802,59.022,54.387z"/>
		</g>
		<g>
			<path style="fill:#EC6608;" d="M38.791,13.472c-1.494,0.427-0.284,15.122,2.049,18.145c0.587,0.76,5.166,0,4.607-1.6
				C44.886,28.416,39.799,13.184,38.791,13.472z"/>
		</g>
		<g>
			<path style="fill:#EC6608;" d="M67.1,13.472c1.494,0.427,0.284,15.122-2.049,18.145c-0.587,0.76-5.166,0-4.607-1.6
				C61.005,28.416,66.092,13.184,67.1,13.472z"/>
		</g>
		<path style="fill:#26B4E6;" d="M63.779,39.155c-0.859,0-1.625,0.375-2.162,0.962c0.064,1.428,0.205,2.892,0.385,4.31
			c0.495,0.379,1.106,0.612,1.778,0.612c1.625,0,2.942-1.317,2.942-2.942C66.721,40.472,65.404,39.155,63.779,39.155z"/>
		<path style="fill:#26B4E6;" d="M41.693,39.155c0.859,0,1.625,0.375,2.162,0.962c-0.064,1.428-0.205,2.892-0.385,4.31
			c-0.495,0.379-1.106,0.612-1.778,0.612c-1.625,0-2.942-1.317-2.942-2.942C38.751,40.472,40.068,39.155,41.693,39.155z"/>
	</g>
</g>
<g id="Warstwa_2">
</g>
<g id="Warstwa_3" style="display:none;">
</g>
</svg>
