<svg xmlns="http://www.w3.org/2000/svg" viewBox="0 0 105.473 94.038"><path d="M52.736 92.494c-3.117 0-5.909-1.612-7.468-4.311L2.715 14.478a8.53 8.53 0 0 1-.001-8.622c1.559-2.699 4.351-4.311 7.468-4.311h85.107c3.117 0 5.909 1.612 7.468 4.311a8.53 8.53 0 0 1-.001 8.622L60.204 88.183c-1.559 2.699-4.35 4.311-7.468 4.311" fill="#f0ae00"/><path d="M95.29 3.088c5.449 0 8.855 5.899 6.131 10.618L58.867 87.411c-1.362 2.359-3.746 3.539-6.131 3.539s-4.768-1.18-6.131-3.539L4.052 13.706c-2.724-4.719.682-10.618 6.131-10.618H95.29m0-3.088H10.183a10.06 10.06 0 0 0-8.805 5.083 10.06 10.06 0 0 0 0 10.167l42.553 73.705a10.06 10.06 0 0 0 8.805 5.083 10.06 10.06 0 0 0 8.805-5.083l42.553-73.705a10.06 10.06 0 0 0 0-10.167A10.06 10.06 0 0 0 95.29 0" fill="#f19e19"/><path d="M69.061 32.78s6.003-20.168-1.918-24.809c-1.649-.966-8.326 16.211-10.364 21.578-2.452-.476-5.214-.474-7.663.006C47.081 24.194 40.4 7.005 38.75 7.971c-7.921 4.641-1.918 24.809-1.918 24.809s-4.167 17.167-4.167 20.12c0 1.864 3.583 12.127 20.07 12.127 16.43 0 20.492-10.263 20.492-12.127.001-2.953-4.166-20.12-4.166-20.12z" fill="#fff"/><path d="M59.022 54.387c0-2.074-2.814.464-6.285.464s-6.285-2.538-6.285-.464c0 1.415 2.926 3.526 4.785 4.725v5.886l1.5.029 1.5-.03v-5.886c1.859-1.198 4.785-3.309 4.785-4.724zM38.791 13.472c-1.494.427-.284 15.122 2.049 18.145.587.76 5.166 0 4.607-1.6s-5.648-16.833-6.656-16.545zm28.309 0c1.494.427.284 15.122-2.049 18.145-.587.76-5.166 0-4.607-1.6s5.648-16.833 6.656-16.545z" fill="#ec6608"/><path d="M63.779 39.155c-.859 0-1.625.375-2.162.962l.385 4.31a2.91 2.91 0 0 0 1.778.612c1.625 0 2.942-1.317 2.942-2.942s-1.318-2.942-2.943-2.942zm-22.086 0c.859 0 1.625.375 2.162.962l-.385 4.31a2.91 2.91 0 0 1-1.778.612c-1.625 0-2.942-1.317-2.942-2.942s1.318-2.942 2.943-2.942z" fill="#26b4e6"/></svg>