<svg xmlns="http://www.w3.org/2000/svg" viewBox="0 0 105.47 94.04"><path d="M52.74,92.49a8.54,8.54,0,0,1-7.47-4.31L2.72,14.48A8.62,8.62,0,0,1,10.18,1.54H95.29a8.63,8.63,0,0,1,7.47,12.94L60.2,88.18a8.53,8.53,0,0,1-7.46,4.31" fill="#f0ae00"/><path d="M95.29,3.09a7.08,7.08,0,0,1,6.13,10.62L58.87,87.41a7.08,7.08,0,0,1-12.26,0L4.05,13.71A7.08,7.08,0,0,1,10.18,3.09H95.29m0-3.09H10.18a10.17,10.17,0,0,0-8.8,15.25L43.93,89a10.16,10.16,0,0,0,17.61,0l42.55-73.7a10.06,10.06,0,0,0,0-10.17A10.06,10.06,0,0,0,95.29,0" fill="#f19e19"/><path d="M54.33 30c1.71 0 3.63-.27 4-1.32v-.09c.53-1.65-1.32-3.83-4.19-4.91s-5.62-.67-6.35.88c0 0-.05.08-.07.13-.56 1.47 1.63 3.78 3.49 4.71v26.11h3.07z" fill="#94b516"/><path d="M54.19 23.72c2.87 1.08 4.72 3.26 4.19 4.91a18.4 18.4 0 0 0 4.85-2.11c3.85-2.32 6.28-5.34 5.43-6.75-.53-.89-2.22-.93-4.36-.26 1.17-2.31 1.45-4.26.57-5s-2.51 0-4.34 1.43c.48-2.45.24-4.35-.78-4.79s-2.91 1-4.47 3.5c0-3.09-.78-5.39-2-5.57s-2.47 1.6-3.32 4.27c-1-2-2.21-3.2-3.22-3-1.61.36-2.1 4.21-1.1 8.59a16.84 16.84 0 0 0 2.24 5.59c.69-1.48 3.47-1.88 6.31-.81z" fill="#fff"/><path d="M47.86 51.26a1 1 0 0 0 1.56-.95c-.59-7.16-2-16.53-12.24-21.78a1 1 0 0 0-1.48 1c.49 4.47 2.66 16.05 12.16 21.73zm8.19-.95a1 1 0 0 0 1.56.95c9.5-5.68 11.67-17.25 12.16-21.7a1 1 0 0 0-1.48-1c-10.23 5.22-11.65 14.59-12.24 21.75z" fill="#94b516"/><path d="M61.52 55.51H44a2.3 2.3 0 0 0-2.25 2.77l2.39 11.82a2.3 2.3 0 0 0 2.26 1.84h12.68a2.3 2.3 0 0 0 2.25-1.84l2.45-11.82a2.31 2.31 0 0 0-2.26-2.77z" fill="#194093"/></svg>