<svg xmlns="http://www.w3.org/2000/svg" viewBox="0 0 105.473 94.038"><path d="M52.736 92.494c-3.117 0-5.909-1.612-7.468-4.311L2.715 14.478a8.53 8.53 0 0 1-.001-8.622c1.559-2.699 4.351-4.311 7.468-4.311h85.107c3.117 0 5.909 1.612 7.468 4.311a8.53 8.53 0 0 1-.001 8.622L60.204 88.183c-1.559 2.699-4.35 4.311-7.468 4.311" fill="#f0ae00"/><path d="M95.29 3.088c5.449 0 8.855 5.899 6.131 10.618L58.867 87.411c-1.362 2.359-3.746 3.539-6.131 3.539s-4.768-1.18-6.131-3.539L4.052 13.706c-2.724-4.719.682-10.618 6.131-10.618H95.29m0-3.088H10.183a10.06 10.06 0 0 0-8.805 5.083 10.06 10.06 0 0 0 0 10.167l42.553 73.705a10.06 10.06 0 0 0 8.805 5.083 10.06 10.06 0 0 0 8.805-5.083l42.553-73.705a10.06 10.06 0 0 0 0-10.167A10.06 10.06 0 0 0 95.29 0" fill="#f19e19"/><path d="M57.46 14.906c-1.804 0-3.555.224-5.231.638-1.676-.415-3.427-.638-5.231-.638-11.996 0-21.72 9.724-21.72 21.72s9.724 21.72 21.72 21.72H57.46c11.996 0 21.72-9.724 21.72-21.72s-9.725-21.72-21.72-21.72zM42.564 41.201a3.24 3.24 0 0 1-3.241-3.242c0-1.79 1.451-3.242 3.241-3.242s3.242 1.452 3.242 3.242a3.24 3.24 0 0 1-3.242 3.242zm20.344 0a3.24 3.24 0 0 1-3.241-3.242c0-1.79 1.452-3.242 3.241-3.242s3.242 1.452 3.242 3.242-1.452 3.242-3.242 3.242z" fill="#c90c0f"/><path d="M52.737 52.262c-3.294 0-5.975-2.68-5.975-5.975a1.6 1.6 0 1 1 3.2 0 2.78 2.78 0 0 0 2.775 2.775 2.78 2.78 0 0 0 2.774-2.775 1.6 1.6 0 1 1 3.2 0c0 3.296-2.68 5.975-5.974 5.975z" fill="#fff"/><path d="M64.165 15.683c2.485-2.067 3.857-4.193 3.857-4.193s-5.57-1.261-10.908.925l-2.386.958v-2.96a2.5 2.5 0 1 0-5 0v3.134a20.19 20.19 0 0 0-2.807-1.037c-6.932-1.963-13.666.384-13.666.384s4.015 4.923 10.294 7.127c-.627.286-1.276.542-1.949.762-4.176 1.362-8.123 1.299-10.983-1.105 1.807 4.57 6.057 7.669 10.832 7.389 2.958-.173 5.562-1.616 7.421-3.813 1.157 5.647 5.075 9.71 5.075 9.71s3.732-5.611 3.196-12.087c5.471 2.495 12.162-.26 15.024-6.236a13.24 13.24 0 0 0 .974-2.851c-2.304 2.518-5.498 3.758-8.974 3.893z" fill="#94b516"/></svg>