<?xml version="1.0" encoding="iso-8859-1"?>
<!-- Generator: Adobe Illustrator 22.1.0, SVG Export Plug-In . SVG Version: 6.00 Build 0)  -->
<svg version="1.1" xmlns="http://www.w3.org/2000/svg" xmlns:xlink="http://www.w3.org/1999/xlink" x="0px" y="0px"
	 viewBox="0 0 105.473 94.038" style="enable-background:new 0 0 105.473 94.038;" xml:space="preserve">
<g id="Warstwa_1">
	<g>
		<path style="fill:#F0AE00;" d="M52.736,92.494c-3.117,0-5.909-1.612-7.468-4.311L2.715,14.478
			c-1.559-2.699-1.559-5.923-0.001-8.622c1.559-2.699,4.351-4.311,7.468-4.311h85.107c3.117,0,5.909,1.612,7.468,4.311
			c1.558,2.699,1.558,5.923-0.001,8.622L60.204,88.183C58.645,90.882,55.854,92.494,52.736,92.494"/>
		<path style="fill:#F19E19;" d="M95.29,3.088c5.449,0,8.855,5.899,6.131,10.618L58.867,87.411
			c-1.362,2.359-3.746,3.539-6.131,3.539s-4.768-1.18-6.131-3.539L4.052,13.706C1.328,8.987,4.734,3.088,10.183,3.088H95.29
			 M95.29,0H10.183C6.507,0,3.216,1.9,1.378,5.083c-1.838,3.184-1.838,6.984,0,10.167l42.553,73.705
			c1.837,3.183,5.129,5.083,8.805,5.083c3.675,0,6.967-1.9,8.805-5.083l42.553-73.705c1.838-3.183,1.838-6.983,0-10.167
			C102.256,1.9,98.965,0,95.29,0"/>
	</g>
	<g>
		<path style="fill:#C90C0F;" d="M57.46,14.906c-1.804,0-3.555,0.224-5.231,0.638c-1.676-0.415-3.427-0.638-5.231-0.638
			c-11.996,0-21.72,9.724-21.72,21.72c0,11.996,9.724,21.72,21.72,21.72c1.804,0,8.658,0,10.462,0c11.996,0,21.72-9.724,21.72-21.72
			C79.18,24.631,69.455,14.906,57.46,14.906z M42.564,41.201c-1.79,0-3.241-1.451-3.241-3.242c0-1.79,1.451-3.242,3.241-3.242
			c1.791,0,3.242,1.452,3.242,3.242C45.806,39.75,44.355,41.201,42.564,41.201z M62.908,41.201c-1.79,0-3.241-1.451-3.241-3.242
			c0-1.79,1.452-3.242,3.241-3.242c1.791,0,3.242,1.452,3.242,3.242C66.15,39.75,64.698,41.201,62.908,41.201z"/>
		<g>
			<path style="fill:#FFFFFF;" d="M52.737,52.262c-3.294,0-5.975-2.68-5.975-5.975c0-0.884,0.716-1.6,1.6-1.6s1.6,0.716,1.6,1.6
				c0,1.53,1.245,2.775,2.775,2.775c1.53,0,2.774-1.245,2.774-2.775c0-0.884,0.716-1.6,1.6-1.6s1.6,0.716,1.6,1.6
				C58.711,49.583,56.031,52.262,52.737,52.262z"/>
		</g>
	</g>
	<path style="fill:#94B516;" d="M64.165,15.683c2.485-2.067,3.857-4.193,3.857-4.193s-5.57-1.261-10.908,0.925
		c-0.769,0.315-2.313,1.004-2.386,0.958v-2.96c0-1.381-1.119-2.5-2.5-2.5s-2.5,1.119-2.5,2.5v3.134
		c-0.884-0.399-1.818-0.757-2.807-1.037c-6.932-1.963-13.666,0.384-13.666,0.384s4.015,4.923,10.294,7.127
		c-0.627,0.286-1.276,0.542-1.949,0.762c-4.176,1.362-8.123,1.299-10.983-1.105c1.807,4.57,6.057,7.669,10.832,7.389
		c2.958-0.173,5.562-1.616,7.421-3.813c1.157,5.647,5.075,9.71,5.075,9.71s3.732-5.611,3.196-12.087
		c5.471,2.495,12.162-0.26,15.024-6.236c0.447-0.933,0.76-1.891,0.974-2.851C70.835,14.308,67.641,15.548,64.165,15.683z"/>
</g>
<g id="Warstwa_2">
</g>
<g id="Warstwa_3" style="display:none;">
</g>
</svg>
