<svg id="Warstwa_1" data-name="Warstwa 1" xmlns="http://www.w3.org/2000/svg" viewBox="0 0 105.47 94.04"><defs><style>.cls-1{fill:#f0ae00;}.cls-2{fill:#fff;}.cls-3{fill:#ec6608;}.cls-4{fill:#26b4e6;}.cls-5{fill:#f19e19;}</style></defs><title>sprawnosci-zuchowe</title><path class="cls-1" d="M52.74,92.49a8.54,8.54,0,0,1-7.47-4.31L2.72,14.48A8.62,8.62,0,0,1,10.18,1.54H95.29a8.63,8.63,0,0,1,7.47,12.94L60.2,88.18a8.53,8.53,0,0,1-7.46,4.31"/><path class="cls-2" d="M54.66,13.94A17.53,17.53,0,0,1,71.92,28.43a10.72,10.72,0,0,1-.35,21.43l-36.83,0A12.59,12.59,0,1,1,38.38,25a17.54,17.54,0,0,1,16.28-11"/><path class="cls-3" d="M21.64,30.51a15.61,15.61,0,0,1,14-8.85q.47,0,.93,0a20.51,20.51,0,0,1,7-7.55,14,14,0,1,0-22,16.37Z"/><path class="cls-4" d="M47.74,30.18a2.95,2.95,0,1,1-2.94-2.94,2.94,2.94,0,0,1,2.94,2.94"/><path class="cls-4" d="M53.65,43.73a5.36,5.36,0,0,1-5.35-5.35,1.5,1.5,0,0,1,3,0,2.35,2.35,0,1,0,4.7,0,1.5,1.5,0,1,1,3,0A5.36,5.36,0,0,1,53.65,43.73Z"/><path class="cls-4" d="M65.45,30.18a2.95,2.95,0,1,1-3-2.94,2.94,2.94,0,0,1,3,2.94"/><path class="cls-5" d="M95.29,3.09a7.08,7.08,0,0,1,6.13,10.62L58.87,87.41a7.08,7.08,0,0,1-12.26,0L4.05,13.71A7.08,7.08,0,0,1,10.18,3.09H95.29m0-3.09H10.18a10.17,10.17,0,0,0-8.8,15.25L43.93,89a10.16,10.16,0,0,0,17.61,0l42.55-73.7a10.06,10.06,0,0,0,0-10.17A10,10,0,0,0,95.29,0"/></svg>