<svg xmlns="http://www.w3.org/2000/svg" viewBox="0 0 105.473 94.038"><path d="M52.736 92.494c-3.117 0-5.909-1.612-7.468-4.311L2.715 14.478a8.53 8.53 0 0 1-.001-8.622c1.559-2.699 4.351-4.311 7.468-4.311h85.107c3.117 0 5.909 1.612 7.468 4.311a8.53 8.53 0 0 1-.001 8.622L60.204 88.183c-1.559 2.699-4.35 4.311-7.468 4.311" fill="#f0ae00"/><path d="M95.29 3.088c5.449 0 8.855 5.899 6.131 10.618L58.867 87.411c-1.362 2.359-3.746 3.539-6.131 3.539s-4.768-1.18-6.131-3.539L4.052 13.706c-2.724-4.719.682-10.618 6.131-10.618H95.29m0-3.088H10.183a10.06 10.06 0 0 0-8.805 5.083 10.06 10.06 0 0 0 0 10.167l42.553 73.705a10.06 10.06 0 0 0 8.805 5.083 10.06 10.06 0 0 0 8.805-5.083l42.553-73.705a10.06 10.06 0 0 0 0-10.167A10.06 10.06 0 0 0 95.29 0" fill="#f19e19"/><path d="M65.853 66.881c-2.573-2.675-4.891-5.459-6.952-8.385-.034-.048-.041-.104-.019-.159s.066-.091.123-.102c1.052-.213 2.042-.483 2.934-.811.183-.067.309-.209.353-.399s-.006-.373-.141-.514c-2.104-2.205-3.972-4.511-5.602-6.955-.032-.048-.038-.104-.015-.158s.066-.09.123-.101a13.42 13.42 0 0 0 1.586-.412c.187-.062.319-.203.367-.394s.001-.378-.134-.522c-2.152-2.294-3.904-4.763-5.25-7.506a.55.55 0 0 0-.503-.314.55.55 0 0 0-.503.314c-1.346 2.743-3.098 5.212-5.25 7.506a.55.55 0 0 0-.135.522c.048.191.18.332.367.394.492.163 1.026.301 1.587.412.057.011.1.047.122.101s.017.11-.016.158c-1.63 2.443-3.497 4.749-5.602 6.955-.134.141-.185.324-.14.514s.17.332.353.399c.893.328 1.882.598 2.934.811.058.012.102.048.123.102s.015.111-.018.159c-2.061 2.926-4.379 5.71-6.953 8.385-.134.139-.185.321-.143.51s.154.332.335.402c3.179 1.224 7.282 1.894 11.537 2.014v3.571h2.901v-3.571c4.062-.12 8.309-.79 11.488-2.014.18-.07.273-.213.315-.402s-.038-.37-.172-.51zm18.5-32.178c-2.573-2.675-4.891-5.459-6.952-8.385-.034-.048-.041-.104-.019-.159s.066-.091.123-.102c1.052-.213 2.042-.483 2.934-.811.183-.067.309-.209.353-.399s-.006-.373-.141-.514c-2.104-2.205-3.972-4.511-5.602-6.955-.032-.048-.038-.104-.015-.158s.066-.09.123-.101a13.42 13.42 0 0 0 1.586-.412c.187-.062.319-.203.367-.394s.001-.378-.134-.522c-2.152-2.294-3.904-4.763-5.25-7.506a.55.55 0 0 0-.503-.314.55.55 0 0 0-.503.314c-1.346 2.743-3.098 5.212-5.25 7.506a.55.55 0 0 0-.135.522c.048.191.18.332.367.394.492.163 1.026.301 1.587.412.057.011.1.047.122.101s.017.11-.016.158c-1.63 2.443-3.498 4.749-5.602 6.955-.134.141-.185.324-.14.514s.17.332.353.399c.893.328 1.882.598 2.934.811.058.012.102.048.123.102s.015.111-.018.159c-2.061 2.926-4.379 5.71-6.953 8.385-.134.139-.185.321-.143.51s.154.332.335.402c3.179 1.224 7.282 1.894 11.537 2.014V41.2h2.901v-3.571c4.062-.12 8.309-.79 11.488-2.014.18-.07.273-.213.315-.402s-.038-.371-.172-.51zm-37 0c-2.573-2.675-4.891-5.459-6.952-8.385-.034-.048-.041-.104-.019-.159s.066-.091.123-.102c1.052-.213 2.042-.483 2.934-.811.183-.067.309-.209.353-.399s-.006-.373-.141-.514c-2.104-2.205-3.972-4.511-5.602-6.955-.032-.048-.038-.104-.015-.158s.066-.09.123-.101a13.42 13.42 0 0 0 1.586-.412c.187-.062.319-.203.367-.394s.001-.378-.134-.522c-2.152-2.294-3.904-4.763-5.25-7.506a.55.55 0 0 0-.503-.314.55.55 0 0 0-.503.314c-1.346 2.743-3.098 5.212-5.25 7.506a.55.55 0 0 0-.135.522c.048.191.18.332.367.394.492.163 1.026.301 1.587.412.057.011.1.047.122.101s.017.11-.016.158c-1.63 2.443-3.497 4.749-5.602 6.955-.134.141-.185.324-.14.514s.17.332.353.399c.893.328 1.882.598 2.934.811.058.012.102.048.123.102s.015.111-.018.159c-2.061 2.926-4.379 5.71-6.953 8.385-.134.139-.185.321-.143.51s.154.332.335.402c3.179 1.224 7.282 1.894 11.537 2.014V41.2h2.901v-3.571c4.062-.12 8.309-.79 11.488-2.014.18-.07.273-.213.315-.402s-.038-.371-.172-.51z" fill-rule="evenodd" fill="#94b516"/></svg>