<svg id="Warstwa_1" data-name="Warstwa 1" xmlns="http://www.w3.org/2000/svg" viewBox="0 0 105.47 94.04"><defs><style>.cls-1{fill:#f0ae00;}.cls-2{fill:#f19e19;}.cls-3{fill:#194093;}.cls-4{fill:#ec6608;}.cls-5{fill:#fff;}.cls-6{fill:#26b4e6;}</style></defs><title>sprawnosci-zuchowe</title><path class="cls-1" d="M52.74,92.49a8.54,8.54,0,0,1-7.47-4.31L2.72,14.48A8.62,8.62,0,0,1,10.18,1.54H95.29a8.63,8.63,0,0,1,7.47,12.94L60.2,88.18a8.53,8.53,0,0,1-7.46,4.31"/><path class="cls-2" d="M95.29,3.09a7.08,7.08,0,0,1,6.13,10.62L58.87,87.41a7.08,7.08,0,0,1-12.26,0L4.05,13.71A7.08,7.08,0,0,1,10.18,3.09H95.29m0-3.09H10.18a10.17,10.17,0,0,0-8.8,15.25L43.93,89a10.16,10.16,0,0,0,17.61,0l42.55-73.7a10.06,10.06,0,0,0,0-10.17A10,10,0,0,0,95.29,0"/><path class="cls-3" d="M76.9,8.83a9.19,9.19,0,0,1,.85.52A8,8,0,0,0,76.9,8.83Z"/><path class="cls-3" d="M70.65,7.13a18.37,18.37,0,0,1,3.89.71A13,13,0,0,0,70.65,7.13Z"/><polygon class="cls-3" points="82.45 22.14 82.45 22.14 82.45 22.12 82.45 22.12 82.45 22.14"/><path class="cls-3" d="M87.53,14.88l0,0-7.11-2.58A8.91,8.91,0,0,0,77.83,9.4a9,9,0,0,1,2.59,2.92L80,16.27h0l2.14,3h0v0l5.4-4.41Z"/><path class="cls-4" d="M72,20.92h0c-2.07-.85-4.37-2.41-7.17-5.85h0c-4.29,2.63-1.6,6.94.2,9.1a5.27,5.27,0,0,1,1.21,1.31,5.66,5.66,0,0,1,.45.93,1.34,1.34,0,0,1,.07.18,7.42,7.42,0,0,1-.13,5.06l0,0c-1.75,5.24-7.62,11.1-13,15.62l-2.32,5.22c4.2-.74,9.25-1.67,12.22-2.37,12.76-3,22.27-13.22,19.4-26l-.45-2v0C77.85,23.65,72,20.92,72,20.92Z"/><path class="cls-5" d="M78.53,13.14c-4-3.13-11.37,1-13.69,1.93,2.8,3.44,5.1,5,7.17,5.85,5.5-.07,8-1.57,8-4.64h0A4.2,4.2,0,0,0,78.53,13.14Zm-3.48,5.73A2.84,2.84,0,1,1,77.88,16,2.84,2.84,0,0,1,75.05,18.87Z"/><path class="cls-3" d="M66.7,26.41a1.34,1.34,0,0,1,.07.18A1.34,1.34,0,0,0,66.7,26.41Z"/><path class="cls-3" d="M66.62,31.67c-4.8,4.8-13.73,2.52-15.8,1.9l-.44-.13L39,55.44s2.21-1.29,5.34-3.4l-1.42,3.78L38.49,67.43c5.26-1.07,8.48-5.17,10.64-10.08L53.6,47.29C59,42.77,64.87,36.91,66.62,31.67Z"/><path class="cls-6" d="M66.62,31.67l0,0a7.36,7.36,0,0,0,.13-5.06A4.89,4.89,0,0,0,65,24.17c-1.8-2.16-4.49-6.47-.2-9.1h0c2.32-1,9.7-5.06,13.69-1.93A4.2,4.2,0,0,1,80,16.27l.42-3.95A9,9,0,0,0,77.83,9.4l-.08-.05a9.19,9.19,0,0,0-.85-.52c-.13-.07-.25-.16-.39-.23a12.19,12.19,0,0,0-2-.76,18.37,18.37,0,0,0-3.89-.71l-.34,0c-5.63-.47-12.06,3.74-14.17,5.75a8.15,8.15,0,0,0,2.6,2.27l-2.11,5.45L50.38,33.44l.44.13C52.89,34.19,61.82,36.47,66.62,31.67Z"/><path class="cls-6" d="M82.15,19.27l-2.14-3c0,3.07-2.5,4.57-8,4.64h0s5.84,2.73,10.44,1.2h0l-.3-2.83v0Z"/><circle class="cls-3" cx="75.05" cy="16.04" r="2.83"/><path class="cls-5" d="M64.5,35.85a17.25,17.25,0,0,0,2.2-4.45h0c-4.15,5-13,2.4-16.33,2l-3.75,7.28C52.74,41.09,62.28,39.11,64.5,35.85Z"/></svg>