<svg xmlns="http://www.w3.org/2000/svg" viewBox="0 0 105.47 94.04"><path d="M52.74,92.49a8.54,8.54,0,0,1-7.47-4.31L2.72,14.48A8.62,8.62,0,0,1,10.18,1.54H95.29a8.63,8.63,0,0,1,7.47,12.94L60.2,88.18a8.53,8.53,0,0,1-7.46,4.31" fill="#f0ae00"/><path d="M95.29,3.09a7.08,7.08,0,0,1,6.13,10.62L58.87,87.41a7.08,7.08,0,0,1-12.26,0L4.05,13.71A7.08,7.08,0,0,1,10.18,3.09H95.29m0-3.09H10.18a10.17,10.17,0,0,0-8.8,15.25L43.93,89a10.16,10.16,0,0,0,17.61,0l42.55-73.7a10.06,10.06,0,0,0,0-10.17A10,10,0,0,0,95.29,0" fill="#f19e19"/><path d="M76.9 8.83a9.19 9.19 0 0 1 .85.52 8 8 0 0 0-.85-.52zm-6.25-1.7a18.37 18.37 0 0 1 3.89.71 13 13 0 0 0-3.89-.71zm11.8 15.01h0v-.02h0v.02zm5.08-7.26h0l-7.11-2.58a8.91 8.91 0 0 0-2.59-2.9 9 9 0 0 1 2.59 2.92L80 16.27h0l2.14 3h0 0l5.4-4.41z" fill="#194093"/><path d="M72 20.92h0c-2.07-.85-4.37-2.41-7.17-5.85h0c-4.29 2.63-1.6 6.94.2 9.1a5.27 5.27 0 0 1 1.21 1.31 5.66 5.66 0 0 1 .45.93 1.34 1.34 0 0 1 .07.18 7.42 7.42 0 0 1-.13 5.06h0c-1.75 5.24-7.62 11.1-13 15.62l-2.32 5.22c4.2-.74 9.25-1.67 12.22-2.37 12.76-3 22.27-13.22 19.4-26l-.45-2h0C77.85 23.65 72 20.92 72 20.92z" fill="#ec6608"/><path d="M78.53 13.14c-4-3.13-11.37 1-13.69 1.93 2.8 3.44 5.1 5 7.17 5.85 5.5-.07 8-1.57 8-4.64h0a4.2 4.2 0 0 0-1.48-3.14zm-3.48 5.73A2.84 2.84 0 1 1 77.88 16a2.84 2.84 0 0 1-2.83 2.87z" fill="#fff"/><path d="M66.7 26.41a1.34 1.34 0 0 1 .07.18 1.34 1.34 0 0 0-.07-.18zm-.08 5.26c-4.8 4.8-13.73 2.52-15.8 1.9l-.44-.13-11.38 22s2.21-1.29 5.34-3.4l-1.42 3.78-4.43 11.61c5.26-1.07 8.48-5.17 10.64-10.08l4.47-10.06c5.4-4.52 11.27-10.38 13.02-15.62z" fill="#194093"/><g fill="#26b4e6"><path d="M66.62 31.67h0a7.36 7.36 0 0 0 .13-5.06A4.89 4.89 0 0 0 65 24.17c-1.8-2.16-4.49-6.47-.2-9.1h0c2.32-1 9.7-5.06 13.69-1.93A4.2 4.2 0 0 1 80 16.27l.42-3.95a9 9 0 0 0-2.59-2.92l-.08-.05a9.19 9.19 0 0 0-.85-.52c-.13-.07-.25-.16-.39-.23a12.19 12.19 0 0 0-2-.76 18.37 18.37 0 0 0-3.89-.71h-.34c-5.63-.47-12.06 3.74-14.17 5.75a8.15 8.15 0 0 0 2.6 2.27L56.6 20.6l-6.22 12.84.44.13c2.07.62 11 2.9 15.8-1.9z"/><path d="M82.15,19.27l-2.14-3c0,3.07-2.5,4.57-8,4.64h0s5.84,2.73,10.44,1.2h0l-.3-2.83v0Z"/></g><circle cx="75.05" cy="16.04" r="2.83" fill="#194093"/><path d="M64.5 35.85a17.25 17.25 0 0 0 2.2-4.45h0c-4.15 5-13 2.4-16.33 2l-3.75 7.28c6.12.41 15.66-1.57 17.88-4.83z" fill="#fff"/></svg>