<svg xmlns="http://www.w3.org/2000/svg" viewBox="0 0 105.47 94.04"><path d="M52.74,92.49a8.54,8.54,0,0,1-7.47-4.31L2.72,14.48A8.62,8.62,0,0,1,10.18,1.54H95.29a8.63,8.63,0,0,1,7.47,12.94L60.2,88.18a8.53,8.53,0,0,1-7.46,4.31" fill="#f0ae00"/><path d="M95.29,3.09a7.08,7.08,0,0,1,6.13,10.62L58.87,87.41a7.08,7.08,0,0,1-12.26,0L4.05,13.71A7.08,7.08,0,0,1,10.18,3.09H95.29m0-3.09H10.18a10.17,10.17,0,0,0-8.8,15.25L43.93,89a10.16,10.16,0,0,0,17.61,0l42.55-73.7a10.06,10.06,0,0,0,0-10.17A10,10,0,0,0,95.29,0" fill="#f19e19"/><path d="M57.28 59.21c0 8.63 13 7.33 13 .29 0-2.74-.21-7.73-.45-12.69a76.66 76.66 0 0 1-9.55-1.41c-1.54 5.27-2.88 10.71-3 13.81zm-8.54-25.62c-4.46.36-12 .45-12.26.45-.79 6.47-2 16.85-2.18 21.11.9 4.12 5.36 5.16 8.38 4.83 4.75-.51 9.41-2.31 8.27-7.56l-2.21-18.83z" fill="#fff"/><path d="M66.54 27.42c4.75-1.48-2.87-20.24-26.1-20.24-19.27 0-27 20.43-20.61 22.39 5.39 1.65 30.32 2.97 46.71-2.15z" fill="#ec6608"/><path d="M67.75 22.14c-8.67-2-20.2 14.81-15.56 17.56S75 45.63 79.72 43s-3.3-18.9-11.97-20.86z" fill="#c90c0f"/></svg>