<svg xmlns="http://www.w3.org/2000/svg" viewBox="0 0 105.47 94.04"><path d="M52.74,92.49a8.54,8.54,0,0,1-7.47-4.31L2.72,14.48A8.62,8.62,0,0,1,10.18,1.54H95.29a8.63,8.63,0,0,1,7.47,12.94L60.2,88.18a8.53,8.53,0,0,1-7.46,4.31" fill="#f0ae00"/><path d="M95.29,3.09a7.08,7.08,0,0,1,6.13,10.62L58.87,87.41a7.08,7.08,0,0,1-12.26,0L4.05,13.71A7.08,7.08,0,0,1,10.18,3.09H95.29m0-3.09H10.18a10.17,10.17,0,0,0-8.8,15.25L43.93,89a10.16,10.16,0,0,0,17.61,0l42.55-73.7a10.06,10.06,0,0,0,0-10.17A10,10,0,0,0,95.29,0" fill="#f19e19"/><path d="M52.72,21.49l8,4.55a11.24,11.24,0,1,0-15.89,0Z" fill="#fff"/><path d="M52.83 25.37a1.5 1.5 0 0 0-1.5 1.5v33.51C48.8 50 44.18 38.26 35.82 32.18a1.5 1.5 0 1 0-1.77 2.43C49.4 45.76 51.32 79.68 51.33 80a1.52 1.52 0 0 0 1.5 1.43h0a1.5 1.5 0 0 0 1.5-1.43V26.87a1.5 1.5 0 0 0-1.5-1.5z" fill="#94b516"/><path d="M29.05,16.45a11.24,11.24,0,0,0,0,22.47l2.4-8.83,8.84-2.4A11.24,11.24,0,0,0,29.05,16.45Z" fill="#fff"/><path d="M85.41 27.89c-4.5-2.13-13.2-1.6-16.44 0-6.37 3.13-12.22 13.3-12.22 23v9.4c1.8-7.71 5.19-18.26 10.32-22-5.88 10.08-7.43 22.16-9.07 33.85 11.86-23.87 18.56-23.22 21.75-26.75-5.75-6.02-.1-15.15 5.66-17.5z" fill="#94b516"/></svg>