<?xml version="1.0" encoding="iso-8859-1"?>
<!-- Generator: Adobe Illustrator 22.1.0, SVG Export Plug-In . SVG Version: 6.00 Build 0)  -->
<svg version="1.1" xmlns="http://www.w3.org/2000/svg" xmlns:xlink="http://www.w3.org/1999/xlink" x="0px" y="0px"
	 viewBox="0 0 90.709 90.709" style="enable-background:new 0 0 90.709 90.709;" xml:space="preserve">
<g id="ratownik-1">
	<g>
		<g>
			<circle style="fill:#194093;" cx="45.354" cy="45.354" r="43.52"/>
			<g>
				<path style="fill:#252E78;" d="M45.354,2.835c23.483,0,42.52,19.037,42.52,42.52s-19.037,42.52-42.52,42.52
					s-42.52-19.037-42.52-42.52S21.871,2.835,45.354,2.835 M45.354,0.835c-24.548,0-44.52,19.971-44.52,44.52
					s19.971,44.52,44.52,44.52s44.52-19.971,44.52-44.52S69.903,0.835,45.354,0.835L45.354,0.835z"/>
			</g>
		</g>
	</g>
</g>
<g id="elementy">
	<g>
		<path style="fill:none;" d="M18.975,40.12c1.285-0.006,2.852-0.229,4.543-0.619c-0.262-1.015-1.283-3.001-2.233-3.907
			C21.158,37.255,21.669,37.704,18.975,40.12z"/>
		<path style="fill:none;" d="M41.511,32.799c-0.201,0.065-0.408,0.097-0.615,0.097c-0.057,0-0.112-0.015-0.169-0.02
			c-0.166,0.225-0.348,0.451-0.547,0.677c0.574,0.066,1.225,0.139,1.922,0.214c0.267-0.477,0.537-0.959,0.794-1.418
			C42.459,32.491,42.002,32.641,41.511,32.799z"/>
		<path style="fill:#FFFFFF;" d="M11.981,41.503c-0.027,0.464-0.052,0.904-0.072,1.302c-0.055,1.094,1.409,5.196,5.313,2.164
			c0.672-0.522,0.967-1.545,0.855-2.493c-0.187-0.012-0.393-0.01-0.567-0.031L11.981,41.503z"/>
		<path style="fill:#FFFFFF;" d="M16.495,39.839l0.268-8.875l-3.873-1.319c-0.046-0.016-0.077-0.049-0.12-0.07
			c-0.817,2.249-0.325,4.861-0.522,7.767c-0.04,0.585-0.079,1.182-0.118,1.777c0.043,0.003,0.083-0.011,0.126-0.004L16.495,39.839z"
			/>
		<path style="fill:#FFFFFF;" d="M16.914,25.93c0.002-0.083,0.036-0.155,0.055-0.233l-2.619-3.239l-0.628,4.935l3.117,1.062
			L16.914,25.93z"/>
		<path style="fill:#FFFFFF;" d="M19.312,26.002l-0.426,14.121c0.028,0,0.06-0.003,0.088-0.003c2.694-2.417,2.182-2.866,2.31-4.526
			c0.95,0.905,1.971,2.892,2.233,3.907c4.771-1.101,10.515-3.545,13.631-6.313c0.094-0.083,0.195-0.172,0.296-0.262
			c0.175-0.217,0.316-0.465,0.388-0.754c0.265-1.071-0.389-2.154-1.461-2.419c-0.572-0.141-1.143-0.015-1.595,0.291
			c0.251-0.809-0.024-1.719-0.756-2.229c-0.756-0.527-1.746-0.452-2.421,0.113c0.118-0.943-0.449-1.864-1.389-2.154
			c-0.797-0.246-1.63,0.033-2.13,0.639c-0.082-1.028-0.933-1.839-1.982-1.839c-0.792,0-1.47,0.464-1.793,1.132
			c-0.212-0.875-0.996-1.528-1.936-1.528c-0.938,0-1.72,0.649-1.934,1.522c-0.349-0.584-0.981-0.98-1.711-0.98
			c-0.168,0-0.329,0.027-0.485,0.067C18.856,24.855,19.332,25.372,19.312,26.002z"/>
		<path style="fill:#FFFFFF;" d="M42.511,52.922c-0.501-0.896-0.476-1.958,0.067-2.842l1.285-2.091
			c0.005-0.067,0.009-0.132,0.014-0.198c-0.133-0.279-0.278-0.58-0.427-0.883c-0.138-0.021-0.272-0.04-0.415-0.063
			c-4.418-0.705-5.221-3.043-5.072-5.821c0.083-1.547,0.073-3.77,0.049-5.436c-3.584,2.848-9.199,5.182-14.039,6.269
			c0.253,1.308,0.508,2.465,0.935,3.956c0.614,2.146,1.469,3.595,2.162,4.504l-5.872,8.17c-0.682,0.948-0.595,2.245,0.21,3.09
			c1.971,2.07,5.361,5.633,5.491,5.788c0.773,0.919,0.25,0.691,1.443,1.96c0.688,0.732,2.343,0.758,2.343,0.758l0.26-4.26
			l-1.957-0.848c0.016-0.506-0.107-1.139-0.733-1.626c-0.872-0.678-2.989-3.488-2.989-3.488l6.71-5.768
			c0.458,6.21,1.233,16.848,1.233,17.664c0,1.879-1.137,2.944-1.893,3.639c-0.214,0.196-0.398,0.365-0.517,0.512
			c-0.937,1.165-0.937,2.43-0.937,2.43h4.053c0,0,0.09-0.845,0.567-1.402c0.061-0.071,2.291-1.948,2.291-3.369
			c0-0.646,0.428-12.082,0.685-18.897c1.676,0.312,3.384,0.537,5.019,0.683c0.122-0.42,0.317-1.097,0.51-1.807
			C42.803,53.362,42.641,53.155,42.511,52.922z"/>
		<path style="fill:#FFFFFF;" d="M78.069,60.39c0.55-2.201,5.791-5.854,5.329-10.87c-0.463-5.016-5.852-9.329-8.783-10.141
			c-1.142-0.317-2.114-0.384-2.882-0.351c-1.31-1.563-3.327-2.851-5.857-3.601c-2.325-0.689-4.763-0.795-7.062-0.695
			c0.009,0.075,0.034,0.145,0.034,0.222c0,1.718-1.579,3.862-3.615,4.053c-0.28,0.026-0.557,0.031-0.835,0.04
			c-0.006,0.938-0.037,1.944-0.117,2.907c-0.268,3.213-0.937,4.568-3.347,5.052c-0.065,0.013-0.131,0.026-0.197,0.038
			c0.363,0.762,0.673,1.499,0.69,1.542c0.365,0.871,0.071,1.877-0.704,2.416l-3.984,2.765c-0.241,0.76-0.466,1.366-0.626,1.768
			c4.296,0.032,7.493-0.607,9.718-1.334l4.726,9.763c0,0-7.542,5.52-7.931,5.973c-0.465,0.543-0.722,1.023-0.843,1.507
			c-0.3,1.2,0.049,3.44,0.14,3.504c1.283-0.513,2.636-1.084,3.947-1.523c-0.101-0.661-0.456-1.623-0.556-1.886l7.594-3.871
			c1.428-0.711,2.125-2.356,1.639-3.875c-0.297-0.931-0.616-1.943-0.867-2.767c1.559,2.244,3.374,3.98,3.374,3.98
			s-1.736,5.952-2.032,6.778c-0.506,1.41-0.77,2.086-1.662,2.785c-0.253,0.198-0.506,0.374-0.745,0.518
			c-1.474,0.891-1.474,3.252-1.474,3.252h3.694c0,0,0.616-1.501,0.967-2.089c0.037,0.016,0.076,0.037,0.112,0.052
			c0.48-0.574,1.355,0.088,2.183-1.467c0.369-0.693,2.339-5.693,3.436-8.497c0.443-1.133,0.066-2.307-0.655-3.287
			c-1.343-1.824-2.067-5.391-1.532-6.482c0.536-1.091,1.35-2.456,2.555-5.495c0.876-2.21,1.45-8.625,1.361-9.032
			c0.565,0.164,1.149,0.416,1.662,0.804c1.696,1.283,1.365,5.345,0.771,6.541c-6.402,12.888,2.486,14.526,3.053,14.617
			C78.547,63.968,77.261,63.623,78.069,60.39z"/>
		<path style="fill:none;stroke:#FFFFFF;stroke-width:0;stroke-linecap:round;stroke-linejoin:round;" d="M78.748,64.001
			c0.017,0.003,0.028,0.004,0.028,0.004"/>
		<path style="fill:#F8C409;" d="M49.813,38.256c-0.393,0.376-0.86,0.806-1.419,1.304c0.173,0.391,2.204,7.193,2.342,7.483
			c0.066-0.013,3.461,0,3.544-5.09c0.016-0.967,0.112-1.969,0.117-2.907c-0.122,0.004-0.248,0.018-0.369,0.018
			C52.401,39.064,51.009,38.742,49.813,38.256z"/>
		<path style="fill:#F8C409;" d="M37.962,41.023c-0.149,2.778,0.654,5.116,5.072,5.821c0.143,0.023,0.277,0.042,0.415,0.063
			c-0.36-0.733-3.099-6.388-3.139-6.497c-0.011-0.031-0.022-0.062-0.032-0.093c-0.417-1.327-0.469-2.437,0.5-4.182
			c0.249-0.448,0.769-1.38,1.323-2.37c-0.697-0.075-1.348-0.148-1.922-0.214c0.199-0.226,0.38-0.451,0.547-0.677
			c0.552-0.748,0.923-1.498,1.047-2.267c2.04-0.671,6.979-2.325,7.236-2.69c0.324-0.461,1.288-3.254,1.675-4.694
			c0.314-1.169,0.589-2.812-0.616-3.288c-0.192-0.076-0.364-0.109-0.518-0.109c-0.813,0-1.132,0.918-1.283,1.288
			c-0.427,1.047-1.171,4.586-1.171,4.586l-6.623,3.154c-0.588,0.077-1.049,0.561-1.049,1.17c0,0.463-0.192,0.909-0.481,1.33
			c-0.4,0.583-1.702,1.75-1.796,1.833c-3.116,2.767-8.86,5.212-13.631,6.313c-1.69,0.39-3.258,0.613-4.543,0.619
			c-0.028,0,0.337-14.118,0.337-14.118c0.02-0.63-0.457-1.147-1.073-1.214c-0.032-0.003-0.058-0.02-0.091-0.021
			c-0.573-0.021-1.051,0.386-1.181,0.93c-0.019,0.078-0.052,0.15-0.055,0.233l-0.076,2.525l-3.117-1.062l-0.058-0.02
			c-0.63-0.218-1.31,0.122-1.522,0.749c-0.198,0.581,0.088,1.194,0.63,1.453c0.042,0.02,0.074,0.054,0.12,0.07l3.873,1.319
			l-0.268,8.875l-4.239-0.724c-0.043-0.007-0.083,0.007-0.126,0.004c-0.607-0.036-1.155,0.368-1.259,0.977
			c-0.112,0.653,0.327,1.273,0.98,1.385l5.659,0.964c0.174,0.021,1.059,0.072,1.335,0.072c1.477,0,3.244-0.239,5.126-0.662
			c4.84-1.086,10.456-3.421,14.039-6.269C38.036,37.254,38.045,39.476,37.962,41.023z"/>
		<path style="fill:#F8C409;" d="M43.877,47.791c-0.005,0.066-0.009,0.131-0.014,0.198l0.061-0.1
			C43.909,47.858,43.893,47.823,43.877,47.791z"/>
		<path style="fill:#F8C409;" d="M46.586,53.872c-0.48,0.333-1.036,0.509-1.607,0.509c-0.755,0-1.468-0.31-1.993-0.835
			c-0.193,0.711-0.637,2.237-0.637,2.237l3.532,0.305c0,0,0.616-1.561,0.857-2.322L46.586,53.872z"/>
		<path style="fill:#F8C409;" d="M44.456,33.657c-0.747,1.335-1.588,2.838-1.928,3.449c-0.669,1.205-0.614,1.74-0.341,2.611
			l4.006,8.301l-1.911,3.109c-0.367,0.597,0.118,1.253,0.697,1.253c0.154,0,4.604-3.024,4.604-3.024s-0.561-1.339-1.029-2.209
			c-0.469-0.87-1.101-4.293-1.531-5.598c-0.369-1.121-0.779-1.846-1.087-2.492c0.622-0.539,1.356-1.186,2.005-1.786
			C46.14,36.079,45.022,34.578,44.456,33.657z"/>
		<path style="fill:#FFFFFF;" d="M45.452,15.038c-0.049,0.652,0.712,2.302,1.336,2.302c0.016,0,0.033-0.001,0.049-0.003
			c0.302-0.043,0.72-0.11,1.155-0.3c0.036,0.273,0.015,0.764-0.03,1.251c0.548-0.352,1.112-0.459,1.59-0.459h0
			c0.251,0,0.505,0.041,0.759,0.102c-0.176-0.872-0.333-1.615-0.333-1.615l-0.037-0.083c0.114-0.011,0.234-0.046,0.359-0.12
			c0.38-0.226,0.722-0.598,0.986-1.039l-4.986-3.2C45.874,12.794,45.478,14.687,45.452,15.038z"/>
		<path style="fill:#F8C409;" d="M52.311,30.793c-0.482-1.542-0.904-2.151-1.118-2.823c-0.197,0.476-0.386,0.87-0.547,1.099
			c-0.325,0.462-0.596,0.828-4.849,2.303c0.011,0.396,0.021,0.629,0.021,0.629s2.299,5.062,8.211,5.062
			c0.328,0,0.666-0.016,1.017-0.048c0.976-0.091,1.801-1.323,1.801-2.062C54.845,34.169,52.989,32.96,52.311,30.793z"/>
		<path style="fill:#F8C409;" d="M46.3,11.874l4.986,3.2c0,0,1.351,0.786,1.566,0.79c0.006,0,0.013,0.003,0.019,0.003
			c0.395,0,0.781-0.195,1.011-0.552c0.358-0.558,0.196-1.3-0.361-1.658l-0.041-0.027l-0.946-0.607l1.664-2.592l-4.966-3.187
			l-1.664,2.592l-0.836-0.537l-0.108-0.069c-0.558-0.357-1.3-0.195-1.658,0.361c-0.236,0.367-0.227,0.807-0.048,1.171
			C45.011,10.952,46.3,11.874,46.3,11.874z"/>
	</g>
</g>
</svg>
