<svg xmlns="http://www.w3.org/2000/svg" viewBox="0 0 90.709 90.709"><circle cx="45.354" cy="45.354" r="43.52" fill="#194093"/><path d="M45.354 2.835c23.483 0 42.52 19.037 42.52 42.52s-19.037 42.52-42.52 42.52-42.52-19.037-42.52-42.52 19.037-42.52 42.52-42.52m0-2C20.806.835.834 20.806.834 45.355s19.971 44.52 44.52 44.52 44.52-19.971 44.52-44.52S69.903.835 45.354.835h0z" fill="#252e78"/><path d="M11.981 41.503l-.072 1.302c-.055 1.094 1.409 5.196 5.313 2.164.672-.522.967-1.545.855-2.493l-.567-.031-5.529-.942zm4.514-1.664l.268-8.875-3.873-1.319c-.046-.016-.077-.049-.12-.07-.817 2.249-.325 4.861-.522 7.767l-.118 1.777c.043.003.083-.011.126-.004l4.239.724zm.419-13.909c.002-.083.036-.155.055-.233l-2.619-3.239-.628 4.935 3.117 1.062.075-2.525zm2.398.072l-.426 14.121.088-.003c2.694-2.417 2.182-2.866 2.31-4.526.95.905 1.971 2.892 2.233 3.907 4.771-1.101 10.515-3.545 13.631-6.313l.296-.262c.175-.217.316-.465.388-.754a2 2 0 0 0-1.461-2.419c-.572-.141-1.143-.015-1.595.291a1.99 1.99 0 0 0-.756-2.229c-.756-.527-1.746-.452-2.421.113.118-.943-.449-1.864-1.389-2.154-.797-.246-1.63.033-2.13.639-.082-1.028-.933-1.839-1.982-1.839a1.99 1.99 0 0 0-1.793 1.132c-.212-.875-.996-1.528-1.936-1.528a1.99 1.99 0 0 0-1.934 1.522c-.349-.584-.981-.98-1.711-.98-.168 0-.329.027-.485.067a1.19 1.19 0 0 1 1.073 1.215zm23.199 26.92c-.501-.896-.476-1.958.067-2.842l1.285-2.091.014-.198-.427-.883-.415-.063c-4.418-.705-5.221-3.043-5.072-5.821l.049-5.436c-3.584 2.848-9.199 5.182-14.039 6.269a43.24 43.24 0 0 0 .935 3.956c.614 2.146 1.469 3.595 2.162 4.504l-5.872 8.17c-.682.948-.595 2.245.21 3.09l5.491 5.788c.773.919.25.691 1.443 1.96.688.732 2.343.758 2.343.758l.26-4.26-1.957-.848c.016-.506-.107-1.139-.733-1.626-.872-.678-2.989-3.488-2.989-3.488l6.71-5.768 1.233 17.664c0 1.879-1.137 2.944-1.893 3.639-.214.196-.398.365-.517.512-.937 1.165-.937 2.43-.937 2.43h4.053s.09-.845.567-1.402c.061-.071 2.291-1.948 2.291-3.369 0-.646.428-12.082.685-18.897a53.83 53.83 0 0 0 5.019.683l.51-1.807a2.84 2.84 0 0 1-.476-.624zm35.558 7.468c.55-2.201 5.791-5.854 5.329-10.87s-5.852-9.329-8.783-10.141c-1.142-.317-2.114-.384-2.882-.351-1.31-1.563-3.327-2.851-5.857-3.601-2.325-.689-4.763-.795-7.062-.695.009.075.034.145.034.222 0 1.718-1.579 3.862-3.615 4.053-.28.026-.557.031-.835.04-.006.938-.037 1.944-.117 2.907-.268 3.213-.937 4.568-3.347 5.052l-.197.038c.363.762.673 1.499.69 1.542a2 2 0 0 1-.704 2.416l-3.984 2.765c-.241.76-.466 1.366-.626 1.768 4.296.032 7.493-.607 9.718-1.334l4.726 9.763-7.931 5.973c-.465.543-.722 1.023-.843 1.507-.3 1.2.049 3.44.14 3.504 1.283-.513 2.636-1.084 3.947-1.523-.101-.661-.456-1.623-.556-1.886l7.594-3.871a3.23 3.23 0 0 0 1.639-3.875l-.867-2.767c1.559 2.244 3.374 3.98 3.374 3.98l-2.032 6.778c-.506 1.41-.77 2.086-1.662 2.785a7.55 7.55 0 0 1-.745.518c-1.474.891-1.474 3.252-1.474 3.252h3.694s.616-1.501.967-2.089c.037.016.076.037.112.052.48-.574 1.355.088 2.183-1.467.369-.693 2.339-5.693 3.436-8.497.443-1.133.066-2.307-.655-3.287-1.343-1.824-2.067-5.391-1.532-6.482s1.35-2.456 2.555-5.495c.876-2.21 1.45-8.625 1.361-9.032.565.164 1.149.416 1.662.804 1.696 1.283 1.365 5.345.771 6.541-6.402 12.888 2.486 14.526 3.053 14.617-.201-.036-1.487-.381-.679-3.614z" fill="#fff"/><path d="M49.813 38.256l-1.419 1.304c.173.391 2.204 7.193 2.342 7.483.066-.013 3.461 0 3.544-5.09l.117-2.907-.369.018c-1.627 0-3.019-.322-4.215-.808zm-11.851 2.767c-.149 2.778.654 5.116 5.072 5.821l.415.063-3.139-6.497-.032-.093c-.417-1.327-.469-2.437.5-4.182l1.323-2.37-1.922-.214.547-.677c.552-.748.923-1.498 1.047-2.267l7.236-2.69c.324-.461 1.288-3.254 1.675-4.694.314-1.169.589-2.812-.616-3.288-.192-.076-.364-.109-.518-.109-.813 0-1.132.918-1.283 1.288-.427 1.047-1.171 4.586-1.171 4.586l-6.623 3.154c-.588.077-1.049.561-1.049 1.17 0 .463-.192.909-.481 1.33-.4.583-1.702 1.75-1.796 1.833-3.116 2.767-8.86 5.212-13.631 6.313-1.69.39-3.258.613-4.543.619-.028 0 .337-14.118.337-14.118a1.19 1.19 0 0 0-1.073-1.214c-.032-.003-.058-.02-.091-.021-.573-.021-1.051.386-1.181.93-.019.078-.052.15-.055.233l-.076 2.525-3.117-1.062-.058-.02c-.63-.218-1.31.122-1.522.749-.198.581.088 1.194.63 1.453.042.02.074.054.12.07l3.873 1.319-.268 8.875-4.239-.724c-.043-.007-.083.007-.126.004-.607-.036-1.155.368-1.259.977a1.2 1.2 0 0 0 .98 1.385l5.659.964a22.45 22.45 0 0 0 1.335.072c1.477 0 3.244-.239 5.126-.662 4.84-1.086 10.456-3.421 14.039-6.269.029 1.669.038 3.891-.045 5.438zm5.915 6.768l-.014.198.061-.1-.047-.098zm2.709 6.081a2.81 2.81 0 0 1-1.607.509c-.755 0-1.468-.31-1.993-.835l-.637 2.237 3.532.305.857-2.322-.152.106zm-2.13-20.215l-1.928 3.449c-.669 1.205-.614 1.74-.341 2.611l4.006 8.301-1.911 3.109c-.367.597.118 1.253.697 1.253.154 0 4.604-3.024 4.604-3.024l-1.029-2.209c-.469-.87-1.101-4.293-1.531-5.598-.369-1.121-.779-1.846-1.087-2.492l2.005-1.786a11.83 11.83 0 0 1-3.485-3.614z" fill="#f8c409"/><path d="M45.452 15.038c-.049.652.712 2.302 1.336 2.302.016 0 .033-.001.049-.003.302-.043.72-.11 1.155-.3.036.273.015.764-.03 1.251.548-.352 1.112-.459 1.59-.459h0c.251 0 .505.041.759.102l-.333-1.615-.037-.083c.114-.011.234-.046.359-.12.38-.226.722-.598.986-1.039l-4.986-3.2c-.426.92-.822 2.813-.848 3.164z" fill="#fff"/><path d="M52.311 30.793c-.482-1.542-.904-2.151-1.118-2.823-.197.476-.386.87-.547 1.099-.325.462-.596.828-4.849 2.303l.021.629s2.299 5.062 8.211 5.062l1.017-.048c.976-.091 1.801-1.323 1.801-2.062-2.002-.784-3.858-1.993-4.536-4.16zM46.3 11.874l4.986 3.2s1.351.786 1.566.79a1.2 1.2 0 0 0 .669-2.207l-.041-.027-.946-.607 1.664-2.592-4.966-3.187-1.664 2.592-.836-.537-.108-.069c-.558-.357-1.3-.195-1.658.361-.236.367-.227.807-.048 1.171.093.19 1.382 1.112 1.382 1.112z" fill="#f8c409"/></svg>