<svg xmlns="http://www.w3.org/2000/svg" viewBox="0 0 90.709 90.709"><path d="M45.354 88.874c-23.997 0-43.52-19.522-43.52-43.52s19.523-43.52 43.52-43.52 43.521 19.523 43.521 43.521-19.524 43.519-43.521 43.519z" fill="#194093"/><path d="M45.354 2.835c23.483 0 42.52 19.037 42.52 42.52s-19.037 42.52-42.52 42.52-42.52-19.037-42.52-42.52 19.037-42.52 42.52-42.52m0-2C20.806.835.834 20.806.834 45.355s19.971 44.52 44.52 44.52 44.52-19.971 44.52-44.52S69.903.835 45.354.835h0z" fill="#252e78"/><path d="M43.017 66.423c-3.471.295-5.342-.666-6.268-2.055l-.034.057v-.112c-1.445-2.246-.473-5.57.253-6.574l6.01-8.113c1.356-1.808 2.469-3.655 3.567-5.391l-1.745.01c-3.45.019-6.449 1.889-8.086 4.658V43.1l3.35-.019a9.46 9.46 0 0 0 9.406-9.512l-.027-4.729-4.729.027c-3.39.019-6.344 1.825-7.999 4.514v-4.976l1.882-1.904c3.673-3.714 3.639-9.704-.075-13.377l-3.363-3.325-3.325 3.363c-3.673 3.714-3.639 9.704.075 13.377l1.806 1.786v4.859c-1.707-2.552-4.618-4.229-7.918-4.21l-4.73.026.027 4.729a9.46 9.46 0 0 0 9.512 9.406l3.109-.018v5.315c-1.718-2.48-4.588-4.098-7.832-4.08l-4.729.027.027 4.729a9.46 9.46 0 0 0 9.512 9.406l3.023-.017v5.2c-1.727-2.413-4.553-3.984-7.745-3.966l-4.729.027.027 4.729a9.46 9.46 0 0 0 9.512 9.406l2.936-.017v7.938a38.53 38.53 0 0 0 3 .817v-8.772l3.523-.02a9.46 9.46 0 0 0 9.406-9.512l-.02-3.501-2.21.281c.058 2.457-2.102 5.121-4.399 5.316z" fill="#f8c409"/><path d="M62.071 37.247l-8.426-9.669.915 8.947c-3.755 1.322-5.854 4.295-8.015 7.711-1.098 1.735-2.211 3.583-3.567 5.391l-6.01 8.113c-.726 1.004-1.698 4.328-.253 6.574.012.018.022.037.034.055.925 1.389 2.797 2.349 6.268 2.055 2.296-.195 4.457-2.859 4.397-5.317l2.21-.281c7.683-1.079 7.128-2.296 9.151-4.905 2.852 8.978.879 16.913-1.169 25.686a38.36 38.36 0 0 0 23.873-23.625c-4.22-9.182-10.815-16.94-19.408-20.735zM51.286 49.711c-1.566 0-2.835-1.269-2.835-2.835s1.269-2.835 2.835-2.835 2.835 1.269 2.835 2.835-1.269 2.835-2.835 2.835z" fill="#fff"/></svg>