<?xml version="1.0" encoding="iso-8859-1"?>
<!-- Generator: Adobe Illustrator 22.1.0, SVG Export Plug-In . SVG Version: 6.00 Build 0)  -->
<svg version="1.1" xmlns="http://www.w3.org/2000/svg" xmlns:xlink="http://www.w3.org/1999/xlink" x="0px" y="0px"
	 viewBox="0 0 90.709 90.709" style="enable-background:new 0 0 90.709 90.709;" xml:space="preserve">
<g id="ratownik-1">
	<g>
		<g>
			<path style="fill:#194093;" d="M45.354,88.874c-23.997,0-43.52-19.522-43.52-43.52S21.357,1.834,45.354,1.834
				s43.521,19.523,43.521,43.521S69.351,88.874,45.354,88.874z"/>
			<g>
				<path style="fill:#252E78;" d="M45.354,2.835c23.483,0,42.52,19.037,42.52,42.52s-19.037,42.52-42.52,42.52
					c-23.483,0-42.52-19.037-42.52-42.52S21.871,2.835,45.354,2.835 M45.354,0.835c-24.548,0-44.52,19.971-44.52,44.52
					s19.971,44.52,44.52,44.52s44.52-19.971,44.52-44.52S69.903,0.835,45.354,0.835L45.354,0.835z"/>
			</g>
		</g>
	</g>
</g>
<g id="elementy">
	<g>
		<path style="fill:none;" d="M36.75,64.369c-0.012-0.018-0.023-0.037-0.034-0.055v0.112C36.726,64.407,36.738,64.388,36.75,64.369z
			"/>
		<path style="fill:#F8C409;" d="M43.017,66.423c-3.471,0.295-5.342-0.666-6.268-2.055c-0.011,0.019-0.023,0.038-0.034,0.057v-0.112
			c-1.445-2.246-0.473-5.57,0.253-6.574c1.622-2.243,3.904-5.304,6.01-8.113c1.356-1.808,2.469-3.655,3.567-5.391l-1.745,0.01
			c-3.45,0.019-6.449,1.889-8.086,4.658v-5.803l3.35-0.019c5.224-0.029,9.435-4.288,9.406-9.512l-0.027-4.729l-4.729,0.027
			c-3.39,0.019-6.344,1.825-7.999,4.514v-4.976l1.882-1.904c3.673-3.714,3.639-9.704-0.075-13.377l-3.363-3.325l-3.325,3.363
			c-3.673,3.714-3.639,9.704,0.075,13.377l1.806,1.786v4.859c-1.707-2.552-4.618-4.229-7.918-4.21L21.067,29l0.027,4.729
			c0.029,5.224,4.288,9.435,9.512,9.406l3.109-0.018v5.315c-1.718-2.48-4.588-4.098-7.832-4.08l-4.729,0.027l0.027,4.729
			c0.029,5.224,4.288,9.435,9.512,9.406l3.023-0.017v5.2c-1.727-2.413-4.553-3.984-7.745-3.966l-4.729,0.027l0.027,4.729
			c0.029,5.224,4.288,9.435,9.512,9.406l2.936-0.017v7.938c0.983,0.313,1.985,0.582,3,0.817v-8.772l3.523-0.02
			c5.224-0.029,9.435-4.288,9.406-9.512l-0.02-3.501c-0.673,0.094-1.403,0.188-2.21,0.281
			C47.474,63.564,45.314,66.228,43.017,66.423z"/>
		<path style="fill:#FFFFFF;" d="M62.071,37.247l-8.426-9.669l0.915,8.947c-3.755,1.322-5.854,4.295-8.015,7.711
			c-1.098,1.735-2.211,3.583-3.567,5.391c-2.106,2.809-4.388,5.87-6.01,8.113c-0.726,1.004-1.698,4.328-0.253,6.574
			c0.012,0.018,0.022,0.037,0.034,0.055c0.925,1.389,2.797,2.349,6.268,2.055c2.296-0.195,4.457-2.859,4.397-5.317
			c0.807-0.093,1.536-0.187,2.21-0.281c7.683-1.079,7.128-2.296,9.151-4.905c2.852,8.978,0.879,16.913-1.169,25.686
			C68.756,77.839,77.6,69.08,81.479,57.982C77.259,48.8,70.664,41.042,62.071,37.247z M51.286,49.711
			c-1.566,0-2.835-1.269-2.835-2.835s1.269-2.835,2.835-2.835s2.835,1.269,2.835,2.835S52.852,49.711,51.286,49.711z"/>
	</g>
</g>
</svg>
