<?xml version="1.0" encoding="iso-8859-1"?>
<!-- Generator: Adobe Illustrator 22.1.0, SVG Export Plug-In . SVG Version: 6.00 Build 0)  -->
<svg version="1.1" xmlns="http://www.w3.org/2000/svg" xmlns:xlink="http://www.w3.org/1999/xlink" x="0px" y="0px"
	 viewBox="0 0 90.709 90.709" style="enable-background:new 0 0 90.709 90.709;" xml:space="preserve">
<g id="ratownik-1">
	<g>
		<g>
			<circle style="fill:#194093;" cx="45.354" cy="45.355" r="43.52"/>
			<g>
				<path style="fill:#252E78;" d="M45.354,2.835c23.483,0,42.52,19.037,42.52,42.52s-19.037,42.52-42.52,42.52
					s-42.52-19.037-42.52-42.52S21.871,2.835,45.354,2.835 M45.354,0.835c-24.548,0-44.52,19.971-44.52,44.52
					s19.971,44.52,44.52,44.52s44.52-19.971,44.52-44.52S69.903,0.835,45.354,0.835L45.354,0.835z"/>
			</g>
		</g>
	</g>
</g>
<g id="elementy">
	<g>
		<path style="fill:#FFFFFF;" d="M74.753,20.862c-0.623-0.416-1.37-0.849-2.22-1.296c-7.085-5.675-15.867-9.1-24.131-7.769
			c0,0-3.935-4.687-4.006-4.685l-0.923,7.25c-2.699,3.501-1.568,7.807-1.903,12.734c-0.175,2.579-0.358,5.384-0.46,7.42
			c-0.008,0.151,0.007,0.344,0.043,0.564c1.84-1.719,3.828-3.576,4.054-3.781c0.776-0.707,1.754-1.097,2.754-1.097
			c0.933,0,1.794,0.344,2.451,0.928c3.977-3.503,3.256-4.096,3.434-6.407c1.371,1.306,2.865,4.289,3.101,5.565
			c0.601,3.254,0.946,5.263,1.818,8.313c0.833,2.915,1.995,4.883,2.937,6.118l-7.976,11.097c-0.926,1.288-0.808,3.049,0.286,4.198
			c2.677,2.811,7.244,7.656,7.42,7.867c0.146,0.366,0.271,0.682,0.4,0.903c1.026,1.752,2.633,2.363,2.633,2.363l1.957-5.146
			c0,0-1.641-0.845-2.119-1.718c-0.045-0.615-0.281-1.31-0.991-1.862c-1.184-0.921-4.06-4.738-4.06-4.738l9.113-7.834
			c0.622,8.435,1.675,22.884,1.675,23.993c0,0.281-0.026,0.543-0.06,0.798c1.873-1.577,3.592-3.33,5.133-5.234
			c0.201-5.545,0.491-13.266,0.699-18.773c2.438,0.453,4.932,0.785,7.293,0.978c0.335-2.036,0.517-4.123,0.517-6.254
			C83.622,36.036,80.288,27.499,74.753,20.862z"/>
		<path style="fill:#FFFFFF;" d="M29.07,30.328c0.2,0.119,0.513,0.323,0.513,0.323s-0.252,1.194-0.534,2.59
			c0.509-0.238,1.069-0.372,1.653-0.372c0.671,0,1.331,0.18,1.931,0.504l0.126,0.001c-0.045-0.627-0.059-1.218-0.011-1.574
			c0.692,0.303,1.358,0.409,1.839,0.478c0.026,0.004,0.051,0.005,0.077,0.005c0.995,0,2.206-2.628,2.128-3.666
			c-0.049-0.653-0.897-4.662-1.692-5.637c-0.533-0.653-2.105-1.435-3.788-1.435c-1.215,0-2.487,0.407-3.467,1.564
			C25.621,25.734,27.111,29.163,29.07,30.328z"/>
		<path style="fill:#F8C409;" d="M30.602,55.23c2.74,0.875,5.095,2.594,6.783,4.845h5.242c0.828,0,1.5,0.672,1.5,1.5v10.993
			c0.244-0.039,0.49-0.075,0.745-0.075c2.35,0,4.286,1.714,4.662,3.957h3.977c0.999-0.292,1.164-1.912,0.102-2.321l-5.241-2.704
			c0,0,2.298-11.227,2.648-14.5c0.239-2.229-1.307-4.25-3.52-4.609H37.223C36.274,53.34,34.348,54.669,30.602,55.23z"/>
		<path style="fill:#F8C409;" d="M28.816,40.529c-0.855-0.53-1.45-1.322-1.771-2.203c-0.478,3.91-0.282,10.719-0.015,15.177
			c7.836-0.071,9.182-3.176,9.182-3.176l-0.01-5.547C33.384,43.239,30.186,41.377,28.816,40.529z"/>
		<path style="fill:#F8C409;" d="M46.554,32.776c-0.415,0.378-7.237,6.758-7.237,6.758c-1.415-0.743-5.375-3.003-7.507-4.339
			c-0.353-0.221-0.736-0.326-1.108-0.326c-0.692,0-1.345,0.365-1.691,1.026c-0.525,1.004-0.142,2.314,0.858,2.934
			c1.782,1.104,7.08,4.167,10.099,5.676c0,0,5.75-5.932,7.233-7.855c0.418-0.118,2.229-0.683,2.517-1.427
			c0.328-0.848,0.046-1.851-0.483-2.474c-0.281-0.331-0.751-0.548-1.274-0.548C47.501,32.201,47.001,32.369,46.554,32.776z"/>
		<path style="fill:#FFFFFF;" d="M44.871,72.494c-0.255,0-0.501,0.036-0.745,0.075V61.575c0-0.828-0.672-1.5-1.5-1.5h-5.242
			c-1.688-2.251-4.043-3.97-6.783-4.845c-1.315-0.42-2.714-0.651-4.169-0.651c-0.353,0-1.639,0.11-1.931,0.152V39.448
			c0-0.828-0.672-1.5-1.5-1.5h-3.417v3h1.917v14.561c-4.363,1.687-7.643,5.533-8.523,10.236c1.857,2.942,4.096,5.619,6.661,7.948
			c-1.188-1.488-1.904-3.369-1.904-5.416c0-4.796,3.902-8.698,8.698-8.698s8.698,3.902,8.698,8.698s-3.902,8.698-8.698,8.698
			c-1.452,0-2.818-0.362-4.023-0.994c2.752,2.065,5.795,3.759,9.051,5.028c5.074-2.006,8.669-6.945,8.669-12.732
			c0-1.843-0.369-3.597-1.029-5.202h2.025v11.283c-0.615,0.8-0.996,1.789-0.996,2.876c0,2.618,2.123,4.741,4.741,4.741
			c1.813,0,3.37-1.029,4.167-2.525h4.761c0.828,0,1.5-0.672,1.5-1.5s-0.672-1.5-1.5-1.5h-0.289h-3.977
			C49.158,74.207,47.221,72.494,44.871,72.494z"/>
		<path style="fill:#F8C409;" d="M19.584,37.448h-8.166c-1.104,0-2,0.896-2,2s0.896,2,2,2h8.166V37.448z"/>
	</g>
</g>
</svg>
