<svg xmlns="http://www.w3.org/2000/svg" viewBox="0 0 90.709 90.709"><circle cx="45.354" cy="45.355" r="43.52" fill="#194093"/><path d="M45.354 2.835c23.483 0 42.52 19.037 42.52 42.52s-19.037 42.52-42.52 42.52-42.52-19.037-42.52-42.52 19.037-42.52 42.52-42.52m0-2C20.806.835.834 20.806.834 45.355s19.971 44.52 44.52 44.52 44.52-19.971 44.52-44.52S69.903.835 45.354.835h0z" fill="#252e78"/><path d="M74.753 20.862c-.623-.416-1.37-.849-2.22-1.296-7.085-5.675-15.867-9.1-24.131-7.769l-4.006-4.685-.923 7.25c-2.699 3.501-1.568 7.807-1.903 12.734l-.46 7.42c-.008.151.007.344.043.564l4.054-3.781c.776-.707 1.754-1.097 2.754-1.097.933 0 1.794.344 2.451.928 3.977-3.503 3.256-4.096 3.434-6.407 1.371 1.306 2.865 4.289 3.101 5.565.601 3.254.946 5.263 1.818 8.313.833 2.915 1.995 4.883 2.937 6.118l-7.976 11.097c-.926 1.288-.808 3.049.286 4.198l7.42 7.867c.146.366.271.682.4.903 1.026 1.752 2.633 2.363 2.633 2.363l1.957-5.146s-1.641-.845-2.119-1.718a2.5 2.5 0 0 0-.991-1.862c-1.184-.921-4.06-4.738-4.06-4.738l9.113-7.834 1.675 23.993c0 .281-.026.543-.06.798a38.53 38.53 0 0 0 5.133-5.234l.699-18.773a72.97 72.97 0 0 0 7.293.978 38.48 38.48 0 0 0 .517-6.254 38.11 38.11 0 0 0-8.869-24.495zM29.07 30.328l.513.323-.534 2.59c.509-.238 1.069-.372 1.653-.372.671 0 1.331.18 1.931.504l.126.001c-.045-.627-.059-1.218-.011-1.574.692.303 1.358.409 1.839.478a.5.5 0 0 0 .077.005c.995 0 2.206-2.628 2.128-3.666-.049-.653-.897-4.662-1.692-5.637-.533-.653-2.105-1.435-3.788-1.435-1.215 0-2.487.407-3.467 1.564-2.224 2.625-.734 6.054 1.225 7.219z" fill="#fff"/><path d="M30.602 55.23c2.74.875 5.095 2.594 6.783 4.845h5.242a1.5 1.5 0 0 1 1.5 1.5v10.993a4.69 4.69 0 0 1 .745-.075c2.35 0 4.286 1.714 4.662 3.957h3.977c.999-.292 1.164-1.912.102-2.321l-5.241-2.704s2.298-11.227 2.648-14.5c.239-2.229-1.307-4.25-3.52-4.609H37.223c-.949 1.024-2.875 2.353-6.621 2.914zm-1.786-14.701c-.855-.53-1.45-1.322-1.771-2.203-.478 3.91-.282 10.719-.015 15.177 7.836-.071 9.182-3.176 9.182-3.176l-.01-5.547c-2.818-1.541-6.016-3.403-7.386-4.251zm17.738-7.753l-7.237 6.758-7.507-4.339c-.353-.221-.736-.326-1.108-.326a1.89 1.89 0 0 0-1.691 1.026c-.525 1.004-.142 2.314.858 2.934 1.782 1.104 7.08 4.167 10.099 5.676 0 0 5.75-5.932 7.233-7.855.418-.118 2.229-.683 2.517-1.427.328-.848.046-1.851-.483-2.474-.281-.331-.751-.548-1.274-.548-.46 0-.96.168-1.407.575z" fill="#f8c409"/><path d="M44.871 72.494a4.69 4.69 0 0 0-.745.075V61.575a1.5 1.5 0 0 0-1.5-1.5h-5.242c-1.688-2.251-4.043-3.97-6.783-4.845-1.315-.42-2.714-.651-4.169-.651-.353 0-1.639.11-1.931.152V39.448a1.5 1.5 0 0 0-1.5-1.5h-3.417v3h1.917v14.561c-4.363 1.687-7.643 5.533-8.523 10.236 1.857 2.942 4.096 5.619 6.661 7.948-1.188-1.488-1.904-3.369-1.904-5.416a8.71 8.71 0 0 1 8.698-8.698 8.71 8.71 0 0 1 8.698 8.698 8.71 8.71 0 0 1-8.698 8.698 8.63 8.63 0 0 1-4.023-.994c2.752 2.065 5.795 3.759 9.051 5.028 5.074-2.006 8.669-6.945 8.669-12.732a13.64 13.64 0 0 0-1.029-5.202h2.025v11.283c-.615.8-.996 1.789-.996 2.876 0 2.618 2.123 4.741 4.741 4.741 1.813 0 3.37-1.029 4.167-2.525h4.761a1.5 1.5 0 1 0 0-3h-.289-3.977c-.375-2.243-2.312-3.956-4.662-3.956z" fill="#fff"/><path d="M19.584 37.448h-8.166a2 2 0 1 0 0 4h8.166v-4z" fill="#f8c409"/></svg>