<svg xmlns="http://www.w3.org/2000/svg" viewBox="0 0 90.709 90.709"><circle transform="matrix(.9239 -.3827 .3827 .9239 -13.904 20.8088)" cx="45.354" cy="45.354" r="43.52" fill="#194093"/><path d="M45.354 2.835c23.483 0 42.52 19.037 42.52 42.52s-19.037 42.52-42.52 42.52-42.52-19.037-42.52-42.52 19.037-42.52 42.52-42.52m0-2C20.806.835.834 20.806.834 45.355s19.971 44.52 44.52 44.52 44.52-19.971 44.52-44.52S69.903.835 45.354.835h0z" fill="#252e78"/><path d="M50.195 21.022L39.002 8.177l1.215 11.885c-7.523 2.649-10.04 10.276-15.385 17.404l-7.984 10.778c-1.574 2.176-4.033 12.56 8.036 11.536 3.05-.26 5.92-3.798 5.841-7.063 13.308-1.537 12.169-3.119 15.091-6.89 4.177 13.15.563 24.614-2.385 37.746a38.36 38.36 0 0 0 1.924.049c13.891 0 26.046-7.405 32.75-18.479.848-1.4 1.863-5.849 1.642-6.584-4.933-16.386-15.124-31.165-29.552-37.537zM35.868 36.649c-1.566 0-2.835-1.269-2.835-2.835s1.269-2.835 2.835-2.835 2.835 1.269 2.835 2.835-1.269 2.835-2.835 2.835z" fill="#fff"/><path d="M80.638 52.939c-.823-.134-1.588.424-1.72 1.243-1.873 11.651-9.797 18.394-21.172 18.059-10.707-.323-22.936-7.428-24.021-18.344-.041-.383-.22-.744-.533-1.005l-2.988-2.485 10.37-6.849 2.232 5.188c.244.568 1.177 1.258 1.971.785.712-.424 1.112-1.209.785-1.971l-2.6-6.043c2.485-3.369 4.494-6.701 5.964-9.914a1.57 1.57 0 0 0 .086-.241l2.633-9.958a1.5 1.5 0 0 0-1.066-1.833 1.5 1.5 0 0 0-1.834 1.067l-1.931 7.302-6.967-8.216a1.5 1.5 0 0 0-2.288 1.94l8.171 9.637c-1.409 2.887-3.25 5.874-5.528 8.908l-12.407 8.194-6.854-5.7a1.5 1.5 0 0 0-1.918 2.306l11.8 9.814C32.459 67 45.885 74.885 57.655 75.24l.819.012c9.866 0 20.96-5.379 23.406-20.594a1.5 1.5 0 0 0-1.242-1.719z" fill="#f8c409"/></svg>