<svg xmlns="http://www.w3.org/2000/svg" viewBox="0 0 90.709 90.709"><path d="M45.354 88.874c-23.997 0-43.52-19.522-43.52-43.52s19.523-43.52 43.52-43.52 43.52 19.523 43.52 43.521-19.522 43.519-43.52 43.519z" fill="#194093"/><path d="M45.354 2.835c23.483 0 42.52 19.037 42.52 42.52s-19.037 42.52-42.52 42.52-42.52-19.037-42.52-42.52 19.037-42.52 42.52-42.52m0-2C20.806.835.834 20.806.834 45.355s19.971 44.52 44.52 44.52 44.52-19.971 44.52-44.52S69.903.835 45.354.835h0z" fill="#252e78"/><path d="M35.696 34.847l.692-.327V10.735h.009l-1.21-2.21-1.21 2.21h.01v25.567c.426-.61 1.002-1.122 1.709-1.455z" fill="#f8c409"/><g fill="#fff"><path d="M71.954 67.245l.025.004s-.009-.002-.025-.004z"/><path d="M71.334 63.95c.502-2.008 5.283-5.34 4.861-9.916s-5.339-8.51-8.012-9.251a8.97 8.97 0 0 0-1.213-.243c-1.22-1.929-3.608-3.426-6.707-4.004l.01 20.969h-6.181l2.762 5.705-7.235 5.449c-.424.495-.659.933-.769 1.375-.274 1.094.045 3.138.128 3.196 1.17-.468 2.405-.989 3.6-1.389-.081-.529-.341-1.271-.465-1.608l6.886-3.643a2.95 2.95 0 0 0 1.496-3.535l-.671-2.131c1.276 1.687 2.556 2.915 2.556 2.915l-1.854 6.183c-.462 1.286-.703 1.903-1.516 2.54a6.96 6.96 0 0 1-.679.473C56.987 77.846 56.987 80 56.987 80h3.37s.672-1.371.984-1.859c.438-.523 1.236.08 1.991-1.339.336-.632 2.134-5.194 3.135-7.751.404-1.033.06-2.105-.598-2.998-1.225-1.664-1.886-4.918-1.397-5.914s1.232-2.241 2.331-5.013c.787-1.984 1.295-5.453 1.521-7.272.046.032.097.054.142.089 1.548 1.171 1.245 4.876.703 5.967-5.843 11.761 2.275 13.253 2.786 13.335-.183-.031-1.359-.343-.621-3.295zm-37.421-2.446V40.985c-.121-.014-6.146-3.104-10.167-4.247l-.008.015c-1.878-.76-3.832-1.222-5.82-1.266l-2.03-3.731-1.537 4.826c-2.208 1.985-1.984 4.967-2.803 8.181l-1.205 4.845c-.23.973.408 4.894 4.41 2.818 1.011-.525 1.493-2.151.999-3.262 4.091-2.282 3.795-2.757 4.13-4.226.993.807 2.154 2.637 2.395 3.456.628 2.132.998 3.45 1.792 5.427.694 1.728 1.517 2.906 2.199 3.676l-4.463 6.209a2.21 2.21 0 0 0 .192 2.819l5.009 5.28c.705.838.228.631 1.316 1.788.628.668 2.137.691 2.137.691l.237-3.886-1.786-.773c.015-.461-.098-1.039-.668-1.483-.795-.619-2.727-3.182-2.727-3.182l5.814-4.998.668.14.962 13.896c0 1.714-1.037 2.685-1.727 3.319h0c-.195.179-.364.333-.471.467-.854 1.061-.854 2.216-.854 2.216h3.698s.083-.771.517-1.279c.056-.065 2.09-1.777 2.09-3.073 0-.5.28-8.063.509-14.144h-2.808z"/></g><path d="M39.458 60.584c-.502-.899-.477-1.964.067-2.85l1.366-2.221-3.685-7.654c-.42-1.335-.472-2.452.504-4.208l1.298-2.324-2.24-.222c-.262.094-1.247.402-1.473.402-.308 0-1.237-.428-1.382-.568v.046 20.519h6.397c-.339-.242-.64-.542-.852-.92zm20.815.92l-.01-20.969s-1.628-.846-9.721.067c-.395 1.913-1.469 2.961-2.378 3.824l-2.805 2.669c.177.397 1.77 6.356 1.945 6.72.513.954 1.099 2.348 1.123 2.406a2 2 0 0 1-.704 2.416l-4.131 2.867h16.681z" fill="#f8c409"/><path d="M52.574 21.361V37.8c1.512-.518 3.187-1.737 3.187-3.159h-2.345c1.535-.499 3.278-1.736 3.278-3.187h-2.345c1.535-.499 3.278-1.736 3.278-3.187h-2.345c1.535-.499 3.278-1.736 3.278-3.187H55.7c1.416-.572 2.86-1.715 2.86-3.035H55.8c1.323-.892 2.621-2.5 2.253-3.871l-2.669.715c1.047-1.205 1.884-3.094 1.174-4.323l-2.393 1.382c.7-1.435 1.019-3.476.016-4.479l-1.954 1.954c.305-1.567.085-3.621-1.144-4.331l-1.381 2.393c-.111-1.592-.855-3.52-2.226-3.887l-.715 2.669c-.519-1.509-1.737-3.178-3.156-3.178v5.304a8.98 8.98 0 0 1 8.969 8.968zm-2.672 0v11.301c-.283 4.086 1.583 5.213 1.672 5.404V21.361a7.98 7.98 0 0 0-7.969-7.97v1.672c3.472 0 6.297 2.825 6.297 6.298zm-6.529-.555h-1.798c-.075.844-.089 1.687-.066 1.907.065.633 1.045 2.055 1.672 2.055.04 0 .079-.006.115-.018.293-.097.696-.238 1.094-.504.109.34.188 1.048.224 1.653a2.92 2.92 0 0 1 1.939-.725c.166 0 .334.023.501.05l-.673-1.69h-1.184c-2.296-.001-1.824-2.728-1.824-2.728z" fill="#fff"/><path d="M48.483 34.643c-.298.8-.602 1.51-.842 1.851-.307.437-.543.766-5.016 2.466l-3.167 5.662c-.676 1.217-.62 1.758-.344 2.637 0 0 .927 2.51 1.992 4.284.734 1.224 2.053 4.098 2.053 4.098l-1.93 3.14c-.37.602.119 1.266.704 1.266a.82.82 0 0 0 .471-.154l4.178-2.9-1.039-2.231c-.473-.879-1.112-4.335-1.547-5.653-.373-1.132-.787-1.864-1.098-2.517l3.176-2.917c.867-.91 1.728-1.522 2.219-2.573.782-.228 1.581-.524 2.328-.907l.039-.019c-.011-.01-.019-.023-.029-.033-1.833-1.69-2.134-5.325-2.148-5.5zm-2.478.7c.328-.466 1.3-3.287 1.691-4.74.317-1.181.595-2.839-.622-3.32-.194-.077-.367-.11-.523-.11-.821 0-1.143.927-1.295 1.301-.431 1.057-1.182 4.631-1.182 4.631l-7.524 3.55c-1.071.505-1.606 1.722-1.255 2.852 0 0 10.383-3.698 10.71-4.164zm-4.43-14.537h1.798s-.471 2.727 1.823 2.727h1.184 1.078.321v-.567-3.53c0-1.861-1.564-2.525-2.555-2.758l-.112-.026-.111-.022c-.286-.055-.498-.072-.556-.075-1.244-.06-2.402-.013-3.196 1.689a6.83 6.83 0 0 0-.359.964c-.027.029-.071.069-.108.105-.494.477-1.781 1.494-1.781 1.494h1.566 1.008z" fill="#f8c409"/></svg>