<?xml version="1.0" encoding="iso-8859-1"?>
<!-- Generator: Adobe Illustrator 22.1.0, SVG Export Plug-In . SVG Version: 6.00 Build 0)  -->
<svg version="1.1" xmlns="http://www.w3.org/2000/svg" xmlns:xlink="http://www.w3.org/1999/xlink" x="0px" y="0px"
	 viewBox="0 0 90.709 90.709" style="enable-background:new 0 0 90.709 90.709;" xml:space="preserve">
<g id="ratownik-1">
	<g>
		<g>
			<path style="fill:#194093;" d="M45.354,88.874c-23.997,0-43.52-19.522-43.52-43.52S21.357,1.834,45.354,1.834
				s43.52,19.523,43.52,43.521S69.352,88.874,45.354,88.874z"/>
			<g>
				<path style="fill:#252E78;" d="M45.354,2.835c23.483,0,42.52,19.037,42.52,42.52s-19.037,42.52-42.52,42.52
					s-42.52-19.037-42.52-42.52S21.871,2.835,45.354,2.835 M45.354,0.835c-24.548,0-44.52,19.971-44.52,44.52
					s19.971,44.52,44.52,44.52s44.52-19.971,44.52-44.52S69.903,0.835,45.354,0.835L45.354,0.835z"/>
			</g>
		</g>
	</g>
</g>
<g id="elementy">
	<g>
		<path style="fill:none;" d="M49.112,35.622c-0.149-0.639-0.233-1.331-0.237-2.085c-0.126,0.371-0.258,0.748-0.392,1.107
			c0.014,0.175,0.042,0.336,0.061,0.506C48.745,35.299,48.935,35.456,49.112,35.622z"/>
		<path style="fill:none;" d="M39.731,40.036c-0.88,0.321-1.864,0.677-2.962,1.069c0.685,0.078,1.444,0.156,2.24,0.222
			C39.249,40.896,39.493,40.46,39.731,40.036z"/>
		<path style="fill:#F8C409;" d="M35.696,34.847l0.692-0.327V10.735h0.009l-1.21-2.21l-1.21,2.21h0.01v25.567
			C34.413,35.692,34.989,35.18,35.696,34.847z"/>
		<path style="fill:#FFFFFF;" d="M71.954,67.245c0.015,0.003,0.025,0.004,0.025,0.004S71.97,67.247,71.954,67.245z"/>
		<path style="fill:#FFFFFF;" d="M71.334,63.95c0.502-2.008,5.283-5.34,4.861-9.916c-0.422-4.576-5.339-8.51-8.012-9.251
			c-0.435-0.121-0.833-0.191-1.213-0.243c-1.22-1.929-3.608-3.426-6.707-4.004l0.01,20.969h-6.181l2.762,5.705
			c0,0-6.88,5.036-7.235,5.449c-0.424,0.495-0.659,0.933-0.769,1.375c-0.274,1.094,0.045,3.138,0.128,3.196
			c1.17-0.468,2.405-0.989,3.6-1.389c-0.081-0.529-0.341-1.271-0.465-1.608l6.886-3.643c1.303-0.649,1.938-2.149,1.496-3.535
			c-0.225-0.705-0.464-1.463-0.671-2.131c1.276,1.687,2.556,2.915,2.556,2.915s-1.583,5.43-1.854,6.183
			c-0.462,1.286-0.703,1.903-1.516,2.54c-0.231,0.181-0.461,0.341-0.679,0.473C56.987,77.846,56.987,80,56.987,80h3.37
			c0,0,0.672-1.371,0.984-1.859c0.438-0.523,1.236,0.08,1.991-1.339c0.336-0.632,2.134-5.194,3.135-7.751
			c0.404-1.033,0.06-2.105-0.598-2.998c-1.225-1.664-1.886-4.918-1.397-5.914c0.489-0.995,1.232-2.241,2.331-5.013
			c0.787-1.984,1.295-5.453,1.521-7.272c0.046,0.032,0.097,0.054,0.142,0.089c1.548,1.171,1.245,4.876,0.703,5.967
			c-5.843,11.761,2.275,13.253,2.786,13.335C71.772,67.214,70.596,66.902,71.334,63.95z"/>
		<path style="fill:#FFFFFF;" d="M33.913,61.504V40.985c-0.121-0.014-6.146-3.104-10.167-4.247l-0.008,0.015
			c-1.878-0.76-3.832-1.222-5.82-1.266l-2.03-3.731l-1.537,4.826c-2.208,1.985-1.984,4.967-2.803,8.181
			c-0.429,1.683-0.89,3.513-1.205,4.845c-0.23,0.973,0.408,4.894,4.41,2.818c1.011-0.525,1.493-2.151,0.999-3.262
			c4.091-2.282,3.795-2.757,4.13-4.226c0.993,0.807,2.154,2.637,2.395,3.456c0.628,2.132,0.998,3.45,1.792,5.427
			c0.694,1.728,1.517,2.906,2.199,3.676l-4.463,6.209c-0.622,0.865-0.543,2.048,0.192,2.819c1.798,1.888,4.891,5.139,5.009,5.28
			c0.705,0.838,0.228,0.631,1.316,1.788c0.628,0.668,2.137,0.691,2.137,0.691l0.237-3.886l-1.786-0.773
			c0.015-0.461-0.098-1.039-0.668-1.483c-0.795-0.619-2.727-3.182-2.727-3.182l5.814-4.998c0.219,0.049,0.441,0.096,0.668,0.14
			c0.416,5.671,0.962,13.242,0.962,13.896c0,1.714-1.037,2.685-1.727,3.319h0c-0.195,0.179-0.364,0.333-0.471,0.467
			C29.907,78.845,29.907,80,29.907,80h3.698c0,0,0.083-0.771,0.517-1.279c0.056-0.065,2.09-1.777,2.09-3.073
			c0-0.5,0.28-8.063,0.509-14.144H33.913z"/>
		<path style="fill:#F8C409;" d="M39.458,60.584c-0.502-0.899-0.477-1.964,0.067-2.85l1.366-2.221
			c-0.464-0.977-3.675-7.623-3.685-7.654c-0.42-1.335-0.472-2.452,0.504-4.208c0.246-0.442,0.753-1.351,1.298-2.324
			c-0.795-0.066-1.554-0.144-2.24-0.222c-0.262,0.094-1.247,0.402-1.473,0.402c-0.308,0-1.237-0.428-1.382-0.568v0.046v20.519h6.397
			C39.971,61.262,39.67,60.962,39.458,60.584z"/>
		<path style="fill:#F8C409;" d="M60.273,61.504l-0.01-20.969c0,0-1.628-0.846-9.721,0.067c-0.395,1.913-1.469,2.961-2.378,3.824
			c-0.209,0.199-1.84,1.809-2.805,2.669c0.177,0.397,1.77,6.356,1.945,6.72c0.513,0.954,1.099,2.348,1.123,2.406
			c0.365,0.871,0.071,1.878-0.704,2.416l-4.131,2.867H60.273z"/>
		<path style="fill:#FFFFFF;" d="M52.574,21.361V37.8c1.512-0.518,3.187-1.737,3.187-3.159h-2.345
			c1.535-0.499,3.278-1.736,3.278-3.187h-2.345c1.535-0.499,3.278-1.736,3.278-3.187h-2.345c1.535-0.499,3.278-1.736,3.278-3.187
			h-2.86c1.416-0.572,2.86-1.715,2.86-3.035H55.8c1.323-0.892,2.621-2.5,2.253-3.871l-2.669,0.715
			c1.047-1.205,1.884-3.094,1.174-4.323l-2.393,1.382c0.7-1.435,1.019-3.476,0.016-4.479l-1.954,1.954
			c0.305-1.567,0.085-3.621-1.144-4.331l-1.381,2.393c-0.111-1.592-0.855-3.52-2.226-3.887l-0.715,2.669
			c-0.519-1.509-1.737-3.178-3.156-3.178v5.304C48.551,12.391,52.574,16.415,52.574,21.361z"/>
		<path style="fill:#FFFFFF;" d="M49.902,21.361v11.301c-0.283,4.086,1.583,5.213,1.672,5.404V21.361c0-4.394-3.575-7.97-7.969-7.97
			v1.672C47.077,15.063,49.902,17.888,49.902,21.361z"/>
		<path style="fill:#FFFFFF;" d="M43.373,20.806h-1.798c-0.075,0.844-0.089,1.687-0.066,1.907c0.065,0.633,1.045,2.055,1.672,2.055
			c0.04,0,0.079-0.006,0.115-0.018c0.293-0.097,0.696-0.238,1.094-0.504c0.109,0.34,0.188,1.048,0.224,1.653
			c0.652-0.562,1.359-0.725,1.939-0.725c0.166,0,0.334,0.023,0.501,0.05c-0.258-0.658-0.517-1.304-0.673-1.69
			c-0.38,0-0.793,0-1.184,0C42.901,23.533,43.373,20.806,43.373,20.806z"/>
		<path style="fill:#F8C409;" d="M48.483,34.643c-0.298,0.8-0.602,1.51-0.842,1.851c-0.307,0.437-0.543,0.766-5.016,2.466
			c-0.572,1.021-2.588,4.621-3.167,5.662c-0.676,1.217-0.62,1.758-0.344,2.637c0,0,0.927,2.51,1.992,4.284
			c0.734,1.224,2.053,4.098,2.053,4.098l-1.93,3.14c-0.37,0.602,0.119,1.266,0.704,1.266c0.155,0,0.317-0.047,0.471-0.154l4.178-2.9
			c0,0-0.566-1.352-1.039-2.231c-0.473-0.879-1.112-4.335-1.547-5.653c-0.373-1.132-0.787-1.864-1.098-2.517
			c1.052-0.912,2.431-2.136,3.176-2.917c0.867-0.91,1.728-1.522,2.219-2.573c0.782-0.228,1.581-0.524,2.328-0.907
			c0.013-0.007,0.026-0.012,0.039-0.019c-0.011-0.01-0.019-0.023-0.029-0.033C48.798,38.453,48.497,34.818,48.483,34.643z"/>
		<path style="fill:#F8C409;" d="M46.005,35.343c0.328-0.466,1.3-3.287,1.691-4.74c0.317-1.181,0.595-2.839-0.622-3.32
			c-0.194-0.077-0.367-0.11-0.523-0.11c-0.821,0-1.143,0.927-1.295,1.301c-0.431,1.057-1.182,4.631-1.182,4.631l-7.524,3.55
			c-1.071,0.505-1.606,1.722-1.255,2.852C35.295,39.507,45.678,35.809,46.005,35.343z"/>
		<path style="fill:#F8C409;" d="M41.575,20.806h1.798c0,0-0.471,2.727,1.823,2.727c0.392,0,0.804,0,1.184,0
			c0.437,0,0.821,0,1.078,0c0.195,0,0.321,0,0.321,0v-0.567v-3.53c0-1.861-1.564-2.525-2.555-2.758
			c-0.038-0.009-0.076-0.018-0.112-0.026c-0.037-0.009-0.074-0.014-0.111-0.022c-0.286-0.055-0.498-0.072-0.556-0.075
			c-1.244-0.06-2.402-0.013-3.196,1.689c-0.129,0.277-0.25,0.593-0.359,0.964c-0.027,0.029-0.071,0.069-0.108,0.105
			c-0.494,0.477-1.781,1.494-1.781,1.494h1.566H41.575z"/>
	</g>
</g>
</svg>
