<?xml version="1.0" encoding="iso-8859-1"?>
<!-- Generator: Adobe Illustrator 22.1.0, SVG Export Plug-In . SVG Version: 6.00 Build 0)  -->
<svg version="1.1" xmlns="http://www.w3.org/2000/svg" xmlns:xlink="http://www.w3.org/1999/xlink" x="0px" y="0px"
	 viewBox="0 0 90.709 90.709" style="enable-background:new 0 0 90.709 90.709;" xml:space="preserve">
<g id="ratownik-1">
	<g>
		<g>
			
				<ellipse transform="matrix(0.9239 -0.3827 0.3827 0.9239 -13.9041 20.8088)" style="fill:#194093;" cx="45.354" cy="45.355" rx="43.52" ry="43.52"/>
			<g>
				<path style="fill:#252E78;" d="M45.354,2.835c23.483,0,42.52,19.037,42.52,42.52s-19.037,42.52-42.52,42.52
					s-42.52-19.037-42.52-42.52S21.871,2.835,45.354,2.835 M45.354,0.835c-24.548,0-44.52,19.971-44.52,44.52
					s19.971,44.52,44.52,44.52s44.52-19.971,44.52-44.52S69.903,0.835,45.354,0.835L45.354,0.835z"/>
			</g>
		</g>
	</g>
</g>
<g id="elementy">
	<g>
		<path style="fill:#FFFFFF;" d="M74.346,57.795c0.016,0.003,0.027,0.004,0.027,0.004S74.364,57.798,74.346,57.795z"/>
		<path style="fill:#FFFFFF;" d="M73.738,54.548c0.495-1.979,5.207-5.264,4.791-9.774c-0.416-4.51-5.263-8.388-7.897-9.119
			c-1.027-0.285-1.901-0.345-2.592-0.316c-1.178-1.406-2.992-2.563-5.267-3.238c-5.056-1.499-10.715,0.052-13.724-0.062
			c-3.01-0.113-12.355-2.226-12.355-2.226l0,0c-0.724-0.508-1.749-1.202-2.948-1.95c-1.756-1.249-3.638-2.28-5.582-3.027
			c-0.382-0.172-0.764-0.342-1.146-0.495l-0.041,0.069c-2.607-0.832-5.293-1.136-7.903-0.716l-2.632-3.255l-0.63,4.953
			c-1.787,2.318-1.038,5.168-1.26,8.43c-0.116,1.708-0.237,3.564-0.305,4.912c-0.05,0.984,1.267,4.672,4.778,1.946
			c0.887-0.689,1.064-2.352,0.387-3.341c3.754-3.102,3.136-3.388,3.266-5.089c0.908,0.865,1.897,2.839,2.053,3.684
			c0.398,2.154,0.627,3.484,1.204,5.503c0.552,1.932,1.321,3.232,1.945,4.049l-5.281,7.347c-0.613,0.853-0.535,2.018,0.189,2.779
			c1.772,1.861,4.821,5.065,4.938,5.204c0.695,0.826,2.207,2.777,2.207,2.777l1.431-4.164l-5.107-5.361l6.033-5.186
			c0.412,5.584,1.109,15.15,1.109,15.883c0,1.69-1.022,2.647-1.702,3.272l0,0c-0.192,0.176-0.358,0.328-0.465,0.46
			c-0.843,1.047-0.843,2.185-0.843,2.185h3.645c0,0,0.081-0.76,0.51-1.261c0.055-0.064,2.06-1.752,2.06-3.029
			c0-0.581,0.385-10.864,0.616-16.992c2.259,0.42,4.595,0.682,6.653,0.759c4.447,0.165,7.675-0.464,9.868-1.181l4.25,8.779
			c0,0-6.782,4.964-7.131,5.371c-0.418,0.488-0.649,0.92-0.758,1.355c-0.27,1.079,0.044,3.093,0.126,3.151
			c1.154-0.461,2.37-0.975,3.549-1.369c-0.103-0.671-0.495-1.683-0.521-1.749l6.849-3.427c1.284-0.64,1.911-2.118,1.474-3.485
			c-0.267-0.837-0.554-1.747-0.78-2.488c1.401,2.018,3.034,3.579,3.034,3.579s-1.561,5.352-1.827,6.094
			c-0.455,1.268-0.693,1.876-1.494,2.504c-0.228,0.178-0.455,0.336-0.669,0.466c-1.325,0.802-1.325,2.925-1.325,2.925h3.738
			c0,0,0.709-1.953,0.731-1.979c0.45-0.251,1.134,0.052,1.786-1.173c0.331-0.623,2.103-5.119,3.09-7.64
			c0.398-1.018,0.059-2.075-0.589-2.955c-1.208-1.64-1.859-4.848-1.377-5.829c0.482-0.981,0.976-2.315,2.297-4.941
			c1.513-3.007,1.524-6.484,1.432-8.055c0.442,0.147,0.887,0.354,1.286,0.656c1.525,1.154,1.228,4.806,0.693,5.881
			c-5.754,11.583,2.228,13.061,2.744,13.143C74.163,57.764,73.012,57.45,73.738,54.548z"/>
	</g>
	<path style="fill:#F8C409;" d="M73.913,69.493C42.298,72.698,22.54,40.329,20.617,37.03l0.224-13.393
		c0.011-0.663-0.517-1.209-1.18-1.221c-0.684,0.021-1.209,0.518-1.22,1.18l-0.038,2.247l-2.5-1.025
		c-0.613-0.252-1.314,0.043-1.565,0.655c-0.251,0.613,0.042,1.314,0.655,1.565l3.367,1.38l-0.125,7.451l-3.602-0.751
		c-0.647-0.139-1.284,0.28-1.419,0.93s0.281,1.284,0.93,1.42l4.498,0.938c2.474,4.179,21.026,33.713,50.856,33.713
		c1.523,0,3.077-0.077,4.659-0.239c0.659-0.066,1.139-0.656,1.071-1.315C75.162,69.906,74.593,69.414,73.913,69.493z"/>
</g>
</svg>
