<svg xmlns="http://www.w3.org/2000/svg" viewBox="0 0 90.709 90.709"><circle transform="matrix(.9239 -.3827 .3827 .9239 -13.9041 20.8088)" cx="45.354" cy="45.355" r="43.52" fill="#194093"/><path d="M45.354 2.835c23.483 0 42.52 19.037 42.52 42.52s-19.037 42.52-42.52 42.52-42.52-19.037-42.52-42.52 19.037-42.52 42.52-42.52m0-2C20.806.835.834 20.806.834 45.355s19.971 44.52 44.52 44.52 44.52-19.971 44.52-44.52S69.903.835 45.354.835h0z" fill="#252e78"/><g fill="#fff"><path d="M74.346 57.795l.027.004-.027-.004z"/><path d="M73.738 54.548c.495-1.979 5.207-5.264 4.791-9.774s-5.263-8.388-7.897-9.119c-1.027-.285-1.901-.345-2.592-.316-1.178-1.406-2.992-2.563-5.267-3.238-5.056-1.499-10.715.052-13.724-.062s-12.355-2.226-12.355-2.226h0a66.46 66.46 0 0 0-2.948-1.95c-1.756-1.249-3.638-2.28-5.582-3.027-.382-.172-.764-.342-1.146-.495l-.041.069c-2.607-.832-5.293-1.136-7.903-.716l-2.632-3.255-.63 4.953c-1.787 2.318-1.038 5.168-1.26 8.43l-.305 4.912c-.05.984 1.267 4.672 4.778 1.946.887-.689 1.064-2.352.387-3.341 3.754-3.102 3.136-3.388 3.266-5.089.908.865 1.897 2.839 2.053 3.684.398 2.154.627 3.484 1.204 5.503.552 1.932 1.321 3.232 1.945 4.049l-5.281 7.347a2.18 2.18 0 0 0 .189 2.779l4.938 5.204c.695.826 2.207 2.777 2.207 2.777l1.431-4.164-5.107-5.361 6.033-5.186 1.109 15.883c0 1.69-1.022 2.647-1.702 3.272h0c-.192.176-.358.328-.465.46-.843 1.047-.843 2.185-.843 2.185h3.645s.081-.76.51-1.261c.055-.064 2.06-1.752 2.06-3.029 0-.581.385-10.864.616-16.992 2.259.42 4.595.682 6.653.759 4.447.165 7.675-.464 9.868-1.181l4.25 8.779-7.131 5.371c-.418.488-.649.92-.758 1.355-.27 1.079.044 3.093.126 3.151 1.154-.461 2.37-.975 3.549-1.369-.103-.671-.495-1.683-.521-1.749l6.849-3.427c1.284-.64 1.911-2.118 1.474-3.485l-.78-2.488a26.38 26.38 0 0 0 3.034 3.579l-1.827 6.094c-.455 1.268-.693 1.876-1.494 2.504-.228.178-.455.336-.669.466-1.325.802-1.325 2.925-1.325 2.925h3.738l.731-1.979c.45-.251 1.134.052 1.786-1.173.331-.623 2.103-5.119 3.09-7.64.398-1.018.059-2.075-.589-2.955-1.208-1.64-1.859-4.848-1.377-5.829s.976-2.315 2.297-4.941c1.513-3.007 1.524-6.484 1.432-8.055.442.147.887.354 1.286.656 1.525 1.154 1.228 4.806.693 5.881-5.754 11.583 2.228 13.061 2.744 13.143-.186-.028-1.337-.342-.611-3.244z"/></g><path d="M73.913 69.493C42.298 72.698 22.54 40.329 20.617 37.03l.224-13.393a1.2 1.2 0 0 0-1.18-1.221c-.684.021-1.209.518-1.22 1.18l-.038 2.247-2.5-1.025a1.2 1.2 0 0 0-1.565.655 1.2 1.2 0 0 0 .655 1.565l3.367 1.38-.125 7.451-3.602-.751c-.647-.139-1.284.28-1.419.93a1.2 1.2 0 0 0 .93 1.42l4.498.938c2.474 4.179 21.026 33.713 50.856 33.713a45.72 45.72 0 0 0 4.659-.239 1.2 1.2 0 0 0 1.071-1.315c-.066-.659-.635-1.151-1.315-1.072z" fill="#f8c409"/></svg>