<svg xmlns="http://www.w3.org/2000/svg" viewBox="0 0 90.709 90.709"><path d="M45.354 88.874c-23.997 0-43.52-19.522-43.52-43.52s19.523-43.52 43.52-43.52 43.52 19.523 43.52 43.521-19.523 43.519-43.52 43.519z" fill="#194093"/><path d="M45.354 2.835c23.483 0 42.52 19.037 42.52 42.52s-19.037 42.52-42.52 42.52-42.52-19.037-42.52-42.52 19.037-42.52 42.52-42.52m0-2C20.806.835.834 20.806.834 45.355s19.971 44.52 44.52 44.52 44.52-19.971 44.52-44.52S69.903.835 45.354.835h0z" fill="#252e78"/><path d="M54.183 39.235l-9.02-10.351.979 9.578c-6.062 2.134-8.091 8.281-12.398 14.025l-6.434 8.685c-1.268 1.754-3.25 10.122 6.475 9.296 2.458-.209 4.771-3.061 4.707-5.692 10.724-1.239 9.807-2.514 12.161-5.552 2.679 8.434 1.378 16.008-.461 24.082 11.193-1.413 20.883-7.65 26.906-16.575-1.541-4.388-3.56-8.58-6.023-12.374-4.321-6.656-10.005-12.08-16.892-15.122zM42.637 52.548c-1.659 0-3.005-1.345-3.005-3.005s1.345-3.005 3.005-3.005 3.005 1.345 3.005 3.005-1.345 3.005-3.005 3.005z" fill="#fff"/><path d="M8.867 33.797c-1.054 3.331-1.656 6.859-1.754 10.515l4.52-2.813v21.956a38.44 38.44 0 0 0 8 10.235V36.52l25.721-16.01 25.721 16.009v17.839c2.463 3.794 4.482 7.986 6.023 12.374.712-1.056 1.371-2.15 1.977-3.277V41.498l4.52 2.813c-.098-3.655-.7-7.184-1.754-10.515l-36.487-22.71L8.867 33.797z" fill="#f8c409"/></svg>