<?xml version="1.0" encoding="iso-8859-1"?>
<!-- Generator: Adobe Illustrator 22.1.0, SVG Export Plug-In . SVG Version: 6.00 Build 0)  -->
<svg version="1.1" xmlns="http://www.w3.org/2000/svg" xmlns:xlink="http://www.w3.org/1999/xlink" x="0px" y="0px"
	 viewBox="0 0 90.709 90.709" style="enable-background:new 0 0 90.709 90.709;" xml:space="preserve">
<g id="ratownik-1">
	<g>
		<g>
			<path style="fill:#194093;" d="M45.354,88.874c-23.997,0-43.52-19.522-43.52-43.52S21.357,1.834,45.354,1.834
				s43.52,19.523,43.52,43.521S69.351,88.874,45.354,88.874z"/>
			<g>
				<path style="fill:#252E78;" d="M45.354,2.835c23.483,0,42.52,19.037,42.52,42.52s-19.037,42.52-42.52,42.52
					s-42.52-19.037-42.52-42.52S21.871,2.835,45.354,2.835 M45.354,0.835c-24.548,0-44.52,19.971-44.52,44.52
					s19.971,44.52,44.52,44.52s44.52-19.971,44.52-44.52S69.903,0.835,45.354,0.835L45.354,0.835z"/>
			</g>
		</g>
	</g>
</g>
<g id="elementy">
	<g>
		<path style="fill:#FFFFFF;" d="M54.183,39.235l-9.02-10.351l0.979,9.578c-6.062,2.134-8.091,8.281-12.398,14.025
			c-2.254,3.008-4.697,6.284-6.434,8.685c-1.268,1.754-3.25,10.122,6.475,9.296c2.458-0.209,4.771-3.061,4.707-5.692
			c10.724-1.239,9.807-2.514,12.161-5.552c2.679,8.434,1.378,16.008-0.461,24.082c11.193-1.413,20.883-7.65,26.906-16.575
			c-1.541-4.388-3.56-8.58-6.023-12.374C66.754,47.701,61.07,42.277,54.183,39.235z M42.637,52.548
			c-1.659,0-3.005-1.345-3.005-3.005c0-1.659,1.345-3.005,3.005-3.005c1.659,0,3.005,1.345,3.005,3.005
			C45.642,51.203,44.297,52.548,42.637,52.548z"/>
		<path style="fill:#F8C409;" d="M8.867,33.797c-1.054,3.331-1.656,6.859-1.754,10.515l4.52-2.813v21.956
			c2.074,3.855,4.786,7.315,8,10.235v-37.17L45.354,20.51l25.721,16.009v17.839c2.463,3.794,4.482,7.986,6.023,12.374
			c0.712-1.056,1.371-2.15,1.977-3.277V41.498l4.52,2.813c-0.098-3.655-0.7-7.184-1.754-10.515l-36.487-22.71L8.867,33.797z"/>
	</g>
</g>
</svg>
