<svg xmlns="http://www.w3.org/2000/svg" viewBox="0 0 90.709 90.709"><path d="M45.354 88.874c-23.997 0-43.52-19.522-43.52-43.52s19.522-43.52 43.52-43.52 43.521 19.522 43.521 43.52-19.524 43.52-43.521 43.52z" fill="#194093"/><path d="M45.354 2.835c23.483 0 42.52 19.037 42.52 42.52s-19.037 42.52-42.52 42.52-42.52-19.037-42.52-42.52 19.037-42.52 42.52-42.52m0-2C20.806.835.834 20.806.834 45.355s19.971 44.52 44.52 44.52 44.52-19.971 44.52-44.52S69.903.835 45.354.835h0z" fill="#252e78"/><path d="M57.538 68.049v-.413c1.871-6.781 4.01-16.773 4.01-21.309 0-10.879-9.835-17.162-16.196-17.162h0c-6.361 0-16.196 6.283-16.196 17.162 0 4.609 2.219 14.851 4.099 21.633v.044c0 3.849-4.864 5.858-7.345 2.916-.101-.12-.192-.242-.273-.367-3.544-5.525-9.227-16.281-9.227-28.451V39.97c0-15.237 12.352-27.588 27.588-27.588h2.71c15.237 0 27.588 12.352 27.588 27.588v2.131c0 12.17-5.683 22.926-9.227 28.451-.08.125-.171.248-.272.367-2.446 2.915-7.259.935-7.259-2.87z" fill="#f8c409"/><g fill="#fff"><circle cx="25.618" cy="59.773" r="3.014"/><circle cx="22.766" cy="46.969" r="3.014"/><circle cx="24.78" cy="34.07" r="3.014"/><circle cx="32.779" cy="23.851" r="3.014"/><circle cx="65.037" cy="59.773" r="3.014"/><circle cx="67.889" cy="46.969" r="3.014"/><circle cx="65.875" cy="34.07" r="3.014"/><circle cx="57.876" cy="23.851" r="3.014"/><circle cx="45.327" cy="20.514" r="3.014"/></g></svg>