<?xml version="1.0" encoding="iso-8859-1"?>
<!-- Generator: Adobe Illustrator 22.1.0, SVG Export Plug-In . SVG Version: 6.00 Build 0)  -->
<svg version="1.1" xmlns="http://www.w3.org/2000/svg" xmlns:xlink="http://www.w3.org/1999/xlink" x="0px" y="0px"
	 viewBox="0 0 90.709 90.709" style="enable-background:new 0 0 90.709 90.709;" xml:space="preserve">
<g id="ratownik-1">
	<g>
		<g>
			<path style="fill:#194093;" d="M45.354,88.874c-23.997,0-43.52-19.522-43.52-43.52s19.522-43.52,43.52-43.52
				s43.521,19.522,43.521,43.52S69.351,88.874,45.354,88.874z"/>
			<g>
				<path style="fill:#252E78;" d="M45.354,2.835c23.483,0,42.52,19.037,42.52,42.52s-19.037,42.52-42.52,42.52
					c-23.483,0-42.52-19.037-42.52-42.52S21.871,2.835,45.354,2.835 M45.354,0.835c-24.548,0-44.52,19.971-44.52,44.52
					s19.971,44.52,44.52,44.52s44.52-19.971,44.52-44.52S69.903,0.835,45.354,0.835L45.354,0.835z"/>
			</g>
		</g>
	</g>
</g>
<g id="elementy">
	<g>
		<g>
			<path style="fill:#F8C409;" d="M57.538,68.049v-0.413c1.871-6.781,4.01-16.773,4.01-21.309c0-10.879-9.835-17.162-16.196-17.162
				h0c-6.361,0-16.196,6.283-16.196,17.162c0,4.609,2.219,14.851,4.099,21.633v0.044c0,3.849-4.864,5.858-7.345,2.916
				c-0.101-0.12-0.192-0.242-0.273-0.367c-3.544-5.525-9.227-16.281-9.227-28.451V39.97c0-15.237,12.352-27.588,27.588-27.588h2.71
				c15.237,0,27.588,12.352,27.588,27.588v2.131c0,12.17-5.683,22.926-9.227,28.451c-0.08,0.125-0.171,0.248-0.272,0.367
				C62.351,73.834,57.538,71.854,57.538,68.049z"/>
		</g>
		<g>
			<circle style="fill:#FFFFFF;" cx="25.618" cy="59.773" r="3.014"/>
			<circle style="fill:#FFFFFF;" cx="22.766" cy="46.969" r="3.014"/>
			<circle style="fill:#FFFFFF;" cx="24.78" cy="34.07" r="3.014"/>
			<circle style="fill:#FFFFFF;" cx="32.779" cy="23.851" r="3.014"/>
			<circle style="fill:#FFFFFF;" cx="65.037" cy="59.773" r="3.014"/>
			<circle style="fill:#FFFFFF;" cx="67.889" cy="46.969" r="3.014"/>
			<circle style="fill:#FFFFFF;" cx="65.875" cy="34.07" r="3.014"/>
			<circle style="fill:#FFFFFF;" cx="57.876" cy="23.851" r="3.014"/>
			<circle style="fill:#FFFFFF;" cx="45.327" cy="20.514" r="3.014"/>
		</g>
	</g>
</g>
</svg>
