<?xml version="1.0" encoding="iso-8859-1"?>
<!-- Generator: Adobe Illustrator 22.1.0, SVG Export Plug-In . SVG Version: 6.00 Build 0)  -->
<svg version="1.1" xmlns="http://www.w3.org/2000/svg" xmlns:xlink="http://www.w3.org/1999/xlink" x="0px" y="0px"
	 viewBox="0 0 90.709 90.709" style="enable-background:new 0 0 90.709 90.709;" xml:space="preserve">
<g id="ratownik-1">
	<g>
		<g>
			<circle style="fill:#194093;" cx="45.354" cy="45.355" r="43.52"/>
			<g>
				<path style="fill:#252E78;" d="M45.354,2.835c23.483,0,42.52,19.037,42.52,42.52s-19.037,42.52-42.52,42.52
					s-42.52-19.037-42.52-42.52S21.871,2.835,45.354,2.835 M45.354,0.835c-24.548,0-44.52,19.971-44.52,44.52
					s19.971,44.52,44.52,44.52s44.52-19.971,44.52-44.52S69.903,0.835,45.354,0.835L45.354,0.835z"/>
			</g>
		</g>
	</g>
</g>
<g id="elementy">
	<g>
		<g>
			<path style="fill:#FFFFFF;" d="M53.944,36.765V18.242H36.765v12.796c0.693-0.401,1.407-0.765,2.14-1.089l6.107-7.008
				l-0.663,6.484c4.104,1.445,5.478,5.606,8.394,9.495c1.526,2.036,3.255,4.203,4.356,5.88c0.257,0.922,2.201,6.853-4.384,6.294
				c-1.664-0.142-3.23-2.072-3.187-3.853c-7.261-0.839-6.639-1.702-8.234-3.759c-2.291,7.214-0.285,13.496,1.328,20.71l2.582,8.274
				h8.738V53.944h18.523V36.765H53.944z"/>
		</g>
		<g>
			<path style="fill:#FFFFFF;" d="M18.242,36.765v17.179h3.637c1.347-6.336,4.123-12.476,8.133-17.179H18.242z"/>
		</g>
	</g>
	<g>
		<g>
			<path style="fill:#F8C409;" d="M56.814,15.514v18.381h18.505v22.918H56.814V75.28H33.895V56.814H15.227V33.895h18.669V15.514
				H56.814 M56.814,13.785H33.895c-0.955,0-1.728,0.774-1.728,1.728v16.653h-16.94c-0.955,0-1.728,0.774-1.728,1.728v22.918
				c0,0.955,0.774,1.728,1.728,1.728h16.94V75.28c0,0.955,0.774,1.728,1.728,1.728h22.918c0.955,0,1.728-0.774,1.728-1.728V58.542
				h16.777c0.955,0,1.728-0.774,1.728-1.728V33.895c0-0.955-0.774-1.728-1.728-1.728H58.542V15.514
				C58.542,14.559,57.768,13.785,56.814,13.785L56.814,13.785z"/>
		</g>
	</g>
</g>
</svg>
