<svg xmlns="http://www.w3.org/2000/svg" viewBox="0 0 90.709 90.709"><circle cx="45.354" cy="45.355" r="43.52" fill="#194093"/><path d="M45.354 2.835c23.483 0 42.52 19.037 42.52 42.52s-19.037 42.52-42.52 42.52-42.52-19.037-42.52-42.52 19.037-42.52 42.52-42.52m0-2C20.806.835.834 20.806.834 45.355s19.971 44.52 44.52 44.52 44.52-19.971 44.52-44.52S69.903.835 45.354.835h0z" fill="#252e78"/><path d="M53.944 36.765V18.242H36.765v12.796c.693-.401 1.407-.765 2.14-1.089l6.107-7.008-.663 6.484c4.104 1.445 5.478 5.606 8.394 9.495 1.526 2.036 3.255 4.203 4.356 5.88.257.922 2.201 6.853-4.384 6.294-1.664-.142-3.23-2.072-3.187-3.853-7.261-.839-6.639-1.702-8.234-3.759-2.291 7.214-.285 13.496 1.328 20.71l2.582 8.274h8.738V53.944h18.523V36.765H53.944zm-35.702 0v17.179h3.637c1.347-6.336 4.123-12.476 8.133-17.179h-11.77z" fill="#fff"/><path d="M56.814 15.514v18.381h18.505v22.918H56.814V75.28H33.895V56.814H15.227V33.895h18.669V15.514h22.918m0-1.729H33.895a1.73 1.73 0 0 0-1.728 1.728v16.653h-16.94a1.73 1.73 0 0 0-1.728 1.728v22.918a1.73 1.73 0 0 0 1.728 1.728h16.94v16.74a1.73 1.73 0 0 0 1.728 1.728h22.918a1.73 1.73 0 0 0 1.728-1.728V58.542h16.777a1.73 1.73 0 0 0 1.728-1.728V33.895a1.73 1.73 0 0 0-1.728-1.728H58.542V15.514a1.73 1.73 0 0 0-1.728-1.729h0z" fill="#f8c409"/></svg>