<svg xmlns="http://www.w3.org/2000/svg" viewBox="0 0 90.709 90.709"><path d="M45.354 88.874c-23.997 0-43.52-19.522-43.52-43.52s19.523-43.52 43.52-43.52 43.52 19.523 43.52 43.521-19.522 43.519-43.52 43.519z" fill="#194093"/><path d="M45.354 2.835c23.483 0 42.52 19.037 42.52 42.52s-19.037 42.52-42.52 42.52-42.52-19.037-42.52-42.52 19.037-42.52 42.52-42.52m0-2C20.806.835.834 20.806.834 45.355s19.971 44.52 44.52 44.52 44.52-19.971 44.52-44.52S69.903.835 45.354.835h0z" fill="#252e78"/><path d="M45.354 35.685c1.048 0 2.055.173 3 .482V16.066a29.74 29.74 0 0 0-6 0v20.101c.946-.309 1.953-.482 3-.482zm0 19.339c-1.048 0-2.054-.173-3-.482v20.101a29.74 29.74 0 0 0 6 0V54.541c-.945.31-1.952.483-3 .483zm-9.669-9.67c0-1.047.173-2.054.482-3H16.066c-.1.986-.152 1.987-.152 3s.052 2.014.152 3h20.102c-.31-.945-.483-1.952-.483-3zm19.339 0c0 1.048-.173 2.055-.482 3h20.102c.1-.987.152-1.988.152-3a29.74 29.74 0 0 0-.152-3H54.541c.31.946.483 1.953.483 3zm-18.283 4.371L22.535 63.931c1.267 1.554 2.689 2.975 4.242 4.242l14.206-14.205c-1.824-.93-3.313-2.418-4.242-4.243zm17.227-8.742l14.206-14.205c-1.267-1.554-2.689-2.975-4.242-4.242L49.726 36.741c1.824.93 3.312 2.418 4.242 4.242zm-12.985-4.242L26.778 22.536c-1.553 1.267-2.975 2.689-4.242 4.242l14.205 14.205a9.72 9.72 0 0 1 4.242-4.242zm8.743 17.227l14.206 14.205c1.553-1.267 2.975-2.689 4.242-4.242L53.968 49.725a9.73 9.73 0 0 1-4.242 4.243z" fill="#f8c409"/><g fill="#fff"><path d="M45.354 8.914c-20.125 0-36.44 16.315-36.44 36.44s16.315 36.44 36.44 36.44 36.44-16.315 36.44-36.44-16.314-36.44-36.44-36.44zm29.441 36.44c0 1.013-.052 2.014-.152 3-.597 5.871-2.929 11.235-6.469 15.576-1.267 1.553-2.689 2.975-4.242 4.242-4.341 3.541-9.706 5.873-15.577 6.47a29.74 29.74 0 0 1-6 0c-5.871-.597-11.236-2.929-15.577-6.47-1.553-1.267-2.975-2.689-4.242-4.242-3.541-4.341-5.873-9.705-6.469-15.576-.1-.987-.152-1.988-.152-3a29.74 29.74 0 0 1 .152-3c.597-5.871 2.929-11.235 6.47-15.577 1.267-1.553 2.689-2.975 4.242-4.242 4.341-3.541 9.706-5.873 15.577-6.47a29.74 29.74 0 0 1 6 0c5.871.597 11.235 2.929 15.577 6.47 1.553 1.267 2.975 2.689 4.242 4.242 3.541 4.341 5.873 9.706 6.47 15.577a30.36 30.36 0 0 1 .15 3z"/><circle transform="matrix(.3827 -.9239 .9239 .3827 -13.9039 69.8999)" cx="45.354" cy="45.354" r="5.669"/></g></svg>