<?xml version="1.0" encoding="iso-8859-1"?>
<!-- Generator: Adobe Illustrator 22.1.0, SVG Export Plug-In . SVG Version: 6.00 Build 0)  -->
<svg version="1.1" xmlns="http://www.w3.org/2000/svg" xmlns:xlink="http://www.w3.org/1999/xlink" x="0px" y="0px"
	 viewBox="0 0 90.709 90.709" style="enable-background:new 0 0 90.709 90.709;" xml:space="preserve">
<g id="ratownik-1">
	<g>
		<g>
			<path style="fill:#194093;" d="M45.354,88.874c-23.997,0-43.52-19.522-43.52-43.52S21.357,1.834,45.354,1.834
				s43.52,19.523,43.52,43.521S69.352,88.874,45.354,88.874z"/>
			<g>
				<path style="fill:#252E78;" d="M45.354,2.835c23.483,0,42.52,19.037,42.52,42.52s-19.037,42.52-42.52,42.52
					s-42.52-19.037-42.52-42.52S21.871,2.835,45.354,2.835 M45.354,0.835c-24.548,0-44.52,19.971-44.52,44.52
					s19.971,44.52,44.52,44.52s44.52-19.971,44.52-44.52S69.903,0.835,45.354,0.835L45.354,0.835z"/>
			</g>
		</g>
	</g>
</g>
<g id="elementy">
	<g>
		<path style="fill:#F8C409;" d="M45.354,35.685c1.048,0,2.055,0.173,3,0.482V16.066c-0.987-0.1-1.987-0.152-3-0.152
			c-1.013,0-2.013,0.052-3,0.152v20.101C43.3,35.858,44.307,35.685,45.354,35.685z"/>
		<path style="fill:#F8C409;" d="M45.354,55.024c-1.048,0-2.054-0.173-3-0.482v20.101c0.987,0.1,1.987,0.152,3,0.152
			c1.013,0,2.013-0.052,3-0.152V54.541C47.409,54.851,46.402,55.024,45.354,55.024z"/>
		<path style="fill:#F8C409;" d="M35.685,45.354c0-1.047,0.173-2.054,0.482-3H16.066c-0.1,0.986-0.152,1.987-0.152,3
			c0,1.013,0.052,2.014,0.152,3h20.102C35.858,47.409,35.685,46.402,35.685,45.354z"/>
		<path style="fill:#F8C409;" d="M55.024,45.354c0,1.048-0.173,2.055-0.482,3h20.102c0.1-0.987,0.152-1.988,0.152-3
			c0-1.013-0.052-2.013-0.152-3H54.541C54.851,43.3,55.024,44.307,55.024,45.354z"/>
		<path style="fill:#F8C409;" d="M36.741,49.725L22.535,63.931c1.267,1.554,2.689,2.975,4.242,4.242l14.206-14.205
			C39.159,53.038,37.67,51.55,36.741,49.725z"/>
		<path style="fill:#F8C409;" d="M53.968,40.983l14.206-14.205c-1.267-1.554-2.689-2.975-4.242-4.242L49.726,36.741
			C51.55,37.671,53.038,39.159,53.968,40.983z"/>
		<path style="fill:#F8C409;" d="M40.983,36.741L26.778,22.536c-1.553,1.267-2.975,2.689-4.242,4.242l14.205,14.205
			C37.671,39.159,39.159,37.67,40.983,36.741z"/>
		<path style="fill:#F8C409;" d="M49.726,53.968l14.206,14.205c1.553-1.267,2.975-2.689,4.242-4.242L53.968,49.725
			C53.038,51.549,51.55,53.038,49.726,53.968z"/>
		<path style="fill:#FFFFFF;" d="M45.354,8.914c-20.125,0-36.44,16.315-36.44,36.44s16.315,36.44,36.44,36.44
			s36.44-16.315,36.44-36.44S65.48,8.914,45.354,8.914z M74.795,45.354c0,1.013-0.052,2.014-0.152,3
			c-0.597,5.871-2.929,11.235-6.469,15.576c-1.267,1.553-2.689,2.975-4.242,4.242c-4.341,3.541-9.706,5.873-15.577,6.47
			c-0.987,0.1-1.987,0.152-3,0.152c-1.013,0-2.013-0.052-3-0.152c-5.871-0.597-11.236-2.929-15.577-6.47
			c-1.553-1.267-2.975-2.689-4.242-4.242c-3.541-4.341-5.873-9.705-6.469-15.576c-0.1-0.987-0.152-1.988-0.152-3
			c0-1.013,0.052-2.013,0.152-3c0.597-5.871,2.929-11.235,6.47-15.577c1.267-1.553,2.689-2.975,4.242-4.242
			c4.341-3.541,9.706-5.873,15.577-6.47c0.987-0.1,1.987-0.152,3-0.152c1.013,0,2.013,0.052,3,0.152
			c5.871,0.597,11.235,2.929,15.577,6.47c1.553,1.267,2.975,2.689,4.242,4.242c3.541,4.341,5.873,9.706,6.47,15.577
			C74.743,43.341,74.795,44.342,74.795,45.354z"/>
		
			<ellipse transform="matrix(0.3827 -0.9239 0.9239 0.3827 -13.9039 69.8999)" style="fill:#FFFFFF;" cx="45.354" cy="45.354" rx="5.669" ry="5.669"/>
	</g>
</g>
</svg>
