<?xml version="1.0" encoding="iso-8859-1"?>
<!-- Generator: Adobe Illustrator 22.1.0, SVG Export Plug-In . SVG Version: 6.00 Build 0)  -->
<svg version="1.1" xmlns="http://www.w3.org/2000/svg" xmlns:xlink="http://www.w3.org/1999/xlink" x="0px" y="0px"
	 viewBox="0 0 90.709 90.709" style="enable-background:new 0 0 90.709 90.709;" xml:space="preserve">
<g id="ratownik-1">
	<g>
		<g>
			<circle style="fill:#194093;" cx="45.354" cy="45.355" r="43.52"/>
			<g>
				<path style="fill:#252E78;" d="M45.354,2.835c23.483,0,42.52,19.037,42.52,42.52s-19.037,42.52-42.52,42.52
					s-42.52-19.037-42.52-42.52S21.871,2.835,45.354,2.835 M45.354,0.835c-24.548,0-44.52,19.971-44.52,44.52
					s19.971,44.52,44.52,44.52s44.52-19.971,44.52-44.52S69.903,0.835,45.354,0.835L45.354,0.835z"/>
			</g>
		</g>
	</g>
</g>
<g id="elementy">
	<g>
		<path style="fill:#FFFFFF;" d="M71.105,27.247l-8.426-9.669l0.915,8.947c-5.663,1.994-7.558,7.735-11.582,13.101
			c-0.793,1.057-2.211,3.339-2.123,3.41c2.025,1.632,1.432,3.839,1.022,5.295c-0.618,2.193-2.223,4.669-3.56,5.774
			c-0.163,0.444-0.343,0.886-0.528,1.326c1.086,0.77,2.747,1.202,5.229,0.992c2.296-0.195,4.457-2.859,4.397-5.317
			c10.018-1.157,9.161-2.348,11.36-5.186c3.161,9.953,0.394,18.621-1.832,28.574l-2.104,4.35c11.776-6.525,19.75-19.074,19.75-33.49
			c0-3.419-0.455-6.731-1.296-9.885C79.101,31.968,75.349,29.122,71.105,27.247z M60.319,39.711c-1.565,0-2.835-1.269-2.835-2.835
			s1.269-2.835,2.835-2.835c1.566,0,2.835,1.269,2.835,2.835S61.885,39.711,60.319,39.711z"/>
		<path style="fill:#FFFFFF;" d="M15.212,42.655c0.34,0.202,0.872,0.549,0.872,0.549s-0.499,2.363-1.022,4.971
			c0.808-0.388,1.682-0.616,2.572-0.616c0,0,0,0,0,0c1.483,0,2.892,0.562,3.965,1.554c-0.157-1.488-0.245-3.109-0.133-3.957
			c1.177,0.515,2.309,0.696,3.127,0.812c0.044,0.006,0.087,0.009,0.132,0.009c1.692,0,3.751-4.468,3.619-6.234
			c-0.083-1.11-1.525-7.928-2.877-9.585c-0.906-1.111-3.58-2.44-6.441-2.44c-2.066,0-4.229,0.692-5.896,2.659
			C9.347,34.844,11.881,40.676,15.212,42.655z"/>
		<path style="fill:#F8C409;" d="M28.058,68.891c0,0-14.961-11.165-15.036-11.242c-0.01,2.477,0.108,5.242,0.188,8.458
			c3.461,5.349,8.212,9.784,13.823,12.85C27.392,75.991,28.058,68.891,28.058,68.891z"/>
		<path style="fill:#FFFFFF;" d="M45.675,52.846c0.791-0.393,2.593-2.7,3.085-4.198c0.608-1.853,1.081-3.081-0.127-4.055
			c-0.48-0.387-1.151-0.609-1.888-0.609c-1.119,0-2.392,0.513-3.383,1.742c-0.91,1.129-1.19,4.09-1.263,5.149
			c-1.235,2.603-8.374,10.623-8.374,10.623L29.59,67.15c2.226,1.641,4.041,2.891,4.423,2.891c0.025,0,0.043-0.005,0.055-0.016
			C35.852,68.506,42.909,60.942,45.675,52.846z"/>
		<path style="fill:#F8C409;" d="M14.458,56.259l13.346,9.944l4.803-6.564l-12.044-8.731c-0.743-0.872-1.817-1.349-2.929-1.349
			c-0.895,0-1.813,0.309-2.601,0.971C13.164,52.101,12.979,54.697,14.458,56.259z"/>
	</g>
	
		<line style="fill:none;stroke:#194093;stroke-width:2;stroke-linecap:round;stroke-linejoin:round;stroke-miterlimit:10;" x1="28.376" y1="67.275" x2="34.084" y2="59.483"/>
</g>
</svg>
