<svg xmlns="http://www.w3.org/2000/svg" viewBox="0 0 90.709 90.709"><circle cx="45.354" cy="45.355" r="43.52" fill="#194093"/><path d="M45.354 2.835c23.483 0 42.52 19.037 42.52 42.52s-19.037 42.52-42.52 42.52-42.52-19.037-42.52-42.52 19.037-42.52 42.52-42.52m0-2C20.806.835.834 20.806.834 45.355s19.971 44.52 44.52 44.52 44.52-19.971 44.52-44.52S69.903.835 45.354.835h0z" fill="#252e78"/><path d="M71.105 27.247l-8.426-9.669.915 8.947c-5.663 1.994-7.558 7.735-11.582 13.101-.793 1.057-2.211 3.339-2.123 3.41 2.025 1.632 1.432 3.839 1.022 5.295-.618 2.193-2.223 4.669-3.56 5.774-.163.444-.343.886-.528 1.326 1.086.77 2.747 1.202 5.229.992 2.296-.195 4.457-2.859 4.397-5.317 10.018-1.157 9.161-2.348 11.36-5.186 3.161 9.953.394 18.621-1.832 28.574l-2.104 4.35c11.776-6.525 19.75-19.074 19.75-33.49 0-3.419-.455-6.731-1.296-9.885-3.226-3.501-6.978-6.347-11.222-8.222zM60.319 39.711c-1.565 0-2.835-1.269-2.835-2.835s1.269-2.835 2.835-2.835 2.835 1.269 2.835 2.835-1.269 2.835-2.835 2.835zm-45.107 2.944l.872.549-1.022 4.971c.808-.388 1.682-.616 2.572-.616 1.483 0 2.892.562 3.965 1.554-.157-1.488-.245-3.109-.133-3.957 1.177.515 2.309.696 3.127.812.044.006.087.009.132.009 1.692 0 3.751-4.468 3.619-6.234-.083-1.11-1.525-7.928-2.877-9.585-.906-1.111-3.58-2.44-6.441-2.44-2.066 0-4.229.692-5.896 2.659-3.783 4.467-1.249 10.299 2.082 12.278z" fill="#fff"/><path d="M28.058 68.891L13.022 57.649l.188 8.458a38.45 38.45 0 0 0 13.823 12.85c.359-2.966 1.025-10.066 1.025-10.066z" fill="#f8c409"/><path d="M45.675 52.846c.791-.393 2.593-2.7 3.085-4.198.608-1.853 1.081-3.081-.127-4.055-.48-.387-1.151-.609-1.888-.609-1.119 0-2.392.513-3.383 1.742-.91 1.129-1.19 4.09-1.263 5.149-1.235 2.603-8.374 10.623-8.374 10.623L29.59 67.15c2.226 1.641 4.041 2.891 4.423 2.891.025 0 .043-.005.055-.016 1.784-1.519 8.841-9.083 11.607-17.179z" fill="#fff"/><path d="M14.458 56.259l13.346 9.944 4.803-6.564-12.044-8.731a3.84 3.84 0 0 0-2.929-1.349c-.895 0-1.813.309-2.601.971-1.869 1.571-2.054 4.167-.575 5.729z" fill="#f8c409"/><path d="M28.376 67.275l5.708-7.792" fill="none" stroke="#194093" stroke-width="2" stroke-linecap="round" stroke-linejoin="round" stroke-miterlimit="10"/></svg>