<svg xmlns="http://www.w3.org/2000/svg" viewBox="0 0 90.709 90.709"><circle cx="45.354" cy="45.355" r="43.52" fill="#194093"/><path d="M45.354 2.835c23.483 0 42.52 19.037 42.52 42.52s-19.037 42.52-42.52 42.52-42.52-19.037-42.52-42.52 19.037-42.52 42.52-42.52m0-2C20.806.835.834 20.806.834 45.355s19.971 44.52 44.52 44.52 44.52-19.971 44.52-44.52S69.903.835 45.354.835h0z" fill="#252e78"/><path d="M15.863 59.944c.94-4.347 3.646-10.088 6.262-15.64 2.052-4.355 3.99-8.468 4.652-11.068.564-2.17-.445-3.592-.94-3.978-.013.002-.026.003-.039.005-4.25 2.375-1.061 7.791-5.25 11.338-5.063 4.287-8.721 8.698-9.563 12.587-1.504 6.951.73 12.114 5.133 14.737-.757-2.496-.857-5.194-.255-7.981zm43.669-22.336l-.128.167c-.6.774-1.146 1.481-1.611 2.654 10.354 1.122 15.926-3.626 16.182-14.553 0-.017-.009-.024-.01-.04-1.223 7.735-6.325 10.639-14.433 11.772zM31.014 57.939V61.2h9.448v-3.261a4.73 4.73 0 0 0-4.725-4.725 4.73 4.73 0 0 0-4.723 4.725zm8.807-15.655c-.679.4-1.393.218-2.084-.078v7.249c3.848.908 6.725 4.363 6.725 8.484V63.2a2 2 0 0 1-2 2H29.014a2 2 0 0 1-2-2v-5.261c0-4.121 2.876-7.576 6.724-8.484v-7.911c-.558.1-1.053.192-1.5.074-3.273-.862-4.022-3.762-4.165-5.869-2.392 6.636-8.782 17.812-10.254 24.619-1.954 9.032 4.599 15.417 11.836 16.75 2.136.393 5.622 1.22 9.304 1.22 7.235 0 15.227-3.189 15.227-19.115 0-15.066 1.019-18.82 2.636-21.302-4.777.368-5.844-2.21-17.001 4.363z" fill="#f8c409"/><path d="M33.737 49.455c-3.848.908-6.724 4.363-6.724 8.484V63.2a2 2 0 0 0 2 2h13.448a2 2 0 0 0 2-2v-5.261c0-4.121-2.876-7.577-6.725-8.484-.643-.152-1.311-.24-2-.24s-1.355.088-1.999.24zm6.725 8.484V61.2h-9.448v-3.261a4.73 4.73 0 0 1 4.724-4.725 4.73 4.73 0 0 1 4.724 4.725zm-12.391-24.21c-.014.397-.058 1.141.002 2.019.143 2.108.892 5.007 4.165 5.869.447.118.942.026 1.5-.074.63-.113 1.341-.239 2.167-.093.557.098 1.184.477 1.833.755.691.296 1.405.478 2.084.078 11.157-6.573 12.224-3.994 17-4.364l.204-.016c.869-.081 1.697-.183 2.507-.296 8.108-1.133 13.21-4.037 14.433-11.772a23.84 23.84 0 0 0 .292-3.202c.072-3.054-2.873-5.586-6.186-3.85-4.406 2.308-10.746 13.049-20.583 13.667-3.359.211-7.386-1.544-11.057-3.189l-1.985-.883c-3.524-1.542-6.493-2.577-7.879-1.015-.374.422-.638 1.024-.76 1.867-.002.012-.005.021-.006.032.013-.002.026-.003.039-.005 1.294-.181 2.395-.135 2.23 4.472z" fill="#fff"/></svg>