<?xml version="1.0" encoding="iso-8859-1"?>
<!-- Generator: Adobe Illustrator 22.1.0, SVG Export Plug-In . SVG Version: 6.00 Build 0)  -->
<svg version="1.1" xmlns="http://www.w3.org/2000/svg" xmlns:xlink="http://www.w3.org/1999/xlink" x="0px" y="0px"
	 viewBox="0 0 90.709 90.709" style="enable-background:new 0 0 90.709 90.709;" xml:space="preserve">
<g id="ratownik-1">
	<g>
		<g>
			<circle style="fill:#194093;" cx="45.354" cy="45.355" r="43.52"/>
			<g>
				<path style="fill:#252E78;" d="M45.354,2.835c23.483,0,42.52,19.037,42.52,42.52s-19.037,42.52-42.52,42.52
					s-42.52-19.037-42.52-42.52S21.871,2.835,45.354,2.835 M45.354,0.835c-24.548,0-44.52,19.971-44.52,44.52
					s19.971,44.52,44.52,44.52s44.52-19.971,44.52-44.52S69.903,0.835,45.354,0.835L45.354,0.835z"/>
			</g>
		</g>
	</g>
</g>
<g id="elementy">
	<g>
		<path style="fill:#F8C409;" d="M15.863,59.944c0.94-4.347,3.646-10.088,6.262-15.64c2.052-4.355,3.99-8.468,4.652-11.068
			c0.001-0.002,0.002-0.005,0.002-0.007c0-0.001,0-0.003,0-0.004c0.562-2.159-0.447-3.581-0.942-3.967
			c-0.013,0.002-0.026,0.003-0.039,0.005c-4.25,2.375-1.061,7.791-5.25,11.338c-5.063,4.287-8.721,8.698-9.563,12.587
			c-1.504,6.951,0.73,12.114,5.133,14.737C15.361,65.429,15.261,62.731,15.863,59.944z"/>
		<path style="fill:#F8C409;" d="M59.532,37.608c-0.042,0.055-0.086,0.113-0.128,0.167c-0.6,0.774-1.146,1.481-1.611,2.654
			c10.354,1.122,15.926-3.626,16.182-14.553c0-0.017-0.009-0.024-0.01-0.04C72.742,33.571,67.64,36.475,59.532,37.608z"/>
		<path style="fill:#F8C409;" d="M31.014,57.939v3.261h9.448v-3.261c0-2.605-2.119-4.725-4.725-4.725
			C33.133,53.214,31.014,55.333,31.014,57.939z"/>
		<path style="fill:#F8C409;" d="M39.821,42.284c-0.679,0.4-1.393,0.218-2.084-0.078v7.249c3.848,0.908,6.725,4.363,6.725,8.484
			v5.261c0,1.104-0.896,2-2,2H29.014c-1.104,0-2-0.896-2-2v-5.261c0-4.121,2.876-7.576,6.724-8.484v-7.911
			c-0.558,0.1-1.053,0.192-1.5,0.074c-3.273-0.862-4.022-3.762-4.165-5.869c-2.392,6.636-8.782,17.812-10.254,24.619
			c-1.954,9.032,4.599,15.417,11.836,16.75c2.136,0.393,5.622,1.22,9.304,1.22c7.235,0,15.227-3.189,15.227-19.115
			c0-15.066,1.019-18.82,2.636-21.302C52.045,38.289,50.978,35.711,39.821,42.284z"/>
		<path style="fill:#FFFFFF;" d="M33.737,49.455c-3.848,0.908-6.724,4.363-6.724,8.484v5.261c0,1.104,0.896,2,2,2h13.448
			c1.104,0,2-0.896,2-2v-5.261c0-4.121-2.876-7.577-6.725-8.484c-0.643-0.152-1.311-0.24-2-0.24
			C35.048,49.214,34.381,49.303,33.737,49.455z M40.462,57.939v3.261h-9.448v-3.261c0-2.605,2.119-4.725,4.724-4.725
			C38.343,53.214,40.462,55.333,40.462,57.939z"/>
		<path style="fill:#FFFFFF;" d="M28.071,33.729c-0.014,0.397-0.058,1.141,0.002,2.019c0.143,2.108,0.892,5.007,4.165,5.869
			c0.447,0.118,0.942,0.026,1.5-0.074c0.63-0.113,1.341-0.239,2.167-0.093c0.557,0.098,1.184,0.477,1.833,0.755
			c0.691,0.296,1.405,0.478,2.084,0.078c11.157-6.573,12.224-3.994,17-4.364c0.068-0.005,0.134-0.009,0.204-0.016
			c0.869-0.081,1.697-0.183,2.507-0.296c8.108-1.133,13.21-4.037,14.433-11.772c0.157-0.992,0.265-2.044,0.292-3.202
			c0.072-3.054-2.873-5.586-6.186-3.85c-4.406,2.308-10.746,13.049-20.583,13.667c-3.359,0.211-7.386-1.544-11.057-3.189
			c-0.677-0.303-1.339-0.6-1.985-0.883c-3.524-1.542-6.493-2.577-7.879-1.015c-0.374,0.422-0.638,1.024-0.76,1.867
			c-0.002,0.012-0.005,0.021-0.006,0.032c0.013-0.002,0.026-0.003,0.039-0.005C27.135,29.076,28.236,29.122,28.071,33.729z"/>
	</g>
</g>
</svg>
