<?xml version="1.0" encoding="iso-8859-1"?>
<!-- Generator: Adobe Illustrator 22.1.0, SVG Export Plug-In . SVG Version: 6.00 Build 0)  -->
<svg version="1.1" xmlns="http://www.w3.org/2000/svg" xmlns:xlink="http://www.w3.org/1999/xlink" x="0px" y="0px"
	 viewBox="0 0 90.709 90.709" style="enable-background:new 0 0 90.709 90.709;" xml:space="preserve">
<g id="ratownik-1">
	<g>
		<g>
			<circle style="fill:#194093;" cx="45.354" cy="45.354" r="43.52"/>
			<g>
				<path style="fill:#252E78;" d="M45.354,2.835c23.483,0,42.52,19.037,42.52,42.52s-19.037,42.52-42.52,42.52
					s-42.52-19.037-42.52-42.52S21.871,2.835,45.354,2.835 M45.354,0.835c-24.548,0-44.52,19.971-44.52,44.52
					s19.971,44.52,44.52,44.52s44.52-19.971,44.52-44.52S69.903,0.835,45.354,0.835L45.354,0.835z"/>
			</g>
		</g>
	</g>
</g>
<g id="elementy">
	<g>
		<path style="fill:none;" d="M24.579,26.534c-0.171-0.052,0.048,0.88-1.097,1.987l3.201-0.772
			C26.115,27.207,25.432,26.792,24.579,26.534z"/>
		<path style="fill:#FFFFFF;" d="M13.735,31.155c-0.097,1.331,0.619,4.345,4.318,2.678c0.555-0.25,0.523-1.049,0.547-1.793
			l-4.788-0.854C13.784,31.18,13.762,31.162,13.735,31.155z"/>
		<path style="fill:#FFFFFF;" d="M20.685,29.194l2.797-0.674c1.146-1.107,0.926-2.038,1.097-1.987
			c0.853,0.259,1.536,0.673,2.103,1.215l2.145-0.517c0.07-0.368,0.193-0.73,0.39-1.063c0.478-0.808,1.265-1.378,2.217-1.605
			c0.264-0.063,2.613-0.488,4.849-0.89c-3.322-3.126-7.465-5.385-11.715-6.26c-0.01,0.053-0.002,0.106-0.019,0.159L20.685,29.194z"
			/>
		<path style="fill:#FFFFFF;" d="M22.191,17.057c-0.012-0.001-0.023-0.003-0.035-0.004l0.975-2.922l-4.606,3.822
			c-0.212,0.171-0.385,0.361-0.56,0.55l3.365,1.146L22.191,17.057z"/>
		<path style="fill:#FFFFFF;" d="M20.573,21.925L16.9,20.674c-0.073-0.025-0.126-0.075-0.191-0.111
			c-0.611,1.594-0.829,3.474-1.441,5.422c-0.298,0.949-0.607,1.937-0.892,2.863l3.677,0.656L20.573,21.925z"/>
		<path style="fill:#FFFFFF;" d="M79.132,61.761c0.015-0.002,0.025-0.005,0.025-0.005S79.149,61.758,79.132,61.761z"/>
		<path style="fill:#FFFFFF;" d="M77.487,58.83c-0.167-2.068,3.304-6.767,1.435-10.977c-1.869-4.211-7.801-6.369-10.577-6.216
			c-1.432,0.079-2.482,0.448-3.17,0.788c-0.566-0.868-1.287-1.713-2.186-2.489c-2.811-2.426-6.559-3.531-9.358-4.46
			c-0.23,0.446-1.101,2.102-2.202,3.849c-0.014,0.966-0.05,1.872-0.131,2.38c-0.169,1.06-0.547,2.509-0.563,2.571
			c-0.231,0.882-1.027,1.494-1.934,1.494c-0.019,0-0.039,0-0.058-0.001L42.853,45.6c-0.889-0.04-1.66-0.483-2.148-1.159
			c-0.135,0.205-0.272,0.402-0.41,0.58c-0.942,1.214-1.806,1.992-2.326,2.408c0.418,0.175,0.837,0.338,1.255,0.471
			c5.111,1.634,10.521,1.501,12.73,1.634c1.956,0.118,2.689,5.284,4.8,5.615l9.925,4.822c0,0,1.505,8.722,1.725,9.242
			c0.264,0.623,0.563,1.043,0.923,1.35c0.891,0.76,2.938,1.408,3.031,1.357c0.105-1.304,0.191-2.693,0.371-3.989
			c-0.704-0.225-1.908-0.33-1.908-0.33c0,0-0.001,0-0.001,0.001l-0.012-10.699c0,0-6.907-2.346-6.152-4.52
			c0.755-2.174,2.315-3.812,1.888-7.288c-0.026-0.208-0.083-0.371-0.166-0.499c0.763-0.214,2.051-0.449,3.25-0.049
			c1.845,0.615,2.747,4.231,2.582,5.441c-1.776,13.041,6.408,11.858,6.923,11.771C78.949,61.79,77.733,61.869,77.487,58.83z"/>
		<path style="fill:#FFFFFF;" d="M37.058,43.279c0.473-0.643,1.315-2.146,1.961-3.338c-0.168-0.138-0.323-0.259-0.5-0.407
			c-3.307-2.78-2.809-5.115-1.305-7.34c0.412-0.61,0.887-1.367,1.36-2.145c-1.346,0.137-2.864,0.285-3.887,0.366
			c-0.901,0.651-1.737,0.98-2.49,0.98c-0.197,0-0.392-0.022-0.579-0.065c-0.969-0.225-1.813-0.872-2.335-1.741l-1.201,0.29
			c0.015,0.035,0.028,0.072,0.043,0.107c-0.289,1.203-0.512,2.238-0.717,3.639c-0.166,1.135-0.166,2.084-0.1,2.885
			c-2.448,0.498-4.663,0.948-4.663,0.948c-2.299,0.467-3.079,3.357-1.327,4.917c2.723,2.423,5.766,5.135,5.867,5.237
			c0.767,0.786,0.275,0.614,1.448,1.69c0.677,0.621,2.188,0.533,2.188,0.533l-0.051-3.903l-1.842-0.641
			c-0.019-0.462-0.175-1.032-0.778-1.433c-0.647-0.43-2.042-1.951-2.656-2.635l4.101,0.132c1.366,1.519,3.186,3.097,5.182,4.38
			C35.354,45.183,36.454,44.1,37.058,43.279z"/>
		<path style="fill:#F8C409;" d="M51.431,39.325c1.1-1.747,2.264-3.971,2.264-3.971s-0.97-0.373-2.385-1.099
			C51.352,34.66,51.457,37.506,51.431,39.325z"/>
		<path style="fill:#F8C409;" d="M40.295,45.022c0.138-0.178,0.275-0.375,0.41-0.58c-0.251-0.348-0.432-0.753-0.505-1.205
			c-0.216-1.331,0.512-2.598,1.77-3.082l1.936-0.745c-0.105-0.858-0.474-5.952-0.62-7.391c-0.117-1.156,0.027-2.287,0.525-3.283
			c-0.096-0.096-0.188-0.189-0.281-0.283c-0.339,0.304-0.671,0.595-0.981,0.849c-0.301,0.247-0.667,0.4-1.054,0.442
			c-0.11,0.012-1.406,0.151-2.921,0.305c-0.473,0.777-0.948,1.535-1.36,2.145c-1.504,2.225-2.002,4.56,1.305,7.34
			c0.177,0.149,0.332,0.27,0.5,0.407c-0.646,1.192-1.487,2.695-1.961,3.338c-0.604,0.821-2.661,2.812-2.661,2.812l3.064,1.713
			C37.46,47.804,39.353,46.236,40.295,45.022z"/>
		<path style="fill:#FFFFFF;" d="M44.708,17.903c-0.328-0.106-0.533-0.172-0.5-0.191c0.444-0.258,0.855-0.676,1.163-1.188
			c-0.192-0.24-0.363-0.516-1.207-1.082c-0.717-0.481-1.474-0.899-2.174-1.089c-0.807-0.219-1.829-0.502-2.59-0.764
			c-0.374,1.099-0.68,2.525-0.707,2.843c-0.065,0.762,0.83,2.732,1.553,2.636c0.345-0.046,0.822-0.117,1.32-0.329
			c0.399,0.16,0.89,0.364,1.382,0.574c0.256-0.251,0.496-0.488,0.691-0.682C43.953,18.317,44.317,18.076,44.708,17.903z"/>
		<path style="fill:#F8C409;" d="M45.401,16.561c0.071-0.042,0.435-0.492,0.681-0.88c1.172-1.842,0.178-5.421-3.357-5.646
			c-2.516-0.16-3.312,1.541-3.515,2.456c-0.043,0.196-0.86,0.296-0.869,0.547c-0.005,0.138,0.443,0.337,1.058,0.549
			C40.16,13.851,45.391,16.549,45.401,16.561z"/>
		<path style="fill:#F8C409;" d="M48.394,23.712c-0.217,0.213-1.204,1.208-1.402,1.407l2.726,1.343l-2.826,1.746
			c-1.195,0.738-1.841,2.118-1.628,3.506c0.238,1.553,0.831,8.995,0.831,8.995l-3.406,1.311c-0.827,0.318-0.629,1.541,0.257,1.581
			l5.858,0.168c0,0,0.367-1.404,0.523-2.38c0.156-0.976,0.119-4.516,0.076-5.89c-0.039-1.248-0.367-3.122-0.367-3.122
			c1.19-0.347,3.57-1.49,4.394-1.812c1.752-0.686,3.215-0.739,4.3-3.057c0.505-1.079,0.048-2.355-0.739-3.369
			c0.184-0.291,0.364-0.603,0.537-0.949c-0.849-1.029-2.279-1.969-3.862-2.779c-2.034-1.04-4.321-1.862-5.964-2.37
			c0.352,0.195,0.679,0.438,0.947,0.753C49.859,20.219,49.748,22.378,48.394,23.712z"/>
		<path style="fill:#F8C409;" d="M31.46,29.062c0.181,0.144,0.692,0.332,0.737,0.332c0.488,0,1.224-0.523,1.58-0.802l7.503-0.837
			c1.877-1.54,4.635-4.409,5.71-5.467c0.603-0.594,0.663-1.574,0.134-2.195c-0.275-0.323-0.654-0.485-1.041-0.485
			c-0.366,0-0.739,0.146-1.035,0.441c-1.283,1.277-4.377,4.281-5.252,5.028l-7.782,1.386l-11.33,2.732
			c0,0,3.872-11.728,3.882-11.781c0.109-0.58-0.203-1.167-0.779-1.358c-0.634-0.212-1.31,0.132-1.518,0.76l-0.941,2.832
			l-3.656-1.245c-0.628-0.218-1.31,0.122-1.522,0.749c-0.189,0.555,0.066,1.133,0.558,1.411c0.064,0.036,3.864,1.362,3.864,1.362
			l-2.519,7.58l-3.82-0.681c-0.663-0.118-1.276,0.318-1.393,0.97c-0.111,0.624,0.288,1.209,0.893,1.362
			c0.028,0.007,4.865,0.885,4.865,0.885L31.46,29.062z"/>
	</g>
</g>
</svg>
