<svg xmlns="http://www.w3.org/2000/svg" viewBox="0 0 90.709 90.709"><circle cx="45.354" cy="45.354" r="43.52" fill="#194093"/><path d="M45.354 2.835c23.483 0 42.52 19.037 42.52 42.52s-19.037 42.52-42.52 42.52-42.52-19.037-42.52-42.52 19.037-42.52 42.52-42.52m0-2C20.806.835.834 20.806.834 45.355s19.971 44.52 44.52 44.52 44.52-19.971 44.52-44.52S69.903.835 45.354.835h0z" fill="#252e78"/><g fill="#fff"><path d="M13.735 31.155c-.097 1.331.619 4.345 4.318 2.678.555-.25.523-1.049.547-1.793l-4.788-.854c-.028-.006-.05-.024-.077-.031zm6.95-1.961l2.797-.674c1.146-1.107.926-2.038 1.097-1.987.853.259 1.536.673 2.103 1.215l2.145-.517a3.28 3.28 0 0 1 .39-1.063c.478-.808 1.265-1.378 2.217-1.605.264-.063 2.613-.488 4.849-.89-3.322-3.126-7.465-5.385-11.715-6.26-.01.053-.002.106-.019.159l-3.864 11.622zm1.506-12.137l-.035-.004.975-2.922-4.606 3.822c-.212.171-.385.361-.56.55l3.365 1.146.861-2.592zm-1.618 4.868L16.9 20.674c-.073-.025-.126-.075-.191-.111-.611 1.594-.829 3.474-1.441 5.422l-.892 2.863 3.677.656 2.52-7.579zm58.559 39.836c.015-.002.025-.005.025-.005l-.025.005z"/><path d="M77.487 58.83c-.167-2.068 3.304-6.767 1.435-10.977s-7.801-6.369-10.577-6.216c-1.432.079-2.482.448-3.17.788a11.81 11.81 0 0 0-2.186-2.489c-2.811-2.426-6.559-3.531-9.358-4.46-.23.446-1.101 2.102-2.202 3.849-.014.966-.05 1.872-.131 2.38-.169 1.06-.547 2.509-.563 2.571a2 2 0 0 1-1.934 1.494c-.019 0-.039 0-.058-.001l-5.89-.169c-.889-.04-1.66-.483-2.148-1.159-.135.205-.272.402-.41.58-.942 1.214-1.806 1.992-2.326 2.408a15.24 15.24 0 0 0 1.255.471c5.111 1.634 10.521 1.501 12.73 1.634 1.956.118 2.689 5.284 4.8 5.615l9.925 4.822 1.725 9.242c.264.623.563 1.043.923 1.35.891.76 2.938 1.408 3.031 1.357.105-1.304.191-2.693.371-3.989-.704-.225-1.908-.33-1.908-.33l-.013-10.698s-6.907-2.346-6.152-4.52 2.315-3.812 1.888-7.288c-.026-.208-.083-.371-.166-.499.763-.214 2.051-.449 3.25-.049 1.845.615 2.747 4.231 2.582 5.441-1.776 13.041 6.408 11.858 6.923 11.771-.184.031-1.4.11-1.646-2.929zM37.058 43.279c.473-.643 1.315-2.146 1.961-3.338l-.5-.407c-3.307-2.78-2.809-5.115-1.305-7.34l1.36-2.145-3.887.366c-.901.651-1.737.98-2.49.98a2.59 2.59 0 0 1-.579-.065c-.969-.225-1.813-.872-2.335-1.741l-1.201.29.043.107-.717 3.639c-.166 1.135-.166 2.084-.1 2.885l-4.663.948c-2.299.467-3.079 3.357-1.327 4.917l5.867 5.237c.767.786.275.614 1.448 1.69.677.621 2.188.533 2.188.533l-.051-3.903-1.842-.641c-.019-.462-.175-1.032-.778-1.433-.647-.43-2.042-1.951-2.656-2.635l4.101.132c1.366 1.519 3.186 3.097 5.182 4.38.577-.552 1.677-1.635 2.281-2.456z"/></g><path d="M51.431 39.325l2.264-3.971s-.97-.373-2.385-1.099c.042.405.147 3.251.121 5.07zm-11.136 5.697l.41-.58a2.82 2.82 0 0 1-.505-1.205c-.216-1.331.512-2.598 1.77-3.082l1.936-.745-.62-7.391c-.117-1.156.027-2.287.525-3.283l-.281-.283-.981.849a2 2 0 0 1-1.054.442l-2.921.305-1.36 2.145c-1.504 2.225-2.002 4.56 1.305 7.34l.5.407-1.961 3.338c-.604.821-2.661 2.812-2.661 2.812l3.064 1.713c-.001 0 1.892-1.568 2.834-2.782z" fill="#f8c409"/><path d="M44.708 17.903c-.328-.106-.533-.172-.5-.191.444-.258.855-.676 1.163-1.188-.192-.24-.363-.516-1.207-1.082-.717-.481-1.474-.899-2.174-1.089l-2.59-.764c-.374 1.099-.68 2.525-.707 2.843-.065.762.83 2.732 1.553 2.636.345-.046.822-.117 1.32-.329l1.382.574.691-.682c.314-.314.678-.555 1.069-.728z" fill="#fff"/><path d="M45.401 16.561c.071-.042.435-.492.681-.88 1.172-1.842.178-5.421-3.357-5.646-2.516-.16-3.312 1.541-3.515 2.456-.043.196-.86.296-.869.547-.005.138.443.337 1.058.549.761.264 5.992 2.962 6.002 2.974zm2.993 7.151l-1.402 1.407 2.726 1.343-2.826 1.746c-1.195.738-1.841 2.118-1.628 3.506.238 1.553.831 8.995.831 8.995l-3.406 1.311c-.827.318-.629 1.541.257 1.581l5.858.168.523-2.38c.156-.976.119-4.516.076-5.89-.039-1.248-.367-3.122-.367-3.122 1.19-.347 3.57-1.49 4.394-1.812 1.752-.686 3.215-.739 4.3-3.057.505-1.079.048-2.355-.739-3.369l.537-.949c-.849-1.029-2.279-1.969-3.862-2.779-2.034-1.04-4.321-1.862-5.964-2.37.352.195.679.438.947.753 1.21 1.425 1.099 3.584-.255 4.918zm-16.934 5.35c.181.144.692.332.737.332.488 0 1.224-.523 1.58-.802l7.503-.837c1.877-1.54 4.635-4.409 5.71-5.467.603-.594.663-1.574.134-2.195-.275-.323-.654-.485-1.041-.485-.366 0-.739.146-1.035.441l-5.252 5.028-7.782 1.386-11.33 2.732 3.882-11.781c.109-.58-.203-1.167-.779-1.358-.634-.212-1.31.132-1.518.76l-.941 2.832-3.656-1.245c-.628-.218-1.31.122-1.522.749-.189.555.066 1.133.558 1.411.064.036 3.864 1.362 3.864 1.362l-2.519 7.58-3.82-.681c-.663-.118-1.276.318-1.393.97-.111.624.288 1.209.893 1.362.028.007 4.865.885 4.865.885l12.862-2.979z" fill="#f8c409"/></svg>