<svg xmlns="http://www.w3.org/2000/svg" viewBox="0 0 90.709 90.709"><path d="M45.354 88.874c-23.997 0-43.52-19.522-43.52-43.52s19.523-43.52 43.52-43.52 43.521 19.523 43.521 43.521-19.524 43.519-43.521 43.519z" fill="#194093"/><path d="M45.354 2.835c23.483 0 42.52 19.037 42.52 42.52s-19.037 42.52-42.52 42.52-42.52-19.037-42.52-42.52 19.037-42.52 42.52-42.52m0-2C20.806.835.834 20.806.834 45.355s19.971 44.52 44.52 44.52 44.52-19.971 44.52-44.52S69.903.835 45.354.835h0z" fill="#252e78"/><path d="M41.682 83.218l3.673.179 1.656-.042-.326-4.438-5.003 4.301zm12.043-.75c2.14-.478 4.213-1.131 6.2-1.95l-6.095-.848-.105 2.798zm-2.789-32.404c.828.402 1.554.804 2.133 1.21h0l1.45.321c.844-.828 1.467-1.645 1.86-2.431-.673-2.363.463-4.915 2.69-5.976l5.568-2.652.2-.842.929-3.62-.109-3.083c-.506-.069-1.151-.315-1.781-.994-.858-.925-1.721-2.768-1.619-4.132.027-.355.194-1.238.43-2.189l-6.975 8.077-5.604-3.467-12.16 12.84c4.609 1.291 9.076 3.755 12.988 6.938zm21.432-19.496l1.42 8.361c-.051 5.684-.007 5.817.738 8.043l.574 1.763a2 2 0 0 1-.829 2.28c-.16 1.098-.505 1.958-.937 2.684l2.424.388.007.098 6.894-.537a38.38 38.38 0 0 0 .964-8.518c0-2.035-.162-4.031-.468-5.98l-9.157-10.449c-.175.222-1.228 1.514-1.63 1.867zM60.542 52.494l1.672-2.986-3.992 1.183c-.138 0-.25-.026-.367-.059-.29.482-.635.965-1.047 1.447l3.734.415zm-27.79 2.314c-.175 2.283.57 2.813-3.637 6.448 1.815.064 4.133-.223 6.671-.795l-.058-.313c-.227-1.224-1.661-4.086-2.976-5.34zm4.72 13.318c-.615-2.153-.958-3.768-1.325-5.713-2.455.545-4.744.852-6.622.852a15.35 15.35 0 0 1-1.056-.039c.36 1.368-.004 3.017-1.013 3.801-5.088 3.951-6.997-1.394-6.925-2.82l.127-2.264-.106-.018a1 1 0 0 1-.817-1.153c.087-.508.548-.845 1.048-.814l.19-2.871c.272-4.011-.459-7.59.891-10.635-.453-.235-.671-.769-.477-1.251.207-.513.794-.757 1.302-.554l.131.053.893-7.012 3.816 4.718c.047-.008.095-.01.143-.018.183-.237.457-.399.778-.399h.022c.225.005.42.098.585.227a22.89 22.89 0 0 1 3.927.009l-11.05-10.51-14.65 17.327C8.875 64.713 19.927 77.58 34.635 81.865l5.655-7.868c-.903-1.185-2.018-3.074-2.818-5.871z" fill="#f8c409"/><path d="M60.947 77.096c-.544-.974-.516-2.129.075-3.09l1.055-1.716.193-2.643-1.17-.176c-5.759-.919-6.806-3.967-6.611-7.587.118-2.2.093-5.443.054-7.654-4.632 3.751-12.073 6.78-18.396 8.183.368 1.945.71 3.56 1.325 5.713.8 2.797 1.915 4.686 2.818 5.871l-5.655 7.868a38.13 38.13 0 0 0 7.047 1.354l5.002-4.3.326 4.438a38.34 38.34 0 0 0 6.715-.887l.105-2.798c2.033.378 4.099.656 6.095.848l.522-.217.777-2.797a3.2 3.2 0 0 1-.277-.41zM23.712 37.687l-.893 7.012 4.549 1.836.08-3.569a.98.98 0 0 1 .222-.579l-.143.018-3.815-4.718zm52.046 25.409c-.349 4.188-1.221 5.954-4.363 6.584l-.877.16.96 2.134c.132.315.175.648.143.971 5.411-5.112 9.328-11.782 11.037-19.296-2.455.052-4.809.314-6.894.537.046.671.316 5.053-.006 8.91zm-54.785-6.01l-.19 2.871c.036.002.07-.009.106-.003l6.155 1.05.277-12.331-5.38-2.172c-.03-.012-.049-.036-.077-.051-1.35 3.046-.619 6.625-.891 10.636zm8.083-14.87c.239.188.4.468.393.795l-.41 18.241.076.005c4.208-3.635 3.462-4.166 3.637-6.448 2.255 1.982 3.014 5.547 3.033 5.653 6.331-1.428 13.961-4.597 18.182-8.346a14.76 14.76 0 0 0 .552-.52l-1.45-.321h0c-.579-.406-1.306-.808-2.133-1.21-3.912-3.183-8.379-5.647-12.988-6.937-1.643-.46-3.304-.763-4.965-.902a22.79 22.79 0 0 0-3.927-.01zm-1.6 24.81c1.009-.784 1.373-2.433 1.013-3.801-.194-.014-7.811-1.283-7.811-1.283l-.127 2.264c-.072 1.426 1.837 6.772 6.925 2.82z" fill="#fff"/><path d="M70.525 45.954c-.396.563-.636.886-5.87 2.71l.074.446-4.29 7.669c-.872 1.57-.801 2.268-.444 3.403 0 0 1.197 3.239 2.571 5.53.948 1.58 2.65 5.29 2.65 5.29l-2.491 4.052c-.478.778.154 1.633.908 1.633.2 0 .409-.06.609-.199l5.392-3.742-1.341-2.879c-.611-1.134-1.436-5.595-1.996-7.297-.481-1.461-1.015-2.406-1.416-3.248l4.098-3.765c1.681-1.763 3.365-2.637 3.393-5.918.306-.089.589-.189.82-.308-1-3.197-1.325-3.427-1.398-6.322-.45 1.268-.925 2.457-1.269 2.945z" fill="#f8c409"/><path d="M63.772 23.748c-.006.171.572.422 1.361.687-.464 1.284-.852 3.185-.882 3.581-.064.85.927 3 1.741 3 .021 0 .042-.001.063-.004.394-.056.938-.143 1.505-.391.011.082.051 1.115.094 2.279.56-.421 1.206-.641 1.94-.641.374 0 .755.078 1.137.201l-.63-2.887a1.1 1.1 0 0 0 .468-.157c.567-.337 1.083-.909 1.437-1.599l.052.065c.083-.05.51-.577.8-1.032 1.375-2.162.209-6.363-3.94-6.627l-.382-.012c-2.653 0-3.517 1.869-3.744 2.895-.051.23-1.01.346-1.02.642z" fill="#fff"/><path d="M58.313 48.684h0s10.154-3.28 10.576-3.88 1.678-4.242 2.183-6.118c.41-1.524.767-3.665-.803-4.285-.25-.099-.474-.142-.675-.142-1.06 0-1.475 1.196-1.672 1.679-.556 1.364-1.526 5.977-1.526 5.977l-6.468 3.08c-1.38.657-2.068 2.228-1.615 3.689zm5.459-24.936c.01-.295.969-.412 1.02-.642.238-1.074 1.172-3.071 4.125-2.883 4.149.264 5.315 4.465 3.94 6.627-.29.455-.716.982-.8 1.032-.242-.293-.41-.615-1.452-1.314-.842-.565-1.73-1.056-2.552-1.278-1.711-.465-4.294-1.181-4.281-1.542z" fill="#f8c409"/></svg>