<?xml version="1.0" encoding="iso-8859-1"?>
<!-- Generator: Adobe Illustrator 22.1.0, SVG Export Plug-In . SVG Version: 6.00 Build 0)  -->
<svg version="1.1" xmlns="http://www.w3.org/2000/svg" xmlns:xlink="http://www.w3.org/1999/xlink" x="0px" y="0px"
	 viewBox="0 0 90.709 90.709" style="enable-background:new 0 0 90.709 90.709;" xml:space="preserve">
<g id="ratownik-1">
	<g>
		<g>
			<path style="fill:#194093;" d="M45.354,88.874c-23.997,0-43.52-19.522-43.52-43.52S21.357,1.834,45.354,1.834
				s43.521,19.523,43.521,43.521S69.351,88.874,45.354,88.874z"/>
			<g>
				<path style="fill:#252E78;" d="M45.354,2.835c23.483,0,42.52,19.037,42.52,42.52s-19.037,42.52-42.52,42.52
					c-23.483,0-42.52-19.037-42.52-42.52S21.871,2.835,45.354,2.835 M45.354,0.835c-24.548,0-44.52,19.971-44.52,44.52
					s19.971,44.52,44.52,44.52s44.52-19.971,44.52-44.52S69.903,0.835,45.354,0.835L45.354,0.835z"/>
			</g>
		</g>
	</g>
</g>
<g id="elementy">
	<g>
		<path style="fill:#F8C409;" d="M41.682,83.218c1.209,0.115,2.433,0.179,3.673,0.179c0.555,0,1.106-0.018,1.656-0.042
			c-0.116-1.581-0.227-3.09-0.326-4.438L41.682,83.218z"/>
		<path style="fill:#F8C409;" d="M53.725,82.468c2.14-0.478,4.213-1.131,6.2-1.95c-1.996-0.192-4.062-0.47-6.095-0.848
			C53.797,80.55,53.762,81.49,53.725,82.468z"/>
		<path style="fill:#F8C409;" d="M50.936,50.064c0.828,0.402,1.554,0.804,2.133,1.21l0,0c0,0,0.548,0.124,1.45,0.321
			c0.844-0.828,1.467-1.645,1.86-2.431c-0.673-2.363,0.463-4.915,2.69-5.976l5.568-2.652c0.059-0.258,0.125-0.537,0.2-0.842
			c0.263-1.154,0.609-2.576,0.929-3.62c-0.032-0.942-0.073-2.093-0.109-3.083c-0.506-0.069-1.151-0.315-1.781-0.994
			c-0.858-0.925-1.721-2.768-1.619-4.132c0.027-0.355,0.194-1.238,0.43-2.189l-6.975,8.077l-5.604-3.467l-12.16,12.84
			C42.557,44.417,47.024,46.881,50.936,50.064z"/>
		<path style="fill:#F8C409;" d="M72.368,30.568c0.326,1.493,1.42,8.334,1.42,8.361c-0.051,5.684-0.007,5.817,0.738,8.043
			c0.162,0.483,0.352,1.051,0.574,1.763c0.271,0.867-0.077,1.799-0.829,2.28c-0.16,1.098-0.505,1.958-0.937,2.684
			c1.531,0.214,2.424,0.388,2.424,0.388s0.003,0.04,0.007,0.098c2.085-0.223,4.439-0.485,6.894-0.537
			c0.623-2.741,0.964-5.589,0.964-8.518c0-2.035-0.162-4.031-0.468-5.98l-9.157-10.449C73.823,28.923,72.77,30.215,72.368,30.568z"
			/>
		<path style="fill:#F8C409;" d="M60.542,52.494c0.596-1.065,1.208-2.158,1.672-2.986c-2.69,0.924-3.518,1.183-3.992,1.183
			c-0.138,0-0.25-0.026-0.367-0.059c-0.29,0.482-0.635,0.965-1.047,1.447C57.843,52.201,59.14,52.347,60.542,52.494z"/>
		<path style="fill:#F8C409;" d="M32.752,54.808c-0.175,2.283,0.57,2.813-3.637,6.448c1.815,0.064,4.133-0.223,6.671-0.795
			c-0.02-0.106-0.037-0.204-0.058-0.313C35.501,58.924,34.067,56.062,32.752,54.808z"/>
		<path style="fill:#F8C409;" d="M37.472,68.126c-0.615-2.153-0.958-3.768-1.325-5.713c-2.455,0.545-4.744,0.852-6.622,0.852
			c-0.371,0-0.719-0.016-1.056-0.039c0.36,1.368-0.004,3.017-1.013,3.801c-5.088,3.951-6.997-1.394-6.925-2.82
			c0.034-0.678,0.078-1.448,0.127-2.264l-0.106-0.018c-0.545-0.093-0.911-0.609-0.817-1.153c0.087-0.508,0.548-0.845,1.048-0.814
			c0.062-0.953,0.126-1.927,0.19-2.871c0.272-4.011-0.459-7.59,0.891-10.635c-0.453-0.235-0.671-0.769-0.477-1.251
			c0.207-0.513,0.794-0.757,1.302-0.554l0.131,0.053l0.893-7.012l3.816,4.718c0.047-0.008,0.095-0.01,0.143-0.018
			c0.183-0.237,0.457-0.399,0.778-0.399c0.007,0,0.015,0,0.022,0c0.225,0.005,0.42,0.098,0.585,0.227
			c1.303-0.115,2.615-0.101,3.927,0.009l-11.05-10.51L7.284,49.042C8.875,64.713,19.927,77.58,34.635,81.865l5.655-7.868
			C39.387,72.812,38.272,70.923,37.472,68.126z"/>
		<path style="fill:#FFFFFF;" d="M60.947,77.096c-0.544-0.974-0.516-2.129,0.075-3.09l1.055-1.716
			c0.078-0.929,0.143-1.867,0.193-2.643c-0.375-0.053-0.762-0.111-1.17-0.176c-5.759-0.919-6.806-3.967-6.611-7.587
			c0.118-2.2,0.093-5.443,0.054-7.654c-4.632,3.751-12.073,6.78-18.396,8.183c0.368,1.945,0.71,3.56,1.325,5.713
			c0.8,2.797,1.915,4.686,2.818,5.871l-5.655,7.868c2.27,0.661,4.624,1.123,7.047,1.354l5.002-4.3
			c0.099,1.347,0.21,2.856,0.326,4.438c2.297-0.098,4.54-0.402,6.715-0.887c0.037-0.978,0.072-1.918,0.105-2.798
			c2.033,0.378,4.099,0.656,6.095,0.848c0.174-0.072,0.349-0.143,0.522-0.217c0.205-0.707,0.507-1.771,0.777-2.797
			C61.123,77.376,61.028,77.242,60.947,77.096z"/>
		<path style="fill:#FFFFFF;" d="M23.712,37.687l-0.893,7.012l4.549,1.836l0.08-3.569c0.005-0.222,0.096-0.416,0.222-0.579
			c-0.047,0.007-0.095,0.01-0.143,0.018L23.712,37.687z"/>
		<path style="fill:#FFFFFF;" d="M75.758,63.096c-0.349,4.188-1.221,5.954-4.363,6.584c-0.281,0.056-0.572,0.11-0.877,0.16
			c0.496,1.029,0.936,2.077,0.96,2.134c0.132,0.315,0.175,0.648,0.143,0.971c5.411-5.112,9.328-11.782,11.037-19.296
			c-2.455,0.052-4.809,0.314-6.894,0.537C75.81,54.857,76.08,59.239,75.758,63.096z"/>
		<path style="fill:#FFFFFF;" d="M20.973,57.086c-0.064,0.943-0.129,1.917-0.19,2.871c0.036,0.002,0.07-0.009,0.106-0.003
			l6.155,1.05l0.277-12.331l-5.38-2.172c-0.03-0.012-0.049-0.036-0.077-0.051C20.514,49.496,21.245,53.075,20.973,57.086z"/>
		<path style="fill:#FFFFFF;" d="M29.056,42.216c0.239,0.188,0.4,0.468,0.393,0.795l-0.41,18.241
			c0.026,0.001,0.05,0.004,0.076,0.005c4.208-3.635,3.462-4.166,3.637-6.448c2.255,1.982,3.014,5.547,3.033,5.653
			c6.331-1.428,13.961-4.597,18.182-8.346c0.196-0.174,0.376-0.347,0.552-0.52c-0.902-0.197-1.45-0.321-1.45-0.321l0,0
			c-0.579-0.406-1.306-0.808-2.133-1.21c-3.912-3.183-8.379-5.647-12.988-6.937c-1.643-0.46-3.304-0.763-4.965-0.902
			C31.671,42.115,30.358,42.101,29.056,42.216z"/>
		<path style="fill:#FFFFFF;" d="M27.456,67.026c1.009-0.784,1.373-2.433,1.013-3.801c-0.194-0.014-7.811-1.283-7.811-1.283
			c-0.049,0.816-0.093,1.586-0.127,2.264C20.459,65.632,22.368,70.978,27.456,67.026z"/>
		<path style="fill:#F8C409;" d="M70.525,45.954c-0.396,0.563-0.636,0.886-5.87,2.71c0.037,0.269,0.074,0.446,0.074,0.446
			s-3.417,6.098-4.29,7.669c-0.872,1.57-0.801,2.268-0.444,3.403c0,0,1.197,3.239,2.571,5.53c0.948,1.58,2.65,5.29,2.65,5.29
			l-2.491,4.052c-0.478,0.778,0.154,1.633,0.908,1.633c0.2,0,0.409-0.06,0.609-0.199l5.392-3.742c0,0-0.731-1.745-1.341-2.879
			c-0.611-1.134-1.436-5.595-1.996-7.297c-0.481-1.461-1.015-2.406-1.416-3.248c1.358-1.177,3.137-2.756,4.098-3.765
			c1.681-1.763,3.365-2.637,3.393-5.918c0.306-0.089,0.589-0.189,0.82-0.308c-1-3.197-1.325-3.427-1.398-6.322
			C71.344,44.277,70.869,45.466,70.525,45.954z"/>
		<path style="fill:#FFFFFF;" d="M63.772,23.748c-0.006,0.171,0.572,0.422,1.361,0.687c-0.464,1.284-0.852,3.185-0.882,3.581
			c-0.064,0.85,0.927,3,1.741,3c0.021,0,0.042-0.001,0.063-0.004c0.394-0.056,0.938-0.143,1.505-0.391
			c0.011,0.082,0.051,1.115,0.094,2.279c0.56-0.421,1.206-0.641,1.94-0.641c0.374,0,0.755,0.078,1.137,0.201
			c-0.326-1.515-0.63-2.887-0.63-2.887c0.148-0.014,0.304-0.059,0.468-0.157c0.567-0.337,1.083-0.909,1.437-1.599
			c0.017,0.022,0.034,0.043,0.052,0.065c0.083-0.05,0.51-0.577,0.8-1.032c1.375-2.162,0.209-6.363-3.94-6.627
			c-0.131-0.008-0.258-0.012-0.382-0.012c-2.653,0-3.517,1.869-3.744,2.895C64.741,23.336,63.782,23.452,63.772,23.748z"/>
		<path style="fill:#F8C409;" d="M58.313,48.684L58.313,48.684c0,0,10.154-3.28,10.576-3.88c0.423-0.601,1.678-4.242,2.183-6.118
			c0.41-1.524,0.767-3.665-0.803-4.285c-0.25-0.099-0.474-0.142-0.675-0.142c-1.06,0-1.475,1.196-1.672,1.679
			c-0.556,1.364-1.526,5.977-1.526,5.977l-6.468,3.08C58.548,45.652,57.86,47.223,58.313,48.684z"/>
		<path style="fill:#F8C409;" d="M63.772,23.748c0.01-0.295,0.969-0.412,1.02-0.642c0.238-1.074,1.172-3.071,4.125-2.883
			c4.149,0.264,5.315,4.465,3.94,6.627c-0.29,0.455-0.716,0.982-0.8,1.032c-0.242-0.293-0.41-0.615-1.452-1.314
			c-0.842-0.565-1.73-1.056-2.552-1.278C66.342,24.825,63.759,24.109,63.772,23.748z"/>
	</g>
</g>
</svg>
