<svg xmlns="http://www.w3.org/2000/svg" viewBox="0 0 90.709 90.709"><path d="M45.354 88.874c-23.997 0-43.52-19.522-43.52-43.52s19.524-43.52 43.52-43.52 43.52 19.523 43.52 43.521-19.523 43.519-43.52 43.519z" fill="#194093"/><path d="M45.354 2.835c23.483 0 42.52 19.037 42.52 42.52s-19.037 42.52-42.52 42.52-42.52-19.037-42.52-42.52 19.037-42.52 42.52-42.52m0-2C20.806.835.834 20.806.834 45.355s19.971 44.52 44.52 44.52 44.52-19.971 44.52-44.52S69.903.835 45.354.835h0z" fill="#252e78"/><path d="M82.506 41.57c-.707-2.381-3.605-4.119-4.951-2.099-2.594 3.89-8.37 9.031-12.378 9.561a18.94 18.94 0 0 0-.519.078c-.015-.079-.013-.153-.034-.234C63.167 43.052 58.67 28 56.557 25.794c-2.542-2.654-5.81-1.429-7.263 0s-6.395 1.429-7.848 0-4.721-2.654-7.263 0c-2.125 2.218-6.659 17.449-8.091 23.176-.012.05-.012.094-.023.143l-.539-.081c-4.008-.53-9.784-5.671-12.377-9.561-1.346-2.02-4.244-.282-4.951 2.099S6.484 57.403 21.169 64.815c12.377 6.248 24.185 5.658 24.185 5.658s11.807.59 24.185-5.658c14.685-7.412 13.674-20.864 12.967-23.245z" fill="#f8c409"/><path d="M64.625 48.876l-1.616-5.881c-.113.186-.252.349-.421.482-2.409 1.892-8.696 6.071-17.219 6.072-8.778 0-15.185-4.434-17.425-6.235a1.3 1.3 0 0 1-.23-.249c-.683 2.34-1.255 4.436-1.622 5.905-.281 1.125-.119 2.08.496 2.539 2.415 1.801 9.32 6.235 18.781 6.235 9.186 0 15.963-4.18 18.56-6.072.761-.553.992-1.614.696-2.796z" fill="#fff"/></svg>