<?xml version="1.0" encoding="iso-8859-1"?>
<!-- Generator: Adobe Illustrator 22.1.0, SVG Export Plug-In . SVG Version: 6.00 Build 0)  -->
<svg version="1.1" xmlns="http://www.w3.org/2000/svg" xmlns:xlink="http://www.w3.org/1999/xlink" x="0px" y="0px"
	 viewBox="0 0 90.709 90.709" style="enable-background:new 0 0 90.709 90.709;" xml:space="preserve">
<g id="ratownik-1">
	<g>
		<g>
			<path style="fill:#194093;" d="M45.354,88.874c-23.997,0-43.52-19.522-43.52-43.52S21.358,1.834,45.354,1.834
				s43.52,19.523,43.52,43.521S69.351,88.874,45.354,88.874z"/>
			<g>
				<path style="fill:#252E78;" d="M45.354,2.835c23.483,0,42.52,19.037,42.52,42.52s-19.037,42.52-42.52,42.52
					s-42.52-19.037-42.52-42.52S21.871,2.835,45.354,2.835 M45.354,0.835c-24.548,0-44.52,19.971-44.52,44.52
					s19.971,44.52,44.52,44.52s44.52-19.971,44.52-44.52S69.903,0.835,45.354,0.835L45.354,0.835z"/>
			</g>
		</g>
	</g>
</g>
<g id="elementy">
	<g>
		<path style="fill:#F8C409;" d="M82.506,41.57c-0.707-2.381-3.605-4.119-4.951-2.099c-2.594,3.89-8.37,9.031-12.378,9.561
			c-0.154,0.02-0.331,0.048-0.519,0.078c-0.015-0.079-0.013-0.153-0.034-0.234C63.167,43.052,58.67,28,56.557,25.794
			c-2.542-2.654-5.81-1.429-7.263,0c-1.452,1.429-6.395,1.429-7.848,0c-1.452-1.429-4.721-2.654-7.263,0
			c-2.125,2.218-6.659,17.449-8.091,23.176c-0.012,0.05-0.012,0.094-0.023,0.143c-0.195-0.032-0.38-0.06-0.539-0.081
			c-4.008-0.53-9.784-5.671-12.377-9.561c-1.346-2.02-4.244-0.282-4.951,2.099c-0.707,2.38-1.718,15.833,12.967,23.245
			c12.377,6.248,24.185,5.658,24.185,5.658s11.807,0.59,24.185-5.658C84.224,57.403,83.213,43.951,82.506,41.57z"/>
		<path style="fill:#FFFFFF;" d="M64.625,48.876c-0.371-1.483-0.94-3.565-1.616-5.881c-0.113,0.186-0.252,0.349-0.421,0.482
			c-2.409,1.892-8.696,6.071-17.219,6.072c-8.778,0-15.185-4.434-17.425-6.235c-0.088-0.071-0.162-0.156-0.23-0.249
			c-0.683,2.34-1.255,4.436-1.622,5.905c-0.281,1.125-0.119,2.08,0.496,2.539c2.415,1.801,9.32,6.235,18.781,6.235
			c9.186,0,15.963-4.18,18.56-6.072C64.69,51.119,64.921,50.058,64.625,48.876z"/>
	</g>
</g>
</svg>
