<?xml version="1.0" encoding="iso-8859-1"?>
<!-- Generator: Adobe Illustrator 22.1.0, SVG Export Plug-In . SVG Version: 6.00 Build 0)  -->
<svg version="1.1" xmlns="http://www.w3.org/2000/svg" xmlns:xlink="http://www.w3.org/1999/xlink" x="0px" y="0px"
	 viewBox="0 0 90.709 90.709" style="enable-background:new 0 0 90.709 90.709;" xml:space="preserve">
<g id="ratownik-1">
	<g>
		<g>
			<path style="fill:#194093;" d="M45.354,88.874c-23.997,0-43.52-19.523-43.52-43.52s19.522-43.52,43.52-43.52
				s43.521,19.523,43.521,43.52S69.351,88.874,45.354,88.874z"/>
			<g>
				<path style="fill:#252E78;" d="M45.354,2.835c23.483,0,42.52,19.037,42.52,42.52s-19.037,42.52-42.52,42.52
					c-23.483,0-42.52-19.037-42.52-42.52S21.871,2.835,45.354,2.835 M45.354,0.835c-24.548,0-44.52,19.971-44.52,44.52
					s19.971,44.52,44.52,44.52s44.52-19.971,44.52-44.52S69.903,0.835,45.354,0.835L45.354,0.835z"/>
			</g>
		</g>
	</g>
</g>
<g id="elementy">
	<g>
		<path style="fill:#FFFFFF;" d="M48.004,61.934c-0.358-0.051-0.727-0.106-1.115-0.168c-5.491-0.877-6.489-3.782-6.304-7.235
			c0.08-1.489,0.091-3.482,0.077-5.268c-0.718,0.333-2.237-0.293-3.011-0.906c-0.73-0.578-1.189-1.481-1.257-2.479
			c-0.068-0.986,0.252-1.98,0.901-2.8c0.191-0.241,0.9-1.57,0.9-1.57c0.188-0.776-0.078-1.625-0.752-2.142
			c-0.727-0.559-1.701-0.555-2.424-0.072c0.066-0.815-0.352-1.628-1.125-2.024c-0.863-0.442-1.885-0.219-2.501,0.473
			c0.07-0.95-0.518-1.856-1.468-2.145c-0.85-0.259-1.733,0.056-2.248,0.718c-0.172-0.977-1.02-1.721-2.047-1.721
			c-0.83,0-1.541,0.489-1.876,1.191c-0.266-0.845-1.046-1.462-1.979-1.462c-0.984,0-1.804,0.685-2.022,1.602
			c-0.378-0.524-0.99-0.869-1.686-0.869c-0.805,0-1.496,0.462-1.842,1.13l-3.569-4.414l-0.869,6.824
			c-2.462,3.194-1.43,7.121-1.736,11.615c-0.159,2.353-0.326,4.911-0.42,6.768c-0.068,1.356,1.746,6.437,6.583,2.681
			c1.222-0.95,1.466-3.24,0.533-4.603c5.172-4.274,4.321-4.668,4.5-7.011c1.25,1.192,2.613,3.912,2.828,5.076
			c0.548,2.968,0.863,4.801,1.659,7.583c0.714,2.499,1.693,4.231,2.521,5.366l-6.661,9.268c1.413,1.121,2.906,2.144,4.471,3.059
			l8.439-7.254c0.237,3.214,0.539,7.341,0.811,11.136c1.795,0.487,3.642,0.844,5.531,1.066c0.148-3.99,0.309-8.287,0.437-11.667
			c1.626,0.302,3.278,0.542,4.891,0.72c0.293-1.004,0.975-3.38,1.265-4.766C47.683,66.478,47.889,63.732,48.004,61.934z"/>
		<path style="fill:#FFFFFF;" d="M76.493,47.841c-1.122-0.333-2.266-0.547-3.413-0.689c-0.27,0.865-1.104,2.215-3.681,2.85
			c-0.157,0.039-5.346-0.188-5.346-0.188c-0.551,0.073-1.706,0.221-3.056,0.393c0.034,1.603,0.025,3.606-0.131,5.481
			c-0.333,3.993-1.165,5.677-4.16,6.278c-1.091,0.219-2.309,0.403-4.119,0.373c0.024,1.514-0.018,3.892-0.424,5.609
			c-0.524,2.217-1.181,3.959-1.516,4.782c6.023,0.202,10.412-0.654,13.401-1.631l2.848,5.883
			c8.462-5.775,14.482-14.856,16.21-25.384C81.498,49.98,79.24,48.655,76.493,47.841z"/>
		<path style="fill:#F8C409;" d="M52.587,62.339c1.81,0.03,3.028-0.154,4.119-0.373c2.995-0.601,3.827-2.285,4.16-6.278
			c0.156-1.875,0.165-3.878,0.131-5.481c-3.22,0.41-7.579,0.956-7.702,0.956c-1.29,0-2.505-0.571-3.333-1.566
			c-0.827-0.993-1.128-2.54-0.893-3.812c0.011-0.058-2.419-0.173-3.538-0.294c-0.455,0.46-0.925,0.88-1.408,1.217
			c-0.5,0.854-1.366,1.799-2.229,2.224c-0.388,0.191-0.804,0.287-1.232,0.332c0.013,1.786,0.003,3.779-0.077,5.268
			c-0.185,3.452,0.813,6.358,6.304,7.235c0.388,0.062,0.757,0.117,1.115,0.168c-0.115,1.798-0.321,4.543-0.563,5.701
			c-0.29,1.385-1.404,5.24-1.404,5.24l4.39,0.379c0,0,1.213-3.088,1.737-5.305C52.569,66.232,52.61,63.853,52.587,62.339z"/>
		<path style="fill:#FFFFFF;" d="M37.504,31.404c-0.099,0.016-0.486,0.063-0.602,0.063c-0.533,0-1.331-0.175-2.106-1.01
			c-0.453-0.489-0.903-1.238-1.213-2.035c-4.048-1.309-8.138-2.629-8.354-2.687c-0.789-0.21-1.277-0.36-1.633-0.36
			c-0.378,0-0.606,0.169-0.888,0.615c-0.547,0.865-0.192,2.071,0.791,2.692c0.384,0.243,0.806,0.359,1.211,0.359
			c0.415,0,0.811-0.122,1.13-0.354l13.634,5.072C39.423,33.704,37.815,31.8,37.504,31.404z"/>
		<path style="fill:#FFFFFF;" d="M40.273,31.39c-0.266-1.173,0.863-3.191,1.044-3.457c0.201-0.19,0.43-0.353,0.676-0.497
			c1.242-1.191,1.942-3.51,0.389-5.343c-0.788-0.93-1.81-1.257-2.787-1.257c-1.352,0-2.616,0.628-3.044,1.153
			c-0.639,0.783-1.32,4.006-1.36,4.53c-0.063,0.835,0.911,2.947,1.711,2.947c0.021,0,0.984-0.145,1.54-0.388
			C38.514,29.619,40.273,31.39,40.273,31.39z"/>
		<path style="fill:#F8C409;" d="M50.097,38.822c-0.009,0.016-0.118,0.236-0.308,0.593l0.447,0.056l1.988,0.248
			c-0.387,1.993-0.862,4.697-1.227,6.677c-0.269,1.46,0.861,2.768,2.298,2.768c0.095,0,9.074-1.143,10.677-1.356l4.949,0.253
			c2.502-0.616,2.731-2.057,1.756-2.46l-4.082-1.688c-0.275-0.114-0.563-0.168-0.846-0.168c-0.72,0-1.416,0.351-1.837,0.974
			c-2.43,0.325-5.588,0.402-7.417,0.469l1.974-3.711c0.009-0.013,0.794-1.254,0.616-2.802c0.027-0.028,0.049-0.059,0.075-0.087
			c0.607-0.173,1.238-0.358,1.866-0.546c2.568-0.768,5.025-1.562,5.025-1.562c0.01-0.004,0.017-0.021,0.026-0.033
			c1.415-0.465,10.178-3.402,10.187-3.405l2.657-0.648c2.221-1.306,2.028-2.753,0.978-2.86l-4.394-0.45
			c-1.049-0.107-2.025,0.539-2.34,1.539c-2.853,0.745-5.093-0.003-7.881,2.253l-6.442-0.268c-0.075-0.025-0.139-0.055-0.221-0.076
			c-1.899-0.475-6.271-0.141-7.833-0.527c-0.716-0.177-1.794-0.619-2.887-1.114C50.604,37.84,50.574,37.91,50.097,38.822z"/>
		<path style="fill:#F8C409;" d="M40.407,31.888c-0.062-0.164-0.097-0.331-0.135-0.497l-0.027,0.018c0,0-0.011,0.03-0.027,0.084
			c-0.145,0.461-0.783,2.767,0.247,4.693c0.326,0.609,0.821,1.178,1.549,1.64c0.134-0.252,0.259-0.484,0.366-0.678
			C42.09,36.36,41.521,34.836,40.407,31.888z"/>
		<path style="fill:#FFFFFF;" d="M41.035,43.235c-0.465,0.14-1.759,0.565-2.171,1.086c-0.744,0.941-0.529,2.028,0.028,2.469
			c0.376,0.298,0.873,0.518,1.383,0.518c0.246,0,0.495-0.051,0.734-0.169c0.647-0.319,1.466-1.41,1.562-1.803
			c3.335-2.056,5.256-6.49,5.754-7.441c0.08-0.153-1.885-5.247-2.923-7.914c-0.258-0.662-0.888-1.063-1.555-1.063
			c-0.216,0-0.436,0.042-0.648,0.131c-0.832,0.348-1.239,1.289-0.921,2.133c0.845,2.236,2.328,6.173,2.316,6.221
			C44.25,37.606,42.072,42.42,41.035,43.235z"/>
	</g>
</g>
</svg>
