<svg xmlns="http://www.w3.org/2000/svg" viewBox="0 0 90.709 90.709"><path d="M45.354 88.874c-23.997 0-43.52-19.523-43.52-43.52s19.522-43.52 43.52-43.52 43.521 19.523 43.521 43.52-19.524 43.52-43.521 43.52z" fill="#194093"/><path d="M45.354 2.835c23.483 0 42.52 19.037 42.52 42.52s-19.037 42.52-42.52 42.52-42.52-19.037-42.52-42.52 19.037-42.52 42.52-42.52m0-2C20.806.835.834 20.806.834 45.355s19.971 44.52 44.52 44.52 44.52-19.971 44.52-44.52S69.903.835 45.354.835h0z" fill="#252e78"/><path d="M48.004 61.934l-1.115-.168c-5.491-.877-6.489-3.782-6.304-7.235l.077-5.268c-.718.333-2.237-.293-3.011-.906-.73-.578-1.189-1.481-1.257-2.479-.068-.986.252-1.98.901-2.8.191-.241.9-1.57.9-1.57a2.08 2.08 0 0 0-.752-2.142c-.727-.559-1.701-.555-2.424-.072.066-.815-.352-1.628-1.125-2.024a2.08 2.08 0 0 0-2.501.473 2.08 2.08 0 0 0-3.716-1.427 2.08 2.08 0 0 0-3.923-.53c-.266-.845-1.046-1.462-1.979-1.462a2.08 2.08 0 0 0-2.022 1.602c-.378-.524-.99-.869-1.686-.869-.805 0-1.496.462-1.842 1.13l-3.569-4.414-.869 6.824c-2.462 3.194-1.43 7.121-1.736 11.615l-.42 6.768c-.068 1.356 1.746 6.437 6.583 2.681 1.222-.95 1.466-3.24.533-4.603 5.172-4.274 4.321-4.668 4.5-7.011 1.25 1.192 2.613 3.912 2.828 5.076.548 2.968.863 4.801 1.659 7.583.714 2.499 1.693 4.231 2.521 5.366l-6.661 9.268c1.413 1.121 2.906 2.144 4.471 3.059l8.439-7.254.811 11.136c1.795.487 3.642.844 5.531 1.066l.437-11.667a67.47 67.47 0 0 0 4.891.72c.293-1.004.975-3.38 1.265-4.766.244-1.156.45-3.902.565-5.7zm28.489-14.093c-1.122-.333-2.266-.547-3.413-.689-.27.865-1.104 2.215-3.681 2.85-.157.039-5.346-.188-5.346-.188l-3.056.393-.131 5.481c-.333 3.993-1.165 5.677-4.16 6.278-1.091.219-2.309.403-4.119.373.024 1.514-.018 3.892-.424 5.609-.524 2.217-1.181 3.959-1.516 4.782 6.023.202 10.412-.654 13.401-1.631l2.848 5.883c8.462-5.775 14.482-14.856 16.21-25.384-1.608-1.618-3.866-2.943-6.613-3.757z" fill="#fff"/><path d="M52.587 62.339c1.81.03 3.028-.154 4.119-.373 2.995-.601 3.827-2.285 4.16-6.278.156-1.875.165-3.878.131-5.481l-7.702.956c-1.29 0-2.505-.571-3.333-1.566s-1.128-2.54-.893-3.812c.011-.058-2.419-.173-3.538-.294-.455.46-.925.88-1.408 1.217-.5.854-1.366 1.799-2.229 2.224-.388.191-.804.287-1.232.332l-.077 5.268c-.185 3.452.813 6.358 6.304 7.235l1.115.168-.563 5.701c-.29 1.385-1.404 5.24-1.404 5.24l4.39.379s1.213-3.088 1.737-5.305c.405-1.718.446-4.097.423-5.611z" fill="#f8c409"/><path d="M37.504 31.404c-.099.016-.486.063-.602.063-.533 0-1.331-.175-2.106-1.01-.453-.489-.903-1.238-1.213-2.035l-8.354-2.687c-.789-.21-1.277-.36-1.633-.36-.378 0-.606.169-.888.615-.547.865-.192 2.071.791 2.692a2.27 2.27 0 0 0 1.211.359c.415 0 .811-.122 1.13-.354l13.634 5.072a160.46 160.46 0 0 1-1.97-2.355zm2.769-.014c-.266-1.173.863-3.191 1.044-3.457.201-.19.43-.353.676-.497 1.242-1.191 1.942-3.51.389-5.343-.788-.93-1.81-1.257-2.787-1.257-1.352 0-2.616.628-3.044 1.153-.639.783-1.32 4.006-1.36 4.53-.063.835.911 2.947 1.711 2.947.021 0 .984-.145 1.54-.388.072.541 1.831 2.312 1.831 2.312z" fill="#fff"/><path d="M50.097 38.822l-.308.593.447.056 1.988.248-1.227 6.677c-.269 1.46.861 2.768 2.298 2.768a1791.55 1791.55 0 0 0 10.677-1.356l4.949.253c2.502-.616 2.731-2.057 1.756-2.46l-4.082-1.688a2.21 2.21 0 0 0-.846-.168c-.72 0-1.416.351-1.837.974-2.43.325-5.588.402-7.417.469l1.974-3.711c.009-.013.794-1.254.616-2.802.027-.028.049-.059.075-.087l1.866-.546 5.025-1.562c.01-.004.017-.021.026-.033l10.187-3.405 2.657-.648c2.221-1.306 2.028-2.753.978-2.86l-4.394-.45a2.22 2.22 0 0 0-2.34 1.539c-2.853.745-5.093-.003-7.881 2.253l-6.442-.268-.221-.076c-1.899-.475-6.271-.141-7.833-.527-.716-.177-1.794-.619-2.887-1.114 2.703 6.949 2.673 7.019 2.196 7.931zm-9.69-6.934c-.062-.164-.097-.331-.135-.497l-.027.018-.027.084c-.145.461-.783 2.767.247 4.693.326.609.821 1.178 1.549 1.64l.366-.678-1.973-5.26z" fill="#f8c409"/><path d="M41.035 43.235c-.465.14-1.759.565-2.171 1.086-.744.941-.529 2.028.028 2.469.376.298.873.518 1.383.518.246 0 .495-.051.734-.169.647-.319 1.466-1.41 1.562-1.803 3.335-2.056 5.256-6.49 5.754-7.441.08-.153-1.885-5.247-2.923-7.914-.258-.662-.888-1.063-1.555-1.063a1.67 1.67 0 0 0-1.569 2.264l2.316 6.221c-.344.203-2.522 5.017-3.559 5.832z" fill="#fff"/></svg>