<?xml version="1.0" encoding="iso-8859-1"?>
<!-- Generator: Adobe Illustrator 22.1.0, SVG Export Plug-In . SVG Version: 6.00 Build 0)  -->
<svg version="1.1" xmlns="http://www.w3.org/2000/svg" xmlns:xlink="http://www.w3.org/1999/xlink" x="0px" y="0px"
	 viewBox="0 0 90.709 90.709" style="enable-background:new 0 0 90.709 90.709;" xml:space="preserve">
<g id="ratownik-1">
	<g>
		<g>
			<circle style="fill:#194093;" cx="45.354" cy="45.355" r="43.52"/>
			<g>
				<path style="fill:#252E78;" d="M45.354,2.835c23.483,0,42.52,19.037,42.52,42.52s-19.037,42.52-42.52,42.52
					s-42.52-19.037-42.52-42.52S21.871,2.835,45.354,2.835 M45.354,0.835c-24.548,0-44.52,19.971-44.52,44.52
					s19.971,44.52,44.52,44.52s44.52-19.971,44.52-44.52S69.903,0.835,45.354,0.835L45.354,0.835z"/>
			</g>
		</g>
	</g>
</g>
<g id="elementy">
	<g>
		<path style="fill:none;" d="M59.836,48.643c-0.256-0.426-0.523-0.869-0.793-1.315c-0.004-0.001-0.008,0-0.011-0.001
			c-0.429-0.114-0.794-0.395-1.016-0.78l-0.189-0.328c-0.183-0.023-0.343-0.11-0.476-0.245l-0.126,2.734
			C58.077,48.65,58.951,48.623,59.836,48.643z"/>
		<polygon style="fill:#F8C409;" points="57.519,42.34 58.531,44.099 65.267,40.208 58.144,28.81 		"/>
		<path style="fill:#F8C409;" d="M31.219,30.654l-3.024,5.081c1.468,0.911,2.839,1.996,4.107,3.225L31.219,30.654z"/>
		<path style="fill:#F8C409;" d="M56.145,72.353c-0.23,0.145-2.53,1.746-3.748,1.702c-1.277-0.045-3.077-1.615-3.459-2.379
			c-1.215,0.261-2.173,0.464-2.915,0.602c-0.018,0.301-0.146,7.465-0.213,11.332c4.128-0.049,8.096-0.752,11.811-2.009
			c0.024-1.51,0.055-2.757,0.092-3.63c-0.763-2.101-1.203-4.077-1.494-5.673C56.195,72.315,56.17,72.337,56.145,72.353z"/>
		<path style="fill:#F8C409;" d="M39.183,48.932c0,0,6.817,0.345,10.245,0.496c1.542,0.068,3.695-0.312,6.12-0.571l0.953-20.607
			l-5.284-1.225c-1.652,1.681-3.79,2.807-5.613,2.807c-1.793,0-3.892-1.084-5.53-2.711l-7.277,2.743l1.461,11.2
			C36.214,43.388,37.868,46.063,39.183,48.932z"/>
		<path style="fill:#FFFFFF;" d="M35.187,71.475c-0.661-0.181-1.249-0.363-1.768-0.569c-0.07,0.045-0.13,0.105-0.203,0.146
			c-0.546,0.303-1.117,0.457-1.697,0.457c-0.274,0-0.53-0.038-0.776-0.096c0.167,2.638,0.383,5.996,0.612,9.555
			c1.487,0.585,3.015,1.086,4.586,1.484c-0.246-3.817-0.477-7.41-0.648-10.132C35.277,72.047,35.241,71.765,35.187,71.475z"/>
		<path style="fill:#FFFFFF;" d="M57.87,70.716c-0.044,0.054-0.085,0.111-0.129,0.164c0.38,2.296,1.081,6.01,2.96,9.532
			c0.022-0.01,0.043-0.02,0.065-0.029c-1.149-2.273-2.171-4.804-2.531-7.14C58.086,72.278,57.968,71.45,57.87,70.716z"/>
		<path style="fill:#FFFFFF;" d="M44.405,70.806c-0.027,0.224-0.047,0.47-0.069,0.714C44.358,71.276,44.379,71.03,44.405,70.806z"/>
		<path style="fill:#FFFFFF;" d="M44.104,81.417c-0.001,0.033-0.001,0.065-0.002,0.098C44.103,81.482,44.104,81.45,44.104,81.417z"
			/>
		<path style="fill:#FFFFFF;" d="M44.224,74.477c-0.004,0.218-0.007,0.438-0.011,0.663C44.216,74.911,44.22,74.699,44.224,74.477z"
			/>
		<path style="fill:#FFFFFF;" d="M44.3,71.915c-0.027,0.393-0.047,0.806-0.055,1.241C44.253,72.721,44.273,72.308,44.3,71.915z"/>
		<path style="fill:#FFFFFF;" d="M44.414,70.746c0.61-0.017,2.172-0.348,4.018-0.745c-0.007-0.053-0.018-0.105-0.024-0.158
			c-1.242,0.359-2.55,0.701-3.994,0.895C44.415,70.741,44.414,70.743,44.414,70.746z"/>
		<path style="fill:#FFFFFF;" d="M37.715,82.858L37.715,82.858c-0.023-0.353-0.045-0.703-0.068-1.052
			C37.67,82.153,37.693,82.506,37.715,82.858z"/>
		<path style="fill:#FFFFFF;" d="M36.634,70.064c0-0.001-0.001-0.002-0.001-0.003c-0.549-0.162-1.113-0.346-1.701-0.564
			c-0.037-0.014-0.076-0.029-0.113-0.043c-0.017,0.028-0.031,0.058-0.049,0.085C35.504,69.768,36.273,69.952,36.634,70.064z"/>
		<path style="fill:#FFFFFF;" d="M37.129,73.711c0.006,0.1,0.012,0.198,0.019,0.299C37.142,73.908,37.135,73.81,37.129,73.711z"/>
		<path style="fill:#FFFFFF;" d="M36.895,71.125c0.067,0.353,0.116,0.716,0.14,1.086C37.011,71.841,36.962,71.478,36.895,71.125z"/>
		<path style="fill:#FFFFFF;" d="M36.646,70.102c0.09,0.305,0.169,0.624,0.234,0.952C36.815,70.725,36.736,70.406,36.646,70.102z"/>
		<path style="fill:#FFFFFF;" d="M79.213,54.358c-1.658-2.297-4.896-3.322-7.421-3.48c-0.028,0.069-0.051,0.138-0.091,0.206
			c-0.208,0.498-0.552,1.243-1.014,2.15c0.078,0.003,0.155-0.003,0.234,0.006c1.639,0.188,2.959,2.295,3.093,4.065
			c0.399,5.255,2.068,7.487,3.763,8.368c0.811-1.291,1.549-2.632,2.204-4.021C80.268,59.54,80.84,56.613,79.213,54.358z"/>
		<path style="fill:#FFFFFF;" d="M59.608,67.78c-0.327,0.892-0.979,1.993-1.739,2.936c0.098,0.734,0.216,1.562,0.364,2.526
			c0.36,2.336,1.382,4.867,2.531,7.14c2.481-1.093,4.823-2.442,6.995-4.013c-0.096-0.617-0.158-1.143-0.171-1.514
			c-0.086-2.431,0.982-2.725,2.976-6.378c2.033-3.724,2.211-8,2.205-9.484c0-0.081-0.001-0.162-0.003-0.243
			c-0.004-0.188-0.009-0.299-0.009-0.299l-0.011,0.005c-0.118-1.852-0.857-3.625-2.099-5.146
			C68.731,57.063,64.796,63.584,59.608,67.78z"/>
		<path style="fill:#FFFFFF;" d="M44.104,81.417c0.039-2.243,0.076-4.375,0.108-6.277c0.004-0.224,0.008-0.445,0.011-0.663
			c0.008-0.454,0.015-0.899,0.022-1.321c0.007-0.435,0.027-0.848,0.055-1.241c0.01-0.139,0.025-0.262,0.036-0.395
			c0.021-0.244,0.042-0.489,0.069-0.714c0.003-0.021,0.006-0.039,0.008-0.061c0-0.003,0.001-0.005,0.001-0.008
			c1.444-0.194,2.751-0.537,3.994-0.895c-0.126-1.23,0.15-2.599,0.988-3.921c0.861-1.359,2.996-2.512,4.763-3.28
			c1.129-1.318,3.552-5.609,5.034-8.235c0.98-1.736,1.587-2.799,2.005-3.477c-0.337-0.574-0.824-1.391-1.362-2.287
			c-0.885-0.021-1.759,0.007-2.612,0.065c-0.57,0.039-1.13,0.09-1.676,0.149c-2.425,0.259-4.579,0.639-6.12,0.571
			C46,49.277,39.183,48.932,39.183,48.932c-1.315-2.868-2.968-5.543-4.924-7.866c-0.622-0.739-1.273-1.444-1.956-2.106
			c-1.268-1.229-2.64-2.314-4.107-3.225c-0.473-0.294-0.96-0.563-1.453-0.819c-0.613-0.318-1.237-0.614-1.88-0.87
			c0,0-0.134-6.814-2.771-6.814l-2.342,6.514c-3.791,1.495-4.931,5.437-7.525,9.177c-1.357,1.958-2.828,4.091-3.872,5.654
			c-0.762,1.141-1.821,6.489,4.321,5.737c1.552-0.19,2.951-2.051,2.848-3.717c6.765-1.037,6.154-1.823,7.574-3.804
			c0.673,0.582,0.882,3.853,0.98,6.582c0.005,0,0.009-0.002,0.014-0.002c0.646,0,1.266,0.28,1.843,0.831
			c0.072,0.068,0.137,0.143,0.196,0.222l4.151,5.605c1.709,0.869,3.743,2.134,4.516,3.527c0.769,1.387,1.008,2.937,0.673,4.363
			c-0.132,0.561-0.365,1.069-0.649,1.532c0.037,0.014,0.076,0.029,0.113,0.043c0.588,0.219,1.152,0.402,1.701,0.564
			c0,0.001,0.001,0.002,0.001,0.003c0.004,0.013,0.008,0.025,0.012,0.038c0.09,0.305,0.169,0.623,0.234,0.952
			c0.005,0.024,0.01,0.047,0.015,0.071c0.067,0.353,0.116,0.716,0.14,1.086c0,0,0,0,0,0c0.03,0.472,0.062,0.978,0.095,1.5
			c0.006,0.1,0.012,0.198,0.019,0.299c0.144,2.279,0.317,4.963,0.5,7.796c0.023,0.349,0.045,0.699,0.068,1.052
			c2.061,0.418,4.185,0.66,6.351,0.732c0.012-0.699,0.024-1.391,0.036-2.074C44.103,81.482,44.104,81.45,44.104,81.417z"/>
		<path style="fill:#FFFFFF;" d="M24.728,55.465c-1.995-1.908-1.631,4.482,1.34,8.422c0.065,0.85,1.395,3.396,2.632,4.281
			c1.41,1.009,2.361,2.085,3.67,1.359c1.309-0.726,2.127-2.913,0.901-5.123c-0.679-1.223-3.223-2.549-4.143-2.999L24.728,55.465z"/>
		<path style="fill:#FFFFFF;" d="M63.252,51.043c0.048-0.074-3.315-5.604-3.315-5.604l5.907-3.443c0,0,4.59,7.98,4.321,8.237
			c-0.833,2.102-5.539,11.483-12.074,16.524c-0.114,0.845-1.589,3.31-2.876,4.121c-1.466,0.925-2.478,1.945-3.743,1.144
			c-1.265-0.801-1.955-3.031-0.602-5.166c0.749-1.182,3.366-2.357,4.31-2.753C57.174,62.166,62.574,51.546,63.252,51.043z"/>
		<path style="fill:#FFFFFF;" d="M53.169,15.911c0,1.544-0.999,3.396-0.999,5.31c0,3.403-3.931,6.867-6.565,6.867
			c-2.611,0-6.54-3.412-6.54-6.786c0-1.908-1.024-3.825-1.024-5.392c0-4.178,3.387-7.565,7.565-7.565S53.169,11.733,53.169,15.911z"
			/>
	</g>
</g>
</svg>
