<svg xmlns="http://www.w3.org/2000/svg" viewBox="0 0 90.709 90.709"><circle cx="45.354" cy="45.355" r="43.52" fill="#194093"/><path d="M45.354 2.835c23.483 0 42.52 19.037 42.52 42.52s-19.037 42.52-42.52 42.52-42.52-19.037-42.52-42.52 19.037-42.52 42.52-42.52m0-2C20.806.835.834 20.806.834 45.355s19.971 44.52 44.52 44.52 44.52-19.971 44.52-44.52S69.903.835 45.354.835h0z" fill="#252e78"/><path d="M57.519 42.34l1.012 1.759 6.736-3.891-7.123-11.398zm-26.3-11.686l-3.024 5.081c1.468.911 2.839 1.996 4.107 3.225l-1.083-8.306zm24.926 41.699c-.23.145-2.53 1.746-3.748 1.702-1.277-.045-3.077-1.615-3.459-2.379l-2.915.602c-.018.301-.146 7.465-.213 11.332 4.128-.049 8.096-.752 11.811-2.009l.092-3.63c-.763-2.101-1.203-4.077-1.494-5.673-.024.017-.049.039-.074.055zM39.183 48.932l10.245.496c1.542.068 3.695-.312 6.12-.571l.953-20.607-5.284-1.225c-1.652 1.681-3.79 2.807-5.613 2.807-1.793 0-3.892-1.084-5.53-2.711l-7.277 2.743 1.461 11.2c1.956 2.324 3.61 4.999 4.925 7.868z" fill="#f8c409"/><g fill="#fff"><path d="M35.187 71.475l-1.768-.569c-.07.045-.13.105-.203.146a3.47 3.47 0 0 1-1.697.457 3.35 3.35 0 0 1-.776-.096l.612 9.555c1.487.585 3.015 1.086 4.586 1.484l-.648-10.132c-.016-.273-.052-.555-.106-.845zm22.683-.759l-.129.164c.38 2.296 1.081 6.01 2.96 9.532l.065-.029c-1.149-2.273-2.171-4.804-2.531-7.14l-.365-2.527zm-13.465.09l-.069.714.069-.714zm-.301 10.611l-.002.098.002-.098zm.12-6.94l-.011.663.011-.663zm.076-2.562l-.055 1.241.055-1.241zm.114-1.169c.61-.017 2.172-.348 4.018-.745l-.024-.158c-1.242.359-2.55.701-3.994.895zm-6.699 12.112h0l-.068-1.052.068 1.052zm-1.081-12.794l-1.702-.567-.113-.043-.049.085 1.864.525zm.495 3.647l.019.299-.019-.299zm-.234-2.586c.067.353.116.716.14 1.086-.024-.37-.073-.733-.14-1.086zm-.249-1.023l.234.952-.234-.952zm42.567-15.744c-1.658-2.297-4.896-3.322-7.421-3.48-.028.069-.051.138-.091.206l-1.014 2.15.234.006c1.639.188 2.959 2.295 3.093 4.065.399 5.255 2.068 7.487 3.763 8.368.811-1.291 1.549-2.632 2.204-4.021.287-2.112.859-5.039-.768-7.294z"/><path d="M59.608 67.78c-.327.892-.979 1.993-1.739 2.936l.364 2.526c.36 2.336 1.382 4.867 2.531 7.14 2.481-1.093 4.823-2.442 6.995-4.013l-.171-1.514c-.086-2.431.982-2.725 2.976-6.378 2.033-3.724 2.211-8 2.205-9.484l-.003-.243-.009-.299-.011.005c-.118-1.852-.857-3.625-2.099-5.146-1.916 3.753-5.851 10.274-11.039 14.47zM44.104 81.417l.108-6.277.011-.663.022-1.321.055-1.241.036-.395.069-.714.008-.061c1.445-.202 2.752-.545 3.995-.903-.126-1.23.15-2.599.988-3.921.861-1.359 2.996-2.512 4.763-3.28 1.129-1.318 3.552-5.609 5.034-8.235l2.005-3.477-1.362-2.287a28.54 28.54 0 0 0-2.612.065l-1.676.149-6.12.571-10.245-.495c-1.315-2.868-2.968-5.543-4.924-7.866a28.38 28.38 0 0 0-1.956-2.106c-1.268-1.229-2.64-2.314-4.107-3.225l-1.453-.819-1.88-.87s-.134-6.814-2.771-6.814l-2.342 6.514c-3.791 1.495-4.931 5.437-7.525 9.177l-3.872 5.654c-.762 1.141-1.821 6.489 4.321 5.737 1.552-.19 2.951-2.051 2.848-3.717 6.765-1.037 6.154-1.823 7.574-3.804.673.582.882 3.853.98 6.582.66-.002 1.28.278 1.857.829a1.72 1.72 0 0 1 .196.222l4.151 5.605c1.709.869 3.743 2.134 4.516 3.527.769 1.387 1.008 2.937.673 4.363-.132.561-.365 1.069-.649 1.532l.113.043c.588.219 1.152.402 1.701.564l.013.041a10.68 10.68 0 0 1 .234.952l.015.071c.067.353.116.716.14 1.086l.095 1.5.019.299.5 7.796.068 1.052a38.36 38.36 0 0 0 6.351.732l.036-2.074c-.002-.033-.001-.065-.001-.098zM24.728 55.465c-1.995-1.908-1.631 4.482 1.34 8.422.065.85 1.395 3.396 2.632 4.281 1.41 1.009 2.361 2.085 3.67 1.359s2.127-2.913.901-5.123c-.679-1.223-3.223-2.549-4.143-2.999l-4.4-5.94zm38.524-4.422c.048-.074-3.315-5.604-3.315-5.604l5.907-3.443 4.321 8.237c-.833 2.102-5.539 11.483-12.074 16.524-.114.845-1.589 3.31-2.876 4.121-1.466.925-2.478 1.945-3.743 1.144s-1.955-3.031-.602-5.166c.749-1.182 3.366-2.357 4.31-2.753 1.994-1.937 7.394-12.557 8.072-13.06zM53.169 15.911c0 1.544-.999 3.396-.999 5.31 0 3.403-3.931 6.867-6.565 6.867-2.611 0-6.54-3.412-6.54-6.786 0-1.908-1.024-3.825-1.024-5.392 0-4.178 3.387-7.565 7.565-7.565s7.563 3.388 7.563 7.566z"/></g></svg>