<?xml version="1.0" encoding="iso-8859-1"?>
<!-- Generator: Adobe Illustrator 22.1.0, SVG Export Plug-In . SVG Version: 6.00 Build 0)  -->
<svg version="1.1" xmlns="http://www.w3.org/2000/svg" xmlns:xlink="http://www.w3.org/1999/xlink" x="0px" y="0px"
	 viewBox="0 0 90.709 90.709" style="enable-background:new 0 0 90.709 90.709;" xml:space="preserve">
<g id="ratownik-1">
	<g>
		<g>
			<circle style="fill:#194093;" cx="45.354" cy="45.355" r="43.52"/>
			<g>
				<path style="fill:#252E78;" d="M45.354,2.835c23.483,0,42.52,19.037,42.52,42.52s-19.037,42.52-42.52,42.52
					s-42.52-19.037-42.52-42.52S21.871,2.835,45.354,2.835 M45.354,0.835c-24.548,0-44.52,19.971-44.52,44.52
					s19.971,44.52,44.52,44.52s44.52-19.971,44.52-44.52S69.903,0.835,45.354,0.835L45.354,0.835z"/>
			</g>
		</g>
	</g>
</g>
<g id="elementy">
	<g>
		<g>
			<path style="fill:#FFFFFF;" d="M64.847,78.169c0.015,0.005,0.026,0.009,0.026,0.009S64.864,78.175,64.847,78.169z"/>
			<path style="fill:#FFFFFF;" d="M64.851,55.338c-1.562-0.729-2.841-0.832-3.591-0.805c-0.694-4.529-3.26-8.624-3.977-11.168
				c-0.815-2.892-1.675-12.411-1.675-12.411h0c-0.515-2.814-0.515-6.886-2.336-13.795c0-0.001,0-0.001,0.001-0.002
				c-0.886-3.071-2.338-5.916-4.31-8.218l2.756-1.377l-5.959-0.554c-2.959-0.321-5.036,1.84-7.984,3.377
				c-1.543,0.805-3.219,1.685-4.424,2.34c-0.88,0.479-3.382,3.577,0.845,5.178c1.068,0.404,2.042-2.032,3.104-1.435
				c5.294,2.971,6.535,0.632,6.672,0.889c0.942,1.763,0.79,3.474-0.094,5.344c-0.845,0.476-8.342,5.783-8.342,5.783l-3.962-5.687
				c-0.475-0.518-1.13-0.789-1.792-0.789c-0.439,0-0.881,0.119-1.276,0.364c-2.429,1.506-6.609,4.097-6.788,4.193
				c-1.057,0.569-0.728,0.104-2.214,1.012c-0.857,0.524-1.22,2.138-1.22,2.138l4.117,1.125l1.23-1.743
				c0.164,0.04,0.345,0.067,0.535,0.067c0.382,0,0.803-0.11,1.206-0.452c0.842-0.715,4.026-2.213,4.026-2.213l3.907,8.185
				c0.599,1.256,1.865,2.033,3.233,2.033c0.088,0,0.176-0.003,0.265-0.01c0.229,2.384,0.768,4.808,1.692,6.841
				c1.818,3.999,4.597,7.375,6.422,9.529c-2.014,1.841-5.718,5.676-5.129,8.513c0.803,3.863,5.457,8.313,5.457,8.313
				s-1.736,5.952-2.032,6.778c-0.506,1.41-0.77,2.086-1.662,2.785c-0.253,0.198-0.506,0.374-0.745,0.518
				c-1.474,0.891-1.474,3.253-1.474,3.253h3.694c0,0,0.616-1.501,0.967-2.089c0.037,0.016,0.076,0.037,0.112,0.052
				c0.48-0.574,1.355,0.088,2.183-1.467c0.252-0.473,2.571-5.566,4.015-8.747c0.692-1.523,0.366-3.308-0.81-4.497
				c-0.772-0.78-1.518-1.553-1.698-1.802c-0.201-0.278-0.343-0.532-0.451-0.774c1.708,0.742,7.667,1.362,7.794,1.362
				c3.646,0,6.216-3.505,6.288-8.313c0.711,0.129,2.192,0.509,3.177,1.552c1.336,1.414,0.422,5.027-0.295,6.016
				c-7.722,10.648,0.034,13.474,0.539,13.644c-0.179-0.063-1.28-0.571-0.064-3.36c0.83-1.902,6.109-4.402,6.452-8.996
				C71.578,61.22,67.37,56.514,64.851,55.338z"/>
			<path style="fill:#FFFFFF;" d="M28.344,28.969c-1.463,2.44-3.364,5.607-3.463,5.751c-0.679,0.99-0.6,0.426-1.504,1.913
				c-0.522,0.858-0.105,2.46-0.105,2.46l4.175-0.885l0.295-2.113c0.492-0.119,1.07-0.407,1.372-1.14
				c0.2-0.486,0.791-1.372,1.355-2.168l-1.883-3.945C28.502,28.886,28.426,28.927,28.344,28.969z"/>
			<path style="fill:#FFFFFF;" d="M51.368,66.688c1.403,1.859,2.816,3.213,2.816,3.213s-1.736,5.952-2.032,6.778
				c-0.506,1.41-0.77,2.086-1.662,2.785c-0.253,0.198-0.506,0.374-0.745,0.518c-1.474,0.891-1.474,3.253-1.474,3.253h3.694
				c0,0,0.616-1.501,0.967-2.089c0.037,0.016,0.076,0.037,0.112,0.052c0.48-0.574,1.355,0.088,2.183-1.467
				c0.252-0.473,2.571-5.566,4.015-8.747c0.692-1.523,0.366-3.308-0.81-4.497C58.368,66.422,56.36,67.566,51.368,66.688z"/>
		</g>
		<path style="fill:#F8C409;" d="M56.476,37.922c-0.785-3.665-0.512-9.196-0.512-9.196s-4.57,1.434-7.191,2.02
			c-2.621,0.587-4.585,1.944-4.086,6.235c0.08,0.691,0.166,1.308,0.257,1.875c-1.29,0.537-3.142,1.283-3.993,1.503
			c-1.374,0.356-3.839,0.501-3.839,0.501l1.295,3.263c0,0,1.543,0.191,3.954-0.369c1.089-0.253,2.4-0.826,3.415-1.321
			c0.267,0.786,0.546,1.386,0.824,1.933c1.079,2.114,2.513,2.382,5.57,1.792s6.424-1.805,6.424-1.805S57.261,41.587,56.476,37.922z"
			/>
	</g>
</g>
</svg>
