<svg xmlns="http://www.w3.org/2000/svg" viewBox="0 0 90.709 90.709"><circle cx="45.354" cy="45.355" r="43.52" fill="#194093"/><path d="M45.354 2.835c23.483 0 42.52 19.037 42.52 42.52s-19.037 42.52-42.52 42.52-42.52-19.037-42.52-42.52 19.037-42.52 42.52-42.52m0-2C20.806.835.834 20.806.834 45.355s19.971 44.52 44.52 44.52 44.52-19.971 44.52-44.52S69.903.835 45.354.835h0z" fill="#252e78"/><g fill="#fff"><path d="M64.847 78.169l.026.009-.026-.009z"/><path d="M64.851 55.338c-1.562-.729-2.841-.832-3.591-.805-.694-4.529-3.26-8.624-3.977-11.168-.815-2.892-1.675-12.411-1.675-12.411h0c-.515-2.814-.515-6.886-2.336-13.795-.885-3.073-2.337-5.918-4.309-8.22l2.756-1.377-5.959-.554c-2.959-.321-5.036 1.84-7.984 3.377l-4.424 2.34c-.88.479-3.382 3.577.845 5.178 1.068.404 2.042-2.032 3.104-1.435 5.294 2.971 6.535.632 6.672.889.942 1.763.79 3.474-.094 5.344-.845.476-8.342 5.783-8.342 5.783l-3.962-5.687a2.43 2.43 0 0 0-1.792-.789c-.439 0-.881.119-1.276.364l-6.788 4.193c-1.057.569-.728.104-2.214 1.012-.857.524-1.22 2.138-1.22 2.138l4.117 1.125 1.23-1.743c.164.04.345.067.535.067.382 0 .803-.11 1.206-.452.842-.715 4.026-2.213 4.026-2.213l3.907 8.185c.599 1.256 1.865 2.033 3.233 2.033a3.37 3.37 0 0 0 .265-.01c.229 2.384.768 4.808 1.692 6.841 1.818 3.999 4.597 7.375 6.422 9.529-2.014 1.841-5.718 5.676-5.129 8.513.803 3.863 5.457 8.313 5.457 8.313l-2.032 6.778c-.506 1.41-.77 2.086-1.662 2.785a7.55 7.55 0 0 1-.745.518c-1.474.891-1.474 3.253-1.474 3.253h3.694s.616-1.501.967-2.089c.037.016.076.037.112.052.48-.574 1.355.088 2.183-1.467.252-.473 2.571-5.566 4.015-8.747.692-1.523.366-3.308-.81-4.497-.772-.78-1.518-1.553-1.698-1.802a4.29 4.29 0 0 1-.451-.774c1.708.742 7.667 1.362 7.794 1.362 3.646 0 6.216-3.505 6.288-8.313.711.129 2.192.509 3.177 1.552 1.336 1.414.422 5.027-.295 6.016-7.722 10.648.034 13.474.539 13.644-.179-.063-1.28-.571-.064-3.36.83-1.902 6.109-4.402 6.452-8.996s-3.866-9.304-6.385-10.48zM28.344 28.969l-3.463 5.751c-.679.99-.6.426-1.504 1.913-.522.858-.105 2.46-.105 2.46l4.175-.885.295-2.113c.492-.119 1.07-.407 1.372-1.14.2-.486.791-1.372 1.355-2.168l-1.883-3.945-.242.127zm23.024 37.719c1.403 1.859 2.816 3.213 2.816 3.213l-2.032 6.778c-.506 1.41-.77 2.086-1.662 2.785a7.55 7.55 0 0 1-.745.518c-1.474.891-1.474 3.253-1.474 3.253h3.694l.967-2.089.112.052c.48-.574 1.355.088 2.183-1.467.252-.473 2.571-5.566 4.015-8.747.692-1.523.366-3.308-.81-4.497-.064-.065-2.072 1.079-7.064.201z"/></g><path d="M56.476 37.922c-.785-3.665-.512-9.196-.512-9.196l-7.191 2.02c-2.621.587-4.585 1.944-4.086 6.235l.257 1.875-3.993 1.503c-1.374.356-3.839.501-3.839.501l1.295 3.263s1.543.191 3.954-.369c1.089-.253 2.4-.826 3.415-1.321a14.11 14.11 0 0 0 .824 1.933c1.079 2.114 2.513 2.382 5.57 1.792s6.424-1.805 6.424-1.805-1.333-2.766-2.118-6.431z" fill="#f8c409"/></svg>