<svg xmlns="http://www.w3.org/2000/svg" viewBox="0 0 90.709 90.709"><circle cx="45.354" cy="45.354" r="43.52" fill="#194093"/><path d="M45.354 2.835c23.483 0 42.52 19.037 42.52 42.52s-19.037 42.52-42.52 42.52-42.52-19.037-42.52-42.52 19.037-42.52 42.52-42.52m0-2C20.806.835.834 20.806.834 45.355s19.971 44.52 44.52 44.52 44.52-19.971 44.52-44.52S69.903.835 45.354.835h0z" fill="#252e78"/><path d="M68.19 73.24l-8.685-22.831-4.929 1.106 8.94 23.502a2.5 2.5 0 0 0 3.226 1.448 2.5 2.5 0 0 0 1.448-3.225z" fill="#f8c409"/><path d="M65.853 48.379S65.732 26.93 42.76 18.268L33.967 8.177l.955 9.337c-5.91 2.081-7.888 8.073-12.087 13.673l-6.272 8.467c-1.236 1.71-3.169 9.868 6.313 9.063 2.396-.204 4.651-2.984 4.588-5.549 10.455-1.208 12.15-1.677 11.856-5.412.7 8.896 2.177 15.921 15.256 13.76 1.487-.246 3.126-.612 4.929-1.106a86.65 86.65 0 0 0 6.348-2.031zM32.101 31.903c-1.566 0-2.835-1.269-2.835-2.835s1.269-2.835 2.835-2.835 2.835 1.269 2.835 2.835-1.27 2.835-2.835 2.835z" fill="#fff"/><path d="M61.76 32.305a1.5 1.5 0 0 0-1.65-1.333 1.5 1.5 0 0 0-1.332 1.651c1.153 10.826-6.974 17.702-15.599 18.899-5.294.735-11.894-.805-13.052-7.564a1.49 1.49 0 0 0-.683-1.011l-1.63-1.381 7.662-5.06 2.082 4.403a1.5 1.5 0 0 0 1.357.859 1.48 1.48 0 0 0 .641-.145 1.5 1.5 0 0 0 .715-1.997l-2.443-5.167c1.877-2.569 3.412-5.109 4.532-7.558.035-.078.064-.158.086-.24l2.044-7.727a1.5 1.5 0 1 0-2.9-.768l-1.354 5.119-5.262-5.906a1.5 1.5 0 1 0-2.24 1.996l6.432 7.219c-1.062 2.138-2.43 4.348-4.115 6.597l-9.645 6.37-5.421-4.509a1.5 1.5 0 0 0-1.918 2.306l9.229 7.676c1.302 6.008 6.457 9.666 13.373 9.666.943 0 1.921-.068 2.924-.208 9.808-1.359 19.509-9.599 18.167-22.187z" fill="#f8c409"/></svg>