<?xml version="1.0" encoding="iso-8859-1"?>
<!-- Generator: Adobe Illustrator 22.1.0, SVG Export Plug-In . SVG Version: 6.00 Build 0)  -->
<svg version="1.1" xmlns="http://www.w3.org/2000/svg" xmlns:xlink="http://www.w3.org/1999/xlink" x="0px" y="0px"
	 viewBox="0 0 90.709 90.709" style="enable-background:new 0 0 90.709 90.709;" xml:space="preserve">
<g id="ratownik-1">
	<g>
		<g>
			<path style="fill:#194093;" d="M45.354,88.874c-23.997,0-43.52-19.522-43.52-43.52S21.357,1.834,45.354,1.834
				s43.52,19.523,43.52,43.521S69.351,88.874,45.354,88.874z"/>
			<g>
				<path style="fill:#252E78;" d="M45.354,2.835c23.483,0,42.52,19.037,42.52,42.52s-19.037,42.52-42.52,42.52
					s-42.52-19.037-42.52-42.52S21.871,2.835,45.354,2.835 M45.354,0.835c-24.548,0-44.52,19.971-44.52,44.52
					s19.971,44.52,44.52,44.52s44.52-19.971,44.52-44.52S69.903,0.835,45.354,0.835L45.354,0.835z"/>
			</g>
		</g>
	</g>
</g>
<g id="elementy">
	<g>
		<path style="fill:#FFFFFF;" d="M77.883,60.426c0.549-2.196,5.779-5.842,5.318-10.848c-0.462-5.006-5.84-9.309-8.765-10.12
			c-1.14-0.316-2.109-0.383-2.876-0.35c-1.308-1.56-3.32-2.845-5.845-3.593c-3.903-1.157-8.127-0.677-11.463-0.32l2.388,9.681
			c0.077,0.312,0.078,0.637,0.002,0.949l-2.119,8.768c0.411-0.111,0.806-0.225,1.166-0.343l4.717,9.743c0,0-7.526,5.509-7.914,5.961
			c-0.464,0.542-0.72,1.021-0.841,1.504c-0.299,1.197,0.049,3.433,0.14,3.497c1.28-0.512,2.631-1.082,3.938-1.519
			c-0.093-0.607-0.399-1.463-0.525-1.803l7.549-3.943c1.425-0.71,2.12-2.351,1.636-3.867c-0.282-0.885-0.585-1.843-0.83-2.644
			c1.536,2.181,3.282,3.854,3.282,3.854s-1.732,5.94-2.028,6.764c-0.505,1.407-0.769,2.082-1.658,2.779
			c0.007,0.005,0.016,0.013,0.023,0.018c-0.244,0.19-0.487,0.36-0.717,0.499c-1.471,0.889-1.471,3.246-1.471,3.246h3.686
			c0,0,0.603-1.469,0.954-2.067c0.024,0.01,0.049,0.024,0.073,0.034c0.479-0.572,1.352,0.088,2.178-1.464
			c0.368-0.692,2.334-5.681,3.429-8.48c0.442-1.13,0.065-2.303-0.654-3.28c-1.34-1.82-2.063-5.38-1.529-6.469
			c0.534-1.089,1.347-2.451,2.55-5.484c0.776-1.957,1.176-4.623,1.363-6.272c0.24-0.925,0.239-1.848,0.044-2.741
			c0.564,0.164,1.146,0.415,1.659,0.802c1.693,1.281,1.362,5.334,0.77,6.527c-6.388,12.859,2.478,14.496,3.046,14.587
			C78.358,63.997,77.077,63.651,77.883,60.426z"/>
		<path style="fill:#FFFFFF;" d="M34.066,44.885l2.869-11.872c-0.103-0.023-0.163-0.037-0.163-0.037l0,0
			c-0.804-0.563-1.941-1.334-3.272-2.164c-1.949-1.387-4.037-2.53-6.195-3.36c-0.424-0.191-0.849-0.38-1.272-0.549l-0.046,0.077
			c-2.893-0.923-5.875-1.261-8.771-0.794l-2.922-3.613l-0.7,5.497c-1.983,2.572-1.152,5.736-1.398,9.356
			c-0.128,1.895-0.263,3.956-0.338,5.452c-0.055,1.092,1.406,5.185,5.302,2.159c0.984-0.765,1.181-2.61,0.43-3.707
			c4.166-3.443,3.48-3.76,3.625-5.647c1.007,0.96,2.105,3.151,2.278,4.089c0.442,2.391,0.695,3.867,1.336,6.108
			c0.612,2.142,1.466,3.588,2.158,4.495l-5.86,8.153c-0.68,0.946-0.594,2.24,0.21,3.084c1.967,2.066,5.35,5.622,5.48,5.776
			c0.772,0.917,0.25,0.69,1.44,1.956c0.687,0.731,2.338,0.756,2.338,0.756l0.26-4.251l-1.953-0.846
			c0.016-0.505-0.107-1.137-0.731-1.623c-0.87-0.677-2.983-3.481-2.983-3.481l6.696-5.756c0.457,6.197,1.231,16.814,1.231,17.628
			c0,1.875-1.135,2.938-1.889,3.631l0,0h0c-0.213,0.196-0.398,0.364-0.516,0.511c-0.935,1.162-0.935,2.425-0.935,2.425h4.045
			c0,0,0.09-0.844,0.566-1.399c0.061-0.071,2.286-1.944,2.286-3.362c0-0.534,0.293-8.444,0.539-15.011l-3.141-12.732
			C33.991,45.522,33.991,45.196,34.066,44.885z"/>
		<path style="fill:none;stroke:#FFFFFF;stroke-width:0;stroke-linecap:round;stroke-linejoin:round;" d="M78.56,64.031
			c0.017,0.003,0.029,0.004,0.029,0.004"/>
		<g>
			<path style="fill:#F8C409;" d="M18.884,40.232l0.428-14.23c0.021-0.662-0.501-1.216-1.163-1.235
				c-0.673-0.057-1.216,0.5-1.235,1.163l-0.076,2.525l-3.175-1.082c-0.629-0.217-1.31,0.122-1.522,0.749
				c-0.214,0.627,0.121,1.309,0.749,1.522l3.873,1.32l-0.27,8.961l-4.287-0.731c-0.659-0.112-1.273,0.328-1.385,0.98
				c-0.111,0.653,0.327,1.273,0.98,1.385l5.647,0.962c0.753,0.09,1.61,0.135,2.541,0.135c4.694,0,11.23-1.149,15.457-3.483
				l0.861-3.564C36.22,35.696,30.478,40.113,18.884,40.232z"/>
		</g>
	</g>
	<g>
		<path style="fill:#F8C409;" d="M36.01,45.354h3.675c0-3.131,2.538-5.669,5.669-5.669c3.131,0,5.669,2.538,5.669,5.669h3.675
			L45.257,7.087L36.01,45.354z"/>
		<path style="fill:#FFFFFF;" d="M45.354,51.024c-3.131,0-5.669-2.538-5.669-5.669H36.01l9.441,38.268l9.247-38.268h-3.675
			C51.024,48.485,48.485,51.024,45.354,51.024z"/>
	</g>
</g>
</svg>
