<svg xmlns="http://www.w3.org/2000/svg" viewBox="0 0 90.709 90.709"><path d="M45.354 88.874c-23.997 0-43.52-19.522-43.52-43.52s19.523-43.52 43.52-43.52 43.52 19.523 43.52 43.521-19.523 43.519-43.52 43.519z" fill="#194093"/><path d="M45.354 2.835c23.483 0 42.52 19.037 42.52 42.52s-19.037 42.52-42.52 42.52-42.52-19.037-42.52-42.52 19.037-42.52 42.52-42.52m0-2C20.806.835.834 20.806.834 45.355s19.971 44.52 44.52 44.52 44.52-19.971 44.52-44.52S69.903.835 45.354.835h0z" fill="#252e78"/><path d="M77.883 60.426c.549-2.196 5.779-5.842 5.318-10.848s-5.84-9.309-8.765-10.12c-1.14-.316-2.109-.383-2.876-.35-1.308-1.56-3.32-2.845-5.845-3.593-3.903-1.157-8.127-.677-11.463-.32l2.388 9.681a1.99 1.99 0 0 1 .002.949l-2.119 8.768a23.31 23.31 0 0 0 1.166-.343l4.717 9.743-7.914 5.961c-.464.542-.72 1.021-.841 1.504-.299 1.197.049 3.433.14 3.497 1.28-.512 2.631-1.082 3.938-1.519-.093-.607-.399-1.463-.525-1.803l7.549-3.943c1.425-.71 2.12-2.351 1.636-3.867l-.83-2.644c1.536 2.181 3.282 3.854 3.282 3.854l-2.028 6.764c-.505 1.407-.769 2.082-1.658 2.779.007.005.016.013.023.018a7.51 7.51 0 0 1-.717.499c-1.471.889-1.471 3.246-1.471 3.246h3.686s.603-1.469.954-2.067c.024.01.049.024.073.034.479-.572 1.352.088 2.178-1.464.368-.692 2.334-5.681 3.429-8.48.442-1.13.065-2.303-.654-3.28-1.34-1.82-2.063-5.38-1.529-6.469s1.347-2.451 2.55-5.484c.776-1.957 1.176-4.623 1.363-6.272.24-.925.239-1.848.044-2.741.564.164 1.146.415 1.659.802 1.693 1.281 1.362 5.334.77 6.527-6.388 12.859 2.478 14.496 3.046 14.587-.201-.035-1.482-.381-.676-3.606zM34.066 44.885l2.869-11.872-.163-.037h0L33.5 30.812c-1.949-1.387-4.037-2.53-6.195-3.36l-1.272-.549-.046.077c-2.893-.923-5.875-1.261-8.771-.794l-2.922-3.613-.7 5.497c-1.983 2.572-1.152 5.736-1.398 9.356l-.338 5.452c-.055 1.092 1.406 5.185 5.302 2.159.984-.765 1.181-2.61.43-3.707 4.166-3.443 3.48-3.76 3.625-5.647 1.007.96 2.105 3.151 2.278 4.089l1.336 6.108c.612 2.142 1.466 3.588 2.158 4.495l-5.86 8.153a2.42 2.42 0 0 0 .21 3.084l5.48 5.776c.772.917.25.69 1.44 1.956.687.731 2.338.756 2.338.756l.26-4.251-1.953-.846c.016-.505-.107-1.137-.731-1.623-.87-.677-2.983-3.481-2.983-3.481l6.696-5.756 1.231 17.628c0 1.875-1.135 2.938-1.889 3.631h0 0l-.516.511c-.935 1.162-.935 2.425-.935 2.425h4.045s.09-.844.566-1.399c.061-.071 2.286-1.944 2.286-3.362 0-.534.293-8.444.539-15.011L34.07 45.834a1.98 1.98 0 0 1-.004-.949z" fill="#fff"/><path d="M18.884 40.232l.428-14.23a1.2 1.2 0 0 0-1.163-1.235c-.673-.057-1.216.5-1.235 1.163l-.076 2.525-3.175-1.082c-.629-.217-1.31.122-1.522.749a1.2 1.2 0 0 0 .749 1.522l3.873 1.32-.27 8.961-4.287-.731c-.659-.112-1.273.328-1.385.98a1.2 1.2 0 0 0 .98 1.385l5.647.962c.753.09 1.61.135 2.541.135 4.694 0 11.23-1.149 15.457-3.483l.861-3.564c-.087.087-5.829 4.504-17.423 4.623zm17.126 5.122h3.675a5.67 5.67 0 0 1 5.669-5.669 5.67 5.67 0 0 1 5.669 5.669h3.675L45.257 7.087 36.01 45.354z" fill="#f8c409"/><path d="M45.354 51.024a5.67 5.67 0 0 1-5.669-5.669H36.01l9.441 38.268 9.247-38.268h-3.675a5.67 5.67 0 0 1-5.669 5.669z" fill="#fff"/></svg>