<svg xmlns="http://www.w3.org/2000/svg" viewBox="0 0 90.709 90.709"><path d="M45.354 88.874c-23.997 0-43.52-19.522-43.52-43.52s19.523-43.52 43.52-43.52 43.52 19.523 43.52 43.521-19.523 43.519-43.52 43.519z" fill="#194093"/><path d="M45.354 2.835c23.483 0 42.52 19.037 42.52 42.52s-19.037 42.52-42.52 42.52-42.52-19.037-42.52-42.52 19.037-42.52 42.52-42.52m0-2C20.806.835.834 20.806.834 45.355s19.971 44.52 44.52 44.52 44.52-19.971 44.52-44.52S69.903.835 45.354.835h0z" fill="#252e78"/><path d="M41.292 53.353l1.513-2.46-1.376-2.755c-3.717-.468-4.646-2.587-4.792-5.177-.115-2.042-.006-5.562.062-7.311-.074.01-.142.015-.201.015-.185 0-.317-.042-.49-.096a1.99 1.99 0 0 1-1.169-1.007c-.215-.074-.447-.137-.693-.192l-.17-.111-13.373 5.323c.987.991 2.005 2.642 2.239 3.437l1.976 5.984c.766 1.906 1.672 3.203 2.424 4.053l-4.92 6.845a2.44 2.44 0 0 0 .212 3.108l5.523 5.821c.778.924.252.695 1.451 1.971.692.736 2.356.762 2.356.762l.262-4.285-1.969-.853c.017-.509-.108-1.146-.737-1.635-.877-.682-3.006-3.509-3.006-3.509l6.41-5.51.71.15 1.087 15.681c0 1.89-2.305 4.026-2.424 4.174-.943 1.171-.943 2.444-.943 2.444h4.077s.091-.85.57-1.41c.061-.072 2.304-1.96 2.304-3.388 0-.585.349-9.956.607-16.822.918.065 1.838.098 2.748.116-.12-.143-.243-.283-.337-.45-.513-.919-.487-2.008.069-2.913zm34.533 6.816c.553-2.214 5.825-5.888 5.359-10.933s-5.886-9.382-8.833-10.2c-.028-.008-2.138-3.714-7.629-4.683-4.01-.707-8.161.179-11.453.87.104.585.666 3.867.745 6.808.087 3.242-.432 4.67-2.788 5.42-.555.177-1.284.353-2.191.497.141.538.274.998.364 1.18a35.69 35.69 0 0 1 1.202 2.576 2 2 0 0 1-.704 2.416l-3.55 2.464c4.5-.359 7.77-1.325 10.029-2.301l4.589 9.479-7.976 6.008c-.468.546-.726 1.029-.848 1.515-.302 1.207.049 3.46.141 3.524 1.29-.516 2.651-1.091 3.969-1.531-.094-.612-.402-1.475-.529-1.817l7.608-3.974a3.25 3.25 0 0 0 1.649-3.898l-.764-2.428a29.83 29.83 0 0 0 2.879 3.292L65.05 71.27c-.509 1.418-1.543 2.759-2.456 3.322-1.475.909-1.482 3.271-1.482 3.271h3.715l1.38-2.237c.503-.229 1.235.03 1.936-1.288.371-.697 2.352-5.726 3.456-8.546.446-1.139.066-2.321-.659-3.306-1.351-1.835-2.079-5.423-1.541-6.52s1.358-2.47 2.57-5.527c.892-2.249 1.292-5.428 1.441-6.954.827 1.736.516 4.632.029 5.613-6.44 12.964 2.503 14.611 3.071 14.701-.204-.031-1.498-.377-.685-3.63zM11.501 47.344c.058 1.101 1.95 5.051 5.54 1.612.907-.869.912-2.739.044-3.761 3.379-3.439 3.203-4.029 3.082-5.441l-8.843 3.52.177 4.07zm3.632-17.291l-3.305-3.317-.129 5.583c-1.544 2.5-.767 5.242-.497 8.42l20.19-8.036c-5.172-2.796-11-4.067-16.259-2.65z" fill="#fff"/><path d="M50.353 38.844l-.696.684c-.519.544-1.324 1.301-2.401 2.259.202.448.414.966.618 1.582.216.655.448 1.637.695 2.677l.467 1.903c.907-.144 1.636-.32 2.191-.497 2.356-.75 2.875-2.178 2.788-5.42-.079-2.942-.642-6.224-.745-6.808l-.018-.101-.463.089c-.478 1.771-1.539 2.78-2.436 3.632zm-13.716 4.117c.146 2.59 1.075 4.709 4.792 5.177-.101-.185-2.541-5.325-2.585-5.443l-.032-.093c-.439-1.397-.494-2.566.53-4.408l1.803-3.227-1.805-.15-2.641.833-.062 7.311zm14.339-15.469l20.203-8.041a1.2 1.2 0 0 0 .672-1.559c-.246-.617-.945-.913-1.559-.672L51.9 24.541l-.014.06-.91 2.891zm-16.331 6.5c-.221-.898-.156-1.812.149-2.643L7.809 42.09a1.2 1.2 0 0 0 .443 2.316 1.19 1.19 0 0 0 .443-.085l25.95-10.329z" fill="#f8c409"/><path d="M43.472 12.666c-.172 1.113-.208 2.61-.176 2.926.07.682 1.124 2.211 1.798 2.211.043 0 .085-.006.124-.019.315-.104.749-.256 1.177-.543.128.401.219 1.281.251 1.966.694-.642 1.456-.816 2.076-.816.199 0 .4.023.601.06l-.942-2.363-.056-.081c.119-.034.241-.094.361-.198.445-.385.803-.981.981-1.653-2.327-1.303-4.549-1.562-6.195-1.49z" fill="#fff"/><path d="M50.018 11.635c.479.229.961.501 1.446.805a4.77 4.77 0 0 0-1.105-2.365l-.341 1.56zm-6.147-1.371l.265-1.21c-.673.352-1.241.805-1.622 1.282a14.02 14.02 0 0 1 1.357-.072z" fill="#194093"/><path d="M49.771 30.332c-.367.522-.556.774-5.148 2.518l-3.532 6.315c-.727 1.309-.667 1.891-.37 2.837 0 0 .997 2.7 2.143 4.61.79 1.317 2.209 4.41 2.209 4.41L42.996 54.4c-.398.648.128 1.362.757 1.362.167 0 .341-.05.507-.166l4.495-3.12-1.118-2.4c-.509-.946-1.197-4.664-1.664-6.083-.401-1.218-.846-2.005-1.181-2.708l3.417-3.138c1.411-1.479 2.827-2.204 2.832-4.984a2.46 2.46 0 0 0-.058-.503c.291-.101.551-.213.761-.341-.539-1.38-1.098-3.661-1.118-3.856-.305.812-.612 1.523-.855 1.869zm-1.636-1.15c.352-.501 1.399-3.536 1.82-5.1.341-1.27.64-3.055-.669-3.573-.208-.082-.395-.118-.563-.118-.884 0-1.23.997-1.394 1.399-.464 1.137-1.272 4.983-1.272 4.983l-8.096 3.82c-1.152.544-1.728 1.852-1.35 3.069h0s11.172-3.979 11.524-4.48zm-4.663-16.516c1.646-.072 3.868.187 6.197 1.49a26.87 26.87 0 0 1 2.141 1.494 1.2 1.2 0 1 0 1.56-1.824c-.634-.543-2.874-1.962-3.353-2.191l.457-2.088a1.48 1.48 0 0 0-1.13-1.763l-3.26-.713a1.48 1.48 0 0 0-1.763 1.13l-.451 2.062-1.357.072c-1.507.159-2.486.507-2.59.546-.619.23-.934.918-.705 1.538a1.2 1.2 0 0 0 1.538.713c.053-.019 1.99-.434 2.716-.466z" fill="#f8c409"/></svg>