<?xml version="1.0" encoding="iso-8859-1"?>
<!-- Generator: Adobe Illustrator 22.1.0, SVG Export Plug-In . SVG Version: 6.00 Build 0)  -->
<svg version="1.1" xmlns="http://www.w3.org/2000/svg" xmlns:xlink="http://www.w3.org/1999/xlink" x="0px" y="0px"
	 viewBox="0 0 90.709 90.709" style="enable-background:new 0 0 90.709 90.709;" xml:space="preserve">
<g id="ratownik-1">
	<g>
		<g>
			<path style="fill:#194093;" d="M45.354,88.874c-23.997,0-43.52-19.522-43.52-43.52S21.357,1.834,45.354,1.834
				s43.52,19.523,43.52,43.521S69.351,88.874,45.354,88.874z"/>
			<g>
				<path style="fill:#252E78;" d="M45.354,2.835c23.483,0,42.52,19.037,42.52,42.52s-19.037,42.52-42.52,42.52
					s-42.52-19.037-42.52-42.52S21.871,2.835,45.354,2.835 M45.354,0.835c-24.548,0-44.52,19.971-44.52,44.52
					s19.971,44.52,44.52,44.52s44.52-19.971,44.52-44.52S69.903,0.835,45.354,0.835L45.354,0.835z"/>
			</g>
		</g>
	</g>
</g>
<g id="elementy">
	<g>
		<path style="fill:none;" d="M34.146,34.369c0.246,0.055,0.477,0.119,0.693,0.192c-0.051-0.1-0.104-0.198-0.138-0.307
			c-0.027-0.087-0.034-0.175-0.056-0.263l-0.67,0.267C34.032,34.296,34.09,34.331,34.146,34.369z"/>
		<path style="fill:#FFFFFF;" d="M41.292,53.353l1.513-2.46c-0.407-0.858-0.95-1.972-1.376-2.755
			c-3.717-0.468-4.646-2.587-4.792-5.177c-0.115-2.042-0.006-5.562,0.062-7.311c-0.074,0.01-0.142,0.015-0.201,0.015
			c-0.185,0-0.317-0.042-0.49-0.096c-0.516-0.163-0.928-0.533-1.169-1.007c-0.215-0.074-0.447-0.137-0.693-0.192
			c-0.056-0.038-0.114-0.073-0.17-0.111l-13.373,5.323c0.987,0.991,2.005,2.642,2.239,3.437c0.692,2.351,1.1,3.804,1.976,5.984
			c0.766,1.906,1.672,3.203,2.424,4.053l-4.92,6.845c-0.686,0.954-0.598,2.258,0.212,3.108c1.982,2.082,5.392,5.666,5.523,5.821
			c0.778,0.924,0.252,0.695,1.451,1.971c0.692,0.736,2.356,0.762,2.356,0.762l0.262-4.285l-1.969-0.853
			c0.017-0.509-0.108-1.146-0.737-1.635c-0.877-0.682-3.006-3.509-3.006-3.509l6.41-5.51c0.233,0.052,0.469,0.102,0.71,0.15
			c0.461,6.287,1.087,14.946,1.087,15.681c0,1.89-2.305,4.026-2.424,4.174c-0.943,1.171-0.943,2.444-0.943,2.444h4.077
			c0,0,0.091-0.85,0.57-1.41c0.061-0.072,2.304-1.96,2.304-3.388c0-0.585,0.349-9.956,0.607-16.822
			c0.918,0.065,1.838,0.098,2.748,0.116c-0.12-0.143-0.243-0.283-0.337-0.45C40.71,55.347,40.736,54.258,41.292,53.353z"/>
		<path style="fill:#FFFFFF;" d="M75.825,60.169c0.553-2.214,5.825-5.888,5.359-10.933c-0.465-5.045-5.886-9.382-8.833-10.2
			c-0.028-0.008-2.138-3.714-7.629-4.683c-4.01-0.707-8.161,0.179-11.453,0.87c0.104,0.585,0.666,3.867,0.745,6.808
			c0.087,3.242-0.432,4.67-2.788,5.42c-0.555,0.177-1.284,0.353-2.191,0.497c0.141,0.538,0.274,0.998,0.364,1.18
			c0.549,1.02,1.176,2.513,1.202,2.576c0.365,0.871,0.071,1.878-0.704,2.416l-3.55,2.464c4.5-0.359,7.77-1.325,10.029-2.301
			l4.589,9.479c0,0-7.586,5.552-7.976,6.008c-0.468,0.546-0.726,1.029-0.848,1.515c-0.302,1.207,0.049,3.46,0.141,3.524
			c1.29-0.516,2.651-1.091,3.969-1.531c-0.094-0.612-0.402-1.475-0.529-1.817l7.608-3.974c1.436-0.716,2.137-2.369,1.649-3.898
			c-0.257-0.805-0.531-1.673-0.764-2.428c1.426,1.902,2.879,3.292,2.879,3.292s-1.746,5.986-2.044,6.817
			c-0.509,1.418-1.543,2.759-2.456,3.322c-1.475,0.909-1.482,3.271-1.482,3.271h3.715c0,0,1.337-2.177,1.38-2.237
			c0.503-0.229,1.235,0.03,1.936-1.288c0.371-0.697,2.352-5.726,3.456-8.546c0.446-1.139,0.066-2.321-0.659-3.306
			c-1.351-1.835-2.079-5.423-1.541-6.52c0.539-1.097,1.358-2.47,2.57-5.527c0.892-2.249,1.292-5.428,1.441-6.954
			c0.827,1.736,0.516,4.632,0.029,5.613c-6.44,12.964,2.503,14.611,3.071,14.701C76.306,63.768,75.012,63.422,75.825,60.169z"/>
		<path style="fill:#FFFFFF;" d="M11.501,47.344c0.058,1.101,1.95,5.051,5.54,1.612c0.907-0.869,0.912-2.739,0.044-3.761
			c3.379-3.439,3.203-4.029,3.082-5.441l-8.843,3.52C11.38,44.745,11.441,46.207,11.501,47.344z"/>
		<path style="fill:#FFFFFF;" d="M15.133,30.053l-3.305-3.317l-0.129,5.583c-1.544,2.5-0.767,5.242-0.497,8.42l20.19-8.036
			C26.22,29.907,20.392,28.636,15.133,30.053z"/>
		<path style="fill:none;stroke:#FFFFFF;stroke-width:0;stroke-linecap:round;stroke-linejoin:round;" d="M76.536,63.806
			c0,0-0.012-0.001-0.028-0.004"/>
		<path style="fill:#F8C409;" d="M50.353,38.844c-0.227,0.216-0.462,0.438-0.696,0.684c-0.519,0.544-1.324,1.301-2.401,2.259
			c0.202,0.448,0.414,0.966,0.618,1.582c0.216,0.655,0.448,1.637,0.695,2.677c0.128,0.542,0.303,1.276,0.467,1.903
			c0.907-0.144,1.636-0.32,2.191-0.497c2.356-0.75,2.875-2.178,2.788-5.42c-0.079-2.942-0.642-6.224-0.745-6.808
			c-0.011-0.06-0.018-0.101-0.018-0.101s-0.162,0.038-0.463,0.089C52.311,36.983,51.25,37.992,50.353,38.844z"/>
		<path style="fill:#F8C409;" d="M36.637,42.961c0.146,2.59,1.075,4.709,4.792,5.177c-0.101-0.185-2.541-5.325-2.585-5.443
			c-0.011-0.031-0.022-0.062-0.032-0.093c-0.439-1.397-0.494-2.566,0.53-4.408c0.325-0.585,1.074-1.924,1.803-3.227
			c-0.645-0.053-1.252-0.104-1.805-0.15c-1.531,0.557-2.226,0.779-2.641,0.833C36.631,37.399,36.522,40.919,36.637,42.961z"/>
		<path style="fill:#F8C409;" d="M50.976,27.492l20.203-8.041c0.616-0.245,0.917-0.943,0.672-1.559
			c-0.246-0.617-0.945-0.913-1.559-0.672L51.9,24.541c-0.005,0.021-0.009,0.039-0.014,0.06
			C51.764,25.056,51.397,26.275,50.976,27.492z"/>
		<path style="fill:#F8C409;" d="M34.645,33.992c-0.221-0.898-0.156-1.812,0.149-2.643L7.809,42.09
			c-0.616,0.245-0.917,0.943-0.672,1.559c0.188,0.471,0.639,0.757,1.115,0.757c0.148,0,0.298-0.027,0.443-0.085L34.645,33.992z"/>
		<path style="fill:#FFFFFF;" d="M43.472,12.666c-0.172,1.113-0.208,2.61-0.176,2.926c0.07,0.682,1.124,2.211,1.798,2.211
			c0.043,0,0.085-0.006,0.124-0.019c0.315-0.104,0.749-0.256,1.177-0.543c0.128,0.401,0.219,1.281,0.251,1.966
			c0.694-0.642,1.456-0.816,2.076-0.816c0,0,0,0,0,0c0.199,0,0.4,0.023,0.601,0.06c-0.453-1.161-0.942-2.363-0.942-2.363
			l-0.056-0.081c0.119-0.034,0.241-0.094,0.361-0.198c0.445-0.385,0.803-0.981,0.981-1.653
			C47.34,12.853,45.118,12.594,43.472,12.666z"/>
		<path style="fill:#194093;" d="M50.018,11.635c0.479,0.229,0.961,0.501,1.446,0.805c-0.143-0.88-0.521-1.688-1.105-2.365
			L50.018,11.635z"/>
		<path style="fill:#194093;" d="M43.871,10.264l0.265-1.21c-0.673,0.352-1.241,0.805-1.622,1.282
			C42.927,10.292,43.384,10.268,43.871,10.264z"/>
		<path style="fill:#F8C409;" d="M49.771,30.332c-0.367,0.522-0.556,0.774-5.148,2.518c-0.35,0.624-2.856,5.098-3.532,6.315
			c-0.727,1.309-0.667,1.891-0.37,2.837c0,0,0.997,2.7,2.143,4.61c0.79,1.317,2.209,4.41,2.209,4.41L42.996,54.4
			c-0.398,0.648,0.128,1.362,0.757,1.362c0.167,0,0.341-0.05,0.507-0.166l4.495-3.12c0,0-0.609-1.455-1.118-2.4
			c-0.509-0.946-1.197-4.664-1.664-6.083c-0.401-1.218-0.846-2.005-1.181-2.708c1.132-0.981,2.615-2.298,3.417-3.138
			c1.411-1.479,2.827-2.204,2.832-4.984c0-0.173-0.024-0.339-0.058-0.503c0.291-0.101,0.551-0.213,0.761-0.341
			c-0.539-1.38-1.098-3.661-1.118-3.856C50.321,29.275,50.014,29.986,49.771,30.332z"/>
		<path style="fill:#F8C409;" d="M48.135,29.182c0.352-0.501,1.399-3.536,1.82-5.1c0.341-1.27,0.64-3.055-0.669-3.573
			c-0.208-0.082-0.395-0.118-0.563-0.118c-0.884,0-1.23,0.997-1.394,1.399c-0.464,1.137-1.272,4.983-1.272,4.983l-8.096,3.82
			c-1.152,0.544-1.728,1.852-1.35,3.069v0C36.611,33.662,47.783,29.683,48.135,29.182z"/>
		<path style="fill:#F8C409;" d="M43.472,12.666c1.646-0.072,3.868,0.187,6.197,1.49c0.497,0.278,1.927,1.311,2.141,1.494
			c0.227,0.193,0.504,0.288,0.779,0.288c0.339,0,0.676-0.143,0.913-0.42c0.431-0.504,0.372-1.261-0.132-1.692
			c-0.634-0.543-2.874-1.962-3.353-2.191l0.457-2.088c0.175-0.799-0.331-1.588-1.13-1.763l-3.26-0.713
			c-0.799-0.175-1.588,0.331-1.763,1.13l-0.451,2.062c-0.487,0.004-0.944,0.028-1.357,0.072c-1.507,0.159-2.486,0.507-2.59,0.546
			c-0.619,0.23-0.934,0.918-0.705,1.538c0.229,0.621,0.922,0.942,1.538,0.713C40.809,13.113,42.746,12.698,43.472,12.666z"/>
	</g>
</g>
</svg>
