<?xml version="1.0" encoding="iso-8859-1"?>
<!-- Generator: Adobe Illustrator 22.1.0, SVG Export Plug-In . SVG Version: 6.00 Build 0)  -->
<svg version="1.1" xmlns="http://www.w3.org/2000/svg" xmlns:xlink="http://www.w3.org/1999/xlink" x="0px" y="0px"
	 viewBox="0 0 90.709 90.709" style="enable-background:new 0 0 90.709 90.709;" xml:space="preserve">
<g id="ratownik-1">
	<g>
		<g>
			<circle style="fill:#194093;" cx="45.354" cy="45.354" r="43.52"/>
			<g>
				<path style="fill:#252E78;" d="M45.354,2.835c23.483,0,42.52,19.037,42.52,42.52s-19.037,42.52-42.52,42.52
					s-42.52-19.037-42.52-42.52S21.871,2.835,45.354,2.835 M45.354,0.835c-24.548,0-44.52,19.971-44.52,44.52
					s19.971,44.52,44.52,44.52s44.52-19.971,44.52-44.52S69.903,0.835,45.354,0.835L45.354,0.835z"/>
			</g>
		</g>
	</g>
</g>
<g id="elementy">
	<g>
		<g>
			<path style="fill:#F8C409;" d="M68.19,73.24l-8.685-22.831c-1.803,0.494-3.442,0.86-4.929,1.106l8.94,23.502
				c0.38,0.998,1.329,1.612,2.337,1.612c0.296,0,0.597-0.053,0.889-0.164C68.033,75.974,68.68,74.531,68.19,73.24z"/>
			<path style="fill:#FFFFFF;" d="M65.853,48.379c0,0-0.121-21.449-23.093-30.111L33.967,8.177l0.955,9.337
				c-5.91,2.081-7.888,8.073-12.087,13.673c-2.198,2.932-4.579,6.126-6.272,8.467c-1.236,1.71-3.169,9.868,6.313,9.063
				c2.396-0.204,4.651-2.984,4.588-5.549c10.455-1.208,12.15-1.677,11.856-5.412c0.7,8.896,2.177,15.921,15.256,13.76
				c1.487-0.246,3.126-0.612,4.929-1.106C61.428,49.882,63.533,49.213,65.853,48.379z M32.101,31.903
				c-1.566,0-2.835-1.269-2.835-2.835s1.269-2.835,2.835-2.835c1.566,0,2.835,1.269,2.835,2.835S33.666,31.903,32.101,31.903z"/>
		</g>
		<path style="fill:#F8C409;" d="M61.76,32.305c-0.088-0.824-0.824-1.417-1.65-1.333c-0.823,0.088-1.42,0.827-1.332,1.651
			c1.153,10.826-6.974,17.702-15.599,18.899c-5.294,0.735-11.894-0.805-13.052-7.564c-0.075-0.437-0.335-0.792-0.683-1.011
			c0.005-0.005,0.008-0.009,0.013-0.014l-1.643-1.367l7.662-5.06l2.082,4.403c0.257,0.542,0.796,0.859,1.357,0.859
			c0.215,0,0.434-0.046,0.641-0.145c0.749-0.354,1.068-1.248,0.715-1.997l-2.443-5.167c1.877-2.569,3.412-5.109,4.532-7.558
			c0.035-0.078,0.064-0.158,0.086-0.24l2.044-7.727c0.212-0.801-0.266-1.622-1.066-1.834c-0.802-0.21-1.622,0.266-1.834,1.066
			l-1.354,5.119l-5.262-5.906c-0.553-0.618-1.499-0.673-2.118-0.122c-0.618,0.551-0.673,1.5-0.122,2.118l6.432,7.219
			c-1.062,2.138-2.43,4.348-4.115,6.597l-9.645,6.37l-5.421-4.509c-0.638-0.53-1.582-0.442-2.112,0.194
			c-0.529,0.637-0.442,1.583,0.194,2.112l9.229,7.676c1.302,6.008,6.457,9.666,13.373,9.666c0.943,0,1.921-0.068,2.924-0.208
			C53.401,53.133,63.102,44.893,61.76,32.305z"/>
	</g>
</g>
</svg>
