<?xml version="1.0" encoding="iso-8859-1"?>
<!-- Generator: Adobe Illustrator 22.1.0, SVG Export Plug-In . SVG Version: 6.00 Build 0)  -->
<svg version="1.1" xmlns="http://www.w3.org/2000/svg" xmlns:xlink="http://www.w3.org/1999/xlink" x="0px" y="0px"
	 viewBox="0 0 90.709 90.709" style="enable-background:new 0 0 90.709 90.709;" xml:space="preserve">
<g id="ratownik-1">
	<g>
		<g>
			
				<ellipse transform="matrix(0.9239 -0.3827 0.3827 0.9239 -13.9041 20.8088)" style="fill:#194093;" cx="45.354" cy="45.355" rx="43.52" ry="43.52"/>
			<g>
				<path style="fill:#252E78;" d="M45.354,2.835c23.483,0,42.52,19.037,42.52,42.52s-19.037,42.52-42.52,42.52
					s-42.52-19.037-42.52-42.52S21.871,2.835,45.354,2.835 M45.354,0.835c-24.548,0-44.52,19.971-44.52,44.52
					s19.971,44.52,44.52,44.52s44.52-19.971,44.52-44.52S69.903,0.835,45.354,0.835L45.354,0.835z"/>
			</g>
		</g>
	</g>
</g>
<g id="elementy">
	<g>
		<path style="fill:#FFFFFF;" d="M57.635,23.215L43.619,7.131c-0.011,0.001-0.023,0-0.034,0.001l1.521,14.88
			c-9.447,3.326-12.607,12.903-19.32,21.854c-3.513,4.687-7.319,9.791-10.025,13.534c-1.976,2.733-5.065,15.772,10.09,14.486
			c3.83-0.326,7.434-4.769,7.334-8.869c16.711-1.93,15.281-3.917,18.95-8.651c3.156,9.938,2.768,19.108,1.153,28.429
			c17.049-3.596,29.904-18.54,30.311-36.561C76.911,36.11,68.178,27.872,57.635,23.215z M39.645,42.838
			c-1.966,0-3.56-1.594-3.56-3.56s1.594-3.56,3.56-3.56c1.966,0,3.56,1.594,3.56,3.56S41.611,42.838,39.645,42.838z"/>
		<g>
			<path style="fill:#F8C409;" d="M75.104,69.416c-0.206-0.338-3.986-6.45-3.986-6.45s-2.391-0.94-2.746-1.024
				c0,0,0.521,9.2,0.736,13.404C71.317,73.594,73.33,71.607,75.104,69.416z"/>
			<path style="fill:#F8C409;" d="M78.827,57.618c-0.003-0.005,0.492-1.067,0.845-3.428c0.376-2.517-1.713-5.67-2.537-6.798
				c-0.001-0.001-0.002-0.003-0.002-0.004l-2.974-7.652c-0.239-0.615-0.952-0.91-1.563-0.62c-0.545,0.259-0.762,0.927-0.562,1.496
				l2.367,6.73c0.039,0.113-0.013,0.236-0.122,0.287c-0.116,0.055-0.256,0.003-0.309-0.114l-4.254-8.823
				c-0.291-0.648-1.059-0.936-1.708-0.632c-0.625,0.293-0.879,1.053-0.617,1.691l3.765,8.497c0.037,0.088,0.015,0.19-0.056,0.255
				c-0.11,0.102-0.287,0.071-0.358-0.061l-5.522-9.559c-0.331-0.705-1.17-1.011-1.877-0.683c-0.673,0.313-0.991,1.091-0.729,1.786
				l5.13,9.439c0.143,0.377-0.212,0.434-0.523,0.178l-5.56-6.84c-0.443-0.365-1.057-0.393-1.524-0.103
				c-0.091,0.057-0.177,0.126-0.255,0.207c-0.48,0.501-0.487,1.289-0.016,1.798l6.938,10.634c-0.889,0.306-1.476,0.588-1.526,0.612
				c-0.004,0.002-1.373-0.399-2.945,0.577c-1.262,0.784-1.566,2.063-1.513,2.953c0.024,0.393,0.393,0.675,0.774,0.573
				c1.626-0.439,4.667-0.794,4.691-0.796c0.001,0,0.001,0,0.002,0c1.331,0.012,3.057,0.467,4.027,0.759c0.001,0,0.002,0,0.002,0.001
				l2.446,1.095c0.003,0.002,0.006,0.004,0.008,0.007c0,0,3.705,5.972,3.886,6.272c1.544-2.193,2.871-4.55,3.932-7.049
				C79.569,58.748,78.827,57.618,78.827,57.618z"/>
		</g>
	</g>
</g>
</svg>
