<svg xmlns="http://www.w3.org/2000/svg" viewBox="0 0 90.709 90.709"><circle transform="matrix(.9239 -.3827 .3827 .9239 -13.9041 20.8088)" cx="45.354" cy="45.355" r="43.52" fill="#194093"/><path d="M45.354 2.835c23.483 0 42.52 19.037 42.52 42.52s-19.037 42.52-42.52 42.52-42.52-19.037-42.52-42.52 19.037-42.52 42.52-42.52m0-2C20.806.835.834 20.806.834 45.355s19.971 44.52 44.52 44.52 44.52-19.971 44.52-44.52S69.903.835 45.354.835h0z" fill="#252e78"/><path d="M57.635 23.215L43.619 7.131c-.011.001-.023 0-.034.001l1.521 14.88c-9.447 3.326-12.607 12.903-19.32 21.854L15.761 57.4c-1.976 2.733-5.065 15.772 10.09 14.486 3.83-.326 7.434-4.769 7.334-8.869 16.711-1.93 15.281-3.917 18.95-8.651 3.156 9.938 2.768 19.108 1.153 28.429 17.049-3.596 29.904-18.54 30.311-36.561-6.688-10.124-15.421-18.362-25.964-23.019zm-17.99 19.623a3.56 3.56 0 1 1 0-7.12 3.56 3.56 0 1 1 0 7.12z" fill="#fff"/><path d="M75.104 69.416l-3.986-6.45-2.746-1.024.736 13.404c2.209-1.752 4.222-3.739 5.996-5.93zm3.723-11.798c-.003-.005.492-1.067.845-3.428.376-2.517-1.713-5.67-2.537-6.798l-2.976-7.656c-.239-.615-.952-.91-1.563-.62-.545.259-.762.927-.562 1.496l2.367 6.73c.039.113-.013.236-.122.287-.116.055-.256.003-.309-.114l-4.254-8.823a1.28 1.28 0 0 0-1.708-.632c-.625.293-.879 1.053-.617 1.691l3.765 8.497c.037.088.015.19-.056.255a.23.23 0 0 1-.358-.061l-5.522-9.559c-.331-.705-1.17-1.011-1.877-.683a1.42 1.42 0 0 0-.729 1.786l5.13 9.439c.143.377-.212.434-.523.178l-5.56-6.84a1.31 1.31 0 0 0-1.524-.103c-.091.057-.177.126-.255.207a1.31 1.31 0 0 0-.016 1.798l6.938 10.634c-.889.306-1.476.588-1.526.612-.004.002-1.373-.399-2.945.577-1.262.784-1.566 2.063-1.513 2.953.024.393.393.675.774.573 1.626-.439 4.667-.794 4.691-.796 1.333.012 3.059.467 4.029.759l2.448 1.096c.008.007 3.713 5.979 3.894 6.279 1.544-2.193 2.871-4.55 3.932-7.049l-1.761-2.685z" fill="#f8c409"/></svg>