<?xml version="1.0" encoding="iso-8859-1"?>
<!-- Generator: Adobe Illustrator 22.1.0, SVG Export Plug-In . SVG Version: 6.00 Build 0)  -->
<svg version="1.1" xmlns="http://www.w3.org/2000/svg" xmlns:xlink="http://www.w3.org/1999/xlink" x="0px" y="0px"
	 viewBox="0 0 90.709 90.709" style="enable-background:new 0 0 90.709 90.709;" xml:space="preserve">
<g id="ratownik-1">
	<g>
		<g>
			<path style="fill:#194093;" d="M45.354,88.874c-23.997,0-43.52-19.522-43.52-43.52S21.357,1.834,45.354,1.834
				s43.52,19.523,43.52,43.521S69.351,88.874,45.354,88.874z"/>
			<g>
				<path style="fill:#252E78;" d="M45.354,2.835c23.483,0,42.52,19.037,42.52,42.52s-19.037,42.52-42.52,42.52
					s-42.52-19.037-42.52-42.52S21.871,2.835,45.354,2.835 M45.354,0.835c-24.548,0-44.52,19.971-44.52,44.52
					s19.971,44.52,44.52,44.52s44.52-19.971,44.52-44.52S69.903,0.835,45.354,0.835L45.354,0.835z"/>
			</g>
		</g>
	</g>
</g>
<g id="elementy">
	<g>
		<path style="fill:none;" d="M48.407,44.828c-0.026,0.033-0.049,0.064-0.073,0.097l0.086-0.052
			C48.415,44.858,48.412,44.843,48.407,44.828z"/>
		<path style="fill:#FFFFFF;" d="M45.571,83.617c17.187-0.096,31.685-11.519,36.416-27.185
			c-5.055-15.933-15.105-30.184-29.201-36.409L41.671,7.267c-0.023,0.002-0.046,0.003-0.068,0.005l1.206,11.791
			c-7.523,2.649-10.04,10.276-15.385,17.404c-2.797,3.732-5.829,7.797-7.984,10.778c-1.298,1.795-3.191,9.17,2.958,11.125
			c1.305,0.415,2.964,0.591,5.077,0.411c3.05-0.26,5.92-3.798,5.841-7.063c13.192-1.524,12.19-3.093,15.018-6.792
			c0.025-0.033,0.048-0.064,0.073-0.097c0.005,0.015,0.008,0.03,0.013,0.046l7.364-4.394l-3.602,8.111
			c4.7,3.607,4.716,9.573,6.845,15.839c1.113,3.281,2.315,6.851,3.149,9.452c0.609,1.9-0.052,9.799-8.336,6.29
			c-2.094-0.888-3.303-4.048-2.493-6.335c-1.158-0.532-2.146-1.01-2.995-1.446c-0.734,3.386-1.58,6.828-2.378,10.396L45.571,83.617z
			 M38.46,29.979c1.566,0,2.835,1.269,2.835,2.835s-1.269,2.835-2.835,2.835s-2.835-1.269-2.835-2.835S36.894,29.979,38.46,29.979z"
			/>
		<path style="fill:#F8C409;" d="M53.839,80.171c8.284,3.51,8.945-4.39,8.336-6.29c-0.833-2.602-2.035-6.171-3.149-9.452
			c-2.128-6.267-2.145-12.233-6.845-15.839l3.602-8.111l-7.364,4.394l-0.086,0.052c-2.827,3.7-1.826,5.269-15.018,6.792
			c0.08,3.265-2.79,6.803-5.841,7.063c-2.113,0.179-3.772,0.004-5.077-0.411c-2.953,2.86-5.616,6.113-7.909,9.601
			c5.237,7.136,12.887,12.385,21.75,14.551c0.767-6.006,2.17-11.647,6.043-17.032c1.04,2.909,0.286,3.932,6.069,6.902
			c0.849,0.436,1.837,0.914,2.995,1.446C50.536,76.123,51.746,79.284,53.839,80.171z M51.209,61.962
			c-1.468-0.48-2.269-2.06-1.789-3.528c0.48-1.468,2.06-2.269,3.528-1.789c1.468,0.48,2.269,2.06,1.789,3.528
			C54.257,61.641,52.677,62.442,51.209,61.962z"/>
	</g>
</g>
</svg>
