<svg xmlns="http://www.w3.org/2000/svg" viewBox="0 0 90.709 90.709"><path d="M45.354 88.874c-23.997 0-43.52-19.522-43.52-43.52s19.523-43.52 43.52-43.52 43.52 19.523 43.52 43.521-19.523 43.519-43.52 43.519z" fill="#194093"/><path d="M45.354 2.835c23.483 0 42.52 19.037 42.52 42.52s-19.037 42.52-42.52 42.52-42.52-19.037-42.52-42.52 19.037-42.52 42.52-42.52m0-2C20.806.835.834 20.806.834 45.355s19.971 44.52 44.52 44.52 44.52-19.971 44.52-44.52S69.903.835 45.354.835h0z" fill="#252e78"/><path d="M45.571 83.617c17.187-.096 31.685-11.519 36.416-27.185-5.055-15.933-15.105-30.184-29.201-36.409L41.671 7.267l-.068.005 1.206 11.791c-7.523 2.649-10.04 10.276-15.385 17.404L19.44 47.245c-1.298 1.795-3.191 9.17 2.958 11.125 1.305.415 2.964.591 5.077.411 3.05-.26 5.92-3.798 5.841-7.063 13.192-1.524 12.19-3.093 15.018-6.792l.073-.097c.005.015.008.03.013.046l7.364-4.394-3.602 8.111c4.7 3.607 4.716 9.573 6.845 15.839l3.149 9.452c.609 1.9-.052 9.799-8.336 6.29-2.094-.888-3.303-4.048-2.493-6.335-1.158-.532-2.146-1.01-2.995-1.446l-2.378 10.396-.403.829zM38.46 29.979c1.566 0 2.835 1.269 2.835 2.835s-1.269 2.835-2.835 2.835-2.835-1.269-2.835-2.835 1.269-2.835 2.835-2.835z" fill="#fff"/><path d="M53.839 80.171c8.284 3.51 8.945-4.39 8.336-6.29l-3.149-9.452c-2.128-6.267-2.145-12.233-6.845-15.839l3.602-8.111-7.364 4.394-.086.052c-2.827 3.7-1.826 5.269-15.018 6.792.08 3.265-2.79 6.803-5.841 7.063-2.113.179-3.772.004-5.077-.411-2.953 2.86-5.616 6.113-7.909 9.601 5.237 7.136 12.887 12.385 21.75 14.551.767-6.006 2.17-11.647 6.043-17.032 1.04 2.909.286 3.932 6.069 6.902.849.436 1.837.914 2.995 1.446-.809 2.286.401 5.447 2.494 6.334zm-2.63-18.209a2.8 2.8 0 0 1-1.789-3.528 2.8 2.8 0 0 1 3.528-1.789 2.8 2.8 0 0 1 1.789 3.528 2.8 2.8 0 0 1-3.528 1.789z" fill="#f8c409"/></svg>