<svg xmlns="http://www.w3.org/2000/svg" viewBox="0 0 105.473 94.038"><path d="M52.736 92.494c-3.117 0-5.909-1.612-7.468-4.311L2.715 14.478a8.53 8.53 0 0 1-.001-8.622c1.559-2.699 4.351-4.311 7.468-4.311h85.107c3.117 0 5.909 1.612 7.468 4.311a8.53 8.53 0 0 1-.001 8.622L60.204 88.183c-1.559 2.699-4.35 4.311-7.468 4.311" fill="#f0ae00"/><path d="M95.29 3.088c5.449 0 8.855 5.899 6.131 10.618L58.867 87.411c-1.362 2.359-3.746 3.539-6.131 3.539s-4.768-1.18-6.131-3.539L4.052 13.706c-2.724-4.719.682-10.618 6.131-10.618H95.29m0-3.088H10.183a10.06 10.06 0 0 0-8.805 5.083 10.06 10.06 0 0 0 0 10.167l42.553 73.705a10.06 10.06 0 0 0 8.805 5.083 10.06 10.06 0 0 0 8.805-5.083l42.553-73.705a10.06 10.06 0 0 0 0-10.167A10.06 10.06 0 0 0 95.29 0" fill="#f19e19"/><path d="M27.167 43.78l9.331-5.094 3.58 6.556-9.331 5.094z" fill="#26b4e6"/><path d="M41.32 26.274l13.285-7.253 2.964 5.429-13.285 7.253z" fill="#c90c0f"/><path d="M57.57 24.451l-13.285 7.254-8.935 4.878 1.148 2.104 3.58 6.556 1.149 2.104 12.401-6.77 4-2.184 11.02-6.016-5.877-10.765zm6.659-6.429L82.495 8.05l8.226 15.067-18.266 9.973z" fill="#fff"/><path d="M53.628 43.183l-9.445 18.89a2 2 0 1 0 3.579 1.789l2.513-5.026h3.354v4.132a2 2 0 1 0 4 0v-4.132h3.354l2.513 5.026a2 2 0 0 0 1.791 1.105c.301 0 .606-.067.893-.211a2 2 0 0 0 .895-2.684l-9.445-18.89v-4.79l-4 2.184v2.607zm-1.354 11.652l1.354-2.708v2.708h-1.354zm6.708 0h-1.354v-2.708l1.354 2.708z" fill="#c90c0f"/><path d="M55.684 71.879l2.7.345c.882.113 1.251 1.187.626 1.818l-1.916 1.933a1.07 1.07 0 0 0-.292.954l.506 2.675c.165.873-.742 1.557-1.536 1.157l-2.431-1.225c-.315-.159-.688-.152-.998.017l-2.387 1.308c-.779.427-1.71-.225-1.575-1.103l.414-2.69a1.07 1.07 0 0 0-.325-.944l-1.982-1.866c-.647-.609-.315-1.696.563-1.839l2.687-.438c.348-.057.646-.281.797-.6l1.162-2.461c.379-.804 1.516-.823 1.923-.033l1.247 2.42c.161.313.467.527.817.572zM23.777 32.57l-.942 2.276a.97.97 0 0 0 1.147 1.308l2.379-.636c.308-.082.638-.008.881.199l1.873 1.599c.611.522 1.556.116 1.599-.687l.13-2.459a.97.97 0 0 1 .462-.776l2.1-1.287a.97.97 0 0 0-.159-1.733l-2.299-.884a.97.97 0 0 1-.595-.679l-.575-2.395a.97.97 0 0 0-1.697-.384l-1.551 1.913a.97.97 0 0 1-.83.356l-2.455-.193a.97.97 0 0 0-.89 1.495l1.34 2.066c.174.27.204.606.082.901zm17.902-17.493l1.453-2.591c.474-.846-.227-1.868-1.187-1.731l-2.94.422a1.17 1.17 0 0 1-1.026-.365l-2.015-2.183c-.658-.713-1.847-.362-2.013.594l-.507 2.927a1.17 1.17 0 0 1-.664.863l-2.699 1.242c-.881.405-.915 1.645-.057 2.098l2.627 1.387a1.17 1.17 0 0 1 .616.898l.347 2.95a1.17 1.17 0 0 0 1.977.702l2.131-2.07a1.17 1.17 0 0 1 1.044-.308l2.913.582c.951.19 1.707-.793 1.279-1.664l-1.31-2.666c-.168-.344-.157-.751.031-1.087z" fill="#fff"/></svg>