<?xml version="1.0" encoding="iso-8859-1"?>
<!-- Generator: Adobe Illustrator 22.1.0, SVG Export Plug-In . SVG Version: 6.00 Build 0)  -->
<svg version="1.1" xmlns="http://www.w3.org/2000/svg" xmlns:xlink="http://www.w3.org/1999/xlink" x="0px" y="0px"
	 viewBox="0 0 105.473 94.038" style="enable-background:new 0 0 105.473 94.038;" xml:space="preserve">
<g id="Warstwa_1">
	<g>
		<path style="fill:#F0AE00;" d="M52.736,92.494c-3.117,0-5.909-1.612-7.468-4.311L2.715,14.478
			c-1.559-2.699-1.559-5.923-0.001-8.622c1.559-2.699,4.351-4.311,7.468-4.311h85.107c3.117,0,5.909,1.612,7.468,4.311
			c1.558,2.699,1.558,5.923-0.001,8.622L60.204,88.183C58.645,90.882,55.854,92.494,52.736,92.494"/>
		<path style="fill:#F19E19;" d="M95.29,3.088c5.449,0,8.855,5.899,6.131,10.618L58.867,87.411
			c-1.362,2.359-3.746,3.539-6.131,3.539s-4.768-1.18-6.131-3.539L4.052,13.706C1.328,8.987,4.734,3.088,10.183,3.088H95.29
			 M95.29,0H10.183C6.507,0,3.216,1.9,1.378,5.083c-1.838,3.184-1.838,6.984,0,10.167l42.553,73.705
			c1.837,3.183,5.129,5.083,8.805,5.083c3.675,0,6.967-1.9,8.805-5.083l42.553-73.705c1.838-3.183,1.838-6.983,0-10.167
			C102.256,1.9,98.965,0,95.29,0"/>
	</g>
	<g>
		
			<rect x="28.307" y="40.777" transform="matrix(0.8777 -0.4792 0.4792 0.8777 -17.2181 21.5552)" style="fill:#26B4E6;" width="10.631" height="7.47"/>
		
			<rect x="41.877" y="22.27" transform="matrix(0.8777 -0.4792 0.4792 0.8777 -6.1073 26.7954)" style="fill:#C90C0F;" width="15.136" height="6.186"/>
		<polygon style="fill:#FFFFFF;" points="57.57,24.451 44.285,31.705 35.35,36.583 36.498,38.687 40.078,45.243 41.227,47.347 
			53.628,40.577 57.628,38.393 68.648,32.377 62.771,21.612 		"/>
		
			<rect x="67.07" y="11.987" transform="matrix(0.8777 -0.4792 0.4792 0.8777 -0.3828 39.6412)" style="fill:#FFFFFF;" width="20.811" height="17.166"/>
		<path style="fill:#C90C0F;" d="M53.628,43.183l-9.445,18.89c-0.494,0.988-0.093,2.189,0.895,2.684
			c0.987,0.494,2.189,0.095,2.684-0.895l2.513-5.026h3.354v4.132c0,1.104,0.896,2,2,2s2-0.896,2-2v-4.132h3.354l2.513,5.026
			c0.351,0.701,1.057,1.106,1.791,1.105c0.301,0,0.606-0.067,0.893-0.211c0.988-0.494,1.388-1.695,0.895-2.684l-9.445-18.89v-4.79
			l-4,2.184V43.183z M52.274,54.835l1.354-2.708v2.708H52.274z M58.982,54.835h-1.354v-2.708L58.982,54.835z"/>
	</g>
	<path style="fill:#FFFFFF;" d="M55.684,71.879l2.7,0.345c0.882,0.113,1.251,1.187,0.626,1.818l-1.916,1.933
		c-0.248,0.251-0.358,0.607-0.292,0.954l0.506,2.675c0.165,0.873-0.742,1.557-1.536,1.157l-2.431-1.225
		c-0.315-0.159-0.688-0.152-0.998,0.017l-2.387,1.308c-0.779,0.427-1.71-0.225-1.575-1.103l0.414-2.69
		c0.054-0.349-0.068-0.702-0.325-0.944l-1.982-1.866c-0.647-0.609-0.315-1.696,0.563-1.839l2.687-0.438
		c0.348-0.057,0.646-0.281,0.797-0.6l1.162-2.461c0.379-0.804,1.516-0.823,1.923-0.033l1.247,2.42
		C55.028,71.62,55.334,71.834,55.684,71.879z"/>
	<path style="fill:#FFFFFF;" d="M23.777,32.57l-0.942,2.276c-0.308,0.743,0.37,1.516,1.147,1.308l2.379-0.636
		c0.308-0.082,0.638-0.008,0.881,0.199l1.873,1.599c0.611,0.522,1.556,0.116,1.599-0.687l0.13-2.459
		c0.017-0.319,0.19-0.609,0.462-0.776l2.1-1.287c0.686-0.42,0.592-1.444-0.159-1.733l-2.299-0.884
		c-0.298-0.115-0.521-0.368-0.595-0.679l-0.575-2.395c-0.188-0.782-1.191-1.009-1.697-0.384l-1.551,1.913
		c-0.201,0.248-0.511,0.381-0.83,0.356l-2.455-0.193c-0.802-0.063-1.327,0.821-0.89,1.495l1.34,2.066
		C23.869,31.939,23.899,32.275,23.777,32.57z"/>
	<path style="fill:#FFFFFF;" d="M41.679,15.077l1.453-2.591c0.474-0.846-0.227-1.868-1.187-1.731l-2.94,0.422
		c-0.381,0.055-0.765-0.082-1.026-0.365l-2.015-2.183c-0.658-0.713-1.847-0.362-2.013,0.594l-0.507,2.927
		c-0.066,0.379-0.314,0.702-0.664,0.863l-2.699,1.242c-0.881,0.405-0.915,1.645-0.057,2.098l2.627,1.387
		c0.341,0.18,0.571,0.516,0.616,0.898l0.347,2.95c0.113,0.963,1.282,1.378,1.977,0.702l2.131-2.07
		c0.276-0.268,0.667-0.384,1.044-0.308l2.913,0.582c0.951,0.19,1.707-0.793,1.279-1.664l-1.31-2.666
		C41.48,15.82,41.491,15.413,41.679,15.077z"/>
</g>
<g id="Warstwa_2">
</g>
<g id="Warstwa_3" style="display:none;">
</g>
</svg>
