<svg xmlns="http://www.w3.org/2000/svg" viewBox="0 0 105.47 94.04"><path d="M52.74,92.49a8.54,8.54,0,0,1-7.47-4.31L2.72,14.48A8.62,8.62,0,0,1,10.18,1.54H95.29a8.63,8.63,0,0,1,7.47,12.94L60.2,88.18a8.53,8.53,0,0,1-7.46,4.31" fill="#f0ae00"/><path d="M95.29,3.09a7.08,7.08,0,0,1,6.13,10.62L58.87,87.41a7.08,7.08,0,0,1-12.26,0L4.05,13.71A7.08,7.08,0,0,1,10.18,3.09H95.29m0-3.09H10.18a10.17,10.17,0,0,0-8.8,15.25L43.93,89a10.16,10.16,0,0,0,17.61,0l42.55-73.7a10.06,10.06,0,0,0,0-10.17A10,10,0,0,0,95.29,0" fill="#f19e19"/><circle cx="52.78" cy="34.32" r="5.72" transform="matrix(.98708 -.160226 .160226 .98708 -4.82 8.9)" fill="#194093"/><path d="M44.91 26.05q.27-2.24.66-4.23l-2.67-.83a64.34 64.34 0 0 0-1 7.05l3.01-1.99zm-3 14.54a63.82 63.82 0 0 0 1 7l2.67-.82-.66-4.22-3.01-1.96zm2.68-11l-2.9 2.06v2.67 2.66l2.9 2.06-.15-4.72.15-4.73z" fill="#fff"/><path d="M69.92 19.85c2.51 0 4.26.6 4.92 1.73a2.36 2.36 0 0 1 .26.76 4.5 4.5 0 0 0-3 .53 4.51 4.51 0 0 0-.75 7.35l-2.06 2.18-2 1.92c-1 .9-2.15 1.79-3.32 2.66l-.22 3.61a63 63 0 0 0 5.59-4.36l2-1.91 2.45-2.63.25-.3a4.58 4.58 0 0 0 4.31-6.85 4.51 4.51 0 0 0-.44-.61 5.67 5.67 0 0 0-.61-3.75c-1.61-2.8-5.78-3.76-11.71-2.71-1.13.2-2.3.48-3.5.81a64.78 64.78 0 0 1 .62 2.73 57.21 57.21 0 0 1 7.21-1.16zM56 23.37l4-1.54-.62-2.74a63.85 63.85 0 0 0-6.6 2.67L56 23.37zm-3.21 1.49l-3.24-1.49c-.78.41-11 6.22-13.23 9a92.49 92.49 0 0 0 2 1.92 69.45 69.45 0 0 1 14.47-9.43z" fill="#194093"/><path d="M69.25 32.4a63 63 0 0 0-5.59-4.4l.22 3.61 3.32 2.67 2.05-1.88zm2.05 1.92l-2 1.91a34 34 0 0 1 2.36 2.52c3 3.54 4.22 6.66 3.23 8.3-1.91 3.16-11 .89-12.17.57-.19.93-.39 1.85-.62 2.73 9 2.41 14 .16 15.21-1.9 1.62-2.8.37-6.89-3.51-11.5a67.66 67.66 0 0 0-2.5-2.63zM52.78 46.87a63 63 0 0 0 6.6 2.67L60 46.8l-4-1.54-3.22 1.61zm-3.23-1.61h0l3.23-1.49h0C51.4 43.08 39.89 37.13 34 29.88c-2.93-3.58-4.19-6.64-3.23-8.3a2.44 2.44 0 0 1 .52-.6 4.53 4.53 0 0 0 2 2.37 4.58 4.58 0 0 0 6.25-1.68 4.67 4.67 0 0 0 .5-1.38c7.25 1.21 17.47 6.8 21 9.3q-.12-1.83-.33-3.54c-.92-.77-12.36-7.39-21-8.65a4.58 4.58 0 0 0-8.08-.3 4.06 4.06 0 0 0-.29.64 5.77 5.77 0 0 0-3 2.44C26.69 23 28 27 31.82 31.69c4.5 5.47 12.48 10.9 17.73 13.57z" fill="#26b4e6"/><path d="M60.65 42.59l.33-3.55c-7.25 5.07-26.94 13.82-30.25 8-.95-1.66.44-5.86 5.59-10.82-.72-.64-1.4-1.27-2-1.91-.89.87-8.69 9-6 14.13 1.21 2.25 3.91 3.15 7.31 3.15 10.22.01 23.75-8.06 25.02-9z" fill="#194093"/><path d="M63.93 34.32c0-19.51-6.84-28.27-11.15-28.27s-7.43 5.16-9.26 12.22c.88.25 1.77.52 2.66.83 1.65-6.39 4.21-10.25 6.6-10.25s8.35 6.76 8.35 25.47c0 18.09-6 25.46-8.35 25.46a2.48 2.48 0 0 1-.79-.14 4.53 4.53 0 0 0 1.07-2.91 4.58 4.58 0 0 0-4.57-4.57 4.65 4.65 0 0 0-1.45.25c-.3-.89-.59-1.85-.86-2.88a40.55 40.55 0 0 1-2.66.83 39.53 39.53 0 0 0 1.19 3.8 4.57 4.57 0 0 0 3.78 7.15 5.35 5.35 0 0 0 .7-.07 5.69 5.69 0 0 0 3.59 1.34c4.31 0 11.15-8.66 11.15-28.26z" fill="#fff"/></svg>