<svg id="Warstwa_1" data-name="Warstwa 1" xmlns="http://www.w3.org/2000/svg" viewBox="0 0 105.47 94.04"><defs><style>.cls-1{fill:#f0ae00;}.cls-2{fill:#f19e19;}.cls-3{fill:#194093;}.cls-4{fill:#fff;}.cls-5{fill:#26b4e6;}</style></defs><title>sprawnosci-zuchowe</title><path class="cls-1" d="M52.74,92.49a8.54,8.54,0,0,1-7.47-4.31L2.72,14.48A8.62,8.62,0,0,1,10.18,1.54H95.29a8.63,8.63,0,0,1,7.47,12.94L60.2,88.18a8.53,8.53,0,0,1-7.46,4.31"/><path class="cls-2" d="M95.29,3.09a7.08,7.08,0,0,1,6.13,10.62L58.87,87.41a7.08,7.08,0,0,1-12.26,0L4.05,13.71A7.08,7.08,0,0,1,10.18,3.09H95.29m0-3.09H10.18a10.17,10.17,0,0,0-8.8,15.25L43.93,89a10.16,10.16,0,0,0,17.61,0l42.55-73.7a10.06,10.06,0,0,0,0-10.17A10,10,0,0,0,95.29,0"/><circle class="cls-3" cx="52.78" cy="34.32" r="5.72" transform="translate(-4.82 8.9) rotate(-9.22)"/><path class="cls-4" d="M44.91,26.05q.27-2.24.66-4.23c-.92-.31-1.81-.59-2.67-.83a64.34,64.34,0,0,0-1,7.05C42.88,27.36,43.88,26.69,44.91,26.05Z"/><path class="cls-4" d="M41.91,40.59a63.82,63.82,0,0,0,1,7c.86-.24,1.75-.5,2.67-.82-.26-1.33-.48-2.74-.66-4.22C43.88,41.94,42.88,41.27,41.91,40.59Z"/><path class="cls-4" d="M44.59,29.59c-1,.68-2,1.36-2.9,2.06,0,.89,0,1.78,0,2.67s0,1.77,0,2.66c.93.7,1.9,1.39,2.9,2.06-.1-1.52-.15-3.09-.15-4.72S44.49,31.11,44.59,29.59Z"/><path class="cls-3" d="M69.92,19.85c2.51,0,4.26.6,4.92,1.73a2.36,2.36,0,0,1,.26.76,4.5,4.5,0,0,0-3,.53,4.51,4.51,0,0,0-.75,7.35c-.63.73-1.32,1.45-2.06,2.18s-1.33,1.28-2,1.92c-1,.9-2.15,1.79-3.32,2.66-.05,1.21-.12,2.42-.22,3.61a63,63,0,0,0,5.59-4.36c.72-.63,1.4-1.27,2-1.91.88-.88,1.72-1.76,2.45-2.63l.25-.3a4.58,4.58,0,0,0,4.31-6.85,4.51,4.51,0,0,0-.44-.61,5.67,5.67,0,0,0-.61-3.75c-1.61-2.8-5.78-3.76-11.71-2.71-1.13.2-2.3.48-3.5.81.22.88.43,1.8.62,2.73A57.21,57.21,0,0,1,69.92,19.85Z"/><path class="cls-3" d="M56,23.37c1.35-.57,2.68-1.09,4-1.54-.19-1-.39-1.87-.62-2.74a63.85,63.85,0,0,0-6.6,2.67C53.87,22.27,55,22.81,56,23.37Z"/><path class="cls-3" d="M52.79,24.86c-1.1-.54-2.18-1-3.24-1.49-.78.41-11,6.22-13.23,9,.64.64,1.32,1.28,2,1.92A69.45,69.45,0,0,1,52.79,24.86Z"/><path class="cls-5" d="M69.25,32.4A63,63,0,0,0,63.66,28c.1,1.19.17,2.4.22,3.61,1.17.88,2.28,1.77,3.32,2.67C67.92,33.68,68.6,33,69.25,32.4Z"/><path class="cls-5" d="M71.3,34.32c-.65.64-1.33,1.28-2,1.91a34,34,0,0,1,2.36,2.52c3,3.54,4.22,6.66,3.23,8.3-1.91,3.16-11,.89-12.17.57-.19.93-.39,1.85-.62,2.73,9,2.41,14,.16,15.21-1.9,1.62-2.8.37-6.89-3.51-11.5C73,36.07,72.18,35.19,71.3,34.32Z"/><path class="cls-5" d="M52.78,46.87a63,63,0,0,0,6.6,2.67c.23-.87.43-1.78.62-2.74-1.3-.44-2.63-1-4-1.54C55,45.82,53.87,46.36,52.78,46.87Z"/><path class="cls-5" d="M49.55,45.26h0c1.06-.45,2.13-.95,3.23-1.49h0C51.4,43.08,39.89,37.13,34,29.88c-2.93-3.58-4.19-6.64-3.23-8.3a2.44,2.44,0,0,1,.52-.6,4.53,4.53,0,0,0,2,2.37,4.58,4.58,0,0,0,6.25-1.68,4.67,4.67,0,0,0,.5-1.38c7.25,1.21,17.47,6.8,21,9.3q-.12-1.83-.33-3.54c-.92-.77-12.36-7.39-21-8.65a4.58,4.58,0,0,0-8.08-.3,4.06,4.06,0,0,0-.29.64,5.77,5.77,0,0,0-3,2.44C26.69,23,28,27,31.82,31.69,36.32,37.16,44.3,42.59,49.55,45.26Z"/><path class="cls-3" d="M60.65,42.59c.14-1.14.25-2.33.33-3.55-7.25,5.07-26.94,13.82-30.25,8-.95-1.66.44-5.86,5.59-10.82-.72-.64-1.4-1.27-2-1.91-.89.87-8.69,9-6,14.13,1.21,2.25,3.91,3.15,7.31,3.15C45.85,51.6,59.38,43.53,60.65,42.59Z"/><path class="cls-4" d="M63.93,34.32c0-19.51-6.84-28.27-11.15-28.27s-7.43,5.16-9.26,12.22c.88.25,1.77.52,2.66.83,1.65-6.39,4.21-10.25,6.6-10.25s8.35,6.76,8.35,25.47c0,18.09-6,25.46-8.35,25.46a2.48,2.48,0,0,1-.79-.14,4.53,4.53,0,0,0,1.07-2.91,4.58,4.58,0,0,0-4.57-4.57,4.65,4.65,0,0,0-1.45.25c-.3-.89-.59-1.85-.86-2.88-.89.31-1.78.59-2.66.83a39.53,39.53,0,0,0,1.19,3.8,4.57,4.57,0,0,0,3.78,7.15,5.35,5.35,0,0,0,.7-.07,5.69,5.69,0,0,0,3.59,1.34C57.09,62.58,63.93,53.92,63.93,34.32Z"/></svg>