<svg xmlns="http://www.w3.org/2000/svg" viewBox="0 0 105.47 94.04"><path d="M52.74,92.49a8.54,8.54,0,0,1-7.47-4.31L2.72,14.48A8.62,8.62,0,0,1,10.18,1.54H95.29a8.63,8.63,0,0,1,7.47,12.94L60.2,88.18a8.53,8.53,0,0,1-7.46,4.31" fill="#f0ae00"/><path d="M95.29,3.09a7.08,7.08,0,0,1,6.13,10.62L58.87,87.41a7.08,7.08,0,0,1-12.26,0L4.05,13.71A7.08,7.08,0,0,1,10.18,3.09H95.29m0-3.09H10.18a10.17,10.17,0,0,0-8.8,15.25L43.93,89a10.16,10.16,0,0,0,17.61,0l42.55-73.7a10.06,10.06,0,0,0,0-10.17A10.06,10.06,0,0,0,95.29,0" fill="#f19e19"/><path d="M59.8,39.05a6.49,6.49,0,1,1-6.49-6.49,6.5,6.5,0,0,1,6.49,6.49" fill="#ec6608"/><path d="M32.6,46.46H30.89a1.46,1.46,0,0,0-1.46,1.46v2.7a1.45,1.45,0,0,0,1.46,1.45H74.58A1.45,1.45,0,0,0,76,50.62v-2.7a1.46,1.46,0,0,0-1.46-1.46H72.93V18.62h1.65A1.45,1.45,0,0,0,76,17.17V14.42A1.46,1.46,0,0,0,74.58,13H65.84L62.93,7.14H42.54L39.63,13H30.89a1.46,1.46,0,0,0-1.46,1.46v2.79a1.45,1.45,0,0,0,1.46,1.45l1.71.05Zm34.7,0H38.17V20.54H67.3Z" fill="#fff"/><path d="M62.43 31.17a.49.49 0 0 0-.94 0v.08a.82.82 0 0 1-1.62-.25 8.23 8.23 0 0 0-.23-2.78 8.43 8.43 0 0 0-8.74-6.33.49.49 0 0 0-.41.71 8.44 8.44 0 0 1 .64 1.72 8.35 8.35 0 0 1-.54 5.68 2.71 2.71 0 0 1-4.9 0 9.22 9.22 0 0 1-.51-1.26.5.5 0 0 0-.87-.14 10.43 10.43 0 0 0 6 16.33A3.44 3.44 0 0 1 48.68 42c-.08-3.54 3.3-3.05 3.9-7.28a.87.87 0 0 1 1.42-.59c1.82 1.29 4.91 4.07 4.47 7.78a4 4 0 0 1-.71 1.87c3.9-2.15 6.95-6.67 4.72-12.61" fill="#c90c0f"/></svg>