<svg id="Warstwa_1" data-name="Warstwa 1" xmlns="http://www.w3.org/2000/svg" viewBox="0 0 105.47 94.04"><defs><style>.cls-1{fill:#f0ae00;}.cls-2{fill:#f19e19;}.cls-3{fill:#26b4e6;}.cls-4{fill:#fff;}</style></defs><title>sprawnosci-zuchowe</title><path class="cls-1" d="M52.74,92.49a8.54,8.54,0,0,1-7.47-4.31L2.72,14.48A8.62,8.62,0,0,1,10.18,1.54H95.29a8.63,8.63,0,0,1,7.47,12.94L60.2,88.18a8.53,8.53,0,0,1-7.46,4.31"/><path class="cls-2" d="M95.29,3.09a7.08,7.08,0,0,1,6.13,10.62L58.87,87.41a7.08,7.08,0,0,1-12.26,0L4.05,13.71A7.08,7.08,0,0,1,10.18,3.09H95.29m0-3.09H10.18a10.17,10.17,0,0,0-8.8,15.25L43.93,89a10.16,10.16,0,0,0,17.61,0l42.55-73.7a10.06,10.06,0,0,0,0-10.17A10,10,0,0,0,95.29,0"/><path class="cls-3" d="M76.1,12.45H64.48L61.2,7.69H44.27L41,12.45H38.78v-2a1.72,1.72,0,0,0-1.73-1.73H32a1.72,1.72,0,0,0-1.73,1.73v2h-.85a5.14,5.14,0,0,0-5.14,5.13v24.3A5.14,5.14,0,0,0,29.38,47H76.1a5.13,5.13,0,0,0,5.13-5.14V17.58A5.13,5.13,0,0,0,76.1,12.45ZM52.65,44.39A14.66,14.66,0,1,1,67.3,29.73,14.66,14.66,0,0,1,52.65,44.39Z"/><path class="cls-4" d="M52.65,15.08A14.66,14.66,0,1,0,67.3,29.73,14.65,14.65,0,0,0,52.65,15.08Zm0,25.85a11.2,11.2,0,1,1,11.19-11.2A11.19,11.19,0,0,1,52.65,40.93Z"/><path class="cls-4" d="M49.51,22.22a3.55,3.55,0,1,0,3.54,3.55A3.54,3.54,0,0,0,49.51,22.22Z"/></svg>