<svg xmlns="http://www.w3.org/2000/svg" viewBox="0 0 105.47 94.04"><path d="M52.74,92.49a8.52,8.52,0,0,0,7.46-4.31l42.56-73.7A8.63,8.63,0,0,0,95.29,1.54H10.18A8.62,8.62,0,0,0,2.72,14.48l42.55,73.7a8.54,8.54,0,0,0,7.47,4.31" fill="#f0ae00"/><path d="M10.18,3.09H95.29a7.08,7.08,0,0,1,6.13,10.62L58.87,87.41a7.08,7.08,0,0,1-12.26,0L4.05,13.71A7.08,7.08,0,0,1,10.18,3.09m0-3.09a10.17,10.17,0,0,0-8.8,15.25L43.93,89a10.16,10.16,0,0,0,17.61,0l42.55-73.7a10.06,10.06,0,0,0,0-10.17A10,10,0,0,0,95.29,0H10.18" fill="#f19e19"/><path d="M85.46 17.71l-12.06-7a2.08 2.08 0 1 0-2.08 3.61l10.61 6.13-1 1.72L70.24 16a2.09 2.09 0 0 0-2.08 3.62l10.69 6.17-1 1.72-10.7-6.17A2.08 2.08 0 0 0 65.08 25l10.69 6.17-1 1.72-10.68-6.19A2.09 2.09 0 1 0 62 30.31l10.69 6.17-1 1.72L61 32a2.09 2.09 0 0 0-2.09 3.61l10.7 6.17-1 1.72-10.68-6.14A2.08 2.08 0 1 0 55.85 41l10.69 6.18-1 1.71-10.7-6.17a2.08 2.08 0 1 0-2.08 3.61l10.69 6.18-1 1.72-9.58-5.53A84.73 84.73 0 0 1 57.3 56l3.08 1.78-1 1.72-.74-.43c.4 1.21.46 2.09 0 2.49l-5.11-5.42-4.83-2.79A2.09 2.09 0 0 0 46.61 57l10.69 6.14-1 1.72-10.68-6.18a2.09 2.09 0 0 0-1.94-.07l.37 4 11.62 6.71a8.26 8.26 0 0 0 11.28-3L88.48 29a8.26 8.26 0 0 0-3.02-11.29z" fill="#26b4e6"/><path d="M42.31 44.24l16.38 17.35c.42-.4.36-1.28 0-2.49A22.31 22.31 0 0 0 57.3 56a84.73 84.73 0 0 0-4.41-7.36c-4.52-6.9-10.14-14.31-11.72-16.38l-1-10.78h0a7.45 7.45 0 1 0-3.8-.64l.78 8.26-.92 1.64-1.85-.38-5.71-6a7.43 7.43 0 1 0-2 3.3h0l7.45 7.88c1 5 6.91 34.68 10.66 34.32zM24.59 25.49a4.47 4.47 0 1 1 .18-6.32 4.47 4.47 0 0 1-.18 6.32zm10.4-11a4.47 4.47 0 1 1 4.88 4A4.48 4.48 0 0 1 35 14.53z" fill="#fff"/></svg>