<svg id="Warstwa_1" data-name="Warstwa 1" xmlns="http://www.w3.org/2000/svg" viewBox="0 0 105.47 94.04"><defs><style>.cls-1{fill:#f0ae00;}.cls-2{fill:#f19e19;}.cls-3{fill:#c90c0f;}.cls-4{fill:#26b4e6;}.cls-5{fill:#fff;}</style></defs><title>sprawnosci-zuchowe</title><path class="cls-1" d="M52.74,92.49a8.54,8.54,0,0,1-7.47-4.31L2.72,14.48A8.62,8.62,0,0,1,10.18,1.54H95.29a8.63,8.63,0,0,1,7.47,12.94L60.2,88.18a8.53,8.53,0,0,1-7.46,4.31"/><path class="cls-2" d="M95.29,3.09a7.08,7.08,0,0,1,6.13,10.62L58.87,87.41a7.08,7.08,0,0,1-12.26,0L4.05,13.71A7.08,7.08,0,0,1,10.18,3.09H95.29m0-3.09H10.18a10.17,10.17,0,0,0-8.8,15.25L43.93,89a10.16,10.16,0,0,0,17.61,0l42.55-73.7a10.06,10.06,0,0,0,0-10.17A10,10,0,0,0,95.29,0"/><path class="cls-3" d="M31.87,38.37A21.11,21.11,0,0,0,49.74,56.21V38.37Z"/><path class="cls-4" d="M55.74,38.37V56.21A21.12,21.12,0,0,0,73.61,38.37Z"/><path class="cls-5" d="M76.63,32.37H55.74V14.52a20.8,20.8,0,0,1,11.9,5.94l2.13-2.12,2.12-2.13a27.09,27.09,0,1,0,7.93,19.16v-3Zm-44.76,6H49.74V56.21A21.11,21.11,0,0,1,31.87,38.37ZM49.74,14.52V32.37H31.87A21.11,21.11,0,0,1,49.74,14.52Zm6,41.69V38.37H73.61A21.12,21.12,0,0,1,55.74,56.21Z"/></svg>