<svg id="Warstwa_1" data-name="Warstwa 1" xmlns="http://www.w3.org/2000/svg" viewBox="0 0 105.47 94.04"><defs><style>.cls-1{fill:#f0ae00;}.cls-2{fill:#f19e19;}.cls-3{fill:#26b4e6;}</style></defs><title>sprawnosci-zuchowe</title><path class="cls-1" d="M52.74,92.49a8.54,8.54,0,0,1-7.47-4.31L2.72,14.48A8.62,8.62,0,0,1,10.18,1.54H95.29a8.63,8.63,0,0,1,7.47,12.94L60.2,88.18a8.53,8.53,0,0,1-7.46,4.31"/><path class="cls-2" d="M95.29,3.09a7.08,7.08,0,0,1,6.13,10.62L58.87,87.41a7.08,7.08,0,0,1-12.26,0L4.05,13.71A7.08,7.08,0,0,1,10.18,3.09H95.29m0-3.09H10.18a10.17,10.17,0,0,0-8.8,15.25L43.93,89a10.16,10.16,0,0,0,17.61,0l42.55-73.7a10.06,10.06,0,0,0,0-10.17A10,10,0,0,0,95.29,0"/><path class="cls-3" d="M63.25,56.84a29.93,29.93,0,0,1-13.38,2.63c-12.14,0-22.81-8.69-22.81-23,0-14.92,10.82-27.86,27.34-27.86,12.87,0,22.08,8.85,22.08,21.13,0,10.67-6,17.4-13.89,17.4-3.44,0-5.92-1.75-6.29-5.63h-.14c-2.27,3.73-5.56,5.63-9.43,5.63-4.76,0-8.19-3.51-8.19-9.5a16.7,16.7,0,0,1,17.1-17,20.53,20.53,0,0,1,8.7,1.83L62.15,35.94c-.73,4.31-.22,6.28,1.83,6.36,3.14.07,7.09-3.95,7.09-12.36,0-9.5-6.14-16.89-17.47-16.89s-21,8.78-21,22.74c0,12.21,7.82,19.15,18.71,19.15a23.69,23.69,0,0,0,10.6-2.34ZM56.74,26.65a9.31,9.31,0,0,0-2.27-.29c-4.82,0-8.62,4.75-8.62,10.38,0,2.78,1.24,4.53,3.65,4.53,2.71,0,5.56-3.43,6.22-7.67Z"/></svg>