<svg xmlns="http://www.w3.org/2000/svg" viewBox="0 0 105.47 94.04"><path d="M52.74,92.49a8.54,8.54,0,0,1-7.47-4.31L2.72,14.48A8.62,8.62,0,0,1,10.18,1.54H95.29a8.63,8.63,0,0,1,7.47,12.94L60.2,88.18a8.53,8.53,0,0,1-7.46,4.31" fill="#f0ae00"/><path d="M95.29,3.09a7.08,7.08,0,0,1,6.13,10.62L58.87,87.41a7.08,7.08,0,0,1-12.26,0L4.05,13.71A7.08,7.08,0,0,1,10.18,3.09H95.29m0-3.09H10.18a10.17,10.17,0,0,0-8.8,15.25L43.93,89a10.16,10.16,0,0,0,17.61,0l42.55-73.7a10.06,10.06,0,0,0,0-10.17A10,10,0,0,0,95.29,0" fill="#f19e19"/><path d="M78.76 10.13l-1.9.35v32.07a39.2 39.2 0 0 0-22.24 5.05 9.09 9.09 0 0 1-1.09.84 1.4 1.4 0 0 1-1.59 0 9.09 9.09 0 0 1-1.09-.84 39.2 39.2 0 0 0-22.24-5.05V10.46l-1.77-.33a1.22 1.22 0 0 0-1.45 1.19l-.12 33.25a1.22 1.22 0 0 0 1 1.21l26.44 4.33 26.44-4.33a1.22 1.22 0 0 0 1-1.21V11.33a1.21 1.21 0 0 0-1.39-1.2z" fill="#94b516"/><path d="M50.85 47.6c-5.22-5.87-11.7-9.25-17.12-8.83a1.45 1.45 0 0 1-1.13-.4 1.48 1.48 0 0 1-.48-1.1v-29a20.72 20.72 0 0 0-3.51.67v33.61a39.2 39.2 0 0 1 22.24 5.05zm22.5-10.33a1.48 1.48 0 0 1-.48 1.1 1.45 1.45 0 0 1-1.13.4c-5.42-.42-11.9 3-17.12 8.83a39.2 39.2 0 0 1 22.24-5.05V8.91a20.72 20.72 0 0 0-3.51-.67zm-22.11 6.38V15.23C46.38 9.6 40.37 6.15 35.12 5.94v29.8c5.34.16 11.1 3 16.12 7.91zm-2.74-7.77c-3.11-3.73-7-5.76-10.31-5.52v-7.17c3.29-.25 7.2 1.78 10.31 5.51zm0-18.7v7.18c-3.11-3.73-7-5.76-10.31-5.51v-7.18c3.29-.25 7.2 1.79 10.31 5.51zm5.74-1.95v28.42c5-4.91 10.77-7.75 16.11-7.91V5.94c-5.25.21-11.26 3.65-16.11 9.29zm13 14.61c-3.15-.24-6.88 1.71-9.86 5.27V18.19c3-3.57 6.71-5.51 9.86-5.27z" fill="#fff"/><path d="M38.19 18.85c3.29-.25 7.2 1.78 10.31 5.51v-7.18c-3.11-3.72-7-5.76-10.31-5.51zm0 4.34v7.17c3.29-.24 7.2 1.79 10.31 5.52V28.7c-3.11-3.7-7.02-5.76-10.31-5.51zm19.17-5v16.92c3-3.56 6.71-5.51 9.86-5.27V12.92c-3.15-.24-6.88 1.7-9.86 5.27z" fill="#26b4e6"/></svg>