<svg xmlns="http://www.w3.org/2000/svg" viewBox="0 0 105.47 94.04"><path d="M52.74,92.49a8.54,8.54,0,0,1-7.47-4.31L2.72,14.48A8.62,8.62,0,0,1,10.18,1.54H95.29a8.63,8.63,0,0,1,7.47,12.94L60.2,88.18a8.53,8.53,0,0,1-7.46,4.31" fill="#f0ae00"/><path d="M78.76 10.13l-1.9.35v32.07a39.2 39.2 0 0 0-22.24 5.05 9.09 9.09 0 0 1-1.09.84 1.4 1.4 0 0 1-1.59 0 9.09 9.09 0 0 1-1.09-.84 39.2 39.2 0 0 0-22.24-5.05V10.46l-1.77-.33a1.22 1.22 0 0 0-1.45 1.19l-.12 33.25a1.22 1.22 0 0 0 1 1.21l26.44 4.33 26.44-4.33a1.22 1.22 0 0 0 1-1.21V11.33a1.21 1.21 0 0 0-1.39-1.2z" fill="#194093"/><path d="M50.85 47.6c-5.22-5.87-11.7-9.25-17.12-8.83a1.45 1.45 0 0 1-1.13-.4 1.48 1.48 0 0 1-.48-1.1v-29a20.72 20.72 0 0 0-3.51.67v33.61a39.2 39.2 0 0 1 22.24 5.05zm22.5-10.33a1.48 1.48 0 0 1-.48 1.1 1.45 1.45 0 0 1-1.13.4c-5.42-.42-11.9 3-17.12 8.83a39.2 39.2 0 0 1 22.24-5.05V8.91a20.72 20.72 0 0 0-3.51-.67zm-22.11 6.38V15.23C46.38 9.6 40.37 6.15 35.12 5.94v29.8c5.34.16 11.1 3 16.12 7.91zm3-28.42v28.42c5-4.91 10.77-7.75 16.11-7.91V5.94c-5.25.21-11.26 3.65-16.11 9.29z" fill="#fff"/><path d="M62.37 11.73a15.23 15.23 0 0 0-.88 1.27 17.46 17.46 0 0 0-1.41 3.35l.32 8.75-1.62-4.05c-1.57 6.55-2.64 14.14-2.64 14.14a130.57 130.57 0 0 0 12.79-13.86l-4.22.67 6.51-4.07a11.15 11.15 0 0 0 1.3-3c.84-3.73 1.49-8.38.19-10.27-2.57-.22-5.73 2.15-8.1 4.54v7.7z" fill="#ec6608"/><path d="M95.29,3.09a7.08,7.08,0,0,1,6.13,10.62L58.87,87.41a7.08,7.08,0,0,1-12.26,0L4.05,13.71A7.08,7.08,0,0,1,10.18,3.09H95.29m0-3.09H10.18a10.17,10.17,0,0,0-8.8,15.25L43.93,89a10.16,10.16,0,0,0,17.61,0l42.55-73.7a10.06,10.06,0,0,0,0-10.17A10.06,10.06,0,0,0,95.29,0" fill="#f19e19"/></svg>