<svg id="Warstwa_1" data-name="Warstwa 1" xmlns="http://www.w3.org/2000/svg" viewBox="0 0 105.47 94.04"><defs><style>.cls-1{fill:#f0ae00;}.cls-2{fill:#f19e19;}.cls-3{fill:#fff;}.cls-4{fill:#c90c0f;}.cls-5{fill:#26b4e6;}</style></defs><title>sprawnosci-zuchowe</title><path class="cls-1" d="M52.74,92.49a8.54,8.54,0,0,1-7.47-4.31L2.72,14.48A8.62,8.62,0,0,1,10.18,1.54H95.29a8.63,8.63,0,0,1,7.47,12.94L60.2,88.18a8.53,8.53,0,0,1-7.46,4.31"/><path class="cls-2" d="M95.29,3.09a7.08,7.08,0,0,1,6.13,10.62L58.87,87.41a7.08,7.08,0,0,1-12.26,0L4.05,13.71A7.08,7.08,0,0,1,10.18,3.09H95.29m0-3.09H10.18a10.17,10.17,0,0,0-8.8,15.25L43.93,89a10.16,10.16,0,0,0,17.61,0l42.55-73.7a10.06,10.06,0,0,0,0-10.17A10,10,0,0,0,95.29,0"/><polygon class="cls-3" points="52.81 16.95 62.56 11.32 52.81 5.69 43.06 11.32 52.81 16.95"/><polygon class="cls-3" points="66.09 13.36 56.34 18.99 66.09 24.62 75.84 18.99 66.09 13.36"/><polygon class="cls-3" points="62.56 26.66 52.81 21.03 43.06 26.66 52.81 32.29 62.56 26.66"/><polygon class="cls-3" points="49.28 18.99 39.53 13.36 29.78 18.99 39.53 24.62 49.28 18.99"/><polygon class="cls-4" points="67.83 38.94 77.58 33.31 77.58 22.05 67.83 27.68 67.83 38.94"/><polygon class="cls-4" points="77.58 48.64 77.58 37.38 67.83 43.01 67.83 54.27 77.58 48.64"/><polygon class="cls-4" points="54.55 46.6 64.3 40.98 64.3 29.72 54.55 35.35 54.55 46.6"/><polygon class="cls-4" points="64.3 56.31 64.3 45.05 54.55 50.68 54.55 61.94 64.3 56.31"/><polygon class="cls-5" points="41.17 40.97 50.92 46.6 50.92 35.35 41.17 29.72 41.17 40.97"/><polygon class="cls-5" points="27.89 33.31 37.64 38.94 37.64 27.68 27.89 22.05 27.89 33.31"/><polygon class="cls-5" points="37.64 54.27 37.64 43.01 27.89 37.38 27.89 48.64 37.64 54.27"/><polygon class="cls-5" points="41.17 45.05 41.17 56.31 50.92 61.94 50.92 50.68 41.17 45.05"/></svg>