<svg xmlns="http://www.w3.org/2000/svg" viewBox="0 0 105.47 94.04"><path d="M52.74,92.49a8.54,8.54,0,0,1-7.47-4.31L2.72,14.48A8.62,8.62,0,0,1,10.18,1.54H95.29a8.63,8.63,0,0,1,7.47,12.94L60.2,88.18a8.53,8.53,0,0,1-7.46,4.31" fill="#f0ae00"/><path d="M95.29,3.09a7.08,7.08,0,0,1,6.13,10.62L58.87,87.41a7.08,7.08,0,0,1-12.26,0L4.05,13.71A7.08,7.08,0,0,1,10.18,3.09H95.29m0-3.09H10.18a10.17,10.17,0,0,0-8.8,15.25L43.93,89a10.16,10.16,0,0,0,17.61,0l42.55-73.7a10.06,10.06,0,0,0,0-10.17A10,10,0,0,0,95.29,0" fill="#f19e19"/><path d="M52.81 16.95l9.75-5.63-9.75-5.63-9.75 5.63 9.75 5.63zm13.28-3.59l-9.75 5.63 9.75 5.63 9.75-5.63-9.75-5.63zm-3.53 13.3l-9.75-5.63-9.75 5.63 9.75 5.63 9.75-5.63zm-13.28-7.67l-9.75-5.63-9.75 5.63 9.75 5.63 9.75-5.63z" fill="#fff"/><path d="M67.83 38.94l9.75-5.63V22.05l-9.75 5.63v11.26zm9.75 9.7V37.38l-9.75 5.63v11.26l9.75-5.63zM54.55 46.6l9.75-5.62V29.72l-9.75 5.63V46.6zm9.75 9.71V45.05l-9.75 5.63v11.26l9.75-5.63z" fill="#c90c0f"/><path d="M41.17 40.97l9.75 5.63V35.35l-9.75-5.63v11.25zm-13.28-7.66l9.75 5.63V27.68l-9.75-5.63v11.26zm9.75 20.96V43.01l-9.75-5.63v11.26l9.75 5.63zm3.53-9.22v11.26l9.75 5.63V50.68l-9.75-5.63z" fill="#26b4e6"/></svg>