<svg xmlns="http://www.w3.org/2000/svg" viewBox="0 0 105.47 94.04"><path d="M2.72,5.85a8.54,8.54,0,0,1,7.46-4.31H95.29a8.63,8.63,0,0,1,7.47,12.94L60.2,88.18a8.62,8.62,0,0,1-14.93,0L2.72,14.48a8.54,8.54,0,0,1,0-8.63" fill="#f0ae00"/><path d="M58.87,87.41a7.08,7.08,0,0,1-12.26,0L4.05,13.71A7.08,7.08,0,0,1,10.18,3.09H95.29a7.08,7.08,0,0,1,6.13,10.62L58.87,87.41M61.54,89l42.55-73.7a10.06,10.06,0,0,0,0-10.17A10,10,0,0,0,95.29,0H10.18a10.17,10.17,0,0,0-8.8,15.25L43.93,89a10.16,10.16,0,0,0,17.61,0" fill="#f19e19"/><path d="M28.06 11.39h5.67v5.67h-5.67zm0 11.55h5.67v5.67h-5.67zm0 11.55h5.67v5.67h-5.67z" fill="#fff"/><path d="M80.62,8.19H24.85v3.19h0V40.17h0v3.2H80.62V8.19Zm-3.21,26.3v5.67H71.74V34.49Zm-5.67-5.88V22.94h5.67v5.67Zm5.67-11.55H71.74V11.39h5.67ZM28.06,11.39h5.67v5.67H28.06Zm0,11.55h5.67v5.67H28.06Zm0,11.55h5.67v5.67H28.06Zm8.88,5.68V11.38H68.53V40.17Z" fill="#194093"/><path d="M71.74 11.39h5.67v5.67h-5.67zm0 11.55h5.67v5.67h-5.67zm0 11.55h5.67v5.67h-5.67z" fill="#fff"/><circle cx="53.14" cy="25.57" r="10.77" fill="#c90c0f"/><path d="M59.91 25.57l-9.95-5.74v11.48l9.95-5.74z" fill="#fff"/></svg>