<svg id="Warstwa_1" data-name="Warstwa 1" xmlns="http://www.w3.org/2000/svg" viewBox="0 0 105.47 94.04"><defs><style>.cls-1{fill:#f0ae00;}.cls-2{fill:#f19e19;}.cls-3{fill:#ec6608;}.cls-4{fill:#94b516;}.cls-5{fill:#26b4e6;}.cls-6{fill:#fff;}</style></defs><title>sprawnosci-zuchowe</title><path class="cls-1" d="M52.74,92.49a8.54,8.54,0,0,1-7.47-4.31L2.72,14.48A8.62,8.62,0,0,1,10.18,1.54H95.29a8.63,8.63,0,0,1,7.47,12.94L60.2,88.18a8.53,8.53,0,0,1-7.46,4.31"/><path class="cls-2" d="M95.29,3.09a7.08,7.08,0,0,1,6.13,10.62L58.87,87.41a7.08,7.08,0,0,1-12.26,0L4.05,13.71A7.08,7.08,0,0,1,10.18,3.09H95.29m0-3.09H10.18a10.17,10.17,0,0,0-8.8,15.25L43.93,89a10.16,10.16,0,0,0,17.61,0l42.55-73.7a10.06,10.06,0,0,0,0-10.17A10,10,0,0,0,95.29,0"/><path class="cls-3" d="M81.49,26.41a10.11,10.11,0,0,0-3.09-7.28V8.54H60.08a10.11,10.11,0,0,0-14.55,0H27.07V19.06a10.11,10.11,0,0,0,0,14.55V44.2H45.46A10.13,10.13,0,0,0,60,44.2H78.4V33.68A10.1,10.1,0,0,0,81.49,26.41ZM72.73,38.53h-40V14.21h40Z"/><polygon class="cls-4" points="69.9 26.37 35.57 35.69 69.9 35.69 69.9 26.37"/><polygon class="cls-5" points="35.57 17.04 35.57 30.32 48.85 17.04 35.57 17.04"/><polygon class="cls-6" points="69.9 17.04 56.75 17.04 35.57 33.45 69.9 21.65 69.9 17.04"/></svg>