<svg xmlns="http://www.w3.org/2000/svg" viewBox="0 0 105.47 94.04"><path d="M52.74,92.49a8.54,8.54,0,0,1-7.47-4.31L2.72,14.48A8.62,8.62,0,0,1,10.18,1.54H95.29a8.63,8.63,0,0,1,7.47,12.94L60.2,88.18a8.53,8.53,0,0,1-7.46,4.31" fill="#f0ae00"/><path d="M95.29,3.09a7.08,7.08,0,0,1,6.13,10.62L58.87,87.41a7.08,7.08,0,0,1-12.26,0L4.05,13.71A7.08,7.08,0,0,1,10.18,3.09H95.29m0-3.09H10.18a10.17,10.17,0,0,0-8.8,15.25L43.93,89a10.16,10.16,0,0,0,17.61,0l42.55-73.7a10.06,10.06,0,0,0,0-10.17A10,10,0,0,0,95.29,0" fill="#f19e19"/><path d="M81.49 26.41a10.11 10.11 0 0 0-3.09-7.28V8.54H60.08a10.11 10.11 0 0 0-14.55 0H27.07v10.52a10.11 10.11 0 0 0 0 14.55V44.2h18.39a10.13 10.13 0 0 0 14.54 0h18.4V33.68a10.1 10.1 0 0 0 3.09-7.27zm-8.76 12.12h-40V14.21h40z" fill="#ec6608"/><path d="M69.9 26.37l-34.33 9.32H69.9v-9.32z" fill="#94b516"/><path d="M35.57 17.04v13.28l13.28-13.28H35.57z" fill="#26b4e6"/><path d="M69.9 17.04H56.75L35.57 33.45l34.33-11.8v-4.61z" fill="#fff"/></svg>