<svg id="Warstwa_1" data-name="Warstwa 1" xmlns="http://www.w3.org/2000/svg" viewBox="0 0 105.47 94.04"><defs><style>.cls-1{fill:#f0ae00;}.cls-2{fill:#f19e19;}.cls-3{fill:#c90c0f;}.cls-4{fill:#fff;}</style></defs><title>sprawnosci-zuchowe</title><path class="cls-1" d="M52.74,92.49a8.54,8.54,0,0,1-7.47-4.31L2.72,14.48A8.62,8.62,0,0,1,10.18,1.54H95.29a8.63,8.63,0,0,1,7.47,12.94L60.2,88.18a8.53,8.53,0,0,1-7.46,4.31"/><path class="cls-2" d="M95.29,3.09a7.08,7.08,0,0,1,6.13,10.62L58.87,87.41a7.08,7.08,0,0,1-12.26,0L4.05,13.71A7.08,7.08,0,0,1,10.18,3.09H95.29m0-3.09H10.18a10.17,10.17,0,0,0-8.8,15.25L43.93,89a10.16,10.16,0,0,0,17.61,0l42.55-73.7a10.06,10.06,0,0,0,0-10.17A10,10,0,0,0,95.29,0"/><path class="cls-3" d="M52,9.35,32.85,20.42a1.43,1.43,0,0,0,0,2.47L52,34a1.41,1.41,0,0,0,1.43,0L72.62,22.89a1.43,1.43,0,0,0,0-2.47L53.45,9.35A1.46,1.46,0,0,0,52,9.35Z"/><path class="cls-3" d="M29.21,26.73V48.86a1.43,1.43,0,0,0,.71,1.24L49.09,61.17a1.43,1.43,0,0,0,2.15-1.24V37.8a1.44,1.44,0,0,0-.72-1.24L31.35,25.49A1.43,1.43,0,0,0,29.21,26.73Z"/><path class="cls-3" d="M56.38,61.17,75.55,50.1a1.43,1.43,0,0,0,.71-1.24V26.73a1.43,1.43,0,0,0-2.14-1.24L55,36.56a1.43,1.43,0,0,0-.71,1.24V59.93A1.43,1.43,0,0,0,56.38,61.17Z"/><circle class="cls-4" cx="52.74" cy="21.66" r="4.25"/><circle class="cls-4" cx="61.12" cy="49.21" r="3.54"/><circle class="cls-4" cx="69.38" cy="37.46" r="3.54"/><circle class="cls-4" cx="45.69" cy="52.29" r="3.12"/><circle class="cls-4" cx="40.22" cy="43.45" r="3.12"/><circle class="cls-4" cx="34.75" cy="34.61" r="3.12"/></svg>