<svg xmlns="http://www.w3.org/2000/svg" viewBox="0 0 105.47 94.04"><path d="M52.74,92.49a8.54,8.54,0,0,1-7.47-4.31L2.72,14.48A8.62,8.62,0,0,1,10.18,1.54H95.29a8.63,8.63,0,0,1,7.47,12.94L60.2,88.18a8.53,8.53,0,0,1-7.46,4.31" fill="#f0ae00"/><path d="M95.29,3.09a7.08,7.08,0,0,1,6.13,10.62L58.87,87.41a7.08,7.08,0,0,1-12.26,0L4.05,13.71A7.08,7.08,0,0,1,10.18,3.09H95.29m0-3.09H10.18a10.17,10.17,0,0,0-8.8,15.25L43.93,89a10.16,10.16,0,0,0,17.61,0l42.55-73.7a10.06,10.06,0,0,0,0-10.17A10,10,0,0,0,95.29,0" fill="#f19e19"/><path d="M52 9.35L32.85 20.42a1.43 1.43 0 0 0 0 2.47L52 34a1.41 1.41 0 0 0 1.43 0l19.19-11.11a1.43 1.43 0 0 0 0-2.47L53.45 9.35a1.46 1.46 0 0 0-1.45 0zM29.21 26.73v22.13a1.43 1.43 0 0 0 .71 1.24l19.17 11.07a1.43 1.43 0 0 0 2.15-1.24V37.8a1.44 1.44 0 0 0-.72-1.24L31.35 25.49a1.43 1.43 0 0 0-2.14 1.24zm27.17 34.44L75.55 50.1a1.43 1.43 0 0 0 .71-1.24V26.73a1.43 1.43 0 0 0-2.14-1.24L55 36.56a1.43 1.43 0 0 0-.71 1.24v22.13a1.43 1.43 0 0 0 2.09 1.24z" fill="#c90c0f"/><g fill="#fff"><circle cx="52.74" cy="21.66" r="4.25"/><circle cx="61.12" cy="49.21" r="3.54"/><circle cx="69.38" cy="37.46" r="3.54"/><circle cx="45.69" cy="52.29" r="3.12"/><circle cx="40.22" cy="43.45" r="3.12"/><circle cx="34.75" cy="34.61" r="3.12"/></g></svg>