<svg id="Warstwa_1" data-name="Warstwa 1" xmlns="http://www.w3.org/2000/svg" viewBox="0 0 105.47 94.04"><defs><style>.cls-1{fill:#f0ae00;}.cls-2{fill:#f19e19;}.cls-3{fill:#26b4e6;}.cls-4{fill:#fff;}</style></defs><title>sprawnosci-zuchowe</title><path class="cls-1" d="M52.74,92.49a8.54,8.54,0,0,1-7.47-4.31L2.72,14.48A8.62,8.62,0,0,1,10.18,1.54H95.29a8.63,8.63,0,0,1,7.47,12.94L60.2,88.18a8.53,8.53,0,0,1-7.46,4.31"/><path class="cls-2" d="M95.29,3.09a7.08,7.08,0,0,1,6.13,10.62L58.87,87.41a7.08,7.08,0,0,1-12.26,0L4.05,13.71A7.08,7.08,0,0,1,10.18,3.09H95.29m0-3.09H10.18a10.17,10.17,0,0,0-8.8,15.25L43.93,89a10.16,10.16,0,0,0,17.61,0l42.55-73.7a10.06,10.06,0,0,0,0-10.17A10,10,0,0,0,95.29,0"/><path class="cls-3" d="M81.79,7.4H51.14a3.87,3.87,0,0,0-3.87,3.87V22a17.45,17.45,0,0,1,16.4,13.07h4.9l8.9,7.49V35.09h4.32a3.87,3.87,0,0,0,3.87-3.87V11.27A3.87,3.87,0,0,0,81.79,7.4Z"/><path class="cls-4" d="M46.79,25a14.45,14.45,0,0,0-10.38,24.5l-3.52,6.12,7.93-3a14.45,14.45,0,1,0,6-27.61Z"/></svg>