<svg id="Warstwa_1" data-name="Warstwa 1" xmlns="http://www.w3.org/2000/svg" viewBox="0 0 105.47 94.04"><defs><style>.cls-1{fill:#f0ae00;}.cls-2{fill:#f19e19;}.cls-3{fill:#194093;}.cls-4{fill:#fff;}.cls-5{fill:#94b516;}</style></defs><title>sprawnosci-zuchowe</title><path class="cls-1" d="M52.74,92.49a8.54,8.54,0,0,1-7.47-4.31L2.72,14.48A8.62,8.62,0,0,1,10.18,1.54H95.29a8.63,8.63,0,0,1,7.47,12.94L60.2,88.18a8.53,8.53,0,0,1-7.46,4.31"/><path class="cls-2" d="M95.29,3.09a7.08,7.08,0,0,1,6.13,10.62L58.87,87.41a7.08,7.08,0,0,1-12.26,0L4.05,13.71A7.08,7.08,0,0,1,10.18,3.09H95.29m0-3.09H10.18a10.17,10.17,0,0,0-8.8,15.25L43.93,89a10.16,10.16,0,0,0,17.61,0l42.55-73.7a10.06,10.06,0,0,0,0-10.17A10,10,0,0,0,95.29,0"/><rect class="cls-3" x="32.5" y="7.97" width="40.48" height="47.67"/><rect class="cls-4" x="37.73" y="12.24" width="30.01" height="35.92"/><path class="cls-5" d="M49,39.78V24h3.56a2.71,2.71,0,0,1,2,.62,2.7,2.7,0,0,1,.63,2v9.8a.69.69,0,0,0,.78.79h1.36v5.17H51.62a2.25,2.25,0,0,1-2.6-2.6Zm0-17.86V16h6.12v5.91Z"/></svg>