<svg xmlns="http://www.w3.org/2000/svg" viewBox="0 0 105.47 94.04"><path d="M52.74,92.49a8.54,8.54,0,0,1-7.47-4.31L2.72,14.48A8.62,8.62,0,0,1,10.18,1.54H95.29a8.63,8.63,0,0,1,7.47,12.94L60.2,88.18a8.53,8.53,0,0,1-7.46,4.31" fill="#f0ae00"/><path d="M95.29,3.09a7.08,7.08,0,0,1,6.13,10.62L58.87,87.41a7.08,7.08,0,0,1-12.26,0L4.05,13.71A7.08,7.08,0,0,1,10.18,3.09H95.29m0-3.09H10.18a10.17,10.17,0,0,0-8.8,15.25L43.93,89a10.16,10.16,0,0,0,17.61,0l42.55-73.7a10.06,10.06,0,0,0,0-10.17A10,10,0,0,0,95.29,0" fill="#f19e19"/><path d="M32.5 7.97h40.48v47.67H32.5z" fill="#194093"/><path d="M37.73 12.24h30.01v35.92H37.73z" fill="#fff"/><path d="M49,39.78V24h3.56a2.71,2.71,0,0,1,2,.62,2.7,2.7,0,0,1,.63,2v9.8a.69.69,0,0,0,.78.79h1.36v5.17H51.62a2.25,2.25,0,0,1-2.6-2.6Zm0-17.86V16h6.12v5.91Z" fill="#94b516"/></svg>