<svg id="Warstwa_1" data-name="Warstwa 1" xmlns="http://www.w3.org/2000/svg" viewBox="0 0 105.47 94.04"><defs><style>.cls-1{fill:#f0ae00;}.cls-2{fill:#f19e19;}.cls-3{fill:#c90c0f;}.cls-4{fill:#fff;}</style></defs><title>sprawnosci-zuchowe</title><path class="cls-1" d="M52.74,92.49a8.54,8.54,0,0,1-7.47-4.31L2.72,14.48A8.62,8.62,0,0,1,10.18,1.54H95.29a8.63,8.63,0,0,1,7.47,12.94L60.2,88.18a8.53,8.53,0,0,1-7.46,4.31"/><path class="cls-2" d="M95.29,3.09a7.08,7.08,0,0,1,6.13,10.62L58.87,87.41a7.08,7.08,0,0,1-12.26,0L4.05,13.71A7.08,7.08,0,0,1,10.18,3.09H95.29m0-3.09H10.18a10.17,10.17,0,0,0-8.8,15.25L43.93,89a10.16,10.16,0,0,0,17.61,0l42.55-73.7a10.06,10.06,0,0,0,0-10.17A10.06,10.06,0,0,0,95.29,0"/><path class="cls-3" d="M78.76,10.13l-1.9.35V42.55A39.2,39.2,0,0,0,54.62,47.6a9.09,9.09,0,0,1-1.09.84,1.4,1.4,0,0,1-1.59,0,9.09,9.09,0,0,1-1.09-.84,39.2,39.2,0,0,0-22.24-5.05V10.46l-1.77-.33a1.22,1.22,0,0,0-1.45,1.19l-.12,33.25a1.22,1.22,0,0,0,1,1.21l26.44,4.33,26.44-4.33a1.22,1.22,0,0,0,1-1.21V11.33A1.21,1.21,0,0,0,78.76,10.13Z"/><path class="cls-4" d="M50.85,47.6c-5.22-5.87-11.7-9.25-17.12-8.83a1.45,1.45,0,0,1-1.13-.4,1.48,1.48,0,0,1-.48-1.1v-29a20.72,20.72,0,0,0-3.51.67V42.55A39.2,39.2,0,0,1,50.85,47.6Z"/><path class="cls-4" d="M73.35,37.27a1.48,1.48,0,0,1-.48,1.1,1.45,1.45,0,0,1-1.13.4c-5.42-.42-11.9,3-17.12,8.83a39.2,39.2,0,0,1,22.24-5.05V8.91a20.72,20.72,0,0,0-3.51-.67Z"/><path class="cls-4" d="M51.24,43.65V15.23C46.38,9.6,40.37,6.15,35.12,5.94v29.8C40.46,35.9,46.22,38.74,51.24,43.65Z"/><path class="cls-4" d="M54.24,15.23V43.65c5-4.91,10.77-7.75,16.11-7.91V5.94C65.1,6.15,59.09,9.59,54.24,15.23Z"/></svg>