<?xml version="1.0" encoding="utf-8"?>
<!-- Generator: Adobe Illustrator 24.2.0, SVG Export Plug-In . SVG Version: 6.00 Build 0)  -->
<svg version="1.1" id="Layer_1" xmlns="http://www.w3.org/2000/svg" x="0px" y="0px"
	 viewBox="0 0 87.87 87.87" style="enable-background:new 0 0 87.87 87.87;" xml:space="preserve">
<style type="text/css">
	.st0{fill-rule:evenodd;clip-rule:evenodd;}
</style>
<g>
	<path d="M39.64,77.1l-1.14,8.93c1.79,0.23,3.62,0.35,5.44,0.35c1.88,0,3.76-0.13,5.61-0.37l-1.18-8.92
		C45.49,77.47,42.51,77.47,39.64,77.1z"/>
	<path d="M69.8,10.28c-2.94-2.26-6.16-4.13-9.58-5.55l-3.46,8.31c2.69,1.12,5.23,2.59,7.55,4.37L69.8,10.28z"/>
	<path d="M4.77,60.31c1.43,3.41,3.3,6.63,5.57,9.57l7.12-5.5c-1.79-2.31-3.26-4.85-4.39-7.53L4.77,60.31z"/>
	<path d="M18.19,77.67c2.95,2.25,6.18,4.11,9.6,5.52l3.43-8.32c-2.69-1.11-5.24-2.57-7.56-4.35L18.19,77.67z"/>
	<path d="M56.78,74.82l3.46,8.31c3.41-1.42,6.63-3.29,9.57-5.55l-5.49-7.13C62.01,72.23,59.47,73.7,56.78,74.82z"/>
	<path d="M86.02,38.39l-8.92,1.17c0.19,1.44,0.28,2.91,0.28,4.38c0,1.46-0.1,2.92-0.28,4.36l8.93,1.15
		c0.24-1.82,0.36-3.67,0.36-5.51C86.38,42.08,86.26,40.22,86.02,38.39z"/>
	<path d="M70.49,64.27l7.14,5.48c2.26-2.94,4.12-6.17,5.54-9.59l-8.32-3.44C73.74,59.41,72.27,61.95,70.49,64.27z"/>
	<path d="M83.16,27.69c-1.42-3.42-3.28-6.64-5.54-9.58l-7.14,5.48c1.78,2.32,3.25,4.86,4.37,7.55L83.16,27.69z"/>
	<path d="M10.5,43.94c0-18.44,15-33.44,33.44-33.44c1.47,0,2.95,0.1,4.4,0.29l1.17-8.92C47.67,1.62,45.8,1.5,43.94,1.5
		C20.54,1.5,1.5,20.54,1.5,43.94c0,1.87,0.12,3.74,0.36,5.58l8.92-1.17C10.59,46.89,10.5,45.41,10.5,43.94z"/>
</g>
<g>
	<path class="st0" d="M44.44,37.27c-2.3-0.01-4.25,1.91-4.27,4.19c-0.02,2.28,1.9,4.22,4.21,4.23c2.38,0.01,4.21-1.79,4.22-4.17
		C48.61,39.15,46.78,37.28,44.44,37.27z"/>
	<path class="st0" d="M65.08,32.01v-1.84h-42.3v1.84h-3.6v5.89h5.2v-1.98h0.06c0.08,0.28,0.2,0.55,0.36,0.8l8.85,13.56
		c0.85,1.31,1.6,2.34,1.65,2.31c0.06-0.04,0.26,1.2,0.45,2.75l0.36,2.92c0.19,1.55,0.71,6.45,1.15,7.22
		c0.45,0.77,3.64,1.41,5.2,1.41h2.92c1.56,0,3.51-0.29,4.33-0.63c0.82-0.35,1.84-6.45,2.03-7.99l0.36-2.95
		c0.19-1.55,0.4-2.78,0.47-2.73c0.07,0.04,0.82-0.99,1.67-2.29l8.85-13.56c0.02-0.04,0.04-0.07,0.06-0.11v1.28h5.52v-5.89H65.08z
		 M51.66,45.12c-0.85,1.31-2.82,2.37-4.38,2.37h-6.63c-1.56,0-3.53-1.07-4.38-2.37l-6-9.19h27.4L51.66,45.12z"/>
</g>
</svg>
