<?xml version="1.0" encoding="utf-8"?>
<!-- Generator: Adobe Illustrator 24.2.0, SVG Export Plug-In . SVG Version: 6.00 Build 0)  -->
<svg version="1.1" id="Layer_1" xmlns="http://www.w3.org/2000/svg" x="0px" y="0px"
	 viewBox="0 0 87.87 87.87" style="enable-background:new 0 0 87.87 87.87;" xml:space="preserve">
<style type="text/css">
	.st0{fill-rule:evenodd;clip-rule:evenodd;}
</style>
<g>
	<path d="M4.74,60.22c1.42,3.41,3.28,6.63,5.54,9.57l7.13-5.49c-1.78-2.32-3.25-4.85-4.37-7.54L4.74,60.22z"/>
	<path d="M18.09,77.61c2.94,2.26,6.16,4.12,9.57,5.54l3.45-8.31c-2.69-1.12-5.22-2.58-7.54-4.37L18.09,77.61z"/>
	<path d="M43.94,1.5C20.54,1.5,1.5,20.54,1.5,43.94c0,1.86,0.12,3.74,0.36,5.57l8.92-1.17c-0.19-1.45-0.29-2.93-0.29-4.4
		c0-18.44,15-33.44,33.44-33.44c18.44,0,33.44,15,33.44,33.44c0,18.44-15,33.44-33.44,33.44c-1.47,0-2.95-0.1-4.4-0.29l-1.17,8.92
		c1.84,0.24,3.71,0.36,5.57,0.36c23.4,0,42.44-19.04,42.44-42.44C86.38,20.54,67.34,1.5,43.94,1.5z"/>
</g>
<g>
	<path class="st0" d="M39.58,45.68c-1.64,1.83-2.96,3.19-4.14,4.65c-0.9,1.11-2.03,1.56-3.39,1.57c-3,0.02-5.99,0.03-8.99,0.01
		c-1.53-0.01-2.48-0.92-2.49-2.25c-0.01-1.31,0.96-2.18,2.51-2.19c2.29-0.01,4.59,0.03,6.88,0c0.39-0.01,0.9-0.17,1.14-0.44
		c3.65-4.18,7.27-8.39,10.89-12.59c0.09-0.1,0.14-0.22,0.28-0.43c-1.64-0.21-2.99-0.31-4.06,1.25c-1.11,1.6-2.52,3-3.82,4.47
		c-0.92,1.04-1.88,1.2-2.69,0.51c-0.85-0.72-0.82-1.75,0.1-2.82c1.76-2.04,3.5-4.12,5.34-6.09c0.47-0.5,1.3-0.88,1.99-0.91
		c2.47-0.11,4.96-0.02,7.43-0.05c1.04-0.02,1.84,0.35,2.55,1.08c1.56,1.62,3.15,3.2,4.88,4.95c1.42-1.48,2.73-2.88,4.09-4.24
		c0.8-0.8,1.73-0.86,2.49-0.27c0.89,0.7,0.99,1.82,0.12,2.72c-1.69,1.76-3.41,3.5-5.17,5.19c-1.15,1.1-2.05,1.04-3.18-0.06
		c-0.95-0.93-1.89-1.87-2.84-2.81c-0.02-0.02-0.06-0.03-0.17-0.08c-1.62,1.87-3.27,3.77-5,5.77c1.43,1.43,2.81,2.86,4.25,4.22
		c0.92,0.87,1.13,1.87,0.87,3.02c-0.85,3.81-1.71,7.63-2.58,11.43c-0.42,1.83-1.92,2.63-3.35,1.83c-0.95-0.53-1.31-1.53-1.01-2.9
		c0.44-2.02,0.73-4.09,1.41-6.03c0.79-2.26,0.4-3.86-1.54-5.31C41.3,48.08,40.57,46.84,39.58,45.68z"/>
	<path class="st0" d="M59.82,59.05c0.01,2.4-1.95,4.4-4.33,4.41c-2.36,0.01-4.37-2-4.38-4.37c-0.01-2.38,1.97-4.39,4.34-4.41
		C57.83,54.66,59.8,56.64,59.82,59.05z"/>
	<path class="st0" d="M54.67,27.89c-0.01,1.94-1.51,3.41-3.44,3.4c-1.88-0.01-3.45-1.59-3.44-3.45c0.02-1.86,1.62-3.43,3.49-3.42
		C53.19,24.43,54.68,25.95,54.67,27.89z"/>
</g>
</svg>
