<?xml version="1.0" encoding="utf-8"?>
<!-- Generator: Adobe Illustrator 24.2.0, SVG Export Plug-In . SVG Version: 6.00 Build 0)  -->
<svg version="1.1" id="Layer_1" xmlns="http://www.w3.org/2000/svg" x="0px" y="0px"
	 viewBox="0 0 87.87 87.87" style="enable-background:new 0 0 87.87 87.87;" xml:space="preserve">
<path d="M43.94,1.5C20.54,1.5,1.5,20.54,1.5,43.94c0,23.4,19.04,42.44,42.44,42.44c23.4,0,42.44-19.04,42.44-42.44
	C86.38,20.54,67.34,1.5,43.94,1.5z M43.94,77.38c-18.44,0-33.44-15-33.44-33.44c0-18.44,15-33.44,33.44-33.44
	c18.44,0,33.44,15,33.44,33.44C77.38,62.37,62.38,77.38,43.94,77.38z"/>
<path d="M70.03,44.46c-0.53-2.19-2.47-3.73-4.72-3.73c-0.38,0-0.76,0.04-1.14,0.13c-0.46,0.11-0.88,0.3-1.27,0.53
	c-0.67-1.91-1.75-3.68-3.22-5.16c-2.61-2.64-6.1-4.11-9.81-4.13l-11.45-0.08l-0.01,2.06l-3.12-0.01l0.01-2.05l-17.01-0.1L18.2,46.8
	l17.71,0.1c0.21,3.36,1.6,6.49,3.99,8.9c2.61,2.64,6.1,4.11,9.81,4.13h0.08c0,0,0,0,0,0c6.29,0,11.63-4.23,13.33-9.99
	c0.66,0.33,1.4,0.53,2.18,0.53c0.38,0,0.76-0.05,1.14-0.13c1.26-0.3,2.33-1.08,3.01-2.19C70.12,47.03,70.33,45.73,70.03,44.46z
	 M49.79,54.93h-0.05c-2.38-0.01-4.61-0.95-6.29-2.64c-1.67-1.69-2.59-3.93-2.57-6.31c0-0.36,0.03-0.74,0.1-1.2l0.41-2.84l-18.16-0.1
	l0.03-4.87L30.26,37l-0.01,2.06l13.13,0.05l0.01-2.04l6.45,0.05c2.38,0.01,4.61,0.95,6.28,2.64c1.67,1.69,2.59,3.93,2.57,6.31
	C58.67,50.95,54.67,54.93,49.79,54.93z M67.74,47.09c-0.4,0.65-1.03,1.11-1.77,1.29c-0.87,0.21-1.74-0.03-2.41-0.54
	c0.08-0.57,0.13-1.15,0.13-1.75c0-0.9-0.08-1.79-0.24-2.66c0.33-0.28,0.73-0.5,1.18-0.61c0.22-0.05,0.45-0.08,0.67-0.08
	c1.32,0,2.47,0.9,2.78,2.19C68.26,45.67,68.14,46.44,67.74,47.09z"/>
</svg>
