<?xml version="1.0" encoding="utf-8"?>
<!-- Generator: Adobe Illustrator 24.2.0, SVG Export Plug-In . SVG Version: 6.00 Build 0)  -->
<svg version="1.1" id="Layer_1" xmlns="http://www.w3.org/2000/svg" xmlns:xlink="http://www.w3.org/1999/xlink" x="0px" y="0px"
	 viewBox="0 0 87.87 87.87" style="enable-background:new 0 0 87.87 87.87;" xml:space="preserve">
<style type="text/css">
	.st0{clip-path:url(#SVGID_2_);fill:#231F20;}
</style>
<g>
	<defs>
		<rect id="SVGID_1_" y="0" width="87.87" height="87.87"/>
	</defs>
	<clipPath id="SVGID_2_">
		<use xlink:href="#SVGID_1_"  style="overflow:visible;"/>
	</clipPath>
	<path class="st0" d="M43.94,1.5C20.54,1.5,1.5,20.54,1.5,43.94c0,23.4,19.04,42.44,42.44,42.44c23.4,0,42.44-19.04,42.44-42.44
		C86.38,20.54,67.34,1.5,43.94,1.5 M43.94,77.38c-18.44,0-33.44-15-33.44-33.44c0-18.44,15-33.44,33.44-33.44
		c18.44,0,33.44,15,33.44,33.44C77.38,62.38,62.37,77.38,43.94,77.38"/>
	<path class="st0" d="M45.59,29.32v-3.69h4.59v-3.3H37.7v3.3h4.59v3.69c-9.09,0.84-16.23,8.5-16.23,17.8
		c0,9.86,8.02,17.88,17.88,17.88s17.88-8.02,17.88-17.88C61.82,37.82,54.68,30.16,45.59,29.32 M43.94,60.6
		c-7.44,0-13.48-6.05-13.48-13.48c0-7.44,6.05-13.49,13.48-13.49s13.48,6.05,13.48,13.49C57.42,54.55,51.37,60.6,43.94,60.6"/>
	<path class="st0" d="M45.04,47.54v-7.92c0-0.61-0.49-1.1-1.1-1.1c-0.61,0-1.1,0.49-1.1,1.1v8.83l5.29,5.29
		c0.22,0.21,0.5,0.32,0.78,0.32c0.28,0,0.56-0.11,0.78-0.32c0.43-0.43,0.43-1.13,0-1.56L45.04,47.54z"/>
</g>
</svg>
