<?xml version="1.0" encoding="utf-8"?>
<!-- Generator: Adobe Illustrator 24.2.0, SVG Export Plug-In . SVG Version: 6.00 Build 0)  -->
<svg version="1.1" xmlns="http://www.w3.org/2000/svg" x="0px" y="0px"
	 viewBox="0 0 87.87 87.87" style="enable-background:new 0 0 87.87 87.87;" xml:space="preserve">
<g id="Warstwa_2">
</g>
<g id="Warstwa_3">
	<g>
		<path d="M39.63,77.16l-1.15,8.94c1.8,0.23,3.63,0.35,5.45,0.35c1.88,0,3.77-0.13,5.62-0.37l-1.18-8.94
			C45.5,77.53,42.51,77.53,39.63,77.16z"/>
		<path d="M69.85,10.22c-2.95-2.27-6.18-4.14-9.6-5.56l-3.46,8.33c2.7,1.12,5.24,2.59,7.56,4.38L69.85,10.22z"/>
		<path d="M4.7,60.33c1.43,3.42,3.3,6.64,5.58,9.58l7.13-5.51c-1.79-2.32-3.27-4.86-4.39-7.55L4.7,60.33z"/>
		<path d="M18.14,77.73c2.95,2.26,6.19,4.12,9.62,5.53l3.43-8.34c-2.7-1.11-5.25-2.58-7.57-4.36L18.14,77.73z"/>
		<path d="M56.81,74.88l3.47,8.32c3.42-1.42,6.65-3.3,9.59-5.57l-5.5-7.14C62.04,72.28,59.5,73.76,56.81,74.88z"/>
		<path d="M86.1,38.38l-8.94,1.17c0.19,1.44,0.28,2.92,0.28,4.39c0,1.46-0.1,2.92-0.28,4.36l8.94,1.16
			c0.24-1.82,0.36-3.68,0.36-5.52C86.46,42.08,86.34,40.21,86.1,38.38z"/>
		<path d="M70.54,64.3l7.15,5.49c2.26-2.95,4.13-6.18,5.55-9.61l-8.33-3.45C73.79,59.43,72.32,61.98,70.54,64.3z"/>
		<path d="M83.23,27.66c-1.42-3.42-3.29-6.65-5.55-9.6l-7.15,5.49c1.78,2.32,3.26,4.87,4.38,7.56L83.23,27.66z"/>
		<path d="M10.43,43.93c0-18.47,15.03-33.5,33.5-33.5c1.48,0,2.96,0.1,4.41,0.29l1.17-8.94c-1.84-0.24-3.72-0.36-5.59-0.36
			c-23.44,0-42.52,19.07-42.52,42.52c0,1.87,0.12,3.75,0.36,5.59l8.94-1.18C10.53,46.89,10.43,45.41,10.43,43.93z"/>
		<polygon points="36.87,52.08 39.14,49.81 36.67,40.57 45.48,31.71 42.95,29.2 34.11,38.09 24.98,35.65 22.71,37.92 31.84,40.37 
			30.82,41.39 21.69,38.94 19.41,41.22 28.56,43.67 27.54,44.69 18.39,42.24 16.12,44.51 25.28,46.97 22.2,50.07 21.76,52.93 
			24.73,52.58 27.81,49.48 30.28,58.67 32.55,56.4 30.08,47.2 31.11,46.17 33.57,55.38 35.84,53.1 33.38,43.89 34.4,42.86 		"/>
		<polygon points="68.76,57.27 62.96,40.03 59.79,42.53 49.24,29.35 46.45,31.58 56.99,44.74 53.43,47.54 		"/>
	</g>
</g>
</svg>
