<?xml version="1.0" encoding="utf-8"?>
<!-- Generator: Adobe Illustrator 24.2.0, SVG Export Plug-In . SVG Version: 6.00 Build 0)  -->
<svg version="1.1" xmlns="http://www.w3.org/2000/svg" x="0px" y="0px"
	 viewBox="0 0 87.87 87.87" style="enable-background:new 0 0 87.87 87.87;" xml:space="preserve">
<g id="Warstwa_2">
	<g>
		<path d="M42.98,41.36c0,0,8.94-6.81,5.22-12.06c-2.45-3.45-4.45-4.95-3.83-12.44c0,0-7.41,8.95-4.82,12.9
			C42.14,33.71,45,35.85,42.98,41.36"/>
		<polygon points="49.27,41.09 43.73,43.27 38.19,41.09 37.46,42.96 40.98,44.35 37.46,45.74 38.19,47.61 43.73,45.43 49.27,47.61 
			50,45.74 46.48,44.35 50,42.96 		"/>
	</g>
	<g>
		<polygon points="29.93,37.95 29.39,38.34 29.94,37.95 		"/>
		<path d="M30.46,38.79c0.08,0.22,0.14,0.45,0.15,0.7c0.03,1.27-1.09,1.89-1.87,2.21c0.94,1.18,1.44,1.73,1.44,1.73l2.05,0.6
			c0.45,0.13,0.91-0.17,0.98-0.63l0.18-1.16l0.08-0.51l0.08-0.48l1.41-0.1c0.1-0.01,0.15-0.11,0.12-0.19l-0.94-2.13l0.04-0.39
			c0.03-0.48,0.03-1.3-0.21-1.98L30.46,38.79L30.46,38.79z"/>
		<path d="M26.96,39.38c0,0.79,0.64,1.44,1.44,1.44c0.79,0,1.44-0.64,1.44-1.44c0-0.41-0.18-0.78-0.45-1.04c0,0,0.55-0.39,0.55-0.39
			l3.54-2.48c-0.5-0.74-1.4-1.66-2.92-1.84l1.08-3.11l-1.17-1.91l-1.86,1.4v7.96c-0.07-0.01-0.14-0.02-0.21-0.02
			c-0.05,0-0.09,0.01-0.14,0.01l-1-7.56l-1.91-1.17l-0.98,2.05l3.37,6.83c-0.18,0.09-0.33,0.22-0.45,0.37l-3.95-6.27l-2.22-0.27
			l-0.03,2.28l5.93,4.81C26.98,39.15,26.96,39.26,26.96,39.38z"/>
		<path d="M40.38,55.48c-0.04-2.43-1.84-4.46-4.22-4.83l-7.16,4.92l5.37-5.27l-4.25-5.09l-4.49-5.31l-0.89,1.26
			c-0.62,0.87-3.16,7.27-4.53,11.25c-0.57,1.66-0.88,5.2,0,6.96c0.99,1.99,4.34,3.73,6.58,4.04c2.7,0.37,5.92,0.51,9.82-1.48
			c1.4-0.82,2.36-1.55,3.02-2.14c0.55-0.49,0.81-1.18,0.79-1.86c0-0.06,0.02-0.12,0.02-0.17L40.38,55.48z"/>
	</g>
	<g>
		<polygon points="57.94,37.95 58.49,38.34 57.94,37.95 		"/>
		<path d="M57.41,38.79c-0.08,0.22-0.14,0.45-0.15,0.7c-0.03,1.27,1.09,1.89,1.87,2.21c-0.94,1.18-1.44,1.73-1.44,1.73l-2.05,0.6
			c-0.45,0.13-0.91-0.17-0.98-0.63l-0.18-1.16l-0.08-0.51l-0.08-0.48l-1.41-0.1c-0.1-0.01-0.15-0.11-0.12-0.19l0.94-2.13l-0.04-0.39
			c-0.03-0.48-0.03-1.3,0.21-1.98L57.41,38.79L57.41,38.79z"/>
		<path d="M60.91,39.38c0,0.79-0.64,1.44-1.44,1.44c-0.79,0-1.44-0.64-1.44-1.44c0-0.41,0.18-0.78,0.45-1.04
			c0,0-0.55-0.39-0.55-0.39l-3.54-2.48c0.5-0.74,1.4-1.66,2.92-1.84l-1.08-3.11l1.17-1.91l1.86,1.4v7.96
			c0.07-0.01,0.14-0.02,0.21-0.02c0.05,0,0.09,0.01,0.14,0.01l1-7.56l1.91-1.17l0.98,2.05l-3.37,6.83c0.18,0.09,0.33,0.22,0.45,0.37
			l3.95-6.27l2.22-0.27l0.03,2.28l-5.93,4.81C60.89,39.15,60.91,39.26,60.91,39.38z"/>
		<path d="M47.5,55.48c0.04-2.43,1.84-4.46,4.22-4.83l7.16,4.92l-5.37-5.27l4.25-5.09l4.49-5.31l0.89,1.26
			c0.62,0.87,3.16,7.27,4.53,11.25c0.57,1.66,0.88,5.2,0,6.96c-0.99,1.99-4.34,3.73-6.58,4.04c-2.7,0.37-5.92,0.51-9.82-1.48
			c-1.4-0.82-2.36-1.55-3.02-2.14c-0.55-0.49-0.81-1.18-0.79-1.86c0-0.06-0.02-0.12-0.02-0.17L47.5,55.48z"/>
	</g>
	<g>
		<g>
			<g>
				<g>
					<path d="M4.66,60.25c1.42,3.42,3.29,6.64,5.55,9.59l7.15-5.5c-1.78-2.32-3.26-4.86-4.38-7.55L4.66,60.25z"/>
					<path d="M18.05,77.67c2.94,2.26,6.17,4.13,9.59,5.55l3.46-8.33c-2.69-1.12-5.23-2.59-7.55-4.37L18.05,77.67z"/>
					<path d="M43.93,1.42c-23.44,0-42.52,19.08-42.52,42.52c0,1.87,0.12,3.75,0.36,5.58l8.94-1.18c-0.19-1.45-0.29-2.93-0.29-4.41
						c0-18.47,15.03-33.5,33.5-33.5c18.48,0,33.51,15.03,33.51,33.5c0,18.47-15.03,33.5-33.51,33.5c-1.47,0-2.96-0.1-4.41-0.29
						l-1.17,8.94c1.84,0.24,3.72,0.36,5.58,0.36c23.45,0,42.52-19.08,42.52-42.52C86.46,20.49,67.38,1.42,43.93,1.42z"/>
				</g>
			</g>
		</g>
	</g>
</g>
<g id="Warstwa_3">
</g>
</svg>
