<?xml version="1.0" encoding="utf-8"?>
<!-- Generator: Adobe Illustrator 24.2.0, SVG Export Plug-In . SVG Version: 6.00 Build 0)  -->
<svg version="1.1" id="Warstwa_3" xmlns="http://www.w3.org/2000/svg" x="0px" y="0px"
	 viewBox="0 0 87.87 87.87" style="enable-background:new 0 0 87.87 87.87;" xml:space="preserve">
<g>
	<g>
		<g>
			<g>
				<path d="M43.94,1.42c-23.44,0-42.52,19.07-42.52,42.52c0,23.44,19.07,42.52,42.52,42.52c23.45,0,42.52-19.08,42.52-42.52
					C86.46,20.49,67.38,1.42,43.94,1.42z M43.94,77.44c-18.47,0-33.5-15.03-33.5-33.5c0-18.47,15.03-33.5,33.5-33.5
					c18.47,0,33.5,15.03,33.5,33.5C77.44,62.41,62.41,77.44,43.94,77.44z"/>
			</g>
		</g>
	</g>
</g>
<g>
	<circle cx="49.67" cy="53.3" r="3.4"/>
	<polygon points="48.78,72.5 53.13,69.73 48.72,58.05 	"/>
	<polygon points="47.01,69.56 47.01,57.66 40.77,69.56 	"/>
	<path d="M64.05,56.55l-1.99-4.51h-3.88l2.16-1.74l1.8,0.91c0.1-1.43,0.11-4.34-1.3-5.75L54,51.22c0.37,0.66,0.59,1.41,0.59,2.21
		c0,1.9-1.46,3.66-3.11,4.36c1.18,2.57,2.19,3.98,2.19,3.98l4.35,1.27c0.95,0.27,1.92-0.35,2.07-1.33l0.38-2.45l-1.83-0.95
		l1.99-0.13l0.16-1.02l2.99-0.22C64,56.94,64.13,56.73,64.05,56.55z"/>
	<polygon points="54.34,40.4 32.94,25.01 26.73,25.67 29.64,31.21 	"/>
	<polygon points="55.34,39.14 40.03,18.33 34.3,17.37 35,23.22 	"/>
	<polygon points="53.31,41.25 28.11,33.51 22.43,36.13 26.97,40.44 	"/>
	<polygon points="52.8,42.31 26.44,42.42 21.8,46.61 27.41,49.38 	"/>
	<polygon points="28.1,51.29 24.9,56.67 31.08,57.65 53.24,43.37 	"/>
	<polygon points="33.24,59.76 32.45,65.73 38.36,64.56 45.72,51.09 	"/>
	<path d="M50.07,47.43l-1.5,1.38c0.35-0.09,0.71-0.16,1.09-0.16c1.34,0,2.52,0.63,3.32,1.59l7.31-6.28c0,0-0.04-2.13-2.67-3.39
		l-0.08-0.09L50.07,47.43z M51.2,47.67l1.23-1.14l0.79,2.12L51.2,47.67z M53.55,45.48l1.21-1.12l0.78,2.08L53.55,45.48z
		 M55.89,43.31l1.21-1.13l0.78,2.09L55.89,43.31z"/>
</g>
</svg>
