<svg xmlns="http://www.w3.org/2000/svg" viewBox="0 0 87.87 87.87" width="117.16" height="117.16" ><defs><clipPath id="A"><path d="M0 0h87.87v87.87H0z"/></clipPath></defs><g clip-path="url(#A)" fill="#231f20"><path d="M46.68 52.14h-5.3c-.16 0-.16 0-.16-.17v-5.14c0-.17 0-.17-.17-.17h-5.31c0-.05-.01-.09-.01-.13v-5.19c0-.15.08-.14.17-.14h5.31v-5.47h5.46v5.46h5.47v5.47h-5.26c-.23 0-.21-.04-.21.21v5.27h.01zM39.64 77.1l-1.15 8.93c1.79.23 3.63.35 5.45.35 1.88 0 3.76-.13 5.61-.37l-1.18-8.92c-2.88.38-5.86.38-8.73.01zM69.8 10.28c-2.94-2.26-6.16-4.13-9.58-5.55l-3.46 8.31a33.67 33.67 0 0 1 7.55 4.37l5.49-7.13zM4.77 60.31c1.43 3.41 3.3 6.63 5.57 9.57l7.12-5.5a33.2 33.2 0 0 1-4.38-7.53l-8.31 3.46zm13.42 17.36a42.65 42.65 0 0 0 9.6 5.52l3.43-8.32a33.28 33.28 0 0 1-7.56-4.35l-5.47 7.15zm38.59-2.85l3.46 8.31a42.23 42.23 0 0 0 9.57-5.56l-5.49-7.13a33.05 33.05 0 0 1-7.54 4.38zm29.24-36.43l-8.92 1.17a33.56 33.56 0 0 1 .28 4.38 33.48 33.48 0 0 1-.28 4.36l8.93 1.15c.24-1.82.35-3.67.35-5.51a42.75 42.75 0 0 0-.36-5.55zM70.49 64.27l7.14 5.48c2.26-2.94 4.12-6.17 5.54-9.59l-8.32-3.44c-1.11 2.69-2.58 5.23-4.36 7.55zm12.67-36.58c-1.42-3.42-3.28-6.64-5.54-9.58l-7.14 5.48a33.67 33.67 0 0 1 4.37 7.55l8.31-3.45zM10.5 43.94c0-18.44 15-33.44 33.44-33.44a34.14 34.14 0 0 1 4.41.29l1.17-8.92c-1.85-.25-3.72-.37-5.59-.37C20.54 1.5 1.5 20.54 1.5 43.94c0 1.87.12 3.74.36 5.58l8.92-1.17c-.19-1.46-.28-2.94-.28-4.41zm12.54 16.85h41.79V27.08H23.04v33.71zm36.79-5H28.04V32.08h31.79v23.71z"/></g></svg>