<svg xmlns="http://www.w3.org/2000/svg" viewBox="0 0 87.87 87.87" width="117.16" height="117.16" ><defs><clipPath id="A"><path d="M0 0h87.87v87.87H0z"/></clipPath></defs><g clip-path="url(#A)" fill="#231f20"><path d="M4.74 60.22a42.53 42.53 0 0 0 5.54 9.57l7.14-5.49c-1.78-2.32-3.25-4.85-4.37-7.54l-8.31 3.46zm13.35 17.39a42.53 42.53 0 0 0 9.57 5.54l3.45-8.31c-2.69-1.12-5.22-2.58-7.54-4.37l-5.48 7.14zM43.94 1.5C20.54 1.5 1.5 20.54 1.5 43.94c0 1.87.12 3.74.36 5.58l8.92-1.17c-.19-1.45-.29-2.93-.29-4.4 0-18.44 15-33.44 33.44-33.44s33.44 15 33.44 33.44-15 33.44-33.44 33.44c-1.47 0-2.95-.1-4.4-.29l-1.17 8.92c1.84.24 3.71.36 5.57.36 23.4 0 42.44-19.04 42.44-42.44.01-23.4-19.03-42.44-42.43-42.44zm7 63.4H37.41c-.42 0-.42 0-.42-.43V51.33c0-.42 0-.42-.43-.42H22.99l-.02-.33-.01-13.27c0-.38.19-.36.45-.36h13.57V22.97h13.96v13.96h13.97V50.9H51.48c-.58 0-.54-.09-.54.53V64.9z"/></g></svg>