<svg xmlns="http://www.w3.org/2000/svg" viewBox="0 0 87.87 87.87" width="117.16" height="117.16" ><defs><clipPath id="A"><path d="M0 0h87.87v87.87H0z"/></clipPath></defs><g clip-path="url(#A)"><path d="M43.94 1.5C20.54 1.5 1.5 20.54 1.5 43.94s19.04 42.44 42.44 42.44 42.44-19.04 42.44-42.44S67.34 1.5 43.94 1.5zm7.76 65.69H36.68c-.46 0-.46 0-.46-.48V52.14c0-.47 0-.47-.47-.47H20.71c-.01-.15-.02-.26-.02-.37l-.01-14.71c0-.42.21-.4.5-.4h15.04V20.68H51.7v15.49h15.5v15.5H52.31c-.64 0-.6-.1-.6.59l-.01 14.93z" fill-rule="evenodd" fill="#231f20"/></g></svg>