<?xml version="1.0" ?>
<svg height="512" viewBox="0 0 512 512" width="512" xmlns="http://www.w3.org/2000/svg">
  <path d="M242.109,451.065c-68.462,68.461 -161.391,80.256 -211.449,30.198C-19.382,431.22 -5.572,336.29 60.888,269.83c48.315,-48.33 96.645,-48.33 132.892,-84.577s24.165,-72.494 78.543,-126.857c66.445,-66.432 151.008,-78.528 205.372,-24.165c54.363,54.378 40.783,140.466 -24.15,205.4c-54.378,54.363 -90.61,42.281 -126.857,78.513C290.424,354.406 290.424,402.721 242.109,451.065" fill="#D99E82"/>
  <path d="M111.857,303.618c-4.122,0 -8.166,-2.003 -10.611,-5.7c-3.87,-5.854 -2.263,-13.737 3.591,-17.607c9.736,-6.438 20.52,-12.17 32.05,-17.035l0.38,-0.154c56.756,-21.823 99.829,-61.005 112.408,-102.257c2.047,-6.712 9.147,-10.496 15.86,-8.448c6.712,2.047 10.495,9.148 8.448,15.861c-7.752,25.421 -24.657,50.18 -48.889,71.599c-21.831,19.298 -48.975,35.509 -78.511,46.89c-10.021,4.241 -19.349,9.201 -27.731,14.743C116.697,302.935 114.264,303.618 111.857,303.618z" fill="#C1694F"/>
  <path d="M39.222,432.309c-0.094,0 -0.188,-0.001 -0.284,-0.003c-7.016,-0.154 -12.579,-5.966 -12.425,-12.982c0.676,-30.835 5.484,-70.025 36.929,-99.627c5.11,-4.811 13.152,-4.567 17.962,0.542c4.811,5.11 4.567,13.151 -0.542,17.962c-24.429,22.996 -28.338,54.194 -28.94,81.68C51.768,426.802 46.11,432.309 39.222,432.309z" fill="#C1694F"/>
  <path d="M98.629,422.103c-1.046,0 -2.108,-0.13 -3.167,-0.402c-6.798,-1.745 -10.894,-8.669 -9.15,-15.466c3.483,-13.569 9.008,-31.391 20.93,-48.913c14.764,-21.699 35.832,-37.668 62.618,-47.463c6.589,-2.411 13.887,0.979 16.297,7.57c2.41,6.591 -0.979,13.887 -7.57,16.297c-46.394,16.966 -60.529,51.036 -67.661,78.825C109.455,418.289 104.291,422.103 98.629,422.103z" fill="#C1694F"/>
  <path d="M353.042,263.095c-5.236,0 -10.141,-3.261 -11.982,-8.482c-2.336,-6.618 1.135,-13.876 7.753,-16.212c62.216,-21.959 99.583,-64.672 114.233,-130.579c1.523,-6.85 8.308,-11.17 15.161,-9.646c6.851,1.523 11.169,8.31 9.646,15.161c-8.562,38.52 -24.572,70.809 -47.581,95.971c-21.293,23.283 -49.217,41.134 -83.001,53.058C355.872,262.86 354.445,263.095 353.042,263.095z" fill="#C1694F"/>
  <path d="M345.843,209.69c-5.058,0 -9.842,-3.042 -11.817,-8.032c-2.584,-6.525 0.611,-13.909 7.136,-16.492c25.182,-9.973 49.399,-33.098 60.26,-57.544c2.849,-6.414 10.358,-9.301 16.771,-6.454c6.414,2.849 9.302,10.358 6.454,16.771c-13.591,30.592 -42.688,58.404 -74.129,70.854C348.983,209.402 347.4,209.69 345.843,209.69z" fill="#C1694F"/>
  <path d="M220.428,313.506c-5.011,0 -9.76,-2.984 -11.77,-7.91c-2.651,-6.497 0.467,-13.914 6.965,-16.565c14.278,-5.825 29.105,-19.705 33.449,-27.093c3.558,-6.048 11.346,-8.067 17.394,-4.511c6.048,3.558 8.069,11.346 4.511,17.394c-7.098,12.068 -26.61,29.928 -45.756,37.74C223.652,313.202 222.026,313.506 220.428,313.506z" fill="#C1694F"/>
  <path d="M278.027,131.09c-1.385,0 -2.792,-0.228 -4.173,-0.707c-6.629,-2.304 -10.135,-9.546 -7.831,-16.175c5.647,-16.244 17.374,-31.792 29.878,-39.609c5.948,-3.721 13.789,-1.911 17.51,4.039c3.72,5.951 1.912,13.79 -4.038,17.51c-6.455,4.035 -15.173,14.401 -19.346,26.404C288.204,127.799 283.286,131.09 278.027,131.09z" fill="#C1694F"/>
  <path d="M86.609,483.91c-6.216,0 -11.65,-4.566 -12.561,-10.898c-0.903,-6.278 -0.005,-17.556 1.366,-23.752c1.516,-6.852 8.301,-11.182 15.152,-9.66c6.852,1.516 11.178,8.3 9.661,15.152c-0.978,4.422 -1.352,12.359 -1.024,14.641c1,6.946 -3.822,13.388 -10.767,14.387C87.821,483.866 87.211,483.91 86.609,483.91z" fill="#C1694F"/>
</svg>
