<?xml version="1.0" ?>
<svg height="512" viewBox="0 0 512 512" width="512" xmlns="http://www.w3.org/2000/svg">
  <path d="M512,63.125l-51.413,66.693l-23.822,-18.367l1.193,-1.544l-17.896,-17.887l-17.977,-17.976l-1.544,1.183l-18.357,-23.822l66.682,-51.403l31.622,31.612z" fill="#BDF052"/>
  <path d="M512,63.125l-51.413,66.693l-23.822,-18.367l1.193,-1.544l-17.896,-17.887l60.426,-60.406z" fill="#92D700"/>
  <path d="M461.068,149.589c-5.955,22.157 -33.788,48.836 -72.297,85.752c-39.753,38.099 -89.221,85.511 -119.339,135.3c-34.74,57.439 -90.655,128.362 -159.724,140.013c-5.354,0.902 -10.688,1.343 -15.971,1.343c-24.644,0 -48.095,-9.675 -66.081,-27.662l-0.01,-0.01C5.819,462.5 -3.766,432.602 1.347,402.294C12.998,333.215 83.921,277.3 141.36,242.56c49.779,-30.108 97.202,-79.576 135.3,-119.329c36.916,-38.52 63.585,-66.342 85.752,-72.307c42.691,-11.47 68.136,15.57 74.774,23.882c0.02,0.01 0.03,0.03 0.05,0.04C445.618,81.553 472.528,106.979 461.068,149.589z" fill="#11A892"/>
  <path d="M461.068,149.589c-5.955,22.157 -33.788,48.836 -72.297,85.752c-39.753,38.099 -89.221,85.511 -119.339,135.3c-34.74,57.439 -90.655,128.362 -159.724,140.013c-5.354,0.902 -10.688,1.343 -15.971,1.343c-24.644,0 -48.095,-9.675 -66.081,-27.662l-0.01,-0.01l409.591,-409.48C445.618,81.553 472.528,106.979 461.068,149.589z" fill="#0F9887"/>
</svg>
