<svg height="512pt" viewBox="0 -94 512.00128 512" width="512pt" xmlns="http://www.w3.org/2000/svg"><path d="m510.910156 37.351562c-3.152344-10.347656-14.375-15.886718-24.5-12.082031-3.402344 1.28125-7.117187 2.675781-11.015625 4.132813-10.519531 3.941406-20.144531 9.851562-28.433593 17.433594-40.40625 36.992187-95.699219 76.621093-162.179688 96.867187-143.78125 43.792969-220.230469-79.019531-236.941406-110.066406l-16.9375 35.621093c9.15625 11.640626 16.605468 24.898438 17.617187 37.996094 5.003907 64.921875 78.636719 189.742188 265.605469 132.796875 73.5625-22.40625 166.230469-71.445312 197.054688-192.527343.847656-3.332032.730468-6.882813-.269532-10.171876zm0 0" fill="#ffe17d"/><path d="m510.910156 37.351562c-1.609375-5.285156-5.339844-9.289062-9.941406-11.460937-15.964844 51.640625-43.65625 89.21875-75.835938 116.816406-45.429687 38.964844-103.964843 59.433594-163.800781 60.660157-2.207031.046874-4.40625.070312-6.605469.070312-31.699218 0-128.804687-9.511719-172.265624-120.277344-17.777344-20.222656-29.285157-39.605468-34.621094-49.519531l-16.9375 35.621094c9.15625 11.640625 16.605468 24.894531 17.617187 37.992187 5.003907 64.921875 78.636719 189.742188 265.605469 132.796875 25.277344-7.699219 52.777344-18.644531 79.257812-34.515625.011719.007813.027344.011719.039063.015625 50.625-30.238281 97.527344-78.554687 117.757813-158.027343.847656-3.332032.730468-6.882813-.269532-10.171876zm0 0" fill="#ffd164"/><path d="m486.410156 25.269531c-1.855468.699219-3.816406 1.433594-5.832031 2.191407l28.394531 28.222656c.765625-2.6875 1.503906-5.398438 2.207032-8.160156.847656-3.332032.730468-6.882813-.269532-10.171876-3.152344-10.347656-14.375-15.886718-24.5-12.082031zm0 0" fill="#c48d66"/><path d="m491.277344 163.285156c-3.769532.242188-7.890625.503906-12.210938.773438-11.664062.734375-23.035156 3.695312-33.582031 8.734375-51.421875 24.5625-118.457031 47.242187-190.757813 47.242187-156.359374 0-195.21875-145.390625-202.4375-181.351562-1.082031-5.390625-3.429687-10.433594-6.917968-14.683594l-17.207032-20.964844c-3.113281-3.792968-8.816406-4.070312-12.285156-.601562l-13.433594 13.433594c-2.835937 2.835937-3.261718 7.253906-.980468 10.550781 10.203125 14.71875 35.878906 55.617187 29.1875 85.726562-14.695313 66.128907 20.75 212.664063 224.074218 212.664063 80 0 187.085938-20.714844 254.457032-131.871094 1.855468-3.058594 2.816406-6.628906 2.816406-10.203125 0-11.253906-9.492188-20.167969-20.722656-19.449219zm0 0" fill="#ffe17d"/><path d="m505.582031 168.316406c-67.75 99.988282-169.734375 119.148438-246.707031 119.148438-175.382812 0-226.035156-108.59375-227.347656-181-.179688 1.925781-.460938 3.824218-.875 5.679687-14.695313 66.128907 20.75 212.664063 224.074218 212.664063 80 0 187.085938-20.714844 254.457032-131.871094 1.855468-3.058594 2.816406-6.628906 2.816406-10.207031 0-5.746094-2.496094-10.859375-6.417969-14.414063zm0 0" fill="#ffd164"/><path d="m49.175781 29.894531c-1.066406-2.078125-2.308593-4.074219-3.804687-5.898437l-17.207032-20.960938c-3.113281-3.792968-8.816406-4.070312-12.285156-.605468l-13.433594 13.4375c-2.835937 2.835937-3.261718 7.253906-.980468 10.550781 4.195312 6.050781 10.992187 16.554687 17.089844 28.886719zm0 0" fill="#d29b6e"/><path d="m491.277344 163.285156c-2.054688.132813-4.226563.269532-6.464844.410156l19.707031 36.6875c1.574219-2.441406 3.128907-4.910156 4.667969-7.445312 1.851562-3.058594 2.8125-6.628906 2.8125-10.203125 0-11.253906-9.492188-20.167969-20.722656-19.449219zm0 0" fill="#c48d66"/></svg>