<?xml version="1.0" ?>
<svg height="295" viewBox="0 0 295 295" width="295" xmlns="http://www.w3.org/2000/svg">
  <path d="M197.304,64.896C172.336,53.472 162.533,29.901 172.5,0c0,0 -25,0 -25,20c0,-20 -25,-20 -25,-20c9.967,29.901 0.164,53.472 -24.804,64.896C56.282,82.238 27.5,120.536 27.5,165c0,60.752 53.726,110 120,110c66.273,0 120,-49.248 120,-110C267.5,120.536 238.719,82.238 197.304,64.896z" fill="#FFAD41"/>
  <path d="M147.5,20c0,-20 -25,-20 -25,-20c9.967,29.901 0.164,53.472 -24.804,64.896C56.282,82.238 27.5,120.536 27.5,165c0,60.752 53.726,110 120,110C147.5,213 147.5,36.374 147.5,20z" fill="#FF9811"/>
  <path d="M147.5,65c0,0 -60,20 -60,110c0,25.804 4.846,49.532 12.96,68.294c10.991,25.409 27.977,37.144 47.04,37.144V65z" fill="#BD720D"/>
  <path d="M147.5,65c0,0 60,20 60,110c0,25.804 -4.846,49.532 -12.961,68.294c-10.99,25.409 -27.977,37.144 -47.039,37.144V65z" fill="#FF9811"/>
  <path d="M122.639,272.63C123.953,285.201 134.581,295 147.5,295s23.547,-9.799 24.861,-22.37c-8.021,1.55 -16.337,2.37 -24.861,2.37C138.975,275 130.66,274.179 122.639,272.63z" fill="#804C09"/>
</svg>
