<?xml version="1.0" ?>
<svg height="51.529" viewBox="0 0 51.529 51.529" width="51.529" xmlns="http://www.w3.org/2000/svg">
  <path d="M36.486,12.899l-5.089,-0.419l1.884,-4.746c0.308,-0.775 0.696,-1.499 1.139,-2.177c-2.955,-1.3 -6.219,-2.027 -9.655,-2.027c-13.255,0 -24,10.745 -24,24s10.745,24 24,24s24,-10.745 24,-24c0,-6.059 -2.25,-11.59 -5.954,-15.813C40.889,12.643 38.719,13.083 36.486,12.899z" fill="#ed4220"/>
  <path d="M38.537,18.496m-2,0a2,2 0,1 1,4 0a2,2 0,1 1,-4 0" fill="#ef5c1d"/>
  <path d="M43.857,29.651m-2,0a2,2 0,1 1,4 0a2,2 0,1 1,-4 0" fill="#ef5c1d"/>
  <path d="M43.537,23.496m-2,0a2,2 0,1 1,4 0a2,2 0,1 1,-4 0" fill="#ef5c1d"/>
  <path d="M37.493,27.529m-2,0a2,2 0,1 1,4 0a2,2 0,1 1,-4 0" fill="#ef5c1d"/>
  <path d="M38.537,34.496m-2,0a2,2 0,1 1,4 0a2,2 0,1 1,-4 0" fill="#ef5c1d"/>
  <path d="M20.537,10.496m-2,0a2,2 0,1 1,4 0a2,2 0,1 1,-4 0" fill="#ef5c1d"/>
  <path d="M13.537,13.496m-2,0a2,2 0,1 1,4 0a2,2 0,1 1,-4 0" fill="#ef5c1d"/>
  <path d="M33.165,16.13c-0.397,0 -0.773,-0.239 -0.93,-0.632c-0.925,-2.331 -4.599,-2.976 -4.635,-2.982c-0.544,-0.092 -0.912,-0.606 -0.821,-1.151c0.09,-0.543 0.603,-0.912 1.147,-0.822c0.197,0.032 4.824,0.831 6.168,4.218c0.203,0.513 -0.048,1.095 -0.561,1.298C33.413,16.107 33.288,16.13 33.165,16.13z" fill="#845220"/>
  <path d="M28.364,15.529c-0.24,0 -0.481,-0.086 -0.673,-0.26c-0.408,-0.372 -0.438,-1.004 -0.066,-1.413c1.142,-1.255 2.585,-2.233 4.176,-2.831c0.517,-0.192 1.093,0.067 1.288,0.584c0.193,0.517 -0.068,1.094 -0.585,1.288c-1.295,0.486 -2.471,1.283 -3.4,2.304C28.906,15.419 28.636,15.529 28.364,15.529z" fill="#845220"/>
  <path d="M50.765,0.46l-5.089,-0.419C40.301,-0.401 35.27,2.722 33.281,7.734l-1.884,4.746l5.089,0.419c5.374,0.442 10.406,-2.681 12.395,-7.693L50.765,0.46z" fill="#517e2a"/>
  <path d="M31.958,11.068l-0.561,1.413l0.718,0.059c6.258,-6.111 13.059,-8.117 13.803,-8.164l0.035,-0.559l0.413,0.413l0.158,-0.593L46.08,3.212C45.482,3.08 38.497,5.009 31.958,11.068z" fill="#73a349"/>
</svg>
