<svg height="511pt" viewBox="0 -20 511.99966 511" width="511pt" xmlns="http://www.w3.org/2000/svg"><path d="m189.566406 402.632812 248.753906-248.753906c-30.066406-26.792968-69.910156-44.957031-112.316406-47.191406h-153.058594c-96.339843 5.070312-174.167968 87.054688-172.929687 184.519531 1.261719 99.652344 82.4375 180.046875 182.390625 180.046875 19.378906 0 38.050781-3.027344 55.570312-8.625 5.675782-1.8125 13.734376-2.242187 19.566407-1.304687-24.117188-7.914063-47.019531-20.554688-67.25-37.941407-6.238281-5.363281-6.542969-14.933593-.726563-20.75zm0 0" fill="#f25c5c"/><path d="m36.855469 291.207031c-1.238281-97.464843 76.589843-179.449219 172.929687-184.515625h-36.839844c-96.339843 5.066406-174.167968 87.050782-172.929687 184.515625 1.261719 99.652344 82.4375 180.046875 182.390625 180.046875 6.210938 0 12.347656-.316406 18.402344-.921875-91.316406-9.167969-162.769532-85.675781-163.953125-179.125zm0 0" fill="#d83f3f"/><path d="m319.875 151.1875c-30.710938-21.941406-12.347656-35.691406 3.28125-42.414062 5.933594-2.550782 5.300781-9.402344-1.132812-11.070313-12.6875-3.289063-25.761719-3.550781-37.074219-2.617187-11.355469.9375-20.664063-8.726563-19.410157-20.054688 3.472657-31.402344 19.15625-53.375 27.066407-62.664062 2.238281-2.628907 2.472656-6.535157.296875-9.21875-2.695313-3.328126-7.605469-3.523438-10.539063-.554688-10.207031 10.332031-32.832031 37.03125-43.5625 79.609375-2.203125 8.742187-10.589843 14.46875-19.542969 13.410156-12.402343-1.46875-27.625-1.722656-42.328124 2.089844-6.433594 1.667969-7.066407 8.519531-1.128907 11.070313 15.628907 6.722656 33.988281 20.472656 3.28125 42.414062-34.511719 24.660156 33.3125-3.207031 60.179688 35.652344 4.394531 6.355468 16.035156 6.355468 20.429687 0 26.867188-38.859375 94.691406-10.992188 60.183594-35.652344zm0 0" fill="#6fd844"/><path d="m250.164062 95.613281c7.410157.875 14.417969-2.90625 17.867188-9.1875-1.980469-3.273437-2.957031-7.222656-2.496094-11.394531 3.472656-31.402344 19.160156-53.375 27.066406-62.664062 2.238282-2.632813 2.472657-6.535157.300782-9.21875-2.699219-3.328126-7.605469-3.523438-10.539063-.554688-10.210937 10.332031-32.832031 37.03125-43.566406 79.609375-1.53125 6.085937-6.070313 10.703125-11.703125 12.59375 8.1875-.453125 16.078125-.011719 23.070312.816406zm0 0" fill="#5fbf32"/><path d="m209.988281 151.1875c30.707031-21.941406 12.347657-35.691406-3.28125-42.414062-5.9375-2.550782-5.304687-9.402344 1.128907-11.070313 3.65625-.949219 7.347656-1.644531 11.019531-2.132813-12.328125-1.429687-27.382813-1.640624-41.929688 2.132813-6.433593 1.667969-7.0625 8.519531-1.128906 11.070313 15.628906 6.722656 33.988281 20.472656 3.28125 42.414062-34.507813 24.660156 33.316406-3.207031 60.183594 35.652344 4.394531 6.355468 16.035156 6.355468 20.425781 0 1.609375-2.328125 3.367188-4.40625 5.242188-6.28125-29.386719-29.421875-87.386719-6.1875-54.941407-29.371094zm0 0" fill="#5fbf32"/><path d="m468.304688 144.722656c-5.230469-6.863281-15.277344-7.609375-21.378907-1.507812l-259.417969 259.417968c-5.816406 5.816407-5.515624 15.386719.726563 20.75 77.429687 66.550782 193.960937 63.710938 268.054687-8.519531 72.109376-70.300781 72.167969-191.203125 12.015626-270.140625zm0 0" fill="#f25c5c"/><path d="m223.789062 423.382812c-6.242187-5.363281-6.542968-14.933593-.726562-20.75l250.574219-250.574218c-1.722657-2.480469-3.5-4.929688-5.332031-7.335938-5.230469-6.863281-15.277344-7.609375-21.378907-1.507812l-259.417969 259.417968c-5.816406 5.816407-5.515624 15.386719.726563 20.75 41.902344 36.015626 95.257813 51.695313 147.140625 47.066407-40.054688-3.578125-79.234375-19.261719-111.585938-47.066407zm0 0" fill="#d83f3f"/><path d="m467.964844 259.238281c.507812-27.761719-38.789063-37.214843-47-11.304687-9.527344 30.050781-25.617188 57.539062-48.691406 79.984375-23.335938 22.699219-50.796876 38.90625-80.320313 48.710937-25.703125 8.535156-16.167969 47.5 11.515625 46.957032 43.210938-.847657 85.082031-16.710938 117.183594-47.933594 31.28125-30.433594 46.511718-72.457032 47.3125-116.414063zm0 0" fill="#d83f3f"/><path d="m327.507812 376.628906c29.523438-9.804687 56.984376-26.011718 80.320313-48.710937 23.074219-22.445313 39.164063-49.933594 48.691406-79.984375.933594-2.949219 2.285157-5.417969 3.921875-7.472656-11.71875-11.5-33.585937-11.109376-39.476562 7.472656-9.527344 30.050781-25.617188 57.539062-48.691406 79.984375-23.332032 22.699219-50.796876 38.90625-80.320313 48.710937-25.703125 8.535156-16.167969 47.5 11.515625 46.957032 8.25-.164063 16.453125-.875 24.546875-2.136719-18.710937-8.179688-22.417969-37.546875-.507813-44.820313zm0 0" fill="#c33"/><g fill="#f25c5c"><path d="m391.914062 358.558594-6.425781-6.421875c-3.015625-3.019531-3.019531-7.910157 0-10.929688 3.015625-3.015625 7.910157-3.015625 10.925781 0l6.425782 6.425781c3.015625 3.015626 3.019531 7.910157 0 10.925782-3.015625 3.019531-7.910156 3.019531-10.925782 0zm0 0"/><path d="m423.71875 323.949219-8.359375-3.554688c-3.929687-1.671875-5.757813-6.210937-4.085937-10.136719 1.667968-3.925781 6.207031-5.753906 10.132812-4.085937l8.359375 3.554687c3.929687 1.671876 5.757813 6.210938 4.089844 10.136719-1.671875 3.925781-6.207031 5.757813-10.136719 4.085938zm0 0"/><path d="m354.007812 385.488281-3.554687-8.359375c-1.671875-3.929687.160156-8.464844 4.085937-10.136718 3.925782-1.671876 8.464844.160156 10.132813 4.085937l3.558594 8.359375c1.671875 3.929688-.160157 8.464844-4.085938 10.136719-3.921875 1.667969-8.464843-.15625-10.136719-4.085938zm0 0"/></g></svg>