<?xml version="1.0" ?>
<svg height="512.003" viewBox="0 0 512.003 512.003" width="512.003" xmlns="http://www.w3.org/2000/svg">
  <path d="M384.143,424.686c-34.487,16.205 -79.362,-7.618 -86.924,-23.712s2.743,-65.844 37.23,-82.049c42.267,-19.86 103.223,-7.259 125.989,-1.401c4.845,1.247 7.335,6.546 5.202,11.071C455.618,349.86 426.41,404.826 384.143,424.686z" fill="#AFD755"/>
  <path d="M460.438,317.524c-22.766,-5.858 -83.723,-18.459 -125.99,1.401c-34.487,16.205 -44.792,65.955 -37.23,82.049c0.154,0.328 0.417,0.676 0.601,1.01c28.47,-17.222 105.687,-61.666 168.539,-77.072C466.233,321.542 463.991,318.438 460.438,317.524z" fill="#BEE86E"/>
  <path d="M285.342,65.015c6.481,24.709 -14.692,51.389 -26.223,54.414s-43.072,-9.831 -49.553,-34.54c-7.422,-28.299 5.831,-63.903 13.015,-80.112c2.092,-4.721 7.963,-6.261 12.103,-3.174C248.899,12.199 277.92,36.716 285.342,65.015z" fill="#AFD755"/>
  <path d="M259.293,119.365c11.567,-3.234 32.499,-29.759 26.049,-54.35c-7.422,-28.299 -36.444,-52.816 -50.658,-63.413c-2.346,-1.749 -5.189,-1.875 -7.645,-0.915C233.09,17.527 246.573,58.385 259.293,119.365z" fill="#BEE86E"/>
  <path d="M186.042,249.14c39.51,11.698 58.641,63.201 53.182,81.639s-49.545,51.224 -89.055,39.527c-48.917,-14.483 -89.431,-69.437 -103.22,-90.065c-2.78,-4.159 -1.118,-9.773 3.478,-11.748C73.223,258.697 137.125,234.657 186.042,249.14z" fill="#AFD755"/>
  <path d="M186.042,249.14c-48.917,-14.483 -112.819,9.557 -135.615,19.353c-3.882,1.668 -5.484,5.897 -4.272,9.687c38.209,3.163 147.569,15.425 192.349,54.372c0.239,-0.591 0.552,-1.207 0.72,-1.773C244.683,312.34 225.553,260.837 186.042,249.14z" fill="#BEE86E"/>
  <path d="M219.154,140.116c21.603,13.634 24.342,47.583 17.98,57.665c-6.362,10.081 -38.187,22.217 -59.79,8.583c-24.741,-15.614 -39.359,-50.68 -45.174,-67.429c-1.693,-4.878 1.546,-10.011 6.678,-10.581C156.469,126.395 194.413,124.501 219.154,140.116z" fill="#AFD755"/>
  <path d="M219.154,140.115c-24.741,-15.615 -62.685,-13.721 -80.305,-11.762c-3.773,0.419 -6.482,3.319 -7.001,6.755c20.604,8.914 70.755,32.45 104.807,63.287c0.149,-0.205 0.35,-0.412 0.478,-0.616C243.496,187.699 240.757,153.749 219.154,140.115z" fill="#BEE86E"/>
  <path d="M363.124,237.938c-23.12,10.863 -53.204,-5.107 -58.273,-15.897c-5.07,-10.789 1.839,-44.141 24.959,-55.005c26.479,-12.442 63.899,-5.88 81.143,-1.762c5.022,1.199 7.604,6.693 5.321,11.325C408.437,192.503 389.603,225.497 363.124,237.938z" fill="#AFD755"/>
  <path d="M410.953,165.275c-17.244,-4.118 -54.664,-10.68 -81.143,1.762c-23.12,10.864 -30.028,44.216 -24.959,55.005c0.501,1.066 1.308,2.188 2.266,3.324c24.283,-25.109 83.69,-43.561 109.612,-50.693C417.601,170.549 415.295,166.312 410.953,165.275z" fill="#BEE86E"/>
  <path d="M252.952,442.176c-2.152,0 -4.303,-0.848 -5.919,-2.527c-3.127,-3.263 -3.015,-8.446 0.256,-11.581c2.711,-2.591 67.497,-63.93 159.476,-90.804c4.343,-1.28 8.886,1.224 10.158,5.567s-1.224,8.886 -5.567,10.158c-88.172,25.754 -152.102,86.301 -152.742,86.917C257.031,441.424 254.992,442.176 252.952,442.176z" fill="#96BE4B"/>
  <path d="M116.735,281.42c-5.607,-0.592 -8.862,-0.776 -8.862,-0.776c-4.503,-0.288 -8.39,3.175 -8.654,7.694c-0.264,4.511 3.175,8.39 7.686,8.654c0.104,0.008 3.071,0.192 8.134,0.712c0.288,0.032 0.576,0.048 0.856,0.048c4.143,0 7.702,-3.127 8.134,-7.342C124.501,285.915 121.238,281.884 116.735,281.42z" fill="#96BE4B"/>
  <path d="M367.495,192.872c-1.16,-4.367 -5.647,-6.942 -10.022,-5.815c-3.239,0.864 -6.367,1.808 -9.39,2.823c-4.295,1.44 -6.607,6.079 -5.167,10.366c1.152,3.431 4.343,5.591 7.766,5.591c0.864,0 1.744,-0.136 2.599,-0.424c2.703,-0.904 5.495,-1.752 8.398,-2.519C366.047,201.726 368.654,197.247 367.495,192.872z" fill="#96BE4B"/>
  <path d="M317.482,204.437c-16.885,10.863 -28.437,23.916 -36.319,36.014c-1.465,-59.372 -10.26,-124.851 -31.857,-192.323c-1.376,-4.303 -5.967,-6.687 -10.294,-5.303c-4.311,1.376 -6.687,5.991 -5.303,10.294c18.21,56.894 27.054,112.301 30.072,163.698c-31.855,-43.827 -73.703,-61.653 -75.798,-62.512c-4.151,-1.712 -8.966,0.256 -10.694,4.439s0.256,8.974 4.439,10.694c0.546,0.229 54.458,23.111 83.219,80.687c0.399,33.295 -1.492,64.484 -4.691,92.802c-23.354,-32.519 -70.605,-48.568 -110.153,-56.435c-4.487,-0.936 -8.742,2 -9.63,6.431c-0.888,4.439 2,8.75 6.431,9.63c36.097,7.186 97.919,25.808 109.45,69.828c-11.829,77.582 -31.574,127.323 -31.987,128.336c-1.704,4.191 0.304,8.966 4.487,10.678c1.016,0.416 2.064,0.608 3.095,0.608c3.223,0 6.287,-1.92 7.582,-5.095c0.429,-1.049 21.083,-52.957 33.214,-133.729c0.015,-0.085 0.025,-0.167 0.038,-0.252c4.184,-27.923 7.366,-59.217 8.317,-93.144c1.507,-6.413 10.714,-39.355 45.244,-61.57c3.807,-2.447 4.903,-7.51 2.455,-11.317C326.352,203.093 321.281,201.998 317.482,204.437z" fill="#96BE4B"/>
</svg>
