<svg id="Capa_1" enable-background="new 0 0 510.75 510.75" height="512" viewBox="0 0 510.75 510.75" width="512" xmlns="http://www.w3.org/2000/svg"><path d="m208.936 45.515-66.431-31.722c-7.475-3.57-16.43-.402-20 7.072-3.569 7.476-.403 16.43 7.072 20l66.521 31.765c.062.029.124.058.186.087 21.289 9.811 37.623 28.235 44.813 50.546l28.555-9.202c-9.747-30.244-31.873-55.222-60.716-68.546z" fill="#673416"/><path d="m329.245 70.58c-5.3 6.37-14.75 7.25-21.13 1.95l-11.578-9.629c-2.317-1.927-5.801-1.39-7.415 1.155-8.586 13.532-18.747 34.853-18.747 59.963v34.31h-30v-34.31c0-28.846 10.153-56.751 26.111-80.218 1.451-2.134 1.055-5.015-.93-6.665-11.958-9.945-9.428-7.842-12.761-10.607-6.731-5.601-6.97-15.221-1.866-21.247 5.15-6.081 14.568-7.21 21.046-1.823l55.32 46c6.37 5.301 7.24 14.751 1.95 21.121z" fill="#804231"/><path d="m181.334 117.913c-22.401 0-40.626-18.225-40.626-40.625s18.225-40.625 40.626-40.625c22.4 0 40.625 18.225 40.625 40.625s-18.225 40.625-40.625 40.625zm0-51.251c-5.859 0-10.626 4.767-10.626 10.625s4.767 10.625 10.626 10.625c5.858 0 10.625-4.767 10.625-10.625s-4.767-10.625-10.625-10.625z" fill="#804231"/><path d="m316.265 449.85c0 33.63-27.26 60.9-60.89 60.9s-60.89-27.27-60.89-60.9 27.26-60.89 60.89-60.89 60.89 27.26 60.89 60.89z" fill="#7a84eb"/><path d="m316.265 449.85c0 33.63-27.26 60.9-60.89 60.9v-121.79c33.63 0 60.89 27.26 60.89 60.89z" fill="#6e67d6"/><circle cx="316.269" cy="373.25" fill="#979fef" r="60.894"/><path d="m263.315 373.25c0 10.94-2.89 21.21-7.94 30.08-10.47 18.4-30.26 30.81-52.95 30.81-33.63 0-60.9-27.26-60.9-60.89s27.27-60.89 60.9-60.89c22.69 0 42.48 12.41 52.95 30.81 5.05 8.87 7.94 19.14 7.94 30.08z" fill="#615ad2"/><circle cx="208.932" cy="194.389" fill="#6e67d6" r="60.894"/><path d="m362.715 194.39c0 33.63-27.27 60.89-60.9 60.89-33.557 0-60.89-27.176-60.89-60.89 0-33.696 27.315-60.89 60.89-60.89 33.63 0 60.9 27.26 60.9 60.89z" fill="#979fef"/><circle cx="156.806" cy="281.516" fill="#979fef" r="60.894"/><circle cx="353.944" cy="281.516" fill="#615ad2" r="60.894"/><ellipse cx="255.375" cy="290.29" fill="#7a84eb" rx="60.9" ry="60.89" transform="matrix(.003 -1 1 .003 -35.688 544.784)"/><path d="m255.375 351.19v-121.8c33.63 0 60.89 27.27 60.89 60.9s-27.26 60.9-60.89 60.9z" fill="#6e67d6"/></svg>