<?xml version="1.0" ?>
<svg height="512.00037" viewBox="0 0 512 512.00037" width="512" xmlns="http://www.w3.org/2000/svg">
  <path d="m284.402,153.781c-2.902,-7.293 -11.254,-10.789 -18.543,-7.887l-39.883,15.891c-7.344,2.926 -10.922,11.246 -8,18.59 0,0 5.734,15.051 7.945,19.941 0.02,0.039 0.035,0.082 0.055,0.125l0.035,0.086c0.777,1.781 78.793,179.441 177.145,308.652 1.992,2.617 5.426,3.473 8.332,2.316 0.59,-0.234 1.164,-0.555 1.695,-0.961 3.141,-2.387 3.75,-6.879 1.352,-10.023 -6.078,-7.988 -12.082,-16.168 -17.992,-24.48 -16.895,-23.762 -29.676,-50.219 -37.734,-78.238l-47.766,-166.137c-7.586,-26.383 -16.477,-52.375 -26.641,-77.875zM284.402,153.781" fill="#faebc8"/>
  <path d="m414.535,500.512c-6.078,-7.992 -12.082,-16.168 -17.992,-24.484 -6.535,-9.191 -12.449,-18.789 -17.711,-28.727 -13.25,-25.031 -26.105,-50.293 -40.352,-74.77 -54.992,-94.5 -91.992,-178.723 -92.527,-179.949l-0.035,-0.086c-0.016,-0.043 -0.035,-0.082 -0.055,-0.125 -2.211,-4.891 -13.242,-33.234 -13.242,-33.234l-6.645,2.645c-7.344,2.926 -10.922,11.25 -8,18.594 0,0 5.734,15.051 7.945,19.941 0.02,0.039 0.035,0.082 0.055,0.121l0.035,0.09c0.777,1.781 78.793,179.441 177.145,308.652 1.992,2.613 5.426,3.473 8.332,2.316 0.59,-0.238 1.164,-0.555 1.695,-0.961 3.141,-2.387 3.75,-6.879 1.352,-10.023zM414.535,500.512" fill="#f5dcb4"/>
  <path d="m297.578,264.195 l-6.645,2.648c-3.676,1.461 -7.832,-0.328 -9.297,-4 -1.461,-3.676 0.328,-7.832 4,-9.297l6.648,-2.648c3.672,-1.461 7.832,0.328 9.293,4 1.465,3.676 -0.324,7.832 -4,9.297zM297.578,264.195" fill="#f5dcb4"/>
  <path d="m297.523,302.727 l-6.645,2.648c-3.676,1.465 -7.832,-0.324 -9.297,-4 -1.461,-3.676 0.324,-7.832 4,-9.293l6.648,-2.648c3.672,-1.465 7.832,0.324 9.293,3.996 1.465,3.676 -0.324,7.832 -4,9.297zM297.523,302.727" fill="#ebc9a0"/>
  <path d="m296.965,187.422 l-52.453,20.895c-3.672,1.461 -5.461,5.621 -4,9.293 1.465,3.676 5.621,5.465 9.297,4l51.781,-20.605c-1.496,-4.535 -3.051,-9.074 -4.625,-13.582zM296.965,187.422" fill="#f5dcb4"/>
  <path d="m250.246,252.242 l16.801,-6.691c3.672,-1.465 5.461,-5.621 3.996,-9.297 -1.461,-3.672 -5.617,-5.461 -9.293,-3.996l-17.754,7.07c1.934,4.031 4.039,8.379 6.25,12.914zM250.246,252.242" fill="#ebc9a0"/>
  <path d="m251.688,79.461c-4.055,-1.77 -5.902,-6.48 -4.133,-10.535l25.613,-58.652c1.77,-4.051 6.48,-5.898 10.531,-4.129 4.055,1.77 5.902,6.48 4.133,10.535l-25.613,58.652c-1.77,4.051 -6.48,5.898 -10.531,4.129zM251.688,79.461" fill="#cbdc96"/>
  <path d="m237.016,73.055c-3.188,-1.391 -5.203,-4.773 -4.723,-8.398l7.75,-57.723c0.586,-4.371 4.613,-7.445 8.996,-6.863 4.324,0.617 7.449,4.609 6.863,9l-7.746,57.723c-0.59,4.371 -4.617,7.445 -9,6.863 -0.754,-0.109 -1.469,-0.309 -2.141,-0.602zM237.016,73.055" fill="#cbdc96"/>
  <path d="m266.355,85.867c-0.672,-0.297 -1.305,-0.684 -1.898,-1.16 -3.406,-2.82 -3.887,-7.863 -1.082,-11.266l37.074,-44.918c2.82,-3.414 7.867,-3.844 11.266,-1.082 3.406,2.816 3.891,7.863 1.082,11.266l-37.074,44.918c-2.328,2.816 -6.18,3.633 -9.367,2.242zM266.355,85.867" fill="#cbdc96"/>
  <path d="m276.871,81.734c3.535,-8.098 -3.441,-18.965 -15.59,-24.27 -12.148,-5.305 -24.859,-3.039 -28.398,5.059 -3.535,8.098 3.445,18.965 15.594,24.266 12.145,5.305 24.859,3.043 28.395,-5.055zM276.871,81.734" fill="#f5dcb4"/>
  <path d="m285.195,102.672c3.512,-8.043 -0.273,-17.426 -8.313,-20.941l-43.988,-19.207c-8.102,-3.535 -17.531,0.16 -21.066,8.258 0,0 -7.457,16.395 -9.605,21.996 -0.02,0.047 -0.035,0.094 -0.055,0.145l-0.043,0.094c-0.805,2.02 -80.676,203.723 -106.047,383.5 -0.512,3.637 1.504,7.043 4.711,8.445 0.652,0.285 1.355,0.488 2.098,0.59 4.367,0.621 8.418,-2.43 9.031,-6.805 1.57,-11.117 3.352,-22.316 5.313,-33.551 5.602,-32.113 16.582,-63.078 32.52,-91.512l94.492,-168.602c15.008,-26.773 28.676,-54.277 40.953,-82.41zM285.195,102.672" fill="#faebc8"/>
  <path d="m111.918,478.746c1.57,-11.117 3.352,-22.316 5.313,-33.555 2.168,-12.422 5.148,-24.668 8.91,-36.664 9.473,-30.215 19.445,-60.297 27.703,-90.863 31.871,-118.02 69.727,-213.656 70.277,-215.043l0.043,-0.098c0.02,-0.047 0.035,-0.094 0.055,-0.141 2.148,-5.605 16.008,-36.66 16.008,-36.66l-7.332,-3.199c-8.098,-3.539 -17.531,0.16 -21.066,8.258 0,0 -7.453,16.395 -9.605,21.996 -0.016,0.047 -0.035,0.094 -0.055,0.141l-0.039,0.098c-0.805,2.02 -80.676,203.723 -106.047,383.5 -0.516,3.637 1.504,7.043 4.711,8.441 0.652,0.285 1.355,0.488 2.094,0.594 4.367,0.621 8.418,-2.426 9.031,-6.805zM111.918,478.746" fill="#f5dcb4"/>
  <path d="m207.793,199.965 l-7.332,-3.203c-4.051,-1.77 -5.898,-6.48 -4.129,-10.531s6.48,-5.898 10.531,-4.129l7.332,3.199c4.051,1.77 5.902,6.48 4.129,10.535 -1.77,4.051 -6.48,5.898 -10.531,4.129zM207.793,199.965" fill="#f5dcb4"/>
  <path d="m177.121,230.219 l-7.328,-3.203c-4.055,-1.77 -5.902,-6.48 -4.133,-10.531 1.773,-4.051 6.484,-5.898 10.535,-4.129l7.332,3.199c4.051,1.77 5.898,6.484 4.129,10.535 -1.77,4.051 -6.48,5.898 -10.535,4.129zM177.121,230.219" fill="#ebc9a0"/>
  <path d="m268.293,139.09 l-57.813,-25.246c-4.051,-1.77 -8.762,0.078 -10.531,4.129 -1.77,4.055 0.078,8.766 4.129,10.535l57.035,24.906c2.43,-4.758 4.832,-9.527 7.18,-14.324zM268.293,139.09" fill="#f5dcb4"/>
  <path d="m281.848,110.09 l-7.238,-3.16c-4.051,-1.773 -8.762,0.078 -10.535,4.129 -1.77,4.051 0.078,8.762 4.133,10.531l7.035,3.074c2.258,-4.832 4.43,-9.703 6.605,-14.574zM281.848,110.09" fill="#f5dcb4"/>
  <path d="m249.414,104.656c1.77,-4.051 -0.078,-8.762 -4.133,-10.531l-36.738,-16.043c-2.285,5.125 -5.121,11.566 -6.32,14.695l36.656,16.008c4.055,1.77 8.766,-0.078 10.535,-4.129zM249.414,104.656" fill="#f5dcb4"/>
  <path d="m230.512,87.672 l-21.969,-9.59c-2.285,5.125 -5.121,11.566 -6.32,14.695l21.996,9.605c0.832,-2.172 3.43,-8.176 6.293,-14.711zM230.512,87.672" fill="#ebc9a0"/>
  <path d="m180.074,152.941 l18.531,8.094c4.051,1.77 8.762,-0.078 10.531,-4.133 1.77,-4.051 -0.078,-8.762 -4.129,-10.531l-19.582,-8.551c-1.688,4.707 -3.484,9.801 -5.352,15.121zM180.074,152.941" fill="#ebc9a0"/>
</svg>
