<svg height="512pt" viewBox="-154 0 512 512" width="512pt" xmlns="http://www.w3.org/2000/svg"><path d="m203.632812 487.699219-8.527343-205.628907c-.808594-19.546874-10.042969-37.355468-24.648438-47.566406-14.453125-10.09375-23.65625-27.636718-24.628906-46.96875l-1.683594-33.386718-2.640625-52.464844-1.820312-36.554688v-17.488281h-75.707032l.015626 17.488281-1.839844 36.554688-2.640625 52.464844-1.683594 33.386718c-.976563 19.332032-10.179687 36.875-24.628906 46.96875-7.300781 5.105469-13.257813 12.109375-17.5 20.285156-4.234375 8.164063-6.738281 17.511719-7.152344 27.28125l-8.5234375 205.628907c-.5546875 13.230469 8.6875005 24.300781 20.2851565 24.300781h163.039062c11.59375 0 20.839844-11.070312 20.285156-24.300781zm0 0" fill="#ff5f00"/><path d="m147.371094 65.125h-90.84375c-6.902344 0-12.496094-5.59375-12.496094-12.496094v-40.132812c0-6.902344 5.59375-12.496094 12.496094-12.496094h90.84375c6.902344 0 12.496094 5.59375 12.496094 12.496094v40.132812c0 6.902344-5.59375 12.496094-12.496094 12.496094zm0 0" fill="#e7e7e7"/><path d="m159.867188 12.492188v40.140624c0 6.898438-5.597657 12.496094-12.5 12.496094h-25.335938c6.902344 0 12.488281-5.597656 12.488281-12.496094v-40.140624c0-6.902344-5.585937-12.48828175-12.488281-12.48828175h25.335938c6.902343 0 12.5 5.58593775 12.5 12.48828175zm0 0" fill="#cecece"/><path d="m183.347656 512h-25.226562c11.597656 0 20.839844-11.070312 20.285156-24.300781l-8.523438-205.628907c-.8125-19.546874-10.046874-37.355468-24.652343-47.566406-14.449219-10.09375-23.652344-27.636718-24.628907-46.96875l-1.683593-33.386718-2.640625-52.464844-1.835938-36.554688h25.222656l1.839844 36.554688 2.640625 52.464844 1.683594 33.386718c.976563 19.332032 10.175781 36.875 24.628906 46.96875 14.605469 10.210938 23.835938 28.019532 24.648438 47.566406l8.527343 205.628907c.554688 13.230469-8.691406 24.300781-20.285156 24.300781zm0 0" fill="#f15300"/><path d="m144.144531 154.148438h-84.632812l2.640625-52.464844h79.351562zm0 0" fill="#d5f3f7"/><path d="m144.144531 154.148438h-25.226562l-2.640625-52.464844h25.226562zm0 0" fill="#afeaf2"/><path d="m161.585938 288.566406h-20.757813c-3.242187 0-5.964844-2.367187-6.507813-5.5625-2.644531-15.554687-16.183593-27.398437-32.492187-27.398437s-29.851563 11.84375-32.496094 27.398437c-.542969 3.195313-3.261719 5.5625-6.503906 5.5625h-20.757813c-2.253906 0-4.097656 1.785156-4.167968 4.035156l-5.902344 188.394532c-.074219 2.351562 1.816406 4.296875 4.167969 4.296875h131.320312c2.351563 0 4.242188-1.945313 4.167969-4.296875l-5.902344-188.394532c-.070312-2.25-1.914062-4.035156-4.167968-4.035156zm0 0" fill="#d5f3f7"/><path d="m171.660156 480.992188c.070313 2.351562-1.820312 4.304687-4.171875 4.304687h-13.535156l-5.660156-173.0625c-.074219-2.25-1.910157-4.035156-4.171875-4.035156-8.5 0-23.5 3.101562-26.550782-7.945313-2.484374-8.988281-3.273437-16.382812-10.472656-23.238281-6.097656-5.804687-14.3125-9.089844-22.730468-9.089844-3.214844 0-6.304688.464844-9.242188 1.316407 5.988281-8.269532 15.714844-13.640626 26.703125-13.640626 16.308594 0 29.847656 11.84375 32.496094 27.402344.546875 3.195313 3.257812 5.558594 6.503906 5.558594h20.753906c2.261719 0 4.101563 1.796875 4.171875 4.046875zm0 0" fill="#afeaf2"/></svg>