<svg height="511pt" viewBox="-12 0 511 511.99989" width="511pt" xmlns="http://www.w3.org/2000/svg"><path d="m475.320312 236.582031c-27.160156-47.039062-90.257812-61.457031-140.933593-32.199219-50.671875 29.257813-69.734375 91.109376-42.574219 138.152344 27.160156 47.042969 90.257812 61.457032 140.929688 32.199219 50.675781-29.257813 69.738281-91.109375 42.578124-138.152344zm0 0" fill="#8cb4eb"/><path d="m442.835938 348.210938c-50.675782 29.257812-113.777344 14.839843-140.9375-32.203126-3.042969-5.273437-5.5-10.734374-7.394532-16.3125-4.914062 1.910157-10.25 3.105469-14.523437 6.175782 1.296875 12.648437 5.160156 25.105468 11.839843 36.671875 27.160157 47.042969 90.257813 61.460937 140.933594 32.203125 27.730469-16.011719 46.070313-42.0625 52.472656-69.828125-9.359374 17.160156-23.804687 32.5625-42.390624 43.292969zm0 0" fill="#739bd7"/><path d="m439.035156 244.972656c-8.25-8.25-20.167968-9.707031-26.617187-3.257812-6.449219 6.449218-4.992188 18.367187 3.257812 26.617187s20.167969 9.707031 26.617188 3.257813c6.449219-6.449219 4.988281-18.367188-3.257813-26.617188zm0 0" fill="#739bd7"/><path d="m281.324219 297.292969c-3.46875 0-6.703125-2.203125-7.847657-5.679688-9.289062-28.246093-11.574218-58.269531-11.53125-81.148437-21.332031 26.839844-48.1875 32.550781-49.679687 32.851562-4.507813.886719-8.820313-2.011718-9.71875-6.476562-.894531-4.46875 1.992187-8.8125 6.460937-9.714844 1.832032-.386719 39.824219-8.992188 55.605469-56.320312 1.355469-4.050782 5.546875-6.398438 9.726563-5.421876 4.152344.980469 6.878906 4.972657 6.28125 9.203126-.089844.601562-8.324219 60.597656 8.546875 111.867187 1.421875 4.328125-.933594 9-5.265625 10.421875-.855469.28125-1.726563.417969-2.578125.417969zm0 0" fill="#7dbe81"/><path d="m13.929688 216.554688c-29.480469 51.058593-8.789063 118.191406 46.210937 149.945312s123.484375 16.109375 152.960937-34.949219c29.480469-51.054687 8.789063-118.1875-46.210937-149.941406-55-31.757813-123.484375-16.109375-152.960937 34.945313zm0 0" fill="#8cb4eb"/><path d="m73.59375 338.660156c-47.683594-27.53125-69.519531-81.644531-55.289062-128.832031-1.507813 2.191406-3.027344 4.378906-4.382813 6.71875-29.476563 51.058594-8.785156 118.191406 46.214844 149.949219 55.003906 31.753906 123.488281 16.105468 152.964843-34.953125 3.921876-6.789063 6.894532-13.878907 9.074219-21.117188-31.433593 45.59375-96.101562 58.53125-148.582031 28.234375zm0 0" fill="#739bd7"/><path d="m90.578125 255.410156c11.085937-14.089844 11.355469-32.371094.601563-40.832031-10.753907-8.460937-28.457032-3.894531-39.542969 10.195313-11.085938 14.089843-11.355469 32.371093-.601563 40.832031 10.753906 8.457031 28.457032 3.894531 39.542969-10.195313zm0 0" fill="#739bd7"/><path d="m380.371094 396.386719c0-63.851563-55.460938-115.613281-123.871094-115.613281-68.414062 0-123.871094 51.761718-123.871094 115.613281 0 63.851562 55.457032 115.613281 123.871094 115.613281 68.410156 0 123.871094-51.761719 123.871094-115.613281zm0 0" fill="#8cb4eb"/><path d="m281.273438 487.226562c-68.410157 0-123.871094-51.761718-123.871094-115.613281 0-24.34375 8.101562-46.902343 21.871094-65.53125-28.402344 21.183594-46.644532 53.734375-46.644532 90.304688 0 63.851562 55.457032 115.613281 123.871094 115.613281 42.328125 0 79.75-19.894531 102.09375-50.128906-21.183594 15.800781-48.09375 25.355468-77.320312 25.355468zm0 0" fill="#739bd7"/><path d="m297.789062 379.871094c0 27.363281-22.183593 49.546875-49.546874 49.546875-27.363282 0-49.546876-22.183594-49.546876-49.546875 0-27.363282 22.183594-49.546875 49.546876-49.546875 27.363281 0 49.546874 22.183593 49.546874 49.546875zm0 0" fill="#739bd7"/><path d="m248.242188 330.324219c-17.917969 0-33.636719 9.542969-42.335938 23.792969 7.511719-4.585938 16.375-7.277344 25.820312-7.277344 27.363282 0 49.546876 22.183594 49.546876 49.546875 0 9.445312-2.695313 18.316406-7.28125 25.828125 14.25-8.699219 23.796874-24.425782 23.796874-42.34375 0-27.363282-22.183593-49.546875-49.546874-49.546875zm0 0" fill="#5f87cd"/><path d="m91.183594 214.589844c-6.785156-5.339844-16.378906-5.476563-25.289063-1.320313 3.378907.535157 6.578125 1.835938 9.292969 3.96875 10.753906 8.460938 10.484375 26.742188-.601562 40.832031-4.089844 5.199219-9.078126 9.085938-14.289063 11.515626 10.019531 1.578124 21.996094-3.628907 30.285156-14.167969 11.085938-14.089844 11.355469-32.371094.601563-40.828125zm0 0" fill="#5f87cd"/><path d="m210.320312 34.394531c-23.632812-24.847656-56.515624-36.117187-90.011718-34.179687-6.542969.375-11.925782 5.492187-12.628906 12.011718-3.613282 33.355469 5.996093 66.761719 29.628906 91.609376 26.210937 27.558593 63.800781 38.417968 100.988281 33.078124 7.195313-36.875-1.765625-74.960937-27.976563-102.519531zm0 0" fill="#afdc82"/><path d="m395.582031 115.214844c20.859375-19.839844 30.320313-47.441406 28.695313-75.5625-.316406-5.492188-4.613282-10.007813-10.082032-10.601563-28.003906-3.03125-56.046874 5.035157-76.90625 24.871094-23.132812 22.003906-32.25 53.558594-27.765624 84.777344 30.949218 6.039062 62.925781-1.480469 86.058593-23.484375zm0 0" fill="#afdc82"/><path d="m273.015625 181.675781c-2.183594 0-4.363281-.859375-5.984375-2.566406l-114.078125-119.949219c-3.148437-3.300781-3.007813-8.527344.289063-11.671875 3.296874-3.144531 8.539062-3.011719 11.675781.292969l108.414062 113.984375 100.175781-94.640625c3.316407-3.132812 8.546876-2.980469 11.667969.335938 3.136719 3.3125 2.984375 8.539062-.332031 11.671874l-106.160156 100.289063c-1.59375 1.507813-3.628906 2.253906-5.667969 2.253906zm0 0" fill="#96cd82"/></svg>