<?xml version="1.0" encoding="UTF-8"?>
<!DOCTYPE svg PUBLIC "-//W3C//DTD SVG 1.1//EN" "http://www.w3.org/Graphics/SVG/1.1/DTD/svg11.dtd">
<svg xmlns="http://www.w3.org/2000/svg" version="1.1" width="512px" height="512px" style="shape-rendering:geometricPrecision; text-rendering:geometricPrecision; image-rendering:optimizeQuality; fill-rule:evenodd; clip-rule:evenodd" xmlns:xlink="http://www.w3.org/1999/xlink">
<g><path style="opacity:0.993" fill="#7f5232" d="M 424.5,62.5 C 327.244,98.6967 229.91,134.697 132.5,170.5C 122.25,169.144 112.75,171.144 104,176.5C 99.168,186.658 97.168,197.325 98,208.5C 104.485,223.993 115.319,228.16 130.5,221C 141.7,221.065 144.7,226.065 139.5,236C 114.965,247.499 95.7982,241.666 82,218.5C 61.1704,230.291 43.1704,226.958 28,208.5C 23.7607,203.322 23.594,198.155 27.5,193C 31.1667,191 34.8333,191 38.5,193C 44.959,205.564 54.959,209.897 68.5,206C 72.2413,204.262 75.408,201.762 78,198.5C 81.9141,189.436 84.5808,180.103 86,170.5C 76.7016,155.433 63.2016,147.433 45.5,146.5C 153.402,103.472 261.735,61.3058 370.5,20C 392.967,16.8181 409.801,24.9848 421,44.5C 422.862,50.3687 424.029,56.3687 424.5,62.5 Z"/></g>
<g><path style="opacity:0.997" fill="#a46943" d="M 483.5,141.5 C 477.13,138.655 470.464,136.488 463.5,135C 452.326,134.196 441.659,136.196 431.5,141C 422.974,145.091 414.974,149.924 407.5,155.5C 400.449,133.132 385.116,121.799 361.5,121.5C 353.775,121.098 346.442,122.598 339.5,126C 278.628,170.938 218.295,216.605 158.5,263C 156.14,264.18 153.807,265.347 151.5,266.5C 148.833,267.167 146.167,267.833 143.5,268.5C 157.186,257.145 166.353,242.811 171,225.5C 174.27,195.64 161.437,177.306 132.5,170.5C 229.91,134.697 327.244,98.6967 424.5,62.5C 442.111,54.937 460.111,53.7703 478.5,59C 493.241,66.6215 501.408,78.7882 503,95.5C 504.11,106.281 501.776,116.281 496,125.5C 492,130.995 487.834,136.329 483.5,141.5 Z"/></g>
<g><path style="opacity:0.998" fill="#ca8151" d="M 407.5,155.5 C 315.863,221.812 224.529,288.479 133.5,355.5C 121.861,357.569 112.027,362.902 104,371.5C 103.333,380.167 103.333,388.833 104,397.5C 110.259,416.713 122.759,422.546 141.5,415C 144.265,411.05 147.932,408.55 152.5,407.5C 160.52,409.207 163.02,413.873 160,421.5C 146.648,435.392 130.815,439.225 112.5,433C 105.674,429.831 99.8409,425.331 95,419.5C 77.2021,437.96 57.3687,440.46 35.5,427C 31.7112,424.394 29.3779,420.894 28.5,416.5C 29.4413,410.052 33.1079,407.219 39.5,408C 44.228,411.726 49.228,415.059 54.5,418C 71.0831,420.404 81.5831,413.571 86,397.5C 86.6667,388.833 86.6667,380.167 86,371.5C 71.2346,356.932 53.7346,352.266 33.5,357.5C 72.8333,327.167 112.167,296.833 151.5,266.5C 153.807,265.347 156.14,264.18 158.5,263C 218.295,216.605 278.628,170.938 339.5,126C 346.442,122.598 353.775,121.098 361.5,121.5C 385.116,121.799 400.449,133.132 407.5,155.5 Z"/></g>
<g><path style="opacity:0.998" fill="#cf9669" d="M 483.5,141.5 C 505.995,162.465 510.162,186.798 496,214.5C 491.776,222.057 486.776,229.057 481,235.5C 471.791,243.711 462.291,251.544 452.5,259C 393.637,300.265 335.304,342.265 277.5,385C 243.832,409.498 209.499,432.998 174.5,455.5C 178.813,448.208 182.646,440.541 186,432.5C 195.794,405.845 190.294,383.011 169.5,364C 158.447,357.213 146.447,354.379 133.5,355.5C 224.529,288.479 315.863,221.812 407.5,155.5C 414.974,149.924 422.974,145.091 431.5,141C 441.659,136.196 452.326,134.196 463.5,135C 470.464,136.488 477.13,138.655 483.5,141.5 Z"/></g>
<g><path style="opacity:0.996" fill="#603e26" d="M 45.5,146.5 C 63.2016,147.433 76.7016,155.433 86,170.5C 84.5808,180.103 81.9141,189.436 78,198.5C 75.408,201.762 72.2413,204.262 68.5,206C 54.959,209.897 44.959,205.564 38.5,193C 34.8333,191 31.1667,191 27.5,193C 23.594,198.155 23.7607,203.322 28,208.5C 43.1704,226.958 61.1704,230.291 82,218.5C 95.7982,241.666 114.965,247.499 139.5,236C 144.7,226.065 141.7,221.065 130.5,221C 115.319,228.16 104.485,223.993 98,208.5C 97.168,197.325 99.168,186.658 104,176.5C 112.75,171.144 122.25,169.144 132.5,170.5C 161.437,177.306 174.27,195.64 171,225.5C 166.353,242.811 157.186,257.145 143.5,268.5C 109.577,290.994 74.91,292.16 39.5,272C 18.5283,257.201 5.19499,237.368 -0.5,212.5C -0.5,204.5 -0.5,196.5 -0.5,188.5C 3.31484,168.839 14.6482,155.339 33.5,148C 37.4402,146.985 41.4402,146.485 45.5,146.5 Z"/></g>
<g><path style="opacity:0.996" fill="#a56a43" d="M 133.5,355.5 C 146.447,354.379 158.447,357.213 169.5,364C 190.294,383.011 195.794,405.845 186,432.5C 182.646,440.541 178.813,448.208 174.5,455.5C 142.584,491.968 103.584,502.468 57.5,487C 27.1675,474.183 7.83414,452.017 -0.5,420.5C -0.5,412.167 -0.5,403.833 -0.5,395.5C 3.0849,382.506 10.0849,371.673 20.5,363C 24.6347,360.597 28.9681,358.763 33.5,357.5C 53.7346,352.266 71.2346,356.932 86,371.5C 86.6667,380.167 86.6667,388.833 86,397.5C 81.5831,413.571 71.0831,420.404 54.5,418C 49.228,415.059 44.228,411.726 39.5,408C 33.1079,407.219 29.4413,410.052 28.5,416.5C 29.3779,420.894 31.7112,424.394 35.5,427C 57.3687,440.46 77.2021,437.96 95,419.5C 99.8409,425.331 105.674,429.831 112.5,433C 130.815,439.225 146.648,435.392 160,421.5C 163.02,413.873 160.52,409.207 152.5,407.5C 147.932,408.55 144.265,411.05 141.5,415C 122.759,422.546 110.259,416.713 104,397.5C 103.333,388.833 103.333,380.167 104,371.5C 112.027,362.902 121.861,357.569 133.5,355.5 Z"/></g>
</svg>
