<?xml version="1.0" ?>
<svg height="512" viewBox="0 0 512 512" width="512" xmlns="http://www.w3.org/2000/svg">
  <path d="M256,271.477c-138.722,0 -251.179,53.812 -251.179,100.472c0,70.062 112.457,126.858 251.179,126.858S507.18,442.011 507.18,371.948C507.18,330.333 394.722,271.477 256,271.477z" fill="#762E27"/>
  <path d="M134.043,348.086l20.471,-3.539l-0.185,-19.258c-0.002,-0.004 -0.003,-0.008 -0.004,-0.012c-14.232,-15.975 -29.879,-31.755 -46.992,-46.925c-4.36,-3.865 -10.584,-4.838 -15.928,-2.519c-0.105,0.046 -0.21,0.091 -0.315,0.137c-10.047,4.374 -12.217,17.72 -4.005,24.975C103.654,315.581 119.335,331.337 134.043,348.086z" fill="#915729"/>
  <path d="M308.94,295.553c-5.605,-5.449 -11.324,-10.745 -17.13,-15.92c-7.219,5.888 -14.98,12.619 -23.188,20.285c18.235,16.031 34.387,32.527 48.596,48.766l19.78,-0.821l0.851,-21.979C328.543,315.363 318.902,305.238 308.94,295.553z" fill="#915729"/>
  <path d="M244.666,323.804c-8.732,-9.776 -17.762,-19.206 -27.064,-28.251c-5.669,-5.512 -11.456,-10.867 -17.331,-16.097c-7.003,6.456 -14.434,13.538 -22.146,21.198c17.155,15.148 32.45,30.701 46.013,46.051l20.529,-1.738V323.804z" fill="#915729"/>
  <path d="M351.109,254.428c-0.135,-0.027 -0.27,-0.055 -0.404,-0.082c-4.352,-0.888 -8.868,0.206 -12.371,2.937c-15.246,11.881 -29.916,24.642 -43.936,38.272c-31.141,30.277 -59.2,64.799 -83.4,102.609c-23.871,37.297 -39.174,70.207 -47.96,91.744c10.009,1.997 20.333,3.68 30.922,5.027c8.559,-20.077 22.343,-48.583 42.68,-80.359c25.27,-39.483 64.481,-89.541 120.782,-133.471C367.568,273.19 363.713,257.012 351.109,254.428z" fill="#C98A2E"/>
  <path d="M168.07,257.23c-4.921,-1.681 -10.357,-0.74 -14.434,2.487c-14.132,11.185 -27.758,23.136 -40.822,35.837c-31.141,30.277 -59.2,64.799 -83.4,102.609c-3.717,5.808 -7.224,11.509 -10.533,17.078c5.797,8.033 13.162,15.686 21.907,22.868c4.349,-7.577 9.095,-15.448 14.27,-23.534c24.783,-38.722 62.969,-87.615 117.543,-130.924C182.069,276.137 179.51,261.136 168.07,257.23L168.07,257.23z" fill="#C98A2E"/>
  <path d="M268.925,245.258c-0.218,-0.005 -0.435,-0.011 -0.654,-0.016c-3.295,-0.079 -6.534,0.939 -9.192,2.889c-19.615,14.399 -38.33,30.226 -56.019,47.422c-31.141,30.277 -59.2,64.799 -83.4,102.609c-15.751,24.611 -27.768,47.306 -36.647,66.088c8.833,4.19 18.268,8.063 28.232,11.583c8.328,-17.491 19.518,-38.54 34.059,-61.258c26.932,-42.079 69.694,-96.168 132.109,-142.049C288.977,264.027 283.272,245.622 268.925,245.258z" fill="#C98A2E"/>
  <path d="M423.962,321.273c-8.022,-8.873 -16.279,-17.46 -24.775,-25.72c-2.774,-2.697 -10.417,-11.094 -16.983,-18.153c-5.404,-5.81 -14.402,-6.35 -20.486,-1.256c-0.079,0.067 -0.159,0.133 -0.24,0.2c-6.707,5.624 -7.133,15.798 -0.93,21.975c15.366,15.297 34.254,36.078 44.284,47.372l19.69,-2.278L423.962,321.273z" fill="#915729"/>
  <path d="M256.025,250.445c-1.077,-0.803 -2.412,-1.725 -3.827,-2.669c-5.876,-3.916 -13.675,-3.283 -18.829,1.544l0,0c-6.936,6.495 -6.269,17.691 1.384,23.323c12.01,8.836 23.289,17.976 33.869,27.277l20.535,-4.352l2.653,-15.934C280.264,269.344 268.324,259.612 256.025,250.445z" fill="#915729"/>
  <path d="M195.108,293.804l5.163,-14.347c-8.666,-7.715 -17.555,-15.115 -26.648,-22.203c-3.485,-2.717 -7.982,-3.795 -12.311,-2.912c-0.175,0.036 -0.35,0.071 -0.525,0.108c-12.622,2.591 -16.343,18.743 -6.185,26.669c8.201,6.399 16.039,12.927 23.523,19.535L195.108,293.804z" fill="#915729"/>
  <path d="M290.537,382.388c-13.833,-20.882 -29.49,-40.243 -45.871,-58.584c-6.658,7.056 -13.521,14.677 -20.529,22.899c19.34,21.888 35.168,43.349 47.788,62.578l32.582,-5.054C304.509,404.227 294.117,387.792 290.537,382.388z" fill="#915729"/>
  <path d="M197.557,379.974c-12.645,-18.064 -27.026,-36.498 -43.228,-54.685c-6.693,7.231 -13.481,14.84 -20.287,22.797c16.064,18.296 30.974,37.768 44.603,58.263l32.845,-3.401L197.557,379.974z" fill="#915729"/>
  <path d="M420.729,275.891c-0.106,-0.046 -0.211,-0.091 -0.317,-0.137c-5.376,-2.328 -11.627,-1.354 -16.019,2.524c-6.337,5.595 -12.561,11.35 -18.657,17.276c-31.141,30.277 -59.2,64.799 -83.4,102.609c-27.439,42.873 -43.555,79.943 -51.467,100.611c1.707,0.017 3.415,0.033 5.13,0.033c9.464,0 18.801,-0.271 27.994,-0.782c8.435,-20.185 22.582,-50.007 43.985,-83.449c21.512,-33.612 53.135,-74.887 96.797,-113.524C433.046,293.735 430.856,280.291 420.729,275.891z" fill="#C98A2E"/>
  <path d="M380.269,380.062c-13.176,-19.026 -27.348,-37.133 -42.42,-54.177c-6.594,6.875 -13.509,14.468 -20.632,22.8c18.061,20.64 32.986,40.843 45.057,59.106l32.659,-6.07L380.269,380.062z" fill="#915729"/>
  <path d="M480.423,314.024c-0.073,-0.071 -0.146,-0.143 -0.219,-0.214c-6.051,-5.891 -15.788,-5.608 -21.556,0.56c-23.853,25.511 -45.647,53.599 -64.972,83.793c-24.125,37.696 -39.497,70.905 -48.236,92.425c12.894,-2.461 25.285,-5.435 37.068,-8.878c8.557,-18.561 20.602,-41.807 36.81,-67.133c15.241,-23.814 35.558,-51.475 61.629,-79.32C486.599,329.219 486.334,319.807 480.423,314.024z" fill="#C98A2E"/>
  <path d="M493.12,415.241c-3.309,-5.57 -6.816,-11.269 -10.533,-17.078c-17.597,-27.495 -37.245,-53.241 -58.625,-76.89c-5.321,6.515 -11.839,14.737 -19.128,24.419c21.554,24.27 38.776,48.051 52.109,68.884c5.175,8.085 9.921,15.956 14.27,23.534C479.958,430.926 487.323,423.273 493.12,415.241z" fill="#915729"/>
  <path d="M118.993,402.394L118.993,402.394c-10.053,-17.874 -21.346,-35.036 -34.027,-51.152c-9.988,-12.693 -20.526,-25.003 -31.578,-36.834c-5.788,-6.196 -15.537,-6.497 -21.611,-0.582c-0.073,0.071 -0.147,0.143 -0.22,0.214c-5.912,5.785 -6.202,15.205 -0.542,21.236c21.207,22.601 40.348,46.919 57.229,72.412L118.993,402.394z" fill="#915729"/>
  <path d="M14.108,402.133c-6.93,0 -11.88,6.612 -9.838,13.138l32.123,82.411C39.054,506.193 47.034,512 56.07,512H256V402.133H14.108z" fill="#D5D2BD"/>
  <path d="M497.893,402.133H243.345v66.736c0,11.21 -9.087,20.297 -20.297,20.297H33.073l3.32,8.517C39.054,506.193 47.034,512 56.07,512H256h199.931c9.035,0 17.015,-5.806 19.677,-14.318l32.123,-82.411C509.772,408.744 504.821,402.133 497.893,402.133z" fill="#ADA999"/>
  <path d="M497.893,402.133H14.108c-6.93,0 -11.88,6.612 -9.838,13.138l8.713,22.353c0.374,0.011 0.748,0.028 1.125,0.028h483.784c0.378,0 0.751,-0.017 1.125,-0.028l8.713,-22.353C509.772,408.744 504.821,402.133 497.893,402.133z" fill="#ADA999"/>
  <path d="M500.38,388.216c-7.809,0 -15.15,3.031 -20.674,8.535c-5.444,5.426 -14.302,5.426 -19.747,0c-11.428,-11.388 -29.917,-11.389 -41.348,0c-5.444,5.426 -14.302,5.426 -19.747,0c-11.428,-11.388 -29.917,-11.389 -41.348,0c-5.444,5.426 -14.302,5.426 -19.747,0c-11.428,-11.388 -29.916,-11.389 -41.348,0c-5.444,5.426 -14.302,5.426 -19.747,0c-11.428,-11.388 -29.916,-11.389 -41.348,0c-5.444,5.426 -14.303,5.426 -19.747,0c-11.428,-11.388 -29.916,-11.389 -41.348,0c-5.444,5.426 -14.303,5.426 -19.747,0c-11.428,-11.388 -29.917,-11.389 -41.348,0c-5.444,5.426 -14.303,5.426 -19.747,0c-11.428,-11.388 -29.917,-11.389 -41.348,0c-5.444,5.426 -14.303,5.426 -19.747,0c-5.523,-5.504 -12.864,-8.535 -20.673,-8.535c-4.218,0 -7.637,3.408 -7.637,7.611c0,4.204 3.419,7.612 7.637,7.612c3.729,0 7.236,1.448 9.874,4.077c11.4,11.362 29.949,11.361 41.348,0c5.458,-5.439 14.289,-5.441 19.747,0c11.401,11.362 29.949,11.361 41.348,0c5.458,-5.439 14.288,-5.442 19.747,0c11.401,11.362 29.949,11.361 41.348,0c2.639,-2.629 6.145,-4.077 9.875,-4.077c3.73,0 7.236,1.448 9.874,4.077c11.401,11.362 29.949,11.361 41.348,0c2.638,-2.629 6.145,-4.077 9.874,-4.077c3.729,0 7.236,1.448 9.874,4.077c11.401,11.362 29.949,11.361 41.348,0c5.458,-5.439 14.288,-5.441 19.747,0c11.4,11.362 29.949,11.361 41.348,0c5.458,-5.439 14.288,-5.441 19.747,0c11.401,11.362 29.949,11.361 41.348,0c5.458,-5.439 14.288,-5.442 19.747,0c11.401,11.362 29.949,11.361 41.348,0c2.639,-2.629 6.145,-4.077 9.875,-4.077c4.218,0 7.637,-3.408 7.637,-7.612C508.02,391.624 504.598,388.216 500.38,388.216z" fill="#915729"/>
</svg>
