<?xml version="1.0" ?>
<svg height="320" viewBox="0 0 320 320" width="320" xmlns="http://www.w3.org/2000/svg">
  <path d="M320,167.5V140L98.216,66.398c-7.854,-2.635 -16.357,1.596 -18.992,9.449c-2.63,7.842 -11.15,12.081 -18.992,9.449c-7.842,-2.63 -12.081,-11.149 -9.45,-18.991c1.175,-3.505 3.589,-6.438 6.797,-8.264c7.202,-4.092 9.721,-13.25 5.625,-20.453c-4.094,-7.201 -13.253,-9.72 -20.454,-5.625c-9.634,5.477 -16.883,14.286 -20.41,24.801c-7.892,23.525 4.826,49.083 28.351,56.976c18.54,6.22 38.335,-0.366 49.759,-14.949l204.814,68.71H320V167.5z" fill="#ACABB1"/>
  <path d="M159.991,86.898l-61.775,-20.5c-7.854,-2.635 -16.357,1.596 -18.992,9.449c-2.63,7.842 -11.15,12.081 -18.992,9.449c-7.842,-2.63 -12.081,-11.149 -9.45,-18.991c1.175,-3.505 3.589,-6.438 6.797,-8.264c7.202,-4.092 9.721,-13.25 5.625,-20.453c-4.094,-7.201 -13.253,-9.72 -20.454,-5.625c-9.634,5.477 -16.883,14.286 -20.41,24.801c-7.892,23.525 4.826,49.083 28.351,56.976c18.54,6.22 38.335,-0.366 49.759,-14.949l59.54,19.974V86.898H159.991z" fill="#808084"/>
  <path d="M10,161.01h300v110h-300z" fill="#dc5e5a"/>
  <path d="M10,161.01h150v110h-150z" fill="#c36964"/>
  <path d="M0,260h320v30h-320z" fill="#DEDDE0"/>
  <path d="M0,140h320v30h-320z" fill="#DEDDE0"/>
  <path d="M0,140h160v30h-160z" fill="#CDCDD0"/>
  <path d="M240.999,216.682c12.5,-8.332 8.334,-24.999 8.334,-24.999c-25,0 -33.332,24.999 -33.332,24.999s8.332,25.001 33.332,25.001C249.333,241.683 253.499,225.017 240.999,216.682z" fill="#DEDDE0"/>
  <path d="M230,216.682c0,0 -60,27.309 -100,27.309s-60,-27.309 -60,-27.309s20,-27.691 60,-27.691S230,216.682 230,216.682z" fill="#FFFFFF"/>
  <path d="M160,192.76c-10.41,-2.281 -20.741,-3.77 -30,-3.77c-40,0 -60,27.691 -60,27.691s20,27.309 60,27.309c9.259,0 19.59,-1.468 30,-3.717V192.76z" fill="#DEDDE0"/>
  <path d="M0,260h160v30h-160z" fill="#CDCDD0"/>
</svg>
