<?xml version="1.0" encoding="UTF-8"?>
<svg xmlns="http://www.w3.org/2000/svg" version="1.1" width="512px" height="512px" style="shape-rendering:geometricPrecision; text-rendering:geometricPrecision; image-rendering:optimizeQuality; fill-rule:evenodd; clip-rule:evenodd">
<g><path style="opacity:0.996" fill="#a7d344" d="M 384.5,-0.5 C 387.833,-0.5 391.167,-0.5 394.5,-0.5C 409.582,12.3147 420.749,27.9813 428,46.5C 431.272,61.1986 429.439,75.1986 422.5,88.5C 421.833,88.5 421.5,88.8333 421.5,89.5C 420.833,89.5 420.5,89.8333 420.5,90.5C 282.395,229.105 144.062,367.605 5.5,506C 4.55198,506.483 3.55198,506.649 2.5,506.5C 1.48837,505.128 0.488369,503.795 -0.5,502.5C -0.5,498.5 -0.5,494.5 -0.5,490.5C 30.089,458.576 61.089,426.909 92.5,395.5C 84.3695,386.538 77.2029,376.871 71,366.5C 61.4166,347.998 61.0832,329.332 70,310.5C 78.4781,295.038 89.6448,281.871 103.5,271C 105.833,270.333 108.167,270.333 110.5,271C 124.97,282.799 136.47,296.966 145,313.5C 148.252,321.175 150.252,329.175 151,337.5C 163.833,324.667 176.667,311.833 189.5,299C 176.345,286.527 166.845,271.694 161,254.5C 157.573,237.636 160.573,221.969 170,207.5C 177.429,196.501 185.929,186.335 195.5,177C 203.249,172.778 209.749,174.278 215,181.5C 223.096,190.259 230.429,199.593 237,209.5C 242.75,219.416 246.083,230.082 247,241.5C 259.833,228.667 272.667,215.833 285.5,203C 273.454,191.074 264.287,177.241 258,161.5C 253.603,144.548 255.936,128.548 265,113.5C 273.019,100.479 282.852,88.9785 294.5,79C 297.5,78.3333 300.5,78.3333 303.5,79C 321.04,92.918 333.54,110.418 341,131.5C 341.958,136.123 342.625,140.79 343,145.5C 353.667,134.833 364.333,124.167 375,113.5C 375.667,112.833 375.667,112.167 375,111.5C 362.518,99.2045 354.185,84.5379 350,67.5C 348.588,53.8124 351.588,41.1458 359,29.5C 366.322,18.5399 374.822,8.53994 384.5,-0.5 Z"/></g>
<g><path style="opacity:0.991" fill="#8ab03b" d="M 511.5,116.5 C 511.5,119.833 511.5,123.167 511.5,126.5C 499.64,139.861 485.64,150.361 469.5,158C 452.727,163.802 436.727,162.135 421.5,153C 413.805,147.817 406.472,142.151 399.5,136C 398.833,135.333 398.167,135.333 397.5,136C 386.833,146.667 376.167,157.333 365.5,168C 381.736,168.965 396.07,174.632 408.5,185C 416.473,191.25 423.973,198.083 431,205.5C 433.232,210.397 432.899,215.063 430,219.5C 419.993,229.41 409.159,238.244 397.5,246C 377.835,257.751 357.835,258.418 337.5,248C 326.814,241.651 316.98,234.151 308,225.5C 295.167,238.333 282.333,251.167 269.5,264C 286.51,265.674 301.51,272.008 314.5,283C 321,288.833 327.5,294.667 334,300.5C 337.333,305.5 337.333,310.5 334,315.5C 323.993,325.41 313.159,334.244 301.5,342C 280.167,354.667 258.833,354.667 237.5,342C 228.133,336.305 219.633,329.472 212,321.5C 199.167,334.333 186.333,347.167 173.5,360C 186.219,361.017 197.886,365.017 208.5,372C 220.545,379.708 231.045,389.208 240,400.5C 241.028,406.951 238.861,412.118 233.5,416C 225.123,423.379 216.456,430.379 207.5,437C 187.02,449.734 166.02,450.734 144.5,440C 134.129,433.797 124.462,426.63 115.5,418.5C 84.0906,449.911 52.4239,480.911 20.5,511.5C 16.5,511.5 12.5,511.5 8.5,511.5C 6.5,509.833 4.5,508.167 2.5,506.5C 3.55198,506.649 4.55198,506.483 5.5,506C 144.062,367.605 282.395,229.105 420.5,90.5C 421.167,90.5 421.5,90.1667 421.5,89.5C 422.167,89.5 422.5,89.1667 422.5,88.5C 444.923,77.6901 466.257,79.5234 486.5,94C 495.352,101.024 503.686,108.524 511.5,116.5 Z"/></g>
</svg>
