<?xml version="1.0" encoding="iso-8859-1"?>
<!-- Generator: Adobe Illustrator 19.0.0, SVG Export Plug-In . SVG Version: 6.00 Build 0)  -->
<svg version="1.1" id="Capa_1" xmlns="http://www.w3.org/2000/svg" x="0px" y="0px"
	 viewBox="0 0 512 512" style="enable-background:new 0 0 512 512;" xml:space="preserve">
<path style="fill:#10BB67;" d="M428.312,428.325c-111.147,111.149-291.2,111.149-402.648,0c-7.49-7.49-15.823-14.479-22.413-22.568
	c-4.794-5.992-4.194-14.68,1.197-20.071l33.5-33.156l189.041,39.246l92.872-71.902l101.261-78.492l-68.304-203.42l33.156-33.366
	c5.393-5.393,13.78-5.692,19.772-0.898c8.09,6.59,16.177,13.482,23.667,20.971C540.259,135.816,539.161,317.179,428.312,428.325z"/>
<path style="fill:#32D736;" d="M428.312,428.325c-111.147,111.149-291.2,111.149-402.648,0c-7.49-7.49-15.823-14.479-22.413-22.568
	c-4.794-5.992-4.194-14.68,1.197-20.071l33.5-33.156l189.041,39.246l92.872-71.902L428.312,428.325z"/>
<path style="fill:#E50048;" d="M386.071,385.784h-0.3c-42.241,42.243-99.164,65.91-158.782,65.91
	c-116.841,0-171.366-83.885-189.041-99.164l157.284-157.284l21.27-21.272c5.692-5.692,15.279-5.692,21.272,0l20.971,21.272
	c5.992,5.692,15.279,5.692,21.272,0c2.995-2.995,4.493-6.592,4.493-10.485c0-3.895-1.498-7.789-4.493-10.786
	c-5.992-5.692-5.992-15.279,0-20.97c5.991-5.992,15.277-5.992,21.27-0.3c0,0.3,0,0.3,0,0.3l20.971,20.97
	c5.992,5.992,15.58,5.992,21.272,0c5.991-5.692,5.991-15.279,0-21.27l-42.243-42.243c-5.992-5.692-5.992-15.279,0-21.27
	l51.53-51.231c12.882,14.68,90.475,62.316,98.264,173.461C455.576,276.435,431.907,339.948,386.071,385.784z"/>
<path style="fill:#FF0059;" d="M385.771,385.784c-42.241,42.243-99.164,65.91-158.782,65.91
	c-116.841,0-171.366-83.885-189.041-99.164l157.284-157.284L385.771,385.784z"/>
<g>
	<circle style="fill:#3C3A41;" cx="166.772" cy="346.834" r="14.979"/>
	<circle style="fill:#3C3A41;" cx="226.689" cy="286.916" r="14.979"/>
	<circle style="fill:#3C3A41;" cx="256.648" cy="346.834" r="14.979"/>
</g>
<circle style="fill:#57555C;" cx="316.566" cy="286.916" r="14.979"/>
<g>
</g>
<g>
</g>
<g>
</g>
<g>
</g>
<g>
</g>
<g>
</g>
<g>
</g>
<g>
</g>
<g>
</g>
<g>
</g>
<g>
</g>
<g>
</g>
<g>
</g>
<g>
</g>
<g>
</g>
</svg>
