<?xml version="1.0" ?>
<svg height="512" viewBox="0 0 512 512" width="512" xmlns="http://www.w3.org/2000/svg">
  <path d="M503.997,192.253C475.666,81.711 375.376,0 256,0C114.615,0 0,114.616 0,256c0,119.377 81.712,219.668 192.257,247.998L503.997,192.253z" fill="#692811"/>
  <path d="M512,256c0,-22.008 -2.78,-43.368 -8.003,-63.747L393.939,82.195l-40.469,51.006L256,35.732L118.108,429.85l74.148,74.148C212.635,509.221 233.993,512 256,512C397.384,512 512,397.384 512,256z" fill="#521F0E"/>
  <path d="M217.256,100.356c-1.695,-3.772 -3.801,-7.428 -6.329,-10.908c-19.872,-27.352 -58.157,-33.416 -85.508,-13.544c-22.174,16.11 -30.353,44.318 -22.069,68.994c-26.029,-0.253 -50.328,16.244 -58.798,42.31s1.494,53.694 22.699,68.789c-21.206,15.095 -31.17,42.723 -22.699,68.789c2.042,6.285 5.015,12.004 8.701,17.077l58.614,80.676c3.685,5.072 8.205,9.668 13.552,13.552c27.352,19.872 65.636,13.808 85.508,-13.543c7.895,-10.866 11.681,-23.456 11.681,-35.932V267.13L256,166.957L217.256,100.356z" fill="#C9A06C"/>
  <path d="M444.749,256c21.206,-15.095 31.17,-42.723 22.699,-68.789s-32.77,-42.562 -58.798,-42.31c8.283,-24.676 0.105,-52.884 -22.069,-68.994c-27.352,-19.872 -65.636,-13.808 -85.508,13.544c-2.528,3.479 -4.634,7.136 -6.329,10.908l-72.135,105.555l66.783,61.217v119.489c0,12.476 3.787,25.067 11.681,35.932c19.872,27.352 58.157,33.416 85.508,13.544c5.347,-3.885 9.867,-8.479 13.552,-13.552l58.614,-80.676c3.685,-5.072 6.658,-10.792 8.701,-17.077C475.918,298.723 465.954,271.095 444.749,256z" fill="#B78456"/>
  <path d="M328.603,213.704c-21.515,0 -38.957,-17.441 -38.957,-38.957v-49.317c0,-8.459 1.737,-16.977 5.32,-24.974L256,35.732l-32.513,131.224c0,0 26.828,122.435 32.513,122.435c18.415,0 33.347,14.908 33.389,33.313l0.129,0.078c0,-33.81 27.536,-61.217 61.344,-61.217c0.199,0 0.396,0.013 0.594,0.014v-47.875H328.603z" fill="#A56840"/>
  <path d="M256,289.391V35.732l-38.967,64.726c3.583,7.997 5.32,16.515 5.314,24.979c0.007,-0.004 0.007,49.312 0.007,49.312c0,21.515 -17.441,38.957 -38.957,38.957h-22.855v47.875c0.199,-0.002 0.395,-0.014 0.594,-0.014c33.81,0 61.344,27.408 61.344,61.217l0.13,-0.13C222.682,304.272 237.602,289.391 256,289.391z" fill="#B78456"/>
  <path d="M178.087,339.823h22.261v22.261h-22.261z" fill="#B78456"/>
  <path d="M144.696,373.215h22.261v22.261h-22.261z" fill="#B78456"/>
  <path d="M93.507,167.302h22.261v22.261h-22.261z" fill="#B78456"/>
  <path d="M407.363,273.041h22.261v22.261h-22.261z" fill="#A56840"/>
  <path d="M351.711,373.215h22.261v22.261h-22.261z" fill="#A56840"/>
</svg>
