<svg xmlns="http://www.w3.org/2000/svg" width="512" height="512" shape-rendering="geometricPrecision" image-rendering="optimizeQuality" fill-rule="evenodd"><path fill="#fec150" d="M53.5-.5h28c20.236 2.915 38.903 10.081 56 21.5 16.723 14.325 23.723 32.492 21 54.5-.838.342-1.172 1.008-1 2-6.743 18.575-19.577 30.908-38.5 37-.464-.594-.631-1.261-.5-2l14-61.5c-1.529-5.602-5.196-7.935-11-7-1.833 1.167-3.333 2.667-4.5 4.5-5.265 22.267-10.099 44.601-14.5 67-8.18 1.182-16.514 1.182-25 0l17.5-78c2.216-8.443-.951-12.276-9.5-11.5-2.167.833-3.667 2.333-4.5 4.5l-18.5 81c-8.633-1.984-16.633-5.317-24-10 2.1-3.702 3.6-7.702 4.5-12l12-53c1.326-7.671-1.841-11.171-9.5-10.5-2.167.833-3.667 2.333-4.5 4.5l-14.5 62c-7.127-4.983-12.294-11.649-15.5-20-3.46-9.676-4.96-19.676-4.5-30 7.1-23.769 22.767-38.103 47-43z" opacity=".995"/><path d="M77.5 115.5c-3.985 6.872-8.819 7.538-14.5 2-.495-1.973-.662-3.973-.5-6l18.5-81c.833-2.167 2.333-3.667 4.5-4.5 8.549-.776 11.716 3.057 9.5 11.5l-17.5 78zm-39-14c-5.496 3.181-9.663 1.848-12.5-4-.64-1.765-.473-3.432.5-5l14.5-62c.833-2.167 2.333-3.667 4.5-4.5 7.659-.671 10.826 2.829 9.5 10.5l-12 53c-.9 4.298-2.4 8.298-4.5 12z" fill="#c38777"/><path fill="#e69642" d="M6.5 42.5c-.46 10.324 1.04 20.324 4.5 30 3.206 8.351 8.373 15.017 15.5 20-.973 1.568-1.14 3.235-.5 5 2.837 5.848 7.004 7.181 12.5 4 7.367 4.683 15.367 8.016 24 10-.162 2.027.005 4.027.5 6 5.681 5.538 10.515 4.872 14.5-2 8.486 1.182 16.82 1.182 25 0 3.391 5.373 7.891 6.373 13.5 3l2.5-6c-.131.739.036 1.406.5 2 18.923-6.092 31.757-18.425 38.5-37a102.92 102.92 0 0 1-2 14 95.6 95.6 0 0 0-4 15c-10.905 30.146-32.572 44.313-65 42.5-5.43 2.733-7.764 7.233-7 13.5-2.362-5.676-6.362-7.176-12-4.5-.626.75-1.126 1.584-1.5 2.5-3.16 23.58-4.826 47.247-5 71 5.321 7.254 12.154 8.92 20.5 5 .607.124.94.457 1 1-3.332 8.514-9.666 12.847-19 13-14.668-2.151-21.334-10.651-20-25.5l5-61c.056-12.554-4.944-22.554-15-30-18.6-8.081-29.933-21.914-34-41.5v-26l4.5-19c.374-1.991 1.207-3.658 2.5-5z" opacity=".987"/><path fill="#c38777" d="M118.5 112.5l-2.5 6c-5.609 3.373-10.109 2.373-13.5-3 4.401-22.4 9.235-44.733 14.5-67 1.167-1.833 2.667-3.333 4.5-4.5 5.804-.935 9.471 1.398 11 7l-14 61.5z"/><path fill="#d7aa8b" d="M158.5 75.5l347 81.5c2.621 2.114 4.621 4.614 6 7.5v9l-356-82a102.92 102.92 0 0 0 2-14c-.172-.992.162-1.658 1-2z" opacity=".975"/><path fill="#c38778" d="M155.5 91.5l356 82v2c-3.037 6.52-8.204 10.186-15.5 11l-112.5-26c-4.751-2.103-9.751-3.103-15-3l-217-51a95.6 95.6 0 0 1 4-15z" opacity=".975"/><path fill="#fec14f" d="M79.5 162.5c1.215 21.528 2.881 43.028 5 64.5.121 3.782-.546 7.282-2 10.5-.06-.543-.393-.876-1-1-8.346 3.92-15.179 2.254-20.5-5 .174-23.753 1.84-47.42 5-71 .374-.916.874-1.75 1.5-2.5 5.638-2.676 9.638-1.176 12 4.5z" opacity=".984"/><path fill="#c38778" d="M177.5 157.5c-.166 7.008 0 14.008.5 21a11.53 11.53 0 0 0 3.5 4.5l208 .5c.166 5.344-.001 10.677-.5 16-1.33 3.507-3.83 5.173-7.5 5a20.69 20.69 0 0 0-5 1c-24.828-.998-49.828-1.331-75-1h-137c-3.67.173-6.17-1.493-7.5-5a225.14 225.14 0 0 1 0-30c3.49-9.501 10.324-13.501 20.5-12z" opacity=".993"/><path fill="#d7aa8c" d="M177.5 157.5h191c5.249-.103 10.249.897 15 3 2.83 2.343 4.663 5.343 5.5 9a98.43 98.43 0 0 1 .5 14c-69.334.167-138.667 0-208-.5a11.53 11.53 0 0 1-3.5-4.5c-.5-6.992-.666-13.992-.5-21z" opacity=".974"/><path fill="#f6f8f9" d="M164.5 204.5h137c9.454 2.659 16.62 8.325 21.5 17a68.71 68.71 0 0 1 1.5 15.5 399.67 399.67 0 0 1-2 29.5h-193-11v-1c4.055.324 8.055-.009 12-1 7.294-21.436 18.294-40.603 33-57.5a.91.91 0 0 0-1-.5l2-2z"/><path fill="#e69743" d="M301.5 204.5c25.172-.331 50.172.002 75 1-11.814 2.813-18.814 10.146-21 22l-2 2c-4.51-4.256-8.343-3.589-11.5 2-3.414 23.217-5.08 46.55-5 70 5.586 8.349 12.753 10.016 21.5 5-1.753 6.254-5.753 10.421-12 12.5-17.548 2.456-26.548-5.21-27-23l3-29.5a399.67 399.67 0 0 0 2-29.5 68.71 68.71 0 0 0-1.5-15.5c-4.88-8.675-12.046-14.341-21.5-17z"/><path fill="#f7f8f8" d="M381.5 204.5c19.707 17.411 35.04 38.077 46 62h-70c-.938-8.593-1.604-17.26-2-26v-13c2.186-11.854 9.186-19.187 21-22a20.69 20.69 0 0 1 5-1z" opacity=".996"/><path fill="#dce6eb" d="M162.5 206.5a.91.91 0 0 1 1 .5c-14.706 16.897-25.706 36.064-33 57.5-3.945.991-7.945 1.324-12 1 10.847-22.514 25.514-42.181 44-59z" opacity=".939"/><path fill="#fec150" d="M353.5 229.5a255.81 255.81 0 0 0 2 11c.396 8.74 1.062 17.407 2 26 1.988 13.35 2.322 26.684 1 40-8.747 5.016-15.914 3.349-21.5-5-.08-23.45 1.586-46.783 5-70 3.157-5.589 6.99-6.256 11.5-2z"/><path fill="#f7d5a0" d="M355.5 227.5v13a255.81 255.81 0 0 1-2-11l2-2z"/><path fill="#ffc250" d="M118.5 266.5h11c-22.213 77.127-9.379 147.794 38.5 212 6.912 7.36 15.412 11.36 25.5 12l210 2c-9.424 9.759-20.757 16.092-34 19h-193c-22.286-5.775-38.453-19.108-48.5-40-35.081-63.55-39.748-129.217-14-197 1.274-2.891 2.774-5.558 4.5-8z" opacity=".991"/><path fill="#fedf7c" d="M129.5 266.5h193l-3 29.5c.452 17.79 9.452 25.456 27 23 6.247-2.079 10.247-6.246 12-12.5 1.322-13.316.988-26.65-1-40h70c9.168 17.172 15.168 35.506 18 55 8.93 60.273-3.57 115.606-37.5 166-1.039 1.21-2.206 2.21-3.5 3h-211c-10.088-.64-18.588-4.64-25.5-12-47.879-64.206-60.713-134.873-38.5-212z" opacity=".999"/><path fill="#ffcd61" d="M193.5 490.5h211c.172.992-.162 1.658-1 2l-210-2z" opacity=".998"/></svg>