<?xml version="1.0" ?>
<svg height="512" viewBox="0 0 512 512" width="512" xmlns="http://www.w3.org/2000/svg">
  <path d="M361,331C319.578,331 286,297.422 286,256C286,247.715 292.715,241 301,241C342.422,241 376,274.578 376,316C376,324.285 369.285,331 361,331ZM361,331" fill="#A8D32A" stroke="#00000000"/>
  <path d="M361,211C319.578,211 286,177.422 286,136C286,127.715 292.715,121 301,121C342.422,121 376,154.578 376,196C376,204.285 369.285,211 361,211ZM361,211" fill="#A8D32A" stroke="#00000000"/>
  <path d="M391,331C432.422,331 466,297.422 466,256C466,247.715 459.285,241 451,241C409.578,241 376,274.578 376,316C376,324.285 382.715,331 391,331ZM391,331" fill="#93BF00" stroke="#00000000"/>
  <path d="M391,211C432.422,211 466,177.422 466,136C466,127.715 459.285,121 451,121C409.578,121 376,154.578 376,196C376,204.285 382.715,211 391,211ZM391,211" fill="#93BF00" stroke="#00000000"/>
  <path d="M391,136L391,436C391,444.398 384.402,451 376,451C367.598,451 361,444.398 361,436L361,136C361,127.598 367.598,121 376,121C384.402,121 391,127.598 391,136ZM391,136" fill="#B9DD39" stroke="#00000000"/>
  <path d="M376,451L376,121C384.402,121 391,127.598 391,136L391,436C391,444.398 384.402,451 376,451ZM376,451" fill="#A8D32A" stroke="#00000000"/>
  <path d="M385.902,3.898C383.199,1.199 379.602,0 376,0C372.398,0 368.801,1.199 366.098,3.898C364.602,5.098 331,36.699 331,76C331,115.301 364.602,145.898 366.098,147.102C368.801,149.801 372.398,151 376,151C379.602,151 383.199,149.801 385.902,147.102C387.398,145.898 421,115.301 421,76C421,36.699 387.398,5.098 385.902,3.898ZM385.902,3.898" fill="#A8D32A" stroke="#00000000"/>
  <path d="M421,76C421,115.301 387.398,145.898 385.902,147.102C383.199,149.801 379.602,151 376,151L376,0C379.602,0 383.199,1.199 385.902,3.898C387.398,5.098 421,36.699 421,76ZM421,76" fill="#93BF00" stroke="#00000000"/>
  <path d="M121,331C79.578,331 46,297.422 46,256C46,247.715 52.715,241 61,241C102.422,241 136,274.578 136,316C136,324.285 129.285,331 121,331ZM121,331" fill="#A8D32A" stroke="#00000000"/>
  <path d="M121,211C79.578,211 46,177.422 46,136C46,127.715 52.715,121 61,121C102.422,121 136,154.578 136,196C136,204.285 129.285,211 121,211ZM121,211" fill="#A8D32A" stroke="#00000000"/>
  <path d="M151,331C192.422,331 226,297.422 226,256C226,247.715 219.285,241 211,241C169.578,241 136,274.578 136,316C136,324.285 142.715,331 151,331ZM151,331" fill="#93BF00" stroke="#00000000"/>
  <path d="M151,211C192.422,211 226,177.422 226,136C226,127.715 219.285,121 211,121C169.578,121 136,154.578 136,196C136,204.285 142.715,211 151,211ZM151,211" fill="#93BF00" stroke="#00000000"/>
  <path d="M151,136L151,436C151,444.398 144.402,451 136,451C127.598,451 121,444.398 121,436L121,136C121,127.598 127.598,121 136,121C144.402,121 151,127.598 151,136ZM151,136" fill="#B9DD39" stroke="#00000000"/>
  <path d="M136,451L136,121C144.402,121 151,127.598 151,136L151,436C151,444.398 144.402,451 136,451ZM136,451" fill="#A8D32A" stroke="#00000000"/>
  <path d="M145.902,3.898C143.199,1.199 139.602,0 136,0C132.398,0 128.801,1.199 126.098,3.898C124.602,5.098 91,36.699 91,76C91,115.301 124.602,145.898 126.098,147.102C128.801,149.801 132.398,151 136,151C139.602,151 143.199,149.801 145.902,147.102C147.398,145.898 181,115.301 181,76C181,36.699 147.398,5.098 145.902,3.898ZM145.902,3.898" fill="#A8D32A" stroke="#00000000"/>
  <path d="M181,76C181,115.301 147.398,145.898 145.902,147.102C143.199,149.801 139.602,151 136,151L136,0C139.602,0 143.199,1.199 145.902,3.898C147.398,5.098 181,36.699 181,76ZM181,76" fill="#93BF00" stroke="#00000000"/>
  <path d="M502.699,383.5C498.5,381.699 494.598,379.602 491,377.199C458.598,355.602 415.902,355.602 383.5,377.199C361,391.902 332.199,391.902 310,377.199C293.5,366.398 274.898,361 256,361C238,361 219.402,366.398 203.5,377.199C181,391.902 152.199,391.902 130,377.199C97.598,355.602 54.902,355.602 22.5,377.199C19.801,379 16.801,379.898 13.801,380.199C6,380.801 0,387.398 0,395.199L0,497C0,505.402 6.598,512 15,512L497,512C505.402,512 512,505.402 512,497L512,397.301C512,391.301 508.398,385.602 502.699,383.5ZM502.699,383.5" fill="#7E5D40" stroke="#00000000"/>
  <path d="M512,397.301L512,497C512,505.402 505.402,512 497,512L256,512L256,361C274.898,361 293.5,366.398 310,377.199C332.199,391.902 361,391.902 383.5,377.199C415.902,355.602 458.598,355.602 491,377.199C494.602,379.602 498.5,381.699 502.699,383.5C508.398,385.602 512,391.301 512,397.301ZM512,397.301" fill="#684D34" stroke="#00000000"/>
  <path d="M106,451L76,451C67.711,451 61,444.289 61,436C61,427.711 67.711,421 76,421L106,421C114.289,421 121,427.711 121,436C121,444.289 114.289,451 106,451ZM106,451" fill="#5C442F" stroke="#00000000"/>
  <path d="M436,451L406,451C397.711,451 391,444.289 391,436C391,427.711 397.711,421 406,421L436,421C444.289,421 451,427.711 451,436C451,444.289 444.289,451 436,451ZM436,451" fill="#4C3828" stroke="#00000000"/>
  <path d="M286,436C286,444.402 279.402,451 271,451L241,451C232.598,451 226,444.402 226,436C226,427.598 232.598,421 241,421L271,421C279.402,421 286,427.598 286,436ZM286,436" fill="#5C442F" stroke="#00000000"/>
  <path d="M286,436C286,444.402 279.402,451 271,451L256,451L256,421L271,421C279.402,421 286,427.598 286,436ZM286,436" fill="#4C3828" stroke="#00000000"/>
</svg>
