<?xml version="1.0" ?>
<svg height="512" viewBox="0 0 512 512" width="512" xmlns="http://www.w3.org/2000/svg">
  <path d="M511.71,167.723L342.944,0.213c-48.37,-2.363 -97.52,14.927 -134.464,51.871c-47.399,47.399 -56.239,110.649 -50.733,161.796c0.016,0 140.376,140.36 140.376,140.36c51.147,5.522 114.397,-3.318 161.796,-50.717C497.204,266.236 514.471,216.522 511.71,167.723z" fill="#825645"/>
  <path d="M511.71,167.723c-43.325,0.453 -86.802,-15.842 -119.856,-48.896c-32.742,-32.743 -49.037,-75.694 -48.91,-118.614c42.546,2.077 84.495,19.359 116.991,51.855C492.089,84.223 509.347,125.639 511.71,167.723z" fill="#FCD197"/>
  <path d="M298.122,354.24c-37.079,-3.979 -67.784,-15.524 -81.495,-25.399c-18.492,-0.7 -28.024,-5.443 -28.024,-5.443s-4.734,-9.524 -5.443,-28.024c-9.874,-13.709 -21.42,-44.416 -25.414,-81.495c0.016,0 29.671,16.67 29.671,16.67l29.656,-16.67l17.37,29.241l34.008,0.43l0.43,34.008l29.241,17.37l-16.67,29.656L298.122,354.24z" fill="#683520"/>
  <path d="M296.189,173.45l-237.782,0.889C22.533,206.87 0.005,253.851 0.005,306.097c0,67.033 38.473,118.008 78.533,150.281c0.011,-0.011 198.51,-0.011 198.51,-0.011c40.071,-32.262 78.544,-83.237 78.544,-150.27C355.594,253.367 332.649,206.004 296.189,173.45z" fill="#683520"/>
  <path d="M296.189,173.45c-30.315,30.956 -72.58,50.176 -119.324,50.176c-46.305,0 -88.199,-18.848 -118.458,-49.287c31.553,-28.616 73.436,-46.058 119.392,-46.058C223.271,128.281 264.76,145.363 296.189,173.45z" fill="#FAB352"/>
  <path d="M277.048,456.367c-29.032,23.406 -58.908,36.954 -75.585,39.666C187.892,508.613 177.799,512 177.799,512s-10.082,-3.387 -23.665,-15.968c-16.677,-2.712 -46.553,-16.26 -75.596,-39.655c0.011,-0.011 32.768,-9.194 32.768,-9.194l9.182,-32.757l32.959,8.395l24.351,-23.743l24.351,23.743l32.959,-8.395l9.182,32.757L277.048,456.367z" fill="#825645"/>
  <path d="M302.441,315.157m-8.44,0a8.44,8.44 0,1 1,16.88 0a8.44,8.44 0,1 1,-16.88 0" fill="#825645"/>
  <path d="M274.309,337.662m-8.44,0a8.44,8.44 0,1 1,16.88 0a8.44,8.44 0,1 1,-16.88 0" fill="#825645"/>
  <path d="M61.35,275.772m-8.44,0a8.44,8.44 0,1 1,16.88 0a8.44,8.44 0,1 1,-16.88 0" fill="#825645"/>
  <path d="M423.172,232.055m-8.44,0a8.44,8.44 0,1 1,16.88 0a8.44,8.44 0,1 1,-16.88 0" fill="#683520"/>
  <path d="M377.61,186.583m-8.44,0a8.44,8.44 0,1 1,16.88 0a8.44,8.44 0,1 1,-16.88 0" fill="#683520"/>
</svg>
