<?xml version="1.0" encoding="UTF-8"?>
<svg xmlns="http://www.w3.org/2000/svg" version="1.1" width="512px" height="512px" style="shape-rendering:geometricPrecision; text-rendering:geometricPrecision; image-rendering:optimizeQuality; fill-rule:evenodd; clip-rule:evenodd">
<g><path style="opacity:0.994" fill="#fedfc4" d="M 399.5,-0.5 C 408.833,-0.5 418.167,-0.5 427.5,-0.5C 449.496,2.83087 468.163,12.4975 483.5,28.5C 470.749,40.7497 458.083,53.2497 445.5,66C 444.906,66.4643 444.239,66.631 443.5,66.5C 439.869,63.3707 436.369,60.0374 433,56.5C 426.333,63.1667 419.667,69.8333 413,76.5C 412.333,77.5 412.333,78.5 413,79.5C 415.703,82.3714 418.536,85.0381 421.5,87.5C 421.649,88.552 421.483,89.552 421,90.5C 386.25,125.752 351.083,160.418 315.5,194.5C 311.869,191.371 308.369,188.037 305,184.5C 297.985,191.348 291.152,198.348 284.5,205.5C 287.521,209.188 290.854,212.521 294.5,215.5C 294.5,215.833 294.5,216.167 294.5,216.5C 269.168,242.832 243.501,268.832 217.5,294.5C 213.43,291.94 209.764,288.773 206.5,285C 205.833,284.333 205.167,284.333 204.5,285C 197.833,291.667 191.167,298.333 184.5,305C 188.037,308.369 191.371,311.869 194.5,315.5C 160.418,351.083 125.752,386.25 90.5,421C 89.552,421.483 88.552,421.649 87.5,421.5C 85.0381,418.536 82.3714,415.703 79.5,413C 78.5,412.333 77.5,412.333 76.5,413C 69.8333,419.667 63.1667,426.333 56.5,433C 60.0374,436.369 63.3707,439.869 66.5,443.5C 66.631,444.239 66.4643,444.906 66,445.5C 53.2497,458.083 40.7497,470.749 28.5,483.5C 12.4975,468.163 2.83087,449.496 -0.5,427.5C -0.5,418.167 -0.5,408.833 -0.5,399.5C 2.97072,380.554 10.8041,363.554 23,348.5C 55.8333,315.667 88.6667,282.833 121.5,250C 153.859,224.758 189.192,219.758 227.5,235C 232.998,237.915 238.332,241.081 243.5,244.5C 243.833,244.167 244.167,243.833 244.5,243.5C 226.36,216.358 221.86,187.025 231,155.5C 235.277,142.938 241.611,131.605 250,121.5C 285.223,85.609 321.057,50.4423 357.5,16C 370.488,7.62099 384.488,2.12099 399.5,-0.5 Z"/></g>
<g><path style="opacity:1" fill="#f1b49b" d="M 443.5,66.5 C 443.5,66.8333 443.5,67.1667 443.5,67.5C 436.13,74.2033 429.463,81.5366 423.5,89.5C 422.833,88.8333 422.167,88.1667 421.5,87.5C 418.536,85.0381 415.703,82.3714 413,79.5C 412.333,78.5 412.333,77.5 413,76.5C 419.667,69.8333 426.333,63.1667 433,56.5C 436.369,60.0374 439.869,63.3707 443.5,66.5 Z"/></g>
<g><path style="opacity:1" fill="#f2b59c" d="M 379.5,58.5 C 387.424,64.7549 394.758,71.7549 401.5,79.5C 394.833,86.8333 387.833,93.8333 380.5,100.5C 373.167,93.8333 366.167,86.8333 359.5,79.5C 366.188,72.4795 372.855,65.4795 379.5,58.5 Z"/></g>
<g><path style="opacity:1" fill="#d69f89" d="M 443.5,67.5 C 447.298,70.7961 450.964,74.2961 454.5,78C 447.333,85.1667 440.167,92.3333 433,99.5C 429.629,96.2975 426.462,92.9641 423.5,89.5C 429.463,81.5366 436.13,74.2033 443.5,67.5 Z"/></g>
<g><path style="opacity:1" fill="#f2b49b" d="M 305.5,132.5 C 313.424,138.755 320.758,145.755 327.5,153.5C 320.833,160.833 313.833,167.833 306.5,174.5C 299.681,167.181 292.681,160.014 285.5,153C 292.369,146.298 299.036,139.465 305.5,132.5 Z"/></g>
<g><path style="opacity:1" fill="#f1b49b" d="M 315.5,194.5 C 315.5,194.833 315.5,195.167 315.5,195.5C 309.138,202.863 302.138,209.529 294.5,215.5C 290.854,212.521 287.521,209.188 284.5,205.5C 291.152,198.348 297.985,191.348 305,184.5C 308.369,188.037 311.869,191.371 315.5,194.5 Z"/></g>
<g><path style="opacity:1" fill="#d69f89" d="M 315.5,195.5 C 319.298,198.796 322.964,202.296 326.5,206C 319.652,213.015 312.652,219.848 305.5,226.5C 301.813,223.145 298.147,219.811 294.5,216.5C 294.5,216.167 294.5,215.833 294.5,215.5C 302.138,209.529 309.138,202.863 315.5,195.5 Z"/></g>
<g><path style="opacity:1" fill="#fecdb8" d="M 483.5,28.5 C 498.904,43.6914 508.237,62.0247 511.5,83.5C 511.5,92.8333 511.5,102.167 511.5,111.5C 508.029,130.446 500.196,147.446 488,162.5C 455.167,195.333 422.333,228.167 389.5,261C 356.339,286.784 320.339,291.45 281.5,275C 276.667,272.418 272,269.585 267.5,266.5C 267.167,266.833 266.833,267.167 266.5,267.5C 284.64,294.642 289.14,323.975 280,355.5C 275.637,368.569 268.97,380.235 260,390.5C 227.5,423 195,455.5 162.5,488C 147.446,500.196 130.446,508.029 111.5,511.5C 102.167,511.5 92.8333,511.5 83.5,511.5C 62.0247,508.237 43.6914,498.904 28.5,483.5C 40.7497,470.749 53.2497,458.083 66,445.5C 66.4643,444.906 66.631,444.239 66.5,443.5C 66.8333,443.5 67.1667,443.5 67.5,443.5C 70.7961,447.298 74.2961,450.964 78,454.5C 85.1667,447.333 92.3333,440.167 99.5,433C 96.2975,429.629 92.9641,426.462 89.5,423.5C 88.8333,422.833 88.1667,422.167 87.5,421.5C 88.552,421.649 89.552,421.483 90.5,421C 125.752,386.25 160.418,351.083 194.5,315.5C 194.833,315.5 195.167,315.5 195.5,315.5C 198.796,319.298 202.296,322.964 206,326.5C 213.015,319.652 219.848,312.652 226.5,305.5C 223.478,302.147 220.478,298.813 217.5,295.5C 217.5,295.167 217.5,294.833 217.5,294.5C 243.501,268.832 269.168,242.832 294.5,216.5C 298.147,219.811 301.813,223.145 305.5,226.5C 312.652,219.848 319.652,213.015 326.5,206C 322.964,202.296 319.298,198.796 315.5,195.5C 315.5,195.167 315.5,194.833 315.5,194.5C 351.083,160.418 386.25,125.752 421,90.5C 421.483,89.552 421.649,88.552 421.5,87.5C 422.167,88.1667 422.833,88.8333 423.5,89.5C 426.462,92.9641 429.629,96.2975 433,99.5C 440.167,92.3333 447.333,85.1667 454.5,78C 450.964,74.2961 447.298,70.7961 443.5,67.5C 443.5,67.1667 443.5,66.8333 443.5,66.5C 444.239,66.631 444.906,66.4643 445.5,66C 458.083,53.2497 470.749,40.7497 483.5,28.5 Z"/></g>
<g><path style="opacity:1" fill="#d69f89" d="M 356.5,183.5 C 364.424,189.755 371.758,196.755 378.5,204.5C 371.833,211.833 364.833,218.833 357.5,225.5C 350.637,218.472 343.97,211.305 337.5,204C 343.659,197.008 349.992,190.175 356.5,183.5 Z"/></g>
<g><path style="opacity:1" fill="#d7a08a" d="M 430.5,109.5 C 438.424,115.755 445.758,122.755 452.5,130.5C 445.833,137.833 438.833,144.833 431.5,151.5C 424.167,144.833 417.167,137.833 410.5,130.5C 417.188,123.48 423.855,116.48 430.5,109.5 Z"/></g>
<g><path style="opacity:1" fill="#f1b49b" d="M 217.5,294.5 C 217.5,294.833 217.5,295.167 217.5,295.5C 209.888,301.775 202.554,308.442 195.5,315.5C 195.167,315.5 194.833,315.5 194.5,315.5C 191.371,311.869 188.037,308.369 184.5,305C 191.167,298.333 197.833,291.667 204.5,285C 205.167,284.333 205.833,284.333 206.5,285C 209.764,288.773 213.43,291.94 217.5,294.5 Z"/></g>
<g><path style="opacity:1" fill="#f2b49b" d="M 152.5,285.5 C 160.008,292.174 167.008,299.341 173.5,307C 167.363,314.305 160.696,321.138 153.5,327.5C 146.167,320.833 139.167,313.833 132.5,306.5C 139.188,299.48 145.855,292.48 152.5,285.5 Z"/></g>
<g><path style="opacity:1" fill="#d69f89" d="M 217.5,295.5 C 220.478,298.813 223.478,302.147 226.5,305.5C 219.848,312.652 213.015,319.652 206,326.5C 202.296,322.964 198.796,319.298 195.5,315.5C 202.554,308.442 209.888,301.775 217.5,295.5 Z"/></g>
<g><path style="opacity:1" fill="#d69f89" d="M 202.5,337.5 C 203.552,337.351 204.552,337.517 205.5,338C 212.167,344.667 218.833,351.333 225.5,358C 218.652,365.015 211.652,371.848 204.5,378.5C 197.167,371.833 190.167,364.833 183.5,357.5C 189.855,350.813 196.188,344.146 202.5,337.5 Z"/></g>
<g><path style="opacity:1" fill="#f2b49b" d="M 78.5,359.5 C 85.8392,366.506 93.1726,373.506 100.5,380.5C 93.8333,387.833 86.8333,394.833 79.5,401.5C 72.1667,394.833 65.1667,387.833 58.5,380.5C 65.1882,373.48 71.8549,366.48 78.5,359.5 Z"/></g>
<g><path style="opacity:1" fill="#d69f89" d="M 129.5,410.5 C 136.766,417.429 144.099,424.429 151.5,431.5C 144.833,438.833 137.833,445.833 130.5,452.5C 123.167,445.833 116.167,438.833 109.5,431.5C 116.188,424.48 122.855,417.48 129.5,410.5 Z"/></g>
<g><path style="opacity:1" fill="#f1b49b" d="M 87.5,421.5 C 88.1667,422.167 88.8333,422.833 89.5,423.5C 81.8617,429.804 74.5283,436.47 67.5,443.5C 67.1667,443.5 66.8333,443.5 66.5,443.5C 63.3707,439.869 60.0374,436.369 56.5,433C 63.1667,426.333 69.8333,419.667 76.5,413C 77.5,412.333 78.5,412.333 79.5,413C 82.3714,415.703 85.0381,418.536 87.5,421.5 Z"/></g>
<g><path style="opacity:1" fill="#d69f89" d="M 89.5,423.5 C 92.9641,426.462 96.2975,429.629 99.5,433C 92.3333,440.167 85.1667,447.333 78,454.5C 74.2961,450.964 70.7961,447.298 67.5,443.5C 74.5283,436.47 81.8617,429.804 89.5,423.5 Z"/></g>
</svg>
