<svg id="Layer_1" enable-background="new 0 0 512 512" height="512" viewBox="0 0 512 512" width="512" xmlns="http://www.w3.org/2000/svg"><path id="XMLID_891_" d="m412.389 371c0 118.985-44.153 141-98.608 141-21.757 0-41.877-3.513-58.184-15.329-24.508-17.74-40.424-54.228-40.424-125.671 0-11.517.412-23.519 1.205-35.809 3.111-47.996 12.063-100.329 25.044-144.956 18.008-61.986 43.762-109.116 72.36-109.116s54.352 47.131 72.36 109.116c16.296 56.052 26.247 124.26 26.247 180.765z" fill="#837bbf"/><path id="XMLID_892_" d="m386.141 190.235c-1.885.433-3.832.659-5.8.659-3.739 0-7.386-.793-10.848-2.349l-23.024-10.374c-.598 1.586-1.164 3.142-1.71 4.656-2.308 6.346-4.481 12.342-7.829 17.544-7.16 11.105-16.545 13.433-23.148 13.433-6.614 0-15.999-2.328-23.148-13.433-3.348-5.202-5.532-11.198-7.829-17.544-.556-1.514-1.123-3.07-1.71-4.656l-23.035 10.374c-3.461 1.556-7.108 2.349-10.848 2.349-1.968 0-3.915-.227-5.79-.659 18.008-61.986 43.762-109.116 72.36-109.116 28.597 0 54.351 47.13 72.359 109.116z" fill="#6e63b4"/><path id="XMLID_893_" d="m282.278 428.906c0 26.146-10.127 49.984-26.682 67.765-24.508-17.74-40.424-54.228-40.424-125.671 0-11.517.412-23.519 1.205-35.809 38.385 13.835 65.901 50.623 65.901 93.715z" fill="#6e63b4"/><path id="XMLID_894_" d="m412.389 371c0 118.985-44.153 141-98.608 141-4.893 0-9.715-.175-14.422-.587 47.625-4.162 84.176-32.141 84.176-140.413s-36.551-259.543-84.176-285.884c4.708-2.617 9.529-3.997 14.422-3.997 54.455 0 98.608 170.895 98.608 289.881z" fill="#6e63b4"/><path id="XMLID_895_" d="m323.806 90.225-19.996-7.005c.742-11.157-.886-22.046-3.667-31.997-4.996-17.894-13.722-32.79-19.12-40.898-2.029-3.049-.113-7.17 3.523-7.603l22.324-2.689c1.947-.227 3.853.711 4.832 2.411 3.925 6.758 13.464 25.219 15.793 48.81 1.174 11.95.504 25.229-3.689 38.971z" fill="#1ec186"/><circle id="XMLID_1522_" cx="182.704" cy="428.906" fill="#9790c9" r="83.094"/><path id="XMLID_1521_" d="m182.705 498.445c-38.345 0-69.54-31.195-69.54-69.539s31.195-69.539 69.54-69.539c38.344 0 69.539 31.195 69.539 69.539-.001 38.344-31.196 69.539-69.539 69.539z" fill="#837bbf"/><circle id="XMLID_1520_" cx="182.704" cy="428.906" fill="#ffeed3" r="57.754"/><g fill="#fcac8d"><path id="XMLID_898_" d="m182.705 416.557c-4.268 0-7.726-3.459-7.726-7.726v-5.262c0-4.267 3.459-7.726 7.726-7.726 4.268 0 7.726 3.459 7.726 7.726v5.262c0 4.267-3.459 7.726-7.726 7.726z"/><path id="XMLID_899_" d="m182.705 461.97c-4.268 0-7.726-3.459-7.726-7.726v-5.262c0-4.267 3.459-7.726 7.726-7.726 4.268 0 7.726 3.459 7.726 7.726v5.262c0 4.267-3.459 7.726-7.726 7.726z"/><path id="XMLID_900_" d="m208.041 436.633h-5.262c-4.268 0-7.726-3.459-7.726-7.726s3.459-7.726 7.726-7.726h5.262c4.268 0 7.726 3.459 7.726 7.726s-3.458 7.726-7.726 7.726z"/><path id="XMLID_901_" d="m162.629 436.633h-5.263c-4.268 0-7.726-3.459-7.726-7.726s3.459-7.726 7.726-7.726h5.263c4.268 0 7.726 3.459 7.726 7.726s-3.458 7.726-7.726 7.726z"/></g><path id="XMLID_902_" d="m323.806 90.225-19.996-7.005c.742-11.157-.886-22.046-3.667-31.997 4.492-1.35 9.035-2.019 13.629-2.019 4.625 0 9.199.68 13.722 2.05 1.175 11.95.505 25.229-3.688 38.971z" fill="#1eb07c"/><path id="XMLID_903_" d="m376.259 173.512c8.032 3.616 16.425-4.331 13.239-12.543-21.102-54.385-47.315-95.287-75.721-95.287s-54.619 40.902-75.721 95.288c-3.186 8.212 5.207 16.159 13.239 12.542l23.573-10.613c8.345-3.757 18.149.277 21.406 8.83 5.152 13.529 8.019 25.596 17.503 25.596s12.352-12.067 17.504-25.596c3.257-8.553 13.06-12.587 21.406-8.83z" fill="#23f1a8"/><path id="XMLID_904_" d="m376.264 173.51-8.887-4c-21.105-54.369-47.304-95.239-75.701-95.239-.207 0-.414 0-.621.01 7.37-5.547 14.967-8.602 22.721-8.602 28.406 0 54.615 40.91 75.72 95.288 3.193 8.218-5.202 16.159-13.232 12.543z" fill="#27e19d"/></svg>