<svg xmlns="http://www.w3.org/2000/svg" width="512" height="512" shape-rendering="geometricPrecision" image-rendering="optimizeQuality" fill-rule="evenodd" xmlns:v="https://vecta.io/nano"><path fill="#679a2c" d="M326.5 28.5c-14.383 34.149-26.383 69.149-36 105 0 .667-.333 1-1 1-10.252-16.861-16.252-35.195-18-55 16.15-19.488 34.483-36.488 55-51z" opacity=".985"/><path d="M326.5 28.5c1.385 1.074 2.551 2.407 3.5 4a294.03 294.03 0 0 1 22.5 61c-11.276 12.114-23.609 22.947-37 32.5-7.596 5.033-15.929 7.533-25 7.5 9.617-35.851 21.617-70.851 36-105zm-278 14c19.465 13.122 37.131 28.456 53 46-.997-.03-1.664.47-2 1.5A184.99 184.99 0 0 1 83 134.5c-4.071 8.239-10.238 14.239-18.5 18l-11-60c-2.489-16.583-4.156-33.25-5-50z" opacity=".992" fill="#43591e"/><path fill="#557c22" d="M48.5 42.5c.844 16.75 2.511 33.417 5 50-1.608 2.71-2.775 5.71-3.5 9-2.72 11.664-5.22 23.331-7.5 35-7.85-6.844-14.183-14.844-19-24a332.1 332.1 0 0 1 21.5-66c.498-2.044 1.665-3.378 3.5-4z"/><path fill="#87ac3f" d="M271.5 79.5c1.748 19.805 7.748 38.139 18 55-4.808 18.231-9.141 36.564-13 55-9.066-9.107-15.9-19.774-20.5-32a156.1 156.1 0 0 1-10.5-43c7.451-12.567 16.117-24.234 26-35z"/><path fill="#55672a" d="M101.5 88.5c9.634 10.605 18.301 21.938 26 34-7.346 25.022-18.18 48.355-32.5 70-4.67 5.837-9.837 11.17-15.5 16h-1a1717.18 1717.18 0 0 1-14-56c8.262-3.761 14.429-9.761 18.5-18 7.404-14.107 12.904-28.94 16.5-44.5.336-1.03 1.003-1.53 2-1.5z"/><path fill="#679a2c" d="M53.5 92.5l11 60a62.25 62.25 0 0 1-22-15v-1c2.28-11.669 4.78-23.336 7.5-35 .725-3.29 1.892-6.29 3.5-9z" opacity=".999"/><path fill="#55672a" d="M352.5 93.5c3.495 14.142 5.828 28.475 7 43-19.007 20.164-41.007 36.331-66 48.5-5.493 2.221-11.16 3.721-17 4.5 3.859-18.436 8.192-36.769 13-55 .667 0 1-.333 1-1 9.071.033 17.404-2.467 25-7.5 13.391-9.553 25.724-20.386 37-32.5z"/><path fill="#79ae34" d="M493.5 110.5c-26.637 25.711-51.637 52.711-75 81-2.768-17.9-1.434-35.567 4-53-.043-.916-.376-1.583-1-2 22.825-11.611 46.825-20.278 72-26z" opacity=".991"/><path fill="#698e31" d="M493.5 110.5c.617.111 1.117.444 1.5 1a484.01 484.01 0 0 1 0 44c-.526 8.235-1.693 16.235-3.5 24-18.077 9.191-37.243 14.857-57.5 17-5.502-.167-10.669-1.5-15.5-4v-1c23.363-28.289 48.363-55.289 75-81z" opacity=".995"/><path fill="#738e32" d="M23.5 112.5c4.817 9.156 11.15 17.156 19 24v1c-2.319 15.24-3.319 30.574-3 46a348.16 348.16 0 0 1-24-26c1.561-15.283 4.228-30.283 8-45z"/><path fill="#689b2d" d="M245.5 114.5a156.1 156.1 0 0 0 10.5 43c4.6 12.226 11.434 22.893 20.5 32a883.45 883.45 0 0 0-9 54c-17.39-13.092-30.224-29.759-38.5-50l-10.5-28c7.204-18.08 16.204-35.08 27-51z" opacity=".994"/><g fill="#43591e"><path d="M127.5 122.5c11.415 15.143 21.082 31.476 29 49-6.516 15.716-13.682 31.382-21.5 47-9.184 17.35-22.017 31.35-38.5 42-6.066-17.198-11.733-34.531-17-52 5.663-4.83 10.83-10.163 15.5-16 14.32-21.645 25.154-44.978 32.5-70z" opacity=".996"/><path d="M359.5 136.5c1.736 12.124 2.736 24.458 3 37-.918 6.275-1.251 12.608-1 19-15.422 14.922-32.422 27.756-51 38.5-13.497 7.123-27.831 11.29-43 12.5a883.45 883.45 0 0 1 9-54c5.84-.779 11.507-2.279 17-4.5 24.993-12.169 46.993-28.336 66-48.5z" opacity=".997"/></g><path fill="#709b2c" d="M421.5 136.5c.624.417.957 1.084 1 2-5.434 17.433-6.768 35.1-4 53v1c-12.815 14.815-24.482 30.481-35 47h-1c-7.163-27.065-6.497-53.898 2-80.5a.91.91 0 0 0-1-.5c11.886-8.523 24.552-15.857 38-22z"/><path fill="#87ac3f" d="M42.5 137.5a62.25 62.25 0 0 0 22 15 1717.18 1717.18 0 0 0 14 56c-14.549-5.563-27.549-13.563-39-24v-1c-.319-15.426.681-30.76 3-46z"/><path fill="#557c22" d="M15.5 157.5a348.16 348.16 0 0 0 24 26v1c.422 17.793 2.088 35.46 5 53-9.848-6.337-18.681-14.004-26.5-23-.198-1.882-.698-3.548-1.5-5a738.18 738.18 0 0 1-1-52z"/><path fill="#79ae34" d="M383.5 158.5a.91.91 0 0 1 1 .5c-8.497 26.602-9.163 53.435-2 80.5l-29 44-2-21v-2c5.784-22.264 9.117-44.931 10-68-.251-6.392.082-12.725 1-19 6.824-5.245 13.824-10.245 21-15z" opacity=".997"/><path fill="#87ac3f" d="M218.5 165.5l10.5 28c8.276 20.241 21.11 36.908 38.5 50a1462.61 1462.61 0 0 0-6 61c-19.521-10.352-35.021-25.019-46.5-44-5.073-8.813-9.573-17.813-13.5-27 2.845-23.379 8.511-46.046 17-68z"/><path fill="#55672a" d="M156.5 171.5c9.516 19.88 16.849 40.546 22 62-10.894 29.045-27.227 54.545-49 76.5a82.93 82.93 0 0 1-9 6.5h-1c-8.219-18.439-15.886-37.105-23-56 16.483-10.65 29.316-24.65 38.5-42 7.818-15.618 14.984-31.284 21.5-47z"/><path fill="#617c2c" d="M491.5 179.5a210.54 210.54 0 0 1-10 44l-37 11.5c-20.065 5.276-40.399 6.776-61 4.5 10.518-16.519 22.185-32.185 35-47 4.831 2.5 9.998 3.833 15.5 4 20.257-2.143 39.423-7.809 57.5-17z"/><path fill="#689a2d" d="M39.5 184.5c11.451 10.437 24.451 18.437 39 24h1c5.267 17.469 10.934 34.802 17 52-18.534-3.438-35.534-10.438-51-21l-1-2c-2.912-17.54-4.578-35.207-5-53z"/><path fill="#55682a" d="M361.5 192.5c-.883 23.069-4.216 45.736-10 68-19.696 15.86-41.363 28.693-65 38.5-8.552 2.244-16.885 4.744-25 7.5v-2a1462.61 1462.61 0 0 1 6-61c15.169-1.21 29.503-5.377 43-12.5 18.578-10.744 35.578-23.578 51-38.5z"/><path fill="#738e32" d="M16.5 209.5c.802 1.452 1.302 3.118 1.5 5 7.819 8.996 16.652 16.663 26.5 23l1 2a395.6 395.6 0 0 0 20 64c-11.38-6.016-22.046-13.016-32-21-9.088-23.423-14.755-47.756-17-73z"/><path fill="#698d31" d="M481.5 223.5a296.64 296.64 0 0 1-20 51c-20.607 8.048-41.94 13.214-64 15.5-15.124 1.443-29.79-.39-44-5.5v-1l29-44h1c20.601 2.276 40.935.776 61-4.5l37-11.5z" opacity=".998"/><path fill="#43591e" d="M178.5 233.5c5.598 20.57 9.598 41.57 12 63-.768-.763-1.268-1.763-1.5-3a318.81 318.81 0 0 1-26 58 243.63 243.63 0 0 1-16 21c-1.011.837-2.178 1.17-3.5 1-6.839-19.344-14.506-38.344-23-57a82.93 82.93 0 0 0 9-6.5c21.773-21.955 38.106-47.455 49-76.5z" opacity=".995"/><path fill="#689a2d" d="M201.5 233.5c3.927 9.187 8.427 18.187 13.5 27 11.479 18.981 26.979 33.648 46.5 44v2c-1.076 20.093-3.076 40.093-6 60-11.895-7.726-22.062-17.392-30.5-29-10.196-14.396-19.363-29.396-27.5-45-.427-19.938.907-39.604 4-59z" opacity=".992"/><path fill="#87ac3f" d="M45.5 239.5c15.466 10.562 32.466 17.562 51 21 7.114 18.895 14.781 37.561 23 56-7.388.247-14.721-.253-22-1.5a188.54 188.54 0 0 1-31-10.5c0-.667-.333-1-1-1a395.6 395.6 0 0 1-20-64z"/><path fill="#43591e" d="M351.5 260.5v2a512.58 512.58 0 0 1-18 54c-17.82 16.984-37.486 31.484-59 43.5-6.118 2.873-12.452 5.039-19 6.5 2.924-19.907 4.924-39.907 6-60 8.115-2.756 16.448-5.256 25-7.5 23.637-9.807 45.304-22.64 65-38.5z"/><path fill="#6d972b" d="M351.5 262.5l2 21v1l-20 34v-2a512.58 512.58 0 0 0 18-54z"/><path fill="#617c2c" d="M461.5 274.5c-10.01 20.712-22.01 40.045-36 58-26.399 8.026-53.399 11.193-81 9.5a72.48 72.48 0 0 1-20-3.5l9-20 20-34c14.21 5.11 28.876 6.943 44 5.5 22.06-2.286 43.393-7.452 64-15.5z"/><path fill="#557d22" d="M33.5 282.5c9.954 7.984 20.62 14.984 32 21 .667 0 1 .333 1 1 8.728 19.129 18.728 37.462 30 55-14.422-7.197-27.755-15.864-40-26-9.573-16.146-17.24-33.146-23-51z"/><path fill="#55672a" d="M190.5 296.5a510.52 510.52 0 0 1 1 72c-5.92 14.504-13.42 28.17-22.5 41-3.396 3.565-6.896 6.898-10.5 10h-1c-3.864-15.258-8.531-30.258-14-45v-1c1.322.17 2.489-.163 3.5-1a243.63 243.63 0 0 0 16-21 318.81 318.81 0 0 0 26-58c.232 1.237.732 2.237 1.5 3z" opacity=".993"/><path fill="#87ac3f" d="M197.5 292.5c8.137 15.604 17.304 30.604 27.5 45 8.438 11.608 18.605 21.274 30.5 29l-8 46h-1c-7.281-3.901-13.781-8.901-19.5-15-7.147-9.298-13.647-18.965-19.5-29-5.624-24.992-8.958-50.325-10-76z"/><path fill="#689a2d" d="M66.5 304.5a188.54 188.54 0 0 0 31 10.5c7.279 1.247 14.612 1.747 22 1.5h1c8.494 18.656 16.161 37.656 23 57v1a126.51 126.51 0 0 1-45-14l-2-1c-11.272-17.538-21.272-35.871-30-55z"/><path fill="#55682a" d="M333.5 316.5v2l-9 20c-7.651 16.642-16.318 32.642-26 48a.91.91 0 0 0-.5-1c-11.062 9.454-23.228 17.287-36.5 23.5a53.93 53.93 0 0 1-14 3.5l8-46c6.548-1.461 12.882-3.627 19-6.5 21.514-12.016 41.18-26.516 59-43.5z"/><path fill="#698d31" d="M425.5 332.5c-10.804 16.148-23.471 30.814-38 44a253.91 253.91 0 0 1-78.5 18l-11.5-.5c-.916-.278-1.582-.778-2-1.5l3-6c9.682-15.358 18.349-31.358 26-48a72.48 72.48 0 0 0 20 3.5c27.601 1.693 54.601-1.474 81-9.5z" opacity=".997"/><path fill="#738e32" d="M56.5 333.5c12.245 10.136 25.578 18.803 40 26l2 1c13.071 20.418 28.071 39.418 45 57-14.832-3.918-28.499-10.251-41-19a371.59 371.59 0 0 1-46-65z"/><path fill="#87ac3f" d="M98.5 360.5a126.51 126.51 0 0 0 45 14c5.469 14.742 10.136 29.742 14 45a61.26 61.26 0 0 1-13-1c0-.667-.333-1-1-1-16.929-17.582-31.929-36.582-45-57z"/><path fill="#43581e" d="M191.5 368.5c-1.722 37.889-7.222 75.222-16.5 112-1.616 1.301-3.116 1.301-4.5 0-1.377-14.931-4.044-29.598-8-44a314.59 314.59 0 0 0-4-17c3.604-3.102 7.104-6.435 10.5-10 9.08-12.83 16.58-26.496 22.5-41z" opacity=".976"/><path fill="#679b2d" d="M207.5 368.5c5.853 10.035 12.353 19.702 19.5 29 5.719 6.099 12.219 11.099 19.5 15-3.425 18.032-8.258 35.699-14.5 53-.716 2.379-1.883 4.379-3.5 6 1.092-9.698.592-19.365-1.5-29l-14-49a239.17 239.17 0 0 1-5.5-25z" opacity=".968"/><path fill="#617c2c" d="M387.5 376.5a397.61 397.61 0 0 1-57 49c-11.481 3.286-23.148 5.786-35 7.5-9.352.651-18.686.484-28-.5l28-40c.418.722 1.084 1.222 2 1.5l11.5.5a253.91 253.91 0 0 0 78.5-18z"/><path fill="#43591e" d="M298.5 386.5l-3 6-28 40a709.27 709.27 0 0 1-31.5 39c-1.678 2.166-3.845 3.499-6.5 4-.734-1.208-1.067-2.541-1-4 1.617-1.621 2.784-3.621 3.5-6 6.242-17.301 11.075-34.968 14.5-53h1a53.93 53.93 0 0 0 14-3.5c13.272-6.213 25.438-14.046 36.5-23.5a.91.91 0 0 1 .5 1z" opacity=".999"/><path fill="#567d22" d="M102.5 398.5c12.501 8.749 26.168 15.082 41 19 .667 0 1 .333 1 1a229.51 229.51 0 0 0 18 18c3.956 14.402 6.623 29.069 8 44-4.04-8.402-8.874-16.402-14.5-24a940.18 940.18 0 0 0-36-37c-6.422-6.581-12.255-13.581-17.5-21z"/><path fill="#67992c" d="M144.5 418.5a61.26 61.26 0 0 0 13 1h1a314.59 314.59 0 0 1 4 17 229.51 229.51 0 0 1-18-18z"/><path fill="#698d31" d="M330.5 425.5c-30.302 21.835-62.636 40.669-97 56.5-6.187.965-7.52-1.201-4-6.5 2.655-.501 4.822-1.834 6.5-4a709.27 709.27 0 0 0 31.5-39c9.314.984 18.648 1.151 28 .5 11.852-1.714 23.519-4.214 35-7.5z" opacity=".983"/></svg>