<?xml version="1.0" ?>
<svg height="512" viewBox="0 0 512 512" width="512" xmlns="http://www.w3.org/2000/svg">
  <path d="M84.082,85.902c15.882,-18.558 35.331,8.803 35.331,8.803c21.175,-24.744 36.223,20.284 36.223,20.284s10.588,-12.372 22.959,-1.784c24.744,21.175 16.832,67.986 47.761,94.455c-30.929,-26.47 -75.956,-11.422 -100.698,-32.597c-12.372,-10.588 -1.784,-22.959 -1.784,-22.959s-46.81,-7.912 -25.635,-32.655C98.238,119.449 68.201,104.46 84.082,85.902z" fill="#9BF57D"/>
  <path d="M84.082,85.902c-15.882,18.557 14.156,33.547 14.156,33.547c-21.175,24.743 25.635,32.654 25.635,32.654s-10.588,12.372 1.784,22.959c24.744,21.175 69.77,6.127 100.7,32.597L84.082,85.902z" fill="#8CE16E"/>
  <path d="M427.917,85.902c-15.882,-18.558 -35.331,8.803 -35.331,8.803c-21.175,-24.744 -36.223,20.284 -36.223,20.284s-10.588,-12.372 -22.959,-1.784c-24.744,21.175 -16.832,67.986 -47.761,94.455c30.929,-26.47 75.956,-11.422 100.698,-32.597c12.372,-10.588 1.784,-22.959 1.784,-22.959s46.81,-7.912 25.635,-32.655C413.762,119.449 443.799,104.46 427.917,85.902z" fill="#9BF57D"/>
  <path d="M427.918,85.902c15.882,18.557 -14.156,33.547 -14.156,33.547c21.175,24.743 -25.635,32.654 -25.635,32.654s10.588,12.372 -1.784,22.959c-24.744,21.175 -69.77,6.127 -100.7,32.597L427.918,85.902z" fill="#8CE16E"/>
  <path d="M256,0c26.483,0 17.655,35.31 17.655,35.31c35.31,0 8.828,44.138 8.828,44.138s17.655,0 17.655,17.655c0,35.31 -44.138,61.793 -44.138,105.931c0,-44.138 -44.138,-70.621 -44.138,-105.931c0,-17.655 17.655,-17.655 17.655,-17.655s-26.483,-44.138 8.828,-44.138C238.345,35.31 229.517,0 256,0z" fill="#9BF57D"/>
  <path d="M238.345,35.31c-35.31,0 -8.828,44.138 -8.828,44.138s-17.655,0 -17.655,17.655c0,35.31 44.138,61.793 44.138,105.931V0C229.517,0 238.345,35.31 238.345,35.31z" fill="#8CE16E"/>
  <path d="M256,256c-4.879,0 -8.828,-3.948 -8.828,-8.828V123.586c0,-4.879 3.948,-8.828 8.828,-8.828c4.879,0 8.828,3.948 8.828,8.828v123.586C264.828,252.052 260.879,256 256,256z" fill="#FF556E"/>
  <path d="M350.673,154.422c-2.879,-3.932 -8.388,-4.802 -12.337,-1.922c-11.672,8.522 -61.683,45.932 -82.336,75.316c-20.653,-29.383 -70.665,-66.794 -82.336,-75.316c-3.939,-2.879 -9.465,-2.008 -12.337,1.922c-2.871,3.939 -2.017,9.457 1.922,12.337c33.009,24.113 80.914,65.508 84.077,82.069c0.81,4.233 4.509,7.172 8.664,7.172c0.552,0 1.103,-0.052 1.664,-0.156c3.663,-0.698 6.323,-3.574 6.983,-7.023l0.034,0.007c3.164,-16.561 51.069,-57.956 84.077,-82.069C352.69,163.88 353.543,158.362 350.673,154.422z" fill="#FF6F82"/>
  <path d="M256,247.172c-68.255,0 -123.586,36.732 -123.586,101.258c0,58.891 70.615,86.624 105.074,123.578c6.182,6.628 9.685,15.294 9.685,24.358v6.806c0,4.875 3.953,8.828 8.828,8.828s8.828,-3.953 8.828,-8.828v-6.807c0,-9.064 3.503,-17.728 9.685,-24.358c34.458,-36.953 105.074,-64.686 105.074,-123.577C379.586,283.904 324.255,247.172 256,247.172z" fill="#D74664"/>
  <path d="M340.414,375.362c-1.629,0 -3.284,-0.362 -4.853,-1.129c-5.474,-2.681 -7.733,-9.293 -5.043,-14.767c1.836,-3.733 2.724,-7.345 2.724,-11.034c0,-14.327 -4.948,-26.155 -14.707,-35.155c-4.474,-4.129 -4.759,-11.112 -0.629,-15.595c4.138,-4.474 11.129,-4.759 15.595,-0.629c14.268,13.164 21.811,30.931 21.811,51.379c0,7.034 -1.673,14.026 -4.983,20.759C348.414,373.095 344.491,375.362 340.414,375.362zM291.302,298.069c-0.966,0 -1.94,-0.12 -2.914,-0.388c-3.276,-0.897 -6.63,-1.638 -10.008,-2.241c-6.001,-1.06 -10.008,-6.784 -8.94,-12.785c1.052,-6.008 6.716,-10.087 12.785,-8.94c4.034,0.707 8.043,1.603 11.975,2.673c5.879,1.603 9.345,7.672 7.742,13.551C300.604,294.845 296.156,298.069 291.302,298.069z" fill="#FF556E"/>
  <path d="M263.078,472.008c-19.692,-36.954 -60.043,-64.686 -60.043,-123.577c0,-34.163 8.89,-60.472 23.028,-77.703c3.462,-4.219 3.526,-10.226 0.116,-14.486l0,0c-2.776,-3.47 -7.336,-5.155 -11.647,-4.074c-47.841,12.001 -82.118,45.501 -82.118,96.263c0,58.891 70.616,86.624 105.075,123.578c6.18,6.628 9.684,15.293 9.684,24.356v6.807c0,4.875 3.953,8.828 8.828,8.828s8.828,-3.953 8.828,-8.828v-6.807c0,-2.002 0.178,-3.981 0.519,-5.923c1.09,-6.22 0.736,-12.749 -2.215,-18.332C263.114,472.076 263.095,472.042 263.078,472.008z" fill="#BE3C5A"/>
</svg>
