<?xml version="1.0" ?>
<svg height="512" viewBox="0 0 512.0001 512" width="512.0001" xmlns="http://www.w3.org/2000/svg">
  <path d="m512,236.375c0.059,23.379 -18.84,42.391 -42.219,42.449 -21.961,0.059 -40.063,-16.621 -42.223,-38.02l-39.84,0.211 -14.488,-38.383 -14.23,-37.688 68.352,-0.25c2.047,-21.41 20.059,-38.191 42.02,-38.25 23.379,-0.063 42.379,18.84 42.449,42.219 0.031,13.84 -6.582,26.148 -16.84,33.898 0.031,0.023 0.059,0.051 0.09,0.07 10.25,7.703 16.891,19.941 16.93,33.742zM512,236.375" fill="#ffdba9"/>
  <path d="m512,236.375c0.059,23.379 -18.84,42.391 -42.219,42.449 -21.961,0.059 -40.063,-16.621 -42.223,-38.02l-39.84,0.211 -14.488,-38.383h121.84c10.25,7.703 16.891,19.941 16.93,33.742zM512,236.375" fill="#ffbdad"/>
  <path d="m277.887,111h-130.688v230.027h262.844v-97.871c0,-72.871 -59.285,-132.156 -132.156,-132.156zM277.887,111" fill="#ff3b62"/>
  <path d="m272.309,243.152v97.883h-234.309v-97.883c0,-64.699 52.449,-117.148 117.148,-117.148 64.711,0 117.16,52.449 117.16,117.148zM272.309,243.152" fill="#ff7a53"/>
  <path d="m272.309,243.152v97.883h-117.16v-215.031c64.711,0 117.16,52.449 117.16,117.148zM272.309,243.152" fill="#ff3b62"/>
  <path d="m193.738,219.813c0,21.313 -17.27,38.59 -38.59,38.59 -21.309,0 -38.578,-17.277 -38.578,-38.59 0,-21.309 17.27,-38.59 38.578,-38.59 21.32,0 38.59,17.281 38.59,38.59zM193.738,219.813" fill="#ffdba9"/>
  <path d="m287.309,243.152v97.883h-30v-97.883c0,-56.328 -45.828,-102.148 -102.16,-102.148 -56.32,0 -102.148,45.82 -102.148,102.148v97.883h-30v-97.883c0,-72.867 59.281,-132.148 132.148,-132.148 72.871,0 132.16,59.281 132.16,132.148zM287.309,243.152" fill="#ff9577"/>
  <path d="m193.738,219.813c0,21.313 -17.27,38.59 -38.59,38.59v-77.18c21.32,0 38.59,17.281 38.59,38.59zM193.738,219.813" fill="#ffbdad"/>
  <path d="m287.309,243.152v97.883h-30v-97.883c0,-56.328 -45.828,-102.148 -102.16,-102.148v-30c72.871,0 132.16,59.281 132.16,132.148zM287.309,243.152" fill="#ff738e"/>
  <path d="m512,335.723v14c0,28.672 -23.328,52 -52,52h-408c-28.672,0 -52,-23.328 -52,-52v-14zM512,335.723" fill="#b38a65"/>
  <path d="m512,335.723v14c0,28.672 -23.328,52 -52,52h-204v-66zM512,335.723" fill="#8a6746"/>
</svg>
