<?xml version="1.0" ?>
<svg height="512" viewBox="0 0 512 512" width="512" xmlns="http://www.w3.org/2000/svg">
  <path d="M42.667,42.667L42.667,42.667c0,7.855 -6.367,14.222 -14.222,14.222l0,0C12.735,56.889 0,69.623 0,85.333l0,0c0,15.71 12.735,28.444 28.444,28.444h28.444C96.162,113.778 128,81.94 128,42.667l0,0C128,19.102 108.898,0 85.333,0l0,0C61.769,0 42.667,19.102 42.667,42.667z" fill="#FBF4CC"/>
  <path d="M85.333,0c-4.988,0 -9.772,0.865 -14.222,2.438c16.57,5.858 28.444,21.653 28.444,40.229l0,0c0,39.273 -31.838,71.111 -71.111,71.111h28.444C96.162,113.778 128,81.94 128,42.667l0,0C128,19.102 108.898,0 85.333,0z" fill="#F6E27D"/>
  <path d="M113.778,470.574v-58.129H56.889v58.129c-8.28,2.931 -14.222,10.809 -14.222,20.093C42.667,502.448 52.218,512 64,512s21.333,-9.552 21.333,-21.333c0,-2.497 0,-2.497 0,0c0,11.782 9.552,21.333 21.333,21.333S128,502.448 128,490.667C128,481.382 122.058,473.505 113.778,470.574z" fill="#EDEDED"/>
  <path d="M113.778,470.574v-58.129H99.556v58.129c8.28,2.931 14.222,10.809 14.222,20.093s-5.942,17.162 -14.222,20.093c2.227,0.788 4.614,1.24 7.111,1.24c11.782,0 21.333,-9.552 21.333,-21.333C128,481.382 122.058,473.505 113.778,470.574z" fill="#D8D8DA"/>
  <path d="M455.111,470.574v-58.129h-56.889v58.129c-8.28,2.931 -14.222,10.809 -14.222,20.093c0,11.782 9.552,21.333 21.333,21.333s21.333,-9.552 21.333,-21.333c0,-2.497 0,-2.497 0,0c0,11.782 9.552,21.333 21.333,21.333c11.782,0 21.333,-9.552 21.333,-21.333C469.333,481.382 463.391,473.505 455.111,470.574z" fill="#EDEDED"/>
  <path d="M455.111,470.574v-58.129h-14.222v58.129c8.28,2.931 14.222,10.809 14.222,20.093s-5.942,17.162 -14.222,20.093c2.227,0.788 4.614,1.24 7.111,1.24c11.782,0 21.333,-9.552 21.333,-21.333C469.333,481.382 463.391,473.505 455.111,470.574z" fill="#D8D8DA"/>
  <path d="M469.333,42.667L469.333,42.667c0,7.855 6.367,14.222 14.222,14.222l0,0c15.71,0 28.444,12.735 28.444,28.444l0,0c0,15.71 -12.735,28.444 -28.444,28.444h-28.444C415.838,113.778 384,81.94 384,42.667l0,0C384,19.102 403.102,0 426.667,0l0,0C450.231,0 469.333,19.102 469.333,42.667z" fill="#F6E27D"/>
  <path d="M483.556,56.889c-7.855,0 -14.222,-6.367 -14.222,-14.222l0,0C469.333,19.102 450.231,0 426.667,0c-4.988,0 -9.772,0.865 -14.222,2.438c16.57,5.858 28.444,21.653 28.444,40.229l0,0c0,7.855 6.367,14.222 14.222,14.222c15.71,0 28.444,12.735 28.444,28.444l0,0c0,15.71 -12.735,28.444 -28.444,28.444h28.444c15.71,0 28.444,-12.735 28.444,-28.444l0,0C512,69.623 499.265,56.889 483.556,56.889z" fill="#EFC27B"/>
  <path d="M341.333,42.667c-33.994,0 -64.485,14.926 -85.333,38.561c-20.848,-23.634 -51.339,-38.561 -85.333,-38.561c-62.838,0 -113.778,71.111 -113.778,199.111L128,412.444h1.003h41.664c33.994,0 64.485,-14.926 85.333,-38.561c20.848,23.635 51.339,38.561 85.333,38.561h0.001h41.664l72.112,-170.667C455.111,113.778 404.17,42.667 341.333,42.667z" fill="#F6E27D"/>
  <path d="M426.667,241.778h28.444c0,-128 -50.941,-199.111 -113.778,-199.111c-5.249,0 -10.416,0.358 -15.475,1.047C382.586,52.884 426.667,122.712 426.667,241.778z" fill="#EFC27B"/>
  <path d="M256,309.333c-5.891,0 -10.667,-4.776 -10.667,-10.667V156.444c0,-5.891 4.776,-10.667 10.667,-10.667c5.892,0 10.667,4.776 10.667,10.667v142.222C266.667,304.558 261.892,309.333 256,309.333z" fill="#EFC27B"/>
  <path d="M341.333,312.889c0,56.889 42.667,56.889 42.667,113.778h85.333c0,-56.889 42.667,-56.889 42.667,-113.778c0,-47.128 -38.205,-85.333 -85.333,-85.333S341.333,265.761 341.333,312.889L341.333,312.889z" fill="#F8E99B"/>
  <path d="M426.667,227.556c-4.848,0 -9.594,0.425 -14.222,1.203c40.356,6.774 71.111,41.85 71.111,84.13c0,56.889 -42.667,56.889 -42.667,113.778h28.444c0,-56.889 42.667,-56.889 42.667,-113.778C512,265.761 473.795,227.556 426.667,227.556z" fill="#F6E27D"/>
  <path d="M0,312.889c0,56.889 42.667,56.889 42.667,113.778H128c0.001,-56.889 42.667,-56.889 42.667,-113.778c0,-47.128 -38.205,-85.333 -85.333,-85.333S0,265.761 0,312.889L0,312.889z" fill="#FBF4CC"/>
  <path d="M85.333,227.556c-4.848,0 -9.594,0.425 -14.222,1.203c40.356,6.774 71.111,41.85 71.111,84.13c0,56.889 -42.665,56.889 -42.667,113.778H128c0.001,-56.889 42.667,-56.889 42.667,-113.778C170.667,265.761 132.462,227.556 85.333,227.556z" fill="#F8E99B"/>
  <path d="M156.444,103.111c0,-9.803 7.974,-17.778 17.778,-17.778c9.803,0 17.778,7.974 17.778,17.778s-7.974,17.778 -17.778,17.778C164.419,120.889 156.444,112.914 156.444,103.111z" fill="#F8E99B"/>
  <path d="M106.667,152.889c0,-9.803 7.974,-17.778 17.778,-17.778s17.778,7.974 17.778,17.778s-7.974,17.778 -17.778,17.778S106.667,162.692 106.667,152.889z" fill="#F8E99B"/>
  <path d="M170.667,188.444c0,-9.803 7.974,-17.778 17.778,-17.778c9.803,0 17.778,7.974 17.778,17.778c0,9.803 -7.974,17.778 -17.778,17.778C178.641,206.222 170.667,198.248 170.667,188.444z" fill="#F8E99B"/>
  <path d="M305.778,188.444c0,-9.803 7.974,-17.778 17.778,-17.778c9.803,0 17.778,7.974 17.778,17.778c0,9.803 -7.974,17.778 -17.778,17.778C313.752,206.222 305.778,198.248 305.778,188.444z" fill="#F8E99B"/>
  <path d="M291.556,110.222c0,-9.803 7.974,-17.778 17.778,-17.778s17.778,7.974 17.778,17.778S319.137,128 309.333,128S291.556,120.026 291.556,110.222z" fill="#F8E99B"/>
  <path d="M355.556,145.778c0,-9.803 7.974,-17.778 17.778,-17.778s17.778,7.974 17.778,17.778s-7.974,17.778 -17.778,17.778S355.556,155.581 355.556,145.778z" fill="#F8E99B"/>
  <path d="M184.889,344.889c0,-9.803 7.974,-17.778 17.778,-17.778s17.778,7.974 17.778,17.778c0,9.803 -7.974,17.778 -17.778,17.778S184.889,354.692 184.889,344.889z" fill="#F8E99B"/>
  <path d="M284.444,337.778c0,-9.803 7.974,-17.778 17.778,-17.778S320,327.974 320,337.778c0,9.803 -7.974,17.778 -17.778,17.778S284.444,347.581 284.444,337.778z" fill="#F8E99B"/>
  <path d="M376.889,288c0,-9.803 7.974,-17.778 17.778,-17.778c9.803,0 17.778,7.974 17.778,17.778c0,9.803 -7.974,17.778 -17.778,17.778C384.863,305.778 376.889,297.803 376.889,288z" fill="#F6E27D"/>
  <path d="M419.556,337.778c0,-9.803 7.974,-17.778 17.778,-17.778s17.778,7.974 17.778,17.778c0,9.803 -7.974,17.778 -17.778,17.778S419.556,347.581 419.556,337.778z" fill="#F6E27D"/>
  <path d="M28.444,288c0,-9.803 7.974,-17.778 17.778,-17.778S64,278.197 64,288c0,9.803 -7.974,17.778 -17.778,17.778S28.444,297.803 28.444,288z" fill="#F8E99B"/>
  <path d="M71.111,337.778c0,-9.803 7.974,-17.778 17.778,-17.778s17.778,7.974 17.778,17.778c0,9.803 -7.974,17.778 -17.778,17.778S71.111,347.581 71.111,337.778z" fill="#F8E99B"/>
</svg>
