<?xml version="1.0" encoding="UTF-8"?>
<!DOCTYPE svg PUBLIC "-//W3C//DTD SVG 1.1//EN" "http://www.w3.org/Graphics/SVG/1.1/DTD/svg11.dtd">
<svg xmlns="http://www.w3.org/2000/svg" version="1.1" width="512px" height="512px" style="shape-rendering:geometricPrecision; text-rendering:geometricPrecision; image-rendering:optimizeQuality; fill-rule:evenodd; clip-rule:evenodd" xmlns:xlink="http://www.w3.org/1999/xlink">
<g><path style="opacity:0.985" fill="#fbce3e" d="M 145.5,-0.5 C 161.167,-0.5 176.833,-0.5 192.5,-0.5C 192.5,16.8333 192.5,34.1667 192.5,51.5C 188.167,51.5 183.833,51.5 179.5,51.5C 169.985,51.1731 160.652,51.5064 151.5,52.5C 145.216,52.3754 141.049,49.3754 139,43.5C 138.078,30.4434 138.411,17.4434 140,4.5C 141.73,2.59809 143.563,0.93142 145.5,-0.5 Z"/></g>
<g><path style="opacity:1" fill="#efc03c" d="M 192.5,-0.5 C 209.833,-0.5 227.167,-0.5 244.5,-0.5C 246.807,0.977392 248.64,2.97739 250,5.5C 250.667,18.8333 250.667,32.1667 250,45.5C 247.525,49.9906 243.692,52.324 238.5,52.5C 223.342,51.5038 208.009,51.1705 192.5,51.5C 192.5,34.1667 192.5,16.8333 192.5,-0.5 Z"/></g>
<g><path style="opacity:0.989" fill="#deece6" d="M 179.5,51.5 C 179.228,67.5284 179.561,83.5284 180.5,99.5C 170.5,99.5 160.5,99.5 150.5,99.5C 151.086,83.84 151.419,68.1733 151.5,52.5C 160.652,51.5064 169.985,51.1731 179.5,51.5 Z"/></g>
<g><path style="opacity:1" fill="#d7deda" d="M 179.5,51.5 C 183.833,51.5 188.167,51.5 192.5,51.5C 208.009,51.1705 223.342,51.5038 238.5,52.5C 238.262,68.5212 238.596,84.5212 239.5,100.5C 219.833,100.5 200.167,100.5 180.5,100.5C 170.5,100.5 160.5,100.5 150.5,100.5C 150.5,100.167 150.5,99.8333 150.5,99.5C 160.5,99.5 170.5,99.5 180.5,99.5C 179.561,83.5284 179.228,67.5284 179.5,51.5 Z"/></g>
<g><path style="opacity:1" fill="#fb4e51" d="M 150.5,100.5 C 160.5,100.5 170.5,100.5 180.5,100.5C 181.954,116.506 185.12,132.172 190,147.5C 199.196,170.755 208.196,194.088 217,217.5C 222.777,238.105 225.61,259.105 225.5,280.5C 185.5,280.5 145.5,280.5 105.5,280.5C 105.766,239.101 115.6,200.101 135,163.5C 142.556,142.944 147.723,121.944 150.5,100.5 Z"/></g>
<g><path style="opacity:1" fill="#ea3942" d="M 180.5,100.5 C 200.167,100.5 219.833,100.5 239.5,100.5C 243.452,134.309 253.285,166.309 269,196.5C 279.118,223.59 284.285,251.59 284.5,280.5C 264.833,280.5 245.167,280.5 225.5,280.5C 225.61,259.105 222.777,238.105 217,217.5C 208.196,194.088 199.196,170.755 190,147.5C 185.12,132.172 181.954,116.506 180.5,100.5 Z"/></g>
<g><path style="opacity:1" fill="#fbce3f" d="M 105.5,280.5 C 145.5,280.5 185.5,280.5 225.5,280.5C 225.5,296.167 225.5,311.833 225.5,327.5C 218.9,332.265 213.067,337.931 208,344.5C 204.096,349.642 201.262,355.309 199.5,361.5C 202.167,361.167 204.833,360.833 207.5,360.5C 197.367,377.047 193.534,395.047 196,414.5C 198.578,431.739 204.412,447.739 213.5,462.5C 177.671,463.498 141.671,463.832 105.5,463.5C 105.5,402.5 105.5,341.5 105.5,280.5 Z"/></g>
<g><path style="opacity:1" fill="#eebf3c" d="M 225.5,280.5 C 245.167,280.5 264.833,280.5 284.5,280.5C 284.5,282.833 284.5,285.167 284.5,287.5C 284.5,294.167 284.5,300.833 284.5,307.5C 263.014,308.995 243.347,315.662 225.5,327.5C 225.5,311.833 225.5,296.167 225.5,280.5 Z"/></g>
<g><path style="opacity:1" fill="#a0e456" d="M 284.5,307.5 C 286.989,307.298 289.323,307.798 291.5,309C 311.545,325.378 327.545,345.044 339.5,368C 339.272,368.399 338.938,368.565 338.5,368.5C 335.52,365.856 332.52,363.189 329.5,360.5C 310.269,430.981 291.102,430.981 272,360.5C 263.464,368.705 254.631,376.538 245.5,384C 243.866,384.494 242.199,384.66 240.5,384.5C 240.961,370.652 243.961,357.319 249.5,344.5C 248.635,343.417 247.635,343.251 246.5,344C 233.705,350.066 220.705,355.566 207.5,360.5C 204.833,360.833 202.167,361.167 199.5,361.5C 201.262,355.309 204.096,349.642 208,344.5C 213.067,337.931 218.9,332.265 225.5,327.5C 243.347,315.662 263.014,308.995 284.5,307.5 Z"/></g>
<g><path style="opacity:1" fill="#93cc4a" d="M 395.5,361.5 C 395.5,360.833 395.167,360.5 394.5,360.5C 380.393,355.531 366.559,349.864 353,343.5C 355.502,352.696 357.836,362.03 360,371.5C 360.499,376.155 360.666,380.821 360.5,385.5C 353.39,382.405 347.057,378.072 341.5,372.5C 340.5,371.167 339.5,369.833 338.5,368.5C 338.938,368.565 339.272,368.399 339.5,368C 327.545,345.044 311.545,325.378 291.5,309C 289.323,307.798 286.989,307.298 284.5,307.5C 284.5,300.833 284.5,294.167 284.5,287.5C 292.254,270.447 305.588,262.28 324.5,263C 330.663,267.184 330.996,271.851 325.5,277C 308.081,279.25 298.748,289.084 297.5,306.5C 327.181,304.834 354.181,312.334 378.5,329C 389.643,337.646 397.976,348.48 403.5,361.5C 400.911,362.205 398.244,362.205 395.5,361.5 Z"/></g>
<g><path style="opacity:1" fill="#ea3942" d="M 394.5,360.5 C 395.167,360.5 395.5,360.833 395.5,361.5C 407.855,385.621 409.688,410.621 401,436.5C 386.043,477.698 357.21,502.698 314.5,511.5C 305.167,511.5 295.833,511.5 286.5,511.5C 281.471,509.016 276.471,509.016 271.5,511.5C 251.5,511.5 231.5,511.5 211.5,511.5C 217.125,509.587 221.292,505.921 224,500.5C 225.231,492.911 225.897,485.244 226,477.5C 238.373,491.19 253.373,500.856 271,506.5C 311.964,491.863 336.964,463.196 346,420.5C 349.012,404.014 347.512,388.014 341.5,372.5C 347.057,378.072 353.39,382.405 360.5,385.5C 360.666,380.821 360.499,376.155 360,371.5C 357.836,362.03 355.502,352.696 353,343.5C 366.559,349.864 380.393,355.531 394.5,360.5 Z"/></g>
<g><path style="opacity:1" fill="#fb4e51" d="M 338.5,368.5 C 339.5,369.833 340.5,371.167 341.5,372.5C 347.512,388.014 349.012,404.014 346,420.5C 336.964,463.196 311.964,491.863 271,506.5C 253.373,500.856 238.373,491.19 226,477.5C 225.897,485.244 225.231,492.911 224,500.5C 221.292,505.921 217.125,509.587 211.5,511.5C 180.167,511.5 148.833,511.5 117.5,511.5C 114.979,509.981 112.479,508.314 110,506.5C 108.414,504.33 107.08,501.996 106,499.5C 105.5,487.838 105.333,476.171 105.5,464.5C 141.839,464.833 178.173,464.5 214.5,463.5C 214.376,462.893 214.043,462.56 213.5,462.5C 204.412,447.739 198.578,431.739 196,414.5C 193.534,395.047 197.367,377.047 207.5,360.5C 220.705,355.566 233.705,350.066 246.5,344C 247.635,343.251 248.635,343.417 249.5,344.5C 243.961,357.319 240.961,370.652 240.5,384.5C 242.199,384.66 243.866,384.494 245.5,384C 254.631,376.538 263.464,368.705 272,360.5C 291.102,430.981 310.269,430.981 329.5,360.5C 332.52,363.189 335.52,365.856 338.5,368.5 Z"/></g>
<g><path style="opacity:1" fill="#fc9746" d="M 213.5,462.5 C 214.043,462.56 214.376,462.893 214.5,463.5C 178.173,464.5 141.839,464.833 105.5,464.5C 105.5,464.167 105.5,463.833 105.5,463.5C 141.671,463.832 177.671,463.498 213.5,462.5 Z"/></g>
</svg>
