<?xml version="1.0" ?>
<svg height="511" viewBox="0 0 511.9998 511" width="511.9998" xmlns="http://www.w3.org/2000/svg">
  <path d="m174.398,275.492c4.797,-3.918 15.586,-11.902 29.387,-17.164 -4.855,-16.434 -4.391,-34.066 -0.043,-50.848 -10.816,-1.414 -22.961,-1.633 -36.641,-0.316 -0.004,0.004 -0.004,0.004 -0.004,0.008 -6.121,23.371 -4.594,47.492 7.301,68.32zM174.398,275.492" fill="#fdbd40"/>
  <path d="m227.289,304.609c70.313,-11.012 121.242,-45.203 121.242,-102.574 0,-71.004 -77.992,-144.535 -174.199,-144.535 -165.43,0 -266.648,213.645 -52.961,247.105 3.457,0.543 6.199,3.242 6.766,6.691 6.879,41.816 -3.227,77.234 -10.848,96.395 -2.926,7.352 2.492,15.328 10.406,15.328h93.27c7.914,0 13.332,-7.977 10.406,-15.328 -7.621,-19.16 -17.723,-54.578 -10.848,-96.395 0.566,-3.449 3.313,-6.148 6.766,-6.688zM227.289,304.609" fill="#ffd782"/>
  <path d="m154.004,407.691c7.621,-19.16 17.727,-54.578 10.852,-96.395 -0.57,-3.449 -3.313,-6.148 -6.77,-6.688 -205.449,-32.176 -119.973,-231.078 34.602,-246.207 -6.031,-0.59 -12.156,-0.902 -18.355,-0.902 -165.254,0 -266.871,213.609 -52.961,247.109 3.457,0.539 6.199,3.238 6.77,6.688 6.875,41.816 -3.227,77.234 -10.852,96.395 -2.926,7.352 2.496,15.328 10.406,15.328h36.715c-7.91,0 -13.332,-7.977 -10.406,-15.328zM154.004,407.691" fill="#fdbd40"/>
  <path d="m337.734,243.918c-10.113,-8.262 -47.84,-35.613 -83.34,-16.398 -41.453,22.438 -31.879,79.684 -31.875,79.695 1.223,-1.355 2.883,-2.313 4.77,-2.605 51.078,-8 91.914,-28.234 110.445,-60.691zM337.734,243.918" fill="#fdbd40"/>
  <path d="m121.371,304.609c1.672,0.258 3.168,1.035 4.34,2.145 0.789,-5.422 7.352,-57.965 -31.949,-79.234 -35.109,-19.008 -72.395,7.539 -82.992,16.117 18.453,32.625 59.383,52.949 110.602,60.973zM121.371,304.609" fill="#fdbd40"/>
  <path d="m121.371,304.609c1.672,0.258 3.168,1.035 4.34,2.145 0.168,-1.148 0.594,-4.414 0.785,-9.055 -43.941,-12.672 -76.199,-36.469 -86.305,-71.383 -13.676,5.375 -24.465,13.309 -29.422,17.32 18.453,32.625 59.379,52.949 110.602,60.973zM121.371,304.609" fill="#f2aa2a"/>
  <path d="m254.395,227.52c35.5,-19.215 73.227,8.137 83.34,16.398 6.98,-12.227 10.797,-26.188 10.797,-41.883 0,-8.828 -1.207,-17.691 -3.5,-26.449 -130.945,-12.574 -123.406,113.52 -123.406,113.531 0.637,-18.75 6.297,-47.27 32.77,-61.598zM254.395,227.52" fill="#ffd782"/>
  <path d="m10.93,243.918c-12.051,-21.109 -13.313,-45.379 -7.297,-68.332 130.941,-12.574 122.898,113.531 122.898,113.531 -2.145,-63.309 -61.184,-89.652 -115.602,-45.199zM10.93,243.918" fill="#ffd782"/>
  <path d="m10.93,243.918c4.801,-3.922 15.586,-11.906 29.387,-17.164 -4.855,-16.438 -4.391,-34.066 -0.043,-50.852 -10.816,-1.41 -22.957,-1.629 -36.641,-0.316 0,0.004 -0.004,0.008 -0.004,0.012 -6.121,23.371 -4.59,47.492 7.301,68.32zM10.93,243.918" fill="#fdbd40"/>
  <path d="m126.598,307.734 l-2.867,-21.945c-2.988,-22.859 -26.602,-37.258 -48.078,-28.871 -10.918,4.262 -21.391,11.324 -28.008,22.941 0.004,0.004 0.008,0.008 0.012,0.008 21.895,13.172 48.375,20.77 73.715,24.738 0.387,0.063 0.758,0.156 1.121,0.27 1.707,0.523 3.012,1.492 4.105,2.859zM126.598,307.734" fill="#f2aa2a"/>
  <path d="m125.234,297.32c-25.438,-7.5 -46.891,-18.758 -62.285,-33.793 -5.992,4.066 -11.34,9.375 -15.301,16.324 21.934,13.203 48.426,20.797 73.723,24.758 1.688,0.262 3.227,1.082 4.34,2.145 0.078,-0.551 0.219,-1.594 0.363,-3.023zM125.234,297.32" fill="#e29024"/>
  <path d="m273.395,256.918c-21.477,-8.383 -45.086,6.012 -48.074,28.871l-2.801,21.426c1.223,-1.355 2.883,-2.313 4.77,-2.605 28.582,-4.477 53.957,-12.781 74.016,-24.918 -6.621,-11.512 -17.047,-18.531 -27.91,-22.773zM273.395,256.918" fill="#f2aa2a"/>
  <path d="m390.758,336.184c70.313,-11.012 121.242,-45.199 121.242,-102.574 0,-71 -77.992,-144.535 -174.203,-144.535 -165.43,0 -266.645,213.645 -52.957,247.109 3.453,0.539 6.199,3.238 6.766,6.688 6.875,41.816 -3.227,77.238 -10.852,96.398 -2.922,7.352 2.496,15.324 10.41,15.324h93.27c7.914,0 13.332,-7.977 10.406,-15.324 -7.621,-19.16 -17.727,-54.582 -10.848,-96.398 0.566,-3.449 3.313,-6.145 6.766,-6.688zM390.758,336.184" fill="#ffd782"/>
  <path d="m174.398,275.492c-12.051,-21.105 -13.316,-45.375 -7.297,-68.328 130.941,-12.574 122.898,113.531 122.898,113.531 -2.145,-63.313 -61.184,-89.656 -115.602,-45.203zM174.398,275.492" fill="#ffd782"/>
  <path d="m317.473,439.27c7.621,-19.16 17.723,-54.578 10.848,-96.395 -0.566,-3.453 -3.309,-6.148 -6.766,-6.691 -205.449,-32.172 -119.973,-231.078 34.602,-246.207 -6.031,-0.59 -12.156,-0.898 -18.355,-0.898 -165.254,0 -266.871,213.609 -52.961,247.105 3.457,0.543 6.199,3.238 6.766,6.691 6.879,41.816 -3.227,77.234 -10.848,96.395 -2.926,7.352 2.492,15.324 10.406,15.324h36.715c-7.914,0 -13.332,-7.973 -10.406,-15.324zM317.473,439.27" fill="#fdbd40"/>
  <path d="m501.199,275.492c-10.113,-8.262 -47.836,-35.613 -83.336,-16.398 -41.453,22.438 -31.879,79.684 -31.879,79.695 1.223,-1.355 2.883,-2.309 4.773,-2.605 51.074,-8 91.914,-28.23 110.441,-60.691zM501.199,275.492" fill="#fdbd40"/>
  <path d="m284.84,336.184c1.672,0.262 3.164,1.035 4.34,2.145 0.789,-5.418 7.348,-57.965 -31.949,-79.234 -35.113,-19.004 -72.398,7.543 -82.992,16.117 18.453,32.625 59.379,52.953 110.602,60.973zM284.84,336.184" fill="#fdbd40"/>
  <path d="m284.84,336.184c1.672,0.262 3.164,1.035 4.34,2.145 0.168,-1.148 0.59,-4.414 0.785,-9.055 -43.941,-12.672 -76.199,-36.469 -86.305,-71.383 -13.676,5.375 -24.469,13.313 -29.422,17.324 18.453,32.621 59.379,52.949 110.602,60.969zM284.84,336.184" fill="#f2aa2a"/>
  <path d="m417.863,259.094c35.5,-19.215 73.223,8.137 83.336,16.398 6.98,-12.227 10.801,-26.184 10.801,-41.883 0,-8.824 -1.207,-17.691 -3.504,-26.449 -130.941,-12.57 -123.406,113.52 -123.402,113.531 0.637,-18.746 6.297,-47.27 32.77,-61.598zM417.863,259.094" fill="#ffd782"/>
  <path d="m290.063,339.313 l-2.867,-21.945c-2.988,-22.859 -26.598,-37.258 -48.074,-28.875 -10.918,4.266 -21.395,11.328 -28.012,22.945 0.004,0 0.008,0.004 0.012,0.008 21.898,13.172 48.379,20.77 73.719,24.738 0.383,0.059 0.758,0.156 1.121,0.266 1.703,0.523 3.012,1.496 4.102,2.863zM290.063,339.313" fill="#f2aa2a"/>
  <path d="m288.703,328.898c-25.441,-7.5 -46.895,-18.762 -62.289,-33.793 -5.992,4.063 -11.336,9.375 -15.297,16.324 21.93,13.203 48.426,20.793 73.723,24.754 1.684,0.266 3.227,1.082 4.34,2.145 0.078,-0.547 0.219,-1.59 0.359,-3.023zM288.703,328.898" fill="#e29024"/>
  <path d="m436.859,288.496c-21.473,-8.387 -45.086,6.012 -48.074,28.871l-2.801,21.422c1.223,-1.355 2.883,-2.309 4.773,-2.605 28.578,-4.477 53.953,-12.781 74.012,-24.914 -6.621,-11.516 -17.043,-18.535 -27.91,-22.773zM436.859,288.496" fill="#f2aa2a"/>
</svg>
