<?xml version="1.0" ?>
<svg height="511.992" viewBox="0 0 511.992 511.992" width="511.992" xmlns="http://www.w3.org/2000/svg">
  <path d="M424.447,12.104C411.948,-0.38 395.074,-3.763 386.746,4.573L4.578,386.74c-8.328,8.328 -4.953,25.218 7.546,37.718c12.484,12.5 29.374,15.874 37.702,7.547L431.994,49.822C440.322,41.494 436.947,24.603 424.447,12.104z" fill="#cf946b"/>
  <path d="M499.867,87.539c-12.499,-12.5 -29.373,-15.875 -37.701,-7.546L79.997,462.16c-8.328,8.344 -4.953,25.218 7.547,37.718c12.5,12.499 29.374,15.874 37.702,7.546l382.168,-382.183C515.742,116.913 512.367,100.023 499.867,87.539z" fill="#cf946b"/>
  <path d="M376.449,248.456c-4.172,4.156 -4.172,10.905 0,15.077c4.156,4.172 10.922,4.172 15.078,0c4.172,-4.172 4.172,-10.921 0,-15.077C387.371,244.284 380.605,244.284 376.449,248.456z" fill="#E6E9ED"/>
  <path d="M397.777,184.458c-4.172,4.156 -4.172,10.906 0,15.078c4.156,4.172 10.921,4.172 15.077,0c4.172,-4.172 4.172,-10.922 0,-15.078C408.698,180.286 401.934,180.286 397.777,184.458z" fill="#E6E9ED"/>
  <path d="M434.197,109.788c-4.172,-4.172 -10.921,-4.172 -15.093,0c-4.156,4.156 -4.156,10.921 0,15.077c4.172,4.172 10.921,4.172 15.093,0C438.353,120.71 438.353,113.945 434.197,109.788z" fill="#E6E9ED"/>
  <path d="M291.108,237.785c-4.156,4.156 -4.156,10.921 0,15.077c4.172,4.171 10.921,4.171 15.093,0c4.156,-4.156 4.156,-10.921 0,-15.077C302.029,233.613 295.28,233.613 291.108,237.785z" fill="#E6E9ED"/>
  <path d="M248.461,365.788c-4.171,4.156 -4.171,10.921 0,15.077c4.156,4.172 10.922,4.172 15.078,0c4.172,-4.156 4.172,-10.921 0,-15.077C259.383,361.616 252.617,361.616 248.461,365.788z" fill="#E6E9ED"/>
  <path d="M135.543,423.536c4.171,-4.172 4.171,-10.922 0,-15.094c-4.156,-4.155 -10.922,-4.155 -15.078,0c-4.171,4.172 -4.171,10.922 0,15.094C124.621,427.692 131.387,427.692 135.543,423.536z" fill="#E6E9ED"/>
  <path d="M131.121,483.112c-4.156,4.172 -4.156,10.922 0,15.094c4.172,4.156 10.921,4.156 15.093,0c4.156,-4.172 4.156,-10.922 0,-15.094C142.042,478.956 135.293,478.956 131.121,483.112z" fill="#E6E9ED"/>
  <path d="M195.119,387.115c-4.156,4.172 -4.156,10.922 0,15.078c4.172,4.172 10.921,4.172 15.093,0c4.156,-4.156 4.156,-10.906 0,-15.078C206.04,382.943 199.291,382.943 195.119,387.115z" fill="#E6E9ED"/>
  <path d="M291.108,280.446c-4.156,4.172 -4.156,10.922 0,15.094c4.172,4.156 10.921,4.156 15.093,0c4.156,-4.172 4.156,-10.922 0,-15.094C302.029,276.29 295.28,276.29 291.108,280.446z" fill="#E6E9ED"/>
  <path d="M227.118,301.79c-4.156,4.156 -4.156,10.922 0,15.077c4.172,4.172 10.921,4.172 15.093,0c4.156,-4.155 4.156,-10.921 0,-15.077C238.039,297.618 231.29,297.618 227.118,301.79z" fill="#E6E9ED"/>
  <path d="M24.468,355.116c-4.171,4.172 -4.171,10.922 0,15.094c4.156,4.156 10.922,4.156 15.078,0c4.171,-4.172 4.171,-10.922 0,-15.094C35.39,350.96 28.624,350.96 24.468,355.116z" fill="#E6E9ED"/>
  <path d="M77.794,301.79c-4.172,4.156 -4.172,10.922 0,15.077c4.156,4.172 10.921,4.172 15.078,0c4.172,-4.155 4.172,-10.921 0,-15.077C88.716,297.618 81.951,297.618 77.794,301.79z" fill="#E6E9ED"/>
  <path d="M380.855,114.21c4.172,-4.172 4.172,-10.922 0,-15.094c-4.156,-4.156 -10.922,-4.156 -15.078,0c-4.172,4.172 -4.172,10.922 0,15.094C369.934,118.366 376.699,118.366 380.855,114.21z" fill="#E6E9ED"/>
  <path d="M344.45,35.119c-4.171,4.172 -4.171,10.922 0,15.094c4.156,4.156 10.922,4.156 15.078,0c4.171,-4.172 4.171,-10.922 0,-15.094C355.372,30.962 348.606,30.962 344.45,35.119z" fill="#E6E9ED"/>
  <path d="M301.779,131.116c-4.172,4.172 -4.172,10.922 0,15.094c4.156,4.156 10.922,4.156 15.078,0c4.172,-4.172 4.172,-10.922 0,-15.094C312.701,126.959 305.935,126.959 301.779,131.116z" fill="#E6E9ED"/>
  <path d="M163.12,259.111c-4.156,4.172 -4.156,10.922 0,15.102c4.172,4.155 10.921,4.155 15.093,0c4.156,-4.18 4.156,-10.93 0,-15.102C174.041,254.955 167.292,254.955 163.12,259.111z" fill="#E6E9ED"/>
  <path d="M141.792,323.117c-4.172,4.172 -4.172,10.922 0,15.094c4.156,4.155 10.921,4.155 15.078,0c4.172,-4.172 4.172,-10.922 0,-15.094C152.714,318.961 145.949,318.961 141.792,323.117z" fill="#E6E9ED"/>
  <path d="M77.794,387.115c-4.172,4.172 -4.172,10.922 0,15.078c4.156,4.172 10.921,4.172 15.078,0c4.172,-4.156 4.172,-10.906 0,-15.078C88.716,382.943 81.951,382.943 77.794,387.115z" fill="#E6E9ED"/>
  <path d="M231.54,178.208c4.171,-4.172 4.171,-10.922 0,-15.094c-4.156,-4.156 -10.922,-4.156 -15.078,0c-4.171,4.172 -4.171,10.922 0,15.094C220.618,182.364 227.384,182.364 231.54,178.208z" fill="#E6E9ED"/>
  <path d="M227.056,237.847c-4.125,4.203 -4.062,10.953 0.125,15.077c4.203,4.14 10.968,4.078 15.093,-0.125s4.062,-10.952 -0.125,-15.077C237.946,233.581 231.181,233.644 227.056,237.847z" fill="#E6E9ED"/>
</svg>
