<?xml version="1.0" ?>
<svg height="55.311" viewBox="0 0 55.311 55.311" width="55.311" xmlns="http://www.w3.org/2000/svg">
  <path d="M18.833,32.412c-0.658,0.648 -1.312,1.286 -1.959,1.904c-0.792,0.757 -1.666,1.415 -2.597,1.994c-2.619,1.628 -9.232,6.259 -11.382,9.08c-1.753,2.301 -0.594,3.726 0.542,4.477c0.408,0.27 0.787,0.578 1.131,0.921c0.343,0.344 0.651,0.723 0.921,1.131c0.751,1.135 2.177,2.294 4.477,0.542c2.821,-2.149 7.452,-8.763 9.08,-11.382c0.578,-0.93 1.237,-1.804 1.994,-2.597c0.605,-0.634 1.233,-1.273 1.871,-1.914L18.833,32.412z" fill="#D2D5D7"/>
  <path d="M22.911,36.568C35.293,24.12 53.19,10.652 53.19,10.652l-7.778,-7.778c0,0 -14.078,17.221 -26.579,29.538L22.911,36.568z" fill="#659C35"/>
  <path d="M25.235,38.937c0.105,-0.123 0.191,-0.262 0.302,-0.381c12.224,-13.071 29.774,-21.541 29.774,-21.541l-4.522,-4.522c-5.287,4.098 -18.249,14.392 -27.879,24.074L25.235,38.937z" fill="#88C057"/>
  <path d="M22.909,36.567c-0.639,0.642 -1.263,1.281 -1.869,1.916c-0.757,0.792 -1.415,1.666 -1.994,2.597c-1.58,2.542 -5.984,8.834 -8.822,11.168l0.692,0.677c1.183,1.567 3.201,3.319 5.627,1.691c2.975,-1.995 5.737,-10.479 7.138,-13.324c0.424,-0.862 0.95,-1.642 1.554,-2.354L22.909,36.567z" fill="#EFEFEF"/>
  <path d="M16.522,30.057c-0.759,0.675 -1.61,1.246 -2.547,1.707c-2.846,1.401 -11.329,4.163 -13.324,7.138c-1.627,2.426 0.124,4.443 1.691,5.627l0.699,0.684c2.278,-2.834 8.67,-7.309 11.236,-8.904c0.93,-0.578 1.804,-1.237 2.597,-1.994c0.647,-0.618 1.302,-1.254 1.96,-1.903L16.522,30.057z" fill="#E6E6E6"/>
  <path d="M18.834,32.413c9.72,-9.577 20.388,-22.114 24.655,-27.22l-5.148,-5.148c0,0 -8.56,17.64 -21.631,29.864c-0.058,0.054 -0.128,0.096 -0.187,0.148L18.834,32.413z" fill="#436B1C"/>
  <path d="M8,51.266c-0.256,0 -0.512,-0.098 -0.707,-0.293l-3,-3c-0.391,-0.391 -0.391,-1.023 0,-1.414s1.023,-0.391 1.414,0l3,3c0.391,0.391 0.391,1.023 0,1.414C8.512,51.169 8.256,51.266 8,51.266z" fill="#FFFFFF"/>
  <path d="M4,42.266c-0.256,0 -0.512,-0.098 -0.707,-0.293l-1,-1c-0.391,-0.391 -0.391,-1.023 0,-1.414s1.023,-0.391 1.414,0l1,1c0.391,0.391 0.391,1.023 0,1.414C4.512,42.169 4.256,42.266 4,42.266z" fill="#FFFFFF"/>
  <path d="M15,53.266c-0.256,0 -0.512,-0.098 -0.707,-0.293l-1,-1c-0.391,-0.391 -0.391,-1.023 0,-1.414s1.023,-0.391 1.414,0l1,1c0.391,0.391 0.391,1.023 0,1.414C15.512,53.169 15.256,53.266 15,53.266z" fill="#FFFFFF"/>
  <path d="M21.569,35.201l28.085,-28.085l-1.414,-1.414l-28.071,28.071z" fill="#88C057"/>
  <path d="M25.612,40.643c-0.256,0 -0.512,-0.098 -0.707,-0.293l-9.899,-9.899c-0.391,-0.391 -0.391,-1.023 0,-1.414s1.023,-0.391 1.414,0l9.899,9.899c0.391,0.391 0.391,1.023 0,1.414C26.124,40.545 25.868,40.643 25.612,40.643z" fill="#A46F3E"/>
  <path d="M23.491,42.764c-0.256,0 -0.512,-0.098 -0.707,-0.293l-9.899,-9.899c-0.391,-0.391 -0.391,-1.023 0,-1.414s1.023,-0.391 1.414,0l9.899,9.899c0.391,0.391 0.391,1.023 0,1.414C24.003,42.667 23.747,42.764 23.491,42.764z" fill="#A46F3E"/>
</svg>
