<svg xmlns="http://www.w3.org/2000/svg" width="512" height="512" shape-rendering="geometricPrecision" image-rendering="optimizeQuality" fill-rule="evenodd"><path fill="#ffdb31" d="M187.5 6.5c30.398 9.399 50.065 29.399 59 60 1.464 10.268 2.297 20.602 2.5 31l2.5 116c-36.967-12.318-57.3-37.985-61-77l-3-130z" opacity=".994"/><g fill="#ffb400"><path d="M187.5 6.5l3 130c-21.752-3.712-41.085-12.545-58-26.5-8.181-8.014-16.181-16.181-24-24.5 32.6-2.535 55.767-18.535 69.5-48 3.035-10.498 6.201-20.831 9.5-31z" opacity=".979"/><path d="M246.5 66.5c29.37 9.704 48.704 29.371 58 59-.543.06-.876.393-1 1 2.135 6.479 3.302 13.145 3.5 20l2.5 127c-29.841-9.841-49.174-29.841-58-60l-2.5-116c-.203-10.398-1.036-20.732-2.5-31z" opacity=".992"/></g><g fill="#ffdb31"><path d="M304.5 125.5c29.841 9.841 49.174 29.841 58 60 .304 3.022.804 6.022 1.5 9l3.5 139c-29.832-9.832-49.166-29.832-58-60l-2.5-127c-.198-6.855-1.365-13.521-3.5-20 .124-.607.457-.94 1-1z" opacity=".995"/><path d="M75.5 170.5c22.25 7.076 38.084 21.41 47.5 43 .941 2.654 1.774 5.321 2.5 8 2.663 39.596 4.33 79.262 5 119-.002 3.186-.335 6.186-1 9-23.432-7.597-39.599-22.93-48.5-46-2.263-6.481-3.43-13.148-3.5-20l-2-113z" opacity=".994"/></g><g fill="#ffb400"><path d="M75.5 170.5l2 113c-18.099-3.717-34.432-11.217-49-22.5l-22-22c28.781-2.631 48.947-17.131 60.5-43.5 2.489-8.289 4.822-16.622 7-25 .69-1.238 1.19-1.238 1.5 0z" opacity=".974"/><path d="M362.5 185.5c31.067 10.234 50.567 31.234 58.5 63 1.05 4.948 1.55 9.948 1.5 15l3 130c-29.864-9.864-49.198-29.864-58-60l-3.5-139c-.696-2.978-1.196-5.978-1.5-9zm-237 36c25.878 8.543 42.544 25.877 50 52a2320 2320 0 0 1 5 116c-.001 4.181-.334 8.181-1 12-25.833-8.5-42.499-25.833-50-52 .665-2.814.998-5.814 1-9-.67-39.738-2.337-79.404-5-119z" opacity=".991"/></g><g fill="#ffdb31"><path d="M422.5 263.5c23.158 3.58 43.491 13.08 61 28.5 7.181 7.014 14.181 14.181 21 21.5-31.614 2.538-54.448 17.871-68.5 46-3.831 11.347-7.331 22.681-10.5 34l-3-130z" opacity=".983"/><path d="M175.5 273.5c16.949 4.887 30.449 14.554 40.5 29 4.328 7.527 8.161 15.193 11.5 23-.639.597-.972 1.43-1 2.5a150.71 150.71 0 0 1 1.5 10.5l2.5 115c-25.761-8.761-42.761-26.094-51-52 .666-3.819.999-7.819 1-12a2320 2320 0 0 0-5-116z" opacity=".994"/></g><path fill="#ffb400" d="M227.5 325.5c26.284 8.453 42.784 26.12 49.5 53 1.075 4.27 1.575 8.603 1.5 13l3 112c-.235.597-.735.93-1.5 1-25.134-8.634-41.634-25.634-49.5-51l-2.5-115a150.71 150.71 0 0 0-1.5-10.5c.028-1.07.361-1.903 1-2.5z" opacity=".991"/><path fill="#ffdb31" d="M278.5 391.5c20.562 3.782 38.562 12.615 54 26.5a420.29 420.29 0 0 1 17 17.5c-28.587 2.692-48.753 17.026-60.5 43-2.369 8.497-4.869 16.831-7.5 25l-3-112z" opacity=".983"/></svg>