<?xml version="1.0" ?>
<svg height="512" viewBox="0 0 512 512" width="512" xmlns="http://www.w3.org/2000/svg">
  <path d="M274.343,208.408L76.314,236.696c-0.189,0.028 -0.367,0.076 -0.552,0.108c-0.35,0.059 -0.699,0.126 -1.043,0.203c-0.344,0.077 -0.684,0.163 -1.022,0.257c-0.306,0.086 -0.608,0.177 -0.906,0.275c-0.364,0.119 -0.722,0.247 -1.077,0.386c-0.264,0.102 -0.523,0.211 -0.779,0.323c-0.37,0.161 -0.734,0.334 -1.093,0.517c-0.237,0.121 -0.472,0.248 -0.704,0.377c-0.355,0.197 -0.704,0.406 -1.046,0.625c-0.229,0.146 -0.455,0.299 -0.676,0.455c-0.323,0.225 -0.639,0.458 -0.949,0.701c-0.226,0.179 -0.45,0.363 -0.669,0.55c-0.286,0.244 -0.564,0.498 -0.837,0.759c-0.115,0.109 -0.239,0.206 -0.35,0.317L6.077,301.08c-3.881,3.881 -6.061,9.144 -6.061,14.632c0,5.489 2.18,10.753 6.061,14.633l58.532,58.53c0.001,0.003 0.004,0.004 0.007,0.006l58.524,58.525l58.53,58.532c3.881,3.881 9.144,6.062 14.633,6.062c5.488,0 10.753,-2.18 14.632,-6.062l58.532,-58.532c0.028,-0.026 0.048,-0.057 0.076,-0.083c0.461,-0.466 0.902,-0.956 1.32,-1.465c0.418,-0.51 0.808,-1.039 1.175,-1.584c0.032,-0.051 0.062,-0.106 0.097,-0.157c0.323,-0.494 0.628,-0.999 0.905,-1.518c0.07,-0.13 0.132,-0.265 0.2,-0.396c0.226,-0.446 0.444,-0.895 0.639,-1.355c0.079,-0.185 0.148,-0.375 0.221,-0.563c0.159,-0.411 0.313,-0.826 0.447,-1.247c0.076,-0.239 0.141,-0.483 0.207,-0.726c0.105,-0.377 0.201,-0.756 0.286,-1.14c0.062,-0.284 0.113,-0.571 0.164,-0.859c0.034,-0.206 0.087,-0.406 0.116,-0.615l28.29,-198.028l39.022,-39.023l-29.265,-29.265L274.343,208.408zM49.976,315.713l29.265,-29.265l29.265,29.265l-29.265,29.265L49.976,315.713zM108.506,374.244l29.265,-29.264l29.265,29.264l-29.265,29.265L108.506,374.244zM196.301,462.041l-29.265,-29.267l29.265,-29.265l29.267,29.265L196.301,462.041zM240.2,388.876l-29.267,-29.265l-58.53,-58.53l-29.264,-29.265l136.57,-19.51L240.2,388.876z" fill="#A9A8AE"/>
  <path d="M449.936,0c-16.584,0 -32.175,6.458 -43.899,18.183L298.732,125.487c-3.881,3.881 -6.061,9.144 -6.061,14.632c0,5.489 2.18,10.753 6.061,14.633l14.633,14.632l29.265,29.265l14.631,14.632c4.042,4.041 9.337,6.062 14.633,6.062c5.295,0 10.592,-2.021 14.631,-6.062L493.83,105.977c24.205,-24.206 24.205,-63.592 0,-87.797C482.108,6.456 466.519,0 449.936,0z" fill="#AF2E08"/>
  <path d="M493.833,18.182c-0.181,-0.181 -0.371,-0.349 -0.553,-0.527C481.618,6.27 466.262,0 449.936,0c-16.584,0 -32.175,6.458 -43.899,18.183L298.732,125.487c-3.881,3.881 -6.061,9.144 -6.061,14.632c0,5.488 2.18,10.753 6.061,14.633l14.633,14.633l14.091,14.091l15.174,15.174l14.631,14.632c4.042,4.041 9.337,6.062 14.633,6.062c5.295,0 10.592,-2.021 14.631,-6.062L493.83,105.979C518.037,81.771 518.037,42.386 493.833,18.182z" fill="#A78966"/>
  <path d="M327.456,183.477l-14.091,-14.091l-39.022,39.023L76.314,236.696c-0.189,0.026 -0.367,0.076 -0.552,0.108c-0.35,0.059 -0.699,0.126 -1.043,0.203c-0.344,0.077 -0.684,0.163 -1.022,0.257c-0.306,0.086 -0.607,0.177 -0.906,0.275c-0.364,0.119 -0.722,0.247 -1.077,0.386c-0.264,0.102 -0.523,0.211 -0.779,0.323c-0.37,0.161 -0.734,0.334 -1.093,0.517c-0.237,0.121 -0.472,0.248 -0.704,0.377c-0.355,0.197 -0.704,0.406 -1.046,0.625c-0.229,0.146 -0.455,0.299 -0.676,0.455c-0.323,0.225 -0.639,0.458 -0.949,0.701c-0.226,0.179 -0.45,0.363 -0.669,0.55c-0.286,0.244 -0.564,0.498 -0.837,0.759c-0.115,0.109 -0.239,0.206 -0.35,0.317L6.077,301.08c-3.881,3.881 -6.062,9.144 -6.062,14.632s2.18,10.753 6.062,14.633l58.532,58.53c0.001,0.003 0.004,0.004 0.007,0.006l28.716,28.718l29.806,29.807l58.53,58.532c3.881,3.881 9.144,6.062 14.632,6.062c5.488,0 10.753,-2.18 14.632,-6.062l58.532,-58.532c0.028,-0.026 0.048,-0.057 0.076,-0.083c0.461,-0.466 0.902,-0.956 1.32,-1.465c0.418,-0.51 0.808,-1.039 1.175,-1.584c0.032,-0.051 0.062,-0.106 0.097,-0.157c0.323,-0.494 0.628,-0.999 0.905,-1.518c0.07,-0.13 0.132,-0.265 0.2,-0.396c0.226,-0.446 0.444,-0.895 0.639,-1.355c0.079,-0.185 0.148,-0.375 0.221,-0.563c0.159,-0.411 0.313,-0.826 0.447,-1.247c0.076,-0.239 0.141,-0.483 0.207,-0.726c0.105,-0.377 0.201,-0.756 0.286,-1.14c0.062,-0.284 0.113,-0.571 0.164,-0.859c0.034,-0.206 0.087,-0.406 0.116,-0.615l28.29,-198.028l39.022,-39.023L327.456,183.477zM79.24,344.979l-29.265,-29.265l29.265,-29.265l29.265,29.265L79.24,344.979zM122.598,388.335l-14.092,-14.092l29.265,-29.264l14.091,14.091l15.174,15.174l-29.265,29.265L122.598,388.335zM196.301,462.041l-29.265,-29.267l29.265,-29.265l29.267,29.265L196.301,462.041zM240.2,388.876l-29.267,-29.265l-29.806,-29.806l-28.724,-28.724l-29.264,-29.265l135.306,-19.329l1.264,-0.181L240.2,388.876z" fill="#B3D8F4"/>
  <path d="M108.506,374.242l29.265,-29.264l14.091,14.091l29.265,-29.265l-28.724,-28.724l-29.264,-29.265l135.306,-19.329l69.01,-69.01l-14.091,-14.091l-39.022,39.023L76.314,236.696c-0.189,0.026 -0.367,0.076 -0.552,0.108c-0.35,0.059 -0.699,0.126 -1.043,0.203c-0.344,0.077 -0.684,0.163 -1.022,0.257c-0.306,0.086 -0.607,0.177 -0.906,0.275c-0.364,0.119 -0.722,0.247 -1.077,0.386c-0.264,0.102 -0.523,0.211 -0.779,0.323c-0.37,0.161 -0.734,0.334 -1.093,0.517c-0.237,0.121 -0.472,0.248 -0.704,0.377c-0.355,0.197 -0.704,0.406 -1.046,0.625c-0.229,0.146 -0.455,0.299 -0.676,0.455c-0.323,0.225 -0.639,0.458 -0.949,0.701c-0.226,0.179 -0.45,0.363 -0.669,0.55c-0.286,0.244 -0.564,0.498 -0.837,0.759c-0.115,0.109 -0.239,0.206 -0.35,0.317L6.077,301.08c-3.881,3.881 -6.062,9.144 -6.062,14.632s2.18,10.753 6.062,14.633l58.532,58.53c0.001,0.003 0.004,0.004 0.007,0.006l28.716,28.718l29.265,-29.265L108.506,374.242zM49.976,315.713l29.265,-29.265l29.265,29.265l-29.265,29.265L49.976,315.713z" fill="#8CB7E8"/>
  <path d="M406.037,18.183L298.732,125.487c-3.881,3.881 -6.061,9.144 -6.061,14.632c0,5.488 2.18,10.753 6.061,14.633l14.633,14.633l14.091,14.091L493.278,17.653C481.618,6.27 466.262,0 449.936,0C433.352,0 417.761,6.458 406.037,18.183z" fill="#806749"/>
</svg>
