<?xml version="1.0" ?>
<svg height="511.99933" viewBox="0 0 511 511.99933" width="511" xmlns="http://www.w3.org/2000/svg">
  <path d="m129.617,386.246c1.984,-44.402 7.277,-26.949 53.895,-26.949 23.383,0 47.285,12.461 62.879,26.949 11.129,10.336 30.629,-14.695 44.91,-8.984 28.781,11.508 15.578,-8.301 44.914,-17.965 17.543,-5.773 40.367,-5.758 53.895,-17.965 6.934,-6.262 -13.016,-36.082 -4.52,-39.234 70.352,-95.207 81.246,-208.383 20.012,-269.609 -43.328,-40.215 -106.512,-43.719 -143.207,-7.031 -18.035,18.035 -28.188,38.715 -27.223,64.07 0.832,22.133 -2.652,43.898 -11.023,63.148 -13.996,32.184 -40.23,56.688 -73.719,68.508 -16.609,5.867 -33.434,7.535 -51.918,6.574 -25.898,-1.355 -49.152,10.734 -67.547,29.129 -36.695,36.695 -33.191,99.887 7.023,143.227 2.594,2.598 5.309,5.012 8.082,7.348 -4.066,-10.023 83.547,-10.473 83.547,-21.215zM129.617,386.246" fill="#f2ecbf"/>
  <path d="m165.348,272.438c-3.699,0 -7.168,-2.309 -8.469,-6 -1.652,-4.68 0.809,-9.809 5.488,-11.453 15.547,-5.488 30.082,-13.238 43.207,-23.039 3.969,-2.984 9.602,-2.156 12.574,1.824 2.965,3.977 2.156,9.602 -1.824,12.574 -14.578,10.887 -30.719,19.492 -47.984,25.582 -0.988,0.34 -2.004,0.512 -2.992,0.512zM165.348,272.438" fill="#b7ae84"/>
  <path d="m248.016,209.973c-1.789,0 -3.594,-0.531 -5.164,-1.645 -4.051,-2.855 -5.023,-8.461 -2.168,-12.52 6.539,-9.27 12.027,-18.961 16.324,-28.824 1.977,-4.547 7.266,-6.648 11.82,-4.652 4.543,1.973 6.629,7.273 4.652,11.82 -4.777,10.984 -10.867,21.754 -18.117,32.02 -1.754,2.473 -4.527,3.801 -7.348,3.801zM248.016,209.973" fill="#b7ae84"/>
  <path d="m230.301,197.004 l-23.945,23.945c-3.793,3.793 -2.715,11.051 2.344,16.438 8.82,8.82 24.477,7.449 34.977,-3.055 10.5,-10.5 11.867,-26.164 3.055,-34.977 -5.379,-5.074 -12.637,-6.152 -16.43,-2.352zM230.301,197.004" fill="#d3cc9f"/>
  <path d="m420.363,296.422c-22.918,0 -42.508,5.594 -58,19.582 -13.527,12.207 -29.57,21.926 -47.113,27.699 -29.34,9.668 -61.574,8.742 -90.355,-2.766 -14.281,-5.715 -26.031,-13.762 -37.16,-24.102 -15.594,-14.488 -38.043,-20.414 -61.422,-20.414 -46.621,0 -84.535,35.434 -86.52,79.844 0,74.969 104.566,135.734 233.543,135.734 128.98,0 233.543,-60.766 233.543,-135.734 -1.984,-44.41 -39.898,-79.844 -86.516,-79.844zM420.363,296.422" fill="#d3cc9f"/>
  <path d="m310.902,352.355c-0.082,-2.516 -0.512,-4.898 -1.18,-7.105 -25.426,7.148 -52.625,6.547 -77.723,-1.832 -1.043,2.695 -1.727,5.703 -1.824,8.938 0,18.719 18.074,33.891 40.367,33.891 22.285,0 40.359,-15.172 40.359,-33.891zM310.902,352.355" fill="#b7ae84"/>
</svg>
