<?xml version="1.0" ?>
<svg height="512" viewBox="0 0 512 512" width="512" xmlns="http://www.w3.org/2000/svg">
  <path d="M26.127,165.938h458.015v248.933h-458.015z" fill="#FF728B"/>
  <path d="M26.127,176.352h458.015v32.122h-458.015z" fill="#FF3F62"/>
  <path d="M452.896,304.473c-4.313,0 -7.81,-3.497 -7.81,-7.81v-57.622c0,-4.313 3.497,-7.81 7.81,-7.81c4.313,0 7.81,3.497 7.81,7.81v57.622C460.707,300.977 457.21,304.473 452.896,304.473z" fill="#FF3F62"/>
  <path d="M452.896,359.317c-4.313,0 -7.81,-3.497 -7.81,-7.81v-23.603c0,-4.313 3.497,-7.81 7.81,-7.81c4.313,0 7.81,3.497 7.81,7.81v23.603C460.707,355.82 457.21,359.317 452.896,359.317z" fill="#FF3F62"/>
  <path d="M255.129,290.4m-69.083,0a69.083,69.083 0,1 1,138.166 0a69.083,69.083 0,1 1,-138.166 0" fill="#FFE477"/>
  <path d="M405.952,84.903c-14.282,-14.282 -37.437,-14.282 -51.719,0s-41.295,64.45 -27.012,78.732s64.45,-12.73 78.732,-27.012C420.234,122.341 420.234,99.185 405.952,84.903zM366.586,124.269c-5.657,-5.657 -5.657,-14.828 0,-20.484s14.828,-5.657 20.484,0c5.657,5.657 5.657,14.828 0,20.484S372.242,129.926 366.586,124.269z" fill="#C6C5CA"/>
  <path d="M371.934,95.571c9.514,-9.515 22.965,-12.681 35.108,-9.52c-0.356,-0.387 -0.715,-0.773 -1.091,-1.148c-14.282,-14.282 -37.437,-14.282 -51.719,0s-41.295,64.45 -27.012,78.732c3.205,3.205 8.221,4.326 14.23,3.982C337.032,148.334 359.391,108.114 371.934,95.571z" fill="#ACABB1"/>
  <path d="M489.062,437.809H24.68c-12.616,0 -22.938,-10.322 -22.938,-22.938l0,0c0,-12.616 10.322,-22.938 22.938,-22.938h464.382c12.616,0 22.938,10.322 22.938,22.938l0,0C512,427.487 501.678,437.809 489.062,437.809z" fill="#FFE477"/>
  <path d="M487.321,188.872H22.939C10.322,188.872 0,178.55 0,165.934l0,0c0,-12.616 10.322,-22.938 22.939,-22.938h464.382c12.616,0 22.938,10.322 22.938,22.938l0,0C510.259,178.55 499.937,188.872 487.321,188.872z" fill="#FFE477"/>
  <path d="M26.122,165.934v248.937h45.38c13.471,0 24.39,-10.92 24.39,-24.39V190.324c0,-13.471 -10.92,-24.39 -24.39,-24.39h-45.38V165.934z" fill="#FF3F62"/>
  <path d="M94.762,165.934L94.762,165.934c0,-12.616 10.322,-22.938 22.939,-22.938H22.939C10.322,142.995 0,153.317 0,165.933l0,0c0,12.616 10.322,22.939 22.939,22.939h94.762C105.084,188.872 94.762,178.55 94.762,165.934z" fill="#FFDA44"/>
  <path d="M96.503,414.871L96.503,414.871c0,-12.616 10.322,-22.939 22.938,-22.939H24.679c-12.616,0 -22.938,10.322 -22.938,22.938l0,0c0,12.616 10.322,22.938 22.938,22.938h94.762C106.826,437.809 96.503,427.487 96.503,414.871z" fill="#FFDA44"/>
</svg>
