<svg xmlns="http://www.w3.org/2000/svg" width="512" height="512" shape-rendering="geometricPrecision" image-rendering="optimizeQuality" fill-rule="evenodd" xmlns:v="https://vecta.io/nano"><path fill="#f4e7c8" d="M233.5 58.5c-3.042 5.222-6.709 10.055-11 14.5-30.631 15.963-54.797 38.797-72.5 68.5a74.27 74.27 0 0 0-6.5 15c-13.177.329-26.177-.005-39-1 17.094-38.927 45.094-67.094 84-84.5 3.814-15.819 13.814-23.152 30-22 6.446 1.205 11.446 4.371 15 9.5z" opacity=".993"/><path fill="#f7efd7" d="M407.5 155.5l-264 1a74.27 74.27 0 0 1 6.5-15c17.703-29.703 41.869-52.537 72.5-68.5 4.291-4.445 7.958-9.278 11-14.5 28.536-3.971 56.202-.638 83 10 14.316-6.384 26.149-3.384 35.5 9 1.651 4.245 2.984 8.579 4 13 22.267 17.751 39.433 39.418 51.5 65z" opacity=".995"/><path fill="#f4e7c8" d="M281.5 88.5c8.61-1.873 12.776 1.46 12.5 10-4.091 7.181-9.091 7.848-15 2-1.227-4.562-.393-8.562 2.5-12z"/><path d="M224.5 96.5a128.43 128.43 0 0 1 16 .5c4.253 3.42 5.087 7.587 2.5 12.5-.903 1.201-2.069 2.035-3.5 2.5a56.47 56.47 0 0 1-15 0c-5.292-5.165-5.292-10.332 0-15.5zm100 8c8.158-.677 11.658 2.99 10.5 11-3.465 4.467-7.298 8.633-11.5 12.5-9.666 2.335-13.499-1.498-11.5-11.5a209.45 209.45 0 0 1 12.5-12z" fill="#fefefe"/><path d="M182.5 121.5c8.61-1.873 12.776 1.46 12.5 10-4.186 7.038-9.186 7.705-15 2-2.304-4.645-1.471-8.645 2.5-12zm75 0c11.309-.206 14.309 4.627 9 14.5-9.601 3.07-13.767-.43-12.5-10.5.69-1.85 1.856-3.184 3.5-4z" fill="#f4e7c8"/><path fill="#f1c499" d="M89.5 155.5a82.03 82.03 0 0 1-3.5 12c-2.221 10.437 1.612 17.604 11.5 21.5l359 .5c4.312 5.438 3.978 10.605-1 15.5-5.544 1.404-11.21 1.904-17 1.5-122-1.333-244-1.333-366 0-5.79.404-11.456-.096-17-1.5-2.953-2.526-4.119-5.692-3.5-9.5a152.79 152.79 0 0 1 10-26c7.206-8.52 16.373-13.186 27.5-14z" opacity=".992"/><path fill="#f7d6ad" d="M89.5 155.5h15c12.823.995 25.823 1.329 39 1l264-1c27.072-3.662 43.405 7.672 49 34-119.667.167-239.334 0-359-.5-9.888-3.896-13.721-11.063-11.5-21.5a82.03 82.03 0 0 0 3.5-12z" opacity=".999"/><path fill="#de966c" d="M438.5 206.5l7 16c-108.667-.167-217.334 0-326 .5-10.514 2.856-18.347 9.023-23.5 18.5C78.894 294.699 68.06 349.199 63.5 405c.472 22.13 11.472 35.463 33 40l415 .5v6c-2.644 5.466-6.977 8.966-13 10.5h-486c-6.023-1.534-10.356-5.034-13-10.5v-12a153.51 153.51 0 0 1 9.5-12 64.91 64.91 0 0 0 6-14c6.873-72.499 26.039-141.499 57.5-207h366z" opacity=".986"/><path fill="#efa673" d="M445.5 222.5c27.272 60.744 44.105 124.411 50.5 191a64.9 64.9 0 0 0 6 14 153.56 153.56 0 0 1 9.5 12v6c-138.334.167-276.667 0-415-.5-21.528-4.537-32.528-17.87-33-40 4.56-55.801 15.394-110.301 32.5-163.5 5.153-9.477 12.986-15.644 23.5-18.5l326-.5z" opacity=".999"/><path fill="#f7d6ad" d="M320.5 296.5l-56 31.5c-3.959 3.51-7.292 7.343-10 11.5-1.251-4.762-3.918-8.595-8-11.5l-56-31.5c-.086-.996.248-1.829 1-2.5l57-33c5.514-3.419 10.847-3.086 16 1l55 32c.752.671 1.086 1.504 1 2.5z"/><path fill="#f6b97e" d="M190.5 296.5l56 31.5c4.082 2.905 6.749 6.738 8 11.5a1227.72 1227.72 0 0 1 1 69c-6.548-2.607-12.881-5.774-19-9.5-15.416-8.79-30.583-17.956-45.5-27.5-1.149-12.742-1.649-25.575-1.5-38.5a657.38 657.38 0 0 1 1-36.5z"/><path fill="#fecc89" d="M320.5 296.5c1.163 24.497 1.33 49.163.5 74a100.4 100.4 0 0 1-13.5 9.5c-15.163 8.414-30.163 17.081-45 26-2.15 1.411-4.484 2.245-7 2.5a1227.72 1227.72 0 0 0-1-69c2.708-4.157 6.041-7.99 10-11.5l56-31.5z"/></svg>