<?xml version="1.0" encoding="UTF-8"?>
<svg enable-background="new 0 0 511.995 511.995" version="1.1" viewBox="0 0 512 512" xml:space="preserve" xmlns="http://www.w3.org/2000/svg">
<path d="m511.98 97.232c-0.026-12.924-7.151-24.79-18.539-30.899 17.118-9.208 23.536-30.554 14.319-47.672s-30.554-23.536-47.672-14.319c-6.074 3.266-11.053 8.246-14.319 14.319-9.094-17.065-30.299-23.527-47.364-14.434-6.136 3.266-11.159 8.299-14.434 14.434-9.093-17.065-30.298-23.527-47.363-14.434-6.136 3.266-11.159 8.299-14.434 14.434-9.093-17.065-30.299-23.527-47.364-14.434-6.136 3.266-11.159 8.299-14.434 14.434-9.208-17.118-30.554-23.536-47.672-14.319s-23.536 30.554-14.319 47.672c3.266 6.074 8.246 11.053 14.319 14.319-17.065 9.093-23.527 30.298-14.434 47.363 3.266 6.136 8.299 11.159 14.434 14.434-17.065 9.093-23.527 30.298-14.434 47.363 3.266 6.136 8.299 11.159 14.434 14.434-17.065 9.093-23.527 30.298-14.434 47.363 3.266 6.136 8.299 11.159 14.434 14.434-17.065 9.093-23.527 30.298-14.434 47.363 3.266 6.136 8.299 11.159 14.434 14.434-17.065 9.093-23.527 30.298-14.434 47.363 3.266 6.136 8.299 11.159 14.434 14.434-17.118 9.208-23.536 30.554-14.319 47.672 9.208 17.118 30.554 23.536 47.672 14.319 6.074-3.266 11.053-8.246 14.319-14.319 9.093 17.065 30.298 23.527 47.363 14.434 6.136-3.266 11.159-8.298 14.434-14.434 9.093 17.065 30.298 23.527 47.363 14.434 6.136-3.266 11.159-8.298 14.434-14.434 9.093 17.065 30.298 23.527 47.363 14.434 6.136-3.266 11.159-8.298 14.434-14.434 9.208 17.118 30.554 23.536 47.672 14.319s23.536-30.554 14.319-47.672c-3.266-6.074-8.246-11.053-14.319-14.319 17.065-9.093 23.527-30.298 14.434-47.363-3.266-6.136-8.298-11.159-14.434-14.434 17.065-9.093 23.527-30.298 14.434-47.363-3.266-6.136-8.298-11.159-14.434-14.434 17.065-9.093 23.527-30.298 14.434-47.363-3.266-6.136-8.298-11.159-14.434-14.434 17.065-9.093 23.527-30.298 14.434-47.363-3.266-6.136-8.298-11.159-14.434-14.434 11.39-6.109 18.514-17.974 18.541-30.898z" fill="#BF7341"/>
<path d="m511.98 97.232c-0.026-12.924-7.151-24.79-18.539-30.899 17.1-9.155 23.545-30.44 14.39-47.549-5.12-9.57-14.39-16.235-25.09-18.054-55.6 251.57-195.76 371.2-283.67 423.14 9.596 16.791 30.987 22.627 47.778 13.03 5.729-3.275 10.417-8.095 13.525-13.913 9.093 17.065 30.298 23.527 47.363 14.434 6.136-3.266 11.159-8.298 14.434-14.434 9.093 17.065 30.298 23.527 47.363 14.434 6.136-3.266 11.159-8.298 14.434-14.434 9.093 17.065 30.298 23.527 47.363 14.434 6.136-3.266 11.159-8.298 14.434-14.434 9.208 17.118 30.554 23.536 47.672 14.319s23.536-30.554 14.319-47.672c-3.266-6.074-8.246-11.053-14.319-14.319 17.065-9.093 23.527-30.298 14.434-47.363-3.266-6.136-8.298-11.159-14.434-14.434 17.065-9.093 23.527-30.298 14.434-47.363-3.266-6.136-8.298-11.159-14.434-14.434 17.065-9.093 23.527-30.298 14.434-47.363-3.266-6.136-8.298-11.159-14.434-14.434 17.065-9.093 23.527-30.298 14.434-47.363-3.266-6.136-8.298-11.159-14.434-14.434 11.39-6.11 18.514-17.975 18.541-30.899z" fill="#B56D3E"/>
<g fill="#965735">
	<rect x="273.62" y="61.884" width="17.656" height="17.656"/>
	<rect x="344.24" y="61.884" width="17.656" height="17.656"/>
	<rect x="414.87" y="61.884" width="17.656" height="17.656"/>
</g>
<rect x="273.62" y="132.51" width="17.656" height="17.656" fill="#965735"/>
<rect x="344.24" y="132.51" width="17.656" height="17.656" fill="#965735"/>
<rect x="414.87" y="132.51" width="17.656" height="17.656" fill="#965735"/>

	<rect x="273.62" y="132.51" width="17.656" height="17.656" fill="#965735"/>


	<rect x="344.24" y="132.51" width="17.656" height="17.656" fill="#965735"/>


	<rect x="414.87" y="132.51" width="17.656" height="17.656" fill="#965735"/>

<rect x="273.62" y="203.14" width="17.656" height="17.656" fill="#965735"/>
<rect x="344.24" y="203.14" width="17.656" height="17.656" fill="#965735"/>
<rect x="414.87" y="203.14" width="17.656" height="17.656" fill="#965735"/>

	<rect x="273.62" y="203.14" width="17.656" height="17.656" fill="#965735"/>


	<rect x="344.24" y="203.14" width="17.656" height="17.656" fill="#965735"/>


	<rect x="414.87" y="203.14" width="17.656" height="17.656" fill="#965735"/>

<rect x="273.62" y="273.76" width="17.656" height="17.656" fill="#965735"/>
<rect x="344.24" y="273.76" width="17.656" height="17.656" fill="#965735"/>
<rect x="414.87" y="273.76" width="17.656" height="17.656" fill="#965735"/>

	<rect x="273.62" y="273.76" width="17.656" height="17.656" fill="#965735"/>


	<rect x="344.24" y="273.76" width="17.656" height="17.656" fill="#965735"/>


	<rect x="414.87" y="273.76" width="17.656" height="17.656" fill="#965735"/>

<rect x="273.62" y="344.39" width="17.656" height="17.656" fill="#965735"/>
<rect x="344.24" y="344.39" width="17.656" height="17.656" fill="#965735"/>
<rect x="414.87" y="344.39" width="17.656" height="17.656" fill="#965735"/>

	<rect x="273.62" y="344.39" width="17.656" height="17.656" fill="#965735"/>


	<rect x="344.24" y="344.39" width="17.656" height="17.656" fill="#965735"/>


	<rect x="414.87" y="344.39" width="17.656" height="17.656" fill="#965735"/>

<path d="m285.4 393.32-0.088 0.079c9.543 20.261 0.848 44.415-19.413 53.958-2.366 1.112-4.847 2.004-7.38 2.64v0.079c0.106 22.018-17.648 39.948-39.665 40.054-2.869 0.018-5.738-0.283-8.546-0.883h-0.071c-9.208 19.66-32.611 28.127-52.263 18.919-2.843-1.333-5.509-2.993-7.954-4.961-16.95 13.578-41.696 10.841-55.273-6.109-1.933-2.419-3.575-5.05-4.891-7.848h-0.08c-21.532 4.599-42.72-9.12-47.319-30.651-0.6-2.799-0.892-5.659-0.883-8.519v-0.088c-21.717-5.465-34.898-27.509-29.433-49.226 0.636-2.543 1.518-5.006 2.64-7.38l-0.088-0.071c-17.33-14.452-19.669-40.212-5.226-57.542 1.58-1.898 3.328-3.646 5.226-5.226l0.088-0.079c-9.543-20.261-0.856-44.415 19.404-53.958 2.357-1.112 4.811-1.986 7.336-2.631v-0.079c-0.106-22.018 17.648-39.948 39.665-40.054 2.869-0.018 5.738 0.283 8.546 0.883h0.071c4.564-9.605 12.792-16.985 22.839-20.464 12.748-4.449 26.891-1.986 37.379 6.506 16.95-13.578 41.696-10.841 55.273 6.109 1.933 2.419 3.575 5.05 4.891 7.848h0.079c21.523-4.626 42.728 9.075 47.354 30.599 0.609 2.816 0.9 5.694 0.892 8.572v0.088c21.717 5.465 34.898 27.509 29.433 49.226-0.636 2.543-1.518 5.006-2.64 7.38l0.088 0.071c17.33 14.452 19.669 40.212 5.226 57.542-1.58 1.897-3.328 3.636-5.217 5.216z" fill="#F09E3E"/>

	<path d="m285.4 393.32-0.088 0.079c9.543 20.261 0.848 44.415-19.413 53.958-2.366 1.112-4.847 2.004-7.38 2.64v0.079c0.106 22.018-17.648 39.948-39.665 40.054-2.869 0.018-5.738-0.283-8.546-0.883h-0.071c-9.208 19.66-32.611 28.127-52.263 18.919-2.843-1.333-5.509-2.993-7.954-4.961-16.95 13.578-41.696 10.841-55.273-6.109-1.933-2.419-3.575-5.05-4.891-7.848h-0.08c-21.532 4.599-42.72-9.12-47.319-30.651-0.6-2.799-0.892-5.659-0.883-8.519v-0.088c-21.717-5.465-34.898-27.509-29.433-49.226 0.636-2.543 1.518-5.006 2.64-7.38l-0.088-0.071c-17.33-14.452-19.669-40.212-5.226-57.542 1.58-1.898 3.328-3.646 5.226-5.226l0.088-0.079c-9.543-20.261-0.856-44.415 19.404-53.958 2.357-1.112 4.811-1.986 7.336-2.631v-0.079c-0.106-22.018 17.648-39.948 39.665-40.054 2.869-0.018 5.738 0.283 8.546 0.883h0.071c4.564-9.605 12.792-16.985 22.839-20.464 12.748-4.449 26.891-1.986 37.379 6.506 16.95-13.578 41.696-10.841 55.273 6.109 1.933 2.419 3.575 5.05 4.891 7.848h0.079c21.523-4.626 42.728 9.075 47.354 30.599 0.609 2.816 0.9 5.694 0.892 8.572v0.088c21.717 5.465 34.898 27.509 29.433 49.226-0.636 2.543-1.518 5.006-2.64 7.38l0.088 0.071c17.33 14.452 19.669 40.212 5.226 57.542-1.58 1.897-3.328 3.636-5.217 5.216z" fill="#F09E3E"/>

<path d="m285.32 393.4 0.088-0.079c17.33-14.452 19.669-40.212 5.226-57.542-1.58-1.898-3.328-3.646-5.226-5.226l-0.088-0.071c9.543-20.261 0.848-44.423-19.413-53.967-2.366-1.112-4.838-1.995-7.38-2.64v-0.079c0.053-22.07-17.798-40.001-39.859-40.054-0.953 0-1.907 0.026-2.86 0.097 18.301 10.567 25.487 33.362 16.553 52.51l0.088 0.071c17.33 14.452 19.669 40.212 5.226 57.542-1.58 1.898-3.328 3.646-5.226 5.226l-0.088 0.079c9.543 20.261 0.848 44.415-19.413 53.958-2.375 1.121-4.847 2.004-7.389 2.64v0.079c0.106 22.018-17.648 39.948-39.665 40.054-2.869 0.018-5.738-0.283-8.546-0.883h-0.071c-9.217 19.652-32.611 28.118-52.272 18.91-2.834-1.333-5.509-2.993-7.945-4.961-16.88 13.56-41.563 10.876-55.132-6.012-0.062-0.071-0.115-0.15-0.177-0.221 1.368 21.92 20.243 38.588 42.163 37.22 1.969-0.124 3.929-0.388 5.862-0.803h0.079c9.234 19.652 32.656 28.1 52.307 18.866 2.807-1.315 5.447-2.966 7.866-4.9 16.932 13.578 41.669 10.859 55.247-6.074 1.942-2.428 3.593-5.067 4.917-7.884h0.071c21.523 4.608 42.711-9.102 47.328-30.625 0.6-2.807 0.9-5.677 0.883-8.546v-0.079c21.717-5.456 34.898-27.491 29.442-49.208-0.636-2.542-1.527-5.014-2.64-7.389l0.044-9e-3z" fill="#F09235"/>
<g fill="#965735">
	<rect x="70.57" y="282.59" width="17.656" height="17.656"/>
	<rect x="141.2" y="282.59" width="17.656" height="17.656"/>
	<rect x="211.82" y="282.59" width="17.656" height="17.656"/>
</g>
<rect x="70.57" y="353.21" width="17.656" height="17.656" fill="#965735"/>
<rect x="141.2" y="353.21" width="17.656" height="17.656" fill="#965735"/>
<rect x="211.82" y="353.21" width="17.656" height="17.656" fill="#965735"/>

	<rect x="70.57" y="353.21" width="17.656" height="17.656" fill="#965735"/>


	<rect x="141.2" y="353.21" width="17.656" height="17.656" fill="#965735"/>


	<rect x="211.82" y="353.21" width="17.656" height="17.656" fill="#965735"/>

<rect x="70.57" y="423.84" width="17.656" height="17.656" fill="#965735"/>
<rect x="141.2" y="423.84" width="17.656" height="17.656" fill="#965735"/>
<rect x="211.82" y="423.84" width="17.656" height="17.656" fill="#965735"/>

	<rect x="70.57" y="423.84" width="17.656" height="17.656" fill="#965735"/>


	<rect x="141.2" y="423.84" width="17.656" height="17.656" fill="#965735"/>


	<rect x="211.82" y="423.84" width="17.656" height="17.656" fill="#965735"/>
















</svg>
