<?xml version="1.0" ?>
<svg height="512" viewBox="0 0 512 512" width="512" xmlns="http://www.w3.org/2000/svg">
  <path d="m346.84,149.129c0,72.973 -59.156,132.129 -132.129,132.129 -72.973,0 -132.129,-59.156 -132.129,-132.129s59.156,-132.129 132.129,-132.129c72.973,0 132.129,59.156 132.129,132.129zM346.84,149.129" fill="#b4e6a0"/>
  <path d="m103.035,139.457c-7.332,4.02 -14.059,8.695 -20.293,13.809 0.613,20.168 5.746,40.492 16.113,59.395 35.09,63.984 115.402,87.41 179.387,52.32 7.328,-4.016 14.055,-8.695 20.293,-13.805 -0.617,-20.168 -5.75,-40.496 -16.117,-59.398 -35.086,-63.984 -115.398,-87.41 -179.383,-52.32zM103.035,139.457" fill="#96d7a5"/>
  <path d="m238.523,19.16c-17.406,20.121 -29.656,44.406 -35.484,70.273 -24.277,-18.441 -53.703,-29.328 -84.063,-31.426 -4.539,4.762 -8.766,9.949 -12.496,15.266 34.066,-0.43 67.758,11.543 93.609,33.762 -1.07,9.594 -1.316,19.309 -0.605,29.027 0.316,4.285 4.035,7.5 8.313,7.188 1.148,-0.086 2.223,-0.414 3.168,-0.934 2.59,-1.418 4.25,-4.25 4.02,-7.379 -2.992,-41 12.121,-82.113 40.52,-111.477 -5.547,-1.797 -11.242,-3.246 -16.98,-4.301zM238.523,19.16" fill="#96d7a5"/>
  <path d="m231.227,231.711c-72.973,0 -132.129,-59.156 -132.129,-132.129 0,-5.445 0.285,-10.836 0.922,-16.105 -22.043,38.582 -24.094,87.367 -1.16,129.184 35.086,63.984 115.398,87.41 179.383,52.32 38.676,-21.207 62.547,-58.953 67.617,-99.617 -22.813,39.621 -65.633,66.348 -114.633,66.348zM231.227,231.711" fill="#96d7a5"/>
  <path d="m298.535,251.176c-0.355,-11.637 -2.27,-23.316 -5.77,-34.754 -18.375,9.73 -39.289,15.289 -61.539,15.289 -59.414,0 -109.656,-39.223 -126.277,-93.184 -0.633,0.336 -1.285,0.586 -1.914,0.93 -7.332,4.02 -14.176,8.766 -20.414,13.879 0.617,20.164 5.867,40.422 16.234,59.324 35.09,63.984 115.402,87.41 179.387,52.32 7.328,-4.016 14.055,-8.695 20.293,-13.805zM298.535,251.176" fill="#78c3a5"/>
  <path d="m512,314.289c0,72.977 -59.156,132.133 -132.129,132.133s-132.129,-59.156 -132.129,-132.133c0,-72.973 59.156,-132.129 132.129,-132.129s132.129,59.156 132.129,132.129zM512,314.289" fill="#b4e6a0"/>
  <path d="m357.887,204.375c-5.91,-5.91 -12.445,-11.137 -19.098,-15.691 -19.188,6.238 -37.102,16.934 -52.348,32.18 -51.598,51.598 -51.598,135.258 0,186.859 5.91,5.91 12.281,11.059 18.938,15.613 19.188,-6.238 37.266,-16.859 52.508,-32.102 51.602,-51.602 51.602,-135.262 0,-186.859zM357.887,204.375" fill="#96d7a5"/>
  <path d="m511.27,300.742c-24.191,-11.082 -50.895,-16.016 -77.359,-14.371 10.906,-28.469 13.125,-59.715 6.641,-89.449 -5.844,-3.023 -11.895,-5.469 -18.039,-7.563 9.949,32.582 7.77,68.07 -6.324,99.109 -9.512,1.66 -18.906,4.145 -28.035,7.547 -4.023,1.504 -6.07,5.973 -4.574,9.992 0.402,1.078 1.02,2.02 1.781,2.781 2.09,2.086 5.273,2.887 8.215,1.793 38.52,-14.355 82.203,-11.387 118.344,7.652 0.172,-5.824 -0.055,-11.688 -0.648,-17.492zM511.27,300.742" fill="#96d7a5"/>
  <path d="m311.215,382.945c-47.387,-47.387 -51.125,-121.754 -11.473,-173.555 -4.602,3.52 -9.09,7.262 -13.301,11.469 -51.598,51.602 -51.598,135.262 0,186.859 51.602,51.602 135.258,51.602 186.859,0 4.211,-4.211 8.066,-8.617 11.59,-13.219 -51.805,39.656 -126.285,35.836 -173.676,-11.555zM311.215,382.945" fill="#96d7a5"/>
  <path d="m286.441,407.719c5.91,5.91 12.164,11.09 18.816,15.648 12.516,-4.07 24.77,-10.105 35.859,-17.973 -10.652,-5.863 -20.867,-13.414 -29.902,-22.449 -47.418,-47.418 -51.188,-121.906 -11.449,-173.711 -0.004,-0.004 0,0 -0.004,-0.004 -4.641,3.531 -9.082,7.391 -13.32,11.629 -51.598,51.602 -51.598,135.262 0,186.859zM286.441,407.719" fill="#78c3a5"/>
  <path d="m280.773,355.582c0,77.531 -62.852,140.387 -140.387,140.387 -77.535,0 -140.387,-62.855 -140.387,-140.387 0,-77.535 62.852,-140.387 140.387,-140.387 77.535,0 140.387,62.852 140.387,140.387zM280.773,355.582" fill="#b4e6a0"/>
  <path d="m173.418,462.938c-77.531,0 -140.387,-62.855 -140.387,-140.387 0,-30.332 9.637,-58.434 25.988,-81.387 -35.723,25.449 -59.02,67.215 -59.02,114.418 0,77.531 62.852,140.387 140.387,140.387 47.207,0 88.977,-23.32 114.426,-59.043 -22.953,16.352 -51.066,26.012 -81.395,26.012zM173.418,462.938" fill="#96d7a5"/>
  <path d="m41.289,289.516c-8.879,0 -17.535,0.922 -25.957,2.496 -9.73,19.102 -15.332,40.664 -15.332,63.57 0,77.531 62.852,140.387 140.387,140.387 8.883,0 17.535,-0.918 25.961,-2.496 9.727,-19.102 15.328,-40.66 15.328,-63.57 0,-77.531 -62.852,-140.387 -140.387,-140.387zM41.289,289.516" fill="#96d7a5"/>
  <path d="m173.418,462.938c-77.531,0 -140.387,-62.855 -140.387,-140.387 0,-11.313 1.363,-22.438 3.906,-32.957 -7.348,0.25 -14.738,1.125 -21.766,2.438 -9.73,19.105 -15.172,40.645 -15.172,63.551 0,77.531 62.852,140.387 140.387,140.387 8.883,0 17.461,-0.809 25.883,-2.383 4.918,-9.656 8.824,-19.953 11.445,-30.723 -1.445,0.047 -2.844,0.074 -4.297,0.074zM173.418,462.938" fill="#78c3a5"/>
  <path d="m228.988,246.664c-26.496,9.852 -50.332,26.223 -68.977,47.344 -13.195,-29.586 -35.059,-54.754 -62.27,-72.219 -6.664,2.121 -13.117,4.742 -19.309,7.789 31.957,17.004 57.105,45.41 69.836,79.316 -5.898,8.395 -11.086,17.32 -15.391,26.734 -1.895,4.152 -0.074,9.051 4.07,10.945 1.113,0.508 2.285,0.75 3.43,0.75 3.137,0 6.129,-1.789 7.516,-4.824 18.156,-39.727 53.258,-70.305 94.715,-83.152 -4.25,-4.504 -8.816,-8.77 -13.621,-12.684zM228.988,246.664" fill="#96d7a5"/>
</svg>
