<?xml version="1.0" ?>
<svg height="512" viewBox="0 0 512 512" width="512" xmlns="http://www.w3.org/2000/svg">
  <path d="M155.26,222.704l-43.788,23.812l-90.132,-26.625l26.625,-90.139l43.78,-23.812l90.139,26.624z" fill="#E5E8EC"/>
  <path d="M138.096,156.377l-90.131,-26.625l43.78,-23.812l90.139,26.624z" fill="#CBD0D8"/>
  <path d="M428.481,88.972l-83.201,43.717l43.701,83.203l83.218,-43.703z" fill="#CBD0D8"/>
  <path d="M369.514,135.455l-14.703,47.624l-83.109,43.89l-43.889,-83.123l14.703,-47.624l83.124,-43.874z" fill="#A9B1BC"/>
  <path d="M310.921,99.972l-83.108,43.874l43.889,83.123l83.109,-43.89z" fill="#E5E8EC"/>
  <path d="M242.516,96.222l-14.703,47.624l83.108,-43.874l14.719,-47.624z" fill="#CBD0D8"/>
  <path d="M136.018,204.626l-14.883,-47.577l43.57,-83.28l83.279,43.577l14.875,47.578l-43.562,83.264z" fill="#CBD0D8"/>
  <path d="M164.705,73.769l-43.57,83.28l83.272,43.577l43.577,-83.28z" fill="#E5E8EC"/>
  <path d="M511.995,438.324c0,11.781 -9.562,21.328 -21.344,21.328H21.333c-11.781,0 -21.328,-9.547 -21.328,-21.328V160.986h511.99V438.324z" fill="#AC92EA"/>
  <path d="M0.005,203.657v21.328h32c0,5.89 4.766,10.671 10.656,10.671c5.891,0 10.672,-4.781 10.672,-10.671H74.66c0,5.89 4.781,10.671 10.672,10.671c5.89,0 10.671,-4.781 10.671,-10.671h21.328c0,5.89 4.781,10.671 10.672,10.671s10.656,-4.781 10.656,-10.671h21.343c0,5.89 4.766,10.671 10.656,10.671c5.891,0 10.672,-4.781 10.672,-10.671h21.328c0,5.89 4.781,10.671 10.672,10.671c5.89,0 10.671,-4.781 10.671,-10.671h21.328c0,5.89 4.781,10.671 10.672,10.671s10.656,-4.781 10.656,-10.671h21.343c0,5.89 4.766,10.671 10.656,10.671s10.672,-4.781 10.672,-10.671h21.328c0,5.89 4.781,10.671 10.672,10.671c5.89,0 10.671,-4.781 10.671,-10.671h21.327c0,5.89 4.781,10.671 10.672,10.671s10.656,-4.781 10.656,-10.671h21.344c0,5.89 4.766,10.671 10.656,10.671s10.672,-4.781 10.672,-10.671h21.327c0,5.89 4.781,10.671 10.672,10.671c5.89,0 10.671,-4.781 10.671,-10.671h31.609v-21.328H0.005z" fill="#967ADA"/>
  <path d="M490.651,160.986v277.338c0,11.781 -9.547,21.328 -21.327,21.328h21.327c11.781,0 21.344,-9.547 21.344,-21.328V160.986H490.651z" fill="#FFFFFF"/>
</svg>
