<svg xmlns="http://www.w3.org/2000/svg" width="512" height="512" shape-rendering="geometricPrecision" image-rendering="optimizeQuality" fill-rule="evenodd"><path fill="#fea000" d="M277.5 67.5c-7.306 5.14-13.472 11.473-18.5 19l-77.5 161h-46c-34.504.332-68.837-.002-103-1l154-153c11.22-12.011 24.887-20.178 41-24.5 16.646-4.631 33.313-5.131 50-1.5z"/><path fill="#feb300" d="M277.5 67.5c18.823 4.345 35.157 13.178 49 26.5l152 152.5-297 1 77.5-161c5.028-7.527 11.194-13.86 18.5-19z" opacity=".991"/><path fill="#ffa100" d="M269.5 106.5c8.865.347 12.032 4.681 9.5 13-5.814 5.705-10.814 5.038-15-2-.824-5.018 1.009-8.685 5.5-11z"/><path fill="#ffa700" d="M186.5 93.5l-154 153 154-153z" opacity=".831"/><path fill="#ffb300" d="M194.5 156.5c8.652-.514 12.152 3.486 10.5 12-4.3 4.946-8.967 5.279-14 1-2.675-5.489-1.508-9.822 3.5-13z"/><path fill="#ffa000" d="M309.5 181.5c8.658-1.173 12.492 2.494 11.5 11-3.892 5.759-8.559 6.426-14 2-2.542-5.062-1.708-9.395 2.5-13z"/><path fill="#b8906d" d="M478.5 246.5c7.728-.311 15.395.189 23 1.5 4.943 2.106 8.276 5.606 10 10.5v11c-3.127 6.783-8.461 10.449-16 11h-360c-11.294-5.603-14.461-14.27-9.5-26 2.529-3.385 5.696-5.718 9.5-7h46l297-1z" opacity=".995"/><path fill="#a57d5f" d="M32.5 246.5c34.163.998 68.496 1.332 103 1-3.804 1.282-6.971 3.615-9.5 7-4.961 11.73-1.794 20.397 9.5 26h-120c-7.539-.551-12.873-4.217-16-11v-11c1.724-4.894 5.057-8.394 10-10.5 7.605-1.311 15.272-1.811 23-1.5z"/><path fill="#9b6e55" d="M15.5 280.5h120 360c-1.36 5.443-3.027 10.777-5 16-116.667-.167-233.334 0-350 .5-8.739 1.569-13.406 6.736-14 15.5h-101c-3.501-10.51-6.835-21.177-10-32z"/><path fill="#a47c5e" d="M490.5 296.5c-1.296 5.55-2.963 10.883-5 16h-359c.594-8.764 5.261-13.931 14-15.5l350-.5z" opacity=".998"/><path fill="#855d50" d="M25.5 312.5h101v1c-33.683-.66-67.017.007-100 2-.904-.709-1.237-1.709-1-3z"/><path fill="#966f5a" d="M126.5 313.5v-1h359c.237 1.291-.096 2.291-1 3l-358-2z"/><path fill="#6e4848" d="M126.5 313.5a399.72 399.72 0 0 0 5 33h-96a274.96 274.96 0 0 1-9-31c32.983-1.993 66.317-2.66 100-2z"/><path fill="#785353" d="M126.5 313.5l358 2c-2.396 10.519-5.396 20.852-9 31h-344a399.72 399.72 0 0 1-5-33z"/><path fill="#9b6e55" d="M35.5 346.5h96l12.5 76c1.906 8.562 5.073 16.562 9.5 24a531.71 531.71 0 0 1-51-1.5c-16.395-3.445-29.895-11.611-40.5-24.5l-7-11c-7.276-20.774-13.776-41.774-19.5-63z"/><path fill="#a47c5e" d="M131.5 346.5h344l-12.5 43c-8.568 34.236-30.401 53.069-65.5 56.5l-244 .5c-4.427-7.438-7.594-15.438-9.5-24l-12.5-76z" opacity=".99"/></svg>