<?xml version="1.0" ?>
<svg height="512" viewBox="0 0 512 512" width="512" xmlns="http://www.w3.org/2000/svg">
  <path d="M321.31,483.385H190.69c-10.182,0 -18.437,-8.255 -18.437,-18.437v-60.399c0,-10.182 8.255,-18.437 18.437,-18.437H321.31c10.182,0 18.437,8.255 18.437,18.437v60.399C339.747,475.13 331.492,483.385 321.31,483.385z" fill="#FF5E5B"/>
  <path d="M321.31,386.112h-67.444v97.273h67.444c10.182,0 18.437,-8.255 18.437,-18.437v-60.399C339.747,394.367 331.492,386.112 321.31,386.112z" fill="#ED3E3C"/>
  <path d="M340.97,422.985H171.029c-77.802,0 -141.099,-63.296 -141.099,-141.099v-46.289c0,-10.182 8.255,-18.437 18.437,-18.437h415.267c10.182,0 18.437,8.255 18.437,18.437v46.289C482.07,359.689 418.774,422.985 340.97,422.985z" fill="#ED3E3C"/>
  <path d="M463.633,217.16H253.867v205.826h87.103c77.804,0 141.1,-63.296 141.1,-141.099v-46.289C482.07,225.414 473.815,217.16 463.633,217.16z" fill="#D62F2D"/>
  <path d="M463.356,254.033H48.643c-10.182,0 -18.437,-8.255 -18.437,-18.437c0,-28.498 15.905,-54.204 39.928,-67.511c-19.953,-65.674 49.661,-122.429 109.875,-90.473c12.891,-28.472 41.74,-48.996 75.991,-48.996c34.242,0 63.097,20.519 75.991,48.996c60.16,-31.924 129.853,24.716 109.873,90.473c24.023,13.308 39.927,39.014 39.927,67.511C481.792,245.779 473.539,254.033 463.356,254.033z" fill="#FFEDBE"/>
  <path d="M441.865,168.085c19.955,-65.677 -49.662,-122.425 -109.873,-90.473c-12.827,-28.33 -41.59,-48.996 -75.991,-48.996c-0.714,0 -1.422,0.033 -2.134,0.052v225.365h209.49c10.182,0 18.437,-8.255 18.437,-18.437C481.792,207.099 465.888,181.393 441.865,168.085z" fill="#FFE49C"/>
  <path d="M312.039,197.245c-13.453,0 -22.458,-14.083 -16.645,-26.342c14.159,-29.851 56.889,-29.946 71.094,-0.001c4.365,9.2 0.442,20.195 -8.756,24.559c-9.201,4.365 -20.195,0.442 -24.559,-8.756c-0.892,-1.89 -3.572,-1.888 -4.463,0C325.557,193.354 318.939,197.245 312.039,197.245z" fill="#F0D282"/>
  <path d="M493.563,254.033H18.437C8.255,254.033 0,245.779 0,235.597c0,-10.182 8.255,-18.437 18.437,-18.437h475.127c10.182,0 18.437,8.255 18.437,18.437C512,245.779 503.745,254.033 493.563,254.033z" fill="#FF5E5B"/>
  <path d="M493.563,217.16H253.867v36.873h239.697c10.182,0 18.437,-8.255 18.437,-18.437C512,225.414 503.745,217.16 493.563,217.16z" fill="#ED3E3C"/>
</svg>
