<?xml version="1.0" ?>
<svg height="512" viewBox="0 0 512 512" width="512" xmlns="http://www.w3.org/2000/svg">
  <path d="M264.44,376.967c-71.355,0 -129.407,-58.052 -129.407,-129.407c0,-37.288 -30.228,-67.516 -67.516,-67.516S0,210.272 0,247.56c0,70.635 27.506,137.042 77.453,186.987C127.398,484.494 193.805,512 264.44,512c37.288,0 67.516,-30.228 67.516,-67.516S301.728,376.967 264.44,376.967z" fill="#ffe590"/>
  <path d="M444.484,196.923c-71.355,0 -129.407,-58.052 -129.407,-129.407C315.077,30.228 284.849,0 247.56,0s-67.516,30.228 -67.516,67.516c0,70.635 27.506,137.042 77.453,186.987c49.945,49.946 116.352,77.453 186.987,77.453c37.288,0 67.516,-30.228 67.516,-67.516S481.772,196.923 444.484,196.923z" fill="#ffe38e"/>
  <path d="M235.745,459.675m-8.44,0a8.44,8.44 0,1 1,16.88 0a8.44,8.44 0,1 1,-16.88 0" fill="#efcd76"/>
  <path d="M86.084,242.497m-8.44,0a8.44,8.44 0,1 1,16.88 0a8.44,8.44 0,1 1,-16.88 0" fill="#efcd76"/>
  <path d="M52.325,276.255m-8.44,0a8.44,8.44 0,1 1,16.88 0a8.44,8.44 0,1 1,-16.88 0" fill="#efcd76"/>
  <path d="M449.547,279.631m-8.44,0a8.44,8.44 0,1 1,16.88 0a8.44,8.44 0,1 1,-16.88 0" fill="#efcd76"/>
  <path d="M415.789,245.873m-8.44,0a8.44,8.44 0,1 1,16.88 0a8.44,8.44 0,1 1,-16.88 0" fill="#efcd76"/>
</svg>
