<?xml version="1.0" ?>
<svg height="511.99976" viewBox="0 0 511 511.99976" width="511" xmlns="http://www.w3.org/2000/svg">
  <path d="m300.637,47.164c-0.977,-1.227 -2.594,-1.766 -4.121,-1.395l-19.848,4.965 -16.418,-49.266c-1.102,-3.293 -6.555,-3.293 -7.656,0l-16.422,49.266 -19.844,-4.965c-1.523,-0.359 -3.137,0.168 -4.121,1.395 -0.984,1.23 -1.164,2.914 -0.465,4.324l41.07,82.141c0.684,1.363 2.078,2.23 3.609,2.23 1.527,0 2.922,-0.867 3.605,-2.23l41.07,-82.141c0.703,-1.41 0.523,-3.094 -0.461,-4.324zM300.637,47.164" fill="#96d7a5"/>
  <path d="m259.645,177.727 l-53.742,-71.52c-0.941,-1.254 -2.543,-1.859 -4.07,-1.516 -1.543,0.332 -2.75,1.531 -3.09,3.066l-4.277,19.355 -49.996,-7.09c-1.703,-0.203 -3.402,0.637 -4.176,2.191 -0.781,1.559 -0.473,3.434 0.754,4.656l35.738,35.664 -12.898,15.07c-1.023,1.199 -1.258,2.883 -0.598,4.309 0.664,1.438 2.09,2.352 3.664,2.352l89.469,-0.078c1.527,0 2.93,-0.867 3.605,-2.23 0.688,-1.371 0.539,-3.012 -0.383,-4.23zM259.645,177.727" fill="#78c3a5"/>
  <path d="m372.551,122.215c-0.773,-1.551 -2.469,-2.402 -4.176,-2.191l-50,7.094 -4.277,-19.359c-0.34,-1.535 -1.543,-2.734 -3.086,-3.063 -1.539,-0.348 -3.129,0.258 -4.074,1.512l-53.738,71.52c-0.922,1.223 -1.07,2.859 -0.387,4.23 0.676,1.363 2.078,2.23 3.609,2.23l89.465,0.078c1.578,0 3.004,-0.914 3.664,-2.348 0.664,-1.426 0.426,-3.109 -0.598,-4.309l-12.898,-15.07 35.738,-35.668c1.23,-1.223 1.535,-3.098 0.758,-4.656zM372.551,122.215" fill="#b4e6a0"/>
  <path d="m373,301.645 l37.871,-61.184c0.844,-1.371 2.41,-2.063 4,-1.875 1.594,0.23 2.891,1.379 3.316,2.922l4.469,16.27 42.891,-8.301c1.668,-0.301 3.426,0.48 4.277,1.984 0.852,1.512 0.637,3.395 -0.52,4.688l-29.324,32.371 11.598,12.25c1.102,1.168 1.41,2.887 0.777,4.367 -0.637,1.473 -2.086,2.434 -3.691,2.441l-72.223,0.219c-0.008,0 -0.008,0 -0.016,0 -1.461,0 -2.805,-0.785 -3.523,-2.063 -0.715,-1.285 -0.676,-2.844 0.098,-4.09zM373,301.645" fill="#96d7a5"/>
  <path d="m293.898,258.891c0.922,-1.277 2.531,-1.914 4.051,-1.594l16.031,3.16 11.395,-40.902c0.465,-1.68 1.945,-2.863 3.68,-2.949 1.938,-0.094 3.332,0.953 3.961,2.563l15.434,39.559 15.633,-4.762c1.496,-0.449 3.145,0.008 4.191,1.184 1.047,1.172 1.309,2.859 0.676,4.301l-30.613,69.797c-0.617,1.395 -1.973,2.332 -3.492,2.402 -0.07,0.008 -0.141,0.008 -0.203,0.008 -1.453,0 -2.797,-0.781 -3.516,-2.047l-37.469,-66.371c-0.773,-1.371 -0.68,-3.074 0.242,-4.348zM293.898,258.891" fill="#b4e6a0"/>
  <path d="m331.297,325.359c0.852,-1.262 2.371,-1.953 3.871,-1.742l75.551,9.977c1.563,0.211 2.863,1.309 3.328,2.813s0.016,3.141 -1.16,4.191l-12.164,10.91 25.832,33.688c1.059,1.379 1.121,3.277 0.145,4.719 -0.977,1.445 -2.75,2.113 -4.43,1.625l-40.887,-11.457 -5.605,15.355c-0.543,1.473 -1.891,2.508 -3.465,2.633 -0.102,0.008 -0.215,0.016 -0.324,0.016 -1.449,0 -2.797,-0.781 -3.512,-2.055l-37.352,-66.434c-0.75,-1.328 -0.688,-2.969 0.172,-4.238zM331.297,325.359" fill="#78c3a5"/>
  <path d="m256.422,414.191c4.457,0 8.066,-3.609 8.066,-8.07v-15.574c0,-8.73 4.719,-16.805 12.316,-21.086l116.703,-65.555c3.883,-2.18 5.27,-7.098 3.086,-10.984 -2.18,-3.898 -7.113,-5.27 -10.984,-3.086l-116.711,65.563c-12.676,7.141 -20.547,20.602 -20.547,35.148v15.574c0,4.461 3.609,8.07 8.07,8.07zM256.422,414.191" fill="#96d7a5"/>
  <path d="m139.844,301.645 l-37.871,-61.184c-0.844,-1.371 -2.41,-2.063 -4.004,-1.875 -1.59,0.23 -2.891,1.379 -3.316,2.922l-4.465,16.27 -42.891,-8.301c-1.672,-0.301 -3.426,0.48 -4.277,1.984 -0.852,1.512 -0.641,3.395 0.52,4.688l29.324,32.371 -11.598,12.25c-1.102,1.168 -1.41,2.887 -0.781,4.367 0.641,1.473 2.09,2.434 3.695,2.441l72.223,0.219h0.016c1.457,0 2.805,-0.785 3.523,-2.063 0.715,-1.285 0.676,-2.844 -0.098,-4.09zM139.844,301.645" fill="#96d7a5"/>
  <path d="m218.941,258.891c-0.922,-1.277 -2.527,-1.914 -4.047,-1.594l-16.035,3.16 -11.391,-40.902c-0.465,-1.68 -1.945,-2.863 -3.68,-2.949 -1.938,-0.094 -3.332,0.953 -3.961,2.563l-15.438,39.559 -15.629,-4.762c-1.496,-0.449 -3.145,0.008 -4.191,1.184 -1.047,1.172 -1.309,2.859 -0.68,4.301l30.617,69.797c0.617,1.395 1.969,2.332 3.492,2.402 0.07,0.008 0.141,0.008 0.203,0.008 1.449,0 2.797,-0.781 3.516,-2.047l37.469,-66.371c0.773,-1.371 0.676,-3.074 -0.246,-4.348zM218.941,258.891" fill="#b4e6a0"/>
  <path d="m181.543,325.359c-0.852,-1.262 -2.371,-1.953 -3.867,-1.742l-75.555,9.977c-1.559,0.211 -2.859,1.309 -3.324,2.813s-0.016,3.141 1.16,4.191l12.164,10.91 -25.836,33.688c-1.055,1.379 -1.117,3.277 -0.141,4.719 0.977,1.445 2.75,2.113 4.426,1.625l40.891,-11.457 5.602,15.355c0.543,1.473 1.891,2.508 3.469,2.633 0.102,0.008 0.211,0.016 0.32,0.016 1.453,0 2.797,-0.781 3.516,-2.055l37.352,-66.434c0.746,-1.328 0.684,-2.969 -0.176,-4.238zM181.543,325.359" fill="#78c3a5"/>
  <path d="m256.422,414.191c-4.461,0 -8.07,-3.609 -8.07,-8.07v-15.574c0,-8.73 -4.719,-16.805 -12.313,-21.086l-116.703,-65.555c-3.883,-2.18 -5.27,-7.098 -3.086,-10.984 2.18,-3.898 7.113,-5.27 10.98,-3.086l116.711,65.563c12.676,7.141 20.547,20.602 20.547,35.148v15.574c0,4.461 -3.609,8.07 -8.066,8.07zM256.422,414.191" fill="#96d7a5"/>
  <path d="m256.422,511c-4.461,0 -8.07,-3.609 -8.07,-8.066v-387.242c0,-4.461 3.609,-8.07 8.07,-8.07s8.066,3.609 8.066,8.07v387.242c0,4.457 -3.609,8.066 -8.066,8.066zM256.422,511" fill="#b4e6a0"/>
</svg>
