<?xml version="1.0" encoding="UTF-8"?>
<!DOCTYPE svg PUBLIC "-//W3C//DTD SVG 1.1//EN" "http://www.w3.org/Graphics/SVG/1.1/DTD/svg11.dtd">
<svg xmlns="http://www.w3.org/2000/svg" version="1.1" width="512px" height="512px" style="shape-rendering:geometricPrecision; text-rendering:geometricPrecision; image-rendering:optimizeQuality; fill-rule:evenodd; clip-rule:evenodd" xmlns:xlink="http://www.w3.org/1999/xlink">
<g><path style="opacity:0.99" fill="#a6e8a6" d="M 235.5,-0.5 C 239.5,-0.5 243.5,-0.5 247.5,-0.5C 253.197,2.7028 257.364,7.36947 260,13.5C 260.917,23.5043 261.75,33.5043 262.5,43.5C 261.67,51.9903 261.17,60.657 261,69.5C 260.591,73.2975 259.758,76.9642 258.5,80.5C 255.973,87.8657 251.306,93.5324 244.5,97.5C 237.619,101.009 230.286,102.343 222.5,101.5C 221.783,86.6986 225.283,73.032 233,60.5C 234.167,52.3333 230.667,48.8333 222.5,50C 216.992,55.8455 213.158,62.6788 211,70.5C 208.533,79.0015 207.033,87.6681 206.5,96.5C 195.8,87.7644 190.467,76.4311 190.5,62.5C 191.003,49.8264 195.169,38.4931 203,28.5C 212.191,16.799 223.024,7.13231 235.5,-0.5 Z"/></g>
<g><path style="opacity:0.992" fill="#3bc3a3" d="M 377.5,71.5 C 375.164,76.3495 371.831,80.5161 367.5,84C 328.927,115.811 284.927,127.311 235.5,118.5C 232.478,112.145 227.812,107.478 221.5,104.5C 221.5,103.5 221.5,102.5 221.5,101.5C 216.707,101.176 212.207,99.8431 208,97.5C 206.97,97.8361 206.47,98.5028 206.5,99.5C 198.174,98.3898 190.507,100.056 183.5,104.5C 182.809,102.978 181.642,101.978 180,101.5C 160.081,92.3755 141.081,94.0422 123,106.5C 120.168,115.976 123.668,119.809 133.5,118C 146.43,110.386 159.763,109.552 173.5,115.5C 168.929,128.054 167.262,141.054 168.5,154.5C 167.511,149.025 167.178,143.358 167.5,137.5C 144.964,141.663 122.297,142.496 99.5,140C 83.1578,136.99 68.4911,130.49 55.5,120.5C 63.2872,106.879 73.9539,96.0457 87.5,88C 113.287,71.5154 141.453,62.0154 172,59.5C 178.339,59.7142 184.505,60.7142 190.5,62.5C 190.467,76.4311 195.8,87.7644 206.5,96.5C 207.033,87.6681 208.533,79.0015 211,70.5C 213.158,62.6788 216.992,55.8455 222.5,50C 230.667,48.8333 234.167,52.3333 233,60.5C 225.283,73.032 221.783,86.6986 222.5,101.5C 230.286,102.343 237.619,101.009 244.5,97.5C 244.56,98.0431 244.893,98.3764 245.5,98.5C 262.978,92.8436 280.312,93.177 297.5,99.5C 303.483,98.2001 305.983,94.5334 305,88.5C 303.457,86.6217 301.624,85.1217 299.5,84C 286.092,79.6873 272.425,78.5206 258.5,80.5C 259.758,76.9642 260.591,73.2975 261,69.5C 261.17,60.657 261.67,51.9903 262.5,43.5C 303.402,42.309 341.736,51.6423 377.5,71.5 Z"/></g>
<g><path style="opacity:1" fill="#01a887" d="M 377.5,71.5 C 393.285,79.3617 395.451,90.0284 384,103.5C 377.53,110.814 370.363,117.148 362.5,122.5C 339.904,137.145 315.237,146.479 288.5,150.5C 271.944,152.021 255.611,150.688 239.5,146.5C 240.447,136.76 239.114,127.427 235.5,118.5C 284.927,127.311 328.927,115.811 367.5,84C 371.831,80.5161 375.164,76.3495 377.5,71.5 Z"/></g>
<g><path style="opacity:1" fill="#02a887" d="M 244.5,97.5 C 251.306,93.5324 255.973,87.8657 258.5,80.5C 272.425,78.5206 286.092,79.6873 299.5,84C 301.624,85.1217 303.457,86.6217 305,88.5C 305.983,94.5334 303.483,98.2001 297.5,99.5C 280.312,93.177 262.978,92.8436 245.5,98.5C 244.893,98.3764 244.56,98.0431 244.5,97.5 Z"/></g>
<g><path style="opacity:1" fill="#01a887" d="M 183.5,104.5 C 179.456,107.543 176.123,111.209 173.5,115.5C 159.763,109.552 146.43,110.386 133.5,118C 123.668,119.809 120.168,115.976 123,106.5C 141.081,94.0422 160.081,92.3755 180,101.5C 181.642,101.978 182.809,102.978 183.5,104.5 Z"/></g>
<g><path style="opacity:1" fill="#06a988" d="M 221.5,104.5 C 220.063,120.981 214.397,135.814 204.5,149C 197.647,151.994 193.313,149.827 191.5,142.5C 195.509,135.815 199.009,128.815 202,121.5C 204.454,114.351 205.954,107.017 206.5,99.5C 206.47,98.5028 206.97,97.8361 208,97.5C 212.207,99.8431 216.707,101.176 221.5,101.5C 221.5,102.5 221.5,103.5 221.5,104.5 Z"/></g>
<g><path style="opacity:0.995" fill="#7edaad" d="M 206.5,99.5 C 205.954,107.017 204.454,114.351 202,121.5C 199.009,128.815 195.509,135.815 191.5,142.5C 193.313,149.827 197.647,151.994 204.5,149C 214.397,135.814 220.063,120.981 221.5,104.5C 227.812,107.478 232.478,112.145 235.5,118.5C 239.114,127.427 240.447,136.76 239.5,146.5C 238.662,146.842 238.328,147.508 238.5,148.5C 234.15,159.532 228.483,169.865 221.5,179.5C 213.259,187.62 204.259,194.787 194.5,201C 183.538,203.435 175.704,199.602 171,189.5C 169.478,181.924 168.644,174.257 168.5,166.5C 168.5,162.5 168.5,158.5 168.5,154.5C 167.262,141.054 168.929,128.054 173.5,115.5C 176.123,111.209 179.456,107.543 183.5,104.5C 190.507,100.056 198.174,98.3898 206.5,99.5 Z"/></g>
<g><path style="opacity:1" fill="#01a887" d="M 55.5,120.5 C 68.4911,130.49 83.1578,136.99 99.5,140C 122.297,142.496 144.964,141.663 167.5,137.5C 167.178,143.358 167.511,149.025 168.5,154.5C 168.5,158.5 168.5,162.5 168.5,166.5C 138.044,174.158 108.044,172.658 78.5,162C 69.6459,158.815 62.1459,153.648 56,146.5C 51.5532,137.881 51.3865,129.215 55.5,120.5 Z"/></g>
<g><path style="opacity:0.995" fill="#3ac2a3" d="M 425.5,126.5 C 431.119,137.661 430.619,148.661 424,159.5C 396.515,198.841 359.682,225.341 313.5,239C 302.59,241.004 291.59,241.837 280.5,241.5C 274.766,237.421 270.433,232.087 267.5,225.5C 267.859,223.629 268.859,222.129 270.5,221C 297.953,197.178 329.953,185.178 366.5,185C 369.394,182.091 370.227,178.591 369,174.5C 365.425,171.034 361.092,169.7 356,170.5C 320.608,172.456 289.441,184.789 262.5,207.5C 262.775,184.62 271.442,165.62 288.5,150.5C 315.237,146.479 339.904,137.145 362.5,122.5C 383.733,120.775 404.733,122.108 425.5,126.5 Z"/></g>
<g><path style="opacity:1" fill="#01a887" d="M 425.5,126.5 C 435.171,127.332 444.171,130.165 452.5,135C 462.785,146.303 464.285,158.803 457,172.5C 431.579,209.902 397.412,236.068 354.5,251C 338.786,256.006 322.786,257.339 306.5,255C 296.492,252.831 287.825,248.331 280.5,241.5C 291.59,241.837 302.59,241.004 313.5,239C 359.682,225.341 396.515,198.841 424,159.5C 430.619,148.661 431.119,137.661 425.5,126.5 Z"/></g>
<g><path style="opacity:0.979" fill="#01a887" d="M 238.5,148.5 C 237.724,173.932 238.891,199.265 242,224.5C 242.333,224.833 242.667,225.167 243,225.5C 249.07,218.926 255.57,212.926 262.5,207.5C 289.441,184.789 320.608,172.456 356,170.5C 361.092,169.7 365.425,171.034 369,174.5C 370.227,178.591 369.394,182.091 366.5,185C 329.953,185.178 297.953,197.178 270.5,221C 268.859,222.129 267.859,223.629 267.5,225.5C 259.287,232.545 251.954,240.378 245.5,249C 250.632,279.997 257.799,310.497 267,340.5C 270.319,335.017 274.486,330.351 279.5,326.5C 297.943,313.218 318.609,307.052 341.5,308C 345.982,311.705 346.649,316.038 343.5,321C 342.167,321.667 340.833,322.333 339.5,323C 324.29,323.374 309.957,327.04 296.5,334C 294.382,335.049 292.716,336.549 291.5,338.5C 288.5,339.5 286.5,341.5 285.5,344.5C 280.167,349.693 276.167,355.859 273.5,363C 286.96,402.915 302.627,441.915 320.5,480C 319.655,484.845 316.822,487.678 312,488.5C 309.169,488.042 306.836,486.708 305,484.5C 292.027,457.246 280.027,429.579 269,401.5C 258.005,405.737 248.505,412.07 240.5,420.5C 232.072,425.649 226.238,432.982 223,442.5C 220.908,449.517 218.908,456.517 217,463.5C 211.879,467.875 207.545,467.209 204,461.5C 204.058,448.651 207.391,436.651 214,425.5C 216.998,421.008 220.165,416.675 223.5,412.5C 235.12,401.019 248.453,392.019 263.5,385.5C 246.457,336.661 234.124,286.661 226.5,235.5C 219.954,234.907 213.621,236.074 207.5,239C 201.346,241.91 195.346,245.076 189.5,248.5C 175.876,257.624 164.376,268.957 155,282.5C 143.106,299.623 134.44,318.29 129,338.5C 126.091,341.394 122.591,342.227 118.5,341C 115.64,337.319 114.807,333.152 116,328.5C 126.753,292.622 146.253,262.622 174.5,238.5C 189.012,227.434 205.346,220.434 223.5,217.5C 223.833,216.833 224.167,216.167 224.5,215.5C 223.086,203.537 222.086,191.537 221.5,179.5C 228.483,169.865 234.15,159.532 238.5,148.5 Z"/></g>
<g><path style="opacity:0.994" fill="#3ac2a3" d="M 174.5,238.5 C 146.253,262.622 126.753,292.622 116,328.5C 114.807,333.152 115.64,337.319 118.5,341C 122.591,342.227 126.091,341.394 129,338.5C 134.44,318.29 143.106,299.623 155,282.5C 164.376,268.957 175.876,257.624 189.5,248.5C 194.008,251.253 198.341,254.253 202.5,257.5C 206.221,280.138 202.054,301.471 190,321.5C 163.41,360.571 126.91,385.404 80.5,396C 70.9852,397.316 61.6519,397.816 52.5,397.5C 51.0749,394.097 50.2415,390.43 50,386.5C 48.3715,340.346 58.7048,297.013 81,256.5C 88.7533,243.083 98.9199,231.916 111.5,223C 128.564,214.738 144.897,216.072 160.5,227C 165.04,231.046 169.707,234.879 174.5,238.5 Z"/></g>
<g><path style="opacity:1" fill="#01a887" d="M 202.5,257.5 C 220.166,271.176 227.666,289.176 225,311.5C 221.34,332.819 212.34,351.486 198,367.5C 170.32,397.097 136.486,415.93 96.5,424C 86.0562,425.595 76.0562,424.261 66.5,420C 58.4096,414.657 53.7429,407.157 52.5,397.5C 61.6519,397.816 70.9852,397.316 80.5,396C 126.91,385.404 163.41,360.571 190,321.5C 202.054,301.471 206.221,280.138 202.5,257.5 Z"/></g>
<g><path style="opacity:0.985" fill="#a6e8a5" d="M 383.5,299.5 C 382.604,304.458 380.271,308.624 376.5,312C 362.643,320.43 348.31,328.097 333.5,335C 319.862,341.772 305.862,342.939 291.5,338.5C 292.716,336.549 294.382,335.049 296.5,334C 309.957,327.04 324.29,323.374 339.5,323C 340.833,322.333 342.167,321.667 343.5,321C 346.649,316.038 345.982,311.705 341.5,308C 318.609,307.052 297.943,313.218 279.5,326.5C 280.838,304.995 291.838,291.161 312.5,285C 338.09,280.481 361.756,285.315 383.5,299.5 Z"/></g>
<g><path style="opacity:1" fill="#80dbad" d="M 383.5,299.5 C 390.453,302.65 394.12,308.15 394.5,316C 394.291,324.089 390.958,330.422 384.5,335C 371.085,342.736 357.418,350.069 343.5,357C 331.64,362.478 319.306,364.145 306.5,362C 296.895,359.223 289.895,353.389 285.5,344.5C 286.5,341.5 288.5,339.5 291.5,338.5C 305.862,342.939 319.862,341.772 333.5,335C 348.31,328.097 362.643,320.43 376.5,312C 380.271,308.624 382.604,304.458 383.5,299.5 Z"/></g>
<g><path style="opacity:0.989" fill="#a6e8a5" d="M 223.5,412.5 C 220.165,416.675 216.998,421.008 214,425.5C 207.391,436.651 204.058,448.651 204,461.5C 207.545,467.209 211.879,467.875 217,463.5C 218.908,456.517 220.908,449.517 223,442.5C 226.238,432.982 232.072,425.649 240.5,420.5C 241.167,420.5 241.5,420.833 241.5,421.5C 240.957,421.56 240.624,421.893 240.5,422.5C 245.077,435.184 244.244,447.517 238,459.5C 221.52,484.831 198.02,497.831 167.5,498.5C 168.698,473.338 174.531,449.338 185,426.5C 188.833,420 194,414.833 200.5,411C 208.481,408.666 216.148,409.166 223.5,412.5 Z"/></g>
<g><path style="opacity:1" fill="#80dbad" d="M 241.5,421.5 C 255.946,429.621 261.446,441.955 258,458.5C 251.215,481.29 236.715,497.123 214.5,506C 208.172,508.327 201.838,510.16 195.5,511.5C 188.833,511.5 182.167,511.5 175.5,511.5C 170.411,508.728 167.745,504.394 167.5,498.5C 198.02,497.831 221.52,484.831 238,459.5C 244.244,447.517 245.077,435.184 240.5,422.5C 240.624,421.893 240.957,421.56 241.5,421.5 Z"/></g>
</svg>
