<?xml version="1.0" ?>
<svg height="351.998" viewBox="0 0 351.998 351.998" width="351.998" xmlns="http://www.w3.org/2000/svg">
  <path d="M300,159.655c0.919,-0.622 1.913,-1.163 2.991,-1.583l28.3,-11.032c7.815,-3.046 16.62,0.819 19.666,8.635c3.046,7.814 -0.819,16.619 -8.634,19.665l-1.691,0.659l1.691,0.659c7.815,3.046 11.681,11.851 8.634,19.665c-3.046,7.815 -11.852,11.681 -19.666,8.635l-28.3,-11.032c-1.078,-0.42 -2.071,-0.961 -2.991,-1.583L300,159.655L300,159.655z" fill="#BD3C1A"/>
  <path d="M260,115.999H50l-50,120h260c33.137,0 60,-26.863 60,-60S293.137,115.999 260,115.999z" fill="#FF5023"/>
  <path d="M50,115.999l-50,120l160,0l0,-120z" fill="#BD3C1A"/>
  <path d="M80,115.999l-30,0l-50,120l30,0z" fill="#802812"/>
  <path d="M265,160.999m-15,0a15,15 0,1 1,30 0a15,15 0,1 1,-30 0" fill="#BD3C1A"/>
  <path d="M200,195.999m-10,0a10,10 0,1 1,20 0a10,10 0,1 1,-20 0" fill="#BD3C1A"/>
  <path d="M110,165.999m-10,0a10,10 0,1 1,20 0a10,10 0,1 1,-20 0" fill="#802812"/>
</svg>
