<?xml version="1.0" encoding="UTF-8"?>
<svg viewBox="0 0 512 512" xmlns="http://www.w3.org/2000/svg">
<path d="m256 256m-256 0a256 256 0 1 1 512 0 256 256 0 1 1-512 0" fill="#F7F0E6"/>
<path d="m427 346.51c-2.72-9.8-6.506-19.956-11.416-30.141-4.907-10.185-10.519-19.527-16.534-27.854-1.192-1.649-2.701-2.934-4.337-4.023 2.913-5.288 3.373-11.714 0.897-17.418-0.954-2.2-2.188-4.427-3.243-6.639 5.257-5.786 10.396-11.945 15.168-18.812 6.451-9.284 11.79-18.719 16.02-27.968 2.813-6.148 1.423-13.27-3.493-17.911-7.396-6.98-15.889-13.717-25.356-19.896-9.315-6.081-18.79-11.086-28.1-15.073 1.558-3.207 2.119-6.868 1.216-10.536-2.433-9.875-5.921-20.138-10.53-30.462s-9.945-19.826-15.715-28.326c-3.836-5.651-10.772-8.422-17.447-6.968-10.038 2.185-20.452 5.397-30.905 9.704-9.939 4.095-19.038 8.883-27.279 14.051-4.366-4.196-9.026-8.31-13.977-12.296-9.956-8.013-20.222-14.826-30.408-20.406-6.772-3.71-15.179-2.923-21.145 1.977-8.974 7.371-17.799 15.968-26.098 25.688-7.719 9.041-14.255 18.334-19.812 27.578-1.306-0.147-2.671-0.43-3.966-0.551-8.221-0.768-16.139 3.57-19.917 10.912-1.873 3.639-3.543 7.582-5.26 11.458-3.689-1.772-7.913-2.348-11.987-1.135-9.846 2.931-19.991 6.912-30.092 11.989-10.101 5.078-19.297 10.818-27.431 16.925-5.407 4.06-7.586 10.98-5.482 17.406 3.166 9.665 7.412 19.639 12.78 29.589 3.407 6.316 7.149 12.135 11.012 17.706-5.302 3.261-10.36 6.663-15.112 10.184-6.473 4.798-9.399 13.109-7.36 20.904 3.066 11.724 7.361 23.842 12.949 35.953s11.993 23.178 18.873 33.009c3.343 4.778 8.57 7.521 14.125 7.814-4.646 2.428-9.085 4.983-13.261 7.656-5.696 3.644-8.387 10.382-6.77 16.947 2.434 9.875 5.922 20.138 10.53 30.462s9.944 19.826 15.714 28.326c3.837 5.652 10.773 8.422 17.447 6.968 10.039-2.186 20.452-5.397 30.905-9.704 8.916-3.673 17.055-7.956 24.618-12.514 4.849 1.923 9.736 3.822 14.9 5.463 3.124 0.992 6.189 1.668 9.289 2.51 0.06 2.547 0.567 5.1 1.905 7.439 5.048 8.829 11.219 17.741 18.483 26.406 7.264 8.664 15.001 16.338 22.881 22.929 5.239 4.383 12.669 5.144 18.689 1.917 9.054-4.855 18.187-10.801 27.058-17.81 8.871-7.01 16.721-14.485 23.456-22.106 4.478-5.066 5.218-12.285 1.862-18.154-2.849-4.982-6.146-9.977-9.704-14.954 7.545 1.199 14.993 2.115 22.161 2.467 7.757 0.381 15.018-4.025 18.263-11.082 2.43-5.284 4.691-10.828 6.749-16.598 2.91 0.934 6.056 1.162 9.14 0.395 9.971-2.478 20.287-5.992 30.61-10.603 10.322-4.611 19.769-9.926 28.173-15.655 5.58-3.808 8.073-10.622 6.264-17.137z" fill="#EEE2D4"/>
<path d="m256 256m-143.53 0a143.53 143.53 0 1 1 287.05 0 143.53 143.53 0 1 1-287.05 0" fill="#FFB45A"/>
<path d="m358.09 74.931c-3.836-5.651-10.772-8.422-17.446-6.968-10.038 2.186-20.452 5.397-30.905 9.704-10.453 4.308-20.053 9.343-28.62 14.825-5.696 3.644-8.387 10.382-6.77 16.947 2.433 9.875 5.921 20.138 10.53 30.462s9.944 19.826 15.714 28.326c3.836 5.651 10.773 8.422 17.447 6.968 10.038-2.186 20.452-5.397 30.905-9.704 10.453-4.308 20.052-9.343 28.619-14.825 5.696-3.644 8.387-10.382 6.77-16.947-2.433-9.875-5.921-20.139-10.53-30.462s-9.944-19.826-15.714-28.326z" fill="#FFDC8C"/>
<path d="m304.85 156.98c-3.872-12.17-6.589-24.364-8.248-36.177-1.103-7.853 2.268-16.292 8.478-21.225 9.341-7.42 19.712-14.386 30.902-20.54 5.854-3.22 11.666-6.051 17.397-8.546-3.705-2.443-8.245-3.516-12.74-2.536-10.038 2.186-20.452 5.396-30.905 9.704-10.453 4.307-20.052 9.343-28.62 14.825-5.695 3.644-8.387 10.382-6.77 16.947 2.433 9.875 5.922 20.138 10.53 30.462 4.609 10.324 9.944 19.826 15.714 28.327 2.584 3.807 6.613 6.157 10.983 6.94-2.434-5.757-4.695-11.814-6.721-18.181z" fill="#FFCD6E"/>
<path d="m238.07 59.017c-6.772-3.71-15.179-2.924-21.145 1.977-8.974 7.372-17.8 15.968-26.098 25.688-8.299 9.72-15.363 19.734-21.16 29.664-3.853 6.602-3.09 14.769 1.921 20.541 7.537 8.683 16.335 17.213 26.292 25.226s20.222 14.826 30.408 20.406c6.772 3.71 15.179 2.924 21.145-1.977 8.974-7.372 17.8-15.969 26.099-25.689s15.363-19.734 21.16-29.663c3.853-6.601 3.09-14.769-1.92-20.541-7.537-8.683-16.334-17.214-26.292-25.227-9.958-8.012-20.224-14.825-30.41-20.405z" fill="#FFDC8C"/>
<path d="m226.78 169.01c-10.166-10.251-19.183-21.121-26.94-32.152-5.156-7.334-6.113-17.562-2.406-25.725 5.577-12.279 12.423-24.632 20.512-36.59 4.232-6.255 8.62-12.1 13.101-17.564-4.988-0.55-10.108 0.712-14.126 4.012-8.974 7.371-17.8 15.968-26.099 25.688s-15.363 19.734-21.16 29.664c-3.853 6.601-3.09 14.769 1.92 20.541 7.537 8.683 16.335 17.213 26.292 25.226 9.958 8.013 20.222 14.826 30.408 20.406 4.562 2.499 9.827 2.788 14.626 1.324-5.414-4.538-10.809-9.467-16.128-14.83z" fill="#FFCD6E"/>
<path d="m290.49 363.82c-5.239-4.382-12.669-5.144-18.688-1.916-9.054 4.855-18.187 10.799-27.059 17.809-8.871 7.009-16.721 14.485-23.456 22.106-4.478 5.066-5.217 12.285-1.862 18.154 5.048 8.829 11.219 17.741 18.482 26.405 7.264 8.663 15.001 16.338 22.881 22.93 5.239 4.382 12.67 5.144 18.688 1.916 9.054-4.855 18.188-10.799 27.059-17.81 8.871-7.009 16.721-14.485 23.456-22.106 4.478-5.066 5.217-12.285 1.862-18.154-5.048-8.829-11.218-17.742-18.482-26.406-7.263-8.662-15.001-16.337-22.881-22.928z" fill="#FFDC8C"/>
<path d="m261.8 457.33c-7.061-10.641-13.018-21.622-17.855-32.526-3.215-7.25-2.289-16.29 2.33-22.735 6.947-9.697 15.01-19.241 24.084-28.228 4.747-4.702 9.558-9.02 14.385-12.99-4.234-1.333-8.893-1.119-12.948 1.056-9.054 4.855-18.187 10.799-27.059 17.809-8.871 7.009-16.721 14.485-23.456 22.106-4.478 5.066-5.217 12.285-1.862 18.154 5.049 8.829 11.219 17.741 18.482 26.405 7.264 8.664 15.001 16.338 22.881 22.93 3.529 2.952 8.049 4.107 12.465 3.661-3.917-4.87-7.753-10.075-11.447-15.642z" fill="#FFCD6E"/>
<path d="m415.56 272c-4-5.536-11.013-8.104-17.642-6.456-9.97 2.478-20.286 5.992-30.609 10.603s-19.77 9.926-28.174 15.655c-5.587 3.809-8.081 10.623-6.271 17.138 2.721 9.8 6.508 19.957 11.416 30.141 4.908 10.185 10.519 19.527 16.535 27.854 3.999 5.537 11.013 8.104 17.642 6.456 9.971-2.478 20.286-5.992 30.609-10.603s19.77-9.926 28.174-15.655c5.587-3.809 8.079-10.623 6.271-17.138-2.721-9.8-6.507-19.957-11.416-30.142-4.908-10.183-10.519-19.526-16.535-27.853z" fill="#FFDC8C"/>
<path d="m364.75 355.57c-4.225-12.051-7.297-24.161-9.302-35.919-1.332-7.818 1.791-16.352 7.854-21.463 9.12-7.689 19.283-14.956 30.289-21.433 5.758-3.389 11.484-6.39 17.14-9.05-3.776-2.334-8.344-3.273-12.809-2.163-9.97 2.478-20.286 5.992-30.609 10.603s-19.77 9.926-28.174 15.655c-5.587 3.809-8.079 10.623-6.271 17.138 2.721 9.8 6.508 19.957 11.416 30.141 4.908 10.185 10.519 19.527 16.535 27.854 2.695 3.73 6.79 5.962 11.18 6.615-2.601-5.686-5.038-11.673-7.249-17.978z" fill="#FFCD6E"/>
<path d="m382.66 144.04c-6.286-2.67-13.618-1.24-18.439 3.596-7.253 7.276-14.265 15.618-20.716 24.903-6.452 9.284-11.79 18.719-16.021 27.968-2.813 6.148-1.423 13.27 3.493 17.911 7.396 6.98 15.89 13.717 25.357 19.896 9.468 6.179 19.101 11.274 28.556 15.292 6.286 2.671 13.618 1.241 18.439-3.596 7.253-7.276 14.265-15.618 20.716-24.903 6.452-9.284 11.79-18.719 16.021-27.968 2.813-6.148 1.423-13.27-3.493-17.911-7.396-6.982-15.89-13.717-25.357-19.896-9.468-6.179-19.101-11.274-28.556-15.292z" fill="#FFDC8C"/>
<path d="m382.38 241.85c-9.848-8.13-18.739-16.907-26.535-25.935-5.183-6.003-6.923-14.922-4.375-22.432 3.83-11.297 8.771-22.772 14.842-34.008 3.176-5.878 6.526-11.407 9.99-16.609-4.439-0.045-8.834 1.514-12.082 4.772-7.252 7.276-14.265 15.618-20.716 24.903-6.452 9.284-11.79 18.719-16.021 27.968-2.813 6.148-1.423 13.27 3.493 17.911 7.396 6.98 15.89 13.717 25.357 19.896 9.468 6.179 19.101 11.274 28.556 15.292 4.234 1.8 8.895 1.592 12.991-0.118-5.165-3.521-10.348-7.386-15.5-11.64z" fill="#FFCD6E"/>
<path d="m147.81 140.59c-4.248-5.348-11.372-7.592-17.919-5.644-9.847 2.931-19.991 6.912-30.093 11.989s-19.297 10.817-27.431 16.925c-5.407 4.06-7.587 10.98-5.482 17.406 3.166 9.665 7.412 19.639 12.78 29.589s11.4 19.027 17.79 27.071c4.248 5.348 11.372 7.593 17.919 5.644 9.847-2.931 19.991-6.912 30.093-11.989s19.297-10.817 27.431-16.924c5.407-4.06 7.587-10.98 5.483-17.406-3.165-9.665-7.411-19.639-12.779-29.589-5.371-9.951-11.402-19.028-17.792-27.072z" fill="#FFDC8C"/>
<path d="m100.86 226.4c-4.771-11.846-8.393-23.802-10.931-35.458-1.688-7.748 1.043-16.417 6.867-21.799 8.76-8.097 18.58-15.82 29.279-22.794 5.597-3.648 11.18-6.908 16.708-9.824-3.879-2.159-8.484-2.889-12.895-1.576-9.846 2.931-19.991 6.911-30.093 11.989-10.102 5.077-19.297 10.817-27.431 16.925-5.407 4.06-7.586 10.98-5.483 17.406 3.166 9.665 7.412 19.639 12.78 29.589s11.4 19.027 17.79 27.071c2.861 3.603 7.055 5.645 11.47 6.099-2.858-5.56-5.565-11.43-8.061-17.628z" fill="#FFCD6E"/>
<path d="m177.86 326.52c-3.836-5.651-10.772-8.422-17.446-6.968-10.038 2.186-20.452 5.397-30.905 9.704s-20.053 9.343-28.62 14.825c-5.696 3.644-8.387 10.382-6.77 16.947 2.433 9.875 5.921 20.138 10.53 30.462s9.944 19.826 15.714 28.326c3.836 5.651 10.773 8.422 17.447 6.968 10.038-2.186 20.452-5.397 30.905-9.704 10.453-4.308 20.052-9.343 28.619-14.825 5.696-3.644 8.387-10.382 6.77-16.947-2.433-9.875-5.921-20.139-10.53-30.462s-9.944-19.826-15.714-28.326z" fill="#FFDC8C"/>
<path d="m124.62 408.57c-3.872-12.17-6.589-24.364-8.248-36.177-1.103-7.853 2.268-16.292 8.478-21.225 9.341-7.42 19.712-14.386 30.902-20.54 5.854-3.22 11.666-6.051 17.397-8.546-3.705-2.443-8.245-3.516-12.74-2.536-10.038 2.186-20.452 5.396-30.905 9.704-10.453 4.307-20.052 9.343-28.62 14.825-5.695 3.644-8.387 10.382-6.77 16.947 2.433 9.875 5.922 20.138 10.53 30.462 4.609 10.324 9.944 19.826 15.714 28.327 2.584 3.807 6.613 6.157 10.983 6.94-2.435-5.758-4.696-11.815-6.721-18.181z" fill="#FFCD6E"/>
<path d="m75.563 238.74c-6.473 4.798-9.399 13.109-7.361 20.904 3.068 11.725 7.361 23.842 12.949 35.953 5.588 12.11 11.993 23.178 18.872 33.009 4.574 6.535 12.647 9.378 20.306 7.15 11.52-3.351 23.447-7.965 35.39-13.901 11.943-5.937 22.882-12.691 32.618-19.907 6.473-4.798 9.4-13.109 7.361-20.904-3.068-11.725-7.361-23.843-12.949-35.953s-11.993-23.178-18.872-33.007c-4.574-6.535-12.647-9.378-20.306-7.15-11.52 3.351-23.447 7.964-35.39 13.901s-22.882 12.689-32.618 19.905z" fill="#FFCD6E"/>
<path d="m174.88 297.48c-14.155 5.159-28.394 8.957-42.237 11.49-9.203 1.685-19.315-1.876-25.431-8.954-9.202-10.647-17.92-22.53-25.72-35.42-4.081-6.742-7.703-13.454-10.924-20.087-2.699 4.488-3.74 9.89-2.366 15.14 3.066 11.724 7.361 23.842 12.949 35.953 5.588 12.11 11.993 23.178 18.872 33.009 4.574 6.535 12.648 9.378 20.306 7.15 11.52-3.351 23.447-7.965 35.39-13.901 11.944-5.938 22.882-12.691 32.619-19.907 4.361-3.232 6.934-8.096 7.642-13.284-6.666 3.151-13.695 6.111-21.1 8.811z" fill="#FFB45A"/>
<path d="m167.05 113.71c-8.221-0.768-16.139 3.57-19.916 10.912-5.682 11.043-10.696 23.225-14.718 36.287s-6.708 25.888-8.184 38.093c-0.982 8.115 3.233 15.807 10.6 19.347 11.082 5.325 23.336 9.965 36.51 13.607 13.173 3.641 26.138 5.973 38.504 7.128 8.221 0.768 16.139-3.57 19.917-10.912 5.682-11.043 10.696-23.225 14.718-36.288s6.708-25.888 8.184-38.093c0.982-8.115-3.233-15.807-10.6-19.347-11.082-5.325-23.336-9.965-36.51-13.607-13.174-3.64-26.14-5.971-38.505-7.127z" fill="#FFCD6E"/>
<path d="m202.64 226.47c-14.327-5.749-27.79-12.593-40.084-20.13-8.173-5.011-13.451-14.645-13.274-24.23 0.265-14.418 1.742-29.448 4.61-44.618 1.5-7.936 3.328-15.534 5.408-22.797-5.129 1.577-9.619 4.986-12.163 9.932-5.682 11.043-10.696 23.225-14.718 36.287s-6.708 25.888-8.184 38.093c-0.982 8.114 3.233 15.807 10.6 19.347 11.082 5.325 23.337 9.965 36.509 13.606 13.173 3.641 26.138 5.973 38.504 7.129 5.537 0.518 10.828-1.432 14.919-4.906-7.243-2.156-14.631-4.706-22.127-7.713z" fill="#FFB45A"/>
<path d="m298.88 284.63c-7.757-0.381-15.018 4.025-18.263 11.082-4.881 10.614-9.087 22.27-12.323 34.712s-5.228 24.607-6.109 36.138c-0.586 7.667 3.694 14.72 10.765 17.741 10.635 4.544 22.344 8.395 34.874 11.27 12.531 2.874 24.811 4.526 36.479 5.099 7.757 0.381 15.019-4.025 18.263-11.082 4.881-10.614 9.087-22.271 12.323-34.712s5.228-24.606 6.109-36.138c0.586-7.666-3.694-14.72-10.764-17.74-10.635-4.544-22.344-8.395-34.874-11.27-12.53-2.874-24.812-4.528-36.48-5.1z" fill="#FFCD6E"/>
<path d="m337.01 389.11c-13.703-4.807-26.638-10.679-38.504-17.251-7.889-4.37-13.249-13.204-13.482-22.218-0.351-13.56 0.414-27.746 2.478-42.121 1.079-7.52 2.482-14.737 4.136-21.649-4.755 1.695-8.832 5.086-11.018 9.838-4.881 10.613-9.087 22.27-12.323 34.712-3.238 12.441-5.228 24.606-6.109 36.138-0.586 7.666 3.694 14.72 10.765 17.74 10.635 4.544 22.344 8.395 34.874 11.27 12.531 2.874 24.811 4.526 36.48 5.099 5.226 0.256 10.116-1.795 13.815-5.23-6.894-1.724-13.943-3.813-21.112-6.328z" fill="#FFB45A"/>
<path d="m208.44 291.7c-8.185-1.08-16.263 2.955-20.317 10.147-6.097 10.819-11.57 22.803-16.085 35.702s-7.686 25.614-9.625 37.756c-1.289 8.072 2.631 15.918 9.858 19.735 10.871 5.742 22.941 10.844 35.966 14.983s25.894 6.961 38.206 8.586c8.185 1.08 16.264-2.955 20.317-10.147 6.097-10.819 11.571-22.803 16.085-35.703 4.515-12.899 7.686-25.614 9.624-37.756 1.289-8.072-2.631-15.918-9.857-19.735-10.871-5.742-22.941-10.845-35.967-14.984-13.025-4.137-25.893-6.959-38.205-8.584z" fill="#FFCD6E"/>
<path d="m239.72 405.73c-14.099-6.289-27.292-13.639-39.29-21.638-7.977-5.318-12.886-15.145-12.345-24.716 0.811-14.398 2.859-29.361 6.301-44.41 1.8-7.873 3.915-15.396 6.27-22.575-5.185 1.382-9.802 4.618-12.532 9.463-6.097 10.819-11.571 22.802-16.085 35.702-4.515 12.899-7.686 25.614-9.624 37.756-1.289 8.071 2.631 15.918 9.857 19.735 10.871 5.742 22.942 10.844 35.966 14.983 13.025 4.139 25.894 6.961 38.206 8.586 5.514 0.727 10.876-1.02 15.094-4.335-7.156-2.433-14.441-5.261-21.818-8.551z" fill="#FFB45A"/>
<path d="m276.11 103.38c-8.185-1.08-16.263 2.955-20.317 10.147-6.097 10.819-11.57 22.803-16.085 35.702s-7.686 25.614-9.625 37.756c-1.289 8.072 2.631 15.918 9.858 19.735 10.871 5.742 22.941 10.844 35.966 14.983s25.894 6.961 38.206 8.586c8.185 1.08 16.264-2.955 20.317-10.147 6.097-10.819 11.571-22.803 16.085-35.703 4.515-12.899 7.686-25.614 9.624-37.754 1.289-8.072-2.631-15.918-9.857-19.735-10.871-5.742-22.941-10.845-35.967-14.983-13.026-4.141-25.893-6.963-38.205-8.587z" fill="#FFCD6E"/>
<path d="m307.39 217.41c-14.099-6.289-27.292-13.639-39.29-21.638-7.977-5.318-12.886-15.145-12.345-24.716 0.811-14.398 2.86-29.361 6.301-44.41 1.8-7.873 3.915-15.396 6.27-22.575-5.185 1.382-9.802 4.618-12.532 9.463-6.097 10.819-11.571 22.802-16.085 35.702-4.515 12.899-7.686 25.614-9.624 37.756-1.289 8.071 2.631 15.918 9.857 19.735 10.871 5.742 22.942 10.844 35.966 14.983 13.025 4.139 25.894 6.961 38.206 8.586 5.514 0.727 10.876-1.02 15.094-4.335-7.155-2.434-14.441-5.262-21.818-8.551z" fill="#FFB45A"/>
<path d="m286.93 227.16c-5.662 5.732-7.281 14.394-4.071 21.784 4.828 11.116 10.927 22.433 18.305 33.544s15.403 21.067 23.708 29.727c5.521 5.757 13.934 7.329 21.162 3.955 10.871-5.077 21.95-11.463 32.842-19.159 10.892-7.697 20.668-16.046 29.183-24.67 5.662-5.732 7.281-14.394 4.071-21.785-4.828-11.117-10.927-22.433-18.305-33.545-7.378-11.111-15.403-21.067-23.708-29.727-5.521-5.757-13.934-7.329-21.162-3.955-10.871 5.077-21.95 11.463-32.842 19.159-10.892 7.699-20.666 16.049-29.183 24.672z" fill="#FFCD6E"/>
<path d="m394.07 269.98c-13.197 7.266-26.687 13.202-39.977 17.826-8.836 3.074-19.374 1.106-26.503-4.952-10.724-9.111-21.161-19.519-30.844-31.06-5.066-6.038-9.674-12.115-13.873-18.176-1.98 4.847-2.18 10.346-0.019 15.325 4.828 11.116 10.926 22.433 18.305 33.544 7.378 11.111 15.403 21.067 23.708 29.727 5.521 5.757 13.934 7.329 21.162 3.955 10.871-5.077 21.95-11.463 32.842-19.159 10.892-7.697 20.668-16.046 29.184-24.67 3.814-3.862 5.612-9.063 5.517-14.298-6.106 4.133-12.598 8.136-19.502 11.938z" fill="#FFB45A"/>
<path d="m263.88 191.68c-6.84-4.623-15.87-4.623-22.71 0-10.289 6.955-20.54 15.23-30.344 24.753-9.803 9.523-18.322 19.481-25.481 29.475-4.76 6.645-4.76 15.416 0 22.06 7.16 9.995 15.678 19.951 25.481 29.475 9.803 9.523 20.054 17.798 30.343 24.753 6.84 4.623 15.87 4.623 22.71 0 10.289-6.955 20.541-15.23 30.344-24.753s18.322-19.48 25.481-29.475c4.76-6.645 4.76-15.415 0-22.06-7.159-9.995-15.678-19.953-25.481-29.475-9.804-9.524-20.055-17.798-30.343-24.753z" fill="#FFDC8C"/>
<path d="m240.91 307.66c-9.803-11.926-18.322-24.396-25.481-36.914-4.76-8.322-4.76-19.307 0-27.628 7.159-12.518 15.678-24.989 25.481-36.915 5.128-6.239 10.382-12.024 15.698-17.395-5.256-1.081-10.831-0.249-15.439 2.866-10.289 6.955-20.54 15.229-30.344 24.753-9.803 9.523-18.322 19.48-25.481 29.475-4.759 6.644-4.759 15.416 0 22.06 7.16 9.995 15.678 19.953 25.481 29.474 9.803 9.523 20.054 17.798 30.343 24.753 4.608 3.115 10.185 3.947 15.441 2.866-5.317-5.37-10.571-11.156-15.699-17.395z" fill="#FFCD6E"/>
</svg>
