<svg height="512pt" viewBox="0 -19 512.00007 512" width="512pt" xmlns="http://www.w3.org/2000/svg"><path d="m123.992188 426.746094s-42.675782 2.921875-82.066407-21.882813c-39.125-24.636719-73.3125-117.082031 6.566407-179.453125 79.875-62.371094 98.476562-97.386718 98.476562-97.386718h26.261719v298.722656zm0 0" fill="#fff3d7"/><path d="m135.480469 377.929688h-49.238281s-40.519532 2.765624-79.035157-20.039063c7.789063 21.214844 20.941407 38.300781 34.71875 46.972656 39.390625 24.804688 82.066407 21.886719 82.066407 21.886719h49.242187zm0 0" fill="#f9dbaa"/><path d="m268.429688 426.746094s42.675781 2.921875 82.066406-21.882813c39.128906-24.636719 73.3125-117.082031-6.5625-179.453125-79.878906-62.371094-98.480469-97.386718-98.480469-97.386718h-26.261719v298.722656zm0 0" fill="#fff3d7"/><path d="m366.316406 246.984375c16.640625 51.007813-8.722656 103.011719-36.609375 120.570313-39.390625 24.800781-82.066406 21.882812-82.066406 21.882812h-28.449219v37.3125h49.238282s42.675781 2.917969 82.066406-21.886719c34.816406-21.921875 65.722656-97.539062 15.820312-157.878906zm0 0" fill="#f9dbaa"/><path d="m196.210938 443.160156c96.292968 0 134.050781-68.492187 121.460937-143.34375-7.101563-42.203125-32.28125-77.6875-53.617187-122.550781-29.792969-62.644531-39.386719-127.441406-42.414063-158.480469-1.039063-10.652344-9.976563-18.785156-20.679687-18.785156h-9.5c-10.703126 0-19.636719 8.132812-20.675782 18.785156-3.027344 31.039063-12.621094 95.835938-42.414062 158.480469-21.339844 44.863281-46.519532 80.347656-53.617188 122.550781-12.59375 74.851563 25.164063 143.34375 121.457032 143.34375zm0 0" fill="#fff3d7"/><path d="m317.671875 299.816406c-4.203125-24.972656-14.734375-47.59375-27.054687-71.199218 1.257812 4.695312 2.324218 9.453124 3.136718 14.300781 12.59375 74.847656-25.164062 143.34375-121.457031 143.34375-45.863281 0-78.4375-15.542969-98.625-39.90625 7.324219 54.472656 46.839844 96.804687 122.539063 96.804687 96.292968 0 134.050781-68.492187 121.460937-143.34375zm0 0" fill="#f9dbaa"/><path d="m296.121094 383.808594c-13.726563 9.679687-12.941406 30.226562 1.425781 38.925781 54.355469 32.921875 126.113281 25.910156 173.0625-21.035156 46.910156-46.910157 53.945313-118.597657 21.109375-172.9375-8.707031-14.410157-29.339844-15.148438-38.984375-1.347657l-41.710937 59.675782c-14.296876 20.457031-32.039063 38.273437-52.433594 52.660156zm0 0" fill="#fff3d7"/><g fill="#f9dbaa"><path d="m506.59375 263.066406c-2.589844 32.285156-16.222656 63.855469-40.921875 88.554688-43.871094 43.871094-109.410156 52.855468-162.167969 26.976562l-7.382812 5.210938c-13.726563 9.675781-12.941406 30.226562 1.425781 38.925781 54.355469 32.921875 126.113281 25.910156 173.0625-21.035156 37.539063-37.542969 49.515625-90.945313 35.984375-138.632813zm0 0"/><path d="m130.558594 468.460938c-4.300782 0-7.789063-3.488282-7.789063-7.792969 0-15.964844 11-30.410157 11.46875-31.019531 2.628907-3.40625 7.519531-4.039063 10.925781-1.410157 3.402344 2.625 4.039063 7.503907 1.425782 10.910157-.082032.109374-8.242188 10.925781-8.242188 21.519531 0 4.304687-3.488281 7.792969-7.789062 7.792969zm0 0"/><path d="m261.867188 468.460938c-4.304688 0-7.792969-3.488282-7.792969-7.792969 0-10.542969-8.144531-21.394531-8.226563-21.5-2.625-3.40625-1.996094-8.300781 1.410156-10.929688 3.410157-2.628906 8.300782-1.996093 10.929688 1.410157.464844.609374 11.46875 15.050781 11.46875 31.019531 0 4.304687-3.488281 7.792969-7.789062 7.792969zm0 0"/><path d="m196.210938 473.929688c-4.300782 0-7.789063-3.484376-7.789063-7.789063v-22.980469c0-4.300781 3.488281-7.789062 7.789063-7.789062 4.304687 0 7.792968 3.488281 7.792968 7.789062v22.980469c0 4.300781-3.488281 7.789063-7.792968 7.789063zm0 0"/><path d="m226.851562 466.269531c-4.304687 0-7.792968-3.484375-7.792968-7.789062 0-6.398438-3.316406-12.488281-3.347656-12.546875-2.136719-3.738282-.839844-8.496094 2.898437-10.628906 3.734375-2.136719 8.492187-.839844 10.628906 2.898437.550781.96875 5.402344 9.757813 5.402344 20.277344 0 4.304687-3.488281 7.789062-7.789063 7.789062zm0 0"/><path d="m165.574219 466.269531c-4.304688 0-7.789063-3.484375-7.789063-7.789062 0-10.519531 4.847656-19.308594 5.402344-20.277344 2.136719-3.738281 6.894531-5.035156 10.628906-2.898437 3.726563 2.128906 5.027344 6.867187 2.914063 10.597656-.109375.199218-3.367188 6.179687-3.367188 12.578125 0 4.304687-3.488281 7.789062-7.789062 7.789062zm0 0"/></g></svg>