<?xml version="1.0" ?>
<svg height="512" viewBox="0 0 512 512" width="512" xmlns="http://www.w3.org/2000/svg">
  <path d="M241.003,15h30v108.351h-30z" fill="#C27B48"/>
  <path d="M424.022,45.031l-9.47,10.2c-1.32,1.43 -32.78,34.84 -73.241,34.84s-71.921,-33.41 -73.241,-34.84l-9.47,-10.2l9.47,-10.2C269.39,33.41 300.85,0 341.311,0s71.921,33.41 73.241,34.83L424.022,45.031z" fill="#11A892"/>
  <path d="M424.022,45.031l-9.47,10.2c-1.32,1.43 -32.78,34.84 -73.241,34.84s-71.921,-33.41 -73.241,-34.84l-9.47,-10.2H424.022z" fill="#0F9887"/>
  <path d="M256.003,15h15v108.351h-15z" fill="#A66235"/>
  <path d="M466.692,286.693c-0.92,71.201 -19.2,128.312 -54.311,169.742c-35.96,42.44 -75.921,52.011 -87.311,53.931c-6.78,1.15 -13.28,1.63 -19.41,1.63c-22.36,0 -39.97,-6.45 -49.661,-11.03c-12.35,5.84 -37.58,14.72 -69.071,9.4c-11.39,-1.92 -51.351,-11.49 -87.311,-53.931c-35.11,-41.43 -53.391,-98.541 -54.311,-169.742c-0.44,-33.43 4.74,-63.141 15.39,-88.301c9.77,-23.07 24.13,-42.441 42.701,-57.581c46.101,-37.59 108.391,-41.66 152.602,-32.79c44.211,-8.87 106.501,-4.8 152.602,32.79c18.57,15.14 32.93,34.51 42.701,57.581C461.952,223.553 467.132,253.263 466.692,286.693z" fill="#FFB13B"/>
  <path d="M466.692,286.693c-0.92,71.201 -19.2,128.312 -54.311,169.742c-35.96,42.44 -75.921,52.011 -87.311,53.931c-6.78,1.15 -13.28,1.63 -19.41,1.63c-22.36,0 -39.97,-6.45 -49.661,-11.03V108.021c44.211,-8.87 106.501,-4.8 152.602,32.79c18.57,15.14 32.93,34.51 42.701,57.581C461.952,223.553 467.132,253.263 466.692,286.693z" fill="#FF9500"/>
  <path d="M345.251,308.364c0,34.7 -15.11,63.301 -43.701,82.711c-20.88,14.17 -41.82,18.33 -42.71,18.5l-2.84,0.55l-2.84,-0.55c-0.89,-0.17 -21.83,-4.33 -42.71,-18.5c-28.59,-19.41 -43.701,-48.011 -43.701,-82.711c0,-31.95 14.99,-59.651 43.35,-80.111c20.5,-14.78 41.02,-20.59 41.881,-20.83l4.02,-1.12l0.32,-0.09l4.29,1.39c0.85,0.27 21.15,6.92 41.47,22.03C330.321,250.643 345.251,277.863 345.251,308.364z" fill="#C27B48"/>
  <path d="M345.251,308.364c0,34.7 -15.11,63.301 -43.701,82.711c-20.88,14.17 -41.82,18.33 -42.71,18.5l-2.84,0.55V206.302l0.32,-0.09l4.29,1.39c0.85,0.27 21.15,6.92 41.47,22.03C330.321,250.643 345.251,277.863 345.251,308.364z" fill="#A66235"/>
</svg>
