<?xml version="1.0" ?>
<svg height="330" viewBox="0 0 330 330" width="330" xmlns="http://www.w3.org/2000/svg">
  <path d="M190,140m-60,0a60,60 0,1 1,120 0a60,60 0,1 1,-120 0" fill="#ACABB1"/>
  <path d="M190,140m-30,0a30,30 0,1 1,60 0a30,30 0,1 1,-60 0" fill="#FFFFFF"/>
  <path d="M190,110l0,-30l0,-40l-90,0l30,50l0,20l30,10z" fill="#CDCDD0"/>
  <path d="M190,40l-30,10l-30,-10l0,-40l60,0z" fill="#BD720D"/>
  <path d="M130,0h30v40h-30z" fill="#804C09"/>
  <path d="M180,70l-40,0l-10,-30l60,0z" fill="#FF9811"/>
  <path d="M160,70l-20,0l-10,-30l30,0z" fill="#BD720D"/>
  <path d="M209.998,199.744C198.75,189.75 190,185 190,161.334V110h-30h-30v51.334c0,23.666 -8.75,28.416 -19.998,38.41C94.301,213.696 80,235 80,255c0,40 30,60 80,60s80,-20 80,-60C240,235 225.699,213.696 209.998,199.744z" fill="#FF5023"/>
  <path d="M160,110h-30v51.334c0,23.666 -8.75,28.416 -19.998,38.41C94.301,213.696 80,235 80,255c0,40 30,60 80,60C160,272 160,110 160,110z" fill="#BD3C1A"/>
  <path d="M220,315c0,8.284 -6.716,15 -15,15h-90c-8.284,0 -15,-6.716 -15,-15l0,0c0,-8.284 6.716,-15 15,-15h90C213.284,300 220,306.716 220,315L220,315z" fill="#FF734F"/>
  <path d="M160,300h-45c-8.284,0 -15,6.716 -15,15s6.716,15 15,15h45V300z" fill="#FF5023"/>
</svg>
