<?xml version="1.0" ?>
<svg height="56.344" viewBox="0 0 56.344 56.344" width="56.344" xmlns="http://www.w3.org/2000/svg">
  <path d="M25.172,0l0,7l-7,0l0,7l-7,0l0,15l34,-21l0,-8z" fill="#4C312C"/>
  <path d="M45.172,49V8l-9,33l-25,-11v19l-2,5c1.745,1.645 6.492,1.763 8.38,0.353c0.245,-0.183 0.595,-0.183 0.839,0c1.743,1.302 4.218,1.302 5.961,0c0.245,-0.183 0.595,-0.183 0.839,0c1.743,1.302 4.218,1.302 5.961,0c0.245,-0.183 0.595,-0.183 0.839,0c1.743,1.302 4.218,1.302 5.961,0c0.245,-0.183 0.595,-0.183 0.839,0c1.888,1.41 6.635,1.292 8.38,-0.353L45.172,49z" fill="#583E68"/>
  <path d="M45.172,6h-5V0h-2v6h-5V0h-2v6h-5V0h-1v7h-7v7h-7v1h6v5h-6v2h6v2.119l-6,3.706V29l34,-21V6zM19.172,22.884V22h1.431L19.172,22.884zM24.172,19.795L23.841,20h-4.669v-5h5V19.795zM24.172,13h-5V8h5V13zM31.172,15.472l-5,3.088V15h5V15.472zM31.172,13h-5V8h5V13zM38.172,11.148l-3,1.853V13h-2V8h5V11.148zM40.172,9.913V8h3.097L40.172,9.913z" fill="#6A3311"/>
  <path d="M13.706,56.344c-2.028,0 -4.093,-0.553 -5.22,-1.616l1.372,-1.455c1.358,1.279 5.537,1.443 7.096,0.279c0.598,-0.449 1.435,-0.448 2.036,-0.001c1.38,1.031 3.383,1.03 4.764,0.001c0.601,-0.449 1.438,-0.449 2.037,0c1.378,1.029 3.382,1.029 4.764,0c0.598,-0.449 1.435,-0.448 2.036,-0.001c1.38,1.031 3.383,1.03 4.764,0.001c0.599,-0.449 1.436,-0.448 2.036,-0.001c1.561,1.165 5.738,1.002 7.096,-0.278l1.372,1.455c-2.021,1.905 -7.053,2.171 -9.484,0.554c-2.032,1.404 -4.769,1.403 -6.802,0.001c-2.033,1.403 -4.768,1.402 -6.8,0c-2.034,1.403 -4.77,1.402 -6.802,-0.001C16.896,55.996 15.312,56.344 13.706,56.344z" fill="#6F58A8"/>
  <path d="M15.172,48h2v2h-2z" fill="#6F58A8"/>
  <path d="M18.172,48h2v2h-2z" fill="#6F58A8"/>
  <path d="M21.172,48h2v2h-2z" fill="#6F58A8"/>
  <path d="M24.172,48h2v2h-2z" fill="#6F58A8"/>
  <path d="M27.172,48h2v2h-2z" fill="#6F58A8"/>
  <path d="M30.172,48h2v2h-2z" fill="#6F58A8"/>
  <path d="M33.172,48h2v2h-2z" fill="#6F58A8"/>
  <path d="M36.172,48h2v2h-2z" fill="#6F58A8"/>
  <path d="M39.172,48h2v2h-2z" fill="#6F58A8"/>
  <path d="M11.172,29l34,-21l-7,38l-27,-16z" fill="#372742"/>
  <path d="M11.172,29l34,-21l-9,33l-25,-11z" fill="#E6E6E6"/>
  <path d="M36.501,41.691l-25.83,-11.365v-1.605L45.988,6.908L36.501,41.691zM11.672,29.674l24.17,10.635l8.514,-31.217L11.672,29.279V29.674z" fill="#E6E6E6"/>
</svg>
