<?xml version="1.0" ?>
<svg height="512" viewBox="0 0 512 512" width="512" xmlns="http://www.w3.org/2000/svg">
  <path d="M232.001,0h194.33v58h-194.33z" fill="#FF4F19"/>
  <path d="M232.005,52.858l-58.807,117.163l0,341.979l311.672,0l0,-341.967z" fill="#FFD699"/>
  <path d="M232.005,52.858l66.662,117.163l0,341.979l186.203,0l0,-341.967z" fill="#FFC266"/>
  <path d="M426.283,52.858l-194.278,0l66.662,117.163l186.203,0.012z" fill="#FF7700"/>
  <path d="M348.641,297.835c14.185,14.185 44.614,6.755 44.614,6.755s7.431,-30.429 -6.755,-44.614c-14.185,-14.185 -44.614,-6.755 -44.614,-6.755S334.456,283.65 348.641,297.835z" fill="#00E890"/>
  <path d="M393.255,304.59c0,0 7.431,-30.429 -6.755,-44.614c-14.185,-14.185 -44.614,-6.755 -44.614,-6.755L393.255,304.59z" fill="#00C47A"/>
  <path d="M393.24,368.99m-64.43,0a64.43,64.43 0,1 1,128.86 0a64.43,64.43 0,1 1,-128.86 0" fill="#FF7700"/>
  <path d="M393.235,304.559v128.864c35.585,0 64.432,-28.847 64.432,-64.432S428.82,304.559 393.235,304.559" fill="#FF4F19"/>
  <path d="M231.676,251.24l-2.162,-8.852l-8.852,-2.162c-4.728,-1.154 -46.846,-10.613 -69.855,12.396c-23.01,23.01 -13.552,65.128 -12.397,69.855l2.162,8.852l8.852,2.162c2.212,0.54 12.606,2.898 25.402,2.898c14.552,0 32.209,-3.051 44.452,-15.294C242.288,298.085 232.831,255.967 231.676,251.24z" fill="#00E890"/>
  <path d="M231.676,251.24l-2.162,-8.852l-88.941,88.941l8.852,2.162c2.212,0.54 12.606,2.898 25.402,2.898c14.552,0 32.209,-3.051 44.452,-15.294C242.288,298.085 232.831,255.967 231.676,251.24z" fill="#00C47A"/>
  <path d="M117.811,275.67h30v37.33h-30z" fill="#56412D"/>
  <path d="M132.811,300.638c-58.272,0 -105.681,47.408 -105.681,105.681C27.131,464.592 74.539,512 132.811,512c58.273,0 105.682,-47.408 105.682,-105.681S191.085,300.638 132.811,300.638z" fill="#FF7700"/>
  <path d="M132.811,300.638V512c58.273,0 105.682,-47.408 105.682,-105.681S191.085,300.638 132.811,300.638" fill="#FF4F19"/>
</svg>
