<?xml version="1.0" ?>
<svg height="469" viewBox="0 0 469.33368 469" width="469.33368" xmlns="http://www.w3.org/2000/svg">
  <path d="m256,64.168c68.387,0 139.988,19.313 188.344,67.676 33.324,33.324 33.32,87.359 -0.012,120.676 -33.332,33.313 -80.266,31.637 -120.676,-0.008 -25.488,-23.902 -152.988,-39.012 -152.988,67.75 0.031,47.121 -38.129,85.355 -85.25,85.414h-0.086c-47.098,0.004 -85.289,-38.152 -85.332,-85.25 -0.07,-67.938 26.871,-133.121 74.887,-181.188 48.02,-48.066 113.172,-75.074 181.113,-75.07zM256,64.168" fill="#cd3e36"/>
  <path d="m21.332,320.402c-0.066,-62.281 24.629,-122.031 68.645,-166.094 44.016,-44.063 103.742,-68.816 166.023,-68.813 41.77,0 119.832,7.977 173.25,61.426l-30.168,30.168c-42.551,-42.574 -107.914,-48.93 -143.082,-48.93 -50.957,0 -99.824,20.258 -135.836,56.305 -36.012,36.051 -56.219,84.938 -56.164,135.895zM21.332,320.402" fill="#d96c66"/>
  <path d="m120.238,184.391 l-30.164,-30.168c43.91,-44.148 103.656,-68.898 165.926,-68.727v42.664c-50.945,-0.137 -99.832,20.109 -135.762,56.23zM120.238,184.391" fill="#e59b96"/>
  <path d="m170.668,320.254h-42.668c0,-94.219 71.762,-127.656 133.207,-127.656 37.117,0 72.543,10.844 90.273,27.625l-29.336,30.98c-6.988,-6.613 -30.52,-15.938 -60.938,-15.938 -27.219,0 -90.539,8.281 -90.539,84.988zM170.668,320.254" fill="#c11107"/>
  <path d="m85.418,405.672 l-0.086,-21.332c35.352,-0.07 63.977,-28.734 64,-64.086 0,-78.477 60.273,-106.32 111.875,-106.32 30.949,0 62.344,9.219 76.344,22.414 30.594,23.875 67.137,25.625 91.699,1.086 12.043,-11.977 18.797,-28.277 18.75,-45.262h21.332c0.063,22.648 -8.941,44.375 -25,60.344 -32,31.957 -80.102,31.781 -120.676,-0.012 -9.27,-8.688 -33.813,-17.238 -62.449,-17.238 -21.238,0 -90.539,6.125 -90.539,84.988 -0.031,47.098 -38.156,85.297 -85.25,85.418zM85.418,405.672" fill="#c11107"/>
  <path d="m142.219,362.922h-21.332c0,-11.957 -12.492,-21.332 -28.438,-21.332 -15.949,0 -28.449,9.375 -28.449,21.332h-21.332c0,-23.926 21.863,-42.668 49.781,-42.668 27.906,0 49.77,18.742 49.77,42.668zM142.219,362.922" fill="#d96c66"/>
  <path d="m120.891,362.922c0,-11.781 -12.738,-21.332 -28.445,-21.332 -15.711,0 -28.445,9.551 -28.445,21.332s12.734,21.332 28.445,21.332c15.707,0 28.445,-9.551 28.445,-21.332zM120.891,362.922" fill="#c11107"/>
</svg>
