<?xml version="1.0" ?>
<svg height="54.264" viewBox="0 0 54.264 54.264" width="54.264" xmlns="http://www.w3.org/2000/svg">
  <path d="M32.051,25.37c0,0 4.991,-0.346 9.472,-3.666c0,0 5.465,-4.594 8.451,-9.612c0,0 0.719,-1.881 3.624,-1.302c0,0 2.437,-1.668 -2.011,-6.117L49.264,2.35L29.148,22.467L32.051,25.37z" fill="#A46F3E"/>
  <path d="M36.948,30.267C20.837,46.378 8.262,53.513 0,51.615l29.148,-29.148L36.948,30.267z" fill="#D2D5D7"/>
  <path d="M35.951,20.414m-1.5,0a1.5,1.5 0,1 1,3 0a1.5,1.5 0,1 1,-3 0" fill="#D2D5D7"/>
  <path d="M47.951,8.414m-1.5,0a1.5,1.5 0,1 1,3 0a1.5,1.5 0,1 1,-3 0" fill="#D2D5D7"/>
  <path d="M33.759,27.192C19.374,40.978 13.572,44.486 4.467,47.148L1.614,50c11.375,-2.942 17.194,-5.709 33.529,-21.365L33.759,27.192z" fill="#E6E6E6"/>
</svg>
