<?xml version="1.0" encoding="UTF-8"?>
<!DOCTYPE svg PUBLIC "-//W3C//DTD SVG 1.1//EN" "http://www.w3.org/Graphics/SVG/1.1/DTD/svg11.dtd">
<svg xmlns="http://www.w3.org/2000/svg" version="1.1" width="512px" height="512px" style="shape-rendering:geometricPrecision; text-rendering:geometricPrecision; image-rendering:optimizeQuality; fill-rule:evenodd; clip-rule:evenodd" xmlns:xlink="http://www.w3.org/1999/xlink">
<g><path style="opacity:0.997" fill="#feb3a7" d="M 255.5,88.5 C 255.5,160.833 255.5,233.167 255.5,305.5C 209.167,305.5 162.833,305.5 116.5,305.5C 116.5,288.833 116.5,272.167 116.5,255.5C 106.5,255.5 96.5,255.5 86.5,255.5C 86.5,272.167 86.5,288.833 86.5,305.5C 66.8333,305.5 47.1667,305.5 27.5,305.5C 27.1667,305.5 26.8333,305.5 26.5,305.5C 24.2355,262.809 43.2355,234.809 83.5,221.5C 83.3547,189.236 98.0214,167.069 127.5,155C 133.049,153.323 138.715,152.49 144.5,152.5C 146.789,118.039 164.789,96.8727 198.5,89C 217.497,88.5001 236.497,88.3334 255.5,88.5 Z"/></g>
<g><path style="opacity:0.997" fill="#fc9c8c" d="M 255.5,88.5 C 274.503,88.3334 293.503,88.5001 312.5,89C 341.217,95.3836 359.051,112.884 366,141.5C 366.499,145.152 366.665,148.818 366.5,152.5C 395.806,154.649 414.973,169.649 424,197.5C 425.598,205.434 426.764,213.434 427.5,221.5C 467.764,234.809 486.764,262.809 484.5,305.5C 445.167,305.5 405.833,305.5 366.5,305.5C 366.334,295.161 366.5,284.828 367,274.5C 371.444,261.214 380.61,254.214 394.5,253.5C 394.5,243.5 394.5,233.5 394.5,223.5C 369.642,224.54 351.808,236.207 341,258.5C 339.046,262.981 337.713,267.648 337,272.5C 336.5,283.495 336.333,294.495 336.5,305.5C 309.5,305.5 282.5,305.5 255.5,305.5C 255.5,233.167 255.5,160.833 255.5,88.5 Z"/></g>
<g><path style="opacity:1" fill="#fc9d8b" d="M 193.5,129.5 C 203.5,129.5 213.5,129.5 223.5,129.5C 223.5,139.5 223.5,149.5 223.5,159.5C 213.5,159.5 203.5,159.5 193.5,159.5C 193.5,149.5 193.5,139.5 193.5,129.5 Z"/></g>
<g><path style="opacity:1" fill="#f28572" d="M 332.5,159.5 C 335.167,159.5 337.833,159.5 340.5,159.5C 340.5,169.5 340.5,179.5 340.5,189.5C 323.312,191.02 314.312,200.353 313.5,217.5C 303.5,217.5 293.5,217.5 283.5,217.5C 285.384,185.95 301.717,166.617 332.5,159.5 Z"/></g>
<g><path style="opacity:1" fill="#fd9d8c" d="M 170.5,198.5 C 195.82,199.408 213.653,211.408 224,234.5C 226.868,241.216 228.035,248.216 227.5,255.5C 217.5,255.5 207.5,255.5 197.5,255.5C 197.228,242.385 190.895,233.552 178.5,229C 175.854,228.503 173.187,228.336 170.5,228.5C 170.5,218.5 170.5,208.5 170.5,198.5 Z"/></g>
<g><path style="opacity:1" fill="#f28572" d="M 366.5,305.5 C 356.5,305.5 346.5,305.5 336.5,305.5C 336.333,294.495 336.5,283.495 337,272.5C 337.713,267.648 339.046,262.981 341,258.5C 351.808,236.207 369.642,224.54 394.5,223.5C 394.5,233.5 394.5,243.5 394.5,253.5C 380.61,254.214 371.444,261.214 367,274.5C 366.5,284.828 366.334,295.161 366.5,305.5 Z"/></g>
<g><path style="opacity:1" fill="#fd9d8c" d="M 116.5,305.5 C 106.5,305.5 96.5,305.5 86.5,305.5C 86.5,288.833 86.5,272.167 86.5,255.5C 96.5,255.5 106.5,255.5 116.5,255.5C 116.5,272.167 116.5,288.833 116.5,305.5 Z"/></g>
<g><path style="opacity:0.998" fill="#f0f0f0" d="M -0.5,305.5 C 8.5,305.5 17.5,305.5 26.5,305.5C 26.8333,305.5 27.1667,305.5 27.5,305.5C 103.332,306.499 179.332,306.833 255.5,306.5C 255.5,345.167 255.5,383.833 255.5,422.5C 193.166,422.667 130.832,422.5 68.5,422C 30.027,405.375 7.027,376.542 -0.5,335.5C -0.5,325.5 -0.5,315.5 -0.5,305.5 Z"/></g>
<g><path style="opacity:0.998" fill="#e7e6e6" d="M 27.5,305.5 C 47.1667,305.5 66.8333,305.5 86.5,305.5C 96.5,305.5 106.5,305.5 116.5,305.5C 162.833,305.5 209.167,305.5 255.5,305.5C 282.5,305.5 309.5,305.5 336.5,305.5C 346.5,305.5 356.5,305.5 366.5,305.5C 405.833,305.5 445.167,305.5 484.5,305.5C 493.5,305.5 502.5,305.5 511.5,305.5C 511.5,315.5 511.5,325.5 511.5,335.5C 503.973,376.542 480.973,405.375 442.5,422C 380.168,422.5 317.834,422.667 255.5,422.5C 255.5,383.833 255.5,345.167 255.5,306.5C 179.332,306.833 103.332,306.499 27.5,305.5 Z"/></g>
</svg>
