<?xml version="1.0" ?>
<svg height="512" viewBox="0 0 512 512" width="512" xmlns="http://www.w3.org/2000/svg">
  <path d="M512,253.808c0,101.182 -54.731,198.534 -151.657,233.537C326.725,498.562 291.432,503.925 256,503.2c-35.432,0.725 -70.725,-4.638 -104.343,-15.854C54.731,452.342 0,354.99 0,253.808c0,-88 27.894,-183.837 113.259,-224.185C157.952,9.355 207.888,3.653 256,13.324c48.112,-9.671 98.048,-3.969 142.741,16.299C484.106,69.971 512,165.809 512,253.808z" fill="#F6DB6D"/>
  <path d="M256,353.131c0,0 88.276,0 88.276,-105.931C344.099,184.909 310.358,127.55 256,97.131c-54.358,30.419 -88.099,87.778 -88.276,150.069C167.724,353.131 256,353.131 256,353.131z" fill="#936642"/>
  <path d="M211.862,300.165c-3.533,0.003 -6.726,-2.104 -8.112,-5.353c-28.172,-65.724 -0.155,-104.267 1.052,-105.871c2.917,-3.892 8.433,-4.69 12.333,-1.785s4.715,8.419 1.822,12.328c-1.026,1.414 -22.853,32.664 1.017,88.379c0.922,2.151 0.951,4.581 0.081,6.754c-0.87,2.173 -2.567,3.911 -4.719,4.832C214.24,299.925 213.057,300.169 211.862,300.165L211.862,300.165z" fill="#6D5A61"/>
  <path d="M238.336,247.2c-3.058,-0.002 -5.898,-1.587 -7.504,-4.19c-1.607,-2.602 -1.752,-5.851 -0.383,-8.586c24.741,-49.474 17.069,-81.862 16.991,-82.19c-1.179,-4.727 1.696,-9.515 6.423,-10.696c4.727,-1.18 9.516,1.693 10.698,6.42c0.397,1.569 9.302,39.112 -18.319,94.362C244.744,245.314 241.683,247.203 238.336,247.2L238.336,247.2z" fill="#6D5A61"/>
  <path d="M247.181,291.338c-3.891,0.003 -7.326,-2.542 -8.455,-6.265c-1.129,-3.724 0.313,-7.748 3.55,-9.907c27.613,-16.547 43.289,-47.463 40.319,-79.517c-0.757,-4.804 2.503,-9.32 7.302,-10.112c2.305,-0.392 4.671,0.153 6.572,1.515c1.901,1.362 3.178,3.427 3.548,5.735c4.152,38.909 -14.525,76.72 -47.948,97.068C250.622,290.82 248.921,291.336 247.181,291.338L247.181,291.338z" fill="#6D5A61"/>
  <path d="M255.991,326.648c-4.451,-0.007 -8.2,-3.326 -8.748,-7.743c-0.547,-4.417 2.278,-8.551 6.593,-9.645l0,0c0.31,-0.078 30.767,-8.06 37.931,-29.543c0.991,-2.999 3.51,-5.241 6.604,-5.876c3.094,-0.635 6.292,0.432 8.385,2.798c2.093,2.366 2.761,5.671 1.752,8.664c-10.241,30.724 -48.733,40.672 -50.371,41.078C257.436,326.558 256.715,326.648 255.991,326.648L255.991,326.648z" fill="#6D5A61"/>
  <path d="M388.944,25.274l-0.53,1.236c0,0 -123.586,-8.828 -105.931,88.276l-0.353,0.353c-8.05,-6.909 -16.808,-12.945 -26.13,-18.008c-9.321,5.063 -18.08,11.1 -26.13,18.008l-0.353,-0.353C247.172,17.683 123.586,26.51 123.586,26.51l-0.53,-1.236C165.308,8.624 211.46,4.487 256,13.357C300.54,4.487 346.692,8.624 388.944,25.274L388.944,25.274z" fill="#D8625E"/>
</svg>
