<?xml version="1.0" ?>
<svg height="512" viewBox="0 0 512 512" width="512" xmlns="http://www.w3.org/2000/svg">
  <path d="M176.201,9.901L166,0l-10.201,9.901C149.5,15.899 0,162.8 0,347c0,90.899 75.099,165 166,165s165,-74.101 165,-165C331,162.8 182.5,15.899 176.201,9.901z" fill="#B34F03"/>
  <path d="M356.201,9.901L346,0l-10.201,9.901c-2.098,1.8 -50.4,50.799 -92.699,124.3l-2.1,3.6v336.7l6,4.499c28.799,21.6 63,33 99,33c90.901,0 166,-74.101 166,-165C512,162.8 362.5,15.899 356.201,9.901z" fill="#FF9F00"/>
  <path d="M512,347c0,90.899 -75.099,165 -166,165V0l10.201,9.901C362.5,15.899 512,162.8 512,347z" fill="#F77E00"/>
  <path d="M361,241h30v60h-30z" fill="#FDBF00"/>
  <path d="M331,347c0,90.899 -74.099,165 -165,165V0l10.201,9.901C182.5,15.899 331,162.8 331,347z" fill="#913F02"/>
  <path d="M421,301h30v61h-30z" fill="#FDBF00"/>
  <path d="M361,392h30v60h-30z" fill="#FDBF00"/>
  <path d="M331,121h30v60h-30z" fill="#FFD400"/>
  <path d="M346,121h15v60h-15z" fill="#FDBF00"/>
</svg>
