<?xml version="1.0" encoding="iso-8859-1"?>
<!-- Generator: Adobe Illustrator 19.0.0, SVG Export Plug-In . SVG Version: 6.00 Build 0)  -->
<svg version="1.1" id="Capa_1" xmlns="http://www.w3.org/2000/svg" xmlns:xlink="http://www.w3.org/1999/xlink" x="0px" y="0px"
	 viewBox="0 0 512 512" style="enable-background:new 0 0 512 512;" xml:space="preserve">
<path style="fill:#A5001E;" d="M472.385,93.268c-25.35,29.928-43.399,24.052-70.806,64.097c-30.804,45.003-11.805,58-42.608,103.003
	c-30.804,45.014-49.792,32.017-80.596,77.02c-30.804,45.014-11.805,58.01-42.608,103.024
	c-28.019,40.931-46.258,33.884-72.505,66.133c-4.853,5.96-13.461,7.216-19.801,2.88l-25.329-17.332l-51.269-35.087L42.6,440.4
	c-7.195-4.927-8.619-15.022-2.985-21.668c25.35-29.928,43.399-24.052,70.806-64.097c30.804-45.013,11.815-58.01,42.619-103.024
	c30.804-45.003,49.792-32.006,80.596-77.009c30.793-45.014,11.805-58.01,42.608-103.013c28.008-40.931,46.248-33.895,72.494-66.133
	c4.853-5.96,13.461-7.216,19.801-2.88l25.329,17.332l51.28,35.087L469.4,71.599C476.594,76.526,478.019,86.621,472.385,93.268z"/>
<path style="fill:#FF9478;" d="M445.147,54.995l-0.011,0.011c-30.804,45.003-49.792,32.006-80.586,77.009
	c-30.804,45.014-11.815,58.01-42.608,103.013c-30.804,45.014-49.792,32.017-80.596,77.02
	c-30.804,45.013-11.815,58.01-42.619,103.013c-30.793,45.014-49.792,32.017-80.596,77.03l-51.269-35.087v-0.011
	c30.804-45.003,49.792-32.006,80.596-77.02c30.804-45.013,11.805-58.01,42.608-103.013c30.804-45.014,49.792-32.017,80.596-77.02
	c30.804-45.014,11.805-58.01,42.608-103.013s49.792-32.006,80.596-77.02L445.147,54.995z"/>
<g>
	<path style="fill:#720015;" d="M218.961,246.126c-3.713-6.024-8.555-12.585-15.18-19.98c-4.23-4.726-8.197-8.693-11.963-12.068
		c12.965-8.344,25.793-16.056,41.817-39.475c26.436-38.642,16.182-53.696,32.249-85.649c12.153,5.992,23.725,10.254,38.209,23.029
		c-17.754,33.568-6.361,48.4-33.43,87.959C250.588,229.268,235.534,233.962,218.961,246.126z"/>
	<path style="fill:#720015;" d="M376.314,225.565c-2.943,9.779-7.711,20.719-17.343,34.802
		c-30.804,45.013-49.792,32.017-80.596,77.02c-0.506,0.738-0.992,1.466-1.466,2.184c-5.391-4.283-11.172-9.684-17.533-16.794
		c-5.612-6.266-9.948-11.931-13.398-17.185c28.145-37.365,46.733-27.85,75.965-70.564c18.598-27.175,19.041-42.682,23.25-60.605
		c4.673,13.587,9.716,27.354,27.365,47.071C373.835,222.917,375.079,224.278,376.314,225.565z"/>
</g>
<g>
	<path style="fill:#FF6243;" d="M345.193,174.423c-4.209,17.923-4.652,33.43-23.25,60.605
		c-29.232,42.714-47.82,33.198-75.965,70.564c-14.885-22.596-13.45-37.492-27.017-59.466c16.573-12.163,31.627-16.858,51.702-46.184
		c27.069-39.56,15.676-54.392,33.43-87.959c4.04,3.555,8.302,7.775,12.87,12.881C335.689,145.792,340.225,160.012,345.193,174.423z"
		/>
	<path style="fill:#FF6243;" d="M296.414,263.3c-17.944,14.21-33.652,17.459-55.067,48.748
		c-26.014,38.009-16.52,53.189-31.489,84.088c-3.629-3.281-7.437-7.121-11.488-11.646c-20.824-23.272-24.105-38.251-29.939-54.434
		c3.08-15.043,5.675-29.77,21.636-53.094c30.139-44.043,48.969-32.555,78.623-74.193C284.293,225.956,282.594,240.967,296.414,263.3
		z"/>
</g>
<g>
	<path style="fill:#720015;" d="M268.69,202.768c-29.654,41.638-48.484,30.15-78.623,74.193
		c-15.961,23.324-18.556,38.051-21.636,53.094c-4.346-12.079-10.106-24.833-25.656-42.197c-1.92-2.141-3.787-4.135-5.602-5.981
		c3.028-8.629,7.69-18.324,15.866-30.266c30.804-45.003,49.792-32.006,80.596-77.009c1.329-1.952,2.574-3.84,3.713-5.665
		c5.697,4.42,11.815,10.053,18.609,17.638C261.211,192.451,265.357,197.8,268.69,202.768z"/>
	<path style="fill:#720015;" d="M323.81,295.549c-14.22,9.41-27.924,16.246-45.436,41.838
		c-25.476,37.228-16.889,52.556-30.582,82.21c-11.942-5.781-23.461-10.328-37.935-23.461c14.969-30.899,5.475-46.079,31.489-84.088
		c21.415-31.289,37.123-34.538,55.067-48.748c3.713,6.003,8.545,12.543,15.138,19.906
		C315.888,288.059,319.949,292.11,323.81,295.549z"/>
</g>
<path style="fill:#C70024;" d="M467.1,433.037l-14.685,13.134v0.011l-46.301,41.427l-10.845,9.705
	c-13.281,11.878-34.338,8.017-42.323-7.912c-11.298-22.523-9.21-38.726-35.857-68.507c-36.374-40.646-53.527-25.308-89.89-65.943
	c-36.374-40.646-19.221-55.995-55.594-96.631c-36.363-40.646-53.516-25.297-89.879-65.933
	c-30.403-33.99-23.398-50.288-41.543-78.476c-7.237-11.224-5.232-26.046,4.715-34.95l14.685-13.134l46.301-41.427l10.845-9.705
	c13.281-11.889,34.338-8.028,42.323,7.901c11.298,22.523,9.209,38.726,35.857,68.507c36.363,40.636,53.516,25.297,89.879,65.933
	c36.374,40.646,19.221,55.995,55.594,96.631c36.363,40.646,53.516,25.297,89.879,65.943c30.413,33.99,23.409,50.278,41.553,78.476
	C479.052,409.312,477.048,424.133,467.1,433.037z"/>
<path style="fill:#FF9478;" d="M452.416,446.171v0.011l-46.301,41.427v-0.011c-36.374-40.636-19.221-55.985-55.594-96.631
	c-36.363-40.646-53.516-25.297-89.879-65.943c-36.374-40.636-19.221-55.985-55.594-96.631
	c-36.363-40.636-53.516-25.297-89.879-65.933c-36.363-40.646-19.221-55.985-55.584-96.631l46.301-41.427
	c36.363,40.636,19.221,55.985,55.584,96.62c36.363,40.646,53.516,25.297,89.879,65.943c36.374,40.636,19.221,55.985,55.594,96.631
	c36.363,40.636,53.516,25.297,89.89,65.943C433.195,390.175,416.042,405.524,452.416,446.171z"/>
<g>
</g>
<g>
</g>
<g>
</g>
<g>
</g>
<g>
</g>
<g>
</g>
<g>
</g>
<g>
</g>
<g>
</g>
<g>
</g>
<g>
</g>
<g>
</g>
<g>
</g>
<g>
</g>
<g>
</g>
</svg>
