<?xml version="1.0" ?>
<svg height="512" viewBox="0 0 512 512" width="512" xmlns="http://www.w3.org/2000/svg">
  <path d="m401.098,23.402c-26.098,39 -69,61.199 -114.297,61.199 -6,0 -12,-0.301 -18.301,-1.199 -6.602,-0.902 -13.5,-2.402 -20.402,-4.203l8.398,-28.801c3.902,1.199 8.102,2.102 12.004,2.703 41.699,7.199 83.699,-10.801 107.398,-46.5zM401.098,23.402" fill="#b9d162"/>
  <path d="m401.098,23.402c-26.098,39 -69,61.199 -114.297,61.199 -6,0 -12,-0.301 -18.301,-1.199v-30.301c41.699,7.199 83.699,-10.801 107.398,-46.5zM401.098,23.402" fill="#7ca720"/>
  <path d="m283.5,121.199v43.801h-30v-43.801c0,-50.398 -40.801,-91.199 -91.199,-91.199 -24.301,0 -47.102,9.602 -64.199,26.699l-29.102,28.801 -21,-21 28.801,-29.102c22.797,-22.801 53.398,-35.398 85.5,-35.398 45.598,0 85.5,25.5 106.199,62.699 9.602,17.398 15,37.203 15,58.5zM283.5,121.199" fill="#93be39"/>
  <path d="m283.5,165h-15v-102.301c9.602,17.402 15,37.203 15,58.5zM283.5,165" fill="#7ca720"/>
  <path d="m133.5,240c-33.09,0 -60,-26.91 -60,-60s26.91,-60 60,-60 60,26.91 60,60 -26.91,60 -60,60zM133.5,240" fill="#b05632"/>
  <path d="m373.5,180c0,33 -27,60 -60,60 -18,0 -33.898,-8.102 -45,-20.699 -11.102,12.598 -27,20.699 -45,20.699 -33,0 -60,-27 -60,-60s27,-60 60,-60c18,0 33.898,8.098 45,20.699 11.102,-12.602 27,-20.699 45,-20.699 33,0 60,27 60,60zM373.5,180" fill="#96412a"/>
  <path d="m403.5,240c-33.09,0 -60,-26.91 -60,-60s26.91,-60 60,-60 60,26.91 60,60 -26.91,60 -60,60zM403.5,240" fill="#8e4528"/>
  <path d="m313.5,240c-18,0 -33.898,-8.102 -45,-20.699v-78.602c11.102,-12.602 27,-20.699 45,-20.699 33,0 60,27 60,60s-27,60 -60,60zM313.5,240" fill="#b05632"/>
  <path d="m358.5,330c-33.09,0 -60,-26.91 -60,-60s26.91,-60 60,-60 60,26.91 60,60 -26.91,60 -60,60zM358.5,330" fill="#96412a"/>
  <path d="m178.5,330c-33.09,0 -60,-26.91 -60,-60s26.91,-60 60,-60 60,26.91 60,60 -26.91,60 -60,60zM178.5,330" fill="#b05632"/>
  <path d="m268.5,210c-33,0 -60,27 -60,60s27,60 60,60 60,-27 60,-60 -27,-60 -60,-60zM268.5,210" fill="#bc684e"/>
  <path d="m268.5,330v-120c33,0 60,27 60,60s-27,60 -60,60zM268.5,330" fill="#c85a3c"/>
  <path d="m373.5,360c0,33 -27,60 -60,60 -18,0 -33.898,-8.102 -45,-20.699 -11.102,12.598 -27,20.699 -45,20.699 -33,0 -60,-27 -60,-60s27,-60 60,-60c18,0 33.898,8.098 45,20.699 11.102,-12.602 27,-20.699 45,-20.699 33,0 60,27 60,60zM373.5,360" fill="#c85a3c"/>
  <path d="m373.5,360c0,33 -27,60 -60,60 -18,0 -33.898,-8.102 -45,-20.699v-78.602c11.102,-12.602 27,-20.699 45,-20.699 33,0 60,27 60,60zM373.5,360" fill="#b05632"/>
  <path d="m268.5,390c-33,0 -60,27 -60,60s27,62 60,62 60,-29 60,-62 -27,-60 -60,-60zM268.5,390" fill="#bc684e"/>
  <path d="m328.5,450c0,33 -27,62 -60,62v-122c33,0 60,27 60,60zM328.5,450" fill="#c85a3c"/>
</svg>
