<?xml version="1.0" ?>
<svg height="473" viewBox="0 0 473.3726 473" width="473.3726" xmlns="http://www.w3.org/2000/svg">
  <path d="m473.371,264.188c0,-8.836 -7.16,-16 -16,-16h-441.375c-4.242,0 -8.313,1.688 -11.313,4.688 -6.246,6.246 -6.246,16.375 0,22.625 3,3 7.07,4.684 11.313,4.688h441.375c8.84,0 16,-7.164 16,-16zM473.371,264.188" fill="#603813"/>
  <path d="m345.371,248.188h-320v-148.496c0,-32.859 26.637,-59.5 59.496,-59.504h305c32.863,0 59.504,26.641 59.504,59.504v148.496zM345.371,248.188" fill="#e0a871"/>
  <path d="m129.371,40.188h62.496c31.762,0 57.504,25.746 57.504,57.504v150.496h-120zM129.371,40.188" fill="#f6e8d7"/>
  <path d="m25.371,248.188v-150.504c0.008,-31.758 25.75,-57.496 57.504,-57.496h60.992c31.762,0 57.504,25.746 57.504,57.504v150.496zM25.371,248.188" fill="#e0a871"/>
  <path d="m457.371,176.188h-16c0.035,22.488 -8.555,44.137 -24,60.488 -15.445,-16.352 -24.035,-38 -24,-60.488h-16c-0.074,27.746 10.953,54.367 30.625,73.934l1.375,1.379v180.688h16v-180.688l1.379,-1.379c19.672,-19.566 30.699,-46.188 30.621,-73.934zM457.371,176.188" fill="#a67c52"/>
  <path d="m67.719,85.84 l11.316,-11.313 15.996,15.996 -11.313,11.316zM67.719,85.84" fill="#f6e8d7"/>
  <path d="m137.371,80.188h16v16h-16zM137.371,80.188" fill="#f6e8d7"/>
  <path d="m153.371,120.188h16v16h-16zM153.371,120.188" fill="#f6e8d7"/>
  <path d="m139.715,210.531 l16,-16 11.313,11.316 -15.996,15.996zM139.715,210.531" fill="#f6e8d7"/>
  <path d="m99.715,170.531 l16,-16 11.313,11.316 -15.996,15.996zM99.715,170.531" fill="#f6e8d7"/>
  <path d="m57.371,136.188h16v16h-16zM57.371,136.188" fill="#f6e8d7"/>
  <path d="m49.371,208.188h16v16h-16zM49.371,208.188" fill="#f6e8d7"/>
  <path d="m275.715,69.84 l11.316,-11.313 15.996,16 -11.313,11.313zM275.715,69.84" fill="#f6e8d7"/>
  <path d="m345.371,80.188h16v16h-16zM345.371,80.188" fill="#f6e8d7"/>
  <path d="m387.715,106.523 l16,-15.996 11.313,11.313 -15.996,16zM387.715,106.523" fill="#f6e8d7"/>
  <path d="m299.719,146.531 l15.996,-16 11.316,11.316 -16,15.996zM299.719,146.531" fill="#f6e8d7"/>
  <path d="m363.719,149.84 l11.313,-11.313 16,15.996 -11.316,11.316zM363.719,149.84" fill="#f6e8d7"/>
  <path d="m273.371,200.188h16v16h-16zM273.371,200.188" fill="#f6e8d7"/>
  <path d="m329.371,208.188h16v16h-16zM329.371,208.188" fill="#f6e8d7"/>
  <path d="m73.371,352.188c26.512,0 48,21.488 48,48 -26.508,0 -48,-21.492 -48,-48zM73.371,352.188" fill="#c69c6d"/>
  <path d="m25.375,310.246c18.746,18.746 18.746,49.137 0,67.883 -18.746,-18.746 -18.746,-49.137 0,-67.883zM25.375,310.246" fill="#e0a871"/>
  <path d="m417.371,180.301c18.746,18.742 18.746,49.137 0,67.883 -18.742,-18.746 -18.742,-49.141 0,-67.883zM417.371,180.301" fill="#a67c52"/>
  <path d="m97.375,322.133c18.742,-18.746 49.137,-18.746 67.883,0 -18.746,18.742 -49.141,18.742 -67.883,0zM97.375,322.133" fill="#c69c6d"/>
  <path d="m217.371,344.188c0,26.508 -21.488,48 -48,48 0,-26.512 21.492,-48 48,-48zM217.371,344.188" fill="#e0a871"/>
  <path d="m465.371,216.188c0,26.508 -21.488,48 -48,48 0,-26.512 21.492,-48 48,-48zM465.371,216.188" fill="#e0a871"/>
  <path d="m465.371,256.188c0,26.508 -21.488,48 -48,48 0,-26.512 21.492,-48 48,-48zM465.371,256.188" fill="#a67c52"/>
  <path d="m465.371,296.188c0,26.508 -21.488,48 -48,48 0,-26.512 21.492,-48 48,-48zM465.371,296.188" fill="#e0a871"/>
  <path d="m465.371,336.188c0,26.508 -21.488,48 -48,48 0,-26.512 21.492,-48 48,-48zM465.371,336.188" fill="#a67c52"/>
  <path d="m417.371,264.188c-26.508,0 -48,-21.492 -48,-48 26.512,0 48,21.488 48,48zM417.371,264.188" fill="#c69c6d"/>
  <path d="m417.371,304.188c-26.508,0 -48,-21.492 -48,-48 26.512,0 48,21.488 48,48zM417.371,304.188" fill="#e0a871"/>
  <path d="m417.371,344.188c-26.508,0 -48,-21.492 -48,-48 26.512,0 48,21.488 48,48zM417.371,344.188" fill="#a67c52"/>
  <path d="m417.371,384.188c-26.508,0 -48,-21.492 -48,-48 26.512,0 48,21.488 48,48zM417.371,384.188" fill="#e0a871"/>
</svg>
