<?xml version="1.0" ?>
<svg height="58.481" viewBox="0 0 58.481 58.481" width="58.481" xmlns="http://www.w3.org/2000/svg">
  <path d="M25.6,13.435l-0.911,1.822c-1.27,2.54 -2.941,4.858 -4.949,6.866L5.565,36.299l-5.194,2.365c-0.247,2.064 2.14,4.618 4.114,4.614c0.233,0 0.443,0.205 0.442,0.438c-0.007,1.823 1.283,3.112 3.106,3.105c0.257,-0.001 0.438,0.18 0.437,0.437c-0.007,1.823 1.283,3.113 3.106,3.106c0.257,-0.001 0.438,0.18 0.437,0.437c-0.007,1.823 1.282,3.112 3.105,3.106c0.233,-0.001 0.438,0.209 0.438,0.442c-0.003,1.974 2.55,4.361 4.614,4.114l2.336,-5.164l14.205,-14.205c2.008,-2.008 4.326,-3.679 6.866,-4.949l1.822,-0.911L25.6,13.435z" fill="#516572"/>
  <path d="M39.657,1.1528l1.3926,1.4356l-11.9241,11.5669l-1.3926,-1.4356z" fill="#EEAF4B"/>
  <path d="M55.625,18.1784l1.4508,1.3766l-10.9495,11.5397l-1.4508,-1.3766z" fill="#EEAF4B"/>
  <path d="M44.692,0.0002l1.4142,1.4142l-14.8498,14.8498l-1.4142,-1.4142z" fill="#F9EA80"/>
  <path d="M48.9342,-0.0007l1.4142,1.4142l-16.9704,16.9704l-1.4142,-1.4142z" fill="#EEAF4B"/>
  <path d="M51.7624,1.4138l1.4142,1.4142l-17.6775,17.6775l-1.4142,-1.4142z" fill="#F9EA80"/>
  <path d="M53.8841,3.5356l1.4142,1.4142l-17.6768,17.6768l-1.4142,-1.4142z" fill="#EEAF4B"/>
  <path d="M55.2985,6.3645l1.4142,1.4142l-16.9704,16.9704l-1.4142,-1.4142z" fill="#F9EA80"/>
  <path d="M56.7126,9.1917l1.4142,1.4142l-16.2633,16.2633l-1.4142,-1.4142z" fill="#EEAF4B"/>
  <path d="M56.6313,13.1698l1.4316,1.3966l-14.0686,14.4212l-1.4316,-1.3966z" fill="#F9EA80"/>
  <path d="M25.566,33.37l-1.945,0.537c-2.281,0.34 -4.072,2.131 -4.412,4.412l-0.537,1.945l1.945,-0.537c2.281,-0.34 4.072,-2.131 4.412,-4.412L25.566,33.37z" fill="#F1B501"/>
  <path d="M17.378,29.879l-0.995,1.755c-1.373,1.853 -1.373,4.386 0,6.239l0.995,1.755l0.995,-1.755c1.373,-1.853 1.373,-4.386 0,-6.239L17.378,29.879z" fill="#F1B501"/>
  <path d="M29.06,41.895L27.305,40.9c-1.853,-1.373 -4.386,-1.373 -6.239,0l-1.755,0.995l1.755,0.995c1.853,1.373 4.386,1.373 6.239,0L29.06,41.895z" fill="#F1B501"/>
  <path d="M20.65,30.698c-0.256,0 -0.512,-0.098 -0.707,-0.293c-0.391,-0.391 -0.391,-1.023 0,-1.414l3.509,-3.509c0.391,-0.391 1.023,-0.391 1.414,0s0.391,1.023 0,1.414l-3.509,3.509C21.162,30.601 20.906,30.698 20.65,30.698z" fill="#F1B501"/>
  <path d="M23.996,31.596c-0.256,0 -0.512,-0.098 -0.707,-0.293c-0.391,-0.391 -0.391,-1.023 0,-1.414l4.386,-4.386c0.391,-0.391 1.023,-0.391 1.414,0s0.391,1.023 0,1.414l-4.386,4.386C24.508,31.498 24.252,31.596 23.996,31.596z" fill="#F1B501"/>
  <path d="M28.58,35.496c-0.256,0 -0.512,-0.098 -0.707,-0.293c-0.391,-0.391 -0.391,-1.023 0,-1.414l4.387,-4.386c0.391,-0.391 1.023,-0.391 1.414,0s0.391,1.023 0,1.414l-4.387,4.386C29.092,35.398 28.836,35.496 28.58,35.496z" fill="#F1B501"/>
  <path d="M28.644,31.173c-0.256,0 -0.512,-0.098 -0.707,-0.293c-0.391,-0.391 -0.391,-1.023 0,-1.414l3.948,-3.947c0.391,-0.391 1.023,-0.391 1.414,0s0.391,1.023 0,1.414l-3.948,3.947C29.155,31.075 28.9,31.173 28.644,31.173z" fill="#F1B501"/>
  <path d="M29.136,39.184c-0.256,0 -0.512,-0.098 -0.707,-0.293c-0.391,-0.391 -0.391,-1.023 0,-1.414l3.509,-3.509c0.391,-0.391 1.023,-0.391 1.414,0s0.391,1.023 0,1.414l-3.509,3.509C29.648,39.086 29.392,39.184 29.136,39.184z" fill="#F1B501"/>
  <path d="M6.6254,36.6529l1.4142,1.4142l-1.4142,1.4142l-1.4142,-1.4142z" fill="#F4C44E"/>
  <path d="M8.7459,38.7741l1.4142,1.4142l-1.4142,1.4142l-1.4142,-1.4142z" fill="#F4C44E"/>
  <path d="M10.8669,40.8961l1.4142,1.4142l-1.4142,1.4142l-1.4142,-1.4142z" fill="#F4C44E"/>
  <path d="M12.988,43.0171l1.4142,1.4142l-1.4142,1.4142l-1.4142,-1.4142z" fill="#F4C44E"/>
  <path d="M15.1099,45.1387l1.4142,1.4142l-1.4142,1.4142l-1.4142,-1.4142z" fill="#F4C44E"/>
  <path d="M17.232,47.2596l1.4142,1.4142l-1.4142,1.4142l-1.4142,-1.4142z" fill="#F4C44E"/>
  <path d="M19.3534,49.3807l1.4142,1.4142l-1.4142,1.4142l-1.4142,-1.4142z" fill="#F4C44E"/>
  <path d="M21.4742,51.5025l1.4142,1.4142l-1.4142,1.4142l-1.4142,-1.4142z" fill="#F4C44E"/>
</svg>
