<svg xmlns="http://www.w3.org/2000/svg" width="512" height="512" shape-rendering="geometricPrecision" image-rendering="optimizeQuality" fill-rule="evenodd"><path fill="#f2f1f1" d="M222.5 53.5c84.204 6.997 146.037 47.664 185.5 122 12.481 25.924 19.314 53.257 20.5 82v56c-20.71-1.537-33.21-12.537-37.5-33 .732-20.992-2.102-41.326-8.5-61-20.444-62.276-62.111-102.776-125-121.5-59.959-13.676-113.293-.676-160 39-4.934 4.426-9.267 9.26-13 14.5-25.045 27.099-40.212 59.099-45.5 96a487.74 487.74 0 0 0-2 36c-5.612 18.794-18.112 28.794-37.5 30v-65c8.428-69.046 41.429-122.879 99-161.5 37.982-23.33 79.316-34.497 124-33.5z"/><path fill="#e4646e" d="M222.5 53.5h46c91.761 7.129 156.928 52.462 195.5 136 15.668 40.323 20.668 81.99 15 125-3.018 17.7-10.518 33.034-22.5 46-3.185-12.018-10.852-19.518-23-22.5a32.46 32.46 0 0 0-8-.5c2.109-5.779 3.276-11.779 3.5-18 .829-20.837.663-41.504-.5-62-1.186-28.743-8.019-56.076-20.5-82-39.463-74.336-101.296-115.003-185.5-122z"/><path fill="#cf5668" d="M268.5 53.5c95.334-4.927 167.5 33.073 216.5 114 14.217 27.142 23.051 55.809 26.5 86v58c-5.752 33.415-23.752 57.749-54 73 .301-8.086-.033-16.086-1-24 11.982-12.966 19.482-28.3 22.5-46 5.668-43.01.668-84.677-15-125-38.572-83.538-103.739-128.871-195.5-136z"/><path fill="#f4c3c6" d="M382.5 219.5c-17.355-5.428-33.689-3.261-49 6.5-17.4 12.611-32.233 27.778-44.5 45.5-27.14 29.554-57.64 33.72-91.5 12.5-.937-.692-1.603-.525-2 .5-6.869-8.075-11.369-17.408-13.5-28l2-59c-7.651-30.652-26.817-49.485-57.5-56.5-15.496-2.126-29.496 1.374-42 10.5 3.733-5.24 8.066-10.074 13-14.5 46.707-39.676 100.041-52.676 160-39 62.889 18.724 104.556 59.224 125 121.5z"/><path fill="#f291b9" d="M195.5 284.5c9.053 10.891 17.553 22.224 25.5 34 3.394 6.119 6.228 12.452 8.5 19a1799.28 1799.28 0 0 0-60 .5c-12.305 3.643-19.805 11.809-22.5 24.5-.5 10.661-.667 21.328-.5 32a2963.2 2963.2 0 0 1-77-.5c-37.834-7.003-61.167-29.169-70-66.5v-14c19.388-1.206 31.888-11.206 37.5-30a487.74 487.74 0 0 1 2-36c5.288-36.901 20.455-68.901 45.5-96 12.504-9.126 26.504-12.626 42-10.5 30.683 7.015 49.849 25.848 57.5 56.5l-2 59c2.131 10.592 6.631 19.925 13.5 28z"/><path fill="#fed7d4" d="M382.5 219.5c6.398 19.674 9.232 40.008 8.5 61 4.29 20.463 16.79 31.463 37.5 33v-56c1.163 20.496 1.329 41.163.5 62-.224 6.221-1.391 12.221-3.5 18h-5-108-13-70c-2.272-6.548-5.106-12.881-8.5-19-7.947-11.776-16.447-23.109-25.5-34 .397-1.025 1.063-1.192 2-.5 33.86 21.22 64.36 17.054 91.5-12.5 12.267-17.722 27.1-32.889 44.5-45.5 15.311-9.761 31.645-11.928 49-6.5z"/><path fill="#f4c3c6" d="M299.5 337.5h13c10.724 2.882 18.224 9.549 22.5 20 1.304 24.271 1.971 48.604 2 73 2.061 12.823 9.228 21.156 21.5 25-9.819.994-19.819 1.327-30 1-12.601-4.11-20.101-12.777-22.5-26l-1-69c-1.977-8.668-6.81-15.001-14.5-19 2.69-2.229 5.69-3.896 9-5z"/><path fill="#f4c2c5" d="M420.5 337.5h5a32.46 32.46 0 0 1 8 .5c12.148 2.982 19.815 10.482 23 22.5.967 7.914 1.301 15.914 1 24v13a450.63 450.63 0 0 0 .5 30c2.248 14.077 10.081 23.41 23.5 28-10.153.994-20.486 1.328-31 1-10.647-4.481-18.147-12.148-22.5-23-1.283-23.625-1.949-47.292-2-71-1.698-9.106-6.531-15.773-14.5-20 2.69-2.229 5.69-3.896 9-5z"/><path d="M229.5 337.5h70c-3.31 1.104-6.31 2.771-9 5-7.983 4.27-12.817 10.937-14.5 20l-1 57c-2.958 19.124-13.792 31.124-32.5 36-3.189.358-6.189 1.025-9 2h-2c-2.215-.768-4.548-1.435-7-2-10.684-3.184-17.517-10.184-20.5-21 .624-15.931-5.876-27.765-19.5-35.5a54.63 54.63 0 0 0-7-2c-10.328-.5-20.661-.666-31-.5h-42l42-2c-.167-10.672 0-21.339.5-32 2.695-12.691 10.195-20.857 22.5-24.5a1799.28 1799.28 0 0 1 60-.5zm83 0h108c-3.31 1.104-6.31 2.771-9 5-7.559 4.082-12.392 10.415-14.5 19a1475.98 1475.98 0 0 1-2 74c-3.412 10.246-10.246 16.913-20.5 20-2.286.095-4.286.762-6 2h-5c-1.43-1.037-3.097-1.704-5-2-12.272-3.844-19.439-12.177-21.5-25-.029-24.396-.696-48.729-2-73-4.276-10.451-11.776-17.118-22.5-20z" fill="#e5646e"/><path d="M290.5 342.5c7.69 3.999 12.523 10.332 14.5 19l1 69c2.399 13.223 9.899 21.89 22.5 26-28.838.331-57.505-.002-86-1 18.708-4.876 29.542-16.876 32.5-36l1-57c1.683-9.063 6.517-15.73 14.5-20zm121 0c7.969 4.227 12.802 10.894 14.5 20 .051 23.708.717 47.375 2 71 4.353 10.852 11.853 18.519 22.5 23a1444.4 1444.4 0 0 1-76-1c10.254-3.087 17.088-9.754 20.5-20a1475.98 1475.98 0 0 0 2-74c2.108-8.585 6.941-14.918 14.5-19zm-307 54h42c18.214 5.77 27.047 18.436 26.5 38 3.172 10.336 9.672 17.669 19.5 22h-94c-12.672-2.166-20.839-9.499-24.5-22-2.519-17.112 3.981-29.279 19.5-36.5 3.586-1.108 7.253-1.608 11-1.5z" fill="#fed7d4"/><path fill="#f4c2c5" d="M146.5 396.5c10.339-.166 20.672 0 31 .5a54.63 54.63 0 0 1 7 2c13.624 7.735 20.124 19.569 19.5 35.5 2.983 10.816 9.816 17.816 20.5 21-10.487.994-21.154 1.328-32 1-9.828-4.331-16.328-11.664-19.5-22 .547-19.564-8.286-32.23-26.5-38z"/><path fill="#e5646e" d="M457.5 397.5c.993 8.818 1.327 17.818 1 27a840.27 840.27 0 0 1 41 .5c5.78 1.621 9.78 5.121 12 10.5v11c-5.506 9.494-13.839 13.161-25 11-1.43-1.037-3.097-1.704-5-2-13.419-4.59-21.252-13.923-23.5-28a450.63 450.63 0 0 1-.5-30z" opacity=".975"/><path fill="#f3a8ab" d="M242.5 455.5c28.495.998 57.162 1.331 86 1 10.181.327 20.181-.006 30-1 1.903.296 3.57.963 5 2h-130c2.811-.975 5.811-1.642 9-2z" opacity=".562"/><g fill="#f3aaad"><path d="M224.5 455.5c2.452.565 4.785 1.232 7 2-44.503.332-88.836-.001-133-1h94c10.846.328 21.513-.006 32-1z" opacity=".556"/><path d="M374.5 455.5a1444.4 1444.4 0 0 0 76 1c10.514.328 20.847-.006 31-1 1.903.296 3.57.963 5 2h-118c1.714-1.238 3.714-1.905 6-2z" opacity=".557"/></g></svg>