<?xml version="1.0" ?>
<svg height="512" viewBox="0 0 512 512" width="512" xmlns="http://www.w3.org/2000/svg">
  <path d="M376.627,121.882h-66.781L186.535,72.558C156.694,60.622 137.412,32.141 137.412,0h30c0,19.802 11.88,37.35 30.265,44.703l117.946,47.179h61.004L376.627,121.882L376.627,121.882z" fill="#9B9B9B"/>
  <path d="M261,117.764l-155.652,0l0,71.236l20.001,67l-20.001,182.451l0,73.549l155.652,0z" fill="#E30020"/>
  <path d="M256,117.764l0,394.236l150.652,0l0,-73.549l-20.001,-182.451l20.001,-67l0,-71.236z" fill="#AA0018"/>
  <path d="M105.348,91.882v30h301.305v-30H105.348z" fill="#E5E5E5"/>
  <path d="M256,91.88h150.65v30h-150.65z" fill="#CFCFCF"/>
  <path d="M105.348,189v249.451h301.305V189H105.348z" fill="#FFE7C3"/>
  <path d="M256,189h150.65v249.45h-150.65z" fill="#FFCF87"/>
  <path d="M241,213.77h30v42.893h-30z" fill="#00C47A"/>
  <path d="M336.556,256.198c-13.226,-13.634 -31.567,-21.143 -51.648,-21.143c-10.105,0 -19.964,1.792 -28.907,5.224c-8.943,-3.431 -18.802,-5.224 -28.907,-5.224c-20.081,0 -38.423,7.509 -51.648,21.143c-13.847,14.275 -21.166,33.965 -21.166,56.941c0,32.512 21.876,67.018 52.016,82.047c6.298,3.14 23.026,11.48 49.706,11.48c26.806,0 43.791,-8.533 49.374,-11.337c30.332,-15.24 52.348,-49.806 52.348,-82.19C357.721,290.164 350.402,270.474 336.556,256.198z" fill="#FC334F"/>
  <path d="M336.556,256.198c-13.226,-13.634 -31.567,-21.143 -51.648,-21.143c-10.105,0 -19.964,1.792 -28.907,5.224c0,31.387 0,136.387 0,166.387c26.806,0 43.791,-8.533 49.374,-11.337c30.332,-15.24 52.348,-49.806 52.348,-82.19C357.721,290.164 350.402,270.474 336.556,256.198z" fill="#E30020"/>
</svg>
