<?xml version="1.0" encoding="UTF-8"?>
<!DOCTYPE svg PUBLIC "-//W3C//DTD SVG 1.1//EN" "http://www.w3.org/Graphics/SVG/1.1/DTD/svg11.dtd">
<svg xmlns="http://www.w3.org/2000/svg" version="1.1" width="512px" height="512px" style="shape-rendering:geometricPrecision; text-rendering:geometricPrecision; image-rendering:optimizeQuality; fill-rule:evenodd; clip-rule:evenodd" xmlns:xlink="http://www.w3.org/1999/xlink">
<g><path style="opacity:1" fill="#eeaf4b" d="M 454.5,134.5 C 448.243,151.15 437.576,164.316 422.5,174C 418.732,176.056 414.732,177.222 410.5,177.5C 335.464,161.793 260.464,146.293 185.5,131C 199.39,152.05 213.057,173.216 226.5,194.5C 218.016,195.493 209.349,195.826 200.5,195.5C 154.956,194.409 110.289,187.576 66.5,175C 49.7206,169.742 33.7206,162.742 18.5,154C 10.1807,148.853 3.84739,142.02 -0.5,133.5C -0.5,130.5 -0.5,127.5 -0.5,124.5C 5.07615,116.095 12.4095,109.595 21.5,105C 47.2494,92.5283 74.2494,83.8616 102.5,79C 197.42,61.6644 291.753,64.331 385.5,87C 406.806,92.1573 426.472,100.824 444.5,113C 451.771,118.374 455.105,125.541 454.5,134.5 Z"/></g>
<g><path style="opacity:0.998" fill="#f8e194" d="M 410.5,177.5 C 410.5,194.167 410.5,210.833 410.5,227.5C 368.119,222.541 325.786,217.208 283.5,211.5C 282.502,242.996 282.168,274.662 282.5,306.5C 264.579,300.304 246.579,294.304 228.5,288.5C 227.508,257.907 227.175,227.24 227.5,196.5C 227.672,195.508 227.338,194.842 226.5,194.5C 213.057,173.216 199.39,152.05 185.5,131C 260.464,146.293 335.464,161.793 410.5,177.5 Z"/></g>
<g><path style="opacity:0.99" fill="#f3c547" d="M 454.5,134.5 C 454.5,167.5 454.5,200.5 454.5,233.5C 439.587,232.321 424.921,230.321 410.5,227.5C 410.5,210.833 410.5,194.167 410.5,177.5C 414.732,177.222 418.732,176.056 422.5,174C 437.576,164.316 448.243,151.15 454.5,134.5 Z"/></g>
<g><path style="opacity:0.995" fill="#f3c547" d="M -0.5,133.5 C 3.84739,142.02 10.1807,148.853 18.5,154C 33.7206,162.742 49.7206,169.742 66.5,175C 110.289,187.576 154.956,194.409 200.5,195.5C 209.318,196.493 218.318,196.827 227.5,196.5C 227.175,227.24 227.508,257.907 228.5,288.5C 228.5,313.167 228.5,337.833 228.5,362.5C 176.723,362.655 125.723,356.488 75.5,344C 52.5502,338.136 31.2169,328.803 11.5,316C 6.89181,311.901 2.89181,307.401 -0.5,302.5C -0.5,246.167 -0.5,189.833 -0.5,133.5 Z"/></g>
<g><path style="opacity:1" fill="#f0ba49" d="M 226.5,194.5 C 227.338,194.842 227.672,195.508 227.5,196.5C 218.318,196.827 209.318,196.493 200.5,195.5C 209.349,195.826 218.016,195.493 226.5,194.5 Z"/></g>
<g><path style="opacity:0.999" fill="#eeaf4b" d="M 283.5,211.5 C 325.786,217.208 368.119,222.541 410.5,227.5C 424.921,230.321 439.587,232.321 454.5,233.5C 473.167,235.833 491.833,238.167 510.5,240.5C 500.38,244.871 489.714,248.038 478.5,250C 428.963,259.434 378.963,263.934 328.5,263.5C 313.037,246.581 298.037,229.247 283.5,211.5 Z"/></g>
<g><path style="opacity:0.99" fill="#fbde75" d="M 283.5,211.5 C 298.037,229.247 313.037,246.581 328.5,263.5C 328.5,323.5 328.5,383.5 328.5,443.5C 313.574,425.398 298.407,407.398 283,389.5C 282.5,361.835 282.333,334.169 282.5,306.5C 282.168,274.662 282.502,242.996 283.5,211.5 Z"/></g>
<g><path style="opacity:0.997" fill="#f3c547" d="M 510.5,240.5 C 510.833,240.5 511.167,240.5 511.5,240.5C 511.5,300.5 511.5,360.5 511.5,420.5C 471.696,432.116 431.03,438.95 389.5,441C 369.175,442.1 348.842,442.933 328.5,443.5C 328.5,383.5 328.5,323.5 328.5,263.5C 378.963,263.934 428.963,259.434 478.5,250C 489.714,248.038 500.38,244.871 510.5,240.5 Z"/></g>
</svg>
