<?xml version="1.0" ?>
<svg height="49" viewBox="0 0 49 49" width="49" xmlns="http://www.w3.org/2000/svg">
  <path d="M36.186,48.5H12.814C9.051,48.5 6,45.449 6,41.686V12.5h37v29.186C43,45.449 39.949,48.5 36.186,48.5z" fill="#E6E6E6"/>
  <path d="M0,11.5h49v2h-49z" fill="#D2D5D7"/>
  <path d="M43,9.5H6v0c0,-2.209 1.791,-4 4,-4h29C41.209,5.5 43,7.291 43,9.5L43,9.5z" fill="#D2D5D7"/>
  <path d="M30,6.5H19v-1c0,-2.757 2.243,-5 5,-5h1c2.757,0 5,2.243 5,5V6.5zM21.171,4.5h6.657c-0.413,-1.164 -1.525,-2 -2.829,-2h-1C22.696,2.5 21.584,3.336 21.171,4.5z" fill="#D2D5D7"/>
  <path d="M6,41.5v0.186c0,3.763 3.051,6.814 6.814,6.814h23.372c3.763,0 6.814,-3.051 6.814,-6.814V41.5H6z" fill="#D2D5D7"/>
  <path d="M19,38.5H9c-0.552,0 -1,-0.447 -1,-1s0.448,-1 1,-1h10c0.552,0 1,0.447 1,1S19.552,38.5 19,38.5z" fill="#FFFFFF"/>
  <path d="M16,34.5H9c-0.552,0 -1,-0.447 -1,-1s0.448,-1 1,-1h7c0.552,0 1,0.447 1,1S16.552,34.5 16,34.5z" fill="#FFFFFF"/>
  <path d="M14,30.5H9c-0.552,0 -1,-0.447 -1,-1s0.448,-1 1,-1h5c0.552,0 1,0.447 1,1S14.552,30.5 14,30.5z" fill="#FFFFFF"/>
</svg>
