<?xml version="1.0" ?>
<svg height="512" viewBox="0 0 512 512" width="512" xmlns="http://www.w3.org/2000/svg">
  <path d="m468.242,37h-173.574l-20.016,99.227 156.371,-20.016zM468.242,37" fill="#cdbfba"/>
  <path d="m85.289,37.012c-47.027,0 -85.289,38.262 -85.289,85.289v206.223h30v-206.223c0,-30.484 24.805,-55.289 55.289,-55.289h56.621c7.473,22.418 16.402,49.199 16.402,49.199l136.355,20.016v-99.227zM85.289,37.012" fill="#efe2dd"/>
  <path d="m431.023,116.211h-136.355s-19.625,214.949 -19.43,214.965c90.855,7.246 204.43,-42.227 236.219,-62.605 -4.309,-62.098 -34.887,-116.75 -80.434,-152.359zM431.023,116.211" fill="#efe2dd"/>
  <path d="m158.313,116.211c-37.688,29.465 -65.117,71.969 -75.91,120.934 26.539,30.141 121.582,86.539 212.266,93.98v-214.914zM158.313,116.211" fill="#fff5f5"/>
  <path d="m511.457,268.57c-67.863,-1.852 -70.117,-31.691 -142.32,-31.691 -37.227,0 -55.855,7.93 -74.469,15.871l-20.016,115.059 20.016,106.473h99.289c69.758,-33.688 118.043,-106.355 118.043,-190.582 0,-5.09 -0.199,-10.133 -0.543,-15.129zM511.457,268.57" fill="#38211a"/>
  <path d="m220.105,268.664c-70.531,0 -74.313,-28.477 -137.703,-31.52 -3.301,14.977 -5.066,30.555 -5.066,46.555 0,84.227 48.285,156.895 118.047,190.582h99.285v-221.531c-18.645,7.953 -37.273,15.914 -74.563,15.914zM220.105,268.664" fill="#71390f"/>
</svg>
