<?xml version="1.0" ?>
<svg height="511.99994" viewBox="0 0 511 511.99994" width="511" xmlns="http://www.w3.org/2000/svg">
  <path d="m197.926,10.789c-16.973,9.531 -28.621,24.398 -33.508,40.301 16.121,4.109 34.883,1.902 51.855,-7.625 14.434,-8.105 25.02,-20.07 30.867,-33.254 1.641,-3.691 -0.742,-7.938 -4.75,-8.461 -14.301,-1.871 -30.027,0.938 -44.465,9.039zM197.926,10.789" fill="#b4e6a0"/>
  <path d="m242.391,1.75c-14.301,-1.871 -30.027,0.938 -44.465,9.039 -16.973,9.531 -28.621,24.398 -33.508,40.301l82.469,-46.281c-0.891,-1.594 -2.488,-2.793 -4.496,-3.059zM242.391,1.75" fill="#96d7a5"/>
  <path d="m147.379,3.238c-2.77,-3.609 -7.926,-4.313 -11.547,-1.551 -3.621,2.762 -4.313,7.934 -1.555,11.551 0.234,0.301 23.027,30.672 23.027,74.762v20.301h16.48v-20.301c0,-49.602 -25.328,-83.352 -26.406,-84.762zM147.379,3.238" fill="#96d7a5"/>
  <path d="m147.379,3.238c-2.77,-3.609 -7.926,-4.313 -11.547,-1.551 -3.621,2.762 -4.313,7.934 -1.555,11.551 0.105,0.133 4.516,6.008 9.449,16.262 1.363,2.836 4.258,4.648 7.406,4.648 6.09,0 10.043,-6.422 7.395,-11.91 -5.586,-11.586 -10.68,-18.383 -11.148,-19zM147.379,3.238" fill="#78c3a5"/>
  <path d="m330.051,240.121c0,86.453 -62.395,156.535 -164.773,156.535s-164.777,-70.082 -164.777,-156.535 62.398,-156.539 164.777,-156.539c102.375,0 164.773,70.086 164.773,156.539zM330.051,240.121" fill="#ffaa5f"/>
  <path d="m214.707,363.703c-102.379,0 -164.773,-70.086 -164.773,-156.539 0,-42.82 15.27,-81.707 43.164,-109.969 -58.738,24.457 -92.598,79.25 -92.598,142.926 0,86.453 62.398,156.535 164.777,156.535 51.664,0 93.109,-17.883 121.527,-46.68 -21.012,8.75 -45.121,13.727 -72.098,13.727zM214.707,363.703" fill="#ff8c5a"/>
  <path d="m511.305,355.465c0,86.449 -62.395,156.535 -164.773,156.535s-164.777,-70.086 -164.777,-156.535c0,-86.453 62.398,-156.539 164.777,-156.539s164.773,70.086 164.773,156.539zM511.305,355.465" fill="#ffaa5f"/>
  <path d="m346.531,215.402c-87.316,0 -148.301,57.594 -148.301,140.063 0,82.465 60.984,140.059 148.301,140.059s148.297,-57.594 148.297,-140.059c0,-82.469 -60.98,-140.063 -148.297,-140.063zM346.531,215.402" fill="#ffedb1"/>
  <path d="m329.465,232.832c-22.934,2.199 -43.273,8.828 -60.199,19.258 -4.559,2.805 -5.32,9.141 -1.535,12.926l56.496,56.492c5.188,5.191 14.063,1.516 14.063,-5.824v-74.629c0,-4.781 -4.066,-8.68 -8.824,-8.223zM329.465,232.832" fill="#ffaa5f"/>
  <path d="m312.574,333.16 l-58.184,-58.188c-3.445,-3.441 -9.102,-3.156 -12.234,0.574 -14.164,16.844 -23.281,37.957 -26.246,62.289 -0.605,4.965 3.191,9.387 8.191,9.387h82.648c7.34,0 11.016,-8.871 5.824,-14.063zM312.574,333.16" fill="#ffaa5f"/>
  <path d="m306.75,363.703h-82.648c-5,0 -8.797,4.422 -8.191,9.387 2.965,24.332 12.082,45.445 26.246,62.289 3.137,3.73 8.789,4.016 12.234,0.574l58.184,-58.188c5.191,-5.191 1.516,-14.063 -5.824,-14.063zM306.75,363.703" fill="#ffaa5f"/>
  <path d="m354.77,241.055v74.629c0,7.34 8.875,11.016 14.063,5.824l56.496,-56.492c3.785,-3.785 3.023,-10.121 -1.531,-12.926 -16.926,-10.43 -37.27,-17.059 -60.199,-19.258 -4.762,-0.457 -8.828,3.441 -8.828,8.223zM354.77,241.055" fill="#ffaa5f"/>
  <path d="m380.484,377.766 l58.188,58.188c3.441,3.445 9.098,3.156 12.23,-0.57 14.164,-16.844 23.285,-37.961 26.25,-62.293 0.605,-4.965 -3.195,-9.387 -8.195,-9.387h-82.645c-7.344,0 -11.02,8.871 -5.828,14.063zM380.484,377.766" fill="#ffaa5f"/>
  <path d="m386.309,347.223h82.648c5,0 8.797,-4.422 8.191,-9.387 -2.961,-24.332 -12.082,-45.449 -26.246,-62.289 -3.133,-3.73 -8.789,-4.02 -12.23,-0.574l-58.188,58.188c-5.191,5.191 -1.516,14.063 5.824,14.063zM386.309,347.223" fill="#ffaa5f"/>
  <path d="m354.77,395.242v74.629c0,4.781 4.07,8.68 8.828,8.223 22.93,-2.203 43.273,-8.828 60.199,-19.258 4.555,-2.809 5.316,-9.141 1.531,-12.926l-56.496,-56.492c-5.188,-5.191 -14.063,-1.516 -14.063,5.824zM354.77,395.242" fill="#ffaa5f"/>
  <path d="m324.227,389.418 l-56.496,56.492c-3.785,3.785 -3.023,10.117 1.535,12.926 16.922,10.43 37.266,17.055 60.199,19.258 4.758,0.457 8.824,-3.445 8.824,-8.223v-74.629c0,-7.34 -8.871,-11.016 -14.063,-5.824zM324.227,389.418" fill="#ffaa5f"/>
  <path d="m285.164,282.445 l39.063,39.063c5.191,5.191 14.063,1.516 14.063,-5.824v-50.516c-20.57,1.289 -38.625,7.395 -53.125,17.277zM285.164,282.445" fill="#ffc369"/>
  <path d="m354.77,265.168v50.516c0,7.34 8.875,11.016 14.063,5.824l39.063,-39.063c-14.5,-9.883 -32.555,-15.988 -53.125,-17.277zM354.77,265.168" fill="#ffc369"/>
  <path d="m420.621,293.02 l-40.137,40.141c-5.188,5.191 -1.512,14.063 5.828,14.063h58.688c-1.762,-21.621 -10.469,-40.176 -24.379,-54.203zM420.621,293.02" fill="#ffc369"/>
  <path d="m445,363.703h-58.691c-7.34,0 -11.016,8.871 -5.824,14.063l40.137,40.137c13.91,-14.023 22.617,-32.578 24.379,-54.199zM445,363.703" fill="#ffc369"/>
  <path d="m407.895,428.48 l-39.063,-39.063c-5.188,-5.191 -14.063,-1.516 -14.063,5.824v50.516c20.57,-1.289 38.625,-7.395 53.125,-17.277zM407.895,428.48" fill="#ffc369"/>
  <path d="m324.227,389.418 l-39.063,39.063c14.5,9.883 32.555,15.988 53.125,17.277v-50.516c0,-7.34 -8.871,-11.016 -14.063,-5.824zM324.227,389.418" fill="#ffc369"/>
  <path d="m306.75,363.703h-58.691c1.762,21.621 10.469,40.176 24.379,54.203l40.137,-40.141c5.191,-5.191 1.516,-14.063 -5.824,-14.063zM306.75,363.703" fill="#ffc369"/>
  <path d="m272.438,293.02c-13.91,14.027 -22.617,32.582 -24.379,54.203h58.691c7.34,0 11.016,-8.871 5.824,-14.063zM272.438,293.02" fill="#ffc369"/>
  <path d="m367.129,355.465c0,11.375 -9.223,20.594 -20.598,20.594s-20.598,-9.219 -20.598,-20.594c0,-11.379 9.223,-20.598 20.598,-20.598s20.598,9.219 20.598,20.598zM367.129,355.465" fill="#fff6d8"/>
</svg>
