<svg xmlns="http://www.w3.org/2000/svg" width="512" height="512" shape-rendering="geometricPrecision" image-rendering="optimizeQuality" fill-rule="evenodd" xmlns:v="https://vecta.io/nano"><path fill="#c86d35" d="M230.5 95.5c-2.342.275-2.342 1.108 0 2.5 40.006 30.155 62.839 70.321 68.5 120.5 1.883 21.793-.284 43.126-6.5 64-7.71.544-10.543 4.544-8.5 12 1.353 1.185 2.52 2.519 3.5 4-24.054 55.703-65.721 90.203-125 103.5-30.207 6.03-59.874 4.196-89-5.5-42.391-29.764-67.057-70.431-74-122v-38c9.665-64.492 43.999-110.659 103-138.5 42.489-17.002 85.155-17.835 128-2.5z" opacity=".997"/><path fill="#c76c35" d="M389.5 91.5c-2.11 4.43-3.61 9.097-4.5 14 .085 15.016-.082 30.016-.5 45 .013 31.843 15.346 52.009 46 60.5l38 .5c6.548 60.198-12.285 110.865-56.5 152-1.213-6.55-5.047-9.05-11.5-7.5-5.76 5.702-5.093 10.536 2 14.5-30.727 23.298-65.56 34.965-104.5 35a164.24 164.24 0 0 1-38.5-4.5c61.093-41.178 87.593-98.678 79.5-172.5-7.983-43.826-29.15-79.659-63.5-107.5-6.848-4.697-13.515-9.53-20-14.5 42.63-22.93 87.296-27.93 134-15z" opacity=".999"/><path fill="#fd9638" d="M433.5 102.5c-17.781 18.085-19.614 37.752-5.5 59 18.327 18.847 38.494 21.013 60.5 6.5a38.47 38.47 0 0 0 5-5.5c7.345 11.69 13.345 24.023 18 37v5c-2.319.492-4.319 1.492-6 3-12.059 3.535-24.392 4.869-37 4l-38-.5c-30.654-8.491-45.987-28.657-46-60.5.418-14.984.585-29.984.5-45 .89-4.903 2.39-9.57 4.5-14 .516-3.048 2.016-5.382 4.5-7 14.02 4.384 27.186 10.384 39.5 18z" opacity=".996"/><path fill="#ac5e2e" d="M230.5 95.5a139.56 139.56 0 0 1 25 11c6.485 4.97 13.152 9.803 20 14.5 34.35 27.841 55.517 63.674 63.5 107.5 8.093 73.822-18.407 131.322-79.5 172.5a164.24 164.24 0 0 0 38.5 4.5c38.94-.035 73.773-11.702 104.5-35-7.093-3.964-7.76-8.798-2-14.5 6.453-1.55 10.287.95 11.5 7.5 44.215-41.135 63.048-91.802 56.5-152 12.608.869 24.941-.465 37-4a562.16 562.16 0 0 1 6 29v38c-9.666 64.495-44 110.661-103 138.5-52.352 20.412-103.352 17.578-153-8.5-57.048 29.499-114.048 29.333-171-.5a138.46 138.46 0 0 1-11-7.5c29.126 9.696 58.793 11.53 89 5.5 59.279-13.297 100.946-47.797 125-103.5-.98-1.481-2.147-2.815-3.5-4-2.043-7.456.79-11.456 8.5-12 6.216-20.874 8.383-42.207 6.5-64-5.661-50.179-28.494-90.345-68.5-120.5-2.342-1.392-2.342-2.225 0-2.5z"/><path fill="#7a6d78" d="M433.5 102.5c25 15 45 35 60 60a38.47 38.47 0 0 1-5 5.5c-22.006 14.513-42.173 12.347-60.5-6.5-14.114-21.248-12.281-40.915 5.5-59z" opacity=".992"/><path d="M197.5 119.5c9.61.436 12.276 4.936 8 13.5-8.539 3.451-12.706.618-12.5-8.5 1.366-1.862 2.866-3.528 4.5-5zm47 37c7.613-.886 11.113 2.447 10.5 10-4.717 6.652-9.383 6.652-14 0-1.244-4.309-.077-7.642 3.5-10z" fill="#ad5e2e"/><path fill="#ac5e2e" d="M273.5 169.5c8.83-1.338 12.33 2.329 10.5 11-4.333 5.333-8.667 5.333-13 0-1.188-4.241-.355-7.908 2.5-11z"/><path fill="#fd9638" d="M158.5 170.5c27.932-2.87 49.432 7.463 64.5 31 34.271 24.034 40.938 54.034 20 90a120.85 120.85 0 0 1-19.5 17.5c-21.55 31.387-49.55 39.053-84 23a82.41 82.41 0 0 1-21.5-21.5c-12.95-8.61-22.616-19.943-29-34-9.237-30.366-.737-54.533 25.5-72.5 10.914-16.27 25.58-27.436 44-33.5z"/><path fill="#7b6d78" d="M163.5 212.5c14.284-1.016 26.617 3.317 37 13-17.642 14.193-20.809 31.193-9.5 51 3.016 2.849 5.85 5.849 8.5 9-5.031 5.855-11.365 9.688-19 11.5-22.627 3.936-39.127-4.231-49.5-24.5-8.265-30.476 2.568-50.476 32.5-60z"/><path fill="#ac5e2e" d="M373.5 213.5c7.169-.987 10.669 2.013 10.5 9-2.025 4.645-5.525 6.145-10.5 4.5-5.279-4.497-5.279-8.997 0-13.5z"/><path fill="#ad5e2e" d="M32.5 227.5c7.664-.834 11.164 2.5 10.5 10-4.219 6.242-8.885 6.575-14 1-1.337-4.628-.17-8.295 3.5-11z"/><path d="M287.5 241.5c7.647-.187 10.814 3.48 9.5 11-4.381 5.321-8.715 5.321-13 0-1.337-4.628-.17-8.295 3.5-11zm141 29c6.479-1.716 10.479.617 12 7-2.328 7.226-6.828 8.893-13.5 5-2.34-4.448-1.84-8.448 1.5-12zm-382 28c6.13-.945 9.796 1.555 11 7.5-2.373 7.875-6.873 9.375-13.5 4.5-2.489-4.743-1.656-8.743 2.5-12zm327 0c10.632.093 13.299 4.593 8 13.5-8.088 2.875-11.921.042-11.5-8.5a27.24 27.24 0 0 1 3.5-5z" fill="#ac5e2e"/><path fill="#ad5e2e" d="M74.5 325.5c7.206-.298 10.373 3.035 9.5 10-2.226 4.361-5.726 5.861-10.5 4.5-5.497-5.317-5.164-10.15 1-14.5z"/><path fill="#ac5e2e" d="M345.5 369.5c9.697.22 12.364 4.72 8 13.5-8.768 2.862-12.601-.305-11.5-9.5 1.376-1.205 2.542-2.538 3.5-4z"/><path fill="#ad5e2e" d="M173.5 382.5c7.664-.834 11.164 2.5 10.5 10-4.299 5.996-8.966 6.329-14 1-1.338-4.54-.171-8.207 3.5-11z"/></svg>