<?xml version="1.0" ?>
<svg height="469.33334" viewBox="0 0 469.33334 469.33334" width="469.33334" xmlns="http://www.w3.org/2000/svg">
  <path d="m298.668,0c-64,0 -85.336,85.332 -85.336,85.332h21.336s21.332,-42.664 64,-42.664c21.332,0 21.332,-21.336 21.332,-21.336s0,-21.332 -21.332,-21.332zM298.668,0" fill="#7d1a00"/>
  <path d="m384,85.332c-42.668,0 -42.668,21.336 -64,21.336s-21.332,-42.668 -85.332,-42.668 -64,42.668 -85.336,42.668c-21.332,0 -21.332,-21.336 -64,-21.336 -42.664,0 -85.332,42.668 -85.332,106.668 0,85.332 85.332,106.668 85.332,192 0,21.332 21.336,64 85.336,64 21.332,0 21.332,21.332 64,21.332 42.664,0 42.664,-21.332 64,-21.332 64,0 85.332,-42.668 85.332,-64 0,-85.332 85.332,-106.668 85.332,-192 0,-64 -42.664,-106.668 -85.332,-106.668zM384,85.332" fill="#c11107"/>
  <path d="m384,384h-42.668c0,-57.656 28.836,-93.688 52,-122.656 19.355,-24.176 33.336,-41.645 33.336,-69.344 0,-41.762 -24.773,-64 -42.668,-64 -11.438,0 -13.563,1.512 -19.293,5.551l-24.625,-34.832c10.355,-7.324 20.793,-13.387 43.918,-13.387 41.043,0 85.332,40.781 85.332,106.668 0,42.668 -21.688,69.781 -42.664,96 -20.98,26.219 -42.668,53.313 -42.668,96zM384,384" fill="#af0a00"/>
  <path d="m320,234.668c0,-121.438 -34.121,-157.5 -59.215,-167.629 -8.543,-2.098 -17.32,-3.121 -26.117,-3.039 -64,0 -64,42.668 -85.336,42.668 -21.332,0 -21.332,-21.336 -64,-21.336 -42.664,0 -85.332,42.668 -85.332,106.668 0,85.332 85.332,106.668 85.332,192 0,21.332 21.336,64 85.336,64 21.332,0 21.332,21.332 64,21.332 42.664,0 85.332,-42.664 85.332,-234.664zM320,234.668" fill="#c82e25"/>
  <path d="m234.668,469.332c-25.023,0 -106.668,-14.613 -106.668,-202.664 0,-188.055 81.645,-202.668 106.668,-202.668v42.668c-29.523,0 -64,41.906 -64,160s34.477,160 64,160zM234.668,469.332" fill="#c11107"/>
  <path d="m94.035,108.355c-16.734,-8.066 -43.746,13.293 -60.332,47.707s-16.469,68.852 0.262,76.914c16.734,8.066 43.746,-13.293 60.332,-47.707 16.586,-34.414 16.469,-68.852 -0.262,-76.914zM94.035,108.355" fill="#d2514a"/>
  <path d="m80.539,132.801c-7.441,-7.445 -20.879,-6.078 -30.016,3.051 -9.133,9.133 -10.504,22.57 -3.063,30.016 7.441,7.441 20.879,6.078 30.016,-3.055 9.133,-9.129 10.504,-22.566 3.063,-30.012zM80.539,132.801" fill="#de807a"/>
  <path d="m256,160c0,-29.457 -14.328,-53.332 -32,-53.332s-32,23.875 -32,53.332 14.328,53.332 32,53.332 32,-23.875 32,-53.332zM256,160" fill="#de807a"/>
</svg>
