<?xml version="1.0" ?>
<svg height="464" viewBox="0 0 464 464" width="464" xmlns="http://www.w3.org/2000/svg">
  <path d="m216,0h200v40h-200zM216,0" fill="#f3e5b9"/>
  <path d="m368,144 l-8,8h-168l-16,-8 40,-112h200zM368,144" fill="#fff1c2"/>
  <path d="m312,88c0,13.254 -10.746,24 -24,24s-24,-10.746 -24,-24 10.746,-24 24,-24 24,10.746 24,24zM312,88" fill="#ebebeb"/>
  <path d="m48,264h-16v-72c0,-3.031 1.711,-5.805 4.426,-7.16l48,-24 7.148,14.32 -43.574,21.785zM48,264" fill="#ebebeb"/>
  <path d="m176,144h208v320h-208zM176,144" fill="#fbedbf"/>
  <path d="m368,144 l16,-8h64l16,8v320h-96zM368,144" fill="#f3e5b9"/>
  <path d="m464,144 l-48,-112 -48,112zM464,144" fill="#e6d9af"/>
  <path d="m280,240h-16c0.07,-27.684 13.098,-53.734 35.199,-70.398l9.602,12.797c-18.09,13.633 -28.746,34.953 -28.801,57.602zM280,240" fill="#85bc94"/>
  <path d="m368,328 l-38.93,38.93c-16.055,16.055 -37.828,25.07 -60.535,25.07 -18.523,0 -36.547,6.008 -51.367,17.121l-17.168,12.879 8,42h160zM368,328" fill="#e06661"/>
  <path d="m232,144 l-56,56v-56zM232,144" fill="#e06661"/>
  <path d="m368,464 l48,-40 48,40zM368,464" fill="#e6d9af"/>
  <path d="m408,288h16v152h-16zM408,288" fill="#e6d9af"/>
  <path d="m408,136h16v136h-16zM408,136" fill="#e6d9af"/>
  <path d="m144,256h64v208h-64zM144,256" fill="#e8b3b2"/>
  <path d="m176,424 l-32,40h64zM176,424" fill="#dcaaa9"/>
  <path d="m168,376h16v64h-16zM168,376" fill="#dcaaa9"/>
  <path d="m144,256 l32,32 32,-32zM144,256" fill="#dcaaa9"/>
  <path d="m168,272h16v56h-16zM168,272" fill="#dcaaa9"/>
  <path d="m168,344h16v16h-16zM168,344" fill="#dcaaa9"/>
  <path d="m0,256h144v208h-144zM0,256" fill="#ffc5c3"/>
  <path d="m112,360c0,22.09 -17.91,40 -40,40s-40,-17.91 -40,-40 17.91,-40 40,-40 40,17.91 40,40zM112,360" fill="#e06661"/>
  <path d="m80,344h-16v-11.199c-0.023,-20.699 10.324,-40.035 27.559,-51.496l8.883,13.313c-12.797,8.504 -20.473,22.859 -20.441,38.223zM80,344" fill="#85bc94"/>
  <path d="m82.344,357.656c-5.719,-5.703 -14.969,-5.703 -20.688,0l-11.313,-11.313c11.973,-11.934 31.34,-11.934 43.313,0zM82.344,357.656" fill="#cd5d59"/>
  <path d="m294.879,344c-4.168,0.02 -8.188,-1.539 -11.246,-4.367 -7.031,-6.434 -17.809,-6.434 -24.84,0 -3.063,2.828 -7.086,4.391 -11.258,4.367 -6.215,0.086 -11.918,-3.438 -14.625,-9.031l-1.551,-2.402c-18.379,-28.477 -26.281,-62.461 -22.352,-96.125 1.793,-11.98 12.23,-20.746 24.336,-20.441h3.871c8.555,-0.113 16.559,4.191 21.184,11.383 3.066,4.629 8.141,7.535 13.684,7.836 5.543,0.297 10.902,-2.043 14.445,-6.316l2.992,-3.727c4.797,-5.852 11.984,-9.227 19.551,-9.176 12.102,-0.309 22.539,8.441 24.344,20.406 3.914,33.672 -4.008,67.656 -22.398,96.129l-1.551,2.402c-2.691,5.594 -8.375,9.125 -14.586,9.063zM294.879,344" fill="#e06661"/>
  <path d="m272,272c-8.121,0.016 -15.914,-3.207 -21.656,-8.953l11.313,-11.313c5.719,5.703 14.969,5.703 20.688,0l11.313,11.313c-5.742,5.746 -13.535,8.969 -21.656,8.953zM272,272" fill="#cd5d59"/>
  <path d="m32,240h16v16h-16zM32,240" fill="#e0e0e0"/>
</svg>
