<svg height="511pt" viewBox="0 0 511.99963 511" width="511pt" xmlns="http://www.w3.org/2000/svg"><path d="m356.125 17.761719-9.535156-11.921875c-5.714844-7.121094-17.726563-7.121094-23.4375 0l-9.535156 11.921875c-34.5 43.125-55.347657 114.484375-34.839844 165.753906l109.355468-92.246094c-3.96875-26.882812-15.046874-52.296875-32.007812-73.507812zm0 0" fill="#93bf00"/><path d="m506.375 165.609375-11.925781-9.535156c-20.753907-16.597657-45.613281-27.582031-71.863281-31.742188l-93.3125 109.664063c18.382812 7.351562 37.71875 10.957031 56.953124 10.957031 34.378907 0 80.566407-24.25 108.222657-46.371094l11.925781-9.550781c3.558594-2.839844 5.625-7.148438 5.625-11.703125s-2.082031-8.863281-5.625-11.71875zm0 0" fill="#81a713"/><path d="m450.460938 79.664062-1.800782 15c-10.800781 98.398438-108.761718 137.835938-111.761718 140.234376l-57.898438-57.597657c20.398438-55.199219 81.160156-106.035156 139.660156-112.636719l15-1.800781c4.796875-.296875 9 1.203125 12.296875 4.5 3.300781 3 4.800781 7.5 4.503907 12.300781zm0 0" fill="#b9dd39"/><path d="m450.460938 79.664062-1.800782 15c-10.800781 98.398438-108.761718 137.835938-111.761718 140.234376l-29.398438-29.398438 138.457031-138.136719c3.300781 3 4.800781 7.5 4.503907 12.300781zm0 0" fill="#93bf00"/><path d="m371.699219 304.800781c0 .898438-.300781 1.800781-.300781 2.699219-.300782 5.398438-30.597657 10.800781-30.898438 16.199219-.601562 4.800781 28.800781 10.300781 27.898438 14.800781-4.199219 21.601562-12.898438 41.699219-25.199219 60-6 8.398438-42.601563 15.5-50.101563 23l24.300782 6-23.398438 23.398438-13.199219-16.796876c-5.101562 5.097657-11.101562 39.296876-16.800781 43.5-18.300781 14.097657-37.699219 24-59 29.097657-4.5 1.199219-10.300781-27.898438-14.800781-27-5.398438.601562-10.800781 31.199219-16.199219 31.5-3.300781.300781-6.601562 1.199219-9.902344 1.199219-16.796875 0-33.898437-3.296876-50.097656-8.699219-4.5-1.5-9-33-13.5-35.097657-5.703125-2.101562-11.101562 25.199219-16.5 22.199219-12.902344-7.199219-25.5-15.902343-36.601562-26.699219-10.800782-11.101562-19.5-23.703124-26.699219-36.601562-2.101563-3.601562 26.097656-7.5 24.300781-11.101562-2.703125-6.296876-35.101562-11.597657-37.203125-17.898438-6.296875-19.5-8.699219-39.601562-7.5-60 .300781-5.101562 30.601563-11.199219 31.5-16 .601563-5.101562-28.199219-10.199219-27-15 5.101563-21.300781 15-39.699219 29.101563-58 4.199218-5.699219 38.398437-11.699219 43.5-16.800781l-16.800782-15.199219 23.402344-23.402344 6 24.300782c7.5-7.5 15.597656-44.097657 24-50.097657 18.300781-12.300781 38.398438-21 60-25.203125 4.800781-.898437 9.898438 28.5 15 27.902344 4.800781-.601562 10.898438-30.601562 16-30.902344.898438 0 1.800781-.296875 2.699219-.296875 19.800781 0 38 4.199219 56.300781 10.796875 3.898438 1.5 7.800781 33.300782 11.699219 34.800782 6.300781 3 14.300781-23.699219 20.300781-20.097657 10.5 6.597657 18.398438 14.097657 27.097656 23.097657l.902344.902343c8.699219 8.398438 15.898438 18 22.199219 28.199219 3.601562 5.699219-23.398438 11.699219-20.398438 17.699219 1.796875 3.898437 33.597657 8.101562 35.097657 12.300781 6.601562 18.300781 10.800781 37.5 10.800781 57.300781zm0 0" fill="#ffd400"/><path d="m371.699219 304.800781c0 .898438-.300781 1.800781-.300781 2.699219-.300782 5.398438-30.597657 10.800781-30.898438 16.199219-.601562 4.800781 28.800781 10.300781 27.898438 14.800781-4.199219 21.601562-12.898438 41.699219-25.199219 60-6 8.398438-42.601563 15.5-50.101563 23l24.300782 6-23.398438 23.398438-13.199219-16.796876c-5.101562 5.097657-11.101562 39.296876-16.800781 43.5-18.300781 14.097657-37.699219 24-59 29.097657-4.5 1.199219-10.300781-27.898438-14.800781-27-5.398438.601562-10.800781 31.199219-16.199219 31.5-3.300781.300781-6.601562 1.199219-9.902344 1.199219-16.796875 0-33.898437-3.296876-50.097656-8.699219-4.5-1.5-9-33-13.5-35.097657-5.703125-2.101562-11.101562 25.199219-16.5 22.199219-12.902344-7.199219-25.5-15.902343-36.601562-26.699219l276.601562-274.800781c8.699219 8.398438 15.898438 18 22.199219 28.199219 3.601562 5.699219-23.398438 11.699219-20.398438 17.699219 1.796875 3.898437 33.597657 8.101562 35.097657 12.300781 6.601562 18.300781 10.800781 37.5 10.800781 57.300781zm0 0" fill="#fdbf00"/><path d="m368.398438 338.5c1.800781-9.898438 2.699218-20.800781 3-31h-77.398438v-60h66.898438c-3.898438-10.5-8.699219-20.402344-14.699219-30h-50.199219v-52.199219c-9.601562-6-21.5-10.800781-32-14.703125v66.902344h-59.003906v-77.402344c-10.199219.300782-21.097656 1.203125-31 3v74.402344h-60v-49.199219c-8.398438 6-16.5 12.597657-24 20.097657l-6 5.699218v23.402344h-23.398438l-13.199218 15.199219c-5.101563 5.101562-9.300782 11.101562-13.5 16.800781h50.097656v58h-79.199219c-2.398437 9.898438-3.898437 20.800781-4.5 31h83.699219v60h-76.199219c3.300781 10.5 7.5 19.398438 12.902344 29h63.296875v63.300781c9.601562 5.398438 19.5 9.597657 30 12.898438v-76.199219h60v83.699219c10.203125-.597657 21.101562-2.097657 31-4.5v-79.199219h59.003906v50.101562c5.699219-4.203124 11.699219-8.402343 16.796875-13.5l13.203125-13.203124v-23.398438h23.398438l5.699218-6c7.5-7.5 14.101563-14.601562 20.101563-23h-49.199219v-60zm-254.398438-89h60v58h-60zm60 149h-60v-60h60zm90 0h-59v-60h59zm0-91h-59v-58h59zm0 0" fill="#fdbf00"/><path d="m368.398438 338.5c1.800781-9.898438 2.699218-20.800781 3-31h-77.398438v-60h66.898438c-3.898438-10.5-8.699219-20.402344-14.699219-30h-50.199219v-.378906l-32.59375 32.378906h.59375v58h-58.972656l-31.210938 31h.179688v60h-60v-.570312l-30 29.808593v63.0625c9.601562 5.398438 19.5 9.597657 30 12.898438v-76.199219h60v83.699219c10.203125-.597657 21.101562-2.097657 31-4.5v-79.199219h59.003906v50.101562c5.699219-4.203124 11.699219-8.402343 16.796875-13.5l13.203125-13.203124v-23.398438h23.398438l5.699218-6c7.5-7.5 14.101563-14.601562 20.101563-23h-49.199219v-60zm-104.398438 60h-59v-60h59zm0 0" fill="#ff9f00"/></svg>