<svg xmlns="http://www.w3.org/2000/svg" width="512" height="512" shape-rendering="geometricPrecision" image-rendering="optimizeQuality" fill-rule="evenodd"><path fill="#6a3a69" d="M198.5-.5h35c49.995 7.143 85.661 33.476 107 79 .716 3.098 1.716 6.098 3 9-68.51 16.881-121.177 55.214-158 115-6.523 2.343-12.023 1.009-16.5-4-2.412-10.299-1.412-20.299 3-30 4.475-10.123 10.142-19.456 17-28a790.87 790.87 0 0 1 32-35c32.338-35.686 26.172-62.852-18.5-81.5-15.483-6.371-31.483-10.871-48-13.5 3.663-2.095 7.663-3.595 12-4.5a330.11 330.11 0 0 1 32-6.5z" opacity=".999"/><path fill="#844882" d="M154.5 10.5c16.517 2.629 32.517 7.129 48 13.5 44.672 18.648 50.838 45.814 18.5 81.5a790.87 790.87 0 0 0-32 35c-6.858 8.544-12.525 17.877-17 28-4.412 9.701-5.412 19.701-3 30 4.477 5.009 9.977 6.343 16.5 4-17.872 30.45-28.872 63.283-33 98.5-1.007 4.98.66 8.647 5 11 6.39 1.942 11.223.109 14.5-5.5 24.829-47.158 55.662-89.992 92.5-128.5a244.04 244.04 0 0 1 42-32c17.511-6.119 35.511-8.119 54-6 9.77 1.36 19.437 3.193 29 5.5-28.103 29.284-50.936 62.284-68.5 99-8.547 23.033-12.714 46.866-12.5 71.5a593.76 593.76 0 0 0 20 130.5c-125.675 14.76-213.842-35.573-264.5-151-19.707-49.164-32.041-100.164-37-153-.05-2.244-.883-3.911-2.5-5C47.52 82.979 85.52 42.479 138.5 16a151.22 151.22 0 0 1 16-5.5z" opacity=".999"/><path fill="#524741" d="M447.5 72.5a98.43 98.43 0 0 0-14 .5c-.556.383-.889.883-1 1.5-19.067 1.517-37.401 6.017-55 13.5-1.442.377-2.442 1.21-3 2.5a732.48 732.48 0 0 0-31-3c-1.284-2.902-2.284-5.902-3-9 25.095-22.449 54.429-36.615 88-42.5 16.536-3.14 33.203-4.473 50-4 3.039 1.031 5.539 2.865 7.5 5.5 1.607 8.564 1.94 17.231 1 26-1.892 3.558-4.725 6.058-8.5 7.5l-31 1.5z" opacity=".989"/><path fill="#088d38" d="M447.5 72.5c2.573 16.248 4.573 32.581 6 49 7.708 108.826-11.792 212.492-58.5 311-8.984 20.631-18.484 40.964-28.5 61-1.098-1.101-1.265-2.434-.5-4 17.102-36.869 33.102-74.202 48-112 18.285-53.098 27.952-107.765 29-164a675.91 675.91 0 0 0 0-52c-.428-12.22-1.595-24.22-3.5-36l-7-51c.111-.617.444-1.117 1-1.5a98.43 98.43 0 0 1 14-.5z" opacity=".992"/><path fill="#b590b4" d="M343.5 87.5a732.48 732.48 0 0 1 31 3c24.325 5.985 44.658 18.319 61 37l-28 25a106.29 106.29 0 0 0-18-7c-9.563-2.307-19.23-4.14-29-5.5-18.489-2.119-36.489-.119-54 6a244.04 244.04 0 0 0-42 32c-36.838 38.508-67.671 81.342-92.5 128.5-3.277 5.609-8.11 7.442-14.5 5.5-4.34-2.353-6.007-6.02-5-11 4.128-35.217 15.128-68.05 33-98.5 36.823-59.786 89.49-98.119 158-115z"/><path fill="#38b449" d="M453.5 121.5c24.671 37.13 42.504 77.463 53.5 121a580.52 580.52 0 0 1 4.5 28v33c-4.189 24.048-13.022 46.382-26.5 67-32.478 47.645-71.645 88.979-117.5 124-.667 0-1-.333-1-1 10.016-20.036 19.516-40.369 28.5-61 46.708-98.508 66.208-202.174 58.5-311z"/><path fill="#349946" d="M439.5 125.5c1.905 11.78 3.072 23.78 3.5 36a675.91 675.91 0 0 1 0 52c-1.048 56.235-10.715 110.902-29 164-14.898 37.798-30.898 75.131-48 112-.765 1.566-.598 2.899.5 4 0 .667.333 1 1 1-.886 1.276-1.886 1.276-3 0-1.537-3.282-2.87-6.616-4-10-10.084-33.001-18.917-66.334-26.5-100a762.6 762.6 0 0 1-7-51c-3.234-39.939 5.1-77.272 25-112 15.297-25.476 33.797-48.476 55.5-69l28-25c1.105-1.1 2.438-1.767 4-2z"/><path fill="#693968" d="M24.5 137.5c1.617 1.089 2.45 2.756 2.5 5 4.959 52.836 17.293 103.836 37 153 50.658 115.427 138.825 165.76 264.5 151a593.76 593.76 0 0 1-20-130.5c-.214-24.634 3.953-48.467 12.5-71.5 17.564-36.716 40.397-69.716 68.5-99a106.29 106.29 0 0 1 18 7c-21.703 20.524-40.203 43.524-55.5 69-19.9 34.728-28.234 72.061-25 112a762.6 762.6 0 0 0 7 51c7.583 33.666 16.416 66.999 26.5 100-30.831 14.788-63.164 23.788-97 27h-40c-79.727-9.599-141.894-47.599-186.5-114-11.561-18.454-20.394-38.121-26.5-59 .091-2.652-.576-4.985-2-7-.398-4.261-1.398-8.261-3-12 .08-3.281-.587-6.281-2-9v-1a50.44 50.44 0 0 0-.5-10c-.383-.556-.883-.889-1.5-1a255.64 255.64 0 0 0-2-11v-51c3.137-34.213 11.47-67.213 25-99z"/><path fill="#2b1a2a" d="M1.5 298.5c.617.111 1.117.444 1.5 1a50.44 50.44 0 0 1 .5 10c-1.403-3.409-2.07-7.075-2-11z" opacity=".722"/><path fill="#020102" d="M3.5 310.5c1.413 2.719 2.08 5.719 2 9-1.413-2.719-2.08-5.719-2-9z" opacity=".095"/><path fill="#060206" d="M5.5 319.5c1.602 3.739 2.602 7.739 3 12-1.916-3.663-2.916-7.663-3-12z" opacity=".075"/><path fill="#0a0409" d="M8.5 331.5c1.424 2.015 2.091 4.348 2 7-1.424-2.015-2.09-4.348-2-7z" opacity=".065"/></svg>