<?xml version="1.0" ?>
<svg height="511.674" viewBox="0 0 511.674 511.674" width="511.674" xmlns="http://www.w3.org/2000/svg">
  <path d="M499.921,15.716C489.82,5.615 473.237,5.589 463.11,15.708L329.33,155.874h64.824L499.93,52.528C510.005,42.453 510.023,25.818 499.921,15.716" fill="#A46F3E"/>
  <path d="M438.074,303.403h34.712c9.572,0 17.356,-7.784 17.356,-17.356v-52.068c0,-9.572 -7.784,-17.356 -17.356,-17.356h-34.712V303.403zM472.786,320.759h-43.39c-4.799,0 -8.678,-3.879 -8.678,-8.678V207.946c0,-4.799 3.879,-8.678 8.678,-8.678h43.39c19.144,0 34.712,15.568 34.712,34.712v52.068C507.498,305.191 491.93,320.759 472.786,320.759L472.786,320.759z" fill="#AEAEAF"/>
  <path d="M38.888,216.624c-9.572,0 -17.356,7.784 -17.356,17.356v52.068c0,9.572 7.784,17.356 17.356,17.356H73.6v-86.78H38.888zM82.278,320.759h-43.39c-19.144,0 -34.712,-15.568 -34.712,-34.712v-52.068c0,-19.144 15.568,-34.712 34.712,-34.712h43.39c4.799,0 8.678,3.879 8.678,8.678v104.136C90.956,316.88 87.077,320.759 82.278,320.759L82.278,320.759z" fill="#AEAEAF"/>
  <path d="M403.363,511.674H108.312c-19.17,0 -34.712,-15.542 -34.712,-34.712V155.878h364.475v321.085C438.074,496.132 422.532,511.674 403.363,511.674" fill="#E6E6E6"/>
  <path d="M455.43,164.556H56.244c-4.799,0 -8.678,-3.879 -8.678,-8.678c0,-4.799 3.879,-8.678 8.678,-8.678H455.43c4.799,0 8.678,3.879 8.678,8.678C464.108,160.677 460.229,164.556 455.43,164.556" fill="#AEAEAF"/>
  <path d="M170.99,129.997c-1.38,0 -2.786,-0.33 -4.087,-1.024c-14.709,-7.88 -23.179,-19.517 -23.847,-32.768c-0.703,-13.98 7.715,-27.943 23.092,-38.305c7.784,-5.97 12.158,-14.431 11.576,-22.875c-0.521,-7.68 -5.12,-14.536 -12.618,-18.796c-4.165,-2.378 -5.623,-7.671 -3.254,-11.837c2.378,-4.174 7.689,-5.623 11.837,-3.254c12.644,7.194 20.428,19.118 21.348,32.707c0.989,14.353 -5.849,28.264 -18.762,38.14c-10.639,7.194 -16.28,15.586 -15.881,23.344c0.347,6.942 5.571,13.451 14.7,18.337c4.226,2.265 5.823,7.524 3.558,11.75C177.082,128.339 174.088,129.997 170.99,129.997" fill="#AEAEAF"/>
  <path d="M275.083,129.997c-1.38,0 -2.786,-0.33 -4.087,-1.024c-14.7,-7.871 -23.17,-19.508 -23.838,-32.768c-0.712,-13.98 7.706,-27.943 23.083,-38.305c7.784,-5.97 12.158,-14.431 11.576,-22.875c-0.521,-7.68 -5.12,-14.536 -12.618,-18.796c-4.165,-2.378 -5.623,-7.671 -3.254,-11.837c2.369,-4.174 7.689,-5.623 11.837,-3.254c12.644,7.194 20.428,19.118 21.348,32.707c0.989,14.353 -5.849,28.264 -18.762,38.14c-10.639,7.194 -16.271,15.586 -15.881,23.352c0.347,6.934 5.571,13.442 14.7,18.328c4.226,2.265 5.823,7.524 3.558,11.75C281.175,128.339 278.173,129.997 275.083,129.997" fill="#AEAEAF"/>
  <path d="M134.346,225.301H116.99c-4.79,0 -8.678,-3.888 -8.678,-8.678v-17.356c0,-4.79 3.888,-8.678 8.678,-8.678h17.356c4.79,0 8.678,3.888 8.678,8.678v17.356C143.024,221.414 139.136,225.301 134.346,225.301" fill="#AEAEAF"/>
  <path d="M134.346,476.962H116.99c-4.79,0 -8.678,-3.888 -8.678,-8.678v-17.356c0,-4.79 3.888,-8.678 8.678,-8.678h17.356c4.79,0 8.678,3.888 8.678,8.678v17.356C143.024,473.075 139.136,476.962 134.346,476.962" fill="#AEAEAF"/>
  <path d="M394.685,476.962h-17.356c-4.79,0 -8.678,-3.888 -8.678,-8.678v-17.356c0,-4.79 3.888,-8.678 8.678,-8.678h17.356c4.79,0 8.678,3.888 8.678,8.678v17.356C403.363,473.075 399.475,476.962 394.685,476.962" fill="#AEAEAF"/>
  <path d="M394.685,225.301h-17.356c-4.79,0 -8.678,-3.888 -8.678,-8.678v-17.356c0,-4.79 3.888,-8.678 8.678,-8.678h17.356c4.79,0 8.678,3.888 8.678,8.678v17.356C403.363,221.414 399.475,225.301 394.685,225.301" fill="#AEAEAF"/>
</svg>
