<svg xmlns="http://www.w3.org/2000/svg" width="512" height="512" shape-rendering="geometricPrecision" image-rendering="optimizeQuality" fill-rule="evenodd"><path fill="#a25040" d="M381.5 79.5c-27.313.771-51.98 9.104-74 25-24.002-17.835-50.002-21.335-78-10.5l-12 7-24 20c-25.273 14.599-50.939 15.266-77 2-11.811-3.469-23.811-4.303-36-2.5 3.299-20.767 12.966-37.934 29-51.5 35.2-32.264 76.534-52.264 124-60 31.421-4.939 61.755-1.272 91 11 20.817 9.813 37.651 24.313 50.5 43.5 2.662 5.157 4.829 10.49 6.5 16z" opacity=".995"/><path fill="#c7634f" d="M381.5 79.5c25.354-2.968 46.688 4.699 64 23-.739-.131-1.406.036-2 .5 12.649 14.096 18.482 30.596 17.5 49.5-20.157-20.497-44.657-28.664-73.5-24.5-28.064 3.037-52.731 13.704-74 32-37.305 33.879-60.972 75.713-71 125.5a137.03 137.03 0 0 0-3 21c-5.272-1.326-10.606-2.326-16-3a446.43 446.43 0 0 1-1-39c5.304-56.443 27.638-104.943 67-145.5a326.75 326.75 0 0 1 18-14.5c22.02-15.896 46.687-24.229 74-25z"/><path fill="#b55a47" d="M307.5 104.5a326.75 326.75 0 0 0-18 14.5c-39.362 40.557-61.696 89.057-67 145.5-19.326 7.498-39.326 12.165-60 14-3.297-3.236-6.13-6.903-8.5-11-5.131-12.935-11.798-24.935-20-36-23.893-23.597-51.726-29.763-83.5-18.5-6.219 3.271-12.219 6.771-18 10.5-8.268-14.181-11.101-29.514-8.5-46 4.718-24.266 18.218-41.766 40.5-52.5a87.01 87.01 0 0 1 16-4.5c12.189-1.803 24.189-.969 36 2.5 26.061 13.266 51.727 12.599 77-2l24-20 12-7c27.998-10.835 53.998-7.335 78 10.5z" opacity=".998"/><path fill="#f5f5f8" d="M407.5 101.5c9.818.3 13.818 5.133 12 14.5-7.956 2.407-12.622-.593-14-9-.105-2.178.561-4.012 2-5.5z"/><path fill="#b55947" d="M445.5 102.5c19.008 22.801 23.341 48.135 13 76a105.31 105.31 0 0 0 3.5-20c-7.348 8.26-16.181 14.427-26.5 18.5l-29.5 9.5c-5.42-8.792-13.253-12.292-23.5-10.5-36.383 18.723-59.883 47.89-70.5 87.5-1.583 10.836 2.583 18.502 12.5 23l1 3a189.02 189.02 0 0 0-5.5 28c-2.665 4.934-6.498 6.101-11.5 3.5-13.804-18.785-32.138-30.785-55-36-3.755-.755-7.422-.589-11 .5 10.028-49.787 33.695-91.621 71-125.5 21.269-18.296 45.936-28.963 74-32 28.843-4.164 53.343 4.003 73.5 24.5.982-18.904-4.851-35.404-17.5-49.5.594-.464 1.261-.631 2-.5z"/><path fill="#a35140" d="M209.5 131.5c14.817-1.446 23.484 5.054 26 19.5-.648 6.626-3.648 11.959-9 16-33.522 19.107-68.855 23.44-106 13-12.625-6.091-16.125-15.591-10.5-28.5 5.536-8.018 13.036-10.851 22.5-8.5 27.511 7.526 53.178 3.692 77-11.5z"/><path fill="#e6c598" d="M212.5 139.5c12.271.431 16.437 6.431 12.5 18-20.769 13.404-43.602 20.071-68.5 20a120.38 120.38 0 0 1-36-6.5c-5.582-4.739-6.415-10.239-2.5-16.5 3.831-3.628 8.331-4.795 13.5-3.5 28.738 7.43 55.738 3.596 81-11.5z"/><path fill="#a25040" d="M458.5 178.5c-6.349 15.682-16.683 28.015-31 37-33.544 4.377-55.378 22.71-65.5 55-1.873 13.634-3.54 27.301-5 41-6.589 24.258-21.423 41.425-44.5 51.5-5.922 2.141-11.588 4.474-17 7-5.072-33.234-23.738-54.401-56-63.5a137.03 137.03 0 0 1 3-21c3.578-1.089 7.245-1.255 11-.5 22.862 5.215 41.196 17.215 55 36 5.002 2.601 8.835 1.434 11.5-3.5a189.02 189.02 0 0 1 5.5-28l-1-3c-9.917-4.498-14.083-12.164-12.5-23 10.617-39.61 34.117-68.777 70.5-87.5 10.247-1.792 18.08 1.708 23.5 10.5l29.5-9.5c10.319-4.073 19.152-10.24 26.5-18.5a105.31 105.31 0 0 1-3.5 20z"/><path fill="#e6c598" d="M385.5 183.5c11.953 1.222 15.787 7.556 11.5 19a346.48 346.48 0 0 0-25.5 18.5c-15.26 15.345-25.76 33.511-31.5 54.5-7.013 5.831-13.346 5.164-19-2-1.25-2.577-1.584-5.243-1-8 10.26-36.742 32.094-64.075 65.5-82z"/><path fill="#da6c55" d="M162.5 278.5c16.242 17.869 36.575 26.203 61 25 5.394.674 10.728 1.674 16 3 32.262 9.099 50.928 30.266 56 63.5 5.412-2.526 11.078-4.859 17-7 23.077-10.075 37.911-27.242 44.5-51.5 1.46-13.699 3.127-27.366 5-41 10.122-32.29 31.956-50.623 65.5-55 18.519-1.052 34.519 4.615 48 17-5.955-.863-11.955-1.197-18-1-36.208 6.541-57.875 27.875-65 64-5.56 1.367-10.06 4.367-13.5 9-4.768 16.538-12.435 31.538-23 45-9.761 9.541-20.427 17.874-32 25-3.839 5.052-5.339 10.718-4.5 17-4.259 6.104-8.759 12.104-13.5 18-14.428 26.364-13.928 52.364 1.5 78l12 15c-30.591-7.758-49.091-27.091-55.5-58a60.93 60.93 0 0 1-.5-11c-.002-17.326 4.998-32.992 15-47-3.067-14.146-9.733-26.146-20-36-12.423-13.21-27.757-20.543-46-22-6.269-6.468-13.936-10.301-23-11.5-14.101-5.774-26.268-14.274-36.5-25.5-5.623-7.746-11.123-15.579-16.5-23.5-3.975-2.576-8.308-4.076-13-4.5-18.227-25.255-42.894-35.422-74-30.5-9.451 1.648-18.118 5.148-26 10.5-3.417 2.755-7.083 5.088-11 7 4.496-10.681 11.163-19.681 20-27 5.781-3.729 11.781-7.229 18-10.5 31.774-11.263 59.607-5.097 83.5 18.5 8.202 11.065 14.869 23.065 20 36 2.37 4.097 5.203 7.764 8.5 11z"/><path fill="#c8644f" d="M123.5 263.5c-14.396 1.564-20.896 9.564-19.5 24 18.206 36.526 47.039 60.36 86.5 71.5 17.041 1.291 25.207-6.542 24.5-23.5l-2.5-7c18.243 1.457 33.577 8.79 46 22-10.763 9.271-18.597 20.604-23.5 34-1.372 7.2-3.372 14.2-6 21-6.712 8.015-15.212 10.848-25.5 8.5-56.253-6.212-104.087-29.379-143.5-69.5-25.921-28.589-38.088-62.256-36.5-101 7.882-5.352 16.549-8.852 26-10.5 31.106-4.922 55.773 5.245 74 30.5z"/><path fill="#b55a47" d="M457.5 231.5c6.045-.197 12.045.137 18 1 20.044 18.103 29.377 40.77 28 68-.789 57.887-19.622 108.887-56.5 153-22.226 25.034-49.726 41.2-82.5 48.5-14.991 1.778-29.991 1.944-45 .5l-12-15c35.163-.424 65.83-12.257 92-35.5 40.403-39.309 63.903-87.142 70.5-143.5a292.19 292.19 0 0 0 1-39 180.54 180.54 0 0 0-5-20c-3.124-5.912-5.957-11.912-8.5-18z"/><path fill="#c8644f" d="M457.5 231.5c2.543 6.088 5.376 12.088 8.5 18a180.54 180.54 0 0 1 5 20 292.19 292.19 0 0 1-1 39c-6.597 56.358-30.097 104.191-70.5 143.5-26.17 23.243-56.837 35.076-92 35.5-15.428-25.636-15.928-51.636-1.5-78 4.741-5.896 9.241-11.896 13.5-18 4.378 13.192 13.378 18.025 27 14.5 36.832-20.007 59.832-50.507 69-91.5-1.9-13.228-9.566-19.561-23-19 7.125-36.125 28.792-57.459 65-64z"/><path fill="#b55a47" d="M23.5 243.5c-1.588 38.744 10.579 72.411 36.5 101 39.413 40.121 87.247 63.288 143.5 69.5 10.288 2.348 18.788-.485 25.5-8.5 2.628-6.8 4.628-13.8 6-21 4.903-13.396 12.737-24.729 23.5-34 10.267 9.854 16.933 21.854 20 36-10.002 14.008-15.002 29.674-15 47-21.862 13.271-45.529 17.771-71 13.5-51.118-4.469-96.118-23.135-135-56-27.016-23.524-43.516-53.024-49.5-88.5a324.25 324.25 0 0 1 0-36c.883-5.536 2.383-10.87 4.5-16 3.917-1.912 7.583-4.245 11-7z"/><path fill="#f6f7f9" d="M435.5 245.5c16.85.015 25.016 8.348 24.5 25-3.695 6.922-9.195 8.755-16.5 5.5-10.402-4.975-14.902-13.141-13.5-24.5 1.36-2.523 3.193-4.523 5.5-6z"/><path fill="#f6f7fa" d="M42.5 253.5c17.324-.509 25.824 7.825 25.5 25-.784 1.786-1.951 3.286-3.5 4.5-12.531 3.2-21.365-1.3-26.5-13.5-1.79-6.427-.29-11.76 4.5-16z"/><path fill="#b65b48" d="M123.5 263.5c4.692.424 9.025 1.924 13 4.5 5.377 7.921 10.877 15.754 16.5 23.5 10.232 11.226 22.399 19.726 36.5 25.5 9.064 1.199 16.731 5.032 23 11.5l2.5 7c.707 16.958-7.459 24.791-24.5 23.5-39.461-11.14-68.294-34.974-86.5-71.5-1.396-14.436 5.104-22.436 19.5-24z"/><path fill="#f6f6f9" d="M222.5 264.5a446.43 446.43 0 0 0 1 39c-24.425 1.203-44.758-7.131-61-25 20.674-1.835 40.674-6.502 60-14z"/><path fill="#feddb7" d="M120.5 271.5c3.559-.092 6.892.741 10 2.5l13.5 19.5c15.516 18.352 35.016 30.519 58.5 36.5 6.749 7.011 6.415 13.678-1 20-5.083 1.791-10.083 1.457-15-1-32.182-10.84-56.682-31.007-73.5-60.5-2.821-8.043-.321-13.71 7.5-17z"/><path fill="#f5f4f6" d="M63.5 293.5c8.864.027 13.031 4.361 12.5 13-4.808 4.181-9.142 3.514-13-2-3.434-3.962-3.267-7.629.5-11z"/><path fill="#f5f6f8" d="M439.5 293.5c9.818.3 13.818 5.133 12 14.5-7.956 2.407-12.622-.593-14-9-.105-2.178.561-4.012 2-5.5z"/><path fill="#b65b48" d="M392.5 295.5c13.434-.561 21.1 5.772 23 19-9.168 40.993-32.168 71.493-69 91.5-13.622 3.525-22.622-1.308-27-14.5-.839-6.282.661-11.948 4.5-17 11.573-7.126 22.239-15.459 32-25 10.565-13.462 18.232-28.462 23-45 3.44-4.633 7.94-7.633 13.5-9z"/><path fill="#feddb7" d="M393.5 303.5c7.709-.151 12.375 3.515 14 11-8.785 37.08-29.785 64.914-63 83.5-9.534 2.99-15.201-.51-17-10.5a29.2 29.2 0 0 1 2.5-7l19.5-13.5c17.893-14.92 29.727-33.753 35.5-56.5 2.217-3.177 5.05-5.511 8.5-7z"/></svg>