<?xml version="1.0" ?>
<svg height="512" viewBox="0 0 512 512" width="512" xmlns="http://www.w3.org/2000/svg">
  <path d="M188.28,201.649C181.828,175.118 158.076,156 130,156s-51.828,19.118 -58.28,45.649C27.287,227.681 0,283.298 0,349c0,43.614 12.259,83.977 34.518,113.652C58.387,494.475 92.297,512 130,512s71.613,-17.525 95.482,-49.348C247.741,432.977 260,392.614 260,349C260,283.298 232.713,227.681 188.28,201.649z" fill="#FEDD90"/>
  <path d="M130,246c-40.561,0 -70,43.317 -70,103s29.439,103 70,103s70,-43.317 70,-103S170.561,246 130,246z" fill="#FFF2A3"/>
  <path d="M477.482,49.348C453.613,17.525 419.703,0 382,0s-71.613,17.525 -95.482,49.348C264.259,79.023 252,119.386 252,163c0,65.702 27.287,121.318 71.72,147.351C330.172,336.882 353.924,356 382,356s51.828,-19.118 58.28,-45.649C484.713,284.319 512,228.702 512,163C512,119.386 499.741,79.023 477.482,49.348z" fill="#E3C281"/>
  <path d="M382,60c-40.561,0 -70,43.317 -70,103s29.439,103 70,103s70,-43.317 70,-103S422.561,60 382,60z" fill="#FEDD90"/>
</svg>
