<?xml version="1.0" ?>
<svg height="512" viewBox="0 0 512 512" width="512" xmlns="http://www.w3.org/2000/svg">
  <path d="m468.918,64.539c-12.656,-12.656 -33.176,-12.656 -45.832,0l-112.723,112.727 95.098,-3.434 63.457,-63.461c12.656,-12.652 12.656,-33.176 0,-45.832zM468.918,64.539" fill="#ff3b62"/>
  <path d="m155.266,121.344 l-18.234,-23.82 -0.16,0.121c0.039,-0.031 4.016,-3.301 6.051,-8.391 1.504,-3.758 2.723,-9.848 -4.004,-19.32 -20.926,-29.461 -6.75,-57.965 7.887,-69.934l18.992,23.223 0.141,-0.117c-0.043,0.035 -4.227,3.684 -6.414,9.266 -1.602,4.086 -2.941,10.621 3.855,20.191 21.121,29.742 6.719,57.426 -8.113,68.781zM155.266,121.344" fill="#ffdba9"/>
  <path d="m228.367,122.777 l-18.234,-23.824 -0.156,0.125c0.039,-0.031 4.012,-3.301 6.051,-8.395 1.5,-3.754 2.723,-9.844 -4.004,-19.316 -20.926,-29.465 -6.75,-57.965 7.883,-69.934l18.992,23.219 0.141,-0.113c-0.043,0.035 -4.227,3.684 -6.414,9.266 -1.602,4.082 -2.941,10.621 3.855,20.191 21.121,29.738 6.719,57.426 -8.113,68.781zM228.367,122.777" fill="#ffbdad"/>
  <path d="m484,166.371v70.16c0,9.109 -0.531,18.148 -1.602,27.09 -4.258,36.051 -17.027,70.441 -37.57,100.711 -24.988,36.867 -59.848,65.418 -100.797,82.57l-2.781,1.168h-170.5l-2.781,-1.168c-40.949,-17.152 -75.809,-45.703 -100.797,-82.57 -20.543,-30.27 -33.313,-64.66 -37.57,-100.711 -1.07,-8.941 -1.602,-17.98 -1.602,-27.09v-70.16zM484,166.371" fill="#fdbf00"/>
  <path d="m512,439.211v20.41c0,4.969 -0.699,9.77 -2.012,14.32 -6.227,21.73 -26.277,37.68 -49.988,37.68h-408c-28.672,0 -52,-23.332 -52,-52v-20.41zM512,439.211" fill="#ffdba9"/>
  <path d="m484,166.371v70.16c0,9.109 -0.531,18.148 -1.602,27.09 -4.258,36.051 -17.027,70.441 -37.57,100.711 -24.988,36.867 -59.848,65.418 -100.797,82.57l-2.781,1.168h-85.648v-281.699zM484,166.371" fill="#ff9f00"/>
  <path d="m512,439.211v20.41c0,4.969 -0.699,9.77 -2.012,14.32 -6.227,21.73 -26.277,37.68 -49.988,37.68h-204.398v-72.41zM512,439.211" fill="#ffbdad"/>
  <path d="m484,233.621v2.91c0,9.109 -0.531,18.148 -1.602,27.09h-452.797c-1.07,-8.941 -1.602,-17.98 -1.602,-27.09v-2.91zM484,233.621" fill="#ff9a00"/>
  <path d="m482.398,263.621h-226.797v-30h228.398v2.91c0,9.109 -0.531,18.148 -1.602,27.09zM482.398,263.621" fill="#e67500"/>
</svg>
