<?xml version="1.0" ?>
<svg height="51.906" viewBox="0 0 51.906 51.906" width="51.906" xmlns="http://www.w3.org/2000/svg">
  <path d="M7.88,49l-6.976,-3l0,-46l6.976,0z" fill="#B27C4F"/>
  <path d="M15.431,34.121c0,0 0,-0.069 0,-0.104c0,-2.371 7.963,-4.293 17.785,-4.293c1.028,0 2.03,0.026 3.01,0.066l2.677,-10.04V0H7.911v49h15.578C18.64,45.823 15.431,40.35 15.431,34.121z" fill="#A46F3E"/>
  <path d="M20.904,23.228h-3.658c-2.95,0 -5.342,-2.392 -5.342,-5.342v-3.658h3.658c2.95,0 5.342,2.392 5.342,5.342V23.228z" fill="#F9EA80"/>
  <path d="M24.904,23.228h3.658c2.95,0 5.342,-2.392 5.342,-5.342v-3.658h-3.658c-2.95,0 -5.342,2.392 -5.342,5.342V23.228z" fill="#F9EA80"/>
  <path d="M22.897,18.728l2.587,-2.587c2.086,-2.086 2.086,-5.468 0,-7.554L22.897,6L20.31,8.587c-2.086,2.086 -2.086,5.468 0,7.554L22.897,18.728z" fill="#F9EA80"/>
  <path d="M40.154,30.063L43.904,16c0,-0.55 -0.45,-1 -1,-1h-2c-0.55,0 -1,0.45 -1,1l-3.677,13.79c-0.98,-0.041 -1.982,-0.066 -3.01,-0.066c-9.823,0 -17.785,1.922 -17.785,4.293c0,0.035 0,0.104 0,0.104c0,9.823 7.963,17.785 17.785,17.785c9.823,0 17.785,-7.963 17.785,-17.785c0,0 0,-0.069 0,-0.104C51.002,32.24 46.53,30.716 40.154,30.063z" fill="#EFE7D0"/>
  <path d="M40.154,30.063L43.904,16c0,-0.55 -0.45,-1 -1,-1h-2c-0.55,0 -1,0.45 -1,1l-3.677,13.79c-0.98,-0.041 -1.982,-0.066 -3.01,-0.066c-9.823,0 -17.785,1.922 -17.785,4.293c0,2.371 7.963,4.293 17.785,4.293c9.823,0 17.785,-1.922 17.785,-4.293C51.002,32.24 46.53,30.716 40.154,30.063z" fill="#FFF5BB"/>
  <path d="M40.154,30.063L43.904,16c0,-0.55 -0.45,-1 -1,-1h-2c-0.55,0 -1,0.45 -1,1l-3.677,13.79l-0.656,2.502L39.446,33L40.154,30.063z" fill="#D2D5D7"/>
  <path d="M28.904,35h-2c0,-0.552 -0.449,-1 -1,-1s-1,0.448 -1,1h-2c0,-1.654 1.346,-3 3,-3S28.904,33.346 28.904,35z" fill="#ED8F20"/>
  <path d="M36.904,36h-2c0,-0.552 -0.449,-1 -1,-1s-1,0.448 -1,1h-2c0,-1.654 1.346,-3 3,-3S36.904,34.346 36.904,36z" fill="#ED8F20"/>
</svg>
