<?xml version="1.0" encoding="UTF-8"?>
<svg viewBox="0 0 511 512" xmlns="http://www.w3.org/2000/svg">
<path d="m343.87 263.63c-0.367 0-0.73-0.023-1.098-0.07-4.453-0.605-7.578-4.691-6.98-9.145 0.309-2.34 8.145-57.551 49.23-82.012 24.289-14.449 54.563-14.926 89.988-1.438 4.207 1.598 6.313 6.305 4.715 10.504-1.605 4.207-6.305 6.324-10.504 4.715-30.52-11.617-56.008-11.551-75.793 0.176-34.313 20.359-41.43 69.734-41.492 70.227-0.559 4.086-4.059 7.043-8.066 7.043z" fill="#cdf5a0"/>
<path d="m170.14 188.32c-1.359 0-2.734-0.344-4-1.059-3.91-2.211-5.297-7.172-3.078-11.094 8.559-15.148 60.492-61.43 143.46-68.57 4.535-0.516 8.422 2.941 8.813 7.41 0.391 4.484-2.934 8.43-7.41 8.813-77.199 6.648-124.25 48.977-130.69 60.363-1.496 2.648-4.254 4.137-7.094 4.137z" fill="#cdf5a0"/>
<path d="m439.54 357.28c0-58.465-43.75-105.86-97.715-105.86-53.969 0-97.715 47.395-97.715 105.86s43.746 105.86 97.715 105.86c53.965 0 97.715-47.395 97.715-105.86z" fill="#be4150"/>
<path d="m361.68 442.28c-53.965 0-97.715-47.398-97.715-105.86 0-24.391 7.609-46.859 20.402-64.758-24.406 19.246-40.25 50.418-40.25 85.621 0 58.465 43.75 105.86 97.715 105.86 31.453 0 59.434-16.09 77.305-41.098-16.125 12.715-35.984 20.234-57.457 20.234z" fill="#a03c4b"/>
<path d="m361.84 501.52-12.215-40.715h-15.602l-12.215 40.715c-1.285 4.301 1.156 8.844 5.465 10.137 0.777 0.23 1.566 0.344 2.336 0.344 3.508 0 6.746-2.273 7.801-5.805l4.414-14.711 4.414 14.711c1.059 3.531 4.293 5.805 7.801 5.805 0.77 0 1.559-0.113 2.336-0.344 4.313-1.293 6.754-5.836 5.465-10.137z" fill="#f0c382"/>
<path d="m400.81 7.566-18.227 18.227-1.066-2.289c-11.949-25.602-45.707-31.551-65.688-11.57l-9.922 9.922c-19.977 19.977-14.031 53.734 11.574 65.684l2.285 1.066-18.227 18.227c-9.867 9.871-3.563 26.766 10.355 27.762l125.65 8.977-8.977-125.65c-0.992-13.922-17.891-20.227-27.758-10.355z" fill="#96cd82"/>
<path d="m397.24 111.4h-46.059c-4.5 0-8.145-3.641-8.145-8.145 0-4.5 3.645-8.141 8.145-8.141h37.918v-37.918c0-4.5 3.641-8.141 8.141-8.141s8.145 3.641 8.145 8.141v46.059c0 4.504-3.645 8.145-8.145 8.145z" fill="#afdc82"/>
<path d="m357.48 381.27c-0.246 4.492 3.191 8.336 7.684 8.574 0.152 0.016 0.301 0.016 0.453 0.016 4.293 0 7.887-3.355 8.117-7.699 0.445-8.047 0.668-16.414 0.668-24.875 0-17.559-0.945-34.32-2.805-49.828-0.543-4.453-4.551-7.609-9.059-7.117-4.469 0.543-7.648 4.598-7.117 9.059 1.766 14.656 2.695 31.211 2.695 47.887 0 8.16-0.215 16.23-0.637 23.984z" fill="#df825d"/>
<path d="m341.83 251.42c-13.734 0-26.75 3.051-38.605 8.59-20.914 19.863-34.684 55.594-34.684 97.27 0 4.5 3.645 8.145 8.145 8.145s8.145-3.645 8.145-8.145c0-40.102 14.973-75.445 35.648-90.273-1.531 4.469-2.953 9.473-4.23 15.238-0.969 4.387 1.797 8.738 6.195 9.707 0.586 0.129 1.184 0.191 1.766 0.191 3.738 0 7.102-2.582 7.941-6.387 4.074-18.398 6.898-22.594 9.23-25.094 3.016-3.23 7-3.668 8.484-8.883-2.664-0.238-5.316-0.359-8.035-0.359z" fill="#df825d"/>
<path d="m406.97 349.14c-4.5 0-8.145 3.641-8.145 8.141 0 40.02-14.91 75.313-35.52 90.191 2.645-7.82 5.121-18.191 7.164-31.996 0.656-4.453-2.418-8.59-6.863-9.25-4.48-0.699-8.598 2.418-9.25 6.863-4.086 27.676-9.949 38.648-12.57 41.426-6.25-5.957-16.246-40.922-16.246-97.23 0-13.816 0.609-27.254 1.828-39.938 0.43-4.477-2.848-8.453-7.324-8.883-4.691-0.535-8.461 2.863-8.883 7.324-1.266 13.199-1.91 27.164-1.91 41.492 0 9.484 0.605 78.906 17.848 104.53 4.816 0.789 9.707 1.328 14.727 1.328 13.652 0 26.645-3.055 38.445-8.531 21.023-19.789 34.84-55.523 34.84-97.328 0-4.5-3.641-8.141-8.141-8.141z" fill="#df825d"/>
<path d="m369.77 441.91c-2.082 2.066-4.23 3.957-6.457 5.563 0.555-1.641 1.109-3.375 1.648-5.254-1.094 0.039-2.18 0.059-3.281 0.059-4.598 0-9.117-0.34-13.547-1.008-2.543 7.766-4.91 11.73-6.344 13.242-2.172-2.066-4.762-7.59-7.262-16.344-6.574-2.063-12.949-4.938-18.875-8.367 2.609 12.727 6.348 24.473 11.508 32.141 4.816 0.789 9.652 1.199 14.672 1.199 13.652 0 26.613-3.012 38.414-8.488 5.555-5.23 10.594-11.531 15.02-18.801-8.063 3.227-16.59 5.258-25.496 6.059z" fill="#be4150"/>
<path d="m217.41 311.98c28.664-50.957 13.77-113.72-33.266-140.18-47.039-26.457-108.41-6.598-137.07 44.359-28.664 50.957-13.77 113.72 33.27 140.18 47.035 26.461 108.41 6.602 137.07-44.355z" fill="#be4150"/>
<path d="m107.88 347.87c-47.035-26.461-61.93-89.215-33.266-140.17 11.957-21.258 29.703-37.125 49.629-46.453-30.707 4.809-59.898 24.223-77.16 54.906-28.664 50.957-13.77 113.72 33.266 140.17 27.414 15.422 59.734 15.086 87.57 2.055-20.285 3.176-41.328 0.016-60.039-10.508z" fill="#a03c4b"/>
<path d="m78.977 399.59 9.316-41.473-13.598-7.652-30.609 29.5c-3.23 3.117-3.328 8.27-0.207 11.512 0.566 0.586 1.199 1.066 1.871 1.445 3.055 1.719 6.992 1.324 9.645-1.234l11.059-10.656-3.367 14.984c-0.809 3.594 0.898 7.164 3.953 8.883 0.672 0.379 1.414 0.668 2.207 0.848 4.391 0.984 8.746-1.773 9.73-6.156z" fill="#f0c382"/>
<path d="m134.13 292.64c-2.418 3.797-1.309 8.828 2.492 11.238 0.125 0.09 0.254 0.164 0.387 0.238 3.742 2.102 8.52 0.941 10.852-2.73 4.332-6.797 8.629-13.977 12.777-21.352 8.605-15.305 16-30.375 21.98-44.805 1.711-4.145-0.23-8.863-4.406-10.645-4.156-1.719-8.918 0.254-10.641 4.406-5.648 13.637-12.953 28.523-21.129 43.059-4 7.109-8.145 14.039-12.313 20.59z" fill="#df825d"/>
<path d="m184.15 171.8c-11.969-6.73-24.867-10.434-37.918-11.418-27.965 7.063-57.426 31.43-77.859 67.754-2.207 3.922-0.816 8.883 3.105 11.086 3.926 2.207 8.883 0.82 11.09-3.102 19.66-34.953 50.039-58.414 75.328-61.203-3.523 3.145-7.215 6.805-11.156 11.207-2.996 3.348-2.719 8.496 0.641 11.5 0.449 0.398 0.938 0.746 1.445 1.031 3.254 1.832 7.453 1.227 10.055-1.672 12.57-14.043 18.75-17.48 21.816-17.809 3.621-0.734 7.684 0.391 10.344-3.09-2.207-1.512-4.52-2.949-6.891-4.285z" fill="#df825d"/>
<path d="m193.02 288.9c-3.922-2.207-8.883-0.816-11.086 3.105-19.621 34.879-49.922 58.328-75.18 61.191 6.141-5.52 13.387-13.344 21.934-24.375 2.758-3.559 2.102-8.672-1.449-11.426-3.559-2.805-8.676-2.105-11.426 1.449-17.129 22.113-27.617 28.805-31.266 29.938-2.527-8.254 5.902-43.629 33.512-92.707 6.77-12.039 13.895-23.453 21.172-33.91 2.57-3.691 1.664-8.762-2.027-11.332-3.828-2.766-8.777-1.652-11.332 2.027-7.574 10.887-14.98 22.738-22.008 35.23-4.648 8.266-38.156 69.066-35.691 99.852 3.809 3.051 7.809 5.918 12.18 8.379 11.902 6.695 24.719 10.402 37.691 11.414 28.027-6.938 57.59-31.313 78.086-67.746 2.203-3.922 0.816-8.883-3.109-11.09z" fill="#df825d"/>
<path d="m115.11 351.52c-2.832 0.781-5.629 1.375-8.359 1.684 1.289-1.156 2.621-2.398 4.012-3.77-0.973-0.5-1.926-1.02-2.887-1.559-4.008-2.258-7.762-4.754-11.297-7.508-6.023 5.52-10.047 7.805-12.035 8.422-0.879-2.867-0.438-9.004 1.676-17.859-4.719-5.02-8.859-10.57-12.34-16.465-3.965 12.371-6.449 24.277-5.715 33.484 3.809 3.051 7.809 5.918 12.184 8.379 11.898 6.695 24.719 10.402 37.691 11.414 7.406-1.832 14.891-4.855 22.313-9.023-8.609-1.141-17.086-3.531-25.242-7.199z" fill="#be4150"/>
<path d="m472.12 186.28c-2.086 0-4.168-0.797-5.758-2.387l-120.94-120.94c-3.18-3.18-3.18-8.332 0-11.512 3.18-3.184 8.332-3.184 11.516 0l120.93 120.93c3.184 3.18 3.184 8.336 0 11.516-1.59 1.59-3.672 2.387-5.754 2.387z" fill="#cdf5a0"/>
</svg>
