<svg xmlns="http://www.w3.org/2000/svg" width="512" height="512" shape-rendering="geometricPrecision" image-rendering="optimizeQuality" fill-rule="evenodd"><path fill="#567a3a" d="M110.5-.5h13c3.265 2.084 6.432 4.417 9.5 7a188.13 188.13 0 0 1 14 22c4.099 5.315 9.266 6.815 15.5 4.5 6.998-3.497 13.665-7.497 20-12 10.474-3.58 20.808-3.246 31 1 10.296 8.605 12.129 18.771 5.5 30.5-3.081 2.793-6.581 4.96-10.5 6.5-10.319 2.995-19.986 7.329-29 13-5.625 6.084-8.958 13.251-10 21.5a128.85 128.85 0 0 1-15-4.5c-9.833-14.508-21.166-27.842-34-40-2.353-1.964-4.853-2.464-7.5-1.5.122 11.493 2.622 22.493 7.5 33-13.078-.386-25.412 2.281-37 8-7.568-6.218-14.401-13.218-20.5-21-5.401-7.364-6.734-15.364-4-24 2.264-2.934 5.098-5.1 8.5-6.5l26-5c1.504-1.491 2.337-3.324 2.5-5.5-.235-7.34 1.099-14.34 4-21 3.351-2.421 6.851-4.421 10.5-6z" opacity=".986"/><path fill="#567a39" d="M318.5 133.5c.558-1.29 1.558-2.123 3-2.5 17.587-5.282 35.587-7.615 54-7 6.871-.952 13.038-3.452 18.5-7.5 1.176-3.76.01-6.593-3.5-8.5-5.903-3.636-12.237-6.303-19-8-26.881-2.901-52.214 1.932-76 14.5-1.763-10.601-2.263-21.267-1.5-32 .862-9.097 5.528-15.097 14-18a66.95 66.95 0 0 0 5.5 1.5c6.782 4.448 13.282 9.281 19.5 14.5.527-12.509 3.194-24.509 8-36 5.347-9.43 13.181-12.93 23.5-10.5 2.117 1.731 3.617 3.898 4.5 6.5a82.87 82.87 0 0 1 2.5 22c15.65 1.362 30.65 5.196 45 11.5 4.782 2.073 6.949 5.573 6.5 10.5a156.05 156.05 0 0 0-24.5 33 37.41 37.41 0 0 0 6 6.5 107.7 107.7 0 0 1 30.5 27.5c6.381 15.858 2.215 28.024-12.5 36.5-11.918 3.792-23.918 4.292-36 1.5-5.621-18.46-16.955-32.293-34-41.5a166.75 166.75 0 0 0-34-14.5z" opacity=".982"/><path fill="#acd384" d="M169.5 93.5c40.36 15.028 70.36 41.694 90 80a199.6 199.6 0 0 1 17 59c-10.044.01-18.71 3.344-26 10-6.019-61.994-38.019-103.994-96-126-9.73-3.6-19.73-6.266-30-8-1.739 12.818-5.239 25.151-10.5 37-1.46 2.71-3.46 3.376-6 2a32.5 32.5 0 0 1-3-7c-2.902-11.51-4.902-23.177-6-35-5.467-2.645-10.634-5.645-15.5-9-.369-1.941-1.036-3.775-2-5.5.566-.995 1.233-1.828 2-2.5 11.588-5.719 23.922-8.386 37-8-4.878-10.507-7.378-21.507-7.5-33 2.647-.964 5.147-.464 7.5 1.5 12.834 12.158 24.167 25.492 34 40a128.85 128.85 0 0 0 15 4.5z" opacity=".992"/><path fill="#89c147" d="M83.5 96.5c4.866 3.355 10.033 6.355 15.5 9 1.098 11.823 3.098 23.49 6 35a32.5 32.5 0 0 0 3 7c2.54 1.376 4.54.71 6-2 5.261-11.849 8.761-24.182 10.5-37 10.27 1.734 20.27 4.4 30 8l5 25c-1.587 7.661-5.587 13.828-12 18.5-7.18 5.093-14.847 9.426-23 13-5.487 5.141-9.32 11.308-11.5 18.5-1.715 6.958-3.215 13.958-4.5 21-5.678 1.623-11.012.789-16-2.5-10.319-6.651-18.152-15.484-23.5-26.5-1.632-5.622-1.632-11.289 0-17a214.88 214.88 0 0 0 7-28c-13.239-3.075-21.739-11.075-25.5-24 .263-2.528 1.096-4.861 2.5-7 9.144-6.327 19.311-9.994 30.5-11z" opacity=".991"/><path fill="#88c047" d="M318.5 133.5c-11.652 5.486-20.152 14.153-25.5 26-10.134 23.464-13.301 47.797-9.5 73h-7a199.6 199.6 0 0 0-17-59c4.174-16.666 11.34-31.999 21.5-46 4.432-4.94 9.265-9.273 14.5-13 23.786-12.568 49.119-17.401 76-14.5 6.763 1.697 13.097 4.364 19 8 3.51 1.907 4.676 4.74 3.5 8.5-5.462 4.048-11.629 6.548-18.5 7.5-18.413-.615-36.413 1.718-54 7-1.442.377-2.442 1.21-3 2.5z" opacity=".992"/><path fill="#f1d8af" d="M276.5 232.5h7c14.329-.134 27.996 2.533 41 8-3.77 14.284-12.77 24.118-27 29.5-9.748 3.805-19.414 7.805-29 12-2.109 1.141-3.942 2.641-5.5 4.5-.684 1.284-.517 2.451.5 3.5 26.423 2.212 50.757-3.788 73-18 7.216-6.139 10.883-13.972 11-23.5 35.389 8.1 64.889 25.767 88.5 53 2.426 3.191 4.593 6.525 6.5 10-5.234 4.041-10.901 7.541-17 10.5-12.58 4.749-24.914 10.083-37 16-17.765 10.764-30.931 25.597-39.5 44.5-1.809 3.432-1.809 6.765 0 10 16.277-15.227 34.777-27.06 55.5-35.5 11.702-2.517 23.035-6.184 34-11 6.668-3.495 11.335-8.662 14-15.5 7.569 17.896 9.736 36.563 6.5 56-3.271 18.855-10.105 36.188-20.5 52-18.483-.063-36.816 2.437-55 7.5-4.305.903-8.139 2.737-11.5 5.5-.684 1.284-.517 2.451.5 3.5a102.58 102.58 0 0 0 45 10c1.614-2.127 3.614-3.627 6-4.5-19.733 21.544-44.066 35.377-73 41.5a963.07 963.07 0 0 1-49 9.5h-36c-50.485-5.647-87.319-30.98-110.5-76-11.459-40.458-6.459-78.791 15-115 1.697-2.52 3.53-4.853 5.5-7-1.058 3.217-2.725 6.051-5 8.5 8.385 7.024 18.051 11.357 29 13 15.398 2.243 30.731 1.91 46-1 1.581-.707 3.081-1.54 4.5-2.5-.643-3.313-2.809-5.48-6.5-6.5l-39-13c-6.882-2.943-13.549-6.11-20-9.5a84.53 84.53 0 0 1 17-17.5c10.539-8.189 21.872-15.189 34-21a874.84 874.84 0 0 0 15-21.5c7.29-6.656 15.956-9.99 26-10z" opacity=".996"/><path d="M324.5 240.5c7.805 2.268 15.472 4.935 23 8-.117 9.528-3.784 17.361-11 23.5-22.243 14.212-46.577 20.212-73 18-1.017-1.049-1.184-2.216-.5-3.5 1.558-1.859 3.391-3.359 5.5-4.5 9.586-4.195 19.252-8.195 29-12 14.23-5.382 23.23-15.216 27-29.5zm-140 62c6.451 3.39 13.118 6.557 20 9.5l39 13c3.691 1.02 5.857 3.187 6.5 6.5-1.419.96-2.919 1.793-4.5 2.5-15.269 2.91-30.602 3.243-46 1-10.949-1.643-20.615-5.976-29-13 2.275-2.449 3.942-5.283 5-8.5a36.88 36.88 0 0 1 9-11zm153 2c14.257.193 18.757 6.86 13.5 20-7.368 5.828-14.035 5.161-20-2-3.18-7.968-1.013-13.968 6.5-18zm105 7c4.618 5.567 7.952 11.9 10 19-2.665 6.838-7.332 12.005-14 15.5-10.965 4.816-22.298 8.483-34 11-20.723 8.44-39.223 20.273-55.5 35.5-1.809-3.235-1.809-6.568 0-10 8.569-18.903 21.735-33.736 39.5-44.5 12.086-5.917 24.42-11.251 37-16 6.099-2.959 11.766-6.459 17-10.5zm-232 51c19.152-1.783 35.818 3.717 50 16.5 5.329 6.328 10.995 12.328 17 18 12.681 8.678 26.014 16.344 40 23l7.5 5.5c.667 1 .667 2 0 3-25.981.437-50.148-6.063-72.5-19.5-3.966-4.967-8.299-9.634-13-14-9.311-6.817-19.311-8.15-30-4-5.634 6.636-11.634 12.969-18 19-2.177 1.202-4.511 1.702-7 1.5-1.525-17.934 4.142-33.101 17-45.5 3.071-1.296 6.071-2.462 9-3.5z" fill="#d8b07c"/><path fill="#d8b07d" d="M223.5 423.5c12.498-.013 17.331 5.987 14.5 18-4.086 5.618-9.586 7.451-16.5 5.5-5.612-4.176-7.445-9.676-5.5-16.5 2.015-2.912 4.515-5.245 7.5-7z"/><path fill="#d8b17d" d="M438.5 438.5c-4.014 8.035-9.014 15.368-15 22-2.386.873-4.386 2.373-6 4.5a102.58 102.58 0 0 1-45-10c-1.017-1.049-1.184-2.216-.5-3.5 3.361-2.763 7.195-4.597 11.5-5.5 18.184-5.063 36.517-7.563 55-7.5z"/></svg>