<?xml version="1.0" ?>
<svg height="510.924" viewBox="0 0 510.924 510.924" width="510.924" xmlns="http://www.w3.org/2000/svg">
  <path d="M503.023,398.773l-14.794,13.276c-47.23,42.37 -103.496,73.414 -164.532,90.768l-28.043,7.976c-2.138,0.611 -4.267,-0.997 -4.267,-3.216L291.387,179.655l5.291,-1.132c78.632,-16.851 150.717,-56.069 207.585,-112.936l0,0c0.997,-0.997 2.704,-0.287 2.704,1.123v323.225C506.966,393.303 505.538,396.519 503.023,398.773" fill="#D1CEC1"/>
  <path d="M504.26,65.59L504.26,65.59c0.746,-0.746 1.886,-0.539 2.416,0.198c0.171,-0.961 0.296,-1.931 0.296,-2.91C506.973,28.151 394.369,0 255.464,0S3.955,28.151 3.955,62.877s112.604,62.877 251.509,62.877c91.756,0 172.014,-12.288 215.938,-30.639C482.828,85.89 493.804,76.045 504.26,65.59" fill="#D1CEC1"/>
  <path d="M254.726,80.847c-53.266,0 -93.543,-6.288 -118.308,-13.06c-4.985,-1.365 -4.985,-8.444 0,-9.809c24.765,-6.773 65.042,-13.06 118.308,-13.06c51.182,0 90.372,5.803 115.335,12.27c5.111,1.32 5.003,8.641 -0.144,9.854c-18.935,4.446 -49.556,10.851 -73.279,12.432C283.164,80.371 269.08,80.847 254.726,80.847" fill="#ECE8D8"/>
  <path d="M291.39,179.654l5.291,-1.132c63.569,-13.626 122.853,-41.876 173.29,-82.252c0.234,-0.189 0.063,-0.584 -0.225,-0.467c-44.266,17.974 -123.661,29.956 -214.285,29.956c-138.905,0 -251.509,-28.151 -251.509,-62.877L3.952,386.25c0,34.726 112.604,62.877 251.509,62.877c12.207,0 24.19,-0.234 35.93,-0.647L291.391,179.654z" fill="#ECE8D8"/>
  <path d="M417.145,188.636c-4.958,0 -8.982,-4.015 -8.982,-8.982v-17.965c0,-4.967 4.024,-8.982 8.982,-8.982c4.958,0 8.982,4.015 8.982,8.982v17.965C426.127,184.621 422.103,188.636 417.145,188.636M417.145,242.531c-4.958,0 -8.982,-4.015 -8.982,-8.982v-17.965c0,-4.967 4.024,-8.982 8.982,-8.982c4.958,0 8.982,4.015 8.982,8.982v17.965C426.127,238.516 422.103,242.531 417.145,242.531M417.145,296.426c-4.958,0 -8.982,-4.015 -8.982,-8.982v-17.965c0,-4.967 4.024,-8.982 8.982,-8.982c4.958,0 8.982,4.015 8.982,8.982v17.965C426.127,292.41 422.103,296.426 417.145,296.426M417.145,350.32c-4.958,0 -8.982,-4.015 -8.982,-8.982v-17.965c0,-4.967 4.024,-8.982 8.982,-8.982c4.958,0 8.982,4.015 8.982,8.982v17.965C426.127,346.305 422.103,350.32 417.145,350.32M417.145,404.215c-4.958,0 -8.982,-4.015 -8.982,-8.982v-17.965c0,-4.967 4.024,-8.982 8.982,-8.982c4.958,0 8.982,4.015 8.982,8.982v17.965C426.127,400.2 422.103,404.215 417.145,404.215M417.145,458.11c-4.958,0 -8.982,-4.015 -8.982,-8.982v-17.965c0,-4.967 4.024,-8.982 8.982,-8.982c4.958,0 8.982,4.015 8.982,8.982v17.965C426.127,454.095 422.103,458.11 417.145,458.11" fill="#ECE8D8"/>
  <path d="M120.724,143.724c-4.958,0 -8.982,-4.015 -8.982,-8.982v-17.965c0,-4.967 4.024,-8.982 8.982,-8.982c4.958,0 8.982,4.015 8.982,8.982v17.965C129.706,139.709 125.682,143.724 120.724,143.724M120.724,197.619c-4.958,0 -8.982,-4.015 -8.982,-8.982v-17.965c0,-4.967 4.024,-8.982 8.982,-8.982c4.958,0 8.982,4.015 8.982,8.982v17.965C129.706,193.603 125.682,197.619 120.724,197.619M120.724,251.513c-4.958,0 -8.982,-4.015 -8.982,-8.982v-17.965c0,-4.967 4.024,-8.982 8.982,-8.982c4.958,0 8.982,4.015 8.982,8.982v17.965C129.706,247.498 125.682,251.513 120.724,251.513M120.724,305.408c-4.958,0 -8.982,-4.015 -8.982,-8.982v-17.965c0,-4.967 4.024,-8.982 8.982,-8.982c4.958,0 8.982,4.015 8.982,8.982v17.965C129.706,301.393 125.682,305.408 120.724,305.408M120.724,359.303c-4.958,0 -8.982,-4.015 -8.982,-8.982v-17.965c0,-4.967 4.024,-8.982 8.982,-8.982c4.958,0 8.982,4.015 8.982,8.982v17.965C129.706,355.288 125.682,359.303 120.724,359.303M120.724,413.197c-4.958,0 -8.982,-4.015 -8.982,-8.982L111.742,386.25c0,-4.967 4.024,-8.982 8.982,-8.982c4.958,0 8.982,4.015 8.982,8.982v17.965C129.706,409.182 125.682,413.197 120.724,413.197" fill="#D1CEC1"/>
</svg>
