<?xml version="1.0" ?>
<svg height="58" viewBox="0 0 58 58" width="58" xmlns="http://www.w3.org/2000/svg">
  <path d="M42.766,48.504c1.862,0.267 3.869,0.145 5.907,-0.451c4.582,-1.341 7.987,-4.967 8.586,-8.935c0.319,-2.113 -0.12,-4.069 -1.105,-5.717c-0.705,-1.18 -0.67,-2.644 0.136,-3.799C57.376,28.044 58,26.214 58,24.247c0,-4.29 -3.006,-8.176 -7.423,-9.993c-2.072,-0.852 -3.673,-2.504 -4.289,-4.459c-1.3,-4.123 -4.245,-6.047 -8.467,-6.664c-3.805,-0.556 -7.251,0.7 -9.067,3.07c-1.065,1.39 -3.31,1.979 -5.61,1.418C21.78,7.286 20.323,7.096 18.8,7.083c-6.395,-0.055 -11.851,3.25 -12.763,8.009c-0.312,1.628 -0.09,3.225 0.56,4.708c1.106,2.526 0.092,5.224 -2.507,7.122C1.57,28.763 0,31.265 0,34.013c0,3.285 5.326,5.906 9.847,7.47c3.426,1.186 5.511,3.499 5.993,6.18c0.006,0.036 0.013,0.071 0.02,0.107c0.866,4.452 5.763,7.431 11.529,7.219c4.608,-0.169 8.618,-2.157 11.054,-4.862C39.508,48.945 41.23,48.284 42.766,48.504z" fill="#FAF5E5"/>
  <path d="M36.5,29.5m-12.5,0a12.5,12.5 0,1 1,25 0a12.5,12.5 0,1 1,-25 0" fill="#F8B600"/>
  <path d="M34,22.374c-0.428,0 -0.823,-0.276 -0.956,-0.706c-0.162,-0.527 0.134,-1.087 0.662,-1.25C34.607,20.141 35.548,20 36.5,20c0.553,0 1,0.447 1,1s-0.447,1 -1,1c-0.753,0 -1.495,0.111 -2.206,0.33C34.196,22.36 34.097,22.374 34,22.374z" fill="#F4C45B"/>
  <path d="M28,30.5c-0.553,0 -1,-0.447 -1,-1c0,-2.807 1.231,-5.454 3.379,-7.265c0.423,-0.356 1.053,-0.301 1.409,0.12c0.355,0.422 0.302,1.053 -0.12,1.409C29.973,25.194 29,27.284 29,29.5C29,30.053 28.553,30.5 28,30.5z" fill="#F4C45B"/>
  <path d="M9.999,17c-0.188,0 -0.377,-0.053 -0.546,-0.163c-0.462,-0.302 -0.593,-0.921 -0.29,-1.384c1.279,-1.96 2.998,-3.429 5.107,-4.368c0.506,-0.223 1.096,0.003 1.32,0.508c0.224,0.504 -0.003,1.096 -0.508,1.32c-1.752,0.779 -3.181,2.002 -4.246,3.634C10.646,16.841 10.325,17 9.999,17z" fill="#FFFFFF"/>
  <path d="M21.001,12c-0.046,0 -0.092,-0.003 -0.139,-0.01c-0.021,-0.002 -0.922,-0.119 -2.211,0.005c-0.557,0.052 -1.039,-0.349 -1.092,-0.898c-0.054,-0.55 0.349,-1.039 0.898,-1.092c1.551,-0.15 2.636,-0.001 2.682,0.005c0.547,0.077 0.928,0.583 0.851,1.13C21.92,11.64 21.491,12 21.001,12z" fill="#FFFFFF"/>
  <path d="M24.239,50.966c-3.095,0 -5.8,-2.218 -6.334,-5.312c-0.094,-0.544 0.271,-1.062 0.815,-1.155c0.543,-0.095 1.062,0.271 1.155,0.815c0.396,2.291 2.521,3.88 4.851,3.625l0.149,-0.017c0.554,-0.069 1.048,0.32 1.116,0.868s-0.32,1.048 -0.868,1.116l-0.163,0.019C24.719,50.953 24.478,50.966 24.239,50.966z" fill="#FFFFFF"/>
  <path d="M17.96,44c-0.337,0 -0.665,-0.17 -0.854,-0.478c-0.722,-1.179 -1.619,-1.749 -1.628,-1.755c-0.472,-0.288 -0.62,-0.903 -0.331,-1.374c0.288,-0.472 0.905,-0.622 1.374,-0.331c0.054,0.032 1.309,0.812 2.29,2.415c0.289,0.472 0.141,1.087 -0.33,1.375C18.318,43.952 18.138,44 17.96,44z" fill="#FFFFFF"/>
  <path d="M34.4872,38.5726a4.4998,7.4997 56.1018,1 0,12.45 -8.3655a4.4998,7.4997 56.1018,1 0,-12.45 8.3655z" fill="#F79B21"/>
</svg>
