<svg xmlns="http://www.w3.org/2000/svg" width="512" height="512" shape-rendering="geometricPrecision" image-rendering="optimizeQuality" fill-rule="evenodd"><path fill="#655d66" d="M262.5 90.5a334.96 334.96 0 0 1-26 27.5c-.594.464-1.261.631-2 .5l-36.5-63c-4.661-15.476.839-24.81 16.5-28 5.226.448 9.892 2.281 14 5.5l34 57.5z" opacity=".983"/><path fill="#d8303d" d="M450.5 137.5h-35l-68-68.5c-9.244-7.289-19.578-12.455-31-15.5 24.343-5.249 46.343-.082 66 15.5l68 68.5z"/><path fill="#de636d" d="M316.5 53.5c11.422 3.044 21.756 8.211 31 15.5l68 68.5h-199l18-19c.739.131 1.406-.036 2-.5a334.96 334.96 0 0 0 26-27.5c8.829-8.661 17.829-17.161 27-25.5 8.126-5.876 17.126-9.709 27-11.5z" opacity=".999"/><path fill="#efc89c" d="M216.5 137.5h199 35 3c5.399.957 9.899 3.623 13.5 8-.008 16.305 3.492 31.805 10.5 46.5-1.755 6.572-6.088 10.405-13 11.5l-283 2c-8.29.511-15.957-1.322-23-5.5-3.165-2.827-4.331-6.327-3.5-10.5 6.952-13.474 10.285-27.807 10-43 2.185-4.357 5.685-7.19 10.5-8.5a840.27 840.27 0 0 1 41-.5z" opacity=".998"/><path fill="#e9a761" d="M453.5 137.5c12.338-.167 24.671 0 37 .5 4.512.508 8.012 2.675 10.5 6.5-.104 15.67 3.396 30.337 10.5 44v8c-2.186 3.111-5.186 5.278-9 6.5a56.43 56.43 0 0 1-17 2.5c6.087 66.205 3.421 132.038-8 197.5a45.93 45.93 0 0 0 3.5 11.5 110.18 110.18 0 0 0 12 13c9.014 10.708 13.014 23.041 12 37-3.688 12.493-12.188 18.827-25.5 19-6.57-.412-12.904-1.745-19-4 9.005-7.518 12.172-17.184 9.5-29a85.13 85.13 0 0 0-7-16 216.06 216.06 0 0 0-16-19c-2.598-4.128-3.765-8.628-3.5-13.5 9.432-55.796 12.765-111.963 10-168.5h-274l2-28 283-2c6.912-1.095 11.245-4.928 13-11.5-7.008-14.695-10.508-30.195-10.5-46.5-3.601-4.377-8.101-7.043-13.5-8z"/><path fill="#efc89c" d="M179.5 233.5h274c2.765 56.537-.568 112.704-10 168.5-.265 4.872.902 9.372 3.5 13.5a216.06 216.06 0 0 1 16 19 85.13 85.13 0 0 1 7 16c2.672 11.816-.495 21.482-9.5 29-4.093-1.545-8.093-3.379-12-5.5a38.51 38.51 0 0 0-10-1.5c-70.168 13.328-140.334 13.328-210.5 0l-6.5.5-20 8a79.95 79.95 0 0 1-16 2.5c7.205-1.859 12.372-6.192 15.5-13l10.5-53c19.412-.58 28.579-10.58 27.5-30-2.851-10.686-9.685-17.02-20.5-19-4.805-.987-9.805-1.321-15-1a370.5 370.5 0 0 1-22-24c0-.667-.333-1-1-1a1090.54 1090.54 0 0 1-1-109z" opacity=".998"/><path fill="#675f67" d="M383.5 289.5c-4.347-4.005-9.347-6.672-15-8 .018-8.08-.482-16.08-1.5-24 3.42-4.253 7.587-5.087 12.5-2.5a33.27 33.27 0 0 1 3.5 8.5c.5 8.66.666 17.327.5 26z"/><path fill="#df646e" d="M368.5 281.5c5.653 1.328 10.653 3.995 15 8 4.731 7.28 6.231 15.28 4.5 24-9.745 32.077-30.912 52.243-63.5 60.5-14.175 4.357-28.508 5.357-43 3-7.17-7.825-6.17-14.492 3-20 11.494-.497 21.828-4.164 31-11 14.754-13.336 23.92-29.836 27.5-49.5 5.41-10.287 13.91-15.287 25.5-15z"/><path fill="#ecc52f" d="M180.5 342.5c.667 0 1 .333 1 1a370.5 370.5 0 0 0 22 24h-31l-52-52.5a198.51 198.51 0 0 0-16-9.5c17.033-4.693 32.699-1.86 47 8.5 9.535 9.702 19.202 19.202 29 28.5z"/><path fill="#f6e264" d="M104.5 305.5a198.51 198.51 0 0 1 16 9.5l52 52.5h-138l53-53.5a50.93 50.93 0 0 1 17-8.5z" opacity=".992"/><path fill="#c77e66" d="M34.5 367.5h138 31c5.195-.321 10.195.013 15 1-9.006-.166-18.006 0-27 .5 18.042 9.786 21.542 23.286 10.5 40.5-3.677 3.923-8.177 6.423-13.5 7.5l-162 .5c-13.342.298-22.342-5.702-27-18v-14c6.667-15.039 18.334-21.039 35-18z" opacity=".997"/><path fill="#ac583e" d="M218.5 368.5c10.815 1.98 17.649 8.314 20.5 19 1.079 19.42-8.088 29.42-27.5 30l-10.5 53c-3.128 6.808-8.295 11.141-15.5 13h-32c5.915-1.051 10.748-4.051 14.5-9a305.88 305.88 0 0 0 7.5-32c.904-.709 1.237-1.709 1-3h-145c-1.871-7.197-3.538-14.53-5-22l162-.5c5.323-1.077 9.823-3.577 13.5-7.5 11.042-17.214 7.542-30.714-10.5-40.5 8.994-.5 17.994-.666 27-.5z"/><path fill="#b96b53" d="M31.5 440.5v-1h145c.237 1.291-.096 2.291-1 3-47.655-1.995-95.655-2.662-144-2z" opacity=".999"/><path fill="#c77d66" d="M31.5 440.5c48.345-.662 96.345.005 144 2a305.88 305.88 0 0 1-7.5 32c-3.752 4.949-8.585 7.949-14.5 9-35.049.473-70.049-.027-105-1.5-4.474-2.143-7.974-5.31-10.5-9.5-2.616-10.582-4.783-21.248-6.5-32z" opacity=".997"/></svg>