<?xml version="1.0" encoding="UTF-8"?>
<svg enable-background="new 0 0 504.123 504.123" version="1.1" viewBox="0 0 504.12 504.12" xml:space="preserve" xmlns="http://www.w3.org/2000/svg">
<path d="m287.31 86.158c0 19.464-15.785 35.241-35.249 35.241-19.448 0-35.249-15.777-35.249-35.241-1e-3 -19.488 15.8-86.158 35.249-86.158 19.463 0 35.249 66.67 35.249 86.158z" fill="#FFD110"/>
<path d="m252.06 0c19.464 0 35.249 66.67 35.249 86.158 0 19.464-15.785 35.241-35.249 35.241" fill="#F7B90B"/>
<path d="m216.81 417.96c0-19.464 15.785-35.241 35.249-35.241 19.448 0 35.249 15.777 35.249 35.241 0 19.495-15.801 86.158-35.249 86.158-19.463 0-35.249-66.67-35.249-86.158z" fill="#FFD110"/>
<path d="m252.06 504.12c-19.464 0-35.249-66.67-35.249-86.158 0-19.464 15.785-35.241 35.249-35.241" fill="#F7B90B"/>
<path d="m394.3 159.67c-13.769 13.761-36.076 13.769-49.829 0-13.753-13.753-13.769-36.076-0.016-49.837 13.785-13.785 72.09-49.751 85.843-36.005 13.769 13.76-22.213 72.065-35.998 85.842z" fill="#FFD110"/>
<path d="m430.29 73.823c13.769 13.769-22.213 72.074-35.998 85.843-13.769 13.761-36.076 13.769-49.829 0" fill="#F7B90B"/>
<path d="m109.83 344.45c13.753-13.761 36.076-13.761 49.829 0 13.753 13.753 13.769 36.076 0.016 49.845-13.785 13.769-72.09 49.751-85.843 35.998-13.768-13.761 22.213-72.058 35.998-85.843z" fill="#FFD110"/>
<path d="m73.83 430.3c-13.769-13.769 22.213-72.066 35.998-85.843 13.753-13.761 36.076-13.761 49.829 0" fill="#F7B90B"/>
<path d="m417.96 287.3c-19.448 0.016-35.249-15.77-35.233-35.233 0-19.464 15.777-35.249 35.233-35.249 19.495 0 86.158 15.785 86.166 35.241 0 19.471-66.678 35.257-86.166 35.241z" fill="#FFD110"/>
<path d="m504.12 252.06c0 19.472-66.678 35.257-86.166 35.241-19.448 0.016-35.249-15.77-35.233-35.233" fill="#F7B90B"/>
<path d="M86.158,216.82c19.464,0,35.249,15.785,35.249,35.241s-15.785,35.241-35.249,35.257  C66.662,287.303,0,271.518,0,252.062C0,232.59,66.662,216.82,86.158,216.82z" fill="#FFD110"/>
<path d="m0 252.06c0-19.472 66.662-35.241 86.158-35.241 19.464 0 35.249 15.785 35.249 35.241" fill="#F7B90B"/>
<path d="m344.44 394.29c-13.745-13.737-13.761-36.068 8e-3 -49.814 13.761-13.753 36.076-13.777 49.845-0.016 13.769 13.777 49.751 72.09 35.998 85.843-13.769 13.769-72.074-22.228-85.851-36.013z" fill="#FFD110"/>
<path d="m430.29 430.3c-13.769 13.769-72.074-22.229-85.851-36.013-13.745-13.737-13.761-36.068 8e-3 -49.814" fill="#F7B90B"/>
<path d="m159.66 109.83c13.753 13.761 13.769 36.084 0 49.837-13.753 13.761-36.076 13.761-49.829 0-13.785-13.785-49.759-72.074-35.998-85.843 13.753-13.76 72.05 22.221 85.827 36.006z" fill="#FFD110"/>
<path d="m73.83 73.823c13.761-13.761 72.058 22.221 85.827 36.005 13.753 13.761 13.769 36.084 0 49.837" fill="#F7B90B"/>
<path d="m199.63 90.758c9.736 16.857 3.962 38.416-12.895 48.136-16.849 9.72-38.4 3.954-48.152-12.895-9.72-16.88-29.397-82.519-12.548-92.239 16.857-9.72 63.851 40.126 73.595 56.998z" fill="#FFD110"/>
<path d="m126.04 33.768c16.857-9.728 63.85 40.117 73.594 56.99 9.736 16.857 3.962 38.416-12.895 48.136" fill="#F7B90B"/>
<path d="m304.5 413.36c-9.728-16.857-3.954-38.416 12.887-48.144 16.849-9.72 38.439-3.946 48.152 12.91 9.744 16.872 29.389 82.503 12.54 92.223-16.833 9.729-63.843-40.116-73.579-56.989z" fill="#FFD110"/>
<path d="m378.08 470.35c-16.833 9.736-63.842-40.109-73.578-56.982-9.728-16.857-3.954-38.416 12.887-48.144" fill="#F7B90B"/>
<path d="m329.05 100.94c-5.041 18.786-24.363 29.948-43.158 24.907-18.786-5.041-29.948-24.363-24.93-43.158 5.057-18.842 37.565-79.139 56.328-74.106 18.817 5.041 16.793 73.531 11.76 92.357z" fill="#FFD110"/>
<path d="m317.29 8.594c18.818 5.041 16.794 73.523 11.76 92.357-5.041 18.786-24.363 29.948-43.158 24.907" fill="#F7B90B"/>
<path d="m175.09 403.2c5.041-18.794 24.379-29.956 43.158-24.907 18.802 5.025 29.972 24.348 24.93 43.158-5.049 18.818-37.565 79.132-56.352 74.09-18.809-5.049-16.793-73.531-11.736-92.341z" fill="#FFD110"/>
<path d="m186.82 495.53c-18.81-5.049-16.794-73.523-11.737-92.341 5.041-18.794 24.379-29.956 43.158-24.907" fill="#F7B90B"/>
<path d="m413.37 199.63c-16.849 9.728-38.416 3.978-48.152-12.887-9.72-16.865-3.938-38.416 12.91-48.152 16.88-9.744 82.511-29.397 92.239-12.572 9.721 16.881-40.125 63.875-56.997 73.611z" fill="#FFD110"/>
<path d="m470.36 126.02c9.728 16.88-40.117 63.874-56.99 73.61-16.849 9.728-38.416 3.978-48.152-12.887" fill="#F7B90B"/>
<path d="m90.774 304.49c16.841-9.728 38.424-3.954 48.128 12.902 9.72 16.849 3.954 38.416-12.895 48.152-16.896 9.728-82.527 29.389-92.239 12.556-9.72-16.864 40.11-63.858 57.006-73.61z" fill="#FFD110"/>
<path d="m33.776 378.1c-9.728-16.865 40.101-63.858 56.997-73.61 16.841-9.728 38.424-3.954 48.128 12.902" fill="#F7B90B"/>
<path d="m403.2 329.04c-18.794-5.033-29.964-24.355-24.907-43.15 5.025-18.794 24.355-29.964 43.15-24.93 18.834 5.049 79.139 37.557 74.098 56.336-5.033 18.825-73.523 16.809-92.341 11.744z" fill="#FFD110"/>
<path d="m495.53 317.3c-5.033 18.818-73.515 16.801-92.341 11.737-18.794-5.033-29.964-24.355-24.907-43.15" fill="#F7B90B"/>
<path d="m100.92 175.09c18.802 5.041 29.972 24.371 24.938 43.158-5.049 18.802-24.363 29.964-43.166 24.923-18.834-5.041-79.124-37.549-74.098-56.344 5.042-18.802 73.516-16.786 92.326-11.737z" fill="#FFD110"/>
<path d="m8.594 186.82c5.049-18.802 73.515-16.786 92.333-11.737 18.802 5.041 29.972 24.371 24.938 43.158" fill="#F7B90B"/>
<path d="m126.04 138.59c16.841 9.72 22.615 31.295 12.887 48.144-9.72 16.833-31.295 22.623-48.167 12.902-16.857-9.744-66.694-56.753-56.974-73.61 9.727-16.849 75.35 2.82 92.254 12.564z" fill="#FFD110"/>
<path d="m33.776 126.02c9.736-16.849 75.359 2.82 92.262 12.564 16.841 9.72 22.615 31.295 12.887 48.144" fill="#F7B90B"/>
<path d="m378.14 365.53c-16.865-9.72-22.646-31.287-12.926-48.136 9.712-16.841 31.311-22.63 48.152-12.895 16.88 9.728 66.71 56.753 56.966 73.602-9.697 16.849-75.336-2.82-92.192-12.571z" fill="#FFD110"/>
<path d="m470.34 378.1c-9.704 16.849-75.335-2.82-92.199-12.572-16.865-9.72-22.646-31.287-12.926-48.136" fill="#F7B90B"/>
<path d="m243.18 82.684c5.041 18.802-6.112 38.132-24.907 43.166-18.794 5.018-38.132-6.128-43.158-24.907-5.057-18.849-7.058-87.324 11.713-92.357 18.803-5.034 51.303 55.28 56.352 74.098z" fill="#FFD110"/>
<path d="m186.82 8.594c18.81-5.041 51.31 55.28 56.352 74.09 5.041 18.802-6.112 38.132-24.907 43.166" fill="#F7B90B"/>
<path d="m260.97 421.43c-5.025-18.794 6.136-38.124 24.923-43.158 18.802-5.041 38.124 6.105 43.158 24.923 5.057 18.826 7.042 87.308-11.76 92.341-18.795 5.034-51.279-55.28-56.321-74.106z" fill="#FFD110"/>
<path d="m317.29 495.53c-18.802 5.041-51.279-55.28-56.32-74.098-5.025-18.794 6.136-38.124 24.923-43.158" fill="#F7B90B"/>
<path d="m365.54 126.01c-9.712 16.849-31.279 22.646-48.136 12.91-16.841-9.736-22.615-31.303-12.887-48.152 9.728-16.88 56.745-66.71 73.594-56.997 16.85 9.744-2.819 75.367-12.571 92.239z" fill="#FFD110"/>
<path d="m378.11 33.76c16.849 9.752-2.82 75.374-12.572 92.247-9.712 16.849-31.279 22.646-48.136 12.91" fill="#F7B90B"/>
<path d="m138.6 378.12c9.712-16.849 31.295-22.638 48.136-12.895 16.849 9.72 22.63 31.287 12.895 48.136-9.736 16.88-56.753 66.725-73.594 56.982-16.857-9.712 2.788-75.343 12.563-92.223z" fill="#FFD110"/>
<path d="m126.04 470.35c-16.857-9.72 2.788-75.343 12.564-92.231 9.712-16.849 31.295-22.638 48.136-12.895" fill="#F7B90B"/>
<path d="m421.45 243.17c-18.786 5.041-38.14-6.112-43.142-24.915-5.049-18.794 6.089-38.124 24.883-43.166 18.826-5.049 87.316-7.05 92.341 11.737 5.057 18.811-55.248 51.303-74.082 56.344z" fill="#FFD110"/>
<path d="m495.53 186.82c5.057 18.818-55.257 51.31-74.082 56.344-18.786 5.041-38.14-6.112-43.142-24.915" fill="#F7B90B"/>
<path d="m82.692 260.97c18.786-5.041 38.124 6.113 43.166 24.907 5.049 18.802-6.097 38.124-24.938 43.158-18.802 5.065-87.284 7.05-92.333-11.737-5.019-18.81 55.271-51.286 74.105-56.328z" fill="#FFD110"/>
<path d="m8.594 317.3c-5.025-18.818 55.272-51.295 74.098-56.328 18.786-5.041 38.124 6.113 43.166 24.907" fill="#F7B90B"/>
<g fill="#1A3D5B">
	<circle cx="252.06" cy="252.06" r="146.74"/>
	<path d="m252.06 407.88c-41.63 0-80.754-16.203-110.18-45.631-60.755-60.763-60.755-159.61 0-220.36 29.428-29.428 68.569-45.647 110.18-45.647s80.738 16.219 110.18 45.647c60.755 60.755 60.755 159.6 0 220.36-29.437 29.436-68.562 45.639-110.18 45.639z"/>
</g>
<path d="m252.06 105.31c37.549 0 75.114 14.32 103.76 42.984 57.297 57.305 57.297 150.21 0 207.52-28.648 28.656-66.213 42.977-103.76 42.977-37.557 0-75.122-14.32-103.76-42.969-57.297-57.313-57.297-150.22 0-207.53 28.64-28.663 66.221-42.984 103.76-42.984m0-18.156c-44.048 0-85.449 17.156-116.6 48.309-64.284 64.284-64.284 168.89 0 233.2 31.153 31.137 72.554 48.286 116.6 48.286 44.04 0 85.449-17.148 116.59-48.301 64.299-64.291 64.299-168.9 0-233.19-31.146-31.146-72.547-48.302-116.59-48.302z" fill="#E5A10A"/>
<path d="m355.82 148.3c57.297 57.305 57.297 150.21 0 207.52-57.313 57.305-150.21 57.305-207.52 8e-3" fill="#082130"/>
<g fill="#0E2C42">
	<path d="m360.98 172.64c0 2.19-1.772 3.97-3.97 3.97h-209.89c-2.206 0-3.978-1.78-3.978-3.97 0-2.182 1.772-3.97 3.978-3.97h209.89c2.206 0 3.971 1.788 3.971 3.97z"/>
	<path d="m360.98 212.35c0 2.19-1.772 3.978-3.97 3.978h-209.89c-2.206 0-3.978-1.788-3.978-3.978 0-2.182 1.772-3.97 3.978-3.97h209.89c2.206 0 3.971 1.788 3.971 3.97z"/>
	<path d="m360.98 252.06c0 2.19-1.772 3.97-3.97 3.97h-209.89c-2.206 0-3.978-1.78-3.978-3.97s1.772-3.978 3.978-3.978h209.89c2.206 0 3.971 1.788 3.971 3.978z"/>
	<path d="m360.98 291.77c0 2.19-1.772 3.978-3.97 3.978h-209.89c-2.206 0-3.978-1.788-3.978-3.978s1.772-3.97 3.978-3.97h209.89c2.206 0 3.971 1.78 3.971 3.97z"/>
	<path d="m360.98 331.48c0 2.182-1.772 3.97-3.97 3.97h-209.89c-2.206 0-3.978-1.788-3.978-3.97 0-2.19 1.772-3.97 3.978-3.97h209.89c2.206 0 3.971 1.78 3.971 3.97z"/>
	<path d="m331.48 360.98c-2.198 0-3.97-1.772-3.97-3.97v-209.89c0-2.198 1.772-3.97 3.97-3.97 2.182 0 3.97 1.772 3.97 3.97v209.89c0 2.206-1.788 3.971-3.97 3.971z"/>
	<path d="m291.77 360.98c-2.198 0-3.97-1.772-3.97-3.97v-209.89c0-2.198 1.772-3.97 3.97-3.97 2.182 0 3.97 1.772 3.97 3.97v209.89c0 2.206-1.788 3.971-3.97 3.971z"/>
	<path d="m252.06 360.98c-2.198 0-3.97-1.772-3.97-3.97v-209.89c0-2.198 1.772-3.97 3.97-3.97 2.182 0 3.97 1.772 3.97 3.97v209.89c0 2.206-1.789 3.971-3.97 3.971z"/>
	<path d="m212.35 360.98c-2.198 0-3.986-1.772-3.986-3.97v-209.89c0-2.198 1.788-3.97 3.986-3.97 2.182 0 3.97 1.772 3.97 3.97v209.89c0 2.206-1.788 3.971-3.97 3.971z"/>
	<path d="m172.64 360.98c-2.19 0-3.97-1.772-3.97-3.97v-209.89c0-2.198 1.78-3.97 3.97-3.97 2.182 0 3.978 1.772 3.978 3.97v209.89c-1e-3 2.206-1.797 3.971-3.978 3.971z"/>
</g>















</svg>
