<?xml version="1.0" ?>
<svg height="512" viewBox="0 0 512 512" width="512" xmlns="http://www.w3.org/2000/svg">
  <path d="m313.691,10.789v43.262c0,5.949 -4.832,10.777 -10.793,10.777h-93.797c-5.961,0 -10.793,-4.828 -10.793,-10.777v-43.262c0,-5.961 4.832,-10.789 10.793,-10.789h93.797c5.961,0 10.793,4.828 10.793,10.789zM313.691,10.789" fill="#fdbb46"/>
  <path d="m303.156,0h-30.902c5.816,0 10.531,4.945 10.531,11.047v42.738c0,6.102 -4.715,11.051 -10.531,11.051h30.902c5.82,0 10.535,-4.949 10.535,-11.051v-42.738c0,-6.102 -4.715,-11.047 -10.535,-11.047zM303.156,0" fill="#fc9d2a"/>
  <path d="m234.648,34.578v30.25h-15v-30.25c0,-4.137 3.363,-7.5 7.5,-7.5 4.152,0 7.5,3.363 7.5,7.5zM234.648,34.578" fill="#eb7c0c"/>
  <path d="m292.352,34.578v30.25h-15v-30.25c0,-4.137 3.348,-7.5 7.5,-7.5 4.137,0 7.5,3.363 7.5,7.5zM292.352,34.578" fill="#eb7c0c"/>
  <path d="m263.5,34.578v30.25h-15v-30.25c0,-4.137 3.359,-7.5 7.5,-7.5s7.5,3.363 7.5,7.5zM263.5,34.578" fill="#eb7c0c"/>
  <path d="m352.82,512h-193.641c-9.207,0 -16.672,-7.465 -16.672,-16.672v-416.848c0,-9.207 7.465,-16.668 16.672,-16.668h193.641c9.207,0 16.672,7.461 16.672,16.668v416.848c0,9.207 -7.465,16.672 -16.672,16.672zM352.82,512" fill="#ffe491"/>
  <path d="m352.809,61.813h-30.949c9.211,0 16.68,7.457 16.68,16.656v416.875c0,9.199 -7.469,16.656 -16.68,16.656h30.949c9.215,0 16.684,-7.457 16.684,-16.656v-416.875c0,-9.199 -7.469,-16.656 -16.684,-16.656zM352.809,61.813" fill="#ffd659"/>
  <path d="m375.691,155.043h-239.383c-5.691,0 -10.309,-4.617 -10.309,-10.313v-41.191c0,-5.691 4.617,-10.309 10.309,-10.309h239.383c5.691,0 10.309,4.617 10.309,10.309v41.191c0,5.695 -4.617,10.313 -10.309,10.313zM375.691,155.043" fill="#ffd659"/>
  <path d="m375.684,93.23h-30.953c5.699,0 10.316,4.613 10.316,10.301v41.207c0,5.691 -4.617,10.305 -10.316,10.305h30.953c5.695,0 10.316,-4.613 10.316,-10.305v-41.207c0,-5.688 -4.617,-10.301 -10.316,-10.301zM375.684,93.23" fill="#ffbd54"/>
  <path d="m375.691,258.059h-239.383c-5.691,0 -10.309,-4.613 -10.309,-10.309v-41.191c0,-5.695 4.617,-10.313 10.309,-10.313h239.383c5.691,0 10.309,4.617 10.309,10.313v41.191c0,5.695 -4.617,10.309 -10.309,10.309zM375.691,258.059" fill="#ffd659"/>
  <path d="m375.684,196.25h-30.953c5.699,0 10.316,4.609 10.316,10.301v41.207c0,5.691 -4.617,10.301 -10.316,10.301h30.953c5.695,0 10.316,-4.609 10.316,-10.301v-41.207c0,-5.688 -4.617,-10.301 -10.316,-10.301zM375.684,196.25" fill="#ffbd54"/>
  <path d="m375.691,361.078h-239.383c-5.691,0 -10.309,-4.617 -10.309,-10.309v-41.195c0,-5.691 4.617,-10.309 10.309,-10.309h239.383c5.691,0 10.309,4.617 10.309,10.309v41.195c0,5.695 -4.617,10.309 -10.309,10.309zM375.691,361.078" fill="#ffd659"/>
  <path d="m375.684,299.27h-30.953c5.699,0 10.316,4.609 10.316,10.301v41.207c0,5.691 -4.617,10.301 -10.316,10.301h30.953c5.695,0 10.316,-4.609 10.316,-10.301v-41.207c0,-5.691 -4.617,-10.301 -10.316,-10.301zM375.684,299.27" fill="#ffbd54"/>
  <path d="m375.691,464.098h-239.383c-5.691,0 -10.309,-4.617 -10.309,-10.313v-41.191c0,-5.691 4.617,-10.309 10.309,-10.309h239.383c5.691,0 10.309,4.617 10.309,10.309v41.191c0,5.695 -4.617,10.313 -10.309,10.313zM375.691,464.098" fill="#ffd659"/>
  <path d="m375.684,402.285h-30.953c5.699,0 10.316,4.613 10.316,10.305v41.207c0,5.688 -4.617,10.301 -10.316,10.301h30.953c5.695,0 10.316,-4.613 10.316,-10.301v-41.207c0,-5.691 -4.617,-10.305 -10.316,-10.305zM375.684,402.285" fill="#ffbd54"/>
  <path d="m322.961,279.695c0,-56.898 -29.98,-103.02 -66.961,-103.02s-66.961,46.121 -66.961,103.02c0,56.895 29.98,103.016 66.961,103.016s66.961,-46.121 66.961,-103.016zM322.961,279.695" fill="#3bd387"/>
  <path d="m282.785,288.422c0,22.188 -11.992,31.449 -26.785,31.449s-26.785,-9.258 -26.785,-31.449 26.785,-48.906 26.785,-48.906 26.785,26.715 26.785,48.906zM282.785,288.422" fill="#ffd659"/>
  <path d="m256,239.516s-6.355,6.348 -12.871,15.41c6.863,9.547 13.91,22.113 13.91,33.496 0,15.188 -5.617,24.316 -13.91,28.566 3.82,1.957 8.207,2.883 12.871,2.883 14.793,0 26.785,-9.262 26.785,-31.449 0,-22.191 -26.785,-48.906 -26.785,-48.906zM256,239.516" fill="#ffbd54"/>
</svg>
