<?xml version="1.0" ?>
<svg height="512" viewBox="0 0 512 512" width="512" xmlns="http://www.w3.org/2000/svg">
  <path d="M366.46,457.93v10.009c0,24.332 -49.454,44.062 -110.454,44.062c-61.013,0 -110.466,-19.729 -110.466,-44.062V457.93" fill="#F2F2F2"/>
  <path d="M380.631,103.575v331.309c0,27.462 -55.796,49.722 -124.625,49.722c-20.375,0 -39.599,-1.944 -56.588,-5.4c-40.389,-8.226 -68.049,-24.983 -68.049,-44.323V103.575H380.631z" fill="#F94848"/>
  <path d="M380.631,103.575c0,27.462 -55.796,49.722 -124.625,49.722c-20.643,0 -40.122,-2.001 -57.262,-5.551c-40.029,-8.274 -67.375,-24.948 -67.375,-44.171c0,-8.542 5.4,-16.593 14.929,-23.622h219.403C375.232,86.982 380.631,95.033 380.631,103.575z" fill="#F2F2F2"/>
  <path d="M199.419,103.575v375.633c-40.389,-8.226 -68.049,-24.983 -68.049,-44.323v-331.31H199.419z" fill="#E23D3D"/>
  <path d="M366.458,44.067v30.743c0,24.331 -49.455,44.066 -110.452,44.066c-13.51,0 -26.438,-0.965 -38.4,-2.734c-42.077,-6.225 -72.063,-22.389 -72.063,-41.332V44.067H366.458z" fill="#F2F2F2"/>
  <path d="M217.606,44.067v72.076c-42.077,-6.225 -72.063,-22.389 -72.063,-41.332V44.067H217.606z" fill="#CCCCCC"/>
  <path d="M366.468,44.066c0,24.331 -49.455,44.066 -110.464,44.066c-14.824,0 -28.974,-1.164 -41.891,-3.281c-40.239,-6.586 -68.573,-22.365 -68.573,-40.785c0,-18.421 28.334,-34.199 68.573,-40.785C227.03,1.163 241.18,0 256.004,0C317.013,-0.001 366.468,19.734 366.468,44.066z" fill="#CCCCCC"/>
  <path d="M214.113,3.28v81.57c-40.239,-6.586 -68.573,-22.365 -68.573,-40.785C145.541,25.646 173.875,9.866 214.113,3.28z" fill="#FFFFFF"/>
  <path d="M359.554,59.427c-15.616,16.756 -56.087,28.707 -103.54,28.707c-47.465,0 -87.936,-11.951 -103.552,-28.707c15.639,-16.757 56.099,-28.684 103.552,-28.684C303.456,30.743 343.915,42.67 359.554,59.427z" fill="#F2F2F2"/>
  <path d="M323.136,79.057c-18.106,5.539 -40.634,8.891 -65.105,9.064c-0.57,-1.769 -0.861,-3.607 -0.861,-5.503c0,-13.499 14.848,-24.436 33.163,-24.436C307.008,58.182 320.809,67.246 323.136,79.057z" fill="#4D4D4D"/>
  <path d="M217.606,116.143c0,0 -18.863,11.8 -18.863,31.604c-40.029,-8.274 -67.375,-24.948 -67.375,-44.171c0,-8.542 5.4,-16.593 14.929,-23.622h24.111L217.606,116.143z" fill="#CCCCCC"/>
</svg>
