<?xml version="1.0" ?>
<svg height="469" viewBox="0 0 469.33334 469" width="469.33334" xmlns="http://www.w3.org/2000/svg">
  <path d="m320,64.168h-170.668c-82.473,0 -149.332,47.754 -149.332,106.664 0,20.039 7.879,38.719 21.332,54.734v179.934h426.668v-170.668c13.457,-16.016 21.332,-43.961 21.332,-64 0,-58.91 -66.859,-106.664 -149.332,-106.664zM320,64.168" fill="#ad6143"/>
  <path d="m298.668,170.832c0,-58.91 -66.859,-106.664 -149.336,-106.664 -82.473,0 -149.332,47.754 -149.332,106.664 0,20.039 7.879,47.984 21.332,64v170.668h256v-170.668c13.457,-16.016 21.336,-43.961 21.336,-64zM298.668,170.832" fill="#c99884"/>
  <path d="m64,384.168h-21.332v-157.105l-5,-5.949c-9.156,-10.906 -16.336,-32.988 -16.336,-50.281 0,-47.051 57.418,-85.332 128,-85.332v21.332c-56.82,0 -106.664,29.906 -106.664,64 0,13.199 5.977,30.188 11.332,36.555l10,11.906zM64,384.168" fill="#d7b2a4"/>
  <path d="m277.332,405.5h-213.332v-21.332h192v-157.105l5,-5.949c10.219,-12.176 16.332,-35.125 16.332,-50.281 0,-47.051 -57.414,-85.332 -128,-85.332v-21.332c82.344,0 149.336,47.852 149.336,106.664 0,19.18 -7.324,47.324 -21.336,64zM277.332,405.5" fill="#b7745a"/>
  <path d="m170.668,138.832c0,5.891 -4.777,10.668 -10.668,10.668s-10.668,-4.777 -10.668,-10.668 4.777,-10.664 10.668,-10.664 10.668,4.773 10.668,10.664zM170.668,138.832" fill="#b7745a"/>
  <path d="m106.668,234.832c0,-11.781 -4.777,-21.332 -10.668,-21.332s-10.668,9.551 -10.668,21.332c0,11.785 4.777,21.336 10.668,21.336s10.668,-9.551 10.668,-21.336zM106.668,234.832" fill="#b7745a"/>
  <path d="m234.668,256.168c0,11.781 -9.551,21.332 -21.336,21.332 -11.781,0 -21.332,-9.551 -21.332,-21.332 0,-11.785 9.551,-21.336 21.332,-21.336 11.785,0 21.336,9.551 21.336,21.336zM234.668,256.168" fill="#b7745a"/>
  <path d="m149.332,309.5c0,5.891 -4.773,10.668 -10.664,10.668s-10.668,-4.777 -10.668,-10.668 4.777,-10.668 10.668,-10.668 10.664,4.777 10.664,10.668zM149.332,309.5" fill="#b7745a"/>
  <path d="m85.332,352.168c0,5.891 -4.773,10.664 -10.664,10.664s-10.668,-4.773 -10.668,-10.664 4.777,-10.668 10.668,-10.668 10.664,4.777 10.664,10.668zM85.332,352.168" fill="#b7745a"/>
  <path d="m277.332,234.832h170.668v170.668h-170.668zM277.332,234.832" fill="#a34e2d"/>
  <path d="m448,405.5h-149.332v-21.332h128v-157.105l5,-5.949c10.219,-12.176 16.332,-35.125 16.332,-50.281 0,-47.051 -57.418,-85.332 -128,-85.332v-21.332c82.344,0 149.332,47.852 149.332,106.664 0,19.18 -7.32,47.324 -21.332,64zM448,405.5" fill="#993b17"/>
  <path d="m298.668,96.168c0,-5.891 -9.551,-10.668 -21.336,-10.668 -11.781,0 -21.332,4.777 -21.332,10.668s9.551,10.664 21.332,10.664c11.785,0 21.336,-4.773 21.336,-10.664zM298.668,96.168" fill="#a34e2d"/>
  <path d="m362.668,117.5c0,-5.891 -9.551,-10.668 -21.336,-10.668 -11.781,0 -21.332,4.777 -21.332,10.668s9.551,10.668 21.332,10.668c11.785,0 21.336,-4.777 21.336,-10.668zM362.668,117.5" fill="#a34e2d"/>
  <path d="m405.332,160.168c0,-5.891 -9.551,-10.668 -21.332,-10.668s-21.332,4.777 -21.332,10.668 9.551,10.664 21.332,10.664 21.332,-4.773 21.332,-10.664zM405.332,160.168" fill="#a34e2d"/>
  <path d="m448,202.832c0,-5.891 -9.551,-10.664 -21.332,-10.664 -11.785,0 -21.336,4.773 -21.336,10.664s9.551,10.668 21.336,10.668c11.781,0 21.332,-4.777 21.332,-10.668zM448,202.832" fill="#993b17"/>
  <path d="m448,384.168c0,11.781 -9.551,21.332 -21.332,21.332 -11.785,0 -21.336,-9.551 -21.336,-21.332 0,-11.785 9.551,-21.336 21.336,-21.336 11.781,0 21.332,9.551 21.332,21.336zM448,384.168" fill="#993b17"/>
  <path d="m320,288.168c0,5.891 -4.777,10.664 -10.668,10.664s-10.664,-4.773 -10.664,-10.664 4.773,-10.668 10.664,-10.668 10.668,4.777 10.668,10.668zM320,288.168" fill="#993b17"/>
  <path d="m384,341.5c0,11.781 -9.551,21.332 -21.332,21.332 -11.785,0 -21.336,-9.551 -21.336,-21.332s9.551,-21.332 21.336,-21.332c11.781,0 21.332,9.551 21.332,21.332zM384,341.5" fill="#993b17"/>
  <path d="m405.332,245.5c0,5.891 -4.773,10.668 -10.664,10.668s-10.668,-4.777 -10.668,-10.668 4.777,-10.668 10.668,-10.668 10.664,4.777 10.664,10.668zM405.332,245.5" fill="#993b17"/>
  <path d="m362.668,224.168c0,-5.891 -9.551,-10.668 -21.336,-10.668 -11.781,0 -21.332,4.777 -21.332,10.668s9.551,10.664 21.332,10.664c11.785,0 21.336,-4.773 21.336,-10.664zM362.668,224.168" fill="#a34e2d"/>
</svg>
