<?xml version="1.0" ?>
<svg height="512.007" viewBox="0 0 512.007 512.007" width="512.007" xmlns="http://www.w3.org/2000/svg">
  <path d="M63.703,239.066a224.152,151.24 0,1 0,448.304 0a224.152,151.24 0,1 0,-448.304 0z" fill="#FFD41D"/>
  <path d="M357.44,356.002c-123.792,0 -224.146,-67.714 -224.146,-151.244c0,-39.675 22.651,-75.773 59.688,-102.751c-76.365,24.108 -129.275,76.407 -129.275,137.055c0,83.53 100.354,151.244 224.146,151.244c64.995,0 123.518,-18.673 164.459,-48.493C423.498,350.91 391.353,356.002 357.44,356.002z" fill="#EFC71D"/>
  <path d="M89.226,272.941c0,9.386 10.09,22.025 26.333,32.985c27.348,18.452 66.928,29.036 108.59,29.036c41.663,0 81.242,-10.583 108.59,-29.036c16.242,-10.96 26.333,-23.599 26.333,-32.985v-0.004h89.224c0,83.533 -100.355,151.244 -224.146,151.244S0.004,356.469 0.004,272.936h89.224" fill="#FCE275"/>
  <path d="M448.292,272.941c0,83.529 -100.345,151.24 -224.14,151.24S0,356.47 0,272.941h25.026c0,31.827 19.405,62.439 54.627,86.201c38.243,25.809 89.56,40.025 144.499,40.025c54.928,0 106.256,-14.216 144.499,-40.025c35.222,-23.762 54.615,-54.374 54.615,-86.201H448.292L448.292,272.941z" fill="#A3E261"/>
</svg>
