<svg xmlns="http://www.w3.org/2000/svg" width="512" height="512" shape-rendering="geometricPrecision" image-rendering="optimizeQuality" fill-rule="evenodd"><path fill="#a8e52d" d="M255.5 142.5v37h-62-2c-10.93-9.783-18.43-21.783-22.5-36-2.052-13.248-2.886-26.582-2.5-40 12.005-.167 24.005 0 36 .5 24.297 3.809 41.963 16.642 53 38.5z" opacity=".991"/><path fill="#6db327" d="M310.5 179.5c-18.287.974-36.62 1.307-55 1a961.42 961.42 0 0 1-62-1h62v-37c9.384-13.704 22.384-21.87 39-24.5 10.995-.5 21.995-.667 33-.5.558 12.778-.275 25.444-2.5 38-3.059 9.126-7.892 17.126-14.5 24z" opacity=".989"/><path fill="#f5f3f2" d="M139.5 179.5v32h30v-32h22 2a961.42 961.42 0 0 0 62 1v58h-28v32h28v45h-54v-24c-9.672-.166-19.339 0-29 .5-.982 7.747-1.315 15.58-1 23.5h-88-1v-136h57z" opacity=".998"/><path fill="#ebe2df" d="M139.5 179.5h30v32h-30v-32z" opacity=".985"/><path fill="#eae1de" d="M310.5 179.5h120v60h-31v30h31v46h-88v-23h-30v23h-57v-45h-28v-32h28v-58c18.38.307 36.713-.026 55-1z" opacity=".997"/><path fill="#d1c5c1" d="M430.5 239.5v30h-31v-30h31z"/><path fill="#eae1de" d="M255.5 315.5v1c-57.502.332-114.836-.001-172-1h88c-.315-7.92.018-15.753 1-23.5 9.661-.5 19.328-.666 29-.5v24h54z"/><path fill="#d1c5c2" d="M430.5 315.5l-175 1v-1h57v-23h30v23h88z"/><path fill="#d2c5c2" d="M-.5 315.5h83 1l172 1v30h-213-43v-31z" opacity=".994"/><path fill="#b8abab" d="M430.5 315.5h81v31h-40-216v-30l175-1z" opacity=".992"/><path fill="#eae2df" d="M42.5 346.5h213v61a7923.37 7923.37 0 0 1-178-1l-35-60z" opacity=".991"/><path fill="#d2c5c2" d="M255.5 346.5h216l-35 60-181 1v-61z" opacity=".998"/></svg>