<?xml version="1.0" ?>
<svg height="512" viewBox="0 0 512 512" width="512" xmlns="http://www.w3.org/2000/svg">
  <path d="M369.772,459.592H142.23c-4.15,0 -7.513,3.364 -7.513,7.513v37.382c0,4.149 3.363,7.513 7.513,7.513h227.542c4.149,0 7.513,-3.364 7.513,-7.513v-37.382C377.285,462.956 373.921,459.592 369.772,459.592z" fill="#F9ECD4"/>
  <path d="M369.772,459.592h-36.064V512h36.064c4.149,0 7.513,-3.364 7.513,-7.513v-37.382C377.285,462.956 373.921,459.592 369.772,459.592z" fill="#F7E0BA"/>
  <path d="M404.742,11.991C399.537,4.482 390.975,0 381.838,0c-11.561,0 -22.051,7.274 -26.103,18.099l-34.411,91.906c-0.864,2.307 -0.542,4.891 0.862,6.915c1.404,2.025 3.711,3.233 6.174,3.233h43.477c3.134,0 5.938,-1.944 7.036,-4.879l29.066,-77.628C411.144,29.089 409.948,19.499 404.742,11.991z" fill="#C6946A"/>
  <path d="M404.742,11.991C399.537,4.482 390.975,0 381.838,0c-5.593,0 -10.928,1.715 -15.412,4.699c2.874,1.918 5.41,4.373 7.433,7.291c5.206,7.508 6.402,17.098 3.198,25.656l-29.066,77.628c-1.099,2.934 -3.903,4.879 -7.036,4.879h30.884c3.134,0 5.938,-1.944 7.036,-4.879l29.066,-77.628C411.144,29.089 409.948,19.499 404.742,11.991z" fill="#B27C57"/>
  <path d="M422.178,138.98c-1.423,-1.54 -3.423,-2.415 -5.52,-2.415H95.342c-2.097,0 -4.097,0.876 -5.52,2.415c-1.423,1.541 -2.137,3.604 -1.971,5.694l24.235,304.581c1.132,14.222 13.195,25.364 27.462,25.364H372.45c14.267,0 26.33,-11.142 27.462,-25.364l24.235,-304.581C424.315,142.584 423.601,140.521 422.178,138.98z" fill="#73CDFF"/>
  <path d="M422.178,138.98c-1.423,-1.54 -3.423,-2.415 -5.52,-2.415h-43.993c2.097,0 4.097,0.876 5.52,2.415c1.423,1.541 2.137,3.604 1.971,5.694L355.92,449.255c-1.132,14.222 -13.194,25.364 -27.462,25.364h43.993c14.267,0 26.33,-11.142 27.462,-25.364l24.235,-304.581C424.315,142.584 423.601,140.521 422.178,138.98z" fill="#36C2FF"/>
  <path d="M63.757,120.208c-3.117,0 -4.965,-0.047 -5.329,-0.057c-4.147,-0.117 -7.413,-3.573 -7.297,-7.721s3.543,-7.408 7.72,-7.3c0.489,0.014 49.35,1.21 104.984,-10.947c32.41,-7.082 60.735,-17.242 84.192,-30.199c28.862,-15.942 50.357,-36.183 63.884,-60.162c2.04,-3.613 6.624,-4.892 10.235,-2.852c3.614,2.039 4.892,6.621 2.853,10.235c-14.941,26.484 -38.444,48.696 -69.858,66.018c-24.776,13.661 -54.523,24.33 -88.412,31.709C119.559,119.204 78.146,120.208 63.757,120.208z" fill="#36C2FF"/>
  <path d="M413.599,246.802c-1.423,-1.54 -3.423,-2.415 -5.52,-2.415H335.61c-18.666,-25.196 -48.13,-40.12 -79.61,-40.12s-60.944,14.924 -79.61,40.12h-72.469c-2.097,0 -4.097,0.876 -5.52,2.415c-1.423,1.541 -2.137,3.604 -1.971,5.694l8.18,102.803c0.312,3.906 3.571,6.917 7.49,6.917h64.29c18.666,25.196 48.13,40.12 79.61,40.12s60.944,-14.924 79.61,-40.12h64.29c3.918,0 7.179,-3.011 7.49,-6.917l8.18,-102.803C415.735,250.405 415.02,248.342 413.599,246.802z" fill="#F9ECD4"/>
  <path d="M413.599,246.802c-1.423,-1.54 -3.423,-2.415 -5.52,-2.415h-35.858l-9.376,117.83h37.054c3.918,0 7.179,-3.011 7.49,-6.917l8.18,-102.803C415.735,250.405 415.02,248.342 413.599,246.802z" fill="#F7E0BA"/>
  <path d="M453.362,105.127H58.639c-4.15,0 -7.513,3.364 -7.513,7.513v31.438c0,4.149 3.363,7.513 7.513,7.513h394.723c4.149,0 7.513,-3.364 7.513,-7.513V112.64C460.875,108.491 457.511,105.127 453.362,105.127z" fill="#F9ECD4"/>
  <path d="M453.362,105.127h-36.064v46.465h36.064c4.149,0 7.513,-3.364 7.513,-7.513V112.64C460.875,108.491 457.511,105.127 453.362,105.127z" fill="#F7E0BA"/>
</svg>
