<svg xmlns="http://www.w3.org/2000/svg" width="512" height="512" shape-rendering="geometricPrecision" image-rendering="optimizeQuality" fill-rule="evenodd"><path fill="#fbda74" d="M211.5-.5h7a221.97 221.97 0 0 1-1 21c-13.117 87.773-60.451 148.939-142 183.5-24.477 9.227-49.811 14.061-76 14.5v-7c6.172-18.343 15.006-35.343 26.5-51C64.167 109 109 64.167 160.5 26c15.657-11.494 32.657-20.328 51-26.5z" opacity=".99"/><path fill="#fbc753" d="M218.5-.5h26c57.934 6.633 106.601 31.3 146 74 57.029 68.976 70.862 145.976 41.5 231-29.659 70.653-81.492 116.153-155.5 136.5-76.215 16.409-143.881-.425-203-50.5-39.359-35.774-63.359-80.107-72-133 89.118-6.029 154.284-48.362 195.5-127 16.452-35.018 23.286-71.685 20.5-110a221.97 221.97 0 0 0 1-21z" opacity=".998"/><path fill="#f9bc43" d="M217.5 20.5c2.786 38.315-4.048 74.982-20.5 110-41.216 78.638-106.382 120.971-195.5 127-.313-4.853-.979-9.52-2-14v-25c26.189-.439 51.523-5.273 76-14.5 81.549-34.561 128.883-95.727 142-183.5z"/><path fill="#fcc855" d="M164.5 59.5c9.05-.123 12.883 4.21 11.5 13-5.619 6.657-11.286 6.657-17 0-1.429-5.8.404-10.133 5.5-13z"/><g fill="#e8aa3d"><path d="M390.5 73.5c6 5.333 11.667 11 17 17 58.525 71.148 71.692 150.148 39.5 237-35.776 77.418-95.943 122.584-180.5 135.5-66.75 6.163-125.417-12.337-176-55.5-6-5.333-11.667-11-17-17 59.119 50.075 126.785 66.909 203 50.5 74.008-20.347 125.841-65.847 155.5-136.5 29.362-85.024 15.529-162.024-41.5-231z" opacity=".998"/><use xlink:href="#B"/></g><path fill="#f8bb42" d="M407.5 90.5a159.4 159.4 0 0 1 15 15c59.932 69.507 74.766 147.841 44.5 235-36.535 83.84-100.369 131.006-191.5 141.5-65.185 3.665-121.852-16.169-170-59.5a159.4 159.4 0 0 1-15-15c50.583 43.163 109.25 61.663 176 55.5 84.557-12.916 144.724-58.082 180.5-135.5 32.192-86.852 19.025-165.852-39.5-237z"/><path fill="#fcc854" d="M108.5 113.5c10.158-1.343 14.325 2.99 12.5 13-5.376 6.517-10.71 6.517-16 0-1.461-5.174-.294-9.507 3.5-13z"/><path fill="#e8aa3d" d="M422.5 105.5c5.36 4.694 10.36 9.694 15 15 57.322 70.264 70.489 148.264 39.5 234-35.327 78.266-95.493 124.099-180.5 137.5-66.622 6.621-125.288-11.546-176-54.5-5.306-4.64-10.306-9.64-15-15 48.148 43.331 104.815 63.165 170 59.5 91.131-10.494 154.965-57.66 191.5-141.5 30.266-87.159 15.432-165.493-44.5-235z"/><path fill="#f8bb42" d="M437.5 120.5c42.7 39.399 67.367 88.066 74 146v42c-13.311 96.104-65.645 160.604-157 193.5-15.207 4.474-30.54 7.641-46 9.5h-42c-57.934-6.633-106.601-31.3-146-74 50.712 42.954 109.378 61.121 176 54.5 85.007-13.401 145.173-59.234 180.5-137.5 30.989-85.736 17.822-163.736-39.5-234z" opacity=".965"/><g fill="#e8aa3d"><use xlink:href="#B" x="123" y="80"/><path d="M241.5 227.5c9.862-.652 13.695 3.682 11.5 13-5.285 6.656-10.618 6.656-16 0-1.621-5.577-.121-9.911 4.5-13zm91 74c9.03-.141 12.863 4.192 11.5 13-5.667 6.667-11.333 6.667-17 0-1.429-5.8.404-10.133 5.5-13zm-194 20c6.891-1.437 11.224 1.23 13 8-1.481 8.236-6.147 11.069-14 8.5-3.777-2.955-4.943-6.788-3.5-11.5 1.025-2.187 2.525-3.854 4.5-5z"/></g><defs ><path id="B" d="M266.5 94.5c9.591.2 13.091 4.867 10.5 14-2.955 3.777-6.788 4.943-11.5 3.5-4.655-2.897-6.155-7.063-4.5-12.5 1.73-1.902 3.563-3.569 5.5-5z"/></defs></svg>