<?xml version="1.0" ?>
<svg height="54" viewBox="0 0 54 54" width="54" xmlns="http://www.w3.org/2000/svg">
  <path d="M31.9874,21.1575l1.4142,1.4142l-10.5351,10.5351l-1.4142,-1.4142z" fill="#D2D5D7"/>
  <path d="M20.961,29.746c1.757,1.757 8.132,12.374 0.354,20.153c-7.793,7.793 -19.102,2.111 -20.86,0.354s1.762,-8.126 7.425,-13.789S19.203,27.989 20.961,29.746z" fill="#E6E6E6"/>
  <path d="M20.961,29.746c1.757,1.757 -1.055,7.419 -6.718,13.081S2.212,52.01 0.455,50.252s1.762,-8.126 7.425,-13.789S19.203,27.989 20.961,29.746z" fill="#D2D5D7"/>
  <path d="M12.283,51.329c-0.458,0 -0.922,-0.026 -1.39,-0.08c-0.548,-0.063 -0.942,-0.559 -0.879,-1.107s0.562,-0.945 1.108,-0.879c2.719,0.312 5.363,-0.525 7.07,-2.241c0.391,-0.392 1.023,-0.394 1.415,-0.004c0.391,0.39 0.393,1.023 0.003,1.414C17.743,50.307 15.127,51.329 12.283,51.329z" fill="#FFFFFF"/>
  <path d="M54,5.756c0,0 -0.067,-1.789 -1.968,-3.689l-0.001,0.001c0,0 -1.891,-1.998 -3.689,-1.968c0,0 -10.386,4.464 -18.077,18.077c0,0 0.067,1.789 1.968,3.689l0.001,-0.001c0,0 1.891,1.998 3.689,1.968C35.923,23.833 46.308,19.37 54,5.756z" fill="#A46F3E"/>
  <path d="M48.769,2.502c-0.391,-0.391 -1.024,-0.391 -1.415,0l-2.33,2.33c-0.391,0.39 -0.391,1.023 0,1.414c0.195,0.195 0.452,0.293 0.708,0.293s0.512,-0.098 0.707,-0.293l2.331,-2.33C49.16,3.525 49.16,2.891 48.769,2.502z" fill="#C18757"/>
  <path d="M43.925,8.759c0.391,-0.391 0.391,-1.023 0,-1.414s-1.023,-0.391 -1.414,0l-6.614,6.614c-0.391,0.391 -0.391,1.023 0,1.414c0.195,0.195 0.451,0.293 0.707,0.293s0.512,-0.098 0.707,-0.293L43.925,8.759z" fill="#C18757"/>
  <path d="M39.304,16.21l-2.367,2.366c-0.39,0.391 -0.39,1.024 0,1.414c0.195,0.195 0.451,0.293 0.707,0.293s0.512,-0.098 0.708,-0.293l2.366,-2.366c0.391,-0.391 0.391,-1.023 0,-1.414C40.328,15.819 39.695,15.819 39.304,16.21z" fill="#C18757"/>
  <path d="M46.954,8.56l-4.821,4.821c-0.391,0.391 -0.391,1.023 0,1.414c0.195,0.195 0.451,0.293 0.707,0.293s0.512,-0.098 0.707,-0.293l4.821,-4.821c0.391,-0.391 0.391,-1.023 0,-1.414S47.344,8.17 46.954,8.56z" fill="#C18757"/>
  <path d="M33.647,16.21l-2.604,2.604c-0.391,0.391 -0.391,1.023 0,1.414c0.195,0.195 0.451,0.293 0.707,0.293s0.512,-0.098 0.707,-0.293l2.604,-2.604c0.391,-0.391 0.391,-1.023 0,-1.414C34.67,15.819 34.038,15.819 33.647,16.21z" fill="#C18757"/>
  <path d="M51.807,5.121c-0.391,-0.391 -1.024,-0.391 -1.414,0L49.204,6.31c-0.391,0.391 -0.391,1.023 0,1.414c0.195,0.195 0.451,0.293 0.707,0.293s0.512,-0.098 0.707,-0.293l1.189,-1.189C52.197,6.144 52.197,5.511 51.807,5.121z" fill="#C18757"/>
</svg>
