<svg xmlns="http://www.w3.org/2000/svg" width="512" height="512" shape-rendering="geometricPrecision" image-rendering="optimizeQuality" fill-rule="evenodd"><path fill="#6a9c46" d="M264.5 63.5c2.105 6.557 3.938 13.224 5.5 20a74.02 74.02 0 0 1-1 33l-10.5 33c-26.937 25.104-53.104 51.104-78.5 78-9.432 12.386-13.598 26.386-12.5 42-3.304 2.473-6.138 5.473-8.5 9-10.901 31.461-24.734 61.461-41.5 90-.667 0-1 .333-1 1-24.144 27.318-51.477 50.818-82 70.5-5.298 4.127-8.965 9.294-11 15.5-.904-7.84.596-15.173 4.5-22l42-51c23.107-30.877 40.44-64.877 52-102 2.419-10.538 1.753-20.871-2-31-7.608-16.215-14.941-32.548-22-49a91.64 91.64 0 0 1-2-31l31-99c11.087-25.414 30.254-40.914 57.5-46.5 35.466-4.1 62.132 9.067 80 39.5z" opacity=".995"/><path fill="#5f8c46" d="M454.5 250.5a286.74 286.74 0 0 0-22-8.5c-12.667-3.333-25.333-3.333-38 0l-33 10.5a119.25 119.25 0 0 0 10-18l36.5-22c13.505 15.417 29.672 19.584 48.5 12.5-1.523-4.743-3.523-9.243-6-13.5-10.872 3.096-20.205.596-28-7.5l33.5-20.5c-.032-2.098-.699-4.098-2-6a52.11 52.11 0 0 0-5.5-8l-34 20c-1.191-8.267.976-15.601 6.5-22l6.5-6.5-10.5-12.5c-15.832 13.634-21.998 30.634-18.5 51-7.559 4.61-15.226 8.944-23 13-.554-35.95-17.554-60.45-51-73.5-5.926-1.656-11.926-2.823-18-3.5a94.63 94.63 0 0 1 9-16c17.168 1.331 33.168-2.503 48-11.5 2.828-2.248 5.828-4.248 9-6-3.224-4.297-6.557-8.464-10-12.5-9.963 7.149-20.963 11.816-33 14l-4-1c8.398-13.071 16.398-26.405 24-40a123.85 123.85 0 0 0-11-7.5c-1.284-.684-2.451-.517-3.5.5-7.603 13.264-15.603 26.264-24 39-6.559-8.903-9.059-18.903-7.5-30-5.347-.573-10.68-1.24-16-2-2.131 18.083 2.869 33.749 15 47l-17 28c-9.87 2.103-18.87 6.103-27 12l10.5-33a74.02 74.02 0 0 0 1-33c-1.562-6.776-3.395-13.443-5.5-20 17.876-33.59 45.543-46.09 83-37.5 32.102 12.018 46.602 35.185 43.5 69.5a71.51 71.51 0 0 1-6 18l-25.5 42c.502 1.021 1.168 1.188 2 .5l40-24c38.362-11.895 65.862.271 82.5 36.5 10.013 34.816.179 62.149-29.5 82z" opacity=".991"/><path fill="#699b46" d="M306.5 135.5a74.62 74.62 0 0 0-21 2l17-28c-12.131-13.251-17.131-28.917-15-47 5.32.76 10.653 1.427 16 2-1.559 11.097.941 21.097 7.5 30 8.397-12.736 16.397-25.736 24-39 1.049-1.017 2.216-1.184 3.5-.5a123.85 123.85 0 0 1 11 7.5c-7.602 13.595-15.602 26.929-24 40l4 1c12.037-2.184 23.037-6.851 33-14 3.443 4.036 6.776 8.203 10 12.5-3.172 1.752-6.172 3.752-9 6-14.832 8.997-30.832 12.831-48 11.5a94.63 94.63 0 0 0-9 16z"/><g fill="#78ac53"><path d="M183.5 55.5h16l-7 57c6.116.28 11.783-1.22 17-4.5A85.3 85.3 0 0 0 225 92.5c4.72 1.943 9.22 4.276 13.5 7-10.644 19.316-26.977 28.983-49 29a793.27 793.27 0 0 1-10 47c12.825-1.319 22.658-7.319 29.5-18 4.429 1.644 8.929 2.977 13.5 4-4.985 14.479-14.985 23.646-30 27.5-6.12 1.658-12.287 2.825-18.5 3.5-3.888 14.499-9.054 28.499-15.5 42-5.011-1.839-9.678-4.172-14-7 5.356-12.566 10.022-25.399 14-38.5-16.602-10.34-26.935-25.173-31-44.5 5.316-.966 10.649-1.466 16-1.5 2.885 12.284 9.385 22.117 19.5 29.5 4.618-15.797 7.952-31.797 10-48-18.383-9.247-28.216-24.247-29.5-45h16c.701 12.078 6.034 21.411 16 28 1.434-1.72 2.267-3.72 2.5-6 2.284-15.29 4.117-30.624 5.5-46z"/><path d="M306.5 135.5c6.074.677 12.074 1.844 18 3.5 33.446 13.05 50.446 37.55 51 73.5-.499 7.497-1.832 14.831-4 22a119.25 119.25 0 0 1-10 18l-78 78.5c-12.386 9.432-26.386 13.598-42 12.5-16.67-.167-33.337 0-50 .5l-49 49.5c-.667 0-1 .333-1 1-27.23 24.068-50.73 51.401-70.5 82-4.127 5.298-9.294 8.965-15.5 11-22.333 1-33-9.667-32-32 2.035-6.206 5.702-11.373 11-15.5 30.523-19.682 57.856-43.182 82-70.5.667 0 1-.333 1-1l49.5-49c.5-16.663.667-33.33.5-50-1.098-15.614 3.068-29.614 12.5-42 25.396-26.896 51.563-52.896 78.5-78 8.13-5.897 17.13-9.897 27-12a74.62 74.62 0 0 1 21-2z" opacity=".998"/></g><path fill="#699b46" d="M371.5 234.5c2.168-7.169 3.501-14.503 4-22 7.774-4.056 15.441-8.39 23-13-3.498-20.366 2.668-37.366 18.5-51l10.5 12.5-6.5 6.5c-5.524 6.399-7.691 13.733-6.5 22l34-20a52.11 52.11 0 0 1 5.5 8c1.301 1.902 1.968 3.902 2 6L422.5 204c7.795 8.096 17.128 10.596 28 7.5 2.477 4.257 4.477 8.757 6 13.5-18.828 7.084-34.995 2.917-48.5-12.5l-36.5 22z"/><path fill="#88b965" d="M266.5 171.5c5.045 2.212 9.711 5.045 14 8.5-7.027 12.273-9.86 25.439-8.5 39.5a9.9 9.9 0 0 0 2.5 5l46-45.5c1.408-.315 2.741.018 4 1l7.5 8.5c.667.667.667 1.333 0 2l-46.5 47c1.653 1.621 3.653 2.788 6 3.5 15.224 2.289 29.391-.545 42.5-8.5 2.458 4.753 5.292 9.253 8.5 13.5-17.74 10.856-36.74 14.189-57 10-4.357-2.351-8.69-4.351-13-6l-35 35.5c1.836 1.419 3.836 2.586 6 3.5 15.256 2.476 29.423-.357 42.5-8.5 2.458 4.753 5.292 9.253 8.5 13.5-17.73 10.853-36.73 14.186-57 10a103.59 103.59 0 0 1-12-6.5 495.84 495.84 0 0 0-19 18.5c-1 .667-2 .667-3 0-3.383-3.047-6.383-6.38-9-10 6.289-7.291 12.956-14.291 20-21-5.2-7.829-7.533-16.496-7-26 .676-14.193 4.676-27.36 12-39.5a178.1 178.1 0 0 1 13 8.5c-7.03 12.285-9.863 25.451-8.5 39.5.739 1.721 1.573 3.387 2.5 5l36-35.5c-8.372-16.007-9.206-32.507-2.5-49.5a484.7 484.7 0 0 0 6.5-16z"/><path fill="#6a9c46" d="M454.5 250.5c28.459 21.529 38.626 49.863 30.5 85-6.292 19.288-18.125 34.121-35.5 44.5-35.59 12.898-71.59 24.565-108 35-11.57 1.339-22.903.339-34-3-17.098-8.216-34.431-15.883-52-23a52.83 52.83 0 0 0-25 0c-35.445 11.056-68.112 27.389-98 49l-55 45c-6.827 3.904-14.16 5.404-22 4.5 6.206-2.035 11.373-5.702 15.5-11 19.77-30.599 43.27-57.932 70.5-82 .667 0 1-.333 1-1 28.539-16.766 58.539-30.599 90-41.5 3.5-2.334 6.5-5.168 9-8.5 15.614 1.098 29.614-3.068 42-12.5l78-78.5 33-10.5c12.667-3.333 25.333-3.333 38 0a286.74 286.74 0 0 1 22 8.5z" opacity=".995"/><path fill="#78ac53" d="M390.5 270.5c5.082 2.388 9.749 5.555 14 9.5-6.623 8.079-10.956 17.246-13 27.5a788.5 788.5 0 0 1 54-12c1.65 5.194 2.65 10.527 3 16a272.88 272.88 0 0 0-57 13.5l10 8a477.53 477.53 0 0 0 27 12.5c-1.541 4.621-2.874 9.288-4 14-13.29-3.311-25.624-8.811-37-16.5-4.035-3.7-7.702-7.7-11-12-1.333-.667-2.667-.667-4 0-11.24 3.624-22.24 7.79-33 12.5 2.829 2.659 5.829 5.159 9 7.5a477.53 477.53 0 0 0 27 12.5c-1.949 4.51-3.282 9.177-4 14-19.157-4.323-35.323-13.656-48.5-28a972.27 972.27 0 0 0-39.5 17 68.67 68.67 0 0 1-7-14c14.185-6.591 28.519-12.924 43-19 2.383-16.319 8.383-31.153 18-44.5 1-.667 2-.667 3 0a65.07 65.07 0 0 1 10 9 126.02 126.02 0 0 0-13 27l1 1.5a691.74 691.74 0 0 1 34-12.5c3.404-15.632 9.404-30.132 18-43.5z"/></svg>