<svg xmlns="http://www.w3.org/2000/svg" width="512" height="512" shape-rendering="geometricPrecision" image-rendering="optimizeQuality" fill-rule="evenodd"><path fill="#ffda44" d="M210.5 48.5v30c-6.388.188-12.722-.312-19-1.5-9.678-4.672-19.845-7.505-30.5-8.5-3.903.015-7.736.515-11.5 1.5-15.808 7.857-32.474 10.523-50 8-9.776-2.592-19.443-5.592-29-9-6.402-.818-12.735-.484-19 1-6.821 2.996-13.821 5.496-21 7.5a9248.73 9248.73 0 0 0 0 272c16.027-7.079 32.694-8.912 50-5.5 6.87 1.769 13.537 4.102 20 7 8.752 2.137 17.418 1.804 26-1 24.118-10.249 48.118-9.916 72 1 3.918 1.156 7.918 1.656 12 1.5v29c-5.203 1.125-10.536.958-16-.5-7.763-2.381-15.43-5.048-23-8-7-.667-14-.667-21 0-9.82 4.774-20.153 7.608-31 8.5-.333 19.345 0 38.678 1 58 16.027-7.079 32.694-8.912 50-5.5 6.87 1.769 13.536 4.102 20 7 8.752 2.137 17.418 1.804 26-1 24.118-10.249 48.118-9.916 72 1 3.918 1.156 7.918 1.656 12 1.5v30c-11.963.343-23.296-2.157-34-7.5-7.185-2.275-14.518-2.942-22-2-10.088 3.807-20.421 6.807-31 9a121.19 121.19 0 0 1-22 0 125.77 125.77 0 0 1-27-8 47.96 47.96 0 0 0-18-1c-10.088 3.807-20.421 6.807-31 9-8.66.5-17.327.666-26 .5l-.5-93c-10.144-5.577-20.977-7.744-32.5-6.5-10.088 3.807-20.421 6.807-31 9-8.66.5-17.327.666-26 .5v-334a242.43 242.43 0 0 0 22-.5 544.59 544.59 0 0 0 25-8c17.677-3.456 34.677-1.456 51 6 7.185 2.275 14.518 2.942 22 2a206.31 206.31 0 0 1 31-9c7.333-.667 14.667-.667 22 0 9.307 1.658 18.307 4.325 27 8 3.586 1.108 7.253 1.608 11 1.5z" opacity=".996"/><path fill="#ffb654" d="M511.5 138.5v334c-18.465 1.922-36.132-.911-53-8.5a45.85 45.85 0 0 0-23 0c-24.986 11.304-49.986 11.304-75 0-8.752-2.137-17.418-1.804-26 1-10.704 5.343-22.037 7.843-34 7.5v-30a32.46 32.46 0 0 0 8-.5c25.863-12.272 51.863-12.606 78-1a57.83 57.83 0 0 0 20 1 238.95 238.95 0 0 1 28-9c15.994-2.199 31.328-.032 46 6.5v-272a367.64 367.64 0 0 1-25-8.5c-11.663-1.668-22.663.332-33 6l-1 217.5c-18.629 2.007-36.295-1.16-53-9.5a121.19 121.19 0 0 0-22 0c-14.493 7.22-29.826 10.386-46 9.5-10.788-2.197-21.455-5.363-32-9.5a100.2 100.2 0 0 0-20 0 177.15 177.15 0 0 1-24 8 98.43 98.43 0 0 1-14 .5v-29c9.431-.776 18.431-3.276 27-7.5 20.402-4.847 40.068-2.847 59 6a57.83 57.83 0 0 0 20 1c18.774-9.073 38.44-11.739 59-8 5.115 1.538 10.115 3.372 15 5.5v-272c-8.429-2.532-16.762-5.365-25-8.5-12.45-1.638-24.116.695-35 7a118.86 118.86 0 0 1-35 2 238.8 238.8 0 0 1-28-9 57.84 57.84 0 0 0-20 1c-11.57 6.142-23.904 8.976-37 8.5v-30a47.74 47.74 0 0 0 15-2.5c22.667-10 45.333-10 68 0 10 3.333 20 3.333 30 0 16.323-7.456 33.323-9.456 51-6 8.272 2.868 16.605 5.535 25 8a242.43 242.43 0 0 0 22 .5c-.333 28.008 0 56.008 1 84 11.718-3.731 23.718-4.898 36-3.5 10.579 2.193 20.912 5.193 31 9a242.43 242.43 0 0 0 22 .5z" opacity=".996"/><path fill="#fff69e" d="M210.5 78.5v274c-4.082.156-8.082-.344-12-1.5-23.882-10.916-47.882-11.249-72-1-8.582 2.804-17.248 3.137-26 1-6.463-2.898-13.13-5.231-20-7-17.306-3.412-33.973-1.579-50 5.5a9248.73 9248.73 0 0 1 0-272c7.179-2.004 14.179-4.504 21-7.5 6.265-1.484 12.598-1.818 19-1 9.557 3.408 19.224 6.408 29 9 17.526 2.523 34.192-.143 50-8 3.764-.985 7.597-1.485 11.5-1.5 10.655.995 20.822 3.828 30.5 8.5 6.278 1.188 12.612 1.688 19 1.5z"/><path d="M210.5 352.5v-274c13.096.476 25.43-2.358 37-8.5a57.84 57.84 0 0 1 20-1 238.8 238.8 0 0 0 28 9 118.86 118.86 0 0 0 35-2c10.884-6.305 22.55-8.638 35-7a367.64 367.64 0 0 0 25 8.5v272c-4.885-2.128-9.885-3.962-15-5.5-20.56-3.739-40.226-1.073-59 8a57.83 57.83 0 0 1-20-1c-18.932-8.847-38.598-10.847-59-6-8.569 4.224-17.569 6.724-27 7.5zm90 90v-60c16.174.886 31.507-2.28 46-9.5a121.19 121.19 0 0 1 22 0c16.705 8.34 34.371 11.507 53 9.5l1-217.5c10.337-5.668 21.337-7.668 33-6a367.64 367.64 0 0 0 25 8.5v272c-14.672-6.532-30.006-8.699-46-6.5a238.95 238.95 0 0 0-28 9 57.83 57.83 0 0 1-20-1c-26.137-11.606-52.137-11.272-78 1a32.46 32.46 0 0 1-8 .5z" fill="#ffd944"/><path fill="#fff69e" d="M210.5 381.5a98.43 98.43 0 0 0 14-.5 177.15 177.15 0 0 0 24-8 100.2 100.2 0 0 1 20 0c10.545 4.137 21.212 7.303 32 9.5v60c-4.082.156-8.082-.344-12-1.5-23.882-10.916-47.882-11.249-72-1-8.582 2.804-17.248 3.137-26 1-6.464-2.898-13.13-5.231-20-7-17.306-3.412-33.973-1.579-50 5.5-1-19.322-1.333-38.655-1-58 10.847-.892 21.18-3.726 31-8.5 7-.667 14-.667 21 0 7.57 2.952 15.237 5.619 23 8 5.464 1.458 10.797 1.625 16 .5z"/></svg>