<?xml version="1.0" ?>
<svg height="512" viewBox="0 0 512 512" width="512" xmlns="http://www.w3.org/2000/svg">
  <path d="M369.753,190.893l-30.905,-21.634L364.169,512h30.905V239.517C395.074,222.519 383.681,200.638 369.753,190.893z" fill="#FFCE53"/>
  <path d="M345.152,174.647c-2.019,-2.05 -4.131,-3.863 -6.305,-5.388l-21.036,-14.732V77.264H194.189v77.264l-51.942,36.365c-13.928,9.746 -25.322,31.627 -25.322,48.625V512h247.243v-30.905l-61.811,-120.789l61.811,-120.789v-21.634C364.169,203.543 356.061,185.721 345.152,174.647z" fill="#FFE373"/>
  <path d="M333.264,249.399l-61.811,115.848l61.811,115.848h30.905V239.517C348.102,239.517 341.581,244.971 333.264,249.399z" fill="#AB9433"/>
  <path d="M310.081,254.97c-27.044,0 -27.044,-15.453 -54.088,-15.453c-27.04,0 -27.04,15.453 -54.08,15.453c-27.041,0 -27.041,-15.453 -54.082,-15.453v241.577h185.433V249.399C327.58,252.423 321.059,254.97 310.081,254.97z" fill="#BFA53A"/>
  <path d="M286.905,0l-30.905,77.264l61.811,0l0,-77.264z" fill="#FF4A26"/>
  <path d="M194.189,0h92.716v77.264h-92.716z" fill="#FF6529"/>
  <path d="M225.095,77.264h61.811v46.358h-61.811z" fill="#FF9C30"/>
  <path d="M317.811,61.811h-30.905v30.905h30.905c8.534,0 15.453,-6.919 15.453,-15.453S326.345,61.811 317.811,61.811z" fill="#FFB833"/>
  <path d="M302.358,77.264c0,-8.534 -6.919,-15.453 -15.453,-15.453h-92.716c-8.534,0 -15.453,6.919 -15.453,15.453s6.919,15.453 15.453,15.453h92.716C295.439,92.716 302.358,85.798 302.358,77.264z" fill="#FFCE53"/>
  <path d="M218.909,440.913a39.332,52.444 45,1 0,74.168 -74.168a39.332,52.444 45,1 0,-74.168 74.168z" fill="#695918"/>
</svg>
