<?xml version="1.0" ?>
<svg height="512.001" viewBox="0 0 512 512.001" width="512" xmlns="http://www.w3.org/2000/svg">
  <path d="m296.582,492.871 l-17.063,-45.625c-1.57,-4.203 -6.27,-6.332 -10.473,-4.766h-25.27c-4.238,-1.559 -8.902,0.563 -10.477,4.766l-17.059,45.625c-1.574,4.215 0.563,8.902 4.766,10.477 0.945,0.348 1.906,0.516 2.855,0.516 3.297,0 6.395,-2.02 7.621,-5.285l7.621,-20.387c1.715,-4.582 8.488,-3.434 8.605,1.453l0.563,24.219c0,4.496 3.641,8.137 8.141,8.137 4.496,0 8.137,-3.641 8.137,-8.137l0.504,-24.367c0.102,-4.895 6.891,-6.051 8.605,-1.465l7.684,20.547c1.223,3.266 4.32,5.285 7.621,5.285 0.945,0 1.914,-0.168 2.852,-0.516 4.203,-1.574 6.34,-6.266 4.766,-10.477zM296.582,492.871" fill="#f5dcb4"/>
  <path d="m272.688,455.035c0,8.988 -7.289,16.277 -16.277,16.277 -8.988,0 -16.273,-7.289 -16.273,-16.277 0,-8.988 7.285,-16.273 16.273,-16.273 8.988,0 16.277,7.285 16.277,16.273zM272.688,455.035" fill="#ebc9a0"/>
  <path d="m329.688,0h-32.422c-3.371,0 -6.387,2.074 -7.598,5.219l-57.672,149.953c-2.949,7.664 -5.531,15.441 -7.879,23.281l40.953,27.805c3.035,-14.488 7.16,-28.754 12.496,-42.625l59.055,-153.539c1.871,-4.863 -1.723,-10.094 -6.934,-10.094zM329.688,0" fill="#afdc82"/>
  <path d="m237.754,187.715c2.949,-11.004 6.41,-21.875 10.516,-32.543l59.68,-155.172h-10.684c-3.371,0 -6.387,2.074 -7.598,5.219l-57.672,149.953c-2.949,7.664 -5.527,15.441 -7.879,23.285zM237.754,187.715" fill="#96cd82"/>
  <path d="m223.59,15.598h-29.27c-5.512,0 -9.43,5.367 -7.75,10.617l61.703,192.828 32.551,-48.828 -46.293,-146.598c-1.508,-4.773 -5.938,-8.02 -10.941,-8.02zM223.59,15.598" fill="#96cd82"/>
  <path d="m201.078,15.598h-6.758c-5.512,0 -9.43,5.367 -7.75,10.617l61.703,192.828 24.414,-24.414zM201.078,15.598" fill="#7dbe81"/>
  <path d="m351.387,48.148h-32.422c-3.367,0 -6.387,2.074 -7.594,5.215l-57.676,149.957c-13.926,36.203 -21.203,74.605 -21.617,113.375h48.746v-5.594c0,-33.957 6.254,-67.629 18.441,-99.324l59.055,-153.535c1.871,-4.863 -1.719,-10.094 -6.934,-10.094zM351.387,48.148" fill="#afdc82"/>
  <path d="m318.965,48.148c-3.367,0 -6.387,2.074 -7.594,5.215l-57.676,149.957c-14.344,37.285 -21.695,76.898 -21.695,116.848h16.273c0,-39.949 7.355,-79.559 21.695,-116.848l59.684,-155.172zM318.965,48.148" fill="#96cd82"/>
  <path d="m259.129,203.32 l-57.676,-149.957c-1.207,-3.141 -4.227,-5.215 -7.594,-5.215h-32.426c-5.211,0 -8.801,5.23 -6.93,10.094l59.051,153.539c12.191,31.695 18.441,65.363 18.441,99.32v127.66c0,8.988 7.289,16.273 16.277,16.273h16.273c8.988,0 16.277,-7.289 16.277,-16.273v-118.594c0,-39.949 -7.355,-79.559 -21.695,-116.848zM259.129,203.32" fill="#fff6d8"/>
  <path d="m280.824,438.762h-16.273c-8.992,0 -16.277,-7.289 -16.277,-16.277v-111.383c0,-35.957 -6.617,-71.605 -19.527,-105.164l-60.688,-157.789h-6.625c-5.211,0 -8.801,5.23 -6.93,10.094l59.051,153.539c12.191,31.695 18.441,65.363 18.441,99.32v127.66c0,8.988 7.289,16.273 16.277,16.273h16.273c8.992,0 16.277,-7.289 16.277,-16.273zM280.824,438.762" fill="#ffedb1"/>
  <path d="m256.41,267.867c9.809,0 18.301,5.875 22.184,14.215 -3.176,-26.891 -9.539,-53.414 -19.449,-78.805l-57.691,-149.914c-1.207,-3.141 -4.227,-5.215 -7.594,-5.215h-32.426c-5.211,0 -8.801,5.23 -6.93,10.094l59.051,153.539c9.934,25.824 15.914,52.965 17.789,80.5 0.004,-13.48 11.586,-24.414 25.066,-24.414zM256.41,267.867" fill="#96cd82"/>
  <path d="m213.555,211.781c9.934,25.824 15.914,52.965 17.793,80.5 0,-9.52 6.113,-17.844 14.063,-21.871 -3.082,-22.07 -8.633,-43.594 -16.664,-64.477l-60.688,-157.785h-6.625c-5.211,0 -8.801,5.23 -6.93,10.094zM213.555,211.781" fill="#7dbe81"/>
</svg>
