<?xml version="1.0" ?>
<svg height="512" viewBox="0 0 512 512" width="512" xmlns="http://www.w3.org/2000/svg">
  <path d="m316,151h-30c-74.441,0 -135,-61.559 -135,-136 0,-8.289 6.711,-15 15,-15h30c74.441,0 135,61.559 135,136 0,8.289 -6.711,15 -15,15zM316,151" fill="#a0deb0"/>
  <path d="m391,15c0,8.402 -6.598,15 -15,15 -24.902,0 -45,20.098 -45,45v61c0,8.398 -6.598,15 -15,15s-15,-6.602 -15,-15v-61c0,-16.801 5.398,-32.402 15,-44.699 13.5,-18.301 35.398,-30.301 60,-30.301 8.402,0 15,6.598 15,15zM391,15" fill="#895d3c"/>
  <path d="m391,15c0,8.402 -6.598,15 -15,15 -24.902,0 -45,20.098 -45,45v61c0,8.398 -6.598,15 -15,15v-120.699c13.5,-18.301 35.398,-30.301 60,-30.301 8.402,0 15,6.598 15,15zM391,15" fill="#714c2f"/>
  <path d="m512,317c0,107.699 -88.301,195 -196,195s-195,-87.301 -195,-195 87.301,-196 195,-196 196,88.301 196,196zM512,317" fill="#ff9100"/>
  <path d="m512,317c0,107.699 -88.301,195 -196,195v-391c107.699,0 196,88.301 196,196zM512,317" fill="#ff641a"/>
  <path d="m199.605,284.145c-7.633,-3.238 -11.191,-12.043 -7.969,-19.66 21.223,-50.113 70.047,-83.484 124.363,-83.484 8.289,0 15,6.711 15,15s-6.711,15 -15,15c-42.246,0 -80.215,26.195 -96.738,65.188 -3.266,7.672 -12.09,11.156 -19.656,7.957zM199.605,284.145" fill="#ff641a"/>
  <path d="m391,317c0,107.398 -87.598,195 -195,195s-196,-87.602 -196,-195c0,-5.102 0.301,-10.199 0.602,-15.301 0.301,-4.801 3,-9.301 7.5,-11.699 4.199,-2.699 9.301,-2.699 13.797,-0.602 34.203,15.902 70.902,26.102 106.902,32.402l-1.203,22.797 33.301,-18.598c6.602,0.602 13.5,0.898 20.102,1.199l15,34.801 15,-34.801c6.598,-0.301 13.5,-0.598 20.098,-1.199l33.301,18.602 -1.199,-22.801c36,-6.301 71.699,-16.5 105.902,-32.402 4.496,-2.098 9.598,-2.098 13.797,0.602 4.5,2.402 7.199,6.898 7.5,11.699 0.301,5.102 0.602,10.199 0.602,15.301zM391,317" fill="#fdbf00"/>
  <path d="m391,317c0,107.398 -87.598,195 -195,195v-150l15,-34.801c6.598,-0.301 13.5,-0.598 20.098,-1.199l33.301,18.602 -1.199,-22.801c36,-6.301 71.699,-16.5 105.902,-32.402 4.496,-2.098 9.598,-2.098 13.797,0.602 4.5,2.402 7.199,6.898 7.5,11.699 0.301,5.102 0.602,10.199 0.602,15.301zM391,317" fill="#ff9100"/>
  <path d="m97.68,404.48c7.016,4.648 16.281,2.633 20.801,-4.16l42.477,-74.336c-10.727,-0.93 -21.375,-2.492 -32.023,-4.277l-35.414,61.973c-4.598,6.898 -2.738,16.203 4.16,20.801zM97.68,404.48" fill="#ff9100"/>
  <path d="m294.32,404.48c6.898,-4.602 8.758,-13.902 4.16,-20.801l-35.414,-61.969c-10.648,1.781 -21.297,3.344 -32.023,4.273l42.477,74.336c4.52,6.793 13.781,8.813 20.801,4.16zM294.32,404.48" fill="#ff641a"/>
  <path d="m211,327.199v79.801c0,8.398 -6.598,15 -15,15s-15,-6.602 -15,-15v-79.801c4.801,0 9.902,0.301 15,0.301s10.199,-0.301 15,-0.301zM211,327.199" fill="#ff9100"/>
  <path d="m211,327.199v79.801c0,8.398 -6.598,15 -15,15v-94.5c5.098,0 10.199,-0.301 15,-0.301zM211,327.199" fill="#ff641a"/>
</svg>
