<?xml version="1.0" ?>
<svg height="512" viewBox="0 0 512 512" width="512" xmlns="http://www.w3.org/2000/svg">
  <path d="M226.982,16.892c-0.173,0.022 -0.343,0.049 -0.514,0.072c-8.161,-8.255 -20.39,-12.029 -32.404,-8.81c-12.002,3.216 -20.7,12.582 -23.649,23.796c-0.174,0.071 -0.348,0.14 -0.522,0.213c-10.014,-5.843 -22.785,-6.314 -33.545,-0.102c-10.78,6.224 -16.761,17.552 -16.685,29.168c-0.128,0.098 -0.256,0.196 -0.384,0.295c-11.202,-3.08 -23.691,-0.234 -32.492,8.567s-11.647,21.29 -8.567,32.492c-0.099,0.128 -0.197,0.256 -0.295,0.385c-11.617,-0.076 -22.944,5.905 -29.167,16.685c-6.212,10.76 -5.74,23.532 0.102,33.546c-0.072,0.174 -0.141,0.348 -0.213,0.521c-11.214,2.948 -20.58,11.647 -23.797,23.649c-3.219,12.014 0.554,24.244 8.81,32.404c-0.022,0.171 -0.05,0.343 -0.072,0.514c-10.085,5.747 -16.893,16.582 -16.893,29.018l261.565,22.261L256,0C243.564,0 232.728,6.807 226.982,16.892z" fill="#a4631f"/>
  <path d="M478.413,210.287c-0.022,-0.173 -0.049,-0.343 -0.072,-0.514c8.255,-8.161 12.029,-20.39 8.81,-32.404c-3.216,-12.002 -12.582,-20.7 -23.797,-23.649c-0.071,-0.174 -0.141,-0.348 -0.213,-0.521c5.843,-10.014 6.315,-22.786 0.102,-33.546c-6.224,-10.78 -17.552,-16.761 -29.167,-16.685c-0.098,-0.128 -0.197,-0.256 -0.295,-0.385c3.08,-11.201 0.235,-23.69 -8.567,-32.492s-21.291,-11.647 -32.492,-8.567c-0.128,-0.098 -0.256,-0.196 -0.384,-0.295c0.077,-11.617 -5.905,-22.944 -16.685,-29.168c-10.76,-6.212 -23.532,-5.741 -33.546,0.102c-0.174,-0.072 -0.347,-0.141 -0.521,-0.213c-2.948,-11.214 -11.647,-20.58 -23.649,-23.796c-12.014,-3.22 -24.243,0.554 -32.404,8.81c-0.173,-0.023 -0.343,-0.05 -0.514,-0.072C279.272,6.807 268.436,0 256,0v261.565l239.304,-22.261C495.304,226.868 488.497,216.033 478.413,210.287z" fill="#794917"/>
  <path d="M161.391,478.609h189.217v33.391h-189.217z" fill="#FF1A26"/>
  <path d="M0,239.304c0,141.385 114.615,256 256,256l22.261,-128l-22.261,-128H0z" fill="#FF832F"/>
  <path d="M256,239.304v256c141.385,0 256,-114.615 256,-256H256z" fill="#FF4F2A"/>
  <path d="M384,172.522m-16.696,0a16.696,16.696 0,1 1,33.392 0a16.696,16.696 0,1 1,-33.392 0" fill="#8c4e1a"/>
  <path d="M339.478,105.739m-16.696,0a16.696,16.696 0,1 1,33.392 0a16.696,16.696 0,1 1,-33.392 0" fill="#8c4e1a"/>
  <path d="M150.261,139.13m-16.696,0a16.696,16.696 0,1 1,33.392 0a16.696,16.696 0,1 1,-33.392 0" fill="#8c4e1a"/>
</svg>
