<?xml version="1.0" ?>
<svg height="512" viewBox="0 0 512.0001 512" width="512.0001" xmlns="http://www.w3.org/2000/svg">
  <path d="m495.484,247.484c0,132.262 -107.223,239.484 -239.484,239.484s-239.484,-107.223 -239.484,-239.484c0,-132.266 107.223,-239.484 239.484,-239.484s239.484,107.219 239.484,239.484zM495.484,247.484" fill="#cdf5a0"/>
  <path d="m476.047,152.828c-11.441,-1.824 -23.398,-3.098 -35.797,-3.602l-0.508,-0.02c-4.867,-0.199 -9.641,-0.297 -14.184,-0.297 -14.527,0 -27.656,0.984 -40.145,3.012 -4.773,0.777 -9.488,1.707 -14.168,2.715 0.156,-4.082 0.367,-8.164 0.367,-12.246 0,-39.813 -7.484,-79.086 -21.59,-115.227 -6.898,-2.949 -13.973,-5.59 -21.188,-7.891 17.16,37.914 26.262,80.188 26.262,123.117 0,5.473 -0.203,10.953 -0.492,16.422 -22.34,6.301 -43.379,15.316 -62.82,26.613 -27.43,-44.301 -67.688,-80.207 -114.938,-101.766 -4.16,-1.902 -9.047,-0.063 -10.945,4.086 -1.887,4.148 -0.063,9.047 4.09,10.941 44.316,20.219 82.074,53.91 107.789,95.48 -73.715,49.074 -120.879,132.664 -120.879,226.734 0,15.598 1.508,31.121 4.164,46.469 29.113,12.586 61.199,19.598 94.934,19.598 132.262,0 239.484,-107.223 239.484,-239.484 0,-33.633 -6.922,-65.609 -19.438,-94.656zM476.047,152.828" fill="#bee891"/>
  <path d="m66.867,89.152c-6.211,-1.484 -12.816,0.941 -16.617,6.07 -31.555,42.555 -50.25,95.215 -50.25,152.262 0,124.836 89.371,228.742 207.613,251.371l40.129,-251.371c-31.008,-75.754 -99.559,-138.887 -180.875,-158.332zM66.867,89.152" fill="#afdc82"/>
  <path d="m78.637,217.547c0,-41.434 9.348,-80.789 25.844,-115.98 -12.141,-5.148 -24.734,-9.336 -37.617,-12.414 -6.207,-1.484 -12.813,0.941 -16.613,6.07 -31.555,42.555 -50.25,95.215 -50.25,152.262 0,124.836 89.371,228.742 207.613,251.371l7.168,-44.914c-81.387,-47.348 -136.145,-135.449 -136.145,-236.395zM78.637,217.547" fill="#96cd82"/>
  <path d="m504.129,184.512c-1.453,-5.734 -6.012,-10.285 -11.758,-11.688 -17.227,-4.199 -35.145,-6.383 -52.789,-7.094l-0.508,-0.02c-17.047,-0.695 -34.172,-0.223 -51.012,2.516 -121.719,19.77 -214.641,125.371 -214.641,252.676 0,25.078 3.668,49.285 10.391,72.191 35.285,10.355 73.672,13.465 113.563,7.074 107.965,-17.301 194.004,-103.336 211.309,-211.301 5.84,-36.441 3.75,-71.637 -4.555,-104.355zM504.129,184.512" fill="#cdf5a0"/>
  <path d="m52.055,241.145c0.363,0.047 0.727,0.074 1.09,0.074 4.082,0 7.629,-3.02 8.176,-7.172 0.598,-4.477 1.309,-8.922 2.141,-13.316 0.844,-4.484 -2.098,-8.801 -6.574,-9.652 -4.559,-0.891 -8.809,2.094 -9.652,6.57 -0.895,4.703 -1.656,9.445 -2.285,14.227 -0.594,4.52 2.582,8.672 7.105,9.27zM52.055,241.145" fill="#afdc82"/>
  <path d="m198.555,492.633c-46.676,-25.648 -83.648,-62.941 -107.785,-106.363 4.98,-6.98 24.07,-32.074 52.512,-49.176 3.91,-2.348 5.18,-7.422 2.832,-11.332 -2.355,-3.91 -7.426,-5.18 -11.332,-2.824 -25.09,15.078 -43.211,35.324 -52.383,46.957 -15,-32.215 -23.215,-67.238 -23.215,-103.141 0,-4.563 -3.691,-8.258 -8.258,-8.258 -4.563,0 -8.258,3.695 -8.258,8.258 0,12.32 0.902,24.547 2.645,36.605 -19.379,-7.926 -36.164,-23.125 -44.129,-31.098 0.836,8.66 2.094,17.18 3.77,25.566 11.535,9.25 26.902,19.285 43.77,24.113 13.594,61.758 49.66,118.094 101.875,158.84 16.477,7.461 33.742,13.242 51.93,16.984 -0.555,-2.109 -1.906,-4 -3.973,-5.133zM198.555,492.633" fill="#afdc82"/>
  <path d="m116.895,357.031c7.5,-6.883 16.348,-13.902 26.387,-19.938 3.91,-2.348 5.18,-7.422 2.832,-11.332 -2.355,-3.91 -7.426,-5.18 -11.332,-2.824 -9.805,5.891 -18.559,12.574 -26.117,19.219 2.598,5.055 5.336,10.012 8.23,14.875zM116.895,357.031" fill="#bee891"/>
  <path d="m173.551,424.535c0.34,23.773 3.871,46.777 10.266,68.566 35.285,10.355 73.668,13.457 113.559,7.066 13.563,-2.172 26.773,-5.438 39.551,-9.688 -62.316,-3.391 -119.031,-27.684 -163.375,-65.945zM173.551,424.535" fill="#bee891"/>
  <path d="m496.184,336.414c-11.199,7.461 -39.668,24.199 -75.641,28.973 18.93,-35.809 29.52,-75.898 29.52,-117.902 0,-4.559 -3.691,-8.258 -8.258,-8.258 -4.563,0 -8.258,3.699 -8.258,8.258 0,71.137 -32.531,136.445 -85.129,182.781 -6.195,-21.551 -21.098,-68.563 -43.879,-110.344 -2.184,-4.012 -7.219,-5.488 -11.199,-3.301 -4.012,2.184 -5.484,7.199 -3.301,11.203 24.699,45.297 40.219,98.527 44.426,113.898 -37.621,28.906 -83.887,48.73 -134.938,55.434 16.133,3.648 32.895,5.738 50.023,6.172 68.434,-20.527 125.301,-64.168 160.785,-120.395 30.551,-1.738 56.699,-11.746 74.719,-20.898 4.148,-8.258 7.883,-16.891 11.129,-25.621zM496.184,336.414" fill="#bee891"/>
  <path d="m270.328,478.465c-22.133,9.02 -45.875,15.402 -70.742,18.668 16.133,3.648 32.637,5.828 49.766,6.262 16.133,-4.84 31.777,-11.023 46.496,-18.293 -8.684,-1.816 -17.16,-4.016 -25.52,-6.637zM270.328,478.465" fill="#afdc82"/>
</svg>
