<?xml version="1.0" ?>
<svg height="469" viewBox="0 0 469.52084 469" width="469.52084" xmlns="http://www.w3.org/2000/svg">
  <path d="m277.332,213.594 l170.668,-170.668 21.332,21.336 -170.664,170.664zM277.332,213.594" fill="#fdab00"/>
  <path d="m22.223,234.926s-0.891,-42.664 41.777,-42.664c0,0 0,-42.668 42.668,-42.668 0,0 0,-42.668 42.664,-42.668 0,0 0,-42.664 42.668,-42.664 0,0 0,-42.668 42.668,-42.668 42.664,0 42.664,42.668 42.664,42.668s42.668,0 42.668,42.664c0,0 42.668,0 42.668,42.668 0,0 42.664,0 42.664,42.668 0,0 41.777,0 41.777,42.664l0.891,21.336h-426.668zM22.223,234.926" fill="#eae2ce"/>
  <path d="m384,234.926c0,23.566 -19.102,42.668 -42.668,42.668 -23.563,0 -42.664,-19.102 -42.664,-42.668 0,-23.563 19.102,-42.664 42.664,-42.664 23.566,0 42.668,19.102 42.668,42.664zM384,234.926" fill="#f3eee3"/>
  <path d="m298.668,106.926c0,23.566 -19.105,42.668 -42.668,42.668s-42.668,-19.102 -42.668,-42.668c0,-23.563 19.105,-42.664 42.668,-42.664s42.668,19.102 42.668,42.664zM298.668,106.926" fill="#f3eee3"/>
  <path d="m170.668,128.262c0,11.781 -9.551,21.332 -21.336,21.332 -11.781,0 -21.332,-9.551 -21.332,-21.332 0,-11.785 9.551,-21.336 21.332,-21.336 11.785,0 21.336,9.551 21.336,21.336zM170.668,128.262" fill="#f3eee3"/>
  <path d="m128,224.262c0,17.672 -14.328,32 -32,32s-32,-14.328 -32,-32c0,-17.676 14.328,-32 32,-32s32,14.324 32,32zM128,224.262" fill="#f3eee3"/>
  <path d="m149.332,192.262c0,11.781 -9.551,21.332 -21.332,21.332s-21.332,-9.551 -21.332,-21.332c0,-11.785 9.551,-21.336 21.332,-21.336s21.332,9.551 21.332,21.336zM149.332,192.262" fill="#f3eee3"/>
  <path d="m234.668,234.926h-234.668c0,170.668 128,192 128,192 0,21.336 21.332,42.668 42.668,42.668h128c21.332,0 42.664,-21.332 42.664,-42.668 0,0 128,-21.332 128,-192zM234.668,234.926" fill="#993b17"/>
  <path d="m298.668,469.594h-64v-21.332h64c9.57,0 21.332,-11.762 21.332,-21.336l0.063,-17.977 17.668,-3.055c4.207,-0.719 100.07,-18.645 109.52,-149.633h-20.582v-21.336h42.852l-0.375,11.023c-5.27,158.207 -122.789,180.113 -127.789,180.969l-0.023,0.051c0,21.488 -21.133,42.625 -42.664,42.625zM298.668,469.594" fill="#8b2800"/>
  <path d="m234.668,426.926s128,-21.332 128,-192h-362.668c0,170.668 128,192 128,192 0,21.336 21.332,42.668 42.668,42.668h21.332c21.332,0 42.668,-21.332 42.668,-42.668zM234.668,426.926" fill="#a34e2d"/>
  <path d="m131.301,405.855c-9.613,-1.805 -94.363,-20.918 -108.094,-137.68l21.188,-2.5c11.949,101.605 82.781,117.699 90.824,119.199zM131.301,405.855" fill="#b7745a"/>
  <path d="m234.668,170.926 l170.664,-170.664 21.336,21.332 -170.668,170.668zM234.668,170.926" fill="#fdbc34"/>
  <path d="m149.332,426.926h85.336v21.336h-85.336zM149.332,426.926" fill="#993b17"/>
</svg>
