<?xml version="1.0" ?>
<svg height="512" viewBox="0 0 512 512" width="512" xmlns="http://www.w3.org/2000/svg">
  <path d="m387.492,364.41v64.734c0,14.422 -3.656,28.613 -10.629,41.238l-2.656,4.813c-6.453,11.699 2.008,26.031 15.367,26.031h25.586c6.453,0 11.688,-5.234 11.688,-11.691v-125.125zM387.492,364.41" fill="#e95353"/>
  <path d="m394.813,475.195 l2.656,-4.813c6.973,-12.625 10.629,-26.813 10.629,-41.238v-64.734h-20.605v64.734c0,14.426 -3.656,28.613 -10.629,41.238l-2.656,4.813c-6.453,11.699 2.008,26.031 15.363,26.031h20.605c-13.359,0 -21.816,-14.332 -15.363,-26.031zM394.813,475.195" fill="#d44545"/>
  <path d="m387.492,363h39.355v27.266h-39.355zM387.492,363" fill="#d44545"/>
  <path d="m387.492,363h20.566v27.266h-20.566zM387.492,363" fill="#c03636"/>
  <path d="m335.078,0h-219.984c-16.555,0 -30.094,13.539 -30.094,30.094v292.734c0,16.508 13.508,30.094 30.094,30.094h61.043c13.703,0 23.914,12.645 21.027,26.039l-16.441,76.285c-6.281,29.137 15.309,56.754 44.363,56.754 29.051,0 50.641,-27.617 44.359,-56.754l-16.441,-76.285c-2.887,-13.398 7.324,-26.039 21.027,-26.039h61.043c16.473,0 30.094,-13.484 30.094,-30.094 0,-7.211 0,-284.422 0,-292.734v-0.004c0,-16.551 -13.539,-30.09 -30.09,-30.09zM225.086,478.965c-7.094,0 -12.84,-5.75 -12.84,-12.84s5.746,-12.84 12.84,-12.84c7.09,0 12.836,5.75 12.836,12.84s-5.746,12.84 -12.836,12.84zM225.086,478.965" fill="#d78c33"/>
  <path d="m105.605,322.828c0,-7.133 0,-284.363 0,-292.734 0,-16.555 13.539,-30.094 30.09,-30.094h-20.602c-16.555,0 -30.094,13.539 -30.094,30.094v292.734c0,16.508 13.508,30.094 30.094,30.094h20.602c-16.582,0 -30.09,-13.586 -30.09,-30.094zM105.605,322.828" fill="#c9781f"/>
  <path d="m201.324,455.246 l16.445,-76.285c2.887,-13.398 -7.324,-26.039 -21.027,-26.039h-20.605c13.703,0 23.914,12.641 21.027,26.039l-16.441,76.285c-6.281,29.137 15.309,56.754 44.363,56.754 3.559,0 7.004,-0.422 10.301,-1.199 -23.621,-5.598 -39.57,-29.988 -34.063,-55.555zM201.324,455.246" fill="#c9781f"/>
  <path d="m416.289,84.746c-37.004,0 -67.008,30 -67.008,67.008v202.102c0,5.828 4.73,10.555 10.559,10.555h67.008v-269.105c0,-5.832 -4.727,-10.559 -10.559,-10.559zM416.289,84.746" fill="#e8e2e4"/>
  <path d="m376.934,97.535c-16.75,12.184 -27.648,31.922 -27.648,54.219v202.098c0,5.832 4.727,10.559 10.555,10.559h17.094zM376.934,97.535" fill="#d6d0d3"/>
  <path d="m369.887,355.914v-229.918c0,-9.859 2.137,-19.219 5.965,-27.648 -16.133,12.234 -26.57,31.594 -26.57,53.406v202.098c0,5.832 4.73,10.559 10.559,10.559h14.359c-2.609,-1.922 -4.313,-5.008 -4.313,-8.496zM369.887,355.914" fill="#c6c4c5"/>
  <path d="m185.34,215.984c-3.016,-3.016 -3.016,-7.91 0,-10.926l68.559,-68.559c3.02,-3.016 7.91,-3.016 10.926,0 3.02,3.016 3.02,7.91 0,10.926l-68.555,68.559c-3.02,3.02 -7.91,3.02 -10.93,0zM185.34,215.984" fill="#c9781f"/>
  <path d="m166.129,180.859c-3.02,-3.016 -3.02,-7.91 0,-10.926l52.645,-52.648c3.016,-3.016 7.91,-3.016 10.926,0 3.02,3.02 3.02,7.91 0,10.93l-52.645,52.645c-3.02,3.02 -7.91,3.02 -10.926,0zM166.129,180.859" fill="#c9781f"/>
  <path d="m220.469,235.199c-3.02,-3.02 -3.02,-7.91 0,-10.93l52.645,-52.645c3.016,-3.016 7.91,-3.016 10.926,0 3.02,3.02 3.02,7.91 0,10.93l-52.645,52.645c-3.02,3.016 -7.91,3.016 -10.926,0zM220.469,235.199" fill="#c9781f"/>
</svg>
