<?xml version="1.0" encoding="UTF-8"?>
<svg xmlns="http://www.w3.org/2000/svg" version="1.1" width="512px" height="512px" style="shape-rendering:geometricPrecision; text-rendering:geometricPrecision; image-rendering:optimizeQuality; fill-rule:evenodd; clip-rule:evenodd">
<g><path style="opacity:0.995" fill="#fe8f16" d="M 416.5,83.5 C 429.775,82.7186 442.275,85.3853 454,91.5C 463.309,110.819 463.975,130.486 456,150.5C 419.284,249.512 356.784,327.679 268.5,385C 216.064,417.21 159.397,438.21 98.5,448C 83.1935,450.859 68.1935,449.859 53.5,445C 51.2537,443.961 49.087,442.794 47,441.5C 39.0998,424.697 37.5998,407.364 42.5,389.5C 50.4745,366.048 66.1411,350.214 89.5,342C 104.302,339.673 118.969,336.84 133.5,333.5C 137.362,346.586 141.528,359.586 146,372.5C 149.925,376.41 153.925,376.41 158,372.5C 158.923,370.966 159.423,369.299 159.5,367.5C 156.266,354.8 152.266,342.467 147.5,330.5C 163.141,325.504 178.475,319.504 193.5,312.5C 199.469,324.435 205.969,336.102 213,347.5C 217.251,352.726 221.585,352.726 226,347.5C 226.667,344.833 226.667,342.167 226,339.5C 219.235,328.302 212.735,316.969 206.5,305.5C 217.694,299.073 228.694,292.407 239.5,285.5C 250.995,296.827 262.661,307.994 274.5,319C 283.839,319.519 286.672,315.352 283,306.5C 272.934,295.931 262.434,285.931 251.5,276.5C 265.469,264.198 278.802,251.198 291.5,237.5C 302.877,245.37 314.877,252.536 327.5,259C 333.027,259.646 336.027,257.146 336.5,251.5C 336.444,248.889 335.444,246.722 333.5,245C 322.763,238.632 311.763,232.799 300.5,227.5C 311.247,213.008 321.247,198.008 330.5,182.5C 342.238,185.69 353.905,189.19 365.5,193C 372.489,195.166 376.489,192.666 377.5,185.5C 377.594,183.088 376.594,181.255 374.5,180C 362.179,176.059 349.845,172.226 337.5,168.5C 344.144,155.544 349.977,142.211 355,128.5C 366.895,101.645 387.395,86.6447 416.5,83.5 Z"/></g>
<g><path style="opacity:1" fill="#ed7d0c" d="M 511.5,69.5 C 511.5,72.1667 511.5,74.8333 511.5,77.5C 499.043,86.7846 486.709,96.2846 474.5,106C 491.552,125.574 497.052,148.074 491,173.5C 454.288,278.512 389.121,360.679 295.5,420C 244.674,450.278 190.008,470.278 131.5,480C 100.149,486.663 74.3162,477.829 54,453.5C 39.8333,461.667 25.6667,469.833 11.5,478C 7.01855,479.112 3.01855,478.279 -0.5,475.5C -0.5,441.833 -0.5,408.167 -0.5,374.5C 2.93305,370.854 6.93305,370.02 11.5,372C 21.8606,377.845 32.194,383.679 42.5,389.5C 37.5998,407.364 39.0998,424.697 47,441.5C 49.087,442.794 51.2537,443.961 53.5,445C 68.1935,449.859 83.1935,450.859 98.5,448C 159.397,438.21 216.064,417.21 268.5,385C 356.784,327.679 419.284,249.512 456,150.5C 463.975,130.486 463.309,110.819 454,91.5C 442.275,85.3853 429.775,82.7186 416.5,83.5C 414.173,66.8873 412.673,50.2206 412,33.5C 412.5,31.6667 413.667,30.5 415.5,30C 418.167,29.3333 420.833,29.3333 423.5,30C 452.249,42.1386 480.916,54.472 509.5,67C 510.066,67.9947 510.733,68.828 511.5,69.5 Z"/></g>
<g><path style="opacity:1" fill="#d96d0e" d="M 337.5,168.5 C 349.845,172.226 362.179,176.059 374.5,180C 376.594,181.255 377.594,183.088 377.5,185.5C 376.489,192.666 372.489,195.166 365.5,193C 353.905,189.19 342.238,185.69 330.5,182.5C 332.82,177.86 335.153,173.193 337.5,168.5 Z"/></g>
<g><path style="opacity:1" fill="#d86d0e" d="M 300.5,227.5 C 311.763,232.799 322.763,238.632 333.5,245C 335.444,246.722 336.444,248.889 336.5,251.5C 336.027,257.146 333.027,259.646 327.5,259C 314.877,252.536 302.877,245.37 291.5,237.5C 294.041,233.748 297.041,230.415 300.5,227.5 Z"/></g>
<g><path style="opacity:1" fill="#d96d0e" d="M 251.5,276.5 C 262.434,285.931 272.934,295.931 283,306.5C 286.672,315.352 283.839,319.519 274.5,319C 262.661,307.994 250.995,296.827 239.5,285.5C 242.929,281.738 246.929,278.738 251.5,276.5 Z"/></g>
<g><path style="opacity:1" fill="#d96d0e" d="M 206.5,305.5 C 212.735,316.969 219.235,328.302 226,339.5C 226.667,342.167 226.667,344.833 226,347.5C 221.585,352.726 217.251,352.726 213,347.5C 205.969,336.102 199.469,324.435 193.5,312.5C 197.639,309.928 201.973,307.595 206.5,305.5 Z"/></g>
<g><path style="opacity:1" fill="#d96d0e" d="M 147.5,330.5 C 152.266,342.467 156.266,354.8 159.5,367.5C 159.423,369.299 158.923,370.966 158,372.5C 153.925,376.41 149.925,376.41 146,372.5C 141.528,359.586 137.362,346.586 133.5,333.5C 138.167,332.5 142.833,331.5 147.5,330.5 Z"/></g>
</svg>
