<?xml version="1.0" ?>
<svg height="512" viewBox="0 0 512.1493 512" width="512.1493" xmlns="http://www.w3.org/2000/svg">
  <path d="m218.145,297.223 l-190.914,-90.41c-9.52,-4.508 -20.887,-0.441 -25.395,9.078 -4.504,9.52 -0.438,20.887 9.082,25.391l195.91,92.781zM218.145,297.223" fill="#cb8252"/>
  <path d="m380.906,332.074c-80.949,-38.313 -153.777,-53.938 -162.781,-34.867 -31.523,66.598 -3.113,146.145 63.473,177.699l51.816,24.449c66.453,31.48 145.848,3.199 177.434,-63.203 0.09,-0.09 0.18,-0.176 0.18,-0.266l0.086,-0.09c9.004,-18.977 -49.348,-65.5 -130.207,-103.723zM380.906,332.074" fill="#3f5c6c"/>
  <path d="m511.113,435.797 l-0.086,0.09c0,0.09 -0.09,0.176 -0.18,0.266 -3.352,6.445 -14.301,8.738 -30.629,7.414 -20.922,-22.07 -64.18,-50.758 -117.145,-75.828 -52.434,-24.719 -101.516,-39.988 -131.973,-42.551l-0.086,0.09c-11.125,-11.652 -15.98,-21.539 -12.891,-28.07 9.004,-19.07 81.832,-3.445 162.781,34.867s139.211,84.746 130.207,103.723zM511.113,435.797" fill="#35495e"/>
  <path d="m480.219,443.566c-30.547,-2.559 -79.539,-17.742 -131.973,-42.547 -52.969,-25.07 -96.223,-53.672 -117.23,-75.742l0.086,-0.09c30.457,2.563 79.539,17.832 131.973,42.551 52.965,25.07 96.223,53.758 117.145,75.828zM480.219,443.566" fill="#547580"/>
  <path d="m347.328,477.289c-1.309,-0.012 -2.598,-0.313 -3.77,-0.883l-50.938,-24.09c-11.891,-5.613 -22.645,-13.371 -31.715,-22.891 -2.438,-2.227 -3.426,-5.625 -2.57,-8.809 0.855,-3.184 3.418,-5.625 6.641,-6.332 3.223,-0.703 6.566,0.445 8.676,2.984 7.57,7.949 16.551,14.43 26.48,19.113l50.93,24.098c3.691,1.789 5.664,5.883 4.762,9.887 -0.898,4 -4.441,6.855 -8.543,6.887zM347.328,477.289" fill="#657d89"/>
  <path d="m248.539,404.109c-3.512,-0.004 -6.684,-2.082 -8.09,-5.297 -1.191,-2.719 -2.293,-5.484 -3.266,-8.289 -1.043,-2.984 -0.418,-6.297 1.645,-8.688 2.063,-2.395 5.25,-3.5 8.352,-2.906 3.102,0.598 5.652,2.805 6.68,5.793 0.824,2.355 1.738,4.672 2.746,6.957 1.211,2.73 0.957,5.883 -0.672,8.387s-4.41,4.016 -7.395,4.016zM248.539,404.109" fill="#657d89"/>
  <path d="m317.789,220.934c-2.336,-0.031 -4.574,-0.945 -6.266,-2.559 -0.383,-0.418 -0.734,-0.863 -1.063,-1.324 -0.332,-0.492 -0.602,-1.027 -0.793,-1.59 -0.254,-0.5 -0.434,-1.035 -0.531,-1.586 -0.102,-0.586 -0.16,-1.176 -0.176,-1.766 -0.031,-1.16 0.211,-2.309 0.707,-3.355 0.449,-1.07 1.074,-2.055 1.855,-2.914 3.539,-3.266 8.992,-3.266 12.535,0 0.777,0.859 1.406,1.844 1.852,2.914 0.453,1.059 0.691,2.199 0.707,3.355 -0.012,0.59 -0.074,1.18 -0.184,1.766 -0.09,0.551 -0.266,1.09 -0.523,1.586 -0.195,0.563 -0.465,1.098 -0.793,1.59l-1.059,1.324c-1.695,1.613 -3.934,2.527 -6.27,2.559zM317.789,220.934" fill="#95a5a5"/>
  <path d="m476.688,229.762c-4.16,-0.039 -7.715,-3.012 -8.496,-7.098 -0.781,-4.086 1.426,-8.156 5.277,-9.73 3.852,-1.574 8.281,-0.211 10.582,3.254 2.305,3.465 1.844,8.074 -1.098,11.016 -1.691,1.613 -3.93,2.527 -6.266,2.559zM476.688,229.762" fill="#95a5a5"/>
  <path d="m317.789,238.59c-4.875,0 -8.828,3.953 -8.828,8.828v17.656c0,4.875 3.953,8.828 8.828,8.828s8.828,-3.953 8.828,-8.828v-17.656c0,-4.875 -3.953,-8.828 -8.828,-8.828zM317.789,238.59" fill="#95a5a5"/>
  <path d="m476.688,247.418c-4.875,0 -8.828,3.953 -8.828,8.828v79.449c0,4.875 3.953,8.824 8.828,8.824s8.828,-3.949 8.828,-8.824v-79.449c0,-4.875 -3.953,-8.828 -8.828,-8.828zM476.688,247.418" fill="#95a5a5"/>
  <path d="m370.754,256.246c-4.875,0 -8.828,3.953 -8.828,8.828v17.652c0,4.879 3.953,8.828 8.828,8.828s8.828,-3.949 8.828,-8.828v-17.652c0,-4.875 -3.953,-8.828 -8.828,-8.828zM370.754,256.246" fill="#95a5a5"/>
  <path d="m370.754,212.109c-4.875,0 -8.828,3.949 -8.828,8.824v8.828c0,4.875 3.953,8.828 8.828,8.828s8.828,-3.953 8.828,-8.828v-8.828c0,-4.875 -3.953,-8.824 -8.828,-8.824zM370.754,212.109" fill="#95a5a5"/>
  <path d="m423.719,256.246c-4.875,0 -8.824,3.953 -8.824,8.828v44.137c0,4.875 3.949,8.828 8.824,8.828 4.879,0 8.828,-3.953 8.828,-8.828v-44.137c0,-4.875 -3.949,-8.828 -8.828,-8.828zM423.719,256.246" fill="#95a5a5"/>
  <path d="m423.719,212.109c-4.875,0 -8.824,3.949 -8.824,8.824v8.828c0,4.875 3.949,8.828 8.824,8.828 4.879,0 8.828,-3.953 8.828,-8.828v-8.828c0,-4.875 -3.949,-8.824 -8.828,-8.824zM423.719,212.109" fill="#95a5a5"/>
</svg>
