<?xml version="1.0" encoding="UTF-8"?>
<svg width="511.99pt" height="511.99pt" style="isolation:isolate" viewBox="0 0 511.99 511.99" xmlns="http://www.w3.org/2000/svg">
<defs>
<clipPath id="a">
<rect width="511.99" height="511.99"/>
</clipPath>
</defs>
<g clip-path="url(#a)">
<path d="m351.98 34.438c-57.64-38.234-153.04-8.344-153.04-8.344l-35 69.514 19.218 27.812 177.05-6.265c1e-3 0 49.421-44.484-8.234-82.717z" fill="#81af46"/>
<path d="m306.01 99.827-12.718-32.749-33.218-31.328s-66.491-35.75-95.577-26.562c-79.498 25.125-81.201 158.76-81.201 158.76s-19.546 199.48 59.842 301.49c45.616 58.607 113.54 39.608 113.54 39.608l31.492-58.202-0.688-181.45 18.531-169.58z" fill="#8cc153"/>
<path d="m213.16 110c2.531-5.312 0.281-11.688-5.039-14.219s-11.687-0.281-14.218 5.047c-1.141 2.375-27.937 59.327-36.64 141.14-2.406 22.671-3.18 45.046-2.305 66.968-11.039-19.219-15.758-47.438-16.758-60.14-0.453-5.875-5.585-10.266-11.453-9.812-5.875 0.453-10.273 5.578-9.812 11.453 0.055 0.766 1.516 19.015 7.445 39.499 7.523 25.983 18.703 43.733 33.265 52.874 1.547 12.874 3.687 25.577 6.414 38.046 10.242 46.843 28.851 90.67 55.413 130.62 10.226 0.953 19.164 0.438 25.71-0.359-29.265-40.64-49.507-85.795-60.187-134.39-9.171-41.687-11.39-86.029-6.593-131.78 8.18-78.14 34.344-134.08 34.758-134.95z" fill="#6d9741"/>
<path d="m288.17 450.85-0.688-181.45 18.53-169.57-11.796-30.39c-0.375 1.281-1.031 2.375-2.156 3.187-6.406 4.641-7.344-1.406-25.624 3.719-18.289 5.109-25.961 15.078-31.094 31.515s27.891 38.468 23.766 51.905c-4.118 13.437-29.469 22.733-32.937 38.937-3.469 16.203 23.335 27.015 26.538 43.858 3.195 16.858 4.571 29.296-0.922 43.233-5.484 13.938-29.733 26.921-36.601 55.655-6.859 28.733 35.687 87.607 33.406 111.23-2.289 23.641-8.758 58.03 5.882 56.421 8.204-0.906 11.165-0.922 18.258-1.984l15.438-56.264z" fill="#6d9741"/>
<path d="m400.96 329.02c30.938-139.06 57.608-217.78-26.765-319.74-27.093-32.749-47.905 31.124-55.452 38.327-7.547 7.188 1.047 20.391-5.359 25.015-6.406 4.641-7.344-1.406-25.624 3.719-18.28 5.109-25.952 15.078-31.085 31.515-5.132 16.437 27.882 38.468 23.773 51.905-4.125 13.437-29.483 22.733-32.952 38.937-3.461 16.203 23.336 27.015 26.547 43.858 3.202 16.858 4.577 29.296-0.922 43.233-5.492 13.938-29.742 26.921-36.602 55.655-6.867 28.733 35.695 87.607 33.398 111.23-2.289 23.641-27.883 57.983-13.243 56.374 91.178-10.013 109.47-23.607 144.29-180.03z" fill="#a0d468"/>
<path d="m379.23 198.48c-5.891 0.391-10.328 5.469-9.938 11.343 0.016 0.219 1.438 22.875-3.218 48.124-4.047 21.906-10.891 36.344-18.328 45.859 0.25-2.062 0.484-4.125 0.703-6.203 8.828-81.514 6.703-151.01 6.688-151.7-0.203-5.891-5.125-10.5-11.016-10.312s-10.5 5.125-10.312 11c0.016 0.688 2.094 68.92-6.594 148.98-10.422 96.045-31.827 169.03-62.178 212.53 10.226-1.234 19.46-2.562 27.882-4.234 12.421-21.671 23.124-48.062 31.952-78.904 7.625-26.608 13.906-56.624 18.766-89.561 52.748-29.874 47.201-122.92 46.936-126.98-0.39-5.891-5.468-10.344-11.343-9.938z" fill="#6d9741"/>
</g>
</svg>
