<?xml version="1.0" encoding="UTF-8"?>
<svg viewBox="0 0 512 512" xmlns="http://www.w3.org/2000/svg">
<path d="m157.14 25.664c3.586-6.219 12.449-6.219 16.035 0 31.852 55.234 148.16 84.664 156.53 174.26 7.391 79.098-51.961 143.81-164.55 143.81-112.58 0-171.93-64.715-164.54-143.81 8.371-89.598 124.67-119.03 156.53-174.26z" fill="#c8afeb"/>
<path d="m157.14 25.664c-31.855 55.234-148.16 84.664-156.53 174.26-7.391 79.098 51.961 143.81 164.54 143.81v-322.74c-3.109 0-6.223 1.555-8.016 4.664z" fill="#9678cd"/>
<path d="m43.973 150.3c0.992-12.789 3.551-24.523 7.266-35.445-26.074 22.281-47.227 48.727-50.621 85.066-7.391 79.098 51.961 143.81 164.54 143.81v-25.043c-84.207-17.484-127.56-86.449-121.19-168.39z" fill="#7d64b6"/>
<path d="m160.75 25.664c1.969-6.219 6.844-6.219 8.816 0 17.52 55.234 81.488 84.664 86.09 174.26 4.066 79.098-28.578 143.81-90.5 143.81s-94.563-64.715-90.5-143.81c4.605-89.598 68.574-119.03 86.094-174.26z" fill="#aa91dc"/>
<path d="m83.141 274.25c13.297 41.602 41.023 69.523 82.02 69.488 0 0 12.168-0.023 20.645-0.672l4.645-22.711c-37.418-0.773-87.156-24.449-107.31-46.105z" fill="#9678cd"/>
<path d="m338.82 173.64c3.586-6.219 12.449-6.219 16.035 0 31.855 55.23 148.16 84.664 156.53 174.26 7.391 79.098-51.961 143.81-164.54 143.81s-171.94-64.715-164.55-143.81c8.371-89.598 124.68-119.03 156.53-174.26z" fill="#c8afeb"/>
<path d="m494.94 349.43c-4.441-47.512-46.012-76.766-86.215-105.06-21.328-15.008-41.75-29.379-56.465-46.273-2.832-3.254-8.012-3.254-10.844 0-14.719 16.895-35.137 31.266-56.465 46.273-40.203 28.293-81.777 57.547-86.215 105.06-2.953 31.598 6.016 59.852 25.93 81.715 25.871 28.402 69.262 44.047 122.17 44.047s96.297-15.645 122.17-44.047c19.914-21.863 28.879-50.117 25.93-81.715z" fill="#fff6d8"/>
<path d="m478.5 350.97c-3.73-39.926-40.426-65.75-79.277-93.09-9.047-6.371-17.945-12.629-26.387-19.051-7.699-5.855-16.848-8.785-25.992-8.785-9.148 0-18.293 2.93-25.992 8.785-8.445 6.422-17.34 12.68-26.391 19.051-38.848 27.34-75.543 53.16-79.273 93.09-2.508 26.844 4.992 50.719 21.695 69.055 14.02 15.395 34.328 26.449 59.16 32.66 20.84 5.211 41.492-9.359 43.867-30.707l2.727-24.535c0.277-2.512 2.242-3.77 4.207-3.77 1.961 0 3.926 1.258 4.207 3.77l2.723 24.535c2.375 21.348 23.031 35.918 43.867 30.707 24.832-6.211 45.141-17.266 59.164-32.66 16.699-18.332 24.203-42.211 21.695-69.055z" fill="#e6646e"/>
<path d="m404.64 351.32c0-31.926-25.879-57.809-57.805-57.809s-57.809 25.883-57.809 57.809c0 30.078 22.977 54.77 52.332 57.527l1.27-11.406c0.277-2.512 2.242-3.766 4.207-3.766s3.93 1.254 4.207 3.766l1.27 11.406c29.352-2.758 52.328-27.449 52.328-57.527z" fill="#ff8087"/>
<path d="m267.88 392.78c-2.461 0-4.895-1.094-6.523-3.188-2.805-3.598-2.152-8.789 1.445-11.59l4.645-3.613c3.613-2.793 8.789-2.141 11.586 1.453 2.809 3.598 2.156 8.785-1.441 11.586l-4.645 3.613c-1.512 1.172-3.301 1.738-5.066 1.738z" fill="#ffaa5f"/>
<path d="m265.45 352.01c-1.809 0-3.629-0.594-5.152-1.809l-2.582-2.066c-3.559-2.848-4.137-8.043-1.289-11.605 2.859-3.559 8.047-4.141 11.609-1.289l2.582 2.066c3.559 2.848 4.137 8.043 1.289 11.605-1.637 2.039-4.031 3.098-6.457 3.098z" fill="#ffaa5f"/>
<path d="m304.87 312.78c-2.371 0-4.719-1.012-6.355-2.969l-2.582-3.098c-2.918-3.504-2.441-8.711 1.059-11.629 3.523-2.926 8.719-2.445 11.637 1.055l2.582 3.098c2.918 3.504 2.441 8.711-1.059 11.629-1.547 1.285-3.418 1.914-5.281 1.914z" fill="#ffaa5f"/>
<path d="m347.88 273.9c-2.805 0-5.539-1.426-7.09-4.008-2.348-3.91-1.078-8.984 2.832-11.328l2.582-1.551c3.918-2.352 8.984-1.082 11.328 2.832 2.348 3.91 1.082 8.984-2.828 11.332l-2.582 1.547c-1.332 0.797-2.797 1.176-4.242 1.176z" fill="#ffaa5f"/>
<path d="m388.14 311.58c-2.555 0-5.074-1.176-6.684-3.398-2.688-3.691-1.871-8.855 1.82-11.535l5.68-4.133c3.691-2.684 8.855-1.863 11.531 1.82 2.684 3.691 1.871 8.855-1.824 11.535l-5.676 4.129c-1.469 1.07-3.16 1.582-4.848 1.582z" fill="#ffaa5f"/>
<path d="m418.4 344.44c-3.855 0-7.305-2.715-8.09-6.637l-1.031-5.164c-0.895-4.469 2.008-8.82 6.477-9.715 4.516-0.887 8.824 2.012 9.719 6.477l1.031 5.16c0.895 4.473-2.008 8.82-6.477 9.719-0.547 0.105-1.098 0.16-1.629 0.16z" fill="#ffaa5f"/>
<path d="m437.15 380.74c-1.242 0-2.5-0.277-3.684-0.871l-4.129-2.066c-4.082-2.039-5.734-7-3.695-11.078 2.039-4.082 7-5.734 11.082-3.695l4.129 2.066c4.082 2.039 5.734 7 3.695 11.078-1.453 2.898-4.367 4.566-7.398 4.566z" fill="#ffaa5f"/>
<path d="m409.46 418.08c-4.566 0-8.258-3.699-8.258-8.258v-1.031c0-4.563 3.691-8.258 8.258-8.258 4.563 0 8.258 3.695 8.258 8.258v1.031c0 4.559-3.695 8.258-8.258 8.258z" fill="#ffc369"/>
<path d="m310.37 367.84c-2.816 0-5.547-1.434-7.098-4.02l-5-8.367c-2.34-3.914-1.063-8.988 2.855-11.328 3.895-2.355 8.977-1.066 11.324 2.852l5 8.367c2.336 3.914 1.063 8.988-2.855 11.328-1.324 0.793-2.781 1.168-4.227 1.168z" fill="#ffc369"/>
<path d="m357.17 351.84c-2.516 0-4.992-1.141-6.613-3.301-2.742-3.652-2-8.828 1.656-11.563l2.063-1.547c3.645-2.754 8.824-1.996 11.555 1.648 2.742 3.648 2 8.828-1.652 11.559l-2.063 1.551c-1.484 1.117-3.219 1.652-4.945 1.652z" fill="#ffc369"/>
<path d="m301.41 421.52c-1.555 0-3.137-0.438-4.539-1.363l-2.152-1.418c-3.809-2.512-4.855-7.633-2.348-11.441 2.516-3.797 7.629-4.859 11.445-2.348l2.152 1.418c3.805 2.512 4.855 7.633 2.348 11.438-1.59 2.41-4.219 3.715-6.906 3.715z" fill="#ffc369"/>
<path d="m339.95 316.23c-1.727 0-3.461-0.535-4.945-1.652l-2.066-1.547c-3.652-2.734-4.395-7.914-1.652-11.563 2.734-3.641 7.922-4.387 11.559-1.648l2.063 1.547c3.652 2.734 4.395 7.914 1.652 11.563-1.617 2.16-4.094 3.301-6.609 3.301z" fill="#ffaa5f"/>
<path d="m383.49 382.81c-3.031 0-5.945-1.672-7.395-4.566l-0.516-1.031c-2.043-4.082-0.387-9.039 3.691-11.082 4.082-2.039 9.043-0.387 11.082 3.695l0.516 1.031c2.039 4.082 0.387 9.039-3.691 11.082-1.188 0.59-2.445 0.871-3.688 0.871z" fill="#ffaa5f"/>
</svg>
