<?xml version="1.0" ?>
<svg height="511.755" viewBox="0 0 511.755 511.755" width="511.755" xmlns="http://www.w3.org/2000/svg">
  <path d="M57.404,476.282L44.921,463.8c-17.17,-17.17 -17.17,-45.259 0,-62.42L394.476,51.825c17.161,-17.17 45.25,-17.17 62.42,0l8.828,8.828c17.161,17.161 14.574,42.664 -2.586,59.833L113.582,470.041C96.413,487.202 74.573,493.452 57.404,476.282" fill="#773F3A"/>
  <path d="M224.467,280.979c-2.26,0 -4.52,-0.865 -6.241,-2.586c-3.452,-3.452 -3.452,-9.031 0,-12.482l49.876,-49.876c3.443,-3.452 9.031,-3.452 12.482,0c3.452,3.452 3.452,9.039 0,12.482l-49.876,49.876C228.987,280.114 226.727,280.979 224.467,280.979" fill="#965E5E"/>
  <path d="M350.781,204.216c-2.26,0 -4.52,-0.865 -6.241,-2.586c-3.452,-3.452 -3.452,-9.031 0,-12.482l31.206,-31.206c3.452,-3.452 9.039,-3.452 12.482,0c3.452,3.443 3.452,9.031 0,12.482l-31.206,31.206C355.301,203.351 353.041,204.216 350.781,204.216" fill="#965E5E"/>
  <path d="M406.958,148.04c-2.26,0 -4.52,-0.865 -6.241,-2.586c-3.452,-3.452 -3.452,-9.031 0,-12.482l12.482,-12.482c3.452,-3.452 9.031,-3.452 12.482,0c3.452,3.452 3.452,9.031 0,12.482l-12.482,12.482C411.478,147.175 409.218,148.04 406.958,148.04" fill="#965E5E"/>
  <path d="M456.894,51.823l8.828,8.828c3.178,3.178 5.455,6.7 7.309,10.337l35.866,-16.305c4.034,-1.827 3.725,-7.654 -0.477,-9.057l-23.093,-7.698c-1.66,-0.556 -3.054,-1.713 -3.911,-3.249l-13.63,-24.541c-5.244,-9.428 -19.465,-6.806 -20.992,3.875l-4.052,28.381C447.89,44.54 452.728,47.647 456.894,51.823" fill="#965E5E"/>
  <path d="M64.938,482.073c-2.578,-1.527 -5.111,-3.372 -7.539,-5.791L44.917,463.8c-4.776,-4.785 -8.086,-10.443 -10.205,-16.455L4.116,464.921c-5.809,2.639 -5.367,11.026 0.68,13.038l17.929,5.976c1.668,0.556 3.063,1.713 3.911,3.24l6.638,11.944c7.495,13.489 27.842,9.737 30.023,-5.544L64.938,482.073z" fill="#965E5E"/>
  <path d="M151.036,391.479c-2.26,0 -4.52,-0.865 -6.241,-2.586c-3.452,-3.452 -3.452,-9.031 0,-12.482l56.179,-56.179c3.443,-3.443 9.031,-3.443 12.482,0c3.443,3.452 3.443,9.039 0,12.482l-56.179,56.179C155.556,390.614 153.296,391.479 151.036,391.479" fill="#965E5E"/>
  <path d="M82.372,410.203c-2.26,0 -4.52,-0.865 -6.241,-2.586c-3.452,-3.452 -3.452,-9.031 0,-12.482l18.723,-18.723c3.452,-3.452 9.039,-3.452 12.482,0c3.452,3.443 3.452,9.031 0,12.482l-18.723,18.723C86.892,409.338 84.632,410.203 82.372,410.203" fill="#965E5E"/>
</svg>
