<?xml version="1.0" encoding="utf-8"?>
<!-- Generator: Adobe Illustrator 24.2.0, SVG Export Plug-In . SVG Version: 6.00 Build 0)  -->
<svg version="1.1" id="Warstwa_2" xmlns="http://www.w3.org/2000/svg" x="0px" y="0px"
	 viewBox="0 0 87.87 87.87" style="enable-background:new 0 0 87.87 87.87;" xml:space="preserve">
<g>
	<g>
		<g>
			<path d="M39.71,77.21l-1.15,8.94c1.8,0.23,3.63,0.35,5.45,0.35c1.88,0,3.77-0.13,5.62-0.37l-1.18-8.94
				C45.58,77.57,42.59,77.58,39.71,77.21z"/>
			<path d="M69.93,10.26c-2.94-2.27-6.18-4.14-9.6-5.56l-3.46,8.33c2.7,1.12,5.24,2.59,7.56,4.38L69.93,10.26z"/>
			<path d="M4.78,60.38c1.43,3.42,3.3,6.64,5.58,9.58l7.13-5.51c-1.79-2.32-3.27-4.86-4.39-7.55L4.78,60.38z"/>
			<path d="M18.22,77.78c2.95,2.26,6.19,4.12,9.62,5.53l3.43-8.34c-2.7-1.11-5.25-2.58-7.57-4.36L18.22,77.78z"/>
			<path d="M56.89,74.92l3.47,8.32c3.42-1.42,6.65-3.3,9.59-5.57l-5.5-7.14C62.12,72.32,59.58,73.8,56.89,74.92z"/>
			<path d="M86.18,38.42l-8.94,1.17c0.19,1.44,0.28,2.92,0.28,4.39c0,1.46-0.1,2.92-0.28,4.36l8.94,1.16
				c0.24-1.82,0.36-3.68,0.36-5.52C86.54,42.12,86.42,40.25,86.18,38.42z"/>
			<path d="M70.62,64.34l7.15,5.49c2.26-2.95,4.13-6.18,5.55-9.61l-8.33-3.45C73.87,59.48,72.4,62.02,70.62,64.34z"/>
			<path d="M83.31,27.7c-1.42-3.42-3.29-6.65-5.55-9.6l-7.15,5.49c1.78,2.32,3.26,4.87,4.38,7.56L83.31,27.7z"/>
			<path d="M10.51,43.98c0-18.47,15.03-33.5,33.5-33.5c1.48,0,2.96,0.1,4.41,0.29l1.17-8.94c-1.84-0.24-3.72-0.36-5.59-0.36
				C20.57,1.46,1.5,20.53,1.5,43.98c0,1.87,0.12,3.75,0.36,5.59l8.94-1.18C10.61,46.93,10.51,45.45,10.51,43.98z"/>
		</g>
	</g>
	<g>
		<g>
			<g>
				<g>
					<path d="M39.89,77.15l-1.15,8.94c1.8,0.23,3.63,0.35,5.45,0.35c1.88,0,3.77-0.13,5.62-0.37l-1.18-8.94
						C45.76,77.52,42.77,77.52,39.89,77.15z"/>
					<path d="M70.11,10.21c-2.94-2.27-6.18-4.14-9.6-5.56l-3.46,8.33c2.7,1.12,5.24,2.59,7.56,4.38L70.11,10.21z"/>
					<path d="M4.96,60.32c1.43,3.42,3.3,6.64,5.58,9.58l7.13-5.51c-1.79-2.32-3.27-4.86-4.39-7.55L4.96,60.32z"/>
					<path d="M18.4,77.72c2.95,2.26,6.19,4.12,9.62,5.53l3.43-8.34c-2.7-1.11-5.25-2.58-7.57-4.36L18.4,77.72z"/>
					<path d="M57.07,74.86l3.47,8.32c3.42-1.42,6.65-3.3,9.59-5.57l-5.5-7.14C62.3,72.27,59.76,73.74,57.07,74.86z"/>
					<path d="M86.36,38.37l-8.94,1.17c0.19,1.44,0.28,2.92,0.28,4.39c0,1.46-0.1,2.92-0.28,4.36l8.94,1.16
						c0.24-1.82,0.36-3.68,0.36-5.52C86.72,42.07,86.6,40.2,86.36,38.37z"/>
					<path d="M70.8,64.29l7.15,5.49c2.26-2.95,4.13-6.18,5.55-9.61l-8.33-3.45C74.06,59.42,72.58,61.97,70.8,64.29z"/>
					<path d="M83.49,27.65c-1.42-3.42-3.29-6.65-5.55-9.6l-7.15,5.49c1.78,2.32,3.26,4.87,4.38,7.56L83.49,27.65z"/>
					<path d="M10.7,43.92c0-18.47,15.03-33.5,33.5-33.5c1.48,0,2.96,0.1,4.41,0.29l1.17-8.94C47.94,1.53,46.07,1.4,44.2,1.4
						C20.75,1.4,1.68,20.48,1.68,43.92c0,1.87,0.12,3.75,0.36,5.59l8.94-1.18C10.79,46.88,10.7,45.4,10.7,43.92z"/>
				</g>
			</g>
		</g>
		<g>
			<rect x="40.21" y="54.83" width="7.11" height="8.03"/>
			<path d="M44.57,24.99c-6.91,0-12.17,3.83-13.79,10.01h6.64c1.38-2.63,3.5-3.8,6.88-3.8c4.68,0,5.92,3.12,5.92,4.96
				c0,3.2-2.89,4.92-10.02,8.79v6.18h7.11v-3.67l0.1-0.05c5.24-2.75,10.18-5.35,10.18-11.72C57.61,29.18,52.49,24.99,44.57,24.99z"
				/>
		</g>
	</g>
</g>
</svg>
