<?xml version="1.0" encoding="utf-8"?>
<!-- Generator: Adobe Illustrator 24.2.0, SVG Export Plug-In . SVG Version: 6.00 Build 0)  -->
<svg version="1.1" id="Warstwa_2" xmlns="http://www.w3.org/2000/svg" x="0px" y="0px"
	 viewBox="0 0 87.87 87.87" style="enable-background:new 0 0 87.87 87.87;" xml:space="preserve">
<g>
	<g>
		<path d="M4.75,60.27c1.43,3.41,3.3,6.63,5.57,9.57l7.12-5.5c-1.79-2.31-3.26-4.85-4.39-7.53L4.75,60.27z"/>
		<path d="M18.17,77.64c2.95,2.25,6.18,4.11,9.6,5.52l3.43-8.32c-2.69-1.11-5.24-2.57-7.56-4.35L18.17,77.64z"/>
		<path d="M43.96,1.24c-23.4,0-42.44,19.04-42.44,42.44c0,1.86,0.12,3.74,0.36,5.58l8.92-1.17c-0.19-1.45-0.29-2.93-0.29-4.4
			c0-18.44,15-33.44,33.44-33.44c18.44,0,33.44,15,33.44,33.44c0,18.44-15,33.44-33.44,33.44c-1.47,0-2.95-0.1-4.4-0.29l-1.17,8.92
			c1.84,0.24,3.71,0.36,5.57,0.36c23.4,0,42.44-19.04,42.44-42.44C86.4,20.28,67.36,1.24,43.96,1.24z"/>
	</g>
	<g>
		<path d="M57.95,51.47c2.46-3.39,3.92-7.54,3.92-12.03c0-11.34-9.22-20.56-20.56-20.56c-11.34,0-20.56,9.22-20.56,20.56
			S29.98,60,41.32,60c4.49,0,8.64-1.47,12.03-3.92l8.3,8.3l4.6-4.6L57.95,51.47z M41.32,55.2c-8.69,0-15.76-7.07-15.76-15.76
			c0-8.69,7.07-15.76,15.76-15.76s15.76,7.07,15.76,15.76C57.08,48.13,50.01,55.2,41.32,55.2z"/>
		<rect x="38.72" y="45.91" width="3.99" height="4.51"/>
		<path d="M41.17,29.16c-3.88,0-6.84,2.15-7.74,5.62h3.73c0.77-1.48,1.97-2.14,3.86-2.14c2.63,0,3.33,1.75,3.33,2.78
			c0,1.8-1.62,2.76-5.62,4.94v3.47h3.99v-2.06l0.06-0.03c2.94-1.55,5.72-3.01,5.72-6.58C48.49,31.51,45.61,29.16,41.17,29.16z"/>
	</g>
</g>
</svg>
