<?xml version="1.0" encoding="utf-8"?>
<!-- Generator: Adobe Illustrator 24.2.0, SVG Export Plug-In . SVG Version: 6.00 Build 0)  -->
<svg version="1.1" id="Warstwa_2" xmlns="http://www.w3.org/2000/svg" x="0px" y="0px"
	 viewBox="0 0 87.87 87.87" style="enable-background:new 0 0 87.87 87.87;" xml:space="preserve">
<g>
	<g>
		<path d="M44.02,1.4C20.57,1.4,1.5,20.47,1.5,43.92c0,23.44,19.07,42.52,42.52,42.52c23.45,0,42.52-19.07,42.52-42.52
			C86.54,20.47,67.46,1.4,44.02,1.4z M44.02,77.42c-18.47,0-33.5-15.03-33.5-33.5c0-18.47,15.03-33.5,33.5-33.5
			c18.47,0,33.5,15.03,33.5,33.5C77.52,62.39,62.49,77.42,44.02,77.42z"/>
	</g>
	<g>
		<g>
			<path d="M44.02,1.7C20.57,1.7,1.5,20.77,1.5,44.21c0,23.44,19.07,42.52,42.52,42.52c23.45,0,42.52-19.07,42.52-42.52
				C86.54,20.77,67.46,1.7,44.02,1.7z M44.02,77.71c-18.47,0-33.5-15.03-33.5-33.5c0-18.47,15.03-33.5,33.5-33.5
				c18.47,0,33.5,15.03,33.5,33.5C77.52,62.68,62.49,77.71,44.02,77.71z"/>
		</g>
	</g>
	<g>
		<path d="M23.16,27.34v29.37l14.06-0.1l6.82,12.58l6.55-12.58l14.29,0.1V27.34H23.16z M60.24,52.04l-12.45-0.09l-3.83,7.35
			l-3.99-7.35L27.8,52.04V31.97h32.44V52.04z"/>
		<path d="M34.73,44.88c1.57,0,2.83-1.27,2.83-2.83c0-1.57-1.27-2.83-2.83-2.83c-1.57,0-2.83,1.27-2.83,2.83
			C31.89,43.61,33.16,44.88,34.73,44.88z"/>
		<path d="M44.02,44.88c1.57,0,2.83-1.27,2.83-2.83c0-1.57-1.27-2.83-2.83-2.83c-1.57,0-2.83,1.27-2.83,2.83
			C41.18,43.61,42.45,44.88,44.02,44.88z"/>
		<path d="M53.31,44.88c1.57,0,2.83-1.27,2.83-2.83c0-1.57-1.27-2.83-2.83-2.83s-2.83,1.27-2.83,2.83
			C50.47,43.61,51.74,44.88,53.31,44.88z"/>
	</g>
</g>
</svg>
