<?xml version="1.0" encoding="utf-8"?>
<!-- Generator: Adobe Illustrator 24.2.0, SVG Export Plug-In . SVG Version: 6.00 Build 0)  -->
<svg version="1.1" id="Warstwa_2" xmlns="http://www.w3.org/2000/svg" x="0px" y="0px"
	 viewBox="0 0 87.87 87.87" style="enable-background:new 0 0 87.87 87.87;" xml:space="preserve">
<g>
	<g>
		<rect x="34.16" y="30.16" width="10.78" height="3.19"/>
		<rect x="34.16" y="36.83" width="10.78" height="3.19"/>
		<path d="M59.97,57.67c3.9-4.9,3.26-12.06-1.53-16.17c-1.36-1.16-2.94-1.97-4.62-2.41V22.02H25.29v34.71h15.7
			c0.61,0.95,1.36,1.81,2.24,2.56c2.14,1.83,4.8,2.81,7.59,2.81c0.31,0,0.62-0.01,0.93-0.04c1.53-0.12,2.98-0.53,4.31-1.19
			l5.87,5.87l3.55-3.55L59.97,57.67z M41.95,42.79c-0.2,0.23-0.38,0.48-0.56,0.72h-7.22v3.19h5.56c-0.49,1.46-0.68,3.02-0.56,4.6
			c0.01,0.14,0.04,0.28,0.05,0.42h-8.94V27.02h18.53v11.86C46.14,39.34,43.73,40.7,41.95,42.79z M56.16,54.95
			c-2.52,2.94-6.94,3.29-9.88,0.77c-2.94-2.52-3.28-6.94-0.77-9.88c2.52-2.94,6.94-3.29,9.88-0.77
			C58.33,47.59,58.67,52.01,56.16,54.95z"/>
	</g>
	<g>
		<g>
			<path d="M44.02,1.4C20.57,1.4,1.5,20.47,1.5,43.92c0,23.44,19.07,42.52,42.52,42.52c23.45,0,42.52-19.07,42.52-42.52
				C86.54,20.47,67.46,1.4,44.02,1.4z M44.02,77.42c-18.47,0-33.5-15.03-33.5-33.5c0-18.47,15.03-33.5,33.5-33.5
				c18.47,0,33.5,15.03,33.5,33.5C77.52,62.39,62.49,77.42,44.02,77.42z"/>
		</g>
	</g>
</g>
</svg>
