<svg xmlns="http://www.w3.org/2000/svg" viewBox="0 0 90.709 90.709"><path d="M45.354 88.874c-23.997 0-43.52-19.522-43.52-43.52s19.522-43.52 43.52-43.52 43.521 19.522 43.521 43.52-19.524 43.52-43.521 43.52z" fill="#194093"/><path d="M45.354 2.835c23.483 0 42.52 19.037 42.52 42.52s-19.037 42.52-42.52 42.52-42.52-19.037-42.52-42.52 19.037-42.52 42.52-42.52m0-2C20.806.835.834 20.807.834 45.355s19.971 44.52 44.52 44.52 44.52-19.972 44.52-44.52S69.902.835 45.354.835h0z" fill="#252e78"/><path d="M78.719 58.622L50.548 9.828a5.9 5.9 0 0 0-5.162-2.98 5.9 5.9 0 0 0-5.162 2.98L12.052 58.622a5.9 5.9 0 0 0 0 5.96 5.9 5.9 0 0 0 5.162 2.98h56.343a5.9 5.9 0 0 0 5.162-2.98c1.078-1.866 1.077-4.095 0-5.96zm-29.392.785h-7.945v-7.543h7.945v7.543zm-.252-11.112h-7.442l-.805-24.84h9.051l-.804 24.84z" fill="#fff"/><path d="M75.385 60.547L47.214 11.752c-.55-.952-1.461-1.055-1.828-1.055s-1.278.103-1.828 1.055L15.386 60.546c-.55.953-.184 1.794 0 2.111s.728 1.056 1.828 1.056h56.343c1.101 0 1.646-.738 1.829-1.056s.549-1.158-.001-2.11zm-26.058-1.14h-7.945v-7.543h7.945v7.543zm-.252-11.112h-7.442l-.805-24.84h9.051l-.804 24.84z" fill="#f8c409"/></svg>