<?xml version="1.0" encoding="iso-8859-1"?>
<!-- Generator: Adobe Illustrator 22.1.0, SVG Export Plug-In . SVG Version: 6.00 Build 0)  -->
<svg version="1.1" xmlns="http://www.w3.org/2000/svg" xmlns:xlink="http://www.w3.org/1999/xlink" x="0px" y="0px"
	 viewBox="0 0 90.709 90.709" style="enable-background:new 0 0 90.709 90.709;" xml:space="preserve">
<g id="ratownik-1">
	<g>
		<g>
			<path style="fill:#194093;" d="M45.354,88.874c-23.997,0-43.52-19.522-43.52-43.52c0-23.997,19.522-43.52,43.52-43.52
				c23.997,0,43.521,19.522,43.521,43.52C88.874,69.352,69.351,88.874,45.354,88.874z"/>
			<g>
				<path style="fill:#252E78;" d="M45.354,2.835c23.483,0,42.52,19.037,42.52,42.52c0,23.483-19.037,42.52-42.52,42.52
					c-23.483,0-42.52-19.037-42.52-42.52C2.835,21.871,21.871,2.835,45.354,2.835 M45.354,0.835c-24.548,0-44.52,19.972-44.52,44.52
					s19.971,44.52,44.52,44.52s44.52-19.972,44.52-44.52S69.902,0.835,45.354,0.835L45.354,0.835z"/>
			</g>
		</g>
	</g>
</g>
<g id="Warstwa_4">
	<path style="fill:#FFFFFF;" d="M78.719,58.622L50.548,9.828c-1.078-1.866-3.007-2.98-5.162-2.98s-4.084,1.114-5.162,2.98
		L12.052,58.622c-1.077,1.866-1.077,4.094,0,5.96c1.077,1.866,3.007,2.98,5.162,2.98h56.343c2.155,0,4.085-1.114,5.162-2.98
		C79.797,62.716,79.796,60.487,78.719,58.622z M49.327,59.407h-7.945v-7.543h7.945V59.407z M49.075,48.295h-7.442l-0.805-24.84
		h9.051L49.075,48.295z"/>
	<path style="fill:#F8C409;" d="M75.385,60.547L47.214,11.752c-0.55-0.952-1.461-1.055-1.828-1.055s-1.278,0.103-1.828,1.055
		L15.386,60.546c-0.55,0.953-0.184,1.794,0,2.111c0.183,0.317,0.728,1.056,1.828,1.056h56.343c1.101,0,1.646-0.738,1.829-1.056
		S75.935,61.499,75.385,60.547z M49.327,59.407h-7.945v-7.543h7.945V59.407z M49.075,48.295h-7.442l-0.805-24.84h9.051
		L49.075,48.295z"/>
</g>
</svg>
