<?xml version="1.0" encoding="iso-8859-1"?>
<!-- Generator: Adobe Illustrator 22.1.0, SVG Export Plug-In . SVG Version: 6.00 Build 0)  -->
<svg version="1.1" xmlns="http://www.w3.org/2000/svg" xmlns:xlink="http://www.w3.org/1999/xlink" x="0px" y="0px"
	 viewBox="0 0 90.709 90.709" style="enable-background:new 0 0 90.709 90.709;" xml:space="preserve">
<g id="ratownik-1">
	<g>
		<g>
			
				<ellipse transform="matrix(0.7071 -0.7071 0.7071 0.7071 -18.7867 45.3541)" style="fill:#194093;" cx="45.354" cy="45.355" rx="43.52" ry="43.52"/>
			<g>
				<path style="fill:#252E78;" d="M45.354,2.835c23.483,0,42.52,19.037,42.52,42.52c0,23.483-19.037,42.52-42.52,42.52
					c-23.483,0-42.52-19.037-42.52-42.52C2.835,21.871,21.871,2.835,45.354,2.835 M45.354,0.835c-24.548,0-44.52,19.972-44.52,44.52
					s19.972,44.52,44.52,44.52s44.52-19.972,44.52-44.52S69.902,0.835,45.354,0.835L45.354,0.835z"/>
			</g>
		</g>
	</g>
</g>
<g id="Warstwa_4">
	<g>
		<path style="fill:#F8C409;" d="M45.354,25.169c-3.206,0-6.454-0.12-9.651-0.356l-12.406-0.917V45.95
			c0,12.728,7.022,24.268,18.327,30.117l3.73,1.93l3.73-1.93c11.304-5.849,18.327-17.389,18.327-30.117V23.896l-12.406,0.917
			C51.808,25.049,48.561,25.169,45.354,25.169z M57.19,38.111c-0.87,1.198-2.377,1.655-3.719,1.251l-1.207,1.661
			c1.039,0.944,1.884,2.092,2.468,3.388l2.306-0.749c0.121-0.916,0.744-1.728,1.681-2.032c1.3-0.422,2.696,0.289,3.118,1.589
			s-0.289,2.696-1.589,3.118c-0.894,0.29-1.826,0.036-2.463-0.569l-2.357,0.766c0.14,0.678,0.215,1.379,0.215,2.099
			c0,0.719-0.075,1.421-0.215,2.099l1.941,0.631c0.848-1.115,2.336-1.631,3.744-1.174c1.781,0.579,2.756,2.492,2.177,4.273
			c-0.579,1.781-2.492,2.756-4.273,2.177c-1.408-0.458-2.309-1.75-2.339-3.151l-1.948-0.633c-0.584,1.296-1.429,2.445-2.468,3.388
			l1.397,1.923c0.901-0.157,1.854,0.184,2.428,0.974c0.803,1.106,0.558,2.653-0.547,3.456s-2.653,0.558-3.456-0.547
			c-0.558-0.767-0.599-1.743-0.21-2.54l-1.416-1.949c-1.2,0.688-2.547,1.145-3.988,1.301v2.044c1.323,0.462,2.274,1.718,2.274,3.198
			c0,1.873-1.518,3.391-3.391,3.391s-3.391-1.518-3.391-3.391c0-1.481,0.951-2.736,2.274-3.198V58.86
			c-1.441-0.156-2.788-0.613-3.988-1.301l-1.416,1.949c0.39,0.797,0.348,1.772-0.21,2.54c-0.803,1.106-2.351,1.351-3.456,0.547
			c-1.106-0.803-1.351-2.351-0.547-3.456c0.574-0.79,1.527-1.131,2.428-0.974l1.397-1.923c-1.039-0.944-1.884-2.092-2.468-3.388
			l-1.948,0.633c-0.031,1.401-0.931,2.693-2.339,3.151c-1.781,0.579-3.694-0.396-4.273-2.177c-0.579-1.781,0.396-3.694,2.177-4.273
			c1.408-0.458,2.896,0.058,3.744,1.174l1.941-0.631c-0.14-0.678-0.215-1.379-0.215-2.099c0-0.719,0.075-1.421,0.215-2.099
			l-2.357-0.766c-0.637,0.604-1.569,0.859-2.463,0.569c-1.3-0.422-2.011-1.818-1.589-3.118s1.818-2.011,3.118-1.589
			c0.937,0.304,1.56,1.117,1.681,2.032l2.306,0.749c0.584-1.296,1.429-2.445,2.468-3.388l-1.207-1.661
			c-1.342,0.404-2.849-0.053-3.719-1.251c-1.101-1.515-0.765-3.635,0.75-4.736c1.515-1.101,3.635-0.765,4.736,0.75
			c0.87,1.198,0.839,2.772,0.041,3.924l1.204,1.657c1.2-0.688,2.547-1.145,3.988-1.3v-2.491c-0.802-0.409-1.358-1.234-1.358-2.197
			c0-1.367,1.108-2.475,2.475-2.475s2.475,1.108,2.475,2.475c0,0.963-0.555,1.788-1.358,2.197v2.492
			c1.441,0.156,2.788,0.613,3.988,1.3l1.204-1.657c-0.799-1.151-0.83-2.726,0.041-3.924c1.101-1.515,3.221-1.851,4.736-0.75
			C57.955,34.475,58.291,36.596,57.19,38.111z"/>
		<path style="fill:#FFFFFF;" d="M54.637,19.826c-3.09,0.228-6.186,0.343-9.283,0.343c-3.096,0-6.193-0.114-9.283-0.343
			l-17.774-1.314V45.95c0,14.544,8.111,27.874,21.029,34.558l6.028,3.119l6.028-3.119C64.3,73.824,72.411,60.494,72.411,45.95
			V18.513L54.637,19.826z M67.411,45.95c0,12.728-7.022,24.268-18.327,30.117l-3.73,1.93l-3.73-1.93
			C30.32,70.218,23.297,58.677,23.297,45.95V23.896l12.406,0.917c3.198,0.236,6.445,0.356,9.651,0.356s6.454-0.12,9.651-0.356
			l12.406-0.917V45.95z"/>
		<path style="fill:#FFFFFF;" d="M48.858,47.134c-1.619,0.526-2.506,2.266-1.979,3.885c0.526,1.619,2.265,2.506,3.885,1.979
			s2.506-2.266,1.979-3.885C52.217,47.494,50.477,46.608,48.858,47.134z"/>
		<path style="fill:#FFFFFF;" d="M43.097,50.284c1.901-0.618,2.942-2.66,2.324-4.562c-0.618-1.901-2.66-2.942-4.562-2.324
			c-1.901,0.618-2.942,2.66-2.324,4.562C39.153,49.861,41.195,50.902,43.097,50.284z"/>
		<path style="fill:#FFFFFF;" d="M42.726,51.735c-1.4,0.455-2.166,1.958-1.711,3.358c0.455,1.4,1.958,2.166,3.358,1.711
			c1.4-0.455,2.166-1.958,1.711-3.358C45.629,52.046,44.126,51.28,42.726,51.735z"/>
	</g>
</g>
</svg>
