<svg xmlns="http://www.w3.org/2000/svg" viewBox="0 0 90.709 90.709"><circle transform="matrix(.7071 -.7071 .7071 .7071 -18.7867 45.3541)" cx="45.354" cy="45.355" r="43.52" fill="#194093"/><path d="M45.354 2.835c23.483 0 42.52 19.037 42.52 42.52s-19.037 42.52-42.52 42.52-42.52-19.037-42.52-42.52 19.037-42.52 42.52-42.52m0-2C20.806.835.834 20.807.834 45.355s19.972 44.52 44.52 44.52 44.52-19.972 44.52-44.52S69.902.835 45.354.835h0z" fill="#252e78"/><path d="M45.354 25.169c-3.206 0-6.454-.12-9.651-.356l-12.406-.917V45.95c0 12.728 7.022 24.268 18.327 30.117l3.73 1.93 3.73-1.93A33.79 33.79 0 0 0 67.411 45.95V23.896l-12.406.917c-3.197.236-6.444.356-9.651.356zM57.19 38.111c-.87 1.198-2.377 1.655-3.719 1.251l-1.207 1.661c1.039.944 1.884 2.092 2.468 3.388l2.306-.749c.121-.916.744-1.728 1.681-2.032 1.3-.422 2.696.289 3.118 1.589s-.289 2.696-1.589 3.118c-.894.29-1.826.036-2.463-.569l-2.357.766c.14.678.215 1.379.215 2.099a10.37 10.37 0 0 1-.215 2.099l1.941.631a3.39 3.39 0 0 1 5.921 3.099 3.39 3.39 0 0 1-6.612-.974l-1.948-.633c-.584 1.296-1.429 2.445-2.468 3.388l1.397 1.923c.901-.157 1.854.184 2.428.974.803 1.106.558 2.653-.547 3.456s-2.653.558-3.456-.547c-.558-.767-.599-1.743-.21-2.54l-1.416-1.949a10.21 10.21 0 0 1-3.988 1.301v2.044a3.39 3.39 0 0 1-1.117 6.589 3.39 3.39 0 0 1-1.117-6.589V58.86a10.21 10.21 0 0 1-3.988-1.301l-1.416 1.949c.39.797.348 1.772-.21 2.54-.803 1.106-2.351 1.351-3.456.547s-1.351-2.351-.547-3.456c.574-.79 1.527-1.131 2.428-.974l1.397-1.923c-1.039-.944-1.884-2.092-2.468-3.388l-1.948.633a3.39 3.39 0 0 1-6.612.974 3.39 3.39 0 0 1 2.177-4.273c1.408-.458 2.896.058 3.744 1.174l1.941-.631c-.14-.678-.215-1.379-.215-2.099a10.37 10.37 0 0 1 .215-2.099l-2.357-.766c-.637.604-1.569.859-2.463.569-1.3-.422-2.011-1.818-1.589-3.118s1.818-2.011 3.118-1.589c.937.304 1.56 1.117 1.681 2.032l2.306.749c.584-1.296 1.429-2.445 2.468-3.388l-1.207-1.661c-1.342.404-2.849-.053-3.719-1.251a3.39 3.39 0 1 1 5.486-3.986 3.39 3.39 0 0 1 .041 3.924l1.204 1.657c1.2-.688 2.547-1.145 3.988-1.3v-2.491c-.802-.409-1.358-1.234-1.358-2.197 0-1.367 1.108-2.475 2.475-2.475s2.475 1.108 2.475 2.475c0 .963-.555 1.788-1.358 2.197v2.492c1.441.156 2.788.613 3.988 1.3l1.204-1.657c-.799-1.151-.83-2.726.041-3.924a3.39 3.39 0 1 1 5.488 3.986z" fill="#f8c409"/><path d="M54.637 19.826l-9.283.343c-3.096 0-6.193-.114-9.283-.343l-17.774-1.314V45.95a38.91 38.91 0 0 0 21.029 34.558l6.028 3.119 6.028-3.119A38.91 38.91 0 0 0 72.411 45.95V18.513l-17.774 1.313zM67.411 45.95c0 12.728-7.022 24.268-18.327 30.117l-3.73 1.93-3.73-1.93A33.79 33.79 0 0 1 23.297 45.95V23.896l12.406.917c3.198.236 6.445.356 9.651.356s6.454-.12 9.651-.356l12.406-.917V45.95zm-18.553 1.184c-1.619.526-2.506 2.266-1.979 3.885s2.265 2.506 3.885 1.979 2.506-2.266 1.979-3.885-2.266-2.505-3.885-1.979zm-5.761 3.15a3.62 3.62 0 1 0-2.238-6.886 3.62 3.62 0 0 0 2.238 6.886zm-.371 1.451c-1.4.455-2.166 1.958-1.711 3.358s1.958 2.166 3.358 1.711 2.166-1.958 1.711-3.358-1.958-2.166-3.358-1.711z" fill="#fff"/></svg>