<svg xmlns="http://www.w3.org/2000/svg" viewBox="0 0 177.94 180.23"><circle cx="89" cy="90.11" r="85.55" transform="matrix(.525769 -.850628 .850628 .525769 -34.45 118.44)" fill="#194093"/><path d="M89,7.06A83.06,83.06,0,1,1,5.94,90.11,83.05,83.05,0,0,1,89,7.06m0-5a88.06,88.06,0,1,0,88.05,88.05A88.15,88.15,0,0,0,89,2.06Z" fill="#0083ac"/><g fill-rule="evenodd"><path d="M137.29 94.62C135.45 70.15 112.8 54.09 89 67.81c-23.81-13.72-46.49 2.34-48.3 26.81-2.94 39.9 29.49 67 45.23 55.84a5.27 5.27 0 0 1 6.13 0c15.76 11.13 48.2-16.46 45.23-55.84z" fill="#fff"/><path d="M89 75.65c7.52-.08 13.61-9.21 13.61-6.24 0 5.61-6.81 9.44-13.61 9.46s-13.62-3.79-13.62-9.46c0-2.97 1.88 6.36 13.62 6.24z" fill="#194093"/><path d="M88.43 75.32a4 4 0 0 1-3.77-2.55 1.55 1.55 0 0 1-.08-.23c-.17-.71-4.24-17.57-.82-25.2a1.69 1.69 0 0 1 1.54-1h.06c4.87.19 5.69 1.16 6 1.52a2 2 0 0 1 .46 1.55c-.69 5.32-1.62 15.3 0 22.36v.14a2.81 2.81 0 0 1-.68 2.26 3.54 3.54 0 0 1-2.71 1.15z" fill="#f8c409"/></g><path d="M85.3,48s5,.19,4.85,1.16c-.89,6.8-1.54,16.13,0,23,.12.91-.74,1.49-1.71,1.49a2.36,2.36,0,0,1-2.21-1.49c-.87-3.58-3.75-17.78-.92-24.11m0-3.38a3.37,3.37,0,0,0-3.08,2c-3.59,8,.27,24.44.72,26.29a3.68,3.68,0,0,0,.15.47A5.74,5.74,0,0,0,88.43,77a5.2,5.2,0,0,0,4-1.72,4.46,4.46,0,0,0,1.08-3.59,2.93,2.93,0,0,0,0-.29c-1.13-5-1.11-12.77.07-21.77a3.73,3.73,0,0,0-.85-2.86c-.53-.62-1.61-1.9-7.22-2.11Z" fill="#194093"/><path d="M72.3,64.52a19,19,0,0,1-15.38-8.47c-2.91-4.16-7-13.24-1.82-27.38a1.68,1.68,0,0,1,1.24-1.07,1.32,1.32,0,0,1,.34,0,1.7,1.7,0,0,1,1.22.52,31.21,31.21,0,0,0,14.49,8.81c7.8,2.57,11.45,4.66,9.33,23.84A1.67,1.67,0,0,1,81,62a16,16,0,0,1-8.66,2.55Z" fill-rule="evenodd" fill="#f8c409"/><path d="M56.68,29.25C72.35,45.67,83.35,30.63,80,60.55a14.21,14.21,0,0,1-7.74,2.28c-11.38,0-23.1-13.15-15.62-33.58m0-3.38A3.25,3.25,0,0,0,56,26a3.35,3.35,0,0,0-2.48,2.14C48.07,43,52.44,52.59,55.53,57A20.71,20.71,0,0,0,72.3,66.2a17.59,17.59,0,0,0,9.58-2.82,3.36,3.36,0,0,0,1.52-2.46c1.08-9.81.76-15.34-1.13-19.09-2.09-4.15-5.78-5.37-9.35-6.55a29.33,29.33,0,0,1-13.8-8.36,3.38,3.38,0,0,0-2.44-1.05Z" fill="#194093"/></svg>