<svg xmlns="http://www.w3.org/2000/svg" viewBox="0 0 90.709 90.709"><path d="M45.354 88.874c-23.997 0-43.52-19.522-43.52-43.52s19.522-43.52 43.52-43.52 43.521 19.522 43.521 43.52-19.524 43.52-43.521 43.52z" fill="#194093"/><path d="M45.354 2.835c23.483 0 42.52 19.037 42.52 42.52s-19.037 42.52-42.52 42.52-42.52-19.037-42.52-42.52 19.037-42.52 42.52-42.52m0-2C20.806.835.834 20.806.834 45.355s19.971 44.52 44.52 44.52 44.52-19.971 44.52-44.52S69.903.835 45.354.835h0z" fill="#252e78"/><path d="M81.868 33.875c-1.973-6.283-5.529-11.861-10.192-16.284l-4.64 3.183c-.008.006-.018.009-.029.009l-7.379.052c-2.777-.341-7.631-1.104-11.001-2.547-.062-.036-7.336-4.298-10.95-7.204-.846-.68-2.09-.379-2.585.587-1.12 2.184-1.77 5.746.544 9.119 2.44 3.556 5.442 4.444 6.435 4.648 1.888.181 3.633.878 5.198 2.089 1.761 1.362 2.934 3.097 3.624 4.358.69-1.261 1.863-2.996 3.624-4.358 1.837-1.421 3.921-2.141 6.194-2.141 6.343 0 11.127 5.189 11.127 12.069 0 7.433-5.968 12.519-15.002 20.217l-5.943 4.931-8.382 8.961c-1.134 1.213-1.326 3.138-.239 4.393 1.22 1.408 3.342 1.455 4.627.168l15.97-16c3.336-1.941 12.094-7.577 13.933-14.34 1.725-6.343 1.656-9.248 1.644-9.538-.001-.018.008-.03.022-.04l3.4-2.332zM16.323 47.867c-1.75.763-2.606 2.756-1.95 4.551a3.6 3.6 0 0 0 .414.805 3.61 3.61 0 0 0 3.956 1.429l14.939-7.673c-1.92-2.423-3.162-4.851-3.57-7.552l-13.789 8.44zm27.007 8.422L29.851 68.593c-1.368 1.32-1.57 3.517-.318 4.947a3.52 3.52 0 0 0 5.006.299l14.714-12.588-4.302-3.579-1.621-1.383zm-7.76-7.138l-17.5 13.558c-1.43 1.463-1.491 3.777-.139 5.312a3.9 3.9 0 0 0 5.488.356l18.327-13.45-6.176-5.776z" fill="#fff"/><path d="M71.839 37.454c0-6.88-4.784-12.069-11.127-12.069-2.273 0-4.357.72-6.194 2.141-1.761 1.362-2.934 3.097-3.624 4.358-.69-1.261-1.863-2.996-3.624-4.358-1.565-1.21-3.311-1.907-5.198-2.089a10.23 10.23 0 0 0-.996-.052c-6.343 0-11.127 5.189-11.127 12.069 0 .678.066 1.331.163 1.974.408 2.701 1.65 5.128 3.57 7.552a33.83 33.83 0 0 0 1.887 2.172c1.732 1.839 3.807 3.724 6.176 5.775l1.584 1.363 1.621 1.383 4.302 3.579 1.64 1.351h0l5.943-4.931c9.036-7.699 15.004-12.785 15.004-20.218z" fill="#f8c409"/></svg>