<?xml version="1.0" encoding="iso-8859-1"?>
<!-- Generator: Adobe Illustrator 22.1.0, SVG Export Plug-In . SVG Version: 6.00 Build 0)  -->
<svg version="1.1" xmlns="http://www.w3.org/2000/svg" xmlns:xlink="http://www.w3.org/1999/xlink" x="0px" y="0px"
	 viewBox="0 0 90.709 90.709" style="enable-background:new 0 0 90.709 90.709;" xml:space="preserve">
<g id="ratownik-1">
	<g>
		<g>
			<path style="fill:#194093;" d="M45.354,88.874c-23.997,0-43.52-19.522-43.52-43.52s19.522-43.52,43.52-43.52
				s43.521,19.522,43.521,43.52S69.351,88.874,45.354,88.874z"/>
			<g>
				<path style="fill:#252E78;" d="M45.354,2.835c23.483,0,42.52,19.037,42.52,42.52s-19.037,42.52-42.52,42.52
					c-23.483,0-42.52-19.037-42.52-42.52S21.871,2.835,45.354,2.835 M45.354,0.835c-24.548,0-44.52,19.971-44.52,44.52
					s19.971,44.52,44.52,44.52s44.52-19.971,44.52-44.52S69.903,0.835,45.354,0.835L45.354,0.835z"/>
			</g>
		</g>
	</g>
</g>
<g id="Warstwa_4">
	<g>
		<path style="fill:#FFFFFF;" d="M81.868,33.875c-1.973-6.283-5.529-11.861-10.192-16.284l-4.64,3.183
			c-0.008,0.006-0.018,0.009-0.029,0.009l-7.379,0.052c-0.002,0-0.004,0-0.007,0c-2.77-0.341-7.624-1.104-10.994-2.547
			c-0.003-0.001-0.002,0-0.004-0.002c-0.058-0.034-7.332-4.296-10.946-7.202c-0.846-0.68-2.09-0.379-2.585,0.587
			c-1.12,2.184-1.77,5.746,0.544,9.119c2.44,3.556,5.442,4.444,6.435,4.648c1.888,0.181,3.633,0.878,5.198,2.089
			c1.761,1.362,2.934,3.097,3.624,4.358c0.69-1.261,1.863-2.996,3.624-4.358c1.837-1.421,3.921-2.141,6.194-2.141
			c6.343,0,11.127,5.189,11.127,12.069c0,7.433-5.968,12.519-15.002,20.217c-1.535,1.308-5.943,4.93-5.943,4.931l-8.382,8.961
			c-1.134,1.213-1.326,3.138-0.239,4.393c1.22,1.408,3.342,1.455,4.627,0.168l15.97-16c0.003-0.003,0.006-0.005,0.01-0.008
			c3.326-1.933,12.084-7.569,13.923-14.332c1.725-6.343,1.656-9.248,1.644-9.538c-0.001-0.018,0.008-0.03,0.022-0.04L81.868,33.875z
			"/>
		<path style="fill:#FFFFFF;" d="M16.323,47.867c-1.75,0.763-2.606,2.756-1.95,4.551c0.106,0.292,0.247,0.561,0.414,0.805
			c0.857,1.249,2.436,1.858,3.956,1.429l14.939-7.673c-1.92-2.423-3.162-4.851-3.57-7.552
			C23.216,43.696,16.323,47.867,16.323,47.867z"/>
		<path style="fill:#FFFFFF;" d="M43.33,56.289L29.851,68.593c-1.368,1.32-1.57,3.517-0.318,4.947
			c1.301,1.486,3.555,1.61,5.006,0.299l14.714-12.588c-1.418-1.17-3.379-2.792-4.302-3.579
			C44.399,57.201,43.859,56.741,43.33,56.289z"/>
		<path style="fill:#FFFFFF;" d="M35.57,49.151l-17.5,13.558c-1.43,1.463-1.491,3.777-0.139,5.312
			c1.419,1.609,3.873,1.768,5.488,0.356l18.327-13.45C39.377,52.874,37.302,50.989,35.57,49.151z"/>
		<path style="fill:#F8C409;" d="M71.839,37.454c0-6.88-4.784-12.069-11.127-12.069c-2.273,0-4.357,0.72-6.194,2.141
			c-1.761,1.362-2.934,3.097-3.624,4.358c-0.69-1.261-1.863-2.996-3.624-4.358c-1.565-1.21-3.311-1.907-5.198-2.089
			c-0.328-0.032-0.659-0.052-0.996-0.052c-6.343,0-11.127,5.189-11.127,12.069c0,0.678,0.066,1.331,0.163,1.974
			c0.408,2.701,1.65,5.128,3.57,7.552c0.571,0.721,1.201,1.443,1.887,2.172c1.732,1.839,3.807,3.724,6.176,5.775
			c0.515,0.446,1.043,0.9,1.584,1.363c0.529,0.452,1.069,0.913,1.621,1.383c0.924,0.787,2.884,2.409,4.302,3.579
			c0.938,0.773,1.64,1.351,1.64,1.351l0,0c0,0,4.408-3.623,5.943-4.931C65.871,49.973,71.839,44.887,71.839,37.454z"/>
	</g>
</g>
</svg>
