<svg xmlns="http://www.w3.org/2000/svg" viewBox="0 0 177.94 180.23"><circle cx="89" cy="90.11" r="85.55" fill="#194093"/><path d="M89,7.06A83.06,83.06,0,1,1,5.94,90.11,83.05,83.05,0,0,1,89,7.06m0-5a88.06,88.06,0,1,0,88.05,88.05A88.15,88.15,0,0,0,89,2.06Z" fill="#0083ac"/><path d="M111.38,31.83v35.9h36.15V112.5H111.38v36.07H66.61V112.5H30.15V67.73H66.61V31.83h44.77m0-3.38H66.61a3.37,3.37,0,0,0-3.37,3.38V64.36H30.15a3.37,3.37,0,0,0-3.38,3.37V112.5a3.37,3.37,0,0,0,3.38,3.37H63.24v32.7a3.37,3.37,0,0,0,3.37,3.37h44.77a3.38,3.38,0,0,0,3.38-3.37v-32.7h32.77a3.37,3.37,0,0,0,3.37-3.37V67.73a3.37,3.37,0,0,0-3.37-3.37H114.76V31.83a3.38,3.38,0,0,0-3.38-3.38Z" fill="#f8c409"/><path d="M141.96 73.34h-36.19V37.16H72.22v36.18H36.04v33.55h36.18v36.18h33.55v-36.18h36.19V73.34z" fill="#fff"/></svg>