<svg id="ratownik-1" xmlns="http://www.w3.org/2000/svg" viewBox="0 0 177.94 180.23"><defs><style>.cls-1{fill:#194093;}.cls-2{fill:#0083ac;}.cls-3{fill:#f8c409;}.cls-4{fill:#fff;}</style></defs><title>sprawnosci-h-kolka</title><circle class="cls-1" cx="89" cy="90.11" r="85.55"/><path class="cls-2" d="M89,7.06A83.06,83.06,0,1,1,5.94,90.11,83.05,83.05,0,0,1,89,7.06m0-5a88.06,88.06,0,1,0,88.05,88.05A88.15,88.15,0,0,0,89,2.06Z"/><path class="cls-3" d="M111.38,31.83v35.9h36.15V112.5H111.38v36.07H66.61V112.5H30.15V67.73H66.61V31.83h44.77m0-3.38H66.61a3.37,3.37,0,0,0-3.37,3.38V64.36H30.15a3.37,3.37,0,0,0-3.38,3.37V112.5a3.37,3.37,0,0,0,3.38,3.37H63.24v32.7a3.37,3.37,0,0,0,3.37,3.37h44.77a3.38,3.38,0,0,0,3.38-3.37v-32.7h32.77a3.37,3.37,0,0,0,3.37-3.37V67.73a3.37,3.37,0,0,0-3.37-3.37H114.76V31.83a3.38,3.38,0,0,0-3.38-3.38Z"/><polygon class="cls-4" points="141.96 73.34 105.77 73.34 105.77 37.16 72.22 37.16 72.22 73.34 36.04 73.34 36.04 106.89 72.22 106.89 72.22 143.07 105.77 143.07 105.77 106.89 141.96 106.89 141.96 73.34"/></svg>