<?xml version="1.0" encoding="iso-8859-1"?>
<!-- Generator: Adobe Illustrator 22.1.0, SVG Export Plug-In . SVG Version: 6.00 Build 0)  -->
<svg version="1.1" xmlns="http://www.w3.org/2000/svg" xmlns:xlink="http://www.w3.org/1999/xlink" x="0px" y="0px"
	 viewBox="0 0 90.709 90.709" style="enable-background:new 0 0 90.709 90.709;" xml:space="preserve">
<g id="ratownik-1">
	<g>
		<g>
			<path style="fill:#194093;" d="M45.354,88.874c-23.997,0-43.52-19.522-43.52-43.52S21.357,1.834,45.354,1.834
				s43.52,19.523,43.52,43.521S69.351,88.874,45.354,88.874z"/>
			<g>
				<path style="fill:#252E78;" d="M45.354,2.835c23.483,0,42.52,19.037,42.52,42.52s-19.037,42.52-42.52,42.52
					s-42.52-19.037-42.52-42.52S21.871,2.835,45.354,2.835 M45.354,0.835c-24.548,0-44.52,19.971-44.52,44.52
					s19.971,44.52,44.52,44.52s44.52-19.971,44.52-44.52S69.903,0.835,45.354,0.835L45.354,0.835z"/>
			</g>
		</g>
	</g>
</g>
<g id="Warstwa_4">
	<g>
		<g>
			
				<rect x="22.84" y="54.363" transform="matrix(0.7071 0.7071 -0.7071 0.7071 50.6954 -1.303)" style="fill:#FFFFFF;" width="8.161" height="12.36"/>
		</g>
		<path style="fill:#F8C409;" d="M72.01,23.039c-2.385-2.385-5.556-3.699-8.929-3.699c-3.372,0-6.543,1.314-8.928,3.699
			c-4.191,4.191-4.8,10.612-1.856,15.468L23.901,66.905c-1.172,1.171-1.172,3.071,0,4.242c0.586,0.586,1.354,0.879,2.121,0.879
			s1.535-0.293,2.121-0.879L56.54,42.75c2.004,1.215,4.27,1.836,6.542,1.836c3.233,0,6.467-1.231,8.928-3.692
			C76.932,35.971,76.932,27.962,72.01,23.039z M67.767,36.652c-2.474,2.473-6.432,2.571-9.033,0.305
			c-0.09-0.122-0.179-0.244-0.289-0.354c-0.111-0.111-0.233-0.2-0.355-0.29c-2.266-2.6-2.168-6.557,0.306-9.031
			c1.252-1.252,2.916-1.941,4.686-1.941c1.771,0,3.434,0.689,4.686,1.941C70.35,29.865,70.35,34.069,67.767,36.652z"/>
		<polygon style="fill:#F8C409;" points="25.119,47.637 22.998,49.758 26.201,52.961 24.079,55.082 20.877,51.88 18.755,54.001 
			21.437,56.683 19.316,58.804 16.634,56.122 14.014,58.742 20.419,65.147 31.524,54.042 		"/>
		<g>
			<path style="fill:#FFFFFF;" d="M52.202,50.364c-0.768,0-1.535-0.293-2.121-0.879l-4.562-4.562c-1.172-1.171-1.172-3.071,0-4.242
				c1.172-1.172,3.07-1.172,4.242,0l4.562,4.562c1.172,1.171,1.172,3.071,0,4.242C53.737,50.071,52.969,50.364,52.202,50.364z"/>
		</g>
	</g>
</g>
</svg>
