<svg xmlns="http://www.w3.org/2000/svg" viewBox="0 0 90.709 90.709"><path d="M45.354 88.874c-23.997 0-43.52-19.522-43.52-43.52s19.523-43.52 43.52-43.52 43.52 19.523 43.52 43.521-19.523 43.519-43.52 43.519z" fill="#194093"/><path d="M45.354 2.835c23.483 0 42.52 19.037 42.52 42.52s-19.037 42.52-42.52 42.52-42.52-19.037-42.52-42.52 19.037-42.52 42.52-42.52m0-2C20.806.835.834 20.806.834 45.355s19.971 44.52 44.52 44.52 44.52-19.971 44.52-44.52S69.903.835 45.354.835h0z" fill="#252e78"/><path d="M28.405 53.287l5.771 5.771-8.74 8.74-5.771-5.771z" fill="#fff"/><path d="M72.01 23.039c-2.385-2.385-5.556-3.699-8.929-3.699a12.54 12.54 0 0 0-8.928 3.699c-4.191 4.191-4.8 10.612-1.856 15.468L23.901 66.905a3 3 0 0 0 0 4.242 2.99 2.99 0 0 0 4.242 0L56.54 42.75a12.62 12.62 0 0 0 6.542 1.836c3.233 0 6.467-1.231 8.928-3.692 4.922-4.923 4.922-12.932 0-17.855zm-4.243 13.613c-2.474 2.473-6.432 2.571-9.033.305-.09-.122-.179-.244-.289-.354s-.233-.2-.355-.29a6.63 6.63 0 0 1 .306-9.031 6.58 6.58 0 0 1 4.686-1.941 6.58 6.58 0 0 1 4.686 1.941c2.582 2.583 2.582 6.787-.001 9.37zM25.119 47.637l-2.121 2.121 3.203 3.203-2.122 2.121-3.202-3.202-2.122 2.121 2.682 2.682-2.121 2.121-2.682-2.682-2.62 2.62 6.405 6.405 11.105-11.105z" fill="#f8c409"/><path d="M52.202 50.364a2.99 2.99 0 0 1-2.121-.879l-4.562-4.562a3 3 0 0 1 4.242-4.242l4.562 4.562a3 3 0 0 1 0 4.242 2.99 2.99 0 0 1-2.121.879z" fill="#fff"/></svg>