<svg xmlns="http://www.w3.org/2000/svg" viewBox="0 0 177.94 180.23"><circle cx="89" cy="90.11" r="85.55" transform="matrix(.22971 -.973259 .973259 .22971 -19.15 156.03)" fill="#194093"/><path d="M89,7.06A83.06,83.06,0,1,1,5.94,90.11,83.05,83.05,0,0,1,89,7.06m0-5a88.06,88.06,0,1,0,88.05,88.05A88.15,88.15,0,0,0,89,2.06Z" fill="#0083ac"/><path d="M46.92 40.82l16.36 16.36a2.39 2.39 0 0 1 0 3.39h0a2.39 2.39 0 0 1-3.39 0L43.53 44.21a2.41 2.41 0 0 0-3.39 0l-.35.35a2.41 2.41 0 0 0 0 3.39l16.36 16.36a2.39 2.39 0 0 1 0 3.39h0a2.39 2.39 0 0 1-3.39 0L36.4 51.34a2.41 2.41 0 0 0-3.39 0l-.35.35a2.41 2.41 0 0 0 0 3.39L53.59 76h0c5.6 5.56 9 8.43 13.52 7A10.07 10.07 0 0 1 78 86.16l43 52.32a9.26 9.26 0 1 0 13-13l-52.32-43a10.1 10.1 0 0 1-3.19-10.92C80 67 77.15 63.62 71.59 58h0L50.66 37.08a2.41 2.41 0 0 0-3.39 0l-.35.35a2.41 2.41 0 0 0 0 3.39z" fill="#fff"/><path d="M49.06,143.91a10.57,10.57,0,0,1-10.55-11.07,10.61,10.61,0,0,1,3.85-7.65l52.32-43a8.75,8.75,0,0,0,2.78-9.51c-1.94-5.92.27-12.11,6.55-18.38,7.36-7.36,20.85-13.58,29.47-13.58,2.81,0,4.91.67,6.22,2,6,6-1.7,25.81-11.59,35.69-4.8,4.8-9.57,7.23-14.2,7.23h0a13.4,13.4,0,0,1-4.19-.67,8.63,8.63,0,0,0-2.71-.43,8.77,8.77,0,0,0-6.8,3.21l-43,52.32a10.56,10.56,0,0,1-7.64,3.84Z" fill="#f8c409"/><path d="M133.48,42c2.34,0,4.2.5,5.3,1.6,5,5-1.75,24-11.59,33.86-4.87,4.87-9.3,6.84-13.28,6.84a12.08,12.08,0,0,1-3.79-.61,10.11,10.11,0,0,0-10.91,3.19l-43,52.32a9.28,9.28,0,0,1-6.7,3.37h-.46a9.26,9.26,0,0,1-5.88-16.41l52.32-43a10.08,10.08,0,0,0,3.19-10.92c-1.59-4.89-.24-10.58,6.24-17.07C112.5,47.65,125.65,42,133.48,42m0-2.6c-9.06,0-22.7,6.26-30.39,14-6.65,6.65-9,13.28-6.87,19.71a7.54,7.54,0,0,1-2.37,8.1l-52.32,43a11.86,11.86,0,0,0,7.53,21h.58a11.92,11.92,0,0,0,8.59-4.32l43-52.32A7.45,7.45,0,0,1,107,85.83a7.58,7.58,0,0,1,2.31.36,14.79,14.79,0,0,0,4.59.74c5,0,10.07-2.56,15.12-7.61,10.5-10.49,18.15-31,11.59-37.53-1.57-1.56-4-2.36-7.14-2.36Z" fill="#194093"/></svg>