<svg xmlns="http://www.w3.org/2000/svg" viewBox="0 0 90.709 90.709"><circle cx="45.354" cy="45.355" r="43.52" fill="#194093"/><path d="M45.354 2.835c23.483 0 42.52 19.037 42.52 42.52s-19.037 42.52-42.52 42.52-42.52-19.037-42.52-42.52 19.037-42.52 42.52-42.52m0-2C20.806.835.834 20.806.834 45.355s19.971 44.52 44.52 44.52 44.52-19.971 44.52-44.52S69.903.835 45.354.835h0z" fill="#252e78"/><path d="M62.756 30.487l-2.77 8.221-1.586 1.175-1.606-1.159-2.876-8.185a7.73 7.73 0 0 1-3.331 2.282l3.694 10.657-6.493 19.747c-1.371 4.072.789 8.537 4.861 9.909l5.85-17.534 6.076 17.454c4.054-1.424 6.157-5.917 4.733-9.971l-6.746-19.658 3.569-10.695c-.008-.003-.015-.004-.023-.006a7.74 7.74 0 0 1-3.352-2.237z" fill="#fff"/><path d="M71.075 17.977c-4.072-1.371-8.485.818-9.857 4.89a7.77 7.77 0 0 0 1.538 7.619c.874.995 2.008 1.784 3.353 2.237.008.003.015.004.023.006a7.78 7.78 0 0 0 9.834-4.897 7.78 7.78 0 0 0-4.891-9.855zm1.944 8.864a4.671 4.671 0 1 1-8.854-2.982 4.67 4.67 0 0 1 5.918-2.936c2.445.824 3.759 3.473 2.936 5.918zm-19.102 3.698c1.744-2.037 2.393-4.917 1.443-7.631a7.78 7.78 0 1 0-4.79 9.917 7.74 7.74 0 0 0 3.347-2.286zm-10.309-3.52c-.852-2.435.432-5.1 2.867-5.952s5.1.432 5.952 2.867-.432 5.1-2.867 5.952a4.67 4.67 0 0 1-5.952-2.867z" fill="#f8c409"/><path d="M33.495 43.364L31.803 16.31c-.018-.284-.252-.507-.537-.51s-.524.214-.548.498l-2.925 23.553c-.039-.001-.076-.012-.116-.012s-.077.011-.116.012l-2.925-23.553c-.024-.284-.263-.501-.548-.498s-.519.226-.537.51l-1.692 27.054s.038 1.666-1.077 4.46c1.211 1.008 2.939 2.017 4.388 2.792l.761-1.756c.541.218 1.128.344 1.747.344s1.206-.126 1.746-.344l.761 1.756c1.45-.776 3.18-1.785 4.391-2.794-1.113-2.789-1.081-4.458-1.081-4.458z" fill="#fff"/><path d="M20.777 47.821c-2.471 0-4.355.958-5.269 2.433-.627 1.01.969 4.736.969 4.736-5.094 6.392.156 16.048 2.799 18.299 2.906 2.476 4.391 1.536 5.274.921.976-.679 1.135-3.089-.538-5.657-3.893-5.974-1.953-11.964.265-15.257.524-.778.95-1.612 1.308-2.459l-.415-.221c-1.449-.775-3.177-1.784-4.388-2.792zm18.101 7.168s1.595-3.726.969-4.736c-.915-1.475-2.799-2.433-5.269-2.433-1.213 1.011-2.943 2.021-4.393 2.796l-.414.22c.358.847.784 1.681 1.308 2.459 2.218 3.293 4.158 9.283.265 15.257-1.674 2.568-1.514 4.978-.538 5.657.883.615 2.368 1.555 5.274-.921 2.641-2.25 7.891-11.907 2.798-18.299z" fill="#f8c409"/></svg>