<svg xmlns="http://www.w3.org/2000/svg" viewBox="0 0 90.709 90.709"><circle cx="45.354" cy="45.355" r="43.52" fill="#194093"/><path d="M45.354 2.835c23.483 0 42.52 19.037 42.52 42.52s-19.037 42.52-42.52 42.52-42.52-19.037-42.52-42.52 19.037-42.52 42.52-42.52m0-2C20.806.835.834 20.806.834 45.355s19.971 44.52 44.52 44.52 44.52-19.971 44.52-44.52S69.903.835 45.354.835h0z" fill="#252e78"/><path d="M49.155 21.646H15.446l5.474 5.086h22.76zM20.92 63.976l-5.474 5.087h33.709l-5.475-5.087H20.92z" fill="#fff"/><path d="M70.746 26.555c.422-2.514.123-4.867-1.129-5.02l.004-.032c-1.105-.428-2.249-.742-3.414-.943-2.14-.368-4.348-.347-6.514.162-6.647 1.564-8.195 5.963-9.325 9.175-1.136 3.229-1.791 5.051-6.219 5.168-.151-.035-.307-.058-.468-.058a2.07 2.07 0 0 0 2.069-2.069 2.07 2.07 0 0 0-2.069-2.069A2.07 2.07 0 0 0 45.75 28.8a2.07 2.07 0 0 0-2.069-2.069H20.92a2.07 2.07 0 0 0-2.069 2.069c0 1.095.853 1.982 1.93 2.055v.028c-1.077.073-1.93.96-1.93 2.055s.853 1.982 1.93 2.055v.028c-1.077.073-1.93.96-1.93 2.055s.853 1.982 1.93 2.055v.028c-1.077.073-1.93.96-1.93 2.055s.853 1.982 1.93 2.055v.028c-1.077.073-1.93.96-1.93 2.055s.853 1.982 1.93 2.055v.028c-1.077.073-1.93.96-1.93 2.055s.853 1.982 1.93 2.055v.028c-1.077.073-1.93.96-1.93 2.055s.853 1.982 1.93 2.055v.028c-1.077.073-1.93.96-1.93 2.055s.853 1.982 1.93 2.055v.028c-1.077.073-1.93.96-1.93 2.055s.853 1.982 1.93 2.055v.014h.139 0 22.76 0a2.07 2.07 0 0 0 2.069-2.069 2.07 2.07 0 0 0-2.069-2.069 2.07 2.07 0 0 0 2.069-2.069 2.07 2.07 0 0 0-2.069-2.069 2.07 2.07 0 0 0 2.069-2.069 2.07 2.07 0 0 0-2.069-2.069 2.07 2.07 0 0 0 2.069-2.069 2.07 2.07 0 0 0-2.069-2.069 2.07 2.07 0 0 0 2.069-2.069 2.07 2.07 0 0 0-2.069-2.069 2.07 2.07 0 0 0 2.069-2.069 2.07 2.07 0 0 0-2.069-2.069c.198 0 .386-.037.568-.089 7.191-.212 8.694-4.422 9.893-7.831 1.09-3.099 1.951-5.546 6.468-6.608 1.493-.352 3.026-.379 4.531-.161a13.69 13.69 0 0 1 2.31.543 14.82 14.82 0 0 1 3.296 1.556zm10.061 7.471c-1.034-4.394-3.825-8.091-7.435-10.542.008.504-.015 1.023-.08 1.553-.107.875-.321 1.9-.595 3.001 2.041 1.826 3.582 4.207 4.216 6.903.891 3.786.105 7.777-2.154 10.948-2.339 3.278-5.658 10.24-4.613 14.967a2 2 0 0 0 1.951 1.568c.144 0 .288-.015.434-.047a2 2 0 0 0 1.521-2.385c-.677-3.059 1.914-8.907 3.964-11.781a17.53 17.53 0 0 0 2.791-14.185z" fill="#f8c409"/><path d="M73.372 23.485c-.047-3.074-1.381-5.526-3.308-5.761-1.465-.179-2.904.972-3.857 2.838 1.165.201 2.309.515 3.414.943l-.004.032c1.252.153 1.551 2.506 1.129 5.02-.349 2.075-1.188 4.259-2.403 5.409-1.071-1.671-1.278-4.623-.893-6.964a13.69 13.69 0 0 0-2.31-.543c-.135 2.714.6 11.623.309 14.135-.101.873-2.871 40.27-2.871 40.27l6.942-39.773c.697-2.909 2.273-7.411 3.177-11.051.273-1.101.488-2.126.595-3.001a11.62 11.62 0 0 0 .08-1.554z" fill="#fff"/></svg>