<?xml version="1.0" encoding="iso-8859-1"?>
<!-- Generator: Adobe Illustrator 22.1.0, SVG Export Plug-In . SVG Version: 6.00 Build 0)  -->
<svg version="1.1" xmlns="http://www.w3.org/2000/svg" xmlns:xlink="http://www.w3.org/1999/xlink" x="0px" y="0px"
	 viewBox="0 0 90.709 90.709" style="enable-background:new 0 0 90.709 90.709;" xml:space="preserve">
<g id="ratownik-1">
	<g>
		<g>
			<circle style="fill:#194093;" cx="45.354" cy="45.355" r="43.52"/>
			<g>
				<path style="fill:#252E78;" d="M45.354,2.835c23.483,0,42.52,19.037,42.52,42.52s-19.037,42.52-42.52,42.52
					s-42.52-19.037-42.52-42.52S21.871,2.835,45.354,2.835 M45.354,0.835c-24.548,0-44.52,19.971-44.52,44.52
					s19.971,44.52,44.52,44.52s44.52-19.971,44.52-44.52S69.903,0.835,45.354,0.835L45.354,0.835z"/>
			</g>
		</g>
	</g>
</g>
<g id="Warstwa_4">
	<g>
		<path style="fill:#FFFFFF;" d="M29.805,74.84l-0.617,5.412l3.749-3.951l2.331-4.996c-1.026-0.569-1.997-1.222-2.907-1.949
			L29.805,74.84z"/>
		<path style="fill:#FFFFFF;" d="M58.831,20.81c2.123,0.196,4.236-0.916,5.189-2.959c1.213-2.601,0.087-5.694-2.514-6.907
			c-2.601-1.213-5.694-0.087-6.907,2.514c-0.953,2.043-0.447,4.377,1.069,5.877l-6.212,13.332c1.168,0.23,2.298,0.557,3.386,0.976
			L58.831,20.81z"/>
		<path style="fill:#FFFFFF;" d="M32.859,20.169c1.515-1.5,2.022-3.834,1.069-5.877c-1.213-2.601-4.306-3.727-6.907-2.514
			c-2.601,1.213-3.727,4.306-2.514,6.907c0.953,2.043,3.066,3.156,5.189,2.959l6.04,12.944c1.025-0.533,2.108-0.965,3.224-1.325
			L32.859,20.169z"/>
		<path style="fill:#FFFFFF;" d="M55.591,77.134l3.749,3.951l-0.617-5.412l-2.302-4.94c-0.973,0.612-2.003,1.14-3.077,1.586
			L55.591,77.134z"/>
		<path style="fill:#F8C409;" d="M37.016,41.977c1.096-3.383,2.678-6.548,4.664-9.414c-0.933,0.166-1.834,0.415-2.719,0.7
			c-1.116,0.359-2.199,0.792-3.224,1.325c-3.003,1.562-5.578,3.829-7.502,6.592c0.397-0.013,0.793-0.03,1.193-0.03
			C32.033,41.15,34.57,41.441,37.016,41.977z"/>
		<path style="fill:#F8C409;" d="M40.46,42.92c2.109,0.694,4.131,1.577,6.045,2.636c1.36-4.486,3.914-8.445,7.275-11.548
			c-0.305-0.135-0.624-0.243-0.937-0.364c-1.088-0.418-2.219-0.745-3.386-0.976c-1.01-0.199-2.04-0.346-3.097-0.397
			C43.768,35.382,41.752,38.986,40.46,42.92z"/>
		<path style="fill:#F8C409;" d="M45.596,56.227c-0.126-1.035-0.21-2.081-0.21-3.149c0-1.321,0.131-2.608,0.322-3.876
			c-4.763-2.843-10.329-4.48-16.278-4.48c-1.1,0-2.186,0.056-3.257,0.165c-0.818,1.914-1.359,3.974-1.57,6.131
			c1.566-0.296,3.176-0.467,4.827-0.467C35.54,50.549,41.154,52.683,45.596,56.227z"/>
		<path style="fill:#F8C409;" d="M63.652,43.067c-2.996,2.314-4.934,5.932-4.934,10.011c0,0.385,0.024,0.764,0.058,1.14
			c-1.186,0.253-2.345,0.577-3.477,0.961c-0.09-0.689-0.152-1.387-0.152-2.1c0-5.306,2.572-10.011,6.522-12.973
			c-1.311-1.646-2.856-3.097-4.6-4.283c-4.955,4.111-8.112,10.314-8.112,17.255c0,1.638,0.186,3.23,0.52,4.768
			c-1.458,0.86-2.841,1.832-4.135,2.91c-4.061-4.096-9.689-6.635-15.913-6.635c-1.668,0-3.288,0.196-4.852,0.541
			c0.159,2.116,0.632,4.141,1.376,6.033c1.121-0.246,2.282-0.384,3.476-0.384c4.527,0,8.622,1.868,11.567,4.868
			c-0.761,0.944-1.467,1.934-2.115,2.965c-2.318-2.609-5.688-4.261-9.452-4.261c-0.614,0-1.213,0.059-1.803,0.143
			c1.263,2.041,2.871,3.84,4.735,5.331c0.91,0.728,1.882,1.381,2.907,1.949c2.023,1.121,4.249,1.921,6.616,2.318
			c4.181-8.763,13.103-14.848,23.442-14.848c0.026,0,0.05,0.004,0.076,0.004c0.515-1.814,0.809-3.722,0.809-5.701
			C66.211,49.449,65.282,46.039,63.652,43.067z"/>
		<path style="fill:#F8C409;" d="M45.715,73.916c2.703-0.046,5.273-0.617,7.63-1.597c1.073-0.446,2.103-0.974,3.077-1.586
			c3.219-2.024,5.848-4.9,7.565-8.319C56.112,62.881,49.332,67.389,45.715,73.916z"/>
	</g>
</g>
</svg>
