<?xml version="1.0" encoding="iso-8859-1"?>
<!-- Generator: Adobe Illustrator 22.1.0, SVG Export Plug-In . SVG Version: 6.00 Build 0)  -->
<svg version="1.1" xmlns="http://www.w3.org/2000/svg" xmlns:xlink="http://www.w3.org/1999/xlink" x="0px" y="0px"
	 viewBox="0 0 90.709 90.709" style="enable-background:new 0 0 90.709 90.709;" xml:space="preserve">
<g id="ratownik-1">
</g>
<g id="Warstwa_4">
	<g>
		<g>
			<circle style="fill:#194093;" cx="45.354" cy="45.355" r="43.52"/>
			<g>
				<path style="fill:#252E78;" d="M45.354,2.835c23.483,0,42.52,19.037,42.52,42.52s-19.037,42.52-42.52,42.52
					s-42.52-19.037-42.52-42.52S21.871,2.835,45.354,2.835 M45.354,0.835c-24.548,0-44.52,19.971-44.52,44.52
					s19.971,44.52,44.52,44.52s44.52-19.971,44.52-44.52S69.903,0.835,45.354,0.835L45.354,0.835z"/>
			</g>
		</g>
	</g>
	<g>
		<path style="fill:#FFFFFF;" d="M62.756,30.487l-2.77,8.221L58.4,39.883l-1.606-1.159l-2.876-8.185
			c-0.863,1.008-1.989,1.813-3.331,2.282c-0.005,0.002-0.01,0.003-0.015,0.004l3.709,10.653l-6.493,19.747
			c-1.371,4.072,0.789,8.537,4.861,9.909L58.499,55.6l6.076,17.454c4.054-1.424,6.157-5.917,4.733-9.971l-6.746-19.658l3.569-10.695
			c-0.008-0.003-0.015-0.004-0.023-0.006C64.763,32.271,63.63,31.481,62.756,30.487z"/>
		<path style="fill:#F8C409;" d="M71.075,17.977c-4.072-1.371-8.485,0.818-9.857,4.89c-0.918,2.727-0.234,5.603,1.538,7.619
			c0.874,0.995,2.008,1.784,3.353,2.237c0.008,0.003,0.015,0.004,0.023,0.006c4.066,1.356,8.465-0.832,9.834-4.897
			C77.337,23.761,75.147,19.348,71.075,17.977z M73.019,26.841c-0.823,2.445-3.473,3.76-5.918,2.936s-3.76-3.473-2.936-5.918
			c0.823-2.445,3.473-3.76,5.918-2.936S73.842,24.396,73.019,26.841z"/>
		<path style="fill:#F8C409;" d="M53.917,30.539c1.744-2.037,2.393-4.917,1.443-7.631c-1.419-4.056-5.857-6.194-9.913-4.775
			c-4.056,1.419-6.194,5.857-4.775,9.913c1.417,4.051,5.846,6.188,9.898,4.779c0.005-0.002,0.01-0.003,0.015-0.004
			C51.928,32.351,53.055,31.546,53.917,30.539z M43.608,27.019c-0.852-2.435,0.432-5.1,2.867-5.952
			c2.435-0.852,5.1,0.432,5.952,2.867c0.852,2.435-0.432,5.1-2.867,5.952C47.124,30.738,44.46,29.455,43.608,27.019z"/>
	</g>
	<g>
		<path style="fill:#FFFFFF;" d="M33.495,43.364L31.803,16.31c-0.018-0.284-0.252-0.507-0.537-0.51
			c-0.285-0.003-0.524,0.214-0.548,0.498l-2.925,23.553c-0.039-0.001-0.076-0.012-0.116-0.012s-0.077,0.011-0.116,0.012
			l-2.925-23.553c-0.024-0.284-0.263-0.501-0.548-0.498c-0.285,0.003-0.519,0.226-0.537,0.51l-1.692,27.054
			c0,0,0.038,1.666-1.077,4.46c1.211,1.008,2.939,2.017,4.388,2.792c0.28-0.584,0.533-1.172,0.761-1.756
			c0.541,0.218,1.128,0.344,1.747,0.344c0.618,0,1.206-0.126,1.746-0.344c0.228,0.584,0.481,1.173,0.761,1.756
			c1.45-0.776,3.18-1.785,4.391-2.794C33.463,45.033,33.495,43.364,33.495,43.364z"/>
		<path style="fill:#F8C409;" d="M20.777,47.821c-2.471,0-4.355,0.958-5.269,2.433c-0.627,1.01,0.969,4.736,0.969,4.736
			c-5.094,6.392,0.156,16.048,2.799,18.299c2.906,2.476,4.391,1.536,5.274,0.921c0.976-0.679,1.135-3.089-0.538-5.657
			c-3.893-5.974-1.953-11.964,0.265-15.257c0.524-0.778,0.95-1.612,1.308-2.459c-0.134-0.07-0.275-0.146-0.415-0.221
			c-1.449-0.775-3.177-1.784-4.388-2.792C20.78,47.823,20.778,47.822,20.777,47.821z"/>
		<path style="fill:#F8C409;" d="M38.878,54.989c0,0,1.595-3.726,0.969-4.736c-0.915-1.475-2.799-2.433-5.269-2.433
			c-0.001,0.001-0.002,0.001-0.002,0.002c-1.211,1.009-2.941,2.019-4.391,2.794c-0.14,0.075-0.28,0.15-0.414,0.22
			c0.358,0.847,0.784,1.681,1.308,2.459c2.218,3.293,4.158,9.283,0.265,15.257c-1.674,2.568-1.514,4.978-0.538,5.657
			c0.883,0.615,2.368,1.555,5.274-0.921C38.721,71.038,43.971,61.381,38.878,54.989z"/>
	</g>
</g>
</svg>
