<?xml version="1.0" encoding="iso-8859-1"?>
<!-- Generator: Adobe Illustrator 22.1.0, SVG Export Plug-In . SVG Version: 6.00 Build 0)  -->
<svg version="1.1" xmlns="http://www.w3.org/2000/svg" xmlns:xlink="http://www.w3.org/1999/xlink" x="0px" y="0px"
	 viewBox="0 0 90.709 90.709" style="enable-background:new 0 0 90.709 90.709;" xml:space="preserve">
<g id="ratownik-1">
	<g>
		<g>
			<circle style="fill:#194093;" cx="45.354" cy="45.355" r="43.52"/>
			<g>
				<path style="fill:#252E78;" d="M45.354,2.835c23.483,0,42.52,19.037,42.52,42.52s-19.037,42.52-42.52,42.52
					s-42.52-19.037-42.52-42.52S21.871,2.835,45.354,2.835 M45.354,0.835c-24.548,0-44.52,19.971-44.52,44.52
					s19.971,44.52,44.52,44.52s44.52-19.971,44.52-44.52S69.903,0.835,45.354,0.835L45.354,0.835z"/>
			</g>
		</g>
	</g>
</g>
<g id="Warstwa_4">
	<g>
		<path style="fill:none;" d="M68.344,31.965c1.215-1.15,2.054-3.334,2.403-5.409c-1.032-0.657-2.144-1.175-3.296-1.555
			C67.066,27.342,67.273,30.294,68.344,31.965z"/>
		<polygon style="fill:#FFFFFF;" points="49.155,21.646 15.446,21.646 20.92,26.732 43.68,26.732 		"/>
		<polygon style="fill:#FFFFFF;" points="20.92,63.976 15.446,69.063 49.155,69.063 43.68,63.976 20.92,63.976 		"/>
		<path style="fill:#F8C409;" d="M70.746,26.555c0.422-2.514,0.123-4.867-1.129-5.02l0.004-0.032
			c-1.105-0.428-2.249-0.742-3.414-0.943c-2.14-0.368-4.348-0.347-6.514,0.162c-6.647,1.564-8.195,5.963-9.325,9.175
			c-1.136,3.229-1.791,5.051-6.219,5.168c-0.151-0.035-0.307-0.058-0.468-0.058c1.143,0,2.069-0.926,2.069-2.069
			c0-1.143-0.926-2.069-2.069-2.069c1.143,0,2.069-0.926,2.069-2.069c0-1.143-0.926-2.069-2.069-2.069H20.92
			c-1.143,0-2.069,0.926-2.069,2.069c0,1.095,0.853,1.982,1.93,2.055v0.028c-1.077,0.073-1.93,0.96-1.93,2.055
			c0,1.095,0.853,1.982,1.93,2.055v0.028c-1.077,0.073-1.93,0.96-1.93,2.055s0.853,1.982,1.93,2.055v0.028
			c-1.077,0.073-1.93,0.96-1.93,2.055s0.853,1.982,1.93,2.055v0.028c-1.077,0.073-1.93,0.96-1.93,2.055s0.853,1.982,1.93,2.055
			v0.028c-1.077,0.073-1.93,0.96-1.93,2.055s0.853,1.982,1.93,2.055v0.028c-1.077,0.073-1.93,0.96-1.93,2.055
			c0,1.095,0.853,1.982,1.93,2.055v0.028c-1.077,0.073-1.93,0.96-1.93,2.055c0,1.095,0.853,1.982,1.93,2.055v0.028
			c-1.077,0.073-1.93,0.96-1.93,2.055s0.853,1.982,1.93,2.055v0.014h0.139h0h22.76h0c1.143,0,2.069-0.926,2.069-2.069
			s-0.926-2.069-2.069-2.069c1.143,0,2.069-0.926,2.069-2.069c0-1.143-0.926-2.069-2.069-2.069c1.143,0,2.069-0.926,2.069-2.069
			c0-1.143-0.926-2.069-2.069-2.069c1.143,0,2.069-0.926,2.069-2.069s-0.926-2.069-2.069-2.069c1.143,0,2.069-0.926,2.069-2.069
			s-0.926-2.069-2.069-2.069c1.143,0,2.069-0.926,2.069-2.069s-0.926-2.069-2.069-2.069c0.198,0,0.386-0.037,0.568-0.089
			c7.191-0.212,8.694-4.422,9.893-7.831c1.09-3.099,1.951-5.546,6.468-6.608c1.493-0.352,3.026-0.379,4.531-0.161
			c0.782,0.114,1.554,0.294,2.31,0.543C68.602,25.38,69.714,25.899,70.746,26.555z"/>
		<path style="fill:#F8C409;" d="M80.807,34.026c-1.034-4.394-3.825-8.091-7.435-10.542c0.008,0.504-0.015,1.023-0.08,1.553
			c-0.107,0.875-0.321,1.9-0.595,3.001c2.041,1.826,3.582,4.207,4.216,6.903c0.891,3.786,0.105,7.777-2.154,10.948
			c-2.339,3.278-5.658,10.24-4.613,14.967c0.207,0.934,1.033,1.568,1.951,1.568c0.144,0,0.288-0.015,0.434-0.047
			c1.079-0.239,1.76-1.307,1.521-2.385c-0.677-3.059,1.914-8.907,3.964-11.781C80.943,44.104,81.961,38.934,80.807,34.026z"/>
		<path style="fill:#FFFFFF;" d="M73.372,23.485c-0.047-3.074-1.381-5.526-3.308-5.761c-1.465-0.179-2.904,0.972-3.857,2.838
			c1.165,0.201,2.309,0.515,3.414,0.943l-0.004,0.032c1.252,0.153,1.551,2.506,1.129,5.02c-0.349,2.075-1.188,4.259-2.403,5.409
			c-1.071-1.671-1.278-4.623-0.893-6.964c-0.756-0.249-1.528-0.429-2.31-0.543c-0.135,2.714,0.6,11.623,0.309,14.135
			c-0.101,0.873-2.871,40.27-2.871,40.27s6.838-39.34,6.942-39.773c0.697-2.909,2.273-7.411,3.177-11.051
			c0.273-1.101,0.488-2.126,0.595-3.001C73.356,24.508,73.379,23.989,73.372,23.485z"/>
	</g>
</g>
</svg>
