<svg xmlns="http://www.w3.org/2000/svg" viewBox="0 0 90.709 90.709"><circle cx="45.354" cy="45.355" r="43.52" fill="#194093"/><path d="M45.354 2.835c23.483 0 42.52 19.037 42.52 42.52s-19.037 42.52-42.52 42.52-42.52-19.037-42.52-42.52 19.037-42.52 42.52-42.52m0-2C20.806.835.834 20.806.834 45.355s19.971 44.52 44.52 44.52 44.52-19.971 44.52-44.52S69.903.835 45.354.835h0z" fill="#252e78"/><path d="M29.805 74.84l-.617 5.412 3.749-3.951 2.331-4.996c-1.026-.569-1.997-1.222-2.907-1.949l-2.556 5.484zm29.026-54.03c2.123.196 4.236-.916 5.189-2.959a5.2 5.2 0 0 0-2.514-6.907 5.2 5.2 0 0 0-6.907 2.514c-.953 2.043-.447 4.377 1.069 5.877l-6.212 13.332a20.35 20.35 0 0 1 3.386.976l5.989-12.833zm-25.972-.641c1.515-1.5 2.022-3.834 1.069-5.877a5.2 5.2 0 0 0-6.907-2.514 5.2 5.2 0 0 0-2.514 6.907c.953 2.043 3.066 3.156 5.189 2.959l6.04 12.944c1.025-.533 2.108-.965 3.224-1.325l-6.101-13.094zm22.732 56.965l3.749 3.951-.617-5.412-2.302-4.94c-.973.612-2.003 1.14-3.077 1.586l2.247 4.815z" fill="#fff"/><path d="M37.016 41.977c1.096-3.383 2.678-6.548 4.664-9.414-.933.166-1.834.415-2.719.7-1.116.359-2.199.792-3.224 1.325-3.003 1.562-5.578 3.829-7.502 6.592l1.193-.03c2.605 0 5.142.291 7.588.827zm3.444.943a35.22 35.22 0 0 1 6.045 2.636c1.36-4.486 3.914-8.445 7.275-11.548-.305-.135-.624-.243-.937-.364-1.088-.418-2.219-.745-3.386-.976-1.01-.199-2.04-.346-3.097-.397a32.45 32.45 0 0 0-5.9 10.649zm5.136 13.307c-.126-1.035-.21-2.081-.21-3.149 0-1.321.131-2.608.322-3.876-4.763-2.843-10.329-4.48-16.278-4.48a32.15 32.15 0 0 0-3.257.165c-.818 1.914-1.359 3.974-1.57 6.131 1.566-.296 3.176-.467 4.827-.467 6.11-.002 11.724 2.132 16.166 5.676zm18.056-13.16c-2.996 2.314-4.934 5.932-4.934 10.011 0 .385.024.764.058 1.14-1.186.253-2.345.577-3.477.961-.09-.689-.152-1.387-.152-2.1 0-5.306 2.572-10.011 6.522-12.973-1.311-1.646-2.856-3.097-4.6-4.283-4.955 4.111-8.112 10.314-8.112 17.255 0 1.638.186 3.23.52 4.768-1.458.86-2.841 1.832-4.135 2.91-4.061-4.096-9.689-6.635-15.913-6.635-1.668 0-3.288.196-4.852.541.159 2.116.632 4.141 1.376 6.033a16.19 16.19 0 0 1 3.476-.384c4.527 0 8.622 1.868 11.567 4.868a31.05 31.05 0 0 0-2.115 2.965c-2.318-2.609-5.688-4.261-9.452-4.261-.614 0-1.213.059-1.803.143 1.263 2.041 2.871 3.84 4.735 5.331a20.77 20.77 0 0 0 2.907 1.949 20.7 20.7 0 0 0 6.616 2.318c4.181-8.763 13.103-14.848 23.442-14.848.026 0 .05.004.076.004a20.83 20.83 0 0 0 .809-5.701c0-3.63-.929-7.04-2.559-10.012zM45.715 73.916c2.703-.046 5.273-.617 7.63-1.597 1.073-.446 2.103-.974 3.077-1.586 3.219-2.024 5.848-4.9 7.565-8.319-7.875.467-14.655 4.975-18.272 11.502z" fill="#f8c409"/></svg>