<svg xmlns="http://www.w3.org/2000/svg" viewBox="0 0 90.709 90.709"><circle transform="matrix(.9239 -.3827 .3827 .9239 -13.9041 20.8088)" cx="45.354" cy="45.355" r="43.52" fill="#194093"/><path d="M45.354 2.835c23.483 0 42.52 19.037 42.52 42.52s-19.037 42.52-42.52 42.52-42.52-19.037-42.52-42.52 19.037-42.52 42.52-42.52m0-2C20.806.835.834 20.806.834 45.355s19.971 44.52 44.52 44.52 44.52-19.971 44.52-44.52S69.903.835 45.354.835h0z" fill="#252e78"/><path d="M59.566 35.484a20.1 20.1 0 0 0-28.422 0c-7.848 7.849-7.849 20.574 0 28.422s20.574 7.849 28.422 0 7.848-20.573 0-28.422zm-2.334 9.606L47.9 54.423a2.5 2.5 0 0 1-1.768.732c-.664 0-1.299-.264-1.768-.732l-11.04-11.04a2.5 2.5 0 0 1 3.535-3.535l9.272 9.272 7.564-7.565a2.5 2.5 0 1 1 3.537 3.535z" fill="#fff"/><path d="M63.812 31.234c-4.326-4.326-9.806-6.806-15.458-7.455v-3.34h1.059a3 3 0 1 0 0-6h-8.116a3 3 0 1 0 0 6h1.058v3.34c-5.652.648-11.131 3.129-15.457 7.455-4.931 4.93-7.646 11.485-7.646 18.457s2.715 13.527 7.646 18.457a25.93 25.93 0 0 0 18.458 7.646c6.973 0 13.527-2.715 18.457-7.646 10.175-10.177 10.175-26.737-.001-36.914zM59.57 63.905a19.97 19.97 0 0 1-14.215 5.888 19.97 19.97 0 0 1-14.215-5.888 19.97 19.97 0 0 1-5.888-14.215 19.97 19.97 0 0 1 5.888-14.215c3.919-3.918 9.067-5.878 14.215-5.878s10.296 1.96 14.215 5.878c7.836 7.84 7.836 20.593 0 28.43zM33.969 20.413c.004 2.028-1.637 3.678-3.665 3.68a3.67 3.67 0 0 1-3.681-3.664c-.004-2.028 1.638-3.676 3.665-3.68s3.677 1.638 3.681 3.664zm22.77 0c-.004 2.028 1.637 3.678 3.665 3.68a3.67 3.67 0 0 0 3.681-3.664c.004-2.028-1.638-3.676-3.665-3.68s-3.676 1.638-3.681 3.664z" fill="#f8c409"/></svg>