<?xml version="1.0" encoding="iso-8859-1"?>
<!-- Generator: Adobe Illustrator 22.1.0, SVG Export Plug-In . SVG Version: 6.00 Build 0)  -->
<svg version="1.1" xmlns="http://www.w3.org/2000/svg" xmlns:xlink="http://www.w3.org/1999/xlink" x="0px" y="0px"
	 viewBox="0 0 90.709 90.709" style="enable-background:new 0 0 90.709 90.709;" xml:space="preserve">
<g id="ratownik-1">
	<g>
		<g>
			
				<ellipse transform="matrix(0.9239 -0.3827 0.3827 0.9239 -13.9041 20.8088)" style="fill:#194093;" cx="45.354" cy="45.355" rx="43.52" ry="43.52"/>
			<g>
				<path style="fill:#252E78;" d="M45.354,2.835c23.483,0,42.52,19.037,42.52,42.52s-19.037,42.52-42.52,42.52
					s-42.52-19.037-42.52-42.52S21.871,2.835,45.354,2.835 M45.354,0.835c-24.548,0-44.52,19.971-44.52,44.52
					s19.971,44.52,44.52,44.52s44.52-19.971,44.52-44.52S69.903,0.835,45.354,0.835L45.354,0.835z"/>
			</g>
		</g>
	</g>
</g>
<g id="Warstwa_4">
	<g>
		<path style="fill:#FFFFFF;" d="M59.566,35.484c-7.849-7.849-20.574-7.849-28.422,0s-7.849,20.574,0,28.422s20.574,7.849,28.422,0
			S67.414,43.333,59.566,35.484z M57.232,45.09L47.9,54.423c-0.469,0.469-1.104,0.732-1.768,0.732s-1.299-0.264-1.768-0.732
			l-11.04-11.04c-0.977-0.977-0.977-2.559,0-3.535c0.976-0.977,2.56-0.977,3.535,0l9.272,9.272l7.564-7.565
			c0.977-0.977,2.559-0.977,3.535,0C58.208,42.53,58.208,44.113,57.232,45.09z"/>
		<path style="fill:#F8C409;" d="M63.812,31.234c-4.326-4.326-9.806-6.806-15.458-7.455v-3.34h1.059c1.657,0,3-1.343,3-3
			s-1.343-3-3-3h-8.116c-1.657,0-3,1.343-3,3s1.343,3,3,3h1.058v3.34c-5.652,0.648-11.131,3.129-15.457,7.455
			c-4.931,4.93-7.646,11.485-7.646,18.457c0,6.973,2.715,13.527,7.646,18.457c4.93,4.931,11.485,7.646,18.458,7.646
			c6.972,0,13.527-2.715,18.457-7.646C73.988,57.971,73.988,41.411,63.812,31.234z M59.57,63.905
			c-3.797,3.797-8.846,5.888-14.215,5.888c-5.37,0-10.418-2.091-14.215-5.888c-3.797-3.797-5.888-8.845-5.888-14.215
			c0-5.369,2.091-10.418,5.888-14.215c3.919-3.918,9.067-5.878,14.215-5.878c5.147,0,10.296,1.96,14.215,5.878
			C67.406,43.315,67.406,56.068,59.57,63.905z"/>
		<g>
			<g>
				<path style="fill:#F8C409;" d="M33.969,20.413c0.004,2.028-1.637,3.678-3.665,3.68c-2.029,0.004-3.676-1.634-3.681-3.664
					c-0.004-2.028,1.638-3.676,3.665-3.68C32.318,16.744,33.965,18.387,33.969,20.413z"/>
			</g>
			<g>
				<path style="fill:#F8C409;" d="M56.739,20.413c-0.004,2.028,1.637,3.678,3.665,3.68c2.029,0.004,3.676-1.634,3.681-3.664
					c0.004-2.028-1.638-3.676-3.665-3.68C58.39,16.744,56.744,18.387,56.739,20.413z"/>
			</g>
		</g>
	</g>
</g>
</svg>
