<?xml version="1.0" encoding="iso-8859-1"?>
<!-- Generator: Adobe Illustrator 22.1.0, SVG Export Plug-In . SVG Version: 6.00 Build 0)  -->
<svg version="1.1" xmlns="http://www.w3.org/2000/svg" xmlns:xlink="http://www.w3.org/1999/xlink" x="0px" y="0px"
	 viewBox="0 0 90.709 90.709" style="enable-background:new 0 0 90.709 90.709;" xml:space="preserve">
<g id="ratownik-1">
	<g>
		<g>
			<path style="fill:#194093;" d="M45.354,88.874c-23.997,0-43.52-19.522-43.52-43.52S21.357,1.834,45.354,1.834
				s43.521,19.523,43.521,43.521S69.351,88.874,45.354,88.874z"/>
			<g>
				<path style="fill:#252E78;" d="M45.354,2.835c23.483,0,42.52,19.037,42.52,42.52s-19.037,42.52-42.52,42.52
					c-23.483,0-42.52-19.037-42.52-42.52S21.871,2.835,45.354,2.835 M45.354,0.835c-24.548,0-44.52,19.971-44.52,44.52
					s19.971,44.52,44.52,44.52s44.52-19.971,44.52-44.52S69.903,0.835,45.354,0.835L45.354,0.835z"/>
			</g>
		</g>
	</g>
</g>
<g id="Warstwa_4">
	<g>
		<path style="fill:#F8C409;" d="M77.431,24.364l-3.91,0.736v37.443c-7.997-0.827-18.04,1.376-25.675,5.738V28.62v-0.208h-5.013
			v0.187v39.664c-7.631-4.35-17.659-6.546-25.646-5.72V25.075l-3.762-0.711l-0.147,41.759l29.555,4.835v8.161l2.506-2.615
			l2.506,2.615v-8.157l29.585-4.84V24.364z"/>
		<path style="fill:#FFFFFF;" d="M17.187,62.542c7.987-0.826,18.015,1.37,25.646,5.72V28.599c-8.016-5.71-17.502-7.647-25.646-5.34
			v1.816V62.542z M39.437,59.227c-5.17-3.121-10.895-4.731-16.348-4.633v-4.036c5.479-0.112,11.1,1.292,16.348,4.061V59.227z
			 M39.437,48.094c-5.258-3.267-10.98-5.013-16.348-5.021v-4.037c5.409-0.019,11.031,1.506,16.348,4.411V48.094z M39.437,37.047
			c-5.169-3.12-10.894-4.73-16.348-4.632V28.38c5.478-0.112,11.1,1.291,16.348,4.06V37.047z"/>
		<path style="fill:#FFFFFF;" d="M47.846,68.28c7.635-4.362,17.678-6.565,25.675-5.738V25.099v-1.84
			c-8.153-2.309-17.653-0.366-25.675,5.361V68.28z M67.619,54.595c-5.46-0.098-11.19,1.516-16.363,4.643v-4.609
			c5.252-2.774,10.879-4.18,16.363-4.069V54.595z M67.619,43.073c-5.371,0.008-11.1,1.759-16.363,5.032v-4.649
			c5.321-2.91,10.949-4.438,16.363-4.419V43.073z M67.619,32.414c-5.461-0.098-11.19,1.516-16.363,4.643v-4.608
			c5.252-2.774,10.879-4.18,16.363-4.068V32.414z"/>
	</g>
</g>
</svg>
