<svg xmlns="http://www.w3.org/2000/svg" viewBox="0 0 90.709 90.709"><path d="M45.354 88.874c-23.997 0-43.52-19.522-43.52-43.52s19.523-43.52 43.52-43.52 43.521 19.523 43.521 43.521-19.524 43.519-43.521 43.519z" fill="#194093"/><path d="M45.354 2.835c23.483 0 42.52 19.037 42.52 42.52s-19.037 42.52-42.52 42.52-42.52-19.037-42.52-42.52 19.037-42.52 42.52-42.52m0-2C20.806.835.834 20.806.834 45.355s19.971 44.52 44.52 44.52 44.52-19.971 44.52-44.52S69.903.835 45.354.835h0z" fill="#252e78"/><path d="M77.431 24.364l-3.91.736v37.443c-7.997-.827-18.04 1.376-25.675 5.738V28.62v-.208h-5.013v.187 39.664c-7.631-4.35-17.659-6.546-25.646-5.72V25.075l-3.762-.711-.147 41.759 29.555 4.835v8.161l2.506-2.615 2.506 2.615v-8.157l29.585-4.84V24.364z" fill="#f8c409"/><path d="M17.187 62.542c7.987-.826 18.015 1.37 25.646 5.72V28.599c-8.016-5.71-17.502-7.647-25.646-5.34v1.816 37.467zm22.25-3.315c-5.17-3.121-10.895-4.731-16.348-4.633v-4.036c5.479-.112 11.1 1.292 16.348 4.061v4.608zm0-11.133c-5.258-3.267-10.98-5.013-16.348-5.021v-4.037c5.409-.019 11.031 1.506 16.348 4.411v4.647zm0-11.047c-5.169-3.12-10.894-4.73-16.348-4.632V28.38c5.478-.112 11.1 1.291 16.348 4.06v4.607zm8.409 31.233c7.635-4.362 17.678-6.565 25.675-5.738V25.099v-1.84c-8.153-2.309-17.653-.366-25.675 5.361v39.66zm19.773-13.685c-5.46-.098-11.19 1.516-16.363 4.643v-4.609c5.252-2.774 10.879-4.18 16.363-4.069v4.035zm0-11.522c-5.371.008-11.1 1.759-16.363 5.032v-4.649c5.321-2.91 10.949-4.438 16.363-4.419v4.036zm0-10.659c-5.461-.098-11.19 1.516-16.363 4.643v-4.608c5.252-2.774 10.879-4.18 16.363-4.068v4.033z" fill="#fff"/></svg>