<svg xmlns="http://www.w3.org/2000/svg" viewBox="0 0 177.94 180.23"><defs><clipPath id="A"><circle cx="293" cy="90.11" r="69.52" fill="none"/></clipPath></defs><g clip-path="url(#A)"><path d="M176.39,106.54a1.46,1.46,0,0,1-1-2.52l10.51-9.7a1.44,1.44,0,0,1,.6-.34l11.43-3.17,32.7-23a1.43,1.43,0,0,1,.84-.27,1.48,1.48,0,0,1,1,.36L247.35,81l9.56-4.27a1.53,1.53,0,0,1,.59-.13,1.44,1.44,0,0,1,1,.42l27.7,26.94a1.44,1.44,0,0,1,.34,1.58,1.47,1.47,0,0,1-1.35.91l-60.36.11Z" fill="#f8c409"/><path d="M231.48,69l15.61,13.73L257.5,78l27.7,27-60.37.11H176.39l10.51-9.71,11.67-3.24L231.48,69m0-2.9a2.9,2.9,0,0,0-1.67.53l-32.5,22.9-11.19,3.11a2.92,2.92,0,0,0-1.19.66L174.42,103a2.9,2.9,0,0,0,2,5h48.44l60.38-.11a2.9,2.9,0,0,0,2-5L259.52,76a2.9,2.9,0,0,0-3.2-.57l-8.71,3.89-14.22-12.5a2.89,2.89,0,0,0-1.91-.73Z" fill="#194093"/></g><circle cx="89" cy="90.11" r="85.55" transform="matrix(.525769 -.850628 .850628 .525769 -34.45 118.44)" fill="#194093"/><path d="M89,7.06A83.06,83.06,0,1,1,5.94,90.11,83.05,83.05,0,0,1,89,7.06m0-5a88.06,88.06,0,1,0,88.05,88.05A88.15,88.15,0,0,0,89,2.06Z" fill="#0083ac"/><g fill="#fff"><path d="M82.83,69.91,124,140.17a1.69,1.69,0,0,1-.68,2.29h0a5.35,5.35,0,0,1-6.94-1.13l-37.69-50a3.79,3.79,0,0,1,1.27-5.57h0a3.83,3.83,0,0,0,1.53-5.19l-4.3-7.36Z"/><path d="M69.52,80.87l7.36,4.31a3.83,3.83,0,0,0,5.18-1.53h0a3.79,3.79,0,0,1,5.57-1.27l50,37.68a5.38,5.38,0,0,1,1.13,7h0a1.71,1.71,0,0,1-2.3.68L66.21,86.53Z"/></g><path d="M67 34.06c-6.91 4.28-8 13.39-5.5 17.39L78.67 78.6a1.4 1.4 0 0 0 1.93.4l5.51-3.9a1.4 1.4 0 0 0 .48-1.83c-3.2-6.17-2.7-9.76.45-16a22.37 22.37 0 0 0 2.34-6.67 17.1 17.1 0 0 0-2.65-11c-4.68-7.38-13.21-9.55-19.73-5.54zm3 5c3.85-2.44 9.22-.84 12 3.57s1.94 9.92-1.91 12.37-9.22.84-12-3.57S66.15 41.46 70 39zM36 90.79a17.09 17.09 0 0 0 11 2.55 22.6 22.6 0 0 0 6.65-2.4c6.26-3.21 9.84-3.74 16-.59a1.4 1.4 0 0 0 1.82-.51l3.85-5.54a1.38 1.38 0 0 0-.45-1.92L47.63 65.46c-4-2.52-13.13-1.29-17.34 5.68-3.95 6.53-1.7 15.05 5.71 19.65zM47.65 72c4.43 2.75 6.07 8.11 3.68 12s-7.94 4.78-12.37 2-6.08-8.11-3.68-12 7.94-4.71 12.37-2z" fill="#f8c409"/><path d="M65.53 128.23a1.34 1.34 0 0 1-.92-.38l-7.46-7.47a1.29 1.29 0 0 1 0-1.83l58.9-58.91c.61-8.64-13.11-11.64-19.12-12.5a2.2 2.2 0 0 1-1.87-1.89 2.22 2.22 0 0 1 1.31-2.34 30.08 30.08 0 0 1 12-2.57 32.74 32.74 0 0 1 20.81 7.93L136 55a2.92 2.92 0 0 1 .72 2.91 5.44 5.44 0 0 0 5.2 7 5.33 5.33 0 0 0 1.59-.24 3.27 3.27 0 0 1 .87-.13 2.87 2.87 0 0 1 2.05.85l6.08 6.08a2.22 2.22 0 0 1 0 3.14l-9.71 9.71a2.23 2.23 0 0 1-3.15 0l-6.08-6.08a2.88 2.88 0 0 1-.71-2.91 5.47 5.47 0 0 0-1.39-5.33l-.35-.32a4.76 4.76 0 0 0-3.12-1.15 5.46 5.46 0 0 0-3.83 1.59l-57.72 57.73a1.3 1.3 0 0 1-.92.38z" fill="#fff"/><path d="M108.39 41.64a31.78 31.78 0 0 1 19.93 7.58l6.73 6.78a1.59 1.59 0 0 1 .39 1.62 6.76 6.76 0 0 0 6.45 8.71 6.91 6.91 0 0 0 2-.29 1.67 1.67 0 0 1 .49-.08 1.58 1.58 0 0 1 1.13.47l6.08 6.08a.92.92 0 0 1 0 1.3l-9.71 9.71a.91.91 0 0 1-1.31 0l-6.08-6.08a1.62 1.62 0 0 1-.39-1.61 6.76 6.76 0 0 0-1.71-6.83l-.43-.39a6.11 6.11 0 0 0-4-1.42 6.73 6.73 0 0 0-4.75 2l-3.47 3.47-54.21 54.27-7.46-7.46 54.26-54.27 5-5c1.24-10.15-13.6-13.43-20.18-14.38a.92.92 0 0 1-.22-1.75 28.46 28.46 0 0 1 11.49-2.46m0-2.6h0a31.14 31.14 0 0 0-12.53 2.68 3.51 3.51 0 0 0 .89 6.7c4.31.63 18 3.2 18 10.67l-4.28 4.28-54.27 54.29a2.6 2.6 0 0 0 0 3.67l7.46 7.47a2.61 2.61 0 0 0 3.68 0l54.26-54.26L125.1 71a4.14 4.14 0 0 1 2.9-1.17 3.47 3.47 0 0 1 2.27.81 2.91 2.91 0 0 1 .27.24 4.15 4.15 0 0 1 1 4.15 4.22 4.22 0 0 0 1 4.2l6.08 6.08a3.51 3.51 0 0 0 5 0l9.71-9.71a3.53 3.53 0 0 0 0-5l-6.08-6.08a4.18 4.18 0 0 0-3-1.23 4.34 4.34 0 0 0-1.24.19 4.19 4.19 0 0 1-1.22.18 4.12 4.12 0 0 1-2.79-1.2 4.16 4.16 0 0 1-1-4.14 4.19 4.19 0 0 0-1-4.21l-6.73-6.73-.07-.07A34.31 34.31 0 0 0 108.39 39z" fill="#194093"/><path d="M55.39 142.05a4.86 4.86 0 0 1-3.39-1.42l-7.41-7.41a4.66 4.66 0 0 1-.49-6.14 4.54 4.54 0 0 1 3.61-1.77 4.74 4.74 0 0 1 .75.06L76 97.78a3 3 0 0 1 4.24 0l7.15 7.15a3 3 0 0 1 0 4.25l-27.56 27.58a4.56 4.56 0 0 1-1.71 4.36 4.38 4.38 0 0 1-2.73.93z" fill="#f8c409"/><path d="M78.15 98.2a1.71 1.71 0 0 1 1.2.5l7.15 7.15a1.71 1.71 0 0 1 0 2.41l-28.11 28.11a3.27 3.27 0 0 1-1.06 3.72 3.14 3.14 0 0 1-1.94.66 3.55 3.55 0 0 1-2.49-1l-7.41-7.41a3.37 3.37 0 0 1-.38-4.42 3.25 3.25 0 0 1 2.58-1.27 3.38 3.38 0 0 1 1.14.2L76.94 98.7a1.73 1.73 0 0 1 1.21-.5m0-2.6a4.27 4.27 0 0 0-3 1.26L48 124h-.26a5.84 5.84 0 0 0-4.63 2.27 6 6 0 0 0 .59 7.86l7.41 7.41a6.19 6.19 0 0 0 4.33 1.8 5.67 5.67 0 0 0 3.53-1.21 5.87 5.87 0 0 0 2.27-4.89l27.1-27.14a4.31 4.31 0 0 0 0-6.09l-7.15-7.15a4.27 4.27 0 0 0-3-1.26z" fill="#194093"/></svg>