<?xml version="1.0" encoding="utf-8"?>
<!-- Generator: Adobe Illustrator 24.2.0, SVG Export Plug-In . SVG Version: 6.00 Build 0)  -->
<svg version="1.1" xmlns="http://www.w3.org/2000/svg" x="0px" y="0px"
	 viewBox="0 0 87.87 87.87" style="enable-background:new 0 0 87.87 87.87;" xml:space="preserve">
<g id="Warstwa_3">
</g>
<g id="Warstwa_2">
	<g>
		<g>
			<g>
				<g>
					<g>
						<path d="M4.74,60.23c1.42,3.42,3.29,6.64,5.55,9.59l7.15-5.5c-1.78-2.32-3.26-4.86-4.38-7.55L4.74,60.23z"/>
					</g>
					<g>
						<path d="M18.13,77.65c2.94,2.26,6.17,4.13,9.59,5.55l3.46-8.33c-2.69-1.12-5.23-2.59-7.55-4.37L18.13,77.65z"/>
					</g>
					<g>
						<path d="M44.01,1.39C20.57,1.39,1.5,20.47,1.5,43.92c0,1.87,0.12,3.75,0.36,5.58l8.94-1.18c-0.19-1.45-0.29-2.93-0.29-4.41
							c0-18.47,15.03-33.5,33.5-33.5c18.48,0,33.51,15.03,33.51,33.5c0,18.47-15.03,33.5-33.51,33.5c-1.47,0-2.96-0.1-4.41-0.29
							l-1.17,8.94c1.84,0.24,3.72,0.36,5.58,0.36c23.45,0,42.52-19.08,42.52-42.52C86.54,20.47,67.46,1.39,44.01,1.39z"/>
					</g>
				</g>
			</g>
		</g>
		<g>
			<path d="M63.79,39.06l4.72-0.61l-0.31-2.39l-4.75,0.61c-0.33-1.54-0.87-3.03-1.62-4.42l4.02-2.66l-1.33-2l-4.01,2.65
				c-1.02-1.28-2.35-2.29-3.86-2.93l1.7-3.94l-2.21-0.95l-1.81,4.22c-0.91-0.15-1.85-0.18-2.78-0.07c-0.32,0.04-0.64,0.11-0.95,0.18
				l-1.93-4.08l-2.18,1.03l1.84,3.9c-0.8,0.43-1.53,0.96-2.16,1.6l-3.73-2.72l-1.42,1.94l3.71,2.7c-0.21,0.38-0.4,0.77-0.56,1.18
				l0,0c-0.2,0.5-0.35,1.02-0.5,1.54c-0.13,0.47-0.26,0.94-0.46,1.39c-0.08,0.18-0.18,0.34-0.27,0.51l-3.17-3.77l-1.84,1.55
				l3.41,4.05c-1,0.81-2.18,1.38-3.19,1.76c-0.44,0.17-0.9,0.31-1.35,0.45l-1.9-4.31l-2.2,0.97l1.77,4.01c0,0,0,0,0,0
				c-1.33,0.36-2.72,0.73-4.07,1.24c-0.25,0.1-0.48,0.2-0.71,0.3l-1.7-3.86l-2.2,0.97l1.77,4.02c-0.47,0.32-0.91,0.65-1.3,1.02
				c-0.51,0.49-0.95,1.04-1.32,1.64l-3.61-1.47l-0.91,2.23l3.52,1.43c-0.27,0.91-0.42,1.88-0.42,2.89c0,0.4,0.02,0.79,0.06,1.18
				l-3.69,1.16l0.72,2.29l3.48-1.09c0.47,1.46,1.23,2.8,2.22,3.92l-1.97,2.57l1.91,1.46l1.84-2.42c1.12,0.82,2.4,1.46,3.78,1.91
				l-0.89,3.68l2.33,0.57l0.89-3.66c0.91,0.15,1.85,0.23,2.81,0.23c0.74,0,1.49-0.05,2.25-0.14l0.87,3.84l2.34-0.53l-0.85-3.77
				c1.46-0.37,2.87-0.89,4.22-1.51l2.29,3.78l2.06-1.25l-2.18-3.61c2-1.09,3.86-2.33,5.59-3.54l3.03,3.44l1.8-1.59l-2.87-3.25
				c1.28-0.95,2.54-1.97,3.68-3.12l2.92,2.09l1.4-1.95l-2.74-1.97c0.1-0.14,0.21-0.27,0.31-0.41c0.78-1.1,1.37-2.32,1.81-3.6
				l4.71,0.71l0.36-2.38l-4.46-0.67C63.82,41.89,63.89,40.47,63.79,39.06z M52.03,52.76c-3.5,2.46-7.26,4.95-11.5,5.96
				c-3.4,0.81-8.13,0.63-11.21-2.33c-1.43-1.37-2.28-3.44-2.28-5.52c0-1.69,0.59-3.16,1.64-4.16c0.7-0.67,1.65-1.21,2.97-1.72
				c1.19-0.45,2.42-0.78,3.73-1.13c1.32-0.35,2.68-0.72,4.02-1.22c2.44-0.92,5.64-2.71,7.05-6.01c0.27-0.62,0.44-1.22,0.61-1.8
				c0.12-0.41,0.23-0.82,0.39-1.22c0.78-1.98,2.42-3.26,4.52-3.52c2.32-0.29,4.66,0.75,5.99,2.62c3.05,4.29,3.17,10.37,0.29,14.46
				C56.7,49.38,54.43,51.08,52.03,52.76z"/>
			<path d="M38.36,48.61c-1.63,0-2.96,1.32-2.96,2.96s1.32,2.96,2.96,2.96s2.96-1.32,2.96-2.96S39.99,48.61,38.36,48.61z"/>
			<path d="M52.35,36.06c-2.69,0-4.88,2.24-4.88,4.99c0,2.75,2.19,4.99,4.88,4.99s4.88-2.24,4.88-4.99
				C57.23,38.3,55.04,36.06,52.35,36.06z M52.35,43.63c-1.36,0-2.48-1.16-2.48-2.59c0-1.43,1.11-2.59,2.48-2.59s2.48,1.16,2.48,2.59
				C54.82,42.47,53.71,43.63,52.35,43.63z"/>
		</g>
	</g>
</g>
</svg>
