<?xml version="1.0" encoding="utf-8"?>
<!-- Generator: Adobe Illustrator 24.2.0, SVG Export Plug-In . SVG Version: 6.00 Build 0)  -->
<svg version="1.1" xmlns="http://www.w3.org/2000/svg" x="0px" y="0px"
	 viewBox="0 0 87.87 87.87" style="enable-background:new 0 0 87.87 87.87;" xml:space="preserve">
<g id="Warstwa_3">
</g>
<g id="Warstwa_2">
	<g>
		<g>
			<path d="M4.74,60.23c1.42,3.42,3.29,6.64,5.55,9.59l7.15-5.5c-1.78-2.32-3.26-4.86-4.38-7.55L4.74,60.23z"/>
			<path d="M18.13,77.65c2.95,2.26,6.17,4.13,9.59,5.55l3.46-8.33c-2.69-1.12-5.23-2.59-7.56-4.37L18.13,77.65z"/>
			<path d="M44.02,1.39C20.57,1.39,1.5,20.47,1.5,43.92c0,1.87,0.12,3.75,0.36,5.58l8.94-1.18c-0.19-1.45-0.29-2.93-0.29-4.41
				c0-18.47,15.03-33.5,33.5-33.5c18.48,0,33.51,15.03,33.51,33.5c0,18.47-15.03,33.5-33.51,33.5c-1.47,0-2.96-0.1-4.41-0.29
				l-1.17,8.94c1.84,0.24,3.72,0.36,5.58,0.36c23.45,0,42.53-19.08,42.53-42.52C86.54,20.47,67.47,1.39,44.02,1.39z"/>
			<path d="M34.33,40.37"/>
		</g>
		<path d="M48.83,21.56l-1.51,2.85l1.71,0.91l-5.26,9.91c-6.32-0.77-12.63,2.47-15.65,8.16C24.1,50.98,27,60.43,34.59,64.45
			c7.59,4.02,17.04,1.13,21.06-6.46c3.02-5.69,2.16-12.72-2.02-17.53l5.26-9.91l1.33,0.71l1.51-2.85L48.83,21.56z M38.34,57
			c-0.86,0-1.55-0.69-1.55-1.55c0-0.86,0.69-1.55,1.55-1.55s1.55,0.69,1.55,1.55C39.89,56.31,39.2,57,38.34,57z M47.55,58.19
			c-0.77,0.97-2.19,1.13-3.16,0.35c-0.97-0.77-1.13-2.19-0.35-3.16c0.77-0.97,2.19-1.13,3.16-0.35
			C48.16,55.8,48.32,57.22,47.55,58.19z M49.67,41.03c1.75,1.39,3.13,3.24,3.94,5.37h-0.21c0.01,0.01,0.01,0.03,0.02,0.04
			l-2.07-0.04H30.1c1.81-4.73,6.39-8.1,11.76-8.1c1.24,0,2.43,0.19,3.56,0.52l0.11,0.02l6.22-11.72l4.15,2.2L49.67,41.03z"/>
	</g>
</g>
</svg>
