<?xml version="1.0" encoding="utf-8"?>
<!-- Generator: Adobe Illustrator 24.2.0, SVG Export Plug-In . SVG Version: 6.00 Build 0)  -->
<svg version="1.1" id="Warstwa_3" xmlns="http://www.w3.org/2000/svg" x="0px" y="0px"
	 viewBox="0 0 87.87 87.87" style="enable-background:new 0 0 87.87 87.87;" xml:space="preserve">
<g>
	<g>
		<g>
			<g>
				<g>
					<path d="M4.74,60.23c1.42,3.42,3.29,6.64,5.55,9.59l7.15-5.5c-1.78-2.32-3.26-4.86-4.38-7.55L4.74,60.23z"/>
				</g>
				<g>
					<path d="M18.13,77.65c2.94,2.26,6.17,4.13,9.59,5.55l3.46-8.33c-2.69-1.12-5.23-2.59-7.55-4.37L18.13,77.65z"/>
				</g>
				<g>
					<path d="M44.01,1.39C20.57,1.39,1.5,20.47,1.5,43.92c0,1.87,0.12,3.75,0.36,5.58l8.94-1.18c-0.19-1.45-0.29-2.93-0.29-4.41
						c0-18.47,15.03-33.5,33.5-33.5c18.48,0,33.51,15.03,33.51,33.5c0,18.47-15.03,33.5-33.51,33.5c-1.47,0-2.96-0.1-4.41-0.29
						l-1.17,8.94c1.84,0.24,3.72,0.36,5.58,0.36c23.45,0,42.52-19.08,42.52-42.52C86.54,20.47,67.46,1.39,44.01,1.39z"/>
				</g>
			</g>
		</g>
	</g>
	<g>
		<path d="M45.94,41.56c-2.09-1.06-4.65-0.22-5.71,1.87S40,48.09,42.1,49.15c2.09,1.06,4.65,0.22,5.71-1.87
			C48.87,45.18,48.03,42.62,45.94,41.56z"/>
		<path d="M64.82,33.34c-1.48-2.57-5.12-3.57-10.24-2.81c-0.72,0.11-1.46,0.25-2.22,0.42c-1.1-3.53-2.61-6.27-4.4-7.91
			c0.03-0.19,0.06-0.38,0.06-0.58c0-2.07-1.69-3.76-3.76-3.76s-3.76,1.69-3.76,3.76c0,0.07,0.02,0.13,0.02,0.2
			c-1.99,1.57-3.66,4.47-4.85,8.29c-0.75-0.17-1.5-0.32-2.22-0.42c-5.12-0.75-8.76,0.25-10.24,2.81c-1.75,3.04-0.04,7.47,4.15,12.01
			c-4.18,4.54-5.9,8.97-4.15,12.01c1.16,2.01,3.64,3.06,7.12,3.06c0.96,0,2.01-0.08,3.12-0.24c0.72-0.11,1.46-0.25,2.22-0.42
			c1.84,5.91,4.83,9.62,8.35,9.62c3.51,0,6.51-3.71,8.35-9.62c0.51,0.12,1.02,0.21,1.52,0.3c0.53,1.44,1.9,2.48,3.52,2.48
			c1.63,0,3.01-1.05,3.53-2.5c1.8-0.47,3.13-1.36,3.89-2.68c1.75-3.04,0.04-7.47-4.15-12.01C64.85,40.82,66.57,36.38,64.82,33.34z
			 M33.09,57.71c-3.98,0.58-6.79,0-7.71-1.59c-1.05-1.82,0.33-5.21,3.76-8.96c1.42,1.34,3.06,2.67,4.87,3.97
			c0.22,2.22,0.56,4.31,1.01,6.22C34.36,57.49,33.71,57.61,33.09,57.71z M33.77,47.81c-1.04-0.82-1.99-1.64-2.86-2.46
			c0.86-0.82,1.82-1.64,2.86-2.46c-0.03,0.81-0.05,1.63-0.05,2.46C33.72,46.19,33.74,47.01,33.77,47.81z M34,39.58
			c-1.81,1.3-3.44,2.63-4.87,3.97c-3.42-3.75-4.81-7.14-3.76-8.96c0.69-1.19,2.42-1.81,4.91-1.81c0.85,0,1.79,0.07,2.8,0.22
			c0.62,0.09,1.27,0.22,1.93,0.36C34.56,35.27,34.22,37.36,34,39.58z M51.27,37.71c-0.68-0.43-1.38-0.86-2.1-1.27
			c-0.72-0.41-1.44-0.81-2.16-1.18c1.21-0.48,2.4-0.9,3.56-1.25C50.84,35.16,51.08,36.4,51.27,37.71z M44.26,20.67
			c0.99,0,1.79,0.8,1.79,1.79s-0.8,1.79-1.79,1.79s-1.79-0.8-1.79-1.79S43.27,20.67,44.26,20.67z M41.57,25.08
			c0.68,0.7,1.64,1.15,2.69,1.15c0.93,0,1.77-0.35,2.43-0.91c1.2,1.32,2.33,3.47,3.22,6.29c-1.91,0.57-3.89,1.31-5.89,2.21
			c-2-0.9-3.98-1.64-5.89-2.21C39.07,28.61,40.28,26.37,41.57,25.08z M37.47,34.01c1.16,0.35,2.35,0.76,3.56,1.25
			c-0.72,0.38-1.44,0.77-2.16,1.18c-0.72,0.42-1.42,0.84-2.1,1.27C36.96,36.4,37.19,35.16,37.47,34.01z M36.77,53
			c0.68,0.43,1.38,0.86,2.1,1.27c0.72,0.41,1.44,0.81,2.16,1.18c-1.21,0.48-2.4,0.9-3.56,1.25C37.19,55.54,36.96,54.31,36.77,53z
			 M44.02,66.88c-2.11,0-4.36-2.91-5.89-7.77c1.91-0.57,3.89-1.31,5.89-2.21c2,0.9,3.98,1.64,5.89,2.21
			C48.37,63.97,46.13,66.88,44.02,66.88z M50.57,56.7c-1.16-0.35-2.35-0.76-3.56-1.25c0.72-0.38,1.44-0.77,2.16-1.18
			c0.72-0.42,1.42-0.84,2.1-1.27C51.08,54.31,50.84,55.54,50.57,56.7z M51.64,49.75c-1.16,0.8-2.4,1.59-3.72,2.35
			c-1.3,0.75-2.6,1.43-3.9,2.05c-1.3-0.62-2.6-1.3-3.9-2.05c-1.32-0.76-2.56-1.55-3.72-2.35c-0.11-1.41-0.17-2.87-0.17-4.4
			c0-1.53,0.06-2.99,0.17-4.4c1.16-0.8,2.4-1.59,3.72-2.35c1.3-0.75,2.6-1.43,3.9-2.05c1.3,0.62,2.6,1.3,3.9,2.05
			c1.32,0.76,2.56,1.55,3.72,2.35c0.11,1.41,0.17,2.87,0.17,4.4C51.81,46.88,51.75,48.35,51.64,49.75z M54.94,33
			c1.01-0.15,1.95-0.22,2.8-0.22c2.49,0,4.22,0.63,4.91,1.81c1.05,1.82-0.33,5.21-3.76,8.96c-1.42-1.34-3.06-2.67-4.87-3.97
			c-0.22-2.22-0.56-4.31-1.01-6.22C53.68,33.22,54.32,33.09,54.94,33z M54.26,42.9c1.04,0.82,1.99,1.64,2.86,2.46
			c-0.86,0.82-1.82,1.64-2.86,2.46c0.03-0.81,0.05-1.63,0.05-2.46C54.31,44.52,54.29,43.7,54.26,42.9z M58.06,60.41
			c0.01,0,0.01,0,0.02,0c-0.21,0.09-0.43,0.13-0.67,0.13c-0.2,0-0.39-0.05-0.57-0.11c-0.04-0.01-0.08-0.02-0.12-0.04
			c-0.01,0-0.02-0.01-0.03-0.01c0,0,0.01,0,0.01,0c-0.61-0.27-1.04-0.89-1.04-1.6c0-0.36,0.11-0.69,0.29-0.96c0,0,0,0,0,0
			c0-0.01,0.01-0.01,0.01-0.02c0.07-0.1,0.15-0.19,0.24-0.28c0.04-0.04,0.08-0.07,0.12-0.1c0.06-0.05,0.12-0.09,0.18-0.13
			c0.05-0.03,0.11-0.06,0.16-0.09c0.06-0.03,0.12-0.05,0.18-0.07c0.06-0.02,0.12-0.04,0.19-0.06c0.07-0.02,0.14-0.02,0.21-0.03
			c0.06-0.01,0.11-0.02,0.17-0.02c0.05,0,0.09,0.01,0.14,0.02c0.09,0.01,0.17,0.02,0.26,0.03c0.06,0.01,0.11,0.03,0.17,0.05
			c0.08,0.03,0.15,0.06,0.22,0.09c0.04,0.02,0.09,0.04,0.13,0.07c0.11,0.07,0.2,0.14,0.29,0.22c0,0,0.01,0.01,0.01,0.01
			c0.1,0.1,0.18,0.21,0.26,0.33c0,0.01,0.01,0.01,0.02,0.02c0,0,0,0,0,0c0.16,0.26,0.26,0.57,0.26,0.9
			C59.16,59.52,58.7,60.15,58.06,60.41z M62.65,56.12c-0.34,0.59-0.93,1.03-1.74,1.33c-0.54-1.42-1.9-2.43-3.5-2.43
			c-1.62,0-3,1.04-3.52,2.49c-0.29-0.06-0.57-0.1-0.86-0.16c0.45-1.91,0.79-4,1.01-6.22c1.81-1.3,3.44-2.63,4.87-3.97
			C62.32,50.9,63.71,54.29,62.65,56.12z"/>
	</g>
</g>
</svg>
