<?xml version="1.0" encoding="utf-8"?>
<!-- Generator: Adobe Illustrator 24.2.0, SVG Export Plug-In . SVG Version: 6.00 Build 0)  -->
<svg version="1.1" xmlns="http://www.w3.org/2000/svg" x="0px" y="0px"
	 viewBox="0 0 87.87 87.87" style="enable-background:new 0 0 87.87 87.87;" xml:space="preserve">
<g id="Warstwa_3">
</g>
<g id="Warstwa_2">
	<g>
		<g>
			<g>
				<path d="M44.02,1.4C20.57,1.4,1.5,20.47,1.5,43.92c0,23.44,19.07,42.52,42.52,42.52c23.45,0,42.52-19.07,42.52-42.52
					C86.54,20.47,67.46,1.4,44.02,1.4z M44.02,77.42c-18.47,0-33.5-15.03-33.5-33.5c0-18.47,15.03-33.5,33.5-33.5
					c18.47,0,33.5,15.03,33.5,33.5C77.52,62.39,62.49,77.42,44.02,77.42z"/>
			</g>
		</g>
		<path d="M60.89,49.71c0-7.17-5.06-13.16-11.79-14.64l5.21-10.29l-11.77-5.96L30.81,41.99l2.84,1.44l-3.07,6.06l5.46,2.77
			l3.07-6.06l3.46,1.75l5.05-9.96c5.72,0.85,10.12,5.77,10.12,11.72c0,6.55-5.32,11.87-11.87,11.87c-3.36,0-6.38-1.41-8.54-3.67h7
			v-3.3h-17.2v3.3h6.18c1.71,2.6,4.19,4.65,7.12,5.79h-5.56v3.3h22.26v-3.3h-5.87C56.89,61.54,60.89,56.09,60.89,49.71z"/>
	</g>
</g>
</svg>
