<?xml version="1.0" encoding="utf-8"?>
<!-- Generator: Adobe Illustrator 24.2.0, SVG Export Plug-In . SVG Version: 6.00 Build 0)  -->
<svg version="1.1" xmlns="http://www.w3.org/2000/svg" x="0px" y="0px"
	 viewBox="0 0 87.87 87.87" style="enable-background:new 0 0 87.87 87.87;" xml:space="preserve">
<g id="Warstwa_3">
</g>
<g id="Warstwa_2">
	<g>
		<g>
			<g>
				<path d="M44.02,1.4C20.57,1.4,1.5,20.47,1.5,43.92c0,23.44,19.07,42.52,42.52,42.52c23.45,0,42.52-19.07,42.52-42.52
					C86.54,20.47,67.46,1.4,44.02,1.4z M44.02,77.42c-18.47,0-33.5-15.03-33.5-33.5c0-18.47,15.03-33.5,33.5-33.5
					c18.47,0,33.5,15.03,33.5,33.5C77.52,62.39,62.49,77.42,44.02,77.42z"/>
			</g>
		</g>
		<g>
			<path d="M46.36,20h-3.5v7.92l-13.5,7.79v15.06l-9.19,4.59l1.57,3.13l9.02-4.51l11.97,6.91v8.41h3.5V60.9l13.38-7.72V35.71
				l-13.25-7.65V20z M56.12,51.16l-11.63,6.71l-11.62-6.71V37.74l11.62-6.71l11.63,6.71V51.16z"/>
			<rect x="62.35" y="35.94" width="3.5" height="16.94"/>
			<rect x="38.66" y="44.96" transform="matrix(0.5094 -0.8605 0.8605 0.5094 -24.1626 59.8538)" width="3.5" height="12.33"/>
		</g>
	</g>
</g>
</svg>
