<?xml version="1.0" encoding="utf-8"?>
<!-- Generator: Adobe Illustrator 24.2.0, SVG Export Plug-In . SVG Version: 6.00 Build 0)  -->
<svg version="1.1" xmlns="http://www.w3.org/2000/svg" x="0px" y="0px"
	 viewBox="0 0 87.87 87.87" style="enable-background:new 0 0 87.87 87.87;" xml:space="preserve">
<g id="Warstwa_3">
</g>
<g id="Warstwa_2">
	<g>
		<g>
			<g>
				<path d="M44.02,1.39C20.57,1.39,1.5,20.47,1.5,43.92c0,23.44,19.07,42.52,42.52,42.52c23.45,0,42.52-19.08,42.52-42.52
					C86.54,20.47,67.46,1.39,44.02,1.39z M44.02,77.42c-18.47,0-33.5-15.03-33.5-33.5c0-18.47,15.03-33.5,33.5-33.5
					c18.47,0,33.5,15.03,33.5,33.5C77.52,62.39,62.49,77.42,44.02,77.42z"/>
			</g>
		</g>
		<path d="M61.9,52.4V33.08h2.33v-6.16H30.29v6.16h3.22l-8.57,16.92c-1.83-0.3-3.71,0.57-4.6,2.31c-1.09,2.15-0.23,4.77,1.92,5.86
			c2.15,1.09,4.77,0.23,5.86-1.92c0.88-1.74,0.47-3.78-0.85-5.07l9.17-18.1h3.64V52.4c-1.77,0.56-3.05,2.19-3.05,4.14
			c0,2.41,1.95,4.36,4.36,4.36c2.41,0,4.36-1.95,4.36-4.36c0-1.95-1.29-3.58-3.06-4.14V33.08h6.99V52.4
			c-1.77,0.56-3.05,2.19-3.05,4.14c0,2.41,1.95,4.36,4.36,4.36s4.36-1.95,4.36-4.36c0-1.95-1.29-3.58-3.06-4.14V33.08h6.99V52.4
			c-1.77,0.56-3.05,2.19-3.05,4.14c0,2.41,1.95,4.36,4.36,4.36c2.41,0,4.36-1.95,4.36-4.36C64.96,54.59,63.67,52.96,61.9,52.4z"/>
	</g>
</g>
</svg>
