<?xml version="1.0" encoding="UTF-8"?>
<svg xmlns="http://www.w3.org/2000/svg" version="1.1" width="512px" height="512px" style="shape-rendering:geometricPrecision; text-rendering:geometricPrecision; image-rendering:optimizeQuality; fill-rule:evenodd; clip-rule:evenodd">
<g><path style="opacity:0.933" fill="#000000" d="M 318.5,31.5 C 330.107,29.7577 339.941,33.091 348,41.5C 356.022,52.2187 361.356,64.2187 364,77.5C 365.004,84.8649 366.17,92.1982 367.5,99.5C 387.167,109.167 401.833,123.833 411.5,143.5C 430.354,144.795 448.021,149.961 464.5,159C 480.677,170.711 483.843,185.211 474,202.5C 462.645,214.262 448.812,221.429 432.5,224C 422.929,226.119 413.262,226.786 403.5,226C 399.96,224.764 397.96,222.264 397.5,218.5C 410.107,183.953 403.774,153.453 378.5,127C 346.754,102.896 313.754,101.229 279.5,122C 252.184,143.942 242.351,172.109 250,206.5C 259.002,234.834 277.835,253.001 306.5,261C 333.725,267.527 357.725,261.527 378.5,243C 389.046,241.208 392.879,245.375 390,255.5C 383.631,262.271 376.131,267.438 367.5,271C 427.221,325.952 458.721,394.119 462,475.5C 458.692,479.327 454.526,480.494 449.5,479C 423.847,436.671 386.18,417.338 336.5,421C 320.415,423.584 305.248,428.75 291,436.5C 288.485,435.885 286.152,434.885 284,433.5C 264.599,400.53 235.766,381.697 197.5,377C 183.248,375.698 169.248,377.032 155.5,381C 145.79,384.025 136.456,387.859 127.5,392.5C 121.051,391.558 118.218,387.891 119,381.5C 141.676,338.379 139.343,296.712 112,256.5C 102.534,244.199 91.0341,234.366 77.5,227C 74.3286,223.491 73.8286,219.657 76,215.5C 97.3039,173.792 94.9706,133.459 69,94.5C 58.5553,81.389 46.222,70.389 32,61.5C 30.5063,56.4744 31.6729,52.3077 35.5,49C 105.691,51.53 166.857,76.03 219,122.5C 222.632,132.536 219.132,137.036 208.5,136C 168.61,100.557 122.277,78.2236 69.5,69C 103.686,104.902 114.853,147.069 103,195.5C 100.946,203.001 98.1123,210.167 94.5,217C 144.767,254.769 161.767,304.269 145.5,365.5C 206.725,349.23 256.225,366.23 294,416.5C 341.775,395.293 386.941,399.793 429.5,430C 433.633,433.131 437.466,436.631 441,440.5C 429.794,375.078 399.127,320.744 349,277.5C 307.425,286.538 273.758,274.205 248,240.5C 228.967,211.714 225.3,181.048 237,148.5C 247.05,126.697 262.716,110.364 284,99.5C 285.056,82.2747 289.389,65.9413 297,50.5C 302.205,41.7863 309.371,35.4529 318.5,31.5 Z M 322.5,48.5 C 325.649,48.2114 328.649,48.7114 331.5,50C 338.779,57.0512 343.612,65.5512 346,75.5C 347.302,81.0146 348.469,86.5146 349.5,92C 333.833,89.8602 318.167,90.0268 302.5,92.5C 303.279,77.6586 308.113,64.3253 317,52.5C 319.015,51.3034 320.849,49.9701 322.5,48.5 Z M 418.5,162.5 C 434.348,162.834 448.181,168.168 460,178.5C 464.474,187.08 462.307,193.58 453.5,198C 442.637,204.233 430.97,207.733 418.5,208.5C 421.167,193.166 421.167,177.832 418.5,162.5 Z"/></g>
<g><path style="opacity:0.889" fill="#000000" d="M 306.5,146.5 C 315.658,145.491 319.492,149.491 318,158.5C 312.866,164.635 307.366,170.469 301.5,176C 293.819,180.319 288.819,178.319 286.5,170C 286.542,168.033 287.042,166.199 288,164.5C 294.062,158.27 300.229,152.27 306.5,146.5 Z"/></g>
<g><path style="opacity:0.889" fill="#000000" d="M 352.5,192.5 C 363.039,191.915 366.539,196.581 363,206.5C 357.5,212 352,217.5 346.5,223C 339.123,225.978 334.456,223.645 332.5,216C 332.909,213.679 333.743,211.513 335,209.5C 340.729,203.603 346.562,197.936 352.5,192.5 Z"/></g>
</svg>
