<?xml version="1.0" encoding="UTF-8"?>
<svg xmlns="http://www.w3.org/2000/svg" version="1.1" width="512px" height="512px" style="shape-rendering:geometricPrecision; text-rendering:geometricPrecision; image-rendering:optimizeQuality; fill-rule:evenodd; clip-rule:evenodd">
<g><path style="opacity:0.944" fill="#000000" d="M 448.5,-0.5 C 456.167,-0.5 463.833,-0.5 471.5,-0.5C 493.167,4.5 506.5,17.8333 511.5,39.5C 511.5,47.1667 511.5,54.8333 511.5,62.5C 506.126,89.2159 493.459,111.883 473.5,130.5C 484.313,135.321 493.813,141.987 502,150.5C 507.453,157.709 510.619,165.709 511.5,174.5C 511.5,175.167 511.5,175.833 511.5,176.5C 510.412,190.169 504.412,201.335 493.5,210C 464.046,229.445 432.38,233.778 398.5,223C 390.999,220.946 383.833,218.112 377,214.5C 382.078,224.347 386.412,234.68 390,245.5C 395.9,272.792 389.733,296.959 371.5,318C 359.351,322.672 353.851,318.505 355,305.5C 357.698,301.633 360.198,297.633 362.5,293.5C 354.848,285.348 347.015,277.348 339,269.5C 334.561,260.046 337.394,254.046 347.5,251.5C 349.115,252.154 350.782,252.654 352.5,253C 358.667,259.167 364.833,265.333 371,271.5C 371.945,257.613 368.945,244.613 362,232.5C 355.314,221.128 347.647,210.461 339,200.5C 322.95,182.438 305.117,166.605 285.5,153C 271.875,143.79 256.875,139.457 240.5,140C 230.309,141.508 220.976,145.174 212.5,151C 201.398,159.267 191.065,168.433 181.5,178.5C 191.819,189.319 202.319,199.986 213,210.5C 215.923,223.805 210.757,228.638 197.5,225C 187.319,214.652 176.986,204.486 166.5,194.5C 163.111,197.6 159.945,200.933 157,204.5C 125.981,244.687 97.8145,286.854 72.5,331C 84.6667,343.167 96.8333,355.333 109,367.5C 114.559,376.897 112.059,383.23 101.5,386.5C 99.8849,385.846 98.2182,385.346 96.5,385C 84.6958,374.197 73.1958,363.03 62,351.5C 42.8453,383.627 29.1786,417.961 21,454.5C 20.0991,462.579 20.4325,470.579 22,478.5C 24.1932,485.017 28.6932,488.85 35.5,490C 56.0954,491.214 75.762,487.547 94.5,479C 90.6667,475.167 86.8333,471.333 83,467.5C 79.5807,461.727 80.414,456.561 85.5,452C 89.5,450 93.5,450 97.5,452C 103.5,458 109.5,464 115.5,470C 116.5,470.667 117.5,470.667 118.5,470C 169.256,445.802 217.589,417.802 263.5,386C 265.007,385.163 265.507,383.996 265,382.5C 249,366.5 233,350.5 217,334.5C 212.335,325.145 215.002,319.145 225,316.5C 226.888,316.796 228.722,317.296 230.5,318C 248.469,335.969 266.302,353.802 284,371.5C 288.7,366.738 294.2,363.405 300.5,361.5C 311.298,365.204 313.298,371.704 306.5,381C 257.025,417.922 204.691,450.589 149.5,479C 120.576,494.139 90.2423,504.972 58.5,511.5C 49.8333,511.5 41.1667,511.5 32.5,511.5C 14.5,507.5 3.5,496.5 -0.5,478.5C -0.5,469.833 -0.5,461.167 -0.5,452.5C 6.30367,420.859 17.137,390.526 32,361.5C 65.5295,295.728 105.53,234.394 152,177.5C 165.597,162.899 180.097,149.399 195.5,137C 220.558,117.706 247.891,113.706 277.5,125C 283.856,128.349 290.19,131.349 296.5,134C 280.575,102.389 278.409,69.8895 290,36.5C 296.07,20.4319 306.904,8.9319 322.5,2C 341.355,-2.82624 356.855,2.34043 369,17.5C 373.1,24.0356 376.933,30.7023 380.5,37.5C 399.041,17.5603 421.707,4.89368 448.5,-0.5 Z M 460.5,19.5 C 476.083,19.8669 485.916,27.5336 490,42.5C 491.258,64.0619 485.258,83.3952 472,100.5C 453.446,122.372 430.613,138.205 403.5,148C 384.738,154.936 365.738,160.102 346.5,163.5C 352.609,133.336 362.776,104.669 377,77.5C 391.33,52.4991 411.83,34.6658 438.5,24C 445.829,21.7681 453.162,20.2681 460.5,19.5 Z M 329.5,21.5 C 338.727,20.1975 346.227,23.1975 352,30.5C 357.768,38.4648 361.602,47.2981 363.5,57C 347.353,86.0967 335.52,116.93 328,149.5C 317.199,131.764 309.532,112.764 305,92.5C 300.554,69.9314 304.887,49.2648 318,30.5C 321.449,26.8766 325.283,23.8766 329.5,21.5 Z M 450.5,147.5 C 464.476,148.738 476.309,154.405 486,164.5C 490.916,172.748 490.582,180.748 485,188.5C 465.813,205.173 443.646,211.007 418.5,206C 398.076,201.859 379.076,194.192 361.5,183C 388.51,176.441 414.51,167.108 439.5,155C 443.58,152.971 447.246,150.471 450.5,147.5 Z"/></g>
<g><path style="opacity:0.889" fill="#000000" d="M 331.5,332.5 C 342.032,332.199 346.199,337.199 344,347.5C 340.945,352.635 336.445,354.468 330.5,353C 324.704,349.606 322.871,344.773 325,338.5C 326.436,335.558 328.603,333.558 331.5,332.5 Z"/></g>
</svg>
