<?xml version="1.0" encoding="UTF-8"?>
<svg xmlns="http://www.w3.org/2000/svg" version="1.1" width="512px" height="512px" style="shape-rendering:geometricPrecision; text-rendering:geometricPrecision; image-rendering:optimizeQuality; fill-rule:evenodd; clip-rule:evenodd">
<g><path style="opacity:0.959" fill="#000000" d="M 265.5,-0.5 C 268.833,-0.5 272.167,-0.5 275.5,-0.5C 324.773,23.469 374.106,47.469 423.5,71.5C 425.651,73.7723 427.151,76.439 428,79.5C 436.47,102.578 445.137,125.578 454,148.5C 470.236,160.701 486.736,172.535 503.5,184C 506.692,186.028 509.359,188.528 511.5,191.5C 511.5,266.833 511.5,342.167 511.5,417.5C 493.522,446.774 476.022,476.441 459,506.5C 457.634,508.362 456.134,510.028 454.5,511.5C 367.833,511.5 281.167,511.5 194.5,511.5C 176.423,505.056 158.089,499.056 139.5,493.5C 112.259,499.012 85.259,505.012 58.5,511.5C 55.1667,511.5 51.8333,511.5 48.5,511.5C 47.2073,509.704 45.7073,508.037 44,506.5C 29.3921,476.285 14.5587,446.285 -0.5,416.5C -0.5,360.167 -0.5,303.833 -0.5,247.5C 1.26589,245.229 3.26589,243.063 5.5,241C 48.2907,206.545 90.7907,171.711 133,136.5C 148.533,107.262 164.7,78.4291 181.5,50C 209.729,33.3923 237.729,16.559 265.5,-0.5 Z M 280.5,26.5 C 323.178,46.5058 365.844,66.5058 408.5,86.5C 416.527,109.413 424.861,132.246 433.5,155C 426.215,166.4 419.048,177.9 412,189.5C 411.333,192.5 411.333,195.5 412,198.5C 438.333,229.5 464.667,260.5 491,291.5C 491.667,330.833 491.667,370.167 491,409.5C 476.395,435.248 461.228,460.582 445.5,485.5C 419.833,472.667 394.167,459.833 368.5,447C 363.266,446.023 358.266,446.69 353.5,449C 319.914,463.195 286.248,477.195 252.5,491C 235.5,491.667 218.5,491.667 201.5,491C 181.197,484.399 160.864,477.899 140.5,471.5C 113.752,477.187 87.0853,483.187 60.5,489.5C 47.1334,463.934 34.1334,438.101 21.5,412C 36.3333,386.5 51.1667,361 66,335.5C 66.6667,332.167 66.6667,328.833 66,325.5C 52.0336,301.732 38.2002,277.899 24.5,254C 63.5225,221.313 102.856,188.98 142.5,157C 162.122,158.288 181.789,158.955 201.5,159C 227.285,141.691 252.452,123.524 277,104.5C 277.333,102.833 277.667,101.167 278,99.5C 278.52,75.0924 279.354,50.7591 280.5,26.5 Z M 256.5,29.5 C 257.829,34.7918 258.496,40.4585 258.5,46.5C 258.044,62.1681 257.544,77.8347 257,93.5C 236.765,108.701 216.265,123.534 195.5,138C 182.749,138.411 170.082,137.578 157.5,135.5C 169.799,112.706 182.299,90.0396 195,67.5C 215.48,54.6828 235.98,42.0161 256.5,29.5 Z M 448.5,171.5 C 462.787,181.28 476.954,191.28 491,201.5C 491.667,220.5 491.667,239.5 491,258.5C 473.041,236.872 454.707,215.539 436,194.5C 435.333,193.167 435.333,191.833 436,190.5C 440.389,184.284 444.556,177.951 448.5,171.5 Z M 19.5,289.5 C 28.2461,302.648 36.2461,316.315 43.5,330.5C 35.9366,344.624 28.1033,358.624 20,372.5C 19.5,344.835 19.3334,317.169 19.5,289.5 Z M 361.5,468.5 C 377.829,475.163 393.829,482.663 409.5,491C 375.833,491.667 342.167,491.667 308.5,491C 326.256,483.448 343.923,475.948 361.5,468.5 Z"/></g>
<g><path style="opacity:0.891" fill="#000000" d="M 342.5,141.5 C 354.324,139.824 359.158,144.824 357,156.5C 353.345,161.275 348.512,162.775 342.5,161C 337.725,157.345 336.225,152.512 338,146.5C 339.366,144.638 340.866,142.972 342.5,141.5 Z"/></g>
<g><path style="opacity:0.95" fill="#000000" d="M 363.5,176.5 C 369.07,175.416 373.57,177.083 377,181.5C 408.959,236.422 440.126,291.755 470.5,347.5C 468.812,355.027 464.145,358.527 456.5,358C 454.998,357.417 453.665,356.584 452.5,355.5C 439.081,332.997 425.914,310.33 413,287.5C 403.744,294.212 394.577,301.045 385.5,308C 376.013,308.504 366.846,307.004 358,303.5C 357.333,317.5 357.333,331.5 358,345.5C 363.667,358.5 369.333,371.5 375,384.5C 383.382,394.548 391.382,404.881 399,415.5C 400.333,426.498 395.5,430.998 384.5,429C 374.403,417.961 364.903,406.461 356,394.5C 352.591,386.019 348.924,377.686 345,369.5C 339.333,377.167 333.667,384.833 328,392.5C 328.713,407.149 329.046,421.816 329,436.5C 322.667,443.167 316.333,443.167 310,436.5C 307.672,419.91 306.672,403.243 307,386.5C 316.754,371.992 326.754,357.659 337,343.5C 337.833,331.153 337.666,318.82 336.5,306.5C 327.5,310.333 318.5,314.167 309.5,318C 303.622,319.653 298.788,318.153 295,313.5C 288.411,300.824 282.244,287.99 276.5,275C 278.711,265.591 284.378,262.591 293.5,266C 294.667,267.167 295.833,268.333 297,269.5C 301.007,278.187 305.507,286.52 310.5,294.5C 319.167,290.833 327.833,287.167 336.5,283.5C 337.333,270.846 337.833,258.18 338,245.5C 344.287,238.843 350.62,238.843 357,245.5C 357.5,257.829 357.667,270.162 357.5,282.5C 364.482,283.621 371.316,285.287 378,287.5C 386.077,281.212 394.244,275.045 402.5,269C 387.54,242.915 372.707,216.748 358,190.5C 356.268,184.314 358.101,179.647 363.5,176.5 Z"/></g>
<g><path style="opacity:0.951" fill="#000000" d="M 180.5,196.5 C 187.78,195.387 192.28,198.387 194,205.5C 196.067,219.805 197.901,234.138 199.5,248.5C 200.242,254.85 197.575,259.017 191.5,261C 169.239,268.143 146.905,274.977 124.5,281.5C 127.167,298.169 129.834,314.836 132.5,331.5C 163.873,333.218 195.207,335.385 226.5,338C 230.366,341.252 232.533,345.419 233,350.5C 237.539,373.527 242.205,396.527 247,419.5C 249.497,430.995 244.997,436.162 233.5,435C 231.714,434.215 230.214,433.049 229,431.5C 224.494,414.304 220.494,396.971 217,379.5C 209,395.5 201,411.5 193,427.5C 186.264,434.346 179.93,434.013 174,426.5C 173.333,423.5 173.333,420.5 174,417.5C 184.422,397.656 194.589,377.656 204.5,357.5C 181.744,355.411 159.077,354.077 136.5,353.5C 140.729,373.476 144.895,393.476 149,413.5C 151.518,424.975 147.018,430.142 135.5,429C 133.714,428.215 132.214,427.049 131,425.5C 126.494,408.304 122.494,390.971 119,373.5C 111,389.5 103,405.5 95,421.5C 89.3256,427.787 83.3256,428.12 77,422.5C 74.8118,418.84 74.4785,415.174 76,411.5C 88.6965,387.44 100.863,363.107 112.5,338.5C 109.282,320.524 106.282,302.524 103.5,284.5C 93.8276,284.666 84.1609,284.5 74.5,284C 67.8333,277.667 67.8333,271.333 74.5,265C 96.8926,267.299 118.226,263.799 138.5,254.5C 135.502,243.682 134.002,232.682 134,221.5C 137.055,216.365 141.555,214.532 147.5,216C 149.286,216.785 150.786,217.951 152,219.5C 154.994,228.971 157.161,238.638 158.5,248.5C 164.89,247.037 171.223,245.37 177.5,243.5C 176.168,231.841 174.835,220.174 173.5,208.5C 172.795,202.56 175.128,198.56 180.5,196.5 Z"/></g>
</svg>
