<?xml version="1.0" encoding="UTF-8"?>
<svg xmlns="http://www.w3.org/2000/svg" version="1.1" width="512px" height="512px" style="shape-rendering:geometricPrecision; text-rendering:geometricPrecision; image-rendering:optimizeQuality; fill-rule:evenodd; clip-rule:evenodd">
<g><path style="opacity:0.968" fill="#000000" d="M 138.5,68.5 C 175.532,67.267 205.365,81.267 228,110.5C 253.802,146.562 268.135,186.895 271,231.5C 275.851,284.58 265.851,334.58 241,381.5C 229.975,400.859 215.142,416.693 196.5,429C 158.465,449.493 122.465,446.493 88.5,420C 62.4683,396.128 44.9683,366.961 36,332.5C 20.451,274.538 22.451,217.205 42,160.5C 51.6496,133.352 67.1496,110.186 88.5,91C 103.14,78.8438 119.807,71.3438 138.5,68.5 Z M 141.5,101.5 C 158.459,100.431 173.459,105.265 186.5,116C 207.217,135.42 221.383,158.92 229,186.5C 231.76,196.975 234.26,207.475 236.5,218C 231.348,216.174 226.015,214.507 220.5,213C 198.751,210.623 182.917,219.123 173,238.5C 164.784,266.233 173.951,285.733 200.5,297C 207.11,298.441 213.776,298.774 220.5,298C 226.015,296.493 231.348,294.826 236.5,293C 231.915,323.326 221.081,351.159 204,376.5C 193.101,391.52 178.935,402.02 161.5,408C 143.829,411.582 127.829,407.915 113.5,397C 94.9233,380.733 81.4233,360.9 73,337.5C 53.6667,282.833 53.6667,228.167 73,173.5C 82.0663,147.46 97.5663,126.294 119.5,110C 126.618,106.245 133.951,103.412 141.5,101.5 Z"/></g>
<g><path style="opacity:0.967" fill="#000000" d="M 353.5,68.5 C 379.555,66.9076 402.555,74.4076 422.5,91C 448.029,115.204 465.529,144.371 475,178.5C 491.502,240.294 488.169,300.96 465,360.5C 453.239,387.877 435.406,410.377 411.5,428C 378.591,447.272 345.591,447.272 312.5,428C 301.596,420.639 292.096,411.806 284,401.5C 283.333,400.5 283.333,399.5 284,398.5C 289.836,388.161 295.002,377.494 299.5,366.5C 312.476,389.305 331.809,403.471 357.5,409C 378.155,409.591 395.322,402.091 409,386.5C 431.823,359.192 444.989,327.859 448.5,292.5C 427.147,303.129 408.314,299.795 392,282.5C 378.126,260.031 380.626,239.531 399.5,221C 415.339,210.711 431.672,209.878 448.5,218.5C 445.198,186.548 434.031,157.548 415,131.5C 380.294,91.9762 344.961,91.6429 309,130.5C 306.068,135.377 302.901,140.043 299.5,144.5C 295.002,133.506 289.836,122.839 284,112.5C 283.582,110.212 284.249,108.212 286,106.5C 303.735,85.3821 326.235,72.7155 353.5,68.5 Z"/></g>
</svg>
