<?xml version="1.0" encoding="UTF-8"?>
<svg xmlns="http://www.w3.org/2000/svg" version="1.1" width="512px" height="512px" style="shape-rendering:geometricPrecision; text-rendering:geometricPrecision; image-rendering:optimizeQuality; fill-rule:evenodd; clip-rule:evenodd">
<g><path style="opacity:0.94" fill="#000000" d="M 321.5,-0.5 C 326.167,-0.5 330.833,-0.5 335.5,-0.5C 341.007,2.41904 346.673,5.08571 352.5,7.5C 366.726,3.15982 381.059,2.65982 395.5,6C 406.123,9.81924 416.456,14.3192 426.5,19.5C 436.543,8.77958 448.21,6.61291 461.5,13C 464.016,15.6833 466.683,18.1833 469.5,20.5C 481.828,14.9772 492.661,16.9772 502,26.5C 506.071,32.616 507.405,39.2827 506,46.5C 499.043,79.9093 493.71,113.576 490,147.5C 487.73,155.217 482.897,157.383 475.5,154C 473.022,150.999 472.022,147.499 472.5,143.5C 476.063,109.223 481.397,75.2235 488.5,41.5C 487.655,36.1561 484.655,34.3227 479.5,36C 469.485,42.7463 461.152,41.0796 454.5,31C 451.359,27.3715 447.692,26.7049 443.5,29C 439.474,34.2032 434.474,38.0365 428.5,40.5C 419.711,36.6059 411.045,32.4392 402.5,28C 394.625,24.1145 386.292,21.9478 377.5,21.5C 368.551,22.6129 359.718,24.2796 351,26.5C 349.5,26.3333 348,26.1667 346.5,26C 340.873,22.3527 334.873,19.5194 328.5,17.5C 322.607,19.7799 316.94,22.6132 311.5,26C 310,26.1667 308.5,26.3333 307,26.5C 298.109,24.3219 289.109,22.6553 280,21.5C 272.941,21.9844 266.108,23.4844 259.5,26C 249.515,31.2426 239.349,36.076 229,40.5C 223.055,38.8913 218.555,35.3913 215.5,30C 212.42,27.1845 209.087,26.8511 205.5,29C 201.445,34.2413 196.445,38.0746 190.5,40.5C 184.716,37.8442 178.716,36.3442 172.5,36C 170.167,37.3333 169.167,39.3333 169.5,42C 176.225,74.2443 181.225,106.744 184.5,139.5C 220.662,138.89 253.996,148.223 284.5,167.5C 284.833,166.167 285.167,164.833 285.5,163.5C 283.79,148.533 282.957,133.533 283,118.5C 286.44,113.542 290.94,112.375 296.5,115C 298.317,116.8 299.484,118.966 300,121.5C 301.454,138.864 302.954,156.198 304.5,173.5C 338.5,174.833 372.5,174.833 406.5,173.5C 409.007,138.759 412.507,104.092 417,69.5C 418.288,65.4216 421.122,63.0883 425.5,62.5C 431.791,63.4587 434.791,67.1254 434.5,73.5C 430.117,107.049 427.117,140.716 425.5,174.5C 446.554,174.046 467.554,174.546 488.5,176C 500.136,180.439 507.803,188.606 511.5,200.5C 511.5,206.5 511.5,212.5 511.5,218.5C 509.481,224.861 506.148,230.528 501.5,235.5C 506.148,240.472 509.481,246.139 511.5,252.5C 511.5,258.5 511.5,264.5 511.5,270.5C 509.481,276.861 506.148,282.528 501.5,287.5C 506.148,292.472 509.481,298.139 511.5,304.5C 511.5,310.5 511.5,316.5 511.5,322.5C 507.845,334.325 500.178,342.492 488.5,347C 491.045,389.821 496.878,432.321 506,474.5C 507.905,491.915 500.239,501.582 483,503.5C 478.225,503.681 473.725,502.681 469.5,500.5C 465.278,505.412 460.278,509.078 454.5,511.5C 449.833,511.5 445.167,511.5 440.5,511.5C 434.784,509.201 429.951,505.534 426,500.5C 401.922,509.033 377.589,509.7 353,502.5C 345.853,505.883 338.687,508.883 331.5,511.5C 329.5,511.5 327.5,511.5 325.5,511.5C 321.206,510.556 317.372,508.556 314,505.5C 311.382,500.054 312.549,495.554 317.5,492C 321.372,491.109 325.038,491.609 328.5,493.5C 334.627,490.603 340.627,487.436 346.5,484C 349.167,483.333 351.833,483.333 354.5,484C 371.177,489.514 388.177,490.847 405.5,488C 413.094,485.523 420.761,483.357 428.5,481.5C 430.634,481.515 432.634,482.015 434.5,483C 438.171,487.523 442.504,491.023 447.5,493.5C 449.791,493.378 451.791,492.545 453.5,491C 457.455,483.689 463.455,480.689 471.5,482C 475.008,483.669 478.675,484.836 482.5,485.5C 486.124,485.21 488.124,483.21 488.5,479.5C 479.46,436.221 473.127,392.555 469.5,348.5C 454.833,348.5 440.167,348.5 425.5,348.5C 425.717,358.033 426.383,367.533 427.5,377C 426.292,385.596 421.625,388.596 413.5,386C 412.333,384.833 411.167,383.667 410,382.5C 408.362,371.232 407.528,359.899 407.5,348.5C 403.154,348.666 398.821,348.499 394.5,348C 390.181,346.877 388.181,344.044 388.5,339.5C 388.258,336.486 389.258,333.986 391.5,332C 421.414,330.682 451.414,330.015 481.5,330C 493.717,324.591 496.884,315.757 491,303.5C 488.635,300.131 485.468,297.964 481.5,297C 444.162,296.167 406.829,296.333 369.5,297.5C 378.011,364.811 357.344,421.311 307.5,467C 277.654,492.226 243.32,507.06 204.5,511.5C 191.833,511.5 179.167,511.5 166.5,511.5C 95.7036,501.352 44.8703,464.018 14,399.5C 6.9502,381.958 2.11687,363.958 -0.5,345.5C -0.5,332.5 -0.5,319.5 -0.5,306.5C 5.91374,253.997 29.7471,211.33 71,178.5C 70.057,168.088 70.7236,157.754 73,147.5C 77.7186,142.634 82.7186,142.301 88,146.5C 89.4388,152.845 89.9388,159.179 89.5,165.5C 113.273,151.354 138.939,143.02 166.5,140.5C 162.638,107.163 157.638,73.9961 151.5,41C 151.775,29.3866 157.442,21.7199 168.5,18C 175.299,16.8541 181.799,17.6875 188,20.5C 196.362,10.2684 206.862,7.10174 219.5,11C 223.626,13.462 227.459,16.2953 231,19.5C 242.228,13.1344 254.061,8.30105 266.5,5C 279.35,2.85544 292.016,3.68878 304.5,7.5C 310.63,5.59923 316.297,2.93257 321.5,-0.5 Z M 168.5,157.5 C 239.852,154.088 294.352,182.421 332,242.5C 355.254,285.201 359.921,329.868 346,376.5C 321.191,443.638 273.358,482.471 202.5,493C 131.123,496.899 76.6232,468.732 39,408.5C 15.7465,365.801 11.0798,321.135 25,274.5C 49.9721,207.353 97.8055,168.353 168.5,157.5 Z M 316.5,193.5 C 371.332,192.335 426.332,192.168 481.5,193C 492.543,197.767 496.043,205.934 492,217.5C 489.545,222.149 485.712,224.983 480.5,226C 447.167,226.333 413.833,226.667 380.5,227C 374.684,230.762 373.518,235.595 377,241.5C 378.171,242.893 379.671,243.727 381.5,244C 415.894,244.02 450.227,244.687 484.5,246C 493.777,252.582 495.944,261.082 491,271.5C 489.127,273.709 486.96,275.542 484.5,277C 444.881,278.477 405.215,278.977 365.5,278.5C 357.131,245.41 340.798,217.077 316.5,193.5 Z"/></g>
<g><path style="opacity:0.931" fill="#000000" d="M 371.5,45.5 C 379.476,44.6493 383.476,48.1493 383.5,56C 379.044,88.7295 375.544,121.563 373,154.5C 371.217,163.808 366.05,166.308 357.5,162C 355.951,159.902 354.951,157.568 354.5,155C 357.186,119.642 361.352,84.4749 367,49.5C 368.397,47.9297 369.897,46.5964 371.5,45.5 Z"/></g>
<g><path style="opacity:0.916" fill="#000000" d="M 281.5,51.5 C 285.883,51.3481 289.383,53.0148 292,56.5C 293.327,63.1117 294.327,69.7783 295,76.5C 297.609,84.9569 294.776,90.2903 286.5,92.5C 282.16,91.9232 279.327,89.5899 278,85.5C 276.956,77.3146 275.789,69.148 274.5,61C 275.043,56.3765 277.377,53.2098 281.5,51.5 Z"/></g>
<g><path style="opacity:0.927" fill="#000000" d="M 227.5,55.5 C 234.244,54.2822 238.411,56.9489 240,63.5C 242.495,82.1289 244.662,100.796 246.5,119.5C 246.225,127.986 241.891,131.153 233.5,129C 230.898,128.065 229.398,126.232 229,123.5C 226.863,103.572 224.363,83.7391 221.5,64C 222.418,60.3048 224.418,57.4715 227.5,55.5 Z"/></g>
<g><path style="opacity:0.934" fill="#000000" d="M 237.5,203.5 C 242.651,203.484 246.151,205.817 248,210.5C 249.535,219.878 248.035,228.711 243.5,237C 281.397,270.436 289.23,309.936 267,355.5C 258.157,369.511 246.324,380.178 231.5,387.5C 235.838,394.508 238.171,402.175 238.5,410.5C 236.801,421.119 231.301,423.785 222,418.5C 220.83,412.49 219.496,406.49 218,400.5C 216.533,397.734 214.7,395.234 212.5,393C 175.759,396.219 149.926,381.052 135,347.5C 127.833,317.031 137.333,293.531 163.5,277C 187.411,267.603 207.911,272.437 225,291.5C 228.036,301.945 224.203,306.445 213.5,305C 209.868,302.37 206.535,299.37 203.5,296C 181.799,285.59 165.299,291.09 154,312.5C 146.357,340.385 155.857,360.218 182.5,372C 216.491,380.044 240.991,368.21 256,336.5C 267.963,300.056 258.463,270.556 227.5,248C 182.417,222.432 141.917,228.265 106,265.5C 76.7313,301.783 70.3979,341.783 87,385.5C 102.343,417.842 126.509,441.009 159.5,455C 167.106,457.645 174.606,460.478 182,463.5C 185.167,476.987 180.001,481.487 166.5,477C 116.535,460.701 82.7019,427.867 65,378.5C 56.3713,347.979 58.2046,318.146 70.5,289C 59.5055,283.496 53.6721,274.663 53,262.5C 57.2634,255.843 62.5967,254.843 69,259.5C 70.4766,264.962 73.4766,269.296 78,272.5C 109.755,222.881 154.255,205.381 211.5,220C 217.313,221.823 222.813,224.323 228,227.5C 230.013,221.361 231.013,215.027 231,208.5C 232.805,206.174 234.972,204.508 237.5,203.5 Z"/></g>
<g><path style="opacity:0.926" fill="#000000" d="M 417.5,411.5 C 421.308,411.163 424.974,411.663 428.5,413C 429.717,414.648 430.55,416.481 431,418.5C 432.301,429.743 433.801,440.91 435.5,452C 433.225,459.97 428.225,462.303 420.5,459C 418.232,457.442 417.066,455.276 417,452.5C 415.006,440.558 414.006,428.558 414,416.5C 414.997,414.677 416.164,413.01 417.5,411.5 Z"/></g>
<g><path style="opacity:0.921" fill="#000000" d="M 366.5,417.5 C 371.814,416.74 375.647,418.74 378,423.5C 379.792,436.67 381.625,449.837 383.5,463C 382.621,470.216 378.621,473.216 371.5,472C 369.061,471.226 367.227,469.726 366,467.5C 363.84,454.214 362.007,440.881 360.5,427.5C 360.474,422.877 362.474,419.544 366.5,417.5 Z"/></g>
</svg>
