<?xml version="1.0" encoding="UTF-8"?>
<svg xmlns="http://www.w3.org/2000/svg" version="1.1" width="512px" height="512px" style="shape-rendering:geometricPrecision; text-rendering:geometricPrecision; image-rendering:optimizeQuality; fill-rule:evenodd; clip-rule:evenodd">
<g><path style="opacity:0.935" fill="#000000" d="M 511.5,166.5 C 511.5,179.833 511.5,193.167 511.5,206.5C 505.972,250.244 490.139,289.91 464,325.5C 424.454,376.164 376.287,416.331 319.5,446C 300.167,456 280.833,466 261.5,476C 257.5,478 253.5,478 249.5,476C 214.04,458.776 179.707,439.776 146.5,419C 100.244,388.078 62.0776,349.245 32,302.5C 14.2436,272.729 3.41023,240.729 -0.5,206.5C -0.5,193.167 -0.5,179.833 -0.5,166.5C 3.37395,118.903 24.7073,81.4033 63.5,54C 104.741,29.6901 147.407,27.0234 191.5,46C 220.361,60.0281 241.695,81.5281 255.5,110.5C 280.601,61.5186 320.768,35.8519 376,33.5C 426.321,34.8609 464.654,56.8609 491,99.5C 502.347,120.578 509.18,142.912 511.5,166.5 Z M 121.5,51.5 C 174.973,49.2113 214.139,71.5446 239,118.5C 242.394,126.681 245.394,135.014 248,143.5C 253,147.5 258,147.5 263,143.5C 277.037,92.1271 310.204,61.6271 362.5,52C 422.9,49.4107 464.067,76.244 486,132.5C 500.807,187.23 494.141,239.23 466,288.5C 439.782,331.054 406.282,366.888 365.5,396C 351.172,405.833 336.505,415.166 321.5,424C 299.658,435.755 277.658,447.255 255.5,458.5C 227.515,444.176 199.849,429.342 172.5,414C 129.312,387.299 92.1457,353.799 61,313.5C 39.224,283.525 25.224,250.192 19,213.5C 14.6816,183.054 17.6816,153.388 28,124.5C 46.2373,83.4111 77.404,59.0778 121.5,51.5 Z"/></g>
<g><path style="opacity:0.931" fill="#000000" d="M 123.5,67.5 C 134.943,66.99 146.277,67.8233 157.5,70C 164.471,74.5507 165.138,79.884 159.5,86C 157.801,86.9581 155.967,87.4581 154,87.5C 118.273,81.3756 89.6062,92.7089 68,121.5C 61.1473,131.88 56.4807,143.213 54,155.5C 50.1457,159.671 45.6457,160.504 40.5,158C 38.1465,155.867 37.1465,153.2 37.5,150C 48.2449,103.798 76.9116,76.298 123.5,67.5 Z"/></g>
<g><path style="opacity:0.878" fill="#000000" d="M 38.5,178.5 C 50.2178,178.372 53.5511,183.538 48.5,194C 38.0723,198.24 33.239,194.74 34,183.5C 35.025,181.313 36.525,179.646 38.5,178.5 Z"/></g>
<g><path style="opacity:0.921" fill="#000000" d="M 149.5,212.5 C 158.205,211.702 162.705,215.702 163,224.5C 166.67,230.067 171.004,230.733 176,226.5C 177.466,222.119 179.299,217.952 181.5,214C 189.994,210.165 194.994,212.832 196.5,222C 192.864,241.654 181.198,249.654 161.5,246C 148.647,240.799 143.147,231.299 145,217.5C 146.025,215.313 147.525,213.646 149.5,212.5 Z"/></g>
<g><path style="opacity:0.92" fill="#000000" d="M 319.5,212.5 C 322.978,212.184 326.312,212.684 329.5,214C 331.701,217.952 333.534,222.119 335,226.5C 339.996,230.733 344.33,230.067 348,224.5C 348.282,215.544 352.782,211.71 361.5,213C 363.667,213.833 365.167,215.333 366,217.5C 367.11,235.591 358.61,245.591 340.5,247.5C 323.742,245.579 315.242,236.246 315,219.5C 315.904,216.767 317.404,214.433 319.5,212.5 Z"/></g>
<g><path style="opacity:0.926" fill="#000000" d="M 211.5,254.5 C 215.514,254.56 218.681,256.227 221,259.5C 222.136,268.975 227.303,275.142 236.5,278C 252.39,282.3 267.723,280.967 282.5,274C 287.164,269.876 289.998,264.709 291,258.5C 295.869,254.534 300.702,254.534 305.5,258.5C 307.616,271.786 302.95,282.286 291.5,290C 276.719,297.589 261.053,300.256 244.5,298C 231.344,297.004 220.177,291.837 211,282.5C 206.982,276.963 204.482,270.796 203.5,264C 203.982,258.809 206.649,255.642 211.5,254.5 Z"/></g>
<g><path style="opacity:0.9" fill="#000000" d="M 133.5,263.5 C 142.693,263.215 146.193,267.548 144,276.5C 139.848,282.824 134.348,287.49 127.5,290.5C 120.161,289.162 117.327,284.828 119,277.5C 123.068,271.93 127.902,267.263 133.5,263.5 Z"/></g>
<g><path style="opacity:0.897" fill="#000000" d="M 167.5,263.5 C 176.77,263.423 180.27,267.756 178,276.5C 173.817,282.86 168.317,287.527 161.5,290.5C 153.171,288.509 150.671,283.509 154,275.5C 158.099,270.892 162.599,266.892 167.5,263.5 Z"/></g>
<g><path style="opacity:0.902" fill="#000000" d="M 338.5,263.5 C 341.794,263.259 344.794,264.092 347.5,266C 352.756,269.91 356.423,274.91 358.5,281C 356.452,289.401 351.452,291.734 343.5,288C 338.133,283.811 334.133,278.644 331.5,272.5C 332.19,268.077 334.523,265.077 338.5,263.5 Z"/></g>
<g><path style="opacity:0.902" fill="#000000" d="M 372.5,263.5 C 375.794,263.259 378.794,264.092 381.5,266C 386.768,269.919 390.434,274.919 392.5,281C 390.471,289.401 385.471,291.735 377.5,288C 374.333,284.833 371.167,281.667 368,278.5C 364.924,271.893 366.424,266.893 372.5,263.5 Z"/></g>
</svg>
