<?xml version="1.0" encoding="UTF-8"?>
<svg xmlns="http://www.w3.org/2000/svg" version="1.1" width="308px" height="257px" style="shape-rendering:geometricPrecision; text-rendering:geometricPrecision; image-rendering:optimizeQuality; fill-rule:evenodd; clip-rule:evenodd">
<g><path style="opacity:0.98" fill="#000000" d="M 261.5,-0.5 C 263.167,-0.5 264.833,-0.5 266.5,-0.5C 268.212,2.26149 269.378,5.26149 270,8.5C 270.725,9.05851 271.558,9.39184 272.5,9.5C 277.354,5.90915 282.354,2.57582 287.5,-0.5C 289.167,-0.5 290.833,-0.5 292.5,-0.5C 293.412,0.738195 293.579,2.07153 293,3.5C 290.81,5.38841 288.977,7.55507 287.5,10C 288.5,10.6667 289.5,10.6667 290.5,10C 294.306,6.84156 298.64,5.50823 303.5,6C 304.357,6.68909 305.023,7.52242 305.5,8.5C 304.221,11.1117 302.555,13.4451 300.5,15.5C 303.061,16.1321 305.395,17.1321 307.5,18.5C 307.5,19.5 307.5,20.5 307.5,21.5C 305.491,23.169 303.491,24.8357 301.5,26.5C 304.418,28.0084 305.084,30.1751 303.5,33C 295.899,34.1761 288.232,35.1761 280.5,36C 278.919,36.7065 277.419,37.5399 276,38.5C 253.38,89.0365 230.38,139.37 207,189.5C 201.927,195.232 195.76,199.399 188.5,202C 132.022,220.105 75.6889,238.272 19.5,256.5C 17.5,256.5 15.5,256.5 13.5,256.5C 6.79879,253.463 2.13212,248.463 -0.5,241.5C -0.5,238.167 -0.5,234.833 -0.5,231.5C 1.97883,226.857 5.64549,223.357 10.5,221C 57.1879,206.382 103.521,190.882 149.5,174.5C 111.499,145.339 73.3326,116.339 35,87.5C 29.6692,78.4951 30.8359,70.3284 38.5,63C 45.4456,58.58 52.4456,58.58 59.5,63C 94.1667,89 128.833,115 163.5,141C 165.134,141.494 166.801,141.66 168.5,141.5C 170.982,132.915 172.815,124.248 174,115.5C 157.698,91.1925 139.865,68.0259 120.5,46C 119.584,45.6258 118.75,45.1258 118,44.5C 109.296,46.4415 100.462,47.2748 91.5,47C 90.4464,45.6124 90.2797,44.1124 91,42.5C 92.0217,41.646 92.8551,40.646 93.5,39.5C 90.0889,38.4643 87.4223,36.4643 85.5,33.5C 86.9995,30.6674 89.3328,29.0007 92.5,28.5C 90.5398,26.8437 88.5398,25.177 86.5,23.5C 85.2889,22.2798 85.2889,21.1131 86.5,20C 91.5206,20.1736 96.5206,20.5069 101.5,21C 98.3773,19.1181 95.7106,16.7848 93.5,14C 94.1667,12.6667 95.1667,11.6667 96.5,11C 104.29,12.5519 111.957,14.7185 119.5,17.5C 118.6,12.4351 120.1,8.43511 124,5.5C 127.288,6.53626 128.121,8.53626 126.5,11.5C 127.236,13.5405 128.069,15.5405 129,17.5C 144.047,35.5447 158.713,53.8781 173,72.5C 179.026,80.0878 186.526,85.5878 195.5,89C 209.398,92.9056 220.564,89.0723 229,77.5C 239.894,56.3802 250.227,35.0469 260,13.5C 261.225,8.91471 261.725,4.24805 261.5,-0.5 Z"/></g>
<g><path style="opacity:0.976" fill="#000000" d="M 197.5,35.5 C 212.943,33.1313 223.443,39.1313 229,53.5C 230.891,71.7843 222.724,82.451 204.5,85.5C 189.614,83.4468 181.28,74.9468 179.5,60C 180.542,48.0464 186.542,39.8797 197.5,35.5 Z"/></g>
</svg>
