<?xml version="1.0" encoding="UTF-8"?>
<svg xmlns="http://www.w3.org/2000/svg" version="1.1" width="512px" height="512px" style="shape-rendering:geometricPrecision; text-rendering:geometricPrecision; image-rendering:optimizeQuality; fill-rule:evenodd; clip-rule:evenodd">
<g><path style="opacity:0.968" fill="#000000" d="M 352.5,22.5 C 355.518,22.3354 358.518,22.502 361.5,23C 363.667,23.8333 365.167,25.3333 366,27.5C 366.667,66.8333 366.667,106.167 366,145.5C 361.808,164.522 349.975,174.855 330.5,176.5C 308.579,174.079 296.579,161.912 294.5,140C 296.416,117.917 308.416,106.084 330.5,104.5C 337.157,104.463 343.324,106.13 349,109.5C 349.667,100.167 349.667,90.8333 349,81.5C 322.995,89.0432 296.828,96.0432 270.5,102.5C 270.667,125.836 270.5,149.169 270,172.5C 264.243,192.914 250.743,202.414 229.5,201C 210.476,196.806 200.142,184.973 198.5,165.5C 202.397,138.72 217.731,127.22 244.5,131C 247.284,131.892 249.95,133.058 252.5,134.5C 253.333,107.506 253.833,80.5062 254,53.5C 254.667,52.1667 255.333,50.8333 256,49.5C 288.267,40.5606 320.433,31.5606 352.5,22.5 Z"/></g>
<g><path style="opacity:0.959" fill="#000000" d="M 94.5,131.5 C 115.27,129.452 129.103,138.119 136,157.5C 137.638,198.462 137.971,239.462 137,280.5C 134.103,285.155 129.937,286.655 124.5,285C 122.951,283.786 121.785,282.286 121,280.5C 120.667,252.833 120.333,225.167 120,197.5C 106.355,205.202 92.8548,204.702 79.5,196C 63.1202,180.036 61.2869,162.536 74,143.5C 79.7732,137.535 86.6066,133.535 94.5,131.5 Z"/></g>
<g><path style="opacity:0.955" fill="#000000" d="M 388.5,209.5 C 413.866,214.605 434.7,227.271 451,247.5C 452.08,249.996 453.414,252.33 455,254.5C 456.792,265.046 452.625,268.879 442.5,266C 432.463,250.302 418.963,238.468 402,230.5C 401.667,264.167 401.333,297.833 401,331.5C 398.469,347.695 389.303,357.862 373.5,362C 350.218,364.952 335.718,355.119 330,332.5C 329.821,304.013 343.988,290.513 372.5,292C 376.655,292.718 380.488,294.218 384,296.5C 384.333,268.833 384.667,241.167 385,213.5C 386.376,212.295 387.542,210.962 388.5,209.5 Z"/></g>
<g><path style="opacity:0.966" fill="#000000" d="M 170.5,287.5 C 175.287,286.97 179.62,288.137 183.5,291C 213.671,308.586 244.004,325.92 274.5,343C 276.049,344.214 277.215,345.714 278,347.5C 278.667,386.5 278.667,425.5 278,464.5C 274.306,484.53 262.306,494.864 242,495.5C 220.23,493.73 208.397,481.897 206.5,460C 208.408,437.925 220.408,426.092 242.5,424.5C 249.171,424.376 255.338,426.042 261,429.5C 261.667,418.167 261.667,406.833 261,395.5C 234.837,380.753 208.837,365.753 183,350.5C 182.667,371.167 182.333,391.833 182,412.5C 174.344,436.583 158.177,445.416 133.5,439C 115.574,430.315 108.407,416.148 112,396.5C 119.566,375.463 134.4,366.963 156.5,371C 159.512,371.78 162.345,372.947 165,374.5C 165.333,347.5 165.667,320.5 166,293.5C 166.804,290.854 168.304,288.854 170.5,287.5 Z"/></g>
</svg>
