<?xml version="1.0" encoding="UTF-8"?>
<svg xmlns="http://www.w3.org/2000/svg" version="1.1" width="512px" height="512px" style="shape-rendering:geometricPrecision; text-rendering:geometricPrecision; image-rendering:optimizeQuality; fill-rule:evenodd; clip-rule:evenodd">
<g><path style="opacity:0.935" fill="#000000" d="M 511.5,146.5 C 511.5,159.5 511.5,172.5 511.5,185.5C 509.299,190.541 505.799,194.541 501,197.5C 501.351,205.004 499.685,212.004 496,218.5C 493.736,221.433 490.902,223.6 487.5,225C 457.895,226.643 428.228,226.976 398.5,226C 391.819,223.987 386.986,219.82 384,213.5C 382.968,207.549 382.135,201.549 381.5,195.5C 378.012,192.53 375.512,188.864 374,184.5C 373.667,176.167 373.333,167.833 373,159.5C 372.138,151.268 367.972,145.434 360.5,142C 350.969,139.828 341.469,137.661 332,135.5C 331.501,141.491 331.334,147.491 331.5,153.5C 340.649,155.812 346.816,161.479 350,170.5C 350.851,190.19 352.184,209.857 354,229.5C 363.959,268.126 388.125,292.959 426.5,304C 436.156,305.569 445.822,306.903 455.5,308C 460.757,310.256 464.257,314.09 466,319.5C 466.667,353.833 466.667,388.167 466,422.5C 460.95,446.628 446.117,460.128 421.5,463C 414.167,463.167 406.833,463.333 399.5,463.5C 391.094,463.621 382.761,463.121 374.5,462C 370.221,456.967 370.554,452.3 375.5,448C 392.872,447.912 410.205,447.246 427.5,446C 439.684,442.131 447.184,433.965 450,421.5C 450.667,388.833 450.667,356.167 450,323.5C 407.029,321.523 374.029,302.523 351,266.5C 341.952,250.69 336.952,233.69 336,215.5C 335.667,202.5 335.333,189.5 335,176.5C 333.373,171.938 330.206,169.105 325.5,168C 277.775,167.015 230.108,167.348 182.5,169C 179.527,170.765 177.36,173.265 176,176.5C 175.833,193.192 175.166,209.859 174,226.5C 171.388,244.009 165.054,260.009 155,274.5C 149.514,280.08 144.514,279.747 140,273.5C 139.333,271.833 139.333,270.167 140,268.5C 150.882,252.855 157.216,235.522 159,216.5C 159.064,201.113 159.731,185.78 161,170.5C 164.184,161.479 170.351,155.812 179.5,153.5C 179.666,147.491 179.499,141.491 179,135.5C 169.531,137.661 160.031,139.828 150.5,142C 143.028,145.434 138.862,151.268 138,159.5C 137.667,167.833 137.333,176.167 137,184.5C 135.543,189.095 132.876,192.761 129,195.5C 130.783,206.487 127.617,215.654 119.5,223C 117.283,224.275 114.949,225.275 112.5,226C 82.7719,226.976 53.1053,226.643 23.5,225C 16.3211,221.817 12.1545,216.317 11,208.5C 10.6667,204.833 10.3333,201.167 10,197.5C 5.20116,194.541 1.70116,190.541 -0.5,185.5C -0.5,172.5 -0.5,159.5 -0.5,146.5C 7.92435,119.285 26.591,105.452 55.5,105C 63.969,100.916 69.8024,94.4158 73,85.5C 77.6925,80.2404 83.1925,76.0737 89.5,73C 140.438,55.646 192.605,47.8127 246,49.5C 247.457,52.366 247.79,55.366 247,58.5C 246.5,60.3333 245.333,61.5 243.5,62C 196.259,64.0825 149.925,71.7491 104.5,85C 92.2965,87.5352 84.1298,94.7019 80,106.5C 76.8333,109.667 73.6667,112.833 70.5,116C 66.7293,118.219 62.7293,119.885 58.5,121C 36.9819,119.981 22.8152,129.481 16,149.5C 14.1554,160.202 14.1554,170.869 16,181.5C 16.7504,182.126 17.5838,182.626 18.5,183C 51.8333,183.667 85.1667,183.667 118.5,183C 119.416,182.626 120.25,182.126 121,181.5C 121.333,173.833 121.667,166.167 122,158.5C 124.018,140.48 133.852,129.313 151.5,125C 220.833,109.667 290.167,109.667 359.5,125C 377.148,129.313 386.982,140.48 389,158.5C 389.333,166.167 389.667,173.833 390,181.5C 390.75,182.126 391.584,182.626 392.5,183C 426.585,183.986 460.585,183.652 494.5,182C 496.052,177.519 496.719,172.853 496.5,168C 497.705,137.383 483.039,121.716 452.5,121C 439.512,116.681 430.346,108.181 425,95.5C 422.795,92.9598 420.295,90.7932 417.5,89C 369.505,72.8684 320.172,64.2017 269.5,63C 263.347,61.5349 261.18,57.7016 263,51.5C 263.5,49.6667 264.667,48.5 266.5,48C 319.495,47.9992 371.162,56.3325 421.5,73C 432.391,78.2249 440.225,86.3916 445,97.5C 447.708,101.104 451.208,103.604 455.5,105C 484.409,105.452 503.076,119.285 511.5,146.5 Z M 234.5,129.5 C 251.515,129.31 268.515,129.643 285.5,130.5C 285.5,137.5 285.5,144.5 285.5,151.5C 265.5,151.5 245.5,151.5 225.5,151.5C 225.5,144.5 225.5,137.5 225.5,130.5C 228.713,130.81 231.713,130.477 234.5,129.5 Z M 207.5,131.5 C 209.459,137.75 210.126,144.416 209.5,151.5C 204.833,151.5 200.167,151.5 195.5,151.5C 195.5,145.5 195.5,139.5 195.5,133.5C 199.684,133.149 203.684,132.482 207.5,131.5 Z M 301.5,131.5 C 306.131,132.329 310.798,132.996 315.5,133.5C 315.5,139.5 315.5,145.5 315.5,151.5C 310.833,151.5 306.167,151.5 301.5,151.5C 301.5,144.833 301.5,138.167 301.5,131.5 Z M 26.5,199.5 C 55.1667,199.5 83.8333,199.5 112.5,199.5C 113.231,203.603 112.231,207.103 109.5,210C 82.8333,210.667 56.1667,210.667 29.5,210C 26.8999,207.016 25.8999,203.516 26.5,199.5 Z M 398.5,199.5 C 427.167,199.5 455.833,199.5 484.5,199.5C 485.1,203.516 484.1,207.016 481.5,210C 454.833,210.667 428.167,210.667 401.5,210C 398.769,207.103 397.769,203.603 398.5,199.5 Z"/></g>
<g><path style="opacity:0.9" fill="#000000" d="M 87.5,160.5 C 93.99,160.02 100.323,160.687 106.5,162.5C 110.738,167.333 110.405,171.833 105.5,176C 98.5,176.667 91.5,176.667 84.5,176C 78.5135,169.388 79.5135,164.221 87.5,160.5 Z"/></g>
<g><path style="opacity:0.9" fill="#000000" d="M 408.5,160.5 C 414.99,160.02 421.323,160.687 427.5,162.5C 431.738,167.333 431.405,171.833 426.5,176C 419.5,176.667 412.5,176.667 405.5,176C 399.514,169.388 400.514,164.221 408.5,160.5 Z"/></g>
<g><path style="opacity:0.895" fill="#000000" d="M 193.5,176.5 C 199.952,176.084 206.285,176.584 212.5,178C 215.394,180.909 216.227,184.409 215,188.5C 213.786,190.049 212.286,191.215 210.5,192C 204.056,192.915 197.723,192.581 191.5,191C 187.054,185.397 187.721,180.564 193.5,176.5 Z"/></g>
<g><path style="opacity:0.895" fill="#000000" d="M 300.5,176.5 C 306.952,176.084 313.285,176.584 319.5,178C 322.394,180.909 323.227,184.409 322,188.5C 320.786,190.049 319.286,191.215 317.5,192C 311.056,192.915 304.723,192.581 298.5,191C 294.054,185.397 294.721,180.564 300.5,176.5 Z"/></g>
<g><path style="opacity:0.927" fill="#000000" d="M 247.5,241.5 C 289.478,240.392 319.311,258.725 337,296.5C 350.03,335.549 341.53,369.049 311.5,397C 281.225,419.17 248.892,422.504 214.5,407C 177.612,384.715 162.779,352.215 170,309.5C 181.599,270.472 207.433,247.805 247.5,241.5 Z M 248.5,257.5 C 295.82,258.487 322.153,282.487 327.5,329.5C 324.137,367.696 303.804,391.196 266.5,400C 230.196,403.106 204.362,388.272 189,355.5C 177.492,319.022 187.326,289.855 218.5,268C 227.921,262.437 237.921,258.937 248.5,257.5 Z M 252.5,322.5 C 260.33,321.495 263.496,324.828 262,332.5C 257.667,337.833 253.333,337.833 249,332.5C 247.756,328.191 248.923,324.858 252.5,322.5 Z"/></g>
<g><path style="opacity:0.899" fill="#000000" d="M 254.5,268.5 C 261.966,270.065 264.966,274.731 263.5,282.5C 264.949,292.215 260.949,296.382 251.5,295C 248.05,291.601 246.717,287.434 247.5,282.5C 246.207,275.749 248.541,271.083 254.5,268.5 Z"/></g>
<g><path style="opacity:0.932" fill="#000000" d="M 123.5,284.5 C 133.033,284.241 136.199,288.574 133,297.5C 111.945,314.076 87.9454,322.743 61,323.5C 60.3333,356.167 60.3333,388.833 61,421.5C 64.9593,436.081 74.4593,444.581 89.5,447C 177.167,447.333 264.833,447.667 352.5,448C 356.753,451.42 357.587,455.587 355,460.5C 353.829,461.893 352.329,462.727 350.5,463C 263.5,463.667 176.5,463.667 89.5,463C 64.8834,460.128 50.05,446.628 45,422.5C 44.02,387.106 44.3533,351.773 46,316.5C 48.7199,311.449 52.8865,308.282 58.5,307C 82.9667,307.124 104.633,299.624 123.5,284.5 Z"/></g>
<g><path style="opacity:0.884" fill="#000000" d="M 214.5,284.5 C 217.649,284.211 220.649,284.711 223.5,286C 228.339,289.828 232.006,294.495 234.5,300C 232.796,307.234 228.462,309.567 221.5,307C 218.333,303.833 215.167,300.667 212,297.5C 209.458,292.438 210.292,288.105 214.5,284.5 Z"/></g>
<g><path style="opacity:0.885" fill="#000000" d="M 289.5,284.5 C 297.656,283.821 301.156,287.488 300,295.5C 296.197,301.309 291.197,305.643 285,308.5C 277.262,306.173 275.262,301.506 279,294.5C 282.396,290.935 285.896,287.602 289.5,284.5 Z"/></g>
<g><path style="opacity:0.928" fill="#000000" d="M 254.5,305.5 C 272.603,307.438 280.436,317.438 278,335.5C 270.817,351.929 258.984,356.429 242.5,349C 231.374,339.009 229.541,327.509 237,314.5C 241.765,309.202 247.599,306.202 254.5,305.5 Z M 252.5,322.5 C 248.923,324.858 247.756,328.191 249,332.5C 253.333,337.833 257.667,337.833 262,332.5C 263.496,324.828 260.33,321.495 252.5,322.5 Z"/></g>
<g><path style="opacity:0.892" fill="#000000" d="M 200.5,321.5 C 206.621,321.09 212.621,321.59 218.5,323C 222.715,327.958 222.381,332.625 217.5,337C 210.724,337.92 204.057,337.586 197.5,336C 193.418,330.087 194.418,325.254 200.5,321.5 Z"/></g>
<g><path style="opacity:0.892" fill="#000000" d="M 294.5,321.5 C 299.844,321.334 305.177,321.501 310.5,322C 317.955,326.561 318.288,331.561 311.5,337C 305.5,337.667 299.5,337.667 293.5,337C 287.939,331.353 288.272,326.186 294.5,321.5 Z"/></g>
<g><path style="opacity:0.894" fill="#000000" d="M 222.5,351.5 C 231.88,350.653 235.38,354.653 233,363.5C 229.833,366.667 226.667,369.833 223.5,373C 214.087,376.579 209.92,373.412 211,363.5C 214.364,358.971 218.197,354.971 222.5,351.5 Z"/></g>
<g><path style="opacity:0.895" fill="#000000" d="M 281.5,351.5 C 284.649,351.211 287.649,351.711 290.5,353C 293.333,355.833 296.167,358.667 299,361.5C 302.167,372.333 298.333,376.167 287.5,373C 282.623,369.142 278.957,364.475 276.5,359C 277.324,355.827 278.991,353.327 281.5,351.5 Z"/></g>
<g><path style="opacity:0.89" fill="#000000" d="M 251.5,363.5 C 256.742,362.271 260.575,363.937 263,368.5C 263.667,374.167 263.667,379.833 263,385.5C 258,392.167 253,392.167 248,385.5C 247.333,379.833 247.333,374.167 248,368.5C 248.997,366.677 250.164,365.01 251.5,363.5 Z"/></g>
</svg>
