<?xml version="1.0" encoding="UTF-8"?>
<svg xmlns="http://www.w3.org/2000/svg" version="1.1" width="512px" height="512px" style="shape-rendering:geometricPrecision; text-rendering:geometricPrecision; image-rendering:optimizeQuality; fill-rule:evenodd; clip-rule:evenodd">
<g><path style="opacity:0.963" fill="#000000" d="M 511.5,389.5 C 511.5,397.833 511.5,406.167 511.5,414.5C 503.906,449.926 482.239,471.093 446.5,478C 382.833,478.167 319.167,478.333 255.5,478.5C 189.803,478.656 124.137,478.156 58.5,477C 26.3497,468.352 6.68299,447.852 -0.5,415.5C -0.5,406.833 -0.5,398.167 -0.5,389.5C 5.74626,362.079 21.7463,342.579 47.5,331C 32.2765,298.652 36.1098,268.819 59,241.5C 67.9703,233.033 78.137,226.367 89.5,221.5C 78.8157,187.735 86.4823,158.901 112.5,135C 123.067,126.583 135.067,121.25 148.5,119C 160.495,118.5 172.495,118.333 184.5,118.5C 180.928,92.3431 168.428,71.6764 147,56.5C 142.93,48.4577 144.096,41.2911 150.5,35C 152.087,34.1376 153.754,33.4709 155.5,33C 192.5,32.3333 229.5,32.3333 266.5,33C 293.517,37.7107 314.351,51.544 329,74.5C 336.822,88.1319 340.656,102.799 340.5,118.5C 380.726,115.615 408.559,132.615 424,169.5C 429.088,187.217 428.588,204.717 422.5,222C 458.439,236.689 475.605,263.522 474,302.5C 472.949,312.539 470.116,322.039 465.5,331C 490.003,343.331 505.336,362.831 511.5,389.5 Z M 197.5,63.5 C 219.503,63.3334 241.503,63.5 263.5,64C 284.785,68.6173 299.285,81.1173 307,101.5C 308.565,111.199 310.232,120.865 312,130.5C 316.082,139.584 322.915,145.417 332.5,148C 341.796,149.109 351.13,149.776 360.5,150C 382.986,156.322 394.986,171.155 396.5,194.5C 396.732,200.008 395.899,205.341 394,210.5C 390.572,217.029 386.906,223.362 383,229.5C 381.28,238.228 384.447,244.394 392.5,248C 425.763,249.926 442.596,267.426 443,300.5C 440.164,313.842 433.497,324.842 423,333.5C 420.005,339.586 420.338,345.586 424,351.5C 425.731,353.617 427.898,355.117 430.5,356C 454.083,356.604 470.25,367.77 479,389.5C 484.335,419.338 472.502,438.505 443.5,447C 318.167,447.667 192.833,447.667 67.5,447C 38.498,438.505 26.6647,419.338 32,389.5C 40.985,366.898 57.8184,355.731 82.5,356C 91.7709,350.176 93.9376,342.343 89,332.5C 67.3158,313.864 63.6492,292.197 78,267.5C 89.1089,254.458 103.276,247.958 120.5,248C 128.61,243.936 131.443,237.436 129,228.5C 125.428,223.03 122.095,217.364 119,211.5C 112.037,191.056 116.537,173.556 132.5,159C 137.275,155.279 142.609,152.612 148.5,151C 160.777,149.749 173.11,149.082 185.5,149C 203.955,146.878 213.955,136.545 215.5,118C 213.387,98.4933 207.387,80.3267 197.5,63.5 Z M 200.5,334.5 C 236.839,334.167 273.173,334.5 309.5,335.5C 295.313,370.177 270.146,382.51 234,372.5C 216.957,364.96 205.79,352.293 200.5,334.5 Z"/></g>
<g><path style="opacity:0.953" fill="#000000" d="M 188.5,208.5 C 208.638,206.159 224.472,213.159 236,229.5C 241.588,238.771 243.588,248.771 242,259.5C 236.466,269.011 228.633,271.511 218.5,267C 215.894,265.062 214.061,262.562 213,259.5C 212.927,252.575 210.427,246.742 205.5,242C 197.738,237.861 190.904,239.028 185,245.5C 183.208,250.367 181.875,255.367 181,260.5C 173.901,270.728 165.401,272.062 155.5,264.5C 151.095,257.333 150.261,249.666 153,241.5C 158.954,224.042 170.788,213.042 188.5,208.5 Z"/></g>
<g><path style="opacity:0.954" fill="#000000" d="M 303.5,208.5 C 335.453,206.294 353.787,220.961 358.5,252.5C 356.526,267.32 348.526,272.153 334.5,267C 329.174,262.845 326.674,257.345 327,250.5C 322.57,239.706 315.07,236.872 304.5,242C 299.352,246.604 296.852,252.437 297,259.5C 293.345,267.476 287.179,270.642 278.5,269C 273.427,267.594 269.927,264.428 268,259.5C 266.34,233.009 278.173,216.009 303.5,208.5 Z"/></g>
<g><path style="opacity:0.974" fill="#000000" d="M 177.5,304.5 C 229.168,304.333 280.834,304.5 332.5,305C 341.683,310.183 344.85,318.017 342,328.5C 337.821,361.386 320.988,385.219 291.5,400C 253.178,414.79 219.345,407.957 190,379.5C 176.01,363.338 168.51,344.505 167.5,323C 166.558,314.376 169.892,308.209 177.5,304.5 Z M 200.5,334.5 C 205.79,352.293 216.957,364.96 234,372.5C 270.146,382.51 295.313,370.177 309.5,335.5C 273.173,334.5 236.839,334.167 200.5,334.5 Z"/></g>
</svg>
