<?xml version="1.0" encoding="UTF-8"?>
<svg xmlns="http://www.w3.org/2000/svg" version="1.1" width="512px" height="512px" style="shape-rendering:geometricPrecision; text-rendering:geometricPrecision; image-rendering:optimizeQuality; fill-rule:evenodd; clip-rule:evenodd">
<g><path style="opacity:0.944" fill="#000000" d="M 103.5,-0.5 C 107.167,-0.5 110.833,-0.5 114.5,-0.5C 119.122,1.40566 122.955,4.40566 126,8.5C 130.442,17.0499 134.609,25.7166 138.5,34.5C 129.428,48.541 123.595,63.8743 121,80.5C 110.474,61.4492 100.474,42.1159 91,22.5C 89.4101,11.6145 93.5768,3.94784 103.5,-0.5 Z"/></g>
<g><path style="opacity:0.964" fill="#000000" d="M 232.5,-0.5 C 247.833,-0.5 263.167,-0.5 278.5,-0.5C 303.945,3.38765 326.612,13.5543 346.5,30C 368.236,52.5443 376.736,79.3777 372,110.5C 368.247,131.124 360.247,149.791 348,166.5C 346.189,165.922 344.355,165.422 342.5,165C 333.5,164.667 324.5,164.333 315.5,164C 326.18,146.804 333.68,128.304 338,108.5C 341.263,75.7747 327.429,53.9414 296.5,43C 283.276,38.0869 269.609,35.9203 255.5,36.5C 232.869,35.5458 212.202,41.3792 193.5,54C 176.249,68.0688 169.416,86.2355 173,108.5C 177.32,128.304 184.82,146.804 195.5,164C 186.5,164.333 177.5,164.667 168.5,165C 166.444,165.311 164.444,165.811 162.5,166.5C 145.587,142.588 137.42,115.922 138,86.5C 142.817,48.6833 162.983,22.8499 198.5,9C 209.691,4.87242 221.024,1.70576 232.5,-0.5 Z"/></g>
<g><path style="opacity:0.957" fill="#000000" d="M 170.5,181.5 C 227.168,181.333 283.834,181.5 340.5,182C 352.897,185.064 358.064,192.897 356,205.5C 354.167,212.667 349.667,217.167 342.5,219C 284.5,219.667 226.5,219.667 168.5,219C 155.304,213.43 151.47,203.93 157,190.5C 160.528,185.834 165.028,182.834 170.5,181.5 Z"/></g>
<g><path style="opacity:0.957" fill="#000000" d="M 169.5,236.5 C 226.834,236.333 284.168,236.5 341.5,237C 353.276,240.46 358.109,248.293 356,260.5C 353.734,267.766 348.901,272.266 341.5,274C 284.167,274.667 226.833,274.667 169.5,274C 156.413,269.66 151.913,260.827 156,247.5C 159.185,242.141 163.685,238.475 169.5,236.5 Z"/></g>
<g><path style="opacity:0.957" fill="#000000" d="M 168.5,291.5 C 226.501,291.333 284.501,291.5 342.5,292C 355.696,297.57 359.53,307.07 354,320.5C 350.687,325.239 346.187,328.072 340.5,329C 283.833,329.667 227.167,329.667 170.5,329C 156.654,325.143 151.821,316.31 156,302.5C 158.708,297.079 162.875,293.413 168.5,291.5 Z"/></g>
<g><path style="opacity:0.964" fill="#000000" d="M 278.5,511.5 C 263.167,511.5 247.833,511.5 232.5,511.5C 207.558,507.698 185.224,497.864 165.5,482C 139.655,455.105 131.821,423.605 142,387.5C 146.36,371.681 153.36,357.348 163,344.5C 164.811,345.078 166.645,345.578 168.5,346C 177.5,346.333 186.5,346.667 195.5,347C 185.075,363.938 177.575,382.105 173,401.5C 169.008,433.363 181.841,455.197 211.5,467C 233.297,474.548 255.631,476.548 278.5,473C 298.685,469.663 315.518,460.497 329,445.5C 337.364,432.35 340.364,418.017 338,402.5C 333.68,382.696 326.18,364.196 315.5,347C 324.5,346.667 333.5,346.333 342.5,346C 345.057,344.881 347.557,344.715 350,345.5C 365.774,369.487 373.441,395.821 373,424.5C 368.183,462.317 348.017,488.15 312.5,502C 301.309,506.128 289.976,509.294 278.5,511.5 Z"/></g>
<g><path style="opacity:0.944" fill="#000000" d="M 407.5,511.5 C 403.833,511.5 400.167,511.5 396.5,511.5C 391.878,509.594 388.045,506.594 385,502.5C 380.558,493.95 376.391,485.283 372.5,476.5C 381.57,462.466 387.403,447.133 390,430.5C 400.526,449.551 410.526,468.884 420,488.5C 421.579,499.393 417.412,507.06 407.5,511.5 Z"/></g>
</svg>
