<?xml version="1.0" encoding="UTF-8"?>
<svg xmlns="http://www.w3.org/2000/svg" version="1.1" width="512px" height="512px" style="shape-rendering:geometricPrecision; text-rendering:geometricPrecision; image-rendering:optimizeQuality; fill-rule:evenodd; clip-rule:evenodd">
<g><path style="opacity:0.952" fill="#000000" d="M 511.5,64.5 C 511.5,72.5 511.5,80.5 511.5,88.5C 506.706,113.143 493.206,131.476 471,143.5C 475.332,163.855 473.999,183.855 467,203.5C 463.042,213.106 457.208,221.273 449.5,228C 407.665,253.75 365.999,279.75 324.5,306C 292.968,313.117 264.968,306.117 240.5,285C 236.985,281.318 233.318,277.818 229.5,274.5C 205.447,285.648 182.78,283.481 161.5,268C 148.217,255.056 136.05,241.223 125,226.5C 120.833,222.333 116.667,218.167 112.5,214C 108.691,210.762 104.358,208.596 99.5,207.5C 99.6666,226.836 99.5,246.17 99,265.5C 96.7834,275.243 90.9501,278.41 81.5,275C 78.4469,272.949 76.6135,270.115 76,266.5C 75.3333,241.167 75.3333,215.833 76,190.5C 81.4793,179.542 87.4793,168.875 94,158.5C 104.817,152.525 116.317,151.025 128.5,154C 136.246,155.54 143.58,158.207 150.5,162C 158.833,167.667 167.167,173.333 175.5,179C 178.393,180.149 181.393,180.649 184.5,180.5C 182.19,162.262 184.357,144.595 191,127.5C 189.59,109.73 194.257,93.7301 205,79.5C 210.638,71.6957 217.138,64.6957 224.5,58.5C 208.907,45.5129 206.074,30.1795 216,12.5C 231.855,-3.02094 248.021,-3.35427 264.5,11.5C 268.586,16.4195 270.919,22.0861 271.5,28.5C 280.583,24.9735 289.916,22.1402 299.5,20C 310.171,18.0346 320.838,18.0346 331.5,20C 337.282,21.3694 342.615,23.7027 347.5,27C 357.744,28.0819 367.744,30.2486 377.5,33.5C 401.86,5.07444 431.86,-3.09223 467.5,9C 491.385,20.3074 506.052,38.8074 511.5,64.5 Z M 237.5,24.5 C 246.85,24.3654 249.517,28.532 245.5,37C 239.162,40.2241 235.162,38.3908 233.5,31.5C 234.071,28.6873 235.404,26.354 237.5,24.5 Z M 434.5,26.5 C 466.489,28.3212 484.489,45.1545 488.5,77C 487.337,95.8299 478.837,110.33 463,120.5C 449.488,89.141 428.655,63.8077 400.5,44.5C 409.653,34.2582 420.986,28.2582 434.5,26.5 Z M 310.5,41.5 C 312.857,41.3367 315.19,41.5034 317.5,42C 284.966,62.6978 252.3,83.1978 219.5,103.5C 219.167,103.167 218.833,102.833 218.5,102.5C 229.072,85.4273 243.072,71.9273 260.5,62C 276.004,52.0731 292.671,45.2398 310.5,41.5 Z M 346.5,51.5 C 361.001,51.9447 374.334,56.1114 386.5,64C 423.794,89.4119 445.128,124.579 450.5,169.5C 450.167,183.982 445.501,196.815 436.5,208C 397.167,232.667 357.833,257.333 318.5,282C 313.563,284.888 308.23,286.055 302.5,285.5C 288.998,285.388 276.664,281.555 265.5,274C 229.693,247.064 210.36,211.064 207.5,166C 207.021,155.727 208.855,145.894 213,136.5C 213.833,135.667 214.667,134.833 215.5,134C 259.568,106.975 303.235,79.4754 346.5,51.5 Z M 110.5,176.5 C 128.609,176.48 143.942,182.98 156.5,196C 166.43,202.692 177.264,205.192 189,203.5C 194.5,221.832 202.667,238.832 213.5,254.5C 201.254,260.131 189.587,258.965 178.5,251C 175.631,247.796 172.465,244.963 169,242.5C 156.757,227.2 143.924,212.367 130.5,198C 123.42,191.792 115.42,187.125 106.5,184C 108.494,181.842 109.828,179.342 110.5,176.5 Z"/></g>
<g><path style="opacity:0.895" fill="#000000" d="M 84.5,286.5 C 97.2324,287.311 101.399,293.644 97,305.5C 92.6887,310.468 87.522,311.635 81.5,309C 72.8782,300.229 73.8782,292.729 84.5,286.5 Z"/></g>
<g><path style="opacity:0.902" fill="#000000" d="M 84.5,320.5 C 97.2143,321.269 101.381,327.602 97,339.5C 90.0903,346.075 83.4236,345.742 77,338.5C 73.9684,330.076 76.4684,324.076 84.5,320.5 Z"/></g>
<g><path style="opacity:0.968" fill="#000000" d="M -0.5,439.5 C -0.5,413.833 -0.5,388.167 -0.5,362.5C 0.977392,360.193 2.97739,358.36 5.5,357C 65.5,356.333 125.5,356.333 185.5,357C 188.728,358.563 190.895,361.063 192,364.5C 192.499,369.155 192.666,373.821 192.5,378.5C 224.5,377.337 240.667,392.67 241,424.5C 237.808,442.691 227.308,454.191 209.5,459C 201.833,459.333 194.167,459.667 186.5,460C 177.466,481.696 162.799,498.363 142.5,510C 111.167,510.667 79.8333,510.667 48.5,510C 21.4024,493.968 5.06903,470.468 -0.5,439.5 Z M 22.5,379.5 C 71.5,379.5 120.5,379.5 169.5,379.5C 169.84,398.527 169.34,417.527 168,436.5C 164.33,458.021 153.497,474.855 135.5,487C 109.167,487.667 82.8333,487.667 56.5,487C 39.3433,475.528 28.5099,459.695 24,439.5C 22.5887,419.536 22.0887,399.536 22.5,379.5 Z M 192.5,401.5 C 206.55,399.672 215.217,405.505 218.5,419C 215.281,433.298 206.281,439.131 191.5,436.5C 192.436,424.871 192.77,413.204 192.5,401.5 Z"/></g>
</svg>
