<?xml version="1.0" encoding="UTF-8"?>
<svg xmlns="http://www.w3.org/2000/svg" version="1.1" width="512px" height="512px" style="shape-rendering:geometricPrecision; text-rendering:geometricPrecision; image-rendering:optimizeQuality; fill-rule:evenodd; clip-rule:evenodd">
<g><path style="opacity:0.959" fill="#000000" d="M 31.5,-0.5 C 137.167,-0.5 242.833,-0.5 348.5,-0.5C 387.896,2.43646 424.896,13.6031 459.5,33C 479.483,45.3154 494.983,61.8154 506,82.5C 507.973,88.2492 509.806,93.9159 511.5,99.5C 511.5,203.5 511.5,307.5 511.5,411.5C 505.816,433.335 494.149,451.502 476.5,466C 449.279,486.104 418.946,499.437 385.5,506C 373.08,508.257 360.747,510.091 348.5,511.5C 331.833,511.5 315.167,511.5 298.5,511.5C 259.108,508.539 222.108,497.372 187.5,478C 168.236,466.07 153.069,450.236 142,430.5C 139.22,423.83 137.054,416.996 135.5,410C 101.167,409.667 66.8333,409.333 32.5,409C 20.6692,399.335 9.66925,388.835 -0.5,377.5C -0.5,365.833 -0.5,354.167 -0.5,342.5C 3.43557,338.062 7.60224,333.729 12,329.5C 12.6667,323.833 12.6667,318.167 12,312.5C 7.60224,308.271 3.43557,303.938 -0.5,299.5C -0.5,287.833 -0.5,276.167 -0.5,264.5C 3.43557,260.062 7.60224,255.729 12,251.5C 12.6667,245.833 12.6667,240.167 12,234.5C 7.60224,230.271 3.43557,225.938 -0.5,221.5C -0.5,209.833 -0.5,198.167 -0.5,186.5C 3.43557,182.062 7.60224,177.729 12,173.5C 12.6667,167.833 12.6667,162.167 12,156.5C 7.60224,152.271 3.43557,147.938 -0.5,143.5C -0.5,131.833 -0.5,120.167 -0.5,108.5C 3.79776,104.704 7.96443,100.704 12,96.5C 12.6667,90.5 12.6667,84.5 12,78.5C 7.60224,74.2713 3.43557,69.9379 -0.5,65.5C -0.5,54.1667 -0.5,42.8333 -0.5,31.5C 9.83333,20.5 20.5,9.83333 31.5,-0.5 Z M 40.5,19.5 C 98.1676,19.3333 155.834,19.5 213.5,20C 184.019,31.1554 160.852,49.9888 144,76.5C 140.135,84.0949 137.468,92.0949 136,100.5C 135.333,142.833 135.333,185.167 136,227.5C 140.409,233.633 145.909,234.8 152.5,231C 154.604,228.958 155.771,226.458 156,223.5C 156.333,204.167 156.667,184.833 157,165.5C 165.271,175.105 174.771,183.271 185.5,190C 228.174,214.308 274.174,226.141 323.5,225.5C 367.771,225.764 409.771,216.264 449.5,197C 465.389,188.776 479.222,177.943 491,164.5C 491.971,245.853 491.638,327.186 490,408.5C 485.822,425.017 476.989,438.517 463.5,449C 434.345,470.394 401.678,483.394 365.5,488C 311.299,496.059 259.299,488.725 209.5,466C 187.776,455.609 171.276,439.776 160,418.5C 158.798,415.226 157.798,411.893 157,408.5C 156.667,376.167 156.333,343.833 156,311.5C 154.048,303.936 149.215,301.103 141.5,303C 139,304.167 137.167,306 136,308.5C 135.5,335.165 135.333,361.831 135.5,388.5C 103.498,388.667 71.4983,388.5 39.5,388C 33,381.5 26.5,375 20,368.5C 19.3333,362.833 19.3333,357.167 20,351.5C 24.7007,347.134 29.034,342.467 33,337.5C 33.6667,326.5 33.6667,315.5 33,304.5C 29.034,299.533 24.7007,294.866 20,290.5C 19.3333,285.167 19.3333,279.833 20,274.5C 25.0804,270.091 29.4137,265.091 33,259.5C 33.6667,248.5 33.6667,237.5 33,226.5C 29.034,221.533 24.7007,216.866 20,212.5C 19.3333,207.167 19.3333,201.833 20,196.5C 25.0804,192.091 29.4137,187.091 33,181.5C 33.6667,170.5 33.6667,159.5 33,148.5C 29.034,143.533 24.7007,138.866 20,134.5C 19.3333,129.167 19.3333,123.833 20,118.5C 25.0804,114.091 29.4137,109.091 33,103.5C 33.6667,92.5 33.6667,81.5 33,70.5C 29.034,65.5325 24.7007,60.8658 20,56.5C 19.3333,51.1667 19.3333,45.8333 20,40.5C 27.0359,33.6315 33.8693,26.6315 40.5,19.5 Z M 321.5,19.5 C 362.927,19.2177 402.26,28.051 439.5,46C 456.529,54.7748 470.696,66.9414 482,82.5C 493.333,102.167 493.333,121.833 482,141.5C 471.705,155.793 458.872,167.293 443.5,176C 394.237,200.655 342.237,209.322 287.5,202C 249.578,198.033 215.245,185.033 184.5,163C 177.261,156.431 170.761,149.265 165,141.5C 152.019,117.787 154.019,95.4539 171,74.5C 188.288,56.4331 208.788,43.2665 232.5,35C 261.516,25.2761 291.183,20.1094 321.5,19.5 Z M 320.5,81.5 C 340.663,81.2315 359.663,85.7315 377.5,95C 393.346,104.5 394.346,115.167 380.5,127C 365.592,136.412 349.258,141.412 331.5,142C 308.155,143.867 286.488,138.867 266.5,127C 261.116,123.298 257.783,118.298 256.5,112C 258.512,104.643 262.845,98.9763 269.5,95C 285.581,86.5647 302.581,82.0647 320.5,81.5 Z"/></g>
<g><path style="opacity:0.945" fill="#000000" d="M 322.5,60.5 C 344.633,60.4502 365.633,65.2835 385.5,75C 395.973,80.6494 403.806,88.8161 409,99.5C 414.262,115.86 410.428,129.693 397.5,141C 375.401,156.531 350.735,164.031 323.5,163.5C 300.846,163.67 279.513,158.503 259.5,148C 240.15,137.141 232.984,120.974 238,99.5C 245.496,85.0054 256.996,75.172 272.5,70C 288.809,64.17 305.476,61.0034 322.5,60.5 Z M 320.5,81.5 C 302.581,82.0647 285.581,86.5647 269.5,95C 262.845,98.9763 258.512,104.643 256.5,112C 257.783,118.298 261.116,123.298 266.5,127C 286.488,138.867 308.155,143.867 331.5,142C 349.258,141.412 365.592,136.412 380.5,127C 394.346,115.167 393.346,104.5 377.5,95C 359.663,85.7315 340.663,81.2315 320.5,81.5 Z"/></g>
<g><path style="opacity:0.906" fill="#000000" d="M 231.5,237.5 C 237.561,237.277 241.728,239.944 244,245.5C 244.81,250.257 244.476,254.924 243,259.5C 239.606,264.082 235.106,265.582 229.5,264C 227,262.833 225.167,261 224,258.5C 223.333,253.833 223.333,249.167 224,244.5C 225.632,241.123 228.132,238.79 231.5,237.5 Z"/></g>
<g><path style="opacity:0.887" fill="#000000" d="M 141.5,257.5 C 152.666,256.822 157.166,261.822 155,272.5C 150.66,278.864 145.16,280.031 138.5,276C 135.64,272.319 134.807,268.152 136,263.5C 137.36,260.977 139.193,258.977 141.5,257.5 Z"/></g>
<g><path style="opacity:0.915" fill="#000000" d="M 229.5,294.5 C 236.654,293.157 241.487,295.823 244,302.5C 244.667,307.833 244.667,313.167 244,318.5C 240.804,325.344 235.638,327.51 228.5,325C 226.622,323.457 225.122,321.624 224,319.5C 223.333,313.167 223.333,306.833 224,300.5C 225.36,297.977 227.193,295.977 229.5,294.5 Z"/></g>
<g><path style="opacity:0.912" fill="#000000" d="M 231.5,355.5 C 237.561,355.277 241.728,357.944 244,363.5C 244.87,369.917 244.536,376.251 243,382.5C 236.264,389.346 229.93,389.013 224,381.5C 223.333,374.833 223.333,368.167 224,361.5C 226.109,358.878 228.609,356.878 231.5,355.5 Z"/></g>
<g><path style="opacity:0.91" fill="#000000" d="M 229.5,417.5 C 236.918,415.792 241.751,418.459 244,425.5C 245.068,430.768 244.401,435.768 242,440.5C 234.933,446.068 228.933,445.068 224,437.5C 223.333,432.833 223.333,428.167 224,423.5C 225.36,420.977 227.193,418.977 229.5,417.5 Z"/></g>
</svg>
