<svg xmlns="http://www.w3.org/2000/svg" width="512" height="512" shape-rendering="geometricPrecision" image-rendering="optimizeQuality" fill-rule="evenodd"><path d="M511.5 440.5v10c-1.546 2.7-3.879 4.533-7 5.5l-67 1c-16.158 20.274-36.824 26.941-62 20-20.055-7.389-32.222-21.555-36.5-42.5-.908-9.76-.408-19.427 1.5-29h-11c7.005 27.784-.995 49.951-24 66.5-26.984 13.469-50.818 9.302-71.5-12.5-11.749-16.497-14.916-34.497-9.5-54-4.93-.303-9.763.031-14.5 1-9.112 45.444-36.779 70.111-83 74-19.33-.443-36.663-6.443-52-18-3.012-9.654.488-13.82 10.5-12.5 29.377 19.997 58.044 18.997 86-3 25.927-27.051 30.094-57.218 12.5-90.5-20.581-28.527-47.748-37.694-81.5-27.5-32.221 15.262-46.721 40.762-43.5 76.5 1.796 8.414 4.296 16.58 7.5 24.5-.052 5.21-2.719 8.043-8 8.5-5.559-2.07-9.059-6.07-10.5-12a186.45 186.45 0 0 1-5.5-20.5l-23-1c-4.735-1.068-7.902-3.901-9.5-8.5a484.25 484.25 0 0 1 0-44c1.457-5.984 5.291-8.984 11.5-9v-218c-9.362 2.111-16.696-.556-22-8v-46c4.004-4.521 8.671-8.354 14-11.5 47.381-27.882 97.715-34.882 151-21 20.445 6.057 39.445 15.057 57 27 1.878 1.543 3.378 3.376 4.5 5.5 1.983 15.659 1.983 31.325 0 47-1.981 3.245-4.814 5.411-8.5 6.5a84.9 84.9 0 0 1-13 .5v94h18a264.95 264.95 0 0 1 .5-23c2.167-6.167 6.333-10.333 12.5-12.5a361.07 361.07 0 0 1 38 0c7.8 2.8 12.3 8.3 13.5 16.5a180.87 180.87 0 0 1 .5 19h20l-15.5-54a484.01 484.01 0 0 1 0-44c1.869-4.851 5.369-7.684 10.5-8.5 29.333-.667 58.667-.667 88 0 5.181.831 8.681 3.664 10.5 8.5a484.01 484.01 0 0 1 0 44l-15.5 54h21c-.166-4.014.001-8.014.5-12 .5-1.833 1.667-3 3.5-3.5a420.29 420.29 0 0 1 41 0c1.5.833 2.667 2 3.5 3.5 17.469 45.015 18.969 90.515 4.5 136.5a25.9 25.9 0 0 1 8.5 8.5c3.394 7.788 7.061 15.455 11 23 .917 5.927-1.583 9.593-7.5 11-2.449-.48-4.615-1.48-6.5-3-4.039-8.245-8.206-16.411-12.5-24.5-83.002-.833-166.002-.667-249 .5a76.35 76.35 0 0 1 7 30 264.95 264.95 0 0 0 23-.5c21.491-22.781 46.158-26.781 74-12a110.18 110.18 0 0 1 13 12c10.017.832 20.017.666 30-.5 13.964-16.269 31.631-22.769 53-19.5 28.162 7.501 43.162 25.834 45 55-.494 5.471-1.494 10.804-3 16 15.677.833 31.344.666 47-.5a397.04 397.04 0 0 1-14-29.5c2.396-7.761 7.23-9.595 14.5-5.5a909.61 909.61 0 0 0 18.5 36zm-400-393c36.16.499 69.16 10.833 99 31 .999 10.312 1.332 20.645 1 31-15.43-.468-30.763.032-46 1.5-4 4.333-4 8.667 0 13a94.81 94.81 0 0 0 23 1.5v133c-20.283-1.886-29.117 7.114-26.5 27 2.167 6.167 6.333 10.333 12.5 12.5a53.07 53.07 0 0 0 14 1.5c.167 12.005 0 24.005-.5 36-27.842-27.331-60.008-33.831-96.5-19.5a94.08 94.08 0 0 0-32 26 242.43 242.43 0 0 1-22 .5v-217l100-.5c5.759-3.892 6.426-8.559 2-14-41.581-1.489-83.248-1.989-125-1.5-.332-10.355.001-20.688 1-31 29.069-19.579 61.07-29.913 96-31zm196 81h78v20h-78v-20zm-237 28h85v69h-85v-69zm238 8h76l-16 55h-44l-16-55zm-69 35a450.63 450.63 0 0 1 30 .5l1.5 1.5c.499 5.991.666 11.991.5 18h-33c-.293-6.755.04-13.422 1-20zm183 19a98.26 98.26 0 0 1 19.5 1c14.749 40.821 15.249 81.821 1.5 123h-21v-124zm-218 17h56v23h-56v-23zm72 0h55v23h-55v-23zm71 0h59v107h-59a484.86 484.86 0 0 1 1-44c12.791-5.25 17.291-14.584 13.5-28-2.761-5.926-7.261-9.926-13.5-12-.997-7.638-1.331-15.304-1-23zm-169 39l167 .5c3.033 3.571 2.366 6.238-2 8h-163c-3.165-2.114-3.831-4.947-2-8.5zm26 25h56v43h-56v-43zm72 0h55v43h-55v-43zm-251 59c8.028-.331 16.028.002 24 1-4.371 9.523-6.705 19.523-7 30h-17v-31zm95 10c18.721-1.281 29.388 7.385 32 26-2.418 18.26-12.752 26.76-31 25.5-12.759-3.651-19.759-12.151-21-25.5 1.124-13.104 7.791-21.77 20-26zm148 16c23.971-2.173 39.471 8.161 46.5 31 2.784 24.285-7.382 40.119-30.5 47.5-27.704 1.637-43.37-11.363-47-39 1.646-20.13 11.979-33.297 31-39.5zm116 0c27.952-1.715 43.952 11.285 48 39-3.399 27.907-19.066 41.074-47 39.5-23.103-7.344-33.269-23.177-30.5-47.5 4.244-15.742 14.077-26.075 29.5-31zm-110 29c10.186 1.011 13.686 6.344 10.5 16-5.333 6.667-10.667 6.667-16 0-3.281-7.211-1.448-12.544 5.5-16zm117 0c6.874-.079 10.541 3.254 11 10-1.117 8.639-5.784 11.806-14 9.5-7.329-7.87-6.329-14.37 3-19.5z" opacity=".937"/><path d="M63.5 140.5l99 .5c5.051 1.717 7.885 5.217 8.5 10.5a1559.72 1559.72 0 0 1 0 79c-.757 5.681-3.924 9.181-9.5 10.5a1270.42 1270.42 0 0 1-100-1c-3.825-2.488-5.992-5.988-6.5-10.5-.667-25.667-.667-51.333 0-77 .353-5.84 3.187-9.84 8.5-12zm7 16v69h85v-69h-85z" opacity=".936"/><path d="M117.5 352.5c30.029-2.135 47.029 11.698 51 41.5-3.154 29.493-19.487 43.493-49 42-21.598-5.318-33.265-19.152-35-41.5 1.471-21.658 12.471-35.658 33-42zm3 16c-12.209 4.23-18.876 12.896-20 26 1.241 13.349 8.241 21.849 21 25.5 18.248 1.26 28.582-7.24 31-25.5-2.612-18.615-13.279-27.281-32-26z" opacity=".926"/><path d="M273.5 397.5c17.722.172 27.389 9.005 29 26.5-1.306 15.641-9.806 24.474-25.5 26.5-19.479-3.145-27.812-14.478-25-34 3.465-10.632 10.632-16.965 21.5-19zm1 16c-6.948 3.456-8.781 8.789-5.5 16 5.333 6.667 10.667 6.667 16 0 3.186-9.656-.314-14.989-10.5-16z" opacity=".928"/><path d="M389.5 397.5c18.164-.278 27.831 8.555 29 26.5-.613 16.282-9.113 25.115-25.5 26.5-18.937-2.94-27.27-13.94-25-33 3.334-10.897 10.501-17.564 21.5-20zm2 16c-9.329 5.13-10.329 11.63-3 19.5 8.216 2.306 12.883-.861 14-9.5-.459-6.746-4.126-10.079-11-10z" opacity=".927"/></svg>