<svg xmlns="http://www.w3.org/2000/svg" viewBox="0 0 90.709 90.709"><circle cx="45.354" cy="45.354" r="43.52" fill="#194093"/><path d="M45.354 2.835c23.483 0 42.52 19.037 42.52 42.52s-19.037 42.52-42.52 42.52-42.52-19.037-42.52-42.52 19.037-42.52 42.52-42.52m0-2C20.806.835.834 20.806.834 45.355s19.971 44.52 44.52 44.52 44.52-19.971 44.52-44.52S69.903.835 45.354.835h0z" fill="#252e78"/><g fill="#fff"><path d="M53.815 17.829c.685.568.847.709 1.016 6.004.746.293 1.454.414 1.978.489 1.201.171 2.723-3.092 2.628-4.361-.058-.778-1.068-5.555-2.016-6.716-1.093-1.341-5.859-3.133-8.644.154-.108.128-.198.26-.292.391 2.248 1.357 5.23 3.956 5.33 4.039zM36.743 76.271v.647l.031-.958c-.011.104-.031.205-.031.311z"/><path d="M36.743 80.254a3 3 0 0 0 3 3H51.23c.005-1.817-1.207-3.412-2.959-3.893l-5.529-2.443h-6v3.336z"/></g><path d="M37.569 51.598l-.826 25.32h6l2.525-25.991c-1.493.854-3.237 1.369-4.805 1.369-1.079.001-2.057-.245-2.894-.698z" fill="#f8c409"/><path d="M42.72 11.407c.566.117 1.122.272 1.666.452l.447-.649a3 3 0 0 0-1.372-4.015c-1.484-.729-3.284-.116-4.015 1.372l-.491 1.313.17.005c1.149.071 2.649.783 3.595 1.522z" fill="#fff"/><path d="M37.418 48.619l.004.008h0c.198.387.388.708.525.828.674.593 1.563.841 2.516.841 1.777 0 3.78-.863 5.04-1.967l8.208-6.794c3.754-3.107 4.439-8.6 1.564-12.535l-.315-.431.045 1.809a4.16 4.16 0 0 1-1.188 3.028c-.796.816-1.864 1.266-3.007 1.266-1.33 0-2.5-.619-3.268-1.578-.833 2.07-1.829 4.217-2.68 5.12-.524.556-1.653 1.219-2.878 1.84l-6.523-9.75 4.84-11.653c-.218.011-.445.019-.684.019-1.212 0-2.088-.172-2.757-.542-.593-.328-1.088-.766-1.484-1.27L29.453 28.93a3 3 0 0 0-.04 2.559l8.005 17.13z" fill="#f8c409"/><path d="M52.538 19.368c-1.084-.899-5.655-5.294-10.733-6.095-.315-.427-1.858-1.333-2.804-1.392a2.03 2.03 0 0 0-.135-.004c-1.014 0-1.82.717-2.252 1.498-.452.816-.162 2.241 1.216 3.003.412.228 1.123.292 1.788.292.565 0 1.099-.046 1.39-.076 1.669.462 6.742 5.188 7.263 5.26.038.051.236 5.568.345 8.703.041 1.182 1.011 2.116 2.194 2.116a2.19 2.19 0 0 0 2.195-2.244c-.092-3.755-.293-10.917-.467-11.061z" fill="#fff"/></svg>