<?xml version="1.0" encoding="iso-8859-1"?>
<!-- Generator: Adobe Illustrator 22.1.0, SVG Export Plug-In . SVG Version: 6.00 Build 0)  -->
<svg version="1.1" xmlns="http://www.w3.org/2000/svg" xmlns:xlink="http://www.w3.org/1999/xlink" x="0px" y="0px"
	 viewBox="0 0 90.709 90.709" style="enable-background:new 0 0 90.709 90.709;" xml:space="preserve">
<g id="ratownik-1">
	<g>
		<g>
			<circle style="fill:#194093;" cx="45.354" cy="45.354" r="43.52"/>
			<g>
				<path style="fill:#252E78;" d="M45.354,2.835c23.483,0,42.52,19.037,42.52,42.52s-19.037,42.52-42.52,42.52
					s-42.52-19.037-42.52-42.52S21.871,2.835,45.354,2.835 M45.354,0.835c-24.548,0-44.52,19.971-44.52,44.52
					s19.971,44.52,44.52,44.52s44.52-19.971,44.52-44.52S69.903,0.835,45.354,0.835L45.354,0.835z"/>
			</g>
		</g>
	</g>
</g>
<g id="Warstwa_4">
	<g>
		<path style="fill:none;" d="M40.864,38.378c1.231-0.613,2.211-1.182,2.544-1.535c0.831-0.882,2.16-4.033,3.187-6.863
			c-0.142-4.053-0.221-6.052-0.263-7.012c-0.382-0.295-0.86-0.687-1.499-1.21c-1.076-0.882-3.212-2.633-4.128-3.129
			c-0.125,0.009-0.263,0.016-0.403,0.023l-4.84,11.653L40.864,38.378z"/>
		<path style="fill:#FFFFFF;" d="M53.815,17.829c0.685,0.568,0.847,0.709,1.016,6.004c0.746,0.293,1.454,0.414,1.978,0.489
			c1.201,0.171,2.723-3.092,2.628-4.361c-0.058-0.778-1.068-5.555-2.016-6.716c-1.093-1.341-5.859-3.133-8.644,0.154
			c-0.108,0.128-0.198,0.26-0.292,0.391C50.733,15.147,53.715,17.746,53.815,17.829z"/>
		<path style="fill:#FFFFFF;" d="M36.743,76.271v0.647l0.031-0.958C36.763,76.064,36.743,76.165,36.743,76.271z"/>
		<path style="fill:#FFFFFF;" d="M36.743,80.254c0,1.657,1.343,3,3,3H51.23c0.005-1.817-1.207-3.412-2.959-3.893l-5.529-2.443h-6
			V80.254z"/>
		<path style="fill:#F8C409;" d="M37.569,51.598l-0.826,25.32h6l2.525-25.991c-1.493,0.854-3.237,1.369-4.805,1.369
			C39.384,52.297,38.406,52.051,37.569,51.598z"/>
		<path style="fill:#FFFFFF;" d="M42.72,11.407c0.566,0.117,1.122,0.272,1.666,0.452l0.447-0.649
			c0.729-1.487,0.116-3.285-1.372-4.015c-1.484-0.729-3.284-0.116-4.015,1.372l-0.491,1.313c0.057,0.001,0.113,0.002,0.17,0.005
			C40.274,9.956,41.774,10.668,42.72,11.407z"/>
		<path style="fill:#F8C409;" d="M37.418,48.619l0.004,0.008l0,0c0.198,0.387,0.388,0.708,0.525,0.828
			c0.674,0.593,1.563,0.841,2.516,0.841c1.777,0,3.78-0.863,5.04-1.967l8.208-6.794c3.754-3.107,4.439-8.6,1.564-12.535
			l-0.315-0.431c0.014,0.572,0.029,1.17,0.045,1.809c0.028,1.138-0.394,2.213-1.188,3.028c-0.796,0.816-1.864,1.266-3.007,1.266
			c-1.33,0-2.5-0.619-3.268-1.578c-0.833,2.07-1.829,4.217-2.68,5.12c-0.524,0.556-1.653,1.219-2.878,1.84l-6.523-9.75l4.84-11.653
			c-0.218,0.011-0.445,0.019-0.684,0.019c-1.212,0-2.088-0.172-2.757-0.542c-0.593-0.328-1.088-0.766-1.484-1.27L29.453,28.93
			c-0.395,0.804-0.409,1.742-0.04,2.559C29.413,31.489,37.223,48.237,37.418,48.619z"/>
		<path style="fill:#FFFFFF;" d="M52.538,19.368c-1.084-0.899-5.655-5.294-10.733-6.095c-0.315-0.427-1.858-1.333-2.804-1.392
			c-0.045-0.003-0.09-0.004-0.135-0.004c-1.014,0-1.82,0.717-2.252,1.498c-0.452,0.816-0.162,2.241,1.216,3.003
			c0.412,0.228,1.123,0.292,1.788,0.292c0.565,0,1.099-0.046,1.39-0.076c1.669,0.462,6.742,5.188,7.263,5.26
			c0.038,0.051,0.236,5.568,0.345,8.703c0.041,1.182,1.011,2.116,2.194,2.116c1.234,0,2.226-1.01,2.195-2.244
			C52.913,26.674,52.712,19.512,52.538,19.368z"/>
	</g>
</g>
</svg>
