<svg xmlns="http://www.w3.org/2000/svg" viewBox="0 0 90.709 90.709"><circle transform="matrix(.9239 -.3827 .3827 .9239 -13.9041 20.8088)" cx="45.354" cy="45.355" r="43.52" fill="#194093"/><path d="M45.354 2.835c23.483 0 42.52 19.037 42.52 42.52s-19.037 42.52-42.52 42.52-42.52-19.037-42.52-42.52 19.037-42.52 42.52-42.52m0-2C20.806.835.834 20.806.834 45.355s19.971 44.52 44.52 44.52 44.52-19.971 44.52-44.52S69.903.835 45.354.835h0z" fill="#252e78"/><path d="M80.395 30.43c-.735-1.887-5.398-5.599-9.684-2.941-4.079 2.53-3.573 7.721-1.473 10.106.214.244.542.649.542.649l-2.055 1.155a4.74 4.74 0 0 1 1.652 2.059c.17.412.259.84.311 1.27l1.766 1.119 2.033-2.721c.789.699 1.626 1.125 2.236 1.423 1.276.623 4.147-2.464 4.498-3.912.216-.887.811-6.572.174-8.207zm-58.189 8.918h0l-.069-3.563c-.029-1.482-1.254-2.661-2.736-2.632l-10.278.2a3.6 3.6 0 0 0 2.715 3.431l4.989 2.089.01.501.002-.027h5.367z" fill="#fff"/><path d="M69.349 45.191c-.759 1.766-2.49 2.907-4.409 2.907a4.78 4.78 0 0 1-1.739-.327l-3.059-1.122-2.469-.894c-1.439.822-2.759 1.48-3.642 1.706-2.159.552-8.311-.611-9.79-.81-4.024-.541-21.666 5.497-21.666 5.497l-.37-12.799h0-5.368l-.002.027-.988 17.224a3 3 0 0 0 1.982 1.619s22.119 2.191 31.362.062l12.704-1.618c5.81-.74 10.039-5.876 9.651-11.72l-.072-1.085-.019-.012-1.766-1.119c.099.829 0 1.673-.34 2.464zm-5.422.716a2.78 2.78 0 0 0 1.013.191 2.8 2.8 0 0 0 2.572-1.697c.622-1.447-.062-3.118-1.524-3.703l-8.734-3.363 6.563-12.029c.543-1.048-.948-2.066-2.659-2.066-1.11 0-2.312.428-3.111 1.553-1.021 1.438-.625 3.042-.359 3.622-.704 1.03-9.475 11.049-6.683 12.461 3.416 1.729 10.247 3.99 12.922 5.031z" fill="#f8c409"/></svg>