<?xml version="1.0" encoding="iso-8859-1"?>
<!-- Generator: Adobe Illustrator 22.1.0, SVG Export Plug-In . SVG Version: 6.00 Build 0)  -->
<svg version="1.1" xmlns="http://www.w3.org/2000/svg" xmlns:xlink="http://www.w3.org/1999/xlink" x="0px" y="0px"
	 viewBox="0 0 90.709 90.709" style="enable-background:new 0 0 90.709 90.709;" xml:space="preserve">
<g id="ratownik-1">
	<g>
		<g>
			<circle style="fill:#194093;" cx="45.354" cy="45.355" r="43.52"/>
			<g>
				<path style="fill:#252E78;" d="M45.354,2.835c23.483,0,42.52,19.037,42.52,42.52s-19.037,42.52-42.52,42.52
					s-42.52-19.037-42.52-42.52S21.871,2.835,45.354,2.835 M45.354,0.835c-24.548,0-44.52,19.971-44.52,44.52
					s19.971,44.52,44.52,44.52s44.52-19.971,44.52-44.52S69.903,0.835,45.354,0.835L45.354,0.835z"/>
			</g>
		</g>
	</g>
</g>
<g id="Warstwa_4">
	<path style="fill:#FFFFFF;" d="M73.755,60.674c0-1.076-1.909-3.242-1.909-3.242L71.61,57.46c-0.54,0.244-1.386,0.58-2.608,0.926
		c1.233,2.507-1.138,3.897-1.138,3.897c-0.933,0.676-8.234,1.238-10.028,0.981c-1.5-0.215-1.097-2.654-0.924-3.451
		c-1.183,0.004-2.419-0.012-3.76-0.074c0,0-0.21-0.081-0.57-0.221c-0.181,3.068-1.109,3.516-3.215,3.516
		c-5.046,0-16.741-0.751-16.741-0.751c-2.899,0-2.741-3.512-2.413-5.528h-4.584c-0.036,3.454-0.534,4.923-2.475,4.923
		c-1.312,0-5.111-0.14-5.111-0.14c-1.579,0.431-0.989,3.298-0.989,3.298s30.572,2.196,43.562,2.196
		C74.529,67.032,73.755,60.674,73.755,60.674z"/>
	<path style="fill:#FFFFFF;" d="M53.153,56.294c13.616,0.072,19.046-2.576,19.172-2.638c0.122-4.265-1.733-5.775-1.733-5.775
		s-3.875-2.009-12.057-5.382c-2.268-0.935-3.98-2.31-5.292-3.803c0,0-7.137,1.219-7.221,1.219c-0.717,0-1.351-0.516-1.477-1.247
		c-0.14-0.816,0.408-1.592,1.225-1.732l5.539-0.952c-0.746-1.319-1.238-2.586-1.557-3.609c0,0-5.941,1.013-6.026,1.013
		c-0.717,0-1.351-0.516-1.477-1.247c-0.14-0.816,0.408-1.592,1.225-1.732l5.71-0.981l-0.128-3.854c0,0-7.541,1.288-7.625,1.288
		c-0.717,0-1.351-0.516-1.477-1.247c-0.14-0.816,0.408-1.592,1.225-1.732l7.776-1.336l-0.251-7.534
		c-4.234-2.655-6.674,1.794-6.746,1.22c-0.072-0.574-1.938-0.502-1.938-0.502L23.27,21.491c0,0,1.104,12.255,1.104,12.686
		c0,0.431-2.206,3.422-2.44,7.388c-0.034,0.585,0.234,2.809,0.234,2.809L53.153,56.294z"/>
	<path style="fill:#F8C409;" d="M35.688,56.755v-3.666c1.689,0.543,17.464,6.649,17.464,6.649c1.341,0.062,2.577,0.079,3.76,0.074
		c5.707-0.02,9.638-0.731,12.09-1.426c1.221-0.346,3.335-1.292,3.335-1.292V53.65c0,0-0.011,0.005-0.012,0.006
		c-0.126,0.063-5.556,2.71-19.172,2.638l-30.985-11.92v12.382H35.688z"/>
</g>
</svg>
