<svg xmlns="http://www.w3.org/2000/svg" viewBox="0 0 90.709 90.709"><circle cx="45.354" cy="45.355" r="43.52" fill="#194093"/><path d="M45.354 2.835c23.483 0 42.52 19.037 42.52 42.52s-19.037 42.52-42.52 42.52-42.52-19.037-42.52-42.52 19.037-42.52 42.52-42.52m0-2C20.806.835.834 20.806.834 45.355s19.971 44.52 44.52 44.52 44.52-19.971 44.52-44.52S69.903.835 45.354.835h0z" fill="#252e78"/><path d="M73.755 60.674c0-1.076-1.909-3.242-1.909-3.242l-.236.028c-.54.244-1.386.58-2.608.926 1.233 2.507-1.138 3.897-1.138 3.897-.933.676-8.234 1.238-10.028.981-1.5-.215-1.097-2.654-.924-3.451-1.183.004-2.419-.012-3.76-.074l-.57-.221c-.181 3.068-1.109 3.516-3.215 3.516-5.046 0-16.741-.751-16.741-.751-2.899 0-2.741-3.512-2.413-5.528h-4.584c-.036 3.454-.534 4.923-2.475 4.923-1.312 0-5.111-.14-5.111-.14-1.579.431-.989 3.298-.989 3.298s30.572 2.196 43.562 2.196c13.913 0 13.139-6.358 13.139-6.358zm-20.602-4.38c13.616.072 19.046-2.576 19.172-2.638.122-4.265-1.733-5.775-1.733-5.775s-3.875-2.009-12.057-5.382c-2.268-.935-3.98-2.31-5.292-3.803l-7.221 1.219a1.5 1.5 0 0 1-.252-2.979l5.539-.952a18.66 18.66 0 0 1-1.557-3.609l-6.026 1.013a1.5 1.5 0 0 1-.252-2.979l5.71-.981-.128-3.854-7.625 1.288a1.5 1.5 0 0 1-.252-2.979l7.776-1.336-.251-7.534c-4.234-2.655-6.674 1.794-6.746 1.22s-1.938-.502-1.938-.502l-16.75 5.76 1.104 12.686c0 .431-2.206 3.422-2.44 7.388-.034.585.234 2.809.234 2.809l30.985 11.92z" fill="#fff"/><path d="M35.688 56.755v-3.666c1.689.543 17.464 6.649 17.464 6.649a73.74 73.74 0 0 0 3.76.074c5.707-.02 9.638-.731 12.09-1.426 1.221-.346 3.335-1.292 3.335-1.292V53.65c-.138.069-5.568 2.716-19.184 2.644l-30.985-11.92v12.382h13.52z" fill="#f8c409"/></svg>