<svg xmlns="http://www.w3.org/2000/svg" viewBox="0 0 90.709 90.709"><ellipse transform="matrix(.9013 -.4332 .4332 .9013 -15.1708 24.1234)" cx="45.354" cy="45.355" rx="43.52" ry="43.519" fill="#194093"/><path d="M45.354 2.835c23.483 0 42.52 19.037 42.52 42.52s-19.037 42.52-42.52 42.52-42.52-19.037-42.52-42.52 19.037-42.52 42.52-42.52m0-2C20.806.835.834 20.806.834 45.355s19.971 44.52 44.52 44.52 44.52-19.972 44.52-44.52S69.903.835 45.354.835h0z" fill="#252e78"/><path d="M39.915 29.026L35.823 26.4c-1.747 2.025-2.661 2.949-1.406 3.814.39.303 2.462 1.344 4.974 2.517l.124-.469c.312-1.37.405-2.376.4-3.236z" fill="#fff"/><path d="M41.046 20.886a9.32 9.32 0 0 1 .634-1.305l-5.081 5.72 3.22 1.826c-.071-1.668.06-3.256 1.227-6.241zM45.673 70.3l-.755-2.168-.02-.012L57.18 52.84l-7.79-11.287-3.741 9.265 4.899 2.021c-5.535 2.32-5.577 9.945-9.208 13.108l-2.931 2.607 3.881 4.09s2.559 2.667 5.966 1.854c1.022-2.312-.532-2.444-2.583-4.198z" fill="#f8c409"/><path d="M48.585 20.018l.676.174c-.177-.972-.357-2.839-.255-3.612.692.303 1.358.409 1.839.478 1.008.144 2.285-2.595 2.206-3.661-.049-.653-.897-4.662-1.692-5.637-.918-1.125-4.918-2.629-7.255.129-2.224 2.625-.735 6.055 1.224 7.219.2.119.391.174.572.191l-.059.132-.677 3.307.457-.026c.636 0 1.917.165 2.964 1.306z" fill="#fff"/><path d="M48.049 38.267c-1.612 0-2.057-1.237-3.133-4.226L43.55 30.09l-2.196-6.176c-.758 2.92-.006 3.999-.176 8.412-.116 3.017-2.167 3.811-3.523 6.531-1.201 2.409-1.977 16.969-2.745 17.478-5.685 1.925-7.967 9.731-10.856 13.46l-3.079 2.918 4.743 5.762s1.859.462 5.314-.108c1.182-2.235-.5-2.188-2.562-2.625l-1.099-3.47 13.433-13.914 7.45-18.45s.371-.73.887-1.873c-.368.116-.659.193-.844.215-.08.012-.165.017-.248.017zm1.66-16.255l2.036 7.292.447-.152c.263-1.325.395-2.595.286-3.682-.128-1.28-1.467-4.825-2.467-5.156l-1.425-.297c.436.477.832 1.118 1.123 1.995z" fill="#f8c409"/><path d="M60.014 27.411c-.784.249-1.844 1.563-2.211 2.041l-7.261 2.451c-.122-.014-2.555-7.877-2.656-7.684-.306.58-3.847 1.476-3.481 2.179.167.321 3.229 9.92 3.648 9.869 1.32-.16 12.498-5.084 13.302-5.477 1.375-.672 1.775-1.425 1.508-2.264s-1.432-1.565-2.849-1.115z" fill="#fff"/><path d="M45.611 29.893l-2.365-6.633c-.374-1.162.69-2.373 2.066-2.53 1.3-.149 2.071.623 2.498 1.911l2.007 5.494-4.206 1.758z" fill="#f8c409"/></svg>