<?xml version="1.0" encoding="iso-8859-1"?>
<!-- Generator: Adobe Illustrator 25.0.0, SVG Export Plug-In . SVG Version: 6.00 Build 0)  -->
<svg version="1.1" xmlns="http://www.w3.org/2000/svg" xmlns:xlink="http://www.w3.org/1999/xlink" x="0px" y="0px"
	 viewBox="0 0 90.709 90.709" style="enable-background:new 0 0 90.709 90.709;" xml:space="preserve">
<g id="ratownik-1">
	<g>
		<g>
			
				<ellipse transform="matrix(0.9013 -0.4332 0.4332 0.9013 -15.1708 24.1234)" style="fill:#194093;" cx="45.354" cy="45.355" rx="43.52" ry="43.519"/>
			<g>
				<path style="fill:#252E78;" d="M45.354,2.835c23.483,0,42.52,19.037,42.52,42.52c0,23.483-19.037,42.52-42.52,42.52
					c-23.483,0-42.52-19.037-42.52-42.52C2.835,21.871,21.871,2.835,45.354,2.835 M45.354,0.835c-24.548,0-44.52,19.971-44.52,44.52
					s19.971,44.52,44.52,44.52c24.548,0,44.52-19.972,44.52-44.52S69.903,0.835,45.354,0.835L45.354,0.835z"/>
			</g>
		</g>
	</g>
</g>
<g id="Warstwa_4">
	<g>
		<g>
			<g>
				<path style="fill:#FFFFFF;" d="M39.915,29.026c-1.98-1.21-3.719-2.334-4.092-2.626c-1.747,2.025-2.661,2.949-1.406,3.814
					c0.39,0.303,2.462,1.344,4.974,2.517c0.041-0.154,0.084-0.295,0.124-0.469C39.827,30.892,39.92,29.886,39.915,29.026z"/>
			</g>
			<g>
				<path style="fill:#F8C409;" d="M41.046,20.886c0.187-0.479,0.407-0.916,0.634-1.305l-5.081,5.72l3.22,1.826
					C39.748,25.459,39.879,23.871,41.046,20.886z"/>
			</g>
			<path style="fill:#F8C409;" d="M45.673,70.3l-0.755-2.168l-0.02-0.012l12.282-15.28L49.39,41.553l-3.741,9.265
				c2.022,0.832,3.881,1.407,4.899,2.021c-5.535,2.32-5.577,9.945-9.208,13.108l-2.931,2.607l3.881,4.09
				c0,0,2.559,2.667,5.966,1.854C49.278,72.186,47.724,72.054,45.673,70.3z"/>
		</g>
		<g>
			<g>
				<path style="fill:#FFFFFF;" d="M48.585,20.018l0.676,0.174c-0.177-0.972-0.357-2.839-0.255-3.612
					c0.692,0.303,1.358,0.409,1.839,0.478c1.008,0.144,2.285-2.595,2.206-3.661c-0.049-0.653-0.897-4.662-1.692-5.637
					c-0.918-1.125-4.918-2.629-7.255,0.129c-2.224,2.625-0.735,6.055,1.224,7.219c0.2,0.119,0.391,0.174,0.572,0.191l-0.059,0.132
					c0,0-0.344,1.629-0.677,3.307c0.156-0.015,0.31-0.026,0.457-0.026C46.257,18.712,47.538,18.877,48.585,20.018z"/>
			</g>
			<g>
				<path style="fill:#F8C409;" d="M48.049,38.267c-1.612,0-2.057-1.237-3.133-4.226c-0.45-1.25-0.941-2.692-1.366-3.951
					c-0.464-1.259-1.672-4.553-2.196-6.176c-0.758,2.92-0.006,3.999-0.176,8.412c-0.116,3.017-2.167,3.811-3.523,6.531
					c-1.201,2.409-1.977,16.969-2.745,17.478c-5.685,1.925-7.967,9.731-10.856,13.46l-3.079,2.918l4.743,5.762
					c0,0,1.859,0.462,5.314-0.108c1.182-2.235-0.5-2.188-2.562-2.625l-1.099-3.47l13.433-13.914l7.45-18.45
					c0,0,0.371-0.73,0.887-1.873c-0.368,0.116-0.659,0.193-0.844,0.215C48.217,38.262,48.132,38.267,48.049,38.267z"/>
			</g>
			<g>
				<path style="fill:#F8C409;" d="M49.709,22.012c0.503,1.517,1.999,7.181,2.036,7.292c0.14-0.048,0.29-0.099,0.447-0.152
					c0.263-1.325,0.395-2.595,0.286-3.682c-0.128-1.28-1.467-4.825-2.467-5.156l-1.425-0.297
					C49.022,20.494,49.418,21.135,49.709,22.012z"/>
			</g>
		</g>
		<g>
			<path style="fill:#FFFFFF;" d="M60.014,27.411c-0.784,0.249-1.844,1.563-2.211,2.041c0,0-6.873,2.141-7.261,2.451
				c-0.122-0.014-2.555-7.877-2.656-7.684c-0.306,0.58-3.847,1.476-3.481,2.179c0.167,0.321,3.229,9.92,3.648,9.869
				c1.32-0.16,12.498-5.084,13.302-5.477c1.375-0.672,1.775-1.425,1.508-2.264C62.596,27.687,61.431,26.961,60.014,27.411z"/>
		</g>
		<g>
			<path style="fill:#F8C409;" d="M45.611,29.893c0,0-1.739-4.687-2.365-6.633c-0.374-1.162,0.69-2.373,2.066-2.53
				c1.3-0.149,2.071,0.623,2.498,1.911c0.522,1.575,2.007,5.494,2.007,5.494L45.611,29.893z"/>
		</g>
	</g>
</g>
</svg>
