<?xml version="1.0" encoding="iso-8859-1"?>
<!-- Generator: Adobe Illustrator 24.1.1, SVG Export Plug-In . SVG Version: 6.00 Build 0)  -->
<svg version="1.1" xmlns="http://www.w3.org/2000/svg" xmlns:xlink="http://www.w3.org/1999/xlink" x="0px" y="0px"
	 viewBox="0 0 90.709 90.709" style="enable-background:new 0 0 90.709 90.709;" xml:space="preserve">
<g id="ratownik-1">
	<g>
		<g>
			<path style="fill:#194093;" d="M45.354,88.874c-23.997,0-43.52-19.522-43.52-43.52s19.522-43.52,43.52-43.52
				s43.521,19.522,43.521,43.52S69.351,88.874,45.354,88.874z"/>
			<g>
				<path style="fill:#252E78;" d="M45.354,2.835c23.483,0,42.52,19.037,42.52,42.52s-19.037,42.52-42.52,42.52
					c-23.483,0-42.52-19.037-42.52-42.52S21.871,2.835,45.354,2.835 M45.354,0.835c-24.548,0-44.52,19.971-44.52,44.52
					s19.971,44.52,44.52,44.52s44.52-19.971,44.52-44.52S69.903,0.835,45.354,0.835L45.354,0.835z"/>
			</g>
		</g>
	</g>
</g>
<g id="Warstwa_4">
	<g>
		<path style="fill:#F8C409;" d="M53.791,45.817c-0.116-0.958-0.186-2.326-0.275-4.342c-0.01-0.224-0.018-0.451-0.028-0.677
			l-10.306-9.012c-0.185-0.052,6.673,2.33,10.163,3.221c-0.006-0.779-0.005-1.509,0.004-2.15c0.036-2.526,1.996-4.617,4.463-4.761
			c0.088-0.005,0.176-0.008,0.263-0.008h0c1.183,0,2.288,0.463,3.112,1.302c0.849,0.865,1.303,2.029,1.279,3.277
			c-0.016,0.838-0.015,1.756-0.005,2.685l3.56-2.302c-0.749-1.128-1.91-1.805-2.731-2.986c-1.517-2.184-3.994-6.427-10.046-7.733
			c-4.616-0.996-9.361-1.627-14.287,0.577c-5.829,2.609-6.27,5.081-6.106,7.894c0.329,5.625,9.6,12.33,9.6,12.33L27.2,51.329
			l7.687,4.422l0.003-0.002l8.326,4.827c1.129-1.947,0.814-4.409-0.769-6.009l-0.812-2.983l11.778-5.549
			C53.552,45.977,53.668,45.893,53.791,45.817z"/>
		<path style="fill:#FFFFFF;" d="M62.483,36.722c0.596,1.008,3.683,1.447,4.776,1.04c0.724-0.27,4.99-2.549,5.834-3.77
			c0.974-1.41,1.365-6.439-2.531-8.182c-3.707-1.659-7.106,1.157-7.782,3.76c-0.069,0.266-0.198,0.687-0.198,0.687
			s-0.062,1.255-0.119,2.639C62.445,34.091,62.456,35.423,62.483,36.722z"/>
		<path style="fill:#FFFFFF;" d="M53.35,32.857c0.007-0.489,0.105-0.954,0.246-1.4L33.214,15.324l1.426-1.83l-1.894-1.476
			l-1.415,1.816l-2.707-0.613l1.232,2.506l-1.411,1.81l1.894,1.476l1.4-1.796l21.604,17.101C53.342,33.8,53.343,33.303,53.35,32.857
			z"/>
		<path style="fill:#FFFFFF;" d="M67.795,42.697l-5.266-4.168c0.035,1.105,0.077,2.104,0.115,2.856
			C63.644,41.619,65.223,42.019,67.795,42.697z"/>
		<g>
			<path style="fill:#FFFFFF;" d="M64.057,75.242c-1.486,0-2.954-0.39-4.275-1.153L9.191,44.88l2-3.464l50.591,29.208
				c1.059,0.612,2.292,0.773,3.475,0.458c1.181-0.316,2.169-1.074,2.78-2.133c0.552-0.956,1.776-1.285,2.732-0.732
				c0.957,0.552,1.284,1.775,0.732,2.732c-1.146,1.984-2.996,3.404-5.209,3.997C65.553,75.143,64.802,75.242,64.057,75.242z"/>
		</g>
		<g>
			<g>
				<g>
					<path style="fill:#F8C409;" d="M58.075,30.089c1.356,0,2.419,1.11,2.391,2.541c-0.081,4.228,0.226,10.369,0.299,10.43
						c0.008-0.001,0.018-0.002,0.03-0.002c0.79,0,10.002,2.518,10.851,2.729c1.557,0.387,2.158,1.778,1.879,2.755
						c-0.28,0.977-1.122,1.961-2.226,2.207c-0.065,0.014-0.134,0.021-0.206,0.021c-1.002,0-2.625-1.313-3.008-1.64
						c-5.844-0.402-10.836-2.066-12.126-2.68c-0.307-0.146-0.677-8.839-0.61-13.566c0.021-1.463,1.172-2.71,2.579-2.792
						C57.978,30.091,58.027,30.089,58.075,30.089"/>
				</g>
			</g>
		</g>
	</g>
</g>
</svg>
