<svg xmlns="http://www.w3.org/2000/svg" viewBox="0 0 90.709 90.709"><path d="M45.354 88.874c-23.997 0-43.52-19.522-43.52-43.52s19.522-43.52 43.52-43.52 43.521 19.522 43.521 43.52-19.524 43.52-43.521 43.52z" fill="#194093"/><path d="M45.354 2.835c23.483 0 42.52 19.037 42.52 42.52s-19.037 42.52-42.52 42.52-42.52-19.037-42.52-42.52 19.037-42.52 42.52-42.52m0-2C20.806.835.834 20.806.834 45.355s19.971 44.52 44.52 44.52 44.52-19.971 44.52-44.52S69.903.835 45.354.835h0z" fill="#252e78"/><path d="M53.791 45.817c-.116-.958-.186-2.326-.275-4.342l-.028-.677-10.306-9.012c-.185-.052 6.673 2.33 10.163 3.221l.004-2.15c.036-2.526 1.996-4.617 4.463-4.761.088-.005.176-.008.263-.008h0c1.183 0 2.288.463 3.112 1.302.849.865 1.303 2.029 1.279 3.277-.016.838-.015 1.756-.005 2.685l3.56-2.302c-.749-1.128-1.91-1.805-2.731-2.986-1.517-2.184-3.994-6.427-10.046-7.733-4.616-.996-9.361-1.627-14.287.577-5.829 2.609-6.27 5.081-6.106 7.894.329 5.625 9.6 12.33 9.6 12.33L27.2 51.329l7.687 4.422.003-.002 8.326 4.827c1.129-1.947.814-4.409-.769-6.009l-.812-2.983 11.778-5.549c.139-.058.255-.142.378-.218z" fill="#f8c409"/><path d="M62.483 36.722c.596 1.008 3.683 1.447 4.776 1.04.724-.27 4.99-2.549 5.834-3.77.974-1.41 1.365-6.439-2.531-8.182-3.707-1.659-7.106 1.157-7.782 3.76l-.198.687-.119 2.639.02 3.826zm-9.133-3.865c.007-.489.105-.954.246-1.4L33.214 15.324l1.426-1.83-1.894-1.476-1.415 1.816-2.707-.613 1.232 2.506-1.411 1.81 1.894 1.476 1.4-1.796 21.604 17.101.007-1.461zm14.445 9.84l-5.266-4.168.115 2.856 5.151 1.312zm-3.738 32.545c-1.486 0-2.954-.39-4.275-1.153L9.191 44.88l2-3.464 50.591 29.208c1.059.612 2.292.773 3.475.458s2.169-1.074 2.78-2.133a2 2 0 1 1 3.464 2c-1.146 1.984-2.996 3.404-5.209 3.997-.739.197-1.49.296-2.235.296z" fill="#fff"/><path d="M58.075 30.089c1.356 0 2.419 1.11 2.391 2.541-.081 4.228.226 10.369.299 10.43.008-.001.018-.002.03-.002.79 0 10.002 2.518 10.851 2.729 1.557.387 2.158 1.778 1.879 2.755s-1.122 1.961-2.226 2.207a.98.98 0 0 1-.206.021c-1.002 0-2.625-1.313-3.008-1.64-5.844-.402-10.836-2.066-12.126-2.68-.307-.146-.677-8.839-.61-13.566.021-1.463 1.172-2.71 2.579-2.792l.147-.003" fill="#f8c409"/></svg>