<?xml version="1.0" encoding="iso-8859-1"?>
<!-- Generator: Adobe Illustrator 22.1.0, SVG Export Plug-In . SVG Version: 6.00 Build 0)  -->
<svg version="1.1" xmlns="http://www.w3.org/2000/svg" xmlns:xlink="http://www.w3.org/1999/xlink" x="0px" y="0px"
	 viewBox="0 0 90.709 90.709" style="enable-background:new 0 0 90.709 90.709;" xml:space="preserve">
<g id="ratownik-1">
	<g>
		<g>
			<circle style="fill:#194093;" cx="45.354" cy="45.355" r="43.52"/>
			<g>
				<path style="fill:#252E78;" d="M45.354,2.835c23.483,0,42.52,19.037,42.52,42.52s-19.037,42.52-42.52,42.52
					s-42.52-19.037-42.52-42.52S21.871,2.835,45.354,2.835 M45.354,0.835c-24.548,0-44.52,19.971-44.52,44.52
					s19.971,44.52,44.52,44.52s44.52-19.971,44.52-44.52S69.903,0.835,45.354,0.835L45.354,0.835z"/>
			</g>
		</g>
	</g>
</g>
<g id="Warstwa_4">
	<g>
		<path style="fill:#FFFFFF;" d="M39.707,46.369c1.042,1.336,2.229,2.567,3.444,3.696c19.608,2.58,24.302-0.61,24.371-0.658
			c-0.787-1.87-2.66-3.152-5.379-3.59c0,0-9.881-0.264-15.725-8c-0.001,0,0,0.002-0.001,0.002
			C43.838,38.6,38.73,40.863,39.707,46.369z"/>
		<path style="fill:#FFFFFF;" d="M67.904,52.184c-0.027,0.295-0.067,0.596-0.134,0.906C67.837,52.78,67.877,52.48,67.904,52.184z"/>
		<path style="fill:#FFFFFF;" d="M34.584,23.456c4.297-1.76,9.887,0.083,12.576,2.692c0.542-2.387,0.445-5.357-2.862-6.412
			c-1.143-0.366-4.705-1.532-11.357,0.204c-1.387,0.363-3.114,1.808-4.121,4.26C31.05,25.629,34.584,23.456,34.584,23.456z"/>
		<path style="fill:#FFFFFF;" d="M67.926,51.201c0.014,0.246,0.011,0.5-0.005,0.758C67.937,51.701,67.94,51.447,67.926,51.201z"/>
		<path style="fill:#FFFFFF;" d="M67.548,49.475c0.086,0.213,0.157,0.435,0.215,0.662C67.705,49.91,67.634,49.688,67.548,49.475z"/>
		<path style="fill:#FFFFFF;" d="M67.803,50.293c0.058,0.261,0.1,0.53,0.12,0.808C67.903,50.822,67.86,50.554,67.803,50.293z"/>
		<path style="fill:#FFFFFF;" d="M28.552,24.897c0.037-0.113,0.078-0.222,0.118-0.331C28.63,24.676,28.589,24.784,28.552,24.897z"/>
		<path style="fill:#F8C409;" d="M66.46,58.406c-0.032,0-0.062,0.004-0.094,0.005l1.612,1.753c0.847,0.921,0.942,2.305,0.23,3.333
			c-0.5,0.722-1.321,1.152-2.199,1.152h-5.43c0.18,3.095,2.741,5.551,5.88,5.551c3.258,0,5.897-2.641,5.897-5.897
			C72.357,61.045,69.717,58.406,66.46,58.406z"/>
		<path style="fill:#F8C409;" d="M53.336,70.2c3.14,0,5.7-2.456,5.88-5.551H47.456C47.636,67.744,50.196,70.2,53.336,70.2z"/>
		<path style="fill:#F8C409;" d="M40.387,70.2c3.142,0,5.701-2.456,5.881-5.551h-11.76C34.688,67.744,37.247,70.2,40.387,70.2z"/>
		<path style="fill:#F8C409;" d="M21.815,63.272c-0.059,0.335-0.096,0.678-0.096,1.031c0,3.257,2.64,5.897,5.897,5.897
			c3.14,0,5.699-2.456,5.88-5.551h-6.031L21.815,63.272z"/>
		<path style="fill:#F8C409;" d="M63.65,55.457l0.073,0.079c0.208-0.038,0.412-0.078,0.61-0.123c1.45-0.328,2.615-0.849,3.155-1.66
			c0.135-0.203,0.231-0.423,0.282-0.663c0.066-0.31,0.106-0.611,0.134-0.906c0.007-0.076,0.012-0.15,0.016-0.225
			c0.016-0.259,0.019-0.512,0.005-0.758c-0.002-0.033,0-0.068-0.003-0.1c-0.02-0.278-0.063-0.547-0.12-0.808
			c-0.012-0.053-0.026-0.103-0.039-0.155c-0.058-0.228-0.129-0.449-0.215-0.662c-0.009-0.023-0.013-0.048-0.023-0.071
			c0,0-0.003,0.002-0.003,0.002c-0.069,0.048-4.763,3.238-24.371,0.658c-1.214-1.128-2.402-2.359-3.444-3.696
			c-0.978-5.505,4.13-7.769,6.71-8.551c0.001,0,0-0.002,0.001-0.002c0.176-0.072-1.664-2.737-0.837-5.553
			c0.446-1.52,2.316-5.401,1.581-6.113c0,0-0.001-0.001-0.002-0.001c-2.689-2.61-8.279-4.452-12.576-2.692
			c0,0-3.534,2.173-5.764,0.744c-0.005-0.003-0.011-0.005-0.016-0.009c-0.049,0.119-0.088,0.251-0.134,0.375
			c-0.04,0.11-0.081,0.218-0.118,0.331c-0.119,0.366-0.228,0.746-0.313,1.152c0,0-2.333,10.842-4.392,17.088
			c0,0-2.68,8.395,3.086,10.92c0.15,0.009,0.295,0.013,0.448,0.027L63.65,55.457z"/>
		<path style="fill:#FFFFFF;" d="M68.209,63.497c0.712-1.028,0.616-2.413-0.23-3.333l-1.612-1.753l-2.643-2.874l-0.073-0.079
			l-36.27-1.375c-0.153-0.014-0.298-0.017-0.448-0.027c-2.417-0.148-4.414,0.296-6.038,1.041c-3.735,1.713-3.244,7.16,0.748,8.133
			l0.173,0.042l5.651,1.377h6.031h1.011h11.76h1.188h11.761h1.363h5.43C66.887,64.649,67.709,64.219,68.209,63.497z"/>
	</g>
</g>
</svg>
