<svg xmlns="http://www.w3.org/2000/svg" viewBox="0 0 90.709 90.709"><circle cx="45.354" cy="45.355" r="43.52" fill="#194093"/><path d="M45.354 2.835c23.483 0 42.52 19.037 42.52 42.52s-19.037 42.52-42.52 42.52-42.52-19.037-42.52-42.52 19.037-42.52 42.52-42.52m0-2C20.806.835.834 20.806.834 45.355s19.971 44.52 44.52 44.52 44.52-19.971 44.52-44.52S69.903.835 45.354.835h0z" fill="#252e78"/><path d="M39.707 46.369c1.042 1.336 2.229 2.567 3.444 3.696 19.608 2.58 24.302-.61 24.371-.658-.787-1.87-2.66-3.152-5.379-3.59 0 0-9.881-.264-15.725-8-2.58.783-7.688 3.046-6.711 8.552zm28.197 5.815c-.027.295-.067.596-.134.906.067-.31.107-.61.134-.906zm-33.32-28.728c4.297-1.76 9.887.083 12.576 2.692.542-2.387.445-5.357-2.862-6.412-1.143-.366-4.705-1.532-11.357.204-1.387.363-3.114 1.808-4.121 4.26 2.23 1.429 5.764-.744 5.764-.744zm33.342 27.745c.014.246.011.5-.005.758.016-.258.019-.512.005-.758zm-.378-1.726c.086.213.157.435.215.662-.058-.227-.129-.449-.215-.662zm.255.818c.058.261.1.53.12.808-.02-.279-.063-.547-.12-.808zM28.552 24.897l.118-.331-.118.331z" fill="#fff"/><path d="M66.46 58.406c-.032 0-.062.004-.094.005l1.612 1.753c.847.921.942 2.305.23 3.333-.5.722-1.321 1.152-2.199 1.152h-5.43c.18 3.095 2.741 5.551 5.88 5.551a5.9 5.9 0 0 0 5.897-5.897c.001-3.258-2.639-5.897-5.896-5.897zM53.336 70.2c3.14 0 5.7-2.456 5.88-5.551h-11.76c.18 3.095 2.74 5.551 5.88 5.551zm-12.949 0c3.142 0 5.701-2.456 5.881-5.551h-11.76c.18 3.095 2.739 5.551 5.879 5.551zm-18.572-6.928c-.059.335-.096.678-.096 1.031a5.9 5.9 0 0 0 5.897 5.897c3.14 0 5.699-2.456 5.88-5.551h-6.031l-5.65-1.377zm41.835-7.815l.073.079.61-.123c1.45-.328 2.615-.849 3.155-1.66.135-.203.231-.423.282-.663.066-.31.106-.611.134-.906l.016-.225c.016-.259.019-.512.005-.758l-.003-.1c-.02-.278-.063-.547-.12-.808l-.039-.155a5.17 5.17 0 0 0-.215-.662c-.009-.023-.013-.048-.023-.071-.072.05-4.766 3.24-24.374.66-1.214-1.128-2.402-2.359-3.444-3.696-.978-5.505 4.13-7.769 6.71-8.551.177-.074-1.663-2.739-.836-5.555.446-1.52 2.316-5.401 1.581-6.113-2.691-2.611-8.281-4.453-12.578-2.693 0 0-3.534 2.173-5.764.744-.065.11-.104.242-.15.366l-.118.331c-.119.366-.228.746-.313 1.152 0 0-2.333 10.842-4.392 17.088 0 0-2.68 8.395 3.086 10.92.15.009.295.013.448.027l36.269 1.372z" fill="#f8c409"/><path d="M68.209 63.497c.712-1.028.616-2.413-.23-3.333l-1.612-1.753-2.643-2.874-.073-.079-36.27-1.375-.448-.027c-2.417-.148-4.414.296-6.038 1.041-3.735 1.713-3.244 7.16.748 8.133l.173.042 5.651 1.377h6.031 1.011 11.76 1.188 11.761 1.363 5.43c.876 0 1.698-.43 2.198-1.152z" fill="#fff"/></svg>