<?xml version="1.0" encoding="iso-8859-1"?>
<!-- Generator: Adobe Illustrator 22.1.0, SVG Export Plug-In . SVG Version: 6.00 Build 0)  -->
<svg version="1.1" xmlns="http://www.w3.org/2000/svg" xmlns:xlink="http://www.w3.org/1999/xlink" x="0px" y="0px"
	 viewBox="0 0 90.709 90.709" style="enable-background:new 0 0 90.709 90.709;" xml:space="preserve">
<g id="ratownik-1">
	<g>
		<g>
			
				<ellipse transform="matrix(0.9239 -0.3827 0.3827 0.9239 -13.904 20.8088)" style="fill:#194093;" cx="45.354" cy="45.354" rx="43.52" ry="43.52"/>
			<g>
				<path style="fill:#252E78;" d="M45.354,2.835c23.483,0,42.52,19.037,42.52,42.52s-19.037,42.52-42.52,42.52
					s-42.52-19.037-42.52-42.52S21.871,2.835,45.354,2.835 M45.354,0.835c-24.548,0-44.52,19.971-44.52,44.52
					s19.971,44.52,44.52,44.52s44.52-19.971,44.52-44.52S69.903,0.835,45.354,0.835L45.354,0.835z"/>
			</g>
		</g>
	</g>
</g>
<g id="Warstwa_4">
	<g>
		<path style="fill:#F8C409;" d="M40.754,30.254l0.721-3.971l-6.756-1.905c0.615,0.57,1.198,1.248,1.732,2.055
			c0.339,0.511,0.53,1.529,0.575,3.041L40.754,30.254z"/>
		<path style="fill:#FFFFFF;" d="M28.552,19.636c0.177,0.105,0.345,0.154,0.505,0.169c0,0-0.178,0.713-0.346,1.53
			c0.201,0.013,3.126,1.326,3.126,1.326c-0.06-0.673-0.087-1.347-0.037-1.725c0.611,0.268,1.199,0.361,1.624,0.422
			c0.023,0.003,0.045,0.005,0.068,0.005c0.879,0,1.948-2.321,1.88-3.238c-0.043-0.576-0.792-4.117-1.494-4.978
			c-0.471-0.577-1.859-1.267-3.345-1.267c-1.073,0-2.196,0.36-3.062,1.381C25.506,15.579,26.821,18.607,28.552,19.636z"/>
		<path style="fill:#F8C409;" d="M32.375,71.838l1.968-30.659c0,0,1.745-12.277,0.719-13.825c-0.627-0.947-2.642-2.581-2.642-2.581
			c0.613,1.717,0.029,3.615-1.491,4.658l-3.398,3.318c0.016,0.939,0.022,1.949,0.003,3.044c0.446,0.51,0.88,0.987,1.179,1.265
			c2.227,0.614,2.877,1.354,3.1,1.607c0.738,0.84,1.136,1.882,1.119,2.936c-0.017,1.059-0.45,2.037-1.186,2.685
			c-0.551,0.484-1.218,0.74-1.928,0.74c-0.769,0-3.268-1.283-3.725-1.716c-0.361,1.504-0.131,2.914,0.593,5.765
			c0.187,0.518,0.655,28.679,0.655,28.679h9.931c0-1.929-1.293-3.62-3.155-4.125L32.375,71.838z"/>
		<path style="fill:#FFFFFF;" d="M23.374,33.997l-2.831-2.932c-1.09,1.046-1.916,1.895-1.845,2.015
			c0.62,1.048,3.867,5.328,7.765,7.46c0.131,0.44,1.123,1.626,1.875,1.95c0.577,0.248,1.048,0.536,1.479,0.536
			c0.21,0,0.41-0.068,0.608-0.242c0.605-0.532,0.785-1.776-0.114-2.798c-0.497-0.566-1.988-0.971-2.523-1.102
			C26.735,38.142,23.376,33.999,23.374,33.997z"/>
		<path style="fill:#F8C409;" d="M30.358,25.063c-0.422-0.725-1.139-1.112-1.846-1.112c-0.362,0-0.72,0.101-1.035,0.311
			l-5.599,5.308l2.934,3.039l4.863-4.749C30.599,27.312,30.961,26.098,30.358,25.063z"/>
	</g>
	<g>
		<path style="fill:#FFFFFF;" d="M74.906,61.37c-0.082-0.035-1.49-0.476-3.386-1.066c-4.162-1.295-2.057,3.634-2.057,3.634
			l1.454,0.463l0.065,3.435c-0.185,1.425,0.608,2.796,1.934,3.348c0,0,3.02-7.162,3.045-7.22
			C76.386,62.957,75.914,61.795,74.906,61.37z"/>
		<path style="fill:#FFFFFF;" d="M44.229,71.7l-0.313,1.244l-3.885,1.727c-1.385,0.383-2.341,1.646-2.333,3.083c0,0,7.773,0,7.836,0
			c1.094,0,1.98-0.887,1.98-1.98c0-0.028,0.24-1.025,0.638-2.655C50.06,65.296,44.229,71.7,44.229,71.7z"/>
		<g>
			<path style="fill:none;" d="M70.52,42.549l-0.269-0.315c-0.321-0.373-4.409-5.478-5.767-7.176l-4.529-2.284
				c-0.21,1.32-0.419,2.79-0.59,4.476l12.156,6.384C71.177,43.318,70.857,42.944,70.52,42.549z"/>
			<path style="fill:#FFFFFF;" d="M49.941,26.421c-1.805,0.307-6.051,0.228-6.529,0.389l-0.566,3.116
				c1.646-0.049,3.782-0.256,5.841-0.802C48.726,28.893,49.907,26.533,49.941,26.421z"/>
			<path style="fill:#FFFFFF;" d="M54.02,21.775c0.001,0,0.002,0,0.003,0c0.419-0.003,1-0.016,1.627-0.195
				c-0.002,0.702-0.185,1.438-0.351,1.786l3.286-1.02l-0.132-1.5c0,0,0.343-0.026,0.511-0.097c1.809-0.768,3.479-3.526,1.883-6.027
				c-0.855-1.339-2.206-1.782-3.447-1.782c-1.195,0-2.289,0.412-2.738,0.831c-0.792,0.741-1.981,4.069-2.099,4.621
				C52.371,19.292,53.143,21.775,54.02,21.775z"/>
			<path style="fill:#F8C409;" d="M58.345,36.715L58.345,36.715l1.004-4.246l-2.812-1.418c-0.946-0.477-1.647-1.296-1.972-2.304
				c-0.326-1.009,0.466-3.386,0.59-3.553l-2.196,0.797c-0.902,0.438-2.183,2.175-2.563,3.126c-0.382,0.957,1.032,9.964,1.032,9.964
				L38.829,71.222c7.529,4.196,17.01,4.425,24.974-0.264c8.976-5.285,13.455-15.284,12.148-24.997L58.345,36.715z"/>
			<path style="fill:#FFFFFF;" d="M73.181,37.685c-0.02,0-5.144-7.651-5.144-7.651s-8.887-4.431-9.726-4.431
				c-0.7,0-1.374,0.381-1.718,1.043c-0.497,0.956-0.117,2.134,0.845,2.619l8.334,4.204c0,0,5.653,7.064,5.994,7.461
				c0.944,1.097,1.31,1.603,1.877,1.603c0.202,0,0.429-0.064,0.717-0.189c1.096-0.473,1.548-1.867,1.01-3.112
				C74.954,38.268,74.068,37.685,73.181,37.685z"/>
		</g>
	</g>
</g>
</svg>
