<svg xmlns="http://www.w3.org/2000/svg" viewBox="0 0 90.709 90.709"><circle transform="matrix(.9239 -.3827 .3827 .9239 -13.904 20.8088)" cx="45.354" cy="45.354" r="43.52" fill="#194093"/><path d="M45.354 2.835c23.483 0 42.52 19.037 42.52 42.52s-19.037 42.52-42.52 42.52-42.52-19.037-42.52-42.52 19.037-42.52 42.52-42.52m0-2C20.806.835.834 20.806.834 45.355s19.971 44.52 44.52 44.52 44.52-19.971 44.52-44.52S69.903.835 45.354.835h0z" fill="#252e78"/><path d="M40.754 30.254l.721-3.971-6.756-1.905a11.24 11.24 0 0 1 1.732 2.055c.339.511.53 1.529.575 3.041l3.728.78z" fill="#f8c409"/><path d="M28.552 19.636c.177.105.345.154.505.169l-.346 1.53c.201.013 3.126 1.326 3.126 1.326-.06-.673-.087-1.347-.037-1.725.611.268 1.199.361 1.624.422a.52.52 0 0 0 .068.005c.879 0 1.948-2.321 1.88-3.238-.043-.576-.792-4.117-1.494-4.978-.471-.577-1.859-1.267-3.345-1.267-1.073 0-2.196.36-3.062 1.381-1.965 2.318-.65 5.346 1.081 6.375z" fill="#fff"/><path d="M32.375 71.838l1.968-30.659s1.745-12.277.719-13.825c-.627-.947-2.642-2.581-2.642-2.581.613 1.717.029 3.615-1.491 4.658l-3.398 3.318a87.74 87.74 0 0 1 .003 3.044l1.179 1.265c2.227.614 2.877 1.354 3.1 1.607.738.84 1.136 1.882 1.119 2.936s-.45 2.037-1.186 2.685c-.551.484-1.218.74-1.928.74-.769 0-3.268-1.283-3.725-1.716-.361 1.504-.131 2.914.593 5.765.187.518.655 28.679.655 28.679h9.931c0-1.929-1.293-3.62-3.155-4.125l-1.742-1.791z" fill="#f8c409"/><path d="M23.374 33.997l-2.831-2.932c-1.09 1.046-1.916 1.895-1.845 2.015.62 1.048 3.867 5.328 7.765 7.46.131.44 1.123 1.626 1.875 1.95.577.248 1.048.536 1.479.536.21 0 .41-.068.608-.242.605-.532.785-1.776-.114-2.798-.497-.566-1.988-.971-2.523-1.102-1.053-.742-4.412-4.885-4.414-4.887z" fill="#fff"/><path d="M30.358 25.063c-.422-.725-1.139-1.112-1.846-1.112-.362 0-.72.101-1.035.311l-5.599 5.308 2.934 3.039 4.863-4.749c.924-.548 1.286-1.762.683-2.797z" fill="#f8c409"/><path d="M74.906 61.37c-.082-.035-1.49-.476-3.386-1.066-4.162-1.295-2.057 3.634-2.057 3.634l1.454.463.065 3.435c-.185 1.425.608 2.796 1.934 3.348l3.045-7.22a1.98 1.98 0 0 0-1.055-2.594zM44.229 71.7l-.313 1.244-3.885 1.727a3.18 3.18 0 0 0-2.333 3.083h7.836a1.98 1.98 0 0 0 1.98-1.98c0-.028.24-1.025.638-2.655 1.908-7.823-3.923-1.419-3.923-1.419zm5.712-45.279c-1.805.307-6.051.228-6.529.389l-.566 3.116c1.646-.049 3.782-.256 5.841-.802.039-.231 1.22-2.591 1.254-2.703zm4.079-4.646c.422-.003 1.003-.016 1.63-.195-.002.702-.185 1.438-.351 1.786l3.286-1.02-.132-1.5s.343-.026.511-.097c1.809-.768 3.479-3.526 1.883-6.027-.855-1.339-2.206-1.782-3.447-1.782-1.195 0-2.289.412-2.738.831-.792.741-1.981 4.069-2.099 4.621-.192.9.58 3.383 1.457 3.383z" fill="#fff"/><path d="M58.345 36.715h0l1.004-4.246-2.812-1.418c-.946-.477-1.647-1.296-1.972-2.304s.466-3.386.59-3.553l-2.196.797c-.902.438-2.183 2.175-2.563 3.126-.382.957 1.032 9.964 1.032 9.964L38.829 71.222c7.529 4.196 17.01 4.425 24.974-.264 8.976-5.285 13.455-15.284 12.148-24.997l-17.606-9.246z" fill="#f8c409"/><path d="M73.181 37.685c-.02 0-5.144-7.651-5.144-7.651s-8.887-4.431-9.726-4.431c-.7 0-1.374.381-1.718 1.043-.497.956-.117 2.134.845 2.619l8.334 4.204 5.994 7.461c.944 1.097 1.31 1.603 1.877 1.603.202 0 .429-.064.717-.189 1.096-.473 1.548-1.867 1.01-3.112-.416-.964-1.302-1.547-2.189-1.547z" fill="#fff"/></svg>