<svg xmlns="http://www.w3.org/2000/svg" viewBox="0 0 90.709 90.709"><circle cx="45.354" cy="45.354" r="43.52" fill="#194093"/><path d="M45.354 2.835c23.483 0 42.52 19.037 42.52 42.52s-19.037 42.52-42.52 42.52-42.52-19.037-42.52-42.52 19.037-42.52 42.52-42.52m0-2C20.806.835.834 20.806.834 45.355s19.971 44.52 44.52 44.52 44.52-19.971 44.52-44.52S69.903.835 45.354.835h0z" fill="#252e78"/><path d="M27.907 11.299l6.797 6.002V8.6a38 38 0 0 0-6.797 2.699zm17.447-4.212a38.5 38.5 0 0 0-7.651.766V18.6h5.051l2.73 4.782 11.944 6.972-1.348 7.016 7.3 8.155v6.133l6.315 14.202 5.48 3.466c5.281-6.561 8.447-14.894 8.447-23.971 0-21.135-17.133-38.268-38.268-38.268z" fill="#fff"/><path d="M37.704 33.981V7.853l-3 .747v25.667c.609-.28 1.254-.44 1.914-.44.375-.001.736.062 1.086.154zm1.089 12.815c1.581.435 6.672 1.375 6.672 4.452 0 .211-.033.22-.067.423H63.38V42.32c-1.817 0-3.408 1.217-3.884 2.971l-1.005.875h-14.95l-1.407.928c-.678-1.837-1.635-3.877-2.518-5.627-.679.698-1.755 1.006-2.761 1.202l1.938 4.127z" fill="#f8c409"/><path d="M32.68 44.392c.82-.903 1.702-2.036 2.612-3.474.517-.119 2.825-.371 2.988-1.008.268-1.046.464-2.664-.106-3.401-.315-.408-.892-.682-1.556-.682-.535 0-1.127.178-1.683.608-.69.533-1.267 2.224-1.458 2.832-.499.621-1.821 1.648-3.13 2.622l2.333 2.503zM21.579 34.128l.594.374-.619 3.001c.075-.045 1.074-.662 2.238-.64a4.35 4.35 0 0 1 2.034.53c-.047-.474-.054-1.029.016-1.561.803.351 2.192.56 2.222.56 1.153 0 2.557-3.046 2.467-4.25-.057-.757-1.04-5.405-1.961-6.535-.618-.758-2.441-1.663-4.391-1.663-1.408 0-2.883.472-4.019 1.813-2.579 3.046-.852 7.021 1.419 8.371z" fill="#fff"/><path d="M63.696 64.349l-2.276.477h0L50.98 54.381l-7.088-.068a4.39 4.39 0 0 1-2.682.917c-1.268 0-2.451-.539-3.245-1.419l-7.73-.632c-.471-.038-.913-.242-1.248-.576l-1.878-1.869c-.012-.011-.026-.019-.038-.03L20.9 44.731c.201 1.974.851 4.292 2.265 6.777 2.088 3.671.907 5.546 1.313 7.375 1.26 5.68 6.869 4.806 9.519 4.692 1.198-.279 4.411-.839 7.613-1.376 2.724 8.738 8 14.878 8.308 15.231a1.5 1.5 0 0 0 1.132.514c.35 0 .7-.122.985-.37a1.5 1.5 0 0 0 .145-2.116c-.069-.079-4.947-5.759-7.559-13.759l4.989-.807 9.443 8.171 4.922 2.75 4.561-8.163c-1.586-.886-3.569-.599-4.84.699zM29.304 43.912c.034-.034-3.897-4.39-3.897-4.39-.44-.43-1.021-.657-1.615-.657-.605 0-1.222.236-1.715.732-1.033 1.041-1.002 2.605-.032 3.459l4.118 3.987 3.141-3.131z" fill="#f8c409"/><path d="M32.863 47.243l-2.149-1.912-3.102 3.084 2.787 2.774 8.691.71c.307.774 1.136 1.334 2.121 1.334 1.245 0 2.255-.888 2.255-1.983s-.415-1.133-2.135-1.671l-8.468-2.336z" fill="#fff"/></svg>