<?xml version="1.0" encoding="iso-8859-1"?>
<!-- Generator: Adobe Illustrator 22.1.0, SVG Export Plug-In . SVG Version: 6.00 Build 0)  -->
<svg version="1.1" xmlns="http://www.w3.org/2000/svg" xmlns:xlink="http://www.w3.org/1999/xlink" x="0px" y="0px"
	 viewBox="0 0 90.709 90.709" style="enable-background:new 0 0 90.709 90.709;" xml:space="preserve">
<g id="ratownik-1">
	<g>
		<g>
			<circle style="fill:#194093;" cx="45.354" cy="45.354" r="43.52"/>
			<g>
				<path style="fill:#252E78;" d="M45.354,2.835c23.483,0,42.52,19.037,42.52,42.52s-19.037,42.52-42.52,42.52
					s-42.52-19.037-42.52-42.52S21.871,2.835,45.354,2.835 M45.354,0.835c-24.548,0-44.52,19.971-44.52,44.52
					s19.971,44.52,44.52,44.52s44.52-19.971,44.52-44.52S69.903,0.835,45.354,0.835L45.354,0.835z"/>
			</g>
		</g>
	</g>
</g>
<g id="Warstwa_4">
	<g>
		<g>
			<path style="fill:#FFFFFF;" d="M27.907,11.299l6.797,6.002V8.6C32.335,9.285,30.062,10.193,27.907,11.299z"/>
			<path style="fill:#FFFFFF;" d="M45.354,7.087c-2.62,0-5.178,0.265-7.651,0.766V18.6h5.051l2.73,4.782l11.944,6.972L56.08,37.37
				l7.3,8.155v6.133l6.315,14.202l5.48,3.466c5.281-6.561,8.447-14.894,8.447-23.971C83.622,24.22,66.489,7.087,45.354,7.087z"/>
		</g>
		<g>
			<path style="fill:#F8C409;" d="M37.704,33.981V7.853c-1.017,0.206-2.014,0.462-3,0.747v25.667c0.609-0.28,1.254-0.44,1.914-0.44
				C36.993,33.826,37.354,33.889,37.704,33.981z"/>
			<path style="fill:#F8C409;" d="M38.793,46.796c1.581,0.435,6.672,1.375,6.672,4.452c0,0.211-0.033,0.22-0.067,0.423H63.38v-9.351
				c-1.817,0-3.408,1.217-3.884,2.971l-1.005,0.875h-14.95l-1.407,0.928c-0.678-1.837-1.635-3.877-2.518-5.627
				c-0.679,0.698-1.755,1.006-2.761,1.202C37.563,44.066,38.242,45.501,38.793,46.796z"/>
			<path style="fill:#FFFFFF;" d="M32.68,44.392c0.82-0.903,1.702-2.036,2.612-3.474c0.517-0.119,2.825-0.371,2.988-1.008
				c0.268-1.046,0.464-2.664-0.106-3.401c-0.315-0.408-0.892-0.682-1.556-0.682c-0.535,0-1.127,0.178-1.683,0.608
				c-0.69,0.533-1.267,2.224-1.458,2.832c-0.499,0.621-1.821,1.648-3.13,2.622L32.68,44.392z"/>
			<path style="fill:#FFFFFF;" d="M21.579,34.128c0.232,0.138,0.594,0.374,0.594,0.374s-0.292,1.384-0.619,3.001
				c0.075-0.045,1.074-0.662,2.238-0.64c0.755,0.015,1.413,0.195,2.034,0.53c-0.047-0.474-0.054-1.029,0.016-1.561
				c0.803,0.351,2.192,0.56,2.222,0.56c1.153,0,2.557-3.046,2.467-4.25c-0.057-0.757-1.04-5.405-1.961-6.535
				c-0.618-0.758-2.441-1.663-4.391-1.663c-1.408,0-2.883,0.472-4.019,1.813C17.581,28.803,19.308,32.778,21.579,34.128z"/>
			<path style="fill:#F8C409;" d="M63.696,64.349l-2.276,0.477l0,0l-10.44-10.445c0,0-3.168-0.037-7.088-0.068
				c-0.734,0.564-1.661,0.917-2.682,0.917c-1.268,0-2.451-0.539-3.245-1.419l-7.73-0.632c-0.471-0.038-0.913-0.242-1.248-0.576
				l-1.878-1.869c-0.012-0.011-0.026-0.019-0.038-0.03L20.9,44.731c0.201,1.974,0.851,4.292,2.265,6.777
				c2.088,3.671,0.907,5.546,1.313,7.375c1.26,5.68,6.869,4.806,9.519,4.692c1.198-0.279,4.411-0.839,7.613-1.376
				c2.724,8.738,8,14.878,8.308,15.231c0.297,0.34,0.713,0.514,1.132,0.514c0.35,0,0.7-0.122,0.985-0.37
				c0.624-0.544,0.688-1.492,0.145-2.116c-0.069-0.079-4.947-5.759-7.559-13.759c2.78-0.456,4.989-0.807,4.989-0.807l9.443,8.171
				l4.922,2.75l4.561-8.163C66.95,62.764,64.967,63.051,63.696,64.349z"/>
			<path style="fill:#F8C409;" d="M29.304,43.912c0.034-0.034-3.897-4.39-3.897-4.39c-0.44-0.43-1.021-0.657-1.615-0.657
				c-0.605,0-1.222,0.236-1.715,0.732c-1.033,1.041-1.002,2.605-0.032,3.459l4.118,3.987C26.177,47.028,29.304,43.912,29.304,43.912
				z"/>
			<path style="fill:#FFFFFF;" d="M32.863,47.243l-2.149-1.912l-3.102,3.084l2.787,2.774l8.691,0.71
				c0.307,0.774,1.136,1.334,2.121,1.334c1.245,0,2.255-0.888,2.255-1.983s-0.415-1.133-2.135-1.671
				C40.871,49.434,32.863,47.243,32.863,47.243z"/>
		</g>
	</g>
</g>
</svg>
