<svg xmlns="http://www.w3.org/2000/svg" viewBox="0 0 90.709 90.709"><circle cx="45.354" cy="45.355" r="43.52" fill="#194093"/><path d="M45.354 2.835c23.483 0 42.52 19.037 42.52 42.52s-19.037 42.52-42.52 42.52-42.52-19.037-42.52-42.52 19.037-42.52 42.52-42.52m0-2C20.806.835.834 20.806.834 45.355s19.971 44.52 44.52 44.52 44.52-19.971 44.52-44.52S69.903.835 45.354.835h0z" fill="#252e78"/><path d="M11.117 39.031l2.088 4.25c.578 1.7 6.507 5.565 9.904 6.859 1.688-3.168 4.494-5.862 6.622-7.606l1.642-8.844c-.095-1.462-.122-3.351.088-5.326-2.143-1.084-4.786-2.092-7.22-2.092-.479 0-7.236 1.758-7.38 1.836-.015.003-.02 0-.027-.003l-4.288-2.455c-2.122 3.525-3.687 7.422-4.584 11.567l3.142 1.799z" fill="#fff"/><path d="M33.088 69.684l2.831-.406c-.09-.248-.162-.506-.202-.775-.459-3.078.739-6.02 3.205-7.871.91-.683 1.799-1.131 2.634-1.44-.353-.519-.626-1.093-.779-1.713a4.89 4.89 0 0 1-1.492.233 4.92 4.92 0 0 1-.581-.034c-1.367-.16-2.585-.846-3.429-1.931a5.04 5.04 0 0 1-1.057-3.299c-.93-.004-1.805-.251-2.569-.677-.694-.34-1.315-.823-1.781-1.452a4.88 4.88 0 0 1-.944-2.964c-1.931 2.003-3.883 4.619-4.231 7.282-.551 4.212-.247 6.049-.218 6.211.002.011-.003.016-.011.024l-9.03 8.328c2.564 3.213 5.632 6.001 9.087 8.249l8.549-7.755c.005-.006.011-.009.018-.01zM70.1 32.564a8.19 8.19 0 0 1-7.299 4.382c-.157 0-.297-.018-.448-.024l3.693 7.475a33.32 33.32 0 0 1 2.351 3.092c.337-.596 3.717-4.958 3.717-4.958.004-.005 11.023-3.248 11.023-3.248-.611-3.828-1.789-7.464-3.446-10.824l-9.151 2.649c-.059.501-.192.996-.44 1.456z" fill="#f8c409"/><path d="M67.756 62.464c.062-.161.653-1.783.887-5.681.25-4.156-3.609-8.992-5.114-10.712l-4.849-9.812.382 15.987c.341 2.56-1.286 5.01-3.812 5.661a5.15 5.15 0 0 1-1.29.164c-1.02 0-1.987-.3-2.801-.83a5.33 5.33 0 0 1-5.217 4.292c-.082 0-.823.072-1.251.072-.856 0-2.355.214-3.968 1.425-1.943 1.459-2.254 3.587-2.039 5.029.077.518.516.883 1.002.883.113 0 7.832-2.028 7.871-2.036.31-.024 10.832 2.094 10.836 2.099l6.825 9.063a38.46 38.46 0 0 0 8.747-7.312l-6.204-8.265c-.007-.008-.009-.017-.005-.027z" fill="#fff"/><path d="M40.828 7.497l.015 10.68c0 .011-.003.019-.012.025-.146.092-1.591 1.036-4.114 4.017-2.69 3.178-2.499 9.362-2.325 11.641l-2.451 13.21c-.197 1.062.54 2.085 1.641 2.207.065.007.129.011.192.011.901 0 1.68-.707 1.877-1.607l2.871-11.695a.37.37 0 0 1 .047.003c.209.024-1.347 16.36-1.347 16.36a2.09 2.09 0 0 0 1.833 2.349 2.02 2.02 0 0 0 .232.014c1.026 0 1.91-.798 2.083-1.835l2.376-15.367a.35.35 0 0 1 .072-.007c.211 0-.175 18.449-.175 18.449-.147 1.266.757 2.413 2.022 2.566a2.4 2.4 0 0 0 .279.017 2.32 2.32 0 0 0 2.274-1.874l1.313-17.935c.2 0 2.403 14.892 2.403 14.892.302.887 1.13 1.455 2.029 1.455a2.15 2.15 0 0 0 .537-.068c1.1-.283 1.786-1.374 1.571-2.487l-.496-20.766c1.5.34 4.211 2.195 7.23 2.195 2.442-.004 3.966-1.522 4.658-2.805.306-.568.034-1.278-.584-1.463-2.639-.789-7.175-2.914-7.211-2.931-1.843-1.164-7.413-8.155-7.413-8.155l-.024-10.878c-2.232-.405-4.527-.628-6.876-.628a38.47 38.47 0 0 0-4.465.268l-.058.13z" fill="#f8c409"/></svg>