<?xml version="1.0" encoding="iso-8859-1"?>
<!-- Generator: Adobe Illustrator 22.1.0, SVG Export Plug-In . SVG Version: 6.00 Build 0)  -->
<svg version="1.1" xmlns="http://www.w3.org/2000/svg" xmlns:xlink="http://www.w3.org/1999/xlink" x="0px" y="0px"
	 viewBox="0 0 90.709 90.709" style="enable-background:new 0 0 90.709 90.709;" xml:space="preserve">
<g id="ratownik-1">
	<g>
		<g>
			<circle style="fill:#194093;" cx="45.354" cy="45.355" r="43.52"/>
			<g>
				<path style="fill:#252E78;" d="M45.354,2.835c23.483,0,42.52,19.037,42.52,42.52s-19.037,42.52-42.52,42.52
					s-42.52-19.037-42.52-42.52S21.871,2.835,45.354,2.835 M45.354,0.835c-24.548,0-44.52,19.971-44.52,44.52
					s19.971,44.52,44.52,44.52s44.52-19.971,44.52-44.52S69.903,0.835,45.354,0.835L45.354,0.835z"/>
			</g>
		</g>
	</g>
</g>
<g id="Warstwa_4">
	<g>
		<path style="fill:#FFFFFF;" d="M11.117,39.031l2.088,4.25c0.001,0.001,0.001,0.003,0.002,0.004
			c0.576,1.696,6.505,5.561,9.902,6.855c1.688-3.168,4.494-5.862,6.622-7.606l1.642-8.844c-0.095-1.462-0.122-3.351,0.088-5.326
			c-2.143-1.084-4.786-2.092-7.22-2.092c-0.479,0-7.236,1.758-7.38,1.836c-0.004,0.002-0.007,0.003-0.01,0.003
			c-0.005,0-0.01-0.003-0.017-0.006l-4.288-2.455c-2.122,3.525-3.687,7.422-4.584,11.567l3.142,1.799
			C11.11,39.02,11.114,39.025,11.117,39.031z"/>
		<path style="fill:#F8C409;" d="M33.088,69.684l2.831-0.406c-0.09-0.248-0.162-0.506-0.202-0.775
			c-0.459-3.078,0.739-6.02,3.205-7.871c0.91-0.683,1.799-1.131,2.634-1.44c-0.353-0.519-0.626-1.093-0.779-1.713
			c-0.475,0.152-0.977,0.233-1.492,0.233c-0.193,0-0.388-0.011-0.581-0.034c-1.367-0.16-2.585-0.846-3.429-1.931
			c-0.741-0.953-1.1-2.11-1.057-3.299c-0.93-0.004-1.805-0.251-2.569-0.677c-0.694-0.34-1.315-0.823-1.781-1.452
			c-0.637-0.859-0.956-1.906-0.944-2.964c-1.931,2.003-3.883,4.619-4.231,7.282c-0.551,4.212-0.247,6.049-0.218,6.211
			c0.002,0.011-0.003,0.016-0.011,0.024l-9.03,8.328c2.564,3.213,5.632,6.001,9.087,8.249l8.549-7.755
			C33.075,69.688,33.081,69.685,33.088,69.684z"/>
		<path style="fill:#F8C409;" d="M70.1,32.564c-1.476,2.739-4.199,4.377-7.299,4.382c-0.157,0-0.297-0.018-0.448-0.024l3.693,7.475
			c0.717,0.839,1.55,1.894,2.351,3.092c0.337-0.596,3.717-4.958,3.717-4.958c0.004-0.005,11.023-3.248,11.023-3.248
			c-0.611-3.828-1.789-7.464-3.446-10.824l-9.151,2.649C70.481,31.609,70.348,32.104,70.1,32.564z"/>
		<path style="fill:#FFFFFF;" d="M67.756,62.464c0.062-0.161,0.653-1.783,0.887-5.681c0.25-4.156-3.609-8.992-5.114-10.712
			c-0.002-0.002-0.003-0.004-0.004-0.006l-4.845-9.806l0.382,15.987c0.341,2.56-1.286,5.01-3.812,5.661
			c-0.418,0.108-0.85,0.164-1.29,0.164c-1.02,0-1.987-0.3-2.801-0.83c-0.49,2.487-2.683,4.292-5.217,4.292
			c-0.082,0-0.823,0.072-1.251,0.072c-0.856,0-2.355,0.214-3.968,1.425c-1.943,1.459-2.254,3.587-2.039,5.029
			c0.077,0.518,0.516,0.883,1.002,0.883c0.113,0,7.832-2.028,7.871-2.036c0.001,0,0.001,0,0.001,0c0,0,0,0,0,0c0,0,0,0,0.001,0
			c0.308-0.024,10.83,2.094,10.834,2.099l6.825,9.063c3.272-1.991,6.216-4.464,8.747-7.312l-6.204-8.265
			C67.754,62.483,67.752,62.474,67.756,62.464z"/>
		<path style="fill:#F8C409;" d="M40.828,7.497l0.015,10.68c0,0.011-0.003,0.019-0.012,0.025c-0.146,0.092-1.591,1.036-4.114,4.017
			c-2.69,3.178-2.499,9.362-2.325,11.641c0,0.003,0,0.005,0,0.007L31.941,47.07c-0.197,1.062,0.54,2.085,1.641,2.207
			c0.065,0.007,0.129,0.011,0.192,0.011c0.901,0,1.68-0.707,1.877-1.607c0,0,2.695-11.695,2.871-11.695
			c0.016,0,0.031,0.001,0.047,0.003c0.209,0.024-1.347,16.36-1.347,16.36c-0.153,1.152,0.667,2.213,1.833,2.349
			c0.078,0.009,0.155,0.014,0.232,0.014c1.026,0,1.91-0.798,2.083-1.835c0,0,2.221-15.337,2.376-15.367
			c0.024-0.005,0.048-0.007,0.072-0.007c0.211,0-0.175,18.449-0.175,18.449c-0.147,1.266,0.757,2.413,2.022,2.566
			c0.094,0.011,0.187,0.017,0.279,0.017c1.095,0,2.058-0.774,2.274-1.874c0,0,1.169-17.935,1.313-17.935
			c0.2,0,2.403,14.892,2.403,14.892c0.302,0.887,1.13,1.455,2.029,1.455c0.001,0,0.002,0,0.003,0c0.176,0,0.355-0.022,0.534-0.068
			c1.1-0.283,1.786-1.374,1.571-2.487l-0.496-20.766c1.5,0.34,4.211,2.195,7.23,2.195c0.004,0,0.008,0,0.012,0
			c2.43-0.004,3.954-1.522,4.646-2.805c0.306-0.568,0.034-1.278-0.584-1.463c-2.639-0.789-7.175-2.914-7.211-2.931
			c-0.001-0.001-0.001,0-0.002-0.001c-1.841-1.163-7.411-8.154-7.411-8.154c-0.003-0.005-0.005-0.011-0.005-0.017L52.231,7.715
			c-2.232-0.405-4.527-0.628-6.876-0.628c-1.512,0-3,0.097-4.465,0.268l-0.058,0.13C40.829,7.488,40.828,7.493,40.828,7.497z"/>
	</g>
</g>
</svg>
