<svg xmlns="http://www.w3.org/2000/svg" viewBox="0 0 90.709 90.709"><circle transform="matrix(.7071 -.7071 .7071 .7071 -18.7867 45.3541)" cx="45.354" cy="45.355" r="43.52" fill="#194093"/><path d="M45.354 2.835c23.483 0 42.52 19.037 42.52 42.52s-19.037 42.52-42.52 42.52-42.52-19.037-42.52-42.52 19.037-42.52 42.52-42.52m0-2C20.806.835.834 20.807.834 45.355s19.972 44.52 44.52 44.52 44.52-19.972 44.52-44.52S69.902.835 45.354.835h0z" fill="#252e78"/><g fill-rule="evenodd"><path d="M26.74 15.377c-1.613.044-3.204.633-4.047 1.865-1.707 2.496-1.303 5.779 1.279 7.551 2.348 1.611 4.04 2.967 5.842 2.465 2.152-.6 2.222-1.49 2.27-2.504.13-2.786.471-4.57-.535-7.055-.621-1.535-2.734-2.379-4.809-2.322zm28.99 2.807c-.301-.016-.651.025-1.068.129-1.669.417-20.731 4.898-21.191 5.477-.618.777-.136 1.656-.639 2.86-.363.869-1.355 1.086-1.35 1.476-.279 1.445.234 2.213.165 3.066-.104 1.148-.397 2.354-.397 2.354s-.508.481-.799 1.283c-.203.559-.349 2.108-.349 2.108s1.043.836.521 1.932-1.668 3.025-1.668 3.025 1.459 1.669 2.033 1.721l2.191.209 1.826 1.67s-.784 4.363-.862 6.841c-.078 2.465 2.011 23.573 2.011 23.573l7.93.365s.857-24.346 1.668-28.014C46.765 43.679 63.928 29 63.961 29.059c-3.579-1.33-4.602-2.515-4.488-6.574 0 0-.365.522-1.252 1.096s-3.362.138-3.362.138c-3.584 3.489-8.646 7.338-11.356 11.452l-2.549-1.05s-.261-1.566-.574-2.035-1.877-1.408-1.877-1.408l12.104-4.227c.626-.313 1.668-2.033 1.094-2.033s-2.4.312-2.139-.418 1.831-1.368 2.91-1.434c1.832-.112 4.343.232 5.092-.076.387-.159.627-1.987 0-2.977-.471-.743-.929-1.282-1.832-1.328zm14.508.582c-3.233.12-9.314 3.239-9.314 3.239s-.103.521-.051 1.721 1.057 2.309 1.057 2.309c.002.022 1.644-.471 2.135-1.436.064-.126 2.454 1.669 3.182 1.436.41-.131 7.2-3.758 7.252-4.279s-.627-2.66-3.652-2.973c-.189-.02-.392-.024-.607-.016zm-45.656 8.563c-1.451.323-3.807 3.282-4.758 4.59-.397.546.363 6.438 1.051 5.912 0 0 1.431-3.308 2.349-4.018.653-.505 1.245-.861 2.015-.86.219 0 .286-.283.286-.283-.609-2.243-.315-2.909.301-4.618-.109-.382-.569-.873-.912-.797zm3.172 1.313c-.366-.026-.705.033-.939.209-.626.47-.626 1.982-.312 3.025s-.783 2.766-.783 2.766c.561 1.483 1.063 2.052 3.287 1.93 0 0 .222-2.42.574-2.66.232-.158.71-2.519.814-3.041s-.24-.975-.918-1.549c-.424-.359-1.113-.637-1.723-.68zm-3.26 5.805c-.676-.323-6.394 9.515-2.039 11.216 3.096 1.296 5.36-3.839 7.029-6.954.269-.501-.373-.95-.373-.95s-1.559.278-3-.47c-1.626-.844-1.617-2.843-1.617-2.843zm11.502 42.572c-2.624.007-2.978.252-3.838 1.209-1.228 1.367-.961 2.846-.961 2.846s9.89.397 11.285-.215c2.205-.967 1.287-3.699 1.287-3.699l-7.773-.141z" fill="#fff"/><path d="M40.953 34.119l2.549 1.05-2.26 3.177 11.454 10.237c-1.445.094-3.809 1.519-5.22.904l-7.514-7.06 1.39 12.187-3.486 2.361-1.199-13.008c-.427.534-.963 1.199-1.667 1.575l-1.822-1.721c1.148-1.298 1.986-2.599 2.806-4.037 0 0-.277-.461-.092-.646l2.195-2.306c.203-.129.406.074.406.074z" fill="#f8c409"/></g></svg>