<?xml version="1.0" encoding="UTF-8" standalone="no"?>
<svg
   xmlns:dc="http://purl.org/dc/elements/1.1/"
   xmlns:cc="http://creativecommons.org/ns#"
   xmlns:rdf="http://www.w3.org/1999/02/22-rdf-syntax-ns#"
   xmlns:svg="http://www.w3.org/2000/svg"
   xmlns="http://www.w3.org/2000/svg"
   xmlns:sodipodi="http://sodipodi.sourceforge.net/DTD/sodipodi-0.dtd"
   xmlns:inkscape="http://www.inkscape.org/namespaces/inkscape"
   inkscape:export-ydpi="97"
   inkscape:export-xdpi="97"
   inkscape:export-filename="C:\Users\Joanna\Desktop\Pryzmat\Materiały\Emblematy\Sprawnosci brakujące\svg\sim-spr-h-Znawca-sztuk-walki.png"
   version="1.1"
   x="0px"
   y="0px"
   viewBox="0 0 90.709 90.709"
   style="enable-background:new 0 0 90.709 90.709;"
   xml:space="preserve"
   id="svg26"
   sodipodi:docname="sim-spr-h-Znawca-sztuk-walki.svg"
   inkscape:version="1.0 (4035a4fb49, 2020-05-01)"><metadata
   id="metadata32"><rdf:RDF><cc:Work
       rdf:about=""><dc:format>image/svg+xml</dc:format><dc:type
         rdf:resource="http://purl.org/dc/dcmitype/StillImage" /><dc:title /></cc:Work></rdf:RDF></metadata><defs
   id="defs30"><clipPath
     clipPathUnits="userSpaceOnUse"
     id="clipPath50"><circle
       style="fill:#f15a38;fill-rule:evenodd;stroke:none;stroke-width:19.3805;stroke-linecap:round;stop-color:#000000"
       id="circle52"
       cx="197.70859"
       cy="45.909863"
       r="71.826721" /></clipPath><clipPath
     clipPathUnits="userSpaceOnUse"
     id="clipPath1011"><circle
       r="101.44066"
       cy="59.05611"
       cx="385.84714"
       id="circle1013"
       style="opacity:0.5;fill:#f15a38;fill-rule:evenodd;stroke:none;stroke-width:47.6107;stroke-linecap:round;stop-color:#000000" /></clipPath></defs><sodipodi:namedview
   inkscape:document-rotation="0"
   pagecolor="#ffffff"
   bordercolor="#666666"
   borderopacity="1"
   objecttolerance="10"
   gridtolerance="10"
   guidetolerance="10"
   inkscape:pageopacity="0"
   inkscape:pageshadow="2"
   inkscape:window-width="640"
   inkscape:window-height="480"
   id="namedview28"
   showgrid="false"
   inkscape:zoom="9.5841064"
   inkscape:cx="59.379532"
   inkscape:cy="36.58005"
   inkscape:current-layer="svg26" />
<g
   id="ratownik-1">
	<g
   id="g10">
		<g
   id="g8">
			
				<ellipse
   transform="matrix(0.7071 -0.7071 0.7071 0.7071 -18.7867 45.3541)"
   style="fill:#194093;"
   cx="45.354"
   cy="45.355"
   rx="43.52"
   ry="43.52"
   id="ellipse2" />
			<g
   id="g6">
				<path
   style="fill:#252E78;"
   d="M45.354,2.835c23.483,0,42.52,19.037,42.52,42.52c0,23.483-19.037,42.52-42.52,42.52      c-23.483,0-42.52-19.037-42.52-42.52C2.835,21.871,21.871,2.835,45.354,2.835 M45.354,0.835c-24.548,0-44.52,19.972-44.52,44.52      s19.972,44.52,44.52,44.52s44.52-19.972,44.52-44.52S69.902,0.835,45.354,0.835L45.354,0.835z"
   id="path4" />
			</g>
		</g>
	</g>
</g>

<path
   id="path1015"
   style="opacity:1;fill:#ffffff;fill-rule:evenodd;stroke:none;stroke-width:1px;stroke-linecap:butt;stroke-linejoin:miter;stroke-opacity:1"
   d="m 26.740234,15.376953 c -1.613382,0.04426 -3.203818,0.632884 -4.046875,1.865235 -1.707333,2.495722 -1.303104,5.779329 1.279297,7.550781 2.348474,1.610985 4.040371,2.967059 5.841797,2.464843 2.152,-0.599952 2.222422,-1.490273 2.269531,-2.503906 0.129502,-2.786431 0.470597,-4.56956 -0.535156,-7.054687 -0.621367,-1.535345 -2.734245,-2.379171 -4.808594,-2.322266 z m 28.990235,2.806641 c -0.301106,-0.01553 -0.651002,0.02457 -1.06836,0.128906 -1.66943,0.417358 -20.731344,4.897908 -21.191406,5.476562 -0.618119,0.777454 -0.136452,1.656391 -0.639422,2.859607 -0.363399,0.869332 -1.355092,1.086404 -1.349874,1.47604 -0.279039,1.44516 0.233838,2.212607 0.165231,3.066262 -0.10434,1.147734 -0.396661,2.353951 -0.396661,2.353951 0,0 -0.50775,0.481333 -0.799161,1.282866 -0.203244,0.559026 -0.349276,2.107759 -0.349277,2.107759 0,0 1.043182,0.836076 0.521485,1.931641 -0.521697,1.095562 -1.667969,3.02539 -1.667969,3.02539 0,0 1.459336,1.668533 2.033203,1.720703 0.573867,0.05217 2.191407,0.208985 2.191407,0.208985 l 1.826171,1.669922 c 0,0 -0.784186,4.362646 -0.862441,6.840708 -0.07783,2.464583 2.010879,23.573354 2.010879,23.573354 l 7.929687,0.365234 c 0,0 0.856603,-24.345758 1.667969,-28.013672 1.012916,-4.579058 18.175754,-19.257373 18.208985,-19.199218 -3.578666,-1.33007 -4.601692,-2.514856 -4.488282,-6.574219 0,0 -0.365068,0.521836 -1.251953,1.095703 -0.886885,0.573866 -3.362258,0.137636 -3.362258,0.137636 -3.584156,3.48909 -8.645877,7.33803 -11.355833,11.451549 l -2.549487,-1.050122 c 0,0 -0.261201,-1.56563 -0.574219,-2.035157 -0.313018,-0.469528 -1.876953,-1.408203 -1.876953,-1.408203 0,0 11.477479,-3.913543 12.103516,-4.226562 0.626036,-0.313018 1.667616,-2.033203 1.09375,-2.033203 -0.573867,0 -2.399521,0.312407 -2.138672,-0.417969 0.260848,-0.730376 1.830919,-1.367595 2.910156,-1.433594 1.831976,-0.112032 4.34278,0.23217 5.091797,-0.07617 0.386543,-0.159127 0.626867,-1.987 0,-2.976562 -0.470536,-0.742781 -0.928715,-1.281539 -1.832031,-1.328125 z m 14.507812,0.582031 c -3.232586,0.120362 -9.31444,3.238708 -9.31444,3.238708 0,0 -0.102951,0.520801 -0.05078,1.720703 0.05217,1.199904 1.056641,2.308594 1.056641,2.308594 0.0018,0.02154 1.643822,-0.470913 2.134753,-1.435974 0.06396,-0.12574 2.453543,1.668654 3.181641,1.435547 0.409717,-0.131174 7.199783,-3.7576 7.251953,-4.279297 0.05217,-0.521697 -0.626501,-2.659637 -3.652344,-2.972656 -0.189115,-0.01956 -0.391916,-0.02365 -0.607422,-0.01563 z m -45.65625,8.5625 c -1.451358,0.322522 -3.807405,3.281634 -4.75788,4.589888 -0.396529,0.545791 0.362762,6.438211 1.051043,5.91204 0,0 1.431402,-3.307808 2.348511,-4.017785 0.652839,-0.505393 1.24505,-0.861157 2.015367,-0.859513 0.219392,4.69e-4 0.285679,-0.283415 0.285679,-0.283415 -0.608803,-2.242837 -0.315274,-2.909021 0.301165,-4.617976 -0.108527,-0.381923 -0.5691,-0.87319 -0.911877,-0.797018 z m 3.171875,1.3125 c -0.365901,-0.02568 -0.704689,0.03291 -0.939453,0.208984 -0.626036,0.469527 -0.625518,1.981997 -0.3125,3.025391 0.313018,1.043394 -0.783203,2.765625 -0.783203,2.765625 0.561205,1.482791 1.062804,2.051789 3.287109,1.929687 0,0 0.221507,-2.420008 0.574219,-2.660156 0.232226,-0.158113 0.710113,-2.519318 0.814453,-3.041015 0.104339,-0.521697 -0.239761,-0.974962 -0.917969,-1.548829 -0.423878,-0.358666 -1.11282,-0.636892 -1.722656,-0.679687 z m -3.259682,5.805234 c -0.676478,-0.323357 -6.394412,9.514946 -2.039405,11.21612 3.095608,1.296488 5.3598,-3.839023 7.029369,-6.953516 0.268541,-0.500949 -0.37286,-0.950022 -0.37286,-0.950022 0,0 -1.559182,0.277915 -2.999611,-0.469832 -1.62604,-0.844101 -1.617493,-2.84275 -1.617493,-2.84275 z m 11.50187,42.571719 c -2.62412,0.0072 -2.977945,0.252196 -3.837891,1.208984 -1.228206,1.366518 -0.960937,2.845704 -0.960937,2.845704 0,0 9.889686,0.396922 11.285156,-0.214844 2.205144,-0.966723 1.287109,-3.699219 1.287109,-3.699219 -3.807833,-0.06452 -6.198965,-0.144919 -7.773437,-0.140625 z"
   sodipodi:nodetypes="ssssssssssscccscscsccsccsccscccscsssssssssscssssssssscssssssscsssscssccscscscsccs" /><path
   style="fill:#f8c409;fill-rule:evenodd;stroke:none;stroke-width:1px;stroke-linecap:butt;stroke-linejoin:miter;stroke-opacity:1;fill-opacity:1"
   d="m 40.953125,34.119141 2.549487,1.050122 -2.260091,3.177428 11.454206,10.236851 c -1.444928,0.09405 -3.808705,1.518742 -5.219871,0.903794 l -7.513579,-7.059715 1.389913,12.187363 -3.486063,2.360931 -1.198911,-13.008179 c -0.426543,0.534281 -0.962723,1.198706 -1.666968,1.575175 l -1.82156,-1.720645 c 1.147794,-1.29842 1.986308,-2.59878 2.806071,-4.036883 0,0 -0.276671,-0.461119 -0.09222,-0.645567 0.184447,-0.184447 1.992035,-2.176483 2.194928,-2.305597 0.202893,-0.129113 0.405785,0.07378 0.405785,0.07378 z"
   id="path1030"
   sodipodi:nodetypes="ccccccccccccsscc" /></svg>
