<?xml version="1.0" encoding="utf-8"?>
<!-- Generator: Adobe Illustrator 24.2.0, SVG Export Plug-In . SVG Version: 6.00 Build 0)  -->
<svg version="1.1" id="Layer_1" xmlns="http://www.w3.org/2000/svg" x="0px" y="0px"
	 viewBox="0 0 87.87 87.87" style="enable-background:new 0 0 87.87 87.87;" xml:space="preserve">
<style type="text/css">
	.st0{fill-rule:evenodd;clip-rule:evenodd;}
</style>
<g>
	<path d="M39.64,77.1l-1.14,8.93c1.79,0.23,3.62,0.35,5.44,0.35c1.88,0,3.76-0.13,5.61-0.37l-1.18-8.92
		C45.49,77.47,42.51,77.47,39.64,77.1z"/>
	<path d="M69.8,10.28c-2.94-2.26-6.16-4.13-9.58-5.55l-3.46,8.31c2.69,1.12,5.23,2.59,7.55,4.37L69.8,10.28z"/>
	<path d="M4.77,60.3c1.43,3.41,3.3,6.63,5.57,9.57l7.12-5.5c-1.79-2.31-3.26-4.85-4.39-7.53L4.77,60.3z"/>
	<path d="M18.19,77.67c2.95,2.25,6.18,4.11,9.6,5.52l3.43-8.32c-2.69-1.11-5.24-2.57-7.56-4.35L18.19,77.67z"/>
	<path d="M56.78,74.82l3.46,8.31c3.41-1.42,6.63-3.29,9.57-5.55l-5.49-7.13C62.01,72.23,59.47,73.7,56.78,74.82z"/>
	<path d="M86.02,38.39l-8.92,1.17c0.19,1.44,0.28,2.91,0.28,4.38c0,1.46-0.1,2.92-0.28,4.36l8.93,1.15
		c0.24-1.82,0.36-3.67,0.36-5.51C86.38,42.08,86.26,40.22,86.02,38.39z"/>
	<path d="M70.49,64.27l7.14,5.48c2.26-2.94,4.12-6.17,5.54-9.59l-8.32-3.44C73.74,59.41,72.27,61.95,70.49,64.27z"/>
	<path d="M83.16,27.69c-1.42-3.42-3.28-6.64-5.54-9.58l-7.14,5.48c1.78,2.32,3.25,4.86,4.37,7.55L83.16,27.69z"/>
	<path d="M10.5,43.94c0-18.44,15-33.44,33.44-33.44c1.47,0,2.95,0.1,4.4,0.29l1.17-8.92C47.67,1.62,45.8,1.5,43.94,1.5
		C20.54,1.5,1.5,20.54,1.5,43.94c0,1.87,0.12,3.74,0.36,5.58l8.92-1.17C10.59,46.89,10.5,45.41,10.5,43.94z"/>
</g>
<path class="st0" d="M44.39,41.27c-0.95-0.44-2.86-1.38-3.83-1.84c0.02-0.73,0.03-1.65,0.03-2.8v-2.86l1.88,1.95
	c0.16,0.17,0.35,0.27,0.55,0.35c0.17,0.08,0.36,0.13,0.56,0.13h6.73c0.75,0,1.35-0.6,1.35-1.35c0-0.75-0.6-1.35-1.35-1.35h-5.82
	l-4.5-4.66c-0.61-0.95-1.63-1.59-2.8-1.59c-1.87,0-3.4,1.61-3.4,3.57v5.81c0,1.03,0,1.76,0.04,2.3c-0.17,1.12,0.41,2.2,1.73,2.93
	c2.08,1.17,4.16,2.33,6.26,3.47c0.46,0.25,0.63,0.52,0.63,1.05c-0.03,2.26-0.02,4.51,0,6.77c0.01,0.96,0.57,1.68,1.41,1.89
	c0.84,0.21,1.74-0.13,2.11-0.89c0.2-0.41,0.29-0.91,0.29-1.38c0.03-2.79-0.05-5.57,0.04-8.36C46.34,42.87,45.76,41.91,44.39,41.27z"
	/>
<path class="st0" d="M37.45,26.11c1.85,0.02,3.36-1.46,3.36-3.3c0-1.84-1.5-3.34-3.34-3.32c-1.81,0.02-3.28,1.5-3.29,3.3
	C34.18,24.6,35.64,26.09,37.45,26.11z"/>
<g>
	<path d="M30.31,62.06c-5.18,0-9.4-4.22-9.4-9.4c0-5.18,4.22-9.4,9.4-9.4s9.4,4.22,9.4,9.4C39.71,57.84,35.49,62.06,30.31,62.06z
		 M30.31,45.76c-3.8,0-6.9,3.09-6.9,6.9c0,3.8,3.09,6.9,6.9,6.9s6.9-3.09,6.9-6.9C37.21,48.86,34.12,45.76,30.31,45.76z"/>
</g>
<g>
	<path d="M57.78,62.06c-5.18,0-9.4-4.22-9.4-9.4c0-5.18,4.22-9.4,9.4-9.4c5.18,0,9.4,4.22,9.4,9.4
		C67.18,57.84,62.96,62.06,57.78,62.06z M57.78,45.76c-3.8,0-6.9,3.09-6.9,6.9c0,3.8,3.09,6.9,6.9,6.9c3.8,0,6.9-3.09,6.9-6.9
		C64.68,48.86,61.58,45.76,57.78,45.76z"/>
</g>
</svg>
