<?xml version="1.0" encoding="utf-8"?>
<!-- Generator: Adobe Illustrator 24.2.0, SVG Export Plug-In . SVG Version: 6.00 Build 0)  -->
<svg version="1.1" id="Layer_1" xmlns="http://www.w3.org/2000/svg" x="0px" y="0px"
	 viewBox="0 0 87.87 87.87" style="enable-background:new 0 0 87.87 87.87;" xml:space="preserve">
<style type="text/css">
	.st0{fill-rule:evenodd;clip-rule:evenodd;}
</style>
<g>
	<path d="M4.74,60.22c1.42,3.41,3.28,6.63,5.54,9.57l7.13-5.49c-1.78-2.32-3.25-4.85-4.37-7.54L4.74,60.22z"/>
	<path d="M18.09,77.61c2.94,2.26,6.16,4.12,9.57,5.54l3.45-8.31c-2.69-1.12-5.22-2.58-7.54-4.37L18.09,77.61z"/>
	<path d="M43.94,1.5C20.54,1.5,1.5,20.54,1.5,43.94c0,1.86,0.12,3.74,0.36,5.57l8.92-1.17c-0.19-1.45-0.29-2.93-0.29-4.4
		c0-18.44,15-33.44,33.44-33.44c18.44,0,33.44,15,33.44,33.44c0,18.44-15,33.44-33.44,33.44c-1.47,0-2.95-0.1-4.4-0.29l-1.17,8.92
		c1.84,0.24,3.71,0.36,5.57,0.36c23.4,0,42.44-19.04,42.44-42.44C86.38,20.54,67.34,1.5,43.94,1.5z"/>
</g>
<path class="st0" d="M47.22,29.41c1.93,0.02,3.5-1.52,3.51-3.44c0-1.92-1.57-3.49-3.49-3.47c-1.89,0.02-3.42,1.56-3.43,3.45
	C43.81,27.83,45.34,29.39,47.22,29.41z"/>
<path class="st0" d="M47.07,37.52h6.73c0.75,0,1.35-0.6,1.35-1.35c0-0.75-0.6-1.35-1.35-1.35h-5.65l-3.44-5.36
	c-0.02-0.04-0.05-0.06-0.08-0.1c0,0,0,0,0,0c-1.21-1.85-3.23-2.07-4.78-0.52c-2.3,2.29-4.59,4.58-6.87,6.88
	c-1.71,1.72-1.4,3.8,0.74,5c2.17,1.22,4.35,2.44,6.54,3.62c0.48,0.26,0.66,0.54,0.65,1.09c-0.03,2.35-0.02,4.71-0.01,7.06
	c0.01,1.01,0.6,1.76,1.47,1.98c0.87,0.22,1.82-0.13,2.2-0.93c0.21-0.43,0.3-0.95,0.3-1.44c0.03-2.91-0.06-5.82,0.04-8.72
	c0.05-1.61-0.55-2.62-1.98-3.28c-1.29-0.6-2.53-1.32-3.68-1.93c1.51-1.55,2.99-3.06,4.51-4.63c0.09,0.13,0.17,0.27,0.25,0.4
	c0,0,0-0.01,0.01-0.01l1.74,2.71c0.06,0.09,0.12,0.17,0.19,0.24C46.2,37.27,46.6,37.52,47.07,37.52z"/>
<g>
	<path d="M29.31,62.06c-5.18,0-9.4-4.22-9.4-9.4c0-5.18,4.22-9.4,9.4-9.4s9.4,4.22,9.4,9.4C38.71,57.84,34.49,62.06,29.31,62.06z
		 M29.31,45.76c-3.8,0-6.9,3.09-6.9,6.9c0,3.8,3.09,6.9,6.9,6.9s6.9-3.09,6.9-6.9C36.21,48.86,33.12,45.76,29.31,45.76z"/>
</g>
<g>
	<path d="M56.78,62.06c-5.18,0-9.4-4.22-9.4-9.4c0-5.18,4.22-9.4,9.4-9.4c5.18,0,9.4,4.22,9.4,9.4
		C66.18,57.84,61.96,62.06,56.78,62.06z M56.78,45.76c-3.8,0-6.9,3.09-6.9,6.9c0,3.8,3.09,6.9,6.9,6.9c3.8,0,6.9-3.09,6.9-6.9
		C63.68,48.86,60.58,45.76,56.78,45.76z"/>
</g>
</svg>
