<?xml version="1.0" encoding="utf-8"?>
<!-- Generator: Adobe Illustrator 24.2.0, SVG Export Plug-In . SVG Version: 6.00 Build 0)  -->
<svg version="1.1" id="Layer_1" xmlns="http://www.w3.org/2000/svg" x="0px" y="0px"
	 viewBox="0 0 87.87 87.87" style="enable-background:new 0 0 87.87 87.87;" xml:space="preserve">
<style type="text/css">
	.st0{fill-rule:evenodd;clip-rule:evenodd;}
</style>
<path d="M43.94,1.5C20.54,1.5,1.5,20.54,1.5,43.94c0,23.4,19.04,42.44,42.44,42.44c23.4,0,42.44-19.04,42.44-42.44
	C86.38,20.54,67.34,1.5,43.94,1.5z M43.94,77.38c-18.44,0-33.44-15-33.44-33.44c0-18.44,15-33.44,33.44-33.44
	c18.44,0,33.44,15,33.44,33.44C77.38,62.37,62.38,77.38,43.94,77.38z"/>
<g>
	<path class="st0" d="M29.17,41.16c-6,0-10.87,4.88-10.87,10.88s4.88,10.87,10.87,10.87c6,0,10.87-4.88,10.87-10.87
		S35.16,41.16,29.17,41.16z"/>
	<path class="st0" d="M57.5,42.52c-5.62,0-10.2,4.58-10.2,10.2c0,5.62,4.57,10.2,10.2,10.2s10.2-4.57,10.2-10.2
		C67.7,47.09,63.12,42.52,57.5,42.52z"/>
	<path class="st0" d="M43.88,36.97c-0.41-0.19-0.81-0.41-1.21-0.62h6.87c0.41,0,0.8-0.07,1.18-0.17v3.09c0,0.78,0.63,1.41,1.41,1.41
		h9.36c0.78,0,1.41-0.63,1.41-1.41c0-0.78-0.63-1.41-1.41-1.41h-7.95v-5.04c0-0.14-0.03-0.27-0.06-0.39
		c-0.11-0.63-0.64-2.91-3.94-2.91H37.77c-1.18,0-2.23,0.45-2.96,1.14c0,0-0.01-0.01-0.01-0.01c-0.53,0.54-1.07,1.07-1.6,1.61
		c-1.84,1.85-1.51,4.09,0.79,5.37c2.33,1.31,4.67,2.62,7.02,3.89c0.51,0.28,0.71,0.58,0.7,1.17c-0.03,2.53-0.03,5.06-0.01,7.58
		c0.01,1.08,0.64,1.89,1.58,2.12c0.94,0.23,1.95-0.14,2.36-1c0.22-0.46,0.32-1.02,0.33-1.54c0.03-3.12-0.06-6.25,0.04-9.37
		C46.07,38.77,45.42,37.69,43.88,36.97z"/>
	<path class="st0" d="M57.21,31.95c2.07,0.03,3.76-1.63,3.77-3.7c0-2.06-1.69-3.75-3.75-3.73c-2.03,0.02-3.68,1.68-3.68,3.71
		C53.54,30.25,55.19,31.92,57.21,31.95z"/>
	<path class="st0" d="M38.48,28.11h8.17c2.11,0,3.81-1.71,3.81-3.81c0-2.11-1.71-3.81-3.81-3.81h-8.17c-2.11,0-3.81,1.71-3.81,3.81
		C34.66,26.4,36.37,28.11,38.48,28.11z"/>
</g>
</svg>
