<?xml version="1.0" encoding="utf-8"?>
<!-- Generator: Adobe Illustrator 24.2.0, SVG Export Plug-In . SVG Version: 6.00 Build 0)  -->
<svg version="1.1" id="Warstwa_3" xmlns="http://www.w3.org/2000/svg" x="0px" y="0px"
	 viewBox="0 0 87.87 87.87" style="enable-background:new 0 0 87.87 87.87;" xml:space="preserve">
<g>
	<g>
		<path d="M39.71,77.15l-1.15,8.94c1.8,0.23,3.63,0.35,5.45,0.35c1.88,0,3.77-0.13,5.62-0.37l-1.18-8.94
			C45.58,77.51,42.59,77.52,39.71,77.15z"/>
		<path d="M69.93,10.21c-2.94-2.27-6.18-4.14-9.6-5.56l-3.46,8.33c2.7,1.12,5.24,2.59,7.56,4.38L69.93,10.21z"/>
		<path d="M4.78,60.32c1.43,3.42,3.3,6.64,5.58,9.58l7.13-5.51c-1.79-2.32-3.27-4.86-4.39-7.55L4.78,60.32z"/>
		<path d="M18.22,77.72c2.95,2.26,6.19,4.12,9.62,5.53l3.43-8.34c-2.7-1.11-5.25-2.58-7.57-4.36L18.22,77.72z"/>
		<path d="M56.89,74.86l3.47,8.32c3.42-1.42,6.65-3.3,9.59-5.57l-5.5-7.14C62.12,72.27,59.58,73.74,56.89,74.86z"/>
		<path d="M86.18,38.37l-8.94,1.17c0.19,1.44,0.28,2.92,0.28,4.39c0,1.46-0.1,2.93-0.28,4.37l8.94,1.16
			c0.24-1.82,0.36-3.68,0.36-5.52C86.54,42.07,86.42,40.2,86.18,38.37z"/>
		<path d="M70.62,64.29l7.15,5.49c2.26-2.95,4.13-6.18,5.55-9.61l-8.33-3.45C73.87,59.42,72.4,61.97,70.62,64.29z"/>
		<path d="M83.31,27.65c-1.42-3.42-3.29-6.65-5.55-9.6l-7.15,5.49c1.78,2.32,3.26,4.87,4.38,7.56L83.31,27.65z"/>
		<path d="M10.51,43.92c0-18.47,15.03-33.5,33.5-33.5c1.48,0,2.96,0.1,4.41,0.29l1.17-8.94c-1.84-0.24-3.72-0.36-5.59-0.36
			C20.57,1.4,1.5,20.48,1.5,43.92c0,1.87,0.12,3.75,0.36,5.59l8.94-1.18C10.61,46.88,10.51,45.4,10.51,43.92z"/>
	</g>
	<path d="M57.76,46.91h-1.13c0.41-1.56,0.65-3.3,0.65-5.24c0-9.73-6.08-20.62-14.22-20.62S28.83,31.93,28.83,41.67
		c0,1.94,0.24,3.68,0.65,5.24h-1.13c0,6.13,3.75,11.38,9.09,13.59c-1.77,1.45-2.9,3.56-2.9,5.92c0,0.46,0.37,0.84,0.84,0.84h15.36
		c0.46,0,0.84-0.38,0.84-0.84c0-2.36-1.13-4.47-2.9-5.92C54.01,58.29,57.76,53.04,57.76,46.91z M33.84,41.67
		c0-7.73,4.65-15.61,9.21-15.61s9.21,7.88,9.21,15.61c0,1.99-0.32,3.75-0.92,5.24H34.76C34.16,45.42,33.84,43.66,33.84,41.67z"/>
</g>
</svg>
