<?xml version="1.0" encoding="utf-8"?>
<!-- Generator: Adobe Illustrator 24.2.0, SVG Export Plug-In . SVG Version: 6.00 Build 0)  -->
<svg version="1.1" xmlns="http://www.w3.org/2000/svg" x="0px" y="0px"
	 viewBox="0 0 87.87 87.87" style="enable-background:new 0 0 87.87 87.87;" xml:space="preserve">
<g id="Warstwa_3">
</g>
<g id="Warstwa_2">
	<g>
		<g>
			<g>
				<path d="M4.74,60.23c1.42,3.42,3.29,6.64,5.55,9.59l7.15-5.5c-1.78-2.32-3.26-4.86-4.38-7.55L4.74,60.23z"/>
				<path d="M18.13,77.65c2.94,2.26,6.17,4.13,9.59,5.55l3.46-8.33c-2.69-1.12-5.23-2.59-7.56-4.37L18.13,77.65z"/>
				<path d="M44.02,1.4C20.57,1.4,1.5,20.48,1.5,43.92c0,1.87,0.12,3.75,0.36,5.58l8.94-1.18c-0.19-1.45-0.29-2.93-0.29-4.41
					c0-18.47,15.03-33.5,33.5-33.5c18.47,0,33.5,15.03,33.5,33.5c0,18.47-15.03,33.5-33.5,33.5c-1.47,0-2.96-0.1-4.41-0.29
					l-1.17,8.94c1.84,0.24,3.72,0.36,5.58,0.36c23.45,0,42.52-19.08,42.52-42.52C86.54,20.48,67.46,1.4,44.02,1.4z"/>
			</g>
			<path d="M64.22,31.06L49.04,22.3c-0.92-0.53-2.06-0.42-2.87,0.26L23.35,41.84c-0.33,0.27-0.56,0.62-0.71,1h0v0
				c-0.22,0.56-0.18,16.5-0.18,16.5c-0.01,0.79,0.35,1.53,0.98,2.01c0.44,0.34,0.98,0.52,1.53,0.52c0.23,0,0.45-0.03,0.67-0.09
				l37.43-10.42c1.05-0.29,1.79-1.22,1.83-2.31c0,0,0.67-11.9,0.67-16.06C65.57,32.17,65.34,31.7,64.22,31.06z M60.25,40.26
				l-32.67,8.98l0.04-3.62l32.78-9.08L60.25,40.26z M48.06,27.52l8.48,4.89l-21.22,5.88L48.06,27.52z M27.51,56.06l0.04-3.69
				l32.57-8.95l-0.15,3.61L27.51,56.06z"/>
		</g>
	</g>
</g>
</svg>
