<?xml version="1.0" encoding="utf-8"?>
<!-- Generator: Adobe Illustrator 24.2.0, SVG Export Plug-In . SVG Version: 6.00 Build 0)  -->
<svg version="1.1" id="Warstwa_3" xmlns="http://www.w3.org/2000/svg" x="0px" y="0px"
	 viewBox="0 0 87.87 87.87" style="enable-background:new 0 0 87.87 87.87;" xml:space="preserve">
<g>
	<g>
		<path d="M4.74,60.23c1.42,3.42,3.29,6.64,5.55,9.59l7.15-5.5c-1.78-2.32-3.26-4.86-4.38-7.55L4.74,60.23z"/>
		<path d="M18.13,77.65c2.94,2.26,6.17,4.13,9.59,5.55l3.46-8.33c-2.69-1.12-5.23-2.59-7.56-4.37L18.13,77.65z"/>
		<path d="M44.02,1.4C20.57,1.4,1.5,20.48,1.5,43.92c0,1.87,0.12,3.75,0.36,5.58l8.94-1.18c-0.19-1.45-0.29-2.93-0.29-4.41
			c0-18.47,15.03-33.5,33.5-33.5c18.47,0,33.5,15.03,33.5,33.5c0,18.47-15.03,33.5-33.5,33.5c-1.47,0-2.96-0.1-4.41-0.29l-1.17,8.94
			c1.84,0.24,3.72,0.36,5.58,0.36c23.45,0,42.52-19.08,42.52-42.52C86.54,20.48,67.46,1.4,44.02,1.4z"/>
	</g>
	<path d="M47.73,26.43l7.24-7.24l-3.54-3.54l-7.24,7.24l-7.24-7.24L33.4,19.2l7.24,7.24l-25.7,25.7c0.55,1.74,1.25,3.41,2.09,5
		l25.66-25.66v14.61h-8.13v2.5c0,1.33-0.18,2.74-0.36,4.23c-0.39,3.17-0.84,6.75,0.55,10.11c1.36,3.28,5.07,5.4,9.44,5.4
		s8.08-2.12,9.44-5.4c1.39-3.36,0.95-6.95,0.55-10.11c-0.18-1.49-0.36-2.9-0.36-4.23v-2.5h-8.13V31.48l25.66,25.66
		c0.84-1.59,1.54-3.26,2.09-5L47.73,26.43z M48.94,51.09c0.07,0.79,0.17,1.57,0.27,2.34c0.35,2.8,0.68,5.44-0.21,7.58
		c-0.66,1.6-2.9,2.31-4.81,2.31c-1.92,0-4.15-0.71-4.82-2.31c-0.88-2.14-0.56-4.78-0.21-7.58c0.09-0.77,0.19-1.55,0.27-2.34H48.94z"
		/>
</g>
</svg>
