<?xml version="1.0" encoding="utf-8"?>
<!-- Generator: Adobe Illustrator 24.2.0, SVG Export Plug-In . SVG Version: 6.00 Build 0)  -->
<svg version="1.1" xmlns="http://www.w3.org/2000/svg" x="0px" y="0px"
	 viewBox="0 0 87.87 87.87" style="enable-background:new 0 0 87.87 87.87;" xml:space="preserve">
<g id="Warstwa_3">
	<g>
		<g>
			<g>
				<g>
					<g>
						<g>
							<path d="M4.74,60.23c1.42,3.42,3.29,6.64,5.55,9.59l7.15-5.5c-1.78-2.32-3.26-4.86-4.38-7.55L4.74,60.23z"/>
						</g>
					</g>
					<g>
						<g>
							<path d="M18.13,77.65c2.94,2.26,6.17,4.13,9.59,5.55l3.46-8.33c-2.69-1.12-5.23-2.59-7.55-4.37L18.13,77.65z"/>
						</g>
					</g>
					<g>
						<g>
							<path d="M44.01,1.4C20.57,1.4,1.5,20.48,1.5,43.92c0,1.87,0.12,3.75,0.36,5.58l8.94-1.18c-0.19-1.45-0.29-2.93-0.29-4.41
								c0-18.47,15.03-33.5,33.5-33.5c18.48,0,33.51,15.03,33.51,33.5c0,18.47-15.03,33.5-33.51,33.5c-1.47,0-2.96-0.1-4.41-0.29
								l-1.17,8.94c1.84,0.24,3.72,0.36,5.58,0.36c23.45,0,42.52-19.08,42.52-42.52C86.54,20.48,67.46,1.4,44.01,1.4z"/>
						</g>
					</g>
				</g>
			</g>
		</g>
		<g>
			<path d="M49.76,28.96H38.27c-4.89,0-8.87,3.98-8.87,8.87v18.82c0,4.89,3.98,8.87,8.87,8.87h11.48c4.89,0,8.87-3.98,8.87-8.87
				V37.82C58.62,32.93,54.65,28.96,49.76,28.96z M38.27,33.46h11.48c2.41,0,4.37,1.96,4.37,4.37v1.82H33.91v-1.82
				C33.91,35.42,35.87,33.46,38.27,33.46z M53.94,43.14v6.58h-19.9v-6.58H53.94z M49.76,61.01H38.27c-2.41,0-4.37-1.96-4.37-4.37
				v-3.42h20.21v3.42C54.12,59.05,52.17,61.01,49.76,61.01z"/>
			<rect x="34.91" y="22.34" width="18.21" height="4.68"/>
		</g>
	</g>
</g>
<g id="Warstwa_2">
</g>
</svg>
