<?xml version="1.0" encoding="utf-8"?>
<!-- Generator: Adobe Illustrator 24.2.0, SVG Export Plug-In . SVG Version: 6.00 Build 0)  -->
<svg version="1.1" xmlns="http://www.w3.org/2000/svg" x="0px" y="0px"
	 viewBox="0 0 87.87 87.87" style="enable-background:new 0 0 87.87 87.87;" xml:space="preserve">
<g id="Warstwa_3">
	<g>
		<g>
			<g>
				<g>
					<g>
						<path d="M44.02,1.4C20.57,1.4,1.5,20.48,1.5,43.92c0,23.44,19.07,42.52,42.52,42.52c23.45,0,42.52-19.08,42.52-42.52
							C86.54,20.48,67.46,1.4,44.02,1.4z M44.02,77.42c-18.47,0-33.5-15.03-33.5-33.5c0-18.47,15.03-33.5,33.5-33.5
							c18.47,0,33.5,15.03,33.5,33.5C77.52,62.39,62.49,77.42,44.02,77.42z"/>
					</g>
				</g>
			</g>
		</g>
		<path d="M63.7,59.02V39.19h-5.81v-12.9H46.63c0.78-0.71,1.28-1.73,1.28-2.87c0-2.15-1.74-3.9-3.9-3.9c-2.15,0-3.9,1.75-3.9,3.9
			c0,1.14,0.5,2.16,1.28,2.87H30.32v12.9h-5.99v19.83h-3.9v3.75H67.6v-3.75H63.7z M54.44,29.74v3.72H33.77v-3.72H54.44z
			 M60.25,42.64v6.79c-0.98-1.14-2.47-2.86-5.28-2.86c-2.82,0-4.3,1.73-5.29,2.87c-0.88,1.02-1.23,1.38-2.03,1.38
			c-0.78,0-1.13-0.34-2.02-1.38c-0.98-1.14-2.47-2.87-5.29-2.87c-2.81,0-4.3,1.73-5.28,2.88c-0.89,1.04-1.25,1.38-2.02,1.38
			c-0.77,0-1.12-0.34-2.02-1.38c-0.71-0.83-1.69-1.95-3.24-2.51v-4.29H60.25z M27.78,52.27c0.98,1.15,2.47,2.85,5.26,2.85
			c2.82,0,4.3-1.73,5.28-2.88c0.89-1.04,1.25-1.38,2.02-1.38c0.78,0,1.13,0.34,2.03,1.38c0.98,1.14,2.47,2.87,5.28,2.87
			c2.82,0,4.3-1.73,5.29-2.87c0.88-1.02,1.23-1.38,2.03-1.38c0.8,0,1.15,0.35,2.03,1.38c0.71,0.83,1.69,1.95,3.25,2.52v4.26H27.78
			V52.27z"/>
	</g>
</g>
<g id="Warstwa_2">
</g>
</svg>
