<?xml version="1.0" encoding="utf-8"?>
<!-- Generator: Adobe Illustrator 24.2.0, SVG Export Plug-In . SVG Version: 6.00 Build 0)  -->
<svg version="1.1" id="Warstwa_3" xmlns="http://www.w3.org/2000/svg" x="0px" y="0px"
	 viewBox="0 0 87.87 87.87" style="enable-background:new 0 0 87.87 87.87;" xml:space="preserve">
<g>
	<path d="M44.02,1.4C20.57,1.4,1.5,20.48,1.5,43.92c0,23.44,19.07,42.52,42.52,42.52c23.45,0,42.52-19.08,42.52-42.52
		C86.54,20.48,67.46,1.4,44.02,1.4z M44.02,77.42c-18.47,0-33.5-15.03-33.5-33.5c0-18.47,15.03-33.5,33.5-33.5
		c18.47,0,33.5,15.03,33.5,33.5C77.52,62.39,62.49,77.42,44.02,77.42z"/>
	<path d="M55.54,24.59c-1.12,0-2.21,0.18-3.25,0.53c-1.9-2.59-4.96-4.2-8.24-4.2c-3.3,0-6.36,1.62-8.25,4.22
		c-1.05-0.36-2.16-0.55-3.3-0.55c-5.64,0-10.22,4.58-10.22,10.22c0,4.84,3.38,8.9,7.9,9.95l1.61,22.17h24.47l1.62-22.17
		c4.52-1.06,7.89-5.12,7.89-9.95C65.76,29.17,61.18,24.59,55.54,24.59z M36.44,61.92l-0.42-5.81h16l-0.42,5.81H36.44z M55.68,40.02
		h-2.49L52.24,53.1H35.8l-0.95-13.08l-2.46,0c-2.82-0.06-5.1-2.37-5.1-5.21c0-2.87,2.34-5.21,5.21-5.21c1.05,0,2.06,0.31,2.92,0.9
		l2.63,1.8l1.12-2.98c0.76-2.03,2.72-3.39,4.87-3.39c2.14,0,4.1,1.35,4.87,3.37l1.13,2.94l2.61-1.76c0.86-0.58,1.86-0.88,2.89-0.88
		c2.87,0,5.21,2.34,5.21,5.21C60.75,37.63,58.49,39.94,55.68,40.02z"/>
</g>
</svg>
