<?xml version="1.0" encoding="utf-8"?>
<!-- Generator: Adobe Illustrator 24.2.0, SVG Export Plug-In . SVG Version: 6.00 Build 0)  -->
<svg version="1.1" xmlns="http://www.w3.org/2000/svg" x="0px" y="0px"
	 viewBox="0 0 87.87 87.87" style="enable-background:new 0 0 87.87 87.87;" xml:space="preserve">
<g id="Warstwa_3">
	<g>
		<g>
			<g>
				<g>
					<path d="M44.02,1.4C20.57,1.4,1.5,20.48,1.5,43.92c0,23.44,19.07,42.52,42.52,42.52c23.45,0,42.52-19.08,42.52-42.52
						C86.54,20.48,67.46,1.4,44.02,1.4z M44.02,77.42c-18.47,0-33.5-15.03-33.5-33.5c0-18.47,15.03-33.5,33.5-33.5
						c18.47,0,33.5,15.03,33.5,33.5C77.52,62.39,62.49,77.42,44.02,77.42z"/>
				</g>
			</g>
		</g>
		<g>
			<g>
				<path d="M38.86,60.8H25.28c-1.87,0-3.39-1.52-3.39-3.39V36.3c0-1.87,1.52-3.39,3.39-3.39h13.58c1.87,0,3.39,1.52,3.39,3.39
					v21.11C42.25,59.28,40.73,60.8,38.86,60.8z"/>
				<rect x="24.85" y="26.58" width="14.45" height="4.25"/>
			</g>
			<g>
				<path d="M62.94,35.91c0.22,0,0.39,0.18,0.39,0.39v21.11c0,0.22-0.18,0.39-0.39,0.39H49.36c-0.22,0-0.39-0.18-0.39-0.39V36.3
					c0-0.22,0.18-0.39,0.39-0.39H62.94 M62.94,32.91H49.36c-1.87,0-3.39,1.52-3.39,3.39v21.11c0,1.87,1.52,3.39,3.39,3.39h13.58
					c1.87,0,3.39-1.52,3.39-3.39V36.3C66.33,34.43,64.81,32.91,62.94,32.91L62.94,32.91z"/>
				<rect x="48.92" y="26.58" width="14.45" height="4.25"/>
				<g>
					<circle cx="53.77" cy="41.26" r="2.92"/>
					<circle cx="59.01" cy="47.07" r="2.92"/>
					<circle cx="53.87" cy="52.87" r="2.92"/>
				</g>
			</g>
		</g>
	</g>
</g>
<g id="Warstwa_2">
</g>
</svg>
