<?xml version="1.0" ?>
<svg height="500.0" viewBox="0 0 960.0 500.0" width="960.0" xmlns="http://www.w3.org/2000/svg">
  <path d="M446.4,39.1c-1.8,2 -1.9,5.3 -1.9,92.1 0,87 -0.1,90 -1.9,91.3 -1.5,1.2 -10,1.4 -45.5,1.5 -24,0 -57.1,0.2 -73.6,0.5 -16.5,0.3 -55.6,0.7 -87,1 -170.5,1.5 -194.6,1.8 -196.8,2.9 -5.1,2.6 -4.4,12.4 1.6,21.2 6,8.9 -0.7,8.4 91.2,7.4 44.6,-0.5 108.2,-1.1 141.5,-1.4 33.3,-0.3 84.6,-0.9 114.1,-1.2l53.7,-0.7 1.5,2.4c1.4,2.1 1.5,14.2 1.5,102.7l0,100.3 2.7,5.5c4.8,9.8 14.6,14.5 19.5,9.2 2.3,-2.4 2.2,3.3 2,-148.3 -0.1,-54 0.2,-68.4 1.2,-69.7 1.5,-2 15.3,-2.4 122.3,-3.3 142.8,-1.2 176.6,-1.5 202.5,-2 32.4,-0.7 31.4,-0.4 30.8,-10.1 -0.5,-7.3 -4.3,-14.5 -9.8,-18.2l-3.5,-2.4 -66,0.6c-36.3,0.3 -80.6,0.8 -98.5,1.1 -17.9,0.3 -65,0.8 -104.6,1.1l-72.2,0.7 -1.2,-2.3c-0.9,-1.6 -1.1,-22.2 -0.9,-84.3l0.2,-82.2 -2.6,-5.1c-3.6,-7.1 -9.9,-12.4 -14.7,-12.4 -2.5,0 -4.3,0.7 -5.6,2.1z" fill="#000"/>
</svg>
