<?xml version="1.0" ?>
<svg height="500.0" viewBox="0 0 960.0 500.0" width="960.0" xmlns="http://www.w3.org/2000/svg">
  <path d="M341,33.7c-4.4,0.3 -5.9,0.9 -6.9,2.5 -1.1,1.7 -1.3,19.1 -1.2,93.3 0.1,85.8 0,91.4 -1.6,93.3 -1.8,2 -3.2,2 -81.8,2.6 -160.2,1.2 -207.4,1.9 -209.8,3 -3,1.5 -4.2,6.9 -2.8,12.3 1.6,5.8 7,13.4 11.1,15.4 3.7,1.9 8.5,1.9 224.6,-0.6 48.2,-0.6 58.3,-0.5 59,0.7 0.5,0.7 1.1,45.7 1.4,99.9l0.5,98.6 3.7,5.5c2.6,3.9 5,6.2 8.2,7.8 4.8,2.3 7.3,2.1 10,-0.9 1.5,-1.6 1.6,-10.9 1.7,-104.7 0.1,-65.9 0.5,-103.7 1.2,-105.1 0.9,-2.1 1.7,-2.2 14.1,-2.5 7.2,-0.2 31.3,-0.5 53.6,-0.6 22.3,-0.1 57.5,-0.5 78.3,-0.9 32,-0.5 38,-0.4 38.8,0.8 0.5,0.8 0.9,41.1 0.9,92.6 0,90.8 0,91.2 2.1,97 5.1,13.6 18.6,20.1 22.5,10.8 1.2,-2.9 1.4,-18.7 1.4,-101.9 0,-54.2 0.3,-98.7 0.8,-98.9 1.2,-0.7 57,-1.6 133.2,-2.2 39.3,-0.3 82.1,-0.8 95,-1.1 27.9,-0.7 27.4,-0.5 26.8,-10 -0.5,-7.3 -4.3,-14.5 -9.8,-18.2l-3.4,-2.3 -82.1,0.8c-45.1,0.4 -99.5,0.8 -121,0.8l-39,0 -0.5,-82.5c-0.6,-92.3 -0.2,-87.1 -8,-95.2 -7.4,-7.6 -14.4,-7.8 -16.6,-0.3 -0.9,3 -1.3,26.3 -1.3,90.6 -0.1,68.1 -0.4,86.9 -1.3,87.7 -0.8,0.6 -34.2,1.2 -92.4,1.7l-91.1,0.7 -1.1,-2.9c-0.7,-2 -1.1,-30.1 -1,-94.2 0,-87 -0.1,-91.5 -1.8,-92.8 -1.7,-1.3 -2.8,-1.3 -14.4,-0.6z" fill="#000"/>
</svg>
