<?xml version="1.0" ?>
<svg height="500.0" viewBox="0 0 960.0 500.0" width="960.0" xmlns="http://www.w3.org/2000/svg">
  <path d="M209.3,23.5c-1.7,0.7 -3.6,2.2 -4.2,3.4 -0.8,1.4 -1.1,31.3 -1.1,98.4 0,94.3 0,96.4 -1.9,98.2 -1.9,1.6 -6.4,1.7 -60.8,2.1 -32.3,0.3 -63.7,0.9 -69.8,1.5 -6,0.6 -18.3,1.2 -27.2,1.4 -11.3,0.1 -16.7,0.6 -17.8,1.5 -1.2,1 -1.5,3.7 -1.5,13.6 0,16 -0.3,15.6 14.4,15.2 6.1,-0.2 44.9,-0.7 86.2,-1.1 72.7,-0.8 75.1,-0.7 76.7,1.1 1.6,1.7 1.7,7.9 1.4,84.3 -0.2,66.4 -0.5,83.2 -1.6,86.5 -1.9,5.5 -0.8,8.9 4,12.4 7.5,5.4 20.2,5 26.7,-0.9 3.8,-3.5 4.7,-6.7 3.3,-11.7 -0.7,-2.6 -1.1,-30.9 -1.1,-87 0,-77.9 0.1,-83.2 1.8,-84.6 1.5,-1.4 11.6,-1.7 82.2,-2.2 44.3,-0.3 95.1,-0.8 113,-1.1 17.9,-0.3 67.2,-0.7 109.5,-1 42.4,-0.3 92.8,-0.7 112,-1 19.3,-0.3 64.7,-0.7 101,-1 42.7,-0.4 67,-1 68.7,-1.7 5.1,-1.9 5.5,-10.7 0.9,-19.6 -4.7,-9.1 -10.4,-11.5 -25.5,-10.8 -6.1,0.3 -47.1,0.8 -91.1,1.1 -44,0.3 -89.9,0.7 -102,1 -12.1,0.3 -54.8,0.7 -95,1 -82.8,0.6 -151.8,1.2 -222.6,2.1 -35.5,0.4 -49.2,0.3 -50.8,-0.5l-2.1,-1.2 0,-96.7c0,-107.4 0.5,-99.8 -6.6,-102.8 -4.2,-1.8 -14.9,-1.7 -19.1,0.1z" fill="#000"/>
</svg>
