<?xml version="1.0" ?>
<svg height="500.0" viewBox="0 0 960.0 500.0" width="960.0" xmlns="http://www.w3.org/2000/svg">
  <path d="M926.5,104.3c-20.3,17.3 -133.2,114.6 -147.5,127 -10.7,9.3 -14.5,12 -18.5,13.1 -5.5,1.6 -29.8,2.2 -140.5,3.1 -32.7,0.3 -81.1,0.7 -107.5,1 -26.4,0.3 -69.8,0.7 -96.5,1 -26.7,0.3 -81.8,0.7 -122.5,1 -40.7,0.3 -85.7,0.7 -100,1 -14.3,0.3 -61.2,0.8 -104.2,1.1 -55.1,0.5 -78.9,1 -80.5,1.8 -5.2,2.6 -4.5,12.4 1.5,21.2 6,8.9 -0.3,8.4 88.2,7.4 42.9,-0.5 111.8,-1.1 153,-1.4 41.3,-0.4 86.5,-0.8 100.5,-1.1 14,-0.3 67.6,-0.7 119,-1 51.4,-0.3 97.8,-0.8 103,-1 5.2,-0.2 50,-0.7 99.6,-1.1 70,-0.5 90.8,-0.4 93.7,0.5 2.7,0.9 4.9,2.9 7.7,6.6 2.1,2.9 6.1,6.9 8.7,9 3.8,2.9 81.6,59 91,65.5 3.1,2.2 26.1,18.7 44.8,32.2 18.8,13.5 19.3,13.8 23.9,13.8 9.7,0 8.4,-17.6 -2,-27 -2.2,-2 -8.2,-6.6 -13.4,-10.3 -5.2,-3.6 -21,-14.9 -35,-25 -14,-10.1 -40.1,-28.8 -58,-41.6 -32.2,-23 -40,-29.5 -40,-33.3 0,-1.1 1.4,-4.6 3.1,-7.7 3.2,-5.9 -2.7,-0.7 126.3,-111.4 16.6,-14.3 30.7,-26.6 31.4,-27.5 1.9,-2.4 1.4,-10.1 -0.8,-14.8 -2.9,-5.8 -10.2,-12.4 -13.8,-12.4 -2.1,0 -5.7,2.5 -14.7,10.3z" fill="#000"/>
</svg>
