<?xml version="1.0" ?>
<svg height="500.0" viewBox="0 0 960.0 500.0" width="960.0" xmlns="http://www.w3.org/2000/svg">
  <path d="M26.6,106.2c-2.4,3.3 -2,9.7 0.9,15.5 2.7,5.3 6.5,9 97.2,95.1 38.3,36.3 38.3,36.4 38.3,47.3 0,10.1 -4.1,15.6 -16.9,22.8 -5.9,3.3 -19.3,14.6 -94.2,79.2 -19.6,16.9 -37.5,31.9 -39.7,33.3 -5,3.1 -6.5,7.1 -5.2,13.2 2.1,9.3 8.9,16.4 15.8,16.4 2.6,0 4.1,-0.8 6.5,-3.6 2.7,-3.1 21.7,-19.6 83.6,-72.8 72.5,-62.4 75.1,-64.6 75.7,-67.3 0.4,-1.6 1.9,-3 3.8,-3.8 4,-1.7 39.2,-2.2 354.6,-5 32.7,-0.3 75.7,-0.7 95.5,-1 19.8,-0.3 56.7,-0.6 82,-0.7 52,-0.3 48.9,-0.8 55.3,7.8 2.1,2.7 7.4,7.5 11.7,10.6 24.3,17.6 38.7,27.9 45.5,32.8 10.3,7.3 15.8,11.2 46,33 49.9,35.9 45.5,33 50.2,33 3.5,0 4,-0.3 5.3,-3.5 1.2,-2.7 1.3,-4.4 0.4,-8.4 -1.5,-7 -5.5,-12 -15.1,-18.8 -8.7,-6.3 -27.1,-19.5 -62.8,-45.2 -11.8,-8.5 -25.1,-18 -29.5,-21.1 -30.5,-21.4 -33.5,-24.1 -33.5,-29.1 0,-6.2 3.8,-10.6 24.4,-28.3 11,-9.5 30.5,-26.2 43.1,-37.1 12.7,-10.9 34,-29.3 47.5,-40.8 33.3,-28.6 33,-28.2 33,-33.1 0,-5.3 -3.2,-11.7 -8.1,-16 -6.3,-5.7 -7.4,-5.3 -23.9,9 -8,7 -25.3,21.9 -38.5,33.3 -32.2,27.6 -56.7,48.8 -82.1,70.7 -21.3,18.4 -26.2,21.8 -32.4,22.8 -1.9,0.3 -44.9,0.8 -95.5,1.1 -50.6,0.3 -103.9,0.7 -118.5,1 -14.6,0.3 -55.5,0.7 -91,1 -99.2,0.8 -173.4,1.5 -219.5,2 -32.5,0.4 -42.6,0.2 -44.7,-0.7 -1.5,-0.7 -36.3,-33.2 -77.2,-72.2 -40.9,-39 -75.7,-71.7 -77.3,-72.7 -3.9,-2.6 -8.8,-2.5 -10.7,0.3z" fill="#000"/>
</svg>
