<?xml version="1.0" ?>
<svg height="500.0" viewBox="0 0 960.0 500.0" width="960.0" xmlns="http://www.w3.org/2000/svg">
  <path d="M439.9,29.4c-1.5,1.5 -4.4,5.9 -6.4,9.9 -2.1,3.9 -5.9,9.7 -8.5,12.7 -7.3,8.5 -18.6,26 -20.4,31.5 -1.4,4.2 -12.4,24.7 -26.7,49.5 -2,3.6 -14.8,26.3 -28.4,50.5 -13.6,24.2 -27.6,48.9 -31,55 -7.9,14 -22.8,40.5 -31.5,56 -3.7,6.6 -10,17.8 -14.1,25 -4,7.1 -9.4,16.8 -12,21.5 -2.6,4.7 -5.6,9.6 -6.7,11 -1,1.4 -4.9,8.1 -8.4,15 -3.6,6.9 -9.6,17.9 -13.2,24.5 -6.1,10.8 -6.7,12.4 -6.3,16.6 0.7,8.8 8.1,19.9 16.1,24.2 4,2.2 4.7,2.2 43.1,2.2 21.5,0 92.5,-0.5 158,-1 116.7,-1 157.5,-1.1 180.5,-0.5 6.3,0.2 19,0 28.2,-0.5l16.7,-0.8 6.1,4.7c4.9,3.6 7,4.6 10,4.6 4.5,0 8,-3.5 8,-8 0,-1.6 0.7,-3 1.6,-3.4 2.4,-0.9 125.2,-0.7 125.8,0.2 0.7,1.2 -20.9,25.8 -26.9,30.8 -7.9,6.5 -9.3,11.2 -4.9,16.3 6.5,7.7 24.2,7.9 32.5,0.4 2.2,-2 3.9,-4.1 3.9,-4.8 0,-0.7 1.4,-2.8 3.2,-4.6 9.6,-10.1 20.7,-23.3 24.9,-29.8 2.7,-4 6.5,-9.1 8.4,-11.2 3.7,-4.2 5,-7.6 4.1,-11.2 -1.2,-4.9 -25.3,-28.1 -36.5,-35.1 -2.4,-1.5 -7.9,-6.1 -12.2,-10.2 -11.5,-10.7 -19.6,-12.6 -31.6,-7.4 -4.5,2 -6.3,4.4 -6.3,8.7 0,2.2 1.8,4.6 8.7,11.3 4.9,4.7 12,10.6 15.8,13.2 8,5.3 11,8.2 10,9.7 -0.4,0.8 -20.6,1.1 -64.9,1.1 -60,0 -64.4,-0.1 -65.8,-1.8 -0.8,-0.9 -4.7,-7.6 -8.7,-14.7 -4.1,-7.2 -9.2,-16.2 -11.4,-20 -2.2,-3.9 -5.8,-10.2 -8,-14 -2.2,-3.9 -5.5,-9.5 -7.2,-12.5 -1.8,-3 -5.2,-8.9 -7.5,-13 -2.4,-4.1 -5.8,-10 -7.6,-13 -2.7,-4.7 -9.3,-16.2 -31.7,-55.5 -2.2,-3.9 -5.5,-9.7 -7.4,-13 -1.9,-3.3 -4.4,-7.6 -5.5,-9.5 -3.6,-6.1 -30.5,-53 -37.9,-66 -6.1,-10.9 -11.4,-20.2 -15.1,-26.5 -7.4,-12.6 -19.3,-33.3 -22.8,-39.5 -2,-3.6 -5.6,-9.9 -7.9,-14 -6,-10.2 -20.8,-36.1 -27,-47 -3.4,-6 -11.7,-14.2 -17.2,-17 -2.7,-1.4 -6.9,-2.5 -10.9,-2.8 -6,-0.4 -6.7,-0.2 -9.1,2.2zM469,80.7c4.6,8.2 9.5,16.8 11,19.3 1.5,2.5 4.6,7.9 7,12 10.3,17.9 12.5,21.8 15.6,27 2.8,4.9 29.1,50.9 39.7,69.5 2.2,3.8 5.7,9.9 7.8,13.5 3.9,6.7 7.7,13.4 14.6,25.5 3.4,6 12,21 32.9,57.5 2.3,4.1 5.5,9.5 6.9,12 7.9,13.5 15.4,26.6 22.2,38.5 2.2,3.8 6.5,11.3 9.5,16.5 8.7,15.1 12.8,22.7 12.8,23.9 0,0.7 -3.1,1.1 -8.5,1.1 -10.3,0 -10.7,-0.3 -18.2,-13.5 -2.8,-5 -10.8,-18.9 -17.8,-31 -7,-12.1 -19.7,-34.2 -28.3,-49 -8.5,-14.9 -20.5,-35.6 -26.5,-46 -6.1,-10.5 -15.3,-26.4 -20.5,-35.5 -11.1,-19.3 -21.8,-37.8 -31.4,-54.4 -4.8,-8.3 -7.5,-14.1 -8.8,-19.5 -2.7,-10.5 -5.9,-19.2 -7.8,-21.5 -3.3,-3.6 -8.9,-5.6 -16,-5.7 -10.4,-0.1 -17.1,3.4 -20.2,10.5 -0.9,2.2 -3.6,6.2 -5.9,8.8 -2.3,2.6 -5.3,7.3 -6.7,10.5 -1.4,3.2 -5,9.8 -7.9,14.8 -7,11.9 -38.9,66.5 -43,73.5 -1.8,3 -7,12 -11.7,20 -4.7,8 -11,18.8 -14,24 -3,5.2 -12.4,21.2 -20.8,35.5 -8.4,14.3 -17.8,30.3 -20.8,35.5 -16.5,28.6 -25.6,43.2 -27.8,44.7 -3.1,2 -14.1,2.8 -16.1,1.2 -2.1,-1.8 -1.6,-3.8 2.2,-8.9 1.9,-2.6 4.7,-7.6 6.3,-11.1 1.6,-3.5 7.7,-15 13.7,-25.4 5.9,-10.5 13.9,-24.6 17.8,-31.5 3.8,-6.9 8.9,-15.9 11.2,-20 7.1,-12.4 16.3,-28.9 35.2,-62.5 47.7,-84.7 55,-97.8 60.8,-108 3.4,-6.1 7,-12.5 7.9,-14.3 1,-1.8 6,-9.3 11.1,-16.5 5.2,-7.3 12.2,-18.3 15.6,-24.5 3.3,-6.1 6.7,-11.2 7.3,-11.2 0.7,0 5,6.6 9.6,14.7zM468.5,181c3.4,5.8 9.9,17 14.5,25 4.6,8 11.3,19.7 15,26 3.7,6.3 10.4,18 15,26 4.6,8 11.6,20.1 15.6,27 67.5,116.8 63.7,110.1 62.2,111.5 -1,1 -17.3,1.4 -71.8,1.9 -38.8,0.3 -97.5,0.9 -130.5,1.2 -52.7,0.6 -60.2,0.5 -61.3,-0.8 -1.2,-1.5 6.8,-15.8 51.3,-91.3 4.9,-8.3 10.3,-17.6 12.2,-20.8 1.8,-3.1 4.9,-8.4 6.8,-11.7 1.9,-3.3 5,-8.6 6.8,-11.8 11.5,-19.7 52.2,-89.1 53.4,-91 0.8,-1.3 2.2,-2.2 3.1,-2 0.9,0.2 4.4,5 7.7,10.8z" fill="#000"/>
</svg>
