<?xml version="1.0" ?>
<svg height="500.0" viewBox="0 0 960.0 500.0" width="960.0" xmlns="http://www.w3.org/2000/svg">
  <path d="M161.6,84c-1.6,0.8 -3.9,2.8 -5,4.3l-2.1,2.8 0,171.7 0,171.7 2.6,5.5c3.2,6.8 7,11.4 12.3,14.8l4.1,2.7 198.9,0.3c218,0.2 201.3,0.7 205.3,-5.5 1.7,-2.5 1.8,-8.5 2.3,-82.8l0.5,-80 30.5,-0.3c28.7,-0.3 52,0.5 77.5,2.9 13.7,1.2 15.5,1.6 15.5,3.3 0,2.3 -32.5,28.7 -40,32.6 -3.9,1.9 -13.9,12.6 -14.6,15.5 -1,4.2 0.2,11.8 2.7,16.1 6.7,11.7 15.3,15.4 23.3,9.9 2,-1.4 4,-2.5 4.3,-2.5 0.3,0 2.7,-1.9 5.3,-4.3 2.6,-2.3 8.9,-7.4 14,-11.2 5.1,-3.9 9.8,-7.5 10.4,-8 2,-1.9 24.8,-20.9 30.1,-25.1 6.3,-5.1 18.6,-18.5 20.2,-22.2 2,-4.5 1.6,-14.5 -0.9,-20.9 -2.6,-6.5 -6.9,-11 -41.9,-44 -22.4,-21.1 -24.3,-22.7 -37.4,-31.8 -11.1,-7.7 -15.1,-9.3 -19.3,-7.6 -10.3,4.3 -4.1,26.9 9.6,35.2 2,1.3 3.9,2.5 4.2,2.9 0.3,0.3 2.3,1.8 4.5,3.5 6.5,4.8 25.9,22.6 26.9,24.7 0.5,1 0.6,2.1 0.3,2.4 -0.3,0.4 -6.2,0.1 -12.9,-0.5 -26.7,-2.5 -42.7,-3.3 -74.8,-4 -23.6,-0.5 -34.2,-1 -35.7,-1.9l-2.2,-1.2 -0.3,-73.3 -0.3,-73.2 -2.9,-6.3c-3.7,-7.9 -12,-15.9 -17.4,-16.7 -2,-0.3 -91.7,-0.7 -199.2,-0.8 -172.1,-0.2 -195.9,0 -198.4,1.3zM551.8,117.2c0.9,0.9 1.2,36.3 1.2,152.9 0,136.6 -0.2,151.9 -1.6,153.3 -1.4,1.4 -19.5,1.6 -184.8,1.6 -141.1,0 -183.5,-0.3 -184.4,-1.2 -0.9,-0.9 -1.2,-36.2 -1.2,-152.9 0,-83.5 0.3,-152.4 0.6,-153.3 0.6,-1.5 17.8,-1.6 184.8,-1.6 141.9,0 184.5,0.3 185.4,1.2zM340.4,162.4c-5,2.2 -7.3,5.5 -10,14.6 -5.9,19.5 -9.9,29.9 -14.4,37.5 -2.6,4.4 -5.1,9.1 -5.5,10.5 -0.4,1.4 -2.2,5 -4,8 -1.8,3 -6.4,11.8 -10.3,19.5 -3.8,7.7 -8.9,17.7 -11.3,22.3 -7.1,13.8 -6.4,23.2 2.4,29 3.9,2.6 4.6,2.7 17.1,2.6 11.6,-0.1 14.4,-0.4 24.6,-3.3 6.3,-1.8 14.2,-4 17.5,-4.8 3.3,-0.8 9.8,-2.6 14.4,-3.9 4.5,-1.4 8.5,-2.3 8.8,-2.1 0.2,0.3 0,3.1 -0.6,6.3 -2.3,13.3 -4.6,38.7 -4.6,49.9 0,10.9 0.2,12.4 2.4,16.2 4.5,7.8 14.4,10.4 21,5.5 6,-4.5 6.6,-6.2 7.2,-23 0.7,-15.7 2.9,-37 4.8,-47.1 0.6,-2.9 1.1,-6.8 1.1,-8.5 0,-3.1 0.1,-3.2 6.6,-4.3 3.6,-0.6 7.6,-1.9 9,-2.8 6.2,-4 8.3,-13.8 4.4,-20.2 -2.5,-4.2 -8.7,-7.3 -14.4,-7.3l-4.5,0 0.2,-14.9c0.2,-16.6 -0.2,-18 -7.4,-22.9 -6.4,-4.5 -15.9,-1.7 -20.3,5.8 -1.6,2.7 -2.1,6.1 -2.7,18.7 -0.4,8.5 -0.9,15.7 -1.2,16 -0.6,0.5 -8.6,2.8 -23.7,6.9 -3,0.8 -9.9,2.7 -15.2,4.1 -5.4,1.5 -10,2.4 -10.3,2.1 -0.9,-0.9 5.2,-14.6 8.9,-20.2 1.1,-1.6 4.3,-7.4 7.1,-13 2.8,-5.5 6.6,-12.6 8.3,-15.6 5,-8.9 15.2,-41.1 15.2,-47.9 0,-5.1 -3.5,-10.8 -8,-13.1 -4.5,-2.3 -8.2,-2.5 -12.6,-0.6z" fill="#000"/>
</svg>
