<?xml version="1.0" ?>
<svg height="500.0" viewBox="0 0 960.0 500.0" width="960.0" xmlns="http://www.w3.org/2000/svg">
  <path d="M265.5,215c-211.4,0.5 -234.5,0.7 -239.3,2.1 -4.5,1.4 -10.9,5.9 -8.5,5.9 0.4,0 0.1,0.4 -0.6,0.9 -1,0.6 -1.6,3.2 -1.9,7.3 -0.3,5.8 -0.1,6.7 2.7,10.6 1.8,2.3 4.4,4.8 5.9,5.4 1.9,0.9 17,1.2 53.4,1.3 28,0 50.8,0.2 50.8,0.5 0,0.9 -20.1,20.4 -25.5,24.7 -6.5,5.3 -11.9,7.9 -17.8,8.8 -8,1.2 -13.2,-0.1 -19.1,-4.9 -2.9,-2.4 -7,-4.9 -9.1,-5.6 -4.9,-1.6 -17,-0.9 -21.2,1.4 -4.9,2.5 -6.2,5.2 -6.5,13.8l-0.3,7.7 6,6.1c9.3,9.5 17,12.7 37,15.1 9.5,1.2 10.7,1.1 23.3,-1.4 7.3,-1.5 16.1,-4 19.5,-5.6 9.2,-4.2 21.9,-14 33.7,-26.1 9.2,-9.4 11.6,-11.3 19.5,-15.1 8.1,-4 9.7,-4.4 16,-4.3 5.4,0.1 8.4,0.7 13.5,3 13.2,5.9 24.7,12.9 32,19.4 15.1,13.4 23.5,18.4 39.2,23 13,3.9 16.1,4.3 31.8,4.3 15,0.1 15.8,0 24.5,-3.1 9.2,-3.3 27.3,-12.1 31.2,-15.2 1.2,-0.9 7.5,-4.1 14,-7 6.5,-2.9 13.8,-6.2 16.3,-7.4 7,-3.2 13.4,-2.7 20.1,1.6 3,2 7.2,5.5 9.4,7.8 2.2,2.3 6.3,5.9 9.1,8 6.1,4.6 23.4,13 35.4,17.3 7.7,2.7 9.6,3 20.5,3 11,0 12.7,-0.3 20.5,-3.2 22.1,-8.3 36,-16.3 45.5,-26.1 9.2,-9.6 16.5,-12.3 25,-9.5 9.1,3.1 28.1,12.3 41.5,20 22.2,12.8 39.3,16.5 61.7,13.4 21.4,-2.9 37.6,-10.4 54.1,-24.7 9.2,-8 13.5,-10.9 23.5,-15.9 16.8,-8.4 20.6,-9.7 27,-9 5.8,0.6 14.8,4.3 21.1,8.7 2.3,1.5 8.9,7.5 14.6,13.2 8.9,8.8 24.6,21.8 26.4,21.8 0.3,0 2.9,1.1 5.8,2.5 11.2,5.2 31.2,8.3 43.1,6.5 19.4,-2.8 26.2,-5.6 35.7,-14.9l5.7,-5.6 0.6,-7.9c0.8,-9.5 0,-11.3 -6.7,-14.5 -5.2,-2.4 -15.1,-2.9 -20.7,-0.9 -1.9,0.6 -5.6,2.9 -8.2,5 -10.9,8.5 -23.5,7.5 -36.6,-3 -6.4,-5.1 -6.4,-5.1 -17.9,-16.5l-10.2,-10.2 54.7,-0.5 54.8,-0.5 4.2,-2.3c2.8,-1.6 4.9,-3.7 6.2,-6.6 2.2,-4.5 2.9,-13.6 1,-13.6 -0.5,0 -0.7,-0.5 -0.4,-1 0.3,-0.6 0.2,-1 -0.3,-1 -0.5,0 -1.2,-0.9 -1.5,-2 -0.3,-1.1 -1.3,-2.3 -2.4,-2.7 -1,-0.4 -2.4,-1.3 -3.2,-2 -1.4,-1.4 -124.9,-1.5 -679.6,-0.3zM371,248.7c-0.8,0.4 -5.7,2.6 -10.8,5 -5,2.3 -9.5,4.3 -9.9,4.3 -1,0 -18.4,8.9 -21.2,10.9 -4.1,2.9 -17,9.2 -22,10.7 -6.1,1.8 -8.4,1.8 -18.2,-0.7 -9.6,-2.4 -20.1,-8.7 -30.9,-18.6 -3.6,-3.3 -8.7,-7.4 -11.5,-9.1l-5,-3.2 65.5,0.1c36,0 64.8,0.3 64,0.6zM532.7,252.6c-4.3,2.5 -11.8,8.3 -16.6,12.8 -9.4,8.9 -17.9,13.8 -29.7,17 -6,1.6 -6,1.6 -14.8,-1.4 -11.6,-3.9 -17.9,-7.7 -25.1,-15 -6.2,-6.4 -12.3,-10.8 -21,-15.4l-5,-2.6 60,0 60,0 -7.8,4.6zM715.4,251.3c-2.8,1.8 -7.6,5.5 -10.5,8.1 -12.6,11.4 -23.2,17.7 -33.8,20 -9.1,2 -11.4,2 -17.1,0 -5.2,-1.8 -16.4,-7.4 -22.3,-11.1 -4.5,-2.9 -19,-10.3 -20.1,-10.3 -0.4,0 -4.3,-1.7 -8.9,-3.8 -4.5,-2.1 -9.3,-4.3 -10.7,-4.9 -1.9,-0.9 13.8,-1.2 63,-1.2l65.5,0 -5.1,3.2z" fill="#000"/>
</svg>
