<?xml version="1.0" ?>
<svg height="500.0" viewBox="0 0 960.0 500.0" width="960.0" xmlns="http://www.w3.org/2000/svg">
  <path d="M265.5,215c-211.4,0.5 -234.5,0.7 -239.3,2.1 -4.5,1.4 -10.9,5.9 -8.5,5.9 0.4,0 0.1,0.4 -0.6,0.9 -1,0.6 -1.6,3.2 -1.9,7.3 -0.3,5.8 -0.1,6.7 2.7,10.6 1.8,2.3 4.4,4.8 5.9,5.4 1.9,0.9 17,1.2 53.4,1.3 28,0 50.8,0.2 50.8,0.5 0,0.9 -20.1,20.4 -25.5,24.7 -6.5,5.3 -11.9,7.9 -17.8,8.8 -8,1.2 -13.2,-0.1 -19.1,-4.9 -2.9,-2.4 -7,-4.9 -9.1,-5.6 -4.9,-1.6 -17,-0.9 -21.2,1.4 -4.9,2.5 -6.2,5.2 -6.5,13.8l-0.3,7.7 6,6.1c3.3,3.4 7.8,7.1 10,8.3l4,2.2 -12,0.5c-15.5,0.6 -19.3,2.6 -23,11.5 -2.4,5.7 -1.3,11.6 3.2,16.6 4.5,5 9.8,6.6 16.8,5 3.7,-0.9 116.8,-1.1 452,-0.8 245.9,0.2 448.8,0.7 451,1.1 3.2,0.6 4.9,0.2 8.5,-1.6 9.6,-4.9 12,-17.8 4.7,-25.6 -4.6,-4.9 -7.3,-5.7 -23.2,-6.2l-15,-0.5 4.2,-2.3c2.4,-1.2 6.9,-4.8 10.1,-8l5.9,-5.7 0.6,-7.9c0.8,-9.5 0,-11.3 -6.7,-14.5 -5.2,-2.4 -15.1,-2.9 -20.7,-0.9 -1.9,0.6 -5.6,2.9 -8.2,5 -10.9,8.5 -23.5,7.5 -36.6,-3 -6.4,-5.1 -6.4,-5.1 -17.9,-16.5l-10.2,-10.2 54.7,-0.5 54.8,-0.5 4.2,-2.3c2.8,-1.6 4.9,-3.7 6.2,-6.6 2.2,-4.5 2.9,-13.6 1,-13.6 -0.5,0 -0.7,-0.5 -0.4,-1 0.3,-0.6 0.2,-1 -0.3,-1 -0.5,0 -1.2,-0.9 -1.5,-2 -0.3,-1.1 -1.3,-2.3 -2.4,-2.7 -1,-0.4 -2.4,-1.3 -3.2,-2 -1.4,-1.4 -124.9,-1.5 -679.6,-0.3zM371,248.7c-0.8,0.4 -5.7,2.6 -10.8,5 -5,2.3 -9.5,4.3 -9.9,4.3 -1,0 -18.4,8.9 -21.2,10.9 -4.1,2.9 -17,9.2 -22,10.7 -6.1,1.8 -8.4,1.8 -18.2,-0.7 -9.6,-2.4 -20.1,-8.7 -30.9,-18.6 -3.6,-3.3 -8.7,-7.4 -11.5,-9.1l-5,-3.2 65.5,0.1c36,0 64.8,0.3 64,0.6zM532.7,252.6c-4.3,2.5 -11.8,8.3 -16.6,12.8 -9.4,8.9 -17.9,13.8 -29.7,17 -6,1.6 -6,1.6 -14.8,-1.4 -11.6,-3.9 -17.9,-7.7 -25.1,-15 -6.2,-6.4 -12.3,-10.8 -21,-15.4l-5,-2.6 60,0 60,0 -7.8,4.6zM715.4,251.3c-2.8,1.8 -7.6,5.5 -10.5,8.1 -12.6,11.4 -23.2,17.7 -33.8,20 -9.1,2 -11.4,2 -17.1,0 -5.2,-1.8 -16.4,-7.4 -22.3,-11.1 -4.5,-2.9 -19,-10.3 -20.1,-10.3 -0.4,0 -4.3,-1.7 -8.9,-3.8 -4.5,-2.1 -9.3,-4.3 -10.7,-4.9 -1.9,-0.9 13.8,-1.2 63,-1.2l65.5,0 -5.1,3.2zM197,266.7c13.3,5.8 24.6,12.7 33.5,20.6 5,4.4 10.9,9.2 13.1,10.8 5.6,3.8 18.6,9.4 25.7,11 3.1,0.8 5.7,1.7 5.7,2.1 0,0.5 -37.1,0.8 -82.5,0.8 -54.3,0 -82.5,-0.3 -82.5,-1 0,-0.6 0.7,-1 1.5,-1 5.2,0 22.8,-13 36.5,-26.9 10.5,-10.7 15.8,-14.3 26.3,-18.2 6.8,-2.5 14.1,-1.9 22.7,1.8zM790.4,266.5c8.7,3.9 13,7.2 24.6,18.7 11.5,11.4 23,20.3 30,23.3 2.5,1 4.9,2.2 5.5,2.7 0.5,0.4 -36.6,0.8 -82.4,0.8 -45.8,0 -83,-0.4 -82.7,-0.8 0.3,-0.5 3.1,-1.4 6.3,-2.1 11,-2.4 24.7,-10.1 37,-20.8 11.1,-9.7 23.5,-17.1 38.8,-23.3 6.6,-2.7 14.9,-2.1 22.9,1.5zM406.5,282.5c2.8,1.8 6.8,5.2 9,7.5 6.1,6.5 13.3,11.4 23.9,16.5 5.3,2.5 9.6,4.8 9.6,5 0,0.3 -28.7,0.5 -63.7,0.5 -36.7,0 -63.3,-0.4 -62.7,-0.9 0.5,-0.5 2.7,-1.4 4.9,-2.1 4.8,-1.5 25.1,-11.5 28.2,-14 1.9,-1.5 9,-4.8 29.8,-14.1 2.2,-1 4.9,-2 6,-2.2 3.9,-1 10.1,0.6 15,3.8zM571.7,279.6c9.5,3.2 24.4,10.5 43.5,21.1 5.9,3.2 13.4,6.8 16.7,7.9 3.4,1 6.1,2.2 6.1,2.6 0,0.5 -28.6,0.8 -63.5,0.8 -34.9,0 -63.5,-0.2 -63.5,-0.6 0,-0.3 1.7,-1.2 3.8,-2 11.9,-4.9 24.5,-12.8 30.6,-19.4 5.2,-5.5 9.8,-9 14.3,-10.6 5,-1.7 6.3,-1.7 12,0.2z" fill="#000"/>
</svg>
