<?xml version="1.0" ?>
<svg height="500.0" viewBox="0 0 960.0 500.0" width="960.0" xmlns="http://www.w3.org/2000/svg">
  <path d="M684.2,130.5c-2.9,3.7 -2.8,9.6 0.2,16 2.9,6.1 6.1,9.2 19.6,18.9 5.8,4.1 11.9,8.4 13.5,9.6 17.9,12.8 56.8,40.6 59.5,42.6 13.4,9.4 20.5,15.1 20.8,16.5 0.3,1.5 -12.7,1.7 -159.5,2.3 -87.9,0.3 -173.3,0.8 -189.8,1.1 -16.5,0.3 -108.5,0.7 -204.5,1.1 -96,0.3 -177.2,0.7 -180.5,0.9 -3.3,0.2 -10.6,0.4 -16.3,0.5 -8.8,0 -10.5,0.3 -12.2,2 -5.4,5.4 0.5,22.1 9.3,26.7 3.2,1.6 3.8,1.6 305.2,-0.2 45.1,-0.3 130.8,-0.7 190.5,-1 59.7,-0.3 145.9,-0.8 191.6,-1.1 79.1,-0.6 83.1,-0.5 83.8,1.2 0.8,2.1 1.8,1.2 -12.4,11.1 -6.3,4.4 -14,9.7 -17,11.8 -3,2.1 -17.4,12.2 -32,22.4 -14.6,10.2 -36.4,25.5 -48.5,33.9 -12.1,8.5 -23.5,16.1 -25.2,16.8 -3.7,1.6 -6.3,5.9 -6.3,10.2 0,7.5 5.7,17 12.3,20.3 4.7,2.5 8,1.9 12.2,-2 1.7,-1.6 9.3,-7.2 17,-12.6 7.7,-5.4 18.3,-12.8 23.5,-16.5 9.1,-6.5 52.6,-36.8 66,-46.1 38.6,-26.9 54.7,-38.3 55.8,-39.7 2.2,-2.8 1.3,-8.4 -3,-19.1 -3.7,-9.2 -5,-11.3 -10.8,-17 -9.5,-9.5 -14.7,-13.6 -43,-33.6 -2.5,-1.8 -20.7,-14.8 -40.5,-29 -69.1,-49.5 -69.3,-49.7 -73.4,-50.2 -3.2,-0.4 -4.1,-0.1 -5.9,2.2z" fill="#000"/>
</svg>
