<?xml version="1.0" ?>
<svg height="500.0" viewBox="0 0 960.0 500.0" width="960.0" xmlns="http://www.w3.org/2000/svg">
  <path d="M353.4,35.4c-28.3,6.5 -54.3,32.9 -69.5,70.5 -2.1,5.3 -4.2,9.7 -4.7,9.9 -1.4,0.4 -3.7,-2.1 -7.8,-9 -17.2,-28.7 -41.2,-49.1 -64.9,-55.3 -8,-2.1 -22.8,-2 -31.3,0.1 -7.2,1.8 -18.2,6.9 -24.7,11.5 -17.2,12.1 -34.7,36.6 -44,61.6 -1.4,3.8 -4.4,9.8 -6.6,13.5 -7.6,12.9 -8.3,15.2 -8.2,26.8 0.3,23.1 8.6,51.3 24.8,84.5 19.5,39.9 48.5,79.8 81.3,111.7 20.6,20 36.4,32.1 57.4,44 4.3,2.3 11,6.3 15,8.8l7.3,4.5 10.5,-0.1c24.9,-0.4 48.3,-11.7 79.2,-38.2 10.6,-9.2 17.2,-13.5 18.2,-12 0.2,0.2 1,2.3 1.9,4.8 4,10.4 13.9,20 20.7,20 4.2,0 7.5,-2.9 11,-10 5.1,-10.1 21.7,-28.6 30.4,-33.9 7.1,-4.2 25.5,-9.1 35.1,-9.3 8.6,-0.1 13.7,1.4 19.7,5.7 6.1,4.5 9.3,9.3 16.5,25.2 16.5,36.1 37.7,52 64.5,48.4 21.5,-2.9 32.9,-14 61.2,-59.3 10.9,-17.4 15.1,-22.2 23.5,-26.6 9.3,-4.9 14.8,-6.4 24.1,-6.3 14.8,0 19,2.5 33.4,19.6 10.6,12.6 13.9,17.3 26.1,37.5 10.1,16.6 15.2,23.1 24.3,30.6 17,14 37.1,16.8 55.3,7.7 8.9,-4.5 24,-18.5 25.6,-23.8 1.1,-3.5 1.1,-4.5 -0.3,-10.9 -2.2,-10.3 -14.4,-23.6 -21.6,-23.6 -3.3,0 -4.5,0.9 -11.5,7.9 -11.8,11.9 -19.6,14.9 -30.4,11.8 -7.9,-2.3 -13.9,-9.2 -23.9,-27.2 -6.1,-11 -14.7,-23.1 -25.8,-36.1 -18.2,-21.6 -27,-28.7 -41.2,-33.6 -5.5,-1.9 -8.5,-2.3 -19.5,-2.3 -19.5,0.1 -32.7,4.5 -46,15.2 -7.2,5.9 -11.6,11.5 -19.7,25.2 -9.3,15.8 -20.9,32.9 -27.3,39.9 -7.7,8.5 -12.9,11.4 -21.4,12 -12.5,0.9 -15.7,-2.4 -27.4,-27.8 -8.9,-19.4 -20.1,-32.9 -35.5,-42.8 -10.5,-6.8 -17.7,-8.7 -31.7,-8.6 -11.6,0.1 -18.4,1.4 -37.4,7 -2.3,0.7 -2.4,0.5 -1.8,-2.9 0.3,-1.9 3.3,-8.2 6.8,-13.9 11.2,-18.6 26.4,-50.9 29.2,-61.8 0.3,-1.4 2.3,-5.2 4.2,-8.5 4.7,-7.7 5.2,-12.6 3,-28.5 -9.3,-68.4 -37.5,-121.6 -76.5,-144.6 -15.1,-8.9 -34.5,-12.4 -49.6,-9zM385.9,77.5c24.7,5.9 44.4,31.8 54.9,72.6 6,22.9 6.1,33.1 0.7,38.9 -1.3,1.4 -4.4,7.9 -7,14.5 -19.5,49.6 -56.6,101.5 -98.1,137.1 -14.4,12.4 -26,19.7 -39.6,24.9 -12.4,4.8 -15,5.1 -23.9,2.6 -4.2,-1.2 -9,-2.1 -10.8,-2.1 -9.5,0 -34.2,-18 -57.7,-42.1 -33,-33.9 -60.9,-77.5 -73.4,-114.6 -5.2,-15.5 -5.2,-19.4 0.1,-37 5.1,-17.1 7.5,-23.6 12.9,-34.3 14.2,-28.2 35.9,-46 56.3,-46 23.7,0 45.2,20 58,54 3.3,8.6 6.4,14 12.2,20.6 5.5,6.5 10.6,10 15.5,10.9 2.8,0.5 4.9,-0.1 10,-2.7 7.3,-3.7 7.7,-4.4 12.5,-22.1 11,-40.8 35.6,-71.4 60.8,-75.6 7.6,-1.3 9.5,-1.2 16.6,0.4z" fill="#000"/>
</svg>
