<?xml version="1.0" ?>
<svg height="500.0" viewBox="0 0 960.0 500.0" width="960.0" xmlns="http://www.w3.org/2000/svg">
  <path d="M362,69.7c-43.4,4.7 -106.1,58.3 -150.3,128.3 -7.8,12.5 -24.4,44.9 -26.7,52.5 -0.7,2.2 -3,7.1 -5.1,10.8 -7.1,12.5 -7.1,13.8 -1.8,46.7 8.1,50.2 30.6,94.6 59.9,118.1 28.2,22.7 59.4,24.9 88,6.3 7.3,-4.8 19.2,-16.1 25,-23.8 6.6,-8.7 15.5,-24.1 19.5,-33.6 3.5,-8.5 3.9,-9 5.7,-7.8 1.1,0.8 4.5,5.4 7.5,10.3 6.8,11.1 11.9,17.9 20.1,26.7 20.2,21.4 45.5,32.2 68,28.8 21.7,-3.3 38.1,-13.8 57.4,-37 7.2,-8.6 32.6,-29.1 42.9,-34.5 12.7,-6.7 29.1,-8.8 39.8,-5.1 6.4,2.2 13.4,8.2 16.3,14.1 7.6,14.9 20.1,33.7 29.7,44.4 14.2,15.8 26.5,22.1 42.7,22.1 15.1,0 22.4,-2.6 40.3,-14.4 8.6,-5.6 29.1,-23.7 39,-34.4 5.2,-5.7 10.1,-16.7 10.1,-22.7 0,-6.8 -3.7,-14.3 -10.3,-20.9 -8.9,-9 -16.1,-9.6 -20.9,-1.7 -4.3,7.1 -16.6,21.7 -24.9,29.6 -16.2,15.5 -30.9,23.4 -43.7,23.5 -10.1,0 -21.3,-11.4 -33.7,-34.5 -7.6,-13.9 -16.1,-26 -22.3,-31.5 -11.1,-9.8 -29.4,-16.9 -43.2,-17 -5.3,0 -22.2,2.4 -25.3,3.5 -1.2,0.5 -1.6,-0.7 -2.2,-6.7 -1.5,-14.5 -8.6,-39.2 -16.8,-58.3 -27.7,-64.4 -84.6,-134.2 -132.7,-162.6 -5.8,-3.4 -14.2,-8.7 -18.8,-11.7 -4.6,-2.9 -9.9,-6 -11.7,-6.8 -3.2,-1.3 -12.9,-1.6 -21.5,-0.7zM387,119c4.1,1.1 8.7,2 10.2,2 7.4,0 28.3,14.7 47.7,33.5 27.9,27.1 51.3,59 67.6,92 10.8,21.8 15.6,35.8 16.2,47 0.4,8.7 0.3,9.4 -4.6,24.3 -8.8,26.3 -17.6,41.9 -32,56.3 -13.6,13.6 -24.7,18.5 -40.1,17.7 -7.3,-0.3 -9.7,-0.9 -16.2,-4 -16.1,-7.6 -32.3,-28.1 -39.3,-49.8 -2.6,-8 -7.1,-15.4 -13.3,-22.2 -8.6,-9.2 -14.7,-11.4 -21.7,-7.8 -2.1,1.1 -4.4,2 -5,2 -2.7,0 -5.5,5.2 -8.4,15.4 -8,27.6 -22.8,53.1 -37.9,65.2 -7.6,6.1 -18.5,11.3 -26.7,12.6 -21.3,3.5 -44.1,-11.8 -57.8,-38.9 -9.8,-19.3 -18.1,-52.4 -16.3,-64.5 0.5,-3.2 1.8,-6 4,-8.6 1.7,-2.2 5,-8.1 7.1,-13.3 22.3,-53.5 71.5,-114.7 115.5,-143.5 12.3,-8.1 15.8,-9.8 27.6,-13.9 11.5,-4 13.3,-4.1 23.4,-1.5z" fill="#000"/>
</svg>
