<?xml version="1.0" encoding="UTF-8" standalone="no"?><!-- Generator: Gravit.io --><svg xmlns="http://www.w3.org/2000/svg" style="isolation:isolate" viewBox="0 0 960 500" width="960pt" height="500pt"><defs><clipPath id="_clipPath_r6AP6ZuJhqFIzSYsy5RE6rBzIswMG563"><rect width="960" height="500"/></clipPath></defs><g clip-path="url(#_clipPath_r6AP6ZuJhqFIzSYsy5RE6rBzIswMG563)"><path d=" M 448.053 21.77 C 442.535 22.527 435.72 24.15 432.799 25.448 C 429.662 26.746 425.118 27.72 421.981 27.72 C 412.244 27.72 386.172 37.673 366.591 48.924 C 328.835 70.56 297.678 103.556 278.638 141.961 C 271.173 157.107 268.252 164.788 263.6 180.799 C 252.025 220.827 252.133 267.454 263.925 307.698 C 269.983 328.253 280.801 353.135 289.673 366.874 C 291.944 370.444 295.082 375.312 296.596 377.692 C 306.008 392.622 330.566 419.127 346.685 431.568 C 362.372 443.576 377.625 453.096 390.932 458.83 C 398.288 462.075 404.779 464.78 405.104 464.78 C 405.537 464.78 407.376 465.429 409.215 466.294 C 421.548 471.812 448.161 477.545 468.716 479.168 C 523.132 483.387 578.089 466.403 620.93 432.217 C 669.828 393.271 699.687 336.583 704.339 273.404 C 705.529 257.176 705.204 251.226 702.608 241.057 C 701.526 237.054 701.201 232.619 701.634 227.967 C 702.716 216.824 695.792 187.182 687.679 167.817 C 683.135 157.107 671.018 134.064 664.96 124.76 C 636.616 81.595 593.235 47.95 544.66 31.506 C 515.126 21.553 477.587 17.767 448.053 21.77 L 448.053 21.77 Z  M 520.644 60.283 C 549.096 65.584 574.411 76.186 597.129 92.089 C 604.486 97.281 621.903 112.211 626.447 117.187 C 649.923 143.259 665.934 175.065 671.776 206.979 C 672.425 210.657 673.723 215.526 674.588 217.581 C 678.158 226.128 674.264 272.863 668.097 294.932 C 656.089 338.53 630.558 376.178 594.966 403.007 C 566.73 424.211 530.164 438.6 495.978 441.953 C 480.508 443.36 482.022 454.07 482.78 352.81 C 483.104 305.21 482.996 264.316 482.563 261.936 C 482.13 259.556 482.13 255.662 482.563 253.282 C 482.996 250.902 483.645 206.547 484.078 154.835 C 484.727 69.262 484.943 60.499 486.566 58.66 C 488.189 56.929 489.487 56.713 498.466 57.362 C 504.092 57.686 514.044 58.985 520.644 60.283 Z  M 446.322 61.906 C 448.053 64.394 448.053 69.803 447.404 128.655 C 446.971 163.922 446.755 206.114 446.863 222.449 C 447.187 261.071 447.187 250.469 446.214 350.106 C 445.673 404.414 445.024 437.734 444.266 438.491 C 442.86 440.439 439.29 440.222 429.121 437.734 C 408.782 432.649 399.37 428.755 375.895 416.097 C 360.641 407.875 343.548 393.703 328.078 376.502 C 319.423 366.874 309.037 350.863 303.412 338.53 C 301.248 333.878 299.084 329.118 298.544 327.928 C 284.588 297.312 280.801 247.44 289.889 211.415 C 302.546 161.218 332.189 118.594 374.38 90.25 C 385.739 82.569 409.864 70.885 422.521 66.882 C 428.472 64.935 435.287 62.446 437.559 61.256 C 443.076 58.444 444.158 58.552 446.322 61.906 L 446.322 61.906 Z " fill="rgb(0,0,0)"/></g></svg>