<?xml version="1.0" encoding="UTF-8" standalone="no"?><!-- Generator: Gravit.io --><svg xmlns="http://www.w3.org/2000/svg" xmlns:xlink="http://www.w3.org/1999/xlink" style="isolation:isolate" viewBox="0 0 960 500" width="960pt" height="500pt"><defs><clipPath id="_clipPath_fZlys5rZ9QHHzcWlFSivi6XSGxFVFnSM"><rect width="960" height="500"/></clipPath></defs><g clip-path="url(#_clipPath_fZlys5rZ9QHHzcWlFSivi6XSGxFVFnSM)"><path d=" M 452.259 21.023 C 446.075 21.837 437.612 23.627 433.706 25.092 C 429.8 26.394 424.43 27.533 421.826 27.533 C 414.177 27.533 393.508 35.182 374.793 44.784 C 250.13 109.556 216.604 271.487 303.51 387.687 C 315.228 403.148 340.128 427.56 356.565 439.115 C 379.675 455.552 408.643 468.409 438.426 475.407 C 458.932 480.126 498.153 481.266 519.961 477.685 C 589.453 466.13 650.157 421.375 682.218 357.905 C 697.678 327.309 706.304 289.715 704.839 259.282 C 702.073 202.809 696.865 181.327 676.684 143.733 C 642.833 80.262 581.479 35.019 513.939 23.627 C 495.061 20.535 466.581 19.233 452.259 21.023 L 452.259 21.023 Z  M 510.847 58.617 C 564.065 65.941 609.633 92.468 640.718 133.968 C 662.037 162.448 676.033 203.46 676.033 237.636 C 676.033 313.638 639.579 378.736 576.271 415.842 C 500.594 460.434 404.249 450.019 341.755 390.454 C 325.155 374.668 315.228 361.485 305.3 341.956 C 289.514 311.197 284.469 285.972 285.934 246.099 C 287.073 214.201 292.281 195.486 308.393 164.239 C 322.063 137.711 341.593 114.764 366.167 96.211 C 378.21 87.097 410.759 70.335 425.406 65.778 C 430.289 64.15 436.31 61.872 438.751 60.733 C 442.494 58.78 443.471 58.78 445.749 61.221 C 448.353 63.662 448.516 71.962 447.865 158.217 L 447.865 231 C 398.132 233.4 301.369 228.397 280 231 C 274.772 236.261 276.238 251.782 280 255.538 C 303.154 260.109 328.322 252.004 385 255.538 L 451.12 255.538 C 458.769 261.723 470.25 259.5 483.264 255.538 C 572.625 255.75 569.25 252 676.684 255.538 C 692.848 251.397 700.924 239.065 682.218 231 C 643.283 226.486 567.818 232.092 483.264 231 C 483.697 216.132 484.075 188.455 484.483 156.427 C 485.296 91.492 486.273 60.407 487.575 58.943 C 489.69 56.339 494.573 56.339 510.847 58.617 L 510.847 58.617 Z " fill="rgb(0,0,0)"/></g></svg>