<?xml version="1.0" encoding="UTF-8" standalone="no"?><!-- Generator: Gravit.io --><svg xmlns="http://www.w3.org/2000/svg" style="isolation:isolate" viewBox="0 0 960 500" width="960pt" height="500pt"><defs><clipPath id="_clipPath_spofd8Dye352iBW4ShMoKEMUQ5W4wQcm"><rect width="960" height="500"/></clipPath></defs><g clip-path="url(#_clipPath_spofd8Dye352iBW4ShMoKEMUQ5W4wQcm)"><path d=" M 447.914 21.924 C 442.401 22.68 435.59 24.302 432.671 25.599 C 429.536 26.897 424.996 27.869 421.861 27.869 C 412.131 27.869 386.078 37.815 366.511 49.058 C 328.782 70.679 297.648 103.651 278.621 142.029 C 271.162 157.163 268.243 164.839 263.595 180.838 C 252.027 220.837 252.135 267.431 263.919 307.646 C 269.973 328.186 280.783 353.05 289.648 366.78 C 291.918 370.347 295.053 375.212 296.567 377.59 C 305.972 392.509 330.512 418.994 346.619 431.426 C 362.295 443.426 377.538 452.939 390.834 458.669 C 398.186 461.912 404.672 464.615 404.996 464.615 C 405.429 464.615 407.266 465.263 409.104 466.128 C 419.807 470.885 445.428 476.831 463.265 478.56 C 585.424 490.668 692.772 400.184 704.015 275.755 C 705.529 258.134 705.421 254.242 702.826 243.539 C 701.313 237.161 700.88 232.837 701.313 227.756 C 702.394 216.837 695.475 187.109 687.367 167.866 C 682.827 157.163 670.719 134.137 664.665 124.84 C 636.342 81.706 592.991 48.085 544.452 31.653 C 514.939 21.707 477.427 17.924 447.914 21.924 L 447.914 21.924 Z  M 522.831 60.733 C 539.263 63.977 556.344 69.706 570.289 76.625 C 582.505 82.679 582.397 82.571 593.64 89.922 C 626.072 111.111 652.557 145.38 664.773 181.919 C 667.692 190.46 671.476 205.054 671.476 207.54 C 671.476 208.621 672.449 212.405 673.746 215.973 C 676.124 222.999 676.34 226.999 675.043 239.756 L 674.178 247.864 L 581.532 247.864 C 530.615 247.864 488.562 247.431 488.021 246.999 C 487.589 246.458 487.048 204.189 486.832 153.055 C 486.616 78.895 486.832 59.761 487.913 58.463 C 489.751 56.193 505.318 57.166 522.831 60.733 L 522.831 60.733 Z  M 447.914 61.815 C 449.644 64.193 449.752 70.679 449.86 140.948 C 449.968 183.109 449.752 218.351 449.319 219.324 C 448.995 220.405 449.103 221.486 449.752 221.918 C 451.59 222.999 451.265 244.621 449.428 246.134 C 448.346 247.107 426.725 247.323 367.159 247.215 C 294.945 247.107 286.405 246.891 285.864 245.377 C 284.783 242.783 287.378 221.486 289.864 211.432 C 302.512 161.271 332.133 118.678 374.294 90.354 C 385.645 82.679 409.753 71.003 422.401 67.004 C 428.347 65.058 435.158 62.571 437.428 61.382 C 442.941 58.571 445.644 58.679 447.914 61.815 Z  M 448.563 271.755 L 450.941 272.404 L 450.941 356.077 L 450.941 439.751 L 448.238 440.399 C 440.13 442.453 399.807 430.021 384.997 420.94 C 381.754 418.994 376.348 415.967 373.105 414.346 C 358.403 406.995 335.376 386.347 321.107 367.752 C 314.188 358.672 307.81 348.185 303.377 338.456 C 301.215 333.807 299.053 329.051 298.513 327.862 C 292.567 314.781 285.54 285.592 285.54 273.701 L 285.54 271.106 L 365.862 271.106 C 409.969 271.106 447.157 271.431 448.563 271.755 L 448.563 271.755 Z  M 671.151 272.728 C 672.773 273.268 672.124 278.025 668.665 291.646 C 655.152 343.861 622.072 388.076 576.559 414.994 C 553.425 428.724 522.723 439.102 498.94 441.372 C 486.508 442.561 487.697 451.534 487.697 355.428 C 487.697 278.674 487.805 272.295 489.535 271.971 C 492.129 271.539 669.638 272.187 671.151 272.728 Z " fill="rgb(0,0,0)"/></g></svg>