<?xml version="1.0" ?>
<svg height="500.0" viewBox="0 0 960.0 500.0" width="960.0" xmlns="http://www.w3.org/2000/svg">
  <path d="M57.4,45.2c-1.2,0.6 -2.7,2.1 -3.3,3.5 -0.8,1.8 -1.6,55.6 -2.7,190.3l-1.5,187.9 2.2,5c1.2,2.8 4.1,6.9 6.5,9.1 3.6,3.3 5.1,4 8.4,4 3.4,0 4.3,-0.5 5.9,-3 1.7,-2.8 1.8,-7.9 2.5,-79.3 0.6,-61.8 1,-76.5 2.1,-77.6 1.4,-1.4 41.5,-2 229.5,-3.5 39.9,-0.4 86,-0.8 102.5,-1.1 16.5,-0.3 68.7,-0.7 116,-1 47.3,-0.3 94.8,-0.7 105.5,-1 10.7,-0.3 53.9,-0.7 96,-1 42.1,-0.3 86.6,-0.8 99,-1.1 26.8,-0.7 26.4,-0.5 25.8,-10 -0.5,-7.3 -4.3,-14.5 -9.8,-18.2l-3.5,-2.4 -64,0.6c-35.2,0.3 -80.6,0.8 -101,1.1 -20.3,0.3 -66.2,0.7 -102,1 -35.7,0.3 -81.6,0.7 -102,1 -20.3,0.3 -72.3,0.7 -115.5,1 -43.2,0.3 -90.4,0.7 -105,1 -14.6,0.3 -59,0.8 -98.6,1.1 -70,0.6 -72.2,0.6 -73.2,-1.2 -0.7,-1.3 -0.7,-32.9 -0.2,-93.9 0.6,-71 0.5,-93.1 -0.5,-96.7 -2.6,-10.1 -12.8,-18.4 -19.1,-15.6z" fill="#000"/>
</svg>
