<?xml version="1.0" ?>
<svg height="500.0" viewBox="0 0 960.0 500.0" width="960.0" xmlns="http://www.w3.org/2000/svg">
  <path d="M198.2,37.8c-1.2,1.2 -2.3,3.6 -2.6,5.4 -0.7,4.1 -1.6,106.5 -1.5,162.3 0.1,39.4 0,42.2 -1.8,44.3l-1.8,2.2 -56.1,0.7c-54.6,0.6 -56.2,0.6 -57.2,-1.3 -0.7,-1.3 -0.7,-31.9 -0.2,-93.8 0.4,-55.5 0.4,-93.4 -0.2,-95.9 -1.7,-7.7 -6.9,-13.9 -13.4,-16.2 -4.5,-1.5 -7.6,-0.5 -9.3,3.2 -0.8,1.8 -1.6,56 -2.7,190.3l-1.5,187.9 2.2,5c1.2,2.8 4.1,6.9 6.5,9.1 3.6,3.3 5.1,4 8.4,4 3.4,0 4.3,-0.5 5.9,-3 1.7,-2.8 1.8,-7.9 2.5,-79.3 0.6,-63.6 1,-76.4 2.1,-77.6 2.1,-2.1 111.6,-3.1 114.1,-1.1 1.4,1.2 1.5,8.5 0.8,74.4l-0.7,73.1 2.2,5c2.7,6.2 8.3,12.1 12.9,13.6 2.9,1 3.8,0.9 6,-0.8 1.4,-1.1 2.9,-3.1 3.3,-4.6 0.4,-1.5 1,-37.4 1.4,-79.9 0.4,-50 1,-78.3 1.7,-80.1l1,-2.7 39.2,-0.1c21.5,0 41.8,-0.2 45.1,-0.4 3.3,-0.2 44.5,-0.6 91.5,-0.9 80.7,-0.6 120.5,-0.9 228,-2.1 25,-0.3 74.3,-0.7 109.5,-1 35.2,-0.3 75.5,-0.8 89.5,-1.1 30.2,-0.6 29.4,-0.4 28.8,-10 -0.5,-7.3 -4.3,-14.5 -9.8,-18.2l-3.5,-2.4 -64,0.6c-35.2,0.3 -80.6,0.8 -101,1.1 -20.3,0.3 -66,0.7 -101.5,1 -35.5,0.3 -81.6,0.7 -102.5,1 -20.9,0.3 -72.9,0.7 -115.5,1 -42.6,0.3 -89.9,0.8 -105,1.1 -24.2,0.5 -27.7,0.4 -28.9,-0.9 -1,-1.3 -1.1,-20.2 -0.6,-98.2 0.5,-74.4 0.4,-97.4 -0.6,-100.3 -3.8,-11.8 -15.3,-19.8 -20.7,-14.4z" fill="#000"/>
</svg>
