<?xml version="1.0" ?>
<svg height="500.0" viewBox="0 0 960.0 500.0" width="960.0" xmlns="http://www.w3.org/2000/svg">
  <path d="M424.7,11.4c-5.1,1.9 -6.7,3.4 -6.7,6.5 0,2.7 2.5,15.7 3.6,18.5 0.8,2.1 -1.9,5.2 -5.3,6.1 -4.7,1.1 -21.1,9.4 -25.7,13 -3,2.2 -5.2,3.3 -6,2.8 -0.7,-0.5 -5.6,-4.8 -10.9,-9.6 -11.6,-10.8 -12.4,-11.4 -17,-12.2 -7.3,-1.4 -16.7,3.3 -16.7,8.3 0,0.8 3.9,5.1 8.8,9.6 12.7,11.8 21,20.4 21.7,22.7 0.4,1 -0.9,6.4 -2.8,12.1 -1.9,5.7 -3.8,12.4 -4.2,15.1 -1,6.2 -3.3,8 -13.7,10.1 -23.2,4.7 -24.4,5.1 -26.6,9.3 -2.5,4.6 2.6,9.3 11.8,10.8 1.9,0.3 8.2,-0.3 14,-1.5 13.7,-2.6 15,-2.6 15,0.3 0,2.8 -2.7,5.4 -9.5,9.2 -66.3,36.9 -112.9,118.7 -121.5,213.5 -1.6,18.2 -1.3,50.9 0.5,54.4 1.5,2.8 1.4,3 -2.5,7.2 -6.3,6.9 -5.4,11.6 3.3,16.2l5.2,2.7 195,0c223.7,0 202.5,0.9 211.4,-9.3 6.8,-7.9 7.3,-9.7 6.1,-19.6 -0.5,-4.4 -0.8,-11.9 -0.6,-16.6 1.2,-30.2 -5.2,-74.3 -15.5,-106.6 -16.1,-50.4 -40.5,-88.3 -78.9,-122.9l-6.5,-5.8 3.5,-0.9c6.4,-1.7 10,-3.8 11.2,-6.3 1.9,-4.1 -1,-6.8 -13.7,-12.9 -6.3,-3 -12.8,-6.4 -14.5,-7.6 -2.9,-2.1 -3,-2.3 -3,-10.8 0,-4.8 -0.5,-10.7 -1.1,-13.1 -0.8,-3.4 -0.7,-4.7 0.3,-5.8 0.8,-0.7 6.7,-2 13.3,-2.9 20.9,-2.8 24.9,-4.6 24.3,-10.7 -0.2,-2.7 -1.1,-3.6 -4.8,-5.5 -5.3,-2.7 -10.1,-2.7 -26,-0.4 -6.3,0.9 -12.4,1.6 -13.5,1.4 -1.2,-0.2 -3.5,-2.6 -5.5,-5.9 -1.9,-3.1 -6.5,-8.7 -10.2,-12.5 -3.8,-3.9 -6.8,-7.4 -6.8,-7.9 0,-1.4 8.8,-14.5 14.2,-21.1 6.7,-8.4 -9.3,-15.6 -21.2,-9.6 -3.8,2 -5.1,3.5 -8.8,10.5 -5,9.5 -5,9.5 -16.7,6.3 -3.8,-1.1 -10.3,-2.3 -14.4,-2.6 -5,-0.5 -8,-1.3 -9.1,-2.4 -1,-1 -2.5,-5.3 -3.4,-9.6 -2.5,-11.3 -2.5,-11.3 -5.6,-12.9 -4.3,-2.2 -10.1,-2.7 -14.3,-1.1zM460.2,60.5c13.3,3.4 26.8,14.9 34,28.9 3.6,7.2 8,24 8.1,31.6 0.1,4.4 -0.4,6.3 -2.6,9.4 -1.5,2.1 -2.7,4.4 -2.7,5 0,0.6 -1.6,3.7 -3.5,6.9 -1.9,3.2 -3.5,7.1 -3.5,8.6 0,3.4 -7.4,11.3 -15.5,16.7 -15.3,10.2 -33.5,11 -49.4,2.2 -6.7,-3.8 -22.1,-18.8 -22.1,-21.7 0,-2.5 -5.6,-19.7 -7.5,-23.3 -0.8,-1.4 -1.5,-3.7 -1.5,-5 0,-5 4,-21 6.4,-26 6.8,-14 24.8,-30.7 36,-33.4 7,-1.7 17.1,-1.7 23.8,0.1zM377,162.8c0,0.5 2.5,3.6 5.5,6.9 3,3.4 5.5,6.5 5.5,7 0,1 -15.2,13.7 -21,17.5 -1.9,1.3 -4.1,3.6 -5,5 -1.3,2.5 -1.3,2.9 0.6,5.5 2.7,3.7 8.6,5.6 14.7,4.9 5.9,-0.6 8,-1.9 18.8,-11.4 4.6,-4 9.4,-7.5 10.5,-7.8 2.2,-0.6 23.9,5.9 26.2,7.8 1.6,1.3 1.6,10.4 0,18 -1.5,7.1 -0.9,8.4 5.2,11.5 6.8,3.5 13.2,2.8 18.8,-2.1 2.1,-1.8 2.2,-2.7 2.2,-14.2 0,-6.8 0.4,-12.5 0.9,-12.9 0.6,-0.3 5.9,-1.9 11.8,-3.6 5.9,-1.7 12.1,-3.8 13.6,-4.6 1.5,-0.8 3.7,-1.1 4.8,-0.8 1,0.4 4.6,4.1 7.8,8.3 7.5,10 8.2,10.5 14.5,11 6.2,0.5 11.5,-1 14.2,-3.9 2.5,-2.8 1.4,-5.2 -7.9,-17.6 -4.8,-6.3 -7.7,-11.1 -7.7,-12.6 0,-3.4 5.4,-8 8.4,-7.1 3.5,1.1 15.5,11.1 26.2,22 34,34.4 57.4,82.6 67.8,139.4 3.6,19.8 4.8,36 4.4,58.5 -0.3,16.7 -0.6,20.5 -2.1,23.3l-1.8,3.2 -172.2,0c-101.9,0 -172.8,-0.4 -173.6,-0.9 -2.1,-1.3 -2.6,-9.6 -2.5,-36.1 0.1,-18.9 0.5,-25.2 2.7,-39 11.8,-75.7 47.1,-138.1 97.6,-172.4 4.9,-3.3 11.1,-4.9 11.1,-2.8z" fill="#000"/>
</svg>
