<?xml version="1.0" ?>
<svg height="500.0" viewBox="0 0 960.0 500.0" width="960.0" xmlns="http://www.w3.org/2000/svg">
  <path d="M685.4,128.8c-6,4 -3.4,18.3 4.7,25.9 3.1,2.8 34.7,25.7 87.4,63.1 10.5,7.5 19.3,14 19.7,14.6 2.7,3.9 3.3,3.8 -63.9,3.5 -57.7,-0.2 -65.2,-0.4 -68.8,-1.9 -2.2,-0.9 -14.8,-9.3 -28,-18.5 -13.2,-9.3 -27.3,-19.2 -31.3,-21.9 -24.2,-16.9 -53.6,-37.5 -65.4,-45.9 -6.4,-4.5 -8.9,-5.7 -11.9,-5.7 -8.3,0 -10.2,9.5 -4.1,20.4 3.4,6.1 3.1,5.8 68.2,51.3 29.1,20.3 29.9,20.9 28.5,22.2 -0.9,0.8 -73.9,1.3 -392,2.6 -66.5,0.3 -137,0.7 -156.5,1 -34.4,0.5 -35.6,0.6 -37.2,2.6 -5,6 1.1,22.3 9.9,26.4 3.5,1.7 9.2,1.8 106.8,1.1 56.6,-0.3 147.1,-0.8 201,-1.1 53.9,-0.3 133.8,-0.7 177.5,-1 52.3,-0.4 80,-0.2 81,0.4 1.1,0.8 1.2,1.5 0.5,2.5 -0.5,0.9 -21,15.5 -45.5,32.6 -24.5,17 -45.7,32.1 -47.2,33.4 -2.3,1.9 -2.8,3.2 -2.8,6.7 0,11.4 12,24.6 18.9,21 1.1,-0.7 19.1,-13 39.8,-27.6 94.6,-66.1 86.4,-60.1 88.7,-64.8 1,-1.9 2.2,-2.3 9.8,-2.9 4.8,-0.3 9.1,-0.9 9.6,-1.2 0.4,-0.3 30.1,-0.8 65.8,-1.2 60.3,-0.7 65,-0.6 66.3,1 0.8,1 1,2 0.5,2.5 -0.5,0.4 -8.5,6.1 -17.9,12.6 -9.3,6.6 -30.5,21.3 -47,32.9 -55.8,39 -69.6,48.5 -71.6,49.1 -1,0.4 -2.6,1.9 -3.4,3.5 -4.1,7.9 1.4,21.4 10.7,26.1 4.8,2.5 8,1.9 12.3,-2.1 1.7,-1.5 38.5,-27.7 82,-58 43.4,-30.4 79.5,-56 80.2,-56.9 2.2,-2.8 1.4,-7.6 -2.9,-18.6 -3.7,-9.7 -4.7,-11.4 -10.8,-17.4 -9.5,-9.5 -13.4,-12.5 -43.5,-34.1 -14.8,-10.6 -42.4,-30.4 -61.3,-43.9 -48.5,-34.8 -48.9,-35.1 -52.6,-35.1 -1.7,0 -3.6,0.4 -4.2,0.8z" fill="#000"/>
</svg>
