<?xml version="1.0" ?>
<svg height="500.0" viewBox="0 0 960.0 500.0" width="960.0" xmlns="http://www.w3.org/2000/svg">
  <path d="M418.3,19c-4.9,1 -7.9,2.5 -11,5.3 -2,1.8 -2.3,3.1 -2.3,9.2 0,3.9 0.9,14.5 2.1,23.6 1.1,9 2,19 2,22.2 -0.1,3.4 0.5,7 1.4,8.7 4.7,9.1 24.8,12.1 35.4,5.2 5.7,-3.7 7.6,-8 6.2,-14 -1.5,-7 -3.9,-24.1 -5.2,-37.7 -0.6,-6.6 -1.5,-13.2 -2.1,-14.7 -2.1,-5.6 -16.5,-9.8 -26.5,-7.8zM557.4,42.6c-6,2.2 -9.8,6.4 -20.6,22.5 -5.3,7.9 -12.6,18.4 -16.2,23.3 -7.6,10.3 -8.3,13.6 -3.9,18 4.5,4.5 8.9,5.9 18.8,6 14.5,0.2 16,-1.1 38.1,-33.9 5.2,-7.7 10.9,-15.7 12.6,-17.7 5.4,-6.6 3.7,-12.7 -4.8,-16.9 -6.1,-2.9 -18,-3.6 -24,-1.3zM293.9,52.3c-2.5,0.7 -6,2.3 -7.7,3.6 -6.2,4.3 -6.7,8.7 -2.1,15.1 1.8,2.4 4.7,7.8 6.6,11.9 5.8,12.8 6.4,13.8 10.6,18.1 5.8,6.1 11.5,8.3 20.7,8.3 5.5,0 8.9,-0.6 12.8,-2.3 12.3,-5.3 12.1,-11.6 -0.6,-28.7 -2.4,-3.2 -6.5,-9.4 -9,-13.8 -3.9,-6.6 -5.5,-8.3 -9.4,-10.3 -5.7,-2.9 -15.3,-3.7 -21.9,-1.9zM658.3,103c-5.2,1.1 -9.1,3.6 -22.8,14.4 -29.3,23.2 -33.5,27.3 -33.5,32.8 0,2.7 3.8,7.2 8.1,9.4 6.6,3.4 20.1,3.4 26.6,0 1.7,-0.8 6.6,-4.6 11,-8.3 4.4,-3.7 13.8,-11.3 20.9,-16.8 7.1,-5.5 14.1,-11.3 15.6,-12.9 3.4,-3.4 3.7,-8.2 0.8,-11.8 -4.1,-5.3 -17.5,-8.7 -26.7,-6.8zM422.7,120.1c-11.3,1.1 -30.6,5.8 -42.5,10.3 -66.5,25.4 -116.6,88.1 -138.2,172.9 -7.2,28.5 -10.1,53.6 -10,85.5 0.1,11.2 -0.1,20.7 -0.5,21 -0.4,0.4 -5.9,0.9 -12.3,1.2 -10.5,0.5 -12.3,0.9 -17.2,3.5 -4,2.2 -6,4 -7.4,6.9 -1.9,3.9 -1.9,4 0,7.5 1.4,2.6 3.6,4.4 7.9,6.6l6,3 235.5,0 235.5,0 4.7,-2.8c8.6,-5 10.2,-10.9 4.8,-17.1 -4.2,-4.8 -11,-6.8 -24.7,-7.5 -6.1,-0.3 -11.5,-0.9 -11.9,-1.3 -0.4,-0.4 -0.8,-10.5 -1,-22.5 -0.4,-23.9 -1.4,-37.4 -4.4,-56.2 -10.8,-66.7 -41,-125.7 -84.3,-164.1 -40,-35.6 -88.6,-51.8 -140,-46.9zM467.5,143.8c47.5,10.1 92.1,49.3 120.4,105.9 14.7,29.4 25.8,69.6 29.1,105.3 1.3,13.4 1,51.7 -0.3,53.8 -0.6,0.9 -17.8,1.2 -80.4,1.2l-79.6,0 0.7,-27.3c0.4,-14.9 1.1,-28.8 1.5,-30.7l0.7,-3.5 4,4c2.1,2.2 6,6.6 8.6,9.7 6.8,8 11.9,10.3 23.3,10.3 7.5,0 9.8,-0.4 13.8,-2.4 5.2,-2.5 8.7,-7 8.7,-11.1 -0.1,-3.3 -2.4,-7.3 -8.8,-15.1 -5.8,-7.1 -20.3,-26.2 -28.8,-38.1 -5.8,-8.1 -8.5,-10.5 -14.4,-12.8 -1.9,-0.8 -5.7,-3.1 -8.5,-5.2 -7,-5.3 -13.3,-7.3 -23,-7.2 -8.8,0 -13.6,1.2 -18.4,4.8 -5.3,4 -25.9,26.5 -35.2,38.6 -4.9,6.3 -11.4,14.4 -14.4,18 -7.3,8.5 -9.5,11.9 -9.5,15 0,4.4 3.5,8.6 9.6,11.6 4.9,2.4 7,2.8 13.9,2.8 11.1,0 18.1,-3.4 24.3,-11.7 7.5,-9.9 7.6,-9.7 6.9,21.4 -0.3,14.9 -0.9,27.5 -1.4,28 -0.5,0.5 -31.9,0.8 -72.9,0.7l-71.9,-0.3 0.1,-27.5c0.1,-24.3 0.4,-29.4 2.7,-44 9.6,-61.8 34.1,-113.5 71.3,-150.5 26.6,-26.5 56.1,-41.6 89.4,-45.9 7.3,-0.9 29.8,0.4 38.5,2.2zM194,133c-10,3.4 -13.7,10.6 -8.5,16.8 2.2,2.6 23.4,16.6 31.4,20.7 7.2,3.6 17.5,6.5 23.4,6.5 8.2,0 13.4,-1.8 17.9,-6.1 7.7,-7.3 3.3,-14.9 -11.9,-20.7 -2.7,-1 -10,-5.1 -16.3,-9.2 -6.2,-4 -13.4,-7.9 -15.8,-8.7 -6.2,-1.8 -13.7,-1.6 -20.2,0.7zM712,184.3c-4.1,1.3 -10.6,3.5 -14.5,4.9 -3.8,1.5 -13.1,4.6 -20.5,6.9 -23.6,7.3 -31,11.8 -31,18.8 0,3.2 5.6,8.8 10.8,10.8 8.5,3.3 16.3,2.4 36.2,-4.1 46.4,-15.2 52.1,-18 52.3,-26 0.3,-10.3 -17.2,-16.2 -33.3,-11.3zM135.9,242.7c-7.1,3.7 -9.7,8.4 -7.6,13.6 0.8,1.9 3,4.3 4.8,5.5 3.2,1.9 18.2,8 23.9,9.7 1.4,0.4 3,1.1 3.6,1.6 0.6,0.5 6.9,2.3 14,4 14.8,3.5 23.8,3.6 31.8,0.1 5.5,-2.5 8.9,-7.3 8.1,-11.7 -1.2,-6.4 -8.1,-10.5 -22,-13.1 -4.4,-0.9 -9.3,-2.2 -11,-3 -1.6,-0.7 -5.7,-2.3 -9,-3.5 -3.3,-1.2 -8.2,-3 -11,-4 -3.2,-1.2 -7.8,-1.8 -12.6,-1.9 -6.3,0 -8.4,0.5 -13,2.7zM751.5,255.6c-15.4,1.5 -37.7,5.1 -48.8,8 -7.3,1.9 -16,4 -19.3,4.8 -11.7,2.7 -18.4,7.8 -18.4,13.9 0,3.9 6,9.8 11.7,11.5 6.3,1.9 18,1.5 26.4,-0.9 20.8,-5.9 32.9,-8.3 52.1,-10.5 14.3,-1.6 19.7,-3.3 23.3,-7.6 8.8,-10.5 -6.2,-21.2 -27,-19.2zM167,339c-1.9,0.5 -8.2,1.6 -14,2.5 -12.9,1.9 -32.5,6.6 -36.5,8.7 -11.3,5.9 -10.1,16.7 2.4,21.5 6.6,2.6 16.2,2.1 32.2,-1.5 7.5,-1.7 17.9,-3.6 23,-4.3 5.2,-0.6 11.7,-2 14.5,-3 19.2,-7.2 12.1,-23.7 -10.5,-24.5 -4.2,-0.2 -9.2,0.1 -11.1,0.6zM696,343c-11.7,2.5 -18.2,9.8 -14.8,16.6 3.5,7.1 10.6,9 40.8,10.9 12.9,0.9 26.2,2 29.5,2.5 14.1,2.3 23.6,0.7 29.6,-5 8.3,-7.8 2.7,-17 -12.1,-19.9 -11.6,-2.2 -29.2,-4.1 -46.9,-5.1 -20.3,-1.1 -21,-1.1 -26.1,0z" fill="#000"/>
</svg>
