<?xml version="1.0" ?>
<svg height="499.0" viewBox="0 0 960.0 499.0" width="960.0" xmlns="http://www.w3.org/2000/svg">
  <path d="M427.3,35.9c-1.8,0.5 -4.4,1.6 -5.8,2.5 -4.7,3.1 -5,5.2 -3,22.4 1,8.6 2.1,19.4 2.4,23.9 0.7,9.7 2.7,12.5 10.5,14.8 9.1,2.7 16.6,1.4 22.4,-4l3.6,-3.3 -2.2,-15.8c-1.2,-8.8 -2.5,-19.5 -2.8,-23.9 -0.8,-9.6 -2.2,-12.7 -6.8,-14.9 -4.1,-1.9 -13.8,-2.8 -18.3,-1.7zM543.4,55.9c-4.6,2.1 -8.2,6.3 -17.4,20.1 -3.5,5.2 -9,13.1 -12.2,17.5 -3.2,4.3 -5.8,8.9 -5.8,10 0,7.4 16.2,13 26.4,9.1 5.3,-2 8.8,-5.8 18.1,-19.4 3.9,-5.7 9.6,-13.8 12.8,-18.2 6.8,-9.3 7.3,-12.5 2.7,-16.4 -5.8,-4.8 -17.2,-6.1 -24.6,-2.7zM325.8,63.4c-5.9,1.6 -9.6,4 -11.1,7.3 -1,2.2 -0.8,3.2 1.6,7.2 1.5,2.5 4.7,8.6 7.1,13.6 5.3,11.1 10.5,16.7 16.9,18.3 9.4,2.4 17.6,1 23.2,-4 1.9,-1.6 3.5,-3.9 3.5,-4.9 0,-2.7 -3.6,-9.5 -7.5,-14.4 -1.8,-2.2 -5.1,-7.2 -7.4,-11.2 -4.6,-8 -7.8,-10.8 -14.2,-12.2 -5.4,-1.3 -6.3,-1.3 -12.1,0.3zM625.7,106.5c-3.9,1.5 -31.8,23 -39.4,30.4 -4.1,3.9 -4.8,5.5 -4.3,9.1 0.6,4.7 9.6,9 18.4,9 6.2,0 12.1,-2.6 17.8,-7.7 2.4,-2.2 10.9,-9.2 19,-15.6 16,-12.8 17.5,-14.8 14.1,-19.5 -4.3,-6 -17.3,-8.9 -25.6,-5.7zM430.8,120.1c-25,3.1 -51.3,13.8 -72.8,29.7 -9.7,7.2 -28,25.5 -35.7,35.7 -17.9,23.9 -32.2,53.9 -40.2,84.8 -6.2,23.9 -9.6,52.5 -9,76.1 0.3,11.5 0.1,14.7 -0.9,15.1 -0.8,0.3 -5.2,0.5 -9.8,0.5 -7,0 -9.3,0.4 -13.4,2.5 -8.4,4.2 -10.2,9.4 -5.2,14.5 6.1,6 6,6 90.3,6 44.8,0 77.8,0.4 79.2,0.9 2.4,0.9 2.5,1.2 3.1,16.3 0.3,8.4 0.3,17.9 -0.2,21.1 -0.7,5.7 -0.7,5.7 -3,4.2 -1.2,-0.9 -4,-4.1 -6.2,-7.1 -9,-12.1 -25.4,-14.5 -39.3,-5.8 -3.6,2.3 -5.9,4.5 -6.3,6 -1.4,5.7 3.9,12.6 20.1,25.9 5.5,4.5 11.8,10.4 13.9,13.1 11.7,14.7 17.6,18.2 32.3,19.1 9.6,0.7 14.6,-0.4 25.2,-5.3 8.5,-4 12.6,-7.4 14.6,-12 1.9,-4.5 10.5,-12.8 23.5,-22.6 20.6,-15.5 24.8,-21.4 19.6,-27.5 -3.9,-4.7 -10.1,-6.7 -18.8,-6.1 -8.7,0.6 -12.3,2.3 -19.8,9.3 -5.5,5.3 -12.6,10.5 -14.1,10.5 -0.8,0 0,-38.1 0.8,-39 0.3,-0.3 41.9,-0.6 92.6,-0.7 101.6,-0.3 97.8,0 103.2,-6.4 4.6,-5.6 2.6,-10.6 -5.9,-14.5 -4.1,-1.9 -6.7,-2.4 -13.8,-2.4 -4.7,0 -9.3,-0.3 -10.2,-0.6 -1.4,-0.5 -1.6,-2.9 -1.6,-15.8 0,-45.4 -8.6,-85.3 -25.9,-121.1 -11.3,-23.4 -21.7,-38.7 -37.4,-55.1 -24.2,-25.4 -51.6,-40.9 -83.7,-47.4 -12.1,-2.5 -33.5,-3.4 -45.2,-1.9zM460.5,138c17.7,2.5 35.4,9.5 50.6,19.7 41.9,28.5 71.9,81.6 81.5,144.3 1.9,11.9 2.7,53.6 1.2,57.2 -0.7,1.7 -4.9,1.8 -68.4,1.8l-67.6,0 0.3,-37.3c0.4,-42.2 0.7,-40.7 -7.4,-44.6 -9.6,-4.7 -22.2,-3.3 -28.2,2.9 -2.8,2.9 -3.1,3.9 -3.7,12.8 -0.8,11.7 -2.6,46.6 -3,57.7l-0.3,8 -57.4,0.3 -57.3,0.2 0.5,-24.7c0.7,-33 3.6,-50.7 12.8,-78.8 18.7,-56.9 57.1,-100.2 101.7,-115 14.7,-4.9 30.6,-6.5 44.7,-4.5zM241,130.6c-7.1,3.1 -9.9,7.7 -7.6,12.3 1.9,3.6 23.4,17.4 32.9,21.2 15.1,6 31.7,1.9 31.7,-7.8 0,-4.4 -2.4,-6.6 -11.5,-10.7 -4,-1.9 -10.1,-5.3 -13.5,-7.6 -9.8,-6.7 -15.6,-9 -22.5,-9 -3.3,0.1 -7.6,0.8 -9.5,1.6zM650.5,180.9c-27.1,9.4 -28.9,10.2 -30.5,13.1 -4.1,7.7 4,15 16.8,15 9.4,0 56.3,-15.8 61.4,-20.7 7.8,-7.5 -1,-16.4 -15.9,-16.2 -5.8,0.1 -10.5,1.4 -31.8,8.8zM196.2,220.4c-10.6,3.5 -13.1,12.4 -4.8,17.5 7.5,4.6 33.3,13 44.7,14.6 10.7,1.5 22.9,-4.1 22.9,-10.5 0,-5.5 -6.3,-9.9 -17.1,-11.9 -3.2,-0.5 -11.1,-3 -17.7,-5.5 -13.7,-5.1 -21.5,-6.3 -28,-4.2zM703,232.7c-18.2,1.9 -35.5,5.4 -56.4,11.5 -14.9,4.3 -16.9,14.4 -3.8,19.5 7,2.7 15.7,2.2 28.2,-1.5 11.4,-3.4 22.9,-5.5 38.4,-7.3 11.4,-1.2 16.8,-3.1 19.6,-6.7 2.7,-3.3 2.5,-6.4 -0.6,-10.1 -4.1,-5 -12.6,-6.8 -25.4,-5.4zM212.5,302.9c-13.2,2.2 -29.8,5.9 -34.1,7.7 -3.8,1.6 -8.4,6.8 -8.4,9.6 0,3.7 6,8.4 12.4,9.9 5.5,1.2 6.9,1.1 25.5,-2.5 10.8,-2.1 21.9,-4.2 24.6,-4.7 6,-1.1 10.7,-3.8 13.1,-7.4 1.6,-2.4 1.6,-2.9 0.1,-6 -3.6,-7.5 -14.6,-9.7 -33.2,-6.6zM656.4,306.1c-4.6,1.3 -9.4,6.1 -9.4,9.4 0,7 5.7,10.2 20.8,11.5 45.9,4 52.5,4.4 56.6,3 5.6,-1.8 9.6,-5.7 9.6,-9.2 0,-6.6 -4.9,-9.9 -18.5,-12.3 -16.9,-2.9 -52.4,-4.4 -59.1,-2.4z" fill="#000"/>
</svg>
