<?xml version="1.0" encoding="UTF-8" standalone="no"?><!-- Generator: Gravit.io --><svg xmlns="http://www.w3.org/2000/svg" xmlns:xlink="http://www.w3.org/1999/xlink" style="isolation:isolate" viewBox="0 0 960 500" width="960pt" height="500pt"><defs><clipPath id="_clipPath_Kk6JvBhHMllVBM57KJhPtOeMhSuYmv5n"><rect width="960" height="500"/></clipPath></defs><g clip-path="url(#_clipPath_Kk6JvBhHMllVBM57KJhPtOeMhSuYmv5n)"><path d=" M 319.565 22.849 C 311.919 24.17 303.23 27.993 298.225 32.303 C 296.557 33.762 293.846 36.96 292.248 39.462 C 290.649 41.964 286.2 47.386 282.447 51.418 C 268.406 66.432 265.556 69.768 255.129 83.67 C 248.039 93.124 235.319 107.929 232.052 110.501 C 221.626 118.703 220.374 128.157 228.785 134.83 C 233.929 138.861 240.393 140.668 249.499 140.599 C 253.531 140.599 258.188 140.182 259.926 139.695 C 268.267 137.401 275.079 132.466 279.875 125.376 C 282.03 122.179 296.557 105.496 297.878 104.662 C 298.434 104.384 299.199 104.732 299.824 105.705 C 300.728 106.956 300.936 109.528 300.936 119.676 C 300.936 130.659 300.797 132.327 299.546 134.76 C 298.782 136.22 297.53 137.888 296.835 138.375 C 296.071 138.931 292.109 142.962 287.938 147.341 C 282.586 153.041 279.666 156.795 277.72 160.479 C 274.592 166.596 267.641 176.744 261.663 184.112 C 259.3 186.962 255.199 192.314 252.418 195.929 C 247.344 202.741 240.602 209.553 234.346 214.14 C 219.471 225.053 228.646 240.902 250.542 242.292 C 256.589 242.639 266.32 241.666 267.85 240.485 C 268.267 240.206 269.726 239.511 271.047 239.025 C 275.009 237.426 278.971 234.437 281.891 230.892 C 283.35 229.015 286.131 226.026 287.938 224.15 C 289.815 222.273 292.873 218.797 294.819 216.365 C 298.156 212.125 299.685 211.082 300.589 212.611 C 300.797 212.959 301.145 221.161 301.423 230.823 L 301.84 248.409 L 300.033 251.954 C 297.947 256.124 285.575 269.748 271.256 283.581 C 265.973 288.724 247.761 307.77 239.281 316.945 C 236.918 319.517 234.276 322.784 233.303 324.244 C 232.33 325.773 230.106 328.345 228.299 330.083 C 223.224 334.879 221 338.771 221 342.733 C 221 346.974 222.182 349.337 226.144 352.812 C 231.844 357.817 241.505 360.111 252.975 359.207 C 263.401 358.373 270.63 354.342 276.886 345.792 C 278.971 343.012 281.543 339.953 282.655 339.049 C 285.992 336.2 291.205 330.013 294.263 325.287 C 297.739 319.934 299.963 317.71 300.936 318.683 C 301.353 319.1 301.77 346.557 301.979 389.514 C 302.187 428.161 302.535 461.039 302.744 462.568 C 303.161 466.113 306.289 470.979 309.486 473.134 C 314.63 476.54 319.426 477.722 328.393 477.722 C 335.274 477.722 337.429 477.444 340.765 476.262 C 345.979 474.316 350.427 470.91 352.513 467.365 L 354.111 464.584 L 353.833 391.877 C 353.694 339.745 353.833 319.031 354.389 318.683 C 355.363 318.057 356.475 318.683 360.159 322.089 C 361.757 323.618 366.137 327.302 369.751 330.291 C 373.644 333.558 376.772 336.756 377.467 338.146 C 380.317 344.263 385.252 348.294 393.593 351.144 C 397.068 352.326 399.571 352.604 406.383 352.604 C 412.222 352.673 415.141 352.395 415.767 351.77 C 416.184 351.353 417.296 350.936 418.13 350.936 C 421.605 350.936 429.877 345.305 432.518 341.065 C 433.978 338.702 434.048 333.767 432.657 330.986 C 431.267 328.206 421.119 318.405 411.804 310.828 C 407.634 307.422 396.582 297.135 387.407 287.96 C 378.162 278.854 367.179 268.08 362.939 264.048 C 352.721 254.317 352.999 255.151 353.208 230.336 C 353.347 217.129 353.625 211.638 354.181 211.429 C 355.293 211.082 358.699 214.696 368.152 226.374 C 372.601 231.865 377.884 237.635 379.899 239.164 C 394.427 250.077 422.509 247.088 427.792 234.02 C 429.947 228.598 427.861 223.941 419.52 215.739 C 417.574 213.793 412.708 208.51 408.677 203.922 C 404.714 199.335 398.598 192.592 395.122 188.978 C 391.716 185.294 384.348 177.439 378.857 171.392 C 373.296 165.344 367.735 159.645 366.484 158.671 C 361.549 154.918 356.127 149.844 355.223 148.175 C 353.486 144.839 352.374 133.439 352.374 118.356 C 352.374 97.781 352.443 97.781 363.843 114.602 C 367.318 119.746 372.601 126.627 375.659 129.964 C 378.718 133.3 382.888 137.958 384.974 140.321 C 386.989 142.684 389.978 145.395 391.508 146.368 C 403.046 153.667 422.439 152.763 431.893 144.491 C 435.229 141.503 436.48 139 436.48 135.108 C 436.48 130.589 435.16 128.504 426.819 119.815 C 419.52 112.308 414.098 105.427 409.372 97.92 C 402.629 87.076 389.005 70.602 376.285 57.952 C 371.35 53.017 366.345 47.664 365.233 46.135 C 364.121 44.606 359.811 40.018 355.641 35.987 C 347.021 27.576 342.225 24.726 333.884 23.127 C 328.184 22.085 324.709 22.015 319.565 22.849 L 319.565 22.849 Z  M 613.035 30.217 C 605.667 32.164 602.4 34.318 588.777 46.135 C 573.415 59.411 568.341 64.208 558.957 74.495 C 549.573 84.782 531.848 102.577 529.971 103.62 C 528.442 104.523 524.897 110.64 524.41 113.351 C 523.715 117.174 525.106 120.441 528.998 123.917 C 533.516 128.018 539.147 129.894 547.696 130.381 C 561.112 131.076 568.48 127.879 580.018 116.34 C 591.557 104.871 601.149 96.321 602.192 96.738 C 603.652 97.294 603.999 102.299 604.416 126.766 C 604.972 155.683 605.32 154.292 594.546 163.954 C 590.514 167.569 579.393 178.621 569.8 188.491 C 560.208 198.362 549.782 208.44 546.584 211.012 C 538.868 217.06 536.922 219.979 536.922 225.192 C 536.922 228.598 537.2 229.571 539.077 231.865 C 544.638 238.747 558.401 242.014 570.982 239.372 C 577.724 237.982 583.077 235.132 590.792 228.876 C 594.407 225.957 598.577 222.76 600.037 221.786 C 604.694 218.658 604.694 218.38 605.111 249.173 C 605.528 275.726 605.459 276.282 603.999 280.036 C 602.678 283.442 599.898 286.431 578.35 307.909 C 565.074 321.116 551.45 335.226 548.044 339.188 C 544.638 343.151 541.649 346.557 541.371 346.765 C 540.05 347.738 537.27 354.203 537.27 356.288 C 537.27 369.147 560.556 376.515 578.489 369.356 C 584.05 367.131 587.317 364.421 590.862 359.138 C 594.268 354.133 602.4 345.375 603.721 345.375 C 604.208 345.375 604.833 345.722 605.111 346.209 C 605.389 346.626 605.737 371.511 605.806 401.539 C 606.015 456.035 606.084 456.104 607.544 458.259 C 609.768 461.526 614.982 465.488 619.291 467.156 C 622.489 468.407 624.574 468.685 631.803 468.755 C 639.31 468.755 641.117 468.546 644.801 467.156 C 649.667 465.279 653.907 461.943 656.271 458.189 L 657.8 455.548 L 657.591 397.021 L 657.383 338.424 L 658.981 338.424 C 659.816 338.424 661.97 339.606 663.708 341.065 C 665.446 342.525 670.381 346.348 674.552 349.545 C 678.792 352.743 684.005 356.913 686.229 358.721 C 691.165 362.822 693.875 364.212 700.34 366.158 C 705.623 367.688 716.466 368.174 719.525 366.992 C 720.428 366.645 722.583 365.95 724.39 365.533 C 728.491 364.49 734.747 360.389 737.111 357.261 C 739.752 353.647 739.613 348.016 736.763 344.124 C 734.191 340.579 730.368 337.659 723.626 334.392 C 720.845 333.002 716.258 329.944 713.477 327.65 C 707.013 322.367 696.378 314.026 690.191 309.577 C 674.76 298.386 660.302 286.709 659.19 284.623 C 657.035 280.731 656.757 275.309 656.966 246.393 C 657.105 225.123 657.383 217.199 658.008 216.99 C 658.425 216.851 661.067 218.728 663.917 221.161 C 666.697 223.663 671.702 227.417 674.899 229.641 C 678.166 231.865 682.406 234.854 684.283 236.383 C 691.095 241.805 698.255 244.516 707.221 245.072 C 724.599 246.115 737.806 237.774 735.79 226.93 C 735.164 223.663 730.299 218.519 724.321 214.696 C 716.536 209.831 708.472 203.714 701.313 197.388 C 697.698 194.191 692.555 189.812 689.844 187.657 C 687.202 185.502 680.947 179.663 675.942 174.728 C 671.007 169.724 664.959 163.885 662.665 161.73 C 656.479 156.1 656.41 155.752 656.201 131.771 C 656.132 120.789 656.271 109.737 656.479 107.304 C 656.966 103.342 657.174 102.786 658.495 102.786 C 660.233 102.786 673.996 116.479 680.251 124.473 C 686.646 132.605 690.4 135.247 698.672 137.193 C 707.499 139.278 717.231 138.305 724.599 134.621 C 729.812 132.049 731.758 130.311 733.357 126.766 C 734.956 123.291 734.956 120.58 733.357 117.035 C 732.106 114.255 712.365 92.846 705.345 86.659 C 703.329 84.922 697.629 79.43 692.624 74.495 C 687.689 69.629 681.572 63.721 679.07 61.497 C 676.567 59.203 670.242 53.295 664.89 48.29 C 659.607 43.285 654.324 38.489 653.073 37.585 C 649.32 34.735 642.994 31.886 637.503 30.495 C 630.969 28.827 618.735 28.688 613.035 30.217 L 613.035 30.217 Z " fill="rgb(0,0,0)"/></g></svg>