<?xml version="1.0" ?>
<svg height="500.0" viewBox="0 0 960.0 500.0" width="960.0" xmlns="http://www.w3.org/2000/svg">
  <path d="M432,66.5c-41.8,5.1 -78.8,23.1 -110.8,54l-12.5,12 -22.6,0.1c-18.7,0.1 -24.6,0.5 -34.1,2.3 -21.1,4 -36.5,9.2 -54.3,18.3 -31.5,16.2 -56.7,39.4 -77.3,71.4 -3.1,4.9 -7.1,10.7 -8.9,12.9 -4.4,5.6 -7.3,13.2 -9.6,26 -1.2,6 -2.9,13.4 -4,16.3 -2.4,6.7 -2.4,8.5 0.1,15.7 2.4,7 7.9,13.9 12.8,16.3 3.5,1.6 24.6,1.7 370.5,1.2 361.7,-0.5 366.9,-0.5 368.3,-2.4 1.7,-2.4 1.9,-16 0.4,-25.4 -0.6,-3.5 -3.4,-12.5 -6.2,-20 -24.6,-66.2 -83.7,-117.8 -150.3,-131.1 -15.9,-3.1 -31.5,-4.5 -44.4,-3.7 -13.4,0.7 -29.9,3 -36.8,5.1 -5.9,1.8 -6.5,1.5 -18.8,-10.9 -43.9,-44.2 -102.7,-65.3 -161.5,-58.1zM496.2,101.4c14.3,3.1 30.8,8.4 38.7,12.6 10.9,5.8 22,12.4 27.8,16.7 8.1,5.9 16.3,13.4 16.3,14.9 0,0.6 -3.5,2.8 -7.7,5 -32.8,16.7 -62.3,44.5 -80.9,76 -5.7,9.8 -12.2,23 -15.6,32.1 -1.3,3.5 -2.4,5 -3.2,4.7 -0.8,-0.3 -2.8,-3.9 -4.6,-8 -4.5,-10.2 -13.6,-25.7 -21.9,-37.2 -22.7,-31.5 -53.7,-56.7 -86.3,-70.2 -9,-3.8 -10.4,-5.9 -6.2,-9.3 27.4,-22.2 58.1,-35.5 91,-39.7 12.6,-1.6 39.5,-0.4 52.6,2.4zM696.5,166.4c19,3.8 33.7,9.2 49.9,18.2 25.6,14.3 46.2,34.1 62,59.6 5.7,9.2 13.6,26.4 13.6,29.5l0,2.3 -159,0c-139,0 -159.1,-0.2 -159.6,-1.5 -0.7,-1.7 7.8,-18.9 14.3,-29 7.8,-12 16.6,-22.6 28,-33.5 13.1,-12.6 25.6,-21.7 41.8,-30.1 10.9,-5.8 12.6,-6.4 18.5,-6.5 7.6,-0.1 19.4,-4 21.9,-7.1 1.3,-1.7 3.5,-2.3 11.6,-3.2 5.5,-0.6 11.4,-1.3 13,-1.5 7.7,-1.1 32.5,0.5 44,2.8zM286.6,165.1c1.6,0.5 8.5,1.5 15.4,2 30.1,2.4 31.2,2.6 43.3,6.7 43.5,15 77.9,45.1 97.8,85.7 2.7,5.5 5.2,11.5 5.5,13.2l0.7,3.3 -158.1,0c-100.6,0 -158.3,-0.4 -158.7,-1 -0.3,-0.5 0.4,-2.8 1.6,-5.1 1.1,-2.3 2.7,-6 3.5,-8.2 3.2,-9 17.8,-29.8 29.9,-42.6 22.4,-23.6 55.8,-42.8 85.6,-49.1 5.7,-1.3 13.6,-3.1 17.4,-4 8.3,-2.1 12.4,-2.4 16.1,-0.9z" fill="#000"/>
</svg>
