<?xml version="1.0" ?>
<svg height="500.0" viewBox="0 0 960.0 500.0" width="960.0" xmlns="http://www.w3.org/2000/svg">
  <path d="M432,66.5c-41.8,5.1 -78.8,23.1 -110.8,54l-12.5,12 -22.6,0.1c-18.7,0.1 -24.6,0.5 -34.1,2.3 -21.1,4 -36.5,9.2 -54.3,18.3 -31.5,16.2 -56.7,39.4 -77.3,71.4 -3.1,4.9 -7.1,10.7 -8.9,12.9 -4.4,5.6 -7.3,13.2 -9.6,26 -1.2,6 -2.9,13.4 -4,16.3 -1,3 -1.9,6.4 -1.9,7.6 0,4.6 4.1,14.1 8.3,19l4.2,5 0.3,10.6c0.1,5.8 0.4,26.2 0.5,45.5 0.4,40.1 0.7,41.9 8.2,50.3 7.2,8 14.7,9.5 18.9,3.9 2.4,-3.2 2.3,-0.4 1.8,-67.7 -0.1,-21.2 -0.3,-39.1 -0.2,-39.8 0,-0.9 4.6,-1.2 19.8,-1.2 10.8,0 20.3,0.4 21,0.8 1,0.7 1.3,11.9 1.7,50.7 0.6,55 0.4,53.9 6.7,54.9 7.5,1.2 18.9,1.3 19.6,0.2 0.4,-0.6 0.7,-24.7 0.7,-53.6l0,-52.5 24.4,0 24.5,0 0.3,43.5c0.2,23.9 0.8,46.4 1.4,49.9 2.6,16.2 17.5,28.4 25,20.5l2.4,-2.6 0,-55.6 0,-55.7 27.5,0 27.5,0 0.2,48c0.1,26.4 0.5,49.8 0.8,52 0.9,6.1 6.4,15.5 11.3,19.2 7.2,5.5 15,3.9 16.8,-3.3 0.7,-2.7 -0.4,-95.8 -1.2,-106.5 -0.4,-5.9 -0.2,-7.8 0.9,-8.7 1.1,-0.9 7.9,-1.2 25.3,-1l23.9,0.3 0.2,38c0.4,60.9 0.5,64.2 3.2,69.5 6.2,11.8 15.7,17.8 21.7,13.5 4.5,-3.1 4.6,-4.5 4,-55.2 -0.3,-26.3 -0.9,-51.4 -1.2,-55.9 -0.4,-6.3 -0.2,-8.3 0.9,-9.2 1.1,-0.9 9.7,-1.2 33.3,-1l31.9,0.3 -0.2,9.5c-0.1,5.2 -0.2,27.7 -0.3,50 -0.2,39 -0.1,40.7 1.9,46.1 3.7,9.6 11.6,16.9 18.5,16.9 4.1,0 7.4,-4.2 8.1,-10.3 0.3,-2.9 0.7,-29.3 0.8,-58.7l0.2,-53.5 24.5,0 24.5,0 -0.2,7c0,3.8 -0.2,26.6 -0.3,50.5 -0.2,47.4 -0.2,47.8 5.6,55.8 4.7,6.5 9.2,9.3 14.3,9 3.5,-0.2 4.8,-0.9 6.5,-3.1 2.1,-2.8 2.1,-3.9 2.6,-61l0.5,-58.2 27.4,0 27.4,0 -0.2,46.6c-0.2,31 0.1,48 0.8,50.7 2.3,8.3 10.3,17.2 16.9,18.9 3.7,0.9 7.5,-0.9 9.2,-4.2 2,-4.1 3.4,-78.4 1.7,-95.7 -0.8,-8.8 -0.8,-12.4 0.1,-14.3l1.2,-2.5 23.2,0c12.8,0 23.9,0.4 24.7,0.9 1.2,0.8 1.3,8.4 0.7,50.3 -0.7,53.3 -0.7,53.5 4.5,54.9 1.5,0.3 6.9,0.8 12,1l9.4,0.4 0.8,-52.5c0.4,-28.9 1,-53.1 1.2,-53.8 0.4,-1 5,-1.2 20.7,-1l20.3,0.3 0,45.6 0,45.6 3.5,6.9c4.4,8.5 10.2,13.4 16.1,13.4 5,0 7.4,-2.4 8.8,-8.8 0.9,-4.2 1.9,-82.6 1.5,-113.7 -0.2,-13.8 -1.9,-22.3 -7.5,-37.3 -24.7,-66.2 -83.8,-117.8 -150.4,-131.1 -15.9,-3.1 -31.5,-4.5 -44.4,-3.7 -13.4,0.7 -29.9,3 -36.8,5.1 -5.9,1.8 -6.5,1.5 -18.8,-10.9 -43.9,-44.2 -102.7,-65.3 -161.5,-58.1zM496.2,101.4c14.3,3.1 30.8,8.4 38.7,12.6 10.9,5.8 22,12.4 27.8,16.7 8.1,5.9 16.3,13.4 16.3,14.9 0,0.6 -3.5,2.8 -7.7,5 -32.8,16.7 -62.3,44.5 -80.9,76 -5.7,9.8 -12.2,23 -15.6,32.1 -1.3,3.5 -2.4,5 -3.2,4.7 -0.8,-0.3 -2.8,-3.9 -4.6,-8 -4.5,-10.2 -13.6,-25.7 -21.9,-37.2 -22.7,-31.5 -53.7,-56.7 -86.3,-70.2 -9,-3.8 -10.4,-5.9 -6.2,-9.3 27.4,-22.2 58.1,-35.5 91,-39.7 12.6,-1.6 39.5,-0.4 52.6,2.4zM695,166c48.4,9.5 87.7,36.5 113.3,78 5.9,9.6 13.7,26.4 13.7,29.6l0,2.4 -145.2,-0.2c-141.4,-0.3 -145.4,-0.4 -150.6,-2.3l-5.4,-1.9 -3.8,2.2c-4.5,2.5 -12.7,3.1 -13.6,0.9 -0.7,-1.8 5.5,-15.3 11.3,-24.7 18.8,-30.3 43.9,-53.6 74.7,-69.3 8.8,-4.5 10.9,-5.1 16.6,-5.3 7.6,-0.1 19.4,-4 21.9,-7.1 1.6,-2.1 3.6,-2.5 23.1,-4.7 8.5,-1 33.9,0.4 44,2.4zM286.6,165.1c1.6,0.5 8.5,1.5 15.4,2 30.1,2.4 31.2,2.6 43.3,6.7 43.5,15 77.9,45.1 97.8,85.7 2.7,5.5 5.2,11.5 5.5,13.4l0.7,3.4 -6.4,-0.6c-3.5,-0.3 -8.1,-1.3 -10.1,-2.1 -4.9,-2.1 -7.7,-2 -11.3,0.4 -3,2 -5,2 -145.7,2 -90.7,0 -142.9,-0.4 -143.3,-1 -0.3,-0.5 0.4,-2.8 1.6,-5.1 1.1,-2.3 2.7,-6 3.5,-8.2 3.2,-9 17.8,-29.8 29.9,-42.6 22.4,-23.6 55.8,-42.8 85.6,-49.1 5.7,-1.3 13.6,-3.1 17.4,-4 8.3,-2.1 12.4,-2.4 16.1,-0.9z" fill="#000"/>
</svg>
