<?xml version="1.0" ?>
<svg height="500.0" viewBox="0 0 960.0 500.0" width="960.0" xmlns="http://www.w3.org/2000/svg">
  <path d="M435,67.6c-25.5,3.2 -54.8,13.2 -76.3,26 -10.8,6.5 -27.9,19.9 -36.8,28.8 -11.3,11.3 -12.6,11.8 -34.1,11.6 -43.7,-0.2 -82.1,12.3 -117,38.2 -16.5,12.3 -35.4,32.5 -47.4,50.8 -2.7,4.1 -7.2,10.3 -10,13.8 -3.7,4.5 -5.8,8.3 -7.2,13 -3,9.6 -3.1,10.2 -4.6,18.9 -0.8,4.3 -2.2,9.8 -3.1,12.3 -2.1,5.5 -1.3,12.2 2.2,18.8 5.3,10.1 11.2,13.7 21.8,13.3 3.9,-0.1 73.1,-0.4 153.9,-0.7 109.8,-0.3 147.2,-0.1 148.2,0.7 1.2,0.9 -2.1,4.7 -17,19.9 -10.1,10.4 -19.2,20 -20.1,21.4 -1,1.4 -3.9,4.2 -6.6,6.2 -8.3,6.1 -9.6,11.5 -4.1,16.7 3.9,3.7 40.3,22.7 48.3,25.2 3.9,1.3 6.9,3.6 6.9,5.4 0,1.9 -7.2,8 -22.4,19 -12.4,8.9 -15.6,9.2 -15.6,1.3 0,-3.7 -3.3,-8.8 -7.2,-11.2 -4.7,-2.9 -16.5,-2.8 -22.6,0.1 -6.6,3.2 -7.5,6.3 -5.2,16.5 1.1,4.5 2.6,12.8 3.5,18.5 1.4,9.3 1.8,10.7 4.8,13.7 5,5.3 15.1,9.7 32.3,14.2 9.3,2.4 11.5,2.6 20.4,1.7 11.9,-1.3 15.7,-2.6 19,-6.4 3.3,-3.8 3.8,-6.8 1.4,-10.1 -2.5,-3.7 -7.4,-5.5 -17.8,-6.6 -5.5,-0.6 -10.1,-1.6 -10.3,-2.2 -0.2,-0.5 6.3,-5.8 14.4,-11.6 8.2,-5.8 18.4,-13.6 22.8,-17.3 4.4,-3.7 9.9,-7.6 12.2,-8.7 6.6,-3.1 13.3,-9.5 13.3,-12.7 0,-5.8 -2.8,-7.6 -34,-21.3 -20.8,-9.1 -27.5,-12.8 -28.3,-15.8 -0.6,-2.5 11.8,-16.5 33.3,-37.4 11,-10.6 17.8,-16.5 20.8,-17.7 4.2,-1.8 10.6,-1.9 192,-1.9 117.6,0 188.3,-0.4 189.2,-1 2.1,-1.3 1.9,-27.7 -0.2,-33.5 -0.9,-2.2 -3.1,-8.3 -5,-13.5 -6.4,-17.3 -16.2,-34.8 -28.8,-51.4 -27.3,-36.2 -64.5,-62 -105.9,-73.6 -19.8,-5.5 -26.8,-6.4 -50.1,-6.5 -21.2,0 -28.8,0.7 -42.4,4.2 -3.3,0.8 -6.9,1.2 -8.1,0.9 -1.1,-0.3 -7.4,-5.7 -13.9,-12.1 -30.1,-29.4 -62.2,-46.9 -101,-55.1 -10.3,-2.2 -15.2,-2.6 -33.1,-2.9 -11.5,-0.2 -22.6,-0.1 -24.5,0.1zM487,98.6c29.7,4.1 58.7,17 82.7,36.6 7.6,6.2 10.3,9.3 10.3,11.8 0,0.9 -3.8,3.4 -9.5,6.3 -41.9,21.4 -76.7,60.4 -94.1,105.4 -1.5,4 -3.1,7.3 -3.5,7.3 -0.9,0 -4.9,-5.4 -4.9,-6.5 0,-1.4 -9.8,-20.3 -14.1,-27.1 -23.2,-37.2 -57.2,-67.4 -93.1,-82.5 -6.5,-2.7 -10.5,-5 -11.6,-6.7 -1.6,-2.5 -1.6,-2.6 2.8,-6.4 6.6,-5.8 24.2,-17.4 32.9,-21.7 32.5,-16.3 65.5,-21.6 102.1,-16.5zM286.1,163.4c3.5,1.5 17,3.1 36.9,4.5 9.6,0.7 13.3,1.5 22.6,4.9 32.8,11.8 57.1,28.9 77.8,54.6 12.2,15.3 24.5,37.1 25.4,45.3l0.5,4.3 -158.7,0c-158.9,0 -159.3,0 -158.7,-3 0.7,-4.1 9,-22.5 12.6,-28.1 23.3,-36.1 57.9,-62.9 96.5,-74.7 5.4,-1.6 29.1,-6.8 39,-8.5 1.4,-0.2 2.6,-0.5 2.6,-0.6 0.1,0 1.7,0.5 3.5,1.3zM696.4,165c42.1,9 77.9,31.5 102.4,64.1 11.2,14.9 23,37.2 23.5,44.5l0.2,2.9 -159.2,0.3c-141,0.2 -159.3,0 -160.7,-1.3 -1.3,-1.4 -1.1,-2.4 2,-9.3 17.3,-37.8 47.3,-68.7 85.2,-87.6 11,-5.5 11.3,-5.6 14.2,-4.1 2.8,1.5 3.5,1.4 12.6,-1.7 7.3,-2.5 9.8,-3.8 10.5,-5.5 0.5,-1.4 2,-2.4 4.1,-2.8 17.1,-3.1 49.6,-2.9 65.2,0.5z" fill="#000"/>
</svg>
