<?xml version="1.0" ?>
<svg height="500.0" viewBox="0 0 960.0 500.0" width="960.0" xmlns="http://www.w3.org/2000/svg">
  <path d="M435,67.6c-25.5,3.2 -54.8,13.2 -76.3,26 -10.8,6.5 -27.9,19.9 -36.8,28.8 -11.3,11.3 -12.6,11.8 -34.1,11.6 -43.7,-0.2 -82.1,12.3 -117,38.2 -16.5,12.3 -35.4,32.5 -47.4,50.8 -2.7,4.1 -7.2,10.3 -10,13.8 -3.7,4.5 -5.8,8.3 -7.2,13 -3,9.6 -3.1,10.2 -4.6,18.9 -0.8,4.3 -2.2,9.8 -3.1,12.3 -2.7,7.3 0.2,18.7 6.6,25.5 2.6,2.9 3.3,7.6 1.8,12.2 -0.7,2.1 -1.2,6.9 -1.1,10.7 0.1,8.9 3.6,16.2 12.4,26.1 12.1,13.7 14.8,20.1 14.8,34.7 0,11.5 -3,16.4 -13.7,22.4 -3.4,1.9 -6.9,4.4 -7.8,5.7 -5.1,7.3 2.5,14.9 15.1,15 8.7,0.1 15.1,-3.3 24.6,-13.1 9.4,-9.6 10.8,-13.4 10.8,-29.7 0,-20.3 -2.9,-28.3 -15.7,-43.5 -12.1,-14.3 -12.9,-16.6 -9.3,-26.3 3.3,-8.7 3.2,-8.7 41.8,-8.7 38.6,0.1 37,-0.3 35.1,8.9 -1.6,8.2 -0.7,16.7 2.5,23.7 2.1,4.5 5.5,8.6 15.4,18.4 14,13.7 15.2,15.9 15.2,26.4 0,8.8 -3.3,14.1 -13.6,21.9 -12.7,9.6 -15.3,15.2 -9.4,20.7 6.1,5.7 19.6,6.1 27.4,0.7 3.7,-2.5 14.4,-14.2 18.5,-20.2 8.7,-12.6 9.2,-31.3 1.4,-45.7 -1.6,-3 -6.8,-8.7 -13.1,-14.6 -8.3,-7.6 -11.1,-11 -13.4,-15.7 -3.3,-7 -3.4,-8 -1.2,-12 0.9,-1.7 2,-4.5 2.3,-6.4 1,-5.7 2.6,-5.9 46.6,-6 45.4,-0.1 44.5,-0.3 41.8,7.5 -1.1,3.2 -1.4,7 -1.1,12.9 0.6,11.8 4.7,19.9 16.5,32.5 12.7,13.7 16.2,18.3 18.4,24 2.3,6.1 2.4,8.6 0.3,13.6 -2.2,5.3 -6.4,10 -14.2,15.9 -3.9,2.9 -7.1,6.2 -7.6,7.8 -3.4,9.6 14.8,16.4 27.7,10.4 3.8,-1.7 6.5,-4.4 12.8,-12.2 9.7,-12.3 12.2,-18.1 12.2,-28.7 0.1,-7.1 -0.3,-8.5 -4,-16 -3,-6 -6.6,-11 -12.9,-17.8 -16,-17.5 -18.7,-21.6 -19.8,-30.2 -0.5,-3.2 0,-5.7 1.6,-9.8 2,-4.6 3,-5.8 6.8,-7.7 4.4,-2.1 5.6,-2.2 36.7,-2.3 23.2,0 33,0.3 34.9,1.2 2.5,1.2 2.6,1.4 2,7.3 -0.8,8.4 0.8,16.8 4.9,25.1 2.7,5.5 5.9,9.5 14.3,18 8,8.1 11.7,12.7 14.1,17.5 5.9,11.9 5.1,20.5 -2.3,26.4 -7.8,6.2 -11.6,10.3 -11.6,12.4 0,7.9 12.9,13 24.2,9.7 6.8,-1.9 9.9,-4.3 15.4,-11.9 5.4,-7.3 7.8,-14.9 7.6,-24.4 -0.2,-13.4 -6.7,-25.5 -22.5,-41.9 -11.7,-12.1 -14.7,-17.4 -14.7,-25.7 0,-3.6 0.6,-4.9 3.3,-7.5 5.7,-5.6 9.9,-6.2 41.9,-6.2 33.4,0 34.2,0.1 33,6.4 -3.1,17.2 2.9,28.1 24.8,45.2 9,7 10.5,8.6 13.8,15 2,4 4.7,9.2 6,11.5 4.3,8.2 2.3,16.6 -5.8,24.2 -6.1,5.8 -6.6,9.2 -2,13.1 6,5 15.8,6 23,2.3 9.3,-4.6 15.3,-16.9 17.2,-34.9 1.1,-9.8 1,-11 -0.8,-15 -2.6,-5.9 -16,-20.2 -26.9,-28.8 -12,-9.5 -14.3,-11.7 -17.6,-16.9 -3.9,-6.1 -3.8,-9.7 0.7,-15.3 2.7,-3.5 4.5,-4.8 7.9,-5.7 6.2,-1.5 65.5,-1.5 69,0.1 2.9,1.3 2.9,1.1 1.3,7.7 -1.4,6.1 0.1,16 3.4,22.4 4.4,8.7 17.5,20 30.7,26.7 3.6,1.8 7.8,4.2 9.3,5.3 3.9,2.9 10.5,13.5 11.9,19 1.7,6.8 -0.7,14 -6.5,19.4 -5.1,4.7 -6.4,8.2 -4.7,11.9 2.6,5.8 18,8.5 25.9,4.5 4.7,-2.4 6.2,-4.2 10,-11.6 7.8,-15.1 6.5,-31.1 -3.7,-45.9 -5.7,-8.3 -12,-13.5 -22.4,-18.7 -20,-10.1 -29.3,-23.6 -22.2,-32.1 1.4,-1.6 2.5,-3.8 2.5,-4.8 0,-1.4 1.4,-2.3 5.4,-3.4 4.4,-1.3 11.3,-1.6 38.1,-1.6 37.7,0 37.3,-0.1 40,7.9 2.2,6.8 10.2,14.6 22.9,22.4 19.4,11.9 26.2,21.4 23,32.4 -1.9,6.4 -7.7,13.9 -14.4,18.5 -7.1,4.9 -17.3,15 -19.3,19.1 -2.9,5.8 -6,17.6 -5.3,20.1 1.4,5.7 12.7,10.3 22,9 5.3,-0.8 12.3,-4.8 13.1,-7.5 0.4,-1.2 0.4,-4.5 0,-7.5 -0.6,-5.2 -0.5,-5.5 2.7,-8.5 1.8,-1.7 5.8,-5 8.8,-7.3 6,-4.6 10.9,-10.6 16.8,-20.6 8.7,-14.6 8.2,-29.1 -1.3,-42.5 -4.4,-6.2 -10.7,-11.3 -28.5,-22.8 -15.7,-10.2 -13.7,-12.7 10.3,-12.7 8.4,0 15.9,-0.5 16.7,-1 2.1,-1.3 1.9,-27.7 -0.2,-33.5 -0.9,-2.2 -3.1,-8.3 -5,-13.5 -6.4,-17.3 -16.2,-34.8 -28.8,-51.4 -27.3,-36.2 -64.5,-62 -105.9,-73.6 -19.8,-5.5 -26.8,-6.4 -50.1,-6.5 -21.2,0 -28.8,0.7 -42.4,4.2 -3.3,0.8 -6.9,1.2 -8.1,0.9 -1.1,-0.3 -7.4,-5.7 -13.9,-12.1 -30.1,-29.4 -62.2,-46.9 -101,-55.1 -10.3,-2.2 -15.2,-2.6 -33.1,-2.9 -11.5,-0.2 -22.6,-0.1 -24.5,0.1zM487,98.6c29.7,4.1 58.7,17 82.7,36.6 7.6,6.2 10.3,9.3 10.3,11.8 0,0.9 -3.8,3.4 -9.5,6.3 -41.9,21.4 -76.7,60.4 -94.1,105.4 -1.5,4 -3.1,7.3 -3.5,7.3 -0.9,0 -4.9,-5.4 -4.9,-6.5 0,-1.4 -9.8,-20.3 -14.1,-27.1 -23.2,-37.2 -57.2,-67.4 -93.1,-82.5 -6.5,-2.7 -10.5,-5 -11.6,-6.7 -1.6,-2.5 -1.6,-2.6 2.8,-6.4 6.6,-5.8 24.2,-17.4 32.9,-21.7 32.5,-16.3 65.5,-21.6 102.1,-16.5zM286.1,163.4c3.5,1.5 17,3.1 36.9,4.5 9.6,0.7 13.3,1.5 22.6,4.9 32.8,11.8 57.1,28.9 77.8,54.6 12.2,15.3 24.5,37.1 25.4,45.3l0.5,4.3 -158.7,0c-158.9,0 -159.3,0 -158.7,-3 0.7,-4.1 9,-22.5 12.6,-28.1 23.3,-36.1 57.9,-62.9 96.5,-74.7 5.4,-1.6 29.1,-6.8 39,-8.5 1.4,-0.2 2.6,-0.5 2.6,-0.6 0.1,0 1.7,0.5 3.5,1.3zM696.4,165c42.1,9 77.9,31.5 102.4,64.1 11.2,14.9 23,37.2 23.5,44.5l0.2,2.9 -159.2,0.3c-141,0.2 -159.3,0 -160.7,-1.3 -1.3,-1.4 -1.1,-2.4 2,-9.3 17.3,-37.8 47.3,-68.7 85.2,-87.6 11,-5.5 11.3,-5.6 14.2,-4.1 2.8,1.5 3.5,1.4 12.6,-1.7 7.3,-2.5 9.8,-3.8 10.5,-5.5 0.5,-1.4 2,-2.4 4.1,-2.8 17.1,-3.1 49.6,-2.9 65.2,0.5z" fill="#000"/>
</svg>
