<?xml version="1.0" encoding="UTF-8" standalone="no"?><!-- Generator: Gravit.io --><svg xmlns="http://www.w3.org/2000/svg" style="isolation:isolate" viewBox="0 0 960 500" width="960pt" height="500pt"><defs><clipPath id="_clipPath_coqbfucZuFvfjjOuMnFt5yoVSoz1tGA6"><rect width="960" height="500"/></clipPath></defs><g clip-path="url(#_clipPath_coqbfucZuFvfjjOuMnFt5yoVSoz1tGA6)"><path d=" M 446.504 21.685 C 441.686 22.507 435.929 24.152 433.814 25.327 C 431.581 26.502 426.529 27.56 422.064 27.795 C 408.904 28.5 380.352 40.015 359.555 53.057 C 333.235 69.507 310.676 91.244 293.286 116.859 C 238.062 198.402 242.997 307.911 305.388 389.69 C 312.908 399.677 333.823 420.944 344.163 429.287 C 360.025 442.094 377.297 452.904 391.985 459.131 C 427.234 474.288 458.489 480.516 492.328 479.223 C 534.627 477.578 572.697 465.359 606.654 442.446 C 622.164 431.872 624.396 429.992 639.671 415.187 C 680.325 375.237 704.883 317.898 705 262.556 C 705 254.332 704.295 246.812 703.238 242.582 C 701.945 237.764 701.593 233.299 702.18 227.542 C 703.473 212.032 694.543 180.19 680.913 152.226 C 648.483 85.722 589.264 38.957 518.765 24.152 C 507.015 21.685 500.67 21.098 479.991 20.745 C 463.541 20.393 452.379 20.745 446.504 21.685 L 446.504 21.685 Z  M 517.59 58.344 C 593.142 71.387 653.183 125.906 670.221 196.992 C 671.983 204.042 674.45 213.56 675.743 217.907 C 677.505 223.547 678.093 227.307 677.505 230.832 C 677.035 233.534 676.448 241.524 676.095 248.692 C 674.45 282.649 665.873 313.668 650.246 341.163 C 621.576 391.922 571.757 428.347 515.475 439.626 C 469.416 448.909 422.064 441.976 383.055 420.357 C 362.962 409.194 350.978 400.382 337.818 387.34 C 312.086 361.49 295.871 331.293 287.646 293.576 C 284.121 277.479 283.769 236.824 287.059 220.845 C 301.863 147.291 351.095 90.304 420.889 66.099 C 428.174 63.632 435.811 60.694 437.691 59.637 C 439.806 58.462 444.389 57.757 449.441 57.639 C 454.024 57.522 461.074 57.052 465.303 56.582 C 476.231 55.172 505.135 56.23 517.59 58.344 L 517.59 58.344 Z  M 461.779 95.944 C 458.254 96.766 448.736 98.646 440.629 100.056 C 419.362 103.934 417.247 104.521 410.079 109.339 C 406.554 111.806 399.857 116.154 395.392 119.091 C 335.703 157.631 315.376 234.004 346.748 302.036 C 358.263 326.828 378.707 350.798 401.854 366.307 C 420.889 379.115 421.477 379.35 440.746 384.637 C 458.254 389.455 459.429 389.572 476.466 389.572 C 502.55 389.572 518.295 386.047 539.915 375.237 C 555.777 367.365 562.005 363.018 574.224 351.15 C 587.267 338.578 597.137 324.361 606.654 304.503 C 616.524 284.059 619.109 268.901 616.994 243.639 C 615.349 224.722 613.116 213.325 608.416 199.93 C 594.669 160.92 567.41 129.548 532.043 111.806 C 517.943 104.756 505.723 100.879 487.041 97.706 C 479.286 96.414 471.883 95.121 470.591 94.886 C 469.298 94.651 465.303 95.121 461.779 95.944 L 461.779 95.944 Z  M 519.235 139.888 C 545.555 149.523 565.295 167.03 576.927 191.118 C 584.799 207.332 586.914 216.262 586.797 232.829 C 586.679 248.457 582.332 272.074 577.279 284.411 C 572.344 296.514 563.415 308.968 551.195 320.953 C 541.325 330.706 538.152 333.055 525.815 339.4 C 512.185 346.333 496.206 352.208 494.796 350.798 C 493.856 349.858 492.916 298.041 492.563 222.842 C 492.328 189.238 491.741 156.691 491.153 150.581 C 489.743 136.246 489.743 136.951 491.741 134.953 C 493.151 133.426 494.561 133.426 501.375 134.718 C 505.723 135.541 513.83 137.891 519.235 139.888 L 519.235 139.888 Z  M 459.899 136.716 C 460.721 140.593 462.131 351.15 461.309 352.443 C 460.721 353.383 443.566 351.385 437.926 349.74 C 431.229 347.743 408.787 336.58 402.442 332.115 C 388.225 322.011 375.417 305.561 368.485 288.641 C 357.675 261.969 359.673 225.662 373.42 198.167 C 385.052 174.785 412.312 148.818 429.467 144.588 C 432.756 143.883 438.396 141.651 442.156 139.771 C 447.679 137.068 454.024 134.836 458.489 134.248 C 458.959 134.131 459.664 135.306 459.899 136.716 L 459.899 136.716 Z " fill="rgb(0,0,0)"/></g></svg>