<?xml version="1.0" ?>
<svg height="500.0" viewBox="0 0 960.0 500.0" width="960.0" xmlns="http://www.w3.org/2000/svg">
  <path d="M447.7,47.4c-1.2,0.7 -4.4,5.1 -7.2,9.8 -2.7,4.8 -6.4,10.2 -8.2,12 -5.2,5.5 -15.9,22.1 -18.2,28.4 -2.1,5.6 -5.8,12.5 -28.7,52.9 -11,19.5 -44.9,79.6 -83.4,148 -13.3,23.6 -25,43.9 -26,45 -1.1,1.1 -3.1,4.7 -4.6,8 -1.5,3.3 -6.5,12.7 -11.2,21 -4.7,8.5 -8.7,16.6 -8.9,18.8 -0.8,5.6 5.3,17.5 11.3,22.1 4,3.1 5.4,3.5 13.1,4.1 9,0.8 140.9,-0.1 324.4,-2.1l54.7,-0.6 6.3,4.1c7.6,5 11.8,5.4 14.8,1.5 2.6,-3.3 2.7,-7.9 0.3,-14.1 -1,-2.7 -20.9,-37.9 -44.1,-78.3 -23.3,-40.4 -67.3,-117.2 -98,-170.5 -58.3,-101.7 -59.5,-103.7 -68.9,-108.4 -4.5,-2.2 -14.4,-3.2 -17.5,-1.7zM501.7,144c20.1,34.9 59,102.6 86.4,150.4 27.5,47.7 49.9,87.7 49.9,88.7 0,1.8 -1.5,1.9 -40.2,1.9 -22.2,0 -47.3,0.2 -55.8,0.4 -8.5,0.3 -63.9,0.8 -123,1.1 -59.1,0.3 -111.9,0.8 -117.4,1.1 -13.3,0.6 -15.6,-1.5 -9.6,-8.7 1.6,-2 4.5,-7 6.3,-11.1 1.9,-4 6.1,-12.1 9.4,-17.8 3.3,-5.8 21.1,-37.3 39.5,-70 81.3,-144.4 87.3,-154.8 96,-166.9 4.8,-6.8 11.2,-17.1 14.1,-22.8 3.2,-6.5 5.7,-10.2 6.6,-10.1 0.8,0.2 17.8,28.9 37.8,63.8zM447.7,246.4c-4.6,1.7 -10.2,5.9 -12.5,9.4 -1.3,1.9 -1.7,4.7 -1.7,10.7 0,6.8 0.5,8.9 2.9,13.9 5.5,11.3 15.1,18.2 26.6,19.3 7.2,0.6 11.3,-2 15.2,-9.7 4.3,-8.5 5.2,-14.8 3.4,-22 -4.4,-17.2 -19.4,-26.7 -33.9,-21.6z" fill="#000"/>
</svg>
