<?xml version="1.0" ?>
<svg height="500.0" viewBox="0 0 960.0 500.0" width="960.0" xmlns="http://www.w3.org/2000/svg">
  <path d="M358.3,126c-3,1.2 -4.3,4.1 -4.3,9.3 0,8.6 4.7,15.6 15.4,23.1 3.4,2.3 19.8,13.9 36.6,25.6 41.1,28.8 42.5,29.8 58,40.6 7.4,5.2 13.8,10.1 14.3,10.9 1,1.8 -6.1,2 -124.8,2.3 -51.7,0.2 -95.3,0.5 -97,0.7 -1.6,0.2 -46.6,0.5 -100,0.6 -111.8,0.3 -120,0.5 -122.1,3.3 -3.1,4.4 -1.2,14 4.2,21.2 5.4,7 -7.6,6.5 158.6,5.7 82.7,-0.5 181.1,-0.8 218.8,-0.8 63.7,0 68.5,0.1 68.5,1.7 0,1 -4.5,4.7 -11.5,9.6 -6.3,4.3 -28.4,19.5 -49,33.7 -67.1,46.2 -71.4,49.2 -75.7,51.3 -5.5,2.8 -7.3,5.6 -7.3,11.3 0,5.7 2,10.7 6.1,15.4 6.3,7.1 12.7,8.4 17.4,3.5 1.6,-1.6 10.2,-8 19.2,-14.2 9,-6.2 29.7,-20.5 46.1,-31.8 16.3,-11.3 45,-31.1 63.7,-43.9 18.7,-12.9 35.7,-24.8 37.8,-26.4l3.8,-2.9 5.8,3.1c10,5.3 16.1,3.5 16.1,-4.6 0,-2 0.8,-4.1 2,-5.3 1.9,-1.9 3.1,-2 27.3,-1.8 22.3,0.3 25.2,0.5 25.5,1.9 0.2,1.2 -12.3,10.5 -43,32 -23.8,16.6 -45.2,31.5 -47.4,33.1 -2.3,1.5 -4.5,3.5 -4.8,4.4 -4,10.4 9.9,29.9 18.3,25.5 3.8,-2.1 122.6,-85.3 125.4,-87.9 1.5,-1.4 2.7,-3.1 2.7,-3.8 0,-2.3 3.2,-3.8 7.9,-3.5 2.6,0.1 6.8,-0.3 9.3,-0.8 2.6,-0.6 32.1,-1.3 69.5,-1.7 62.3,-0.7 65,-0.6 65.7,1.1 0.8,2.2 1.8,1.3 -12.4,11.2 -6.3,4.4 -14,9.7 -17,11.8 -3,2.1 -17.4,12.2 -32,22.4 -14.6,10.2 -36.4,25.5 -48.5,33.9 -12.1,8.5 -23.5,16.1 -25.2,16.8 -3.7,1.6 -6.3,5.9 -6.3,10.2 0,7.5 5.7,17 12.3,20.3 4.7,2.5 8,1.9 12.2,-2 1.7,-1.6 9.3,-7.2 17,-12.6 7.7,-5.4 18.3,-12.8 23.5,-16.5 9.1,-6.5 52.6,-36.8 66,-46.1 38.6,-26.9 54.7,-38.3 55.8,-39.7 2.2,-2.8 1.3,-8.4 -3,-19.1 -3.7,-9.2 -5,-11.3 -10.8,-17 -9.5,-9.5 -14.7,-13.6 -43,-33.6 -2.5,-1.8 -20.7,-14.8 -40.5,-29 -69.1,-49.5 -69.3,-49.7 -73.4,-50.2 -3.2,-0.4 -4.1,-0.1 -5.9,2.2 -2.9,3.7 -2.8,9.6 0.2,16 2.9,6.1 6.1,9.2 19.6,18.9 5.8,4.1 11.9,8.4 13.5,9.6 17.9,12.8 56.8,40.6 59.5,42.6 13.8,9.7 20.5,15.2 20.8,16.8 0.4,1.7 -1.8,1.8 -65,1.5l-65.3,-0.3 -5,-2.6c-2.7,-1.4 -12.4,-7.9 -21.5,-14.3 -22.2,-15.7 -19.2,-13.5 -49.5,-34.7 -14.8,-10.4 -28.3,-19.8 -30,-21 -22.7,-16.2 -29.3,-20.3 -33.1,-20.8 -3.5,-0.4 -4.4,-0.1 -6.2,2.3 -3.5,4.4 -2.5,11.4 2.7,19.6 2.2,3.5 6.6,7.2 18.7,15.7 8.8,6.1 17.3,12.1 19.1,13.4 1.8,1.3 5.4,3.8 8,5.6 29.9,20.7 50.3,35.6 50.3,36.8 0,1.2 -6.9,1.4 -47.5,1.4 -55.4,0 -47.5,1.6 -70.4,-14.4 -8,-5.6 -17.1,-11.9 -20.1,-14.1 -17,-11.8 -62,-43.3 -85,-59.5 -34.8,-24.4 -35.3,-24.7 -39.7,-23z" fill="#000"/>
</svg>
