<?xml version="1.0" ?>
<svg height="500.0" viewBox="0 0 960.0 500.0" width="960.0" xmlns="http://www.w3.org/2000/svg">
  <path d="M399.9,33.8c-6.3,2.4 -10.4,5.5 -12.3,9.7 -1.6,3.2 -1.7,8.1 -1.7,44.4 0,40.1 -0.1,40.8 -2.3,44.7 -1.6,2.8 -2.8,3.9 -4.5,3.9 -2.9,0 -4.4,-4.2 -6,-17.3 -0.9,-6.4 -2.1,-10.5 -4.5,-15.2 -4.9,-9.6 -10.9,-13 -23.1,-13 -8.5,0 -13.4,1.7 -17.6,5.9 -3.1,3.1 -3.7,4.5 -4.4,9.7 -0.4,4.1 -0.1,8.9 0.9,14.5 0.8,4.6 2,12 2.6,16.4 2.6,19.2 4.5,27.1 7.9,32.3 4,6.2 3.7,7.6 -2.9,13.5 -4.6,4.1 -5.4,4.4 -12.2,5.1 -8.4,0.7 -16.2,4.1 -19.3,8.3 -2.4,3.3 -2.4,9.1 -0.1,12.4 0.9,1.3 1.6,3 1.6,3.9 0,0.9 -3,4.5 -6.7,8.1 -17.4,17 -42.3,42.9 -46,47.9 -7.7,10.4 -8.9,14.7 -5.2,19.4 3.5,4.4 9.4,6.8 18.5,7.4 13.6,0.8 15.2,-0.3 44.4,-29.8 13.5,-13.8 25.1,-25 25.7,-25 0.6,0 8,7 16.5,15.6 8.4,8.6 20.5,19.8 26.8,24.9 20.7,16.7 32.2,27.8 43.4,42 2.2,2.8 9.4,10.6 16.1,17.5 6.7,6.9 16.8,17.3 22.4,23.1 13.3,13.7 16.4,15.4 29.1,15.4 8.8,0 9.9,-0.2 15,-3.1 3.9,-2.2 6.1,-4.3 7.7,-7.4 2.2,-4.1 17.4,-23.9 28.3,-36.9 3.1,-3.6 9.4,-11.3 14,-17.1 4.7,-5.8 12.1,-14.3 16.6,-19 4.4,-4.7 11.3,-12.6 15.3,-17.5 13.6,-16.9 25.5,-30 43.8,-48 18,-17.8 18.2,-18.1 20.2,-24.9 2.5,-8.2 2.6,-9.4 0.5,-14.6 -3.3,-8.2 -16.7,-12.5 -30.1,-9.5 -4.1,0.9 -9.1,2.3 -11,3.2 -10.8,4.5 -40.1,27.7 -47.1,37.2 -1.4,2 -3.8,4.9 -5.3,6.6 -1.5,1.6 -6.9,9.3 -12.1,17 -5.2,7.7 -10.9,16.2 -12.8,19 -1.9,2.7 -5.9,8.1 -9,12 -3.1,3.8 -7.5,9.7 -9.9,13 -5.8,8 -24.6,26.5 -26.9,26.5 -1,0 -2.9,-1.2 -4.3,-2.6 -4.1,-4.4 -14.8,-12.7 -27.7,-21.3 -8,-5.3 -16.6,-12.4 -24.6,-19.9 -6.7,-6.4 -16.4,-15.3 -21.6,-19.7 -5.2,-4.4 -13.4,-11.6 -18.4,-16 -4.9,-4.4 -11.7,-10.3 -15,-13.1 -3.4,-2.8 -7.4,-6.5 -9,-8.2l-2.9,-3.1 3.6,-4.1c6.7,-7.3 12.2,-12.3 15,-13.5 3,-1.2 7.3,-0.8 37.7,4.3 10.9,1.8 20.2,2.7 27.5,2.7 10,0 11.5,-0.2 16.1,-2.7 5.5,-2.9 10,-7.5 11,-11.2 0.8,-3.4 -1.9,-9 -5.8,-11.9 -6.2,-4.8 -10.4,-5.8 -29.2,-7.3 -20.6,-1.6 -24.3,-2.1 -25.1,-3.4 -0.8,-1.4 9.7,-12.3 13.8,-14.3 7.1,-3.6 19.6,-7.9 34.1,-11.8 16.4,-4.3 23.6,-7.2 26.3,-10.2 1,-1 3.5,-2.8 5.6,-3.8 5.1,-2.6 11.4,-9.3 12.2,-12.9 1.4,-6.3 -4.1,-11.6 -15.1,-14.4 -7.1,-1.8 -11.1,-2 -16.3,-0.7 -2,0.5 -6.7,1.7 -10.6,2.6 -3.8,0.9 -8.8,2.4 -11.1,3.2 -2.2,0.8 -5.6,1.3 -7.5,1.1l-3.4,-0.3 -1.1,-18.5c-0.7,-12.2 -0.7,-20.7 -0.1,-25 1.6,-10.4 0.3,-15.7 -4.8,-20.6 -2.4,-2.3 -6.4,-4.9 -9.1,-5.8 -6.2,-2.1 -18.4,-2 -24.5,0.2z" fill="#000"/>
</svg>
