<?xml version="1.0" ?>
<svg height="500.0" viewBox="0 0 960.0 500.0" width="960.0" xmlns="http://www.w3.org/2000/svg">
  <path d="M463,50.4c-8.9,1.9 -12.1,3.4 -22,10.1 -16.2,11.2 -54.4,43.1 -80.7,67.6 -8,7.5 -8.8,14.7 -2.2,21.6 4.6,4.6 12.9,7 29.2,8.3 17.1,1.4 19.7,3.1 19.7,12.9 0,2.4 0.9,5.2 2.4,7.4 2.3,3.4 2.4,3.6 0.7,6.3 -2.2,3.6 -9,9.9 -17.3,15.9 -6.3,4.7 -16.1,12.6 -34.7,28.1 -5.4,4.5 -10.9,8.8 -12.2,9.5 -1.3,0.7 -6.3,1.6 -11,1.9 -10.9,0.7 -19,4.4 -23.3,10.7 -2.8,4 -2.9,4.5 -1.7,8.3 0.7,2.3 0.9,4.9 0.6,6 -0.3,1 -3.6,4.3 -7.3,7.3 -3.7,3 -11.8,10.4 -17.9,16.5 -10.1,9.8 -11.3,11.4 -11.3,14.5 0,11.3 22.6,17.3 37.1,9.8 2,-1.1 7.3,-4.9 11.8,-8.5 11.2,-8.9 11.5,-8.9 17,-2.9 27,29.5 35.3,40 43.6,55.3 3.1,5.8 8.2,13.9 11.3,18 13,17.2 15.2,20.5 15.2,22.5 0,1.9 10.1,12.1 15.7,15.9 6.1,4.1 10.9,5.5 18.9,5.6 12.2,0 18.4,-2.8 25.4,-11.6 12.9,-16.2 23.7,-27.9 56.1,-60.9 24.7,-25.1 28.3,-29 37.4,-40 2.7,-3.3 11.3,-12.5 19,-20.5 7.8,-8 16.7,-17.7 19.8,-21.5 3.1,-3.9 7.8,-9.6 10.4,-12.7 5.8,-6.8 10.3,-19.2 8.6,-23.7 -0.7,-2 -0.5,-3.9 1,-7.8 3.6,-9.7 0.3,-16.1 -10.6,-20.1 -8.1,-3.1 -19.2,-3 -29,0.2 -9.5,2.9 -22.6,10.7 -29.1,17.1 -11.4,11.2 -24.1,27.6 -30.4,39.2 -3.5,6.4 -9.8,17 -14.1,23.7 -4.2,6.7 -8.4,13.7 -9.3,15.6 -0.8,1.9 -3,6.9 -4.9,11 -1.8,4.1 -5.4,10.2 -8.1,13.5 -2.6,3.3 -7.4,9.6 -10.5,14 -3.2,4.4 -11.5,13.8 -18.5,21 -10.9,11.2 -12.9,12.8 -14.5,11.9 -2.9,-1.7 -11.2,-13.3 -15,-20.9 -2,-3.9 -7.1,-12.2 -11.3,-18.5 -4.3,-6.3 -8.7,-13.3 -9.8,-15.5 -1.1,-2.2 -4.4,-7.4 -7.4,-11.5 -21.8,-30.4 -24.1,-34.1 -23,-36.5 0.6,-1.3 5.8,-6.3 11.6,-11.2 17.7,-14.9 34.9,-29 42.2,-34.5 3.8,-2.8 10.5,-8.4 15,-12.3 4.4,-3.9 11.6,-9.8 16,-13 4.3,-3.2 12.2,-9.7 17.5,-14.4 5.2,-4.7 12.6,-10.9 16.4,-13.6 14.4,-10.5 18.5,-16.4 16.4,-23.8 -1.1,-3.9 -6.7,-11 -13.6,-17.2 -3.1,-2.7 -6.3,-6.9 -8,-10.3 -2.5,-5 -2.8,-6.8 -2.8,-15.2 0,-9.3 0.1,-9.7 4,-16.3 7.8,-13.3 8.8,-15.5 8.1,-19.2 -2.1,-10.9 -18.7,-16.8 -36.6,-13.1z" fill="#000"/>
</svg>
