<?xml version="1.0" ?>
<svg height="500.0" viewBox="0 0 960.0 500.0" width="960.0" xmlns="http://www.w3.org/2000/svg">
  <path d="M303.9,101.4c-2.3,1.6 -4.4,4.3 -5.7,7.5 -2.2,4.9 -2.2,5.4 -2.2,81.6l0,76.7 3.3,3.3c4.2,4.2 10.8,5.4 18.2,3.5 3.9,-1.1 21,-1.4 76.4,-1.7l71.4,-0.3 -0.6,64.1c-0.3,35.3 -0.9,64.4 -1.2,64.8 -0.4,0.3 -35.8,0.7 -78.8,0.9 -76.7,0.3 -78.2,0.3 -81.4,2.4 -3.9,2.3 -7.3,8.4 -7.3,12.8 0,4.5 3.4,10.5 7.4,12.9 5.9,3.7 20.8,4.2 106.1,3.9l79,-0.3 5.3,-2.4c5.6,-2.5 9.2,-6.1 9.2,-9.2 0,-1 -1.3,-3.4 -3,-5.2l-3,-3.5 0,-70.6 0,-70.6 89,0 89,0 0,75.2c0,51.2 0.4,76.6 1.1,79.2 4.1,14.8 25.8,14.7 29.8,-0.2 1.6,-5.9 1.7,-164.4 0.1,-170.3 -1.4,-5.3 -5.5,-9.4 -10.6,-10.8 -2.7,-0.8 -34,-1.1 -100.6,-1.1l-96.8,0 0,-55.5c0,-30.5 0.1,-55.6 0.3,-55.7 0.1,-0.2 45,-0.5 99.7,-0.8 97.8,-0.5 99.6,-0.5 103,-2.5 9.7,-5.8 9.7,-20.2 0,-26 -3.5,-2 -4.9,-2 -111.3,-2.3 -76,-0.2 -109.1,0.1 -111.9,0.9 -5.2,1.4 -9.4,5.5 -10.6,10.5 -1,3.7 -2.2,65.4 -2.2,110.1l0,21.3 -68.6,0 -68.7,0 0.5,-41.3c0.3,-22.6 0.2,-52.3 -0.2,-65.8 -0.7,-21.4 -1,-25.2 -2.8,-29.1 -3.7,-8.5 -13.8,-11.5 -21.3,-6.4z" fill="#000"/>
</svg>
