<?xml version="1.0" ?>
<svg height="500.0" viewBox="0 0 960.0 500.0" width="960.0" xmlns="http://www.w3.org/2000/svg">
  <path d="M454,83.6c-6.7,1.8 -13.1,5.5 -16,9.1 -3.5,4.5 -9.9,18.8 -11.5,25.5 -2.6,11.3 -3.6,23 -2.5,28.9 1.3,6.9 7.2,18.8 11.7,23.4 3.8,3.9 13,8.9 20.4,11.1 5.9,1.8 6.9,3 6,7.4 -0.6,3.5 -1.1,3.7 -31.7,19 -17,8.5 -32,16.2 -33.2,17 -1.7,1.1 -2.6,1.2 -4,0.4 -1.7,-1.1 -18.8,-32.2 -31.8,-57.7 -6.2,-12.2 -6.7,-13 -11,-14.9 -10.7,-4.7 -26.4,-0.6 -26.4,7 0,2.3 11.5,26.1 17.7,36.7 1.6,2.7 7.3,13.8 12.7,24.6 5.3,10.8 10.9,20.8 12.4,22.2 3.5,3.3 13.2,7.3 21.3,8.8 9.7,1.8 16.3,0.1 24.7,-6.4 7.5,-5.8 47.2,-26.1 48.4,-24.9 0.5,0.5 0.7,23.6 0.6,51.3l-0.3,50.5 -5.8,6.6c-6,6.9 -9.6,12.9 -22.9,38.7 -4.4,8.4 -13.3,23.5 -19.8,33.5 -13.4,20.6 -15.6,23.6 -17.5,23.6 -0.7,0 -3.1,-2.4 -5.3,-5.3 -2.2,-2.9 -7.1,-8.5 -10.8,-12.4 -5.9,-6 -7.7,-7.2 -12.1,-8.2 -10.3,-2.5 -22.3,2.5 -22.3,9.2 0,1.4 1.6,4.5 3.8,7 12.9,15.7 19.2,23.8 21.6,28 3.8,6.6 9,11.5 15.4,14.5 4.7,2.1 6.4,2.4 12.8,2 9.1,-0.6 15.6,-4.2 18.8,-10.3 1.2,-2.2 10.2,-16.2 20.1,-31 9.9,-14.9 20.6,-32.2 23.8,-38.5 11.4,-22.5 17,-32 18.7,-32 1.7,0 7.3,9.5 18.7,32 3.2,6.3 13.9,23.6 23.8,38.5 9.9,14.8 18.7,28.6 19.6,30.5 3.4,7.4 10.4,11 21.4,11 10.2,0 20.8,-6.9 25.9,-16.8 1.4,-2.7 9.3,-12.8 21.9,-27.9 2.1,-2.5 3.7,-5.6 3.7,-7 0,-6.7 -12,-11.7 -22.3,-9.2 -4.4,1 -6.2,2.2 -12.1,8.2 -3.7,3.9 -8.6,9.5 -10.8,12.4 -2.2,2.9 -4.6,5.3 -5.3,5.3 -1.9,0 -4.1,-3 -17.6,-23.7 -6.5,-10 -15.2,-24.7 -19.2,-32.5 -13.5,-26.3 -17.8,-33.5 -23.6,-39.5l-5.6,-5.8 -0.5,-52c-0.3,-28.6 -0.3,-52.3 0,-52.7 0.3,-0.4 15.8,-1 34.4,-1.3l33.7,-0.6 2.7,3.1c1.5,1.6 5,6.9 7.9,11.7 2.9,4.9 8.4,13.1 12.4,18.3 3.9,5.2 9.4,13.1 12.3,17.5 5.7,8.8 9,11.3 16.3,12.1 9.3,1.2 19.3,-3.8 19.3,-9.5 0,-3 -10.7,-20.3 -18.9,-30.6 -2.6,-3.3 -6.5,-8.9 -8.6,-12.5 -8.9,-15 -18.2,-25.7 -25.7,-29.6 -4.7,-2.4 -13.1,-2.8 -38.3,-1.5 -22.5,1.1 -43.4,0.1 -46.3,-2.2 -1.7,-1.3 -1.1,-5.8 0.8,-6.8 0.8,-0.4 4.4,-1.5 7.9,-2.5 7.2,-2 16,-7.3 21.8,-13.1 13.5,-13.5 16.1,-34.9 6.5,-54.3 -5.3,-10.8 -23.5,-27.3 -33.1,-30 -7,-2 -28.7,-5 -36.1,-4.9 -4.1,0 -10,0.7 -13,1.5z" fill="#000"/>
</svg>
