<?xml version="1.0" ?>
<svg height="500.0" viewBox="0 0 960.0 500.0" width="960.0" xmlns="http://www.w3.org/2000/svg">
  <path d="M615.4,51.9c-5.4,2.5 -7.4,5.5 -7.4,11.2 0,3.5 -0.7,5.6 -3,8.7 -3.8,5.2 -6.3,6.9 -13.5,8.7 -11.1,2.9 -14.7,7.1 -15.9,18.3 -0.6,5.6 -0.4,6.8 1.7,10.7 2.5,4.3 10.3,15.3 21.2,29.7 8.8,11.6 9.2,12.4 7.8,14.5 -0.7,1 -4.8,8.5 -9.1,16.8 -4.3,8.2 -11.8,22.4 -16.7,31.5 -14.1,26.3 -13.8,26 -19.6,21.9 -1.6,-1.1 -16.2,-8.5 -32.4,-16.5 -16.3,-8 -29.9,-15.2 -30.2,-16.1 -1,-2.6 1.1,-4.6 6.3,-5.8 15.5,-3.6 30,-15.9 35,-29.7 4,-11 2.6,-26.6 -3.4,-38.7 -5.3,-10.9 -23.5,-27.4 -33.1,-30.1 -9.2,-2.7 -29.9,-5.2 -38.6,-4.7 -17.3,0.9 -24.8,5.6 -31.9,20 -6.8,14 -10.6,33.8 -8.6,44.8 1.3,6.9 7.2,18.8 11.7,23.4 3.8,3.9 13,8.9 20.4,11.1 5.9,1.8 6.9,3 6,7.4 -0.6,3.5 -1.1,3.7 -31.7,19 -17,8.5 -32,16.2 -33.2,17 -1.7,1.1 -2.6,1.2 -4,0.4 -1.7,-1.1 -18.8,-32.2 -31.8,-57.7 -6.2,-12.2 -6.7,-13 -11,-14.9 -10.7,-4.7 -26.4,-0.6 -26.4,7 0,2.3 11.5,26.1 17.7,36.7 1.6,2.7 7.3,13.8 12.7,24.6 5.3,10.8 10.9,20.8 12.4,22.2 3.5,3.3 13.2,7.3 21.3,8.8 9.7,1.8 16.3,0.1 24.7,-6.4 7.5,-5.8 47.2,-26.1 48.4,-24.9 0.5,0.5 0.7,23.6 0.6,51.3l-0.3,50.5 -5.8,6.6c-6,6.9 -9.6,12.9 -22.9,38.7 -4.4,8.4 -13.3,23.5 -19.8,33.5 -13.4,20.6 -15.6,23.6 -17.5,23.6 -0.7,0 -3.1,-2.4 -5.3,-5.3 -2.2,-2.9 -7.1,-8.5 -10.8,-12.4 -5.9,-6 -7.7,-7.2 -12.1,-8.2 -10.3,-2.5 -22.3,2.5 -22.3,9.2 0,1.4 1.6,4.5 3.8,7 12.9,15.7 19.2,23.8 21.6,28 3.8,6.6 9,11.5 15.4,14.5 4.7,2.1 6.4,2.4 12.8,2 9.1,-0.6 15.6,-4.2 18.8,-10.3 1.2,-2.2 10.2,-16.2 20.1,-31 9.9,-14.9 20.6,-32.2 23.8,-38.5 11.4,-22.5 17,-32 18.7,-32 1.7,0 7.3,9.5 18.7,32 3.2,6.3 13.9,23.6 23.8,38.5 9.9,14.8 18.7,28.6 19.6,30.5 3.4,7.4 10.4,11 21.4,11 10.2,0 20.8,-6.9 25.9,-16.8 1.4,-2.7 9.3,-12.8 21.9,-27.9 2.1,-2.5 3.7,-5.6 3.7,-7 0,-6.7 -12,-11.7 -22.3,-9.2 -4.4,1 -6.2,2.2 -12.1,8.2 -3.7,3.9 -8.6,9.5 -10.8,12.4 -2.2,2.9 -4.6,5.3 -5.3,5.3 -1.9,0 -4.1,-3 -17.6,-23.7 -6.5,-10 -15.2,-24.7 -19.2,-32.5 -13.5,-26.3 -17.8,-33.5 -23.6,-39.5l-5.6,-5.8 -0.3,-50.9c-0.1,-28 0.1,-51.3 0.5,-51.7 1.3,-1.3 40.1,18.5 46.3,23.6 7.1,5.8 11.2,7.7 17.9,8.3 9.4,0.8 25.9,-4.5 30.7,-9.9 1.2,-1.3 7.3,-12.5 13.7,-24.9 6.3,-12.4 13,-25.2 14.9,-28.5 1.9,-3.3 3.7,-6.8 4.1,-7.8 1.6,-4.2 7.9,0.3 15.6,11.4 5.2,7.6 7.9,9.2 15.7,9.7 10.8,0.7 18.4,-3.4 18.4,-9.9 0,-3.6 -7,-13.8 -16.1,-23.4 -4.2,-4.4 -9.4,-10.7 -11.6,-14 -2.2,-3.3 -6.8,-9.3 -10.2,-13.3 -3.3,-4 -6.1,-7.9 -6.1,-8.7 0,-0.8 1.3,-2.4 2.9,-3.6 1.5,-1.1 4,-4.7 5.5,-7.9 2.3,-4.9 3.4,-6.1 6.7,-7.4 2.2,-0.9 5.1,-1.6 6.6,-1.6 9,0 19.3,-6.9 19.3,-12.9 0,-3.7 -6.2,-12.2 -13.7,-18.7 -6,-5.3 -15.3,-17.9 -15.3,-20.7 0,-2.6 -6.6,-8.5 -10.7,-9.6 -5.8,-1.6 -13.3,-1.3 -17.9,0.8z" fill="#000"/>
</svg>
