<?xml version="1.0" ?>
<svg height="500.0" viewBox="0 0 960.0 500.0" width="960.0" xmlns="http://www.w3.org/2000/svg">
  <path d="M710.8,105.4c-5,3.7 -4.2,13.6 1.7,21.5 4.2,5.6 17.2,18.5 55.5,54.6 16.2,15.3 34,32.2 39.5,37.5 5.5,5.3 13.5,12.9 17.8,17 4.2,4 7.7,7.9 7.7,8.5 0,1.4 -37.2,2.2 -147,3 -38.2,0.3 -80.5,0.7 -94,1 -13.5,0.3 -63.6,0.7 -111.5,1 -47.8,0.3 -96,0.7 -107,1 -21.7,0.5 -189.9,2 -226.5,2 -19.9,0 -22.5,-0.2 -22.8,-1.6 -0.3,-1.8 -1.7,-0.7 53.8,-45.9 71.6,-58.4 82.5,-67.4 83.7,-68.9 4.5,-5.8 -3,-22.5 -11.7,-26.1 -4.3,-1.8 -5.5,-1.1 -24.3,14.3 -13.9,11.4 -100.1,81.7 -130.2,106.2 -5.5,4.5 -12.6,9.7 -15.7,11.5 -7.1,4.2 -8.3,6.8 -8.3,18 0,7.9 0.3,9.2 3.7,16.2 4.1,8.1 4.5,8.6 24.3,24.8 7.1,5.8 19.4,15.9 27.4,22.6 37.1,30.6 89.2,73.5 94.6,77.9 3.3,2.6 10.1,8.8 15.1,13.6 9.5,9.1 12.1,10.3 17.6,8.6 1.5,-0.5 3.1,-2.1 3.8,-3.8 1.5,-3.6 0.8,-12.5 -1.3,-16.5 -2.3,-4.5 -8.6,-11.3 -12.6,-13.9 -2,-1.2 -9.8,-7.4 -17.3,-13.6 -7.5,-6.3 -20.3,-16.9 -28.4,-23.6 -57.5,-47.2 -79.9,-66.1 -79.9,-67.4 0,-1.5 16.4,-1.8 204.5,-3.3 45.4,-0.3 92.2,-0.8 104,-1.1 11.8,-0.3 63.4,-0.7 114.5,-1 51.2,-0.3 98.6,-0.7 105.5,-1 30.4,-1.1 181,-1.7 181,-0.7 0,1.3 -9.1,9.3 -32.5,28.9 -9.9,8.2 -26.1,21.8 -36,30.2 -9.9,8.4 -18.9,16 -20,16.9 -21.2,17.6 -30.4,25.8 -31.4,27.8 -4.7,10.5 6.1,28.4 17.2,28.4 2.8,0 4.7,-0.9 8.5,-4.2 2.7,-2.4 17,-14.5 31.8,-26.9 72.6,-61.2 92.3,-78 96,-82.1 2.1,-2.5 6.9,-7 10.6,-10.1 7.7,-6.5 9.4,-10.2 8.4,-17.9 -1.1,-8.4 -5.3,-15.5 -14.6,-24.9 -4.7,-4.8 -22.9,-22.3 -40.5,-39 -17.6,-16.7 -32.2,-30.5 -32.5,-30.9 -2.4,-2.5 -53.4,-50.7 -63.1,-59.7 -6.4,-5.9 -13.4,-10.3 -16.1,-10.3 -0.7,0 -2.1,0.6 -3,1.4z" fill="#000"/>
</svg>
