<?xml version="1.0" ?>
<svg height="500.0" viewBox="0 0 960.0 500.0" width="960.0" xmlns="http://www.w3.org/2000/svg">
  <path d="M711.2,103.7c-2,0.8 -4.2,5.9 -4.2,9.5 0,4 2.9,10.5 6.7,15.3 2.5,3.2 21.1,21.1 100,96.3 10.6,10.1 19.3,19 19.3,19.8 0,1.2 -7,1.4 -44.7,1.5 -24.7,0 -45.5,0.2 -46.4,0.4 -0.9,0.1 -43.4,0.6 -94.5,0.9 -51.1,0.4 -95.4,0.9 -98.4,1.1 -3,0.2 -38.3,0.5 -78.5,0.7 -53.8,0.2 -73,0 -73,-0.8 0,-0.7 24.8,-26.2 55,-56.8 30.3,-30.6 55.4,-56.8 55.9,-58.1 3.1,-8 -15.1,-14.4 -25.4,-9 -1.4,0.8 -29.7,28.6 -63,62 -33.3,33.3 -61.8,61.3 -63.3,62.1 -4.2,2.3 -90.1,2.6 -90.4,0.4 -0.1,-0.9 7.4,-7.7 18.4,-16.5 58.5,-47.3 84.3,-68.7 85.4,-70.8 3.1,-5.8 -1.8,-18.8 -9.1,-24.2 -5.5,-4.1 -8.5,-3.4 -17.1,3.7 -4.2,3.5 -14.5,11.9 -23,18.8 -8.4,6.9 -23.2,18.9 -32.9,26.8 -9.6,7.9 -26.4,21.6 -37.4,30.5 -10.9,8.9 -24.1,19.7 -29.2,23.9 -13.6,11.1 -12.2,10.9 -58,10.6 -25.3,-0.2 -37.8,-0.6 -38.1,-1.4 -0.2,-0.5 13.7,-12.5 30.9,-26.5 17.1,-13.9 41.4,-33.7 53.9,-43.9 12.4,-10.2 29.5,-24.1 37.8,-30.9 8.7,-7 15.7,-13.5 16.3,-15 2.1,-5.5 -2.5,-16.8 -9.2,-22.4 -4,-3.4 -7.2,-4.2 -10.2,-2.6 -1.2,0.7 -13.1,10.1 -26.3,20.9 -13.2,10.8 -38.8,31.7 -57,46.5 -18.1,14.8 -42.7,34.8 -54.5,44.5 -11.8,9.7 -23.9,18.9 -26.8,20.6 -6.2,3.4 -8,6.8 -8.8,15.6 -0.5,5.1 -0.1,7.7 2,13.8 1.5,4.1 3.8,9.1 5.2,11.2 1.5,2.1 9.4,9.2 17.5,15.8 8.2,6.7 19.6,16 25.4,20.8 11.8,9.9 25.2,20.9 76,62.8 19.8,16.3 38.3,32.1 41,35 4.7,5 10.4,8.4 14,8.4 0.9,0 3,-1.3 4.6,-2.9 2.4,-2.5 2.9,-3.8 2.9,-7.9 0,-7.3 -4.9,-16.3 -12,-22 -7.8,-6.3 -55.8,-45.6 -71.6,-58.7 -7.3,-6.1 -21.5,-17.8 -31.5,-26 -20.9,-17.1 -26.6,-22.2 -25.9,-22.8 0.3,-0.2 20.8,-0.7 45.5,-1 41.4,-0.6 45.4,-0.5 50,1.1 3.7,1.3 10.5,6.4 26.5,19.8 67.5,56.5 90.8,76 101.8,85.4 20,17 23.4,18.6 28.3,13.4 4.4,-4.7 2.3,-15.3 -4.7,-23.7 -2.1,-2.5 -9.5,-9 -29.4,-25.6 -2.5,-2 -21.4,-17.8 -42,-35 -20.6,-17.3 -38.3,-32.3 -39.4,-33.5 -1.8,-2.1 -1.8,-2.1 2,-2.8 2.2,-0.4 20.3,-0.7 40.4,-0.7 41.8,-0.1 37.5,-0.9 50.6,10.2 3.8,3.2 11,8.6 15.9,12 8.1,5.5 27.4,19.9 56,41.7 5.5,4.2 20.4,15.5 33,25 12.7,9.6 26,19.8 29.8,22.8 3.7,2.9 8.4,6 10.5,6.9 5.4,2.3 14.9,2 19.9,-0.5 4.3,-2.3 5.3,-3.7 5.3,-8.2 0,-3.3 0.2,-3.2 -25.2,-22.2 -80.2,-60.3 -112.8,-85.7 -112.8,-87.9 0,-0.5 20.6,-1 45.8,-1 25.1,-0.1 46.8,-0.2 48.2,-0.4 1.4,-0.1 43,-0.5 92.5,-0.9 103.9,-0.7 174.3,-1.4 224.2,-2.1 22.6,-0.4 35.3,-0.2 35.7,0.4 0.7,1.1 -8.2,9.1 -34.4,31 -9.6,8 -24.9,20.9 -34,28.6 -9.1,7.7 -23.5,19.8 -32,26.8 -17.1,14.2 -20,17.4 -20,22.7 0,13 13.8,27.4 22,23 1.9,-1 32.6,-26.5 54.6,-45.4 3.9,-3.4 9.2,-7.9 11.9,-10.1 19.4,-15.9 59.6,-50.3 67,-57.4 5,-4.7 11.1,-10.5 13.7,-12.7 3.4,-3 4.9,-5.2 5.4,-7.9 1.4,-7.6 -1.5,-17.7 -7.3,-25 -1.5,-2 -19.2,-19.2 -39.3,-38.3 -20,-19.1 -40.5,-38.6 -45.5,-43.3 -4.9,-4.7 -21.4,-20.4 -36.5,-34.8 -29.9,-28.5 -36.6,-33.5 -41.8,-31.4z" fill="#000"/>
</svg>
