<?xml version="1.0" ?>
<svg height="500.0" viewBox="0 0 960.0 500.0" width="960.0" xmlns="http://www.w3.org/2000/svg">
  <path d="M440,56.3c-4.1,0.7 -9,2.1 -10.8,3.1 -1.9,1 -6.2,1.9 -10,2.1 -11.2,0.6 -35.5,10.4 -53.2,21.5 -22.4,14 -41.6,32.5 -56.4,54.3 -47,69.4 -42.8,162.6 10.3,232.2 6.4,8.5 24.2,26.6 33,33.7 13.5,10.9 28.2,20.1 40.7,25.4 30,12.9 56.6,18.2 85.4,17.1 36,-1.4 68.4,-11.8 97.3,-31.3 13.2,-9 15.1,-10.6 28.1,-23.2 34.6,-34 55.5,-82.8 55.6,-129.9 0,-7 -0.6,-13.4 -1.5,-17 -1.1,-4.1 -1.4,-7.9 -0.9,-12.8 1.1,-13.2 -6.5,-40.3 -18.1,-64.1 -27.6,-56.6 -78,-96.4 -138,-109 -10,-2.1 -15.4,-2.6 -33,-2.9 -14,-0.3 -23.5,0 -28.5,0.8zM500.5,87.5c64.3,11.1 115.4,57.5 129.9,118 1.5,6 3.6,14.1 4.7,17.8 1.5,4.8 2,8 1.5,11 -0.4,2.3 -0.9,9.1 -1.2,15.2 -1.4,28.9 -8.7,55.3 -22,78.7 -24.4,43.2 -66.8,74.2 -114.7,83.8 -39.2,7.9 -79.5,2 -112.7,-16.4 -17.1,-9.5 -27.3,-17 -38.5,-28.1 -21.9,-22 -35.7,-47.7 -42.7,-79.8 -3,-13.7 -3.3,-48.3 -0.5,-61.9 12.6,-62.6 54.5,-111.1 113.9,-131.7 6.2,-2.1 12.7,-4.6 14.3,-5.5 1.8,-1 5.7,-1.6 10,-1.7 3.9,-0.1 9.9,-0.5 13.5,-0.9 9.3,-1.2 33.9,-0.3 44.5,1.5zM447.1,223.1c-9.4,4.7 -13.3,10.8 -13.3,21.1 0,7.8 4,16.3 10.6,22.6 10.3,9.7 20.3,10.6 34.7,3.1 10.8,-5.7 13.4,-9.1 13.4,-17.8 0,-5.6 -0.6,-7.6 -3.4,-12.9 -4.1,-7.5 -7.9,-10.7 -18.7,-15.6 -10.4,-4.6 -14.9,-4.7 -23.3,-0.5z" fill="#000"/>
</svg>
