<?xml version="1.0" ?>
<svg height="500.0" viewBox="0 0 960.0 500.0" width="960.0" xmlns="http://www.w3.org/2000/svg">
  <path d="M440.3,56.4c-4.6,0.8 -9.7,2 -11.5,2.9 -1.8,0.8 -6.2,1.8 -9.8,2 -8.1,0.6 -20.8,5.1 -36.5,12.7 -18.1,8.8 -33,19.2 -49,34.1 -4.7,4.4 -6.4,5.5 -8,4.9 -1.1,-0.4 -12.9,-11 -26.3,-23.6 -13.4,-12.6 -26,-23.7 -28,-24.6 -9.9,-4.6 -25.2,0.2 -25.2,7.9 0,3 2.5,5.6 28,29.2 21.5,20 33,31.2 34.1,33.3 0.8,1.5 0.1,3.5 -3.6,9.6 -25.4,42.7 -33.7,91 -23.9,139.6 10.8,53.7 41.2,99.4 87.1,130.6 12.9,8.9 18.7,11.9 34.8,18.5 39.8,16.2 87.7,17.8 128.3,4.3 20,-6.6 39.4,-16.9 56.3,-29.6 3.1,-2.3 6.3,-4.2 7.2,-4.2 1,0 5.9,3.9 11,8.7 5.1,4.9 15.8,14.9 23.7,22.4 31,29 28.8,27.4 39,27.4 9.3,-0.1 16.9,-5.5 15.4,-11.1 -0.3,-1.1 -15.8,-16.3 -34.5,-33.8 -22.7,-21.3 -33.9,-32.5 -33.9,-33.8 0,-1.1 2.2,-4.8 4.9,-8.2 16.7,-21 29.2,-47.1 35.6,-74.1 4.7,-20 6.4,-42.3 4.1,-53.5 -0.9,-4.2 -1.5,-11.4 -1.5,-16 0.3,-21.3 -14,-61.1 -31.4,-87.3 -30.3,-45.5 -74.8,-75.8 -126.8,-86.3 -11.1,-2.2 -16.6,-2.7 -32.4,-3 -12.6,-0.2 -21.8,0.1 -27.2,1zM502,88.9c21.1,3.7 45.6,13.2 61.3,23.8 3.8,2.7 8.6,5.9 10.6,7.2 7.4,5 27.7,26.4 34.1,36.1 11,16.8 18.3,33.1 22.1,49.5 1.2,4.9 3,12 4,15.7 1.8,6.2 1.9,8.3 1,26.5 -1.4,29.5 -6.5,50.3 -18,73.3 -7.8,15.7 -24.4,39 -27.8,39 -0.7,0 -3.7,-2.1 -6.6,-4.7 -6.1,-5.7 -33,-30.8 -43.7,-40.9 -4.1,-3.9 -16.5,-15.5 -27.5,-25.8 -11,-10.2 -20.5,-19.6 -21.2,-20.8 -0.9,-1.7 -0.8,-2.8 0.8,-5.7 1.2,-2.2 1.9,-5.6 1.9,-8.7 0,-12.1 -7.2,-22.3 -19.9,-28.1 -11.6,-5.2 -14.8,-5.7 -22.6,-3.2 -5.8,2 -6.7,2 -8.7,0.6 -1.3,-0.8 -15.6,-14 -31.8,-29.3 -16.2,-15.2 -35.7,-33.6 -43.2,-40.7 -9.9,-9.3 -13.8,-13.6 -13.8,-15.2 0,-2.6 5.6,-8 17.5,-17 14.3,-10.8 31.3,-19.7 47.5,-25 4.7,-1.5 10.8,-3.8 13.5,-5.1 3.5,-1.6 6.8,-2.3 11,-2.3 3.3,0 9.2,-0.4 13,-1 10.1,-1.4 33.1,-0.6 46.5,1.8zM337.8,162.1c1.5,1.1 6.3,5.5 10.7,9.7 4.4,4.3 24.8,23.4 45.3,42.7 31.4,29.4 38.1,36.1 42.2,42.7 6.6,10.1 10.7,14 19.5,18.2 5.5,2.6 9.8,5.9 18.2,13.8 18.9,17.9 53.2,50.1 68.3,64.2 18.1,16.8 26.1,25.1 25.8,26.5 -0.5,2.3 -15.1,11.7 -28.3,18.2 -37.7,18.5 -79,22.6 -119,11.8 -32.5,-8.8 -61.7,-27.4 -83,-52.9 -22.8,-27.3 -35.5,-63.5 -35.5,-100.9 0,-22.2 6,-49.2 15.6,-69.8 5.9,-12.7 14.2,-26.3 16.1,-26.3 0.8,0 2.7,0.9 4.1,2.1z" fill="#000"/>
</svg>
