<?xml version="1.0" ?>
<svg height="500.0" viewBox="0 0 960.0 500.0" width="960.0" xmlns="http://www.w3.org/2000/svg">
  <path d="M589.1,117.7c-44.9,45.2 -83.8,83.7 -86.6,85.6 -2.7,1.9 -7.8,6.5 -11.3,10.1 -3.5,3.6 -7.1,6.6 -8,6.6 -1.6,0 -9.8,-7.6 -58.3,-54 -11.8,-11.2 -30.4,-29 -41.4,-39.4 -20.9,-19.9 -23.6,-22.5 -63.3,-60.5 -13.4,-12.7 -25.8,-24.1 -27.5,-25.1 -10.7,-6.6 -17.4,3.5 -11.2,16.8 2.6,5.6 4.7,7.8 33.5,35.2 10.2,9.6 28.8,27.4 41.5,39.5 23.5,22.5 59.9,57.2 61.9,59 15.7,14.8 44.7,42.4 46.4,44.2 1.3,1.4 2.2,3.1 2,3.9 -0.2,0.8 -43.1,44.2 -95.4,96.6 -52.4,52.4 -95.5,96.4 -95.9,97.6 -2.5,8.5 7,23.5 15.8,24.8 3.1,0.5 6.1,-2.4 101.2,-97.5 53.9,-54 98.6,-98.1 99.4,-98.1 1.4,0 3.7,2.1 26.6,24 6.1,5.8 19.4,18.4 29.5,28 10.2,9.6 28.4,26.9 40.5,38.5 111.5,106.5 118.1,112.7 121.8,114.8 4.2,2.3 6.1,2.2 9.4,-0.7 2.3,-2 2.8,-3.2 2.8,-7.3 0,-10.3 -1.8,-12.5 -44.2,-52.9 -49.7,-47.3 -50.3,-47.9 -91.8,-87.5 -19.3,-18.4 -44,-42 -55,-52.4 -11,-10.5 -20.2,-19.8 -20.3,-20.9 -0.3,-1.2 1.6,-3.9 5,-7.5 3,-3.1 6.6,-7.2 8,-9.1 1.4,-1.9 39.2,-40.3 83.9,-85.4 49.5,-49.7 81.7,-82.9 82.1,-84.5 2.2,-7.7 -7.6,-22.5 -15.6,-23.8l-3.9,-0.6 -81.6,82z" fill="#000"/>
</svg>
