<svg xmlns="http://www.w3.org/2000/svg" viewBox="0 0 87.87 87.87" ><path d="M39.71 77.14l-1.15 8.94c1.8.23 3.63.35 5.45.35 1.88 0 3.77-.13 5.62-.37l-1.18-8.94c-2.87.39-5.86.39-8.74.02zM69.93 10.2a42.21 42.21 0 0 0-9.6-5.56l-3.46 8.33a33.18 33.18 0 0 1 7.56 4.38l5.5-7.15zM4.78 60.31a42.16 42.16 0 0 0 5.58 9.58l7.13-5.51a33.37 33.37 0 0 1-4.39-7.55l-8.32 3.48zm13.44 17.4a42.23 42.23 0 0 0 9.62 5.53l3.43-8.34a33.17 33.17 0 0 1-7.57-4.36l-5.48 7.17zm38.67-2.85l3.47 8.32c3.42-1.42 6.65-3.3 9.59-5.57l-5.5-7.14c-2.33 1.79-4.87 3.27-7.56 4.39zm29.29-36.5l-8.94 1.17c.19 1.44.28 2.92.28 4.39 0 1.46-.1 2.92-.28 4.36l8.94 1.16c.24-1.82.36-3.68.36-5.52 0-1.86-.12-3.73-.36-5.56zM70.62 64.28l7.15 5.49c2.26-2.95 4.13-6.18 5.55-9.61l-8.33-3.45c-1.12 2.7-2.59 5.25-4.37 7.57zm12.69-36.64c-1.42-3.42-3.29-6.65-5.55-9.6l-7.15 5.49c1.78 2.32 3.26 4.87 4.38 7.56l8.32-3.45zm-72.8 16.27c0-18.47 15.03-33.5 33.5-33.5 1.48 0 2.96.1 4.41.29l1.17-8.94c-1.84-.24-3.72-.36-5.59-.36C20.57 1.39 1.5 20.47 1.5 43.91c0 1.87.12 3.75.36 5.59l8.94-1.18c-.19-1.45-.29-2.93-.29-4.41zm37.01-14.93c-.98 1.65-.41 3.87 1.26 4.86 1.72 1.02 3.81.48 4.83-1.24 1.01-1.72.48-3.85-1.21-4.85-1.66-.99-3.9-.42-4.88 1.23zM26.16 61.56h34.02v3H26.16zm7.75-6.19c.16 1.04.99 1.77 1.92 1.77a1.84 1.84 0 0 0 .33-.03c.1-.02.19-.05.29-.09a.17.17 0 0 1 .01.07c.28.89 1.04 1.44 1.85 1.44a1.99 1.99 0 0 0 .63-.11l7.08-2.31c.98-.36 1.53-1.49 1.26-2.57l-1.07-4.31c.07-.01.14-.01.2-.03l8.35-2.83a1.64 1.64 0 0 0 1-.96 1.63 1.63 0 0 0-.11-1.38l-3.55-6.21c-.14-.25-.7-1.06-1.1-1.23l-5.57-2.87c-1.07-2.78-1.16-5.07-.23-6.8 1.43-2.65 4.85-3.33 4.94-3.35a1.62 1.62 0 0 0 1.31-1.88c-.16-.88-1-1.48-1.88-1.32-.2.04-5.01.93-7.21 4.98-1.49 2.75-1.4 6.17.28 10.15.01.03.04.06.06.09l-4.63 8.96-3.98 1.6c-.88.35-1.41 1.34-1.25 2.35l1.07 6.87zm16.12-14.63l1.82 3.19-4.2 1.42 2.38-4.61zm-8.54 6.97a1.51 1.51 0 0 0 .28-.15 1.88 1.88 0 0 0 .05.33l1.21 4.84-5.3 1.66-.76-4.86 4.52-1.82z"/></svg>