<svg xmlns="http://www.w3.org/2000/svg" viewBox="0 0 87.87 87.87" ><path d="M58.86 60.49c-.01-.03-.01-.06-.01-.09l-5.09-20.78c4.6-3.5 5.47-8.93 2.14-14l-1.54-2.1c-.38-.52-1.03-.73-1.62-.57-.3 0-.61.09-.87.28L26.21 41.36c-.69.49-.85 1.44-.37 2.13.3.42.77.65 1.25.65a1.53 1.53 0 0 0 .88-.28l7.9-5.58.03 7.8-7.73 13.76a1.79 1.79 0 0 0-.22.65h-3.68v3h39.69v-3h-5.1zm-3.39 0h-6.74l1.35-7.12 3.47-.79 1.92 7.91zM42.45 42.64l.04-9.04 10.18-7.2.71.96c2.44 3.71 1.83 7.42-1.63 9.94l-9.31 5.85v-.51zm5.86.44l-.89 5.61c-.03.08-.06.17-.08.26l-2.18 11.54h-2.71V46.76l5.86-3.68zm-9.54 5.42v11.98h-6.73l6.73-11.98zm-2.9-15.71a2.82 2.82 0 0 0 2.89-2.86c.01-1.62-1.24-2.91-2.85-2.91-1.57-.01-2.92 1.31-2.93 2.87s1.3 2.88 2.89 2.9zm13.34-1.13c-1.57-.01-2.92 1.31-2.93 2.87s1.3 2.89 2.89 2.9a2.82 2.82 0 0 0 2.89-2.86c.01-1.62-1.25-2.9-2.85-2.91zM4.74 60.22a42.7 42.7 0 0 0 5.55 9.59l7.15-5.5a33.71 33.71 0 0 1-4.38-7.55l-8.32 3.46zm13.39 17.42a42.48 42.48 0 0 0 9.59 5.55l3.46-8.33a33.67 33.67 0 0 1-7.55-4.37l-5.5 7.15zM44.01 1.39C20.57 1.39 1.5 20.47 1.5 43.91c0 1.87.12 3.75.36 5.58l8.94-1.18c-.19-1.45-.29-2.93-.29-4.41 0-18.47 15.03-33.5 33.5-33.5 18.48 0 33.51 15.03 33.51 33.5S62.49 77.4 44.01 77.4a34.14 34.14 0 0 1-4.41-.29l-1.17 8.94a43.33 43.33 0 0 0 5.58.36c23.45 0 42.52-19.07 42.52-42.51.01-23.43-19.07-42.51-42.52-42.51z"/></svg>