<svg xmlns="http://www.w3.org/2000/svg" viewBox="0 0 87.87 87.87" ><path d="M44.02 1.39C20.57 1.39 1.5 20.47 1.5 43.91s19.07 42.52 42.52 42.52 42.52-19.07 42.52-42.52c0-23.44-19.08-42.52-42.52-42.52zm0 76.02c-18.47 0-33.5-15.03-33.5-33.5s15.03-33.5 33.5-33.5 33.5 15.03 33.5 33.5-15.03 33.5-33.5 33.5zm22.24-27.32a1.86 1.86 0 0 0-2.53-.68l-5.98 3.45-1.74-2.82 3.79-2-6.6-10.18c2.99-1.25 4.91-3.1 5.68-5.55 1.37-4.34-1.58-8.71-1.7-8.89a1.75 1.75 0 0 0-2.43-.46 1.75 1.75 0 0 0-.46 2.43c.02.03 2.11 3.17 1.25 5.88-.48 1.5-1.85 2.69-4.06 3.52l-5.54 1.95-18.66-10.87a1.74 1.74 0 0 0-2.39.63c-.48.84-.21 1.91.63 2.39l10.11 5.9-4.01 7.99-3.38 5.48-2.57-4.99c-.49-.96-1.66-1.33-2.62-.84a1.95 1.95 0 0 0-.84 2.62l4.14 8.06c.32.62.95 1.03 1.65 1.05h.08c.67 0 1.3-.35 1.65-.92l4.18-6.77 4.31 14.52H26.27v3h35.82v-3H50.7v-8.13l2.04-1.08 2.81 4.55c.35.57.95.88 1.58.88a1.82 1.82 0 0 0 .92-.25l7.53-4.34a1.85 1.85 0 0 0 .68-2.53zM46.82 60.98H42.4l-4.38-14.75 3.81-7.83 4.99 2.91v19.67zm-5.08-28.66c1.65.01 2.92-1.25 2.93-2.9s-1.26-2.95-2.89-2.96c-1.6-.01-2.96 1.33-2.97 2.91-.02 1.59 1.32 2.94 2.93 2.95zm7.54 1.56c1.65.01 2.92-1.25 2.93-2.9s-1.26-2.95-2.89-2.96c-1.6-.01-2.96 1.33-2.97 2.91-.01 1.6 1.33 2.94 2.93 2.95z"/></svg>