<svg xmlns="http://www.w3.org/2000/svg" viewBox="0 0 90.709 90.709"><circle cx="45.354" cy="45.355" r="43.52" fill="#194093"/><path d="M45.354 2.835c23.483 0 42.52 19.037 42.52 42.52s-19.037 42.52-42.52 42.52-42.52-19.037-42.52-42.52 19.037-42.52 42.52-42.52m0-2C20.806.835.834 20.806.834 45.355s19.971 44.52 44.52 44.52 44.52-19.971 44.52-44.52S69.903.835 45.354.835h0z" fill="#252e78"/><path d="M45.354 64.668c21.272 0 38.517-13.506 38.517-19.314S66.626 26.04 45.354 26.04 6.838 39.546 6.838 45.354s17.244 19.314 38.516 19.314zm0-4c-13.702 0-24.666-5.83-30.33-10.489 1.903-.778 3.246-2.642 3.246-4.825s-1.343-4.047-3.245-4.825c5.664-4.659 16.628-10.489 30.33-10.489s24.666 5.83 30.33 10.489c-1.903.778-3.246 2.642-3.246 4.825s1.343 4.047 3.245 4.825c-5.664 4.659-16.628 10.489-30.33 10.489z" fill="#fff"/><path d="M40.415 58.117c1.646.265 3.308.398 4.939.398a32.08 32.08 0 0 0 7.707-.956v-5.196c-2.313.694-4.901 1.151-7.707 1.151a25.58 25.58 0 0 1-2.044-.082l-.001-5.578h6.999v-5h-7l-.001-5.578 2.047-.083a26.67 26.67 0 0 1 6.707.873v-5.149c-2.137-.459-4.389-.724-6.707-.724a31.2 31.2 0 0 0-4.946.4l-2.102.339.005 24.845 2.104.34z" fill="#f8c409"/></svg>