<?xml version="1.0" encoding="iso-8859-1"?>
<!-- Generator: Adobe Illustrator 22.1.0, SVG Export Plug-In . SVG Version: 6.00 Build 0)  -->
<svg version="1.1" xmlns="http://www.w3.org/2000/svg" xmlns:xlink="http://www.w3.org/1999/xlink" x="0px" y="0px"
	 viewBox="0 0 90.709 90.709" style="enable-background:new 0 0 90.709 90.709;" xml:space="preserve">
<g id="ratownik-1">
	<g>
		<g>
			<circle style="fill:#194093;" cx="45.354" cy="45.355" r="43.52"/>
			<g>
				<path style="fill:#252E78;" d="M45.354,2.835c23.483,0,42.52,19.037,42.52,42.52s-19.037,42.52-42.52,42.52
					s-42.52-19.037-42.52-42.52S21.871,2.835,45.354,2.835 M45.354,0.835c-24.548,0-44.52,19.971-44.52,44.52
					s19.971,44.52,44.52,44.52s44.52-19.971,44.52-44.52S69.903,0.835,45.354,0.835L45.354,0.835z"/>
			</g>
		</g>
	</g>
</g>
<g id="Warstwa_4">
	<g>
		<path style="fill:#FFFFFF;" d="M45.354,64.668c21.272,0,38.517-13.506,38.517-19.314c0-5.808-17.245-19.314-38.517-19.314
			S6.838,39.546,6.838,45.354C6.838,51.162,24.082,64.668,45.354,64.668z M45.354,60.668c-13.702,0-24.666-5.83-30.33-10.489
			c1.903-0.778,3.246-2.642,3.246-4.825s-1.343-4.047-3.245-4.825c5.664-4.659,16.628-10.489,30.33-10.489
			c13.702,0,24.666,5.83,30.33,10.489c-1.903,0.778-3.246,2.642-3.246,4.825s1.343,4.047,3.245,4.825
			C70.02,54.838,59.056,60.668,45.354,60.668z"/>
		<path style="fill:#F8C409;" d="M40.415,58.117c1.646,0.265,3.308,0.398,4.939,0.398c2.684,0,5.278-0.354,7.707-0.956v-5.196
			c-2.313,0.694-4.901,1.151-7.707,1.151c-0.676,0-1.358-0.027-2.044-0.082l-0.001-5.578h6.999v-5h-7l-0.001-5.578
			c0.686-0.056,1.369-0.083,2.047-0.083c2.409,0,4.654,0.341,6.707,0.873v-5.149c-2.137-0.459-4.389-0.724-6.707-0.724
			c-1.637,0-3.301,0.135-4.946,0.4l-2.102,0.339l0.005,24.845L40.415,58.117z"/>
	</g>
</g>
</svg>
