<svg xmlns="http://www.w3.org/2000/svg" viewBox="0 0 90.709 90.709"><circle transform="matrix(.9239 -.3827 .3827 .9239 -13.9041 20.8088)" cx="45.354" cy="45.355" r="43.52" fill="#194093"/><path d="M45.354 2.835c23.483 0 42.52 19.037 42.52 42.52s-19.037 42.52-42.52 42.52-42.52-19.037-42.52-42.52 19.037-42.52 42.52-42.52m0-2C20.806.835.834 20.806.834 45.355s19.971 44.52 44.52 44.52 44.52-19.971 44.52-44.52S69.903.835 45.354.835h0z" fill="#252e78"/><path d="M24.141 55.829V13.401h42.427z" fill="#fff"/><path d="M66.568 55.829H24.141l42.427-42.428zm-9.86 5.156l-2.828 2.828 5.085 5.085H24.14v4h34.825l-5.085 5.085 2.828 2.828 9.913-9.913z" fill="#f8c409"/></svg>