<?xml version="1.0" encoding="iso-8859-1"?>
<!-- Generator: Adobe Illustrator 22.1.0, SVG Export Plug-In . SVG Version: 6.00 Build 0)  -->
<svg version="1.1" xmlns="http://www.w3.org/2000/svg" xmlns:xlink="http://www.w3.org/1999/xlink" x="0px" y="0px"
	 viewBox="0 0 90.709 90.709" style="enable-background:new 0 0 90.709 90.709;" xml:space="preserve">
<g id="ratownik-1">
	<g>
		<g>
			
				<ellipse transform="matrix(0.9239 -0.3827 0.3827 0.9239 -13.9041 20.8088)" style="fill:#194093;" cx="45.354" cy="45.355" rx="43.52" ry="43.52"/>
			<g>
				<path style="fill:#252E78;" d="M45.354,2.835c23.483,0,42.52,19.037,42.52,42.52s-19.037,42.52-42.52,42.52
					s-42.52-19.037-42.52-42.52S21.871,2.835,45.354,2.835 M45.354,0.835c-24.548,0-44.52,19.971-44.52,44.52
					s19.971,44.52,44.52,44.52s44.52-19.971,44.52-44.52S69.903,0.835,45.354,0.835L45.354,0.835z"/>
			</g>
		</g>
	</g>
</g>
<g id="Warstwa_4">
	<g>
		<path style="fill:#F8C409;" d="M33.372,44.435l-4.493-7.781c0.986-0.188,1.96-0.409,2.907-0.697l-4.999-8.659
			c1-0.153,1.978-0.374,2.927-0.662l-6.097-10.561L17.52,26.636c0.949,0.288,1.927,0.51,2.927,0.662l-4.999,8.659
			c0.947,0.288,1.921,0.509,2.907,0.697L12.001,47.66c2.929,0.89,6.001,1.448,9.171,1.641v4.149h4.89v-4.149
			c1.644-0.1,3.259-0.303,4.844-0.595L33.372,44.435z"/>
		<path style="fill:#F8C409;" d="M72.353,36.654c0.986-0.188,1.96-0.409,2.907-0.697l-4.999-8.659c1-0.153,1.978-0.374,2.927-0.662
			l-6.097-10.561l-6.097,10.561c0.949,0.288,1.927,0.51,2.927,0.662l-4.999,8.659c0.947,0.288,1.921,0.509,2.907,0.697l-4.06,7.032
			l2.987,5.174c1.279,0.204,2.573,0.362,3.89,0.442v4.149h4.89v-4.149c3.171-0.193,6.242-0.752,9.171-1.641L72.353,36.654z"/>
		<path style="fill:#FFFFFF;" d="M53.965,35.407l-8.178-14.164l-8.178,14.164c1.273,0.386,2.584,0.684,3.926,0.888L34.83,47.909
			c1.27,0.386,2.577,0.683,3.899,0.935l-8.522,14.761c3.928,1.193,8.048,1.943,12.301,2.202v5.565h6.558v-5.565
			c4.253-0.259,8.373-1.009,12.301-2.202l-8.522-14.761c1.323-0.252,2.629-0.549,3.899-0.935l-6.705-11.613
			C51.381,36.091,52.692,35.794,53.965,35.407z"/>
		<path style="fill:#F8C409;" d="M61.412,74.575h-31.25c-1.104,0-2,0.896-2,2s0.896,2,2,2h31.25c1.104,0,2-0.896,2-2
			S62.517,74.575,61.412,74.575z"/>
	</g>
</g>
</svg>
