<svg xmlns="http://www.w3.org/2000/svg" viewBox="0 0 90.709 90.709"><circle transform="matrix(.9239 -.3827 .3827 .9239 -13.9041 20.8088)" cx="45.354" cy="45.355" r="43.52" fill="#194093"/><path d="M45.354 2.835c23.483 0 42.52 19.037 42.52 42.52s-19.037 42.52-42.52 42.52-42.52-19.037-42.52-42.52 19.037-42.52 42.52-42.52m0-2C20.806.835.834 20.806.834 45.355s19.971 44.52 44.52 44.52 44.52-19.971 44.52-44.52S69.903.835 45.354.835h0z" fill="#252e78"/><path d="M33.372 44.435l-4.493-7.781 2.907-.697-4.999-8.659a21.03 21.03 0 0 0 2.927-.662l-6.097-10.561-6.097 10.561c.949.288 1.927.51 2.927.662l-4.999 8.659c.947.288 1.921.509 2.907.697L12.001 47.66c2.929.89 6.001 1.448 9.171 1.641v4.149h4.89v-4.149c1.644-.1 3.259-.303 4.844-.595l2.466-4.271zm38.981-7.781l2.907-.697-4.999-8.659a21.03 21.03 0 0 0 2.927-.662l-6.097-10.561-6.097 10.561c.949.288 1.927.51 2.927.662l-4.999 8.659c.947.288 1.921.509 2.907.697l-4.06 7.032 2.987 5.174 3.89.442v4.149h4.89v-4.149a39.89 39.89 0 0 0 9.171-1.641l-6.354-11.007z" fill="#f8c409"/><path d="M53.965 35.407l-8.178-14.164-8.178 14.164c1.273.386 2.584.684 3.926.888L34.83 47.909a37.65 37.65 0 0 0 3.899.935l-8.522 14.761c3.928 1.193 8.048 1.943 12.301 2.202v5.565h6.558v-5.565c4.253-.259 8.373-1.009 12.301-2.202l-8.522-14.761c1.323-.252 2.629-.549 3.899-.935l-6.705-11.613a28.06 28.06 0 0 0 3.926-.889z" fill="#fff"/><path d="M61.412 74.575h-31.25a2 2 0 1 0 0 4h31.25a2 2 0 1 0 0-4z" fill="#f8c409"/></svg>