<svg xmlns="http://www.w3.org/2000/svg" viewBox="0 0 177.94 180.23"><defs><clipPath id="A"><path d="M89.13 19.17h69.55v139.78H89.13z" fill="none"/></clipPath></defs><circle cx="89" cy="90.11" r="85.55" transform="matrix(.525769 -.850628 .850628 .525769 -34.45 118.44)" fill="#194093"/><path d="M89,7.06A83.06,83.06,0,1,1,5.94,90.11,83.05,83.05,0,0,1,89,7.06m0-5a88.06,88.06,0,1,0,88.05,88.05A88.15,88.15,0,0,0,89,2.06Z" fill="#0083ac"/><path d="M86.58 115.21h-1.45a53.54 53.54 0 0 1-5.37 13.15 19.48 19.48 0 0 0-3.19 10.08c0 8.09 6.62 15 10 18.05v-32.22zM66.87 53.47c0 8.58 4.1 16.45 8.73 22.6 4.57 6.41 8.57 14 10.11 22.31h.91l.17-79.21c-5.08 4.23-19.92 17.98-19.92 34.3zm14.71 61.74H79a7.68 7.68 0 0 1-5.05-1.9 17.74 17.74 0 0 1-4.55 6.52 2.94 2.94 0 0 1-1.83.67 3.25 3.25 0 0 1-3-3.42 3.68 3.68 0 0 1 .7-2.2 7.33 7.33 0 0 0-3.34-.82c-4.42 0-8 4-8 9a9.63 9.63 0 0 0 1.71 5.54 12.1 12.1 0 0 0 9.24 5.51 15.48 15.48 0 0 0 12.07-7.32 41 41 0 0 0 4.63-11.58zM52.14 95.29c.69-4.43 4.3-7.47 8.22-7.05 6.52.3 12 5.06 14.14 11.63a7.67 7.67 0 0 1 4.5-1.49h3.15a39.69 39.69 0 0 0-13.84-24.73 28.32 28.32 0 0 0-13.66-7C44.93 64.75 35.66 72.06 34 83s4.79 21.36 14.51 23.28a16.05 16.05 0 0 0 9.84-1.11c-4.18-.82-6.93-5.17-6.21-9.88zM79 100.76a5.35 5.35 0 0 0-5.33 5.33v1.41a5.35 5.35 0 0 0 5.33 5.33h7.55v-12.07z" fill="#f8c409"/><g clip-path="url(#A)"><g fill="#fff"><path d="M97.15 148.31a8.18 8.18 0 1 1-16.35 0c0-2.73 8.2-47.55 8.2-47.55l4.27 7.79 3.88 39.76zm-8.58-60.78a5.51 5.51 0 0 1-3.47-1.25c-5.53-4.61-19.22-16.66-26.72-28.9-5.92-9.67-7-18.85-3.1-25.85 3.43-6.12 10.57-10.07 18.19-10.07 6.62 0 12.08 2.88 15.1 7.83 3-4.95 8.48-7.83 15.1-7.83 7.62 0 14.76 3.95 18.19 10.06 3.92 7 2.82 16.19-3.1 25.86-7.49 12.24-21.18 24.28-26.76 28.9a5.47 5.47 0 0 1-3.43 1.25z"/></g><path d="M103.67,22.79c13,0,27,12.53,14,33.89-7.36,12-20.79,23.87-26.43,28.57a4.1,4.1,0,0,1-2.62,1,4.06,4.06,0,0,1-2.61-1c-5.65-4.7-19.08-16.54-26.44-28.57-13.09-21.36.94-33.89,13.95-33.89,6.38,0,12.52,3,15.1,9.48,2.57-6.47,8.71-9.48,15.1-9.48m0-2.66c-6.34,0-11.7,2.48-15.1,6.82-3.4-4.34-8.76-6.82-15.1-6.82-8.1,0-15.69,4.22-19.35,10.74C50,38.32,51.06,48,57.25,58.08c7.59,12.41,21.41,24.57,27,29.22a6.76,6.76,0,0,0,8.64,0c5.59-4.65,19.41-16.81,27-29.23,6.19-10.09,7.3-19.75,3.13-27.2-3.66-6.53-11.26-10.74-19.35-10.74Z" fill="#194093"/><path d="M129.89 139.62c-6.56 0-13.39-3.54-19.75-10.23-9.88-10.41-18-26.75-21-33.29a5.42 5.42 0 0 1 1.79-6.7c5.89-4.15 21.07-14.26 34.83-18.33a39.1 39.1 0 0 1 11-1.75c13.42 0 20 9.32 20.51 18.55.47 8.06-3.65 17.12-12.2 19.63 4.26 4.49 5.54 11.08 3.3 17.84-2.37 7.11-8.98 14.28-18.48 14.28z" fill="#fff"/><path d="M136.77,70.66c25.2,0,24.12,33.87,5.44,36.07,12.53,9.35,3.59,31.56-12.32,31.56-5.61,0-12.08-2.76-18.78-9.82-9.71-10.22-17.67-26.26-20.75-32.93a4.08,4.08,0,0,1,1.35-5.05c6-4.24,20.92-14.14,34.44-18.14a37.56,37.56,0,0,1,10.62-1.69m0-2.67h0a40.62,40.62,0,0,0-11.38,1.8c-14,4.13-29.27,14.33-35.22,18.52a6.75,6.75,0,0,0-2.23,8.35c3,6.6,11.22,23.09,21.24,33.65,8.35,8.8,15.88,10.65,20.71,10.65,10.16,0,17.24-7.64,19.75-15.2,2.16-6.52,1.26-12.91-2.3-17.65,7.93-3.39,11.74-12.32,11.27-20.32C158,77.93,151.06,68,136.77,68Z" fill="#194093"/><path d="M35.07,99.93c-16.53,12.33,5.26,47.64,30.35,21.21,8.35-8.79,15.37-22,19-29.44a7.39,7.39,0,0,0-2.5-9.32c-6.86-4.66-19.53-12.57-31.16-16C15.8,56,14.58,97.51,35.07,99.93Z" fill="#fff"/></g></svg>