<svg xmlns="http://www.w3.org/2000/svg" viewBox="0 0 90.709 90.709"><circle cx="45.354" cy="45.355" r="43.52" fill="#194093"/><path d="M45.354 2.835c23.483 0 42.52 19.037 42.52 42.52s-19.037 42.52-42.52 42.52-42.52-19.037-42.52-42.52 19.037-42.52 42.52-42.52m0-2C20.806.835.834 20.806.834 45.355s19.971 44.52 44.52 44.52 44.52-19.971 44.52-44.52S69.903.835 45.354.835h0z" fill="#252e78"/><path d="M37.951 58.451c-1.997-1.428-3.328-3.543-3.261-6.317.15-8.24 9.343-6.269 9.112-17.931 2.079 1.256 16.866 11.433 9.867 22.611 19.418-10.15 10.412-28.56 10.412-28.56l-1.212 2.422c-.933 1.763-3.612 1.227-3.341-.833.252-1.925.193-3.926-.219-5.934A17.91 17.91 0 0 0 39.769 9.72a17.86 17.86 0 0 1 1.879 5.082A17.83 17.83 0 0 1 39.926 26.8c-2.267 4.268-8.444 4.07-10.349-.372a22.39 22.39 0 0 1-1.435-4.785 22.07 22.07 0 0 0-6.3 14.458c-.493 10.499 6.409 19.62 16.109 22.35z" fill="#f8c409"/><path d="M48.841 70.386l-3.484-7.962-3.484 7.962c1.058-.504 2.236-.795 3.484-.795s2.426.291 3.484.795zm2.255 7.34c-.001-.473-.13-1.146-.347-1.945-.799-2.208-2.908-3.789-5.392-3.789s-4.593 1.581-5.392 3.789c-.217.799-.346 1.473-.347 1.945 0 1.194.361 2.298.98 3.214a5.71 5.71 0 0 0 .701.849 5.72 5.72 0 0 0 4.058 1.681c1.585 0 3.02-.642 4.058-1.681.26-.26.494-.544.701-.849a5.71 5.71 0 0 0 .98-3.209zm-13.725-8.088l4.38-8.17-8.482 2.638c2.048 1.059 3.586 3.084 4.102 5.532zm-3.776 5.931a7.69 7.69 0 0 0 .441-.54c.704-.983 1.128-2.228 1.128-3.585 0-3.17-2.297-5.739-5.13-5.739a4.61 4.61 0 0 0-1.337.204c-.924.435-1.644.852-2.046 1.228l-.111.113c-.227.237-.43.491-.61.76l-.074.111c-.173.272-.322.559-.448.854l-.05.115a6.19 6.19 0 0 0-.289.931l-.027.118a6.45 6.45 0 0 0-.123.959l-.007.151a6.4 6.4 0 0 0 .042.959l.019.143c.046.319.114.635.208.945l.041.125a6.08 6.08 0 0 0 .376.899l.062.113c.157.287.339.563.546.823l.077.095c.212.254.44.481.68.683l.099.082a5.01 5.01 0 0 0 .765.502l.101.055c.27.136.549.243.834.324l.104.03c.283.074.57.118.859.137l.134.008c.286.011.574-.005.859-.047l.126-.021c.286-.051.569-.128.846-.233l.111-.045a4.86 4.86 0 0 0 .804-.421l.102-.069a5.23 5.23 0 0 0 .736-.611l.152-.156zm23.977-11.464l-8.482-2.638 4.38 8.17c.516-2.447 2.054-4.472 4.102-5.532zm8.349 6.995a6.29 6.29 0 0 0-.123-.959l-.027-.118a6.19 6.19 0 0 0-.289-.931l-.05-.115c-.126-.296-.275-.582-.448-.854l-.075-.112a5.73 5.73 0 0 0-.609-.76l-.111-.113c-.401-.376-1.122-.793-2.045-1.228-.427-.129-.873-.204-1.337-.204-2.833 0-5.13 2.57-5.13 5.739 0 1.357.423 2.602 1.128 3.585l.441.541.153.155a5.23 5.23 0 0 0 .736.611l.101.069a4.86 4.86 0 0 0 .804.421l.11.045c.277.105.56.182.846.233l.126.021c.285.043.572.058.859.047l.134-.008c.289-.019.576-.064.859-.137l.105-.03c.284-.081.563-.188.833-.324l.102-.055a5.01 5.01 0 0 0 .765-.502l.099-.083a5.41 5.41 0 0 0 .68-.682l.077-.095c.207-.26.389-.536.546-.823l.062-.113c.15-.29.275-.59.376-.899l.041-.125a6.25 6.25 0 0 0 .208-.945l.019-.141a6.42 6.42 0 0 0 .042-.96l-.008-.151z" fill="#fff"/></svg>