<?xml version="1.0" encoding="iso-8859-1"?>
<!-- Generator: Adobe Illustrator 22.1.0, SVG Export Plug-In . SVG Version: 6.00 Build 0)  -->
<svg version="1.1" xmlns="http://www.w3.org/2000/svg" xmlns:xlink="http://www.w3.org/1999/xlink" x="0px" y="0px"
	 viewBox="0 0 90.709 90.709" style="enable-background:new 0 0 90.709 90.709;" xml:space="preserve">
<g id="ratownik-1">
	<g>
		<g>
			<circle style="fill:#194093;" cx="45.354" cy="45.355" r="43.52"/>
			<g>
				<path style="fill:#252E78;" d="M45.354,2.835c23.483,0,42.52,19.037,42.52,42.52s-19.037,42.52-42.52,42.52
					s-42.52-19.037-42.52-42.52S21.871,2.835,45.354,2.835 M45.354,0.835c-24.548,0-44.52,19.971-44.52,44.52
					s19.971,44.52,44.52,44.52s44.52-19.971,44.52-44.52S69.903,0.835,45.354,0.835L45.354,0.835z"/>
			</g>
		</g>
	</g>
</g>
<g id="Warstwa_4">
	<g>
		<path style="fill:none;" d="M25.931,68.01c0.18-0.269,0.383-0.524,0.61-0.76C26.318,67.482,26.114,67.736,25.931,68.01z"/>
		<path style="fill:none;" d="M24.904,71.444c0,0.26,0.021,0.515,0.051,0.766c-0.038-0.318-0.052-0.639-0.042-0.959
			C24.911,71.315,24.904,71.379,24.904,71.444z"/>
		<path style="fill:none;" d="M26.652,67.137c0.401-0.376,1.122-0.794,2.046-1.228C27.928,66.141,27.232,66.565,26.652,67.137z"/>
		<path style="fill:none;" d="M34.036,75.03c-0.16,0.212-0.307,0.393-0.441,0.54C33.752,75.4,33.899,75.22,34.036,75.03z"/>
		<path style="fill:none;" d="M25.069,70.022c0.072-0.317,0.168-0.629,0.289-0.931C25.239,69.388,25.143,69.7,25.069,70.022z"/>
		<path style="fill:none;" d="M24.92,71.1c0.017-0.323,0.057-0.644,0.123-0.959C24.978,70.451,24.937,70.772,24.92,71.1z"/>
		<path style="fill:none;" d="M25.408,68.975c0.126-0.296,0.275-0.582,0.448-0.854C25.686,68.389,25.537,68.675,25.408,68.975z"/>
		<path style="fill:none;" d="M33.442,75.725c-0.233,0.232-0.479,0.435-0.736,0.611C32.968,76.157,33.214,75.953,33.442,75.725z"/>
		<path style="fill:none;" d="M39.618,77.731c0,1.189,0.361,2.293,0.98,3.209C39.979,80.024,39.618,78.919,39.618,77.731
			L39.618,77.731z"/>
		<path style="fill:none;" d="M39.618,77.726c0.001-0.473,0.13-1.146,0.347-1.945C39.745,76.389,39.619,77.042,39.618,77.726z"/>
		<path style="fill:none;" d="M50.116,80.94c-0.206,0.305-0.441,0.59-0.701,0.849C49.675,81.529,49.91,81.245,50.116,80.94z"/>
		<path style="fill:none;" d="M41.299,81.789c-0.26-0.26-0.495-0.544-0.701-0.849C40.805,81.245,41.039,81.529,41.299,81.789z"/>
		<path style="fill:none;" d="M25.6,74.32c-0.15-0.29-0.275-0.59-0.376-0.899C25.326,73.735,25.452,74.036,25.6,74.32z"/>
		<path style="fill:none;" d="M31.691,76.871c-0.277,0.106-0.56,0.182-0.846,0.233C31.136,77.053,31.418,76.976,31.691,76.871z"/>
		<path style="fill:none;" d="M25.183,73.297c-0.094-0.309-0.163-0.625-0.208-0.945C25.021,72.677,25.09,72.993,25.183,73.297z"/>
		<path style="fill:none;" d="M32.605,76.405c-0.259,0.168-0.528,0.308-0.804,0.421C32.082,76.711,32.35,76.571,32.605,76.405z"/>
		<path style="fill:none;" d="M29.727,77.166c-0.289-0.019-0.576-0.064-0.859-0.137C29.146,77.101,29.433,77.146,29.727,77.166z"/>
		<path style="fill:none;" d="M30.034,77.183c0.233,0,0.461-0.023,0.685-0.057c-0.285,0.043-0.572,0.058-0.859,0.047
			C29.919,77.176,29.975,77.183,30.034,77.183z"/>
		<path style="fill:none;" d="M50.749,75.781c0.217,0.799,0.346,1.473,0.347,1.945C51.095,77.042,50.969,76.389,50.749,75.781z"/>
		<path style="fill:none;" d="M26.208,75.257c-0.207-0.26-0.389-0.536-0.546-0.823C25.822,74.727,26.004,75.002,26.208,75.257z"/>
		<path style="fill:none;" d="M27.828,76.62c-0.265-0.141-0.521-0.308-0.765-0.502C27.304,76.309,27.56,76.476,27.828,76.62z"/>
		<path style="fill:none;" d="M26.965,76.035c-0.24-0.202-0.468-0.428-0.68-0.683C26.493,75.602,26.72,75.83,26.965,76.035z"/>
		<path style="fill:none;" d="M28.764,76.999c-0.284-0.081-0.563-0.188-0.834-0.324C28.196,76.809,28.475,76.916,28.764,76.999z"/>
		<path style="fill:none;" d="M58.135,76.336c-0.257-0.176-0.503-0.379-0.736-0.611C57.627,75.952,57.873,76.157,58.135,76.336z"/>
		<path style="fill:none;" d="M59.04,76.826c-0.276-0.113-0.545-0.253-0.804-0.421C58.491,76.571,58.759,76.711,59.04,76.826z"/>
		<path style="fill:none;" d="M57.246,75.57c-0.134-0.147-0.281-0.328-0.441-0.541C56.941,75.22,57.089,75.4,57.246,75.57z"/>
		<path style="fill:none;" d="M62.144,65.909c0.923,0.434,1.644,0.852,2.045,1.228C63.608,66.565,62.912,66.14,62.144,65.909z"/>
		<path style="fill:none;" d="M59.996,77.105c-0.286-0.051-0.569-0.128-0.846-0.233C59.422,76.975,59.705,77.053,59.996,77.105z"/>
		<path style="fill:none;" d="M60.807,77.183c0.058,0,0.115-0.008,0.173-0.01c-0.286,0.011-0.574-0.005-0.859-0.047
			C60.346,77.16,60.574,77.183,60.807,77.183z"/>
		<path style="fill:none;" d="M64.3,67.25c0.227,0.237,0.43,0.491,0.609,0.76C64.727,67.736,64.523,67.482,64.3,67.25z"/>
		<path style="fill:none;" d="M64.984,68.121c0.173,0.272,0.322,0.558,0.448,0.854C65.304,68.675,65.155,68.389,64.984,68.121z"/>
		<path style="fill:none;" d="M65.928,71.25c0.01,0.32-0.004,0.641-0.042,0.96c0.03-0.251,0.051-0.506,0.051-0.766
			C65.937,71.379,65.93,71.315,65.928,71.25z"/>
		<path style="fill:none;" d="M61.973,77.029c-0.283,0.073-0.57,0.118-0.859,0.137C61.408,77.146,61.695,77.101,61.973,77.029z"/>
		<path style="fill:none;" d="M65.482,69.091c0.121,0.302,0.217,0.614,0.289,0.931C65.698,69.7,65.602,69.388,65.482,69.091z"/>
		<path style="fill:none;" d="M65.799,70.14c0.066,0.316,0.105,0.637,0.123,0.959C65.904,70.772,65.863,70.451,65.799,70.14z"/>
		<path style="fill:none;" d="M65.867,72.352c-0.046,0.32-0.114,0.636-0.208,0.945C65.751,72.993,65.82,72.677,65.867,72.352z"/>
		<path style="fill:none;" d="M62.911,76.675c-0.27,0.136-0.549,0.243-0.833,0.324C62.366,76.916,62.644,76.809,62.911,76.675z"/>
		<path style="fill:none;" d="M65.18,74.434c-0.157,0.287-0.339,0.563-0.546,0.823C64.837,75.002,65.019,74.727,65.18,74.434z"/>
		<path style="fill:none;" d="M50.116,80.94c0.619-0.916,0.98-2.02,0.98-3.209v0C51.096,78.919,50.735,80.024,50.116,80.94z"/>
		<path style="fill:none;" d="M65.618,73.422c-0.101,0.308-0.226,0.609-0.376,0.899C65.389,74.036,65.515,73.735,65.618,73.422z"/>
		<path style="fill:none;" d="M64.556,75.352c-0.212,0.254-0.44,0.481-0.68,0.682C64.121,75.83,64.348,75.602,64.556,75.352z"/>
		<path style="fill:none;" d="M63.778,76.117c-0.244,0.194-0.5,0.361-0.765,0.502C63.281,76.476,63.537,76.309,63.778,76.117z"/>
		<path style="fill:#F8C409;" d="M37.951,58.451c-1.997-1.428-3.328-3.543-3.261-6.317c0.15-8.24,9.343-6.269,9.112-17.931
			c2.079,1.256,16.866,11.433,9.867,22.611c19.418-10.15,10.412-28.56,10.412-28.56s-1.184,2.369-1.212,2.422
			c-0.933,1.763-3.612,1.227-3.341-0.833c0.252-1.925,0.193-3.926-0.219-5.934C57.428,14.76,48.876,8.684,39.769,9.72
			c0.86,1.546,1.503,3.256,1.879,5.082c0.873,4.246,0.164,8.449-1.722,11.998c-2.267,4.268-8.444,4.07-10.349-0.372
			c-0.651-1.517-1.129-3.121-1.435-4.785c-3.671,3.746-6.034,8.805-6.3,14.458C21.349,46.6,28.251,55.721,37.951,58.451z"/>
		<path style="fill:#FFFFFF;" d="M48.841,70.386c-1.607-3.992-3.484-7.962-3.484-7.962s-1.877,3.97-3.484,7.962
			c1.058-0.504,2.236-0.795,3.484-0.795S47.783,69.882,48.841,70.386z"/>
		<path style="fill:#FFFFFF;" d="M51.096,77.726c-0.001-0.473-0.13-1.146-0.347-1.945c-0.799-2.208-2.908-3.789-5.392-3.789
			s-4.593,1.581-5.392,3.789c-0.217,0.799-0.346,1.473-0.347,1.945c0,0.002,0,0.003,0,0.005c0,1.189,0.361,2.293,0.98,3.209
			c0.206,0.305,0.441,0.59,0.701,0.849c1.039,1.039,2.473,1.681,4.058,1.681s3.02-0.642,4.058-1.681
			c0.26-0.26,0.494-0.544,0.701-0.849c0.619-0.916,0.98-2.02,0.98-3.209C51.096,77.729,51.096,77.728,51.096,77.726z"/>
		<path style="fill:#FFFFFF;" d="M37.371,69.638c2.205-3.909,4.38-8.17,4.38-8.17s-4.384,1.207-8.482,2.638
			C35.317,65.165,36.855,67.19,37.371,69.638z"/>
		<path style="fill:#FFFFFF;" d="M33.595,75.569c0.134-0.147,0.281-0.328,0.441-0.54c0.704-0.983,1.128-2.228,1.128-3.585
			c0-3.17-2.297-5.739-5.13-5.739c-0.463,0-0.91,0.075-1.337,0.204c-0.924,0.435-1.644,0.852-2.046,1.228
			c-0.038,0.037-0.074,0.075-0.111,0.113c-0.227,0.237-0.43,0.491-0.61,0.76c-0.025,0.037-0.05,0.073-0.074,0.111
			c-0.173,0.272-0.322,0.559-0.448,0.854c-0.016,0.039-0.034,0.076-0.05,0.115c-0.121,0.302-0.217,0.614-0.289,0.931
			c-0.009,0.04-0.019,0.079-0.027,0.118c-0.066,0.316-0.105,0.637-0.123,0.959c-0.003,0.05-0.005,0.1-0.007,0.151
			c-0.01,0.32,0.004,0.641,0.042,0.959c0.006,0.048,0.013,0.095,0.019,0.143c0.046,0.319,0.114,0.635,0.208,0.945
			c0.013,0.042,0.027,0.083,0.041,0.125c0.101,0.308,0.226,0.609,0.376,0.899c0.02,0.038,0.041,0.076,0.062,0.113
			c0.157,0.287,0.339,0.563,0.546,0.823c0.025,0.032,0.051,0.064,0.077,0.095c0.212,0.254,0.44,0.481,0.68,0.683
			c0.033,0.027,0.065,0.056,0.099,0.082c0.244,0.194,0.5,0.361,0.765,0.502c0.034,0.018,0.067,0.037,0.101,0.055
			c0.27,0.136,0.549,0.243,0.834,0.324c0.035,0.01,0.069,0.021,0.104,0.03c0.283,0.074,0.57,0.118,0.859,0.137
			c0.045,0.003,0.089,0.006,0.134,0.008c0.286,0.011,0.574-0.005,0.859-0.047c0.042-0.006,0.084-0.014,0.126-0.021
			c0.286-0.051,0.569-0.128,0.846-0.233c0.037-0.014,0.074-0.03,0.111-0.045c0.276-0.113,0.545-0.253,0.804-0.421
			c0.034-0.022,0.068-0.046,0.102-0.069c0.257-0.176,0.503-0.379,0.736-0.611C33.494,75.674,33.546,75.623,33.595,75.569z"/>
		<path style="fill:#FFFFFF;" d="M57.572,64.105c-4.098-1.43-8.482-2.638-8.482-2.638s2.175,4.261,4.38,8.17
			C53.986,67.19,55.524,65.165,57.572,64.105z"/>
		<path style="fill:#FFFFFF;" d="M65.921,71.1c-0.017-0.323-0.057-0.644-0.123-0.959c-0.008-0.04-0.018-0.079-0.027-0.118
			c-0.072-0.317-0.168-0.629-0.289-0.931c-0.016-0.039-0.033-0.077-0.05-0.115c-0.126-0.296-0.275-0.582-0.448-0.854
			c-0.024-0.038-0.05-0.074-0.075-0.112c-0.18-0.268-0.383-0.523-0.609-0.76c-0.037-0.038-0.074-0.076-0.111-0.113
			c-0.401-0.376-1.122-0.793-2.045-1.228c-0.427-0.129-0.873-0.204-1.337-0.204c-2.833,0-5.13,2.57-5.13,5.739
			c0,1.357,0.423,2.602,1.128,3.585c0.16,0.212,0.307,0.393,0.441,0.541c0.049,0.053,0.101,0.104,0.153,0.155
			c0.233,0.232,0.479,0.435,0.736,0.611c0.034,0.023,0.067,0.047,0.101,0.069c0.259,0.168,0.528,0.308,0.804,0.421
			c0.037,0.015,0.073,0.031,0.11,0.045c0.277,0.105,0.56,0.182,0.846,0.233c0.042,0.007,0.084,0.015,0.126,0.021
			c0.285,0.043,0.572,0.058,0.859,0.047c0.045-0.002,0.089-0.005,0.134-0.008c0.289-0.019,0.576-0.064,0.859-0.137
			c0.035-0.009,0.07-0.02,0.105-0.03c0.284-0.081,0.563-0.188,0.833-0.324c0.034-0.017,0.068-0.037,0.102-0.055
			c0.265-0.141,0.521-0.308,0.765-0.502c0.034-0.027,0.066-0.055,0.099-0.083c0.24-0.201,0.468-0.428,0.68-0.682
			c0.026-0.031,0.052-0.063,0.077-0.095c0.207-0.26,0.389-0.536,0.546-0.823c0.021-0.038,0.042-0.075,0.062-0.113
			c0.15-0.29,0.275-0.59,0.376-0.899c0.014-0.041,0.028-0.083,0.041-0.125c0.094-0.309,0.163-0.626,0.208-0.945
			c0.007-0.047,0.014-0.094,0.019-0.141c0.038-0.319,0.052-0.64,0.042-0.96C65.927,71.2,65.924,71.15,65.921,71.1z"/>
	</g>
</g>
</svg>
