<svg xmlns="http://www.w3.org/2000/svg" viewBox="0 0 90.709 90.709"><circle cx="45.354" cy="45.355" r="43.52" fill="#194093"/><path d="M45.354 2.835c23.483 0 42.52 19.037 42.52 42.52s-19.037 42.52-42.52 42.52-42.52-19.037-42.52-42.52 19.037-42.52 42.52-42.52m0-2C20.806.835.834 20.806.834 45.355s19.971 44.52 44.52 44.52 44.52-19.971 44.52-44.52S69.903.835 45.354.835h0z" fill="#252e78"/><path d="M66.161 59.681l-2.516 19.294a38.39 38.39 0 0 0 6.569-4.539l-4.053-14.755zM20.496 74.436c2.013 1.722 4.201 3.245 6.543 4.525L24.532 59.74l-4.036 14.696zM42.26 60.311l-3.056 3.026-1.38 1.444L34.463 54.6l-7.798 2.94 2.955 22.696a38.02 38.02 0 0 0 11.989 3.202l-.236-16.255.887-6.872zm.351 23.202l2.743.109 2.743-.109-2.743-15.96-2.743 15.96zM64.02 57.539l-7.777-2.932-3.36 10.174-1.38-1.444-3.246-3.204.763 7.049v16.261a38.01 38.01 0 0 0 12.037-3.194l2.963-22.71zm-9.91-4.127l-2.441-2.128c-.897 1.878-2.519 4.104-3.654 5.456 1.216.959 2.728 2.412 3.835 3.52l2.26-6.848zm-11.415 3.329c-1.136-1.353-2.757-3.578-3.655-5.456l-2.441 2.128 2.261 6.848 3.835-3.52z" fill="#f8c409"/><path d="M33.058 36.499c0 4.806 4.242 9.645 8.432 11.707a17.63 17.63 0 0 1-.384 1.844c.932 2.041 3.562 5.481 4.15 5.949l.097.078.102-.079c.583-.465 3.189-3.871 4.134-5.917a17.64 17.64 0 0 1-.393-1.879c4.218-2.085 8.479-7.001 8.479-11.856 0-3.596 1.877-7.075 1.877-9.975a14.23 14.23 0 0 0-.385-3.239c-1.759 3.329-7.266 5.764-13.819 5.764-6.56 0-12.071-2.44-13.825-5.773-.245 1.045-.388 2.129-.388 3.249-.001 2.943 1.923 6.544 1.923 10.127z" fill="#fff"/><path d="M31.12 22.167c-.002-.007-.005-.013-.007-.02 3.742-1.342 9.014-2.374 14.234-2.374s10.47.869 14.234 2.374c-.004.013-.01.025-.014.037l1.482-1.167 1.173-.924a2.23 2.23 0 0 0-.265-3.681L45.812 7.098l-.457-.012c-.153 0-.304.01-.457.012l-16.146 9.314a2.23 2.23 0 0 0-.265 3.681l1.155.91 1.478 1.164zM45.354 9.702l3.225 3.225-3.225 4.249-3.225-4.249 3.225-3.225z" fill="#f8c409"/><path d="M42.129 12.927l3.225 4.249 3.226-4.249-3.226-3.225z" fill="#fff"/></svg>