<?xml version="1.0" encoding="iso-8859-1"?>
<!-- Generator: Adobe Illustrator 24.1.1, SVG Export Plug-In . SVG Version: 6.00 Build 0)  -->
<svg version="1.1" xmlns="http://www.w3.org/2000/svg" xmlns:xlink="http://www.w3.org/1999/xlink" x="0px" y="0px"
	 viewBox="0 0 90.709 90.709" style="enable-background:new 0 0 90.709 90.709;" xml:space="preserve">
<g id="ratownik-1">
	<g>
		<g>
			<circle style="fill:#194093;" cx="45.354" cy="45.355" r="43.52"/>
			<g>
				<path style="fill:#252E78;" d="M45.354,2.835c23.483,0,42.52,19.037,42.52,42.52s-19.037,42.52-42.52,42.52
					s-42.52-19.037-42.52-42.52S21.871,2.835,45.354,2.835 M45.354,0.835c-24.548,0-44.52,19.971-44.52,44.52
					s19.971,44.52,44.52,44.52s44.52-19.971,44.52-44.52S69.903,0.835,45.354,0.835L45.354,0.835z"/>
			</g>
		</g>
	</g>
</g>
<g id="Warstwa_4">
	<g>
		<path style="fill:#F8C409;" d="M66.161,59.681l-2.516,19.294c2.352-1.282,4.548-2.811,6.569-4.539L66.161,59.681z"/>
		<path style="fill:#F8C409;" d="M20.496,74.436c2.013,1.722,4.201,3.245,6.543,4.525L24.532,59.74L20.496,74.436z"/>
		<path style="fill:#F8C409;" d="M42.26,60.311c-1.054,0.988-2.186,2.116-3.056,3.026l-1.38,1.444L34.463,54.6l-7.798,2.94
			l2.955,22.696c3.719,1.68,7.751,2.79,11.989,3.202l-0.236-16.255L42.26,60.311z"/>
		<path style="fill:#F8C409;" d="M42.611,83.513c0.907,0.064,1.82,0.109,2.743,0.109s1.836-0.044,2.743-0.109l-2.743-15.96
			L42.611,83.513z"/>
		<path style="fill:#F8C409;" d="M64.02,57.539l-7.777-2.932l-3.36,10.174l-1.38-1.444c-0.922-0.964-2.139-2.176-3.246-3.204
			l0.763,7.049v16.261c4.255-0.405,8.304-1.511,12.037-3.194L64.02,57.539z"/>
		<path style="fill:#F8C409;" d="M54.11,53.412l-2.441-2.128c-0.897,1.878-2.519,4.104-3.654,5.456
			c1.216,0.959,2.728,2.412,3.835,3.52L54.11,53.412z"/>
		<path style="fill:#F8C409;" d="M42.695,56.741c-1.136-1.353-2.757-3.578-3.655-5.456l-2.441,2.128l2.261,6.848
			C39.967,59.153,41.479,57.7,42.695,56.741z"/>
		<path style="fill:#FFFFFF;" d="M33.058,36.499c0,4.806,4.242,9.645,8.432,11.707c-0.109,0.696-0.24,1.308-0.384,1.844
			c0.932,2.041,3.562,5.481,4.15,5.949l0.097,0.078l0.102-0.079c0.583-0.465,3.189-3.871,4.134-5.917
			c-0.147-0.544-0.282-1.168-0.393-1.879c4.218-2.085,8.479-7.001,8.479-11.856c0-3.596,1.877-7.075,1.877-9.975
			c0-1.116-0.142-2.197-0.385-3.239c-1.759,3.329-7.266,5.764-13.819,5.764c-6.56,0-12.071-2.44-13.825-5.773
			c-0.245,1.045-0.388,2.129-0.388,3.249C31.134,29.315,33.058,32.916,33.058,36.499z"/>
		<path style="fill:#F8C409;" d="M31.12,22.167c-0.002-0.007-0.005-0.013-0.007-0.02c3.742-1.342,9.014-2.374,14.234-2.374
			c5.22,0,10.47,0.869,14.234,2.374c-0.004,0.013-0.01,0.025-0.014,0.037l1.482-1.167l1.173-0.924
			c1.239-0.975,1.1-2.893-0.265-3.681L45.812,7.098c-0.153-0.002-0.304-0.012-0.457-0.012s-0.304,0.01-0.457,0.012l-16.146,9.314
			c-1.366,0.788-1.504,2.706-0.265,3.681l1.155,0.91L31.12,22.167z M45.354,9.702l3.225,3.225l-3.225,4.249l-3.225-4.249
			L45.354,9.702z"/>
		<polygon style="fill:#FFFFFF;" points="42.129,12.927 45.354,17.176 48.58,12.927 45.354,9.702 		"/>
	</g>
</g>
</svg>
