<svg xmlns="http://www.w3.org/2000/svg" viewBox="0 0 177.94 180.23"><circle cx="89" cy="90.11" r="85.55" transform="matrix(.525769 -.850628 .850628 .525769 -34.45 118.44)" fill="#194093"/><path d="M89,7.06A83.06,83.06,0,1,1,5.94,90.11,83.05,83.05,0,0,1,89,7.06m0-5a88.06,88.06,0,1,0,88.05,88.05A88.15,88.15,0,0,0,89,2.06Z" fill="#0083ac"/><path d="M69.81 74.25V29.62" fill="none" stroke-linecap="round" stroke-linejoin="round" stroke-width="3.59" stroke="#fff"/><path d="M39.76,134.29A3.92,3.92,0,0,1,36.62,128,156.62,156.62,0,0,0,61.27,76.1a3.94,3.94,0,0,1,3.79-2.93h43.8a3.94,3.94,0,0,1,3.79,2.93A156.52,156.52,0,0,0,137.3,128a3.92,3.92,0,0,1-3.15,6.26Z" fill="#f8c409"/><path d="M108.86,74.56a2.54,2.54,0,0,1,2.45,1.9,159.09,159.09,0,0,0,24.88,52.39,2.54,2.54,0,0,1-2,4.06H39.76a2.54,2.54,0,0,1-2-4.06A159.09,159.09,0,0,0,62.61,76.46a2.53,2.53,0,0,1,2.45-1.9h43.8m0-2.77H65.06a5.31,5.31,0,0,0-5.12,4,157.53,157.53,0,0,1-24.43,51.46,5.3,5.3,0,0,0,4.25,8.46h94.39a5.3,5.3,0,0,0,4.26-8.46A157.53,157.53,0,0,1,114,75.75a5.32,5.32,0,0,0-5.12-4Z" fill="#194093"/><g fill="none"><g stroke-linecap="round" stroke-linejoin="round" stroke-width="3.59"><path d="M79.15,125.61l2.85,7.3s19.47-22.35,28.56-58.35" stroke="#194093"/><path d="M36.41 123.03l2.85 7.3m98.2-7.3l-2.85 7.3" stroke="#f8c409"/><path d="M111.8 74.56v59.58" stroke="#194093"/></g><path d="M69.81,44.12a120.69,120.69,0,0,0,13.73,1.17C89,45.29,97.27,43,97.27,43V26.52S89,28.86,83.54,28.86a126,126,0,0,1-13.73-1.17Z" stroke-linejoin="round" stroke-width="3.59" stroke="#fff"/></g><path d="M69.81,35a118.39,118.39,0,0,0,13.73,1.17c5.46,0,13.73-2.34,13.73-2.34V26.52S87,28.86,83.54,28.86s-13.73-1.17-13.73-1.17Z" fill="#fff"/></svg>