<svg id="ratownik-1" xmlns="http://www.w3.org/2000/svg" viewBox="0 0 177.94 180.23"><defs><style>.cls-1{fill:#194093;}.cls-2{fill:#0083ac;}.cls-3,.cls-5,.cls-6{fill:none;stroke-linecap:round;stroke-linejoin:round;stroke-width:3.59px;}.cls-3{stroke:#fff;}.cls-4{fill:#f8c409;}.cls-5{stroke:#194093;}.cls-6{stroke:#f8c409;}.cls-7{fill:#fff;}</style></defs><title>sprawnosci-h-kolka</title><circle class="cls-1" cx="89" cy="90.11" r="85.55" transform="translate(-34.45 118.44) rotate(-58.28)"/><path class="cls-2" d="M89,7.06A83.06,83.06,0,1,1,5.94,90.11,83.05,83.05,0,0,1,89,7.06m0-5a88.06,88.06,0,1,0,88.05,88.05A88.15,88.15,0,0,0,89,2.06Z"/><line class="cls-3" x1="69.81" y1="74.25" x2="69.81" y2="29.62"/><path class="cls-4" d="M39.76,134.29A3.92,3.92,0,0,1,36.62,128,156.62,156.62,0,0,0,61.27,76.1a3.94,3.94,0,0,1,3.79-2.93h43.8a3.94,3.94,0,0,1,3.79,2.93A156.52,156.52,0,0,0,137.3,128a3.92,3.92,0,0,1-3.15,6.26Z"/><path class="cls-1" d="M108.86,74.56a2.54,2.54,0,0,1,2.45,1.9,159.09,159.09,0,0,0,24.88,52.39,2.54,2.54,0,0,1-2,4.06H39.76a2.54,2.54,0,0,1-2-4.06A159.09,159.09,0,0,0,62.61,76.46a2.53,2.53,0,0,1,2.45-1.9h43.8m0-2.77H65.06a5.31,5.31,0,0,0-5.12,4,157.53,157.53,0,0,1-24.43,51.46,5.3,5.3,0,0,0,4.25,8.46h94.39a5.3,5.3,0,0,0,4.26-8.46A157.53,157.53,0,0,1,114,75.75a5.32,5.32,0,0,0-5.12-4Z"/><path class="cls-5" d="M79.15,125.61l2.85,7.3s19.47-22.35,28.56-58.35"/><line class="cls-6" x1="36.41" y1="123.03" x2="39.26" y2="130.33"/><line class="cls-6" x1="137.46" y1="123.03" x2="134.61" y2="130.33"/><line class="cls-5" x1="111.8" y1="74.56" x2="111.8" y2="134.14"/><path class="cls-3" d="M69.81,44.12a120.69,120.69,0,0,0,13.73,1.17C89,45.29,97.27,43,97.27,43V26.52S89,28.86,83.54,28.86a126,126,0,0,1-13.73-1.17Z"/><path class="cls-7" d="M69.81,35a118.39,118.39,0,0,0,13.73,1.17c5.46,0,13.73-2.34,13.73-2.34V26.52S87,28.86,83.54,28.86s-13.73-1.17-13.73-1.17Z"/></svg>