<svg xmlns="http://www.w3.org/2000/svg" viewBox="0 0 90.709 90.709"><path d="M45.354 88.874c-23.997 0-43.52-19.522-43.52-43.52s19.522-43.52 43.52-43.52 43.521 19.522 43.521 43.52-19.524 43.52-43.521 43.52z" fill="#194093"/><path d="M45.354 2.835c23.483 0 42.52 19.037 42.52 42.52s-19.037 42.52-42.52 42.52-42.52-19.037-42.52-42.52 19.037-42.52 42.52-42.52m0-2C20.806.835.834 20.806.834 45.355s19.971 44.52 44.52 44.52 44.52-19.971 44.52-44.52S69.903.835 45.354.835h0z" fill="#252e78"/><defs><circle id="A" cx="45.354" cy="45.354" r="38.268"/></defs><clipPath id="B"><use xlink:href="#A"/></clipPath><g clip-path="url(#B)"><path d="M63.737 27.444c1.181 3.08 2.024 5.365 2.126 6.723.194 2.598-1.629 7.12-3.826 9.487-1.152 1.242-2.385 1.871-3.664 1.871-.074 0-.148-.011-.222-.016a2.39 2.39 0 0 1 .527 1.392l.072 1.613c.372.285.735.609 1.099.929l4.97 1.152a13.02 13.02 0 0 1 .105-1.802c1.594.698 3.126.942 4.235 1.1a1.32 1.32 0 0 0 .178.012c2.291 0 5.08-6.051 4.901-8.442-.112-1.503-2.142-6.307-2.607-7.719.928-1.515.542-3.017-1.289-5.261-1.013-1.242-3.663-2.668-6.733-3.134-.046.355-.127.716-.257 1.084l.385 1.011z" fill="#fff"/><path d="M71.554 98.669s4.549-32.011 1.875-36.048c-1.635-2.468-3.641-4.748-5.986-6.309l-.119-2.672-4.48-1.038 1.785 2.42c.716 1.081 2.207 3.33.457 21.87-.751 7.954-1.794 15.578-1.996 17.034.08 1.247.426 6.92.498 12.835.153 12.571-1.004 15.618-2.157 16.942a2.4 2.4 0 0 1-1.498.804 142.07 142.07 0 0 1-7.204.733l.095.377c.32.889 2.67 1.177 5.577 1.177 4.59 0 10.569-.718 12.137-.923 2.659-3.056 1.016-27.202 1.016-27.202z" fill="#f8c409"/><path d="M51.966 17.513a5.35 5.35 0 0 1-.3 1.432l.413 1.083c1.225 3.196 2.1 5.566 2.205 6.966.201 2.68-1.684 7.348-3.953 9.794-1.18 1.271-2.438 1.916-3.741 1.916a3.78 3.78 0 0 1-.464-.033 2.41 2.41 0 0 1 .199.23l.021.003-.007.016a2.39 2.39 0 0 1 .473 1.315l.077 1.723c.228.174.448.381.674.568l6.115 1.417a13.66 13.66 0 0 1 .106-1.973c1.658.725 3.251.98 4.404 1.144a1.27 1.27 0 0 0 .185.013c2.383 0 5.283-6.293 5.097-8.78-.117-1.563-2.228-6.56-2.711-8.027.966-1.575.564-3.137-1.34-5.472-1.104-1.353-4.068-2.931-7.453-3.335z" fill="#fff"/><path d="M59.62 122.127c2.767-3.178 1.058-28.289 1.058-28.289s4.731-33.292 1.95-37.489c-1.701-2.567-3.787-4.938-6.225-6.561l-.124-2.778-5.522-1.28a32.94 32.94 0 0 1 2.26 3c.739 1.115 2.276 3.435.46 22.683-.782 8.288-1.87 16.231-2.077 17.721.082 1.275.443 7.188.518 13.353.159 13.041-1.033 16.193-2.219 17.555a2.4 2.4 0 0 1-1.499.804 148.51 148.51 0 0 1-7.074.731l.073.289c.333.924 2.777 1.224 5.8 1.224 4.773-.002 10.991-.749 12.621-.963z" fill="#f8c409"/><g fill="#fff"><path d="M37.416 36.257l4.291.994c-.014-.701.015-1.437.109-2.151 1.724.754 3.381 1.019 4.58 1.189a1.38 1.38 0 0 0 .193.014c2.478 0 5.495-6.545 5.301-9.131-.099-1.323-1.572-5.014-2.388-7.163-.797.83-1.746 1.584-2.81 2.211-1.423.838-3.424 1.263-5.948 1.263-.347 0-.698-.008-1.05-.024l-7.708 4.435c.735.389 1.385.94 1.885 1.628.824 1.136 1.13 2.482 1 3.78l2.545 2.955zm-7.807-22.801c-.829.979-1.429 2.005-1.871 3.048l6.894-2.952 5.544-2.399a13.55 13.55 0 0 1 2.121-1.012c-1.262-.355-2.64-.58-4.053-.58-3.026 0-6.194 1.014-8.635 3.895z"/></g><path d="M47.888 118.465c2.878-3.305 1.1-29.421 1.1-29.421s4.921-34.624 2.028-38.989c-1.769-2.67-3.938-5.136-6.474-6.823l-.129-2.89-4.352-1.008 3.728 4.343c.018.021.036.043.054.065 2.76 3.457 2.171 8.393-1.341 11.236-1.553 1.258-3.467 1.951-5.39 1.951-2.525 0-4.796-1.136-6.241-3.119l-.33-.416-2.702 45.948c-.528 10.119-1.56 9.212.889 18.849.346.961 2.888 1.273 6.032 1.273 4.966-.001 11.433-.777 13.128-.999z" fill="#f8c409"/><path d="M17.721 33.115c.415-.451.903-.837 1.456-1.133l7.637-4.083c.312-.167.642-.293.979-.397l11.325-6.483a21.22 21.22 0 0 0 1.628.064c1.544 0 3.458-.181 4.73-.931 3.231-1.903 4.937-4.998 3.81-6.911-.566-.961-1.738-1.441-3.174-1.441-1.425 0-3.109.473-4.719 1.421-1.35.795-23.018 9.49-25.541 11.7-2.622 2.297-.213 5.876 1.869 8.194z" fill="#fff"/><g fill="#f8c409"><path d="M32.785 52.36c1.01 1.411 2.625 2.169 4.327 2.169 1.32 0 2.693-.456 3.879-1.416 2.566-2.078 2.821-5.562.976-7.874l-8.043-9.358c-.345.5-.758.962-1.277 1.338l-6.944 5.038a5.56 5.56 0 0 1-.569.349l7.651 9.754zM22.47 40.908a3.1 3.1 0 0 0 1.824-.593l6.944-5.038a3.11 3.11 0 0 0 .691-4.344h0a3.11 3.11 0 0 0-2.52-1.284c-.497 0-1 .119-1.465.368L20.307 34.1a3.11 3.11 0 0 0-1.051 4.57l.693.955a3.11 3.11 0 0 0 2.521 1.283z"/></g></g></svg>