<svg xmlns="http://www.w3.org/2000/svg" viewBox="0 0 90.709 90.709"><path d="M45.354 88.874c-23.997 0-43.52-19.522-43.52-43.52s19.522-43.52 43.52-43.52 43.521 19.522 43.521 43.52-19.524 43.52-43.521 43.52z" fill="#194093"/><path d="M45.354 2.835c23.483 0 42.52 19.037 42.52 42.52s-19.037 42.52-42.52 42.52-42.52-19.037-42.52-42.52 19.037-42.52 42.52-42.52m0-2C20.806.835.834 20.806.834 45.355s19.971 44.52 44.52 44.52 44.52-19.971 44.52-44.52S69.903.835 45.354.835h0z" fill="#252e78"/><path d="M72.911 51.91V19.585L48.933 35.747zm-52.409 3.001h49.705L45.354 38.159zm-2.704-35.326V51.91l23.978-16.163z" fill="#fff"/><path d="M68.662 17.625H22.047l23.307 15.711zM47.354 74.809V60.911h-4v13.898l-5.084-5.085-2.828 2.828 9.912 9.913 9.913-9.913-2.828-2.828z" fill="#f8c409"/></svg>