<?xml version="1.0" encoding="iso-8859-1"?>
<!-- Generator: Adobe Illustrator 22.1.0, SVG Export Plug-In . SVG Version: 6.00 Build 0)  -->
<svg version="1.1" xmlns="http://www.w3.org/2000/svg" xmlns:xlink="http://www.w3.org/1999/xlink" x="0px" y="0px"
	 viewBox="0 0 90.709 90.709" style="enable-background:new 0 0 90.709 90.709;" xml:space="preserve">
<g id="ratownik-1">
	<g>
		<g>
			<path style="fill:#194093;" d="M45.354,88.874c-23.997,0-43.52-19.522-43.52-43.52s19.522-43.52,43.52-43.52
				s43.521,19.522,43.521,43.52S69.351,88.874,45.354,88.874z"/>
			<g>
				<path style="fill:#252E78;" d="M45.354,2.835c23.483,0,42.52,19.037,42.52,42.52s-19.037,42.52-42.52,42.52
					c-23.483,0-42.52-19.037-42.52-42.52S21.871,2.835,45.354,2.835 M45.354,0.835c-24.548,0-44.52,19.971-44.52,44.52
					s19.971,44.52,44.52,44.52s44.52-19.971,44.52-44.52S69.903,0.835,45.354,0.835L45.354,0.835z"/>
			</g>
		</g>
	</g>
</g>
<g id="Warstwa_4">
	<g>
		<polygon style="fill:#FFFFFF;" points="72.911,51.91 72.911,19.585 48.933,35.747 		"/>
		<polygon style="fill:#FFFFFF;" points="20.502,54.911 70.207,54.911 45.354,38.159 		"/>
		<polygon style="fill:#FFFFFF;" points="17.798,19.585 17.798,51.91 41.776,35.747 		"/>
		<polygon style="fill:#F8C409;" points="68.662,17.625 22.047,17.625 45.354,33.336 		"/>
		<polygon style="fill:#F8C409;" points="47.354,74.809 47.354,60.911 43.354,60.911 43.354,74.809 38.27,69.724 35.442,72.552 
			45.354,82.465 55.267,72.552 52.439,69.724 		"/>
	</g>
</g>
</svg>
