<?xml version="1.0" encoding="utf-8"?>
<!-- Generator: Adobe Illustrator 24.2.0, SVG Export Plug-In . SVG Version: 6.00 Build 0)  -->
<svg version="1.1" id="Warstwa_3" xmlns="http://www.w3.org/2000/svg" x="0px" y="0px"
	 viewBox="0 0 87.87 87.87" style="enable-background:new 0 0 87.87 87.87;" xml:space="preserve">
<g>
	<path d="M39.71,77.14l-1.15,8.94c1.8,0.23,3.63,0.35,5.45,0.35c1.88,0,3.77-0.13,5.62-0.37l-1.18-8.94
		C45.58,77.51,42.59,77.51,39.71,77.14z"/>
	<path d="M69.93,10.2c-2.94-2.27-6.18-4.14-9.6-5.56l-3.46,8.33c2.7,1.12,5.24,2.59,7.56,4.38L69.93,10.2z"/>
	<path d="M4.78,60.31c1.43,3.42,3.3,6.64,5.58,9.58l7.13-5.51c-1.79-2.32-3.27-4.86-4.39-7.55L4.78,60.31z"/>
	<path d="M18.22,77.71c2.95,2.26,6.19,4.12,9.62,5.53l3.43-8.34c-2.7-1.11-5.25-2.58-7.57-4.36L18.22,77.71z"/>
	<path d="M56.89,74.86l3.47,8.32c3.42-1.42,6.65-3.3,9.59-5.57l-5.5-7.14C62.12,72.26,59.58,73.73,56.89,74.86z"/>
	<path d="M86.18,38.36l-8.94,1.17c0.19,1.44,0.28,2.92,0.28,4.39c0,1.46-0.1,2.92-0.28,4.36l8.94,1.16
		c0.24-1.82,0.36-3.68,0.36-5.52C86.54,42.06,86.42,40.19,86.18,38.36z"/>
	<path d="M70.62,64.28l7.15,5.49c2.26-2.95,4.13-6.18,5.55-9.61l-8.33-3.45C73.87,59.41,72.4,61.96,70.62,64.28z"/>
	<path d="M83.31,27.64c-1.42-3.42-3.29-6.65-5.55-9.6l-7.15,5.49c1.78,2.32,3.26,4.87,4.38,7.56L83.31,27.64z"/>
	<path d="M10.51,43.91c0-18.47,15.03-33.5,33.5-33.5c1.48,0,2.96,0.1,4.41,0.29l1.17-8.94c-1.84-0.24-3.72-0.36-5.59-0.36
		C20.57,1.39,1.5,20.47,1.5,43.91c0,1.87,0.12,3.75,0.36,5.59l8.94-1.18C10.61,46.87,10.51,45.39,10.51,43.91z"/>
</g>
<path d="M68.29,48.01c-0.34-1.77-2.05-2.92-3.82-2.58c-0.76,0.15-1.39,0.55-1.86,1.1l-15.55-2.82c-0.38-1.72-2.05-2.83-3.79-2.5
	c-0.03,0.01-0.06,0.02-0.09,0.03l-5.42-8.35c0.35-0.64,0.5-1.39,0.35-2.17c-0.34-1.77-2.05-2.92-3.82-2.58
	c-0.84,0.16-1.53,0.64-2,1.28l-6.64-0.69c-0.46-1.6-2.06-2.62-3.73-2.3c-1.77,0.34-2.92,2.05-2.58,3.82
	c0.34,1.77,2.05,2.92,3.82,2.58c0.89-0.17,1.62-0.69,2.08-1.38l6.52,0.67c0.42,1.67,2.06,2.74,3.77,2.41c0.01,0,0.01-0.01,0.02-0.01
	l5.45,8.4c-0.32,0.63-0.45,1.35-0.31,2.09c0.19,0.97,0.79,1.74,1.59,2.2l0.01,6.82c-1.3,0.63-2.07,2.06-1.79,3.54
	c0.34,1.77,2.05,2.92,3.82,2.58c0.86-0.17,1.56-0.66,2.03-1.31l10.34,2.32c0.01,0.08,0.01,0.17,0.02,0.25
	c0.34,1.77,2.05,2.92,3.82,2.58s2.92-2.05,2.58-3.82c-0.11-0.56-0.37-1.05-0.71-1.47l3.05-6.88c0.08-0.01,0.17-0.01,0.25-0.02
	C67.48,51.48,68.63,49.77,68.29,48.01z M59.92,57.56c-0.2,0-0.41,0.02-0.62,0.06c-0.69,0.13-1.28,0.48-1.73,0.95l-10.73-2.41
	c-0.26-0.98-0.93-1.75-1.8-2.15l-0.01-6.55c0.58-0.22,1.07-0.59,1.43-1.06l15.43,2.79c0,0.02,0,0.04,0,0.05
	c0.13,0.69,0.48,1.28,0.95,1.73L59.92,57.56z"/>
</svg>
