<?xml version="1.0" encoding="utf-8"?>
<!-- Generator: Adobe Illustrator 24.2.0, SVG Export Plug-In . SVG Version: 6.00 Build 0)  -->
<svg version="1.1" xmlns="http://www.w3.org/2000/svg" x="0px" y="0px"
	 viewBox="0 0 87.87 87.87" style="enable-background:new 0 0 87.87 87.87;" xml:space="preserve">
<g id="Warstwa_3">
</g>
<g id="Warstwa_2">
	<g>
		<polygon points="39.64,69.93 51.86,50.71 45.54,50.71 50.07,38.32 43.81,38.32 37.21,55.83 43.42,55.83 		"/>
		<path d="M4.66,60.25c1.42,3.42,3.29,6.64,5.55,9.59l7.15-5.5c-1.78-2.32-3.26-4.86-4.38-7.55L4.66,60.25z"/>
		<path d="M18.05,77.67c2.94,2.26,6.17,4.13,9.59,5.55l3.46-8.33c-2.69-1.12-5.23-2.59-7.55-4.37L18.05,77.67z"/>
		<path d="M43.93,1.42c-23.44,0-42.52,19.08-42.52,42.52c0,1.87,0.12,3.75,0.36,5.58l8.94-1.18c-0.19-1.45-0.29-2.93-0.29-4.41
			c0-18.47,15.03-33.5,33.5-33.5c18.48,0,33.51,15.03,33.51,33.5c0,18.47-15.03,33.5-33.51,33.5c-1.47,0-2.96-0.1-4.41-0.29
			l-1.17,8.94c1.84,0.24,3.72,0.36,5.58,0.36c23.45,0,42.52-19.08,42.52-42.52C86.46,20.49,67.38,1.42,43.93,1.42z"/>
		<path d="M50.2,42.96l-1.72,4.53h15.51c0.72,0,1.4-0.34,1.83-0.91c1.46-1.91,2.22-4.17,2.22-6.56c0-5.68-4.4-10.35-9.97-10.79
			c-2.48-5.25-7.79-8.67-13.69-8.67s-11.21,3.42-13.69,8.67c-5.57,0.44-9.97,5.11-9.97,10.79c0,2.39,0.77,4.65,2.22,6.56
			c0.44,0.57,1.11,0.91,1.83,0.91h14.09c0.57-1.54,1.13-3.07,1.69-4.61H26.04c-0.46-0.88-0.7-1.85-0.7-2.85
			c0-3.43,2.79-6.21,6.21-6.21c0.17,0,0.34,0.01,0.51,0.03c1.05,0.08,2.02-0.55,2.37-1.55c1.46-4.26,5.46-7.11,9.96-7.11
			s8.5,2.86,9.96,7.11c0.34,1,1.31,1.64,2.37,1.55c0.17-0.01,0.34-0.03,0.51-0.03c3.43,0,6.21,2.79,6.21,6.21
			c0,1-0.24,1.97-0.7,2.85L50.2,42.96z"/>
	</g>
</g>
</svg>
