<?xml version="1.0" encoding="utf-8"?>
<!-- Generator: Adobe Illustrator 24.2.0, SVG Export Plug-In . SVG Version: 6.00 Build 0)  -->
<svg version="1.1" xmlns="http://www.w3.org/2000/svg" x="0px" y="0px"
	 viewBox="0 0 87.87 87.87" style="enable-background:new 0 0 87.87 87.87;" xml:space="preserve">
<g id="Warstwa_3">
</g>
<g id="Warstwa_2">
	<g>
		<g>
			<path d="M44.02,1.4C20.57,1.4,1.5,20.47,1.5,43.92c0,23.44,19.07,42.52,42.52,42.52c23.45,0,42.52-19.07,42.52-42.52
				C86.54,20.47,67.46,1.4,44.02,1.4z M44.02,77.42c-18.47,0-33.5-15.03-33.5-33.5c0-18.47,15.03-33.5,33.5-33.5
				c18.47,0,33.5,15.03,33.5,33.5C77.52,62.39,62.49,77.42,44.02,77.42z"/>
		</g>
		<g>
			<path d="M46.64,27.23c-0.45-1.99-2.22-3.48-4.35-3.48c-2.47,0-4.47,2-4.47,4.47c0,0.01,0,0.01,0,0.02
				c-6.71,2.58-11.49,9.07-11.49,16.67c0,9.85,8.02,17.87,17.87,17.87s17.87-8.02,17.87-17.87C62.08,35.89,55.34,28.43,46.64,27.23z
				 M44.21,60.29c-8.48,0-15.37-6.89-15.37-15.37c0-6.47,4.03-12.01,9.71-14.28c0.8,1.23,2.17,2.05,3.75,2.05
				c1.94,0,3.57-1.24,4.19-2.96c7.4,1.11,13.1,7.48,13.1,15.18C59.58,53.39,52.68,60.29,44.21,60.29z"/>
			<path d="M44.21,34.06c-5.98,0-10.85,4.87-10.85,10.85c0,3.39,1.57,6.42,4.01,8.42c-0.05,0.23-0.09,0.46-0.09,0.7
				c0,1.72,1.4,3.12,3.12,3.12c1.11,0,2.07-0.58,2.63-1.45c0.39,0.04,0.78,0.07,1.18,0.07c5.98,0,10.85-4.87,10.85-10.85
				S50.19,34.06,44.21,34.06z M44.21,53.27c-0.27,0-0.54-0.02-0.81-0.04c-0.36-1.33-1.56-2.31-3-2.31c-0.56,0-1.08,0.16-1.53,0.42
				c-1.84-1.53-3.01-3.84-3.01-6.42c0-4.61,3.75-8.35,8.35-8.35c4.61,0,8.35,3.75,8.35,8.35S48.81,53.27,44.21,53.27z"/>
			<path d="M71.38,45.08c-0.04-1.71-1.18-3.12-2.72-3.61c-1.68-11.99-12.01-21.26-24.46-21.26c-13.62,0-24.7,11.08-24.7,24.7
				s11.08,24.7,24.7,24.7c12.27,0,22.47-8.99,24.38-20.73C70.23,48.41,71.42,46.88,71.38,45.08z M44.21,67.12
				c-12.24,0-22.2-9.96-22.2-22.2s9.96-22.2,22.2-22.2c11.09,0,20.31,8.17,21.94,18.81c-1.52,0.56-2.6,2.02-2.56,3.73
				c0.04,1.62,1.05,2.98,2.47,3.54C64.22,59.19,55.13,67.12,44.21,67.12z"/>
			<path d="M44.11,40.67c-2.35,0.05-4.21,2-4.16,4.34c0.05,2.35,2,4.21,4.34,4.16c2.35-0.05,4.21-2,4.16-4.34
				C48.41,42.48,46.46,40.61,44.11,40.67z"/>
		</g>
	</g>
</g>
</svg>
