<?xml version="1.0" encoding="utf-8"?>
<!-- Generator: Adobe Illustrator 24.2.0, SVG Export Plug-In . SVG Version: 6.00 Build 0)  -->
<svg version="1.1" id="Warstwa_2" xmlns="http://www.w3.org/2000/svg" x="0px" y="0px"
	 viewBox="0 0 87.87 87.87" style="enable-background:new 0 0 87.87 87.87;" xml:space="preserve">
<g>
	<g>
		<g>
			<g>
				<path d="M43.96,1.37c-23.44,0-42.52,19.07-42.52,42.52c0,23.44,19.07,42.52,42.52,42.52c23.45,0,42.52-19.07,42.52-42.52
					C86.48,20.45,67.41,1.37,43.96,1.37z M43.96,77.39c-18.47,0-33.5-15.03-33.5-33.5c0-18.47,15.03-33.5,33.5-33.5
					c18.47,0,33.5,15.03,33.5,33.5C77.47,62.36,62.44,77.39,43.96,77.39z"/>
			</g>
		</g>
	</g>
</g>
<g>
	<path d="M27.49,35.96c2.61,0,4.8-1.77,5.46-4.17h9.06v4.88c2.96-0.1,5.43-2.13,6.19-4.88h7.3c0.66,2.4,2.85,4.17,5.46,4.17
		c3.13,0,5.67-2.54,5.67-5.67s-2.54-5.67-5.67-5.67c-2.61,0-4.8,1.77-5.46,4.17h-7.17c-0.56-3.03-3.16-5.33-6.32-5.44v5.44h-9.06
		c-0.66-2.4-2.85-4.17-5.46-4.17c-3.13,0-5.67,2.54-5.67,5.67C21.82,33.42,24.36,35.96,27.49,35.96z"/>
	<polygon points="56.46,45.06 50.03,49.13 45.59,49.13 45.59,39.8 41.76,39.8 41.76,49.13 33.22,49.13 33.22,46.98 21.37,50.86 
		33.22,54.74 33.22,52.13 41.76,52.13 41.76,62.84 45.59,62.84 45.59,52.13 50.03,52.13 56.46,56.2 66.06,56.2 60.75,50.63 
		66.06,45.06 	"/>
	<rect x="36.73" y="65.38" width="14.3" height="5.12"/>
</g>
</svg>
