<?xml version="1.0" encoding="utf-8"?>
<!-- Generator: Adobe Illustrator 24.2.0, SVG Export Plug-In . SVG Version: 6.00 Build 0)  -->
<svg version="1.1" xmlns="http://www.w3.org/2000/svg" x="0px" y="0px"
	 viewBox="0 0 87.87 87.87" style="enable-background:new 0 0 87.87 87.87;" xml:space="preserve">
<g id="Warstwa_2">
	<g>
		<g>
			<g>
				<path d="M39.99,77.16l-1.15,8.94c1.8,0.23,3.63,0.35,5.45,0.35c1.88,0,3.77-0.13,5.62-0.37l-1.18-8.94
					C45.86,77.53,42.87,77.53,39.99,77.16z"/>
				<path d="M70.2,10.22c-2.94-2.27-6.18-4.14-9.6-5.56l-3.46,8.33c2.7,1.12,5.24,2.59,7.56,4.38L70.2,10.22z"/>
				<path d="M5.06,60.33c1.43,3.42,3.3,6.64,5.58,9.58l7.13-5.51c-1.79-2.32-3.27-4.86-4.39-7.55L5.06,60.33z"/>
				<path d="M18.5,77.73c2.95,2.26,6.19,4.12,9.62,5.53l3.43-8.34c-2.7-1.11-5.25-2.58-7.57-4.36L18.5,77.73z"/>
				<path d="M57.16,74.88l3.47,8.32c3.42-1.42,6.65-3.3,9.59-5.57l-5.5-7.14C62.4,72.28,59.86,73.76,57.16,74.88z"/>
				<path d="M86.46,38.38l-8.94,1.17c0.19,1.44,0.28,2.92,0.28,4.39c0,1.46-0.1,2.92-0.28,4.36l8.94,1.16
					c0.24-1.82,0.36-3.68,0.36-5.52C86.82,42.08,86.69,40.21,86.46,38.38z"/>
				<path d="M70.9,64.3l7.15,5.49c2.26-2.95,4.13-6.18,5.55-9.61l-8.33-3.45C74.15,59.43,72.68,61.98,70.9,64.3z"/>
				<path d="M83.59,27.66c-1.42-3.42-3.29-6.65-5.55-9.6l-7.15,5.49c1.78,2.32,3.26,4.87,4.38,7.56L83.59,27.66z"/>
				<path d="M10.79,43.93c0-18.47,15.03-33.5,33.5-33.5c1.48,0,2.96,0.1,4.41,0.29l1.17-8.94c-1.84-0.24-3.72-0.36-5.59-0.36
					c-23.44,0-42.52,19.07-42.52,42.52c0,1.87,0.12,3.75,0.36,5.59l8.94-1.18C10.89,46.89,10.79,45.41,10.79,43.93z"/>
			</g>
		</g>
		<path d="M59.26,27.26c-0.23-2.2-0.9-4.29-1.76-6.31c-0.23-0.55-0.49-1.09-0.75-1.67c-0.87,0.42-1.69,0.81-2.51,1.2
			c-0.49,0.24-0.98,0.49-1.48,0.73l-3.01,1.88c-0.07,0.07-0.14,0.15-0.21,0.21c-0.64,0.5-1.3,0.97-1.91,1.49
			c-2.4,2.03-4.32,4.44-5.6,7.34c-1.32,3.01-1.78,6.18-1.8,9.44c-0.01,3.1,0.37,6.17,0.74,9.24c0.02,0.2,0.01,0.41-0.06,0.6
			c-0.27,0.79-0.6,1.72-0.85,2.41h-3.19v2.7h-0.17c-2.6,0-4.7,2.14-4.7,4.78v6.56h18.36V61.3c0-2.64-2.1-4.78-4.7-4.78h-0.17v-2.7
			H42.2c0.32-1,0.27-0.86,0.85-2.6c0.07-0.2,0.21-0.42,0.38-0.54c2.37-1.56,4.57-3.32,6.58-5.31c2.23-2.2,4.2-4.6,5.77-7.32
			c0.09-0.16,0.17-0.33,0.28-0.52c-1.72-0.26-3.37-0.51-5.07-0.77c0.07-0.09,6.39-3.91,7-4.28c0.42-0.26,0.61-0.35,0.76-0.71
			C59.35,30.31,59.42,28.8,59.26,27.26z M54.34,23.36c-1.75,2.71-3.16,5.61-4.51,8.54c-2.47,5.34-4.68,10.79-6.8,16.28
			c-0.05,0.12-0.1,0.24-0.16,0.36c-0.03-0.01-0.06-0.02-0.09-0.02c0.01-0.09,0.01-0.18,0.03-0.27c1.54-6.97,3.82-13.67,7.51-19.84
			c1.22-2.04,2.63-3.95,4.28-5.67c0.06-0.06,0.13-0.11,0.24-0.13C54.67,22.86,54.5,23.11,54.34,23.36z"/>
	</g>
</g>
<g id="Warstwa_3">
</g>
</svg>
