<?xml version="1.0" encoding="utf-8"?>
<!-- Generator: Adobe Illustrator 24.2.0, SVG Export Plug-In . SVG Version: 6.00 Build 0)  -->
<svg version="1.1" xmlns="http://www.w3.org/2000/svg" x="0px" y="0px"
	 viewBox="0 0 87.87 87.87" style="enable-background:new 0 0 87.87 87.87;" xml:space="preserve">
<g id="Warstwa_2">
</g>
<g id="Warstwa_3">
	<g>
		<path d="M67.85,59.95c1.12-0.88,1.84-2.05,2.4-3.33c0.8-1.84,1.19-3.78,1.42-5.75c0.06-0.54,0.1-1.08,0.15-1.65
			c-0.87-0.06-1.69-0.12-2.51-0.17c-0.49-0.03-0.99-0.05-1.49-0.08l-3.21,0.14c-0.09,0.03-0.17,0.06-0.26,0.07
			c-0.72,0.11-1.45,0.19-2.17,0.32c-2.8,0.53-5.38,1.58-7.67,3.29c-2.38,1.78-4.15,4.07-5.61,6.63c-1.39,2.44-2.45,5.02-3.53,7.61
			c-0.07,0.16-0.18,0.33-0.31,0.45c-1.05,0.93-2.11,1.86-3.17,2.79c-0.74,0.65-2.03,1.8-2.03,1.8L42,72.88l5.54-4.87
			c2.5-0.18,4.97-0.59,7.39-1.24c2.73-0.74,5.35-1.75,7.8-3.2c0.14-0.08,0.28-0.18,0.45-0.29c-1.24-0.97-2.42-1.9-3.65-2.86
			c0.1-0.04,6.77-0.24,7.41-0.26C67.39,60.15,67.57,60.17,67.85,59.95z M48.18,65.88c-0.09,0.08-0.19,0.14-0.29,0.22
			c-0.02-0.02-0.04-0.04-0.06-0.06c0.05-0.07,0.09-0.14,0.14-0.2c4.32-4.81,9.09-9.07,14.73-12.28c1.87-1.06,3.82-1.94,5.89-2.56
			c0.07-0.02,0.15-0.03,0.25,0c-0.24,0.12-0.49,0.24-0.73,0.37c-2.59,1.36-4.98,3.02-7.35,4.72C56.44,59.19,52.28,62.49,48.18,65.88
			z"/>
		<path d="M5.02,60.25c1.42,3.42,3.29,6.64,5.55,9.59l7.15-5.5c-1.78-2.32-3.26-4.86-4.38-7.55L5.02,60.25z"/>
		<path d="M18.4,77.67c2.94,2.26,6.17,4.13,9.59,5.55l3.46-8.33c-2.69-1.12-5.23-2.59-7.55-4.37L18.4,77.67z"/>
		<path d="M44.29,1.42C20.85,1.42,1.78,20.5,1.78,43.94c0,1.87,0.12,3.75,0.36,5.58l8.94-1.18c-0.19-1.45-0.29-2.93-0.29-4.41
			c0-18.47,15.03-33.5,33.5-33.5c18.48,0,33.51,15.03,33.51,33.5c0,18.47-15.03,33.5-33.51,33.5c-1.47,0-2.96-0.1-4.41-0.29
			l-1.17,8.94c1.84,0.24,3.72,0.36,5.58,0.36c23.45,0,42.52-19.07,42.52-42.51C86.82,20.5,67.74,1.42,44.29,1.42z"/>
		<path d="M24.76,57.39h20.82l7.13-6.73V23.39H24.76V57.39z M29.66,28.29h18.15v20.25l-4.18,3.94H29.66V28.29z"/>
		<rect x="33.46" y="31.37" width="10.56" height="3.13"/>
		<rect x="33.46" y="37.91" width="10.56" height="3.13"/>
		<rect x="33.46" y="44.45" width="10.56" height="3.13"/>
	</g>
</g>
</svg>
