<?xml version="1.0" encoding="utf-8"?>
<!-- Generator: Adobe Illustrator 24.2.0, SVG Export Plug-In . SVG Version: 6.00 Build 0)  -->
<svg version="1.1" xmlns="http://www.w3.org/2000/svg" x="0px" y="0px"
	 viewBox="0 0 87.87 87.87" style="enable-background:new 0 0 87.87 87.87;" xml:space="preserve">
<g id="Warstwa_2">
</g>
<g id="Warstwa_3">
	<g>
		<g>
			<g>
				<g>
					<path d="M396.53,73.13c-23.44,0-42.52,19.07-42.52,42.52c0,23.44,19.07,42.52,42.52,42.52c23.45,0,42.52-19.07,42.52-42.52
						C439.05,92.2,419.98,73.13,396.53,73.13z M396.53,149.15c-18.47,0-33.5-15.03-33.5-33.5c0-18.47,15.03-33.5,33.5-33.5
						c18.47,0,33.5,15.03,33.5,33.5C430.03,134.12,415,149.15,396.53,149.15z"/>
				</g>
			</g>
			<g>
				<path d="M374.69,122.63c0,0-2.89-8.3,6.85-7.58c9.74,0.72,17.32-0.72,23.81-9.74s16.59-1.08,15.51,4.33
					c-1.08,5.41-14.07,13.71-26.7,11.9C381.55,119.75,374.69,122.63,374.69,122.63z"/>
				<path d="M383.59,100.13l-2.66,12.12c0,0,10.25,1.93,16.25-2.51s6.38-5.8,6.38-5.8l-3.77-4.1L383.59,100.13z"/>
				<path d="M389.29,87.89c0,0,0.46,6.8,8.18,8.12c7.72,1.32,6.66,7.79,6.66,7.79s5.34-7.19,0.92-10.49
					C401.15,90.39,394.3,93.04,389.29,87.89z"/>
			</g>
		</g>
		<g>
			<polygon points="390.04,130.1 425.16,119.51 390.97,132.82 			"/>
			<g>
				<path d="M387.99,138.19c2.84-1.03,4.34-4.15,3.35-7.02c-0.99-2.87-4.09-4.4-6.96-3.47L387.99,138.19z"/>
			</g>
			<g>
				<g>
					<path d="M384.5,133.45l-6.52,2.25c-0.16-1.67,0.85-3.31,2.49-3.88c1.34-0.46,2.77-0.09,3.75,0.82l-0.8-2.31
						c-1.09-0.38-2.31-0.42-3.47-0.02c-2.73,0.94-4.22,3.94-3.32,6.68l0.25,0.77l8.14-2.81L384.5,133.45z"/>
				</g>
			</g>
		</g>
	</g>
	<g>
		<path d="M44.29,1.42c-23.44,0-42.52,19.07-42.52,42.52c0,23.44,19.07,42.52,42.52,42.52c23.45,0,42.52-19.07,42.52-42.52
			C86.82,20.49,67.74,1.42,44.29,1.42z M44.29,77.44c-18.47,0-33.5-15.03-33.5-33.5c0-18.47,15.03-33.5,33.5-33.5
			c18.47,0,33.5,15.03,33.5,33.5C77.8,62.41,62.77,77.44,44.29,77.44z"/>
		<path d="M41.94,49.84c12.63,1.8,25.61-6.49,26.7-11.9c1.08-5.41-9.02-13.35-15.51-4.33c-6.49,9.02-14.07,10.46-23.81,9.74
			c-9.74-0.72-6.85,7.58-6.85,7.58S29.31,48.03,41.94,49.84z"/>
		<path d="M44.94,38.03c6-4.45,6.38-5.8,6.38-5.8l-3.77-4.1l-16.2,0.3l-2.66,12.12C28.69,40.54,38.94,42.47,44.94,38.03z"/>
		<path d="M45.23,24.29c7.72,1.32,6.66,7.79,6.66,7.79s5.34-7.19,0.92-10.49c-3.9-2.91-10.75-0.26-15.77-5.41
			C37.05,16.18,37.51,22.98,45.23,24.29z"/>
		<path d="M38.46,58.19c-1.35-2.02-3.92-2.98-6.33-2.2l3.61,10.49c2.38-0.87,3.82-3.2,3.63-5.63L72.92,47.8L38.46,58.19z"/>
		<path d="M25.74,63.98c-0.16-1.67,0.85-3.31,2.49-3.88c1.34-0.46,2.77-0.09,3.75,0.82l-0.8-2.31c-1.09-0.38-2.31-0.42-3.47-0.02
			c-2.73,0.94-4.22,3.94-3.32,6.68l0.25,0.77l8.14-2.81l-0.52-1.51L25.74,63.98z"/>
	</g>
</g>
</svg>
