<?xml version="1.0" encoding="utf-8"?>
<!-- Generator: Adobe Illustrator 24.2.0, SVG Export Plug-In . SVG Version: 6.00 Build 0)  -->
<svg version="1.1" xmlns="http://www.w3.org/2000/svg" x="0px" y="0px"
	 viewBox="0 0 87.87 87.87" style="enable-background:new 0 0 87.87 87.87;" xml:space="preserve">
<g id="Warstwa_2">
	<g>
		<g>
			<g>
				<path d="M44.29,1.42c-23.44,0-42.52,19.07-42.52,42.52c0,23.44,19.07,42.52,42.52,42.52c23.45,0,42.52-19.07,42.52-42.52
					C86.82,20.49,67.74,1.42,44.29,1.42z M44.29,77.44c-18.47,0-33.5-15.03-33.5-33.5c0-18.47,15.03-33.5,33.5-33.5
					c18.47,0,33.5,15.03,33.5,33.5C77.8,62.41,62.77,77.44,44.29,77.44z"/>
			</g>
		</g>
	</g>
	<path d="M61.78,26.81c-1.57,0-3.18,0.17-4.68,0.6c-2.11,0.6-3.46,2.13-3.99,4.3c-0.1,0.42-0.13,0.86-0.2,1.28c0-0.01,0-0.01,0-0.02
		c0,0.4,0.04,0.83,0.1,1.26h-1.45v-4.45H49.8v4.45h-2.5v-6.16h-1.75v6.16h-0.84h-0.82h-0.84v-6.16h-1.75v6.16h-2.5v-4.45h-1.75v4.45
		h-1.45c0.05-0.43,0.09-0.86,0.1-1.26c0,0.01,0,0.01,0,0.02c-0.06-0.43-0.09-0.87-0.2-1.28c-0.54-2.17-1.88-3.7-3.99-4.3
		c-1.5-0.43-3.12-0.6-4.68-0.6c-1.84,0-3.11,1.8-2.84,3.69c0.27,1.92,1.88,3.09,3.77,2.72c0.94-0.19,1.84-0.52,2.78-0.7
		c1.29-0.25,1.79,0.26,1.37,1.54c-0.46,1.41-1.06,2.78-1.71,4.11c-1.48,2.99-3.18,5.88-3.96,9.16c-0.99,4.22-0.4,9.34,2.35,13.33
		c0.8,1.33,2.01,2.54,3.53,3.55c0.09,0.06,0.17,0.12,0.26,0.18c0.05,0.03,0.1,0.06,0.14,0.09c0.78,0.5,1.62,0.96,2.54,1.33
		c0.04,0.01,0.07,0.03,0.11,0.06h0.12c2.61,1.06,5.71,1.68,9.04,1.68s6.42-0.62,9.04-1.68h0.06c0.03-0.02,0.07-0.04,0.11-0.06
		c0.02-0.01,0.04-0.02,0.06-0.03c3.24-1.35,5.7-3.39,6.86-5.79c2.37-3.88,2.85-8.67,1.91-12.66c-0.77-3.28-2.48-6.18-3.96-9.16
		c-0.66-1.33-1.25-2.7-1.71-4.11c-0.42-1.28,0.07-1.79,1.37-1.54c0.94,0.18,1.85,0.52,2.78,0.7c1.9,0.38,3.5-0.8,3.77-2.72
		C64.88,28.61,63.62,26.81,61.78,26.81z M32.91,55.36c-2.42-5.86,0.92-15.24,1.86-17.67h2.27v22.07
		C35.36,58.9,33.81,57.54,32.91,55.36z M38.79,60.49v-22.8h2.5v23.32c-0.66-0.08-1.37-0.21-2.09-0.41
		C39.05,60.56,38.92,60.53,38.79,60.49z M44.71,61.13h-0.82c-0.24,0.01-0.52,0.01-0.84,0V37.69h0.84h0.82h0.84v23.45
		C45.23,61.14,44.94,61.14,44.71,61.13z M47.3,61.01V37.69h2.5v22.8c-0.12,0.04-0.26,0.07-0.41,0.1
		C48.66,60.79,47.95,60.92,47.3,61.01z M55.68,55.36c-0.9,2.18-2.45,3.54-4.13,4.4V37.69h2.27C54.77,40.12,58.1,49.5,55.68,55.36z"
		/>
</g>
<g id="Warstwa_3">
	<g>
		<g>
			<g>
				<g>
					<path d="M396.53,73.13c-23.44,0-42.52,19.07-42.52,42.52c0,23.44,19.07,42.52,42.52,42.52c23.45,0,42.52-19.07,42.52-42.52
						C439.05,92.2,419.98,73.13,396.53,73.13z M396.53,149.15c-18.47,0-33.5-15.03-33.5-33.5c0-18.47,15.03-33.5,33.5-33.5
						c18.47,0,33.5,15.03,33.5,33.5C430.03,134.12,415,149.15,396.53,149.15z"/>
				</g>
			</g>
			<g>
				<path d="M374.69,122.63c0,0-2.89-8.3,6.85-7.58c9.74,0.72,17.32-0.72,23.81-9.74s16.59-1.08,15.51,4.33
					c-1.08,5.41-14.07,13.71-26.7,11.9C381.55,119.75,374.69,122.63,374.69,122.63z"/>
				<path d="M383.59,100.13l-2.66,12.12c0,0,10.25,1.93,16.25-2.51s6.38-5.8,6.38-5.8l-3.77-4.1L383.59,100.13z"/>
				<path d="M389.29,87.89c0,0,0.46,6.8,8.18,8.12c7.72,1.32,6.66,7.79,6.66,7.79s5.34-7.19,0.92-10.49
					C401.15,90.39,394.3,93.04,389.29,87.89z"/>
			</g>
		</g>
		<g>
			<polygon points="390.04,130.1 425.16,119.51 390.97,132.82 			"/>
			<g>
				<path d="M387.99,138.19c2.84-1.03,4.34-4.15,3.35-7.02c-0.99-2.87-4.09-4.4-6.96-3.47L387.99,138.19z"/>
			</g>
			<g>
				<g>
					<path d="M384.5,133.45l-6.52,2.25c-0.16-1.67,0.85-3.31,2.49-3.88c1.34-0.46,2.77-0.09,3.75,0.82l-0.8-2.31
						c-1.09-0.38-2.31-0.42-3.47-0.02c-2.73,0.94-4.22,3.94-3.32,6.68l0.25,0.77l8.14-2.81L384.5,133.45z"/>
				</g>
			</g>
		</g>
	</g>
</g>
</svg>
