<?xml version="1.0" encoding="utf-8"?>
<!-- Generator: Adobe Illustrator 24.2.0, SVG Export Plug-In . SVG Version: 6.00 Build 0)  -->
<svg version="1.1" id="Warstwa_3" xmlns="http://www.w3.org/2000/svg" x="0px" y="0px"
	 viewBox="0 0 87.87 87.87" style="enable-background:new 0 0 87.87 87.87;" xml:space="preserve">
<g>
	<g>
		<g>
			<path d="M44.29,1.42c-23.44,0-42.52,19.07-42.52,42.52c0,23.44,19.07,42.52,42.52,42.52c23.45,0,42.52-19.07,42.52-42.52
				C86.82,20.49,67.74,1.42,44.29,1.42z M44.29,77.44c-18.47,0-33.5-15.03-33.5-33.5c0-18.47,15.03-33.5,33.5-33.5
				c18.47,0,33.5,15.03,33.5,33.5C77.8,62.41,62.77,77.44,44.29,77.44z"/>
		</g>
	</g>
	<g>
		<path d="M40.73,31.75c-2.17-0.51-4.43,0.88-4.94,3.04c-0.52,2.21,0.87,4.45,3.1,4.97c2.21,0.52,4.47-0.87,4.98-3.07
			C44.38,34.5,42.97,32.28,40.73,31.75z"/>
		<path d="M55.93,37.84c-1.41,0-2.59,1.15-2.58,2.53c0.01,1.41,1.21,2.57,2.66,2.57c1.44,0.01,2.62-1.15,2.6-2.55
			C58.6,38.99,57.39,37.85,55.93,37.84z"/>
		<path d="M66.34,34.55c-0.79-6.38-8.19-15.42-19.36-15.53c-12.58-0.12-21.14,6.07-21.34,16.5c0.04,4.95,1.91,3.68,0.95,6.31
			c-0.99,2.69-2.62,5.35-3.66,7.19c-0.37,0.67,0,1.51,0.75,1.68l2.47,0.35c0,0-0.33,3.1-0.33,3.41c-0.01,0.3,1,0.42,1.39,0.93
			c0.39,0.51-1.43,1.48-0.14,2.2c1.29,0.73,1.38,1.53,0.86,2.42c-0.52,0.89-0.5,3.55,2.44,3.66c3.33,0.13,8.67-0.79,10.03,1.44
			c1.36,2.23,4.12,8.16,4.12,8.16s3.63-9.44,15.37-13.15c0,0-2.13-4.78,0.79-9.01C63.45,47.08,67.25,41.87,66.34,34.55z
			 M49.36,36.18c-0.6,0.25-1.19,0.5-1.78,0.77c-0.08,0.04-0.13,0.14-0.19,0.22c-0.02,0.03-0.01,0.09-0.03,0.12
			c-0.22,0.47-0.06,0.82,0.3,1.16c0.34,0.32,0.63,0.71,0.95,1.06c0.07,0.08,0.09,0.19,0.05,0.28c-0.51,1.09-1.19,2.06-2.06,2.89
			c-0.08,0.07-0.19,0.09-0.29,0.05c-0.62-0.25-1.24-0.5-1.87-0.74c-0.05-0.02-0.14-0.01-0.19,0.02c-0.14,0.07-0.26,0.19-0.4,0.25
			c-0.27,0.11-0.33,0.3-0.34,0.57c-0.02,0.58-0.06,1.17-0.11,1.75c-0.04,0.06-0.09,0.13-0.14,0.19c-1.14,0.43-2.32,0.63-3.53,0.62
			c-0.11,0-0.22-0.07-0.26-0.17c-0.25-0.58-0.51-1.15-0.76-1.73c-0.06-0.13-0.13-0.21-0.27-0.23c-0.25-0.04-0.53-0.18-0.75-0.12
			c-0.22,0.05-0.39,0.3-0.58,0.46c-0.33,0.28-0.66,0.57-0.99,0.86c-0.08,0.08-0.21,0.1-0.31,0.05c-1.09-0.5-2.05-1.17-2.89-2.02
			c-0.06-0.06-0.09-0.15-0.12-0.2c0.24-0.62,0.46-1.18,0.7-1.74c0.09-0.21,0.04-0.36-0.04-0.58c-0.23-0.66-0.77-0.55-1.26-0.59
			c-0.41-0.04-0.82-0.06-1.23-0.08c-0.09,0-0.18-0.07-0.21-0.15c-0.43-1.12-0.63-2.28-0.63-3.47c0-0.13,0.08-0.24,0.2-0.29
			c0.58-0.24,1.16-0.5,1.74-0.74c0.13-0.05,0.19-0.13,0.21-0.26c0.04-0.25,0.18-0.52,0.12-0.74c-0.06-0.22-0.31-0.38-0.47-0.57
			c-0.29-0.33-0.58-0.67-0.89-1c-0.09-0.09-0.09-0.17-0.04-0.28c0.51-1.1,1.2-2.06,2.07-2.91c0.11-0.11,0.21-0.06,0.31-0.02
			c0.6,0.23,1.2,0.47,1.81,0.7c0.07,0.03,0.18,0.01,0.25-0.03c0.14-0.07,0.26-0.19,0.4-0.25c0.24-0.1,0.28-0.28,0.29-0.5
			c0.03-0.59,0.07-1.18,0.11-1.77c0.01-0.1,0.07-0.18,0.16-0.22c1.13-0.41,2.3-0.61,3.5-0.61c0.12,0,0.24,0.08,0.28,0.19
			c0.25,0.59,0.51,1.18,0.78,1.77c0.03,0.07,0.12,0.12,0.19,0.16c0.05,0.03,0.11,0.02,0.17,0.04c0.46,0.21,0.8,0.05,1.13-0.29
			c0.33-0.34,0.72-0.63,1.08-0.95c0.08-0.07,0.15-0.11,0.26-0.05c1.12,0.51,2.11,1.2,2.96,2.08c0.02,0.08,0.03,0.16,0.05,0.23
			c-0.23,0.61-0.47,1.22-0.72,1.83c-0.05,0.12-0.03,0.2,0.03,0.29c0.1,0.13,0.21,0.27,0.27,0.42c0.09,0.21,0.24,0.25,0.44,0.26
			c0.6,0.03,1.21,0.08,1.81,0.11c0.12,0.01,0.22,0.08,0.26,0.19c0.42,1.12,0.62,2.28,0.61,3.47C49.53,36.04,49.46,36.14,49.36,36.18
			z M59.66,43.56c-0.07,0.06-0.13,0.15-0.21,0.21c-0.15,0.1-0.16,0.23-0.12,0.39c0.08,0.36,0.14,0.71,0.2,1.07
			c0.01,0.04-0.03,0.11-0.06,0.14c-0.63,0.42-1.33,0.7-2.07,0.86c-0.07-0.02-0.12-0.04-0.18-0.07c-0.24-0.32-0.49-0.63-0.73-0.94
			c-0.05-0.07-0.11-0.11-0.2-0.1c-0.16,0.01-0.35-0.03-0.48,0.03c-0.13,0.06-0.19,0.24-0.29,0.36c-0.16,0.22-0.32,0.44-0.48,0.66
			c-0.05,0.07-0.1,0.09-0.18,0.07c-0.74-0.15-1.44-0.42-2.09-0.82c-0.05-0.03-0.08-0.08-0.1-0.1c0.06-0.41,0.11-0.78,0.16-1.15
			c0.02-0.14-0.03-0.23-0.11-0.35c-0.24-0.36-0.56-0.22-0.86-0.18c-0.26,0.03-0.51,0.08-0.77,0.12c-0.07,0.01-0.12-0.01-0.16-0.07
			c-0.43-0.62-0.73-1.29-0.91-2.01c0.03-0.07,0.05-0.13,0.08-0.2c0.32-0.23,0.64-0.46,0.96-0.69c0.07-0.05,0.1-0.1,0.09-0.19
			c-0.01-0.16,0.03-0.34-0.04-0.47c-0.07-0.12-0.25-0.19-0.38-0.28c-0.23-0.16-0.46-0.32-0.7-0.48c-0.07-0.05-0.08-0.09-0.07-0.16
			c0.15-0.74,0.43-1.42,0.83-2.05c0.05-0.08,0.12-0.06,0.19-0.05c0.41,0.06,0.81,0.12,1.22,0.17c0.05,0.01,0.11-0.02,0.15-0.05
			c0.08-0.06,0.13-0.15,0.21-0.2c0.14-0.09,0.13-0.21,0.11-0.34c-0.07-0.36-0.13-0.72-0.2-1.09c-0.01-0.08,0.01-0.12,0.08-0.16
			c0.63-0.4,1.31-0.69,2.05-0.85c0.07,0.03,0.13,0.05,0.2,0.08c0.24,0.32,0.49,0.64,0.75,0.96c0.03,0.04,0.09,0.06,0.14,0.07
			c0.03,0.01,0.07,0,0.11,0c0.31,0.06,0.5-0.08,0.65-0.33c0.15-0.25,0.35-0.48,0.52-0.72c0.04-0.05,0.08-0.08,0.15-0.07
			c0.77,0.15,1.48,0.43,2.14,0.85c0.02,0.04,0.04,0.09,0.06,0.14c-0.05,0.4-0.11,0.8-0.17,1.21c-0.01,0.08,0.01,0.12,0.07,0.17
			c0.08,0.07,0.17,0.13,0.23,0.21c0.08,0.12,0.18,0.12,0.31,0.1c0.38-0.06,0.75-0.12,1.13-0.19c0.1-0.02,0.15,0.02,0.2,0.09
			c0.42,0.62,0.72,1.28,0.89,2c-0.02,0.06-0.04,0.11-0.06,0.17c-0.33,0.23-0.66,0.47-0.98,0.71c-0.04,0.03-0.06,0.1-0.08,0.16
			c-0.01,0.02,0.01,0.05,0,0.08c-0.06,0.31,0.09,0.5,0.36,0.66c0.26,0.15,0.49,0.34,0.74,0.51c0.07,0.05,0.08,0.1,0.07,0.17
			c-0.15,0.73-0.42,1.4-0.82,2.03c-0.06,0.03-0.11,0.05-0.17,0.08c-0.42-0.07-0.84-0.13-1.26-0.19
			C59.74,43.52,59.69,43.54,59.66,43.56z"/>
	</g>
</g>
</svg>
