<?xml version="1.0" encoding="utf-8"?>
<!-- Generator: Adobe Illustrator 24.2.0, SVG Export Plug-In . SVG Version: 6.00 Build 0)  -->
<svg version="1.1" xmlns="http://www.w3.org/2000/svg" x="0px" y="0px"
	 viewBox="0 0 87.87 87.87" style="enable-background:new 0 0 87.87 87.87;" xml:space="preserve">
<g id="Warstwa_2">
	<g>
		<g>
			<path d="M44.29,1.42c-23.44,0-42.52,19.07-42.52,42.52c0,23.44,19.07,42.52,42.52,42.52c23.45,0,42.52-19.07,42.52-42.52
				C86.82,20.49,67.74,1.42,44.29,1.42z M44.29,77.44c-18.47,0-33.5-15.03-33.5-33.5c0-18.47,15.03-33.5,33.5-33.5
				c18.47,0,33.5,15.03,33.5,33.5C77.8,62.41,62.77,77.44,44.29,77.44z"/>
		</g>
	</g>
	<g>
		<path d="M59.88,54.08c-2.12,0.13-4.92,2.25-7.61,3.47c-3.3,1.49-8.44,0.29-8.45,0.29c0.79-0.37,4.01-1.14,4.66-1.43
			c3.45-1.52,3.16-4.68,1.52-4.66c-2.17,0.04-3.45,0.57-7.78,1.16c-3.28,0.45-7.17,0.28-9.03,0.99c-2.63,1-6.87,7.76-6.87,7.76
			l6.55,6.35c0,0,4.05-3.99,6.03-3.99c4.49,0,4.68-0.06,8.85-0.29c1.77-0.09,2.15-0.17,3.16-0.51c5.41-1.83,11.22-6.7,11.33-7.29
			C62.49,54.6,61,54.01,59.88,54.08z"/>
		<path d="M34.57,50.44l0.34-0.34c1.68-2.21,4.14-3.82,6.84-2.85l1.21,0.43c7.18,2.57,13.53,1.56,17.22-3.59
			c5.75-8.05,2.49-18.29-6.77-22.6c-7.69-3.59-16.35-1.06-20.76,5.19l-2.25,6.8l-4.2,1.96l2.07,4.45l-2.6,7.86
			c-0.41,1.07,0.36,2.23,1.51,2.27L34.57,50.44z M33.9,32.67c0.36-0.64,0.84-2.46,0.94-3.24c0.1-0.75,0.7-1.22,1.75-0.94
			c0.04,0.01,0.08,0.02,0.12,0.03c2.27,0.66,3.73,2.51,3.25,4.14s-2.7,2.42-4.97,1.76c-0.04-0.01-0.08-0.02-0.12-0.04
			C33.84,34.08,33.52,33.33,33.9,32.67z"/>
	</g>
</g>
<g id="Warstwa_3">
	<g>
		<g>
			<g>
				<g>
					<path d="M396.53,73.13c-23.44,0-42.52,19.07-42.52,42.52c0,23.44,19.07,42.52,42.52,42.52c23.45,0,42.52-19.07,42.52-42.52
						C439.05,92.2,419.98,73.13,396.53,73.13z M396.53,149.15c-18.47,0-33.5-15.03-33.5-33.5c0-18.47,15.03-33.5,33.5-33.5
						c18.47,0,33.5,15.03,33.5,33.5C430.03,134.12,415,149.15,396.53,149.15z"/>
				</g>
			</g>
			<g>
				<path d="M374.69,122.63c0,0-2.89-8.3,6.85-7.58c9.74,0.72,17.32-0.72,23.81-9.74s16.59-1.08,15.51,4.33
					c-1.08,5.41-14.07,13.71-26.7,11.9C381.55,119.75,374.69,122.63,374.69,122.63z"/>
				<path d="M383.59,100.13l-2.66,12.12c0,0,10.25,1.93,16.25-2.51s6.38-5.8,6.38-5.8l-3.77-4.1L383.59,100.13z"/>
				<path d="M389.29,87.89c0,0,0.46,6.8,8.18,8.12c7.72,1.32,6.66,7.79,6.66,7.79s5.34-7.19,0.92-10.49
					C401.15,90.39,394.3,93.04,389.29,87.89z"/>
			</g>
		</g>
		<g>
			<polygon points="390.04,130.1 425.16,119.51 390.97,132.82 			"/>
			<g>
				<path d="M387.99,138.19c2.84-1.03,4.34-4.15,3.35-7.02c-0.99-2.87-4.09-4.4-6.96-3.47L387.99,138.19z"/>
			</g>
			<g>
				<g>
					<path d="M384.5,133.45l-6.52,2.25c-0.16-1.67,0.85-3.31,2.49-3.88c1.34-0.46,2.77-0.09,3.75,0.82l-0.8-2.31
						c-1.09-0.38-2.31-0.42-3.47-0.02c-2.73,0.94-4.22,3.94-3.32,6.68l0.25,0.77l8.14-2.81L384.5,133.45z"/>
				</g>
			</g>
		</g>
	</g>
</g>
</svg>
