<?xml version="1.0" encoding="utf-8"?>
<!-- Generator: Adobe Illustrator 24.2.0, SVG Export Plug-In . SVG Version: 6.00 Build 0)  -->
<svg version="1.1" id="Warstwa_3" xmlns="http://www.w3.org/2000/svg" x="0px" y="0px"
	 viewBox="0 0 87.87 87.87" style="enable-background:new 0 0 87.87 87.87;" xml:space="preserve">
<g>
	<g>
		<g>
			<g>
				<path d="M4.74,60.23c1.42,3.42,3.29,6.64,5.55,9.59l7.15-5.5c-1.78-2.32-3.26-4.86-4.38-7.55L4.74,60.23z"/>
				<path d="M18.13,77.65c2.94,2.26,6.17,4.13,9.59,5.55l3.46-8.33c-2.69-1.12-5.23-2.59-7.55-4.37L18.13,77.65z"/>
				<path d="M44.01,1.4C20.57,1.4,1.5,20.48,1.5,43.92c0,1.87,0.12,3.75,0.36,5.58l8.94-1.18c-0.19-1.45-0.29-2.93-0.29-4.41
					c0-18.47,15.03-33.5,33.5-33.5c18.48,0,33.51,15.03,33.51,33.5c0,18.47-15.03,33.5-33.51,33.5c-1.47,0-2.96-0.1-4.41-0.29
					l-1.17,8.94c1.84,0.24,3.72,0.36,5.58,0.36c23.45,0,42.52-19.07,42.52-42.51C86.54,20.48,67.46,1.4,44.01,1.4z"/>
			</g>
		</g>
	</g>
</g>
<g>
	<path d="M64.06,39.28v-1.97c-0.07,0.01-0.13,0.02-0.2,0.02c-1.2,0-2.17-0.96-2.2-2.15h-2.27c-0.2,1.01-1.09,1.78-2.16,1.78
		c-1.07,0-1.96-0.76-2.16-1.78h-2.25c-0.2,1.01-1.22,1.88-2.29,1.85c-1.46-0.04-2.15-0.84-2.36-1.84c0.09-0.94,0.78-1.69,1.68-1.88
		v-1.9c-0.97-0.2-1.7-1.05-1.7-2.08c0-1.03,0.73-1.88,1.7-2.08v-1.9c-0.07,0.01-0.13,0.02-0.2,0.02c-1.16,0-2.09-0.92-2.13-2.07
		h-2.19c-0.2,0.98-1.05,1.71-2.08,1.71c-1.03,0-1.89-0.74-2.08-1.71h-2.17c-0.2,0.98-1.05,1.71-2.08,1.71
		c-1.03,0-1.89-0.74-2.08-1.71h-2.17c-0.2,0.98-1.05,1.71-2.08,1.71c-1.03,0-1.89-0.74-2.08-1.71h-2.19
		c-0.03,1.15-0.97,2.07-2.13,2.07c-0.07,0-0.13-0.01-0.2-0.02v1.9c0.97,0.2,1.7,1.05,1.7,2.08c0,1.03-0.73,1.88-1.7,2.08v1.9
		c0.97,0.2,1.7,1.05,1.7,2.08c0,1.03-0.73,1.88-1.7,2.08v1.9c0.97,0.2,1.7,1.05,1.7,2.08c0,1.03-0.73,1.88-1.7,2.08v1.9
		c0.97,0.2,1.7,1.05,1.7,2.08s-0.73,1.88-1.7,2.08v1.9c0.07-0.01,0.13-0.02,0.2-0.02c1.16,0,2.09,0.92,2.13,2.07h2.19
		c0.2-0.98,1.05-1.71,2.08-1.71c1.03,0,1.89,0.74,2.08,1.71h2.17c0.2-0.98,1.05-1.71,2.08-1.71c0.25,0,0.48,0.04,0.7,0.12
		C38.42,52.28,39,53.07,39,54c0,1.07-0.76,1.95-1.76,2.16v1.97c1,0.21,1.76,1.09,1.76,2.16c0,1.07-0.76,1.95-1.76,2.16v1.97
		c0.07-0.01,0.13-0.02,0.2-0.02c1.2,0,2.17,0.96,2.2,2.15h2.27c0.2-1.01,1.09-1.78,2.16-1.78c1.07,0,1.96,0.76,2.16,1.78h2.25
		c0.2-1.01,1.09-1.78,2.16-1.78c1.07,0,1.96,0.76,2.16,1.78h2.25c0.2-1.01,1.09-1.78,2.16-1.78c1.07,0,1.96,0.76,2.16,1.78h2.27
		c0.04-1.19,1.01-2.15,2.2-2.15c0.07,0,0.14,0.01,0.2,0.02v-1.97c-1-0.21-1.76-1.09-1.76-2.16c0-1.07,0.76-1.95,1.76-2.16v-1.97
		c-1-0.21-1.76-1.09-1.76-2.16c0-1.07,0.76-1.95,1.76-2.16v-1.97c-1-0.21-1.76-1.09-1.76-2.16c0-1.07,0.76-1.95,1.76-2.16v-1.97
		c-1-0.21-1.76-1.09-1.76-2.16C62.3,40.37,63.06,39.49,64.06,39.28z M37.44,37.33c-0.07,0-0.14-0.01-0.2-0.02v1.97
		c1,0.21,1.76,1.09,1.76,2.16c0,1.07-0.76,1.95-1.76,2.16v1.97c1,0.21,1.76,1.09,1.76,2.16c0,0.39-0.1,0.75-0.28,1.07H28.44V28.06
		h16.94v8.46c-0.37,0.27-0.81,0.44-1.31,0.44c-1.07,0-1.96-0.76-2.16-1.78h-2.27C39.61,36.37,38.64,37.33,37.44,37.33z M60.34,62.71
		H40.96v-9.16v-4.76v-9.78h4.42h4.47h10.49V62.71z"/>
	<rect x="43.51" y="41.54" width="14.28" height="18.64"/>
</g>
</svg>
