<?xml version="1.0" encoding="utf-8"?>
<!-- Generator: Adobe Illustrator 24.2.0, SVG Export Plug-In . SVG Version: 6.00 Build 0)  -->
<svg version="1.1" id="Warstwa_2" xmlns="http://www.w3.org/2000/svg" x="0px" y="0px"
	 viewBox="0 0 87.87 87.87" style="enable-background:new 0 0 87.87 87.87;" xml:space="preserve">
<g>
	<g>
		<g>
			<path d="M44.02,1.4C20.57,1.4,1.5,20.47,1.5,43.92c0,23.44,19.07,42.52,42.52,42.52c23.45,0,42.52-19.07,42.52-42.52
				C86.54,20.47,67.46,1.4,44.02,1.4z M44.02,77.42c-18.47,0-33.5-15.03-33.5-33.5c0-18.47,15.03-33.5,33.5-33.5
				c18.47,0,33.5,15.03,33.5,33.5C77.52,62.39,62.49,77.42,44.02,77.42z"/>
		</g>
	</g>
	<g>
		<polygon points="43.74,22.47 24.38,33.51 63.65,33.51 		"/>
		<rect x="24.49" y="58.47" width="38.97" height="3.68"/>
		<rect x="28.94" y="36.35" width="4.2" height="19.3"/>
		<rect x="37.56" y="36.35" width="4.2" height="19.3"/>
		<rect x="46.18" y="36.35" width="4.2" height="19.3"/>
		<rect x="54.8" y="36.35" width="4.2" height="19.3"/>
	</g>
</g>
</svg>
