<?xml version="1.0" encoding="utf-8"?>
<!-- Generator: Adobe Illustrator 24.2.0, SVG Export Plug-In . SVG Version: 6.00 Build 0)  -->
<svg version="1.1" id="Layer_1" xmlns="http://www.w3.org/2000/svg" x="0px" y="0px"
	 viewBox="0 0 87.87 87.87" style="enable-background:new 0 0 87.87 87.87;" xml:space="preserve">
<g>
	<path d="M39.64,77.1l-1.14,8.93c1.79,0.23,3.62,0.35,5.44,0.35c1.88,0,3.76-0.13,5.61-0.37l-1.18-8.92
		C45.49,77.47,42.51,77.47,39.64,77.1z"/>
	<path d="M69.8,10.28c-2.94-2.26-6.16-4.13-9.58-5.55l-3.46,8.31c2.69,1.12,5.23,2.59,7.55,4.37L69.8,10.28z"/>
	<path d="M4.77,60.3c1.43,3.41,3.3,6.63,5.57,9.57l7.12-5.5c-1.79-2.31-3.26-4.85-4.39-7.53L4.77,60.3z"/>
	<path d="M18.19,77.67c2.95,2.25,6.18,4.11,9.6,5.52l3.43-8.32c-2.69-1.11-5.24-2.57-7.56-4.35L18.19,77.67z"/>
	<path d="M56.78,74.82l3.46,8.31c3.41-1.42,6.63-3.29,9.57-5.55l-5.49-7.13C62.01,72.23,59.47,73.7,56.78,74.82z"/>
	<path d="M86.02,38.39l-8.92,1.17c0.19,1.44,0.28,2.91,0.28,4.38c0,1.46-0.1,2.92-0.28,4.36l8.93,1.15
		c0.24-1.82,0.36-3.67,0.36-5.51C86.38,42.08,86.26,40.22,86.02,38.39z"/>
	<path d="M70.49,64.27l7.14,5.48c2.26-2.94,4.12-6.17,5.54-9.59l-8.32-3.44C73.74,59.41,72.27,61.95,70.49,64.27z"/>
	<path d="M83.16,27.69c-1.42-3.42-3.28-6.64-5.54-9.58l-7.14,5.48c1.78,2.32,3.25,4.86,4.37,7.55L83.16,27.69z"/>
	<path d="M10.5,43.94c0-18.44,15-33.44,33.44-33.44c1.47,0,2.95,0.1,4.4,0.29l1.17-8.92C47.67,1.62,45.8,1.5,43.94,1.5
		C20.54,1.5,1.5,20.54,1.5,43.94c0,1.87,0.12,3.74,0.36,5.58l8.92-1.17C10.59,46.89,10.5,45.41,10.5,43.94z"/>
</g>
<path d="M58.38,47.43c0,7.04-5.06,12.9-11.73,14.18V47.85h5.24v-5h-5.24v-6.59c3.65-1.08,6.32-4.45,6.32-8.45
	c0-4.86-3.95-8.81-8.81-8.81s-8.81,3.95-8.81,8.81c0,3.98,2.66,7.36,6.3,8.44v6.6h-5.21v5h5.21v13.82
	c-6.88-1.1-12.16-7.06-12.16-14.24h-5c0,10.72,8.72,19.44,19.44,19.44c10.72,0,19.44-8.72,19.44-19.44H58.38z M40.35,27.82
	c0-2.1,1.71-3.81,3.81-3.81c2.1,0,3.81,1.71,3.81,3.81c0,2.1-1.71,3.81-3.81,3.81C42.06,31.63,40.35,29.92,40.35,27.82z"/>
</svg>
