<?xml version="1.0" encoding="utf-8"?>
<!-- Generator: Adobe Illustrator 24.2.0, SVG Export Plug-In . SVG Version: 6.00 Build 0)  -->
<svg version="1.1" id="Layer_1" xmlns="http://www.w3.org/2000/svg" x="0px" y="0px"
	 viewBox="0 0 87.87 87.87" style="enable-background:new 0 0 87.87 87.87;" xml:space="preserve">
<path d="M43.94,1.5C20.54,1.5,1.5,20.54,1.5,43.94c0,23.4,19.04,42.44,42.44,42.44c23.4,0,42.44-19.04,42.44-42.44
	C86.38,20.54,67.34,1.5,43.94,1.5z M43.94,77.38c-18.44,0-33.44-15-33.44-33.44c0-18.44,15-33.44,33.44-33.44
	c18.44,0,33.44,15,33.44,33.44C77.38,62.37,62.38,77.38,43.94,77.38z"/>
<path d="M67.57,41.44h-6.08c-0.43-3.03-1.62-5.8-3.38-8.14l4.3-4.3c0.98-0.97,0.98-2.56,0-3.54c-0.98-0.98-2.56-0.98-3.54,0
	l-4.3,4.3c-2.34-1.76-5.12-2.95-8.14-3.38V20.3c0-1.38-1.12-2.5-2.5-2.5s-2.5,1.12-2.5,2.5v6.08c-3.03,0.43-5.8,1.62-8.14,3.38
	l-4.3-4.3c-0.98-0.98-2.56-0.98-3.54,0c-0.98,0.98-0.98,2.56,0,3.54l4.3,4.3c-1.76,2.34-2.95,5.12-3.38,8.14H20.3
	c-1.38,0-2.5,1.12-2.5,2.5s1.12,2.5,2.5,2.5h6.08c0.43,3.03,1.62,5.8,3.38,8.14l-4.3,4.3c-0.98,0.98-0.98,2.56,0,3.54
	c0.49,0.49,1.13,0.73,1.77,0.73c0.64,0,1.28-0.24,1.77-0.73l4.3-4.3c2.34,1.76,5.12,2.95,8.14,3.38v6.08c0,1.38,1.12,2.5,2.5,2.5
	s2.5-1.12,2.5-2.5v-6.08c3.03-0.43,5.8-1.62,8.14-3.38l4.3,4.3c0.49,0.49,1.13,0.73,1.77,0.73c0.64,0,1.28-0.24,1.77-0.73
	c0.98-0.97,0.98-2.56,0-3.54l-4.3-4.3c1.76-2.34,2.95-5.12,3.38-8.14h6.08c1.38,0,2.5-1.12,2.5-2.5S68.95,41.44,67.57,41.44z
	 M46.44,31.43c1.66,0.33,3.21,0.99,4.57,1.9l-4.57,4.57V31.43z M41.44,31.43v6.47l-4.57-4.57C38.23,32.42,39.78,31.76,41.44,31.43z
	 M33.33,36.87l4.57,4.57h-6.47C31.76,39.78,32.42,38.23,33.33,36.87z M31.43,46.44h6.47l-4.57,4.57
	C32.42,49.65,31.76,48.1,31.43,46.44z M41.44,56.44c-1.66-0.33-3.21-0.99-4.57-1.9l4.57-4.57V56.44z M43.93,47.13
	c-1.76,0-3.19-1.43-3.19-3.19c0-1.76,1.43-3.19,3.19-3.19c1.76,0,3.19,1.43,3.19,3.19C47.13,45.7,45.7,47.13,43.93,47.13z
	 M46.44,56.44v-6.47l4.57,4.57C49.64,55.46,48.1,56.11,46.44,56.44z M54.54,51.01l-4.57-4.57h6.47
	C56.11,48.1,55.46,49.65,54.54,51.01z M49.97,41.44l4.57-4.57c0.91,1.36,1.57,2.91,1.9,4.57H49.97z"/>
</svg>
