<svg xmlns="http://www.w3.org/2000/svg" viewBox="0 0 87.87 87.87" width="117.16" height="117.16" ><defs><clipPath id="A"><path d="M0 0h87.87v87.87H0z"/></clipPath></defs><g clip-path="url(#A)"><path d="M39.64 77.1l-1.14 8.93a42.84 42.84 0 0 0 5.44.35c1.88 0 3.76-.13 5.61-.37l-1.18-8.92c-2.88.38-5.86.38-8.73.01zM69.8 10.28c-2.94-2.26-6.16-4.13-9.58-5.55l-3.46 8.31a33.67 33.67 0 0 1 7.55 4.37l5.49-7.13zM4.77 60.3c1.43 3.41 3.3 6.63 5.57 9.57l7.12-5.5c-1.79-2.31-3.26-4.85-4.39-7.53l-8.3 3.46zm13.42 17.37a42.65 42.65 0 0 0 9.6 5.52l3.43-8.32a33.28 33.28 0 0 1-7.56-4.35l-5.47 7.15zm38.59-2.85l3.46 8.31a42.57 42.57 0 0 0 9.57-5.55l-5.49-7.13c-2.31 1.78-4.85 3.25-7.54 4.37zm29.24-36.43l-8.92 1.17a33.56 33.56 0 0 1 .28 4.38c0 1.46-.1 2.92-.28 4.36l8.93 1.15c.24-1.82.36-3.67.36-5.51-.01-1.86-.13-3.72-.37-5.55zM70.49 64.27l7.14 5.48c2.26-2.94 4.12-6.17 5.54-9.59l-8.32-3.44c-1.11 2.69-2.58 5.23-4.36 7.55zm12.67-36.58c-1.42-3.42-3.28-6.64-5.54-9.58l-7.14 5.48a33.67 33.67 0 0 1 4.37 7.55l8.31-3.45zM10.5 43.94c0-18.44 15-33.44 33.44-33.44 1.47 0 2.95.1 4.4.29l1.17-8.92c-1.84-.25-3.71-.37-5.57-.37C20.54 1.5 1.5 20.54 1.5 43.94c0 1.87.12 3.74.36 5.58l8.92-1.17c-.19-1.46-.28-2.94-.28-4.41zm23.75 25.41l3.53-6.92c3.1-6.09 1.4-9.16-1.43-14.24-.64-1.14-1.29-2.32-1.94-3.63-4.13-8.33 9.5-21.59 11.06-23.07l5.25-4.98-1.46 7.09c-2.04 9.91-.29 12.97 2.36 17.6l1.26 2.25c6.08 11.25-11.2 21.54-11.93 21.98l-6.7 3.92zm9.59-39.39c-3.74 4.63-6.7 9.87-5.36 12.58.6 1.21 1.23 2.34 1.84 3.44 2.02 3.62 3.95 7.11 3.61 11.6.58-.52 1.17-1.08 1.73-1.67 3.72-3.9 4.8-7.36 3.21-10.3-.41-.76-.82-1.47-1.21-2.16-2.2-3.88-4.07-7.14-3.82-13.49z"/></g></svg>