<svg xmlns="http://www.w3.org/2000/svg" viewBox="0 0 87.87 87.87" width="117.16" height="117.16" ><defs><clipPath id="A"><path d="M0 0h87.87v87.87H0z"/></clipPath></defs><g clip-path="url(#A)"><path d="M4.74 60.22a42.53 42.53 0 0 0 5.54 9.57l7.13-5.49c-1.78-2.32-3.25-4.85-4.37-7.54l-8.3 3.46zm13.35 17.39a42.53 42.53 0 0 0 9.57 5.54l3.45-8.31c-2.69-1.12-5.22-2.58-7.54-4.37l-5.48 7.14zM43.94 1.5C20.54 1.5 1.5 20.54 1.5 43.94a43.06 43.06 0 0 0 .36 5.57l8.92-1.17c-.19-1.45-.29-2.93-.29-4.4 0-18.44 15-33.44 33.44-33.44s33.44 15 33.44 33.44-15 33.44-33.44 33.44c-1.47 0-2.95-.1-4.4-.29l-1.17 8.92c1.84.24 3.71.36 5.57.36 23.4 0 42.44-19.04 42.44-42.44C86.38 20.54 67.34 1.5 43.94 1.5zm21.18 24.77c-.02-.36-.23-.67-.55-.84-.32-.16-.7-.15-1 .04-3.78 2.35-7.35 3.55-10.63 3.55-5.39 0-8.11-3.2-8.22-3.33-.35-.43-.99-.5-1.42-.14-.04.03-4.24 3.41-9.74 3.41-3.27 0-6.34-1.2-9.14-3.55-.29-.25-.7-.31-1.05-.16a1.01 1.01 0 0 0-.61.87c-.02.34-1.84 33.85 20.73 40.96 1.23-6.01-2.41-8.78-4.83-14.69-2.84-6.92 7.11-18.14 7.11-18.14-2.05 12.04.28 13.62 3 19.71 2.19 4.9.28 9.23-2 12.23 20.06-8.64 18.37-39.6 18.35-39.92z"/></g></svg>