<svg xmlns="http://www.w3.org/2000/svg" xmlns:xlink="http://www.w3.org/1999/xlink" viewBox="0 0 87.87 87.87" width="117.16" height="117.16" xmlns:v="https://vecta.io/nano"><defs><clipPath id="A"><path d="M0 0h87.87v87.87H0z"/></clipPath><path id="B" d="M53.5 46.34s9.05-5.3 6.2-10.59c-1.88-3.48-3.57-5.09-2.15-11.96 0 0-7.88 7.46-5.92 11.42 1.95 3.94 4.36 6.25 1.87 11.13z"/></defs><g clip-path="url(#A)"><path d="M43.94 1.5C20.54 1.5 1.5 20.54 1.5 43.94s19.04 42.44 42.44 42.44 42.44-19.04 42.44-42.44S67.34 1.5 43.94 1.5zm0 75.88c-18.44 0-33.44-15-33.44-33.44s15-33.44 33.44-33.44 33.44 15 33.44 33.44c0 18.43-15 33.44-33.44 33.44zm-3.62-24.46s14.34-8.4 9.82-16.77c-2.98-5.51-5.65-8.07-3.41-18.95 0 0-12.48 11.82-9.38 18.08s6.91 9.91 2.97 17.64z"/><use xlink:href="#B"/><path d="M29.8 46.34s9.05-5.3 6.2-10.59c-1.88-3.48-3.57-5.09-2.15-11.96 0 0-7.88 7.46-5.92 11.42 1.95 3.94 4.36 6.25 1.87 11.13zm27.88 6.53l-13.74 5.41-13.74-5.41-1.84 4.65 8.75 3.44-8.75 3.45 1.84 4.65 13.74-5.41 13.74 5.41 1.83-4.65-8.75-3.45 8.75-3.44-1.83-4.65z"/></g></svg>