<svg xmlns="http://www.w3.org/2000/svg" viewBox="0 0 87.87 87.87" width="117.16" height="117.16" ><defs><clipPath id="A"><path d="M0 0h87.87v87.87H0z"/></clipPath></defs><g clip-path="url(#A)"><path d="M4.74 60.22a42.53 42.53 0 0 0 5.54 9.57l7.13-5.49c-1.78-2.32-3.25-4.85-4.37-7.54l-8.3 3.46zm13.35 17.39a42.53 42.53 0 0 0 9.57 5.54l3.45-8.31c-2.69-1.12-5.22-2.58-7.54-4.37l-5.48 7.14zM43.94 1.5C20.54 1.5 1.5 20.54 1.5 43.94a43.06 43.06 0 0 0 .36 5.57l8.92-1.17c-.19-1.45-.29-2.93-.29-4.4 0-18.44 15-33.44 33.44-33.44s33.44 15 33.44 33.44-15 33.44-33.44 33.44c-1.47 0-2.95-.1-4.4-.29l-1.17 8.92c1.84.24 3.71.36 5.57.36 23.4 0 42.44-19.04 42.44-42.44C86.38 20.54 67.34 1.5 43.94 1.5zm18.24 19.02l-8.76 8.76-2.14-2.14c-1.26-1.26-2.94-1.95-4.72-1.95-1.64 0-3.2.6-4.4 1.7l-.41.39c-.85.85-1.56 1.81-2.12 2.86a4.33 4.33 0 0 1-3.62 2.32c-4.29.25-8.23 2.07-11.11 5.13-6.2 6.61-5.76 17.5.98 24.28 3.47 3.49 8.21 5.49 12.99 5.49 4.48 0 8.65-1.7 11.74-4.79 2.84-2.83 4.53-6.66 4.76-10.75.09-1.55.91-2.88 2.21-3.55 1.23-.64 2.34-1.48 3.29-2.51 0 0 .04-.04.04-.05 2.4-2.61 2.3-6.63-.22-9.16l-2.14-2.14 8.79-8.79a30.37 30.37 0 0 0-5.16-5.1zM40.67 58.99a1.6 1.6 0 0 1-2.26 0l-9.57-9.57c-.63-.63-.63-1.64 0-2.26.63-.63 1.64-.63 2.26 0l9.57 9.56a1.6 1.6 0 0 1 0 2.27zm7.61-12.2c-.97.97-2.26 1.5-3.63 1.5s-2.66-.53-3.62-1.5c-.97-.97-1.5-2.25-1.5-3.62s.53-2.66 1.5-3.63 2.25-1.5 3.62-1.5 2.66.53 3.63 1.5 1.5 2.26 1.5 3.63c.01 1.37-.53 2.66-1.5 3.62z"/></g></svg>