<svg xmlns="http://www.w3.org/2000/svg" viewBox="0 0 87.87 87.87" width="117.16" height="117.16"  xmlns:v="https://vecta.io/nano"><defs><clipPath id="A"><path d="M0 0h87.87v87.87H0z"/></clipPath></defs><g clip-path="url(#A)" fill="#231f20"><path d="M43.94 1.5C20.54 1.5 1.5 20.54 1.5 43.94s19.04 42.44 42.44 42.44 42.44-19.04 42.44-42.44S67.34 1.5 43.94 1.5zm0 75.88c-18.44 0-33.44-15-33.44-33.44s15-33.44 33.44-33.44 33.44 15 33.44 33.44c0 18.43-15 33.44-33.44 33.44z"/><path d="M40.07 58.38a1.53 1.53 0 0 1-1.09.45c-.39 0-.79-.15-1.08-.45l-9.18-9.18c-.6-.6-.6-1.57 0-2.17s1.57-.6 2.17 0l9.18 9.17c.6.6.6 1.58 0 2.18h0zm20.64-36.91l-8.4 8.4-2.06-2.06a6.36 6.36 0 0 0-4.53-1.87c-1.57 0-3.07.58-4.22 1.63l-.4.38a11.6 11.6 0 0 0-2.03 2.74 4.2 4.2 0 0 1-3.47 2.23c-4.11.24-7.89 1.98-10.66 4.93-5.95 6.34-5.53 16.78.94 23.29 3.33 3.35 7.87 5.27 12.47 5.27 4.3 0 8.3-1.63 11.26-4.6 2.72-2.72 4.35-6.38 4.57-10.31.08-1.49.88-2.76 2.12-3.41 1.18-.61 6.23-3.25 7.14-4.23 0 0 .04-.04.04-.05 1.51-2.6-5.1-.29-7.6-4.45-1.23-2.05 1.34-4.57 1.34-4.57l8.44-8.43c-1.45-1.82-3.11-3.46-4.95-4.89h0zM44.55 34.12l2.3 4.66 5.14.74-3.72 3.63.88 5.12-4.6-2.42-4.6 2.42.88-5.12-3.73-3.63 5.15-.74 2.3-4.66z" fill-rule="evenodd"/></g></svg>