<?xml version="1.0" encoding="utf-8"?>
<!-- Generator: Adobe Illustrator 24.2.0, SVG Export Plug-In . SVG Version: 6.00 Build 0)  -->
<svg version="1.1" id="Layer_1" xmlns="http://www.w3.org/2000/svg" xmlns:xlink="http://www.w3.org/1999/xlink" x="0px" y="0px"
	 viewBox="0 0 87.87 87.87" style="enable-background:new 0 0 87.87 87.87;" xml:space="preserve">
<style type="text/css">
	.st0{clip-path:url(#SVGID_2_);fill:#231F20;}
</style>
<g>
	<defs>
		<rect id="SVGID_1_" y="0" width="87.87" height="87.87"/>
	</defs>
	<clipPath id="SVGID_2_">
		<use xlink:href="#SVGID_1_"  style="overflow:visible;"/>
	</clipPath>
	<path class="st0" d="M4.74,60.22c1.42,3.41,3.28,6.63,5.54,9.57l7.13-5.49c-1.78-2.32-3.25-4.85-4.37-7.54L4.74,60.22z"/>
	<path class="st0" d="M18.1,77.6c2.94,2.26,6.16,4.12,9.57,5.54l3.45-8.31c-2.69-1.12-5.22-2.58-7.54-4.37L18.1,77.6z"/>
	<path class="st0" d="M43.94,1.5C20.54,1.5,1.5,20.54,1.5,43.94c0,1.86,0.12,3.74,0.36,5.57l8.92-1.17
		c-0.19-1.45-0.29-2.93-0.29-4.4c0-18.44,15-33.44,33.44-33.44c18.44,0,33.44,15,33.44,33.44c0,18.43-15,33.44-33.44,33.44
		c-1.47,0-2.95-0.1-4.4-0.29l-1.17,8.92c1.84,0.24,3.71,0.36,5.57,0.36c23.4,0,42.44-19.04,42.44-42.44
		C86.38,20.54,67.34,1.5,43.94,1.5"/>
	<path class="st0" d="M56.18,21.84h-4.7c-0.7,0-1.28,0.58-1.28,1.28v18.74c0,0.7,0.58,1.28,1.28,1.28h1.1v10.14l-1.69,3.46
		l2.33,8.06h0.18h0.87h0.19l2.33-8.06l-1.69-3.46V43.13h1.09c0.7,0,1.28-0.58,1.28-1.28V23.11C57.46,22.41,56.89,21.84,56.18,21.84"
		/>
	<path class="st0" d="M44.61,28.17c-0.01-0.08-0.03-0.16-0.04-0.24c-0.03-0.18-0.06-0.36-0.09-0.53c-0.02-0.09-0.04-0.17-0.07-0.25
		c-0.04-0.17-0.09-0.33-0.15-0.5c-0.03-0.08-0.06-0.15-0.08-0.23c-0.07-0.17-0.14-0.34-0.22-0.5c-0.03-0.06-0.06-0.12-0.09-0.18
		c-0.1-0.19-0.2-0.37-0.31-0.55c-0.02-0.03-0.04-0.06-0.06-0.09c-0.6-0.93-1.42-1.7-2.37-2.26v5.1l-3.59,2.07l-3.59-2.07v-5.11
		c-0.29,0.17-0.57,0.35-0.84,0.56c-0.61,0.48-1.14,1.06-1.57,1.72c-0.02,0.03-0.04,0.06-0.06,0.09c-0.11,0.18-0.22,0.36-0.31,0.55
		c-0.03,0.06-0.06,0.12-0.09,0.18c-0.08,0.16-0.15,0.33-0.22,0.5c-0.03,0.08-0.06,0.15-0.09,0.23c-0.06,0.16-0.1,0.33-0.15,0.5
		c-0.02,0.08-0.05,0.17-0.07,0.25c-0.04,0.17-0.07,0.35-0.09,0.53c-0.01,0.08-0.03,0.16-0.04,0.24c-0.03,0.26-0.05,0.52-0.05,0.79
		c0,0.31,0.03,0.61,0.06,0.9c0.01,0.08,0.02,0.16,0.04,0.24c0.04,0.23,0.09,0.46,0.15,0.69c0.02,0.06,0.03,0.13,0.05,0.19
		c0.08,0.28,0.18,0.55,0.3,0.82c0.02,0.04,0.04,0.09,0.06,0.13c0.1,0.23,0.22,0.44,0.35,0.66c0.03,0.06,0.07,0.11,0.1,0.17
		c0.31,0.5,0.69,0.95,1.11,1.35c0.03,0.03,0.07,0.06,0.1,0.09c0.19,0.18,0.4,0.35,0.61,0.5c0.03,0.02,0.06,0.04,0.09,0.06
		c0.25,0.18,0.51,0.34,0.78,0.48v26.88c0,1.83,1.49,3.32,3.32,3.32c1.83,0,3.32-1.49,3.32-3.32V35.25h0
		c0.27-0.14,0.53-0.31,0.78-0.48c0.03-0.02,0.06-0.04,0.09-0.06c0.22-0.16,0.42-0.32,0.61-0.5c0.03-0.03,0.07-0.06,0.1-0.09
		c0.42-0.4,0.8-0.86,1.11-1.35c0.04-0.06,0.07-0.11,0.1-0.17c0.13-0.21,0.24-0.43,0.35-0.66c0.02-0.04,0.04-0.08,0.06-0.13
		c0.12-0.27,0.22-0.54,0.3-0.82c0.02-0.06,0.03-0.13,0.05-0.19c0.06-0.23,0.11-0.46,0.15-0.69c0.01-0.08,0.03-0.16,0.04-0.24
		c0.04-0.3,0.06-0.6,0.06-0.9C44.66,28.69,44.64,28.43,44.61,28.17"/>
</g>
</svg>
