<?xml version="1.0" encoding="utf-8"?>
<!-- Generator: Adobe Illustrator 24.2.0, SVG Export Plug-In . SVG Version: 6.00 Build 0)  -->
<svg version="1.1" id="Layer_1" xmlns="http://www.w3.org/2000/svg" x="0px" y="0px"
	 viewBox="0 0 87.87 87.87" style="enable-background:new 0 0 87.87 87.87;" xml:space="preserve">
<style type="text/css">
	.st0{clip-path:url(#SVGID_2_);fill:#231F20;}
</style>
<g>
	<defs>
		<rect id="SVGID_1_" y="0" width="87.87" height="87.87"/>
	</defs>
	<clipPath id="SVGID_2_">
		<use xlink:href="#SVGID_1_"  style="overflow:visible;"/>
	</clipPath>
	<path class="st0" d="M43.94,1.5C20.54,1.5,1.5,20.54,1.5,43.94c0,23.4,19.04,42.44,42.44,42.44c23.4,0,42.44-19.04,42.44-42.44
		C86.38,20.54,67.34,1.5,43.94,1.5 M43.94,77.38c-18.44,0-33.44-15-33.44-33.44c0-18.44,15-33.44,33.44-33.44
		c18.44,0,33.44,15,33.44,33.44C77.38,62.37,62.37,77.38,43.94,77.38"/>
	<path class="st0" d="M29.55,60.2c-0.11-1-0.21-1.92-0.3-2.83c-0.03-0.34-0.2-0.52-0.45-0.76c-0.77-0.72-1.41-0.19-2.09,0.09
		c-0.57,0.24-1.13,0.5-1.69,0.76c-0.16,0.07-0.27,0.05-0.4-0.07c-1.36-1.21-2.44-2.63-3.28-4.24c-0.11-0.2-0.08-0.34,0.07-0.51
		c0.61-0.74,1.2-1.49,1.8-2.22c0.13-0.16,0.16-0.3,0.09-0.5c-0.13-0.36-0.13-0.83-0.36-1.09c-0.23-0.25-0.68-0.3-1.03-0.44
		c-0.63-0.24-1.25-0.49-1.88-0.73c-0.18-0.07-0.24-0.16-0.25-0.35c-0.1-1.84,0.15-3.63,0.71-5.38c0.07-0.23,0.23-0.22,0.4-0.24
		c0.97-0.11,1.94-0.21,2.9-0.33c0.11-0.01,0.24-0.12,0.31-0.21c0.14-0.19,0.21-0.44,0.36-0.62c0.26-0.3,0.19-0.57,0.04-0.88
		c-0.38-0.82-0.73-1.64-1.1-2.46c-0.08-0.17-0.05-0.29,0.08-0.43c1.21-1.34,2.62-2.42,4.22-3.25c0.2-0.1,0.34-0.09,0.52,0.06
		c0.75,0.62,1.51,1.23,2.28,1.84c0.09,0.07,0.25,0.07,0.37,0.08c0.08,0.01,0.17-0.06,0.25-0.06c0.76-0.04,1.1-0.49,1.3-1.19
		c0.2-0.69,0.51-1.36,0.77-2.04c0.06-0.15,0.13-0.25,0.31-0.26c1.86-0.1,3.67,0.14,5.44,0.74c0.09,0.03,0.19,0.17,0.2,0.27
		c0.12,0.99,0.23,1.98,0.32,2.97c0.02,0.2,0.1,0.29,0.25,0.37c0.22,0.11,0.46,0.21,0.65,0.37c0.26,0.23,0.5,0.17,0.77,0.04
		c0.83-0.38,1.66-0.74,2.49-1.12c0.21-0.1,0.35-0.05,0.51,0.1c1.33,1.21,2.4,2.61,3.22,4.21c0.09,0.17,0.09,0.3-0.04,0.46
		c-0.62,0.75-1.23,1.51-1.83,2.29c-0.08,0.11-0.08,0.28-0.09,0.43c-0.01,0.06,0.04,0.12,0.05,0.19c0.04,0.78,0.5,1.14,1.22,1.35
		c0.69,0.2,1.34,0.51,2.01,0.76c0.18,0.07,0.25,0.17,0.26,0.36c0.08,1.83-0.14,3.61-0.71,5.35c-0.06,0.19-0.16,0.25-0.35,0.27
		c-1,0.1-2,0.2-3,0.32c-0.09,0.01-0.19,0.09-0.24,0.17c-0.13,0.2-0.21,0.44-0.36,0.62c-0.29,0.33-0.22,0.64-0.05,1
		c0.38,0.8,0.74,1.62,1.09,2.43c0.04,0.1,0,0.28-0.07,0.36c-1.21,1.38-2.66,2.47-4.29,3.32c-0.17,0.09-0.29,0.05-0.44-0.07
		c-0.74-0.6-1.49-1.19-2.22-1.8c-0.17-0.14-0.31-0.19-0.53-0.12c-0.36,0.13-0.82,0.13-1.09,0.37c-0.25,0.23-0.31,0.68-0.44,1.03
		c-0.24,0.62-0.49,1.23-0.71,1.85c-0.07,0.19-0.17,0.27-0.37,0.28c-1.8,0.09-3.57-0.14-5.28-0.7C29.72,60.34,29.62,60.25,29.55,60.2
		 M32.7,40.45c-3.25,0.84-5.28,4.3-4.45,7.57c0.85,3.35,4.29,5.38,7.63,4.53c3.31-0.85,5.34-4.31,4.48-7.63
		C39.5,41.58,36.06,39.58,32.7,40.45"/>
	<path class="st0" d="M57.02,51.47c-0.25-0.66-0.48-1.25-0.7-1.86c-0.08-0.23-0.23-0.31-0.44-0.43c-0.65-0.35-0.98,0.12-1.39,0.42
		c-0.34,0.26-0.67,0.53-1,0.81c-0.1,0.08-0.17,0.08-0.28,0.03c-1.13-0.58-2.1-1.35-2.95-2.28c-0.11-0.12-0.11-0.22-0.05-0.36
		c0.28-0.6,0.54-1.21,0.82-1.81c0.06-0.13,0.06-0.23-0.02-0.35c-0.15-0.22-0.23-0.53-0.44-0.67c-0.2-0.13-0.51-0.08-0.77-0.11
		c-0.47-0.05-0.93-0.11-1.39-0.16c-0.13-0.01-0.19-0.07-0.23-0.19c-0.39-1.22-0.54-2.47-0.47-3.74c0.01-0.17,0.12-0.19,0.23-0.23
		c0.63-0.24,1.27-0.48,1.9-0.73c0.07-0.03,0.14-0.12,0.17-0.2c0.06-0.15,0.06-0.33,0.14-0.48c0.12-0.25,0.02-0.42-0.13-0.6
		c-0.4-0.48-0.78-0.97-1.17-1.46c-0.08-0.1-0.08-0.18-0.02-0.3c0.58-1.11,1.34-2.09,2.27-2.93c0.11-0.1,0.21-0.12,0.36-0.05
		c0.62,0.29,1.24,0.56,1.86,0.83c0.07,0.03,0.18,0.01,0.27-0.01c0.06-0.01,0.1-0.07,0.16-0.09c0.5-0.16,0.65-0.52,0.66-1.03
		c0.01-0.5,0.11-1.01,0.16-1.51c0.01-0.11,0.04-0.19,0.17-0.23c1.23-0.4,2.49-0.55,3.79-0.46c0.07,0,0.16,0.08,0.19,0.15
		c0.25,0.65,0.5,1.29,0.74,1.94c0.05,0.13,0.11,0.18,0.23,0.2c0.17,0.04,0.35,0.06,0.5,0.14c0.22,0.1,0.36,0.03,0.52-0.11
		c0.49-0.4,0.99-0.79,1.48-1.19c0.12-0.1,0.23-0.09,0.36-0.02c1.1,0.58,2.07,1.34,2.91,2.26c0.09,0.1,0.11,0.19,0.05,0.32
		c-0.29,0.62-0.56,1.24-0.83,1.86c-0.04,0.09,0,0.2,0.01,0.31c0.01,0.04,0.05,0.08,0.07,0.12c0.17,0.52,0.54,0.68,1.06,0.69
		c0.5,0.01,0.99,0.11,1.48,0.15c0.14,0.01,0.2,0.07,0.24,0.19c0.38,1.21,0.54,2.45,0.46,3.72c-0.01,0.14-0.06,0.19-0.19,0.24
		c-0.66,0.24-1.31,0.49-1.97,0.74c-0.06,0.02-0.11,0.09-0.13,0.15c-0.06,0.16-0.06,0.33-0.14,0.48c-0.14,0.28-0.04,0.47,0.14,0.68
		c0.4,0.47,0.78,0.96,1.16,1.44c0.04,0.06,0.05,0.19,0.02,0.26c-0.57,1.15-1.35,2.13-2.3,2.99c-0.1,0.09-0.19,0.09-0.3,0.03
		c-0.6-0.28-1.21-0.54-1.81-0.82c-0.14-0.06-0.24-0.07-0.37,0.02c-0.22,0.15-0.53,0.23-0.67,0.44c-0.13,0.2-0.09,0.51-0.12,0.77
		c-0.05,0.46-0.11,0.91-0.15,1.37c-0.01,0.14-0.07,0.21-0.2,0.25c-1.2,0.38-2.42,0.53-3.68,0.46
		C57.16,51.54,57.07,51.49,57.02,51.47 M55.66,37.63c-2.04,1.14-2.8,3.82-1.66,5.88c1.16,2.1,3.83,2.87,5.93,1.7
		c2.08-1.16,2.84-3.84,1.67-5.92C60.44,37.19,57.77,36.45,55.66,37.63"/>
</g>
</svg>
