<?xml version="1.0" encoding="utf-8"?>
<!-- Generator: Adobe Illustrator 24.2.0, SVG Export Plug-In . SVG Version: 6.00 Build 0)  -->
<svg version="1.1" id="Layer_1" xmlns="http://www.w3.org/2000/svg" x="0px" y="0px"
	 viewBox="0 0 87.87 87.87" style="enable-background:new 0 0 87.87 87.87;" xml:space="preserve">
<g>
	<path d="M4.74,60.22c1.42,3.41,3.28,6.63,5.54,9.57l7.13-5.49c-1.78-2.32-3.25-4.85-4.37-7.54L4.74,60.22z"/>
	<path d="M18.1,77.6c2.94,2.26,6.16,4.12,9.57,5.54l3.45-8.31c-2.69-1.12-5.22-2.58-7.54-4.37L18.1,77.6z"/>
	<path d="M43.94,1.5C20.54,1.5,1.5,20.54,1.5,43.94c0,1.86,0.12,3.74,0.36,5.57l8.92-1.17c-0.19-1.45-0.29-2.93-0.29-4.4
		c0-18.44,15-33.44,33.44-33.44c18.44,0,33.44,15,33.44,33.44c0,18.43-15,33.44-33.44,33.44c-1.47,0-2.95-0.1-4.4-0.29l-1.17,8.92
		c1.84,0.24,3.71,0.36,5.57,0.36c23.4,0,42.44-19.04,42.44-42.44C86.38,20.54,67.34,1.5,43.94,1.5z"/>
</g>
<polygon points="66.25,35.73 66.25,48.54 63.17,48.54 63.17,40.73 61.17,40.73 61.17,48.54 58.1,48.54 58.1,35.73 54.1,35.73 
	54.1,48.54 51.02,48.54 51.02,40.73 49.02,40.73 49.02,48.54 45.94,48.54 45.94,35.73 41.94,35.73 41.94,48.54 38.86,48.54 
	38.86,40.73 36.86,40.73 36.86,48.54 33.78,48.54 33.78,35.73 29.78,35.73 29.78,48.54 26.71,48.54 26.71,40.73 24.71,40.73 
	24.71,48.54 21.63,48.54 21.63,35.73 17.63,35.73 17.63,52.54 70.25,52.54 70.25,35.73 "/>
</svg>
