<?xml version="1.0" encoding="utf-8"?>
<!-- Generator: Adobe Illustrator 24.2.0, SVG Export Plug-In . SVG Version: 6.00 Build 0)  -->
<svg version="1.1" id="Layer_1" xmlns="http://www.w3.org/2000/svg" x="0px" y="0px"
	 viewBox="0 0 87.87 87.87" style="enable-background:new 0 0 87.87 87.87;" xml:space="preserve">
<style type="text/css">
	.st0{fill:#FFFFFF;}
	.st1{fill:none;stroke:#231F20;stroke-width:3;stroke-miterlimit:10;}
	.st2{clip-path:url(#SVGID_2_);fill:none;stroke:#231F20;stroke-width:3;stroke-miterlimit:10;}
	.st3{clip-path:url(#SVGID_2_);fill:#231F20;}
</style>
<path class="st0" d="M31.94,33.43h10.32H31.94z"/>
<line class="st1" x1="31.94" y1="33.43" x2="42.26" y2="33.43"/>
<path class="st0" d="M37.14,38.55v-4.64V38.55z"/>
<line class="st1" x1="37.14" y1="38.55" x2="37.14" y2="33.91"/>
<g>
	<defs>
		<rect id="SVGID_1_" y="0" width="87.87" height="87.87"/>
	</defs>
	<clipPath id="SVGID_2_">
		<use xlink:href="#SVGID_1_"  style="overflow:visible;"/>
	</clipPath>
	<path class="st2" d="M28.5,38.55h16.84l3.17,2.2l17.45-3.78l-9.15,3.78c0,0-3.78,10.99-11.23,10.99H32.65c0,0-4.88-0.98-4.88-3.66
		v-9.52H28.5z"/>
	<path class="st2" d="M27.77,38.55c0,0-4.76-5.49-9.03-2.32c-4.27,3.17-0.61,6.1,2.44,6.83c3.05,0.73,6.59,1.28,6.59,1.28"/>
	<path class="st3" d="M68.29,53.91c0,3.72-2.24,5.81-5.01,5.81c-2.77,0-5.01-2.09-5.01-5.81c0-3.72,5.01-10.16,5.01-10.16
		S68.29,50.19,68.29,53.91"/>
	<path class="st3" d="M43.94,1.5C20.54,1.5,1.5,20.54,1.5,43.94c0,23.4,19.04,42.44,42.44,42.44c23.4,0,42.44-19.04,42.44-42.44
		C86.38,20.54,67.34,1.5,43.94,1.5 M43.94,77.38c-18.44,0-33.44-15-33.44-33.44c0-18.44,15-33.44,33.44-33.44
		c18.44,0,33.44,15,33.44,33.44C77.38,62.38,62.37,77.38,43.94,77.38"/>
</g>
</svg>
