<?xml version="1.0" encoding="utf-8"?>
<!-- Generator: Adobe Illustrator 24.2.0, SVG Export Plug-In . SVG Version: 6.00 Build 0)  -->
<svg version="1.1" id="Layer_1" xmlns="http://www.w3.org/2000/svg" x="0px" y="0px"
	 viewBox="0 0 87.87 87.87" style="enable-background:new 0 0 87.87 87.87;" xml:space="preserve">
<style type="text/css">
	.st0{clip-path:url(#SVGID_2_);fill:#231F20;}
</style>
<g>
	<defs>
		<rect id="SVGID_1_" y="0" width="87.87" height="87.87"/>
	</defs>
	<clipPath id="SVGID_2_">
		<use xlink:href="#SVGID_1_"  style="overflow:visible;"/>
	</clipPath>
	<path class="st0" d="M43.94,1.5C20.54,1.5,1.5,20.54,1.5,43.94c0,23.4,19.04,42.44,42.44,42.44c23.4,0,42.44-19.04,42.44-42.44
		C86.38,20.54,67.34,1.5,43.94,1.5 M43.94,77.38c-18.44,0-33.44-15-33.44-33.44c0-18.44,15-33.44,33.44-33.44
		c18.44,0,33.44,15,33.44,33.44C77.38,62.38,62.37,77.38,43.94,77.38"/>
	<path class="st0" d="M64.93,31.67c-0.62,0.63-1.22,1.27-1.85,1.89c-3.24,3.24-6.49,6.48-9.74,9.72c-0.06,0.06-0.12,0.13-0.23,0.25
		c0.43,0.01,0.8,0.01,1.17,0.01c2.42,0,4.85,0.01,7.27,0c0.58,0,1.14,0.1,1.47,0.6c0.21,0.31,0.4,0.7,0.4,1.06
		c0.04,2.22,0.02,4.44,0.02,6.67c0,0.05-0.02,0.1-0.03,0.17c-11.56-0.01-23.11-0.03-34.7-0.04c-0.01-0.14-0.02-0.26-0.01-0.39
		c0.11-1.3-0.3-2.45-0.96-3.56c-0.66-1.12-1.31-2.25-1.89-3.41c-1.2-2.4-1.32-4.9-0.68-7.49c0.56-2.25,1.54-4.29,2.83-6.2
		c0.19-0.28,0.43-0.4,0.77-0.38c1.11,0.08,2.16,0.39,3.11,0.98c0.46,0.29,0.49,0.64,0.15,1.07c-0.46,0.57-0.96,1.11-1.34,1.73
		c-1.22,2.01-1,3.86,0.65,5.54c0.54,0.56,1.14,1.07,1.7,1.61c0.74,0.71,1.01,1.22,1.14,2.15c0.1,0.01,0.21,0.02,0.32,0.02
		c3.72,0.01,7.44,0.01,11.17,0.01c0.2,0,0.45-0.1,0.59-0.24c3.87-3.84,7.73-7.7,11.6-11.54c0.13-0.13,0.36-0.22,0.55-0.23
		c2.03-0.01,4.06,0,6.09,0c0.12,0,0.24-0.03,0.36-0.05L64.93,31.67z"/>
	<path class="st0" d="M22.93,59.23c0-1.34,0-2.67,0-3.99c0-0.28,0-0.56,0-0.83c0.01-0.55,0.26-0.8,0.82-0.8
		c2.67,0,32.57,0.03,39.58,0.05c0.68,0,0.9,0.22,0.89,0.91c0,1.43,0,2.85-0.01,4.28c0,0.14-0.01,0.27-0.01,0.43
		C50.45,59.27,36.71,59.25,22.93,59.23"/>
	<path class="st0" d="M40.59,30.33c-0.26,0.51-0.51,1-0.78,1.51c0.29,0.22,0.46,0.46,0.2,0.82c-0.3,0.4-0.89,0.57-1.36,0.36
		c-0.92-0.4-1.37-1.13-1.44-2.09c-0.21-2.54,2.15-3.5,4.03-2.67c1.05,0.46,1.74,1.29,2.15,2.34c1.08,2.75,0.72,5.34-1.09,7.66
		c-1.27,1.63-2.97,2.34-5.09,1.89c-0.14,0.56-0.28,1.11-0.43,1.71c0.68,0.18,1.36,0.25,2.05,0.18c2.44-0.23,4.24-1.5,5.47-3.55
		c1.89-3.17,2.03-6.43,0.15-9.65c-1.24-2.11-3.66-3.07-5.88-2.46c-1.62,0.44-2.89,1.85-3.08,3.39c-0.25,2.11,0.47,3.79,2.02,4.66
		c1.54,0.86,3.3,0.43,4.12-1C42.28,32.27,41.83,30.85,40.59,30.33"/>
</g>
</svg>
