<svg id="Capa_1" enable-background="new 0 0 512.164 512.164" height="512" viewBox="0 0 512.164 512.164" width="512" xmlns="http://www.w3.org/2000/svg"><g><path d="m489.76 73.644 2.308-19.005-19.006 2.307c-33.686 4.09-68.051-2.773-96.771-19.32l-19.24-11.085-3.101 21.987c-3.763 26.672-24.211 47.12-50.882 50.882l-11.182 1.577-1.576 11.181c-2.879 20.408-15.83 37.61-34.28 46.03-18.211-8.286-31.249-25.271-34.177-46.029l-1.576-11.181-11.182-1.577c-26.671-3.762-47.119-24.21-50.882-50.882l-3.101-21.987-19.24 11.085c-28.721 16.547-63.085 23.409-96.771 19.32l-19.006-2.307 2.308 19.005c4.017 33.085 5.425 67.708-11.319 96.77l-11.084 19.239 21.987 3.101c25.849 3.646 45.036 23.618 48.882 50.882l1.577 11.181 11.181 1.577c24.726 3.487 36.408 22.055 41.927 38.723-2.89 7.966-4.472 16.554-4.472 25.505 0 36.841 26.708 67.54 61.774 73.809-1.167 5.292-1.774 10.72-1.774 16.191 0 41.355 33.645 75 75 75s75-33.645 75-75c0-5.472-.607-10.899-1.774-16.191 35.066-6.268 61.774-36.968 61.774-73.809 0-8.952-1.582-17.539-4.472-25.505 5.519-16.668 17.2-35.235 41.927-38.723l11.181-1.577 1.577-11.181c3.846-27.264 23.033-47.236 48.882-50.882l21.987-3.101-11.085-19.24c-16.744-29.062-15.336-63.685-11.319-96.77zm-391.28 155.246c-7.302-28.357-27.076-50.754-53.154-60.861 10.005-26.129 10.757-53.983 8.698-79.978 27.441.6 54.751-4.788 79.529-15.683 9.823 25.763 31.912 46.99 60.734 54.608 7.618 28.829 28.854 50.915 54.608 60.735-9.349 21.262-14.626 44.389-15.561 67.861-10.985-6.315-23.699-9.948-37.253-9.948-19.655 0-37.559 7.61-50.946 20.026-10.83-18.659-26.749-31.273-46.655-36.76zm52.602 91.733c0-24.813 20.187-45 45-45s45 20.187 45 45-20.187 45-45 45-45-20.187-45-45zm105 135c-24.813 0-45-20.187-45-45 0-5.973 1.189-11.854 3.457-17.304 16.806-4.269 31.365-14.224 41.5-27.693h.087c10.135 13.468 24.694 23.424 41.5 27.693 2.268 5.45 3.457 11.331 3.457 17.304-.001 24.813-20.187 45-45.001 45zm60-90c-24.813 0-45-20.187-45-45s20.187-45 45-45 45 20.187 45 45-20.186 45-45 45zm97.602-136.733c-19.905 5.487-35.824 18.102-46.655 36.759-13.387-12.416-31.291-20.026-50.946-20.026-13.546 0-26.253 3.628-37.233 9.936-.588-15.011-2.944-29.924-7.022-44.219 6.818-19.685 14.565-30.037 21.397-42.589 11.773-11.257 20.368-25.643 24.645-41.774 15.269-4.034 29.073-11.962 40.38-23.268 9.029-9.03 15.903-19.652 20.361-31.341 24.78 10.896 52.093 16.282 79.529 15.683-2.059 25.995-1.307 53.849 8.698 79.978-26.079 10.107-45.853 32.504-53.154 60.861z"/></g></svg>