<svg id="Capa_1" enable-background="new 0 0 511.989 511.989" height="512" viewBox="0 0 511.989 511.989" width="512" xmlns="http://www.w3.org/2000/svg"><g><path d="m383.303 266.504 57.624-87.275-104.395 6.266-39.143 59.284-12.182 7.033c-4.155-3.556-8.959-6.37-14.213-8.233v-14.039l31.771-63.54-14.396-28.792c7.808-8.097 12.626-19.097 12.626-31.208 0-19.555-12.541-36.228-30-42.42v-63.58h-30v63.58c-17.459 6.192-30 22.865-30 42.42 0 12.11 4.817 23.11 12.626 31.208l-14.397 28.792 31.771 63.541v14.039c-5.254 1.863-10.058 4.677-14.213 8.233l-12.182-7.033-39.143-59.284-104.395-6.266 57.624 87.275 70.913 4.256 12.161 7.021c-.494 2.667-.766 5.411-.766 8.218s.271 5.552.766 8.218l-12.161 7.021-70.913 4.256-57.624 87.275 104.395-6.266 39.143-59.284 12.182-7.033c4.155 3.556 8.959 6.37 14.213 8.233v25.039l-31.743 63.486 46.743 95.044 46.743-95.044-31.743-63.486v-25.039c5.254-1.863 10.058-4.677 14.213-8.233l12.182 7.033 39.143 59.284 104.395 6.266-57.624-87.275-70.913-4.256-12.161-7.021c.494-2.667.766-5.411.766-8.218s-.271-5.552-.766-8.218l12.161-7.021zm-30-51.961 29.529-1.772-16.3 24.687-29.529 1.772zm-207.846 22.914-16.3-24.687 29.529 1.772 16.299 24.687zm13.229 120-29.529 1.772 16.3-24.687 29.529-1.772zm207.846-22.914 16.3 24.687-29.529-1.772-16.299-24.687zm-116.09-183.898c1.821.225 3.671.355 5.552.355s3.731-.13 5.552-.355l7.678 15.355-13.229 26.459-13.23-26.459zm5.553-59.645c8.271 0 15 6.729 15 15s-6.729 15-15 15-15-6.729-15-15 6.729-15 15-15zm0 353.011-13.257-26.956 13.257-26.514 13.257 26.514zm0-143.011c-8.271 0-15-6.729-15-15s6.729-15 15-15 15 6.729 15 15-6.729 15-15 15z"/></g></svg>