<svg id="Warstwa_1" data-name="Warstwa 1" xmlns="http://www.w3.org/2000/svg" viewBox="0 0 105.47 94.04"><defs><style>.cls-1{fill:#f0ae00;}.cls-2{fill:#f19e19;}.cls-3{fill:#fff;}.cls-4{fill:#ec6608;}.cls-5{fill:#c90c0f;}</style></defs><title>sprawnosci-zuchowe</title><path class="cls-1" d="M52.74,92.49a8.54,8.54,0,0,1-7.47-4.31L2.72,14.48A8.62,8.62,0,0,1,10.18,1.54H95.29a8.63,8.63,0,0,1,7.47,12.94L60.2,88.18a8.53,8.53,0,0,1-7.46,4.31"/><path class="cls-2" d="M95.29,3.09a7.08,7.08,0,0,1,6.13,10.62L58.87,87.41a7.08,7.08,0,0,1-12.26,0L4.05,13.71A7.08,7.08,0,0,1,10.18,3.09H95.29m0-3.09H10.18a10.17,10.17,0,0,0-8.8,15.25L43.93,89a10.16,10.16,0,0,0,17.61,0l42.55-73.7a10.06,10.06,0,0,0,0-10.17A10,10,0,0,0,95.29,0"/><rect class="cls-3" x="57.74" y="12.79" width="28.01" height="28.01" rx="2.83" ry="2.83" transform="translate(14.74 77.94) rotate(-62.38)"/><path class="cls-4" d="M65.53,25.09a5,5,0,1,0,2.11,6.73A5,5,0,0,0,65.53,25.09Z"/><path class="cls-1" d="M73.26,21.08a5,5,0,1,0-6.73,2.1A5,5,0,0,0,73.26,21.08Z"/><path class="cls-4" d="M81.94,20a5,5,0,1,0,2.11,6.73A5,5,0,0,0,81.94,20Z"/><path class="cls-5" d="M76.32,30.73a5,5,0,1,0,2.11,6.73A5,5,0,0,0,76.32,30.73Z"/><path class="cls-4" d="M30.78,25.61l1.13-.51a28.42,28.42,0,0,0-2.23-13.81,12.35,12.35,0,0,0-10.21-.35,12.32,12.32,0,0,0-6.54,7.86,28.52,28.52,0,0,0,8.83,10.85l1.13-.51Z"/><path class="cls-5" d="M34.13,37.56l-4.56,2h0L41.51,66.23a2.5,2.5,0,0,0,4.56-2Z"/><polygon class="cls-3" points="33.32 35.73 31.6 27.43 23.7 30.97 28.75 37.78 33.32 35.73"/><path class="cls-4" d="M49.41,32.54l.23,0c.69-1.86,1.4-2.93.83-4.88-1.83-6.25-4.71-7.24-5.93-7S41,22.75,41.41,29.25c.14,2,.94,2.82,2.18,4.33l.29,0Z"/><path class="cls-5" d="M52.79,55.66,49,56.33h0l4.12,23a1.93,1.93,0,0,0,3.75-.67Z"/><polygon class="cls-3" points="52.44 53.69 49.76 34.51 44.23 35.5 48.69 54.36 52.44 53.69"/></svg>