<svg xmlns="http://www.w3.org/2000/svg" viewBox="0 0 105.47 94.04"><path d="M52.74,92.49a8.54,8.54,0,0,1-7.47-4.31L2.72,14.48A8.62,8.62,0,0,1,10.18,1.54H95.29a8.63,8.63,0,0,1,7.47,12.94L60.2,88.18a8.53,8.53,0,0,1-7.46,4.31" fill="#f0ae00"/><path d="M95.29,3.09a7.08,7.08,0,0,1,6.13,10.62L58.87,87.41a7.08,7.08,0,0,1-12.26,0L4.05,13.71A7.08,7.08,0,0,1,10.18,3.09H95.29m0-3.09H10.18a10.17,10.17,0,0,0-8.8,15.25L43.93,89a10.16,10.16,0,0,0,17.61,0l42.55-73.7a10.06,10.06,0,0,0,0-10.17A10,10,0,0,0,95.29,0" fill="#f19e19"/><rect x="57.74" y="12.79" width="28.01" height="28.01" rx="2.83" transform="matrix(.463605 -.886042 .886042 .463605 14.74 77.94)" fill="#fff"/><path d="M65.53 25.09a5 5 0 1 0 2.11 6.73 5 5 0 0 0-2.11-6.73z" fill="#ec6608"/><path d="M73.26 21.08a5 5 0 1 0-6.73 2.1 5 5 0 0 0 6.73-2.1z" fill="#f0ae00"/><path d="M81.94,20a5,5,0,1,0,2.11,6.73A5,5,0,0,0,81.94,20Z" fill="#ec6608"/><path d="M76.32 30.73a5 5 0 1 0 2.11 6.73 5 5 0 0 0-2.11-6.73z" fill="#c90c0f"/><path d="M30.78,25.61l1.13-.51a28.42,28.42,0,0,0-2.23-13.81,12.35,12.35,0,0,0-10.21-.35,12.32,12.32,0,0,0-6.54,7.86,28.52,28.52,0,0,0,8.83,10.85l1.13-.51Z" fill="#ec6608"/><path d="M34.13,37.56l-4.56,2h0L41.51,66.23a2.5,2.5,0,0,0,4.56-2Z" fill="#c90c0f"/><path d="M33.32 35.73l-1.72-8.3-7.9 3.54 5.05 6.81 4.57-2.05z" fill="#fff"/><path d="M49.41 32.54h.23c.69-1.86 1.4-2.93.83-4.88-1.83-6.25-4.71-7.24-5.93-7s-3.54 2.09-3.13 8.59c.14 2 .94 2.82 2.18 4.33h.29z" fill="#ec6608"/><path d="M52.79,55.66,49,56.33h0l4.12,23a1.93,1.93,0,0,0,3.75-.67Z" fill="#c90c0f"/><path d="M52.44 53.69l-2.68-19.18-5.53.99 4.46 18.86 3.75-.67z" fill="#fff"/></svg>