<svg xmlns="http://www.w3.org/2000/svg" viewBox="0 0 105.47 94.04"><path d="M52.74,92.49a8.54,8.54,0,0,1-7.47-4.31L2.72,14.48A8.62,8.62,0,0,1,10.18,1.54H95.29a8.63,8.63,0,0,1,7.47,12.94L60.2,88.18a8.53,8.53,0,0,1-7.46,4.31" fill="#f0ae00"/><path d="M52.64 75.2h0zm-2-21.9l-8.5 7.58L48 72.17a6.41 6.41 0 0 0 4.54 3L55.33 60zm-4.79-6.84l-4-5.72h-.05l-7.58 4.66h-.08l4.07 7.83.33-.32z" fill="#194093"/><path d="M32.89,28.1a11.64,11.64,0,0,1-2.78,2.32,11.79,11.79,0,0,1-3.73,1.44l6.26,11,7.57-4.66Z" fill="#fff"/><path d="M31.61,15.57c-2.56-4.24-11.42-3-14.95-7.46-3.18,5.08-2.94,12.47-.38,16.7a8.95,8.95,0,0,0,15.33-9.24Z" fill="#ec6608"/><path d="M89.05 19.06a8.29 8.29 0 0 0-14.3 7.19l-6.9 6.15-2.09.25-.88-1.91 1.66-9.1a8.27 8.27 0 1 0-4.27.36h0l-2.15 11.73-14.27 12.73L38.53 53c-.12.1-.22.21-.33.32a8.29 8.29 0 0 0-.34 11.38l4.28-3.81 8.5-7.58L57.7 47l-2.37 13-2.78 15.19h.09a8.35 8.35 0 0 0 9.56-6.74L67.76 38l8.92-7.94h0a8.29 8.29 0 1 0 12.37-11zm-26.19-.32a5 5 0 1 1 5.79-4 5 5 0 0 1-5.79 4zm23.32 9.55a5 5 0 1 1 .4-7 5 5 0 0 1-.4 7z" fill="#fff"/><path d="M95.29,3.09a7.08,7.08,0,0,1,6.13,10.62L58.87,87.41a7.08,7.08,0,0,1-12.26,0L4.05,13.71A7.08,7.08,0,0,1,10.18,3.09H95.29m0-3.09H10.18a10.17,10.17,0,0,0-8.8,15.25L43.93,89a10.16,10.16,0,0,0,17.61,0l42.55-73.7a10.06,10.06,0,0,0,0-10.17A10,10,0,0,0,95.29,0" fill="#f19e19"/></svg>