<svg id="Warstwa_1" data-name="Warstwa 1" xmlns="http://www.w3.org/2000/svg" viewBox="0 0 105.47 94.04"><defs><style>.cls-1{fill:#f0ae00;}.cls-2{fill:none;}.cls-3{fill:#194093;}.cls-4{fill:#fff;}.cls-5{fill:#ec6608;}.cls-6{fill:#f19e19;}</style></defs><title>sprawnosci-zuchowe</title><path class="cls-1" d="M52.74,92.49a8.54,8.54,0,0,1-7.47-4.31L2.72,14.48A8.62,8.62,0,0,1,10.18,1.54H95.29a8.63,8.63,0,0,1,7.47,12.94L60.2,88.18a8.53,8.53,0,0,1-7.46,4.31"/><polygon class="cls-2" points="57.7 47.01 50.64 53.3 55.33 60 57.7 47.01"/><path class="cls-3" d="M52.64,75.2h0Z"/><path class="cls-3" d="M50.64,53.3l-8.5,7.58L48,72.17a6.41,6.41,0,0,0,4.54,3L55.33,60Z"/><path class="cls-3" d="M45.85,46.46l-4-5.72-.05,0-7.58,4.66-.08,0,4.07,7.83c.11-.11.21-.22.33-.32Z"/><path class="cls-4" d="M32.89,28.1a11.64,11.64,0,0,1-2.78,2.32,11.79,11.79,0,0,1-3.73,1.44l6.26,11,7.57-4.66Z"/><path class="cls-5" d="M31.61,15.57c-2.56-4.24-11.42-3-14.95-7.46-3.18,5.08-2.94,12.47-.38,16.7a8.95,8.95,0,0,0,15.33-9.24Z"/><path class="cls-4" d="M89.05,19.06a8.29,8.29,0,0,0-14.3,7.19l-6.9,6.15-2.09.25-.88-1.91,1.66-9.1a8.27,8.27,0,1,0-4.27.36h0L60.12,33.73,45.85,46.46,38.53,53c-.12.1-.22.21-.33.32a8.29,8.29,0,0,0-.34,11.38l4.28-3.81,8.5-7.58L57.7,47,55.33,60,52.55,75.19h.09a8.35,8.35,0,0,0,9.56-6.74L67.76,38l8.92-7.94h0a8.29,8.29,0,1,0,12.37-11Zm-26.19-.32a5,5,0,1,1,5.79-4A5,5,0,0,1,62.86,18.74Zm23.32,9.55a5,5,0,1,1,.4-7A5,5,0,0,1,86.18,28.29Z"/><path class="cls-6" d="M95.29,3.09a7.08,7.08,0,0,1,6.13,10.62L58.87,87.41a7.08,7.08,0,0,1-12.26,0L4.05,13.71A7.08,7.08,0,0,1,10.18,3.09H95.29m0-3.09H10.18a10.17,10.17,0,0,0-8.8,15.25L43.93,89a10.16,10.16,0,0,0,17.61,0l42.55-73.7a10.06,10.06,0,0,0,0-10.17A10,10,0,0,0,95.29,0"/></svg>