<svg id="Warstwa_1" data-name="Warstwa 1" xmlns="http://www.w3.org/2000/svg" viewBox="0 0 105.47 94.04"><defs><style>.cls-1{fill:#f0ae00;}.cls-2{fill:#f19e19;}.cls-3{fill:#fff;}.cls-4{fill:#c90c0f;}.cls-5{fill:#ec6608;}.cls-6{fill:#194093;}.cls-7{fill:#26b4e6;}.cls-8{fill:#94b516;}</style></defs><title>sprawnosci-zuchowe</title><path class="cls-1" d="M102.76,5.86a8.52,8.52,0,0,1,0,8.62L60.2,88.18a8.62,8.62,0,0,1-14.93,0L2.72,14.48A8.63,8.63,0,0,1,10.18,1.54H95.29a8.54,8.54,0,0,1,7.47,4.32"/><path class="cls-2" d="M4.05,13.71A7.08,7.08,0,0,1,10.18,3.09H95.29a7.08,7.08,0,0,1,6.13,10.62L58.87,87.41a7.08,7.08,0,0,1-12.26,0L4.05,13.71M1.38,15.25,43.93,89a10.16,10.16,0,0,0,17.61,0l42.55-73.7a10.06,10.06,0,0,0,0-10.17A10,10,0,0,0,95.29,0H10.18a10.17,10.17,0,0,0-8.8,15.25"/><path class="cls-3" d="M23.32,35.43a1.6,1.6,0,0,0,.69,3,1.58,1.58,0,0,0,.69-.16L27,37.24l-1.6-2.78Z"/><polygon class="cls-3" points="72.95 15.31 71.34 12.54 66.93 14.64 68.54 17.42 72.95 15.31"/><path class="cls-3" d="M82.12,10.94a1.6,1.6,0,0,0-1.38-2.89L78.51,9.12l1.6,2.78Z"/><polygon class="cls-3" points="38.22 31.87 36.62 29.09 31.88 31.35 33.49 34.13 38.22 31.87"/><polygon class="cls-3" points="49.8 26.35 48.19 23.57 43.78 25.68 45.39 28.46 49.8 26.35"/><polygon class="cls-3" points="75.5 29.48 77.11 32.26 81.14 29.49 79.53 26.71 75.5 29.48"/><path class="cls-3" d="M90.13,21.37A1.6,1.6,0,0,0,87.9,21l-1.83,1.26L87.67,25l2-1.4A1.61,1.61,0,0,0,90.13,21.37Z"/><polygon class="cls-3" points="43.5 51.48 45.11 54.26 49.43 51.29 47.83 48.51 43.5 51.48"/><path class="cls-3" d="M35.48,57a1.6,1.6,0,0,0,.91,2.92,1.51,1.51,0,0,0,.9-.29l1.87-1.28-1.6-2.78Z"/><path class="cls-3" d="M65.23,36.54a5.2,5.2,0,0,0-.64-.39,4,4,0,0,0-1-.39,4.46,4.46,0,0,0-5.5,4.9,6.1,6.1,0,0,0,.14.72L54.37,44,56,46.79,60,44l-1.59,7L58,52.8,53.42,72.05a1.5,1.5,0,0,0,1.12,1.8,1.32,1.32,0,0,0,.34,0,1.49,1.49,0,0,0,1.46-1.15l5.89-24.85L63,44.61a4.49,4.49,0,0,0,3.9-3.42,3.93,3.93,0,0,0,.11-.82,4.54,4.54,0,0,0-.08-1.11l3.63-2.5L69,34Z"/><polygon class="cls-4" points="33.49 34.13 31.88 31.35 28.41 25.34 22.19 28.94 25.37 34.45 26.98 37.23 37.56 55.57 39.16 58.35 42.51 64.15 48.74 60.55 45.11 54.26 43.5 51.48 33.49 34.13"/><polygon class="cls-5" points="55.97 46.79 54.37 44.01 45.39 28.46 43.78 25.68 40.84 20.59 33.99 24.54 36.62 29.09 38.22 31.87 47.83 48.51 49.43 51.29 52.23 56.12 57.98 52.8 58.41 51.01 55.97 46.79"/><path class="cls-6" d="M63,44.61l-.78,3.28.13.21,6.85-4L67,40.37a3.93,3.93,0,0,1-.11.82A4.49,4.49,0,0,1,63,44.61Z"/><path class="cls-6" d="M58.06,40.66a4.46,4.46,0,0,1,5.5-4.9,4,4,0,0,1,1,.39L57,22.94l-1.6-2.78-1-1.65-4.24-1.13L46,19.78l2.19,3.79,1.61,2.78Z"/><path class="cls-7" d="M68.54,17.42l-1.61-2.78-2.16-3.75-6.85,4,.77,1.34a4.51,4.51,0,1,1,4.22,7.3L69,34l1.61,2.78,2,3.49,6.85-4-2.32-4L75.5,29.48Z"/><polygon class="cls-8" points="80.11 11.9 78.51 9.12 76.6 5.81 69.75 9.77 71.34 12.54 72.95 15.31 79.53 26.71 81.14 29.49 82.9 32.55 89.75 28.59 87.67 25 86.07 22.22 80.11 11.9"/><path class="cls-3" d="M57.22,19.27l-1.86.89L57,22.94l1.87-.89A4.48,4.48,0,0,0,61,23.4a4.51,4.51,0,1,0-2.32-7.21l-.21.31L30.32,9a1.5,1.5,0,1,0-.77,2.9l20.62,5.53,4.24,1.13Z"/></svg>