<svg xmlns="http://www.w3.org/2000/svg" viewBox="0 0 105.47 94.04"><path d="M102.76,5.86a8.52,8.52,0,0,1,0,8.62L60.2,88.18a8.62,8.62,0,0,1-14.93,0L2.72,14.48A8.63,8.63,0,0,1,10.18,1.54H95.29a8.54,8.54,0,0,1,7.47,4.32" fill="#f0ae00"/><path d="M4.05,13.71A7.08,7.08,0,0,1,10.18,3.09H95.29a7.08,7.08,0,0,1,6.13,10.62L58.87,87.41a7.08,7.08,0,0,1-12.26,0L4.05,13.71M1.38,15.25,43.93,89a10.16,10.16,0,0,0,17.61,0l42.55-73.7a10.06,10.06,0,0,0,0-10.17A10,10,0,0,0,95.29,0H10.18a10.17,10.17,0,0,0-8.8,15.25" fill="#f19e19"/><path d="M23.32 35.43a1.6 1.6 0 0 0 .69 3 1.58 1.58 0 0 0 .69-.16l2.3-1.03-1.6-2.78zm49.63-20.12l-1.61-2.77-4.41 2.1 1.61 2.78 4.41-2.11zm9.17-4.37a1.601 1.601 0 0 0-1.38-2.89l-2.23 1.07 1.6 2.78zm-43.9 20.93l-1.6-2.78-4.74 2.26 1.61 2.78 4.73-2.26zm11.58-5.52l-1.61-2.78-4.41 2.11 1.61 2.78 4.41-2.11zm25.7 3.13l1.61 2.78 4.03-2.77-1.61-2.78-4.03 2.77zm14.63-8.11A1.6 1.6 0 0 0 87.9 21l-1.83 1.26 1.6 2.74 2-1.4a1.61 1.61 0 0 0 .46-2.23zM43.5 51.48l1.61 2.78 4.32-2.97-1.6-2.78-4.33 2.97zM35.48 57a1.6 1.6 0 0 0 .91 2.92 1.51 1.51 0 0 0 .9-.29l1.87-1.28-1.6-2.78zm29.75-20.46a5.2 5.2 0 0 0-.64-.39 4 4 0 0 0-1-.39 4.46 4.46 0 0 0-5.5 4.9 6.1 6.1 0 0 0 .14.72L54.37 44 56 46.79 60 44l-1.59 7-.41 1.8-4.58 19.25a1.5 1.5 0 0 0 1.12 1.8 1.32 1.32 0 0 0 .34 0 1.49 1.49 0 0 0 1.46-1.15l5.89-24.85.77-3.24a4.49 4.49 0 0 0 3.9-3.42 3.93 3.93 0 0 0 .11-.82 4.54 4.54 0 0 0-.08-1.11l3.63-2.5L69 34z" fill="#fff"/><path d="M33.49 34.13l-1.61-2.78-3.47-6.01-6.22 3.6 3.18 5.51 1.61 2.78 10.58 18.34 1.6 2.78 3.35 5.8 6.23-3.6-3.63-6.29-1.61-2.78-10.01-17.35z" fill="#c90c0f"/><path d="M55.97 46.79l-1.6-2.78-8.98-15.55-1.61-2.78-2.94-5.09-6.85 3.95 2.63 4.55 1.6 2.78 9.61 16.64 1.6 2.78 2.8 4.83 5.75-3.32.43-1.79-2.44-4.22z" fill="#ec6608"/><path d="M63 44.61l-.78 3.28.13.21 6.85-4-2.2-3.73a3.93 3.93 0 0 1-.11.82A4.49 4.49 0 0 1 63 44.61zm-4.94-3.95a4.46 4.46 0 0 1 5.5-4.9 4 4 0 0 1 1 .39L57 22.94l-1.6-2.78-1-1.65-4.24-1.13-4.16 2.4 2.19 3.79 1.61 2.78z" fill="#194093"/><path d="M68.54 17.42l-1.61-2.78-2.16-3.75-6.85 4 .77 1.34a4.51 4.51 0 1 1 4.22 7.3L69 34l1.61 2.78 2 3.49 6.85-4-2.32-4-1.64-2.79z" fill="#26b4e6"/><path d="M80.11 11.9l-1.6-2.78-1.91-3.31-6.85 3.96 1.59 2.77 1.61 2.77 6.58 11.4 1.61 2.78 1.76 3.06 6.85-3.96L87.67 25l-1.6-2.78-5.96-10.32z" fill="#94b516"/><path d="M57.22,19.27l-1.86.89L57,22.94l1.87-.89A4.48,4.48,0,0,0,61,23.4a4.51,4.51,0,1,0-2.32-7.21l-.21.31L30.32,9a1.5,1.5,0,1,0-.77,2.9l20.62,5.53,4.24,1.13Z" fill="#fff"/></svg>