<svg xmlns="http://www.w3.org/2000/svg" viewBox="0 0 105.47 94.04"><path d="M52.74,92.49a8.54,8.54,0,0,1-7.47-4.31L2.72,14.48A8.62,8.62,0,0,1,10.18,1.54H95.29a8.63,8.63,0,0,1,7.47,12.94L60.2,88.18a8.53,8.53,0,0,1-7.46,4.31" fill="#f0ae00"/><path d="M95.29,3.09a7.08,7.08,0,0,1,6.13,10.62L58.87,87.41a7.08,7.08,0,0,1-12.26,0L4.05,13.71A7.08,7.08,0,0,1,10.18,3.09H95.29m0-3.09H10.18a10.17,10.17,0,0,0-8.8,15.25L43.93,89a10.16,10.16,0,0,0,17.61,0l42.55-73.7a10.06,10.06,0,0,0,0-10.17A10,10,0,0,0,95.29,0" fill="#f19e19"/><path d="M46.71,59.22s-.63,13-.19,18.25c0,0,9.06,1,12.59-.44L58,61.42Z" fill="#f5d0a8"/><path d="M45.5 69.87v7.41a4.17 4.17 0 0 0 .56 2.07l3.1 5.37a4.13 4.13 0 0 0 7.15 0l3.1-5.36a4.06 4.06 0 0 0 .59-2.09v-7.43a32.51 32.51 0 0 1-7.42.94 27.73 27.73 0 0 1-7.08-.91z" fill="#fff"/><path d="M37.19 29.6a21.77 21.77 0 0 0 4.11 3.22 15.51 15.51 0 0 1-4.12-11.17 21.52 21.52 0 0 0 5-2.15h0a2.92 2.92 0 0 1 2.92-2.92 3.19 3.19 0 0 1 .82.13 21.5 21.5 0 0 0 5.27-7.64A21.57 21.57 0 0 0 57.93 18a2.91 2.91 0 0 1 5 2.91 21.52 21.52 0 0 0 5.32 1.42v.63a15.47 15.47 0 0 1-3.37 9A20.29 20.29 0 0 0 68.23 29a7.06 7.06 0 0 1 5.87-2.62 7.28 7.28 0 0 0-4.56-5.85A16.84 16.84 0 0 0 36 20.51a7.3 7.3 0 0 0-4.78 6.68 7 7 0 0 1 5.97 2.41z" fill="#ec6608"/><path d="M77 29.43a3.31 3.31 0 0 0-2.91-3A7.06 7.06 0 0 0 68.23 29a20.29 20.29 0 0 1-3.3 2.89 15.62 15.62 0 0 1-4.72 4c1 2.08.66 6.81-.62 7.52s-4.35-1.94-5.44-2.91a2.52 2.52 0 0 1-1.82.81 2.55 2.55 0 0 1-1.82-.71c-1.08 1-4 3.69-5.28 3.07-1.46-.74-2-6.48-.52-8.09a15.59 15.59 0 0 1-3.41-2.79 21.77 21.77 0 0 1-4.11-3.22 7 7 0 0 0-6-2.41 3.33 3.33 0 0 0-2.75 3.11c-.47 4.08 3.39 9.89 14.46 11.26a.28.28 0 0 1 0 .06c0-.06-6.06 22.62-6.06 22.62 0 1.77 3.59 4.29 8.68 5.63a27.73 27.73 0 0 0 7 .91 32.51 32.51 0 0 0 7.42-.94c4.69-1.15 8.69-3.22 8.69-5.6L63 41.2c11-1.77 14.63-7.7 14-11.77z" fill="#c90c0f"/><path d="M68.29 22.31A21.52 21.52 0 0 1 63 20.89a2.91 2.91 0 1 1-5-2.91 21.57 21.57 0 0 1-6.78-8.93 21.5 21.5 0 0 1-5.27 7.64 2.91 2.91 0 1 1-3.74 2.81 21.52 21.52 0 0 1-5 2.15 15.64 15.64 0 0 0 7.53 14 1.29 1.29 0 0 1 .24-.23c1.46-1 4.56 1.26 5.53 2a2.58 2.58 0 0 1 3.59 0c.89-.77 4-3.25 5.49-2.27a2 2 0 0 1 .65.8 15.65 15.65 0 0 0 8.09-13l-.04-.64zM52.74 32.93a5.32 5.32 0 0 1-5.31-5.32 1.5 1.5 0 1 1 3 0 2.32 2.32 0 1 0 4.63 0 1.5 1.5 0 0 1 3 0 5.33 5.33 0 0 1-5.32 5.32z" fill="#fff"/><path d="M59.56 35.12c-1.51-1-4.6 1.5-5.49 2.27a2.58 2.58 0 0 0-3.59 0c-1-.78-4.07-3.05-5.53-2a1.29 1.29 0 0 0-.24.23c-1.45 1.61-.94 7.35.52 8.09 1.23.62 4.2-2 5.28-3.07a2.55 2.55 0 0 0 1.82.71 2.52 2.52 0 0 0 1.82-.81c1.09 1 4.21 3.59 5.44 2.91s1.65-5.44.62-7.52a2 2 0 0 0-.65-.81z" fill="#f0ae00"/><path d="M45.06 22.4a2.91 2.91 0 0 0 .82-5.71 3.19 3.19 0 0 0-.82-.13 2.92 2.92 0 0 0-2.92 2.92h0a2.92 2.92 0 0 0 2.92 2.92z" fill="#26b4e6"/><path d="M56.56 26.11a1.5 1.5 0 0 0-1.5 1.5 2.32 2.32 0 1 1-4.63 0 1.5 1.5 0 1 0-3 0 5.32 5.32 0 1 0 10.63 0 1.51 1.51 0 0 0-1.5-1.5z" fill="#c90c0f"/><path d="M60.43 22.4a2.91 2.91 0 1 0-2.92-2.92 2.93 2.93 0 0 0 2.92 2.92z" fill="#26b4e6"/></svg>