<svg xmlns="http://www.w3.org/2000/svg" viewBox="0 0 105.47 94.04"><path d="M52.74,92.49a8.54,8.54,0,0,1-7.47-4.31L2.72,14.48A8.62,8.62,0,0,1,10.18,1.54H95.29a8.63,8.63,0,0,1,7.47,12.94L60.2,88.18a8.53,8.53,0,0,1-7.46,4.31" fill="#f0ae00"/><path d="M95.29,3.09a7.08,7.08,0,0,1,6.13,10.62L58.87,87.41a7.08,7.08,0,0,1-12.26,0L4.05,13.71A7.08,7.08,0,0,1,10.18,3.09H95.29m0-3.09H10.18a10.17,10.17,0,0,0-8.8,15.25L43.93,89a10.16,10.16,0,0,0,17.61,0l42.55-73.7a10.06,10.06,0,0,0,0-10.17A10,10,0,0,0,95.29,0" fill="#f19e19"/><circle cx="52.74" cy="31.73" r="21.7" fill="#fff"/><path d="M45.81,32a3.25,3.25,0,1,1-3.25-3.24A3.25,3.25,0,0,1,45.81,32" fill="#194093"/><path d="M52.74 47.21a5.88 5.88 0 0 1-5.88-5.87 1.5 1.5 0 0 1 3 0 2.88 2.88 0 0 0 5.75 0 1.5 1.5 0 0 1 3 0 5.87 5.87 0 0 1-5.87 5.87z" fill="#c90c0f"/><path d="M66.15 32a3.24 3.24 0 1 1-3.24-3.24A3.24 3.24 0 0 1 66.15 32M56.12 10.32v-.39a3.42 3.42 0 1 0-6.84 0 2.58 2.58 0 0 0 0 .39c-11 .63-19.52 4.33-19.52 8.78 0 4.91 10.25 5.72 22.9 5.72S75.63 24 75.63 19.1c0-4.45-8.47-8.1-19.51-8.78zM45.17 76.28H60.3l4.69-8.11H40.48l4.69 8.11z" fill="#194093"/><path d="M48.51 82.07a4.88 4.88 0 0 0 8.45 0l3.34-5.79H45.17zm-8.03-13.9h24.51l4.68-8.12H35.8l4.68 8.12z" fill="#fff"/></svg>