<svg xmlns="http://www.w3.org/2000/svg" viewBox="0 0 105.47 94.04"><path d="M52.74,92.49a8.54,8.54,0,0,1-7.47-4.31L2.72,14.48A8.62,8.62,0,0,1,10.18,1.54H95.29a8.63,8.63,0,0,1,7.47,12.94L60.2,88.18a8.53,8.53,0,0,1-7.46,4.31" fill="#f0ae00"/><path d="M95.29,3.09a7.08,7.08,0,0,1,6.13,10.62L58.87,87.41a7.08,7.08,0,0,1-12.26,0L4.05,13.71A7.08,7.08,0,0,1,10.18,3.09H95.29m0-3.09H10.18a10.17,10.17,0,0,0-8.8,15.25L43.93,89a10.16,10.16,0,0,0,17.61,0l42.55-73.7a10.06,10.06,0,0,0,0-10.17A10,10,0,0,0,95.29,0" fill="#f19e19"/><path d="M64.12 13.49l5.07 13.03 3.48-3.48L66.3 8.53l-2.18 4.96zM22.8 17.47l-5.3 9.17h9.39l-4.08-9.15-.01-.02zm20.07 13.05L30.95 16.18h-5.22L37.86 43.4l5.01-12.88zm27.58-.75l5.29 13.59L91.91 8.34 70.45 29.77z" fill="#26b4e6"/><path d="M54.61 60.45L41.1 50.67l6.95 15.6 6.56-5.82zm3.8-52.81v49.29L73.37 46.1 58.41 7.64zM40.24 46.1l14.97 10.83V7.64L40.24 46.1zm32.18 4.64l-13.47 9.75 6.21 5.78 7.26-15.53z" fill="#fff"/></svg>