<svg id="Warstwa_1" data-name="Warstwa 1" xmlns="http://www.w3.org/2000/svg" viewBox="0 0 105.47 94.04"><defs><style>.cls-1{fill:#f0ae00;}.cls-2{fill:#f19e19;}.cls-3{fill:#194093;}.cls-4{fill:#fff;}.cls-5{fill:#26b4e6;}</style></defs><title>sprawnosci-zuchowe</title><path class="cls-1" d="M52.74,92.49a8.54,8.54,0,0,1-7.47-4.31L2.72,14.48A8.62,8.62,0,0,1,10.18,1.54H95.29a8.63,8.63,0,0,1,7.47,12.94L60.2,88.18a8.53,8.53,0,0,1-7.46,4.31"/><path class="cls-2" d="M95.29,3.09a7.08,7.08,0,0,1,6.13,10.62L58.87,87.41a7.08,7.08,0,0,1-12.26,0L4.05,13.71A7.08,7.08,0,0,1,10.18,3.09H95.29m0-3.09H10.18a10.17,10.17,0,0,0-8.8,15.25L43.93,89a10.16,10.16,0,0,0,17.61,0l42.55-73.7a10.06,10.06,0,0,0,0-10.17A10.06,10.06,0,0,0,95.29,0"/><path class="cls-3" d="M60.94,50.15a3.75,3.75,0,0,1-1.81-2.21c-.13-.39-.33-3.1-.38-3.24s-.67-.43-.93-.35-.21.33-.2.5,0,19.16,0,19.38v0a5.19,5.19,0,0,0-4.51.39c-2.27,1.18-3.48,3.35-2.7,4.84s2.74,1.83,5,.64c1.9-1,3.14-2.66,3.13-4V52.44c2.78-.08,5.35,3.27,5.35,3.27,2.59,4.56-1.61,9.1-1.61,9.1-.28.86.29.68.29.68,1.48-.89,3.21-3.72,3.21-3.72,4-6.63-4.81-11.62-4.81-11.62"/><path class="cls-4" d="M81.82,9.82v0L67,12.86a.27.27,0,0,0-.2.25V31.83a5,5,0,0,0-4.3.37c-2.18,1.13-3.33,3.2-2.59,4.63s3.11,1.67,5.28.54c1.81-.94,3-2.54,3-3.87V16.94a.21.21,0,0,1,.18-.21L81.55,14a.22.22,0,0,1,.27.22v13.8a5,5,0,0,0-4.31.38c-2.17,1.13-3.33,3.2-2.59,4.63s3.11,1.67,5.28.54c1.81-.94,2.91-2.54,2.8-3.88h0V9.9a.26.26,0,0,0-.3-.25Z"/><path class="cls-5" d="M50.41,37.61a7.2,7.2,0,0,0-4.53-4.4,8.16,8.16,0,0,0-2.4-.36l-.24,0c-.31-2.28-.61-4.46-.87-6.35a35.36,35.36,0,0,0,4.16-4.61,11.53,11.53,0,0,0,.75-1.44,12.22,12.22,0,0,0,.53-1.54,12.07,12.07,0,0,0,.51-3.16,7.86,7.86,0,0,0-.62-3.39,5.63,5.63,0,0,0-2.37-2.73l-.26-.14a1,1,0,0,0-.3-.1,2.28,2.28,0,0,0-1.09.12,3.45,3.45,0,0,0-.72.36,4.84,4.84,0,0,0-1,.9,7.71,7.71,0,0,0-1.23,2,13.75,13.75,0,0,0-1,4.25,21.21,21.21,0,0,0,.13,4.22c.14,1.13.65,3.42.65,3.46-.83.72-1.7,1.43-2.57,2.17a28.48,28.48,0,0,0-3.77,3.76,11.9,11.9,0,0,0-2.44,5.08,10.45,10.45,0,0,0-.18,2.84,9.59,9.59,0,0,0,.7,2.75,12,12,0,0,0,3.22,4.34,11.48,11.48,0,0,0,4.73,2.46,9.71,9.71,0,0,0,2.76.31,5.49,5.49,0,0,0,.7,0c.36,2.93.58,5,.58,5.6a3.69,3.69,0,0,1-5.47,3.24A3.07,3.07,0,1,0,35.31,54h0v.2a3.08,3.08,0,0,0,.08.68,5.27,5.27,0,0,0,10.34.23A5.8,5.8,0,0,0,45.83,54c0-.68-.24-2.93-.61-6l.59-.21A8.1,8.1,0,0,0,50,43.73a8.84,8.84,0,0,0,.79-2.95,7.68,7.68,0,0,0-.4-3.17M42,23.48a27.81,27.81,0,0,1-.15-6.21,11,11,0,0,1,1-3.5,4.94,4.94,0,0,1,1.27-1.68,7.5,7.5,0,0,1,1,6.18c-.41,1.87-2.8,4.9-3.12,5.21M40.44,46.87a7.43,7.43,0,0,1-2.3-.59,7.94,7.94,0,0,1-2-1.32A7.14,7.14,0,0,1,34,40.83a8.31,8.31,0,0,1-.05-2.28,9.56,9.56,0,0,1,.38-2.2c.81-2.85,6.27-8.14,6.68-8.51.24,1.76.48,3.55.72,5.34A5.8,5.8,0,0,0,37.9,37a5.47,5.47,0,0,0,0,3.13,4.44,4.44,0,0,0,1.85,2.38,3,3,0,0,0,1.46.36c.28,0-.5-1-.72-1.28a3.09,3.09,0,0,1-.79-1.86,3.52,3.52,0,0,1,.44-1.87,3.31,3.31,0,0,1,1.24-1.35,3.19,3.19,0,0,1,.75-.35c.5,3.76,1,7.35,1.35,10.33a6.84,6.84,0,0,1-3,.38m4.49-1.18c-.37-2.94-.82-6.33-1.27-9.66l.24,0a4.26,4.26,0,0,1,.88.26,4.59,4.59,0,0,1,2.54,2.47,4.73,4.73,0,0,1,.36,1.82,6.12,6.12,0,0,1-.35,2,6.72,6.72,0,0,1-2.4,3.1"/></svg>