<svg id="Warstwa_1" data-name="Warstwa 1" xmlns="http://www.w3.org/2000/svg" viewBox="0 0 105.47 94.04"><defs><style>.cls-1{fill:#f0ae00;}.cls-2{fill:#f19e19;}.cls-3{fill:#26b4e6;}.cls-4{fill:#fff;}</style></defs><title>sprawnosci-zuchowe</title><path class="cls-1" d="M52.74,92.49a8.54,8.54,0,0,1-7.47-4.31L2.72,14.48A8.62,8.62,0,0,1,10.18,1.54H95.29a8.63,8.63,0,0,1,7.47,12.94L60.2,88.18a8.53,8.53,0,0,1-7.46,4.31"/><path class="cls-2" d="M95.29,3.09a7.08,7.08,0,0,1,6.13,10.62L58.87,87.41a7.08,7.08,0,0,1-12.26,0L4.05,13.71A7.08,7.08,0,0,1,10.18,3.09H95.29m0-3.09H10.18a10.17,10.17,0,0,0-8.8,15.25L43.93,89a10.16,10.16,0,0,0,17.61,0l42.55-73.7a10.06,10.06,0,0,0,0-10.17A10,10,0,0,0,95.29,0"/><polygon class="cls-3" points="64.12 13.49 69.19 26.52 72.67 23.04 66.3 8.53 64.12 13.49"/><polygon class="cls-3" points="22.8 17.47 17.5 26.64 26.89 26.64 22.81 17.49 22.8 17.47"/><polygon class="cls-3" points="42.87 30.52 30.95 16.18 25.73 16.18 37.86 43.4 42.87 30.52"/><polygon class="cls-3" points="70.45 29.77 75.74 43.36 91.91 8.34 70.45 29.77"/><polygon class="cls-4" points="54.61 60.45 41.1 50.67 48.05 66.27 54.61 60.45"/><polygon class="cls-4" points="58.41 7.64 58.41 56.93 73.37 46.1 58.41 7.64"/><polygon class="cls-4" points="40.24 46.1 55.21 56.93 55.21 7.64 40.24 46.1"/><polygon class="cls-4" points="72.42 50.74 58.95 60.49 65.16 66.27 72.42 50.74"/></svg>