<svg xmlns="http://www.w3.org/2000/svg" viewBox="0 0 105.47 94.04"><path d="M52.74,92.49a8.54,8.54,0,0,1-7.47-4.31L2.72,14.48A8.62,8.62,0,0,1,10.18,1.54H95.29a8.63,8.63,0,0,1,7.47,12.94L60.2,88.18a8.53,8.53,0,0,1-7.46,4.31" fill="#f0ae00"/><path d="M95.29,3.09a7.08,7.08,0,0,1,6.13,10.62L58.87,87.41a7.08,7.08,0,0,1-12.26,0L4.05,13.71A7.08,7.08,0,0,1,10.18,3.09H95.29m0-3.09H10.18a10.17,10.17,0,0,0-8.8,15.25L43.93,89a10.16,10.16,0,0,0,17.61,0l42.55-73.7a10.06,10.06,0,0,0,0-10.17A10,10,0,0,0,95.29,0" fill="#f19e19"/><path d="M50.16 71a2 2 0 0 1-2-2V9.09a2 2 0 0 1 4 0V69a2 2 0 0 1-2 2zm6.67 0a2 2 0 0 1-2-2V9.09a2 2 0 0 1 4 0V69a2 2 0 0 1-2 2z" fill="#fff"/><path d="M48.54 34.22a6.62 6.62 0 0 1-4.31-1.64 8.42 8.42 0 0 1 0-12.77 6.53 6.53 0 0 1 5.36-1.55 37.15 37.15 0 0 1 5.17 1.5l3.57 1.13a2 2 0 1 1-1 3.86l-3.81-1.2a35.29 35.29 0 0 0-4.54-1.35 2.6 2.6 0 0 0-2.12.66 4.42 4.42 0 0 0 0 6.67 2.62 2.62 0 0 0 2.12.66 36.11 36.11 0 0 0 4.53-1.34l3.56-1.14a2 2 0 1 1 1.08 3.85l-3.36 1.08a36.86 36.86 0 0 1-5.16 1.49 6.2 6.2 0 0 1-1.09.09z" fill="#c90c0f"/><path d="M66 70a2 2 0 0 1-2-2V55.33a5.21 5.21 0 0 0-1.73-3.83 3.34 3.34 0 0 0-2.66-.86 34.75 34.75 0 0 0-4.88 1.42 38.49 38.49 0 0 1-5.16 1.5A6.53 6.53 0 0 1 44.23 52a8.46 8.46 0 0 1-2.93-6.38 8.81 8.81 0 0 1 3.31-6.81 5.86 5.86 0 0 1 5.19-1.09c.89.25 2 .65 3.18 1.08 2.08.75 4.94 1.78 6.37 1.78A4.57 4.57 0 0 0 64 35.91a5.21 5.21 0 0 0-1.73-3.83 3.3 3.3 0 0 0-2.66-.86 33.44 33.44 0 0 0-4.88 1.42 36.86 36.86 0 0 1-5.16 1.49 6.53 6.53 0 0 1-5.36-1.55 8.42 8.42 0 0 1 0-12.77 6.53 6.53 0 0 1 5.36-1.55 35.82 35.82 0 0 1 5.17 1.5 34.07 34.07 0 0 0 4.87 1.41 3.3 3.3 0 0 0 2.66-.86A5.21 5.21 0 0 0 64 16.48V8.09a2 2 0 0 1 4 0v8.39a9.14 9.14 0 0 1-3.11 6.85 7.24 7.24 0 0 1-5.84 1.8 35 35 0 0 1-5.59-1.58 35.29 35.29 0 0 0-4.54-1.35 2.61 2.61 0 0 0-2.12.66 4.42 4.42 0 0 0 0 6.67 2.62 2.62 0 0 0 2.12.66 36.11 36.11 0 0 0 4.53-1.34 34.24 34.24 0 0 1 5.6-1.59 7.24 7.24 0 0 1 5.84 1.8A9.14 9.14 0 0 1 68 35.91a8.58 8.58 0 0 1-8.67 8.67c-2.13 0-5.1-1.07-7.73-2l-2.89-1A1.89 1.89 0 0 0 47 42a4.79 4.79 0 0 0-1.73 3.62A4.54 4.54 0 0 0 46.82 49a2.58 2.58 0 0 0 2.12.66 36.11 36.11 0 0 0 4.53-1.34 35.27 35.27 0 0 1 5.6-1.59 7.24 7.24 0 0 1 5.84 1.8 9.17 9.17 0 0 1 3.09 6.8V68a2 2 0 0 1-2 2z" fill="#194093"/><path d="M41 70a2 2 0 0 1-2-2V55.2c0-2.92.83-7.17 5.1-9.65-4.27-2.47-5.1-6.72-5.1-9.64s.83-7.17 5.1-9.65c-4.27-2.48-5.1-6.72-5.1-9.64V8.09a2 2 0 1 1 4 0v8.53c0 3.28 2.74 7.64 11.85 7.64v4c-9.13 0-11.85 4.36-11.85 7.65s2.74 7.64 11.85 7.64v4C45.72 47.55 43 51.92 43 55.2V68a2 2 0 0 1-2 2zm19.3-34.09A10.48 10.48 0 0 0 58.83 16v4.2a6.49 6.49 0 0 1 0 12v7.43a6.49 6.49 0 0 1 0 12v4.17a10.48 10.48 0 0 0 1.47-19.89z" fill="#c90c0f"/></svg>