<svg id="Warstwa_1" data-name="Warstwa 1" xmlns="http://www.w3.org/2000/svg" viewBox="0 0 105.47 94.04"><defs><style>.cls-1{fill:#f0ae00;}.cls-2{fill:#f19e19;}.cls-3{fill:#fff;}.cls-4{fill:#c90c0f;}</style></defs><title>sprawnosci-zuchowe</title><path class="cls-1" d="M52.74,92.49a8.54,8.54,0,0,1-7.47-4.31L2.72,14.48A8.62,8.62,0,0,1,10.18,1.54H95.29a8.63,8.63,0,0,1,7.47,12.94L60.2,88.18a8.53,8.53,0,0,1-7.46,4.31"/><path class="cls-2" d="M95.29,3.09a7.08,7.08,0,0,1,6.13,10.62L58.87,87.41a7.08,7.08,0,0,1-12.26,0L4.05,13.71A7.08,7.08,0,0,1,10.18,3.09H95.29m0-3.09H10.18a10.17,10.17,0,0,0-8.8,15.25L43.93,89a10.16,10.16,0,0,0,17.61,0l42.55-73.7a10.06,10.06,0,0,0,0-10.17A10,10,0,0,0,95.29,0"/><path class="cls-3" d="M64.39,15.79a4.52,4.52,0,1,0-2.75-1.28L56.43,25.7a16.86,16.86,0,0,1,2.89.95Z"/><path class="cls-3" d="M39.19,62.69l-.54,4.7L41.91,64l3.6-7.71a17,17,0,0,1-2.58-1.59Z"/><path class="cls-3" d="M63.47,64l3.25,3.43-.53-4.7-3.71-8a16.24,16.24,0,0,1-2.59,1.57Z"/><path class="cls-3" d="M43.73,14.51A4.51,4.51,0,1,0,41,15.79l5.09,10.92a15.83,15.83,0,0,1,2.89-1Z"/><path class="cls-4" d="M46.2,32.91a28.26,28.26,0,0,1,3.66-7.38c-.31,0-.6.14-.89.21a15.83,15.83,0,0,0-2.89,1,16.45,16.45,0,0,0-6.77,5.58l.94,0A27.81,27.81,0,0,1,46.2,32.91Z"/><path class="cls-4" d="M48.9,33.65a27.43,27.43,0,0,1,4.74,2.07,20.41,20.41,0,0,1,5.7-9.06h0a16.86,16.86,0,0,0-2.89-.95,17.28,17.28,0,0,0-2.91-.4A25.47,25.47,0,0,0,48.9,33.65Z"/><path class="cls-4" d="M52.93,44.08a18.28,18.28,0,0,1,.08-5.5,24.81,24.81,0,0,0-12.76-3.52c-.86,0-1.71,0-2.55.13A16.15,16.15,0,0,0,36.46,40a20.55,20.55,0,0,1,3.79-.37A20.34,20.34,0,0,1,52.93,44.08Z"/><path class="cls-4" d="M63.21,41.62a8.85,8.85,0,0,0,0,.89,25,25,0,0,0-2.73.75,12.5,12.5,0,0,1,5-11.82,16.42,16.42,0,0,0-3.61-3.35,17.5,17.5,0,0,0-6,17.26,24.58,24.58,0,0,0-3.24,2.29,17.44,17.44,0,0,0-16.28-4.78,16.21,16.21,0,0,0,1.07,4.73,12.9,12.9,0,0,1,2.73-.3,12.68,12.68,0,0,1,9.07,3.81,24,24,0,0,0-1.66,2.33,9.87,9.87,0,0,0-7.41-3.34,9.36,9.36,0,0,0-1.41.11,16.56,16.56,0,0,0,4.09,4.46,17,17,0,0,0,2.58,1.59A16,16,0,0,0,50,57.72,20.37,20.37,0,0,1,68.4,46.08h.06a16.53,16.53,0,0,0,.63-4.47,16.24,16.24,0,0,0-2-7.85A9.89,9.89,0,0,0,63.21,41.62Z"/><path class="cls-4" d="M53,58a16.42,16.42,0,0,0,9.46-3.22,16.41,16.41,0,0,0,4.86-5.79A17.54,17.54,0,0,0,53,58Z"/></svg>