<svg xmlns="http://www.w3.org/2000/svg" viewBox="0 0 105.47 94.04"><path d="M52.74,92.49a8.54,8.54,0,0,1-7.47-4.31L2.72,14.48A8.62,8.62,0,0,1,10.18,1.54H95.29a8.63,8.63,0,0,1,7.47,12.94L60.2,88.18a8.53,8.53,0,0,1-7.46,4.31" fill="#f0ae00"/><path d="M95.29,3.09a7.08,7.08,0,0,1,6.13,10.62L58.87,87.41a7.08,7.08,0,0,1-12.26,0L4.05,13.71A7.08,7.08,0,0,1,10.18,3.09H95.29m0-3.09H10.18a10.17,10.17,0,0,0-8.8,15.25L43.93,89a10.16,10.16,0,0,0,17.61,0l42.55-73.7a10.06,10.06,0,0,0,0-10.17A10,10,0,0,0,95.29,0" fill="#f19e19"/><g fill="#26b4e6"><path d="M90.38 10.53h-.08a14.62 14.62 0 0 0-8.58 2.92v2h2.39a11.37 11.37 0 0 1 6.19-1.94h.08a1.5 1.5 0 1 0 0-3zm-11.16 4.94A28.25 28.25 0 0 0 73 25.3l.84 1.91 2-.88c1.73-4.16 3.64-7.1 5.88-9.09v-1.77zm-9.64 27.29v5.28 2.66c0 3.59-2.46 7.5-5.26 8.38s-5.23-1.57-6.75-3.78a18 18 0 0 1-1-1.81l-.23 2.66L41.6 26.21l-18.24 9 30.45 19.28A22.1 22.1 0 0 0 55.19 57c2.91 4.22 5.85 5.26 8 5.26a7.09 7.09 0 0 0 2.07-.32c4.55-1.41 7.37-6.94 7.37-11.24v-2.73c0-1.63-.08-3.44 0-5.38l-1.41-1.41z"/><path d="M72,28a45.3,45.3,0,0,0-2.24,11.68l1.46,1.46,1.55-1.55a41.59,41.59,0,0,1,2-10.44l-.88-2Z"/></g><g fill="#fff"><path d="M56.43 56.15l.23-2.66 3.17-36.31-18.23 9.03 14.83 29.94z"/><path d="M32.57 7.97l-9.21 27.27 18.24-9.03-9.03-18.24z"/></g><path d="M59.83 17.18L32.57 7.97l9.03 18.24 18.23-9.03z" fill="#26b4e6"/><g fill="#fff"><path d="M72.58 42.59l4.16 4.16V35.61l-4.02 4.02-1.55 1.55 1.41 1.41z"/><path d="M69.71 39.72l-4.11-4.11v11.14l3.98-3.99 1.59-1.58-1.46-1.46zm12.01-22.48l-.01 6.1 7.88-7.87h-5.48-2.39v1.77z"/><path d="M81.72 13.45V7.59l-7.88 7.87 5.38.01h2.5v-2.02zm-6.99 15.74l2.3 5.22 4.02-10.39-5.22 2.31-1.98.88.88 1.98z"/><path d="M73.01 25.3L70.67 20l-4.02 10.39 5.3-2.35 1.9-.83-.84-1.91z"/></g></svg>