<svg id="Warstwa_1" data-name="Warstwa 1" xmlns="http://www.w3.org/2000/svg" viewBox="0 0 105.47 94.04"><defs><style>.cls-1{fill:#f0ae00;}.cls-2{fill:#f19e19;}.cls-3{fill:#26b4e6;}.cls-4{fill:#fff;}</style></defs><title>sprawnosci-zuchowe</title><path class="cls-1" d="M52.74,92.49a8.54,8.54,0,0,1-7.47-4.31L2.72,14.48A8.62,8.62,0,0,1,10.18,1.54H95.29a8.63,8.63,0,0,1,7.47,12.94L60.2,88.18a8.53,8.53,0,0,1-7.46,4.31"/><path class="cls-2" d="M95.29,3.09a7.08,7.08,0,0,1,6.13,10.62L58.87,87.41a7.08,7.08,0,0,1-12.26,0L4.05,13.71A7.08,7.08,0,0,1,10.18,3.09H95.29m0-3.09H10.18a10.17,10.17,0,0,0-8.8,15.25L43.93,89a10.16,10.16,0,0,0,17.61,0l42.55-73.7a10.06,10.06,0,0,0,0-10.17A10,10,0,0,0,95.29,0"/><path class="cls-3" d="M90.38,10.53H90.3a14.62,14.62,0,0,0-8.58,2.92v2h2.39a11.37,11.37,0,0,1,6.19-1.94h.08a1.5,1.5,0,1,0,0-3Z"/><path class="cls-3" d="M79.22,15.47A28.25,28.25,0,0,0,73,25.3l.84,1.91,2-.88c1.73-4.16,3.64-7.1,5.88-9.09V15.47Z"/><path class="cls-3" d="M69.58,42.76c0,2,0,3.74,0,5.28,0,1,0,1.85,0,2.66,0,3.59-2.46,7.5-5.26,8.38s-5.23-1.57-6.75-3.78a18,18,0,0,1-1-1.81l-.23,2.66L41.6,26.21l-18.24,9L53.81,54.49A22.1,22.1,0,0,0,55.19,57c2.91,4.22,5.85,5.26,8,5.26a7.09,7.09,0,0,0,2.07-.32c4.55-1.41,7.37-6.94,7.37-11.24,0-.83,0-1.74,0-2.73,0-1.63-.08-3.44,0-5.38l-1.41-1.41Z"/><path class="cls-3" d="M72,28a45.3,45.3,0,0,0-2.24,11.68l1.46,1.46,1.55-1.55a41.59,41.59,0,0,1,2-10.44l-.88-2Z"/><polygon class="cls-4" points="56.43 56.15 56.66 53.49 59.83 17.18 41.6 26.21 56.43 56.15"/><polygon class="cls-4" points="32.57 7.97 23.36 35.24 41.6 26.21 32.57 7.97"/><polygon class="cls-3" points="59.83 17.18 32.57 7.97 41.6 26.21 59.83 17.18"/><polygon class="cls-4" points="72.58 42.59 76.74 46.75 76.74 35.61 72.72 39.63 71.17 41.18 72.58 42.59"/><polygon class="cls-4" points="69.71 39.72 65.6 35.61 65.6 46.75 69.58 42.76 71.17 41.18 69.71 39.72"/><polygon class="cls-4" points="81.72 17.24 81.71 23.34 89.59 15.47 84.11 15.47 81.72 15.47 81.72 17.24"/><polygon class="cls-4" points="81.72 13.45 81.72 7.59 73.84 15.46 79.22 15.47 81.72 15.47 81.72 13.45"/><polygon class="cls-4" points="74.73 29.19 77.03 34.41 81.05 24.02 75.83 26.33 73.85 27.21 74.73 29.19"/><polygon class="cls-4" points="73.01 25.3 70.67 20 66.65 30.39 71.95 28.04 73.85 27.21 73.01 25.3"/></svg>