<svg xmlns="http://www.w3.org/2000/svg" viewBox="0 0 105.47 94.04"><path d="M52.74,92.49a8.54,8.54,0,0,1-7.47-4.31L2.72,14.48A8.62,8.62,0,0,1,10.18,1.54H95.29a8.63,8.63,0,0,1,7.47,12.94L60.2,88.18a8.53,8.53,0,0,1-7.46,4.31" fill="#f0ae00"/><path d="M95.29,3.09a7.08,7.08,0,0,1,6.13,10.62L58.87,87.41a7.08,7.08,0,0,1-12.26,0L4.05,13.71A7.08,7.08,0,0,1,10.18,3.09H95.29m0-3.09H10.18a10.17,10.17,0,0,0-8.8,15.25L43.93,89a10.16,10.16,0,0,0,17.61,0l42.55-73.7a10.06,10.06,0,0,0,0-10.17A10,10,0,0,0,95.29,0" fill="#f19e19"/><path d="M69.29 40.59h0l-.82 6a4.19 4.19 0 0 1 .63 2.63c0 1.18-1.37 2.66-3.6 4.29a5.5 5.5 0 0 1-5.64.87c-2.66-1.22-1.62-5.84-.42-7l1-4.39 1.36-7.14c-1.14-.69-2-4-1.68-5.76.64-3.54 5.95-8.43 8-8.17a2.5 2.5 0 0 1 1.24.43A2 2 0 0 1 70.1 24a4.21 4.21 0 0 0 .84 2.13 12.67 12.67 0 0 0 1-1.08C76 20 73.44 13.09 68.23 10c-.5-.31-3.86-2.75-10.37-2.21-5.39.46-10.45 2-14.7 5.32A35.57 35.57 0 0 0 30.6 35a29.05 29.05 0 0 0 1.34 16 23 23 0 0 0 18.69 13.82c12.56 1.15 19.67-7.93 21-10a13.49 13.49 0 0 0 2.5-7.33 7.31 7.31 0 0 0-4.84-6.9zM44.93 18.48a6 6 0 1 1-6 6 6 6 0 0 1 6-6zm-12.56 21.4a6 6 0 1 1 6 6 6 6 0 0 1-6-6zM47.07 60a6 6 0 1 1 6-6 6 6 0 0 1-6 6zm12-49.36a6 6 0 1 1-6 6 6 6 0 0 1 6.05-6.03z" fill="#fff"/><circle cx="47.07" cy="53.95" r="6.02" fill="#26b4e6"/><circle cx="38.39" cy="39.88" r="6.02" transform="matrix(.382683 -.92388 .92388 .382683 -13.14 60.09)" fill="#94b516"/><g fill="#c90c0f"><circle cx="59.12" cy="16.63" r="6.02" transform="matrix(.98708 -.160226 .160226 .98708 -1.9 9.68)"/><path d="M59.09 73.74a3.34 3.34 0 0 0 .62.06 3.42 3.42 0 0 0 3.38-2.8l1.28-9.34a23.55 23.55 0 0 1-6.82 2.71l-1.25 5.4a3.42 3.42 0 0 0 2.79 3.97zM62 45.33l-2.1 9.05a4.84 4.84 0 0 0 2.33.46 7 7 0 0 0 3.31-1.33l1-7.4z"/></g><path d="M65.58 37.9a6.87 6.87 0 0 1-2-.69l-1.17 6.17 4.24.72.83-6.1c-.23 0-.46.06-.7.06a6.87 6.87 0 0 1-1.2-.16z" fill="#fff"/><path d="M62.1 30.42a4.74 4.74 0 0 0 3.83 5.51 4.14 4.14 0 0 0 .85.08 4.75 4.75 0 0 0 4.67-3.91c.47-2.58-3.51-5.18-3.35-8.21a9.19 9.19 0 0 0-6 6.53z" fill="#ec6608"/></svg>