<svg id="Warstwa_1" data-name="Warstwa 1" xmlns="http://www.w3.org/2000/svg" viewBox="0 0 105.47 94.04"><defs><style>.cls-1{fill:#f0ae00;}.cls-2{fill:#f19e19;}.cls-3{fill:#fff;}.cls-4{fill:#26b4e6;}</style></defs><title>sprawnosci-zuchowe</title><path class="cls-1" d="M52.74,92.49a8.54,8.54,0,0,1-7.47-4.31L2.72,14.48A8.62,8.62,0,0,1,10.18,1.54H95.29a8.63,8.63,0,0,1,7.47,12.94L60.2,88.18a8.53,8.53,0,0,1-7.46,4.31"/><path class="cls-2" d="M95.29,3.09a7.08,7.08,0,0,1,6.13,10.62L58.87,87.41a7.08,7.08,0,0,1-12.26,0L4.05,13.71A7.08,7.08,0,0,1,10.18,3.09H95.29m0-3.09H10.18a10.17,10.17,0,0,0-8.8,15.25L43.93,89a10.16,10.16,0,0,0,17.61,0l42.55-73.7a10.06,10.06,0,0,0,0-10.17A10,10,0,0,0,95.29,0"/><path class="cls-3" d="M51.12,38.71a1.43,1.43,0,0,1-.88-.31v31c-4.41.29-7.69,1.41-7.69,2.76C42.55,73.73,47,75,52.47,75s9.92-1.27,9.92-2.83c0-1.29-3-2.38-7.15-2.72V38.4a1.48,1.48,0,0,1-.89.31Z"/><path class="cls-4" d="M57.25,22.93a1.6,1.6,0,0,1,0-3.2H62V16.37H57.25a1.6,1.6,0,0,1,0-3.2H62v-.79A4.42,4.42,0,0,0,57.55,8H47.92a4.42,4.42,0,0,0-4.41,4.41v.79h4.72a1.6,1.6,0,1,1,0,3.2H43.51v3.36h4.72a1.6,1.6,0,1,1,0,3.2H43.51v3.36h4.72a1.6,1.6,0,0,1,0,3.2H43.51v1.14A4.43,4.43,0,0,0,47.92,35h1.72v2.19a1.46,1.46,0,0,0,.6,1.17,1.43,1.43,0,0,0,.88.31h3.23a1.51,1.51,0,0,0,1.48-1.48V35h1.72A4.42,4.42,0,0,0,62,30.63V29.49H57.25a1.6,1.6,0,0,1,0-3.2H62V22.93Z"/></svg>