<svg xmlns="http://www.w3.org/2000/svg" viewBox="0 0 105.47 94.04"><path d="M52.74,92.49a8.54,8.54,0,0,1-7.47-4.31L2.72,14.48A8.62,8.62,0,0,1,10.18,1.54H95.29a8.63,8.63,0,0,1,7.47,12.94L60.2,88.18a8.53,8.53,0,0,1-7.46,4.31" fill="#f0ae00"/><path d="M95.29,3.09a7.08,7.08,0,0,1,6.13,10.62L58.87,87.41a7.08,7.08,0,0,1-12.26,0L4.05,13.71A7.08,7.08,0,0,1,10.18,3.09H95.29m0-3.09H10.18a10.17,10.17,0,0,0-8.8,15.25L43.93,89a10.16,10.16,0,0,0,17.61,0l42.55-73.7a10.06,10.06,0,0,0,0-10.17A10,10,0,0,0,95.29,0" fill="#f19e19"/><path d="M59.64 61.71V45H45.3v16.71zM56 49.27a1 1 0 0 1 1-1h0a1 1 0 0 1 1 1v8.12a1 1 0 0 1-1 1h0a1 1 0 0 1-1-1zm-4.46 0a1 1 0 0 1 1-1h0a1 1 0 0 1 1 1v8.12a1 1 0 0 1-1 1h0a1 1 0 0 1-1-1zm-4.45 0a1 1 0 0 1 1-1h0a1 1 0 0 1 .95 1v8.12a1 1 0 0 1-.95 1h0a1 1 0 0 1-1-1zm12.76 13.97H45.09l-4.89 2.54v2.53h24.54v-2.53l-4.89-2.54zM63 38.44h-2.78l2.14-11.5s-5.89-1.77-6.13-2.41a13.65 13.65 0 0 1-.23-2.86 10.22 10.22 0 0 0 2.57-6.82C58.53 10.6 55.82 8 52.47 8s-6.06 2.63-6.06 6.88a9.91 9.91 0 0 0 3.13 7.35 11.23 11.23 0 0 1-.26 2.33c-.23.64-6.69 2.41-6.69 2.41l2.13 11.5H41.9v5.05H63z" fill="#fff"/></svg>