<svg xmlns="http://www.w3.org/2000/svg" viewBox="0 0 105.47 94.04"><path d="M52.74,92.49a8.54,8.54,0,0,1-7.47-4.31L2.72,14.48A8.62,8.62,0,0,1,10.18,1.54H95.29a8.63,8.63,0,0,1,7.47,12.94L60.2,88.18a8.53,8.53,0,0,1-7.46,4.31" fill="#f0ae00"/><path d="M95.29,3.09a7.08,7.08,0,0,1,6.13,10.62L58.87,87.41a7.08,7.08,0,0,1-12.26,0L4.05,13.71A7.08,7.08,0,0,1,10.18,3.09H95.29m0-3.09H10.18a10.17,10.17,0,0,0-8.8,15.25L43.93,89a10.16,10.16,0,0,0,17.61,0l42.55-73.7a10.06,10.06,0,0,0,0-10.17A10,10,0,0,0,95.29,0" fill="#f19e19"/><path d="M83,13.3a4.1,4.1,0,0,1-2-2.44c-.15-.42-.37-3.41-.42-3.57a1.56,1.56,0,0,0-1.6-1.08,1.41,1.41,0,0,0-1.41,1.41V28.47a6.88,6.88,0,0,0-3.25.81c-2.51,1.3-3.84,3.7-3,5.34s3,2,5.52.71c1.66-.86,3.53-2.32,3.53-4.41V15.83c3,0,5.82,3.6,5.82,3.6,2.85,5-1.78,10-1.78,10-.3.94.32.74.32.74,1.64-1,3.54-4.09,3.54-4.09C92.63,18.8,83,13.3,83,13.3Z" fill="#194093"/><path d="M66.87 21.35a1.57 1.57 0 0 0-1.6-1.08 1.41 1.41 0 0 0-1.41 1.41v20.85a6.88 6.88 0 0 0-3.25.81c-2.5 1.31-3.84 3.7-3 5.35s3 2 5.52.7c1.66-.86 3.53-2.32 3.53-4.41l.21-23.63z" fill="#94b516"/><path d="M63.58 69.23c-.28-.46-14.86-29.71-19.33-38.38l-13.34 8L55.35 74c.35.56 2.34 3 6.1.76s2.44-5.01 2.13-5.53zM47.94 52.85c-1.69 1-4.22-.22-5.63-2.67s-1.2-5.24.5-6.22 4.22.22 5.63 2.67 1.2 5.24-.5 6.22z" fill="#fff"/><path d="M21.77 8.08a15.51 15.51 0 0 0-6.06 19.84L42.13 12a15.5 15.5 0 0 0-20.36-3.92zM44.64 17L18.93 32.46a15.43 15.43 0 0 0 7.59 4.07L44.68 25.6a15.5 15.5 0 0 0-.04-8.6z" fill="#194093"/></svg>