<svg xmlns="http://www.w3.org/2000/svg" viewBox="0 0 105.47 94.04"><path d="M52.74,92.49a8.54,8.54,0,0,1-7.47-4.31L2.72,14.48A8.62,8.62,0,0,1,10.18,1.54H95.29a8.63,8.63,0,0,1,7.47,12.94L60.2,88.18a8.53,8.53,0,0,1-7.46,4.31" fill="#f0ae00"/><path d="M95.29,3.09a7.08,7.08,0,0,1,6.13,10.62L58.87,87.41a7.08,7.08,0,0,1-12.26,0L4.05,13.71A7.08,7.08,0,0,1,10.18,3.09H95.29m0-3.09H10.18a10.17,10.17,0,0,0-8.8,15.25L43.93,89a10.16,10.16,0,0,0,17.61,0l42.55-73.7a10.06,10.06,0,0,0,0-10.17A10,10,0,0,0,95.29,0" fill="#f19e19"/><path d="M73.54 39.05l-7.49 9.56 3.38.66a12 12 0 0 1-4.91 8.14c-1.41.82-5.48 1.6-7.47.48L55.4 27.94H63v-4.86h-6.24a7.42 7.42 0 1 0-8 0h-6.32v4.86h7.63l-1.65 30c-2 1.12-6.06.34-7.47-.48a11.91 11.91 0 0 1-4.9-8.14l3.37-.66-7.49-9.56-3.64 11.67 3.29-.64a17.42 17.42 0 0 0 1.52 5.1 20 20 0 0 0 4.56 6.09c5 4.69 15.08 8.82 15.08 8.82s10.7-5.14 15.07-8.82a17.8 17.8 0 0 0 4.57-6.09 17.4 17.4 0 0 0 1.51-5.1l3.3.64zM52.74 13.5a3.35 3.35 0 1 1-3.36 3.35 3.36 3.36 0 0 1 3.36-3.35z" fill="#26b4e6"/><path d="M31.38 13.12a4.1 4.1 0 0 1-2-2.44c-.15-.43-.36-3.41-.42-3.57A1.55 1.55 0 0 0 27.37 6 1.41 1.41 0 0 0 26 7.43v20.86a6.9 6.9 0 0 0-3.25.81c-2.5 1.3-3.84 3.69-3 5.34s3 2 5.53.71c1.65-.86 3.52-2.32 3.52-4.41V15.65c3 0 5.82 3.6 5.82 3.6 2.85 5-1.77 10-1.77 10-.31.95.32.75.32.75 1.63-1 3.53-4.1 3.53-4.1 4.36-7.28-5.32-12.78-5.32-12.78zM86 6.85c-.7 0-15.42 3.18-16.12 3.3a1.48 1.48 0 0 0-1.38 1.38v19.86a5.91 5.91 0 0 0-3.82.67c-2.35 1.22-3.6 3.47-2.8 5s3.31 1.71 5.71.58a6.4 6.4 0 0 0 3.67-4.95V15.27l13.36-2.71v14.72A6 6 0 0 0 81 28c-2.35 1.22-3.6 3.47-2.8 5s3.29 1.66 5.72.59c3.5-1.54 3.5-3.69 3.5-4.18V8.23A1.38 1.38 0 0 0 86 6.85z" fill="#fff"/></svg>