<?xml version="1.0" encoding="iso-8859-1"?>
<!-- Generator: Adobe Illustrator 22.1.0, SVG Export Plug-In . SVG Version: 6.00 Build 0)  -->
<svg version="1.1" xmlns="http://www.w3.org/2000/svg" xmlns:xlink="http://www.w3.org/1999/xlink" x="0px" y="0px"
	 viewBox="0 0 90.709 90.709" style="enable-background:new 0 0 90.709 90.709;" xml:space="preserve">
<g id="ratownik-1">
	<g>
		<g>
			<path style="fill:#194093;" d="M45.354,88.874c-23.997,0-43.52-19.522-43.52-43.52S21.358,1.834,45.354,1.834
				s43.52,19.523,43.52,43.521S69.351,88.874,45.354,88.874z"/>
			<g>
				<path style="fill:#252E78;" d="M45.354,2.835c23.483,0,42.52,19.037,42.52,42.52s-19.037,42.52-42.52,42.52
					s-42.52-19.037-42.52-42.52S21.871,2.835,45.354,2.835 M45.354,0.835c-24.548,0-44.52,19.971-44.52,44.52
					s19.971,44.52,44.52,44.52s44.52-19.971,44.52-44.52S69.903,0.835,45.354,0.835L45.354,0.835z"/>
			</g>
		</g>
	</g>
</g>
<g id="Warstwa_4">
	<g>
		<g>
			<path style="fill:#F8C409;" d="M52.902,50.982c0,0,3.403,3.108,7.184,3.108c1.513,0,3.15-0.589,3.15-2.395
				c0-3.36-13.652-3.655-13.652-12.687c0-4.705,3.36-8.065,8.023-8.947v-3.949h4.579v3.823c5.124,0.588,7.687,3.276,7.687,3.276
				l-3.108,6.007c0,0-3.024-2.646-6.637-2.646c-1.513,0-3.192,0.672-3.192,2.353c0,3.57,13.652,3.318,13.652,12.603
				c0,4.452-3.025,8.317-8.401,9.157v3.823h-4.579v-3.823c-5.545-0.798-8.57-4.116-8.57-4.116L52.902,50.982z"/>
		</g>
		<g>
			<path style="fill:#FFFFFF;" d="M15.242,45.705h2.439c-0.087-0.653-0.131-1.307-0.044-2.09h-2.395v-4.181h3.136
				c2.003-6.402,7.926-10.888,15.111-10.888c2.613,0,5.095,0.61,5.095,0.61l-1.873,6.88c0,0-1.699-0.435-3.44-0.435
				c-3.005,0-5.4,1.394-6.707,3.832h9.406l-0.871,4.181h-9.537c-0.087,0.696-0.044,1.394,0.087,2.09h9.015l-0.871,4.181h-6.75
				c1.394,2.309,3.876,3.658,6.576,3.658c2.178,0,4.137-0.653,4.137-0.653l1.307,6.968c0,0-2.396,0.871-5.574,0.871
				c-7.491,0-13.021-4.398-15.024-10.844h-3.223V45.705z"/>
		</g>
	</g>
</g>
</svg>
