<svg xmlns="http://www.w3.org/2000/svg" viewBox="0 0 90.709 90.709"><path d="M45.354 88.874c-23.997 0-43.52-19.522-43.52-43.52s19.524-43.52 43.52-43.52 43.52 19.523 43.52 43.521-19.523 43.519-43.52 43.519z" fill="#194093"/><path d="M45.354 2.835c23.483 0 42.52 19.037 42.52 42.52s-19.037 42.52-42.52 42.52-42.52-19.037-42.52-42.52 19.037-42.52 42.52-42.52m0-2C20.806.835.834 20.806.834 45.355s19.971 44.52 44.52 44.52 44.52-19.971 44.52-44.52S69.903.835 45.354.835h0z" fill="#252e78"/><path d="M52.902 50.982s3.403 3.108 7.184 3.108c1.513 0 3.15-.589 3.15-2.395 0-3.36-13.652-3.655-13.652-12.687 0-4.705 3.36-8.065 8.023-8.947v-3.949h4.579v3.823c5.124.588 7.687 3.276 7.687 3.276l-3.108 6.007s-3.024-2.646-6.637-2.646c-1.513 0-3.192.672-3.192 2.353 0 3.57 13.652 3.318 13.652 12.603 0 4.452-3.025 8.317-8.401 9.157v3.823h-4.579v-3.823c-5.545-.798-8.57-4.116-8.57-4.116l3.864-5.587z" fill="#f8c409"/><path d="M15.242 45.705h2.439a8.26 8.26 0 0 1-.044-2.09h-2.395v-4.181h3.136c2.003-6.402 7.926-10.888 15.111-10.888 2.613 0 5.095.61 5.095.61l-1.873 6.88s-1.699-.435-3.44-.435c-3.005 0-5.4 1.394-6.707 3.832h9.406l-.871 4.181h-9.537c-.087.696-.044 1.394.087 2.09h9.015l-.871 4.181h-6.75c1.394 2.309 3.876 3.658 6.576 3.658 2.178 0 4.137-.653 4.137-.653l1.307 6.968s-2.396.871-5.574.871c-7.491 0-13.021-4.398-15.024-10.844h-3.223v-4.18z" fill="#fff"/></svg>