<?xml version="1.0" encoding="iso-8859-1"?>
<!-- Generator: Adobe Illustrator 22.1.0, SVG Export Plug-In . SVG Version: 6.00 Build 0)  -->
<svg version="1.1" xmlns="http://www.w3.org/2000/svg" xmlns:xlink="http://www.w3.org/1999/xlink" x="0px" y="0px"
	 viewBox="0 0 90.709 90.709" style="enable-background:new 0 0 90.709 90.709;" xml:space="preserve">
<g id="ratownik-1">
	<g>
		<g>
			<path style="fill:#194093;" d="M45.354,88.874c-23.997,0-43.52-19.522-43.52-43.52S21.357,1.834,45.354,1.834
				s43.52,19.523,43.52,43.521S69.351,88.874,45.354,88.874z"/>
			<g>
				<path style="fill:#252E78;" d="M45.354,2.835c23.483,0,42.52,19.037,42.52,42.52s-19.037,42.52-42.52,42.52
					s-42.52-19.037-42.52-42.52S21.871,2.835,45.354,2.835 M45.354,0.835c-24.548,0-44.52,19.971-44.52,44.52
					s19.971,44.52,44.52,44.52s44.52-19.971,44.52-44.52S69.903,0.835,45.354,0.835L45.354,0.835z"/>
			</g>
		</g>
	</g>
</g>
<g id="Warstwa_4">
	<g>
		<path style="fill:#F8C409;" d="M26.545,46.355h7.619l0.075,0.712L45.741,43.6c0.361-0.135,1.066-0.35,1.863-0.416v-5.229h8.304
			l-0.567,5.399h-5.957c2.413,0.592,2.631,2.917,2.646,3h2.996l-0.618,5.885h-3.94c-0.954,1.268-5.279,3.328-5.864,3.557v2.91h3
			V55.24h6.489l-0.364,3.467h1.119l1.983-0.808l0.279-2.659h4.006c0.702-0.884,1.556-1.953,2.403-3h-6.093l0.618-5.885h7.62
			l-0.871,4.323c0.889-1.08,1.67-2,2.113-2.461c0.583-0.606,1.161-1.036,1.714-1.346l1.84-9.133c1.785-0.555,3.089-2.2,3.09-4.167
			c0-2.421-1.963-4.384-4.384-4.384H23.043c-2.421,0-4.384,1.963-4.384,4.384c0,1.968,1.305,3.613,3.09,4.168l3.2,15.883
			l2.679-1.891L26.545,46.355z M58.926,37.956h8.431l-1.088,5.399h-7.91L58.926,37.956z M44.604,37.956v5.399h-7.737L36.3,37.956
			H44.604z M24.853,37.956h8.43l0.567,5.399h-7.909L24.853,37.956z"/>
		<path style="fill:#FFFFFF;" d="M28.041,33.571c0,1.679,1.361,3.039,3.039,3.039s3.039-1.361,3.039-3.039
			c0-0.548-0.156-1.054-0.41-1.498l8.998-18.245c0.429-0.869,0.072-1.92-0.797-2.349c-0.869-0.429-1.92-0.072-2.349,0.797
			l-9.03,18.31C29.116,30.846,28.041,32.08,28.041,33.571z"/>
		<path style="fill:#FFFFFF;" d="M58.089,33.571c0,1.679,1.361,3.039,3.039,3.039s3.039-1.361,3.039-3.039
			c0-1.491-1.075-2.725-2.491-2.984l-9.03-18.31c-0.428-0.869-1.48-1.226-2.349-0.797c-0.869,0.428-1.226,1.48-0.797,2.349
			l8.998,18.244C58.245,32.517,58.089,33.024,58.089,33.571z"/>
		<path style="fill:#FFFFFF;" d="M51.19,74.357l14.027-7.586l5.723-9.564c0,0,1.641-4.355,2.018-6.301
			c0.129-0.668-0.581-1.751-1.734-1.751c-0.613,0-1.351,0.306-2.156,1.142c-1.428,1.485-7.152,8.768-7.152,8.768l-6.481,2.642
			H43.067l-5.33-4.091l2.343-3.214c0,0,3.777-1.593,4.995-1.973c4.087-1.273,4.17-4.892,3.995-5.61
			c-0.126-0.515-0.561-0.665-1.024-0.665c-0.642,0-1.337,0.288-1.337,0.288l-10.953,3.225l-12.409,8.756l-2.216,0.145l-0.523,13.809
			L51.19,74.357z"/>
		<path style="fill:#F8C409;" d="M21.319,53.61l-13.472-0.64c1.725,8.54,6.297,16.043,12.678,21.492h0.005L21.319,53.61z"/>
	</g>
</g>
</svg>
