<?xml version="1.0" encoding="iso-8859-1"?>
<!-- Generator: Adobe Illustrator 22.1.0, SVG Export Plug-In . SVG Version: 6.00 Build 0)  -->
<svg version="1.1" xmlns="http://www.w3.org/2000/svg" xmlns:xlink="http://www.w3.org/1999/xlink" x="0px" y="0px"
	 viewBox="0 0 90.709 90.709" style="enable-background:new 0 0 90.709 90.709;" xml:space="preserve">
<g id="ratownik-1">
	<g>
		<g>
			<circle style="fill:#194093;" cx="45.354" cy="45.355" r="43.52"/>
			<g>
				<path style="fill:#252E78;" d="M45.354,2.835c23.483,0,42.52,19.037,42.52,42.52s-19.037,42.52-42.52,42.52
					s-42.52-19.037-42.52-42.52S21.871,2.835,45.354,2.835 M45.354,0.835c-24.548,0-44.52,19.971-44.52,44.52
					s19.971,44.52,44.52,44.52s44.52-19.971,44.52-44.52S69.903,0.835,45.354,0.835L45.354,0.835z"/>
			</g>
		</g>
	</g>
</g>
<g id="Warstwa_4">
	<g>
		<polygon style="fill:none;" points="52.193,36.1 52.166,36.085 46.468,45.954 46.486,45.985 		"/>
		<path style="fill:none;" d="M50.297,51.384c0.012,0,0.025-0.001,0.037-0.001l7.082-12.266L57.389,39.1L50.297,51.384z"/>
		<path style="fill:#FFFFFF;" d="M50.584,65.084l6.093,10.553c0.556,0.963,1.564,1.501,2.601,1.501c0.509,0,1.025-0.13,1.497-0.403
			c1.435-0.828,1.926-2.663,1.098-4.098l-3.813-6.605l-4.446-5.133L50.584,65.084z"/>
		<path style="fill:#FFFFFF;" d="M36.077,27.956c0.902-0.531,1.847-1.072,2.851-1.624c-0.99-2.88-2.537-5.44-4.891-7.534
			l-2.519,1.262l-0.375-0.65c-0.828-1.435-2.662-1.928-4.098-1.098c-1.435,0.828-1.926,2.663-1.098,4.098l0.198,0.342l-13.618,6.821
			c1.406,4.639,5.143,10.563,8.414,13.4c0.197-2.634,2.595-6.609,10.071-11.793l10.608,18.374l3.464-6L36.077,27.956z"/>
		<path style="fill:#F8C409;" d="M42.943,64.121l0.133-0.167l7.258-12.572c-0.012,0-0.024,0.001-0.037,0.001L42.943,64.121z"/>
		<path style="fill:#F8C409;" d="M43.344,51.427c-0.012,0-0.024,0-0.036,0l-5.799,10.044l0.02,0.028L43.344,51.427z"/>
		<path style="fill:#F8C409;" d="M40.559,51.389c-7.725-0.201-15.33-0.883-22.785-2.02l0.445-3.641c0.134-1.1-0.648-2.1-1.748-2.234
			c-1.103-0.13-2.1,0.648-2.235,1.748l-2.243,18.344c-0.134,1.1,0.648,2.1,1.748,2.234c0.083,0.01,0.165,0.015,0.246,0.015
			c1,0,1.864-0.745,1.989-1.763l0.013-0.106l4.635-4.492c0.009,0.001,0.018,0.003,0.027,0.004l3.501,5.85l4.7-4.97l3.481,5.279
			L40.559,51.389z"/>
		<path style="fill:#F8C409;" d="M76.473,45.242c-0.134-1.101-1.127-1.879-2.235-1.748c-1.1,0.135-1.882,1.135-1.748,2.234
			l0.445,3.641c-6.482,0.989-13.079,1.622-19.768,1.906L46.6,62.651l3.003,3.789l0.981-1.356l3.029-4.185l4.446,5.133l0.032,0.037
			l3.765-5.71l4.699,4.97l3.501-5.85c0.009-0.001,0.018-0.003,0.027-0.004l4.635,4.492l0.013,0.106
			c0.125,1.018,0.989,1.763,1.989,1.763c0.081,0,0.163-0.005,0.246-0.015c1.1-0.135,1.882-1.135,1.748-2.234L76.473,45.242z"/>
		<path style="fill:#FFFFFF;" d="M37.529,61.499l-6.107,10.577c-0.828,1.435-0.337,3.27,1.098,4.098
			c0.473,0.273,0.988,0.403,1.497,0.403c1.037,0,2.045-0.539,2.601-1.501l6.325-10.955l7.354-12.737L57.389,39.1l0.027,0.016
			l1.563-2.706l-1.15-3.99l-4.1,0.959l-1.563,2.706l0.027,0.016l-5.707,9.885l-0.018-0.031l-3.16,5.473c0.012,0,0.024,0,0.036,0
			L37.529,61.499z"/>
		<path style="fill:#FFFFFF;" d="M52.17,31.278l1.012-0.237l4.1-0.959l2.221-0.519l0.632,2.192l1.15,3.99l0.283,0.981l-0.51,0.884
			l-1.563,2.706l0.285,0.164c1.373,0.793,3.124,0.408,4.038-0.887l5.096-7.218l2.148-4.654c1.545-3.347,0.284-7.32-2.909-9.164
			l-3.551-2.05c-3.193-1.843-7.264-0.949-9.391,2.062l-2.957,4.188l-3.703,8.023c-0.664,1.439-0.122,3.148,1.251,3.941l0.285,0.164
			l1.563-2.706L52.17,31.278z"/>
	</g>
</g>
</svg>
