<svg xmlns="http://www.w3.org/2000/svg" viewBox="0 0 90.709 90.709"><circle cx="45.354" cy="45.355" r="43.52" fill="#194093"/><path d="M45.354 2.835c23.483 0 42.52 19.037 42.52 42.52s-19.037 42.52-42.52 42.52-42.52-19.037-42.52-42.52 19.037-42.52 42.52-42.52m0-2C20.806.835.834 20.806.834 45.355s19.971 44.52 44.52 44.52 44.52-19.971 44.52-44.52S69.903.835 45.354.835h0z" fill="#252e78"/><path d="M50.584 65.084l6.093 10.553a3 3 0 0 0 2.601 1.501c.509 0 1.025-.13 1.497-.403a3 3 0 0 0 1.098-4.098l-3.813-6.605-4.446-5.133-3.03 4.185zM36.077 27.956l2.851-1.624c-.99-2.88-2.537-5.44-4.891-7.534l-2.519 1.262-.375-.65a3 3 0 1 0-5.196 3l.198.342-13.618 6.821c1.406 4.639 5.143 10.563 8.414 13.4.197-2.634 2.595-6.609 10.071-11.793L41.62 49.554l3.464-6-9.007-15.598z" fill="#fff"/><path d="M42.943 64.121l.133-.167 7.258-12.572-.037.001-7.354 12.738zm.401-12.694h-.036l-5.799 10.044.02.028 5.815-10.072zm-2.785-.038c-7.725-.201-15.33-.883-22.785-2.02l.445-3.641c.134-1.1-.648-2.1-1.748-2.234a2.01 2.01 0 0 0-2.235 1.748l-2.243 18.344c-.134 1.1.648 2.1 1.748 2.234.083.01.165.015.246.015 1 0 1.864-.745 1.989-1.763l.013-.106 4.635-4.492c.009.001.018.003.027.004l3.501 5.85 4.7-4.97 3.481 5.279 8.226-14.248zm35.914-6.147c-.134-1.101-1.127-1.879-2.235-1.748-1.1.135-1.882 1.135-1.748 2.234l.445 3.641c-6.482.989-13.079 1.622-19.768 1.906L46.6 62.651l3.003 3.789.981-1.356 3.029-4.185 4.446 5.133.032.037 3.765-5.71 4.699 4.97 3.501-5.85c.009-.001.018-.003.027-.004l4.635 4.492.013.106c.125 1.018.989 1.763 1.989 1.763.081 0 .163-.005.246-.015 1.1-.135 1.882-1.135 1.748-2.234l-2.241-18.345z" fill="#f8c409"/><path d="M37.529 61.499l-6.107 10.577a3 3 0 0 0 1.098 4.098c.473.273.988.403 1.497.403a3 3 0 0 0 2.601-1.501l6.325-10.955 7.354-12.737L57.389 39.1l.027.016 1.563-2.706-1.15-3.99-4.1.959-1.563 2.706.027.016-5.707 9.885-.018-.031-3.16 5.473h.036l-5.815 10.071zM52.17 31.278l1.012-.237 4.1-.959 2.221-.519.632 2.192 1.15 3.99.283.981-.51.884-1.563 2.706.285.164c1.373.793 3.124.408 4.038-.887l5.096-7.218 2.148-4.654a7.13 7.13 0 0 0-2.909-9.164l-3.551-2.05c-3.193-1.843-7.264-.949-9.391 2.062l-2.957 4.188-3.703 8.023a3.07 3.07 0 0 0 1.251 3.941l.285.164 1.563-2.706.52-.901z" fill="#fff"/></svg>