<svg xmlns="http://www.w3.org/2000/svg" viewBox="0 0 90.709 90.709"><circle transform="matrix(.9239 -.3827 .3827 .9239 -13.9041 20.8088)" cx="45.354" cy="45.355" r="43.52" fill="#194093"/><path d="M45.354 2.835c23.483 0 42.52 19.037 42.52 42.52s-19.037 42.52-42.52 42.52-42.52-19.037-42.52-42.52 19.037-42.52 42.52-42.52m0-2C20.806.835.834 20.806.834 45.355s19.971 44.52 44.52 44.52 44.52-19.971 44.52-44.52S69.903.835 45.354.835h0z" fill="#252e78"/><path d="M54.152 35.409H72.37l-9.109-11.725z" fill="#fff"/><path d="M63.261 19.601l4.234-5.45c-3.896-2.769-8.329-4.827-13.116-5.985l8.882 11.435zm-9.109 19.89l9.109 11.726 9.109-11.726z" fill="#f8c409"/><path d="M63.261 71.107l-8.883 11.435a38.07 38.07 0 0 0 13.116-5.985l-4.233-5.45zm-9.109-4.082H72.37l-9.109-11.726z" fill="#fff"/><path d="M34.454 18.608V8.869h-.662c-6.058 1.918-11.459 5.304-15.795 9.739h16.457z" fill="#f8c409"/><path d="M34.454 34.416v-9.739H13.162a38.08 38.08 0 0 0-4.48 9.739h25.772z" fill="#fff"/><path d="M34.454 40.485H7.406a38.55 38.55 0 0 0-.319 4.87 38.55 38.55 0 0 0 .319 4.87h27.048v-9.74z" fill="#f8c409"/><path d="M34.454 66.032v-9.739H8.682a38.08 38.08 0 0 0 4.48 9.739h21.292zm0 6.069H17.996c4.336 4.435 9.738 7.821 15.795 9.739h.662v-9.739z" fill="#fff"/><path d="M50.927 28.252h-4.184v-4.553h-2.777v4.553h-4.184v2.654h4.184v4.531h2.777v-4.531h4.184z" fill="#f8c409"/><path d="M39.782 44.075h11.145v2.654H39.782zm0-31.668h11.145v2.654H39.782z" fill="#fff"/><path d="M46.743 67.084v-4.531h4.184v-2.654h-4.184v-4.552h-2.777v4.552h-4.184v2.654h4.184v4.531zm0 15.824v-4.531h4.184v-2.654h-4.184v-4.552h-2.777v4.552h-4.184v2.654h4.184v4.531z" fill="#f8c409"/></svg>