<?xml version="1.0" encoding="iso-8859-1"?>
<!-- Generator: Adobe Illustrator 22.1.0, SVG Export Plug-In . SVG Version: 6.00 Build 0)  -->
<svg version="1.1" xmlns="http://www.w3.org/2000/svg" xmlns:xlink="http://www.w3.org/1999/xlink" x="0px" y="0px"
	 viewBox="0 0 90.709 90.709" style="enable-background:new 0 0 90.709 90.709;" xml:space="preserve">
<g id="ratownik-1">
	<g>
		<g>
			
				<ellipse transform="matrix(0.9239 -0.3827 0.3827 0.9239 -13.9041 20.8088)" style="fill:#194093;" cx="45.354" cy="45.355" rx="43.52" ry="43.52"/>
			<g>
				<path style="fill:#252E78;" d="M45.354,2.835c23.483,0,42.52,19.037,42.52,42.52s-19.037,42.52-42.52,42.52
					s-42.52-19.037-42.52-42.52S21.871,2.835,45.354,2.835 M45.354,0.835c-24.548,0-44.52,19.971-44.52,44.52
					s19.971,44.52,44.52,44.52s44.52-19.971,44.52-44.52S69.903,0.835,45.354,0.835L45.354,0.835z"/>
			</g>
		</g>
	</g>
</g>
<g id="Warstwa_4">
	<g>
		<polygon style="fill:#FFFFFF;" points="54.152,35.409 72.37,35.409 63.261,23.684 		"/>
		<path style="fill:#F8C409;" d="M63.261,19.601l4.234-5.45c-3.896-2.769-8.329-4.827-13.116-5.985L63.261,19.601z"/>
		<polygon style="fill:#F8C409;" points="54.152,39.491 63.261,51.217 72.37,39.491 		"/>
		<path style="fill:#FFFFFF;" d="M63.261,71.107l-8.883,11.435c4.788-1.158,9.221-3.216,13.116-5.985L63.261,71.107z"/>
		<polygon style="fill:#FFFFFF;" points="54.152,67.025 72.37,67.025 63.261,55.299 		"/>
		<path style="fill:#F8C409;" d="M34.454,18.608V8.869h-0.662c-6.058,1.918-11.459,5.304-15.795,9.739H34.454z"/>
		<path style="fill:#FFFFFF;" d="M34.454,34.416v-9.739H13.162c-1.923,2.988-3.443,6.258-4.48,9.739H34.454z"/>
		<path style="fill:#F8C409;" d="M34.454,40.485H7.406c-0.203,1.596-0.319,3.219-0.319,4.87s0.116,3.274,0.319,4.87h27.048V40.485z"
			/>
		<path style="fill:#FFFFFF;" d="M34.454,66.032v-9.739H8.682c1.037,3.481,2.557,6.751,4.48,9.739H34.454z"/>
		<path style="fill:#FFFFFF;" d="M34.454,72.101H17.996c4.336,4.435,9.738,7.821,15.795,9.739h0.662V72.101z"/>
		<polygon style="fill:#F8C409;" points="50.927,28.252 46.743,28.252 46.743,23.699 43.966,23.699 43.966,28.252 39.782,28.252 
			39.782,30.906 43.966,30.906 43.966,35.437 46.743,35.437 46.743,30.906 50.927,30.906 		"/>
		<rect x="39.782" y="44.075" style="fill:#FFFFFF;" width="11.145" height="2.654"/>
		<rect x="39.782" y="12.407" style="fill:#FFFFFF;" width="11.145" height="2.654"/>
		<polygon style="fill:#F8C409;" points="46.743,67.084 46.743,62.553 50.927,62.553 50.927,59.899 46.743,59.899 46.743,55.347 
			43.966,55.347 43.966,59.899 39.782,59.899 39.782,62.553 43.966,62.553 43.966,67.084 		"/>
		<polygon style="fill:#F8C409;" points="46.743,82.908 46.743,78.377 50.927,78.377 50.927,75.723 46.743,75.723 46.743,71.171 
			43.966,71.171 43.966,75.723 39.782,75.723 39.782,78.377 43.966,78.377 43.966,82.908 		"/>
	</g>
</g>
</svg>
