<svg xmlns="http://www.w3.org/2000/svg" viewBox="0 0 90.709 90.709"><circle cx="45.354" cy="45.355" r="43.52" fill="#194093"/><path d="M45.354 2.835c23.483 0 42.52 19.037 42.52 42.52s-19.037 42.52-42.52 42.52-42.52-19.037-42.52-42.52 19.037-42.52 42.52-42.52m0-2C20.806.835.834 20.806.834 45.355s19.971 44.52 44.52 44.52 44.52-19.971 44.52-44.52S69.903.835 45.354.835h0z" fill="#252e78"/><path d="M55.507 17.5H35.201c-2.585 0-4.688 2.104-4.688 4.688v3.529h4v-3.529a.69.69 0 0 1 .688-.688h20.306a.69.69 0 0 1 .689.688v3.529h4v-3.529c0-2.585-2.103-4.688-4.689-4.688z" fill="#fff"/><path d="M60.196 25.718h-4-21.683-4-14.409v18.484c.001 3.497 2.836 6.332 6.333 6.332H68.27c3.498 0 6.333-2.836 6.333-6.333V25.718H60.196zM22.438 53.534a9.29 9.29 0 0 1-6.333-2.497v12.569c0 3.498 2.836 6.333 6.333 6.333h45.833c3.498 0 6.333-2.836 6.333-6.333V51.037c-1.666 1.545-3.888 2.498-6.333 2.498H22.438zM54.542 16.07v6.859H36.167V16.07z" fill="#f8c409"/><path d="M42.167 48.522h6.375v11.125h-6.375z" fill="#fff"/></svg>