<?xml version="1.0" encoding="iso-8859-1"?>
<!-- Generator: Adobe Illustrator 22.1.0, SVG Export Plug-In . SVG Version: 6.00 Build 0)  -->
<svg version="1.1" xmlns="http://www.w3.org/2000/svg" xmlns:xlink="http://www.w3.org/1999/xlink" x="0px" y="0px"
	 viewBox="0 0 90.709 90.709" style="enable-background:new 0 0 90.709 90.709;" xml:space="preserve">
<g id="ratownik-1">
	<g>
		<g>
			<circle style="fill:#194093;" cx="45.354" cy="45.355" r="43.52"/>
			<g>
				<path style="fill:#252E78;" d="M45.354,2.835c23.483,0,42.52,19.037,42.52,42.52s-19.037,42.52-42.52,42.52
					s-42.52-19.037-42.52-42.52S21.871,2.835,45.354,2.835 M45.354,0.835c-24.548,0-44.52,19.971-44.52,44.52
					s19.971,44.52,44.52,44.52s44.52-19.971,44.52-44.52S69.903,0.835,45.354,0.835L45.354,0.835z"/>
			</g>
		</g>
	</g>
</g>
<g id="Warstwa_4">
	<g>
		<path style="fill:#FFFFFF;" d="M55.507,17.5H35.201c-2.585,0-4.688,2.104-4.688,4.688v3.529h4v-3.529
			c0-0.38,0.309-0.688,0.688-0.688h20.306c0.38,0,0.689,0.309,0.689,0.688v3.529h4v-3.529C60.196,19.603,58.093,17.5,55.507,17.5z"
			/>
		<path style="fill:#F8C409;" d="M60.196,25.718h-4H34.513h-4H16.104v18.484c0.001,3.497,2.836,6.332,6.333,6.332h45.833
			c3.498,0,6.333-2.836,6.333-6.333V25.718H60.196z"/>
		<path style="fill:#F8C409;" d="M22.438,53.534c-2.445,0-4.667-0.953-6.333-2.497v12.569c0,3.498,2.836,6.333,6.333,6.333h45.833
			c3.498,0,6.333-2.836,6.333-6.333V51.037c-1.666,1.545-3.888,2.498-6.333,2.498H22.438z"/>
		<g>
			
				<rect x="41.925" y="10.312" transform="matrix(-1.836970e-16 1 -1 -1.836970e-16 64.854 -25.8547)" style="fill:#F8C409;" width="6.859" height="18.375"/>
		</g>
		<g>
			<rect x="42.167" y="48.522" style="fill:#FFFFFF;" width="6.375" height="11.125"/>
		</g>
	</g>
</g>
</svg>
