<svg xmlns="http://www.w3.org/2000/svg" viewBox="0 0 90.709 90.709"><path d="M45.354 88.874c-23.997 0-43.52-19.522-43.52-43.52s19.523-43.52 43.52-43.52 43.52 19.523 43.52 43.521-19.522 43.519-43.52 43.519z" fill="#194093"/><path d="M45.354 2.835c23.483 0 42.52 19.037 42.52 42.52s-19.037 42.52-42.52 42.52-42.52-19.037-42.52-42.52 19.037-42.52 42.52-42.52m0-2C20.806.835.834 20.806.834 45.355s19.971 44.52 44.52 44.52 44.52-19.971 44.52-44.52S69.903.835 45.354.835h0z" fill="#252e78"/><path d="M35.984 58.061h-8.213V69.34c0 2.752 2.179 4.991 4.857 4.991h.144c2.105 0 3.913-1.336 4.605-3.404l.017-.053 3.662-12.375c-1.478-.243-5.072-.438-5.072-.438z" fill="#f8c409"/><path d="M55.331 61.399c-2.236-7.225-2.339-17.065-2.339-18.755s.102-11.491 2.326-18.711c-2.257 1.559-4.381 2.78-6.461 3.701-3.815 1.691-8.038 2.589-12.871 2.678l-.002 24.738c4.836.089 9.065.949 12.873 2.637 2.083.923 4.211 2.147 6.474 3.712zm6.958-42.368c-2.535 0-4.726 5.669-5.723 13.797 1.74.586 3.314 1.626 4.536 3.038 1.627 1.879 2.523 4.276 2.523 6.75 0 4.459-2.91 8.4-7.066 9.793.994 8.154 3.189 13.846 5.729 13.846 3.468 0 6.297-10.607 6.297-23.612s-2.828-23.612-6.296-23.612z" fill="#fff"/><path d="M63.626 42.616c0-2.474-.896-4.871-2.523-6.75-1.223-1.412-2.796-2.452-4.536-3.038-.029-.01-.496 5.088-.549 7.803l.001 4.057c.053 2.685.515 7.73.542 7.721 4.155-1.393 7.065-5.334 7.065-9.793zM35.984 30.311h-8.453c-4.556 0-8.25 3.694-8.25 8.25v8.25c0 4.556 3.694 8.25 8.25 8.25h8.453v-24.75z" fill="#f8c409"/></svg>