<?xml version="1.0" encoding="iso-8859-1"?>
<!-- Generator: Adobe Illustrator 22.1.0, SVG Export Plug-In . SVG Version: 6.00 Build 0)  -->
<svg version="1.1" xmlns="http://www.w3.org/2000/svg" xmlns:xlink="http://www.w3.org/1999/xlink" x="0px" y="0px"
	 viewBox="0 0 90.709 90.709" style="enable-background:new 0 0 90.709 90.709;" xml:space="preserve">
<g id="ratownik-1">
	<g>
		<g>
			<path style="fill:#194093;" d="M45.354,88.874c-23.997,0-43.52-19.522-43.52-43.52S21.357,1.834,45.354,1.834
				s43.52,19.523,43.52,43.521S69.352,88.874,45.354,88.874z"/>
			<g>
				<path style="fill:#252E78;" d="M45.354,2.835c23.483,0,42.52,19.037,42.52,42.52s-19.037,42.52-42.52,42.52
					s-42.52-19.037-42.52-42.52S21.871,2.835,45.354,2.835 M45.354,0.835c-24.548,0-44.52,19.971-44.52,44.52
					s19.971,44.52,44.52,44.52s44.52-19.971,44.52-44.52S69.903,0.835,45.354,0.835L45.354,0.835z"/>
			</g>
		</g>
	</g>
</g>
<g id="Warstwa_4">
	<g>
		<path style="fill:#F8C409;" d="M35.984,58.061h-8.213V69.34c0,2.752,2.179,4.991,4.857,4.991h0.144
			c2.105,0,3.913-1.336,4.605-3.404c0.006-0.018,0.012-0.035,0.017-0.053l3.662-12.375C39.578,58.256,35.984,58.061,35.984,58.061z"
			/>
		<path style="fill:#FFFFFF;" d="M55.331,61.399c-2.236-7.225-2.339-17.065-2.339-18.755c0-1.687,0.102-11.491,2.326-18.711
			c-2.257,1.559-4.381,2.78-6.461,3.701c-3.815,1.691-8.038,2.589-12.871,2.678L35.984,55.05c4.836,0.089,9.065,0.949,12.873,2.637
			C50.94,58.61,53.068,59.834,55.331,61.399z"/>
		<path style="fill:#FFFFFF;" d="M62.289,19.031c-2.535,0-4.726,5.669-5.723,13.797c1.74,0.586,3.314,1.626,4.536,3.038
			c1.627,1.879,2.523,4.276,2.523,6.75c0,4.459-2.91,8.4-7.066,9.793c0.994,8.154,3.189,13.846,5.729,13.846
			c3.468,0,6.297-10.607,6.297-23.612C68.586,29.638,65.757,19.031,62.289,19.031z"/>
		<path style="fill:#F8C409;" d="M63.626,42.616c0-2.474-0.896-4.871-2.523-6.75c-1.223-1.412-2.796-2.452-4.536-3.038
			c-0.029-0.01-0.496,5.088-0.549,7.803c-0.013,0.657-0.013,3.376,0.001,4.057c0.053,2.685,0.515,7.73,0.542,7.721
			C60.716,51.016,63.626,47.075,63.626,42.616z"/>
		<path style="fill:#F8C409;" d="M35.984,30.311h-8.453c-4.556,0-8.25,3.694-8.25,8.25v8.25c0,4.556,3.694,8.25,8.25,8.25h8.453
			V30.311z"/>
	</g>
</g>
</svg>
