<svg xmlns="http://www.w3.org/2000/svg" viewBox="0 0 90.709 90.709"><path d="M45.354 88.874c-23.997 0-43.52-19.522-43.52-43.52s19.522-43.52 43.52-43.52 43.521 19.522 43.521 43.52-19.524 43.52-43.521 43.52z" fill="#194093"/><path d="M45.354 2.835c23.483 0 42.52 19.037 42.52 42.52s-19.037 42.52-42.52 42.52-42.52-19.037-42.52-42.52 19.037-42.52 42.52-42.52m0-2C20.806.835.834 20.806.834 45.355s19.971 44.52 44.52 44.52 44.52-19.971 44.52-44.52S69.903.835 45.354.835h0z" fill="#252e78"/><path d="M36.896 67.982l3.968-4.976c.546-.672.945-.987.945-.987v-.042s-.273.042-.945.042h-3.8v-3.044h9.658v1.826l-3.947 4.977c-.525.65-.966.986-.966.986v.042s.273-.063.966-.063h4.052v3.045h-9.931v-1.806zm12.159-5.774l1.05-.608v-6.823h3.632v4.744l1.449-.84v3.486l-1.449.84v2.309c0 1.029.189 1.387 1.008 1.387l.441-.021v3.149s-.504.063-1.092.063c-1.932 0-3.989-.463-3.989-4.095v-.714l-1.05.609v-3.486zm-13.66-17.842h6.82v-13.37l.045-2.468h-.089s-.404.898-1.257 1.706l-1.929 1.75-4.532-4.846 8.66-8.121h6.775v25.35h6.865v6.73H35.395v-6.731z" fill="#fff"/><path d="M45.354 79.985a35.34 35.34 0 0 1-3.225-.148c-.815-.075-1.416-.797-1.341-1.612a1.48 1.48 0 0 1 1.613-1.341l2.952.135.482-.004c.806.018 1.495.639 1.509 1.458s-.638 1.494-1.457 1.509l-.533.003zm9.035-1.247c-.646 0-1.241-.426-1.426-1.079-.223-.788.235-1.608 1.023-1.831a31.91 31.91 0 0 0 3.253-1.116c.756-.306 1.624.059 1.932.818s-.059 1.624-.818 1.932c-1.159.469-2.356.88-3.559 1.22-.135.039-.271.056-.405.056zm-20.528-.799c-.171 0-.345-.029-.515-.093-1.172-.434-2.333-.938-3.451-1.495-.732-.366-1.03-1.257-.664-1.99s1.258-1.031 1.99-.664a31.59 31.59 0 0 0 3.155 1.368c.769.284 1.16 1.138.876 1.906-.222.598-.789.968-1.391.968zm31.435-4.621a1.48 1.48 0 0 1-1.185-.59c-.494-.654-.363-1.585.291-2.078.914-.688 1.798-1.435 2.63-2.217.597-.56 1.536-.531 2.097.065s.532 1.535-.064 2.097c-.909.854-1.877 1.67-2.876 2.424a1.48 1.48 0 0 1-.893.299zm-41.882-1.631a1.48 1.48 0 0 1-.982-.372 35.32 35.32 0 0 1-2.679-2.639c-.552-.605-.508-1.544.098-2.096s1.544-.507 2.096.098c.766.841 1.59 1.653 2.451 2.414.613.543.671 1.48.128 2.094a1.48 1.48 0 0 1-1.112.501zm50.098-7.353a1.47 1.47 0 0 1-.783-.225c-.695-.433-.908-1.348-.475-2.043a31.69 31.69 0 0 0 1.656-3.013 1.48 1.48 0 0 1 1.979-.694c.738.354 1.049 1.241.694 1.979-.541 1.126-1.15 2.234-1.811 3.296a1.48 1.48 0 0 1-1.26.7zm-57.593-2.243a1.48 1.48 0 0 1-1.318-.8 34.75 34.75 0 0 1-1.549-3.429c-.296-.764.083-1.623.847-1.919a1.48 1.48 0 0 1 1.919.847c.412 1.063.889 2.117 1.416 3.134.377.728.094 1.623-.633 2-.219.113-.452.167-.682.167zm62.014-9.1a1.52 1.52 0 0 1-.275-.025c-.805-.151-1.335-.927-1.185-1.731a32 32 0 0 0 .45-3.408c.063-.815.769-1.423 1.593-1.364.817.063 1.428.776 1.365 1.593-.096 1.246-.262 2.5-.492 3.727-.133.711-.756 1.208-1.456 1.208zm-65.536-2.558c-.748 0-1.391-.564-1.473-1.325-.133-1.239-.201-2.502-.201-3.753v-.135c0-.819.664-1.483 1.483-1.483s1.483.664 1.483 1.483v.151c0 1.129.062 2.285.184 3.42.088.814-.501 1.545-1.316 1.633a1.43 1.43 0 0 1-.16.009zm65.557-9.617c-.703 0-1.326-.501-1.458-1.216a31.51 31.51 0 0 0-.804-3.342c-.235-.784.21-1.611.995-1.847s1.611.211 1.847.995a34.35 34.35 0 0 1 .88 3.658c.148.806-.386 1.579-1.191 1.727a1.37 1.37 0 0 1-.269.025zm-64.599-2.655c-.128 0-.259-.017-.388-.052-.791-.214-1.258-1.028-1.044-1.819a34.53 34.53 0 0 1 1.179-3.571 1.48 1.48 0 0 1 1.922-.84c.763.299 1.139 1.159.84 1.922-.417 1.064-.779 2.162-1.078 3.265-.179.661-.777 1.095-1.431 1.095zm60.228-8.709c-.498 0-.983-.25-1.264-.704a31.4 31.4 0 0 0-1.962-2.823c-.503-.646-.388-1.578.258-2.082s1.578-.388 2.082.258a34.76 34.76 0 0 1 2.147 3.089c.43.697.214 1.611-.483 2.041-.243.15-.512.221-.778.221zm-54.936-2.251c-.306 0-.614-.094-.878-.289a1.48 1.48 0 0 1-.315-2.073c.739-1.005 1.543-1.981 2.39-2.903.554-.603 1.492-.645 2.096-.09s.643 1.492.089 2.096a32.37 32.37 0 0 0-2.187 2.655 1.48 1.48 0 0 1-1.195.604zm46.75-6.765c-.313 0-.629-.099-.897-.303a32.02 32.02 0 0 0-2.845-1.93c-.702-.423-.929-1.334-.507-2.036s1.333-.928 2.035-.507a34.94 34.94 0 0 1 3.113 2.111c.652.496.778 1.427.283 2.079-.292.383-.735.586-1.182.586zM27.54 18.88a1.48 1.48 0 0 1-1.252-.687c-.44-.69-.237-1.607.454-2.048a35.19 35.19 0 0 1 3.275-1.848c.734-.361 1.625-.063 1.987.671s.063 1.624-.672 1.987a32.13 32.13 0 0 0-2.996 1.691c-.247.159-.524.234-.796.234zm26.978-3.906a1.5 1.5 0 0 1-.41-.058c-1.097-.315-2.224-.573-3.35-.766a1.48 1.48 0 0 1-1.211-1.712c.139-.808.907-1.353 1.712-1.212a34.39 34.39 0 0 1 3.668.838c.787.227 1.242 1.048 1.016 1.835-.186.652-.78 1.075-1.425 1.075zm-15.685-.643c-.693 0-1.313-.488-1.453-1.193-.16-.804.361-1.585 1.165-1.745 1.228-.244 2.48-.424 3.723-.533.822-.077 1.536.531 1.608 1.348s-.531 1.535-1.347 1.607c-1.136.101-2.281.265-3.403.488-.099.019-.197.028-.293.028z" fill="#f8c409"/></svg>