<?xml version="1.0" encoding="iso-8859-1"?>
<!-- Generator: Adobe Illustrator 22.1.0, SVG Export Plug-In . SVG Version: 6.00 Build 0)  -->
<svg version="1.1" xmlns="http://www.w3.org/2000/svg" xmlns:xlink="http://www.w3.org/1999/xlink" x="0px" y="0px"
	 viewBox="0 0 90.709 90.709" style="enable-background:new 0 0 90.709 90.709;" xml:space="preserve">
<g id="ratownik-1">
	<g>
		<g>
			<path style="fill:#194093;" d="M45.354,88.874c-23.997,0-43.52-19.522-43.52-43.52s19.522-43.52,43.52-43.52
				s43.521,19.522,43.521,43.52S69.351,88.874,45.354,88.874z"/>
			<g>
				<path style="fill:#252E78;" d="M45.354,2.835c23.483,0,42.52,19.037,42.52,42.52s-19.037,42.52-42.52,42.52
					c-23.483,0-42.52-19.037-42.52-42.52S21.871,2.835,45.354,2.835 M45.354,0.835c-24.548,0-44.52,19.971-44.52,44.52
					s19.971,44.52,44.52,44.52s44.52-19.971,44.52-44.52S69.903,0.835,45.354,0.835L45.354,0.835z"/>
			</g>
		</g>
	</g>
</g>
<g id="Warstwa_4">
	<g>
		<g>
			<g>
				<path style="fill:#FFFFFF;" d="M36.896,67.982l3.968-4.976c0.546-0.672,0.945-0.987,0.945-0.987v-0.042
					c0,0-0.273,0.042-0.945,0.042h-3.8v-3.044h9.658v1.826l-3.947,4.977c-0.525,0.65-0.966,0.986-0.966,0.986v0.042
					c0,0,0.273-0.063,0.966-0.063h4.052v3.045h-9.931V67.982z"/>
			</g>
			<g>
				<path style="fill:#FFFFFF;" d="M49.055,62.208l1.05-0.608v-6.823h3.632v4.744l1.449-0.84v3.486l-1.449,0.84v2.309
					c0,1.029,0.189,1.387,1.008,1.387c0.231,0,0.441-0.021,0.441-0.021v3.149c0,0-0.504,0.063-1.092,0.063
					c-1.932,0-3.989-0.463-3.989-4.095v-0.714l-1.05,0.609V62.208z"/>
			</g>
		</g>
		<g>
			<g>
				<path style="fill:#FFFFFF;" d="M35.395,44.366h6.82v-13.37c0-1.211,0.045-2.468,0.045-2.468h-0.089c0,0-0.404,0.898-1.257,1.706
					l-1.929,1.75l-4.532-4.846l8.66-8.121h6.775v25.35h6.865v6.73H35.395V44.366z"/>
			</g>
		</g>
		<g>
			<path style="fill:#F8C409;" d="M45.354,79.985c-1.075,0-2.16-0.05-3.225-0.148c-0.815-0.075-1.416-0.797-1.341-1.612
				c0.075-0.816,0.799-1.424,1.613-1.341c0.974,0.089,1.967,0.135,2.952,0.135l0.482-0.004c0.806,0.018,1.495,0.639,1.509,1.458
				c0.014,0.818-0.638,1.494-1.457,1.509L45.354,79.985z M54.389,78.738c-0.646,0-1.241-0.426-1.426-1.079
				c-0.223-0.788,0.235-1.608,1.023-1.831c1.099-0.312,2.194-0.687,3.253-1.116c0.756-0.306,1.624,0.059,1.932,0.818
				c0.307,0.759-0.059,1.624-0.818,1.932c-1.159,0.469-2.356,0.88-3.559,1.22C54.659,78.721,54.523,78.738,54.389,78.738z
				 M33.861,77.939c-0.171,0-0.345-0.029-0.515-0.093c-1.172-0.434-2.333-0.938-3.451-1.495c-0.732-0.366-1.03-1.257-0.664-1.99
				c0.366-0.732,1.258-1.031,1.99-0.664c1.021,0.511,2.083,0.971,3.155,1.368c0.769,0.284,1.16,1.138,0.876,1.906
				C35.03,77.569,34.463,77.939,33.861,77.939z M65.296,73.318c-0.449,0-0.894-0.204-1.185-0.59
				c-0.494-0.654-0.363-1.585,0.291-2.078c0.914-0.688,1.798-1.435,2.63-2.217c0.597-0.56,1.536-0.531,2.097,0.065
				s0.532,1.535-0.064,2.097c-0.909,0.854-1.877,1.67-2.876,2.424C65.921,73.221,65.607,73.318,65.296,73.318z M23.414,71.687
				c-0.349,0-0.7-0.123-0.982-0.372c-0.94-0.832-1.841-1.72-2.679-2.639c-0.552-0.605-0.508-1.544,0.098-2.096
				c0.607-0.551,1.544-0.507,2.096,0.098c0.766,0.841,1.59,1.653,2.451,2.414c0.613,0.543,0.671,1.48,0.128,2.094
				C24.233,71.518,23.824,71.687,23.414,71.687z M73.512,64.334c-0.268,0-0.539-0.072-0.783-0.225
				c-0.695-0.433-0.908-1.348-0.475-2.043c0.604-0.97,1.161-1.983,1.656-3.013c0.354-0.738,1.24-1.051,1.979-0.694
				c0.738,0.354,1.049,1.241,0.694,1.979c-0.541,1.126-1.15,2.234-1.811,3.296C74.491,64.086,74.008,64.334,73.512,64.334z
				 M15.919,62.091c-0.537,0-1.054-0.291-1.318-0.8c-0.577-1.113-1.099-2.267-1.549-3.429c-0.296-0.764,0.083-1.623,0.847-1.919
				c0.765-0.298,1.623,0.083,1.919,0.847c0.412,1.063,0.889,2.117,1.416,3.134c0.377,0.728,0.094,1.623-0.633,2
				C16.382,62.037,16.149,62.091,15.919,62.091z M77.933,52.991c-0.09,0-0.183-0.008-0.275-0.025
				c-0.805-0.151-1.335-0.927-1.185-1.731c0.21-1.122,0.362-2.269,0.45-3.408c0.063-0.815,0.769-1.423,1.593-1.364
				c0.817,0.063,1.428,0.776,1.365,1.593c-0.096,1.246-0.262,2.5-0.492,3.727C79.256,52.494,78.633,52.991,77.933,52.991z
				 M12.397,50.433c-0.748,0-1.391-0.564-1.473-1.325c-0.133-1.239-0.201-2.502-0.201-3.753l0-0.135
				c0-0.819,0.664-1.483,1.483-1.483s1.483,0.664,1.483,1.483l0,0.151c0,1.129,0.062,2.285,0.184,3.42
				c0.088,0.814-0.501,1.545-1.316,1.633C12.504,50.43,12.45,50.433,12.397,50.433z M77.954,40.816
				c-0.703,0-1.326-0.501-1.458-1.216c-0.207-1.127-0.477-2.251-0.804-3.342c-0.235-0.784,0.21-1.611,0.995-1.847
				c0.784-0.237,1.611,0.211,1.847,0.995c0.358,1.194,0.654,2.425,0.88,3.658c0.148,0.806-0.386,1.579-1.191,1.727
				C78.133,40.809,78.043,40.816,77.954,40.816z M13.355,38.161c-0.128,0-0.259-0.017-0.388-0.052
				c-0.791-0.214-1.258-1.028-1.044-1.819c0.326-1.206,0.723-2.407,1.179-3.571c0.299-0.763,1.16-1.142,1.922-0.84
				c0.763,0.299,1.139,1.159,0.84,1.922c-0.417,1.064-0.779,2.162-1.078,3.265C14.607,37.727,14.009,38.161,13.355,38.161z
				 M73.583,29.452c-0.498,0-0.983-0.25-1.264-0.704c-0.602-0.976-1.262-1.926-1.962-2.823c-0.503-0.646-0.388-1.578,0.258-2.082
				c0.646-0.503,1.578-0.388,2.082,0.258c0.766,0.983,1.488,2.022,2.147,3.089c0.43,0.697,0.214,1.611-0.483,2.041
				C74.118,29.381,73.849,29.452,73.583,29.452z M18.647,27.201c-0.306,0-0.614-0.094-0.878-0.289
				c-0.66-0.485-0.801-1.414-0.315-2.073c0.739-1.005,1.543-1.981,2.39-2.903c0.554-0.603,1.492-0.645,2.096-0.09
				c0.603,0.555,0.643,1.492,0.089,2.096c-0.774,0.844-1.51,1.737-2.187,2.655C19.552,26.992,19.102,27.201,18.647,27.201z
				 M65.397,20.436c-0.313,0-0.629-0.099-0.897-0.303c-0.911-0.692-1.868-1.342-2.845-1.93c-0.702-0.423-0.929-1.334-0.507-2.036
				c0.422-0.703,1.333-0.928,2.035-0.507c1.07,0.644,2.117,1.354,3.113,2.111c0.652,0.496,0.778,1.427,0.283,2.079
				C66.287,20.233,65.844,20.436,65.397,20.436z M27.54,18.88c-0.49,0-0.969-0.242-1.252-0.687c-0.44-0.69-0.237-1.607,0.454-2.048
				c1.06-0.675,2.162-1.297,3.275-1.848c0.734-0.361,1.625-0.063,1.987,0.671c0.363,0.734,0.063,1.624-0.672,1.987
				c-1.018,0.504-2.026,1.073-2.996,1.691C28.089,18.805,27.812,18.88,27.54,18.88z M54.518,14.974c-0.135,0-0.273-0.019-0.41-0.058
				c-1.097-0.315-2.224-0.573-3.35-0.766c-0.807-0.138-1.35-0.904-1.211-1.712s0.907-1.353,1.712-1.212
				c1.232,0.211,2.466,0.493,3.668,0.838c0.787,0.227,1.242,1.048,1.016,1.835C55.757,14.551,55.163,14.974,54.518,14.974z
				 M38.833,14.331c-0.693,0-1.313-0.488-1.453-1.193c-0.16-0.804,0.361-1.585,1.165-1.745c1.228-0.244,2.48-0.424,3.723-0.533
				c0.822-0.077,1.536,0.531,1.608,1.348c0.072,0.815-0.531,1.535-1.347,1.607c-1.136,0.101-2.281,0.265-3.403,0.488
				C39.027,14.322,38.929,14.331,38.833,14.331z"/>
		</g>
	</g>
</g>
</svg>
