<svg xmlns="http://www.w3.org/2000/svg" viewBox="0 0 90.709 90.709"><path d="M45.354 88.874c-23.997 0-43.52-19.522-43.52-43.52s19.523-43.52 43.52-43.52 43.52 19.523 43.52 43.521-19.523 43.519-43.52 43.519z" fill="#194093"/><path d="M45.354 2.835c23.483 0 42.52 19.037 42.52 42.52s-19.037 42.52-42.52 42.52-42.52-19.037-42.52-42.52 19.037-42.52 42.52-42.52m0-2C20.806.835.834 20.806.834 45.355s19.971 44.52 44.52 44.52 44.52-19.971 44.52-44.52S69.903.835 45.354.835h0z" fill="#252e78"/><path d="M26.545 46.355h7.619l.075.712L45.741 43.6a7.32 7.32 0 0 1 1.863-.416v-5.229h8.304l-.567 5.399h-5.957c2.413.592 2.631 2.917 2.646 3h2.996l-.618 5.885h-3.94c-.954 1.268-5.279 3.328-5.864 3.557v2.91h3V55.24h6.489l-.364 3.467h1.119l1.983-.808.279-2.659h4.006l2.403-3h-6.093l.618-5.885h7.62l-.871 4.323 2.113-2.461c.583-.606 1.161-1.036 1.714-1.346l1.84-9.133c1.785-.555 3.089-2.2 3.09-4.167 0-2.421-1.963-4.384-4.384-4.384H23.043c-2.421 0-4.384 1.963-4.384 4.384 0 1.968 1.305 3.613 3.09 4.168l3.2 15.883 2.679-1.891-1.083-5.376zm32.381-8.399h8.431l-1.088 5.399h-7.91l.567-5.399zm-14.322 0v5.399h-7.737l-.567-5.399h8.304zm-19.751 0h8.43l.567 5.399h-7.909l-1.088-5.399z" fill="#f8c409"/><path d="M28.041 33.571a3.04 3.04 0 0 0 3.039 3.039 3.04 3.04 0 0 0 3.039-3.039c0-.548-.156-1.054-.41-1.498l8.998-18.245c.429-.869.072-1.92-.797-2.349s-1.92-.072-2.349.797l-9.03 18.31c-1.415.26-2.49 1.494-2.49 2.985zm30.048 0a3.04 3.04 0 0 0 3.039 3.039 3.04 3.04 0 0 0 3.039-3.039c0-1.491-1.075-2.725-2.491-2.984l-9.03-18.31c-.428-.869-1.48-1.226-2.349-.797s-1.226 1.48-.797 2.349l8.998 18.244c-.253.444-.409.951-.409 1.498zM51.19 74.357l14.027-7.586 5.723-9.564s1.641-4.355 2.018-6.301c.129-.668-.581-1.751-1.734-1.751-.613 0-1.351.306-2.156 1.142-1.428 1.485-7.152 8.768-7.152 8.768l-6.481 2.642H43.067l-5.33-4.091 2.343-3.214s3.777-1.593 4.995-1.973c4.087-1.273 4.17-4.892 3.995-5.61-.126-.515-.561-.665-1.024-.665-.642 0-1.337.288-1.337.288l-10.953 3.225-12.409 8.756-2.216.145-.523 13.809 30.582 1.98z" fill="#fff"/><path d="M21.319 53.61l-13.472-.64c1.725 8.54 6.297 16.043 12.678 21.492h.005l.789-20.852z" fill="#f8c409"/></svg>