<?xml version="1.0" encoding="utf-8"?>
<!-- Generator: Adobe Illustrator 24.2.0, SVG Export Plug-In . SVG Version: 6.00 Build 0)  -->
<svg version="1.1" xmlns="http://www.w3.org/2000/svg" x="0px" y="0px"
	 viewBox="0 0 87.87 87.87" style="enable-background:new 0 0 87.87 87.87;" xml:space="preserve">
<g id="Warstwa_3">
	<g>
		<g>
			<g>
				<g>
					<g>
						<g>
							<path d="M4.74,60.23c1.42,3.42,3.29,6.64,5.55,9.59l7.15-5.5c-1.78-2.32-3.26-4.86-4.38-7.55L4.74,60.23z"/>
						</g>
						<g>
							<path d="M18.13,77.65c2.94,2.26,6.17,4.13,9.59,5.55l3.46-8.33c-2.69-1.12-5.23-2.59-7.55-4.37L18.13,77.65z"/>
						</g>
						<g>
							<path d="M44.01,1.4C20.57,1.4,1.5,20.48,1.5,43.92c0,1.87,0.12,3.75,0.36,5.58l8.94-1.18c-0.19-1.45-0.29-2.93-0.29-4.41
								c0-18.47,15.03-33.5,33.5-33.5c18.48,0,33.51,15.03,33.51,33.5c0,18.47-15.03,33.5-33.51,33.5c-1.47,0-2.96-0.1-4.41-0.29
								l-1.17,8.94c1.84,0.24,3.72,0.36,5.58,0.36c23.45,0,42.52-19.07,42.52-42.51C86.54,20.48,67.46,1.4,44.01,1.4z"/>
						</g>
					</g>
				</g>
			</g>
		</g>
	</g>
</g>
<g id="Warstwa_2">
	<g>
		<path d="M56.7,31.23V21.16H31.33v10.07H21.26V56.6h10.07v10.07H56.7V56.6h10.07V31.23H56.7z M63.78,53.6H53.7v10.07H34.33V53.6
			H24.26V34.23h10.07V24.16H53.7v10.07h10.07V53.6z"/>
		<path d="M44.33,39.65c2.89,0,5.24-2.35,5.24-5.24s-2.35-5.24-5.24-5.24s-5.24,2.35-5.24,5.24S41.44,39.65,44.33,39.65z
			 M44.33,31.16c1.79,0,3.24,1.46,3.24,3.24s-1.46,3.24-3.24,3.24s-3.24-1.46-3.24-3.24S42.55,31.16,44.33,31.16z"/>
		<path d="M37.23,43.73c0,3.39,2.38,6.22,5.55,6.93v2.93c-0.09,1.3-0.46,3.09-4.12,3.09v1.05h11.35v-1.05
			c-3.67,0-4.04-1.79-4.12-3.09v-2.93c3.18-0.71,5.55-3.53,5.55-6.93v-1.88H37.23V43.73z"/>
	</g>
</g>
</svg>
