<?xml version="1.0" encoding="utf-8"?>
<!-- Generator: Adobe Illustrator 24.2.0, SVG Export Plug-In . SVG Version: 6.00 Build 0)  -->
<svg version="1.1" xmlns="http://www.w3.org/2000/svg" x="0px" y="0px"
	 viewBox="0 0 87.87 87.87" style="enable-background:new 0 0 87.87 87.87;" xml:space="preserve">
<g id="Warstwa_3">
</g>
<g id="Warstwa_2">
	<g>
		<g>
			<g>
				<g>
					<g>
						<path d="M44.02,1.39C20.57,1.39,1.5,20.47,1.5,43.91c0,23.44,19.07,42.52,42.52,42.52c23.45,0,42.52-19.07,42.52-42.52
							C86.54,20.47,67.46,1.39,44.02,1.39z M44.02,77.41c-18.47,0-33.5-15.03-33.5-33.5c0-18.47,15.03-33.5,33.5-33.5
							c18.47,0,33.5,15.03,33.5,33.5C77.52,62.38,62.49,77.41,44.02,77.41z"/>
					</g>
				</g>
			</g>
		</g>
		<g>
			<g>
				<path d="M56.7,66.67H31.33V56.6H21.26V31.23h10.07V21.15H56.7v10.07h10.07V56.6H56.7V66.67z M34.33,63.67H53.7V53.6h10.07V34.23
					H53.7V24.15H34.33v10.07H24.26V53.6h10.07V63.67z"/>
			</g>
			<g>
				<g>
					<path d="M32.71,38.43c0-0.1,0.07-0.17,0.17-0.17h2.15c0.1,0,0.17,0.07,0.17,0.17v11.19c0,0.1-0.07,0.17-0.17,0.17h-2.15
						c-0.1,0-0.17-0.07-0.17-0.17V38.43z"/>
				</g>
				<g>
					<path d="M37.41,38.43c0-0.1,0.07-0.17,0.17-0.17h2.15c0.1,0,0.17,0.07,0.17,0.17v4.32c0,0.07,0.03,0.1,0.1,0.1h3.76
						c0.07,0,0.1-0.03,0.1-0.1v-4.32c0-0.1,0.07-0.17,0.17-0.17h2.15c0.1,0,0.17,0.07,0.17,0.17v11.19c0,0.1-0.07,0.17-0.17,0.17
						h-2.15c-0.1,0-0.17-0.07-0.17-0.17v-4.44c0-0.07-0.03-0.1-0.1-0.1h-3.76c-0.07,0-0.1,0.03-0.1,0.1v4.44
						c0,0.1-0.07,0.17-0.17,0.17h-2.15c-0.1,0-0.17-0.07-0.17-0.17V38.43z"/>
				</g>
				<g>
					<path d="M48.01,48.4c-0.07-0.07-0.1-0.19-0.02-0.29l1.29-1.47c0.07-0.09,0.17-0.09,0.25-0.02c0.76,0.61,1.8,1.19,3.02,1.19
						c1.2,0,1.88-0.56,1.88-1.37c0-0.68-0.41-1.1-1.78-1.29l-0.61-0.09c-2.34-0.32-3.65-1.42-3.65-3.46c0-2.12,1.59-3.53,4.09-3.53
						c1.53,0,2.95,0.46,3.92,1.2c0.1,0.07,0.12,0.14,0.03,0.25l-1.03,1.54c-0.07,0.08-0.15,0.1-0.24,0.05
						c-0.88-0.58-1.73-0.88-2.68-0.88c-1.02,0-1.54,0.53-1.54,1.26c0,0.66,0.48,1.09,1.8,1.27l0.61,0.09
						c2.37,0.32,3.63,1.41,3.63,3.49s-1.54,3.63-4.53,3.63C50.65,49.98,48.91,49.26,48.01,48.4"/>
				</g>
			</g>
		</g>
	</g>
</g>
</svg>
