<?xml version="1.0" encoding="UTF-8" standalone="no"?><!-- Generator: Gravit.io --><svg xmlns="http://www.w3.org/2000/svg" style="isolation:isolate" viewBox="0 0 122.2 121.8" width="122.2pt" height="121.8pt"><defs><clipPath id="_clipPath_YPusLwhfc7PSY2VnQ6oJBwsCJ7wY2vQv"><rect width="122.2" height="121.8"/></clipPath></defs><g clip-path="url(#_clipPath_YPusLwhfc7PSY2VnQ6oJBwsCJ7wY2vQv)"><g><path d=" M 122.199 60.907 C 122.199 94.545 94.931 121.813 61.292 121.813 C 27.655 121.813 0.385 94.545 0.385 60.907 C 0.385 27.269 27.655 0 61.292 0 C 94.931 0 122.199 27.269 122.199 60.907 Z " fill="rgb(247,200,23)"/><path d=" M 12.948 61.148 C 12.091 27.507 27.245 10.14 53.223 0.481 C 23.212 4.259 0 29.872 0 60.907 C 0 94.545 27.269 121.813 60.907 121.813 C 66.527 121.813 71.967 121.049 77.133 119.624 C 74.617 119.941 72.049 120.237 69.451 120.105 C 41.593 118.688 13.805 94.775 12.948 61.148 Z " fill="rgb(247,165,17)"/><path d=" M 37.691 90.731 C 37.691 77.803 48.172 67.323 61.1 67.323 C 74.028 67.323 84.508 77.803 84.508 90.731 C 84.508 103.658 74.028 92.268 61.1 92.268 C 48.172 92.268 37.691 103.658 37.691 90.731 Z " fill="rgb(125,39,26)"/><path d=" M 42.117 54.231 C 42.117 59.953 37.993 64.592 32.907 64.592 C 27.82 64.592 23.696 59.953 23.696 54.231 C 23.696 48.509 27.82 43.871 32.907 43.871 C 37.993 43.871 42.117 48.509 42.117 54.231 Z " fill="rgb(125,39,26)"/><path d=" M 97.848 54.231 C 97.848 59.953 93.724 64.592 88.637 64.592 C 83.551 64.592 79.428 59.953 79.428 54.231 C 79.428 48.509 83.551 43.871 88.637 43.871 C 93.724 43.871 97.848 48.509 97.848 54.231 Z " fill="rgb(125,39,26)"/></g></g></svg>