<?xml version="1.0" encoding="UTF-8" standalone="no"?><!-- Generator: Gravit.io --><svg xmlns="http://www.w3.org/2000/svg" xmlns:xlink="http://www.w3.org/1999/xlink" style="isolation:isolate" viewBox="0 0 122.2 121.8" width="122.2pt" height="121.8pt"><defs><clipPath id="_clipPath_j8txOtKfUMFeaJpyBcBjsFEAfl4Ixfyo"><rect width="122.2" height="121.8"/></clipPath></defs><g clip-path="url(#_clipPath_j8txOtKfUMFeaJpyBcBjsFEAfl4Ixfyo)"><g><path d=" M 122.199 60.907 C 122.199 94.545 94.929 121.813 61.292 121.813 C 27.655 121.813 0.385 94.545 0.385 60.907 C 0.385 27.269 27.655 0 61.292 0 C 94.929 0 122.199 27.269 122.199 60.907 Z " fill="rgb(247,200,23)"/><path d=" M 12.948 61.148 C 12.091 27.507 27.245 10.14 53.223 0.481 C 23.212 4.259 0 29.872 0 60.907 C 0 94.545 27.269 121.813 60.907 121.813 C 66.527 121.813 71.967 121.049 77.133 119.624 C 74.617 119.941 72.049 120.237 69.449 120.105 C 41.593 118.688 13.805 94.775 12.948 61.148 Z " fill="rgb(247,165,17)"/><path d=" M 41.157 69.449 C 41.157 69.449 49.612 78.396 61.06 77.816 C 67.893 77.469 74.193 73.925 76.817 72.003 C 87.733 64.009 81.247 91.062 56.46 86.956 C 34.812 83.369 35.235 68.143 41.157 69.449 Z " fill="rgb(125,39,26)"/><path d=" M 18.96 59.164 C 18.96 59.164 24.74 53.048 32.567 53.444 C 37.237 53.681 41.544 56.104 43.339 57.419 C 50.803 62.883 47.616 41.827 30.671 44.633 C 15.871 47.085 14.911 60.057 18.96 59.164 Z " fill="rgb(125,39,26)"/><path d=" M 100.661 59.164 C 100.661 59.164 94.881 53.048 87.055 53.444 C 82.384 53.681 78.077 56.104 76.283 57.419 C 68.82 62.883 72.005 41.827 88.951 44.633 C 103.751 47.085 104.711 60.057 100.661 59.164 Z " fill="rgb(125,39,26)"/><path d=" M 18.171 35.235 C 18.171 35.235 20.219 34.689 23.185 34.1 C 27.195 33.305 32.883 32.431 37.468 32.717 C 45.445 33.217 39.733 24.889 25.973 27.931 C 12.212 30.971 14.616 36.067 18.171 35.235 Z " fill="rgb(125,39,26)"/><path d=" M 98.624 33.868 C 98.624 33.868 96.577 33.323 93.611 32.735 C 89.601 31.94 83.912 31.065 79.328 31.352 C 71.349 31.852 77.061 23.524 90.823 26.565 C 104.583 29.605 102.179 34.701 98.624 33.868 Z " fill="rgb(125,39,26)"/></g></g></svg>