<?xml version="1.0" encoding="UTF-8" standalone="no"?><!-- Generator: Gravit.io --><svg xmlns="http://www.w3.org/2000/svg" xmlns:xlink="http://www.w3.org/1999/xlink" style="isolation:isolate" viewBox="0 0 122.2 121.8" width="122.2pt" height="121.8pt"><defs><clipPath id="_clipPath_yIxveozepZoN7SZQI9xkPP7E0ijJajHW"><rect width="122.2" height="121.8"/></clipPath></defs><g clip-path="url(#_clipPath_yIxveozepZoN7SZQI9xkPP7E0ijJajHW)"><g><path d=" M 122.199 60.907 C 122.199 94.544 94.929 121.813 61.292 121.813 C 27.655 121.813 0.385 94.544 0.385 60.907 C 0.385 27.268 27.655 0 61.292 0 C 94.929 0 122.199 27.268 122.199 60.907 Z " fill="rgb(247,200,23)"/><path d=" M 12.948 61.147 C 12.091 27.505 27.245 10.139 53.223 0.48 C 23.212 4.259 0 29.871 0 60.905 C 0 94.544 27.269 121.813 60.907 121.813 C 66.527 121.813 71.967 121.048 77.133 119.624 C 74.617 119.94 72.049 120.236 69.449 120.104 C 41.593 118.687 13.805 94.773 12.948 61.147 Z " fill="rgb(247,165,17)"/><path d=" M 84.508 73.495 C 84.508 86.423 74.028 96.904 61.1 96.904 C 48.171 96.904 37.691 86.423 37.691 73.495 C 37.691 60.567 48.171 71.957 61.1 71.957 C 74.028 71.957 84.508 60.567 84.508 73.495 Z " fill="rgb(125,39,26)"/><path d=" M 38.375 47.865 C 38.375 42.108 34.784 37.441 30.355 37.441 C 25.927 37.441 22.336 42.108 22.336 47.865 C 22.336 53.621 25.927 58.288 30.355 58.288 C 34.784 58.288 38.375 53.621 38.375 47.865 Z " fill="rgb(197,61,33)"/><path d=" M 100.547 47.865 C 100.547 42.108 96.956 37.441 92.527 37.441 C 88.099 37.441 84.508 42.108 84.508 47.865 C 84.508 53.621 88.099 58.288 92.527 58.288 C 96.956 58.288 100.547 53.621 100.547 47.865 Z " fill="rgb(197,61,33)"/><path d=" M 37.023 63.884 C 37.023 63.884 -1.623 52.525 11.249 32.633 C 18.337 21.68 28.969 34.423 28.969 34.423 C 28.969 34.423 28.501 16.524 43.789 22.968 C 59.076 29.412 37.023 63.884 37.023 63.884 Z " fill="rgb(238,40,57)"/><path d=" M 86.424 63.884 C 86.424 63.884 125.069 52.525 112.199 32.633 C 105.111 21.68 94.479 34.423 94.479 34.423 C 94.479 34.423 94.945 16.524 79.659 22.968 C 64.371 29.412 86.424 63.884 86.424 63.884 Z " fill="rgb(238,40,57)"/></g></g></svg>