<?xml version="1.0" encoding="UTF-8" standalone="no"?><!-- Generator: Gravit.io --><svg xmlns="http://www.w3.org/2000/svg" style="isolation:isolate" viewBox="0 0 122.2 121.8" width="122.2pt" height="121.8pt"><defs><clipPath id="_clipPath_ZVu16aEICnI93Syu4nvoBBUx6wubWdQg"><rect width="122.2" height="121.8"/></clipPath></defs><g clip-path="url(#_clipPath_ZVu16aEICnI93Syu4nvoBBUx6wubWdQg)"><path d=" M 122.199 60.907 C 122.199 94.544 94.929 121.813 61.292 121.813 C 27.653 121.813 0.385 94.544 0.385 60.907 C 0.385 27.268 27.653 0 61.292 0 C 94.929 0 122.199 27.268 122.199 60.907 Z " fill="rgb(247,200,23)"/><path d=" M 12.948 61.147 C 12.091 27.505 27.245 10.139 53.223 0.48 C 23.212 4.259 0 29.871 0 60.905 C 0 94.544 27.268 121.813 60.907 121.813 C 66.527 121.813 71.967 121.048 77.133 119.624 C 74.617 119.94 72.049 120.236 69.449 120.104 C 41.593 118.687 13.804 94.773 12.948 61.147 Z " fill="rgb(247,165,17)"/><path d=" M 46.755 48.203 C 46.755 41.28 40.187 54.505 32.085 54.505 C 23.984 54.505 17.416 41.28 17.416 48.203 C 17.416 55.125 20.907 63.884 32.085 63.884 C 42.991 63.884 46.755 55.125 46.755 48.203 Z " fill="rgb(125,39,26)"/><path d=" M 20.621 36.497 C 20.621 36.497 22.713 36.163 25.663 35.493 C 29.648 34.588 35.2 33.072 39.272 30.944 C 46.356 27.241 44.527 37.172 30.72 39.995 C 16.912 42.817 17.035 37.184 20.621 36.497 Z " fill="rgb(125,39,26)"/><path d=" M 73.759 48.203 C 73.759 41.28 80.327 54.505 88.428 54.505 C 96.529 54.505 103.097 41.28 103.097 48.203 C 103.097 55.125 99.607 63.884 88.428 63.884 C 77.523 63.884 73.759 55.125 73.759 48.203 Z " fill="rgb(125,39,26)"/><path d=" M 99.892 36.497 C 99.892 36.497 97.8 36.163 94.851 35.493 C 90.865 34.588 85.313 33.072 81.241 30.944 C 74.157 27.241 75.987 37.172 89.793 39.995 C 103.6 42.817 103.477 37.184 99.892 36.497 Z " fill="rgb(125,39,26)"/><path d=" M 69.092 85.767 L 51.421 85.767 C 48.855 85.767 46.755 83.667 46.755 81.1 L 46.755 81.1 C 46.755 78.533 48.855 76.433 51.421 76.433 L 69.092 76.433 C 71.659 76.433 73.759 78.533 73.759 81.1 L 73.759 81.1 C 73.759 83.667 71.659 85.767 69.092 85.767 Z " fill="rgb(125,39,26)"/></g></svg>