<?xml version="1.0" encoding="UTF-8" standalone="no"?><!-- Generator: Gravit.io --><svg xmlns="http://www.w3.org/2000/svg" xmlns:xlink="http://www.w3.org/1999/xlink" style="isolation:isolate" viewBox="0 0 122.2 121.8" width="122.2pt" height="121.8pt"><defs><clipPath id="_clipPath_Jy7XxGTbhFHcYOaWMskqeW56QNTio1tt"><rect width="122.2" height="121.8"/></clipPath></defs><g clip-path="url(#_clipPath_Jy7XxGTbhFHcYOaWMskqeW56QNTio1tt)"><path d=" M 122.2 60.907 C 122.2 94.544 94.931 121.813 61.293 121.813 C 27.655 121.813 0.386 94.544 0.386 60.907 C 0.386 27.268 27.655 0 61.293 0 C 94.931 0 122.2 27.268 122.2 60.907 Z " fill="rgb(247,200,23)"/><path d=" M 61.099 116.72 C 30.273 116.72 5.284 91.731 5.284 60.906 C 5.284 30.079 30.273 5.09 61.099 5.09 C 91.926 5.09 116.915 30.079 116.915 60.906 C 116.915 91.731 91.926 116.72 61.099 116.72 Z " fill="none"/><path d=" M 12.948 61.147 C 12.091 27.505 27.245 10.139 53.223 0.48 C 23.213 4.259 0 29.871 0 60.905 C 0 94.544 27.269 121.813 60.907 121.813 C 66.527 121.813 71.967 121.048 77.134 119.624 C 74.616 119.94 72.049 120.236 69.45 120.104 C 41.593 118.687 13.805 94.773 12.948 61.147 Z " fill="rgb(247,165,17)"/><path d=" M 75.356 70.864 C 75.356 79.355 68.473 86.237 59.983 86.237 C 51.493 86.237 44.611 79.355 44.611 70.864 C 44.611 62.375 51.493 69.855 59.983 69.855 C 68.473 69.855 75.356 62.375 75.356 70.864 Z " fill="rgb(125,39,26)"/><path d=" M 37.258 54.532 C 37.258 48.775 33.668 44.108 29.239 44.108 C 24.81 44.108 21.22 48.775 21.22 54.532 C 21.22 60.288 24.81 64.955 29.239 64.955 C 33.668 64.955 37.258 60.288 37.258 54.532 Z " fill="rgb(125,39,26)"/><path d=" M 99.43 54.532 C 99.43 48.775 95.84 44.108 91.411 44.108 C 86.982 44.108 83.392 48.775 83.392 54.532 C 83.392 60.288 86.982 64.955 91.411 64.955 C 95.84 64.955 99.43 60.288 99.43 54.532 Z " fill="rgb(125,39,26)"/><path d=" M 21.323 39.396 C 21.323 39.396 23.371 38.851 26.337 38.261 C 30.347 37.467 36.035 36.592 40.62 36.88 C 48.598 37.379 42.887 29.051 29.126 32.092 C 15.365 35.132 17.769 40.228 21.323 39.396 Z " fill="rgb(125,39,26)"/><path d=" M 97.234 39.396 C 97.234 39.396 95.187 38.851 92.22 38.261 C 88.211 37.467 82.523 36.592 77.938 36.88 C 69.959 37.379 75.671 29.051 89.432 32.092 C 103.192 35.132 100.788 40.228 97.234 39.396" fill="rgb(125,39,26)"/></g></svg>