<?xml version="1.0" encoding="utf-8"?>
<!-- Generator: Adobe Illustrator 24.2.0, SVG Export Plug-In . SVG Version: 6.00 Build 0)  -->
<svg version="1.1" id="Warstwa_3" xmlns="http://www.w3.org/2000/svg" x="0px" y="0px"
	 viewBox="0 0 87.87 87.87" style="enable-background:new 0 0 87.87 87.87;" xml:space="preserve">
<g>
	<g>
		<g>
			<g>
				<g>
					<path d="M4.74,60.23c1.42,3.42,3.29,6.64,5.55,9.59l7.15-5.5c-1.78-2.32-3.26-4.86-4.38-7.55L4.74,60.23z"/>
					<path d="M18.13,77.65c2.94,2.26,6.17,4.13,9.59,5.55l3.46-8.33c-2.69-1.12-5.23-2.59-7.55-4.37L18.13,77.65z"/>
					<path d="M44.01,1.39C20.57,1.39,1.5,20.47,1.5,43.92c0,1.87,0.12,3.75,0.36,5.58l8.94-1.18c-0.19-1.45-0.29-2.93-0.29-4.41
						c0-18.47,15.03-33.5,33.5-33.5c18.48,0,33.51,15.03,33.51,33.5c0,18.47-15.03,33.5-33.51,33.5c-1.47,0-2.96-0.1-4.41-0.29
						l-1.17,8.94c1.84,0.24,3.72,0.36,5.58,0.36c23.45,0,42.52-19.08,42.52-42.52C86.54,20.47,67.46,1.39,44.01,1.39z"/>
				</g>
			</g>
		</g>
	</g>
</g>
<g>
	<path d="M58.04,60.46c0.1,0,0.19,0.01,0.29,0l0.32-0.02c1-0.05,1.37-0.9,1.22-1.89l-0.38-2.53c0,0,0.69-0.26,1.66-1.89
		c0.97-1.63,1.46-4.59-1.71-6.87c-2.32-1.67-4.28-3.89-5.22-6.05c-0.22-0.5-0.5-1.04-0.75-1.7l-8.62-4.1l1.88-1.74l6.24,2.95
		c0.01-0.85,0.14-1.83,0.45-2.98l-6.31-3l1.88-1.74l5.2,2.46c2.27-5.91,3.46-7.56,3.46-7.56l-9.48,0.13c0,0-6.77-2.95-8.21-3.69
		c-2.84,7.8-8.22,12.23-9.74,15.05c-0.26,0.48-0.48,0.93-0.66,1.36c-0.55,1.27-0.54,2.63-0.1,3.85l-2.67,2.02
		c-1,0.76-1.35,2.64-0.64,3.68c0.05,0.08,0.12,0.14,0.21,0.18l23.72,11.11H24.52l-2.58,3h36.03C58,60.47,58.02,60.46,58.04,60.46z
		 M35.55,36.86c0.55-1.17,1.94-1.66,3.11-1.11c1.17,0.55,1.66,1.94,1.11,3.11c-0.55,1.17-1.94,1.66-3.11,1.11
		C35.5,39.42,35,38.02,35.55,36.86z M33.39,46.19l0.71-0.63c0.29-0.25,0.69-0.31,1.04-0.15l15.67,7.41c0.3,0.14,0.51,0.43,0.54,0.76
		l0.12,1.11c0.03,0.27-0.25,0.46-0.49,0.35l-17.51-8.28C33.24,46.66,33.2,46.35,33.39,46.19z"/>
	<polygon points="33.76,66.63 59.74,66.63 61.78,63.63 35.71,63.63 	"/>
</g>
</svg>
