<?xml version="1.0" encoding="utf-8"?>
<!-- Generator: Adobe Illustrator 24.2.0, SVG Export Plug-In . SVG Version: 6.00 Build 0)  -->
<svg version="1.1" xmlns="http://www.w3.org/2000/svg" x="0px" y="0px"
	 viewBox="0 0 87.87 87.87" style="enable-background:new 0 0 87.87 87.87;" xml:space="preserve">
<g id="Warstwa_3">
</g>
<g id="Warstwa_2">
	<g>
		<g>
			<g>
				<path d="M44.02,1.39C20.57,1.39,1.5,20.47,1.5,43.92c0,23.44,19.07,42.52,42.52,42.52c23.45,0,42.52-19.08,42.52-42.52
					C86.54,20.47,67.46,1.39,44.02,1.39z M44.02,77.42c-18.47,0-33.5-15.03-33.5-33.5c0-18.47,15.03-33.5,33.5-33.5
					c18.47,0,33.5,15.03,33.5,33.5C77.52,62.39,62.49,77.42,44.02,77.42z"/>
			</g>
		</g>
	</g>
	<g>
		<path d="M52.86,28.73c2.26-1.08,3.2-3.78,2.1-6.03c-1.1-2.24-3.83-3.15-6.05-2.03c-2.18,1.11-3.09,3.79-2.01,5.99
			C47.98,28.86,50.65,29.79,52.86,28.73z"/>
		<path d="M28.06,34.75h13.52l-4.86,8.42l0.03,0.02c-0.04,0.06-0.09,0.11-0.12,0.18c-0.59,1.13-0.13,2.53,0.94,3.23l1.2,0.8
			l-7.94,12.19c-0.44,0.67-0.25,1.57,0.42,2l1.65,1.07c0.67,0.43,1.56,0.25,2-0.42l7.91-12.16l4.31,2.87V63.1
			c0,0.83,0.67,1.5,1.5,1.5h1.85c0.83,0,1.5-0.67,1.5-1.5V51.64c0-0.82-0.41-1.58-1.09-2.03L45.46,46l2.46-3.78l5.84,3.74
			c0.32,0.21,0.69,0.31,1.04,0.31c0.64,0,1.27-0.32,1.64-0.9c0.58-0.9,0.31-2.11-0.59-2.68l-5.82-3.72l2.78-4.27
			c0.73-1.12,0.42-2.63-0.7-3.36c-0.39-0.26-0.84-0.38-1.28-0.39c-0.17-0.05-0.34-0.08-0.52-0.08H28.06c-1.07,0-1.94,0.87-1.94,1.94
			C26.12,33.88,26.99,34.75,28.06,34.75z"/>
		<path d="M54.04,65.4c0,0.32-0.35,0.59-0.77,0.59H45.8l-1.9,2.43h9.38c1.76,0,3.2-1.35,3.2-3.02v-1.66h-2.43V65.4z"/>
		<path d="M34.88,65c-0.18,0.27-0.62,0.29-0.97,0.06l-6.2-4.18l-2.93,0.95l7.77,5.25c1.46,0.99,3.41,0.67,4.34-0.72l0.93-1.37
			l-2.01-1.36L34.88,65z"/>
	</g>
</g>
</svg>
