<?xml version="1.0" encoding="utf-8"?>
<!-- Generator: Adobe Illustrator 24.2.0, SVG Export Plug-In . SVG Version: 6.00 Build 0)  -->
<svg version="1.1" xmlns="http://www.w3.org/2000/svg" x="0px" y="0px"
	 viewBox="0 0 87.87 87.87" style="enable-background:new 0 0 87.87 87.87;" xml:space="preserve">
<g id="Warstwa_3">
	<g>
		<g>
			<g>
				<path d="M4.74,60.12c1.42,3.41,3.28,6.63,5.54,9.57l7.13-5.49c-1.78-2.32-3.25-4.85-4.37-7.54L4.74,60.12z"/>
				<path d="M18.09,77.5c2.94,2.26,6.16,4.12,9.57,5.54l3.45-8.31c-2.69-1.12-5.22-2.58-7.54-4.37L18.09,77.5z"/>
				<path d="M43.94,1.39C20.54,1.39,1.5,20.43,1.5,43.84c0,1.86,0.12,3.74,0.36,5.57l8.92-1.17c-0.19-1.45-0.29-2.93-0.29-4.4
					c0-18.44,15-33.44,33.44-33.44c18.44,0,33.44,15,33.44,33.44c0,18.44-15,33.44-33.44,33.44c-1.47,0-2.95-0.1-4.4-0.29
					l-1.17,8.92c1.84,0.24,3.71,0.36,5.57,0.36c23.4,0,42.44-19.04,42.44-42.44C86.38,20.43,67.34,1.39,43.94,1.39z"/>
			</g>
		</g>
	</g>
	<g>
		<path d="M50.74,52.05l0.3-12.46l-3.79-2.67l0,0l0,0l-3.81-2.64l-11.6,4.57l-3.14,23.11l8.59-12.31c-0.88-1.08-1-2.65-0.16-3.85
			c1.01-1.45,3.01-1.81,4.46-0.79c1.45,1.01,1.81,3.01,0.79,4.46c-0.84,1.2-2.35,1.64-3.67,1.18l-8.59,12.31l0.11-0.06l-0.01,0.02
			h29.13v-3H35.87L50.74,52.05z"/>
		<polygon points="61.3,30.27 49,21.67 44.54,32.93 52.2,38.28 		"/>
	</g>
</g>
<g id="Warstwa_2">
</g>
</svg>
