<?xml version="1.0" encoding="utf-8"?>
<!-- Generator: Adobe Illustrator 24.2.0, SVG Export Plug-In . SVG Version: 6.00 Build 0)  -->
<svg version="1.1" id="Warstwa_2" xmlns="http://www.w3.org/2000/svg" x="0px" y="0px"
	 viewBox="0 0 87.87 87.87" style="enable-background:new 0 0 87.87 87.87;" xml:space="preserve">
<g>
	<g>
		<g>
			<g>
				<path d="M4.74,60.22c1.42,3.42,3.29,6.64,5.55,9.59l7.15-5.5c-1.78-2.32-3.26-4.86-4.38-7.55L4.74,60.22z"/>
				<path d="M18.13,77.64c2.94,2.26,6.17,4.13,9.59,5.55l3.46-8.33c-2.69-1.12-5.23-2.59-7.55-4.37L18.13,77.64z"/>
				<path d="M44.01,1.39C20.57,1.39,1.5,20.47,1.5,43.91c0,1.87,0.12,3.75,0.36,5.58l8.94-1.18c-0.19-1.45-0.29-2.93-0.29-4.41
					c0-18.47,15.03-33.5,33.5-33.5c18.48,0,33.51,15.03,33.51,33.5c0,18.47-15.03,33.5-33.51,33.5c-1.47,0-2.96-0.1-4.41-0.29
					l-1.17,8.94c1.84,0.24,3.72,0.36,5.58,0.36c23.45,0,42.52-19.07,42.52-42.51C86.54,20.47,67.46,1.39,44.01,1.39z"/>
			</g>
		</g>
	</g>
	<g>
		<g>
			<g>
				<g>
					<path d="M69.42,42.62c-1.32-1.32-3.45-1.31-4.76,0l-1.59,1.59l4.76,4.76l1.59-1.59C70.73,46.06,70.73,43.93,69.42,42.62z"/>
				</g>
				<g>
					<polygon points="45.61,61.66 44.02,68.01 50.37,66.43 66.24,50.55 61.48,45.79 					"/>
				</g>
			</g>
			<g>
				<rect x="58.09" y="55.39" transform="matrix(0.6911 -0.7227 0.7227 0.6911 -21.1171 63.6492)" width="11.64" height="2.29"/>
			</g>
		</g>
		<g>
			<g>
				<path d="M52.43,50.63V23.37H24.48v33.99H45.3L52.43,50.63z M29.38,52.46v-24.2h18.15v20.25l-4.18,3.94H29.38z"/>
				<rect x="33.18" y="31.34" width="10.56" height="3.13"/>
				<rect x="33.18" y="37.88" width="10.56" height="3.13"/>
				<rect x="33.18" y="44.42" width="10.56" height="3.13"/>
			</g>
		</g>
	</g>
</g>
</svg>
