<?xml version="1.0" encoding="utf-8"?>
<!-- Generator: Adobe Illustrator 24.2.0, SVG Export Plug-In . SVG Version: 6.00 Build 0)  -->
<svg version="1.1" id="Warstwa_2" xmlns="http://www.w3.org/2000/svg" x="0px" y="0px"
	 viewBox="0 0 87.87 87.87" style="enable-background:new 0 0 87.87 87.87;" xml:space="preserve">
<g>
	<path d="M43.94,1.39C20.54,1.39,1.5,20.43,1.5,43.83c0,23.4,19.04,42.44,42.44,42.44c23.4,0,42.44-19.04,42.44-42.44
		C86.38,20.43,67.34,1.39,43.94,1.39 M43.94,77.27c-18.44,0-33.44-15-33.44-33.44c0-18.44,15-33.44,33.44-33.44
		c18.44,0,33.44,15,33.44,33.44C77.38,62.27,62.38,77.27,43.94,77.27"/>
	<g>
		<g>
			<g>
				<path d="M56.83,24.75c-2.02,0-3.66,1.64-3.66,3.66l0,2.44h7.32l0-2.44C60.49,26.39,58.85,24.75,56.83,24.75z"/>
			</g>
			<g>
				<polygon points="53.17,57.68 56.83,63.78 60.49,57.68 60.49,33.29 53.17,33.29 				"/>
			</g>
		</g>
		<g>
			<rect x="62.05" y="33.35" transform="matrix(0.9998 -0.0223 0.0223 0.9998 -0.8701 1.4232)" width="2.48" height="12.65"/>
		</g>
	</g>
	<g>
		<path d="M40.98,34.06c-1.65,0-8.15,0-9.8,0c0.14,0.46,0.2,0.85,0.37,1.14c0.57,1.01,1.12,2.05,1.78,2.97
			c0.55,0.78,1.08,1.55,1.49,2.39c0.25,0.52,0.38,1.11,0.38,1.7v9.48c-0.08,0.32-0.28,0.68-0.49,0.82
			c-0.98,0.68-1.97,1.38-3.03,1.83c-1.4,0.6-1.88,1.78-1.96,3.47c-0.03,0.69,0.09,0.9,0.63,0.9c1.92-0.01,3.83-0.01,5.75-0.01
			c1.92,0,3.83,0,5.75,0.01c0.54,0,0.66-0.21,0.63-0.9c-0.08-1.69-0.56-2.87-1.96-3.47c-1.06-0.45-2.05-1.16-3.03-1.83
			c-0.21-0.15-0.42-0.5-0.49-0.82v-9.48c0-0.59,0.13-1.18,0.38-1.7c0.41-0.84,0.93-1.62,1.49-2.39c0.66-0.92,1.21-1.96,1.78-2.97
			C40.78,34.9,40.84,34.52,40.98,34.06z"/>
		<path d="M41.32,42.53c0.33-0.46,0.67-0.94,0.99-1.44c0.33-0.52,0.68-1.04,1.02-1.54c0.88-1.3,1.79-2.65,2.38-4.14
			c0.62-1.55,0.96-3.21,1.33-4.96c0.06-0.29,0.12-0.58,0.18-0.86h1.11v-3.5H23.84v3.5h1.08c0.76,5.69,1.56,7.43,5.33,12.15
			c1.96,2.46,1.91,3.37-0.33,5.75c-2.4,2.55-3.96,5.6-4.62,9.07c-0.18,0.95-0.3,1.92-0.41,2.87c-0.03,0.29-0.07,0.57-0.11,0.86
			h-0.94v3.5h24.48v-3.5H47.2c0-0.02-0.01-0.05-0.01-0.07c-0.31-4.58-1.77-8.51-4.34-11.7c-0.67-0.83-1.36-1.69-1.99-2.59
			c-0.63-0.92-0.69-1.73-0.17-2.49C40.89,43.12,41.11,42.83,41.32,42.53z M39.68,48.68c2.11,2.48,4.14,5.3,4.72,9.11
			c0.1,0.66,0.18,1.32,0.26,2.02c0.02,0.15,0.04,0.31,0.06,0.47H27.33c0.18-3.78,1.17-6.82,3.03-9.28c0.37-0.49,0.76-0.97,1.14-1.43
			c0.46-0.56,0.93-1.14,1.37-1.73c1.59-2.16,1.62-4.45,0.09-6.64c-0.49-0.7-1.01-1.38-1.52-2.04c-0.35-0.46-0.7-0.91-1.04-1.38
			c-1.71-2.32-2.68-5.02-2.99-8.21h17.2c-0.29,3.16-1.26,5.85-2.96,8.18c-0.79,1.07-1.58,2.13-2.38,3.13
			C37.33,43.33,37.48,46.1,39.68,48.68z"/>
	</g>
</g>
</svg>
