<?xml version="1.0" encoding="utf-8"?>
<!-- Generator: Adobe Illustrator 24.2.0, SVG Export Plug-In . SVG Version: 6.00 Build 0)  -->
<svg version="1.1" xmlns="http://www.w3.org/2000/svg" x="0px" y="0px"
	 viewBox="0 0 87.87 87.87" style="enable-background:new 0 0 87.87 87.87;" xml:space="preserve">
<g id="Warstwa_3">
	<g>
		<path d="M44.02,1.39C20.57,1.39,1.5,20.47,1.5,43.91c0,23.44,19.07,42.52,42.52,42.52c23.45,0,42.52-19.07,42.52-42.52
			C86.54,20.47,67.46,1.39,44.02,1.39z M44.02,77.41c-18.47,0-33.5-15.03-33.5-33.5c0-18.47,15.03-33.5,33.5-33.5
			c18.47,0,33.5,15.03,33.5,33.5C77.52,62.38,62.49,77.41,44.02,77.41z"/>
		<polygon points="56.68,28.2 44.09,19.4 39.53,30.92 47.36,36.39 		"/>
		<path d="M66.9,58.26c-0.06-0.01-0.13,0.01-0.18,0.05c-0.29,0.23-0.58,0.42-0.87,0.57c-0.28,0.14-0.53,0.25-0.76,0.3
			c-0.57,0.14-1.07,0.09-1.52-0.14c-0.46-0.24-0.89-0.62-1.26-1.12c-0.38-0.52-0.72-1.14-1-1.86c-0.29-0.73-0.53-1.5-0.72-2.29
			c-0.17-0.68-0.31-1.39-0.42-2.08c-0.1-0.62-0.17-1.23-0.21-1.8c0.35-0.13,0.69-0.28,1.02-0.46c0.39-0.21,0.76-0.48,1.09-0.8
			c0.34-0.32,0.65-0.71,0.94-1.16c0.28-0.45,0.54-1,0.77-1.62c0.02-0.06,0.02-0.13-0.01-0.19c-0.09-0.21-0.22-0.34-0.39-0.4
			c-0.15-0.05-0.37-0.05-0.61,0.25c-0.02,0.02-0.03,0.04-0.04,0.06c-0.37,0.89-0.83,1.6-1.35,2.12c-0.43,0.42-0.91,0.73-1.42,0.92
			c0-0.8-0.01-1.6-0.02-2.4c-0.01-0.92-0.03-1.82-0.05-2.68c-0.02-0.87-0.06-1.69-0.11-2.46c-0.05-0.76-0.11-1.46-0.19-2.1
			c-0.02-0.1-0.04-0.22-0.07-0.35l-0.08-0.32c-0.08-0.32-0.18-0.62-0.31-0.9c-0.14-0.29-0.32-0.54-0.53-0.74
			c-0.22-0.2-0.5-0.35-0.82-0.42c-0.31-0.07-0.69-0.06-1.12,0.05c-0.3,0.07-0.51,0.21-0.62,0.42c-0.06,0.05-0.1,0.11-0.14,0.18
			c-0.03,0.06-0.06,0.12-0.07,0.19c-0.01,0.03-0.02,0.06-0.02,0.09c-0.01,0.96-0.07,1.95-0.18,2.96c-0.11,1-0.26,2.03-0.45,3.05
			c-0.19,1.02-0.42,2.05-0.68,3.06c-0.22,0.84-0.47,1.67-0.73,2.49c-1.72-0.23-5.2-0.47-7.86,0.08l0.26-11.06L42.29,35l0,0l0,0
			l-3.9-2.7l-11.86,4.68l-3.22,23.65l8.79-12.59c-0.9-1.11-1.02-2.71-0.16-3.94c1.04-1.48,3.08-1.85,4.57-0.81s1.85,3.08,0.81,4.57
			c-0.86,1.23-2.41,1.68-3.76,1.21l-8.79,12.59l15.82-8.37c-0.11,0.42-0.19,0.86-0.22,1.31c-0.05,0.78,0.01,1.52,0.18,2.22
			c0.2,0.82,0.53,1.54,0.97,2.13c0.45,0.59,0.97,1.07,1.56,1.43c0.59,0.36,1.23,0.59,1.92,0.69c0.26,0.04,0.52,0.06,0.78,0.06
			c0.42,0,0.84-0.05,1.25-0.15c0.46-0.11,0.89-0.28,1.27-0.5c0.37-0.21,0.72-0.46,1.04-0.75c0.31-0.28,0.61-0.58,0.87-0.92
			c0.26-0.32,0.52-0.65,0.76-0.99c0.72-1.03,1.4-2.21,2.02-3.52c0.59-1.24,1.12-2.53,1.58-3.84c0.43,0.01,0.84,0.02,1.22,0.02
			c0.36,0,0.72-0.01,1.11-0.03c0.04,0.51,0.11,1.04,0.19,1.55c0.1,0.61,0.22,1.21,0.35,1.76c0.17,0.68,0.37,1.36,0.61,2.02
			c0.24,0.66,0.52,1.28,0.83,1.85c0.31,0.57,0.67,1.1,1.06,1.55c0.39,0.46,0.83,0.84,1.3,1.14c0.47,0.3,1,0.5,1.55,0.6
			c0.56,0.1,1.16,0.07,1.78-0.08c0.46-0.11,0.91-0.28,1.37-0.5c0.45-0.22,0.92-0.51,1.4-0.87c0.03-0.02,0.06-0.05,0.07-0.09
			c0.06-0.11,0.1-0.23,0.13-0.35c0.03-0.14,0.03-0.25,0.01-0.35C67.52,58.44,67.29,58.3,66.9,58.26z M53.2,50.46
			c-0.32,0.86-0.66,1.71-1.02,2.51c-0.39,0.88-0.8,1.71-1.23,2.47c-0.42,0.75-0.85,1.43-1.28,2.02c-0.42,0.58-0.85,1.06-1.26,1.44
			c-0.24,0.2-0.49,0.36-0.72,0.5c-0.23,0.13-0.46,0.22-0.7,0.28c-0.54,0.13-1.02,0.1-1.45-0.1c-0.45-0.21-0.84-0.51-1.16-0.9
			c-0.33-0.4-0.59-0.85-0.78-1.36c-0.19-0.51-0.3-0.99-0.32-1.44c-0.04-0.55-0.01-1.12,0.07-1.68c0.09-0.56,0.22-1.09,0.4-1.55
			c0.18-0.46,0.39-0.84,0.65-1.15c0.13-0.16,0.42-0.39,0.65-0.57l0.15-0.08c2.08-0.82,6.1-0.62,8.02-0.41L53.2,50.46z M55.91,49.16
			c-0.29-0.01-0.58-0.02-0.88-0.04c0.44-1.45,0.82-2.89,1.14-4.26c0.18-0.78,0.34-1.54,0.47-2.27c0.03,0.59,0.05,1.21,0.08,1.88
			c0.05,1.39,0.09,2.96,0.13,4.7C56.53,49.17,56.22,49.17,55.91,49.16z"/>
	</g>
</g>
<g id="Warstwa_2">
</g>
</svg>
