<?xml version="1.0" encoding="utf-8"?>
<!-- Generator: Adobe Illustrator 24.2.0, SVG Export Plug-In . SVG Version: 6.00 Build 0)  -->
<svg version="1.1" xmlns="http://www.w3.org/2000/svg" x="0px" y="0px"
	 viewBox="0 0 87.87 87.87" style="enable-background:new 0 0 87.87 87.87;" xml:space="preserve">
<g id="Warstwa_3">
	<g>
		<g>
			<g>
				<g>
					<g>
						<g>
							<path d="M44.02,1.39C20.57,1.39,1.5,20.47,1.5,43.91c0,23.44,19.07,42.52,42.52,42.52c23.45,0,42.52-19.07,42.52-42.52
								C86.54,20.47,67.46,1.39,44.02,1.39z M44.02,77.41c-18.47,0-33.5-15.03-33.5-33.5c0-18.47,15.03-33.5,33.5-33.5
								c18.47,0,33.5,15.03,33.5,33.5C77.52,62.38,62.49,77.41,44.02,77.41z"/>
						</g>
					</g>
				</g>
			</g>
		</g>
		<path d="M61.29,37.32c2.95-2.95,2.95-7.73,0-10.68c-2.95-2.95-7.73-2.95-10.68,0c-1.85,1.85-2.54,4.41-2.07,6.79l-4.15-4.15
			l-8.91,8.91l4.3,4.3L26.57,55.7l1.77,1.77l-4.87,4.87l2.12,2.12l4.87-4.87l1.77,1.77l13.21-13.21l4.3,4.3l8.91-8.91l-4.15-4.15
			C56.88,39.85,59.45,39.16,61.29,37.32z M49.74,47.5l-9.3-9.3l3.96-3.96l9.3,9.3L49.74,47.5z"/>
	</g>
</g>
<g id="Warstwa_2">
</g>
</svg>
