<?xml version="1.0" encoding="utf-8"?>
<!-- Generator: Adobe Illustrator 24.2.0, SVG Export Plug-In . SVG Version: 6.00 Build 0)  -->
<svg version="1.1" id="Warstwa_2" xmlns="http://www.w3.org/2000/svg" x="0px" y="0px"
	 viewBox="0 0 87.87 87.87" style="enable-background:new 0 0 87.87 87.87;" xml:space="preserve">
<g>
	<g>
		<g>
			<g>
				<g>
					<path d="M39.71,77.14l-1.15,8.94c1.8,0.23,3.63,0.35,5.45,0.35c1.88,0,3.77-0.13,5.62-0.37l-1.18-8.94
						C45.58,77.51,42.59,77.51,39.71,77.14z"/>
				</g>
				<g>
					<path d="M69.93,10.2c-2.94-2.27-6.18-4.14-9.6-5.56l-3.46,8.33c2.7,1.12,5.24,2.59,7.56,4.38L69.93,10.2z"/>
				</g>
				<g>
					<path d="M4.78,60.31c1.43,3.42,3.3,6.64,5.58,9.58l7.13-5.51c-1.79-2.32-3.27-4.86-4.39-7.55L4.78,60.31z"/>
				</g>
				<g>
					<path d="M18.22,77.71c2.95,2.26,6.19,4.12,9.62,5.53l3.43-8.34c-2.7-1.11-5.25-2.58-7.57-4.36L18.22,77.71z"/>
				</g>
				<g>
					<path d="M56.89,74.86l3.47,8.32c3.42-1.42,6.65-3.3,9.59-5.57l-5.5-7.14C62.12,72.26,59.58,73.73,56.89,74.86z"/>
				</g>
				<g>
					<path d="M86.18,38.36l-8.94,1.17c0.19,1.44,0.28,2.92,0.28,4.39c0,1.46-0.1,2.92-0.28,4.36l8.94,1.16
						c0.24-1.82,0.36-3.68,0.36-5.52C86.54,42.06,86.42,40.19,86.18,38.36z"/>
				</g>
				<g>
					<path d="M70.62,64.28l7.15,5.49c2.26-2.95,4.13-6.18,5.55-9.61l-8.33-3.45C73.87,59.41,72.4,61.96,70.62,64.28z"/>
				</g>
				<g>
					<path d="M83.31,27.64c-1.42-3.42-3.29-6.65-5.55-9.6l-7.15,5.49c1.78,2.32,3.26,4.87,4.38,7.56L83.31,27.64z"/>
				</g>
				<g>
					<path d="M10.51,43.91c0-18.47,15.03-33.5,33.5-33.5c1.48,0,2.96,0.1,4.41,0.29l1.17-8.94c-1.84-0.24-3.72-0.36-5.59-0.36
						C20.57,1.39,1.5,20.47,1.5,43.91c0,1.87,0.12,3.75,0.36,5.59l8.94-1.18C10.61,46.87,10.51,45.39,10.51,43.91z"/>
				</g>
			</g>
		</g>
	</g>
	<g>
		<path d="M56.7,31.23V21.15H31.33v10.07H21.26V56.6h10.07v10.07H56.7V56.6h10.07V31.23H56.7z M63.78,53.6H53.7v10.07H34.33V53.6
			H24.26V34.23h10.07V24.15H53.7v10.07h10.07V53.6z"/>
		<path d="M47.46,42.32c-1.67-2.02-2.77-3.36-2.6-8.32l0.12-3.55l-2.13,2.84c-0.63,0.85-6.13,8.39-3.44,12.08
			c0.42,0.58,0.84,1.09,1.24,1.59c1.79,2.22,2.87,3.57,1.87,6.77l-1.13,3.64l2.92-2.46c0.32-0.27,7.82-6.68,3.95-11.62
			C47.98,42.95,47.71,42.63,47.46,42.32z M45.8,49.93c-0.22,0.33-0.46,0.65-0.7,0.95c-0.21-2.2-1.44-3.73-2.71-5.31
			c-0.39-0.48-0.78-0.98-1.17-1.51c-0.87-1.2,0.12-3.98,1.55-6.53c0.41,3.1,1.58,4.52,2.97,6.21c0.25,0.3,0.5,0.61,0.76,0.94
			C47.51,45.97,47.27,47.73,45.8,49.93z"/>
	</g>
</g>
</svg>
