<?xml version="1.0" encoding="utf-8"?>
<!-- Generator: Adobe Illustrator 24.2.0, SVG Export Plug-In . SVG Version: 6.00 Build 0)  -->
<svg version="1.1" id="Warstwa_2" xmlns="http://www.w3.org/2000/svg" x="0px" y="0px"
	 viewBox="0 0 87.87 87.87" style="enable-background:new 0 0 87.87 87.87;" xml:space="preserve">
<g>
	<g>
		<g>
			<g>
				<g>
					<g>
						<path d="M4.64,60.23c1.42,3.42,3.29,6.64,5.55,9.59l7.15-5.5c-1.78-2.32-3.26-4.86-4.38-7.55L4.64,60.23z"/>
						<path d="M18.03,77.65c2.94,2.26,6.17,4.13,9.59,5.55l3.46-8.33c-2.69-1.12-5.23-2.59-7.55-4.37L18.03,77.65z"/>
						<path d="M43.91,1.4C20.47,1.4,1.4,20.48,1.4,43.92c0,1.87,0.12,3.75,0.36,5.58l8.94-1.18c-0.19-1.45-0.29-2.93-0.29-4.41
							c0-18.47,15.03-33.5,33.5-33.5c18.48,0,33.51,15.03,33.51,33.5c0,18.47-15.03,33.5-33.51,33.5c-1.47,0-2.96-0.1-4.41-0.29
							l-1.17,8.94c1.84,0.24,3.72,0.36,5.58,0.36c23.45,0,42.52-19.07,42.52-42.51C86.44,20.48,67.36,1.4,43.91,1.4z"/>
					</g>
				</g>
			</g>
		</g>
	</g>
	<g>
		<path d="M56.23,31.23V21.16H30.85v10.07H20.78V56.6h10.07v10.07h25.37V56.6H66.3V31.23H56.23z M63.3,53.6H53.23v10.07H33.85V53.6
			H23.78V34.23h10.07V24.16h19.37v10.07H63.3V53.6z"/>
		<path d="M46.98,42.32c-1.67-2.02-2.77-3.36-2.6-8.32l0.12-3.55l-2.13,2.84c-0.63,0.85-6.13,8.39-3.44,12.08
			c0.42,0.58,0.84,1.1,1.24,1.59c1.79,2.22,2.87,3.57,1.87,6.77l-1.13,3.64l2.92-2.46c0.32-0.27,7.82-6.68,3.95-11.62
			C47.5,42.96,47.24,42.63,46.98,42.32z"/>
	</g>
</g>
</svg>
