<?xml version="1.0" encoding="utf-8"?>
<!-- Generator: Adobe Illustrator 24.2.0, SVG Export Plug-In . SVG Version: 6.00 Build 0)  -->
<svg version="1.1" xmlns="http://www.w3.org/2000/svg" x="0px" y="0px"
	 viewBox="0 0 87.87 87.87" style="enable-background:new 0 0 87.87 87.87;" xml:space="preserve">
<g id="Warstwa_3">
	<g>
		<g>
			<g>
				<g>
					<path d="M43.92,1.4C20.47,1.4,1.4,20.47,1.4,43.92c0,23.44,19.07,42.52,42.52,42.52c23.45,0,42.52-19.07,42.52-42.52
						C86.44,20.47,67.36,1.4,43.92,1.4z M43.92,77.42c-18.47,0-33.5-15.03-33.5-33.5c0-18.47,15.03-33.5,33.5-33.5
						c18.47,0,33.5,15.03,33.5,33.5C77.42,62.39,62.39,77.42,43.92,77.42z"/>
				</g>
			</g>
		</g>
		<path d="M56.6,31.23V21.16H31.23v10.07H21.16V56.6h10.07v10.07H56.6V56.6h10.07V31.23H56.6z M44.21,54.92l-2.92,2.46l1.13-3.64
			c1-3.21-0.08-4.55-1.87-6.77c-0.4-0.5-0.82-1.02-1.24-1.59c-2.69-3.69,2.8-11.23,3.44-12.08l2.13-2.84L44.75,34
			c-0.16,4.96,0.94,6.3,2.6,8.32c0.26,0.31,0.52,0.63,0.8,0.98C52.03,48.24,44.53,54.65,44.21,54.92z"/>
	</g>
</g>
<g id="Warstwa_2">
</g>
</svg>
