<?xml version="1.0" encoding="utf-8"?>
<!-- Generator: Adobe Illustrator 24.2.0, SVG Export Plug-In . SVG Version: 6.00 Build 0)  -->
<svg version="1.1" id="Warstwa_2" xmlns="http://www.w3.org/2000/svg" x="0px" y="0px"
	 viewBox="0 0 87.87 87.87" style="enable-background:new 0 0 87.87 87.87;" xml:space="preserve">
<g>
	<path d="M43.92,1.4C20.47,1.4,1.4,20.47,1.4,43.92c0,23.44,19.07,42.52,42.52,42.52c23.45,0,42.52-19.07,42.52-42.52
		C86.44,20.47,67.36,1.4,43.92,1.4z M43.92,77.42c-18.47,0-33.5-15.03-33.5-33.5c0-18.47,15.03-33.5,33.5-33.5
		c18.47,0,33.5,15.03,33.5,33.5C77.42,62.39,62.39,77.42,43.92,77.42z"/>
	<path d="M56.6,21.16H31.23v10.07H21.16V56.6h10.07v10.07H56.6V56.6h10.07V31.23H56.6V21.16z M63.68,34.23V53.6H53.6v10.07H34.23
		V53.6H24.16V34.23h10.07V24.16H53.6v10.07H63.68z"/>
	<path d="M36.63,50.61c-0.28,1.46,0.2,2.69,1.9,2.93c1.7,0.24,2.65,0.28,2.65,0.28S36.87,51.04,36.63,50.61z"/>
	<path d="M43.92,34.03C43.92,34.03,43.92,34.03,43.92,34.03C43.92,34.03,43.92,34.03,43.92,34.03c-1.57-0.13-2.71,0.92-3.4,1.66
		c0.53,2.85,2.23,11.89,3.4,16.35v0.01c0,0,0,0,0-0.01c0,0,0,0,0,0.01v-0.01c1.17-4.46,2.87-13.5,3.4-16.35
		C46.63,34.95,45.48,33.9,43.92,34.03z"/>
	<path d="M35.15,39.96l7.38,12.13c-1.17-4.57-2.77-13.04-3.32-16C38.29,35.91,35.36,35.69,35.15,39.96z"/>
	<path d="M32.87,45.3c1.18,2.83,6.43,6.56,8.07,7.38c0.18,0.13,0.39,0.28,0.61,0.43l-7.27-11.95C33.52,41.66,31.92,43.02,32.87,45.3
		z"/>
	<path d="M46.65,53.81c0,0,0.95-0.04,2.65-0.28c1.7-0.24,2.18-1.46,1.9-2.93C50.96,51.04,46.65,53.81,46.65,53.81z"/>
	<path d="M48.63,36.09c-0.55,2.96-2.15,11.44-3.32,16l7.38-12.13C52.47,35.69,49.55,35.91,48.63,36.09z"/>
	<path d="M46.28,53.11c0.22-0.15,0.43-0.3,0.61-0.43c1.64-0.83,6.89-4.56,8.07-7.38c0.95-2.28-0.65-3.64-1.41-4.14L46.28,53.11z"/>
</g>
</svg>
