<svg xmlns="http://www.w3.org/2000/svg" viewBox="0 0 87.87 87.87" ><path d="M39.71 77.14l-1.15 8.94c1.8.23 3.63.35 5.45.35 1.88 0 3.77-.13 5.62-.37l-1.18-8.94c-2.87.39-5.86.39-8.74.02zM69.93 10.2a42.21 42.21 0 0 0-9.6-5.56l-3.46 8.33a33.18 33.18 0 0 1 7.56 4.38l5.5-7.15zM4.78 60.31a42.16 42.16 0 0 0 5.58 9.58l7.13-5.51a33.37 33.37 0 0 1-4.39-7.55l-8.32 3.48zm13.44 17.4a42.23 42.23 0 0 0 9.62 5.53l3.43-8.34a33.17 33.17 0 0 1-7.57-4.36l-5.48 7.17zm38.67-2.85l3.47 8.32c3.42-1.42 6.65-3.3 9.59-5.57l-5.5-7.14c-2.33 1.79-4.87 3.27-7.56 4.39zm29.29-36.5l-8.94 1.17c.19 1.44.28 2.92.28 4.39 0 1.46-.1 2.92-.28 4.36l8.94 1.16c.24-1.82.36-3.68.36-5.52 0-1.86-.12-3.73-.36-5.56zM70.62 64.28l7.15 5.49c2.26-2.95 4.13-6.18 5.55-9.61l-8.33-3.45c-1.12 2.7-2.59 5.25-4.37 7.57zm12.69-36.64c-1.42-3.42-3.29-6.65-5.55-9.6l-7.15 5.49c1.78 2.32 3.26 4.87 4.38 7.56l8.32-3.45zm-72.8 16.27c0-18.47 15.03-33.5 33.5-33.5 1.48 0 2.96.1 4.41.29l1.17-8.94c-1.84-.24-3.72-.36-5.59-.36C20.57 1.39 1.5 20.47 1.5 43.91c0 1.87.12 3.75.36 5.59l8.94-1.18c-.19-1.45-.29-2.93-.29-4.41zm29.65 24.94c-3.27 0-5.92-2.71-5.92-6.04v-.76a1.5 1.5 0 1 1 3 0v.76c0 1.68 1.31 3.04 2.92 3.04.8 0 1.55-.31 2.11-.89.56-.57.86-1.33.85-2.13l-.08-4.24c-2.7-.24-5.74-1.2-8.14-3.35-2.48-2.23-3.79-5.39-3.79-9.14 0-5.79 5.02-9.33 9.06-12.18.83-.58 1.63-1.15 2.35-1.7l-.19-9.35a4.93 4.93 0 0 1 4.77-5c2.72-.11 4.91 1.98 5.04 4.68.19 3.87-3.26 7.79-5.87 10.39-.23.23-.47.45-.72.67l.14 7.08c1.66-.2 3.35.12 4.9.95 2.6 1.39 4.35 3.94 4.58 6.67.43 5.2-3.48 9.58-9.12 10.24l.08 4.21a5.92 5.92 0 0 1-1.7 4.29c-1.13 1.15-2.66 1.8-4.27 1.8zm2.42-32.96l-.69.49c-3.83 2.7-7.79 5.49-7.79 9.73 0 2.92.94 5.24 2.8 6.91 1.76 1.58 4.04 2.32 6.07 2.56l-.21-10.43c-.75.61-1.23 1.27-1.41 1.98-.3 1.16.26 2.15.26 2.16.44.71.22 1.63-.49 2.06-.7.43-1.63.22-2.06-.49a6.03 6.03 0 0 1-.61-4.49c.48-1.85 1.84-3.41 4.04-4.63.07-.04.14-.07.21-.11l-.12-5.74zm3.16 7.83l.23 11.83c3.9-.58 6.49-3.46 6.19-6.97-.14-1.7-1.32-3.38-3-4.28-.7-.38-1.93-.84-3.42-.58zm1.49-22.84h-.06a1.91 1.91 0 0 0-1.85 1.94l.13 6.64c2.55-2.8 3.76-5.01 3.67-6.75a1.88 1.88 0 0 0-1.89-1.83z"/></svg>