<svg xmlns="http://www.w3.org/2000/svg" viewBox="0 0 87.87 87.87" ><path d="M4.74 60.12a42.53 42.53 0 0 0 5.54 9.57l7.13-5.49c-1.78-2.32-3.25-4.85-4.37-7.54l-8.3 3.46zM18.09 77.5a42.53 42.53 0 0 0 9.57 5.54l3.45-8.31c-2.69-1.12-5.22-2.58-7.54-4.37l-5.48 7.14zM43.94 1.39C20.54 1.39 1.5 20.43 1.5 43.84a43.06 43.06 0 0 0 .36 5.57l8.92-1.17c-.19-1.45-.29-2.93-.29-4.4 0-18.44 15-33.44 33.44-33.44s33.44 15 33.44 33.44-15 33.44-33.44 33.44c-1.47 0-2.95-.1-4.4-.29l-1.17 8.92c1.84.24 3.71.36 5.57.36 23.4 0 42.44-19.04 42.44-42.44.01-23.4-19.03-42.44-42.43-42.44zm10.28 32.74c-.75-.97-1.67-1.98-2.63-3.06l-2.74-3.16c-1.92-2.39-2.21-4.76-2.46-6.86l-.12-.96-.12-.83-3-.03v35.26c-.88-.26-1.87-.33-2.86-.36h-.15c-2 0-4.36.85-6.29 2.28-2.22 1.58-3.45 3.55-3.45 5.54 0 1.4.6 2.72 1.68 3.7 1.02.96 2.45 1.6 3.92 1.74.26.03.53.04.79.04 2.1 0 4.31-.78 6.03-2.12 2.19-1.65 3.45-3.9 3.45-6.17V33.85c1.94.53 4.08 2.01 5.52 3.89 1.4 1.76 2.29 4.15 2.38 6.39.15 3.48-1.42 6.93-2.57 9.45l-.49 1.1-.62 1.41 2.89-.14.27-.47c1.49-2.57 3.99-7.61 3.99-12.56.01-2.85-1.21-5.97-3.42-8.79z"/></svg>