<svg xmlns="http://www.w3.org/2000/svg" viewBox="0 0 87.87 87.87" ><path d="M44.02 1.39C20.57 1.39 1.5 20.47 1.5 43.91s19.07 42.52 42.52 42.52 42.52-19.07 42.52-42.52c0-23.44-19.08-42.52-42.52-42.52zm0 76.02c-18.47 0-33.5-15.03-33.5-33.5s15.03-33.5 33.5-33.5 33.5 15.03 33.5 33.5-15.03 33.5-33.5 33.5zm6.01-31.45L50 18.56l-21.43 6.22-.01 23.92c-1.02-.56-2.26-.89-3.61-.89-3.42 0-6.19 2.11-6.19 4.71s2.77 4.71 6.19 4.71 6.19-2.11 6.19-4.71h0V33.73l16.32-4.62v13.57c-1.01-.54-2.23-.86-3.56-.86-3.42 0-6.19 2.11-6.19 4.71s2.77 4.71 6.19 4.71 6.19-2.11 6.19-4.71a2.76 2.76 0 0 0-.06-.57zm15.21-4.64l-1.94-2.33-2.02-2.41c-1.42-1.83-1.63-3.64-1.81-5.24l-.09-.73-.09-.63-2.22-.02v26.91c-.65-.2-1.38-.25-2.11-.27h-.11c-1.48 0-3.22.65-4.65 1.74-1.64 1.21-2.54 2.71-2.54 4.23 0 1.07.45 2.08 1.24 2.82.75.74 1.81 1.22 2.89 1.33.19.02.39.03.59.03 1.55 0 3.18-.59 4.45-1.62 1.62-1.26 2.54-2.98 2.54-4.71V41.11c1.43.4 3.01 1.53 4.07 2.97a8.8 8.8 0 0 1 1.75 4.88c.11 2.66-1.05 5.29-1.9 7.21l-.36.84-.46 1.08 2.13-.1.2-.36c1.1-1.96 2.94-5.81 2.94-9.59.03-2.19-.87-4.57-2.5-6.72z"/></svg>