<svg xmlns="http://www.w3.org/2000/svg" viewBox="0 0 87.87 87.87" ><path d="M44.02 1.39C20.57 1.39 1.5 20.47 1.5 43.91s19.07 42.52 42.52 42.52 42.52-19.07 42.52-42.52c0-23.44-19.08-42.52-42.52-42.52zm0 76.02c-18.47 0-33.5-15.03-33.5-33.5s15.03-33.5 33.5-33.5 33.5 15.03 33.5 33.5-15.03 33.5-33.5 33.5zm-2.94-42.59a9.13 9.13 0 0 0-9.12 9.12 9.13 9.13 0 0 0 9.12 9.12 9.13 9.13 0 0 0 9.12-9.12c.01-5.03-4.09-9.12-9.12-9.12zm0 14.04c-2.72 0-4.92-2.2-4.92-4.92s2.2-4.92 4.92-4.92S46 41.22 46 43.94s-2.2 4.92-4.92 4.92zm-.49-27.38c-12.22 0-22.13 9.91-22.13 22.13s9.91 22.13 22.13 22.13c3.59 0 6.97-.86 9.97-2.38-.73-2.05.28-4.82 2.62-6.71 2.02-1.64 4.46-2.16 6.29-1.54V32.06c-3.89-6.35-10.89-10.58-18.88-10.58zm.49 33.58c-6.13 0-11.12-4.99-11.12-11.12s4.99-11.12 11.12-11.12S52.2 37.81 52.2 43.94c.01 6.13-4.99 11.12-11.12 11.12zm26.43-8.9c.92 1.19 1.5 2.82 1.56 4.35.1 2.3-.88 4.58-1.62 6.27h2.03c.9-1.87 1.87-4.5 1.87-7.09 0-1.94-.8-4.06-2.25-5.98-.49-.66-1.1-1.35-1.73-2.08l-1.8-2.15c-1.27-1.63-1.45-3.24-1.62-4.66l-.08-.65-.08-.56-1.97-.02v23.97c-.58-.18-1.23-.23-1.88-.24h-.1c-1.31 0-2.86.58-4.14 1.55-1.46 1.08-2.26 2.41-2.26 3.77 0 .95.4 1.85 1.11 2.51a4.35 4.35 0 0 0 2.58 1.18c.17.02.35.03.52.03 1.38 0 2.83-.53 3.97-1.44 1.44-1.12 2.26-2.65 2.26-4.2v-17.2c1.28.36 2.69 1.36 3.63 2.64z"/></svg>