<?xml version="1.0" encoding="utf-8"?>
<!-- Generator: Adobe Illustrator 12.0.0, SVG Export Plug-In . SVG Version: 6.00 Build 51448)  -->
<!DOCTYPE svg PUBLIC "-//W3C//DTD SVG 1.1//EN" "http://www.w3.org/Graphics/SVG/1.1/DTD/svg11.dtd" [
	<!ENTITY ns_svg "http://www.w3.org/2000/svg">
	<!ENTITY ns_xlink "http://www.w3.org/1999/xlink">
]>
<svg  version="1.1" id="Layer_2" xmlns="&ns_svg;" xmlns:xlink="&ns_xlink;" width="316" height="316" viewBox="0 0 391 391"
	 overflow="visible" enable-background="new 0 0 391 391" xml:space="preserve">
<path fill="#FF0000" d="M229.5,161.5c78.5,0,161.5-15,161.5-15c-3,18-47.5,49-47.5,49s44.5,31,47.5,49c0,0-83-15-161.5-15
	c0,78.5,15,161.5,15,161.5c-18-3-49-47.5-49-47.5s-31,44.5-49,47.5c0,0,15-83,15-161.5C83,229.5,0,244.5,0,244.5
	c3-18,47.5-49,47.5-49S3,164.5,0,146.5c0,0,83,15,161.5,15c0-78.5-15-161.5-15-161.5c18,3,49,47.5,49,47.5s31-44.5,49-47.5
	C244.5,0,229.5,83,229.5,161.5z"/>
<path fill="#FFFF00" d="M203.383,244.5c-2.018-5.809-3.383-12.261-3.383-19c0-20,22.5-73.5,22.5-102s-27-47-27-47s-27,18.5-27,47
	s22.5,82,22.5,102c0,6.739-1.365,13.191-3.383,19H175c0,0,8.5-15.5,8.5-29S171.5,167,146,167s-30,24.5-30,27s2.5,29.5,33,29.5
	c0,0-9.5-6-9.5-16.5s11.5-16.5,18.5-16.5s20,6,20,25s-11,25.5-12.5,27s-1.5,8.667-1.5,8.667h20.916
	c-3.804,8.188-8.514,14.432-11.416,17.333l22,22l22-22c-2.901-2.901-7.612-9.146-11.415-17.333H227c0,0,0-7.167-1.5-8.667
	s-12.5-8-12.5-27s13-25,20-25s18.5,6,18.5,16.5s-9.5,16.5-9.5,16.5c30.5,0,33-27,33-29.5s-4.5-27-30-27s-37.5,35-37.5,48.5
	s8.5,29,8.5,29H203.383z"/>
</svg>
