<?xml version="1.0" encoding="UTF-8" standalone="no"?><!-- Generator: Gravit.io --><svg xmlns="http://www.w3.org/2000/svg" style="isolation:isolate" viewBox="0 0 3158.385 3715.747" width="3158.385pt" height="3715.747pt"><defs><clipPath id="_clipPath_2ZDkER6zUqdU68JZFhJBA67CHApujCYu"><rect width="3158.385" height="3715.747"/></clipPath></defs><g clip-path="url(#_clipPath_2ZDkER6zUqdU68JZFhJBA67CHApujCYu)"><g><path d=" M 0 0 L 41.427 2961.219 C 41.427 2961.22 45.149 3227.764 315.55 3404.781 C 391.087 3454.23 511.269 3493.357 695.818 3490.832 C 752.071 3490.039 1073.955 3488.399 1236.083 3492.871 C 1354.453 3496.136 1551.499 3578.158 1565.324 3715.747 L 1593.111 3715.747 C 1605.014 3556.405 1802.17 3496.311 1922.352 3492.871 C 2083.701 3488.251 2406.314 3490.056 2462.567 3490.832 C 2647.116 3493.374 2767.297 3454.23 2842.834 3404.781 C 3113.236 3227.764 3116.958 2961.22 3116.958 2961.219 L 3158.385 0 L 0 0 L 0 0 Z " fill-rule="evenodd" fill="rgb(220,20,60)"/></g><path d=" M 1319.821 196.515 C 1371.29 286.357 1391.93 371.377 1420.378 452.577 C 1467.495 446.176 1521.402 458.987 1574.784 462.739 C 1635.727 474.691 1683.929 479.865 1729.19 472.908 C 1756.973 344.957 1781.025 281.036 1836.34 191.021 C 1811.796 207.713 1759.56 214.535 1739.081 244.869 C 1708.384 217.562 1684.037 234.655 1668.746 263.553 C 1673.949 240.488 1667.071 220.935 1636.876 219.044 C 1654.776 185.483 1627.214 168.838 1598.412 183.874 C 1597.612 154.644 1574.251 154.401 1572.586 138.815 C 1568.709 156.867 1548.233 147.937 1551.156 191.571 C 1527.841 172.836 1505.06 185.042 1513.791 217.945 C 1485.501 217.818 1477.603 241.114 1480.272 270.145 C 1460.87 225.131 1424.425 238.878 1411.586 254.758 C 1388.836 209.936 1371.647 238.239 1319.821 196.515 L 1319.821 196.515 Z " fill-rule="evenodd" fill="rgb(246,209,85)"/><path d=" M 1773.777 425.505 C 1740.993 481.851 1726.948 485.766 1583.183 463.659 C 1469.476 452.315 1367.041 420.204 1362.339 523.255 C 1399.952 527.721 1454.659 531.803 1478.485 612.191 L 1408.902 671.564 C 1359.752 679.3 1282.235 745.06 1231.027 683.911 C 1216.972 741.413 1269.761 757.593 1324.839 755.287 C 1363.433 751.326 1375.757 740.966 1447.808 726.722 L 1466.902 747.258 C 1575.725 756.264 1632.082 911.905 1455.59 1003.223 C 1448.754 1024.36 1460.032 1049.719 1476.809 1052.721 C 1425.498 1125.297 1341.299 1215.842 1311.089 1156.098 C 1304.053 1162.71 1284.231 1212.093 1322.652 1239.38 C 1293.462 1275.324 1282.183 1317.853 1283.746 1366.974 C 1167.415 1348.801 1090.792 1329.082 1116.87 1220.288 C 1240.645 1226.005 1274.184 1076.528 1255.996 1000.758 C 1184.069 698.098 793.636 455.355 509.463 447.441 C 525.271 529.79 576.078 589.208 633.932 644.007 C 558.574 607.323 471.121 571.757 379.526 590.409 C 390.112 655.461 425.383 730.918 573.807 854.008 C 466.828 790.483 368.155 728.465 333.401 677.945 C 317.96 698.776 309.258 783.616 400.588 845.538 C 371.585 833.97 228.243 834.998 184.9 866.758 C 211.086 926.342 330.708 1030.486 428.869 1062.597 C 335.792 1049.061 248.544 1011.553 168.65 943.818 C 156.848 954.409 169.104 1064.673 268.338 1108.569 C 236.197 1110.708 126.557 1141.464 98.244 1176.788 C 155.447 1253.152 301.715 1320.421 374.4 1320.695 C 275.254 1333.624 166.98 1313.688 121.963 1299.508 C 122.963 1324.847 101.644 1426.615 372.994 1409.816 C 276.185 1455.558 130.069 1550.778 106.744 1634.725 C 200.797 1676.366 369.456 1642.052 456.682 1614.693 C 198.745 1771.905 158.494 1788.06 110.65 1777.508 C 173.103 1909.546 323.593 1820.337 453.619 1746.38 C 293.766 1960.264 267.774 2069.302 271.182 2220.848 C 399.913 2205.358 586.256 2020.96 685.557 1863.753 C 570.486 2100.448 501.995 2290.729 376.526 2346.723 C 519.473 2403.356 642.078 2223.965 728.214 2033.697 C 695.223 2154.136 681.576 2409.437 723.714 2471.883 C 852.951 2384.321 950.849 2189.906 1016.464 1967.009 C 994.083 2076.846 977.52 2186.668 937.276 2296.504 C 1020.351 2312.306 1062.814 2163.239 1090.839 2075.913 C 1093.426 2080.487 1096.508 2084.338 1104.527 2091.786 C 1209.479 2015.646 1242.875 1838.899 1250.246 1769.696 C 1345.937 1796.888 1388.043 1762.184 1412.558 1744.381 C 1433.516 1773.407 1434.847 1818.682 1440.746 1824.878 C 1336.665 1740.338 1225.032 1825.07 1220.464 1965.88 C 1209.187 2024.639 1177.79 2092.604 1099.214 2145.193 C 1104.126 2151.587 1115.104 2154.18 1129.339 2153.912 C 1115.65 2177.463 1103.232 2197.821 1080.027 2219.162 C 1086.024 2222.637 1093.522 2223.11 1100.62 2224.381 C 1083.156 2253.553 1054.001 2281.097 1024.87 2295.13 C 1031.86 2301.831 1035.837 2304.08 1057.026 2309.822 C 1037.613 2335.602 1005.935 2358.86 976.058 2371.412 C 1033.066 2405.272 1076.62 2409.616 1111.964 2406.384 C 1112.027 2406.374 1112.089 2406.384 1112.152 2406.384 C 1089.596 2451.001 1053.219 2473.594 1017.683 2493.633 C 1028.737 2504.013 1042.034 2506.261 1053.089 2503.163 C 1020.966 2536.538 987.032 2562.83 956.401 2572.322 C 961.979 2576.499 965.889 2582.242 985.62 2580.76 C 963.698 2607.812 937.107 2634.231 890.058 2646.508 C 899.367 2664.413 918.503 2661.666 935.026 2662.26 C 922.175 2689.925 881.928 2699.213 841.183 2707.791 C 871.888 2716.472 892.766 2732.965 874.495 2728.666 C 862.1 2743.607 849.937 2751.342 823.37 2755.322 C 796.071 2759.409 698.351 2724.214 658.963 2737.788 C 647.812 2715.584 620.828 2700.286 592.37 2700.286 C 556.007 2700.286 520.266 2723.467 518.588 2755.851 C 512.956 2751.949 489.227 2748.826 492.838 2776.975 C 501.4 2793.552 501.818 2806.857 554.151 2827.01 C 562.676 2830.805 573.05 2832.791 585.62 2832.261 C 604.26 2831.475 625.114 2822.111 640.713 2808.569 L 640.401 2809.13 C 666.458 2813.953 695.147 2818.322 710.995 2824.946 C 669.769 2828.236 655.59 2850.988 632.088 2867.354 C 622.194 2866.856 614.012 2864.409 605.057 2862.978 L 605.338 2863.291 C 599.966 2861.938 594.54 2861.344 589.245 2861.63 C 559.813 2863.222 530.144 2896.392 526.963 2933.977 C 526.318 2941.598 528.203 2948.88 531.901 2955.542 L 531.463 2961.942 C 522.878 2972.539 526.279 2980.965 534.651 2987.071 C 570.58 3001.341 592.011 2992.564 604.932 2989.945 C 637.533 2985.992 664.807 2959.119 664.807 2929.225 C 664.807 2929.155 664.808 2929.086 664.807 2929.007 L 665.495 2929.755 C 704.06 2921.745 742.086 2911.033 763.214 2895.479 C 764.301 2897.823 764.937 2900.379 764.464 2903.509 C 751.045 2911.461 728.975 2924.09 717.307 2963.009 C 713.826 2962.684 710.507 2962.512 707.37 2962.512 C 663.259 2962.442 652.371 2992.904 653.151 3017.79 C 653.911 3042.051 662.728 3057.682 675.307 3067.104 C 672.638 3082.21 674.49 3094.838 690.12 3099.885 C 742.78 3108.144 755.446 3080.9 766.026 3081.572 C 765.44 3074.647 766.855 3069.735 768.807 3065.353 C 784.959 3057.854 795.914 3051.722 797.432 3021.381 C 798.818 3002.537 795.61 2991.001 789.432 2983.636 L 790.839 2984.038 C 790.845 2984.09 790.863 2984.142 790.87 2984.194 C 790.92 2984.142 790.974 2984.107 791.027 2984.073 L 791.464 2984.194 L 791.402 2983.752 C 839.631 2942.577 870.513 2910.071 891.339 2882.597 C 909.898 2886.865 951.518 2885.887 971.995 2879.033 L 971.183 2886.411 C 951.863 2904.795 964.995 2948.691 990.496 2947.72 C 989.398 2951.846 989.598 2955.57 990.496 2959.69 C 1007.045 2969.898 1037.627 2962.73 1060.964 2967.943 C 1072.931 2966.537 1078.616 2958.495 1075.589 2942.099 L 1075.183 2941.85 C 1093.904 2930.761 1106.463 2910.761 1104.058 2885.472 C 1104.058 2850.526 1076.771 2822.611 1043.121 2820.408 L 1043.308 2820.252 C 1007.292 2816.362 972.734 2842.34 980.277 2786.25 C 1078.869 2669.497 1213.46 2493.122 1250.246 2471.691 C 1247.309 2467.871 1245.33 2462.85 1243.652 2457.971 C 1258.258 2496.641 1313.509 2537.414 1371.621 2533.906 C 1361.16 2513.996 1349.547 2496.309 1345.402 2443.093 C 1354.089 2455.651 1368.908 2461.541 1387.027 2465.253 C 1359.86 2340.936 1400.395 2238.663 1483.871 2145.187 C 1477.244 2265.472 1462.05 2386.512 1389.027 2509.123 C 1426.602 2520.889 1475.705 2482.588 1482.465 2459.842 C 1490.456 2568.151 1387.831 2707.561 1307.559 2640.721 C 1257.166 2751.515 1376.679 2805.279 1452.059 2740.968 C 1439.317 2807.994 1386.939 2847.393 1329.84 2862.781 C 1272.74 2878.169 1213.248 2853.909 1251.215 2762.502 C 1243.167 2757.743 1128.632 2754.842 1125.402 2879.721 C 1128.817 2951.876 1177.54 2979.029 1181.933 2980.282 C 1018.62 3104.176 1183.154 3242.258 1317.902 3215.436 C 1424.754 3198.95 1485.476 3112.372 1524.184 3049.594 C 1512.481 3094.761 1464.163 3239.786 1587.278 3396.845 C 1709.258 3206.346 1657.663 3078 1654.715 3057.629 C 1750.601 3205.42 1845.144 3216.069 1901.028 3212.408 C 1996.547 3213.941 2131.782 3063.838 1959.841 2967.813 C 2047.831 2925.923 2053.635 2751.898 1929.684 2742.968 C 1955.215 2811.923 1901.337 2853.595 1841.903 2848.217 C 1782.469 2842.845 1727.694 2808.575 1706.622 2731.374 C 1823.637 2787.649 1877.947 2676.939 1838.122 2616.844 C 1738.259 2699.417 1691.029 2566.957 1677.622 2488.126 C 1703.131 2507.545 1725.209 2514.29 1768.122 2507.941 C 1686.888 2403.477 1667.92 2263.352 1660.653 2131.753 C 1715.941 2219.66 1770.523 2327.254 1768.747 2432.656 C 1781.541 2426.377 1793.171 2424.671 1816.215 2378.533 C 1818.293 2457.37 1809.296 2468.044 1782.622 2501.029 C 1826.301 2519.387 1883.666 2484.077 1910.965 2437.217 C 1911.052 2437.095 1911.122 2436.968 1911.216 2436.846 C 1996.085 2551.421 2087.694 2669.03 2176.81 2759.971 C 2196.136 2780.144 2202.824 2800.316 2167.029 2807.406 C 2052.499 2765.132 2040.484 2884.895 2087.997 2901.094 C 2084.248 2911.92 2083.198 2923.144 2086.467 2934.967 C 2109.003 2941.917 2155.065 2923.24 2167.404 2922.562 C 2173.14 2917.388 2173.192 2906.548 2173.029 2895.472 C 2184.527 2894.903 2192.391 2888.874 2197.873 2879.28 C 2220.206 2883.566 2241.872 2886.427 2270.123 2863.093 L 2354.811 2948.158 C 2359.206 2950.687 2350.325 2959.771 2362.311 2960.939 C 2352.897 3017.432 2374.38 3023.851 2392.811 3038.096 C 2389.031 3092.141 2469.915 3060.982 2477.842 3064.061 C 2486.409 3059.009 2487.139 3053.171 2485.749 3047.127 C 2495.151 3037.265 2490.751 3032.257 2487.655 3025.282 C 2528.177 2963.513 2470.704 2916.417 2439.092 2921.815 C 2405.464 2884.907 2381.219 2869.392 2354.061 2847.284 C 2409.635 2868.255 2495.376 2891.966 2519.999 2910.125 C 2529.372 2973.159 2584.645 2947.117 2625.374 2949.282 C 2638.03 2931.505 2631.232 2925.993 2625.374 2919.905 C 2678.978 2850.759 2565.885 2794.023 2517.749 2834.873 C 2489.191 2808.524 2464.469 2803.918 2438.717 2793.468 C 2449.466 2782.66 2472.227 2774.222 2523.405 2770.907 C 2546.361 2786.11 2569.293 2791.456 2592.249 2774.656 C 2602.12 2796.278 2621.772 2790.67 2628.749 2786.691 C 2645.54 2767.33 2646.012 2737.934 2650.593 2711.061 C 2646.013 2701.326 2638.712 2694.977 2626.124 2695.251 C 2591.362 2635.789 2524.221 2671.943 2520.374 2698.625 C 2462.5 2703.364 2411.034 2710.748 2349.905 2735.155 C 2329.742 2741.23 2310.557 2719.416 2293.467 2706.909 C 2308.938 2700.726 2322.43 2693.674 2322.061 2680.56 C 2297.306 2678.133 2273.136 2679.864 2244.53 2650.468 L 2252.061 2630.155 C 2229.981 2623.391 2206.245 2607.306 2177.186 2561.654 C 2183.28 2558.026 2189.03 2551.983 2194.123 2541.341 C 2161.093 2533.708 2134.054 2516.225 2112.061 2490.534 C 2119.933 2486.676 2127.41 2479.968 2134.279 2469.091 C 2103.471 2450.496 2073.818 2434.316 2014.779 2357.377 C 2014.557 2357 2014.336 2356.586 2014.123 2356.254 C 2076.296 2366.634 2141.233 2360.508 2179.655 2332.562 C 2149.101 2324.047 2095.182 2306.27 2071.123 2259.749 C 2083.054 2258.779 2089.612 2256.447 2097.03 2254.345 C 2050.402 2223.563 2038.054 2206.917 2026.217 2181.967 C 2036.03 2182.951 2050.061 2178.492 2054.748 2171.657 C 2024.682 2158.134 2011.5 2139.419 2000.78 2119.029 C 2013.136 2119.285 2026.133 2121.693 2036.123 2114.06 C 1917.349 2060.487 1933.864 1782.778 1806.373 1781.934 C 1749.63 1786.578 1739.324 1798.874 1710.061 1813.815 C 1718.642 1790.06 1733.181 1767.792 1748.342 1745.684 C 1817.975 1778.21 1873.165 1759.877 1891.873 1743.564 C 1901.383 1855.175 1937.176 1974.937 2014.655 2034.872 C 2027.934 2027.392 2043.888 2017.779 2053.623 2007.035 C 2067.441 2110.719 2106.16 2246.999 2193.092 2235.687 C 2153.03 2135.854 2153.67 2035.537 2149.249 1935.781 C 2185.694 2228.533 2275.543 2399.275 2349.811 2450.471 C 2384.028 2405.266 2409.532 2191.58 2392.936 2063.253 C 2465.957 2195.426 2546.998 2317.819 2614.937 2317.155 C 2645.715 2316.848 2679.893 2291.655 2700.531 2285.281 C 2594.042 2242.311 2521.747 2046.242 2456.343 1924.155 C 2579.065 2116.327 2724.733 2202.886 2793.437 2215.904 C 2795.898 2156.474 2809.054 1990.197 2656.249 1759.814 C 2929.329 1904.379 2987.352 1811.017 3003.343 1761.219 C 2880.112 1804.163 2713.911 1645.763 2602.593 1595.408 L 2601.093 1591.001 C 2763.971 1665.334 2923.79 1690.955 3023.25 1628.28 C 2938.232 1497.09 2855.896 1449.297 2766.406 1415.59 C 2943.227 1435.219 3001.194 1375.067 3004.844 1309.216 C 2940.316 1331.024 2880.62 1334.429 2803.687 1322.126 C 2972.905 1288.029 3003.419 1216.238 3001.75 1209.059 C 2958.407 1175.383 2876.558 1137.46 2802.625 1130.497 C 3006.653 1057.186 2941.799 988.071 2934.219 966.373 C 2870.775 1025.842 2760.197 1068.268 2740.656 1066.499 C 2835.895 1016.835 2918.479 886.904 2913.125 872.219 C 2865.548 847.735 2767.009 848.936 2727.406 860.907 C 2767.03 817.432 2819.058 743.022 2771.062 681.126 C 2724.902 746.37 2681.006 781.067 2637.156 815.126 C 2676.949 764.792 2723.17 707.047 2739 588.844 C 2679.411 596.649 2625.401 590.805 2548.062 641.874 C 2592.439 586.436 2619.751 531.879 2625.156 465.812 C 2358.638 484.515 2047.11 624.238 1896.78 972.594 C 1853.147 1074.931 1887.191 1249.109 2024.343 1229.25 C 2045.978 1317.137 1987.827 1370.845 1861.467 1366.967 C 1858.794 1337.546 1868.012 1279.253 1831.78 1248.56 C 1862.474 1246.573 1868.485 1230.783 1874.905 1217.375 C 1792.428 1198.34 1805.785 1170.969 1821.155 1024.436 C 1832 1028.94 1844.368 1026.333 1853.749 1017.653 C 1819.667 986.232 1830.934 928.111 1848.124 744.997 C 1851.576 665.189 1835.138 625.241 1817.624 611.469 C 1828.182 606.11 1835.101 597.435 1829.655 577.531 C 1867.803 570.831 1851.646 524.277 1835.936 509.184 C 1828.277 529.937 1795.584 537.596 1764.592 514.594 C 1802.062 497.514 1802.402 455.017 1773.78 425.499 L 1773.777 425.505 Z  M 1927.934 2393.385 C 1929.199 2394.911 1930.512 2396.349 1931.84 2397.754 C 1930.508 2396.427 1929.193 2395.058 1927.871 2393.634 C 1927.888 2393.547 1927.906 2393.46 1927.941 2393.386 L 1927.934 2393.385 Z  M 1147.995 2399.038 C 1144.306 2412.855 1150.864 2450.625 1151.652 2475.753 C 1164.282 2481.969 1186.58 2475.536 1212.152 2465.789 C 1210.764 2466.389 1209.405 2466.977 1208.027 2467.571 C 1188.788 2474.699 1165.866 2481.994 1151.464 2476.194 L 1146.964 2419.977 C 1146.011 2413.627 1146.103 2406.773 1147.87 2399.07 C 1147.913 2399.057 1147.952 2399.053 1147.996 2399.035 L 1147.995 2399.038 Z  M 1138.589 2401.663 C 1136.474 2402.289 1134.316 2402.827 1132.089 2403.286 C 1134.236 2402.782 1136.382 2402.258 1138.589 2401.663 Z  M 1944.059 2408.537 C 1972.234 2429.137 2007.014 2429.711 2019.84 2426.633 C 2020.566 2425.029 2021.204 2423.407 2021.778 2421.791 C 2021.327 2423.612 2020.809 2425.451 2020.247 2427.323 C 1993.705 2431.366 1968.101 2426.991 1944.059 2408.537 L 1944.059 2408.537 Z  M 973.214 2878.603 C 973.212 2878.62 973.216 2878.638 973.214 2878.673 L 973.151 2878.638 C 973.172 2878.625 973.193 2878.621 973.214 2878.603 L 973.214 2878.603 Z  M 1695.809 2909.883 C 1722.293 2937.683 1824.44 3013.255 1942.934 2976.724 C 1952.779 3043.691 1895.886 3068.91 1850.965 3059.757 C 1807.057 3050.814 1741.024 3015.778 1695.809 2909.883 L 1695.809 2909.883 Z  M 1460.371 2927.009 C 1421.923 3000.166 1358.197 3062.024 1301.464 3076.914 C 1244.732 3091.803 1191.871 3063.595 1212.464 2989.946 C 1334.974 3030.961 1434.52 2958.416 1460.371 2927.009 Z " fill-rule="evenodd" fill="rgb(255,255,255)"/><path d=" M 895.214 1571.193 C 853.851 1522.328 859.912 1491.437 861.214 1474.191 C 815.575 1439.742 827.572 1426.136 819.714 1412.192 C 835.547 1440.1 851.38 1458.585 867.214 1461.192 C 897.38 1488.837 927.547 1498.131 957.714 1516.195 C 773.233 1415.354 824.075 1291.65 826.214 1256.193 C 797.386 1257.151 776.214 1251.223 760.714 1240.192 C 766.025 1190.19 792.271 1149.545 848.214 1122.193 C 841.214 1124.62 834.214 1127.948 827.214 1129.194 C 820.653 1127.827 804.729 1086.607 824.714 1059.69 C 836.194 1052.421 867.24 1049.86 898.714 1062.194 C 917.325 1024.737 941.428 991.393 991.714 977.692 C 1004.133 990.524 1025.118 1028.767 1010.214 1095.193 C 1030.848 1102.839 1051.024 1112.459 1067.714 1137.191 C 1062.547 1158.302 1057.381 1164.249 1052.214 1169.691 C 1132.886 1170.535 1140.74 1057.314 1050.8 1045.401 C 1065.356 938.804 928.683 875.196 869.214 1006.691 C 759.774 977.34 730.4 1062.597 771.714 1129.194 C 758.362 1138.96 650.091 1218.813 753.214 1333.19 C 753.006 1389.529 767.32 1444.264 843.714 1492.191 C 865.662 1556.783 879.556 1556.93 895.214 1571.193 L 895.214 1571.193 Z " fill-rule="evenodd" fill="rgb(223,221,226)"/><path d=" M 2251.674 976.095 L 2266.237 948.462 C 2364.74 933.093 2424.28 999.001 2385.727 1076.917 C 2465.252 1144.933 2421.507 1233.287 2373.405 1250.923 C 2430.832 1208.739 2399.232 1195.709 2389.461 1196.405 C 2392.531 1194.999 2397.35 1192.33 2401.41 1188.938 C 2398.241 1151.768 2383.635 1116.585 2326.355 1074.305 C 2354.652 1042.967 2351.806 1013.2 2348.013 992.153 C 2316.482 983.945 2288.557 986.545 2263.996 999.25 L 2251.674 976.095 L 2251.674 976.095 Z " fill-rule="evenodd" fill="rgb(223,221,226)"/><path d=" M 2115.38 1167.654 C 2119.93 1152.273 2124.112 1127.565 2151.974 1104.173 C 2143.25 1110.542 2133.564 1118.348 2122.848 1127.699 C 2087.029 1113.174 2064.056 1080.367 2058.622 1060.488 C 2080.529 1032.172 2132.681 1036.279 2140.025 1038.081 C 2124.869 980.969 2144.512 938.555 2158.695 922.324 C 2205.913 926.68 2230.367 950.992 2249.433 972.735 L 2263.623 947.344 C 2250.727 907.268 2211.197 877.087 2164.683 886.649 C 2125.807 890.781 2081.68 924.546 2099.324 1003.728 C 1982.108 1050.964 2032.014 1163.349 2115.38 1167.654 L 2115.38 1167.654 Z " fill-rule="evenodd" fill="rgb(223,221,226)"/><path d=" M 1860.343 1368.175 C 1856.033 1411.393 1847.543 1442.91 1838.312 1472.357 C 1997.614 1448.448 2233.573 1407.414 2201.637 1232.252 C 2172.636 1253.363 2143.635 1257.221 2114.633 1257.643 C 2109.679 1232.699 2106.922 1206.184 2115.754 1171.391 C 2089.44 1207.04 2058.372 1220.505 2026.136 1228.522 C 2170.305 1292.864 1965.142 1406.628 1879.387 1368.175 L 1860.343 1368.175 L 1860.343 1368.175 Z " fill-rule="evenodd" fill="rgb(241,238,240)"/><path d=" M 1285.019 1433.821 C 1289.585 1483.414 1304.975 1543.758 1320.136 1599.637 C 1310.041 1583.681 1279.399 1486.518 1285.019 1433.821 Z " fill-rule="evenodd" fill="rgb(232,230,235)"/><path d=" M 1758.969 1398.44 C 1720.451 1551.027 1890.264 1536.221 1771.115 1379.698 C 1886.947 1450.607 1811.004 1556.642 1805.176 1580.366 C 1787.003 1498.521 1715.331 1477.863 1758.968 1398.44 L 1758.969 1398.44 Z " fill-rule="evenodd" fill="rgb(195,189,201)"/><path d=" M 991.631 980.439 L 934.094 1149.455 C 919.863 1143.413 906.617 1137.709 888.114 1116.24 C 888.552 1057.69 940.372 984.699 991.631 980.439 L 991.631 980.439 Z " fill-rule="evenodd" fill="rgb(255,255,255)"/><path d=" M 1037.354 1309.753 L 933.719 1149.628 C 949.911 1149.264 968.807 1149.698 991.322 1144.307 C 1021.821 1172.892 1055.754 1247.199 1037.354 1309.753 Z " fill-rule="evenodd" fill="rgb(195,189,201)"/><path d=" M 1008.036 1096.489 C 1039.259 1105.17 1060.913 1125.463 1064.496 1138.137 L 991.376 1144.926 C 998.368 1129.807 1003.615 1113.046 1008.036 1096.489 L 1008.036 1096.489 Z " fill-rule="evenodd" fill="rgb(255,255,255)"/><path d=" M 826.823 1128.53 C 813.177 1108.824 813.244 1068.435 827.375 1060.144 L 888.351 1116.406 C 872.124 1120.162 842.609 1121.855 826.823 1128.53 L 826.823 1128.53 Z " fill-rule="evenodd" fill="rgb(255,255,255)"/><path d=" M 762.396 1238.537 L 933.229 1150.369 C 936.815 1148.172 908.951 1121.746 887.812 1116.47 C 842.201 1110.676 766.29 1167.769 762.396 1238.537 Z " fill-rule="evenodd" fill="rgb(255,255,255)"/><linearGradient id="_lgradient_0" x1="0.02550558365089195" y1="0.042923928295380165" x2="0.8583862165765264" y2="0.7019424147472741" gradientTransform="matrix(406.068,0,0,299.094,891.272,1238.742)" gradientUnits="userSpaceOnUse"><stop offset="0%" stop-opacity="1" style="stop-color:rgb(195,189,201)"/><stop offset="100%" stop-opacity="0" style="stop-color:rgb(195,189,201)"/></linearGradient><path d=" M 904.438 1238.742 C 816.267 1491.188 1196.091 1530.3 1297.341 1537.837 L 1285.124 1474.567 C 1101.445 1466.398 930.129 1425.874 955.487 1287.825 C 922.304 1267.059 915.193 1257.707 904.438 1238.742 Z " fill-rule="evenodd" fill="url(#_lgradient_0)"/><linearGradient id="_lgradient_1" x1="2.125710373951404" y1="1.879745565704535" x2="0.0764208164232123" y2="0.8193393430326439" gradientTransform="matrix(499.788,0,0,360.398,819.369,1238.084)" gradientUnits="userSpaceOnUse"><stop offset="0%" stop-opacity="1" style="stop-color:rgb(195,189,201)"/><stop offset="100%" stop-opacity="0" style="stop-color:rgb(195,189,201)"/></linearGradient><path d=" M 904.657 1238.084 C 884.338 1248.068 855.212 1252.508 826.993 1256.851 C 753.889 1563.049 1228.315 1587.213 1319.156 1598.481 C 1304.887 1570.203 1301.303 1555.237 1297.213 1536.783 C 1056.448 1521.191 833.798 1431.01 904.657 1238.084 L 904.657 1238.084 Z " fill-rule="evenodd" fill="url(#_lgradient_1)"/><path d=" M 2159.547 923.793 C 2186.167 978.675 2214.632 1043.274 2234.716 1104.691 C 2246.2 1087.898 2257.426 1071.06 2280.402 1051.712 C 2267.81 994.07 2239.053 933.074 2159.546 923.793 L 2159.547 923.793 Z " fill-rule="evenodd" fill="rgb(195,189,201)"/><path d=" M 2159.599 923.397 C 2186.416 979.64 2217.201 1046.979 2234.923 1104.518 L 2170.215 1095.193 C 2131.878 1053.526 2122.707 970.525 2159.599 923.397 L 2159.599 923.397 Z " fill-rule="evenodd" fill="rgb(255,255,255)"/><path d=" M 2060.227 1060.246 C 2077.004 1041.038 2112.767 1034.957 2141.61 1039.921 C 2148.153 1055.864 2158.674 1078.419 2170.457 1095.678 L 2060.227 1060.246 L 2060.227 1060.246 Z " fill-rule="evenodd" fill="rgb(195,189,201)"/><path d=" M 2346.196 993.597 L 2280.198 1052.459 L 2323.049 1074.886 C 2357.581 1045.267 2348.06 993.176 2346.196 993.597 L 2346.196 993.597 Z " fill-rule="evenodd" fill="rgb(195,189,201)"/><path d=" M 2280.243 1051.495 C 2269.659 1053.686 2232.827 1104.512 2235.234 1104.059 L 2399.999 1188.082 C 2400.625 1159.567 2374.402 1089.584 2280.243 1051.495 L 2280.243 1051.495 Z " fill-rule="evenodd" fill="rgb(195,189,201)"/><path d=" M 2234.671 1103.599 L 2115.923 1256.959 C 2191.898 1253.67 2222.377 1219.905 2248.966 1177.944 L 2234.671 1103.599 L 2234.671 1103.599 Z " fill-rule="evenodd" fill="rgb(195,189,201)"/><path d=" M 2346.269 993.597 C 2320.808 985.115 2287.193 987.81 2263.771 1000.802 C 2271.565 1017.276 2276.839 1037.595 2280.594 1052.287 L 2346.269 993.597 L 2346.269 993.597 Z " fill-rule="evenodd" fill="rgb(255,255,255)"/><path d=" M 2234.648 1103.778 L 2400.24 1188.075 C 2369.953 1213.051 2274.217 1189.756 2248.547 1178.538 L 2234.648 1103.778 L 2234.648 1103.778 Z " fill-rule="evenodd" fill="rgb(255,255,255)"/><path d=" M 2234.903 1104.129 L 2170.031 1094.898 C 2098.028 1125.067 2110.754 1247.998 2116.207 1256.972 L 2234.903 1104.129 L 2234.903 1104.129 Z " fill-rule="evenodd" fill="rgb(255,255,255)"/><path d=" M 2169.436 1095.282 L 2060.275 1060.098 C 2065.637 1086.422 2097.788 1116.15 2122.205 1126.128 C 2127.404 1121.401 2151.48 1099.325 2169.436 1095.282 Z " fill-rule="evenodd" fill="rgb(255,255,255)"/><path d=" M 2250.805 1178.372 C 2230.588 1208.145 2224.326 1216.034 2201.966 1231.192 C 2240.579 1408.449 1985.939 1452.76 1838.715 1473.443 C 1837.284 1497.844 1829.55 1518.444 1822.465 1537.192 C 1849.008 1535.333 2371.672 1525.298 2250.805 1178.372 Z " fill-rule="evenodd" fill="rgb(255,255,255)"/><linearGradient id="_lgradient_2" x1="1.1802217239013988" y1="-0.14852001811573023" x2="-0.0019284364924612163" y2="0.7557829013412383" gradientTransform="matrix(518.399,0,0,407.295,1803.126,1180.697)" gradientUnits="userSpaceOnUse"><stop offset="0%" stop-opacity="1" style="stop-color:rgb(195,189,201)"/><stop offset="100%" stop-opacity="0" style="stop-color:rgb(195,189,201)"/></linearGradient><path d=" M 2253.718 1180.697 C 2324.125 1438.554 2093.875 1512.063 1822.661 1536.642 C 1816.061 1552.688 1809.725 1570.075 1803.126 1587.993 C 2171.254 1562.276 2363.887 1443.281 2313.658 1195.198 C 2290.022 1191.582 2271.423 1186.293 2253.718 1180.697 Z " fill-rule="evenodd" fill="url(#_lgradient_2)"/><path d=" M 535.276 2987.257 C 564.848 3000.901 601.411 2991.62 621.151 2985.947 C 631.755 2996.046 617.891 3035.803 649.276 3064.758 C 631.348 3072.602 533.199 3042.421 535.276 2987.257 L 535.276 2987.257 Z " fill-rule="evenodd" fill="rgb(246,209,85)"/><path d=" M 493.109 2775.36 C 505.387 2814.567 540.114 2818.764 554.284 2826.902 C 553.904 2841.715 515.918 2840.993 514.542 2894.617 C 487.995 2892.221 451.051 2830.185 493.109 2775.36 L 493.109 2775.36 Z " fill-rule="evenodd" fill="rgb(246,209,85)"/><path d=" M 690.452 3099.36 C 738.314 3107.434 755.65 3081.756 766.377 3080.318 C 771.945 3095.987 793.335 3116.389 814.117 3127.057 C 804.407 3162.202 688.375 3154.524 690.452 3099.36 L 690.452 3099.36 Z " fill-rule="evenodd" fill="rgb(246,209,85)"/><path d=" M 1059.544 2968.298 C 1056.744 2962.326 1001.768 2968.982 991.836 2960.122 C 984.942 2968.637 982.902 2996.723 962.12 3007.397 C 975.389 3031.408 1067.282 3023.462 1059.544 2968.298 Z " fill-rule="evenodd" fill="rgb(246,209,85)"/><path d=" M 1164.254 2478.864 C 1172.464 2477.894 1180.391 2476.737 1187.11 2474.77 C 1154.791 2513.639 1100.954 2581.431 1046.867 2638.543 C 992.633 2695.808 943.279 2752.288 962.021 2803.51 C 924.423 2766.136 957.807 2729.65 1008.692 2669.478 C 1063.908 2604.184 1126.195 2528.924 1164.254 2478.864 L 1164.254 2478.864 Z  M 1096.214 2893.448 C 1096.214 2920.078 1074.074 2944.696 1020.714 2942.192 C 1080.854 2876.195 959.275 2872.126 988.214 2845.196 C 1068.878 2794.631 1102.214 2872.809 1096.214 2893.448 Z  M 1038.772 2951.492 C 1056.197 2955.153 1067.16 2933.479 1071 2944.517 C 1078.508 2966.337 1039.125 2970.349 1038.772 2951.492 Z  M 631.745 2723.007 C 619.493 2722.521 622.979 2772.127 550.245 2770.134 C 548.943 2769.795 542.116 2770.186 538.276 2777.008 C 529.437 2793.603 559.128 2827.438 586.182 2825.446 C 609.786 2823.708 629.511 2810.179 641.745 2793.354 C 647.29 2790.236 685.899 2768.826 682.713 2778.068 C 637.405 2800.188 648.709 2814.184 720.557 2819.415 C 765.867 2812.696 804.317 2773.469 820.589 2765.318 C 774.289 2773.341 675.684 2742.52 652.807 2742.348 C 649.563 2733.93 642.932 2727.024 632.338 2723.07 C 632.136 2723.035 631.939 2723.018 631.745 2723 L 631.745 2723.007 Z  M 550.448 2976.398 C 549.262 2980.544 546.817 2983.463 543.683 2985.667 C 556.514 2993.836 591.009 2991.651 594.835 2988.841 C 591.032 2988.754 562.677 2987.04 550.448 2976.398 L 550.448 2976.398 Z  M 889.214 2770.697 C 827.583 2800.782 785.198 2909.475 632.214 2895.192 C 628.397 2908.555 619.904 2911.244 612.026 2915.319 C 580.124 2914.891 543.342 2922.512 543.713 2942.448 C 544.163 2966.593 581.321 2981.693 606.213 2978.697 C 631.412 2975.657 657.691 2951.614 657.714 2927.475 C 657.714 2927.465 657.714 2927.458 657.714 2927.44 C 658.54 2925.479 659.827 2923.914 662.464 2923.94 C 831.785 2887.358 857.778 2800.409 889.214 2770.694 L 889.214 2770.697 Z  M 916.214 2773.692 C 909.5 2814.803 776.1 2937.446 769.901 2977.599 C 762.818 2972.118 752.602 2968.177 731.276 2969.289 C 743.678 3030.699 692.393 3049.505 678.713 3038.978 C 678.628 3066.726 719.029 3078.255 745.214 3073.228 C 775.994 3067.313 801.754 3020.211 783.901 2991.537 C 787.969 2940.748 854.758 2925.961 882.714 2860.692 C 907.355 2860.443 911.097 2822.29 941.714 2815.193 C 935.281 2795.404 910.212 2821.159 916.214 2773.692 Z  M 522.187 2773.622 C 526.111 2797.927 536.994 2808.16 555.055 2823.191 C 540.518 2817.985 526.156 2813.916 510.258 2799.863 C 524.851 2804.29 513.767 2769.809 522.187 2773.622 Z  M 841.731 2708.347 C 869.984 2714.888 907.078 2717.475 957.524 2714.531 C 884.149 2740.311 851.242 2731.553 841.731 2708.347 Z  M 934.212 2662.196 C 934.333 2666.125 928.279 2673.701 922.674 2678.556 C 958.072 2677.884 992.59 2670.571 1017.669 2642.58 C 994.366 2653.196 967.956 2662.024 934.212 2662.196 Z  M 984.224 2581.316 C 981.651 2586.043 972.433 2596.04 965.498 2603.296 C 994.714 2606.554 1053.016 2592.999 1078.095 2565.015 C 1054.792 2575.625 1017.968 2581.144 984.224 2581.316 L 984.224 2581.316 Z  M 1052.504 2503.579 C 1047.271 2509.25 1030.034 2525.967 1023.631 2531.358 C 1052.847 2534.616 1118.781 2511.269 1143.861 2483.285 C 1120.558 2493.895 1086.248 2503.406 1052.504 2503.579 L 1052.504 2503.579 Z  M 1146.39 2417.179 C 1144.591 2450.721 1133.294 2472.088 1121.095 2486.319 C 1131.213 2483.016 1141.331 2480.832 1151.449 2476.201 C 1150.476 2457.651 1148.769 2435.729 1146.39 2417.179 Z " fill-rule="evenodd" fill="rgb(223,221,226)"/><path d=" M 2086.295 2934.834 C 2115.408 2941.95 2150.852 2922.92 2167.822 2922.575 C 2175.736 2938.168 2178.805 2955.127 2211.344 2966.101 C 2189.873 2989.946 2109.153 2997.841 2086.295 2934.834 L 2086.295 2934.834 Z " fill-rule="evenodd" fill="rgb(246,209,85)"/><path d=" M 2411.484 3066.937 C 2400.773 3077.508 2388.907 3088.782 2368.574 3100.957 C 2404.978 3134.083 2479.039 3096.888 2476.153 3064.791 C 2469.538 3052.079 2448.188 3079.52 2411.484 3066.937 Z " fill-rule="evenodd" fill="rgb(246,209,85)"/><path d=" M 2553.389 2950.777 C 2554.019 2993.913 2548.462 3005.238 2543.582 3020.038 C 2564.332 3034.168 2617.946 3000.601 2623.576 2949.857 C 2617.957 2937.817 2595.174 2958.819 2553.389 2950.777 Z " fill-rule="evenodd" fill="rgb(246,209,85)"/><path d=" M 2651.773 2712.326 C 2636.357 2716.21 2645.551 2768.634 2627.867 2785.267 C 2642.374 2793.322 2652.197 2812.613 2662.807 2830.019 C 2696.83 2804.251 2695.57 2730.87 2651.773 2712.326 L 2651.773 2712.326 Z " fill-rule="evenodd" fill="rgb(246,209,85)"/><path d=" M 2123.381 2929.934 C 2139.704 2925.009 2157.387 2916.693 2163.838 2918.897 C 2173.701 2884.103 2150.565 2904.326 2123.381 2929.934 Z  M 2100.394 2902.04 C 2132.35 2901.72 2177.079 2907.162 2188.051 2864.653 C 2237.517 2888.421 2289.365 2842.692 2277.853 2800.591 C 2277.853 2800.591 2261.883 2873.315 2159.547 2827.26 C 2139.088 2824.27 2110.786 2837.205 2112.654 2851.162 C 2114.024 2868.984 2149.103 2884.147 2100.394 2902.04 L 2100.394 2902.04 Z  M 2371.026 2866.486 C 2397.001 2892.803 2413.581 2917.185 2407.806 2936.98 C 2423.877 2913.761 2425.424 2927.756 2428.954 2936.674 C 2448.121 2951.455 2462.492 2996.251 2414.548 3025.251 C 2437.058 3031.358 2438.923 3051.434 2414.242 3058.658 C 2415.308 3079.878 2471.925 3053.44 2477.073 3062.031 C 2481.473 3060.102 2482.938 3053.765 2484.122 3047.014 C 2488.9 3040.517 2489.454 3032.973 2484.429 3024.024 C 2521.007 2963.201 2475.602 2929.947 2436.922 2923.189 C 2413.194 2898.412 2392.444 2883.567 2371.026 2866.486 L 2371.026 2866.486 Z  M 2372.865 2800.898 C 2411.844 2825.554 2464.9 2844.8 2515.078 2877.524 C 2565.249 2827.522 2602.271 2910.082 2530.402 2915.53 C 2548.547 2948.957 2625.149 2946.766 2622.963 2920.123 C 2670.656 2829.744 2541.347 2807.598 2515.691 2840.131 C 2476.546 2818.042 2440.739 2793.258 2384.512 2782.814 C 2495.839 2830.651 2514.956 2845.649 2495.499 2848.243 C 2477.777 2850.6 2415.447 2815.263 2372.865 2800.898 L 2372.865 2800.898 Z  M 2407.107 2731.387 C 2437.692 2718.043 2504.047 2719.877 2521.886 2703.914 C 2551.159 2650.609 2605.464 2664.706 2622.741 2699.398 C 2635.091 2699.276 2644.337 2701.959 2645.697 2711.815 C 2634.313 2737.066 2641.609 2798.86 2609.57 2783.696 C 2615.419 2779.18 2612.547 2774.663 2609.57 2770.147 C 2595.951 2783.849 2595.864 2768.225 2595.646 2761.869 C 2575.14 2785.918 2564.759 2781.952 2549.735 2778.426 C 2553.378 2776.932 2554.997 2772.901 2554.627 2766.385 C 2614.554 2743.179 2562.556 2672.857 2513.984 2738.535 C 2497.499 2743.466 2432.218 2728.8 2407.107 2731.387 L 2407.107 2731.387 Z  M 1927.294 2393.826 L 1925.036 2400.973 C 1949.718 2423.356 2163.34 2658.587 2226.848 2759.237 C 2217.34 2737.87 2221.339 2729.036 2183.571 2683.972 C 2280.218 2738.145 2327.736 2690.065 2322.058 2679.455 C 2314.187 2680.381 2309.095 2681.468 2304.847 2679.245 C 2215.55 2724.815 2149.301 2649.275 2109.811 2599.297 C 2159.75 2639.137 2192.601 2646.279 2244.535 2649.351 C 2249.69 2640.306 2250.38 2635.726 2251.686 2630.533 C 2247.155 2629.684 2242.804 2628.476 2239.267 2625.64 C 2178.507 2648.591 2105.549 2602.491 2048.47 2525.162 C 2102.786 2564.178 2141.673 2560.403 2178.678 2560.914 C 2184.402 2554.347 2192.246 2548.624 2193.355 2540.212 C 2188.138 2540.614 2184.067 2538.723 2179.807 2537.203 C 2141.645 2550.483 2048.167 2545.986 2003.311 2467.585 C 2034.453 2488.491 2069.077 2500.832 2113.198 2489.788 C 2121.973 2483.049 2131.518 2476.419 2133.52 2468.715 C 2078.848 2482.564 2025.656 2482.365 1976.969 2439.357 C 1990.819 2439.497 2005.397 2434.547 2020.246 2427.693 C 1991.544 2430.095 1961.947 2427.131 1927.294 2393.826 L 1927.294 2393.826 Z " fill-rule="evenodd" fill="rgb(223,221,226)"/><path d=" M 1264.501 718.085 C 1370.684 774.865 1493.034 645.138 1578.859 715.62 C 1588.144 716.156 1589.38 709.238 1587.888 703.31 C 1488.079 613.833 1381.773 745.591 1264.501 718.085 Z " fill-rule="evenodd" fill="rgb(195,189,201)"/><path d=" M 1225.825 2348.665 L 1217.436 2357.525 C 1207.12 2404.136 1182.698 2441.363 1154.411 2476.993 C 1180.277 2481.189 1212.035 2466.574 1242.76 2453.282 C 1223.668 2417.626 1219.578 2393.877 1225.825 2348.665 L 1225.825 2348.665 Z " fill-rule="evenodd" fill="rgb(195,189,201)"/><path d=" M 1255.555 2286.571 C 1270.308 2315.852 1298.434 2267.894 1312.003 2254.959 C 1294.242 2318.35 1258.896 2382.443 1336.088 2441.995 C 1296.564 2446 1285.533 2463.125 1322.164 2502.205 C 1250.643 2467.002 1210.267 2408.633 1255.555 2286.571 L 1255.555 2286.571 Z " fill-rule="evenodd" fill="rgb(223,221,226)"/><path d=" M 1315.014 2251.95 C 1290.372 2377.147 1330.995 2426.045 1371.839 2437.856 C 1356.204 2302.559 1410.24 2205.882 1485.113 2131.901 C 1480.104 2005.808 1462.419 1949.22 1448.609 1858.318 C 1449.604 1900.425 1479.44 2015.729 1459.182 2096.347 C 1438.124 2180.153 1378.11 2261.525 1315.014 2251.95 Z " fill-rule="evenodd" fill="rgb(206,202,213)"/><path d=" M 1066.264 2381.032 C 1137.284 2385.771 1195.057 2363.331 1242.007 2315.175 C 1216.257 2378.036 1157.743 2407.476 1070.78 2398.719 C 1102.235 2393.053 1103.032 2387.694 1066.264 2381.032 Z " fill-rule="evenodd" fill="rgb(195,189,201)"/><path d=" M 1057.538 2309.1 C 1050.762 2319.703 1045.364 2324.794 1039.975 2329.854 C 1152.025 2344.436 1214.505 2290.902 1256.581 2244.17 C 1318.666 2247.709 1361.5 2207.421 1398.68 2166.47 C 1356.837 2199.603 1313.952 2226.891 1265.097 2220.752 C 1217.108 2290.544 1149.51 2323.019 1057.538 2309.1 L 1057.538 2309.1 Z " fill-rule="evenodd" fill="rgb(195,189,201)"/><path d=" M 1101.178 2223.946 C 1092.817 2241.416 1090.155 2241.129 1085.744 2246.833 C 1123.716 2254.722 1175.742 2239.973 1264.565 2165.934 C 1352.362 2163.883 1389.115 2106.305 1414.114 2081.317 C 1367.446 2121.629 1320.102 2143.009 1272.015 2143.584 C 1225.44 2191.114 1174.432 2229.772 1101.178 2223.946 L 1101.178 2223.946 Z " fill-rule="evenodd" fill="rgb(195,189,201)"/><path d=" M 1130.449 2153.695 L 1114.483 2178.709 C 1145.044 2177.005 1185.28 2178.255 1270.951 2099.413 C 1336.894 2085.494 1395.891 2036.156 1447.642 1949.859 C 1404.638 2002.896 1365.342 2059.752 1278.402 2067.481 C 1256.237 2118.282 1197.612 2139.457 1130.449 2153.695 L 1130.449 2153.695 Z " fill-rule="evenodd" fill="rgb(195,189,201)"/><path d=" M 1852.649 2258.005 C 1846.708 2303.511 1836.538 2344.788 1816.459 2376.158 C 1818.605 2391.06 1818.165 2405.963 1817.523 2420.864 C 1848.248 2389.559 1870.859 2300.464 1852.649 2258.005 L 1852.649 2258.005 Z " fill-rule="evenodd" fill="rgb(195,189,201)"/><path d=" M 1897.354 2279.826 C 1930.413 2365.682 1900.778 2479.887 1795.171 2499.625 C 1827.823 2513.179 1925.712 2468.51 1939.398 2335.711 L 2019.761 2426.186 C 2024.096 2405.381 2026.967 2384.372 2011.777 2353.801 C 1948.199 2340.425 1927.863 2315.43 1897.354 2279.826 L 1897.354 2279.826 Z " fill-rule="evenodd" fill="rgb(195,189,201)"/><path d=" M 1949.51 2307.503 C 1992.714 2326.385 2068.088 2354.209 2143.764 2321.339 C 2155.118 2326.014 2166.471 2329.611 2177.825 2331.45 C 2152.11 2358.381 2079.785 2364.858 2013.374 2355.934 C 2104.816 2343.958 1966.092 2333.475 1949.51 2307.503 L 1949.51 2307.503 Z " fill-rule="evenodd" fill="rgb(197,189,203)"/><path d=" M 1798.896 2154.225 C 1830.27 2176.416 1865.459 2189.843 1905.337 2189.351 C 1935.106 2245.907 2021.932 2261.627 2070.852 2259.072 C 2073.058 2266.794 2078.242 2273.521 2084.689 2279.826 C 2043.821 2280 1991.488 2266.712 1911.191 2215.962 C 1889.57 2208.482 1813.072 2172.916 1798.896 2154.225 L 1798.896 2154.225 Z " fill-rule="evenodd" fill="rgb(195,189,202)"/><path d=" M 1782.398 2069.608 C 1813.666 2095.471 1848.171 2109.193 1885.113 2113.779 C 1923.045 2154.123 1967.637 2174.909 2026.147 2182.433 L 2038.388 2203.723 C 2020.016 2205.57 1931.013 2165.736 1898.418 2135.599 C 1843.792 2122.025 1802.803 2094.923 1782.398 2069.608 L 1782.398 2069.608 Z " fill-rule="evenodd" fill="rgb(195,189,201)"/><path d=" M 1789.317 2001.484 C 1825.462 2036.936 1866.708 2051.359 1900.015 2051.512 C 1924.999 2077.708 1948.108 2104.753 2000.601 2118.57 C 2003.141 2125.73 2006.224 2131.805 2010.181 2136.136 C 1970.65 2135.452 1916.351 2080.614 1909.594 2071.736 C 1856.56 2064.134 1796.312 2037.382 1789.317 2001.484 Z " fill-rule="evenodd" fill="rgb(195,189,201)"/><path d=" M 1473.867 1840.905 C 1485.322 1836.51 1490.608 1830.059 1496.271 1823.729 C 1505.818 1836.829 1519.454 1839.71 1532.865 1843.147 C 1507.358 1842.253 1504.132 1854.262 1516.435 1875.257 C 1521.662 1883.645 1530.617 2009.283 1532.865 2085.117 C 1533.147 2155.363 1542.573 2200.983 1556.763 2231.49 C 1501.244 2184.726 1532.037 1901.85 1473.867 1840.905 Z " fill-rule="evenodd" fill="rgb(223,221,226)"/><path d=" M 1566.472 1846.137 C 1597.515 1843.224 1628.212 1841.474 1665.051 1819.251 L 1678.494 1834.932 C 1652.071 1892.594 1637.189 2028.733 1620.242 2150.834 C 1625.102 2073.122 1626.688 2003.745 1622.483 1984.295 C 1613.978 1940.425 1615.683 1913.731 1616.508 1906.627 C 1633.27 1845.676 1587.274 1860.579 1566.472 1846.137 L 1566.472 1846.137 Z " fill-rule="evenodd" fill="rgb(206,202,213)"/><path d=" M 1690.443 1841.653 L 1694.177 1845.389 C 1641.825 1959.543 1694.426 2221.283 1581.408 2353.22 L 1579.168 2302.437 C 1664.802 2245.933 1643.356 1957.435 1690.443 1841.653 Z " fill-rule="evenodd" fill="rgb(195,189,201)"/><path d=" M 1501.499 2123.201 C 1500.914 2310.147 1531.704 2345.516 1404.413 2501.094 C 1463.712 2451.666 1530.034 2300.349 1521.663 2386.832 C 1536.681 2359.083 1551.213 2331.508 1554.523 2307.669 C 1505.428 2223.736 1507.581 2175.132 1501.499 2123.201 Z " fill-rule="evenodd" fill="rgb(195,189,201)"/><path d=" M 1604.559 2329.323 L 1580.661 2357.704 L 1587.383 2604.899 C 1590.428 2502.32 1595.552 2408.051 1604.559 2329.323 Z " fill-rule="evenodd" fill="rgb(195,189,201)"/><path d=" M 1661.317 2150.087 C 1654.81 2188.303 1650.499 2234.205 1640.406 2259.87 C 1657.673 2457.657 1711.472 2476.654 1756.163 2494.367 C 1681.604 2388.646 1666.874 2246.731 1661.317 2150.087 L 1661.317 2150.087 Z " fill-rule="evenodd" fill="rgb(223,221,226)"/><path d=" M 1517.929 2409.233 C 1494.818 2461.49 1502.452 2561.853 1437.273 2627.301 C 1491.331 2599.604 1511.864 2532.444 1513.448 2480.18 L 1518.676 2535.446 C 1500.736 2648.725 1449.302 2679.571 1413.375 2686.303 C 1419.073 2684.726 1475.463 2696.632 1527.264 2581.75 C 1528.967 2623.481 1499.653 2669.944 1461.544 2685.556 C 1494.862 2686.668 1527.892 2656.057 1544.814 2632.532 C 1517.463 2551.754 1516.958 2480.238 1517.929 2409.233 L 1517.929 2409.233 Z " fill-rule="evenodd" fill="rgb(224,222,226)"/><path d=" M 1542.947 2579.131 C 1548.531 2606.26 1556.468 2645.812 1587.009 2684.061 L 1589.249 2731.854 C 1603.259 2713.483 1657.34 2560.32 1658.33 2510.055 C 1660.347 2494.124 1661.236 2475.626 1672.893 2487.648 C 1674.387 2488.759 1675.88 2488.778 1677.374 2486.9 C 1660.986 2475.702 1643.719 2420.398 1630.698 2402.135 C 1640.414 2461.949 1648.004 2546.649 1587.009 2672.856 C 1568.604 2650.909 1555.467 2615.795 1542.947 2579.13 L 1542.947 2579.131 Z " fill-rule="evenodd" fill="rgb(195,189,201)"/><path d=" M 1803.855 2676.389 C 1738.131 2710.148 1681.559 2628.731 1654.409 2578.167 L 1666.602 2509.129 C 1666.868 2506.849 1671.725 2505.143 1673.902 2508.209 C 1684.729 2584.21 1732.811 2672.909 1803.855 2676.389 L 1803.855 2676.389 Z " fill-rule="evenodd" fill="rgb(223,221,226)"/><path d=" M 1642.647 2604.522 L 1635.552 2625.435 C 1660.908 2681.653 1690.763 2701.199 1729.651 2715.425 C 1653.28 2677.808 1648.095 2641.168 1642.647 2604.522 Z " fill-rule="evenodd" fill="rgb(223,221,225)"/><path d=" M 1569.459 2700.867 L 1589.623 2735.59 L 1604.933 2701.608 C 1602.065 2793.245 1596.103 2903.924 1593.357 3005.934 C 1584.944 2903.623 1573.432 2796.963 1569.459 2700.867 Z " fill-rule="evenodd" fill="rgb(223,221,226)"/><path d=" M 1628.457 2643.736 C 1626.59 2648.967 1624.723 2653.911 1622.856 2657.175 C 1690.634 2908.568 1610.86 3042.619 1592.984 3062.325 C 1546.014 2978.972 1546.555 2896.891 1536.226 2826.704 C 1542.277 2889.648 1535.389 2971.479 1589.996 3073.522 L 1590.743 3114.972 C 1657.292 3032.028 1697.722 2916.897 1646.007 2667.255 C 1638.538 2661.034 1634.156 2651.727 1628.457 2643.736 L 1628.457 2643.736 Z " fill-rule="evenodd" fill="rgb(195,189,201)"/><path d=" M 1568.339 3092.193 C 1574.017 3101.309 1578.943 3110.551 1590.37 3118.709 C 1605.085 3103.339 1608.257 3095.662 1614.641 3085.844 C 1602.233 3152.55 1596.602 3217.564 1587.756 3283.381 C 1581.651 3218.304 1577.14 3147.382 1568.339 3092.193 L 1568.339 3092.193 Z " fill-rule="evenodd" fill="rgb(223,221,226)"/><path d=" M 1687.456 3103.027 C 1673.085 3070.929 1656.087 3043.327 1666.918 3007.806 C 1664.843 2996.857 1660.297 2995.184 1655.343 2992.871 C 1652.315 3011.83 1645.601 3025.289 1639.659 3038.422 C 1665.11 3191.182 1628.972 3273.372 1587.009 3342.378 C 1518.222 3249.77 1531.008 3149.963 1529.878 3064.56 C 1509.834 3237.934 1551.712 3314.189 1586.262 3353.582 L 1586.636 3395.772 C 1684.612 3251.814 1674.955 3118.133 1653.103 3054.481 C 1663.937 3071.076 1673.826 3088.297 1687.456 3103.027 L 1687.456 3103.027 Z " fill-rule="evenodd" fill="rgb(195,189,201)"/><path d=" M 1316.289 2664.643 C 1329.425 2790.588 1489.308 2752.428 1554.149 2657.175 L 1548.175 2639.999 C 1487.716 2718.35 1358.817 2788.001 1316.289 2664.643 Z " fill-rule="evenodd" fill="rgb(196,190,201)"/><path d=" M 1539.213 2710.947 C 1480.558 2832.657 1409.913 2919.318 1312.555 2927.897 C 1378.887 2933.186 1449.91 2879.312 1472 2855.825 C 1487.951 2828.141 1508.613 2818.291 1488.43 2855.455 C 1480.605 2868.498 1472.812 2878.028 1460.424 2889.807 C 1476.109 2883.451 1508.592 2833.309 1515.315 2828.946 C 1518.08 2776.235 1530.001 2747.076 1539.213 2710.947 L 1539.213 2710.947 Z " fill-rule="evenodd" fill="rgb(223,221,226)"/><path d=" M 1514.997 2833.226 C 1513.866 2847.106 1512.649 2861.159 1512.885 2872.305 C 1420.442 2967.264 1340.575 2997.337 1255.711 2977.394 C 1325.78 2979.285 1406.988 2986.727 1514.997 2833.226 Z " fill-rule="evenodd" fill="rgb(195,190,202)"/><path d=" M 1215.577 2888.146 C 1195.217 2837.652 1202.844 2796.944 1238.812 2766.161 C 1166.265 2764.636 1087.602 2899.58 1221.914 2967.89 C 1154.701 2928.625 1151.305 2846.703 1173.233 2819.799 C 1187.881 2796.42 1209.427 2789.885 1194.454 2816.068 C 1184.064 2858.207 1202.959 2879.709 1215.577 2888.146 Z " fill-rule="evenodd" fill="rgb(223,221,226)"/><path d=" M 1650.185 2674.806 C 1663.917 2696.805 1680.823 2715.635 1702.992 2729.196 C 1696.961 2852.375 1832.459 2934.042 1924.257 2899.235 C 1871.521 2937.829 1697.723 2928.421 1650.185 2674.806 Z " fill-rule="evenodd" fill="rgb(223,221,226)"/><path d=" M 1670.252 2829.533 L 1670.252 2844.32 C 1733.859 2950.221 1840.852 2954.073 1873.562 2949.934 C 1773.667 2948.043 1711.098 2901.72 1670.252 2829.533 Z " fill-rule="evenodd" fill="rgb(196,192,205)"/><path d=" M 1947.492 2752.434 C 2031.85 2810.945 2008.557 2901.95 1917.92 2939.899 C 1987.656 2894.003 2021.916 2834.56 1947.492 2752.434 Z " fill-rule="evenodd" fill="rgb(225,223,227)"/><path d=" M 1848.742 2965.775 C 1928.884 2980.403 2064.485 2917.51 1991.851 2777.25 C 2065.327 2862.57 1983.153 3015.822 1848.742 2965.775 Z " fill-rule="evenodd" fill="rgb(195,189,201)"/><path d=" M 1670.78 2914.023 C 1670.079 2921.963 1669.656 2926.875 1667.611 2939.899 C 1736.221 3076.831 1774.535 3085.85 1819.17 3121.557 C 1736.031 3059.431 1693.535 2988.79 1670.78 2914.023 L 1670.78 2914.023 Z " fill-rule="evenodd" fill="rgb(224,222,227)"/><path d=" M 1783.26 3171.195 C 1797.777 3177.641 1809.006 3172.914 1820.754 3177.008 C 1925.657 3213.552 2055.501 3151.241 2016.67 3024.395 C 2085.322 3091.286 1959.023 3283.446 1783.26 3171.195 Z " fill-rule="evenodd" fill="rgb(196,190,203)"/><path d=" M 1967.559 2987.429 C 2047.03 3066.221 1965.404 3175.207 1859.303 3137.929 C 1971.734 3153.099 2013.319 3059.897 1967.559 2987.429 Z " fill-rule="evenodd" fill="rgb(195,190,202)"/><path d=" M 1196.038 2986.899 C 1087.349 3058.454 1147.378 3147.069 1197.622 3167.504 C 1178.51 3153.413 1158.126 3104.01 1217.689 3131.592 C 1237.292 3139.999 1254.748 3140.892 1271.553 3139.513 C 1160.332 3102.982 1185.038 3043.8 1196.038 2986.899 Z " fill-rule="evenodd" fill="rgb(223,221,226)"/><path d=" M 1513.941 2887.092 C 1516.564 2924.319 1520.647 2954.252 1526.087 2977.394 C 1491.176 3047.147 1449.036 3093.662 1405.685 3126.84 C 1456.544 3077.636 1495.795 3028.348 1512.885 2976.334 C 1424.345 3114.511 1362.975 3135.751 1299.541 3138.982 C 1378.442 3121.602 1493.674 3053.471 1513.941 2887.092 Z " fill-rule="evenodd" fill="rgb(223,221,226)"/><path d=" M 1527.143 2982.677 C 1529.57 2993.849 1532.192 3004.893 1538.76 3013.299 C 1427.213 3228.403 1278.177 3222.214 1227.195 3204.469 C 1323.769 3214.459 1290.164 3197.014 1258.879 3191.265 C 1373.334 3194.932 1474.412 3117.252 1527.143 2982.677 L 1527.143 2982.677 Z " fill-rule="evenodd" fill="rgb(195,190,201)"/><path d=" M 1435.297 1798.555 C 1449.696 1788.833 1456.546 1777.214 1464.905 1765.48 C 1467.992 1771.357 1473.776 1776.473 1481.071 1781.647 C 1459.956 1788.552 1452.571 1819.654 1440.698 1819.813 C 1438.809 1812.908 1438.751 1805.466 1435.297 1798.555 L 1435.297 1798.555 Z " fill-rule="evenodd" fill="rgb(196,190,202)"/><path d=" M 1482.256 1782.088 C 1513.849 1793.963 1546.123 1792.429 1586.023 1764.4 C 1589.558 1768.06 1594.596 1772.468 1599.489 1776.812 C 1561.385 1803.972 1498.999 1796.99 1482.256 1782.088 Z " fill-rule="evenodd" fill="rgb(195,189,201)"/><path d=" M 1617.18 1781.826 C 1639.61 1785.614 1661.591 1790.705 1690.847 1774.697 C 1695.071 1780.312 1699.296 1784.732 1703.521 1788.954 C 1693.965 1798.536 1646.01 1797.15 1617.18 1781.826 Z " fill-rule="evenodd" fill="rgb(195,189,201)"/><path d=" M 1709.857 1721.89 C 1717.072 1726.317 1730.032 1739.284 1742.598 1746.706 C 1733.269 1759.814 1723.94 1774.703 1714.61 1791.331 C 1672.991 1755.221 1702.19 1717.183 1709.857 1721.89 Z " fill-rule="evenodd" fill="rgb(195,189,201)"/><path d=" M 1406.213 1732.187 C 1412.165 1740.504 1416.342 1746.457 1420.207 1751.989 C 1445.648 1734.328 1454.227 1715.318 1462.453 1696.276 C 1458.726 1694.143 1455.183 1691.089 1452.156 1685.449 C 1432.097 1720.958 1419.465 1725.269 1406.213 1732.187 Z " fill-rule="evenodd" fill="rgb(195,189,201)"/><path d=" M 1464.302 1697.337 L 1461.397 1702.881 C 1511.634 1731.695 1593.206 1753.305 1696.92 1700.766 L 1686.622 1679.642 C 1619.434 1732.239 1543.459 1741.104 1464.302 1697.336 L 1464.302 1697.337 Z " fill-rule="evenodd" fill="rgb(195,189,201)"/><path d=" M 1705.369 1697.068 C 1734.966 1691.485 1724.693 1654.654 1752.104 1643.469 C 1797.004 1711.006 1873.741 1693.472 1904.982 1642.147 L 1909.999 1680.173 C 1880.388 1698.991 1841.084 1731.677 1775.603 1701.297 C 1770.445 1712.226 1769.279 1729.428 1769.002 1748.029 C 1740.304 1738.531 1717.213 1723.424 1705.369 1697.068 L 1705.369 1697.068 Z " fill-rule="evenodd" fill="rgb(195,189,201)"/><path d=" M 1796.198 1571.653 C 1807.591 1593.64 1796.937 1643.725 1797.518 1660.103 C 1775.666 1657.107 1763.558 1639.285 1751.84 1624.46 C 1754.144 1624.032 1755.69 1623.38 1756.593 1621.553 C 1759.292 1607.813 1784.826 1601.477 1796.198 1571.653 L 1796.198 1571.653 Z " fill-rule="evenodd" fill="rgb(195,189,201)"/><path d=" M 1599.225 1633.434 L 1596.849 1636.602 C 1631.279 1649.116 1702.66 1655.401 1753.424 1621.023 L 1744.447 1604.92 C 1708.976 1635.248 1663.501 1649.474 1599.225 1633.434 L 1599.225 1633.434 Z " fill-rule="evenodd" fill="rgb(195,190,202)"/><path d=" M 1579.158 1621.815 C 1585.455 1626.759 1591.519 1630.777 1597.113 1632.911 C 1549.861 1676.142 1481.619 1664.37 1412.814 1628.158 C 1413.518 1626.044 1412.967 1623.93 1412.286 1621.815 C 1491.765 1664.868 1547.278 1652.687 1579.158 1621.815 Z " fill-rule="evenodd" fill="rgb(195,189,201)"/><path d=" M 1408.853 1621.553 C 1425.573 1648.011 1383.133 1656.596 1382.978 1696.014 L 1366.343 1674.89 C 1365.647 1649.071 1400.171 1653.211 1408.853 1621.553 Z " fill-rule="evenodd" fill="rgb(195,190,201)"/><path d=" M 1362.646 1666.97 L 1330.17 1617.593 C 1295.974 1573.059 1409.021 1564.199 1396.708 1480.821 C 1403.925 1486.525 1411.142 1493.903 1418.359 1497.723 C 1414.228 1564.863 1355.438 1563.094 1354.461 1609.142 C 1346.956 1606.3 1343.145 1599.298 1341.26 1590.132 C 1338.353 1592.33 1337.698 1592.553 1334.658 1595.677 C 1320.411 1613.199 1341.401 1623.131 1362.646 1666.97 L 1362.646 1666.97 Z " fill-rule="evenodd" fill="rgb(195,190,201)"/><path d=" M 1393.584 1576.533 C 1426.603 1581.254 1459.073 1576.516 1490.11 1547.035 C 1495.441 1552.19 1499.611 1557.639 1506.727 1562.346 C 1467.154 1586.441 1414.133 1589.717 1393.584 1576.533 Z " fill-rule="evenodd" fill="rgb(195,189,201)"/><path d=" M 1508.22 1563.464 L 1504.486 1566.454 C 1559.273 1597.836 1635.78 1597.613 1677 1569.443 C 1671.165 1566.064 1666.168 1561.848 1661.317 1557.492 C 1612.272 1593.537 1538.428 1581.918 1508.22 1563.464 L 1508.22 1563.464 Z " fill-rule="evenodd" fill="rgb(196,190,202)"/><path d=" M 1678.307 1569.443 L 1675.507 1572.988 C 1714.442 1588.108 1762.533 1586.613 1796.304 1568.696 C 1793.997 1562.289 1791.428 1556.074 1787.155 1551.143 C 1750.565 1579.976 1714.406 1577.511 1678.307 1569.443 L 1678.307 1569.443 Z " fill-rule="evenodd" fill="rgb(196,190,201)"/><path d=" M 1424.168 1501.683 C 1481.337 1530.753 1543.703 1511.418 1577.838 1481.351 C 1583.647 1488.729 1589.456 1493.015 1595.265 1496.93 C 1552.634 1534.324 1442.975 1529.642 1424.168 1501.683 L 1424.168 1501.683 Z " fill-rule="evenodd" fill="rgb(196,190,201)"/><path d=" M 1597.377 1497.723 L 1594.473 1500.36 C 1645.981 1535.557 1724.638 1514.305 1745.503 1500.623 C 1742.862 1492.351 1740.222 1485.133 1737.581 1478.975 C 1701.399 1509.924 1647.546 1520.067 1597.377 1497.723 L 1597.377 1497.723 Z " fill-rule="evenodd" fill="rgb(195,189,201)"/><path d=" M 1279.474 1424.846 L 1286.867 1429.068 C 1294.722 1417.82 1301.19 1415.111 1304.432 1419.57 C 1307.673 1424.028 1301.714 1432.294 1310.103 1439.633 C 1336.729 1418.459 1397.776 1404.431 1405.157 1373.093 C 1416.376 1404.476 1454.418 1405.377 1485.425 1459.697 C 1478.093 1418.446 1435.781 1407.165 1418.438 1379.43 C 1401.096 1351.695 1411.362 1317.004 1425.224 1272.232 C 1396.454 1311.21 1419.116 1366.559 1372.174 1391.33 C 1342.379 1407.05 1285.543 1403.588 1279.474 1424.846 L 1279.474 1424.846 Z " fill-rule="evenodd" fill="rgb(195,189,201)"/><path d=" M 1526.087 1228.931 L 1527.671 1265.896 C 1478.857 1284.988 1516.905 1407.139 1497.571 1433.821 C 1489.852 1329.593 1446.936 1292.079 1526.087 1228.931 L 1526.087 1228.931 Z " fill-rule="evenodd" fill="rgb(195,189,201)"/><path d=" M 1565.692 1317.648 L 1571.501 1317.648 C 1577.841 1385.945 1649.474 1392.448 1661.802 1459.697 C 1646.57 1413.08 1605.893 1399.487 1584.175 1374.677 C 1571.678 1426.858 1508.672 1442.367 1492.818 1471.846 C 1488.472 1447.567 1579.734 1413.572 1565.692 1317.648 L 1565.692 1317.648 Z " fill-rule="evenodd" fill="rgb(195,189,201)"/><path d=" M 1673.948 1252.163 C 1636.413 1311.567 1711.133 1349.798 1670.78 1448.608 C 1691.776 1319.379 1601.543 1329.925 1658.634 1236.321 C 1678.432 1255.554 1746.261 1275.062 1752.632 1307.614 C 1729.825 1275.446 1694.703 1272.999 1673.948 1252.163 Z " fill-rule="evenodd" fill="rgb(195,189,201)"/><path d=" M 1752.104 1316.064 C 1759.168 1338.907 1765.458 1347.99 1771.115 1363.059 C 1750.538 1430.225 1669.352 1453.616 1664.971 1478.183 C 1650.933 1446.794 1752.603 1429.298 1752.104 1316.064 Z " fill-rule="evenodd" fill="rgb(195,189,201)"/><path d=" M 1829.203 1247.41 C 1816.423 1244.702 1804.205 1247.04 1790.125 1232.622 C 1792.523 1254.353 1788.944 1267.116 1785.9 1280.683 C 1812.502 1296.001 1830.064 1438.554 1840.821 1444.91 C 1835.337 1383.601 1837.809 1302.9 1800.687 1259.029 L 1802.271 1251.639 C 1813.519 1255.695 1822.173 1254.596 1829.203 1247.41 L 1829.203 1247.41 Z " fill-rule="evenodd" fill="rgb(195,189,201)"/><path d=" M 1331.226 1358.836 C 1356.677 1320.689 1378.759 1276.276 1411.426 1253.44 C 1444.093 1230.604 1464.636 1239.381 1530.311 1185.629 L 1555.131 1120.673 C 1499.708 1202.083 1434.303 1257.835 1339.675 1238.435 C 1345.312 1241.616 1348.446 1249.415 1387.202 1251.639 C 1367.139 1271.076 1349.902 1313.043 1331.226 1358.836 Z " fill-rule="evenodd" fill="rgb(195,189,201)"/><path d=" M 1317.496 1178.762 C 1367.127 1203.629 1427.781 1216.34 1531.895 1067.866 C 1554.02 1061.805 1575.603 1049.79 1596.321 1028.256 C 1529.364 1189.136 1338.972 1287.474 1317.496 1178.762 Z " fill-rule="evenodd" fill="rgb(223,221,226)"/><path d=" M 1539.288 1271.702 C 1618.713 972.218 1859.641 793.306 1651.241 633.787 C 1802.37 895.642 1561.906 1006.392 1539.288 1271.702 Z " fill-rule="evenodd" fill="rgb(241,238,240)"/><path d=" M 1481.728 1012.415 C 1485.834 1091.085 1585.302 1032.747 1608.995 981.262 C 1568.72 1008.442 1528.835 1032.971 1481.728 1012.415 Z " fill-rule="evenodd" fill="rgb(223,221,226)"/><path d=" M 1631.174 890.43 C 1640.31 876.933 1642.016 889.402 1657.578 893.068 C 1621.182 968.928 1559.603 989.649 1526.087 991.291 C 1571.516 967.702 1613.267 940.56 1631.174 890.43 Z " fill-rule="evenodd" fill="rgb(223,221,226)"/><path d=" M 1606.8 763.629 L 1614.641 771.467 C 1625.595 771.013 1636.548 771.128 1647.501 761.017 C 1647.658 770.553 1644.069 774.827 1639.286 777.446 C 1645.436 832.615 1639.356 864.79 1631.707 889.402 C 1641.268 879.699 1649.073 893.624 1657.692 892.979 C 1671.437 871.331 1694.955 796.066 1657.209 730.765 C 1658.268 749.525 1638.028 768.835 1606.799 763.629 L 1606.8 763.629 Z " fill-rule="evenodd" fill="rgb(195,189,201)"/><path d=" M 1477.24 739.662 C 1537.492 715.134 1571.923 758.289 1598.961 762.371 C 1641.95 825.621 1597.406 880.689 1568.597 914.46 C 1587.744 881.686 1615.777 750.087 1477.24 739.662 L 1477.24 739.662 Z " fill-rule="evenodd" fill="rgb(195,189,201)"/><path d=" M 1531.367 1306.553 C 1596.977 1337.303 1627.515 1262.657 1658.634 1233.683 C 1643.128 1198.174 1647.6 1169.027 1646.488 1138.098 C 1589.483 1169.091 1591.078 1281.539 1531.367 1306.553 L 1531.367 1306.553 Z " fill-rule="evenodd" fill="rgb(206,202,213)"/><path d=" M 1755.536 778.48 C 1750.154 780.952 1749.681 802.089 1742.334 801.712 C 1737.763 952.703 1600.368 1036.637 1568.069 1254.807 C 1588.117 1231.428 1602.537 1139.383 1654.12 1054.791 C 1707.958 966.494 1760.843 916.939 1755.536 778.48 L 1755.536 778.48 Z " fill-rule="evenodd" fill="rgb(206,202,213)"/><path d=" M 1685.215 1063.848 C 1630.46 1211.377 1738.948 1212.572 1748.321 1260.633 C 1635.883 1222.862 1628.004 1140.909 1685.215 1063.848 Z " fill-rule="evenodd" fill="rgb(223,221,226)"/><path d=" M 1705.379 640.776 C 1887.271 759.042 1731.233 997.749 1663.184 1061.977 C 1690.11 1001.677 1854.081 835.701 1705.379 640.776 Z " fill-rule="evenodd" fill="rgb(223,221,226)"/><path d=" M 1766.618 575.43 C 1785.262 609.61 1815.246 663.458 1771.099 652.727 C 1848.464 824.465 1763.597 912.736 1721.014 1008.231 C 1631.23 1242.159 1779.846 1149.392 1762.511 1312.538 C 1813.051 1253.536 1747.274 1167.916 1750.118 1138.418 C 1746.48 1095.563 1773.507 1002.98 1782.301 946.973 C 1793.081 977.858 1809.626 996.58 1829.35 1008.583 C 1794.623 886.974 1903.107 647.278 1766.618 575.43 L 1766.618 575.43 Z " fill-rule="evenodd" fill="rgb(206,202,213)"/><path d=" M 1784.541 977.96 C 1793.272 990.065 1799.447 1003.875 1813.667 1012.319 C 1820.961 1059.914 1754.145 1210.809 1854.742 1222.172 C 1772.893 1262.996 1728.304 1145.853 1784.541 977.96 L 1784.541 977.96 Z " fill-rule="evenodd" fill="rgb(206,202,213)"/><path d=" M 1740.486 528.168 C 1757.593 529.388 1798.474 558.081 1836.596 527.644 C 1862.789 563.255 1813.997 593.398 1762.697 566.749 C 1749.305 558.164 1791.779 554.185 1740.486 528.168 L 1740.486 528.168 Z " fill-rule="evenodd" fill="rgb(195,189,201)"/><path d=" M 1436.9 541.077 C 1452.29 558.151 1467.997 566.992 1482.455 608.288 C 1493.159 608.403 1503.864 609.674 1514.568 612.772 C 1496.526 584.162 1474.678 557.839 1436.9 541.077 Z " fill-rule="evenodd" fill="rgb(223,221,226)"/><path d=" M 1602.319 491.413 C 1760.613 533.597 1745.71 460.152 1774.086 449.593 C 1802.185 494.524 1725.013 552.818 1602.319 491.413 Z " fill-rule="evenodd" fill="rgb(195,189,201)"/><path d=" M 1408.894 522.777 C 1399.934 519.704 1391.674 520.266 1386.49 520.911 C 1400.572 407.499 1526.303 479.52 1594.104 522.035 C 1508.523 481.04 1401.257 428.929 1408.894 522.777 L 1408.894 522.777 Z " fill-rule="evenodd" fill="rgb(195,190,201)"/><path d=" M 1409.267 522.777 C 1402.228 393.835 1588.034 541.122 1674.013 546.302 C 1614.179 553.086 1417.101 421.916 1418.229 525.019 L 1409.267 522.777 L 1409.267 522.777 Z " fill-rule="evenodd" fill="rgb(241,238,240)"/><path d=" M 1421.216 526.514 L 1436.9 532.486 C 1438.438 521.212 1442.738 508.239 1448.475 507.095 C 1484.955 499.852 1450.755 519.027 1456.69 525.019 C 1463.569 529.873 1471.228 534.728 1479.094 539.583 C 1479.468 534.102 1479.841 527.638 1480.215 520.164 C 1480.84 490.793 1565.15 538.088 1624.35 557.506 C 1630.883 575.015 1591.502 596.994 1560.497 590.741 C 1588.672 613.021 1648.091 602.2 1673.639 565.721 C 1719.152 569.177 1729.188 561.729 1739.359 550.41 C 1704.572 543.198 1688.511 560.31 1601.334 536.229 C 1521.252 513.259 1423.449 444.988 1421.216 526.514 L 1421.216 526.514 Z " fill-rule="evenodd" fill="rgb(195,189,201)"/><path d=" M 1493.657 511.95 C 1503.48 511.011 1512.45 514.325 1521.289 518.299 C 1503.54 545.778 1529.552 571.993 1544.067 567.963 C 1548.984 572.441 1553.991 576.924 1570.579 581.403 C 1547.151 586.295 1468.773 562.144 1493.657 511.95 L 1493.657 511.95 Z " fill-rule="evenodd" fill="rgb(182,177,191)"/><path d=" M 1286.416 670.65 C 1198.582 501.679 1452.689 471.843 1478.433 611.648 C 1478.433 611.648 1541.455 614.19 1597.091 643.765 C 1705.511 722.435 1639.651 767.449 1617.808 763.834 C 1567.282 764.715 1557.792 716.194 1484.048 734.725 C 1466.316 741.343 1465.36 750.452 1457.437 750.183 C 1413.471 739.011 1494.091 650.721 1580.661 714.336 C 1588.38 720.008 1605.24 708.925 1590.37 692.304 C 1532.32 633.711 1431.708 665.911 1409.641 671.398 C 1381.534 625.822 1319.371 636.253 1286.416 670.65 L 1286.416 670.65 Z " fill-rule="evenodd" fill="rgb(246,209,85)"/><path d=" M 1538.466 532.862 C 1549.514 541.677 1605.501 550.767 1606.8 556.012 C 1588.862 598.317 1530.284 585.261 1538.466 532.862 Z " fill-rule="evenodd" fill="rgb(170,163,181)"/><path d=" M 1913.695 1677.797 C 1913.299 1678.569 1912.446 1679.016 1913.695 1680.965 C 1927.023 1687.544 1943.505 1691.504 1962.807 1693.108 L 2008.749 1964.014 C 2005.251 1893.52 2000.339 1820.675 1998.716 1753.311 C 1993.579 1740.37 1989.804 1716.525 1986.042 1692.578 C 1991.851 1691.958 1997.66 1691.026 2003.469 1689.409 C 2032.565 1860.636 2103.73 1895.098 2117.533 1908.563 C 2079.886 1868.966 2029.038 1813.285 2012.446 1685.717 C 2037.665 1671.652 2049.158 1654.578 2057.332 1651.92 C 2059.863 1644.689 2058.253 1627.411 2054.692 1619.177 C 2029.354 1643.393 2006.475 1671.888 1955.413 1667.761 C 1951.989 1667.486 1955.413 1672.514 1955.413 1672.514 C 1975.167 1698.959 1935.228 1682.747 1913.695 1677.797 L 1913.695 1677.797 Z " fill-rule="evenodd" fill="rgb(195,189,201)"/><path d=" M 2011.918 1993.059 L 2014.03 2034.246 C 2039.513 2017.805 2063.417 2012.752 2097.466 1934.44 C 2111.371 2073.255 2113.151 2208.207 2194.105 2235.974 C 2152.272 2140.588 2152.194 2035.843 2149.218 1934.97 C 2144.289 1941.318 2139.36 1945.892 2134.432 1950.281 C 2101.134 1931.009 2090.918 1915.589 2073.175 1898.004 C 2062.025 1932.6 2056.454 1968.952 2011.918 1993.059 L 2011.918 1993.059 Z " fill-rule="evenodd" fill="rgb(206,202,213)"/><path d=" M 2072.065 1657.567 C 2083.252 1661.7 2095.862 1662.997 2109.032 1663.169 L 2123.222 1864.808 L 2072.065 1657.567 L 2072.065 1657.567 Z " fill-rule="evenodd" fill="rgb(223,221,226)"/><path d=" M 2168.031 1643.003 L 2174.752 1638.149 C 2191.183 1675.178 2213.364 1707.895 2245.699 1732.992 L 2332.703 2318.496 L 2206.865 1731.497 C 2206.253 1832.601 2178.301 1899.684 2132.93 1945.088 L 2128.076 1906.627 C 2175.739 1841.78 2204.404 1764.202 2168.03 1643.003 L 2168.031 1643.003 Z " fill-rule="evenodd" fill="rgb(195,189,201)"/><path d=" M 2300.963 1777.431 C 2314.157 1785.397 2329.343 1791.867 2346.519 1796.843 C 2399.335 1973.468 2419.274 2321.646 2349.88 2447.693 L 2343.905 2399.901 C 2222.447 2307.062 2192.178 2048.395 2167.657 1903.638 L 2171.391 1896.548 C 2194.817 2028.785 2222.449 2283.39 2341.292 2386.832 C 2362.7 2319.116 2408.946 2123.852 2325.982 1798.338 C 2319.86 1791.369 2309.857 1784.4 2300.963 1777.431 L 2300.963 1777.431 Z " fill-rule="evenodd" fill="rgb(196,190,201)"/><path d=" M 2226.656 1589.232 C 2237.109 1587.954 2242.875 1588.683 2259.515 1584.748 L 2375.271 1757.636 L 2226.656 1589.232 L 2226.656 1589.232 Z " fill-rule="evenodd" fill="rgb(223,221,226)"/><path d=" M 2351 1798.338 C 2367.772 1804.074 2389.082 1808.897 2410.745 1813.649 C 2411.391 1818.925 2580.093 2252.736 2697.895 2286.009 C 2547.296 2315.922 2471.642 2051.767 2373.405 1895.8 C 2366.412 1862.834 2358.988 1830.308 2351 1798.338 Z " fill-rule="evenodd" fill="rgb(223,221,226)"/><path d=" M 2331.405 1537.326 C 2329.968 1539.587 2328.533 1541.848 2326.124 1543.132 C 2394.754 1649.435 2396.43 1714.206 2387.381 1772.321 L 2415.369 1808.756 C 2429.311 1727.448 2414.251 1667.468 2394.774 1610.726 L 2736.44 2107.123 L 2434.38 1623.93 L 2498.277 1632.911 C 2445.016 1615.038 2391.111 1608.919 2331.405 1537.326 L 2331.405 1537.326 Z " fill-rule="evenodd" fill="rgb(195,189,201)"/><path d=" M 2537.33 1634.041 C 2550.376 1634.146 2562.102 1633.377 2570.937 1630.681 C 2638.627 1740.983 2813.132 1941.383 2792.741 2213.944 L 2771.457 2172.494 C 2609.549 2135.095 2496.932 1931.661 2439.498 1849.119 C 2534.298 1974.1 2641.704 2137.132 2767.349 2162.785 C 2777.741 1959.306 2624.254 1759.699 2537.33 1634.041 L 2537.33 1634.041 Z " fill-rule="evenodd" fill="rgb(195,189,201)"/><path d=" M 2572.736 1630.266 L 2578.545 1640.301 C 2728.347 1720.032 2896.401 1877.985 3000.479 1761.762 C 2892.611 1805.102 2717.89 1652.904 2602.836 1595.415 L 2608.117 1620.238 C 2595.389 1626.383 2584.097 1628.222 2572.736 1630.266 L 2572.736 1630.266 Z " fill-rule="evenodd" fill="rgb(223,221,226)"/><path d=" M 2360.449 1443.855 C 2360.847 1448.129 2360.397 1451.553 2359.393 1454.421 L 2545.804 1570.069 L 2375.763 1434.351 C 2371.667 1438.701 2365.943 1440.898 2360.449 1443.855 L 2360.449 1443.855 Z " fill-rule="evenodd" fill="rgb(223,221,226)"/><path d=" M 2592.595 1552.637 C 2595.849 1565.068 2599.611 1576.987 2601.556 1590.726 C 2824.535 1693.862 2958.169 1668.458 3022.76 1628.062 L 2988.406 1615.37 C 2890.255 1680.313 2652.739 1592.598 2592.594 1552.637 L 2592.595 1552.637 Z " fill-rule="evenodd" fill="rgb(195,189,201)"/><path d=" M 2415.6 1376.39 C 2415.59 1379.379 2414.433 1382.362 2413.359 1385.351 C 2508.016 1435.283 2574.285 1528.006 2571.684 1591.845 L 2603.797 1618.359 C 2591.432 1511.628 2553.154 1471.705 2514.553 1432.026 L 2967.496 1609.398 L 2527.622 1403.275 C 2586.285 1389.95 2647.451 1386.616 2697.895 1325.607 L 2801.703 1321.87 C 2890.239 1308.284 2990.882 1257.036 3001.102 1209.103 L 2967.869 1212.834 C 2925.365 1306.783 2757.873 1303.557 2671.01 1306.936 C 2630.766 1382.426 2502.716 1388.04 2415.6 1376.39 L 2415.6 1376.39 Z " fill-rule="evenodd" fill="rgb(195,189,201)"/><path d=" M 2668.77 1355.853 C 2657.471 1364.923 2645.589 1371.669 2633.296 1376.76 C 2680.643 1386.782 2724.732 1399.602 2765.109 1415.597 C 2882.25 1427.874 2998.283 1410.001 3003.342 1310.296 C 2954.114 1389.682 2813.656 1375.048 2668.77 1355.853 L 2668.77 1355.853 Z " fill-rule="evenodd" fill="rgb(223,221,226)"/><path d=" M 2413.733 1286.023 C 2416.927 1295.732 2418.176 1304.286 2420.08 1313.656 L 2660.181 1307.307 C 2578.018 1300.223 2494.025 1294.046 2413.733 1286.023 Z " fill-rule="evenodd" fill="rgb(223,221,226)"/><path d=" M 2529.489 1189.315 C 2578.318 1211.563 2622.801 1236.512 2658.688 1264.74 L 2626.948 1235.612 C 2729.645 1227.155 2834.093 1218.959 2949.572 1212.463 L 2584.38 1210.221 L 2529.489 1189.315 L 2529.489 1189.315 Z " fill-rule="evenodd" fill="rgb(195,189,201)"/><path d=" M 2452.334 1197.772 C 2451.242 1202.875 2448.503 1207.979 2446.526 1213.089 L 2526.793 1189.851 C 2646.908 1103.733 2652.605 1060.648 2667.79 1013.999 L 2851.033 899.935 L 2642.97 1003.441 C 2529.968 1004.533 2501.081 1020.195 2466.592 1029.317 C 2562.368 1008.563 2625.353 1005.005 2660.397 1016.114 L 2638.218 1029.841 C 2609.321 1125.221 2501.541 1180.774 2452.334 1197.772 Z " fill-rule="evenodd" fill="rgb(195,189,201)"/><path d=" M 2451.447 1119.484 C 2454.882 1125.546 2455.401 1133.065 2457.048 1140.021 C 2514.374 1109.348 2567.919 1074.893 2621.347 1040.323 C 2564.714 1068.115 2508.08 1096.489 2451.447 1119.484 L 2451.447 1119.484 Z " fill-rule="evenodd" fill="rgb(223,221,226)"/><path d=" M 2606.037 1131.436 C 2670.531 1125.981 2736.094 1124.454 2803.57 1129.942 C 2819.327 1121.069 2982.76 1073.359 2943.224 986.922 C 2896.227 1081.587 2721.711 1113.992 2707.978 1121.727 C 2680.535 1124.518 2612.742 1127.271 2606.037 1131.436 L 2606.037 1131.436 Z " fill-rule="evenodd" fill="rgb(223,221,226)"/><path d=" M 2875.637 887.971 L 2911.858 872.289 C 2915.725 879.622 2889.523 928.859 2843.109 980.356 C 2782.505 1047.528 2746.871 1076.63 2631.429 1097.454 C 2633.683 1094.375 2635.74 1091.29 2637.497 1088.211 C 2726.757 1063.918 2849.572 976.855 2875.637 887.971 L 2875.637 887.971 Z " fill-rule="evenodd" fill="rgb(223,220,225)"/><path d=" M 2491.775 982.814 L 2481.319 999.25 C 2584.247 925.07 2665.663 879.75 2727.768 860.338 C 2789.414 795.191 2803.479 730.835 2777.805 693.429 C 2781.752 813.849 2590.553 903.921 2491.775 982.814 L 2491.775 982.814 Z " fill-rule="evenodd" fill="rgb(223,221,226)"/><path d=" M 2425.682 1028.748 L 2421.947 1059.364 C 2498.026 1003.836 2538.988 902.988 2528.369 817.771 L 2501.11 845.774 L 2382.366 942.119 C 2388.757 947.842 2395.765 953.566 2400.29 959.296 L 2501.11 848.764 C 2507.784 939.819 2446.441 1010.518 2425.682 1028.748 L 2425.682 1028.748 Z " fill-rule="evenodd" fill="rgb(195,190,201)"/><path d=" M 2529.115 886.105 L 2522.021 911.496 C 2571.136 880.555 2605.571 848.074 2635.91 815.158 C 2720.873 716.373 2731.934 630.523 2738.97 589.246 L 2702.376 618.745 C 2708.289 744.249 2567.59 865.186 2529.115 886.105 L 2529.115 886.105 Z " fill-rule="evenodd" fill="rgb(223,221,226)"/><path d=" M 2487.294 815.529 C 2501.483 814.935 2515.673 814.538 2529.862 815.905 L 2696.775 624.346 L 2487.294 815.529 L 2487.294 815.529 Z " fill-rule="evenodd" fill="rgb(195,189,201)"/><path d=" M 2364.443 706.868 L 2343.905 730.765 C 2352.689 777.835 2352.357 841.207 2282.667 918.217 L 2284.907 922.324 L 2289.761 920.83 C 2344.959 852.067 2403.039 834.22 2461.155 817.024 C 2427.32 825.449 2393.568 830.981 2355.481 850.629 C 2381.464 771.787 2369.893 731.404 2364.443 706.869 L 2364.443 706.868 Z " fill-rule="evenodd" fill="rgb(195,189,201)"/><path d=" M 2372.284 769.601 L 2371.91 784.912 C 2431.623 748.197 2492.099 703.579 2546.665 642.641 C 2578.538 601.594 2619.469 544.035 2624.334 465.646 L 2592.967 490.295 C 2586.765 620.622 2418.797 732.873 2372.284 769.601 L 2372.284 769.601 Z " fill-rule="evenodd" fill="rgb(223,221,226)"/><path d=" M 2236.738 752.796 C 2285.163 731.857 2332.42 712.011 2365.19 705.751 L 2575.418 510.455 C 2519.208 551.144 2401.044 653.423 2345.438 694.924 C 2326.289 709.213 2307.064 708.753 2236.738 752.796 L 2236.738 752.796 Z " fill-rule="evenodd" fill="rgb(223,221,226)"/><path d=" M 2586.62 491.79 C 2055.1 584.551 1759.854 1225.794 2115.38 1168.025 L 2095.59 1163.176 C 2024.458 1169.442 2006.258 1107.469 2013.176 1068.231 C 2019.48 1025.407 2060.317 1001.875 2072.065 997.845 C 2068.903 960.043 2067.674 922.547 2104.551 890.96 C 2119.352 855.183 2136.235 836.761 2153.094 818.148 C 2208.957 615.851 2490.881 515.093 2586.62 491.79 Z " fill-rule="evenodd" fill="rgb(241,238,240)"/><path d=" M 2339.051 729.276 C 2272.616 738.948 2181.542 812.456 2167.747 843.155 C 2166.359 846.247 2168.511 850.635 2144.879 863.328 L 2146 867.434 C 2168.809 857.745 2230.538 867.032 2172.511 881.622 C 2210.57 880.6 2243.683 895.642 2265.863 946.226 C 2388.718 927.51 2419.148 1017.308 2388.341 1076.917 C 2469.32 1147.124 2418.104 1237.547 2373.778 1254.283 C 2400.785 1314.352 2415.061 1394.172 2332.33 1424.929 C 2332.099 1478.515 2324.701 1561.944 2197.903 1560.852 C 2182.731 1596.942 2137.695 1658.614 2061.236 1625.827 C 2061.236 1625.827 2061.149 1628.043 2060.49 1630.304 C 2059.248 1634.526 2092.103 1642.76 2092.603 1640.761 C 2118.661 1643.757 2121.701 1660.793 2089.989 1653.46 C 2078.489 1650.049 2068.303 1647.276 2060.117 1643.373 L 2060.117 1643.373 C 2060.294 1646.114 2060.397 1648.854 2058.622 1651.588 C 2141.19 1680.115 2188.795 1630.234 2214.707 1587.36 C 2313.146 1582.206 2353.884 1527.943 2358.842 1443.229 C 2439.463 1392.71 2428.112 1316.55 2403.277 1263.992 C 2475.114 1210.273 2469.969 1115.952 2415.6 1072.063 C 2452.524 948.162 2342.043 914.76 2283.787 923.448 C 2264.191 890.424 2251.371 885.633 2237.484 876.397 L 2341.665 734.872 L 2215.08 865.193 C 2202.464 860.868 2185.999 858.945 2165.417 859.591 C 2192.239 792.156 2297.548 741.068 2339.051 729.276 L 2339.051 729.276 Z " fill-rule="evenodd" fill="rgb(195,189,201)"/><path d=" M 1370.806 581.403 C 1386.602 604.979 1413.095 574.811 1457.437 621.357 L 1462.665 619.122 C 1452.695 579.071 1425.633 554.696 1385.743 550.41 C 1402.743 565.344 1390.363 566.225 1389.698 575.769 C 1389.114 584.156 1389.949 594.427 1370.806 581.403 L 1370.806 581.403 Z " fill-rule="evenodd" fill="rgb(223,161,47)"/><path d=" M 1300.606 653.845 C 1324.667 640.769 1377.107 621.14 1410.388 668.038 C 1515.253 637.364 1589.422 665.489 1599.705 707.616 C 1606.207 696.15 1576.616 632.708 1457.064 643.388 C 1354.946 571.974 1297.061 636.547 1300.606 653.845 L 1300.606 653.845 Z " fill-rule="evenodd" fill="rgb(223,161,47)"/><path d=" M 1460.424 743.84 C 1442.22 743.074 1498.928 676.061 1591.863 740.103 C 1625.18 753.128 1641.066 736.149 1634.805 708.734 C 1632.592 688.542 1621.425 677.307 1614.641 661.689 C 1661.38 696.789 1667.066 740.072 1635.399 757.51 C 1586.183 782.038 1551.59 694.725 1460.424 743.84 L 1460.424 743.84 Z " fill-rule="evenodd" fill="rgb(222,161,47)"/><path d=" M 1383.458 1699.719 L 1403.964 1729.415 L 1398.307 1725.883 C 1339.905 1753.797 1309.759 1742.861 1280.927 1730.124 L 1278.098 1728.004 C 1218.101 1739.871 1179.909 1724.12 1147.991 1700.422 C 1150.252 1718.282 1162.77 1732.034 1179.103 1744.267 L 1116.171 2020.04 L 1146.576 1761.239 C 1110.487 1862.316 1063.236 1909.579 998.084 1938.01 L 1003.033 1909.725 C 1062.564 1879.288 1113.456 1821.621 1137.384 1696.889 C 1113.657 1700.039 1089.908 1702.964 1065.259 1696.889 L 1005.862 1901.243 L 1034.146 1689.818 C 1008.339 1672.725 986.723 1651.448 965.557 1629.71 L 965.557 1626.178 C 971.928 1635.242 978.504 1607.731 977.578 1599.305 C 1021.969 1671.626 1085.235 1685.155 1146.576 1664.364 C 1146.341 1671.198 1146.677 1677.273 1143.748 1687.697 L 1146.576 1686.988 C 1149.144 1686.831 1150.198 1680.434 1151.88 1674.966 C 1150.061 1673.721 1149.608 1670.757 1148.698 1668.604 L 1149.405 1666.483 C 1183.337 1727.575 1267.623 1698.958 1278.098 1703.96 C 1276.802 1707.218 1278.832 1716.026 1280.22 1723.762 L 1281.634 1725.882 C 1283.284 1722.344 1283.52 1717.393 1282.341 1711.031 L 1279.513 1705.372 L 1281.987 1706.789 C 1310.786 1728.162 1350.18 1726.75 1383.458 1699.718 L 1383.458 1699.719 Z " fill-rule="evenodd" fill="rgb(195,189,201)"/><path d=" M 1187.942 1748.508 C 1207.269 1757.527 1227.474 1765.007 1249.461 1769.37 C 1239.096 1898.732 1173.563 2046.639 1104.503 2090.394 L 1106.271 2053.978 C 1089.364 2025.712 1075.973 1980.399 1072.33 1887.809 L 1077.987 1882.15 C 1079.569 1946.64 1086.556 2005.898 1108.039 2051.148 C 1140.879 2026.473 1212.611 1944.212 1223.651 1785.984 C 1224.26 1776.313 1221.617 1770.251 1216.227 1767.249 C 1203.347 1760.139 1195.609 1754.314 1187.942 1748.508 L 1187.942 1748.508 Z " fill-rule="evenodd" fill="rgb(193,192,200)"/><path d=" M 937.979 2295.807 C 1012.604 2315.705 1062.007 2171.721 1090.422 2074.776 C 1077.379 2048.81 1058.755 2021.88 1057.481 1904.073 L 1051.117 1910.434 C 1043.22 2061.432 1041.819 2228.13 937.979 2295.807 L 937.979 2295.807 Z " fill-rule="evenodd" fill="rgb(195,189,201)"/><path d=" M 973.714 1638.193 L 978.214 1642.696 C 972.618 1671.218 934.101 1774.761 981.714 1875.692 C 955.082 1836.389 932.84 1774.18 973.714 1638.193 L 973.714 1638.193 Z " fill-rule="evenodd" fill="rgb(223,221,227)"/><path d=" M 933.214 1701.693 L 918.714 1724.695 L 760.214 2368.192 L 928.214 1832.192 C 936.551 1863.415 947.041 1895.839 990.714 1946.691 C 929.049 2165.423 831.239 2360.738 747.214 2412.197 L 755.214 2385.694 C 719.418 2277.328 748.081 2049.66 809.214 1820.695 C 770.184 1946.192 689.701 2220.695 740.714 2420.692 L 724.714 2470.196 C 891.034 2356.58 988.868 2071.882 1025.714 1926.691 C 1016.691 1933.96 1006.555 1937.882 996.214 1941.191 C 944.002 1894.446 918.814 1819.053 933.214 1701.693 L 933.214 1701.693 Z " fill-rule="evenodd" fill="rgb(195,189,201)"/><path d=" M 833.328 1521.523 C 837.49 1541.248 860.707 1564.474 872.219 1584.46 C 878.393 1594.789 885.31 1598.813 894.139 1586.581 L 901.21 1575.269 C 918.569 1594.77 942.208 1605.092 976.871 1599.305 L 935.151 1695.477 C 886.763 1789.267 822.331 1809.516 758.374 1831.95 L 778.173 1795.176 C 861.434 1787.229 920.944 1705.116 952.122 1629.008 C 931.335 1624.351 911.302 1616.207 887.861 1600.928 L 789.487 1771.842 L 854.541 1599.305 C 867.646 1572.177 833.22 1550.906 833.328 1521.523 L 833.328 1521.523 Z " fill-rule="evenodd" fill="rgb(195,189,201)"/><path d=" M 793.73 1820.63 C 782.082 1825.485 769.939 1829.842 756.96 1833.361 C 649.961 2073.218 589.938 2287.287 399.164 2354.209 C 572.327 2387.055 688.723 2109.627 730.797 2026.402 C 761.711 1950.855 780.155 1880.54 793.73 1820.63 L 793.73 1820.63 Z " fill-rule="evenodd" fill="rgb(206,202,213)"/><path d=" M 817.714 1528.192 C 798.245 1551.532 732.054 1644.083 773.714 1798.696 L 777.214 1794.192 C 747.398 1691.664 778.436 1577.39 817.714 1528.192 L 817.714 1528.192 Z " fill-rule="evenodd" fill="rgb(224,222,228)"/><path d=" M 746.353 1664.715 C 740.771 1704.861 742.839 1736.404 744.586 1768.309 C 614.793 1998.188 398.037 2210.379 272.945 2219.085 C 432.515 2005.336 592.086 1784.451 751.657 1567.137 C 761.91 1562.761 772.163 1555.716 782.416 1548.747 C 765.671 1573.448 757.936 1593.633 754.485 1611.684 L 315.725 2174.187 C 462.356 2162.037 702.64 1814.62 738.575 1720.932 C 738.835 1692.865 742.375 1677.911 746.353 1664.715 L 746.353 1664.715 Z " fill-rule="evenodd" fill="rgb(195,189,201)"/><path d=" M 299.461 2182.318 L 309.714 2169.587 C 297.079 1952.549 542.953 1694.494 609.174 1613.447 C 598.187 1636.942 284.784 1912.249 299.461 2182.318 Z " fill-rule="evenodd" fill="rgb(223,220,225)"/><path d=" M 121.27 1793.764 C 158.081 1851.445 220.008 1887.542 452.197 1746.387 C 498.63 1695.202 545.063 1642.588 591.497 1598.602 L 580.183 1597.894 C 501.99 1630.535 300.149 1841.998 121.27 1793.765 L 121.27 1793.764 Z " fill-rule="evenodd" fill="rgb(223,221,226)"/><path d=" M 725.14 1386.469 C 695.407 1398.81 580.446 1440.426 568.869 1569.609 L 544.121 1583.4 C 700.458 1635.453 819.566 1517.358 843.227 1495.365 C 818.843 1479.742 793.98 1466.992 773.223 1429.605 L 752.717 1439.499 C 702.244 1481.447 641.373 1521.925 582.658 1561.126 L 764.738 1468.493 C 775.296 1480.323 787.405 1492.542 812.821 1508.09 C 702.493 1583.879 616.254 1580.104 574.173 1569.257 C 580.267 1494.567 624.844 1431.016 725.14 1386.469 L 725.14 1386.469 Z " fill-rule="evenodd" fill="rgb(195,189,201)"/><path d=" M 549.213 1540.194 C 545.793 1555.946 541.794 1572.279 542.213 1584.192 C 492.43 1603.808 437.491 1619.407 375.713 1629.691 C 372.214 1630.681 355.921 1636.935 349.713 1625.194 C 342.609 1620.608 334.648 1619.459 326.213 1620.193 C 324.769 1616.341 316.954 1618.047 315.963 1614.444 C 467.243 1588.242 536.279 1552.018 549.213 1540.194 Z " fill-rule="evenodd" fill="rgb(206,202,213)"/><path d=" M 379.713 1428.691 C 339.844 1448.11 173.81 1536.355 145.213 1620.691 C 226.087 1645.194 286.839 1623.783 323.463 1620.32 C 321.79 1618.001 314.986 1618.455 314.213 1614.693 C 253.835 1623.412 181.758 1627.474 161.713 1615.695 L 176.713 1608.189 C 181.381 1536.622 352.546 1447.023 379.713 1428.69 L 379.713 1428.691 Z " fill-rule="evenodd" fill="rgb(223,221,225)"/><path d=" M 186.213 1605.693 C 456.713 1505.529 587.859 1424.833 732.214 1376.191 L 732.214 1381.193 C 720.67 1388.513 625.863 1410.742 588.713 1464.692 L 186.213 1605.693 L 186.213 1605.693 Z " fill-rule="evenodd" fill="rgb(195,189,201)"/><path d=" M 685.214 1391.196 C 666.484 1399.046 648.29 1405.3 628.713 1415.692 C 540.371 1402.853 525.998 1380.803 488.213 1362.694 L 495.713 1359.692 C 509.713 1369.861 527.027 1377.82 543.713 1386.194 C 569.606 1394.932 575.923 1384.483 550.213 1375.195 C 519.194 1365.326 499.787 1352.02 482.713 1339.194 C 513.158 1280.223 584.849 1252.15 594.213 1247.691 C 554.48 1273.529 508.638 1296.403 496.713 1335.694 C 558.411 1326.553 623.823 1315.745 704.213 1298.192 C 710.262 1308.872 716.159 1319.424 727.714 1334.691 L 725.714 1337.195 L 713.714 1322.695 L 498.213 1339.194 C 557.999 1380.094 621.785 1383.991 685.214 1391.196 L 685.214 1391.196 Z " fill-rule="evenodd" fill="rgb(195,189,201)"/><path d=" M 131.523 1308.687 C 156.609 1391.905 365.237 1370.711 488.613 1362.075 L 494.977 1359.953 C 484.976 1352.998 476.245 1346.048 470.935 1339.091 C 419.618 1328.329 186.44 1377.328 131.523 1308.687 L 131.523 1308.687 Z " fill-rule="evenodd" fill="rgb(223,221,226)"/><path d=" M 524.675 1263.079 L 527.15 1265.2 C 512.536 1277.522 497.923 1288.221 483.309 1305.857 C 290.035 1306.291 168.379 1229.282 133.998 1184.587 C 181.796 1145.955 242.126 1132.381 305.825 1125.546 C 251.07 1141.803 186.958 1151.289 157.686 1186.006 L 143.898 1186.006 C 233.637 1286.266 472.993 1330.967 524.675 1263.079 L 524.675 1263.079 Z " fill-rule="evenodd" fill="rgb(223,221,226)"/><path d=" M 169.707 1189.187 C 298.2 1207.27 423.542 1222.997 555.434 1243.635 C 573.267 1227.959 605.258 1217.708 655.136 1214.29 C 638.211 1213.836 624.195 1212.067 597.507 1216.053 C 450.484 1218.155 311.631 1199.835 169.707 1189.187 L 169.707 1189.187 Z " fill-rule="evenodd" fill="rgb(195,189,201)"/><path d=" M 720.544 1169.743 C 708.503 1182.332 702.107 1200.563 697.563 1220.652 C 556.279 1174.565 533.278 1086.064 528.564 1077.109 C 613.457 1018.157 664.621 1040.112 735.04 1038.572 C 585.38 1031.61 546.022 1070.785 539.524 1078.521 C 595.711 1093.915 635.44 1108.166 755.899 1128.019 C 744.387 1136.195 737.137 1143.764 732.211 1151.001 C 685.676 1132.005 599.707 1105.636 538.464 1081.708 C 548.128 1122.519 611.298 1183.962 664.329 1199.79 C 679.146 1203.718 695.331 1211.064 701.099 1192.367 C 703.347 1184.664 715.066 1172.598 720.544 1169.743 Z " fill-rule="evenodd" fill="rgb(195,189,201)"/><path d=" M 183.142 984.124 C 209.795 1011.195 313.138 1100.526 501.341 1078.17 C 508.529 1096.546 515.718 1103.292 522.907 1110.695 C 472.954 1103.088 422.827 1097.556 371.94 1101.152 C 289.237 1076.266 213.71 1046.25 183.142 984.124 L 183.142 984.124 Z " fill-rule="evenodd" fill="rgb(223,221,226)"/><path d=" M 567.102 1023.012 C 570.036 1024.794 572.811 1026.736 576.647 1027.611 C 545.834 1039.825 522.025 1053.111 503.462 1067.208 C 408.549 1037.806 273.874 967.791 225.215 879.475 C 283.981 853.273 383.702 865.429 441.59 879.475 C 377.359 878.881 300.644 865.806 262.338 891.139 L 233.347 880.887 C 244.891 918.606 446.813 1094.624 567.102 1023.012 L 567.102 1023.012 Z " fill-rule="evenodd" fill="rgb(223,221,226)"/><path d=" M 272.591 896.089 C 393.185 938.235 507.647 979.915 603.871 1020.188 C 633.885 1012.901 663.182 1014.945 692.26 1019.832 C 685.574 1013.253 678.613 1007.503 672.814 998.267 L 670.339 999.328 L 682.36 1015.24 C 518.807 959.475 397.995 929.147 272.591 896.09 L 272.591 896.089 Z " fill-rule="evenodd" fill="rgb(195,189,201)"/><path d=" M 651.955 943.818 C 642.79 926.469 634.059 908.68 633.216 883.007 C 587.952 904.285 380.846 814.634 331.635 701.988 C 335.006 801.176 511.824 878.875 651.955 943.818 Z " fill-rule="evenodd" fill="rgb(223,221,226)"/><path d=" M 771.809 1005.689 C 765.588 1012.562 760.299 1020.834 752.364 1025.139 C 748.333 1027.733 744.61 1027.247 741.05 1025.139 C 668.074 978.343 653.419 897.188 655.136 880.536 C 711.274 870.999 789.76 872.289 897.674 939.226 C 874.035 934.198 794.208 875.445 666.45 886.189 C 664.085 930.283 697.695 1014.65 771.809 1005.689 L 771.809 1005.689 Z " fill-rule="evenodd" fill="rgb(195,189,201)"/><path d=" M 676.35 893.618 L 805.75 988.014 C 822.485 988.877 839.22 988.423 855.955 996.497 C 856.878 993.169 858.454 988.863 861.258 982.712 C 789.892 953.01 737.621 923.314 676.35 893.618 Z " fill-rule="evenodd" fill="rgb(195,189,201)"/><path d=" M 384.213 592.191 L 418.713 612.689 C 414.235 690.957 553.029 843.162 707.714 855.19 C 682.422 857.77 654.362 857.112 634.214 865.691 C 561.146 820.421 511.889 772.22 471.213 730.19 C 462.642 731.474 455.977 710.062 441.713 716.693 C 402.401 665.891 386.83 626.052 384.213 592.191 L 384.213 592.191 Z " fill-rule="evenodd" fill="rgb(223,221,226)"/><path d=" M 609.713 652.695 C 558.004 632.638 511.052 609.642 421.213 613.194 C 560.619 714.266 636.748 777.95 739.214 857.195 C 786.006 864.209 831.178 884.994 876.714 902.695 C 870.849 890.194 866.25 877.693 863.714 865.193 C 864.448 875.694 864.231 886.195 870.714 896.69 C 809.834 879.175 559.414 701.088 436.713 621.689 C 482.949 607.145 548.314 634.235 609.713 652.695 L 609.713 652.695 Z " fill-rule="evenodd" fill="rgb(196,190,202)"/><path d=" M 681.214 657.69 C 624.965 608.831 562.452 553.259 548.213 475.195 C 613.834 482.982 741.951 527.203 841.214 598.694 C 748.75 545.651 661.476 505.907 590.213 507.191 C 584.339 571.84 643.854 614.433 681.214 657.69 L 681.214 657.69 Z " fill-rule="evenodd" fill="rgb(223,221,226)"/><path d=" M 594.713 509.19 L 591.713 511.694 C 686.629 581.786 755.359 648.607 830.214 716.194 C 851.403 733.965 848.384 753.121 850.714 772.195 C 858.434 763.182 848.341 732.476 864.797 729.27 C 880.298 726.3 939.688 757.056 943.214 752.195 C 803.177 690.114 710.001 590.945 594.713 509.19 Z " fill-rule="evenodd" fill="rgb(195,189,201)"/><path d=" M 892.714 884.19 C 879.275 862.586 858.555 795.951 872.214 751.192 C 1052.442 790.138 1082.698 931.918 1085.714 960.19 C 1059.147 857.412 961.113 764.127 893.714 776.193 C 934.962 814.11 985.283 891.887 1016.714 925.192 C 1001.819 925.945 986.905 926.686 977.214 930.691 C 951.941 927.875 940.274 932.94 927.214 937.194 C 913.298 921.084 908.252 908.916 899.714 895.195 C 917.935 920.912 944.291 916.997 971.714 909.191 C 944.047 858.748 916.38 822.447 888.714 779.694 C 875.029 789.997 887.967 843.787 892.714 884.19 L 892.714 884.19 Z " fill-rule="evenodd" fill="rgb(224,222,228)"/><path d=" M 965.214 692.19 C 1271.799 895.649 1294.951 1230.068 1078.214 1175.191 C 1338.215 1143.956 1033.457 757.727 965.214 692.19 Z " fill-rule="evenodd" fill="rgb(223,221,226)"/><path d=" M 979.345 931.797 C 1004.553 921.238 1072.167 922.413 1075.159 1026.551 L 1052.885 1043.165 C 1053.343 1014.65 1057.869 950.308 979.345 931.797 L 979.345 931.797 Z " fill-rule="evenodd" fill="rgb(195,189,201)"/><path d=" M 1052.885 1044.935 L 1076.219 1027.963 C 1187.802 1070.421 1133.072 1191.007 1055.359 1171.863 C 1148.182 1162.371 1128.157 1044.06 1052.885 1044.935 Z " fill-rule="evenodd" fill="rgb(195,189,201)"/><path d=" M 1412.685 263.004 C 1427.859 289.468 1385.732 368.898 1458.292 356.966 C 1482.882 372.443 1504.949 364.044 1515.988 364.108 C 1564.07 347.359 1562.671 314.194 1565.717 305.316 C 1523.99 246.594 1570.761 235.39 1575.883 231.679 C 1601.695 234.821 1614.958 282.435 1580.279 297.619 C 1583.026 299.816 1587.239 299.452 1592.917 296.52 C 1592.407 372.794 1646.59 378.109 1684.132 365.756 C 1758.1 385.972 1722.241 300.41 1757.214 236.629 C 1717.505 306.523 1743.097 370.067 1685.231 361.91 C 1700.119 325.826 1660.79 297.715 1680.286 258.609 C 1650.125 284.422 1700.238 332.144 1680.286 356.966 C 1659.873 374.839 1640.074 359.956 1639.623 352.022 C 1631.277 326.133 1690.427 294.693 1655.009 247.067 C 1667.144 272.847 1662.951 284.447 1656.448 300.838 C 1649.944 317.228 1624.919 332.087 1636.326 364.657 C 1610.408 359.528 1596.953 328.778 1604.14 304.517 C 1611.224 280.602 1623.359 240.513 1578.08 227.559 C 1520.911 244.742 1550.003 289.992 1556.896 298.053 C 1570.932 313.255 1545.186 359.131 1512.966 358.889 C 1527.712 336.366 1510.235 331.818 1488.513 295.971 C 1486.924 315.025 1531.818 340.761 1506.097 355.868 C 1492.909 366.407 1474.227 360.211 1466.534 352.571 C 1451.977 336.021 1486.988 316.73 1480.546 284.984 C 1471.155 331.537 1457.623 328.765 1459.391 350.923 C 1442.544 355.714 1424.963 361.796 1419.482 329.646 C 1419.839 285.488 1418.962 258.353 1412.684 263.004 L 1412.685 263.004 Z " fill-rule="evenodd" fill="rgb(223,161,47)"/><path d=" M 1709.958 442.963 L 1710.782 447.632 C 1622.132 453.349 1531.833 436.384 1444.83 434.442 L 1444.83 430.322 C 1532.89 432.487 1602.506 447.958 1709.958 442.963 L 1709.958 442.963 Z " fill-rule="evenodd" fill="rgb(223,161,47)"/><path d=" M 1573.41 458.07 L 1573.135 461.641 C 1624.05 469.599 1675.035 477.648 1717.376 473.458 L 1717.376 469.612 C 1666.326 475.968 1620.258 465.716 1573.41 458.07 Z " fill-rule="evenodd" fill="rgb(223,161,47)"/><path d=" M 1451.698 384.989 C 1437.636 389.486 1444.253 410.105 1451.424 409.99 C 1467.634 410.795 1483.843 413.107 1500.053 410.539 C 1509.254 406.208 1512.277 389.952 1501.976 383.341 C 1484.935 381.246 1468.015 381.265 1451.698 384.989 L 1451.698 384.989 Z  M 1448.676 382.242 C 1476.657 376.876 1502.16 380.32 1516.538 383.066 C 1529.423 386.49 1529.462 408.942 1516.538 413.56 C 1501.903 414.909 1470.439 414.576 1448.951 412.737 C 1434.817 401.028 1442.154 386.867 1448.676 382.242 Z " fill-rule="evenodd" fill="rgb(225,160,47)"/><path d=" M 1549.232 407.243 C 1585.746 412.034 1616.62 414.87 1608.852 386.362 C 1598.446 386.503 1528.148 370.731 1549.232 407.243 Z  M 1548.133 411.089 C 1543.188 405.902 1536.369 394.691 1549.782 380.869 C 1570.178 379.425 1591.022 380.67 1612.149 383.615 C 1631.561 391.638 1629.823 408.93 1613.798 416.308 C 1579.528 416.274 1561.293 414.033 1548.134 411.089 L 1548.133 411.089 Z " fill-rule="evenodd" fill="rgb(225,160,47)"/><path d=" M 1647.825 412.513 C 1683.829 420.255 1714.095 426.969 1708.669 397.917 C 1698.287 397.208 1629.776 374.411 1647.825 412.513 Z  M 1646.418 416.256 C 1641.91 410.686 1636.025 398.958 1650.516 386.266 C 1702.201 388.936 1693.524 389.569 1712.453 394.072 C 1731.15 403.647 1728.012 420.741 1711.439 426.796 C 1666.611 427.748 1658.867 420.408 1646.417 416.256 L 1646.418 416.256 Z " fill-rule="evenodd" fill="rgb(225,160,47)"/><path d=" M 991.376 980.483 L 933.991 1149.551 C 949.965 1149.257 963.625 1150.362 991.376 1144.614 C 1017.294 1091.379 1022.648 1015.986 991.376 980.483 L 991.376 980.483 Z " fill-rule="evenodd" fill="rgb(195,189,201)"/><path d=" M 1037.622 1310.187 L 933.944 1149.947 C 931.42 1146.587 907.797 1216.347 904.532 1237.893 C 917.301 1273.018 978.507 1309.319 1037.622 1310.187 Z " fill-rule="evenodd" fill="rgb(255,255,255)"/><path d=" M 1020.636 1186.114 C 1056.951 1173.09 1063.95 1151.186 1064.443 1138.028 L 991.477 1144.511 C 1001.838 1157.555 1012.433 1171.065 1020.636 1186.114 L 1020.636 1186.114 Z " fill-rule="evenodd" fill="rgb(195,189,201)"/><path d=" M 899.606 1064.756 C 884.942 1055.021 837.344 1051.61 827.39 1060.233 L 888.322 1116.546 C 890.779 1100.073 894.209 1081.025 899.606 1064.756 Z " fill-rule="evenodd" fill="rgb(195,189,201)"/><path d=" M 761.97 1238.384 L 932.86 1150.331 C 936.728 1148.682 912.386 1217.816 904.429 1238.097 C 884.121 1248.54 799.392 1268.764 761.97 1238.384 L 761.97 1238.384 Z " fill-rule="evenodd" fill="rgb(195,189,201)"/></g></svg>