<?xml version="1.0" encoding="UTF-8" standalone="no"?>
<svg
    xmlns="http://www.w3.org/2000/svg"
    style="isolation:isolate"
    viewBox="0 0 211.9 273.6"
    width="211.9pt"
    height="273.6pt"
>
    <defs>
        <clipPath id="_clipPath_28E7ku4Nr1Czflo8PcV6wccsUuhS8n9X">
            <rect width="211.9" height="273.6"/>
        </clipPath>
    </defs>

    <g clip-path="url(#_clipPath_28E7ku4Nr1Czflo8PcV6wccsUuhS8n9X)">
        <path d=" M 80.46 187.15 C 80.46 187.15 84.42 191.65 88.74 191.47 C 93.06 191.29 96.12 191.47 96.12 191.47 C 90.05 212.18 81.84 229.49 62.46 229.09 C 48.25 227.12 41.13 219.73 40.14 207.67 C 41.93 191.66 50.66 186.86 64.08 189.67 C 63.1 191.67 62.64 194.26 63 197.77 C 64.38 202.16 67.49 202.71 71.82 200.65 C 76.77 196.26 79.17 191.71 80.46 187.15 Z " fill="rgb(255,255,255)"/>
        <path d=" M 105.96 190.46 L 105.96 190.46 L 102.06 190.57 C 99.08 200.75 95.33 212.22 88.02 224.59 C 81.52 244.28 89.26 259.96 105.96 273.53 L 105.96 273.62 C 122.42 260.16 130.4 244.29 123.9 224.59 C 116.59 212.22 112.84 200.75 109.86 190.57 L 105.96 190.46 Z " fill="rgb(255,255,255)"/>
        <path d=" M 131.46 187.15 C 131.46 187.15 127.5 191.65 123.18 191.47 C 118.86 191.29 115.8 191.47 115.8 191.47 C 121.87 212.18 130.08 229.49 149.46 229.09 C 163.67 227.12 170.79 219.73 171.78 207.67 C 169.99 191.66 161.26 186.86 147.84 189.67 C 148.82 191.67 149.28 194.26 148.92 197.77 C 147.54 202.16 144.43 202.71 140.1 200.65 C 135.15 196.26 132.75 191.71 131.46 187.15 Z " fill="rgb(255,255,255)"/>
        <path d=" M 105.84 161.95 L 105 161.95 L 87.84 161.95 C 83.08 163.4 80.68 166.18 79.92 169.87 L 79.92 177.97 C 81.16 183.08 83.22 186.66 87.12 186.79 L 105.429 186.614 L 124.5 186.79 C 128.57 186.66 130.71 183.08 132 177.97 L 132 169.87 C 131.21 166.18 128.71 163.4 123.75 161.95 L 105.84 161.95 Z  M 98.436 167.823 L 92.682 180.192 L 98.163 180.192 L 98.163 182.46 L 88.65 182.46 L 94.478 170.091 L 89.343 170.091 L 89.343 167.823 L 98.436 167.823 L 98.436 167.823 Z  M 108.327 167.823 L 111.057 167.823 L 111.057 182.46 L 108.327 182.46 L 108.327 176.244 L 103.497 176.244 L 103.497 182.46 L 100.788 182.46 L 100.788 167.823 L 103.497 167.823 L 103.497 173.934 L 108.327 173.934 L 108.327 167.823 L 108.327 167.823 Z  M 118.407 176.328 L 118.407 176.328 Q 119.782 176.328 120.481 175.503 L 120.481 175.503 L 120.481 175.503 Q 121.179 174.679 121.179 173.094 L 121.179 173.094 L 121.179 173.094 Q 121.179 171.991 120.906 171.303 L 120.906 171.303 L 120.906 171.303 Q 120.633 170.616 120.008 170.28 L 120.008 170.28 L 120.008 170.28 Q 119.383 169.944 118.344 169.944 L 118.344 169.944 L 117.294 169.944 L 117.294 176.328 L 118.407 176.328 L 118.407 176.328 Z  M 118.512 167.823 L 118.512 167.823 Q 120.99 167.823 122.439 168.993 L 122.439 168.993 L 122.439 168.993 Q 123.888 170.164 123.888 172.947 L 123.888 172.947 L 123.888 172.947 Q 123.888 174.459 123.321 175.724 L 123.321 175.724 L 123.321 175.724 Q 122.754 176.989 121.562 177.761 L 121.562 177.761 L 121.562 177.761 Q 120.371 178.533 118.596 178.533 L 118.596 178.533 L 117.294 178.533 L 117.294 182.46 L 114.585 182.46 L 114.585 167.823 L 118.512 167.823 L 118.512 167.823 Z " fill-rule="evenodd" fill="rgb(255,255,255)"/>
        <path d=" M 81 160.87 C 81 160.87 85.5 157.45 90.54 157.81 L 97.74 157.81 C 86.44 111.59 63.28 94.34 33.3 93.73 C 12.09 97.36 2.9 112.22 0 132.97 C 4.64 168.08 21.78 179.14 47.88 172.93 C 50.73 171.85 50.65 170.64 48.42 169.33 C 41.59 168.56 35.21 162.1 36.54 151.51 C 38.83 142.07 44.94 138.07 52.92 138.01 C 75.26 141.74 77.53 151.68 81 160.87 Z  M 33.275 123.34 L 33.275 123.34 Q 34.343 123.34 35.189 122.656 L 35.189 122.656 L 35.189 122.656 Q 36.035 121.972 36.527 120.58 L 36.527 120.58 L 36.527 120.58 Q 37.019 119.188 37.019 117.172 L 37.019 117.172 L 37.019 117.172 Q 37.019 114.208 36.017 112.654 L 36.017 112.654 L 36.017 112.654 Q 35.015 111.1 33.203 111.1 L 33.203 111.1 L 33.203 111.1 Q 31.439 111.1 30.473 112.654 L 30.473 112.654 L 30.473 112.654 Q 29.507 114.208 29.507 117.196 L 29.507 117.196 L 29.507 117.196 Q 29.507 119.236 29.969 120.61 L 29.969 120.61 L 29.969 120.61 Q 30.431 121.984 31.277 122.662 L 31.277 122.662 L 31.277 122.662 Q 32.123 123.34 33.275 123.34 L 33.275 123.34 L 33.275 123.34 L 33.275 123.34 Z  M 33.275 125.908 L 33.275 125.908 Q 31.043 125.908 29.471 124.846 L 29.471 124.846 L 29.471 124.846 Q 27.899 123.784 27.095 121.834 L 27.095 121.834 L 27.095 121.834 Q 26.291 119.884 26.291 117.244 L 26.291 117.244 L 26.291 117.244 Q 26.291 114.628 27.089 112.678 L 27.089 112.678 L 27.089 112.678 Q 27.887 110.728 29.441 109.666 L 29.441 109.666 L 29.441 109.666 Q 30.995 108.604 33.203 108.604 L 33.203 108.604 L 33.203 108.604 Q 35.495 108.604 37.067 109.678 L 37.067 109.678 L 37.067 109.678 Q 38.639 110.752 39.425 112.696 L 39.425 112.696 L 39.425 112.696 Q 40.211 114.64 40.211 117.244 L 40.211 117.244 L 40.211 117.244 Q 40.211 119.884 39.401 121.834 L 39.401 121.834 L 39.401 121.834 Q 38.591 123.784 37.031 124.846 L 37.031 124.846 L 37.031 124.846 Q 35.471 125.908 33.275 125.908 L 33.275 125.908 L 33.275 125.908 L 33.275 125.908 Z " fill-rule="evenodd" fill="rgb(255,255,255)"/>
        <path d=" M 130.92 160.87 C 130.92 160.87 126.42 157.45 121.38 157.81 L 114.18 157.81 C 125.48 111.59 148.64 94.34 178.62 93.73 C 199.83 97.36 209.02 112.22 211.92 132.97 C 207.28 168.08 190.14 179.14 164.04 172.93 C 161.19 171.85 161.27 170.64 163.5 169.33 C 170.33 168.56 176.71 162.1 175.38 151.51 C 173.09 142.07 166.98 138.07 159 138.01 C 136.66 141.74 134.39 151.68 130.92 160.87 Z  M 177.477 125.908 L 177.477 125.908 Q 175.665 125.908 174.117 124.93 L 174.117 124.93 L 174.117 124.93 Q 172.569 123.952 171.627 121.948 L 171.627 121.948 L 171.627 121.948 Q 170.685 119.944 170.685 117.028 L 170.685 117.028 L 170.685 117.028 Q 170.685 114.376 171.621 112.474 L 171.621 112.474 L 171.621 112.474 Q 172.557 110.572 174.159 109.588 L 174.159 109.588 L 174.159 109.588 Q 175.761 108.604 177.741 108.604 L 177.741 108.604 L 177.741 108.604 Q 178.953 108.604 179.793 108.838 L 179.793 108.838 L 179.793 108.838 Q 180.633 109.072 181.113 109.378 L 181.113 109.378 L 181.113 109.378 Q 181.593 109.684 182.037 110.092 L 182.037 110.092 L 180.693 112.612 L 180.693 112.612 Q 180.273 112.156 179.949 111.91 L 179.949 111.91 L 179.949 111.91 Q 179.625 111.664 179.127 111.514 L 179.127 111.514 L 179.127 111.514 Q 178.629 111.364 177.861 111.364 L 177.861 111.364 L 177.861 111.364 Q 176.661 111.364 175.797 112.066 L 175.797 112.066 L 175.797 112.066 Q 174.933 112.768 174.477 114.01 L 174.477 114.01 L 174.477 114.01 Q 174.021 115.252 174.021 116.86 L 174.021 116.86 L 174.021 116.86 Q 174.021 118.876 174.495 120.304 L 174.495 120.304 L 174.495 120.304 Q 174.969 121.732 175.779 122.452 L 175.779 122.452 L 175.779 122.452 Q 176.589 123.172 177.597 123.172 L 177.597 123.172 L 177.597 123.172 Q 178.665 123.172 179.487 122.872 L 179.487 122.872 L 179.487 122.872 Q 180.309 122.572 180.741 122.116 L 180.741 122.116 L 182.061 124.492 L 182.061 124.492 Q 181.329 125.092 180.291 125.5 L 180.291 125.5 L 180.291 125.5 Q 179.253 125.908 177.477 125.908 L 177.477 125.908 L 177.477 125.908 Z " fill-rule="evenodd" fill="rgb(255,255,255)"/>
        <path d=" M 103.455 77.398 L 103.455 77.398 C 103.537 109.002 104.624 134.055 105.95 134.055 C 107.278 134.055 108.365 108.957 108.445 77.311 C 107.91 74.748 106.996 73.069 105.96 73.069 C 104.912 73.069 103.988 74.787 103.455 77.398 L 103.455 77.398 Z  M 103.637 51.07 C 104 28.754 104.9 13.045 105.95 13.045 C 107.001 13.045 107.902 28.786 108.265 51.138 C 107.712 53.232 106.884 54.569 105.96 54.569 C 105.025 54.569 104.19 53.202 103.637 51.07 L 103.637 51.07 Z  M 105 157.63 L 102.96 157.63 C 101.19 142.16 94.67 128.26 83.52 113.53 C 73.44 101.89 66.24 86.89 66.24 68.53 C 67.14 41.35 81.63 19.44 105.96 0 L 105.96 0 L 105.96 0 C 130.29 19.44 144.78 41.35 145.68 68.53 C 145.68 86.89 138.48 101.89 128.4 113.53 C 117.25 128.26 110.73 142.16 108.96 157.63 L 106.92 157.63 L 105 157.63 L 105 157.63 L 105 157.63 Z  M 108.896 55.272 L 111.848 55.272 L 111.848 72.336 L 111.608 72.336 L 103.592 63.192 L 102.848 62.232 L 102.968 64.56 L 102.968 72 L 100.016 72 L 100.016 54.984 L 100.28 54.984 L 108.176 64.2 L 109.016 65.292 L 108.896 63 L 108.896 55.272 Z " fill-rule="evenodd" fill="rgb(255,255,255)"/>
    </g>
</svg>