<?xml version="1.0" encoding="UTF-8" standalone="no"?><!-- Generator: Gravit.io --><svg xmlns="http://www.w3.org/2000/svg" xmlns:xlink="http://www.w3.org/1999/xlink" style="isolation:isolate" viewBox="0 0 710 710" width="710pt" height="710pt"><defs><clipPath id="_clipPath_ILlXMrZG0PlRzmOUVT3dGgoP4cE103ZX"><rect width="710" height="710"/></clipPath></defs><g clip-path="url(#_clipPath_ILlXMrZG0PlRzmOUVT3dGgoP4cE103ZX)"><path d=" M 378.37 22.639 C 378.37 22.639 333.809 58.97 320.875 98.241 C 320.875 98.241 326.166 193.125 338.159 216.521 C 350.152 240.036 383.661 299.883 390.833 317.161 C 398.005 334.328 413.173 370.776 411.879 399.465 C 409.881 443.556 392.244 484.708 392.244 484.708 C 392.244 484.708 456.441 436.854 466.435 388.53 C 476.546 340.089 466.435 299.878 458.322 282.71 C 455.383 276.36 422.109 215.808 415.407 201.582 C 414.701 200.171 414.348 199.23 414.231 198.877 C 414.231 198.877 387.423 149.495 381.192 130.801 C 374.96 112.224 370.257 86.357 372.138 65.781 C 374.02 45.087 378.84 24.041 378.37 22.63 L 378.37 22.639 Z " fill="rgb(255,255,0)"/><path d=" M 404.71 287.42 C 404.71 287.42 458.913 320.929 462.675 377.483 C 466.908 441.21 394.128 483.773 394.128 483.773 C 394.128 483.773 431.4 373.133 417.644 319.053 C 412.588 299.3 403.299 288.365 404.71 287.425 L 404.71 287.42 Z " fill="rgb(255,0,0)"/><path d=" M 294.07 134.69 C 294.07 134.69 259.149 159.616 255.74 212.29 C 252.448 264.964 293.129 333.39 303.241 350.68 C 313.235 367.846 353.916 437.334 357.326 447.445 C 360.618 457.439 363.557 484.717 363.557 484.717 C 363.557 484.717 384.604 371.727 368.26 345.857 C 336.162 294.829 306.062 240.037 306.062 240.037 C 306.062 240.037 282.547 192.654 285.957 165.376 C 289.249 138.098 295.951 133.278 294.07 134.689 L 294.07 134.69 Z " fill="rgb(255,255,0)"/><path d=" M 335.22 342.1 C 335.22 342.1 346.743 357.855 348.154 369.848 C 349.682 381.841 351.564 434.045 353.915 446.39 C 356.384 458.853 364.027 486.131 364.027 486.131 C 364.027 486.131 386.014 465.085 387.895 422.052 C 389.894 378.901 366.378 353.505 358.736 349.742 C 351.093 345.862 335.22 343.04 335.22 342.1 L 335.22 342.1 Z " fill="rgb(255,0,0)"/><path d=" M 238.58 274.02 C 238.58 274.02 215.535 321.874 235.64 380.31 C 235.64 380.31 337.23 499.65 337.23 499.65 C 337.23 499.65 342.521 448.387 311.834 407.118 C 281.146 365.966 266.332 347.271 258.219 333.397 C 249.988 319.523 238.113 272.61 238.584 274.021 L 238.58 274.02 Z " fill="rgb(255,255,0)"/><path d=" M 350.16 495.77 C 350.16 495.77 342.87 450.151 330.995 433.455 C 311.83 406.647 281.142 397.594 281.142 397.594 C 281.142 397.594 295.016 410.998 294.076 439.686 C 293.135 468.492 350.16 497.181 350.16 495.77 Z " fill="rgb(255,0,0)"/><path d=" M 294.07 509.64 C 294.07 509.64 291.248 518.223 300.772 525.396 C 310.413 532.685 306.062 541.268 306.062 541.268 L 211.296 622.631 C 211.296 622.631 199.773 623.572 195.423 612.167 C 191.073 600.645 183.9 596.765 183.9 596.765 C 183.9 596.765 175.788 590.533 182.96 581.48 C 190.132 572.426 295.01 510.111 294.07 509.64 L 294.07 509.64 Z " fill="rgb(111,61,61)"/><path d=" M 335.69 538.33 L 379.311 537.389 L 379.311 670.019 C 379.311 670.019 378.37 685.892 367.788 687.302 C 357.324 688.713 335.69 665.316 335.69 665.316 L 336.278 540.806 L 335.69 538.337 L 335.69 538.33 Z " fill="rgb(111,61,61)"/><path d=" M 432.93 511.52 L 528.754 592.53 C 528.754 592.53 534.986 604.405 519.583 625.569 C 504.299 646.615 495.715 628.391 495.715 628.391 C 495.715 628.391 418.585 537.857 418.585 539.855 C 418.585 541.737 432.93 511.049 432.93 511.52 L 432.93 511.52 Z " fill="rgb(111,61,61)"/></g></svg>