<?xml version="1.0" encoding="UTF-8" standalone="no"?>
<!-- Generator: Adobe Illustrator 12.0.0, SVG Export Plug-In . SVG Version: 6.00 Build 51448)  -->

<svg
   xmlns:dc="http://purl.org/dc/elements/1.1/"
   xmlns:cc="http://creativecommons.org/ns#"
   xmlns:rdf="http://www.w3.org/1999/02/22-rdf-syntax-ns#"
   xmlns:svg="http://www.w3.org/2000/svg"
   xmlns="http://www.w3.org/2000/svg"
   xmlns:sodipodi="http://sodipodi.sourceforge.net/DTD/sodipodi-0.dtd"
   xmlns:inkscape="http://www.inkscape.org/namespaces/inkscape"
   version="1.1"
   id="Layer_1"
   width="398.389"
   height="398.389"
   viewBox="0 0 398.389 398.389"
   overflow="visible"
   enable-background="new 0 0 398.389 398.389"
   xml:space="preserve"
   inkscape:version="0.47 r22583"
   sodipodi:docname="WAGGGS.svg"><metadata
   id="metadata31"><rdf:RDF><cc:Work
       rdf:about=""><dc:format>image/svg+xml</dc:format><dc:type
         rdf:resource="http://purl.org/dc/dcmitype/StillImage" /><dc:title></dc:title></cc:Work></rdf:RDF></metadata><defs
   id="defs29"><inkscape:perspective
     sodipodi:type="inkscape:persp3d"
     inkscape:vp_x="0 : 199.1945 : 1"
     inkscape:vp_y="0 : 1000 : 0"
     inkscape:vp_z="398.38901 : 199.1945 : 1"
     inkscape:persp3d-origin="199.1945 : 132.79634 : 1"
     id="perspective33" /></defs><sodipodi:namedview
   pagecolor="#ffffff"
   bordercolor="#666666"
   borderopacity="1"
   objecttolerance="10"
   gridtolerance="10"
   guidetolerance="10"
   inkscape:pageopacity="0"
   inkscape:pageshadow="2"
   inkscape:window-width="640"
   inkscape:window-height="484"
   id="namedview27"
   showgrid="false"
   inkscape:zoom="0.59238582"
   inkscape:cx="199.1945"
   inkscape:cy="199.1945"
   inkscape:window-x="0"
   inkscape:window-y="0"
   inkscape:window-maximized="0"
   inkscape:current-layer="Layer_1" />
<path
   fill="#007AC1"
   d="M0,199.198C0,89.18,89.18,0,199.198,0c110.011,0,199.191,89.18,199.191,199.198  c0,110.011-89.18,199.191-199.191,199.191C89.18,398.389,0,309.209,0,199.198"
   id="path3" />
<path
   fill="#E1C800"
   d="M204.522,276.179l6.898,9.104c13.443,17.743,18.477,40.137,3.996,57.125  c-24.544,28.479-63.019,25.78-96.05,7.991C62.623,319.838,29.142,247.776,29.5,200.128c0.358-44.735,14.289-85.68,50.949-121.875  c35.829-35.668,76.035-49.112,120.061-49.112c47.296,0,97.141,21.815,126.793,56.904c30.529,36.165,44.209,70.797,43.477,113.351  c-0.747,44.384-12.513,74.663-37.934,107.548c-29.401,38.04-83.575,64.941-135.882,63.477l-4.3-0.267l5.657-3.012  c10.088-5.451,20.374-9.089,22.936-14.381c7.793-1.471,12.916-2.096,19.275-3.721c30.042-7.693,61.464-27.106,85.68-59.854  c21.654-29.478,30.386-52.932,28.563-89.417c-2.547-48.09-14.838-79.779-49.408-113.146  c-31.735-30.659-61.015-41.761-104.956-41.479c-45.849,0.176-76.203,12.086-108.685,44.385  c-33.214,32.741-46.847,63.583-46.222,110.24c0.564,49.394,22.41,100.29,72.398,130.628c32.527,19.702,62.317,18.895,70.956,14.724  c16.569-7.99,33.306-24.019,18.941-53.48l-6.2-12.185L204.522,276.179"
   id="path5" />
<path
   fill="#E1C800"
   d="M196.865,94.791c-12.817-20.38-41.975-36.042-59.854-19.474c-26.718,24.75-10.713,61.525,28.753,91.147  l5.65-5.994c-19.382-18.635-32.405-47.472-18.017-66.587c9.417-12.527,23.278-14.197,39.458,5.292L196.865,94.791"
   id="path7" />
<path
   fill="#E1C800"
   d="M202.508,94.989c12.816-20.389,41.975-36.057,59.87-19.488c26.717,24.75,10.712,61.494-28.769,91.154  l-5.65-6.001c19.383-18.628,32.405-47.486,18.017-66.587c-9.416-12.537-23.262-14.19-39.458,5.268L202.508,94.989"
   id="path9" />
<path
   fill="#E1C800"
   d="M99.07,221.555c-17.682,16.37-27.816,48.006-8.136,62.416c29.249,21.754,62.417-0.763,84.308-45.017  l-6.954-4.438c-14.754,22.471-40.694,40.557-62.127,29.935c-14.121-6.839-18.246-20.267-2.097-39.756L99.07,221.555"
   id="path11" />
<path
   fill="#E1C800"
   d="M98.208,215.996c-22.41-8.868-43.271-34.633-30.171-55.266c19.397-30.819,58.482-21.844,94.868,11.499  l-4.842,6.618c-21.891-15.601-52.626-23.05-68.768-5.437c-10.652,11.589-9.638,25.504,12.459,37.842L98.208,215.996"
   id="path13" />
<path
   fill="#E1C800"
   d="M299.32,218.718c22.769-7.808,44.849-32.642,32.719-53.801c-17.942-31.697-57.393-24.56-95.317,7.029  l4.544,6.871c22.592-14.571,53.641-20.61,68.943-2.22c10.118,11.995,8.434,25.925-14.213,37.194L299.32,218.718"
   id="path15" />
<path
   fill="#E1C800"
   d="M297.841,224.146c16.881,17.194,25.528,49.157,5.169,62.715c-30.217,20.351-62.294-3.668-82.081-48.906  l7.138-4.109c13.694,23.126,38.771,42.408,60.654,32.825c14.457-6.276,19.162-19.413,3.95-39.635L297.841,224.146"
   id="path17" />
<polyline
   fill="#E1C800"
   points="140.32,187.144 140.213,187.144 136.042,200.128 122.196,200.128 122.196,200.243 133.488,208.546   129.111,221.791 129.203,221.867 140.243,213.654 151.314,221.867 151.429,221.791 147.068,208.546 158.299,200.243   158.299,200.128 144.369,200.128 140.32,187.144 "
   id="polyline19" />
<polyline
   fill="#E1C800"
   points="258.832,187.22 258.733,187.22 254.584,200.228 240.716,200.228 240.716,200.319 252.023,208.63   247.616,221.867 247.731,221.966 258.772,213.746 269.858,221.966 269.95,221.867 265.595,208.63 276.789,200.319 276.789,200.228   262.888,200.228 258.832,187.22 "
   id="polyline21" />
<path
   fill="#E1C800"
   d="M204.894,295.47c-23.317-46.131,12.177-47.854-3.842-71.117l-3.089,1.814  c2.014,9.463-3.644,12.192-8.181,18.895c-8.014,11.818-17.087,29.554,12.91,52.779L204.894,295.47"
   id="path23" />
<path
   fill="#E1C800"
   d="M199.603,209.599c-3.652,0-6.153-1.708-7.998-4.735c-3.5-5.497-2.189-10.194-1.281-16.554l9.463-70.957  l8.197,71.315c0.694,6.39,1.921,11.041-1.465,16.569C204.803,207.891,202.766,209.515,199.603,209.599"
   id="path25" />
</svg>