<?xml version="1.0" encoding="UTF-8" standalone="no"?><!-- Generator: Gravit.io --><svg xmlns="http://www.w3.org/2000/svg" xmlns:xlink="http://www.w3.org/1999/xlink" style="isolation:isolate" viewBox="0 0 404.4 404.4" width="404.4pt" height="404.4pt"><defs><clipPath id="_clipPath_Fsh87zjVhruCeNAC2uCE6gtszKVAcy0S"><rect width="404.4" height="404.4"/></clipPath></defs><g clip-path="url(#_clipPath_Fsh87zjVhruCeNAC2uCE6gtszKVAcy0S)"><path d=" M 404.392 202.197 C 405.041 274.219 366.646 341.047 303.821 377.245 C 240.996 413.443 163.405 413.443 100.579 377.245 C 37.755 341.047 -0.641 274.219 0.008 202.197 C -0.641 130.175 37.755 63.346 100.579 27.148 C 163.405 -9.049 240.996 -9.049 303.821 27.148 C 366.646 63.346 405.041 130.175 404.392 202.197 L 404.392 202.197 Z " fill="rgb(110,32,160)"/><path d=" M 245.712 274.895 C 256.913 275.396 264.008 266.81 265.968 255.787 C 252.422 262.123 240.65 253.093 237.835 241.671 C 233.394 242.575 228.367 243.309 222.92 243.848 C 225.815 256.919 231.344 274.252 245.712 274.895 Z " fill="rgb(255,255,255)"/><path d=" M 138.39 255.781 C 140.35 266.803 147.446 275.39 158.65 274.889 C 173.003 274.246 178.532 256.943 181.431 243.876 C 175.987 243.351 170.957 242.628 166.503 241.736 C 163.656 253.123 151.907 262.104 138.39 255.781 L 138.39 255.781 Z " fill="rgb(255,255,255)"/><ellipse vector-effect="non-scaling-stroke" cx="201.99462129564077" cy="231.10700033616126" rx="43.76593" ry="6.2148883333333345" fill="none" stroke-width="3.87" stroke="rgb(255,255,255)" stroke-opacity="100" stroke-linejoin="miter" stroke-linecap="butt" stroke-miterlimit="4"/><path d=" M 134.836 151.433 C 109.627 146.874 91.146 167.398 91.434 188.86 C 91.691 208.022 104.198 223.655 125.901 222.847 C 124.13 212.055 128.377 202.412 136.538 199.616 C 151.588 194.461 160.927 208.832 164.077 221.095 C 169.118 219.963 175.015 219.056 181.499 218.435 C 177.201 188.415 163.166 156.557 134.836 151.433 Z  M 121.02 184.858 L 119.41 194.445 L 115.08 185.752 L 105.473 187.173 L 112.403 180.37 L 108.075 171.68 L 116.685 176.163 L 123.614 169.357 L 122.02 178.937 L 130.633 183.422 L 121.02 184.858 L 121.02 184.858 Z " fill="rgb(255,255,255)"/><path d=" M 312.168 183.693 C 310.378 166.174 293.499 148.784 272.17 151.426 C 241.025 155.288 226.885 187.447 222.518 218.473 C 228.995 219.11 234.872 220.035 239.883 221.181 C 241.721 206.757 258.406 191.279 272.17 202.191 C 277.272 206.237 279.177 214.854 278.128 223.273 C 301.809 222.738 314.411 205.669 312.168 183.693 L 312.168 183.693 Z  M 288.698 184.751 L 287.088 194.338 L 282.758 185.646 L 273.153 187.067 L 280.08 180.263 L 275.755 171.573 L 284.364 176.055 L 291.291 169.25 L 289.7 178.829 L 298.313 183.315 L 288.698 184.751 L 288.698 184.751 Z " fill="rgb(255,255,255)"/><path d=" M 202.005 116.328 C 202.003 116.298 202.002 116.269 201.999 116.239 L 202.012 116.232 C 202.01 116.263 202.008 116.294 202.005 116.328 C 205.75 169.637 205.15 213.124 205.08 217.413 C 209.775 217.48 214.312 217.695 218.621 218.04 C 219.471 202.661 230.72 179.473 230.72 179.473 C 244.069 154.004 242.896 140.654 242.896 140.654 C 242.25 112.197 216.667 97.266 216.667 97.266 C 209.045 91.748 202.037 84.371 202.003 84.337 C 201.899 84.446 194.929 91.768 187.345 97.259 C 187.345 97.259 161.761 112.189 161.116 140.645 C 161.116 140.645 159.943 153.996 173.292 179.465 C 173.292 179.465 184.54 202.651 185.391 218.03 C 189.699 217.686 194.238 217.475 198.932 217.41 C 198.861 213.15 198.259 169.654 202.005 116.328 L 202.005 116.328 Z " fill="rgb(255,255,255)"/><path d=" M 202.249 280.527 L 202.213 280.53 C 199.504 266.843 199.431 248.739 199.447 245.019 C 194.381 244.963 189.498 244.732 184.882 244.353 C 181.985 263.087 171.713 275.703 171.713 275.703 C 182.236 296.342 202.212 304.195 202.212 304.195 L 202.248 304.192 C 202.248 304.192 222.224 296.338 232.746 275.7 C 232.746 275.7 222.457 263.063 219.573 244.304 C 214.962 244.698 210.082 244.944 205.013 245.013 C 205.031 248.723 204.958 266.835 202.249 280.527 L 202.249 280.527 Z " fill="rgb(255,255,255)"/><g><path d=" M 102.025 305.985 C 102.025 305.985 103.61 306.166 104.487 305.811 C 105.197 305.638 106.43 304.752 107.314 304.224 C 108.017 303.867 108.725 302.98 109.78 302.632 C 109.78 302.632 111.19 302.282 112.607 302.457 C 108.9 299.276 105.371 296.091 102.196 292.558 L 102.196 292.737 C 100.96 292.376 99.373 292.737 99.373 292.737 C 98.315 292.91 97.43 293.619 96.727 294.145 C 96.018 294.504 94.606 295.207 93.901 295.388 C 93.02 295.563 91.252 295.207 91.252 295.207 C 94.606 298.917 98.14 302.457 101.841 305.985 L 102.025 305.985 L 102.025 305.985 Z " fill-rule="evenodd" fill="rgb(255,255,255)"/><path d=" M 117.178 318.124 C 117.178 318.124 118.77 317.948 119.651 317.597 C 120.356 317.244 121.418 316.361 122.122 315.659 C 122.83 315.129 123.355 314.247 124.418 313.715 C 124.418 313.715 125.829 313.188 127.237 313.188 C 123.181 310.541 119.298 307.896 115.59 304.897 L 115.59 305.08 C 114.357 304.897 112.947 305.255 112.947 305.255 C 111.711 305.608 111.009 306.49 110.474 307.016 C 109.596 307.545 108.363 308.429 107.653 308.603 C 106.769 308.957 105.184 308.781 105.184 308.781 C 108.887 312.13 112.947 315.129 117.002 318.125 L 117.178 318.125 L 117.178 318.124 L 117.178 318.124 Z " fill-rule="evenodd" fill="rgb(255,255,255)"/><path d=" M 133.766 328.185 C 133.766 328.185 135.353 327.824 136.239 327.476 C 136.766 326.947 137.824 325.888 138.352 325.181 C 139.061 324.478 139.412 323.593 140.474 322.89 C 140.474 322.89 141.707 322.182 143.119 322.008 C 138.709 320.07 134.469 317.774 130.413 315.31 L 130.59 315.31 C 129.179 315.484 127.767 316.013 127.767 316.013 C 126.712 316.543 126.18 317.422 125.653 318.131 C 124.943 318.66 123.885 319.718 123.183 320.069 C 122.298 320.42 120.711 320.594 120.711 320.594 C 124.769 323.244 129.179 325.888 133.593 328.185 L 133.766 328.185 L 133.766 328.185 Z " fill-rule="evenodd" fill="rgb(255,255,255)"/><path d=" M 151.577 335.934 C 151.577 335.934 153.169 335.585 153.871 334.878 C 154.406 334.348 155.284 333.291 155.818 332.412 C 156.167 331.703 156.521 330.645 157.579 329.942 C 157.579 329.942 158.639 329.056 160.05 328.705 C 155.459 327.295 150.873 325.531 146.641 323.589 L 146.641 323.771 C 145.409 323.945 144.172 324.647 144.172 324.647 C 143.114 325.356 142.759 326.412 142.229 327.119 C 141.527 327.82 140.642 328.881 139.94 329.415 C 139.231 329.943 137.645 330.115 137.645 330.115 C 142.053 332.412 146.641 334.348 151.403 336.113 L 151.577 335.934 L 151.577 335.934 Z " fill-rule="evenodd" fill="rgb(255,255,255)"/><path d=" M 265.162 331.006 C 265.162 331.006 265.862 329.595 266.04 328.71 C 266.04 328.003 265.861 326.417 265.686 325.536 C 265.511 324.652 264.984 323.775 264.984 322.541 C 264.984 322.541 265.337 321.13 265.861 319.892 C 261.628 322.182 257.397 324.128 252.981 325.889 C 252.281 326.948 251.746 328.36 251.746 328.36 C 251.393 329.773 251.573 330.297 251.573 331.36 C 251.746 332.236 251.393 333.83 251.22 334.533 C 251.044 335.415 250.333 337.178 250.333 337.178 C 254.928 335.59 260.571 333.296 265.162 331.179 L 265.162 331.006 L 265.162 331.006 Z " fill-rule="evenodd" fill="rgb(255,255,255)"/><path d=" M 282.097 321.83 C 282.097 321.83 282.796 320.242 282.796 319.183 C 282.621 318.481 282.27 317.068 281.91 316.184 C 281.56 315.481 281.035 314.598 281.035 313.361 C 281.035 313.361 281.035 311.775 281.561 310.54 C 277.506 313.361 273.447 315.831 269.39 318.128 L 269.565 318.128 C 268.856 319.364 268.683 320.776 268.683 320.776 C 268.683 322.004 269.211 322.887 269.39 323.772 C 269.565 324.648 269.915 326.06 269.915 326.944 C 269.741 327.821 269.032 329.235 269.032 329.235 C 273.446 327.12 277.853 324.648 282.097 321.83 L 282.097 321.83 Z " fill-rule="evenodd" fill="rgb(255,255,255)"/><path d=" M 297.789 310.191 C 297.789 310.191 298.142 308.603 298.142 307.719 C 297.965 307.017 297.256 305.609 296.905 304.724 C 296.555 304.023 295.67 303.313 295.493 302.077 C 295.493 302.077 295.493 300.666 295.67 299.255 C 292.139 302.434 288.435 305.608 284.728 308.429 L 284.728 308.254 C 284.373 309.665 284.373 311.076 284.373 311.076 C 284.373 312.306 285.082 313.189 285.434 313.898 C 285.785 314.775 286.321 316.186 286.321 316.895 C 286.321 317.772 285.785 319.361 285.785 319.361 C 290.023 316.71 293.907 313.54 297.789 310.367 L 297.789 310.191 L 297.789 310.191 Z " fill-rule="evenodd" fill="rgb(255,255,255)"/><path d=" M 311.903 296.779 C 311.903 296.779 312.08 295.194 311.719 294.317 C 311.544 293.609 310.666 292.371 310.13 291.493 C 309.782 290.784 308.898 290.259 308.545 289.022 C 308.545 289.022 308.195 287.609 308.37 286.203 C 305.188 289.905 302.016 293.432 298.661 296.602 C 298.487 297.839 298.661 299.427 298.661 299.427 C 298.838 300.662 299.546 301.367 300.073 302.073 C 300.43 302.954 301.132 304.192 301.313 304.894 C 301.487 305.778 301.132 307.541 301.132 307.541 C 304.841 304.192 308.545 300.662 311.902 296.962 L 311.902 296.779 L 311.903 296.779 L 311.903 296.779 Z " fill-rule="evenodd" fill="rgb(255,255,255)"/><path d=" M 324.072 281.616 C 324.072 281.616 324.072 280.03 323.545 279.146 C 323.37 278.444 322.312 277.385 321.777 276.674 C 321.075 275.973 320.19 275.445 319.661 274.386 C 319.661 274.386 319.131 272.974 319.131 271.562 C 316.66 275.619 313.837 279.496 310.837 283.203 L 311.015 283.203 C 310.837 284.436 311.191 286.023 311.191 286.023 C 311.542 287.087 312.426 287.789 312.952 288.497 C 313.487 289.198 314.364 290.434 314.718 291.137 C 314.896 292.023 314.896 293.61 314.896 293.61 C 318.068 289.906 321.247 285.85 324.071 281.794 L 324.071 281.616 L 324.072 281.616 L 324.072 281.616 Z " fill-rule="evenodd" fill="rgb(255,255,255)"/><path d=" M 334.113 265.038 C 334.113 265.038 333.762 263.449 333.403 262.572 C 332.878 262.042 331.815 260.985 331.118 260.454 C 330.583 259.927 329.531 259.392 328.822 258.34 C 328.822 258.34 328.113 257.103 327.938 255.696 C 325.998 260.101 323.703 264.334 321.232 268.385 L 321.407 268.21 C 321.407 269.621 321.937 271.032 321.937 271.032 C 322.47 272.092 323.529 272.619 324.055 273.15 C 324.765 273.853 325.643 274.914 325.998 275.62 C 326.527 276.501 326.527 278.085 326.527 278.085 C 329.348 274.029 331.816 269.62 334.114 265.209 L 334.114 265.038 L 334.113 265.038 L 334.113 265.038 Z " fill-rule="evenodd" fill="rgb(255,255,255)"/><path d=" M 342.413 247.4 C 342.413 247.4 341.879 245.814 341.35 245.105 C 341.001 244.406 339.765 243.522 339.055 242.993 C 338.355 242.46 337.469 242.111 336.762 241.049 C 336.762 241.049 335.882 239.822 335.706 238.408 C 333.94 242.993 331.823 247.227 329.706 251.459 C 329.88 252.694 330.589 254.108 330.589 254.108 C 331.117 255.159 332.176 255.509 332.705 256.217 C 333.41 256.746 334.472 257.806 334.823 258.514 C 335.349 259.217 335.531 260.979 335.531 260.979 C 337.995 256.57 340.289 252.162 342.412 247.58 L 342.412 247.4 L 342.413 247.4 L 342.413 247.4 Z " fill-rule="evenodd" fill="rgb(255,255,255)"/><path d=" M 347.341 228.714 C 347.341 228.714 346.64 227.126 346.105 226.419 C 345.401 226.067 344.168 225.36 343.284 224.831 C 342.582 224.481 341.524 224.307 340.635 223.598 C 340.635 223.598 339.576 222.361 339.048 221.126 C 338.165 225.893 337.106 230.65 335.867 235.061 C 336.222 236.297 337.279 237.533 337.279 237.533 C 337.989 238.408 339.048 238.59 339.751 239.118 C 340.635 239.646 341.872 240.356 342.399 240.88 C 342.931 241.588 343.458 243.174 343.458 243.174 C 345.047 238.59 346.279 233.65 347.518 228.714 L 347.341 228.714 L 347.341 228.714 Z " fill-rule="evenodd" fill="rgb(255,255,255)"/><path d=" M 350.345 209.488 C 350.345 209.488 349.47 208.076 348.758 207.552 C 348.059 207.021 346.641 206.491 345.763 206.316 C 345.056 205.966 343.997 205.966 342.935 205.257 C 342.935 205.257 341.882 204.377 341.173 203.142 C 340.822 207.901 340.465 212.665 339.761 217.425 L 339.761 217.251 C 340.289 218.484 341.348 219.543 341.348 219.543 C 342.41 220.426 343.469 220.426 344.17 220.776 C 345.056 221.129 346.288 221.839 346.998 222.364 C 347.7 222.892 348.409 224.478 348.409 224.478 C 349.293 219.543 349.998 214.606 350.532 209.488 L 350.345 209.488 L 350.345 209.488 Z " fill-rule="evenodd" fill="rgb(255,255,255)"/><path d=" M 350.875 190.089 C 350.875 190.089 349.817 188.676 348.933 188.327 C 348.231 187.97 346.82 187.62 345.935 187.442 C 345.053 187.268 343.994 187.442 342.932 186.914 C 342.932 186.914 341.698 186.034 340.819 184.975 C 341.17 189.738 341.345 194.498 341.345 199.259 L 341.345 199.083 C 342.055 200.317 343.291 201.202 343.291 201.202 C 344.167 201.906 345.227 201.906 346.112 202.082 C 346.996 202.257 348.407 202.788 349.11 203.137 C 349.818 203.668 350.703 205.079 350.703 205.079 C 351.051 200.143 351.051 195.201 350.875 190.089 L 350.875 190.089 Z " fill-rule="evenodd" fill="rgb(255,255,255)"/><path d=" M 348.757 170.689 C 348.757 170.689 347.526 169.629 346.647 169.277 C 345.937 168.928 344.352 168.928 343.467 168.749 C 342.582 168.749 341.525 169.103 340.47 168.572 C 340.47 168.572 339.057 168.044 338.174 166.986 C 339.234 171.745 339.937 176.509 340.47 181.094 L 340.47 180.919 C 341.346 181.979 342.582 182.683 342.582 182.683 C 343.817 183.39 344.878 183.211 345.589 183.211 C 346.647 183.39 348.059 183.739 348.757 184.093 C 349.468 184.445 350.704 185.682 350.704 185.682 C 350.343 180.74 349.645 175.803 348.757 170.864 L 348.757 170.689 L 348.757 170.689 Z " fill-rule="evenodd" fill="rgb(255,255,255)"/><path d=" M 344.001 151.809 C 344.001 151.809 342.762 150.929 341.879 150.579 C 340.996 150.401 339.583 150.579 338.705 150.579 C 337.822 150.753 336.763 151.108 335.7 150.753 C 335.7 150.753 334.289 150.401 333.053 149.519 C 334.824 154.102 336.234 158.69 337.286 163.275 L 337.286 163.101 C 338.348 163.981 339.758 164.508 339.758 164.508 C 340.819 165.039 341.879 164.683 342.762 164.683 C 343.641 164.683 345.058 164.861 345.76 165.04 C 346.645 165.39 348.057 166.452 348.057 166.452 C 346.995 161.513 345.76 156.75 344.174 151.809 L 344.001 151.809 L 344.001 151.809 Z " fill-rule="evenodd" fill="rgb(255,255,255)"/><path d=" M 337.117 133.642 C 337.117 133.642 335.53 132.937 334.646 132.761 C 333.938 132.761 332.35 132.937 331.473 133.288 C 330.765 133.466 329.705 133.995 328.469 133.817 C 328.469 133.817 327.059 133.466 325.824 132.937 C 328.118 137.168 330.054 141.579 331.821 145.986 L 331.821 145.81 C 332.884 146.516 334.298 146.865 334.298 146.865 C 335.531 147.223 336.584 146.691 337.291 146.691 C 338.354 146.516 339.764 146.338 340.466 146.516 C 341.348 146.691 342.76 147.746 342.76 147.746 C 341.174 142.99 339.23 138.402 337.117 133.816 L 337.117 133.642 L 337.117 133.642 Z " fill-rule="evenodd" fill="rgb(255,255,255)"/><path d=" M 327.769 116.693 C 327.769 116.693 326.181 115.987 325.298 116.166 C 324.422 116.166 323.003 116.516 322.124 116.871 C 321.417 117.223 320.537 117.752 319.306 117.752 C 319.306 117.752 317.893 117.752 316.481 117.222 C 319.306 121.286 321.776 125.35 324.063 129.411 C 325.298 129.943 326.709 130.119 326.709 130.119 C 327.947 130.294 328.831 129.589 329.715 129.411 C 330.591 129.236 332.005 128.881 332.887 128.881 C 333.771 129.059 335.184 129.766 335.184 129.766 C 333.062 125.35 330.591 120.931 327.769 116.693 L 327.769 116.693 Z " fill-rule="evenodd" fill="rgb(255,255,255)"/><path d=" M 316.303 101.018 C 316.303 101.018 314.542 100.668 313.656 100.842 C 312.954 100.842 311.537 101.548 310.833 101.9 C 309.951 102.428 309.248 103.134 308.012 103.309 C 308.012 103.309 306.601 103.485 305.188 103.134 C 308.539 106.662 311.537 110.364 314.368 114.068 L 314.191 114.068 C 315.595 114.419 317.011 114.419 317.011 114.419 C 318.251 114.419 319.127 113.713 319.835 113.362 C 320.712 113.007 322.12 112.658 322.83 112.481 C 323.894 112.481 325.48 113.008 325.48 113.008 C 322.655 108.954 319.65 104.897 316.303 101.018 Z " fill-rule="evenodd" fill="rgb(255,255,255)"/><path d=" M 302.728 86.932 C 302.728 86.932 301.134 86.755 300.257 87.107 C 299.548 87.283 298.314 88.165 297.431 88.691 C 296.728 89.045 296.201 89.926 294.965 90.277 C 294.965 90.277 293.554 90.628 292.135 90.452 C 295.844 93.622 299.373 96.792 302.547 100.314 L 302.547 100.138 C 303.959 100.489 305.377 100.138 305.377 100.138 C 306.604 99.963 307.313 99.256 308.023 98.73 C 308.9 98.376 310.132 97.67 310.843 97.496 C 311.899 97.319 313.491 97.671 313.491 97.671 C 310.133 93.975 306.605 90.454 302.906 86.934 L 302.728 86.934 L 302.728 86.932 Z " fill-rule="evenodd" fill="rgb(255,255,255)"/><path d=" M 287.738 74.74 C 287.738 74.74 285.974 74.916 285.089 75.27 C 284.379 75.622 283.328 76.506 282.618 77.206 C 281.914 77.738 281.385 78.619 280.322 79.148 C 280.322 79.148 278.914 79.679 277.501 79.679 C 281.558 82.32 285.439 84.969 289.147 87.965 L 289.147 87.791 C 290.558 87.965 291.968 87.614 291.968 87.614 C 293.029 87.259 293.731 86.378 294.44 85.849 C 295.148 85.318 296.376 84.437 297.085 84.262 C 297.971 83.911 299.556 84.087 299.556 84.087 C 295.852 80.735 291.97 77.738 287.738 74.74 L 287.738 74.74 Z " fill-rule="evenodd" fill="rgb(255,255,255)"/><path d=" M 270.977 64.687 C 270.977 64.687 269.389 65.038 268.682 65.393 C 267.98 65.922 266.919 66.979 266.392 67.685 C 265.857 68.391 265.333 69.27 264.271 69.977 C 264.271 69.977 263.037 70.681 261.625 70.861 C 266.036 72.799 270.274 75.089 274.333 77.561 L 274.158 77.561 C 275.569 77.381 276.979 76.856 276.979 76.856 C 278.039 76.325 278.564 75.444 279.092 74.739 C 279.801 74.209 280.858 73.148 281.561 72.799 C 282.447 72.448 284.033 72.267 284.033 72.267 L 284.208 72.267 C 279.977 69.626 275.57 66.978 271.154 64.686 L 270.977 64.686 L 270.977 64.687 L 270.977 64.687 Z " fill-rule="evenodd" fill="rgb(255,255,255)"/><path d=" M 253.339 56.927 C 253.339 56.927 251.573 57.279 251.044 57.985 C 250.333 58.515 249.456 59.575 248.93 60.456 C 248.573 61.161 248.224 62.216 247.337 62.923 C 247.337 62.923 246.104 63.804 244.865 64.158 C 249.457 65.571 253.869 67.333 258.1 69.272 L 258.1 69.097 C 259.334 68.919 260.745 68.216 260.745 68.216 C 261.628 67.507 262.157 66.452 262.691 65.746 C 263.216 65.04 264.102 63.985 264.804 63.454 C 265.511 62.924 267.274 62.75 267.274 62.75 C 262.691 60.458 258.1 58.516 253.339 56.754 L 253.339 56.927 L 253.339 56.927 Z " fill-rule="evenodd" fill="rgb(255,255,255)"/><path d=" M 234.642 51.457 C 234.642 51.457 233.051 52.163 232.523 52.869 C 231.994 53.399 231.287 54.633 230.936 55.517 C 230.585 56.22 230.401 57.279 229.524 58.158 C 229.524 58.158 228.465 59.219 227.226 59.749 C 231.813 60.63 236.579 61.687 241.165 63.097 L 240.989 62.922 C 242.224 62.568 243.46 61.687 243.46 61.687 C 244.344 60.806 244.694 59.749 245.053 59.042 C 245.577 58.339 246.279 57.101 246.99 56.572 C 247.518 55.867 249.286 55.341 249.286 55.341 C 244.519 53.751 239.578 52.519 234.641 51.283 L 234.641 51.457 L 234.642 51.457 L 234.642 51.457 Z " fill-rule="evenodd" fill="rgb(255,255,255)"/><path d=" M 215.416 48.461 C 215.416 48.461 214.005 49.342 213.477 50.047 C 212.947 50.753 212.594 52.164 212.243 53.044 C 211.884 53.751 211.884 54.81 211.181 55.867 C 211.181 55.867 210.299 56.927 209.064 57.634 C 214.006 57.985 218.589 58.339 223.357 59.043 L 223.177 59.043 C 224.416 58.514 225.475 57.454 225.475 57.454 C 226.351 56.572 226.351 55.517 226.711 54.634 C 227.061 53.751 227.764 52.519 228.299 51.812 C 228.824 51.282 230.408 50.402 230.408 50.402 C 225.475 49.521 220.533 48.815 215.591 48.461 L 215.416 48.461 Z " fill-rule="evenodd" fill="rgb(255,255,255)"/><path d=" M 196.017 48.108 C 196.017 48.108 194.606 49.165 194.253 49.872 C 193.904 50.576 193.548 51.988 193.369 52.868 C 193.194 53.749 193.369 54.809 192.844 55.865 C 192.844 55.865 191.961 57.1 190.898 57.983 C 195.664 57.629 200.607 57.453 205.191 57.629 L 205.191 57.453 C 206.25 56.748 207.133 55.516 207.133 55.516 C 207.835 54.629 207.835 53.575 208.014 52.694 C 208.369 51.808 208.72 50.402 209.248 49.696 C 209.783 48.991 211.016 48.108 211.016 48.108 L 211.19 48.108 C 206.074 47.755 201.133 47.755 196.016 47.931 L 196.016 48.108 L 196.017 48.108 L 196.017 48.108 Z " fill-rule="evenodd" fill="rgb(255,255,255)"/><path d=" M 176.618 50.222 C 176.618 50.222 175.566 51.283 175.209 52.163 C 175.035 52.869 174.857 54.456 174.857 55.34 C 174.682 56.22 175.035 57.278 174.507 58.338 C 174.507 58.338 173.979 59.748 172.92 60.629 C 177.68 59.748 182.447 58.864 187.028 58.338 C 188.09 57.453 188.798 56.219 188.798 56.219 C 189.323 55.159 189.148 54.104 189.323 53.219 C 189.323 52.339 189.677 50.752 190.034 50.045 C 190.387 49.34 191.619 48.107 191.619 48.107 C 186.679 48.634 181.737 49.164 176.802 50.045 L 176.618 50.222 Z " fill-rule="evenodd" fill="rgb(255,255,255)"/><path d=" M 157.738 54.81 C 157.738 54.81 156.855 56.045 156.68 56.927 C 156.68 56.927 156.505 59.219 156.505 60.1 C 156.68 60.981 157.035 62.042 156.68 63.097 C 156.68 63.097 156.326 64.687 155.449 65.745 C 160.033 63.984 164.619 62.748 169.206 61.511 L 169.032 61.511 C 169.917 60.455 170.62 59.219 170.62 59.219 C 170.969 57.984 170.62 56.927 170.62 56.22 C 170.62 55.16 170.795 53.75 170.969 53.043 C 171.33 52.163 172.388 50.929 172.388 50.929 C 167.446 51.811 162.681 53.043 157.913 54.633 L 157.738 54.81 Z " fill-rule="evenodd" fill="rgb(255,255,255)"/><path d=" M 139.764 61.865 C 139.764 61.865 138.878 63.277 138.878 64.156 C 138.701 64.863 139.053 66.449 139.23 67.33 C 139.404 68.214 139.939 69.095 139.764 70.33 C 139.764 70.33 139.579 71.739 138.878 72.974 C 143.112 70.682 147.525 68.741 151.934 66.979 L 151.76 66.979 C 152.46 65.918 152.993 64.508 152.993 64.508 C 153.168 63.277 152.818 62.396 152.645 61.51 C 152.46 60.629 152.46 59.042 152.645 58.338 C 152.645 57.455 153.696 56.045 153.696 56.045 C 148.937 57.633 144.345 59.573 139.764 61.687 L 139.764 61.865 Z " fill-rule="evenodd" fill="rgb(255,255,255)"/><path d=" M 122.656 71.036 C 122.656 71.036 122.124 72.624 122.124 73.681 C 122.124 74.384 122.656 75.796 122.831 76.68 C 123.182 77.382 123.892 78.268 123.892 79.5 C 123.892 79.5 123.712 81.089 123.357 82.321 C 127.244 79.5 131.309 77.032 135.547 74.74 L 135.373 74.74 C 135.908 73.505 136.082 72.094 136.082 72.094 C 136.257 70.859 135.733 69.978 135.548 69.095 C 135.198 68.214 134.849 66.805 135.023 65.921 C 135.023 65.037 135.733 63.631 135.733 63.631 C 131.309 65.744 126.893 68.215 122.656 71.036 Z " fill-rule="evenodd" fill="rgb(255,255,255)"/><path d=" M 106.933 82.677 C 106.933 82.677 106.577 84.263 106.753 85.146 C 106.933 85.853 107.46 87.263 107.987 88.144 C 108.346 88.849 109.045 89.555 109.22 90.787 C 109.22 90.787 109.405 92.199 109.045 93.609 C 112.578 90.26 116.286 87.262 120.164 84.437 L 119.989 84.618 C 120.519 83.205 120.34 81.796 120.34 81.796 C 120.34 80.56 119.64 79.68 119.459 78.973 C 119.106 78.093 118.579 76.681 118.404 75.976 C 118.404 75.094 118.932 73.506 118.932 73.506 C 114.874 76.153 110.813 79.149 106.934 82.502 L 106.934 82.677 L 106.933 82.677 Z " fill-rule="evenodd" fill="rgb(255,255,255)"/><path d=" M 93.013 96.079 C 93.013 96.079 92.837 97.666 93.013 98.549 C 93.19 99.251 94.075 100.488 94.599 101.37 C 95.134 102.075 95.843 102.605 96.193 103.838 C 96.193 103.838 96.545 105.247 96.37 106.66 C 99.547 102.956 102.911 99.429 106.266 96.256 L 106.091 96.256 C 106.44 95.02 106.266 93.434 106.266 93.434 C 105.906 92.199 105.207 91.494 104.85 90.787 C 104.319 89.906 103.614 88.674 103.439 87.968 C 103.264 87.084 103.614 85.322 103.614 85.322 C 99.907 88.674 96.37 92.198 93.012 95.901 L 93.012 96.079 L 93.013 96.079 L 93.013 96.079 Z " fill-rule="evenodd" fill="rgb(255,255,255)"/><path d=" M 80.854 111.246 C 80.854 111.246 80.854 112.834 81.203 113.714 C 81.559 114.42 82.439 115.479 83.146 116.185 C 83.672 116.891 84.557 117.416 85.083 118.477 C 85.083 118.477 85.619 119.89 85.619 121.299 C 88.262 117.242 91.085 113.363 93.909 109.661 C 93.909 108.424 93.555 106.839 93.555 106.839 C 93.205 105.78 92.322 105.074 91.795 104.37 C 91.26 103.665 90.385 102.428 90.207 101.724 C 89.847 100.842 90.025 99.252 90.025 99.252 C 86.673 102.96 83.671 106.839 80.673 111.072 L 80.854 111.246 L 80.854 111.246 Z " fill-rule="evenodd" fill="rgb(255,255,255)"/><path d=" M 70.619 127.828 C 70.619 127.828 70.973 129.417 71.507 130.123 C 71.857 130.826 72.919 131.885 73.617 132.415 C 74.33 132.942 75.211 133.471 75.917 134.531 C 75.917 134.531 76.621 135.765 76.797 137.174 C 78.918 132.768 81.208 128.533 83.5 124.479 L 83.5 124.653 C 83.326 123.243 82.8 121.832 82.8 121.832 C 82.267 120.776 81.383 120.245 80.858 119.716 C 80.145 119.009 79.093 117.954 78.737 117.247 C 78.384 116.364 78.209 114.777 78.209 114.777 C 75.564 118.833 72.918 123.242 70.618 127.651 L 70.618 127.828 L 70.619 127.828 L 70.619 127.828 Z " fill-rule="evenodd" fill="rgb(255,255,255)"/><path d=" M 62.86 145.465 C 62.86 145.465 63.388 147.231 63.913 147.936 C 64.445 148.461 65.681 149.344 66.386 149.873 C 67.092 150.228 68.154 150.578 68.854 151.462 C 68.854 151.462 69.742 152.695 70.091 154.104 C 71.684 149.521 73.269 144.934 75.206 140.705 L 75.031 140.705 C 74.856 139.468 74.146 138.057 74.146 138.057 C 73.443 137.175 72.385 136.647 71.858 136.117 C 70.972 135.586 69.915 134.705 69.565 134.002 C 69.031 133.295 68.677 131.533 68.677 131.533 C 66.561 136.118 64.625 140.706 62.86 145.465 L 62.86 145.465 Z " fill-rule="evenodd" fill="rgb(255,255,255)"/><path d=" M 57.391 164.152 C 57.391 164.152 58.093 165.738 58.804 166.266 C 59.329 166.796 60.565 167.502 61.452 168.033 C 62.333 168.383 63.389 168.383 64.272 169.264 C 64.272 169.264 65.157 170.325 65.682 171.556 C 66.569 166.97 67.628 162.212 69.039 157.625 L 68.862 157.803 C 68.511 156.567 67.628 155.333 67.628 155.333 C 66.745 154.452 65.86 154.096 64.982 153.746 C 64.272 153.216 63.039 152.509 62.508 151.804 C 61.801 151.279 61.274 149.693 61.274 149.693 C 59.866 154.279 58.453 159.214 57.391 164.152 Z " fill-rule="evenodd" fill="rgb(255,255,255)"/><path d=" M 54.397 183.378 C 54.397 183.378 55.28 184.787 56.162 185.318 C 56.691 185.848 58.105 186.378 58.984 186.555 C 59.871 186.904 60.926 186.904 61.814 187.61 C 61.814 187.61 63.051 188.491 63.75 189.728 C 63.925 184.969 64.46 180.206 65.162 175.442 L 64.988 175.62 C 64.46 174.387 63.401 173.328 63.401 173.328 C 62.515 172.444 61.459 172.444 60.578 172.095 C 59.872 171.738 58.461 171.032 57.926 170.507 C 57.224 169.976 56.515 168.39 56.515 168.39 C 55.454 173.328 54.751 178.263 54.397 183.378 Z " fill-rule="evenodd" fill="rgb(255,255,255)"/><path d=" M 54.061 202.787 C 54.061 202.787 55.116 204.199 55.822 204.548 C 56.525 204.901 58.112 205.254 58.995 205.432 C 59.698 205.607 60.757 205.432 61.813 205.96 C 61.813 205.96 63.225 206.844 63.924 207.899 C 63.574 203.136 63.399 198.377 63.574 193.613 C 62.697 192.557 61.638 191.676 61.638 191.676 C 60.583 190.967 59.525 190.967 58.64 190.792 C 57.759 190.443 56.35 190.088 55.822 189.556 C 54.939 189.206 54.061 187.794 54.061 187.794 C 53.711 192.733 53.711 197.67 53.886 202.787 L 54.061 202.787 L 54.061 202.787 Z " fill-rule="evenodd" fill="rgb(255,255,255)"/><path d=" M 56.159 222.186 C 56.159 222.186 57.393 223.245 58.28 223.599 C 58.981 223.947 60.392 223.947 61.276 224.124 C 62.16 224.124 63.223 223.774 64.273 224.302 C 64.273 224.302 65.689 224.833 66.746 225.894 C 65.689 221.127 64.808 216.368 64.273 211.783 C 63.396 210.9 62.159 210.02 62.159 210.02 C 61.099 209.491 60.041 209.666 59.154 209.491 C 58.279 209.491 56.868 209.14 56.158 208.786 C 55.276 208.433 54.219 207.197 54.219 207.197 C 54.574 212.134 55.101 217.075 55.981 222.013 L 56.159 222.186 L 56.159 222.186 Z " fill-rule="evenodd" fill="rgb(255,255,255)"/><path d=" M 60.742 241.056 C 60.742 241.056 62.153 241.941 63.041 242.118 C 63.747 242.292 65.159 242.292 66.217 242.292 C 66.92 242.118 67.982 241.765 69.216 242.118 C 69.216 242.118 70.626 242.468 71.688 243.352 C 70.1 238.769 68.69 234.184 67.454 229.592 L 67.454 229.768 C 66.572 228.89 65.159 228.181 65.159 228.181 C 63.922 227.83 63.041 228.181 62.154 228.181 C 61.101 228.181 59.692 228.006 58.982 227.83 C 58.096 227.481 56.864 226.419 56.864 226.419 C 57.923 231.361 59.156 236.118 60.568 240.88 L 60.742 241.056 L 60.742 241.056 Z " fill-rule="evenodd" fill="rgb(255,255,255)"/><path d=" M 67.799 259.05 C 67.799 259.05 69.21 259.934 70.096 259.934 C 70.978 260.108 72.391 259.751 73.274 259.573 C 74.152 259.398 75.036 258.874 76.274 259.049 C 76.274 259.049 77.686 259.224 78.919 259.933 C 76.623 255.702 74.686 251.29 73.094 246.883 L 73.094 247.057 C 71.864 246.35 70.451 246.001 70.451 246.001 C 69.211 245.646 68.334 246.174 67.448 246.174 C 66.565 246.35 64.979 246.35 64.275 246.35 C 63.392 246.174 61.98 245.112 61.98 245.112 C 63.567 249.88 65.51 254.463 67.624 259.05 L 67.799 259.05 L 67.799 259.05 Z " fill-rule="evenodd" fill="rgb(255,255,255)"/><path d=" M 77.147 276.148 C 77.147 276.148 78.734 276.675 79.618 276.675 C 80.321 276.675 81.728 276.148 82.616 275.974 C 83.497 275.62 84.384 274.915 85.437 274.915 C 85.437 274.915 87.029 275.089 88.262 275.446 C 85.437 271.563 82.966 267.506 80.675 263.449 C 79.443 262.924 78.03 262.747 78.03 262.747 C 76.793 262.572 75.912 263.101 75.025 263.449 C 74.147 263.624 72.738 263.983 72.027 263.804 C 71.146 263.804 69.559 263.101 69.559 263.101 C 71.852 267.507 74.325 271.918 76.968 276.149 L 77.147 276.149 L 77.147 276.148 Z " fill-rule="evenodd" fill="rgb(255,255,255)"/><path d=" M 88.613 291.851 C 88.613 291.851 90.2 292.2 91.083 292.027 C 91.785 291.851 93.204 291.323 94.082 290.788 C 94.791 290.438 95.494 289.737 96.726 289.554 C 96.726 289.554 98.314 289.38 99.547 289.737 C 96.377 286.208 93.378 282.505 90.551 278.622 L 90.551 278.798 C 89.321 278.449 87.728 278.449 87.728 278.449 C 86.491 278.449 85.793 279.151 84.906 279.507 C 84.03 279.682 82.619 280.208 81.91 280.383 C 81.026 280.383 79.44 279.858 79.44 279.858 C 82.26 283.916 85.265 287.969 88.439 291.85 L 88.613 291.85 L 88.613 291.851 Z " fill-rule="evenodd" fill="rgb(255,255,255)"/><path d=" M 135.528 376.861 C 133.058 378.449 131.645 379.684 131.645 379.684 L 139.236 388.501 L 142.409 383.741 L 135.528 376.861 L 135.528 376.861 Z " fill-rule="evenodd" fill="rgb(255,255,255)"/><path d=" M 139.754 372.279 C 146.637 366.636 152.282 374.04 152.282 374.04 L 147.167 378.975 L 139.754 372.279 Z " fill-rule="evenodd" fill="rgb(255,255,255)"/><path d=" M 260.569 379.152 C 262.864 380.915 264.273 382.152 264.273 382.152 L 256.336 390.793 L 253.331 385.849 L 260.569 379.152 Z " fill-rule="evenodd" fill="rgb(255,255,255)"/><path d=" M 256.526 374.539 C 249.816 368.52 243.993 375.774 243.993 375.774 L 248.76 380.912 L 256.526 374.539 L 256.526 374.539 Z " fill-rule="evenodd" fill="rgb(255,255,255)"/><path d=" M 243.644 359.753 C 234.646 354.992 229.887 361.867 229.887 361.867 C 235.355 364.513 239.762 370.684 239.762 370.684 L 241.174 372.976 L 240.998 372.803 C 240.998 372.803 248.053 365.22 253.172 369.982 C 251.057 367.156 249.114 364.686 248.053 363.454 C 247.174 362.578 245.587 361.164 243.644 359.753 Z " fill-rule="evenodd" fill="rgb(255,255,255)"/><path d=" M 246.995 357.635 C 252.287 351.466 249.994 344.056 249.109 340.527 L 238.346 345.469 C 238.521 345.997 240.107 348.995 237.112 352.526 C 237.112 352.526 247.523 356.933 246.995 357.635 Z " fill-rule="evenodd" fill="rgb(255,255,255)"/><path d=" M 184.031 363.276 C 182.97 363.462 182.085 363.462 181.026 363.462 C 179.264 363.462 177.325 363.101 175.731 362.4 C 174.322 366.983 163.913 365.925 163.913 365.925 C 167.617 369.455 172.558 372.1 177.852 372.977 L 177.852 372.804 C 177.852 372.804 183.671 371.569 183.849 363.102 L 184.031 363.276 L 184.031 363.276 Z " fill-rule="evenodd" fill="rgb(255,255,255)"/><path d=" M 226.007 360.283 C 226.007 360.459 233.236 353.583 237.826 355.697 L 236.766 354.813 C 232.707 351.641 227.591 349.879 222.65 349.703 C 218.241 349.703 210.478 350.937 208.715 353.761 C 208.715 353.761 215.419 355.169 219.652 359.405 C 220.003 359.755 221.774 359.405 226.007 360.283 L 226.007 360.283 Z " fill-rule="evenodd" fill="rgb(255,255,255)"/><path d=" M 160.569 366.637 C 158.455 368.045 157.217 369.274 157.217 369.274 L 155.099 371.218 L 155.275 371.218 C 155.275 371.218 148.571 363.279 143.278 367.869 C 145.398 365.223 147.334 362.58 148.571 361.517 C 149.631 360.283 151.041 359.045 153.153 357.993 L 152.451 358.343 C 153.339 357.993 154.037 357.816 154.746 357.459 C 154.747 357.458 156.157 364.161 160.569 366.637 Z " fill-rule="evenodd" fill="rgb(255,255,255)"/><path d=" M 214.897 360.629 C 208.72 355.52 202.544 354.635 197.959 353.225 L 188.785 359.578 L 199.72 363.276 C 203.075 364.159 203.777 365.747 208.013 368.394 C 208.013 368.394 217.721 362.751 214.897 360.629 L 214.897 360.629 Z " fill-rule="evenodd" fill="rgb(255,255,255)"/><path d=" M 233.767 369.804 C 230.234 373.33 224.24 373.681 224.24 373.681 C 220.184 373.866 216.302 373.33 211.533 370.508 C 211.533 370.508 219.475 365.049 219.121 362.401 C 221.06 362.753 226.705 363.811 228.123 362.753 C 228.123 362.752 230.059 367.512 233.767 369.804 L 233.767 369.804 Z " fill-rule="evenodd" fill="rgb(255,255,255)"/><path d=" M 187.025 362.747 L 187.203 362.573 L 191.785 363.629 C 200.084 365.742 201.493 366.978 201.493 366.978 C 201.493 366.978 192.144 375.795 183.845 373.675 C 183.845 373.675 190.024 369.092 187.203 362.573 L 187.025 362.747 L 187.025 362.747 Z " fill-rule="evenodd" fill="rgb(255,255,255)"/><path d=" M 245.936 338.063 C 245.936 338.063 246.283 337.003 246.46 336.12 C 246.643 335.417 246.994 334.355 246.819 333.471 C 246.819 332.594 246.111 331.883 246.46 330.831 C 246.46 330.831 247.344 328.186 248.23 327.124 C 243.638 328.711 237.111 331.179 232.877 333.47 C 231.818 334.003 230.94 334.533 230.94 334.533 C 230.405 335.59 230.231 336.468 230.231 337.353 C 230.231 338.238 230.056 339.648 230.056 340.525 C 230.056 342.646 228.118 345.467 228.118 345.467 C 233.056 344.583 239.408 341.762 243.464 339.293 L 245.936 338.063 L 245.936 338.063 Z " fill-rule="evenodd" fill="rgb(255,255,255)"/><path d=" M 219.306 334.885 C 223.538 331.362 227.06 330.123 229.886 330.826 C 239.593 326.77 241.18 326.42 241.18 326.42 C 237.471 322.011 233.588 321.308 226.888 321.481 C 223.889 321.66 214.716 325.008 213.303 326.95 L 219.306 334.885 L 219.306 334.885 Z " fill-rule="evenodd" fill="rgb(255,255,255)"/><path d=" M 219.306 334.885 C 219.306 334.885 211.709 328.888 214.005 326.241 L 219.306 334.885 Z " fill-rule="evenodd" fill="rgb(255,255,255)"/><path d=" M 169.388 361.871 C 170.446 361.518 171.505 360.633 171.859 360.284 L 172.033 360.284 C 168.325 357.46 166.035 352.876 166.035 347.94 C 159.326 347.056 157.914 339.476 157.914 339.476 C 156.856 342.121 156.327 344.759 156.327 347.759 C 156.327 352.875 157.738 357.813 160.385 361.87 L 160.563 361.87 C 160.564 361.871 165.68 362.929 169.388 361.871 L 169.388 361.871 Z " fill-rule="evenodd" fill="rgb(255,255,255)"/><path d=" M 159.856 335.415 C 159.856 335.415 161.449 343.35 166.739 343.698 C 167.802 340.352 172.209 336.468 175.033 334.533 L 176.091 333.296 C 175.208 326.774 178.209 323.065 178.209 323.065 L 175.208 323.775 C 168.855 325.536 163.211 329.947 159.856 335.415 L 159.856 335.415 Z " fill-rule="evenodd" fill="rgb(255,255,255)"/><path d=" M 184.204 323.948 C 185.082 322.713 186.675 323.243 187.735 323.064 C 193.556 322.365 201.67 326.237 203.258 329.946 L 200.61 331.881 C 198.498 333.822 195.317 334.178 195.317 334.178 L 193.907 333.645 C 192.145 332.944 189.321 332.592 187.203 332.592 C 185.263 332.592 182.967 332.062 181.206 332.766 C 178.911 330.472 184.204 323.948 184.204 323.948 L 184.204 323.948 Z " fill-rule="evenodd" fill="rgb(255,255,255)"/><path d=" M 210.121 345.293 C 209.238 345.643 214.89 347.582 223.704 346.346 L 223.704 346.17 C 223.704 346.17 224.943 344.936 225.299 344.235 C 225.474 343.526 226.176 341.762 226.176 340.885 C 226.35 339.999 226.535 339.474 226.535 338.237 C 226.535 338.237 226.535 337.178 227.06 336.119 C 226.003 336.649 220.706 338.412 220.706 338.412 C 219.299 338.765 218.237 338.939 218.237 338.939 C 217.533 339.474 216.825 340.177 216.301 340.701 C 215.767 341.062 214.714 341.938 213.655 342.996 C 213.121 343.351 210.474 344.936 210.121 345.293 L 210.121 345.293 Z " fill-rule="evenodd" fill="rgb(255,255,255)"/><path d=" M 190.029 346.342 C 190.029 346.342 189.318 346.342 190.203 342.467 C 190.382 341.405 190.731 340.697 191.086 339.818 C 191.439 339.108 191.789 338.057 192.673 336.997 C 192.673 336.997 191.439 337.701 192.673 336.997 L 190.906 337.173 C 185.97 336.644 183.5 336.289 178.909 335.411 C 177.675 335.411 178.909 335.411 178.909 335.411 C 177.5 335.762 175.386 337.173 174.852 338.057 C 174.502 338.76 173.791 339.108 173.264 339.644 C 172.741 340.173 171.504 341.758 171.504 341.758 C 176.262 343.876 185.261 346.525 190.029 346.342 Z " fill-rule="evenodd" fill="rgb(255,255,255)"/><path d=" M 216.312 336.82 C 216.312 336.82 209.959 331.53 211.019 327.646 C 203.956 333.998 201.136 337.172 195.316 337.172 C 193.725 337.347 194.958 337.172 194.958 337.172 C 194.255 338.055 193.905 339.286 193.549 340.169 C 193.37 341.054 193.02 341.931 193.02 342.816 C 192.845 345.279 193.02 345.988 193.02 345.988 C 199.549 346.34 199.014 346.517 205.016 344.93 C 205.016 344.93 209.075 343.519 212.957 339.636 C 213.666 339.108 215.602 337.522 216.312 336.82 Z " fill-rule="evenodd" fill="rgb(255,255,255)"/><path d=" M 192.504 351.81 C 185.266 349.172 175.391 348.288 170.095 350.4 L 171.333 352.87 L 175.034 357.808 L 179.272 357.454 C 179.272 357.454 182.447 357.454 184.916 358.692 C 184.917 358.692 191.618 351.636 192.504 351.81 Z " fill-rule="evenodd" fill="rgb(255,255,255)"/><path d=" M 258.461 378.093 L 257.575 377.034 L 250.508 383.205 L 251.394 384.264 L 258.461 378.093 Z " fill-rule="evenodd" fill="rgb(255,255,255)"/><path d=" M 143.99 381.973 L 144.876 380.914 L 138.176 374.56 L 137.29 375.629 L 143.99 381.973 Z " fill-rule="evenodd" fill="rgb(255,255,255)"/></g></g></svg>