<?xml version="1.0" encoding="UTF-8"?>
<svg viewBox="0 0 761 761" xmlns="http://www.w3.org/2000/svg">
<path d="m415.4 41.4h42.1l-41.4 329c-22.5-1.1-46.5-0.5-67.4 5.1-5.5-14.9-11.4-29.3-18-44.7-20-46.5-29.6-140.3 18.2-192.6 10.2-4.1 37.5-18.6 55.7-29.5 10.2-6.1 19.6-11.2 20.8-11.2 1.3 0 5 1.2 8.2 2.7 6.6 2.9 7.7 2.5 7.8-2.8-0.8-19-12.2-37.3-26-56z" fill="#0093DD"/>
<path d="m666.4 378.9v160.1h-63.8c-3-22.3-14.9-58.8-34.7-83.8l98.5-76.3z" fill="#0093DD"/>
<path d="m666.4 68.9c0.6 4.9 0.6 287.6 0 289.6l-109.4 84.3c-22.1-22.6-30.8-29.1-51.7-43.2l161.1-330.7z" fill="#0093DD"/>
<path d="m473.6 41.4h186.9l-169.6 348.9c-20.4-9.8-58.8-18.6-58.8-18.6l41.5-330.3z" fill="#0093DD"/>
<path d="m190.1 558.5h508.6v187.6h-509.6l1-187.6z" fill="#DA2337"/>
<path d="m278.2 0c-8.3 0.1-16.6 0.9-25.1 2-28.5 4.9-51.1 16.1-69 34.1-29.2 29.3-54.6 72.5-73.7 125.4-8.6 23.7-26 83.9-25.1 85.4 9.7-4.4 21.1-17.6 33.8-20.8-17.1 66.2-38 118.6-53.7 170.7 10.1-7.3 26-16.9 48.1-29.2-1.9 58.2-31.2 130.1-49.7 191.6 14.3-6.2 24.9-13.9 29.8-13.6-10.8 65-27.1 112.1-47.1 168.7 45.2-13.7 89.1-34.1 126.6-63.2v109.8h541.4v-221.9h-30.7v-514.4h-338.3c-19.3-19.2-42.6-24.9-67.3-24.6zm4.2 13.9c21.9 0.3 42.7 6.7 55.1 22.6-4 5.1-12.1 14.1-14 14.1-18.9-10.7-43.3-15.7-61-10-10.1 3.3-21.7 15.5-31.8 17.9-10.4 3.1-18.8 3.1-21.4 4.1-0.5 1.1 17.1 6.8 28.5 2 5.1-2.1 7-3 11.6-3.3 4.2 4.3 6.1 28.5 30.2 23 25.8-5.3 19.8-13.1 22.5-31.2 10-0.6 19 7.3 18.2 19.8 5.6-8.4 16.4-22.3 30.2-27.2 4.6-2.2 7.2-2.7 16.4-3 18.2-0.5 28.9 3.8 40.5 16.5 5.7 6.2 11.7 16 10.5 17.2-0.3 0.3-6.1 0.5-12.8 0.3-16-0.4-23.5 1.4-51.4 12.4-11.9 4.8-25.5 9.6-30.2 10.7-12.1 2.9-11.8 2.8-9.1 3.8 4.4 1.7 15.6 2.2 23.1 0.9 4.1-0.7 15.6-3.6 25.5-6.6 17.6-5.3 36.1-9.1 39-8 2.7 1 1.5 3.5-3.8 7.9-31.6 26.2-77.6 32.5-120.4 38.5-0.9 3.8 41.2 3.2 48.8 5.2-13.9 20.6-23.8 34.6-28.3 79.9-1.1 28.8 3.9 76.2 1.6 117.3l-1.9 32.5c3.3 4.7 9.8 10.8 13 15.6l1.2-49.7c12.5 10.3 54.7 141.4 60.1 201.9h-79.4c3.9-25.9 32.9-47.6 48.9-64.8-9.3-5.5-39.7 16-39.7 16s-3-38.3-9.6-38.2c-0.9 26.5-16.7 64-29.9 87h-89.5v91.4c-50.7 36-64.6 44.2-102.8 58.7 16.8-37 29.3-101.3 42.5-173.8-4.3 0-15 10.3-27.5 18.1 11.5-28.3 40.3-111.8 45.2-192-24.7 14.8-41.5 27.7-41.5 27.7 16.7-60.4 33.9-106.3 48.4-161.3-8.7 0.1-32.6 14.1-32.6 14.1s29.3-122.4 104.1-185.8c15.8-12.7 45.5-22.5 73.5-22.2zm133 27.5h42.1l-41.4 329c-22.5-1.1-46.5-0.5-67.4 5.1-5.5-14.9-11.3-29.3-18-44.7-20-46.5-29.6-140.3 18.2-192.6 10.2-4.1 37.5-18.6 55.7-29.5 10.2-6.1 19.6-11.2 20.8-11.2 1.3 0 5 1.3 8.2 2.7 6.6 2.9 7.8 2.5 7.8-2.8-0.8-19-12.2-37.3-26-56zm58.2 0h186.9l-169.6 348.9c-20.3-9.8-58.8-18.5-58.8-18.5l41.5-330.5v0.1zm192.8 25.9c0.6 5 0.7 287.6 0 289.6l-109.4 84.3c-22.1-22.6-30.8-29.1-51.6-43.2l161-330.7zm-113 15-89.5 280.5 14.5 6.2 88.9-280.7-13.9-6zm-160.4 76.7-14.7 0.3 0.4 194.2 14.3 0.3v-194.8zm244.5 116.4-98.2 123.1 10 9.2 100.9-121.3-12.7-11zm-391.8 23.3c-7.5 20.4-7 37.2-17.9 57.1-9.1-10.8-20.6-28.7-29.3-32.5 14.1 27.6 24.5 58.5 30.2 89.9 18.9-33.1 24.4-76.6 17-114.5zm420.7 80.3v160h-63.8c-3-22.3-14.9-58.8-34.6-83.8l98.4-76.2zm-270.9 8.6c83.7-1.2 176.2 54.3 187.8 151.4h-190.5c-12-62.1-31.4-135.5-37.3-146.2 12.8-3.3 26.3-5 40-5.2zm257.8 63.7-51.2 30.9 5.5 13.4 49.2-31.1-3.5-13.2zm-463.1 107.1h508.5v187.6h-509.6l1.1-187.6zm311.6 21.1c-16.3 0-29.5 6.4-39.6 19.4-10 12.9-15 31.1-15 54.5 0 22.1 5 39.6 15 52.3 9.9 12.8 22.7 19.1 38.2 19.1 12.5 0 22.9-3.7 31-11.1 8.2-7.5 14-18.9 17.5-34.2l-22.8-8.7c-2 10.2-5.2 17.8-9.7 22.6-4.6 4.8-10 7.2-16.2 7.2-8.5 0-15.4-3.8-20.7-11.3-5.4-7.6-8-20.2-8-38 0-16.7 2.7-28.9 8.1-36.3 5.4-7.5 12.4-11.3 21.1-11.3 6.2 0 11.5 2.1 15.9 6.4 4.4 4.2 7.3 9.9 8.7 17.2l23.3-6.7c-2.6-11.2-6.6-19.9-12-25.9-8.9-10.2-20.5-15.2-34.8-15.2zm-271.4 2.4v23.8h54.4l-61.3 91.1v25.6h94.9v-23.6h-66.5l64-94.9v-22h-85.5zm102.8 0v75c0 15.7 0.8 27.6 2.3 35.6 1.1 5.4 3.3 10.6 6.6 15.6 3.4 4.9 8 9 13.7 12.1 5.8 3.1 14.2 4.6 25.4 4.6 9.2 0 16.7-1.4 22.4-4.2 5.8-2.9 10.4-6.7 13.8-11.5s5.8-10.7 7.1-17.6c1.2-7 1.9-18.9 1.9-35.8v-73.8h-23.6v77.7c0 11.2-0.4 19.1-1.1 23.9-0.6 4.8-2.7 8.8-6.1 12.1s-8.4 5-15.1 5c-6.6 0-11.8-1.8-15.6-5.2-3.8-3.5-6.2-8.2-7.2-13.9-0.6-3.6-0.9-11.4-0.9-23.5v-76.1h-23.6zm236.1 0v140.5h23.6v-61.4h46.2v61.4h23.6v-140.5h-23.6v55.3h-46.2v-55.3h-23.6z"/>
<path d="m282.4 13.9c21.9 0.3 42.7 6.7 55.1 22.6-4 5.1-12.1 14.1-14 14.1-18.9-10.8-43.3-15.7-61-10-10.1 3.3-21.7 15.5-31.8 17.9-10.4 3.1-18.8 3.1-21.4 4.1-0.5 1.1 17.1 6.8 28.5 2 5.1-2.1 7-3 11.6-3.3 4.2 4.3 6.1 28.5 30.2 23 25.8-5.3 19.8-13.1 22.5-31.2 10-0.6 19 7.3 18.2 19.8 5.6-8.4 16.4-22.3 30.2-27.2 4.6-2.2 7.2-2.7 16.4-3 18.2-0.5 28.9 3.8 40.5 16.5 5.7 6.2 11.7 16 10.5 17.2-0.3 0.3-6.1 0.5-12.8 0.3-16-0.5-23.5 1.4-51.4 12.4-11.9 4.8-25.5 9.6-30.2 10.7-12.1 2.9-11.8 2.8-9.1 3.8 4.4 1.7 15.6 2.2 23.1 0.9 4.1-0.7 15.6-3.6 25.5-6.6 17.6-5.3 36.1-9.1 39-8 2.7 1 1.5 3.4-3.8 7.9-31.6 26.2-77.6 32.4-120.4 38.4-0.9 3.9 41.2 3.3 48.8 5.3-13.9 20.6-23.8 34.6-28.3 79.9-1.1 28.8 3.9 76.2 1.6 117.3l-1.9 32.5c3.3 4.7 9.8 10.8 13 15.6l1.2-49.7c12.5 10.3 54.7 141.4 60.1 201.9h-79.4c3.9-25.9 32.9-47.6 48.9-64.8-9.3-5.5-39.7 16-39.7 16s-3-38.3-9.6-38.2c-0.9 26.5-16.7 64-29.9 87h-89.5v91.4c-50.7 36-64.6 44.2-102.8 58.7 16.8-37 29.3-101.3 42.5-173.8-4.3-0.1-15 10.3-27.5 18.1 11.5-28.3 40.3-111.8 45.2-192-24.7 14.8-41.5 27.7-41.5 27.7 16.7-60.4 33.9-106.3 48.4-161.3-8.7 0.1-32.6 14.1-32.6 14.1s29.3-122.4 104.1-185.8c15.8-12.7 45.5-22.5 73.5-22.1v-0.1z" fill="#fff"/>
<path d="m246.7 286c-8.1 22.2-7.5 40.4-19.3 62-9.9-11.8-22.4-31.2-31.9-35.3 15.4 30 26.7 63.4 32.8 97.6 20.6-35.9 26.5-83.2 18.4-124.3z"/>
<path d="m395.5 387.6c83.7-1.2 176.2 54.4 187.8 151.4h-190.5c-12-62.1-31.4-135.5-37.3-146.2 12.8-3.3 26.3-5 40-5.2z" fill="#F8C301"/>
</svg>
