<?xml version="1.0" encoding="UTF-8" standalone="no"?>
<!-- Generator: Gravit.io -->
<svg xmlns="http://www.w3.org/2000/svg" style="isolation:isolate" viewBox="0 0 105.48 94.04" width="105.48pt" height="94.04pt"><defs><clipPath id="_clipPath_rjNCaH0oWsGEpMciFtSZjpeoVuHhFmUQ"><rect width="105.48" height="94.04"/></clipPath></defs><g clip-path="url(#_clipPath_rjNCaH0oWsGEpMciFtSZjpeoVuHhFmUQ)"><path d=" M 52.74 92.49 C 49.654 92.508 46.798 90.861 45.27 88.18 L 2.72 14.48 C 1.181 11.811 1.182 8.524 2.723 5.855 C 4.263 3.187 7.109 1.542 10.19 1.54 L 95.29 1.54 C 98.371 1.542 101.217 3.187 102.757 5.855 C 104.298 8.524 104.299 11.811 102.76 14.48 L 60.21 88.18 C 58.682 90.861 55.826 92.508 52.74 92.49" fill="rgb(93,47,136)"/><path d=" M 95.29 3.09 C 97.819 3.091 100.156 4.44 101.42 6.631 C 102.685 8.821 102.685 11.52 101.42 13.71 L 58.87 87.41 C 57.605 89.599 55.268 90.947 52.74 90.947 C 50.212 90.947 47.875 89.599 46.61 87.41 L 4.06 13.71 C 2.795 11.52 2.795 8.821 4.06 6.631 C 5.324 4.44 7.661 3.091 10.19 3.09 L 95.29 3.09 M 95.29 0 L 10.19 0 C 6.558 0 3.201 1.937 1.384 5.083 C -0.433 8.228 -0.434 12.103 1.38 15.25 L 43.93 89 C 45.743 92.15 49.101 94.091 52.735 94.091 C 56.369 94.091 59.727 92.15 61.54 89 L 104.1 15.3 C 105.94 12.15 105.952 8.256 104.132 5.095 C 102.312 1.934 98.938 -0.01 95.29 0" fill="rgb(56,34,89)"/></g></svg>