<?xml version="1.0" encoding="iso-8859-1"?>
<!-- Generator: Adobe Illustrator 22.1.0, SVG Export Plug-In . SVG Version: 6.00 Build 0)  -->
<svg version="1.1" id="Warstwa_1" xmlns="http://www.w3.org/2000/svg" xmlns:xlink="http://www.w3.org/1999/xlink" x="0px" y="0px"
	 viewBox="0 0 105.477 94.042" style="enable-background:new 0 0 105.477 94.042;" xml:space="preserve">
<g>
	<path style="fill:#5D2F88;" d="M52.736,92.494c-3.117,0-5.909-1.612-7.468-4.311L2.715,14.478
		c-1.559-2.699-1.559-5.923-0.001-8.622c1.559-2.699,4.351-4.311,7.468-4.311h85.107c3.117,0,5.909,1.612,7.468,4.311
		c1.558,2.699,1.558,5.923-0.001,8.622L60.204,88.183C58.645,90.882,55.854,92.494,52.736,92.494"/>
	<path style="fill:#382259;" d="M95.29,3.088c5.449,0,8.855,5.899,6.131,10.618L58.867,87.411c-1.362,2.359-3.746,3.539-6.131,3.539
		s-4.768-1.18-6.131-3.539L4.052,13.706C1.328,8.987,4.734,3.088,10.183,3.088H95.29 M95.29,0H10.183C6.507,0,3.216,1.9,1.378,5.083
		c-1.838,3.184-1.838,6.984,0,10.167l42.553,73.705c1.837,3.183,5.129,5.083,8.805,5.083c3.675,0,6.967-1.9,8.805-5.083
		l42.553-73.705c1.838-3.183,1.838-6.983,0-10.167C102.256,1.9,98.965,0,95.29,0"/>
</g>
<g>
	<path style="fill:#FFFFFF;" d="M69.188,46.463l-0.001,0.002l-2.341,5.536c0.232,0.61,0.286,1.453-0.07,2.686
		c-0.327,1.133-2.007,2.2-4.569,3.185c-1.723,0.663-3.851,0.843-5.624-0.627c-2.241-1.858-0.044-6.017,1.407-6.844l2.11-3.947
		l3.145-6.493c-0.918-0.958-0.886-4.341-0.121-5.96c1.527-3.23,7.887-6.541,9.755-5.772c0.407,0.168,0.806,0.369,1.076,0.731
		c0.386,0.518,0.496,1.192,0.294,1.806c-0.188,0.571-0.012,1.389,0.257,2.258c0.421-0.237,0.831-0.495,1.223-0.782
		c5.226-3.833,4.543-11.069,0.353-15.416c-0.397-0.417-2.983-3.631-9.373-4.791c-5.287-0.959-10.523-0.828-15.469,1.295
		c-7.853,3.371-14.116,9.995-17.703,17.754c-2.255,4.872-3.517,10.312-2.838,15.633c1.026,8.035,6.735,15.344,14.331,18.154
		c11.746,4.346,20.907-2.514,22.753-4.136c1.955-1.721,3.614-3.873,4.292-6.386C73.397,49.444,69.534,46.681,69.188,46.463z"/>
	<circle style="fill:#EF7D00;" cx="42.004" cy="50.487" r="6.04"/>
	<path style="fill:#F0AE00;" d="M50.834,75.615c0.191,0.09,0.386,0.161,0.583,0.215c1.567,0.423,3.253-0.31,3.964-1.813l3.644-8.617
		c-2.353,0.651-4.806,0.933-7.242,0.826l-2.598,4.86C48.384,72.779,49.123,74.806,50.834,75.615z"/>
	<path style="fill:#F0AE00;" d="M60.931,49.111l-4.348,8.135c0.604,0.514,1.339,0.89,2.111,1.046
		c1.075,0.218,2.323-0.006,3.513-0.419l2.891-6.837L60.931,49.111z"/>
	<path style="fill:#FFFFFF;" d="M66.319,42.927c-0.646-0.305-1.225-0.707-1.731-1.183l-2.719,5.612l3.88,1.792l2.387-5.685
		c-0.231-0.037-0.461-0.06-0.691-0.122C67.06,43.238,66.681,43.098,66.319,42.927z"/>
	<path style="fill:#EF7D00;" d="M64.92,34.85c-1.114,2.356-0.107,5.168,2.249,6.282c0.26,0.123,0.525,0.22,0.794,0.292
		c2.162,0.583,4.497-0.445,5.488-2.541c1.114-2.356-2.027-5.877-1.088-8.737C69.206,30.231,66.033,32.494,64.92,34.85z"/>
	<g>
		<path style="fill:#AFCA0B;" d="M59.494,25.252c0.609-1.616-1.531-4.85-5.074-2.984c-5.792,3.051,0.986,11.702,1.923,15.948
			c2.324,10.532-4.047,15.26-6.402,16.519c1.351-2.417,3.818-10.477,0.2-16.581c-3.445-5.814-8.246-10.777-5.896-18.05
			c2.131-6.595,9.068-11.041,15.863-8.472c5.715,2.161,9.891,9.701,6.004,15.304c-1.525,2.198-4.773,3.93-7.376,2.632
			C57.738,29.069,59.239,25.929,59.494,25.252z"/>
	</g>
	<g>
		<path style="fill:#F0AE00;" d="M29.833,13.513c-0.148,3.203,0.994,13.193,12.669,18.981c-7.194-10.267-1.216-15.241-1.068-18.445
			s-2.329-5.92-5.532-6.068C32.698,7.833,29.981,10.31,29.833,13.513z"/>
	</g>
	<g>
		<path style="fill:#26B4E6;" d="M28.889,31.151c3.245-0.24,13.41,0.64,19.607,12.32c-10.615-7.01-15.494-0.808-18.739-0.568
			s-6.07-2.197-6.31-5.442C23.207,34.215,25.644,31.39,28.889,31.151z"/>
	</g>
</g>
</svg>
