<?xml version="1.0" encoding="iso-8859-1"?>
<!-- Generator: Adobe Illustrator 22.1.0, SVG Export Plug-In . SVG Version: 6.00 Build 0)  -->
<svg version="1.1" id="Warstwa_1" xmlns="http://www.w3.org/2000/svg" xmlns:xlink="http://www.w3.org/1999/xlink" x="0px" y="0px"
	 viewBox="0 0 105.477 94.042" style="enable-background:new 0 0 105.477 94.042;" xml:space="preserve">
<g>
	<path style="fill:#5D2F88;" d="M52.736,92.494c-3.117,0-5.909-1.612-7.468-4.311L2.715,14.478
		c-1.559-2.699-1.559-5.923-0.001-8.622c1.559-2.699,4.351-4.311,7.468-4.311h85.107c3.117,0,5.909,1.612,7.468,4.311
		c1.558,2.699,1.558,5.923-0.001,8.622L60.204,88.183C58.645,90.882,55.854,92.494,52.736,92.494"/>
	<path style="fill:#382259;" d="M95.29,3.088c5.449,0,8.855,5.899,6.131,10.618L58.867,87.411c-1.362,2.359-3.746,3.539-6.131,3.539
		s-4.768-1.18-6.131-3.539L4.052,13.706C1.328,8.987,4.734,3.088,10.183,3.088H95.29 M95.29,0H10.183C6.507,0,3.216,1.9,1.378,5.083
		c-1.838,3.184-1.838,6.984,0,10.167l42.553,73.705c1.837,3.183,5.129,5.083,8.805,5.083c3.675,0,6.967-1.9,8.805-5.083
		l42.553-73.705c1.838-3.183,1.838-6.983,0-10.167C102.256,1.9,98.965,0,95.29,0"/>
</g>
<g>
	<g>
		<path style="fill:#FFFFFF;" d="M22.805,14.863c-4.288,1.795-3.781,10.569,0.963,12.718c1.63,0.738,6.074-0.7,7.663-0.931
			C30.681,21.499,27.043,17.567,22.805,14.863z"/>
		<path style="fill:#FFFFFF;" d="M71.989,54.526c-4.966,0-11.167-5.58-11.288-11.036c-0.15-6.749,2.248-14.341,2.248-18.675
			c0-9.073-4.551-16.427-10.165-16.427c0,0-23.554,3.051-28.365,3.946c3.56,2.271,10.165,7.355,10.165,16.427
			c0,4.333-2.398,11.926-2.248,18.675c0.123,5.535,3.922,13.335,6.181,14.169c3.335,1.232,6.631,1.73,9.78,1.73
			c13.253,0,23.909-8.813,23.909-8.813C72.134,54.524,72.061,54.526,71.989,54.526z"/>
	</g>
	<g>
		<path style="fill:#26B4E6;" d="M62.263,18.41c-0.553,0.72-0.999,1.366-1.307,1.882c-0.721,1.21-1.42,2.936-2.087,4.961
			l0.471,12.955l-2.4-5.993c-2.323,9.696-3.901,20.935-3.901,20.935s11.744-10.942,18.944-20.528l-6.259,0.98l9.644-6.018
			c0.951-1.653,1.639-3.18,1.932-4.487c1.234-5.513,2.206-12.408,0.281-15.21c-3.816-0.314-8.497,3.192-11.998,6.736l0.031,11.401
			L62.263,18.41z"/>
	</g>
</g>
</svg>
