<?xml version="1.0" encoding="iso-8859-1"?>
<!-- Generator: Adobe Illustrator 22.1.0, SVG Export Plug-In . SVG Version: 6.00 Build 0)  -->
<svg version="1.1" id="Warstwa_1" xmlns="http://www.w3.org/2000/svg" xmlns:xlink="http://www.w3.org/1999/xlink" x="0px" y="0px"
	 viewBox="0 0 105.477 94.042" style="enable-background:new 0 0 105.477 94.042;" xml:space="preserve">
<g>
	<path style="fill:#5D2F88;" d="M52.736,92.494c-3.117,0-5.909-1.612-7.468-4.311L2.715,14.478
		c-1.559-2.699-1.559-5.923-0.001-8.622c1.559-2.699,4.351-4.311,7.468-4.311h85.107c3.117,0,5.909,1.612,7.468,4.311
		c1.558,2.699,1.558,5.923-0.001,8.622L60.204,88.183C58.645,90.882,55.854,92.494,52.736,92.494"/>
	<path style="fill:#382259;" d="M95.29,3.088c5.449,0,8.855,5.899,6.131,10.618L58.867,87.411c-1.362,2.359-3.746,3.539-6.131,3.539
		s-4.768-1.18-6.131-3.539L4.052,13.706C1.328,8.987,4.734,3.088,10.183,3.088H95.29 M95.29,0H10.183C6.507,0,3.216,1.9,1.378,5.083
		c-1.838,3.184-1.838,6.984,0,10.167l42.553,73.705c1.837,3.183,5.129,5.083,8.805,5.083c3.675,0,6.967-1.9,8.805-5.083
		l42.553-73.705c1.838-3.183,1.838-6.983,0-10.167C102.256,1.9,98.965,0,95.29,0"/>
</g>
<g>
	<path style="fill:none;" d="M80.381,27.139c-0.252-0.6-0.641-1.213-1.157-1.825c-0.253-0.253-0.507-0.487-0.758-0.701v8.244
		c1.092-1.159,1.805-2.282,2.09-3.3C80.672,28.725,80.613,27.913,80.381,27.139z"/>
	<path style="fill:none;" d="M69.064,32.8v-0.975c-0.058,0.362-0.118,0.712-0.181,1.037C68.943,32.843,69.003,32.817,69.064,32.8z"
		/>
	<path style="fill:#AFCA0B;" d="M66.748,33.719c0.694-0.361,1.411-0.642,2.134-0.857c0.063-0.325,0.181-22.669,0.181-22.669
		c0-0.019,0.005-0.037,0.006-0.056c-3.187,0.376-11.407,1.27-17.488,1.27c-8.166,0-18.832-1.433-18.832-1.433
		s0.126,10.915,0.931,18.609l10.662,18.101c3.846,2.432,7.239,3.209,7.239,3.209c0.498-0.106,5.7-1.297,10.415-5.456
		c-0.042-0.073-0.091-0.139-0.131-0.214C60.037,40.707,62.182,36.093,66.748,33.719z M42.785,28.196c-2.1,0-3.801-1.702-3.801-3.802
		c0-2.1,1.701-3.802,3.801-3.802s3.802,1.702,3.802,3.802C46.587,26.494,44.885,28.196,42.785,28.196z M51.58,37.864
		c-2.935,0-5.322-2.387-5.322-5.321c0-0.828,0.671-1.5,1.5-1.5s1.5,0.672,1.5,1.5c0,1.28,1.042,2.321,2.322,2.321
		c1.28,0,2.322-1.041,2.322-2.321c0-0.828,0.672-1.5,1.5-1.5s1.5,0.672,1.5,1.5C56.902,35.477,54.515,37.864,51.58,37.864z
		 M56.574,24.394c0-2.1,1.702-3.802,3.801-3.802c2.1,0,3.802,1.702,3.802,3.802c0,2.1-1.702,3.802-3.802,3.802
		C58.276,28.196,56.574,26.494,56.574,24.394z"/>
	<path style="fill:#FFFFFF;" d="M86.619,27.249c-0.783-5.316-6.003-9.061-8.851-10.738c-0.734-0.622-1.248-1.48-1.565-2.398
		c-0.177-0.513-0.438-4.122-0.507-4.312c-0.052-0.143-0.392-1.311-1.931-1.311c-0.94,0-1.701,0.761-1.701,1.701v25.207
		c-0.049-0.001-0.098-0.002-0.147-0.002c-1.182,0-2.505,0.318-3.784,0.983c-3.028,1.574-4.642,4.465-3.606,6.458
		c0.611,1.174,1.771,1.808,3.24,1.808c1.024,0,2.198-0.307,3.441-0.954c1.996-1.038,4.257-2.804,4.257-5.331
		c0-16.754,0-18.239,0-18.239c0.018,0,0.036,0,0.054,0c2.389,0,4.641,1.869,5.913,3.159c0.741,0.861,1.365,1.814,1.775,2.844
		c0.449,1.403,0.494,2.774,0.291,4.039c-0.493,1.977-1.884,4.004-4.199,6.053c-0.621,0.549-0.678,1.497-0.129,2.117
		c0.296,0.335,0.709,0.506,1.124,0.506c0.354,0,0.708-0.124,0.994-0.377C85.387,34.835,87.18,31.061,86.619,27.249z"/>
	<path style="fill:#26B4E6;" d="M29.377,42.071l17.71,37.474c1.004,1.879,2.938,2.946,4.946,2.946c0.906,0,1.828-0.217,2.686-0.676
		c2.758-1.473,3.812-4.879,2.355-7.606L36.01,38.45L29.377,42.071z"/>
	<path style="fill:#FFFFFF;" d="M28.972,26.997c-0.733,0.723-1.573,1.347-2.507,1.846c-1.028,0.549-2.143,0.909-3.286,1.104
		l4.913,9.408l6.197-3.383L28.972,26.997z"/>
	<path style="fill:#EF7D00;" d="M25.052,26.197c3.797-2.029,5.23-6.751,3.201-10.547c-2.029-3.797-9.792-3.096-12.661-7.158
		c-2.995,4.271-3.116,10.707-1.087,14.504c1.404,2.627,4.097,4.123,6.881,4.123C22.625,27.118,23.882,26.821,25.052,26.197z"/>
</g>
</svg>
