<?xml version="1.0" encoding="iso-8859-1"?>
<!-- Generator: Adobe Illustrator 22.1.0, SVG Export Plug-In . SVG Version: 6.00 Build 0)  -->
<svg version="1.1" id="Warstwa_1" xmlns="http://www.w3.org/2000/svg" xmlns:xlink="http://www.w3.org/1999/xlink" x="0px" y="0px"
	 viewBox="0 0 105.477 94.042" style="enable-background:new 0 0 105.477 94.042;" xml:space="preserve">
<g>
	<path style="fill:#5D2F88;" d="M52.736,92.494c-3.117,0-5.909-1.612-7.468-4.311L2.715,14.478
		c-1.559-2.699-1.559-5.923-0.001-8.622c1.559-2.699,4.351-4.311,7.468-4.311h85.107c3.117,0,5.909,1.612,7.468,4.311
		c1.558,2.699,1.558,5.923-0.001,8.622L60.204,88.183C58.645,90.882,55.854,92.494,52.736,92.494"/>
	<path style="fill:#382259;" d="M95.29,3.088c5.449,0,8.855,5.899,6.131,10.618L58.867,87.411c-1.362,2.359-3.746,3.539-6.131,3.539
		s-4.768-1.18-6.131-3.539L4.052,13.706C1.328,8.987,4.734,3.088,10.183,3.088H95.29 M95.29,0H10.183C6.507,0,3.216,1.9,1.378,5.083
		c-1.838,3.184-1.838,6.984,0,10.167l42.553,73.705c1.837,3.183,5.129,5.083,8.805,5.083c3.675,0,6.967-1.9,8.805-5.083
		l42.553-73.705c1.838-3.183,1.838-6.983,0-10.167C102.256,1.9,98.965,0,95.29,0"/>
</g>
<g>
	<path style="fill:#FFFFFF;" d="M50.608,52.746L38.117,35.066c-0.585-0.827-1.511-1.269-2.453-1.269
		c-0.598,0-1.203,0.178-1.728,0.55c-1.354,0.956-1.675,2.828-0.719,4.181l12.491,17.679c0.584,0.828,1.511,1.27,2.453,1.27
		c0.599,0,1.203-0.179,1.729-0.55C51.242,55.971,51.564,54.099,50.608,52.746z"/>
	<g>
		<path style="fill:#FFFFFF;" d="M49.838,12.878c0.759-1.473,0.18-3.282-1.293-4.041c-1.473-0.759-3.282-0.179-4.041,1.293
			l-3.154,6.124l-3.365,1.862l9.456-0.585L49.838,12.878z"/>
	</g>
	<g>
		<path style="fill:#26B4E6;" d="M81.965,17.044l-2.551-1.68l-1.859,2.822l-13.101,3.97l-2.322-0.423v0l-0.898,4.925l-0.178,0.977
			c0,0,3.394,0.603,3.574,0.603c0.294,0,1.607-0.352,1.607-0.352l-0.922,6.338l-0.541,3.718l-4.339,5.09
			c-0.937,1.099-0.958,2.71-0.049,3.833l7.682,9.5c0.593,0.733,1.459,1.114,2.334,1.114c0.662,0,1.329-0.218,1.884-0.667
			c1.289-1.042,1.488-2.931,0.446-4.219l-6.116-7.563l5.941-6.969c1.039-0.642,1.909-1.69,2.162-2.761l0.276-1.244l2.097-9.458
			l3.239-0.982c0.671-0.204,1.25-0.635,1.635-1.221l2.456-3.729h0l0,0L81.965,17.044z"/>
		<path style="fill:#26B4E6;" d="M57.747,44.642l-5.34,7.24c0.632,1.033,0.886,2.237,0.679,3.442
			c-0.099,0.575-0.309,1.11-0.587,1.604c0.524,0.368,1.124,0.549,1.721,0.549c0.926,0,1.839-0.427,2.426-1.232l4.152-5.693
			l-1.965-2.43C58.015,47.112,57.665,45.865,57.747,44.642z"/>
		<path style="fill:#FFFFFF;" d="M69.471,18.486c2.2,0.722,4.568-0.475,5.291-2.675c0.722-2.2-0.475-4.568-2.675-5.291
			c-2.2-0.722-4.568,0.475-5.291,2.675C66.074,15.395,67.271,17.763,69.471,18.486z"/>
		<path style="fill:#FFFFFF;" d="M87.197,8.999c-1.384-0.913-3.245-0.529-4.155,0.855l-3.628,5.509l2.551,1.68l2.46,1.62l0,0
			l3.628-5.509C88.964,11.77,88.581,9.91,87.197,8.999z"/>
		<path style="fill:#FFFFFF;" d="M55.488,20.521c-1.629-0.297-3.192,0.783-3.489,2.413c-0.297,1.63,0.783,3.192,2.413,3.489
			l6.645,1.212l0.178-0.977l0.898-4.925L55.488,20.521z"/>
		<path style="fill:#FFFFFF;" d="M33.328,51.666c-1.038,1.292-0.833,3.18,0.458,4.218c0.554,0.445,1.218,0.662,1.878,0.662
			c0.877,0,1.748-0.383,2.34-1.12l2.502-3.113l-3.601-5.097L33.328,51.666z"/>
	</g>
	<g>
		<circle style="fill:#FFFFFF;" cx="33.755" cy="14.502" r="4.192"/>
	</g>
	<path style="fill:#C90C0F;" d="M37.646,29.685l2.422-8.087L30.149,21l0.891,9.113l0.093,0.02l-8.208,4.306
		c2.093,4.972,7.009,8.463,12.742,8.463c5.087,0,9.519-2.756,11.918-6.849L37.646,29.685z"/>
	<g>
		<path style="fill:#FFFFFF;" d="M31.977,26.158c-1.65,0-2.991-1.333-3-2.985c-0.008-1.657,1.329-3.006,2.985-3.015l5.884-0.029
			l10.125-0.626c1.648-0.097,3.077,1.155,3.179,2.809c0.103,1.654-1.155,3.077-2.809,3.179l-10.21,0.631
			c-0.057,0.003-0.113,0.005-0.17,0.006l-5.97,0.029C31.987,26.158,31.982,26.158,31.977,26.158z"/>
	</g>
</g>
</svg>
