<?xml version="1.0" encoding="iso-8859-1"?>
<!-- Generator: Adobe Illustrator 22.1.0, SVG Export Plug-In . SVG Version: 6.00 Build 0)  -->
<svg version="1.1" id="Warstwa_1" xmlns="http://www.w3.org/2000/svg" xmlns:xlink="http://www.w3.org/1999/xlink" x="0px" y="0px"
	 viewBox="0 0 105.477 94.042" style="enable-background:new 0 0 105.477 94.042;" xml:space="preserve">
<g>
	<path style="fill:#5D2F88;" d="M52.736,92.494c-3.117,0-5.909-1.612-7.468-4.311L2.715,14.478
		c-1.559-2.699-1.559-5.923-0.001-8.622c1.559-2.699,4.351-4.311,7.468-4.311h85.107c3.117,0,5.909,1.612,7.468,4.311
		c1.558,2.699,1.558,5.923-0.001,8.622L60.204,88.183C58.645,90.882,55.854,92.494,52.736,92.494"/>
	<path style="fill:#382259;" d="M95.29,3.088c5.449,0,8.855,5.899,6.131,10.618L58.867,87.411c-1.362,2.359-3.746,3.539-6.131,3.539
		s-4.768-1.18-6.131-3.539L4.052,13.706C1.328,8.987,4.734,3.088,10.183,3.088H95.29 M95.29,0H10.183C6.507,0,3.216,1.9,1.378,5.083
		c-1.838,3.184-1.838,6.984,0,10.167l42.553,73.705c1.837,3.183,5.129,5.083,8.805,5.083c3.675,0,6.967-1.9,8.805-5.083
		l42.553-73.705c1.838-3.183,1.838-6.983,0-10.167C102.256,1.9,98.965,0,95.29,0"/>
</g>
<g>
	<g>
		<rect x="36.94" y="11.385" style="fill:#FFFFFF;" width="31.593" height="28.788"/>
	</g>
	<path style="fill:#382259;" d="M80.618,8.185H24.855h0v35.186h0h55.763h0L80.618,8.185L80.618,8.185z M77.41,34.494v5.669h-5.669
		v-5.669H77.41z M71.741,28.613v-5.669h5.669v5.669H71.741z M77.41,17.063h-5.669v-5.669h5.669V17.063z M28.063,11.393h5.669v5.669
		h-5.669V11.393z M28.063,22.944h5.669v5.669h-5.669V22.944z M28.063,34.494h5.669v5.669h-5.669V34.494z M36.94,40.172v-8.351
		v-0.535V20.271v-0.535v-8.351h31.593v8.351v0.535v11.016v0.535v8.351H36.94z"/>
</g>
<g>
	<g>
		<g>
			<polygon style="fill:#C90C0F;" points="70.097,51.905 72.702,52.017 75.292,49.521 75.277,46.914 51.852,22.6 46.574,27.685 			
				"/>
			<polygon style="fill:#FECA0D;" points="39.447,15.007 51.852,22.6 46.574,27.685 			"/>
			<polygon style="fill:#C90C0F;" points="39.447,15.007 45.337,18.612 42.831,21.026 			"/>
		</g>
	</g>
</g>
</svg>
