<?xml version="1.0" encoding="iso-8859-1"?>
<!-- Generator: Adobe Illustrator 22.1.0, SVG Export Plug-In . SVG Version: 6.00 Build 0)  -->
<svg version="1.1" id="Warstwa_1" xmlns="http://www.w3.org/2000/svg" xmlns:xlink="http://www.w3.org/1999/xlink" x="0px" y="0px"
	 viewBox="0 0 105.477 94.042" style="enable-background:new 0 0 105.477 94.042;" xml:space="preserve">
<g>
	<path style="fill:#5D2F88;" d="M2.718,5.855c1.558-2.699,4.35-4.311,7.467-4.312l85.107,0c3.117,0,5.909,1.612,7.468,4.311
		c1.558,2.7,1.558,5.923,0,8.623L60.206,88.182c-1.559,2.7-4.351,4.312-7.468,4.312c-3.117,0-5.909-1.612-7.467-4.312L2.717,14.478
		C1.159,11.778,1.159,8.555,2.718,5.855"/>
	<path style="fill:#382259;" d="M58.869,87.411c-2.725,4.719-9.536,4.719-12.261,0L4.055,13.706c-1.362-2.359-1.192-5.014,0-7.079
		s3.406-3.539,6.13-3.54l85.107,0c5.449,0,8.855,5.899,6.13,10.618L58.869,87.411 M61.543,88.955l42.553-73.704
		c1.838-3.183,1.838-6.984,0.001-10.166C102.259,1.9,98.968,0,95.292,0L10.185,0C6.51,0,3.218,1.9,1.381,5.083
		c-1.838,3.183-1.838,6.984,0,10.167l42.554,73.705c1.838,3.183,5.129,5.083,8.805,5.083C56.414,94.038,59.705,92.138,61.543,88.955
		"/>
</g>
<path style="fill:#FFFFFF;" d="M31.566,53.495c-0.185-1.381-0.304-2.764-0.357-4.146l5.607,0.01c-0.993,1.569-1.37,3.42-1.045,5.261
	c0.324,1.838,1.308,3.448,2.774,4.581l-3.048,1.103l1.727,2.991l2.471-0.895c-0.382,1.748-0.149,3.635,0.814,5.303
	c0.962,1.667,2.48,2.806,4.182,3.349l-2.015,1.685l1.725,2.988l2.457-2.054c0.239,1.773,1.104,3.468,2.579,4.706
	c1.353,1.134,3.025,1.74,4.769,1.74c0.22,0,0.44-0.01,0.662-0.028c0.638-0.056,1.252-0.199,1.84-0.407
	c0.006,0.035,0.014,0.07,0.021,0.105l2.798-4.847c-0.708-0.452-1.658-0.328-2.214,0.333c-0.693,0.827-1.667,1.334-2.742,1.428
	c-1.072,0.094-2.123-0.236-2.949-0.929c-1.689-1.418-1.919-3.931-0.536-5.637l3.787-3.166c0.636,0.671,1.307,1.311,2.01,1.918
	c0.007,0.008,0.012,0.017,0.02,0.025c0.095,0.098,0.2,0.179,0.31,0.249c1.246,1.043,2.586,1.992,4.022,2.821l1.7-2.945
	c0,0-0.001,0-0.001,0c-0.73-0.421-1.431-0.878-2.106-1.364c0.291-0.406,0.577-0.79,0.86-1.159c0.803-0.88,1.521-1.739,2.161-2.577
	c1.483-1.598,2.799-2.652,3.912-3.267c0,0.003,0,0.006,0,0.009l2.61-4.521c0,0,0,0,0,0c-2.253-1.301-3.864-3.4-4.538-5.914
	c-0.673-2.513-0.327-5.137,0.974-7.391c1.802-3.121,5.082-4.867,8.451-4.867c1.651,0,3.323,0.42,4.853,1.302l2.609-4.519
	c-0.021-1.27,0.234-2.932,0.874-5.01c0.407-0.976,0.793-2.031,1.155-3.17c0.177-0.425,0.364-0.859,0.567-1.309
	c0.756,0.341,1.503,0.709,2.23,1.129l1.7-2.945c0,0,0,0-0.001,0c-1.288-0.744-2.62-1.374-3.981-1.899
	c-0.014-0.007-0.026-0.018-0.04-0.025c-0.121-0.059-0.246-0.098-0.372-0.127c-0.996-0.366-2.008-0.677-3.032-0.926l0.856-4.808
	c0.372-1.002,1.108-1.802,2.077-2.255c0.978-0.455,2.074-0.503,3.089-0.134c1.014,0.369,1.823,1.11,2.279,2.089
	c0.456,0.978,0.504,2.074,0.135,3.089c-0.128,0.352-0.128,0.717-0.031,1.051c0.015,0.056,0.037,0.109,0.058,0.163
	c0.014,0.034,0.025,0.07,0.041,0.103c0.102,0.223,0.248,0.43,0.449,0.598c0.057,0.048,0.12,0.084,0.182,0.124l2.801-4.852
	c-0.116-0.584-0.294-1.16-0.552-1.713c-0.84-1.801-2.331-3.167-4.197-3.847c-1.754-0.638-3.64-0.591-5.354,0.111l0.568-3.191h-3.454
	l-0.461,2.587c-1.323-1.204-3.074-1.946-5-1.946c-1.922,0-3.671,0.739-4.992,1.939l-0.45-2.58h-3.451l0.55,3.153
	c-1.654-0.68-3.554-0.778-5.364-0.119c-1.753,0.639-3.167,1.888-4.029,3.527l-2.8-4.87c1.18-0.616,2.391-1.181,3.632-1.692h-7.573
	c-0.1,0.06-0.201,0.116-0.3,0.177c0.006-0.059,0.019-0.117,0.024-0.177h-3.427c-0.215,1.605-0.975,3.058-2.171,4.151
	c-0.176,0.146-0.354,0.288-0.528,0.436c-2.899,2.166-7.028,1.722-9.381-1.083c-0.85-1.014-1.374-2.224-1.544-3.504H30.08
	c0.114,1.296,0.474,2.546,1.058,3.702c-4.462-1.34-9.431,0.491-11.858,4.696c-1.373,2.378-1.738,5.148-1.027,7.801
	c0.502,1.874,1.507,3.523,2.887,4.818c-1.293,0.072-2.555,0.385-3.733,0.934l1.716,2.972c0.824-0.34,1.696-0.533,2.59-0.533
	c0.401,0,0.806,0.035,1.209,0.106h0c1.81,0.319,3.387,1.324,4.441,2.829c0.977,1.395,1.388,3.065,1.19,4.743
	c-0.042,0.226-0.076,0.453-0.115,0.679c-0.358,1.63-1.274,3.004-2.512,3.96l1.712,2.966c0.049-0.035,0.095-0.074,0.144-0.11
	c-0.003,0.118-0.001,0.236-0.003,0.354L31.566,53.495z M31.852,40.076c0.022-0.124,0.03-0.249,0.047-0.373
	c0.346-1.861,0.821-3.701,1.409-5.512l5.267,1.927c-1.47,1.134-2.457,2.746-2.781,4.587c-0.334,1.893,0.09,3.743,1.044,5.253
	l-5.635-0.01c0.073-1.874,0.271-3.739,0.585-5.585C31.807,40.267,31.834,40.174,31.852,40.076z M50.294,22.34
	c0.094-1.075,0.601-2.049,1.428-2.743c1.688-1.416,4.199-1.208,5.641,0.448l2.465,4.286c-0.778,0.512-1.53,1.062-2.252,1.649
	c-0.005,0.003-0.011,0.005-0.016,0.009c-0.071,0.048-0.132,0.104-0.193,0.16c-0.85,0.705-1.658,1.46-2.42,2.264l-3.735-3.146
	C50.527,24.444,50.201,23.405,50.294,22.34z M73.459,23.179c0.038,0.498,0.065,0.975,0.086,1.439
	c-0.049,1.191-0.047,2.312,0.001,3.366c-0.109,2.178-0.44,3.832-0.896,5.019c-0.835-0.959-1.71-2.399-2.557-4.408
	c-0.316-1.008-0.698-2.064-1.152-3.168c-0.137-0.438-0.273-0.89-0.406-1.365c0.114-0.032,0.222-0.077,0.337-0.108
	C70.39,23.547,71.925,23.293,73.459,23.179z M79.522,23.489c0.013,0.002,0.024,0.008,0.036,0.01
	c0.019,0.003,0.037,0.002,0.055,0.005c0.79,0.143,1.574,0.325,2.349,0.547c-0.134,0.48-0.271,0.937-0.41,1.379
	c-0.454,1.104-0.836,2.16-1.152,3.168c-0.847,2.009-1.723,3.449-2.558,4.407c-0.456-1.188-0.787-2.842-0.895-5.022
	c0.048-1.053,0.05-2.173,0.001-3.362c0.021-0.467,0.049-0.948,0.087-1.449C77.869,23.233,78.698,23.343,79.522,23.489z
	 M59.076,64.335c-0.309,0.336-0.63,0.677-0.973,1.028c-1.204-1.166-2.28-2.446-3.217-3.829c0.406-0.277,0.799-0.535,1.185-0.782
	c1.06-0.555,2.032-1.119,2.924-1.689c1.939-0.993,3.535-1.533,4.791-1.731c-0.413,1.202-1.222,2.68-2.538,4.417
	C60.531,62.528,59.807,63.388,59.076,64.335z M42.392,45.969c-2.178-0.401-3.635-2.488-3.25-4.673
	c0.187-1.063,0.777-1.989,1.661-2.607c0.865-0.606,1.911-0.836,2.949-0.675l4.644,1.699c-0.27,0.897-0.494,1.804-0.671,2.719
	c-0.001,0.003-0.003,0.006-0.003,0.009c-0.006,0.021-0.006,0.042-0.012,0.063c-0.219,1.147-0.361,2.307-0.433,3.474L42.392,45.969z
	 M43.519,29.338c1.102-1.91,3.537-2.572,5.456-1.507l3.787,3.189c-0.535,0.723-1.037,1.475-1.507,2.255
	c-0.021,0.026-0.046,0.046-0.065,0.073c-0.08,0.109-0.14,0.226-0.19,0.346c-0.006,0.01-0.012,0.019-0.017,0.028
	c-0.039,0.067-0.072,0.135-0.11,0.202c-0.03,0.052-0.065,0.101-0.09,0.158c-0.003,0.006-0.004,0.013-0.006,0.019
	c-0.442,0.792-0.844,1.6-1.204,2.421l-4.594-1.681C43.065,33.721,42.409,31.259,43.519,29.338z M61.254,33.695
	c1.316,1.738,2.125,3.216,2.538,4.418c-1.255-0.198-2.851-0.738-4.79-1.732c-0.891-0.571-1.865-1.135-2.924-1.69
	c-0.384-0.246-0.776-0.502-1.18-0.778c0.946-1.397,2.016-2.682,3.204-3.839c0.357,0.365,0.693,0.721,1.013,1.07
	C59.835,32.075,60.548,32.927,61.254,33.695z M54.372,57.804c-0.41,0.213-0.835,0.426-1.283,0.641
	c-0.666-1.383-1.215-2.834-1.621-4.349c-0.032-0.118-0.056-0.236-0.086-0.354c0.48-0.123,0.941-0.232,1.391-0.332
	c1.185-0.159,2.292-0.356,3.325-0.587c2.161-0.27,3.845-0.231,5.092,0.012c-0.799,0.988-2.065,2.1-3.894,3.281
	C56.357,56.603,55.382,57.164,54.372,57.804z M57.309,39.331c1.826,1.181,3.089,2.291,3.886,3.278
	c-1.247,0.243-2.931,0.281-5.093,0.01c-1.033-0.231-2.14-0.429-3.325-0.588c-0.453-0.101-0.918-0.211-1.401-0.335
	c0.208-0.817,0.459-1.625,0.752-2.422c0.001-0.002,0.003-0.004,0.004-0.007c0.001-0.004,0.001-0.007,0.003-0.011
	c0.282-0.765,0.603-1.518,0.963-2.258c0.487,0.234,0.953,0.467,1.396,0.698C55.461,38.307,56.406,38.864,57.309,39.331z
	 M52.188,50.058c-0.461,0.06-0.935,0.115-1.432,0.165c-0.086-0.825-0.129-1.65-0.131-2.473c0.001-0.022,0.007-0.043,0.007-0.066
	c0-0.02-0.005-0.039-0.006-0.058c0.002-0.805,0.044-1.608,0.125-2.406c0.547,0.054,1.073,0.114,1.576,0.181
	c1.049,0.226,2.043,0.397,2.996,0.525c2.221,0.492,3.847,1.122,4.968,1.796c-1.089,0.656-2.66,1.268-4.785,1.753
	C54.459,49.61,53.354,49.803,52.188,50.058z M65.181,25.29c0.202,0.447,0.387,0.878,0.563,1.3c0.362,1.139,0.748,2.194,1.154,3.17
	c0.641,2.081,0.896,3.746,0.873,5.016c-1.112-0.615-2.428-1.669-3.911-3.267c-0.641-0.84-1.362-1.701-2.167-2.583
	c-0.279-0.365-0.562-0.744-0.85-1.146C62.194,26.806,63.644,25.975,65.181,25.29z M40.574,27.638
	c-0.961,1.664-1.195,3.548-0.816,5.293l-5.274-1.93c0.746-1.808,1.606-3.581,2.601-5.304c1.021-1.768,2.157-3.442,3.386-5.028
	l4.29,3.613C43.056,24.825,41.538,25.97,40.574,27.638z M40.781,56.638c-0.884-0.618-1.474-1.545-1.661-2.607
	c-0.188-1.063,0.05-2.135,0.669-3.019c0.605-0.864,1.506-1.441,2.538-1.643l4.945,0.009c0.056,0.913,0.157,1.826,0.303,2.738
	c0.001,0.019-0.003,0.037-0.002,0.055c0.01,0.139,0.041,0.271,0.081,0.398c0.012,0.066,0.026,0.133,0.038,0.199
	c0.011,0.076,0.02,0.152,0.041,0.228c0.001,0.004,0.003,0.007,0.004,0.01c0.127,0.658,0.27,1.316,0.445,1.97
	c0.06,0.224,0.13,0.443,0.196,0.665l-4.608,1.668C42.72,57.484,41.657,57.251,40.781,56.638z M48.951,67.493
	c-0.93,0.53-2.009,0.669-3.043,0.394c-1.042-0.279-1.914-0.948-2.453-1.882c-1.102-1.91-0.459-4.351,1.425-5.48l4.646-1.682
	c0.846,1.968,1.913,3.814,3.169,5.518L48.951,67.493z M75.306,11.061c2.204,0,3.996,1.776,4.033,3.971l-0.866,4.863
	c-0.92-0.107-1.846-0.167-2.775-0.18c-0.01-0.001-0.019-0.005-0.03-0.006c-0.133-0.016-0.262-0.012-0.389,0.003
	c-1.055,0-2.114,0.054-3.171,0.175l-0.84-4.813C71.283,12.858,73.087,11.061,75.306,11.061z M60.481,15.339
	c0.457-0.979,1.267-1.721,2.28-2.09c1.016-0.369,2.112-0.32,3.089,0.135c0.958,0.446,1.683,1.234,2.059,2.218l0.852,4.882
	c-0.257,0.061-0.514,0.118-0.77,0.186c-0.624,0.167-1.235,0.362-1.841,0.569c-0.03,0.006-0.06,0.006-0.091,0.013
	c-0.137,0.034-0.262,0.088-0.381,0.151c-0.995,0.36-1.966,0.768-2.905,1.231l-2.433-4.231
	C59.981,17.396,60.028,16.309,60.481,15.339z M54.615,15.266c-1.856-0.08-3.647,0.525-5.078,1.726
	c-1.43,1.199-2.332,2.857-2.581,4.693l-4.298-3.62c1.239-1.366,2.553-2.655,3.947-3.847c0.105-0.081,0.213-0.155,0.315-0.241
	c0.073-0.061,0.137-0.13,0.208-0.192c1.485-1.231,3.047-2.367,4.684-3.392L54.615,15.266z M22.224,17.117
	c1.273-2.204,3.59-3.438,5.97-3.438c1.167,0,2.348,0.297,3.428,0.921c3.285,1.896,4.415,6.112,2.518,9.398
	c-0.919,1.591-2.402,2.729-4.177,3.205c-1.776,0.474-3.629,0.229-5.221-0.688s-2.73-2.402-3.206-4.177
	C21.061,20.562,21.305,18.709,22.224,17.117z"/>
</svg>
