<svg xmlns="http://www.w3.org/2000/svg" viewBox="0 0 105.48 94.04"><path d="M52.74,92.49a8.54,8.54,0,0,1-7.47-4.31L2.72,14.48A8.63,8.63,0,0,1,10.19,1.54h85.1a8.63,8.63,0,0,1,7.47,12.94L60.21,88.18a8.54,8.54,0,0,1-7.47,4.31" fill="#5d2f88"/><path d="M95.29,3.09a7.08,7.08,0,0,1,6.13,10.62L58.87,87.41a7.08,7.08,0,0,1-12.26,0L4.06,13.71A7.08,7.08,0,0,1,10.19,3.09h85.1m0-3.09H10.19A10.17,10.17,0,0,0,1.38,15.25L43.93,89a10.16,10.16,0,0,0,17.61,0l42.56-73.7A10.17,10.17,0,0,0,95.29,0" fill="#382259"/><path d="M55.8 37.89l-1.11-8.38a16.5 16.5 0 0 0 7-13c.24-6.5-3.07-7.95-4.44-7.95-2.22 0-7.9.37-7.18 8.81l1.37 10.78c-.88.75-11.74 8.11-10.7 16.88 1.47 12.31 13.59 12.25 14.57 12.27.29 2.33.62 4.49.77 6.34.28 3.34-3.92 3.9-4.14 3.77a7.75 7.75 0 0 0 1.17-2.86 3.85 3.85 0 0 0-3.85-3.85c-2 0-4.06 1.4-3.75 4.71A6.49 6.49 0 0 0 52 70.9c1.44 0 7.61-.79 7.06-7.6-.15-1.92-.5-4.16-.8-6.59.09 0 6.58-2.78 6.55-8.92-.07-9.93-8.73-9.9-9.01-9.9zm1.81-18.25c-.43 2-2.61 5-3.54 6.09-.76-5.56-1.16-13.77 2.34-13.81 1.27-.01 2.21 3.08 1.2 7.72zM43.66 45c0-5.29 8-12.65 8.34-13l.86 6.44c-.74.3-3.64 1.91-4.22 4.58-1.38 6.37 3.51 7.32 4.1 7.34a.34.34 0 0 0 .23-.62c-4.63-3.85.25-7.49.38-7.55l1.66 12.87C54 55.4 44.34 55.45 43.66 45zm14.18 8.58l-1.5-11.66c.31.07 4.53 1.6 4.53 5.65a7.26 7.26 0 0 1-3.03 6.02z" fill="#fff"/><path d="M90.44 22.29h-24.7a1.5 1.5 0 0 1 0-3h24.7a1.5 1.5 0 0 1 0 3zm-44.18 0H14.51a1.5 1.5 0 1 1 0-3h31.75a1.5 1.5 0 0 1 0 3zm39.11 8.78h-24.5a1.5 1.5 0 0 1 0-3h24.5a1.5 1.5 0 0 1 0 3zm-42.71 0H20.14a1.5 1.5 0 0 1 0-3h22.52a1.5 1.5 0 0 1 0 3zm37.64 8.78H66.39a1.5 1.5 0 0 1 0-3H80.3a1.5 1.5 0 0 1 0 3zm-43.2 0H25.21a1.5 1.5 0 0 1 0-3H37.1a1.5 1.5 0 0 1 0 3zm38.13 8.79h-5.89a1.5 1.5 0 0 1 0-3h5.89a1.5 1.5 0 0 1 0 3zm-38.79 0H30a1.5 1.5 0 1 1 0-3h6.48a1.5 1.5 0 0 1 0 3zm33.71 8.78h-3.76a1.5 1.5 0 0 1 0-3h3.76a1.5 1.5 0 0 1 0 3zm-29.46 0h-5.14a1.5 1.5 0 0 1 0-3h5.14a1.5 1.5 0 0 1 0 3z" fill="#f0ae00"/></svg>