<svg id="Warstwa_1" data-name="Warstwa 1" xmlns="http://www.w3.org/2000/svg" viewBox="0 0 105.48 94.04"><defs><style>.cls-1{fill:#5d2f88;}.cls-2{fill:#382259;}.cls-3{fill:#fff;}.cls-4{fill:#f0ae00;}</style></defs><title>tropy-zuchowe-znaczki-popr-krz</title><path class="cls-1" d="M52.74,92.49a8.54,8.54,0,0,1-7.47-4.31L2.72,14.48A8.63,8.63,0,0,1,10.19,1.54h85.1a8.63,8.63,0,0,1,7.47,12.94L60.21,88.18a8.54,8.54,0,0,1-7.47,4.31"/><path class="cls-2" d="M95.29,3.09a7.08,7.08,0,0,1,6.13,10.62L58.87,87.41a7.08,7.08,0,0,1-12.26,0L4.06,13.71A7.08,7.08,0,0,1,10.19,3.09h85.1m0-3.09H10.19A10.17,10.17,0,0,0,1.38,15.25L43.93,89a10.16,10.16,0,0,0,17.61,0l42.56-73.7A10.17,10.17,0,0,0,95.29,0"/><path class="cls-3" d="M55.8,37.89c-.48-3.69-.89-6.73-1.11-8.38a16.5,16.5,0,0,0,7-13c.24-6.5-3.07-7.95-4.44-7.95-2.22,0-7.9.37-7.18,8.81,0,0,.76,5.65,1.37,10.78-.88.75-11.74,8.11-10.7,16.88,1.47,12.31,13.59,12.25,14.57,12.27.29,2.33.62,4.49.77,6.34.28,3.34-3.92,3.9-4.14,3.77a7.75,7.75,0,0,0,1.17-2.86,3.85,3.85,0,0,0-3.85-3.85c-2,0-4.06,1.4-3.75,4.71A6.49,6.49,0,0,0,52,70.9c1.44,0,7.61-.79,7.06-7.6-.15-1.92-.5-4.16-.8-6.59.09,0,6.58-2.78,6.55-8.92C64.74,37.86,56.08,37.89,55.8,37.89Zm1.81-18.25c-.43,2-2.61,5-3.54,6.09-.76-5.56-1.16-13.77,2.34-13.81C57.68,11.91,58.62,15,57.61,19.64ZM43.66,45c0-5.29,8-12.65,8.34-13,.23,1.7.53,3.93.86,6.44-.74.3-3.64,1.91-4.22,4.58-1.38,6.37,3.51,7.32,4.1,7.34a.34.34,0,0,0,.23-.62c-4.63-3.85.25-7.49.38-7.55.54,4.13,1.13,8.67,1.66,12.87C54,55.4,44.34,55.45,43.66,45Zm14.18,8.58c-.48-3.84-1-7.92-1.5-11.66.31.07,4.53,1.6,4.53,5.65A7.26,7.26,0,0,1,57.84,53.59Z"/><path class="cls-4" d="M90.44,22.29H65.74a1.5,1.5,0,0,1,0-3h24.7a1.5,1.5,0,0,1,0,3Z"/><path class="cls-4" d="M46.26,22.29H14.51a1.5,1.5,0,1,1,0-3H46.26a1.5,1.5,0,0,1,0,3Z"/><path class="cls-4" d="M85.37,31.07H60.87a1.5,1.5,0,0,1,0-3h24.5a1.5,1.5,0,0,1,0,3Z"/><path class="cls-4" d="M42.66,31.07H20.14a1.5,1.5,0,0,1,0-3H42.66a1.5,1.5,0,0,1,0,3Z"/><path class="cls-4" d="M80.3,39.85H66.39a1.5,1.5,0,0,1,0-3H80.3a1.5,1.5,0,0,1,0,3Z"/><path class="cls-4" d="M37.1,39.85H25.21a1.5,1.5,0,0,1,0-3H37.1a1.5,1.5,0,0,1,0,3Z"/><path class="cls-4" d="M75.23,48.64H69.34a1.5,1.5,0,0,1,0-3h5.89a1.5,1.5,0,0,1,0,3Z"/><path class="cls-4" d="M36.44,48.64H30a1.5,1.5,0,1,1,0-3h6.48a1.5,1.5,0,0,1,0,3Z"/><path class="cls-4" d="M70.15,57.42H66.39a1.5,1.5,0,0,1,0-3h3.76a1.5,1.5,0,0,1,0,3Z"/><path class="cls-4" d="M40.69,57.42H35.55a1.5,1.5,0,0,1,0-3h5.14a1.5,1.5,0,0,1,0,3Z"/></svg>