<?xml version="1.0" encoding="iso-8859-1"?>
<!-- Generator: Adobe Illustrator 22.1.0, SVG Export Plug-In . SVG Version: 6.00 Build 0)  -->
<svg version="1.1" id="Warstwa_1" xmlns="http://www.w3.org/2000/svg" xmlns:xlink="http://www.w3.org/1999/xlink" x="0px" y="0px"
	 viewBox="0 0 105.477 94.042" style="enable-background:new 0 0 105.477 94.042;" xml:space="preserve">
<g>
	<path style="fill:#5D2F88;" d="M52.736,92.494c-3.117,0-5.909-1.612-7.468-4.311L2.715,14.478
		c-1.559-2.699-1.559-5.923-0.001-8.622c1.559-2.699,4.351-4.311,7.468-4.311h85.107c3.117,0,5.909,1.612,7.468,4.311
		c1.558,2.699,1.558,5.923-0.001,8.622L60.204,88.183C58.645,90.882,55.854,92.494,52.736,92.494"/>
	<path style="fill:#382259;" d="M95.29,3.088c5.449,0,8.855,5.899,6.131,10.618L58.867,87.411c-1.362,2.359-3.746,3.539-6.131,3.539
		s-4.768-1.18-6.131-3.539L4.052,13.706C1.328,8.987,4.734,3.088,10.183,3.088H95.29 M95.29,0H10.183C6.507,0,3.216,1.9,1.378,5.083
		c-1.838,3.184-1.838,6.984,0,10.167l42.553,73.705c1.837,3.183,5.129,5.083,8.805,5.083c3.675,0,6.967-1.9,8.805-5.083
		l42.553-73.705c1.838-3.183,1.838-6.983,0-10.167C102.256,1.9,98.965,0,95.29,0"/>
</g>
<g>
	<path style="fill:#FFFFFF;" d="M52.75,19.36c-1.209-5.848-2.624-11.389-2.624-11.389s-9.956,4.091-17.086,6.001
		c-7.563,2.027-17.798,3.346-17.798,3.346s5.024,17.917,7.967,22.391c6.831,10.385,19.382,9.908,19.382,9.908
		c0.526-0.269,7.041-3.714,10.189-11.156c-0.905-2.073-1.545-4.441-1.701-7.115C50.939,28.963,51.778,24.062,52.75,19.36z
		 M29.059,31.706c-1.945,0.521-3.943-0.633-4.464-2.578c-0.521-1.945,0.632-3.944,2.577-4.465c1.945-0.521,3.944,0.633,4.465,2.578
		C32.159,29.186,31.005,31.185,29.059,31.706z M43.16,37.589c-0.796,0.21-1.622-0.26-1.837-1.062
		c-0.149-0.558-0.507-1.024-1.008-1.313c-0.502-0.288-1.086-0.364-1.644-0.216c-1.152,0.309-1.839,1.498-1.529,2.65
		c0.214,0.8-0.261,1.623-1.061,1.838c-0.13,0.034-0.261,0.051-0.39,0.051c-0.662,0-1.269-0.441-1.448-1.111
		c-0.737-2.75,0.9-5.588,3.651-6.326c1.336-0.356,2.727-0.172,3.92,0.516c1.194,0.69,2.049,1.804,2.406,3.137
		C44.435,36.552,43.961,37.374,43.16,37.589z M45.351,27.341c-1.944,0.521-3.943-0.633-4.464-2.578
		c-0.521-1.945,0.633-3.944,2.577-4.465c1.945-0.521,3.944,0.633,4.465,2.578C48.451,24.82,47.297,26.819,45.351,27.341z"/>
	<path style="fill:#F0AE00;" d="M72.461,13.972c-7.563-2.027-17.087-6.001-17.087-6.001s-1.416,5.54-2.624,11.389
		c-0.972,4.702-1.811,9.603-1.672,11.986c0.156,2.674,0.796,5.042,1.701,7.115c3.296,7.547,10.13,11.156,10.13,11.156
		c0.754,0.039,12.551,0.477,19.382-9.908c2.943-4.474,7.967-22.391,7.967-22.391S79.591,15.883,72.461,13.972z M60.147,27.34
		c-1.945-0.521-3.098-2.52-2.577-4.465c0.521-1.945,2.519-3.1,4.464-2.578s3.099,2.52,2.578,4.465
		C64.092,26.707,62.093,27.861,60.147,27.34z M72.204,34.885c-0.357,1.333-1.212,2.447-2.406,3.137
		c-0.796,0.459-1.679,0.693-2.573,0.693c-0.449,0-0.901-0.059-1.347-0.178c-1.332-0.357-2.445-1.211-3.136-2.406
		c-0.689-1.194-0.873-2.586-0.517-3.918c0.215-0.801,1.042-1.27,1.837-1.062c0.801,0.215,1.275,1.037,1.062,1.837
		c-0.309,1.153,0.378,2.342,1.53,2.65c0.561,0.151,1.144,0.073,1.644-0.216c0.501-0.289,0.858-0.755,1.008-1.313
		c0.215-0.802,1.042-1.269,1.837-1.062C71.943,33.263,72.418,34.085,72.204,34.885z M80.905,29.128
		c-0.521,1.945-2.52,3.099-4.465,2.578c-1.944-0.521-3.098-2.52-2.577-4.465c0.521-1.945,2.52-3.099,4.464-2.578
		C80.272,25.183,81.426,27.182,80.905,29.128z"/>
</g>
</svg>
