<?xml version="1.0" encoding="iso-8859-1"?>
<!-- Generator: Adobe Illustrator 22.1.0, SVG Export Plug-In . SVG Version: 6.00 Build 0)  -->
<svg version="1.1" id="Warstwa_1" xmlns="http://www.w3.org/2000/svg" xmlns:xlink="http://www.w3.org/1999/xlink" x="0px" y="0px"
	 viewBox="0 0 105.477 94.042" style="enable-background:new 0 0 105.477 94.042;" xml:space="preserve">
<g>
	<path style="fill:#5D2F88;" d="M52.736,92.494c-3.117,0-5.909-1.612-7.468-4.311L2.715,14.478
		c-1.559-2.699-1.559-5.923-0.001-8.622c1.559-2.699,4.351-4.311,7.468-4.311h85.107c3.117,0,5.909,1.612,7.468,4.311
		c1.558,2.699,1.558,5.923-0.001,8.622L60.204,88.183C58.645,90.882,55.854,92.494,52.736,92.494"/>
	<path style="fill:#382259;" d="M95.29,3.088c5.449,0,8.855,5.899,6.131,10.618L58.867,87.411c-1.362,2.359-3.746,3.539-6.131,3.539
		s-4.768-1.18-6.131-3.539L4.052,13.706C1.328,8.987,4.734,3.088,10.183,3.088H95.29 M95.29,0H10.183C6.507,0,3.216,1.9,1.378,5.083
		c-1.838,3.184-1.838,6.984,0,10.167l42.553,73.705c1.837,3.183,5.129,5.083,8.805,5.083c3.675,0,6.967-1.9,8.805-5.083
		l42.553-73.705c1.838-3.183,1.838-6.983,0-10.167C102.256,1.9,98.965,0,95.29,0"/>
</g>
<g>
	<g>
		<path style="fill:#FFFFFF;" d="M38.163,64.101l10.325,17.883c0.887,1.536,2.475,2.453,4.248,2.453
			c1.773,0,3.362-0.917,4.248-2.453l10.324-17.883c-4.313-2.417-9.277-3.809-14.573-3.809S42.476,61.684,38.163,64.101z"/>
	</g>
	<g>
		<path style="fill:#F0AE00;" d="M85.047,22.353l-2.782,2.342c-0.908,0.765-2.299,0.156-2.353-1.03l-0.167-3.633
			c-0.022-0.471-0.274-0.901-0.674-1.15l-3.087-1.922c-1.008-0.627-0.859-2.138,0.252-2.556l3.403-1.281
			c0.441-0.166,0.772-0.539,0.886-0.996l0.874-3.53c0.285-1.152,1.768-1.477,2.509-0.55l2.27,2.841
			c0.294,0.368,0.751,0.568,1.221,0.534l3.627-0.26c1.184-0.085,1.951,1.225,1.299,2.216l-2,3.037
			c-0.259,0.394-0.308,0.89-0.131,1.327l1.368,3.369c0.447,1.1-0.562,2.235-1.707,1.92l-3.506-0.964
			C85.895,21.943,85.408,22.05,85.047,22.353z"/>
	</g>
	<g>
		<path style="fill:#F0AE00;" d="M22.438,23.355l-2.504,0.846c-0.818,0.276-1.597-0.505-1.319-1.322l0.852-2.502
			c0.11-0.324,0.054-0.682-0.151-0.957l-1.579-2.12c-0.515-0.692-0.013-1.675,0.85-1.663l2.643,0.037
			c0.343,0.005,0.666-0.159,0.864-0.439l1.529-2.157c0.499-0.704,1.589-0.53,1.844,0.294l0.782,2.525
			c0.101,0.327,0.357,0.584,0.684,0.686l2.523,0.787c0.824,0.257,0.995,1.347,0.29,1.845l-2.16,1.524
			c-0.28,0.198-0.445,0.52-0.441,0.863l0.031,2.643c0.01,0.863-0.974,1.363-1.665,0.846l-2.117-1.583
			C23.121,23.302,22.763,23.245,22.438,23.355z"/>
	</g>
	<path style="fill:#AFCA0B;" d="M58.26,47.894c-0.586-0.586-1.535-0.586-2.121,0l-1.902,1.903v-8.601c0-0.829-0.672-1.5-1.5-1.5
		s-1.5,0.671-1.5,1.5v8.602l-1.903-1.903c-0.586-0.586-1.535-0.586-2.121,0c-0.586,0.585-0.586,1.536,0,2.121l4.024,4.024v15.648
		c0,0.829,0.672,1.5,1.5,1.5s1.5-0.671,1.5-1.5V54.039l4.023-4.024C58.846,49.429,58.846,48.479,58.26,47.894z"/>
	<g>
		<path style="fill:#F0AE00;" d="M35.51,51.64l2.255,1.214c0.736,0.396,1.607-0.224,1.474-1.049l-0.408-2.528
			c-0.053-0.328,0.059-0.66,0.299-0.89l1.851-1.769c0.604-0.578,0.284-1.597-0.542-1.726l-2.53-0.393
			c-0.328-0.051-0.61-0.26-0.754-0.559l-1.111-2.307c-0.363-0.753-1.432-0.764-1.809-0.018L33.078,43.9
			c-0.15,0.296-0.436,0.5-0.765,0.544l-2.538,0.343c-0.828,0.112-1.169,1.125-0.576,1.715l1.816,1.805
			c0.235,0.234,0.341,0.569,0.281,0.896l-0.458,2.519c-0.149,0.823,0.709,1.459,1.453,1.078l2.278-1.169
			C34.866,51.479,35.217,51.483,35.51,51.64z"/>
	</g>
	<g>
		<g>
			<path style="fill:#C90C0F;" d="M48.601,38.915c-3.084,0-6.012-0.665-8.666-1.839c3.219,3.406,7.763,5.548,12.801,5.548
				c9.715,0,17.639-7.924,17.639-17.639c0-1.479-0.204-2.909-0.55-4.284C68.234,30.998,59.337,38.915,48.601,38.915z"/>
		</g>
		<g>
			<path style="fill:#C90C0F;" d="M43.731,21.334c2.416-0.911,4.987-1.394,7.594-1.394c2.735,0,5.454,0.534,7.979,1.54
				c0.014-0.293,0.027-0.586,0.027-0.88c0-1.992-0.796-5.221-1.67-7.644C51.99,13.455,46.823,16.577,43.731,21.334z"/>
		</g>
		<g>
			<path style="fill:#C90C0F;" d="M41.24,11.644c-0.312,1.342-0.481,2.737-0.481,4.174c0,1.342,0.161,2.649,0.436,3.917
				c3.925-6.061,10.747-9.857,18.067-9.857c0.974,0,1.927,0.081,2.866,0.21c-2.724-1.725-5.94-2.74-9.392-2.74
				C48.347,7.346,44.333,8.974,41.24,11.644z"/>
		</g>
		<g>
			<path style="fill:#C90C0F;" d="M51.325,22.939c-2.85,0-5.653,0.659-8.186,1.909c2.328,4.144,6.201,7.325,10.893,8.707
				c2.438-2.486,4.12-5.607,4.864-9C56.531,23.495,53.936,22.939,51.325,22.939z"/>
		</g>
		<g>
			<path style="fill:#C90C0F;" d="M60.829,12.956c0.758,2.323,1.502,5.347,1.502,7.643c0,4.568-1.455,8.941-4.051,12.552
				c5.284-3.262,8.824-9.088,8.824-15.74c0-0.984-0.1-1.943-0.248-2.886C64.989,13.681,62.962,13.136,60.829,12.956z"/>
		</g>
		<g>
			<path style="fill:#C90C0F;" d="M37.759,15.817c0-0.033,0.003-0.066,0.003-0.099c-1.678,2.698-2.665,5.867-2.665,9.267
				c0,2.162,0.411,4.226,1.128,6.143c3.282,2.964,7.615,4.787,12.375,4.787c0.865,0,1.709-0.08,2.542-0.196
				C43.238,32.486,37.759,24.707,37.759,15.817z"/>
		</g>
	</g>
</g>
</svg>
