<?xml version="1.0" encoding="iso-8859-1"?>
<!-- Generator: Adobe Illustrator 22.1.0, SVG Export Plug-In . SVG Version: 6.00 Build 0)  -->
<svg version="1.1" id="Warstwa_1" xmlns="http://www.w3.org/2000/svg" xmlns:xlink="http://www.w3.org/1999/xlink" x="0px" y="0px"
	 viewBox="0 0 105.477 94.042" style="enable-background:new 0 0 105.477 94.042;" xml:space="preserve">
<g>
	<path style="fill:#5D2F88;" d="M52.736,92.494c-3.117,0-5.909-1.612-7.468-4.311L2.715,14.478
		c-1.559-2.699-1.559-5.923-0.001-8.622c1.559-2.699,4.351-4.311,7.468-4.311h85.107c3.117,0,5.909,1.612,7.468,4.311
		c1.558,2.699,1.558,5.923-0.001,8.622L60.204,88.183C58.645,90.882,55.854,92.494,52.736,92.494"/>
	<path style="fill:#382259;" d="M95.29,3.088c5.449,0,8.855,5.899,6.131,10.618L58.867,87.411c-1.362,2.359-3.746,3.539-6.131,3.539
		s-4.768-1.18-6.131-3.539L4.052,13.706C1.328,8.987,4.734,3.088,10.183,3.088H95.29 M95.29,0H10.183C6.507,0,3.216,1.9,1.378,5.083
		c-1.838,3.184-1.838,6.984,0,10.167l42.553,73.705c1.837,3.183,5.129,5.083,8.805,5.083c3.675,0,6.967-1.9,8.805-5.083
		l42.553-73.705c1.838-3.183,1.838-6.983,0-10.167C102.256,1.9,98.965,0,95.29,0"/>
</g>
<g>
	<path style="fill:#FFFFFF;" d="M57.979,48.802l20.696-11.949l-1.7-2.728c-9.984,5.815-21.177,5.661-24.239,12.319
		C54.823,46.445,56.691,47.359,57.979,48.802z"/>
	<path style="fill:#FFFFFF;" d="M52.736,46.445c-3.062-6.658-14.255-6.504-24.239-12.319l-1.7,2.728l20.696,11.949
		C48.782,47.359,50.65,46.445,52.736,46.445z"/>
	<path style="fill:#26B4E6;" d="M78.706,39.244L59.123,50.55l-1.974,1.14c-0.548-1.932-2.308-3.359-4.413-3.359
		c-2.105,0-3.865,1.428-4.413,3.36l-1.974-1.14L26.766,39.244c-0.733-0.426-1.681-0.174-2.108,0.565
		c-0.427,0.738-0.174,1.683,0.565,2.108l26.741,15.439c0.238,0.138,0.505,0.207,0.771,0.207s0.533-0.069,0.771-0.207l26.741-15.439
		c0.739-0.426,0.992-1.37,0.565-2.108C80.388,39.07,79.44,38.818,78.706,39.244z"/>
	<path style="fill:#F0AE00;" d="M26.257,20.927l-1.046-2.577c-0.136-0.334-0.098-0.713,0.1-1.015l1.53-2.323
		c0.499-0.758-0.087-1.76-0.993-1.695l-2.774,0.199c-0.36,0.026-0.709-0.127-0.934-0.409l-1.736-2.173
		c-0.567-0.709-1.701-0.461-1.919,0.421l-0.668,2.7c-0.087,0.35-0.34,0.635-0.677,0.762l-2.603,0.98
		c-0.85,0.32-0.964,1.475-0.193,1.955l2.361,1.47c0.306,0.191,0.499,0.52,0.515,0.88l0.128,2.778c0.042,0.907,1.105,1.373,1.8,0.788
		l2.128-1.791c0.276-0.232,0.648-0.314,0.996-0.218l2.682,0.737C25.827,22.637,26.599,21.769,26.257,20.927z"/>
	<path style="fill:#F0AE00;" d="M90.937,16.126l-2.603-0.98c-0.337-0.127-0.591-0.412-0.677-0.762l-0.668-2.7
		c-0.218-0.881-1.352-1.13-1.919-0.421l-1.736,2.173c-0.225,0.282-0.574,0.434-0.934,0.409l-2.774-0.199
		c-0.906-0.065-1.493,0.937-0.993,1.695l1.53,2.323c0.198,0.301,0.236,0.68,0.1,1.015l-1.046,2.577
		c-0.342,0.841,0.43,1.709,1.305,1.468l2.682-0.737c0.348-0.096,0.72-0.014,0.996,0.218l2.128,1.791
		c0.695,0.585,1.758,0.119,1.8-0.788l0.128-2.778c0.017-0.36,0.209-0.689,0.515-0.88l2.361-1.47
		C91.901,17.602,91.787,16.446,90.937,16.126z"/>
	<polygon style="fill:#F0AE00;" points="66.205,12.591 59.472,22.019 52.739,12.591 46.004,22.019 39.268,12.591 39.268,32.024 
		66.205,32.024 	"/>
</g>
</svg>
