<?xml version="1.0" encoding="iso-8859-1"?>
<!-- Generator: Adobe Illustrator 22.1.0, SVG Export Plug-In . SVG Version: 6.00 Build 0)  -->
<svg version="1.1" id="Warstwa_1" xmlns="http://www.w3.org/2000/svg" xmlns:xlink="http://www.w3.org/1999/xlink" x="0px" y="0px"
	 viewBox="0 0 105.477 94.042" style="enable-background:new 0 0 105.477 94.042;" xml:space="preserve">
<g>
	<path style="fill:#5D2F88;" d="M52.736,92.494c-3.117,0-5.909-1.612-7.468-4.311L2.715,14.478
		c-1.559-2.699-1.559-5.923-0.001-8.622c1.559-2.699,4.351-4.311,7.468-4.311h85.107c3.117,0,5.909,1.612,7.468,4.311
		c1.558,2.699,1.558,5.923-0.001,8.622L60.204,88.183C58.645,90.882,55.854,92.494,52.736,92.494"/>
	<path style="fill:#382259;" d="M95.29,3.088c5.449,0,8.855,5.899,6.131,10.618L58.867,87.411c-1.362,2.359-3.746,3.539-6.131,3.539
		s-4.768-1.18-6.131-3.539L4.052,13.706C1.328,8.987,4.734,3.088,10.183,3.088H95.29 M95.29,0H10.183C6.507,0,3.216,1.9,1.378,5.083
		c-1.838,3.184-1.838,6.984,0,10.167l42.553,73.705c1.837,3.183,5.129,5.083,8.805,5.083c3.675,0,6.967-1.9,8.805-5.083
		l42.553-73.705c1.838-3.183,1.838-6.983,0-10.167C102.256,1.9,98.965,0,95.29,0"/>
</g>
<g>
	<path style="fill:none;" d="M47.003,40.376c-3.058,0-5.791-1.362-7.646-3.505c-4.705,5.818-6.226,10.583-4.879,12.178
		c1.004,1.19,3.942,1.062,7.674-0.332c4.381-1.638,9.437-4.771,14.237-8.825c1.54-1.301,2.924-2.592,4.185-3.861
		c-0.27-0.563-0.435-1.186-0.435-1.852c0-2.373,1.922-4.295,4.294-4.295c0.436,0,0.848,0.084,1.245,0.205
		c3.546-4.933,4.606-8.847,3.41-10.264c-0.457-0.541-1.315-0.81-2.468-0.81c-1.378,0-3.175,0.384-5.206,1.143
		c-2.148,0.802-4.459,1.969-6.822,3.423c1.569,1.782,2.529,4.115,2.529,6.677C57.122,35.846,52.592,40.376,47.003,40.376z"/>
	<path style="fill:#FFFFFF;" d="M60.575,36.03c-1.262,1.269-2.645,2.56-4.185,3.861c-4.801,4.054-9.856,7.188-14.237,8.825
		c-3.731,1.394-6.67,1.522-7.674,0.332c-1.347-1.595,0.174-6.359,4.879-12.178c-0.778-0.899-1.396-1.937-1.821-3.072
		c-3.98,4.02-7.355,8.052-10.021,11.904l1.674,2.9c0.613-0.93,1.277-1.879,1.988-2.845c-0.399,2.068-0.135,3.873,1.007,5.227
		c0.83,0.983,2.272,1.889,4.769,1.889c1.607,0,3.65-0.376,6.249-1.347c4.694-1.755,10.065-5.072,15.122-9.342
		c1.524-1.287,3.003-2.657,4.397-4.07C61.777,37.703,61.02,36.957,60.575,36.03z"/>
	<path style="fill:#FFFFFF;" d="M59.643,57.846c2.384-1.718,4.785-3.582,7.177-5.601c18.873-15.938,28.919-34.034,22.869-41.199
		c-3.064-3.627-9.507-3.849-18.139-0.621c-6.111,2.284-12.89,6.101-19.613,11.002c1.005,0.563,1.9,1.295,2.655,2.153
		c2.363-1.454,4.674-2.621,6.822-3.423c2.031-0.759,3.828-1.143,5.206-1.143c1.152,0,2.011,0.269,2.468,0.81
		c1.196,1.417,0.137,5.331-3.41,10.264c0.991,0.302,1.83,0.938,2.374,1.794c4.024-5.548,5.919-10.925,3.328-13.994
		c-0.859-1.016-2.374-1.948-5.032-1.883c2.143-1.087,4.236-2.018,6.25-2.771c3.745-1.4,6.994-2.102,9.558-2.102
		c2.399,0,4.198,0.615,5.238,1.848c4.188,4.96-4.027,21.363-22.512,36.971c-2.336,1.973-4.657,3.78-6.938,5.425
		C58.679,56.061,59.263,56.9,59.643,57.846z"/>
	<path style="fill:#FFFFFF;" d="M46.67,62.404c-2.681,1.401-5.219,2.521-7.566,3.37l1.522,2.637
		c2.391-0.889,4.913-2.024,7.527-3.395C47.482,64.272,46.967,63.387,46.67,62.404z"/>
	<path style="fill:#F0AE00;" d="M65.679,30.088c-0.396-0.121-0.809-0.205-1.245-0.205c-2.373,0-4.294,1.923-4.294,4.295
		c0,0.666,0.164,1.289,0.435,1.852c0.445,0.926,1.202,1.672,2.147,2.084c0.525,0.229,1.103,0.36,1.713,0.36
		c2.373,0,4.295-1.923,4.295-4.296c0-0.847-0.253-1.631-0.676-2.296C67.509,31.026,66.67,30.39,65.679,30.088z"/>
	<path style="fill:#AFCA0B;" d="M53.255,67.29c3.802,0,6.884-3.082,6.884-6.884c0-0.906-0.179-1.768-0.497-2.56
		c-0.379-0.946-0.963-1.785-1.696-2.469c-1.23-1.148-2.876-1.855-4.691-1.855c-3.802,0-6.882,3.082-6.882,6.884
		c0,0.695,0.105,1.365,0.297,1.998c0.298,0.983,0.812,1.868,1.483,2.611C49.412,66.409,51.228,67.29,53.255,67.29z"/>
	<path style="fill:#26B4E6;" d="M39.357,36.871c1.855,2.143,4.588,3.505,7.646,3.505c5.589,0,10.119-4.53,10.119-10.119
		c0-2.562-0.959-4.894-2.529-6.677c-0.756-0.859-1.65-1.59-2.655-2.153c-1.461-0.818-3.142-1.289-4.935-1.289
		c-5.589,0-10.116,4.53-10.116,10.119c0,1.248,0.237,2.438,0.649,3.542C37.961,34.934,38.579,35.972,39.357,36.871z"/>
	<path style="fill:#FFFFFF;" d="M28.54,15.862c1.49-1.306,2.996-2.606,4.523-3.896c1.605-1.355,3.218-2.683,4.834-3.995h-4.718
		c-0.684,0.568-1.37,1.126-2.051,1.702c-1.391,1.174-2.765,2.357-4.125,3.545C27.794,13.918,28.338,14.844,28.54,15.862z"/>
	<path style="fill:#FFFFFF;" d="M16.636,26.859c1.895-1.847,3.842-3.681,5.818-5.508c-0.15-0.046-0.301-0.074-0.449-0.135
		c-0.857-0.356-1.545-0.94-2.047-1.643c-1.648,1.53-3.275,3.065-4.867,4.61L16.636,26.859z"/>
	<path style="fill:#382259;" d="M22.006,21.216c0.148,0.061,0.299,0.09,0.449,0.135c2.33,0.709,4.859-0.427,5.812-2.724
		c0.377-0.909,0.452-1.868,0.273-2.766c-0.202-1.018-0.746-1.943-1.538-2.644c-0.387-0.342-0.82-0.642-1.324-0.851
		c-2.444-1.014-5.245,0.145-6.259,2.589c-0.658,1.586-0.39,3.316,0.539,4.617C20.461,20.277,21.149,20.861,22.006,21.216z"/>
</g>
</svg>
