<?xml version="1.0" encoding="iso-8859-1"?>
<!-- Generator: Adobe Illustrator 22.1.0, SVG Export Plug-In . SVG Version: 6.00 Build 0)  -->
<svg version="1.1" id="Warstwa_1" xmlns="http://www.w3.org/2000/svg" x="0px" y="0px"
	 viewBox="0 0 105.477 94.042" style="enable-background:new 0 0 105.477 94.042;" xml:space="preserve">
<g>
	<g>
		<path style="fill:#5D2F88;" d="M52.738,92.496c-3.117,0-5.909-1.612-7.468-4.311L2.718,14.48
			c-1.559-2.699-1.559-5.923-0.001-8.622c1.559-2.699,4.351-4.311,7.468-4.311h85.107c3.117,0,5.909,1.612,7.468,4.311
			c1.558,2.699,1.558,5.923-0.001,8.622L60.206,88.185C58.647,90.884,55.856,92.496,52.738,92.496"/>
		<path style="fill:#382259;" d="M95.292,3.09c5.449,0,8.855,5.899,6.131,10.618L58.869,87.413
			c-1.362,2.359-3.746,3.539-6.131,3.539c-2.384,0-4.768-1.18-6.131-3.539L4.055,13.708C1.33,8.989,4.736,3.09,10.185,3.09H95.292
			 M95.292,0.002H10.185c-3.676,0-6.967,1.9-8.805,5.083c-1.838,3.184-1.838,6.984,0,10.167l42.553,73.705
			c1.837,3.183,5.129,5.083,8.805,5.083c3.675,0,6.967-1.9,8.805-5.083l42.553-73.705c1.838-3.183,1.838-6.983,0-10.167
			C102.259,1.902,98.968,0.002,95.292,0.002"/>
	</g>
	<g>
		<path style="fill:#AFCA0B;" d="M71.467,19.448c-0.212,0.093-0.401,0.233-0.575,0.401c-3.876-5.911-10.556-9.819-18.153-9.819
			s-14.277,3.907-18.153,9.819c-0.175-0.168-0.364-0.308-0.576-0.401c-14.609-6.43-21.397,0-21.397,0s11.944,6.31,11.944,10.244
			c0,2.722,3.37,6.243,7.035,6.883c2.203,9.648,10.831,16.849,21.146,16.849s18.943-7.201,21.146-16.849
			c3.665-0.639,7.035-4.161,7.035-6.883c0-3.934,11.944-10.244,11.944-10.244S86.077,13.018,71.467,19.448z M42.566,35.251
			c-1.79,0-3.241-1.451-3.241-3.242c0-1.79,1.451-3.242,3.241-3.242c1.791,0,3.242,1.452,3.242,3.242
			C45.809,33.8,44.357,35.251,42.566,35.251z M59.376,44.816c-0.11,0.065-2.743,1.596-6.638,1.596c-4.114,0-6.584-1.559-6.687-1.625
			c-0.697-0.449-0.898-1.377-0.45-2.073c0.448-0.694,1.372-0.893,2.064-0.456c0.047,0.029,1.919,1.154,5.072,1.154
			c3.034,0,5.091-1.166,5.11-1.178c0.713-0.42,1.633-0.186,2.055,0.527S60.089,44.394,59.376,44.816z M62.91,35.251
			c-1.79,0-3.241-1.451-3.241-3.242c0-1.79,1.452-3.242,3.241-3.242c1.791,0,3.242,1.452,3.242,3.242
			C66.152,33.8,64.701,35.251,62.91,35.251z"/>
	</g>
	<path style="fill:#F0AE00;" d="M70.273,59.186c0,0-7.363-2.524-17.469-2.524c-10.237,0-17.469,2.524-17.469,2.524l13.178,22.882
		c1.878,3.253,6.574,3.253,8.452,0L70.273,59.186z"/>
	<path style="fill:#EF7D00;" d="M62.976,58.729c0,5.618-10.172,11.856-10.172,11.856s-10.172-6.238-10.172-11.856
		c0-2.019,4.554-3.144,10.172-3.144S62.976,56.658,62.976,58.729z"/>
</g>
</svg>
