<?xml version="1.0" encoding="iso-8859-1"?>
<!-- Generator: Adobe Illustrator 22.1.0, SVG Export Plug-In . SVG Version: 6.00 Build 0)  -->
<svg version="1.1" id="Warstwa_1" xmlns="http://www.w3.org/2000/svg" xmlns:xlink="http://www.w3.org/1999/xlink" x="0px" y="0px"
	 viewBox="0 0 105.477 94.042" style="enable-background:new 0 0 105.477 94.042;" xml:space="preserve">
<g>
	<path style="fill:#5D2F88;" d="M52.736,92.494c-3.117,0-5.909-1.612-7.468-4.311L2.715,14.478
		c-1.559-2.699-1.559-5.923-0.001-8.622c1.559-2.699,4.351-4.311,7.468-4.311h85.107c3.117,0,5.909,1.612,7.468,4.311
		c1.558,2.699,1.558,5.923-0.001,8.622L60.204,88.183C58.645,90.882,55.854,92.494,52.736,92.494"/>
	<path style="fill:#382259;" d="M95.29,3.088c5.449,0,8.855,5.899,6.131,10.618L58.867,87.411c-1.362,2.359-3.746,3.539-6.131,3.539
		s-4.768-1.18-6.131-3.539L4.052,13.706C1.328,8.987,4.734,3.088,10.183,3.088H95.29 M95.29,0H10.183C6.507,0,3.216,1.9,1.378,5.083
		c-1.838,3.184-1.838,6.984,0,10.167l42.553,73.705c1.837,3.183,5.129,5.083,8.805,5.083c3.675,0,6.967-1.9,8.805-5.083
		l42.553-73.705c1.838-3.183,1.838-6.983,0-10.167C102.256,1.9,98.965,0,95.29,0"/>
</g>
<g>
	<path style="fill:#F0AE00;" d="M52.736,54.938c-6.254,0-12.057,1.925-16.855,5.21l12.607,21.836
		c0.887,1.536,2.475,2.453,4.248,2.453c1.774,0,3.362-0.917,4.248-2.453l12.607-21.836C64.793,56.863,58.99,54.938,52.736,54.938z"
		/>
	<path style="fill:#EF7D00;" d="M56.059,19.13l-3.467,0.77c0,0,3.943,5.085-1.092,16.546c-5.035,11.461-7.524,17.382-6.083,23.606
		c1.5,6.478,13.9,3.311,12.055-2.87c-1.104-3.699-2.892-7.042,0.695-21.236C61.667,22.095,56.059,19.13,56.059,19.13z"/>
	<path style="fill:#AFCA0B;" d="M70.853,15.072c-5.498-1.742-9.336-0.344-11.785,1.452c5.58-4.931,11.855-5.302,11.855-5.302
		c-3.008-3.811-6.981-4.298-9.388-3.834c-4.201,0.809-5.34,3.872-5.674,6.886c-0.653-6.667-7.026-6.184-9.087-6.063
		c-4.856,0.284-6.554,2.952-6.554,2.952c6.564,0.192,10.526,2.883,12.791,5.307c-0.851-0.504-1.885-0.99-3.17-1.41
		c-5.138-1.679-10.3,0.512-13.285,4.192c-3.478,4.288-1.831,10.451-1.831,10.451s5.859-9.329,11.661-9.899
		c-4.76,1.81-6.689,6.627-6.407,10.455c0.354,4.8,4.017,7.356,4.017,7.356s-0.591-2.362,2.716-9.211
		c2.69-5.572,7.567-7.392,9.293-7.878c11.145,4.445,12.529,17.751,12.529,17.751c0.838-0.807,3.059-4.182,3.545-6.073
		c1.673-6.509-0.875-10.079-3.868-11.629c4.832,1.7,8.678,5.584,8.678,5.584C78.618,16.792,70.853,15.072,70.853,15.072z"/>
</g>
</svg>
