<?xml version="1.0" encoding="iso-8859-1"?>
<!-- Generator: Adobe Illustrator 22.1.0, SVG Export Plug-In . SVG Version: 6.00 Build 0)  -->
<svg version="1.1" id="Warstwa_1" xmlns="http://www.w3.org/2000/svg" xmlns:xlink="http://www.w3.org/1999/xlink" x="0px" y="0px"
	 viewBox="0 0 105.477 94.042" style="enable-background:new 0 0 105.477 94.042;" xml:space="preserve">
<path style="fill:#5D2F88;" d="M53.148,92.493c-3.117,0-5.909-1.612-7.468-4.311L3.127,14.478c-1.559-2.699-1.559-5.923-0.001-8.622
	c1.559-2.699,4.351-4.311,7.468-4.311h85.106c3.117,0,5.909,1.612,7.468,4.311c1.558,2.7,1.558,5.923,0,8.622L60.615,88.182
	C59.057,90.882,56.265,92.493,53.148,92.493"/>
<path style="fill:#382259;" d="M95.701,3.088c5.449,0,8.855,5.899,6.131,10.618L59.278,87.41c-1.362,2.359-3.746,3.539-6.131,3.539
	c-2.384,0-4.768-1.18-6.131-3.539L4.464,13.706C1.74,8.987,5.145,3.088,10.595,3.088H95.701 M95.701,0H10.595
	C6.92,0,3.628,1.9,1.79,5.083c-1.837,3.184-1.837,6.984,0,10.167l42.553,73.705c1.838,3.183,5.129,5.083,8.805,5.083
	c3.676,0,6.967-1.9,8.805-5.083l42.553-73.705c1.837-3.183,1.837-6.983,0-10.167C102.667,1.9,99.376,0,95.701,0"/>
<g>
	<path style="fill:#5D2F88;" d="M53.148,92.493c-3.117,0-5.909-1.612-7.468-4.311L3.127,14.478
		c-1.559-2.699-1.559-5.923-0.001-8.622c1.559-2.699,4.351-4.311,7.468-4.311h85.106c3.117,0,5.909,1.612,7.468,4.311
		c1.558,2.7,1.558,5.923,0,8.622L60.615,88.182C59.057,90.882,56.265,92.493,53.148,92.493"/>
	<path style="fill:#382259;" d="M95.701,3.088c5.449,0,8.855,5.899,6.131,10.618L59.278,87.41c-1.362,2.359-3.746,3.539-6.131,3.539
		c-2.384,0-4.768-1.18-6.131-3.539L4.464,13.706C1.74,8.987,5.145,3.088,10.595,3.088H95.701 M95.701,0H10.595
		C6.92,0,3.628,1.9,1.79,5.083c-1.837,3.184-1.837,6.984,0,10.167l42.553,73.705c1.838,3.183,5.129,5.083,8.805,5.083
		c3.676,0,6.967-1.9,8.805-5.083l42.553-73.705c1.837-3.183,1.837-6.983,0-10.167C102.667,1.9,99.376,0,95.701,0"/>
</g>
<g>
	<path style="fill:#F0AE00;" d="M64.278,40.834c0,5.745-5.166,10.402-11.539,10.402c-6.373,0-11.539-4.657-11.539-10.402
		s5.166-10.402,11.539-10.402C59.112,30.432,64.278,35.089,64.278,40.834"/>
	<path style="fill:#FFFFFF;" d="M39.388,65.119c-3.167-3.987-3.652-8.501-3.72-10.106c-1.352-0.211-2.214-0.741-2.562-1.582
		c-0.493-1.188,0.248-2.54,0.72-3.224c-1.231-1.87,0.973-3.591,3.06-6.004c1.273-1.471,2.71-6.132,2.71-6.132l3.315-2.026
		c0,0-0.419,1.763-0.48,2.118c-0.235,1.354-0.332,3.322,0.198,5.108c1.459,4.915,6.339,5.476,10.11,5.293
		c3.807-0.185,7.794-1.229,9.484-4.421c0.525-0.992,1.126-4.415,1.001-6.093c-0.018-0.244-0.246-1.848-0.246-1.848l2.906,1.869
		c0,0,1.463,4.637,2.71,6.131c0.285,0.343,2.769,2.693,3.19,3.606c0.389,0.841,0.341,1.66-0.132,2.395
		c0.462,0.669,1.186,1.984,0.748,3.157c-0.328,0.879-1.195,1.435-2.578,1.651c-0.006,0.001-0.012,0.001-0.018,0.002
		c-0.115,2.22-1.063,10.059-8.591,14.193c-2.113,1.16-6.285,1.701-8.474,1.701C46.178,70.908,40.706,66.778,39.388,65.119z"/>
	<path style="fill:#EF7D00;" d="M53.071,36.224c-7.206,0-13.894,3.102-13.894,3.102s1.039-4.739,1.262-5.561
		c2.387-8.724,10.875-24.347,10.957-24.493c0.076-0.133,0.574-0.701,0.969-0.869c0.257-0.111,0.533-0.169,0.818-0.169
		c0.495,0,0.975,0.179,1.352,0.504c7.75,6.704,11.772,30.587,11.772,30.587S57.304,36.224,53.071,36.224z"/>
	<path style="fill:#5D2F88;" d="M50.195,41.042c0,1.566-1.269,2.835-2.835,2.835c-1.565,0-2.835-1.269-2.835-2.835
		c0-1.565,1.27-2.835,2.835-2.835C48.926,38.208,50.195,39.478,50.195,41.042"/>
	<path style="fill:#5D2F88;" d="M60.951,41.042c0,1.566-1.269,2.835-2.835,2.835c-1.565,0-2.835-1.269-2.835-2.835
		c0-1.565,1.27-2.835,2.835-2.835C59.682,38.208,60.951,39.478,60.951,41.042"/>
	<g>
		<path style="fill:#FFFFFF;" d="M61.218,45.143c-0.117,0-0.25,0.022-0.403,0.071c-1.181,0.377-2.134,1.061-3.422,1.247
			c-0.229,0.033-0.477,0.047-0.735,0.047c-1.757,0-3.996-0.665-4.023-0.666c-0.027,0.001-2.265,0.666-4.023,0.666
			c-0.258,0-0.506-0.014-0.735-0.047c-1.288-0.185-2.24-0.869-3.422-1.247c-0.152-0.049-0.286-0.071-0.403-0.071
			c-0.615,0-0.767,0.615-0.74,1.247c0.046,1.087,0.619,2.071,1.357,2.84c1.202,1.254,2.588,1.871,3.961,1.871
			c1.418,0,2.824-0.657,4.004-1.95c1.18,1.292,2.586,1.95,4.004,1.95c1.374,0,2.759-0.617,3.961-1.871
			c0.738-0.77,1.311-1.753,1.357-2.84C61.985,45.758,61.832,45.143,61.218,45.143z"/>
		<path style="fill:#5D2F88;" d="M42.701,43.501c0,0-0.398,0.27-0.567,0.447c-0.588,0.613-0.863,1.464-0.818,2.527
			c0.062,1.469,0.723,2.9,1.911,4.14c1.56,1.627,3.429,2.487,5.405,2.487c1.403,0,2.779-0.454,4.004-1.302
			c1.225,0.849,2.601,1.302,4.004,1.302c1.976,0,3.845-0.86,5.405-2.487c1.188-1.24,1.849-2.671,1.912-4.14
			c0.056-1.325-0.414-2.105-0.818-2.527c-0.191-0.2-0.648-0.492-0.648-0.492c-0.395,1.129-1.272,1.687-1.272,1.687
			c0.614,0,0.767,0.615,0.74,1.247c-0.046,1.087-0.619,2.071-1.357,2.84c-1.203,1.254-2.587,1.871-3.961,1.871
			c-1.418,0-2.824-0.657-4.004-1.95c-1.18,1.293-2.586,1.95-4.004,1.95c-1.374,0-2.759-0.617-3.961-1.871
			c-0.738-0.77-1.311-1.753-1.357-2.84c-0.018-0.422,0.044-0.836,0.27-1.065c0.113-0.114,0.266-0.182,0.471-0.182
			C44.054,45.143,43.22,44.835,42.701,43.501z"/>
	</g>
</g>
</svg>
