<?xml version="1.0" encoding="iso-8859-1"?>
<!-- Generator: Adobe Illustrator 22.1.0, SVG Export Plug-In . SVG Version: 6.00 Build 0)  -->
<svg version="1.1" id="Warstwa_1" xmlns="http://www.w3.org/2000/svg" xmlns:xlink="http://www.w3.org/1999/xlink" x="0px" y="0px"
	 viewBox="0 0 105.477 94.042" style="enable-background:new 0 0 105.477 94.042;" xml:space="preserve">
<g>
	<path style="fill:#5D2F88;" d="M52.736,92.494c-3.117,0-5.909-1.612-7.468-4.311L2.715,14.478
		c-1.559-2.699-1.559-5.923-0.001-8.622c1.559-2.699,4.351-4.311,7.468-4.311h85.107c3.117,0,5.909,1.612,7.468,4.311
		c1.558,2.699,1.558,5.923-0.001,8.622L60.204,88.183C58.645,90.882,55.854,92.494,52.736,92.494"/>
	<path style="fill:#382259;" d="M95.29,3.088c5.449,0,8.855,5.899,6.131,10.618L58.867,87.411c-1.362,2.359-3.746,3.539-6.131,3.539
		s-4.768-1.18-6.131-3.539L4.052,13.706C1.328,8.987,4.734,3.088,10.183,3.088H95.29 M95.29,0H10.183C6.507,0,3.216,1.9,1.378,5.083
		c-1.838,3.184-1.838,6.984,0,10.167l42.553,73.705c1.837,3.183,5.129,5.083,8.805,5.083c3.675,0,6.967-1.9,8.805-5.083
		l42.553-73.705c1.838-3.183,1.838-6.983,0-10.167C102.256,1.9,98.965,0,95.29,0"/>
</g>
<g>
	<g>
		<path style="fill:#F0AE00;" d="M63.965,57.731c0.7-0.441,1.626-0.233,2.069,0.468l2.459,3.896l4.198-7.272l-10.622-8.392
			c-1.273,1.42-2.741,2.655-4.382,3.651c-2.866,1.74-6.013,2.629-9.169,2.629c-1.568,0-3.139-0.219-4.679-0.663
			c-0.796-0.229-1.256-1.061-1.026-1.857s1.061-1.257,1.856-1.026c3.827,1.103,7.895,0.519,11.461-1.648
			c1.06-0.644,2.033-1.41,2.917-2.27c2.747-2.292,4.909-5.463,6.005-9.266c1.368-4.747,0.833-9.556-1.138-13.493
			c0,0-4.866,1.471-6.273,1.178c-0.35-0.073-0.661-0.326-0.917-0.684c-0.309-1.097-0.564-1.976-0.723-2.503
			c-0.687-2.274-6.113-3.426-10.519-3.925c0.718-0.892,1.146-1.986,1.146-3.172c0-2.988-2.683-5.41-5.993-5.41
			s-5.993,2.422-5.993,5.41c0,1.826,1.005,3.438,2.541,4.417c-2.007,1.415-4.258,3.576-5.991,5.614
			c-1.237-2.531-3.811-3.942-6.159-3.216c-2.65,0.82-4.005,4.048-3.027,7.21c0.953,3.08,3.767,4.954,6.361,4.292
			c0.961,5.307,5.52,10.332,6.95,15.365l-4.547,4.271L48.51,82.067c1.878,3.253,6.574,3.253,8.452,0l9.836-17.036L63.497,59.8
			C63.054,59.099,63.264,58.173,63.965,57.731z M47.032,28.867c0-1.79,1.452-3.242,3.241-3.242c1.791,0,3.242,1.452,3.242,3.242
			c0,1.791-1.452,3.242-3.242,3.242C48.483,32.109,47.032,30.657,47.032,28.867z"/>
	</g>
	<g>
		<g>
			<path style="fill:#382259;" d="M65.728,28.867c0,0-5.969-0.057-7.226-2.827c-0.321-0.708,0.084-1.391,0.701-1.865
				c0.437-0.336,3.5-2.102,4.437-2.102C65.329,22.072,65.728,28.867,65.728,28.867z"/>
		</g>
	</g>
</g>
</svg>
