<?xml version="1.0" encoding="iso-8859-1"?>
<!-- Generator: Adobe Illustrator 22.1.0, SVG Export Plug-In . SVG Version: 6.00 Build 0)  -->
<svg version="1.1" id="Warstwa_1" xmlns="http://www.w3.org/2000/svg" x="0px" y="0px"
	 viewBox="0 0 105.477 94.042" style="enable-background:new 0 0 105.477 94.042;" xml:space="preserve">
<g>
	<path style="fill:#5D2F88;" d="M52.736,92.494c-3.117,0-5.909-1.612-7.468-4.311L2.715,14.478
		c-1.559-2.699-1.559-5.923-0.001-8.622c1.559-2.699,4.351-4.311,7.468-4.311h85.107c3.117,0,5.909,1.612,7.468,4.311
		c1.558,2.699,1.558,5.923-0.001,8.622L60.204,88.183C58.645,90.882,55.854,92.494,52.736,92.494"/>
	<path style="fill:#382259;" d="M95.29,3.088c5.449,0,8.855,5.899,6.131,10.618L58.867,87.411c-1.362,2.359-3.746,3.539-6.131,3.539
		s-4.768-1.18-6.131-3.539L4.052,13.706C1.328,8.987,4.734,3.088,10.183,3.088H95.29 M95.29,0H10.183C6.507,0,3.216,1.9,1.378,5.083
		c-1.838,3.184-1.838,6.984,0,10.167l42.553,73.705c1.837,3.183,5.129,5.083,8.805,5.083c3.675,0,6.967-1.9,8.805-5.083
		l42.553-73.705c1.838-3.183,1.838-6.983,0-10.167C102.256,1.9,98.965,0,95.29,0"/>
</g>
<g>
	<path style="fill:#FFFFFF;" d="M50.547,7.971L47.87,14.58c1.884,0.146,3.676,0.679,5.287,1.567L50.547,7.971z"/>
	<path style="fill:#FFFFFF;" d="M64.304,34.467c-0.021-0.014-1.033-0.798-1.596-1.422c-1.196-1.896-7.083-10.557-7.79-11.493
		c-1.847-2.449-4.78-4.032-8.084-4.032c-0.552,0-1.071,0.058-1.573,0.145l-3.927-9.693l-2.772,15.063
		c-0.757,1.391-1.363,2.958-1.847,4.604c-0.943,3.205-4.432,14.903-5.892,23.796L48.51,82.067c0.939,1.627,2.583,2.44,4.226,2.44
		c1.643,0,3.287-0.813,4.226-2.44c0,0,8.828-15.111,8.826-15.139c-0.25-3.55-1.276-6.839-2.865-9.663
		c-1.656,0.424-3.382,0.674-5.168,0.674c-11.521,0-20.893-9.372-20.893-20.892c0-0.829,0.672-1.5,1.5-1.5s1.5,0.671,1.5,1.5
		c0,9.866,8.026,17.892,17.893,17.892c5.105,0,9.707-2.161,12.969-5.603c1.202-1.563,1.926-3.511,1.926-5.636
		c0-3.533-1.975-6.604-4.881-8.171C66.719,34.961,65.548,34.591,64.304,34.467z"/>
	<path style="fill:#26B4E6;" d="M54.791,34.848c0-1.849-1.5-3.35-3.35-3.35c-1.849,0-3.349,1.5-3.349,3.35
		c0,1.85,1.5,3.35,3.349,3.35C53.292,38.198,54.791,36.698,54.791,34.848z"/>
	<path style="fill:#26B4E6;" d="M56.113,32.254c0,1.85,1.5,3.35,3.349,3.35c1.576,0,2.889-1.092,3.246-2.558
		c0.062-0.255,0.104-0.517,0.104-0.791c0-1.796-1.418-3.251-3.194-3.334c-0.053-0.002-0.103-0.016-0.156-0.016
		C57.613,28.904,56.113,30.405,56.113,32.254z"/>
</g>
</svg>
