<?xml version="1.0" encoding="iso-8859-1"?>
<!-- Generator: Adobe Illustrator 22.1.0, SVG Export Plug-In . SVG Version: 6.00 Build 0)  -->
<svg version="1.1" id="Warstwa_1" xmlns="http://www.w3.org/2000/svg" xmlns:xlink="http://www.w3.org/1999/xlink" x="0px" y="0px"
	 viewBox="0 0 105.477 94.042" style="enable-background:new 0 0 105.477 94.042;" xml:space="preserve">
<g>
	<path style="fill:#5D2F88;" d="M52.736,92.494c-3.117,0-5.909-1.612-7.468-4.311L2.715,14.478
		c-1.559-2.699-1.559-5.923-0.001-8.622c1.559-2.699,4.351-4.311,7.468-4.311h85.107c3.117,0,5.909,1.612,7.468,4.311
		c1.558,2.699,1.558,5.923-0.001,8.622L60.204,88.183C58.645,90.882,55.854,92.494,52.736,92.494"/>
	<path style="fill:#382259;" d="M95.29,3.088c5.449,0,8.855,5.899,6.131,10.618L58.867,87.411c-1.362,2.359-3.746,3.539-6.131,3.539
		s-4.768-1.18-6.131-3.539L4.052,13.706C1.328,8.987,4.734,3.088,10.183,3.088H95.29 M95.29,0H10.183C6.507,0,3.216,1.9,1.378,5.083
		c-1.838,3.184-1.838,6.984,0,10.167l42.553,73.705c1.837,3.183,5.129,5.083,8.805,5.083c3.675,0,6.967-1.9,8.805-5.083
		l42.553-73.705c1.838-3.183,1.838-6.983,0-10.167C102.256,1.9,98.965,0,95.29,0"/>
</g>
<path style="fill:#382259;" d="M65.234,41.4l-6.009-17.105c-0.506-1.51,0.216-3.385,1.604-4.169l4.184-2.356
	c1.386-0.783,2.517,0.021,3.427,1.327c1.966,2.823,4.825,6.673,4.825,6.673c1.077-0.95,3.878-6.875-1.36-12.996l-4.487-4.07
	c-1.18-1.069-3.283-1.31-4.673-0.537l-15.567,8.672c-1.392,0.776-2.716,2.698-2.944,4.273L40.82,41.238
	c-7.15,1.964-11.966,5.379-11.966,8.009c0,4.885,10.692,0.543,23.881,0.543h0.001c13.189,0,23.882,4.342,23.882-0.543
	C76.618,46.688,72.063,43.386,65.234,41.4z"/>
<path style="fill:#F0AE00;" d="M61.431,71.076L36.047,32.931l2.789-0.288c1.212-0.125,1.754-1.585,0.918-2.47l-2.561-2.713
	c-0.332-0.352-0.47-0.844-0.368-1.317l0.783-3.648c0.256-1.191-0.965-2.158-2.066-1.636l-3.372,1.597
	c-0.437,0.207-0.948,0.186-1.366-0.057l-3.227-1.872c-1.054-0.611-2.351,0.251-2.195,1.459l0.477,3.7
	c0.062,0.48-0.116,0.959-0.476,1.282l-2.777,2.491c-0.907,0.813-0.487,2.313,0.71,2.538l3.667,0.689
	c0.475,0.089,0.876,0.407,1.072,0.849l1.511,3.411c0.493,1.114,2.049,1.178,2.633,0.11l1.349-2.469l25.387,38.15
	c0.289,0.435,0.766,0.669,1.25,0.669c0.286,0,0.574-0.081,0.83-0.251C61.703,72.697,61.89,71.766,61.431,71.076z"/>
</svg>
