<?xml version="1.0" encoding="iso-8859-1"?>
<!-- Generator: Adobe Illustrator 22.1.0, SVG Export Plug-In . SVG Version: 6.00 Build 0)  -->
<svg version="1.1" id="Warstwa_1" xmlns="http://www.w3.org/2000/svg" xmlns:xlink="http://www.w3.org/1999/xlink" x="0px" y="0px"
	 viewBox="0 0 105.477 94.042" style="enable-background:new 0 0 105.477 94.042;" xml:space="preserve">
<g>
	<path style="fill:#5D2F88;" d="M52.736,92.494c-3.117,0-5.909-1.612-7.468-4.311L2.715,14.478
		c-1.559-2.699-1.559-5.923-0.001-8.622c1.559-2.699,4.351-4.311,7.468-4.311h85.107c3.117,0,5.909,1.612,7.468,4.311
		c1.558,2.699,1.558,5.923-0.001,8.622L60.204,88.183C58.645,90.882,55.854,92.494,52.736,92.494"/>
	<path style="fill:#382259;" d="M95.29,3.088c5.449,0,8.855,5.899,6.131,10.618L58.867,87.411c-1.362,2.359-3.746,3.539-6.131,3.539
		s-4.768-1.18-6.131-3.539L4.052,13.706C1.328,8.987,4.734,3.088,10.183,3.088H95.29 M95.29,0H10.183C6.507,0,3.216,1.9,1.378,5.083
		c-1.838,3.184-1.838,6.984,0,10.167l42.553,73.705c1.837,3.183,5.129,5.083,8.805,5.083c3.675,0,6.967-1.9,8.805-5.083
		l42.553-73.705c1.838-3.183,1.838-6.983,0-10.167C102.256,1.9,98.965,0,95.29,0"/>
</g>
<g>
	<g>
		<g>
			<path style="fill:#FFFFFF;" d="M73.463,25.292c-2.741-8.842-10.984-15.264-20.726-15.264c-9.743,0-17.985,6.422-20.726,15.264
				l-10.524-9.789l2.466,15.686c0.596,3.789,3.86,6.58,7.695,6.58H31.9c2.618,9.04,10.953,15.652,20.837,15.652
				c9.884,0,18.218-6.612,20.837-15.652h0.252c3.835,0,7.1-2.792,7.695-6.58l2.466-15.686L73.463,25.292z M42.564,35.249
				c-1.79,0-3.241-1.451-3.241-3.242c0-1.79,1.451-3.242,3.241-3.242c1.791,0,3.242,1.452,3.242,3.242
				C45.806,33.798,44.355,35.249,42.564,35.249z M62.908,35.249c-1.79,0-3.241-1.451-3.241-3.242c0-1.79,1.451-3.242,3.241-3.242
				c1.791,0,3.242,1.452,3.242,3.242C66.15,33.798,64.698,35.249,62.908,35.249z"/>
		</g>
		<g>
			<g>
				<path style="fill:#C90C0F;" d="M52.737,47.211c-3.239,0-5.875-2.636-5.875-5.875c0-0.828,0.671-1.5,1.5-1.5s1.5,0.672,1.5,1.5
					c0,1.585,1.29,2.875,2.875,2.875c1.585,0,2.874-1.29,2.874-2.875c0-0.828,0.671-1.5,1.5-1.5s1.5,0.672,1.5,1.5
					C58.611,44.575,55.976,47.211,52.737,47.211z"/>
			</g>
		</g>
		<g>
			<path style="fill:#F0AE00;" d="M52.736,10.029c-10.762,0-19.689,7.838-21.397,18.116c2.472,0.979,5.163,1.523,7.983,1.523
				c0.352,0,0.7-0.017,1.048-0.034c0.578-0.534,1.344-0.868,2.193-0.868c0.538,0,1.037,0.143,1.484,0.375
				c5.649-1.257,10.469-4.708,13.512-9.422c3.906,4.828,9.84,7.942,16.507,8.053C72.207,17.677,63.368,10.029,52.736,10.029z"/>
		</g>
	</g>
	<g>
		<path style="fill:#AFCA0B;" d="M69.672,60.052H35.8l12.71,22.014c1.878,3.253,6.574,3.253,8.452,0L69.672,60.052z"/>
	</g>
</g>
</svg>
