<?xml version="1.0" encoding="iso-8859-1"?>
<!-- Generator: Adobe Illustrator 22.1.0, SVG Export Plug-In . SVG Version: 6.00 Build 0)  -->
<svg version="1.1" id="Warstwa_1" xmlns="http://www.w3.org/2000/svg" xmlns:xlink="http://www.w3.org/1999/xlink" x="0px" y="0px"
	 viewBox="0 0 105.477 94.042" style="enable-background:new 0 0 105.477 94.042;" xml:space="preserve">
<g>
	<path style="fill:#5D2F88;" d="M52.736,92.494c-3.117,0-5.909-1.612-7.468-4.311L2.715,14.478
		c-1.559-2.699-1.559-5.923-0.001-8.622c1.559-2.699,4.351-4.311,7.468-4.311h85.107c3.117,0,5.909,1.612,7.468,4.311
		c1.558,2.699,1.558,5.923-0.001,8.622L60.204,88.183C58.645,90.882,55.854,92.494,52.736,92.494"/>
	<path style="fill:#382259;" d="M95.29,3.088c5.449,0,8.855,5.899,6.131,10.618L58.867,87.411c-1.362,2.359-3.746,3.539-6.131,3.539
		s-4.768-1.18-6.131-3.539L4.052,13.706C1.328,8.987,4.734,3.088,10.183,3.088H95.29 M95.29,0H10.183C6.507,0,3.216,1.9,1.378,5.083
		c-1.838,3.184-1.838,6.984,0,10.167l42.553,73.705c1.837,3.183,5.129,5.083,8.805,5.083c3.675,0,6.967-1.9,8.805-5.083
		l42.553-73.705c1.838-3.183,1.838-6.983,0-10.167C102.256,1.9,98.965,0,95.29,0"/>
</g>
<g>
	<g>
		<path style="fill:#AFCA0B;" d="M10.234,13.545c0,2.432,1.971,4.403,4.403,4.403c2.43,0,4.401-1.971,4.401-4.403
			c0-2.43-1.971-4.403-4.401-4.403C12.205,9.143,10.234,11.115,10.234,13.545"/>
	</g>
	<g>
		<path style="fill:#26B4E6;" d="M28.95,17.948c0,2.432,1.971,4.403,4.403,4.403c2.43,0,4.401-1.971,4.401-4.403
			c0-2.43-1.971-4.403-4.401-4.403C30.921,13.545,28.95,15.517,28.95,17.948"/>
	</g>
	<g>
		<path style="fill:#F0AE00;" d="M19.038,27.975c0,2.432,1.971,4.403,4.403,4.403c2.43,0,4.401-1.971,4.401-4.403
			c0-2.43-1.971-4.403-4.401-4.403C21.009,23.573,19.038,25.545,19.038,27.975"/>
	</g>
	<g>
		<path style="fill:#AFCA0B;" d="M33.352,40.496c0,2.432,1.971,4.403,4.403,4.403c2.43,0,4.401-1.971,4.401-4.403
			c0-2.43-1.971-4.403-4.401-4.403C35.323,36.093,33.352,38.065,33.352,40.496"/>
	</g>
	<g>
		<path style="fill:#26B4E6;" d="M39.114,56.41c0,2.432,1.971,4.403,4.403,4.403c2.43,0,4.401-1.971,4.401-4.403
			c0-2.43-1.971-4.403-4.401-4.403C41.085,52.007,39.114,53.979,39.114,56.41"/>
	</g>
	<g>
		<path style="fill:#26B4E6;" d="M84.977,13.41c0,2.432,1.971,4.403,4.403,4.403c2.43,0,4.401-1.971,4.401-4.403
			c0-2.43-1.971-4.403-4.401-4.403C86.948,9.007,84.977,10.979,84.977,13.41"/>
	</g>
	<g>
		<path style="fill:#F0AE00;" d="M44.916,72.324c0,2.432,1.971,4.403,4.403,4.403c2.43,0,4.401-1.971,4.401-4.403
			c0-2.43-1.971-4.403-4.401-4.403C46.886,67.922,44.916,69.894,44.916,72.324"/>
	</g>
	<g>
		<path style="fill:#AFCA0B;" d="M55.834,61.187c0,2.432,1.971,4.403,4.403,4.403c2.43,0,4.401-1.971,4.401-4.403
			c0-2.43-1.971-4.403-4.401-4.403C57.805,56.785,55.834,58.757,55.834,61.187"/>
	</g>
	<g>
		<path style="fill:#F0AE00;" d="M63.52,13.982c-7.88,0-14.291,6.411-14.291,14.291S55.64,42.564,63.52,42.564
			s14.291-6.411,14.291-14.291S71.4,13.982,63.52,13.982z M58.392,36.688c-1.79,0-3.241-1.451-3.241-3.242
			c0-1.79,1.451-3.242,3.241-3.242c1.791,0,3.242,1.452,3.242,3.242C61.635,35.237,60.183,36.688,58.392,36.688z M58.392,26.343
			c-1.79,0-3.241-1.451-3.241-3.242c0-1.79,1.451-3.242,3.241-3.242c1.791,0,3.242,1.452,3.242,3.242
			C61.635,24.891,60.183,26.343,58.392,26.343z M68.647,36.688c-1.79,0-3.241-1.451-3.241-3.242c0-1.79,1.452-3.242,3.241-3.242
			c1.791,0,3.242,1.452,3.242,3.242C71.889,35.237,70.438,36.688,68.647,36.688z M68.647,26.343c-1.79,0-3.241-1.451-3.241-3.242
			c0-1.79,1.452-3.242,3.241-3.242c1.791,0,3.242,1.452,3.242,3.242C71.889,24.891,70.438,26.343,68.647,26.343z"/>
		<path style="fill:#F0AE00;" d="M63.52,8.269c-11.048,0-20.004,8.956-20.004,20.004c0,11.048,8.956,20.004,20.004,20.004
			s20.004-8.956,20.004-20.004C83.524,17.225,74.568,8.269,63.52,8.269z M63.52,45.164c-9.313,0-16.891-7.577-16.891-16.891
			s7.577-16.891,16.891-16.891s16.891,7.577,16.891,16.891S72.834,45.164,63.52,45.164z"/>
	</g>
</g>
</svg>
