<?xml version="1.0" encoding="iso-8859-1"?>
<!-- Generator: Adobe Illustrator 22.1.0, SVG Export Plug-In . SVG Version: 6.00 Build 0)  -->
<svg version="1.1" id="Warstwa_1" xmlns="http://www.w3.org/2000/svg" xmlns:xlink="http://www.w3.org/1999/xlink" x="0px" y="0px"
	 viewBox="0 0 105.477 94.042" style="enable-background:new 0 0 105.477 94.042;" xml:space="preserve">
<g>
	<path style="fill:#5D2F88;" d="M52.736,92.494c-3.117,0-5.909-1.612-7.468-4.311L2.715,14.478
		c-1.559-2.699-1.559-5.923-0.001-8.622c1.559-2.699,4.351-4.311,7.468-4.311h85.107c3.117,0,5.909,1.612,7.468,4.311
		c1.558,2.699,1.558,5.923-0.001,8.622L60.204,88.183C58.645,90.882,55.854,92.494,52.736,92.494"/>
	<path style="fill:#382259;" d="M95.29,3.088c5.449,0,8.855,5.899,6.131,10.618L58.867,87.411c-1.362,2.359-3.746,3.539-6.131,3.539
		s-4.768-1.18-6.131-3.539L4.052,13.706C1.328,8.987,4.734,3.088,10.183,3.088H95.29 M95.29,0H10.183C6.507,0,3.216,1.9,1.378,5.083
		c-1.838,3.184-1.838,6.984,0,10.167l42.553,73.705c1.837,3.183,5.129,5.083,8.805,5.083c3.675,0,6.967-1.9,8.805-5.083
		l42.553-73.705c1.838-3.183,1.838-6.983,0-10.167C102.256,1.9,98.965,0,95.29,0"/>
</g>
<g>
	<path style="fill:#FFFFFF;" d="M70.035,26.585c0.022,0.429-3.699,9.198-6.238,12.251c-1.923,2.312-3.26,4.715-4.271,7.341
		c-0.634,1.645-0.548,2.322-0.548,4.25c0,1.27-2.909,2.722-4.756,3.516c0.004,0.045,0.014,0.089,0.014,0.135v3.808
		c3.519-0.686,4.806-3.639,4.82-3.673c0.319-0.764,1.198-1.124,1.963-0.803c0.765,0.321,1.124,1.2,0.803,1.964
		c-0.097,0.231-2.45,5.657-9.086,5.657c-7.205,0-9.058-5.545-9.133-5.781c-0.252-0.789,0.184-1.633,0.973-1.885
		c0.788-0.251,1.625,0.18,1.881,0.961c0.051,0.149,1.073,2.96,4.779,3.58v-3.828c0-0.046,0.01-0.09,0.014-0.135
		c-1.846-0.794-4.756-2.246-4.756-3.516c0,0,0,0,0-0.001c0-1.761-0.049-2.502-0.582-4.249c-0.773-2.541-2.05-4.913-4.271-7.341
		c-1.721-1.881-6.227-12.168-6.118-12.77c-2.725,1.279-6.403,2.224-6.403,2.224c-0.556,2.297-1.03,5.379-1.03,9.258
		c0,0,1.471-2.243,2.139-2.617c0,0-1.738,12.581,1.605,17.44c0,0,0.133-1.993,0.534-2.617c0,0,7.414,17.194,20.368,19.932
		c12.525-1.994,20.368-19.932,20.368-19.932c0.401,0.624,0.535,2.617,0.535,2.617c3.343-4.859,1.605-17.44,1.605-17.44
		c0.668,0.374,2.139,2.617,2.139,2.617c0-3.95-0.474-6.864-1.083-9.001C76.299,28.547,72.212,27.506,70.035,26.585z"/>
	<path style="fill:#FFFFFF;" d="M28.26,8.359L28.26,8.359C28.26,8.359,28.26,8.359,28.26,8.359
		c-3.12,0.919,1.392,16.703,1.392,16.703s3.445-0.874,6.85-2.895C33.752,17.405,28.26,8.359,28.26,8.359z"/>
	<path style="fill:#26B4E6;" d="M28.26,8.359L28.26,8.359c0,0,5.493,9.046,8.242,13.808c0.721,1.249,1.251,2.2,1.446,2.619
		c-0.825,0.486-1.643,0.914-2.424,1.28c-0.109,0.601-0.135,1.215-0.022,1.825c0.878,4.73,4.419,9.063,6.14,10.945
		c2.221,2.428,3.498,4.8,4.271,7.341c0.533,1.747,0.582,2.488,0.582,4.249c0.001-1.859,2.795-2.623,6.242-2.623
		c3.448,0,6.242,0.763,6.242,2.623c0-1.928-0.085-2.605,0.548-4.25c1.011-2.626,2.348-5.029,4.271-7.341
		c2.538-3.053,5.055-5.902,6.14-10.945c0.095-0.441,0.119-0.878,0.097-1.306c-1.101-0.466-2.337-1.066-3.581-1.799
		c0.195-0.419,0.725-1.37,1.446-2.619c2.749-4.762,8.242-13.808,8.242-13.808c-0.669-0.413-8.209,3.45-13.09,6.343
		c-0.995,0.59-1.878,1.138-2.571,1.603c-4.906-0.928-11.626-0.871-16.317,0.166c-0.724-0.497-1.698-1.107-2.814-1.769
		C36.469,11.809,28.929,7.946,28.26,8.359z M44.067,37.393c-1.751,0-3.17-1.42-3.17-3.171c0-1.751,1.419-3.171,3.17-3.171
		s3.171,1.42,3.171,3.171C47.238,35.973,45.818,37.393,44.067,37.393z M61.405,37.393c-1.75,0-3.17-1.42-3.17-3.171
		c0-1.751,1.42-3.171,3.17-3.171c1.751,0,3.171,1.42,3.171,3.171C64.576,35.973,63.156,37.393,61.405,37.393z"/>
	<path style="fill:#FFFFFF;" d="M67.9,22.168c3.405,2.02,6.85,2.895,6.85,2.895s4.511-15.783,1.392-16.703
		C76.142,8.359,70.649,17.405,67.9,22.168z"/>
</g>
</svg>
