<?xml version="1.0" encoding="iso-8859-1"?>
<!-- Generator: Adobe Illustrator 22.1.0, SVG Export Plug-In . SVG Version: 6.00 Build 0)  -->
<svg version="1.1" id="Warstwa_1" xmlns="http://www.w3.org/2000/svg" xmlns:xlink="http://www.w3.org/1999/xlink" x="0px" y="0px"
	 viewBox="0 0 105.477 94.042" style="enable-background:new 0 0 105.477 94.042;" xml:space="preserve">
<g>
	<path style="fill:#5D2F88;" d="M52.736,92.494c-3.117,0-5.909-1.612-7.468-4.311L2.715,14.478
		c-1.559-2.699-1.559-5.923-0.001-8.622c1.559-2.699,4.351-4.311,7.468-4.311h85.107c3.117,0,5.909,1.612,7.468,4.311
		c1.558,2.699,1.558,5.923-0.001,8.622L60.204,88.183C58.645,90.882,55.854,92.494,52.736,92.494"/>
	<path style="fill:#382259;" d="M95.29,3.088c5.449,0,8.855,5.899,6.131,10.618L58.867,87.411c-1.362,2.359-3.746,3.539-6.131,3.539
		s-4.768-1.18-6.131-3.539L4.052,13.706C1.328,8.987,4.734,3.088,10.183,3.088H95.29 M95.29,0H10.183C6.507,0,3.216,1.9,1.378,5.083
		c-1.838,3.184-1.838,6.984,0,10.167l42.553,73.705c1.837,3.183,5.129,5.083,8.805,5.083c3.675,0,6.967-1.9,8.805-5.083
		l42.553-73.705c1.838-3.183,1.838-6.983,0-10.167C102.256,1.9,98.965,0,95.29,0"/>
</g>
<g>
	<path style="fill:#EF7D00;" d="M45.376,15.633c4.693-2.003,10.028-2.003,14.72,0c0.048-0.053,0.089-0.11,0.141-0.161
		c1.677-1.648,6.049-2.447,8.704-2.728c-4.42-2.983-10.059-4.774-16.204-4.774c-6.145,0-11.784,1.791-16.204,4.774
		c2.655,0.28,7.026,1.079,8.704,2.728C45.288,15.524,45.328,15.581,45.376,15.633z"/>
	<path style="fill:#EF7D00;" d="M80.375,31.087c-0.869-6.42-3.54-10.611-5.39-12.83c-0.433,1.791-1.447,3.977-2.876,6.66
		c-0.087,0.163-0.154,0.289-0.195,0.37c-0.164,0.322-0.384,0.602-0.637,0.844c1.465,3.742,0.691,8.158-2.332,11.182l-5.332,5.332
		c0.061,0.468,0.103,0.942,0.103,1.427c0,6.064-4.915,10.979-10.979,10.979c-6.063,0-10.979-4.916-10.979-10.979
		c0-0.485,0.042-0.959,0.103-1.427l-5.333-5.332c-3.023-3.023-3.797-7.44-2.332-11.182c-0.254-0.242-0.473-0.522-0.638-0.844
		c-0.041-0.08-0.108-0.207-0.195-0.369c-1.433-2.69-2.448-4.88-2.879-6.673c-1.943,2.694-4.632,7.28-5.387,12.844l4.045-1.661h0.004
		l0.34-0.139c0,0-5.916,8.995-2.35,17.141l2.451-3.125c0,0,3.872,12.794,10.91,17.342l0.208-5.4c0,0,3.364,6.863,12.031,12.734
		c8.672-5.872,12.036-12.734,12.036-12.734l0.205,5.4c7.038-4.548,10.914-17.342,10.914-17.342l2.446,3.125
		c3.572-8.146-2.346-17.141-2.346-17.141L80.375,31.087z"/>
	<path style="fill:#F0AE00;" d="M69.586,23.274c0.982-1.848,3.389-6.487,2.398-7.431c-0.161-0.153-0.614-0.221-1.243-0.221
		c-2.06,0-5.998,0.728-7.728,1.563c-0.933-0.613-1.911-1.123-2.917-1.552c-4.693-2.003-10.027-2.003-14.72,0
		c-1.005,0.429-1.984,0.939-2.916,1.552c-1.731-0.836-5.668-1.563-7.729-1.563c-0.629,0-1.082,0.068-1.243,0.221
		c-0.992,0.944,1.416,5.583,2.398,7.431c-0.729,0.875-1.293,1.841-1.691,2.858c-1.465,3.742-0.691,8.158,2.332,11.182l5.333,5.332
		c-0.061,0.468-0.103,0.943-0.103,1.427c0,6.064,4.916,10.979,10.979,10.979c6.064,0,10.979-4.916,10.979-10.979
		c0-0.485-0.042-0.959-0.103-1.427l5.332-5.332c3.023-3.023,3.797-7.44,2.332-11.182C70.879,25.115,70.316,24.149,69.586,23.274z
		 M40.138,29.547c0-1.681,1.363-3.045,3.044-3.045c1.682,0,3.045,1.364,3.045,3.045c0,1.682-1.363,3.045-3.045,3.045
		C41.501,32.592,40.138,31.229,40.138,29.547z M60.833,45.944c-0.086,0.206-2.186,5.048-8.097,5.048
		c-6.418,0-8.074-4.961-8.142-5.172c-0.252-0.789,0.184-1.633,0.973-1.885c0.786-0.254,1.624,0.179,1.881,0.959
		c0.047,0.134,0.869,2.359,3.788,2.951v-2.938c-1.634-0.967-4.017-2.718-4.017-4.72c0-0.778,0.63-1.409,1.409-1.409s7.439,0,8.217,0
		s1.409,0.631,1.409,1.409c0,2.002-2.384,3.753-4.018,4.721v2.91c2.743-0.648,3.786-2.932,3.835-3.044
		c0.332-0.754,1.21-1.106,1.968-0.782C60.796,44.316,61.152,45.185,60.833,45.944z M62.29,32.592c-1.681,0-3.044-1.363-3.044-3.045
		c0-1.681,1.363-3.045,3.044-3.045c1.682,0,3.045,1.364,3.045,3.045C65.335,31.229,63.972,32.592,62.29,32.592z"/>
</g>
</svg>
