<?xml version="1.0" encoding="iso-8859-1"?>
<!-- Generator: Adobe Illustrator 22.1.0, SVG Export Plug-In . SVG Version: 6.00 Build 0)  -->
<svg version="1.1" id="Warstwa_1" xmlns="http://www.w3.org/2000/svg" x="0px" y="0px"
	 viewBox="0 0 105.477 94.042" style="enable-background:new 0 0 105.477 94.042;" xml:space="preserve">
<g>
	<path style="fill:#5D2F88;" d="M52.736,92.494c-3.117,0-5.909-1.612-7.468-4.311L2.715,14.478
		c-1.559-2.699-1.559-5.923-0.001-8.622c1.559-2.699,4.351-4.311,7.468-4.311h85.107c3.117,0,5.909,1.612,7.468,4.311
		c1.558,2.699,1.558,5.923-0.001,8.622L60.204,88.183C58.645,90.882,55.854,92.494,52.736,92.494"/>
	<path style="fill:#382259;" d="M95.29,3.088c5.449,0,8.855,5.899,6.131,10.618L58.867,87.411c-1.362,2.359-3.746,3.539-6.131,3.539
		s-4.768-1.18-6.131-3.539L4.052,13.706C1.328,8.987,4.734,3.088,10.183,3.088H95.29 M95.29,0H10.183C6.507,0,3.216,1.9,1.378,5.083
		c-1.838,3.184-1.838,6.984,0,10.167l42.553,73.705c1.837,3.183,5.129,5.083,8.805,5.083c3.675,0,6.967-1.9,8.805-5.083
		l42.553-73.705c1.838-3.183,1.838-6.983,0-10.167C102.256,1.9,98.965,0,95.29,0"/>
</g>
<path style="fill:#F0AE00;" d="M72.462,55.221h-39.45L48.51,81.818c1.878,3.253,6.574,3.253,8.452,0L72.462,55.221z"/>
<g>
	<path style="fill:#F0AE00;" d="M76.856,10.034c-3.868,0-7.313,1.79-9.566,4.583c-3.733-3.71-8.875-6.005-14.554-6.005
		s-10.821,2.295-14.554,6.005c-2.252-2.793-5.698-4.583-9.565-4.583c-6.786,0-12.288,5.501-12.288,12.288
		c0,6.786,5.501,12.288,12.288,12.288c1.409,0,2.758-0.249,4.018-0.686c2.116,9.155,10.302,15.987,20.101,15.987
		c9.798,0,17.985-6.832,20.101-15.987c1.261,0.437,2.609,0.686,4.019,0.686c6.786,0,12.288-5.501,12.288-12.288
		C89.143,15.535,83.642,10.034,76.856,10.034z"/>
	<g>
		<defs>
			<circle id="SVGID_1_" cx="52.736" cy="29.261" r="20.649"/>
		</defs>
		<clipPath id="SVGID_2_">
			<use xlink:href="#SVGID_1_"  style="overflow:visible;"/>
		</clipPath>
	</g>
	<g>
		<g>
			<path style="fill:#5D2F88;" d="M45.416,27.29c0,1.892-1.533,3.425-3.425,3.425c-1.891,0-3.424-1.533-3.424-3.425
				c0-1.891,1.533-3.425,3.424-3.425C43.883,23.865,45.416,25.399,45.416,27.29"/>
		</g>
		<g>
			<path style="fill:#C90C0F;" d="M52.737,43.35c-3.422,0-6.206-2.784-6.206-6.206c0-0.875,0.709-1.584,1.584-1.584
				c0.875,0,1.584,0.71,1.584,1.584c0,1.674,1.362,3.037,3.037,3.037c1.674,0,3.036-1.363,3.036-3.037
				c0-0.875,0.709-1.584,1.584-1.584c0.875,0,1.584,0.71,1.584,1.584C58.941,40.565,56.158,43.35,52.737,43.35z"/>
		</g>
		<g>
			<path style="fill:#5D2F88;" d="M66.905,27.29c0,1.892-1.533,3.425-3.425,3.425c-1.891,0-3.424-1.533-3.424-3.425
				c0-1.891,1.533-3.425,3.424-3.425C65.372,23.865,66.905,25.399,66.905,27.29"/>
		</g>
	</g>
</g>
<g>
	<g>
		<polygon style="fill:#AFCA0B;" points="40.042,55.221 40.042,67.286 45.668,76.94 45.668,55.221 		"/>
	</g>
	<g>
		<polygon style="fill:#AFCA0B;" points="65.431,55.221 59.805,55.221 59.805,76.94 65.431,67.286 		"/>
	</g>
</g>
</svg>
