<?xml version="1.0" encoding="iso-8859-1"?>
<!-- Generator: Adobe Illustrator 22.1.0, SVG Export Plug-In . SVG Version: 6.00 Build 0)  -->
<svg version="1.1" id="Warstwa_1" xmlns="http://www.w3.org/2000/svg" xmlns:xlink="http://www.w3.org/1999/xlink" x="0px" y="0px"
	 viewBox="0 0 105.477 94.042" style="enable-background:new 0 0 105.477 94.042;" xml:space="preserve">
<g>
	<path style="fill:#5D2F88;" d="M52.736,92.494c-3.117,0-5.909-1.612-7.468-4.311L2.715,14.478
		c-1.559-2.699-1.559-5.923-0.001-8.622c1.559-2.699,4.351-4.311,7.468-4.311h85.107c3.117,0,5.909,1.612,7.468,4.311
		c1.558,2.699,1.558,5.923-0.001,8.622L60.204,88.183C58.645,90.882,55.854,92.494,52.736,92.494"/>
	<path style="fill:#382259;" d="M95.29,3.088c5.449,0,8.855,5.899,6.131,10.618L58.867,87.411c-1.362,2.359-3.746,3.539-6.131,3.539
		s-4.768-1.18-6.131-3.539L4.052,13.706C1.328,8.987,4.734,3.088,10.183,3.088H95.29 M95.29,0H10.183C6.507,0,3.216,1.9,1.378,5.083
		c-1.838,3.184-1.838,6.984,0,10.167l42.553,73.705c1.837,3.183,5.129,5.083,8.805,5.083c3.675,0,6.967-1.9,8.805-5.083
		l42.553-73.705c1.838-3.183,1.838-6.983,0-10.167C102.256,1.9,98.965,0,95.29,0"/>
</g>
<g>
	<g>
		<g>
			<path style="fill:#F0AE00;" d="M52.6,31.431c0.317,0.831,1.758,3.62,2.671,4.485c-3.896,0.115-9.85-1.302-13.439-3.491
				c-4.328-2.82-8.433-0.341-9.722,3.167c-0.204,1.173-0.331,2.373-0.331,3.605c0,1.195,0.123,2.36,0.315,3.501
				c1.669,9.905,10.264,17.458,20.643,17.458c9.832,0,18.059-6.78,20.321-15.912C69.564,34.05,63.629,31.431,52.6,31.431z
				 M62.562,36.337c1.73,0,3.132,1.403,3.132,3.132c0,1.73-1.402,3.132-3.132,3.132c-1.729,0-3.131-1.402-3.131-3.132
				C59.431,37.74,60.833,36.337,62.562,36.337z M60.366,50.051c-0.806,3.449-3.904,6.026-7.594,6.026
				c-3.69,0-6.789-2.577-7.595-6.025c1.536,1.252,4.176,2.257,7.595,2.257S58.83,51.303,60.366,50.051z M42.91,36.337
				c1.73,0,3.132,1.403,3.132,3.132c0,1.73-1.402,3.132-3.132,3.132c-1.729,0-3.131-1.402-3.131-3.132
				C39.779,37.74,41.181,36.337,42.91,36.337z"/>
		</g>
		<path style="fill:#26B4E6;" d="M60.135,7.476c0.76,1.344,0.766,3.068-0.195,4.406c-1.594,2.22-6.144,1.516-7.341,1.516
			c-12.052,0-21.822,9.77-21.822,21.822c0,2.627,0.465,5.145,1.315,7.477c-0.192-1.141-0.315-2.305-0.315-3.501
			c0-1.232,0.128-2.432,0.331-3.605c1.289-3.509,5.393-5.987,9.722-3.167c3.59,2.189,9.543,3.606,13.439,3.491
			c-0.913-0.865-2.354-3.654-2.671-4.485c11.029,0,16.965,2.619,20.458,12.812c0.005,0.016,0.012,0.03,0.017,0.046
			c0.516-1.605,0.807-3.226,0.933-4.836c0.269-1.369,0.414-2.784,0.414-4.232C74.421,22.384,68.493,13.458,60.135,7.476z"/>
	</g>
	<path style="fill:#FFFFFF;" d="M60.366,50.051c0.111-0.476,0.181-0.969,0.2-1.474h-15.59c0.019,0.505,0.089,0.998,0.2,1.474
		c1.536,1.252,4.176,2.257,7.595,2.257S58.83,51.303,60.366,50.051z"/>
</g>
<g>
	<path style="fill:#AFCA0B;" d="M52.737,86.006c-2.307,0-4.373-1.192-5.525-3.189L35.815,63.077h33.843L58.261,82.816
		C57.109,84.813,55.043,86.006,52.737,86.006z"/>
	<path style="fill:#5D2F88;" d="M67.06,64.577l-10.098,17.49c-0.939,1.627-2.583,2.44-4.226,2.44s-3.287-0.813-4.226-2.44
		l-10.098-17.49H67.06 M72.256,61.577H67.06H38.413h-5.196l2.598,4.5l10.098,17.49c1.424,2.467,3.975,3.94,6.824,3.94
		s5.4-1.473,6.824-3.94l10.098-17.49L72.256,61.577L72.256,61.577z"/>
</g>
</svg>
