<?xml version="1.0" encoding="iso-8859-1"?>
<!-- Generator: Adobe Illustrator 22.1.0, SVG Export Plug-In . SVG Version: 6.00 Build 0)  -->
<svg version="1.1" id="Warstwa_1" xmlns="http://www.w3.org/2000/svg" xmlns:xlink="http://www.w3.org/1999/xlink" x="0px" y="0px"
	 viewBox="0 0 105.477 94.042" style="enable-background:new 0 0 105.477 94.042;" xml:space="preserve">
<g>
	<path style="fill:#5D2F88;" d="M52.736,92.494c-3.117,0-5.909-1.612-7.468-4.311L2.715,14.478
		c-1.559-2.699-1.559-5.923-0.001-8.622c1.559-2.699,4.351-4.311,7.468-4.311h85.107c3.117,0,5.909,1.612,7.468,4.311
		c1.558,2.699,1.558,5.923-0.001,8.622L60.204,88.183C58.645,90.882,55.854,92.494,52.736,92.494"/>
	<path style="fill:#382259;" d="M95.29,3.088c5.449,0,8.855,5.899,6.131,10.618L58.867,87.411c-1.362,2.359-3.746,3.539-6.131,3.539
		s-4.768-1.18-6.131-3.539L4.052,13.706C1.328,8.987,4.734,3.088,10.183,3.088H95.29 M95.29,0H10.183C6.507,0,3.216,1.9,1.378,5.083
		c-1.838,3.184-1.838,6.984,0,10.167l42.553,73.705c1.837,3.183,5.129,5.083,8.805,5.083c3.675,0,6.967-1.9,8.805-5.083
		l42.553-73.705c1.838-3.183,1.838-6.983,0-10.167C102.256,1.9,98.965,0,95.29,0"/>
</g>
<g>
	<path style="fill:#EF7D00;" d="M41.275,68.964c0-4.022,11.461-8.892,11.461-8.892s11.461,4.87,11.461,8.892
		c0,6.743-11.461,1.466-11.461,1.466S41.275,75.902,41.275,68.964z"/>
	<path style="fill:#382259;" d="M73.605,36.495c-2.185-4.467-5.001-7.906-7.336-9.259c1.317-1.886,2.081-4.067,2.081-6.399
		c0-7.106-6.99-12.866-15.614-12.866c-8.623,0-15.613,5.76-15.613,12.866c0,2.332,0.764,4.513,2.081,6.399
		c-2.334,1.353-5.15,4.792-7.336,9.259c-3.196,6.534-3.832,12.788-1.419,13.968c0.953,0.466,2.242,0.06,3.647-0.993
		c1.54,10.432,7.848,18.221,18.64,18.221c10.792,0,17.1-7.79,18.641-18.221c1.405,1.053,2.694,1.459,3.647,0.993
		C77.436,49.283,76.801,43.029,73.605,36.495z"/>
	<path style="fill:#FFFFFF;" d="M61.146,24.305c1.832-1.013,3.076-2.964,3.076-5.202c0-3.277-2.666-5.942-5.942-5.942
		c-2.475,0-4.6,1.522-5.491,3.679c-0.017,0-0.035-0.004-0.052-0.004c-0.017,0-0.035,0.004-0.052,0.004
		c-0.892-2.157-3.016-3.679-5.492-3.679c-3.276,0-5.941,2.666-5.941,5.942c0,2.238,1.244,4.189,3.076,5.202
		c-3.407,5.399-6.171,12.729-6.171,18.531c0,10.493,2.474,19,14.581,19c11.993,0,14.581-8.507,14.581-19
		C67.317,37.034,64.553,29.703,61.146,24.305z"/>
	<path style="fill:#EF7D00;" d="M45.687,26.236c0-2.1,7.049-4.643,7.049-4.643s7.049,2.543,7.049,4.643
		c0,3.521-7.049,0.208-7.049,0.208S45.687,29.858,45.687,26.236z"/>
	<g>
		<g>
			<path style="fill:#5D2F88;" d="M47.193,16.16c-1.625,0-2.941,1.317-2.941,2.942c0,1.625,1.316,2.942,2.941,2.942
				c1.625,0,2.942-1.317,2.942-2.942C50.135,17.478,48.818,16.16,47.193,16.16z"/>
		</g>
		<g>
			<path style="fill:#5D2F88;" d="M58.279,16.16c-1.624,0-2.941,1.317-2.941,2.942c0,1.625,1.317,2.942,2.941,2.942
				c1.625,0,2.942-1.317,2.942-2.942C61.221,17.478,59.904,16.16,58.279,16.16z"/>
		</g>
	</g>
</g>
</svg>
