<?xml version="1.0" encoding="iso-8859-1"?>
<!-- Generator: Adobe Illustrator 22.1.0, SVG Export Plug-In . SVG Version: 6.00 Build 0)  -->
<svg version="1.1" id="Warstwa_1" xmlns="http://www.w3.org/2000/svg" xmlns:xlink="http://www.w3.org/1999/xlink" x="0px" y="0px"
	 viewBox="0 0 105.477 94.042" style="enable-background:new 0 0 105.477 94.042;" xml:space="preserve">
<g>
	<path style="fill:#5D2F88;" d="M52.736,92.494c-3.117,0-5.909-1.612-7.468-4.311L2.715,14.478
		c-1.559-2.699-1.559-5.923-0.001-8.622c1.559-2.699,4.351-4.311,7.468-4.311h85.107c3.117,0,5.909,1.612,7.468,4.311
		c1.558,2.699,1.558,5.923-0.001,8.622L60.204,88.183C58.645,90.882,55.854,92.494,52.736,92.494"/>
	<path style="fill:#382259;" d="M95.29,3.088c5.449,0,8.855,5.899,6.131,10.618L58.867,87.411c-1.362,2.359-3.746,3.539-6.131,3.539
		s-4.768-1.18-6.131-3.539L4.052,13.706C1.328,8.987,4.734,3.088,10.183,3.088H95.29 M95.29,0H10.183C6.507,0,3.216,1.9,1.378,5.083
		c-1.838,3.184-1.838,6.984,0,10.167l42.553,73.705c1.837,3.183,5.129,5.083,8.805,5.083c3.675,0,6.967-1.9,8.805-5.083
		l42.553-73.705c1.838-3.183,1.838-6.983,0-10.167C102.256,1.9,98.965,0,95.29,0"/>
</g>
<g>
	<path style="fill:#26B4E6;" d="M50.571,58.356c-2.154,0-4.257-0.341-6.114-1.142c-0.354-0.153-0.691-0.323-1.019-0.504
		l-5.418,7.186l4.917,8.516l5.176-8.628c0.426-0.71,1.346-0.942,2.058-0.515c0.71,0.426,0.941,1.348,0.515,2.058l-6.033,10.056
		l3.859,6.683c1.878,3.253,6.574,3.253,8.452,0l10.558-18.288l-3.053-9.714c-0.891,0.592-1.844,1.15-2.87,1.658
		C58.523,57.243,54.463,58.356,50.571,58.356z"/>
	<path style="fill:#FFFFFF;" d="M39.032,40.303c0.06,0,0.119,0.007,0.179,0.008c1.301-6.385,6.966-10.547,10.243-11.836
		c6.341-2.493,12.965-2.666,16.097,1.478c0.096,0.089,0.182,0.186,0.267,0.286c1.066-0.558,2.254-0.878,3.485-0.905
		c-1.932-2.781-5.152-5.634-10.249-5.797c13.036-0.614,12.79-7.876,9.427-9.748C35.554-4.534,30.419,28.588,30.419,41.793
		c0,1.024,0.17,1.973,0.426,2.846C32.465,42.054,35.525,40.303,39.032,40.303z"/>
	<path style="fill:#26B4E6;" d="M49.454,28.476c-3.276,1.288-8.942,5.45-10.243,11.836c-0.193,0.949-0.284,1.95-0.263,2.995
		c-3.505,0.039-6.333,2.5-6.333,5.534c0,3.058,2.873,5.537,6.417,5.537c1.532,0,2.937-0.465,4.04-1.237
		c4.221,3.755,10.836,3.121,17.027,0.502c4.293-1.816,7.531-4.943,9.278-8.493c-1.504-0.019-2.96-0.453-4.216-1.271
		c-0.694-0.452-0.891-1.381-0.438-2.075c0.451-0.694,1.381-0.892,2.075-0.438c0.796,0.519,1.723,0.792,2.679,0.792
		c2.711,0,4.917-2.205,4.917-4.916s-2.206-4.917-4.917-4.917c-1.726,0-3.346,0.923-4.23,2.408c-0.197,0.331-0.503,0.554-0.844,0.66
		c0,0.002-0.001,0.004-0.002,0.006c-0.016,0.005-0.033,0.007-0.049,0.012c-0.018,0.005-0.035,0.009-0.053,0.013
		c-0.299,0.091-0.614,0.146-0.943,0.146c-1.79,0-3.241-1.451-3.241-3.242c0-1.79,1.451-3.242,3.241-3.242
		c0.85,0,1.616,0.334,2.195,0.869C62.42,25.81,55.795,25.983,49.454,28.476z M56.353,36.866c0,1.791-1.452,3.242-3.242,3.242
		c-1.79,0-3.241-1.451-3.241-3.242c0-1.79,1.452-3.242,3.241-3.242C54.901,33.623,56.353,35.076,56.353,36.866z"/>
</g>
</svg>
