<?xml version="1.0" encoding="iso-8859-1"?>
<!-- Generator: Adobe Illustrator 22.1.0, SVG Export Plug-In . SVG Version: 6.00 Build 0)  -->
<svg version="1.1" id="Warstwa_1" xmlns="http://www.w3.org/2000/svg" xmlns:xlink="http://www.w3.org/1999/xlink" x="0px" y="0px"
	 viewBox="0 0 105.477 94.042" style="enable-background:new 0 0 105.477 94.042;" xml:space="preserve">
<g>
	<path style="fill:#5D2F88;" d="M52.736,92.494c-3.117,0-5.909-1.612-7.468-4.311L2.715,14.478
		c-1.559-2.699-1.559-5.923-0.001-8.622c1.559-2.699,4.351-4.311,7.468-4.311h85.107c3.117,0,5.909,1.612,7.468,4.311
		c1.558,2.699,1.558,5.923-0.001,8.622L60.204,88.183C58.645,90.882,55.854,92.494,52.736,92.494"/>
	<path style="fill:#382259;" d="M95.29,3.088c5.449,0,8.855,5.899,6.131,10.618L58.867,87.411c-1.362,2.359-3.746,3.539-6.131,3.539
		s-4.768-1.18-6.131-3.539L4.052,13.706C1.328,8.987,4.734,3.088,10.183,3.088H95.29 M95.29,0H10.183C6.507,0,3.216,1.9,1.378,5.083
		c-1.838,3.184-1.838,6.984,0,10.167l42.553,73.705c1.837,3.183,5.129,5.083,8.805,5.083c3.675,0,6.967-1.9,8.805-5.083
		l42.553-73.705c1.838-3.183,1.838-6.983,0-10.167C102.256,1.9,98.965,0,95.29,0"/>
</g>
<g>
	<path style="fill:#26B4E6;" d="M94.44,17.154l-7.538-1.392c2.019,2.389,3.654,4.777,4.669,6.361L94.44,17.154z"/>
	<path style="fill:#26B4E6;" d="M68.315,41.283c-1.701-0.861-3.835-2.846-7.646-15.564c-1.885-6.292-3.457-13.013-3.457-13.013
		c-3.061,0.417-5.979,1.123-7.318,2.324c-4.528,4.06-5.256,8.518-4.979,11.681c0.634,7.258,3.086,24.417,3.202,27.647
		c0.093,2.616-1.535,4.095-3.16,4.095c-1.338,0-2.468-0.893-2.825-2.116c-0.129-0.441-0.574-0.736-1.025-0.646l-4.985,0.997
		c-0.451,0.09-0.755,0.517-0.697,0.973c0.653,5.091,5.357,8.212,10.322,8.212c5.673,0,9.619-3.699,10.497-8.339
		c0.878-4.641,0.747-8.501,0.654-10.65c-0.093-2.149,4.927-3.55,4.927-3.55l7.587,17.171L84.24,34.82
		c-4.207,3.637-9.235,7.112-13.091,7.112C70.119,41.932,69.165,41.714,68.315,41.283z"/>
	<path style="fill:#26B4E6;" d="M69.67,38.607c0.44,0.223,0.937,0.326,1.48,0.326c6.305,0,18.72-13.863,18.72-13.863
		s-8.682-14.517-15.594-14.516c-0.143,0-0.287,0.006-0.428,0.019c-4.933,0.445-13.593,1.974-13.593,1.974
		S65.882,36.689,69.67,38.607z"/>
	<path style="fill:#5D2F88;" d="M57.816,27.269c0,2.054-1.665,3.719-3.719,3.719c-2.053,0-3.718-1.665-3.718-3.719
		c0-2.054,1.665-3.719,3.718-3.719C56.151,23.55,57.816,25.215,57.816,27.269"/>
	<path style="fill:#FFFFFF;" d="M59.787,37.344c-1.799-0.609-2.764-0.092-3.277,1.551c-0.309,0.989-0.452,1.99-0.663,2.955
		c-1.903,4.524-4.668,6.747-5.539,7.276c-2.936,1.784-7.025,0.903-9.747-0.65c-0.674-0.384-1.43,0.36-1.057,1.04
		c1.459,2.66,5.501,4.579,8.903,4.496c0.913-0.022,2.395-0.235,3.554-0.702c4.092-1.647,7.234-5.172,9.14-9.229
		c0.499-0.701,0.865-1.504,1.013-2.41C62.494,39.485,61.187,37.818,59.787,37.344z"/>
</g>
</svg>
