<?xml version="1.0" encoding="iso-8859-1"?>
<!-- Generator: Adobe Illustrator 22.1.0, SVG Export Plug-In . SVG Version: 6.00 Build 0)  -->
<svg version="1.1" id="Warstwa_1" xmlns="http://www.w3.org/2000/svg" xmlns:xlink="http://www.w3.org/1999/xlink" x="0px" y="0px"
	 viewBox="0 0 105.477 94.042" style="enable-background:new 0 0 105.477 94.042;" xml:space="preserve">
<g>
	<path style="fill:#5D2F88;" d="M52.736,92.494c-3.117,0-5.909-1.612-7.468-4.311L2.715,14.478
		c-1.559-2.699-1.559-5.923-0.001-8.622c1.559-2.699,4.351-4.311,7.468-4.311h85.107c3.117,0,5.909,1.612,7.468,4.311
		c1.558,2.699,1.558,5.923-0.001,8.622L60.204,88.183C58.645,90.882,55.854,92.494,52.736,92.494"/>
	<path style="fill:#382259;" d="M95.29,3.088c5.449,0,8.855,5.899,6.131,10.618L58.867,87.411c-1.362,2.359-3.746,3.539-6.131,3.539
		s-4.768-1.18-6.131-3.539L4.052,13.706C1.328,8.987,4.734,3.088,10.183,3.088H95.29 M95.29,0H10.183C6.507,0,3.216,1.9,1.378,5.083
		c-1.838,3.184-1.838,6.984,0,10.167l42.553,73.705c1.837,3.183,5.129,5.083,8.805,5.083c3.675,0,6.967-1.9,8.805-5.083
		l42.553-73.705c1.838-3.183,1.838-6.983,0-10.167C102.256,1.9,98.965,0,95.29,0"/>
</g>
<g>
	<path style="fill:#382259;" d="M30.836,26.259c-0.491-0.182-1.016-0.295-1.57-0.295c-2.511,0-4.547,2.036-4.547,4.547v10.415
		c0,2.511,2.036,4.547,4.547,4.547c2.511,0,4.547-2.036,4.547-4.547v-3.82c-1.864-2.555-2.977-5.692-2.977-9.097V26.259z"/>
	<path style="fill:#382259;" d="M75.976,25.964c-0.554,0-1.079,0.114-1.57,0.295v1.751c0,3.405-1.113,6.542-2.978,9.097v3.82
		c0,2.511,2.036,4.547,4.547,4.547s4.547-2.036,4.547-4.547V30.511C80.523,28,78.487,25.964,75.976,25.964z"/>
	<path style="fill:#382259;" d="M58.562,15.875c-2.908,0-5.346,1.989-6.043,4.68h3.216c0.556-0.996,1.608-1.68,2.828-1.68
		s2.272,0.683,2.828,1.68h3.216C63.908,17.865,61.471,15.875,58.562,15.875z"/>
	<path style="fill:#AFCA0B;" d="M74.406,26.259v-2.704l-3.65-2h-0.047L65.975,7.971H39.267l-4.734,13.584l-3.697,2v2.704v1.751
		c0,3.405,1.113,6.542,2.977,9.097c2.813,3.855,7.352,6.369,12.489,6.369H58.94c5.137,0,9.676-2.515,12.489-6.369
		c1.864-2.555,2.978-5.692,2.978-9.097V26.259z M66.504,26.428c2.348,0,4.252,1.904,4.252,4.252c0,2.348-1.904,4.252-4.252,4.252
		c-2.348,0-4.252-1.904-4.252-4.252C62.252,28.332,64.156,26.428,66.504,26.428z M38.738,26.428c2.348,0,4.252,1.904,4.252,4.252
		c0,2.348-1.904,4.252-4.252,4.252c-2.348,0-4.252-1.904-4.252-4.252C34.486,28.332,36.39,26.428,38.738,26.428z M41.399,10.971
		h22.445l3.34,9.584h-2.578H61.39h-5.655h-3.216H38.059 M48.18,36.98c0,0.828-0.672,1.5-1.5,1.5s-1.5-0.672-1.5-1.5v-8.5
		c0-0.828,0.672-1.5,1.5-1.5s1.5,0.672,1.5,1.5V36.98z M54.121,36.98c0,0.828-0.672,1.5-1.5,1.5s-1.5-0.672-1.5-1.5v-8.5
		c0-0.828,0.672-1.5,1.5-1.5s1.5,0.672,1.5,1.5V36.98z M58.563,38.48c-0.828,0-1.5-0.672-1.5-1.5v-8.5c0-0.828,0.672-1.5,1.5-1.5
		s1.5,0.672,1.5,1.5v8.5C60.063,37.808,59.391,38.48,58.563,38.48z"/>
	<circle style="fill:#FFFFFF;" cx="38.738" cy="30.68" r="4.252"/>
	<path style="fill:#FFFFFF;" d="M66.504,34.932c2.348,0,4.252-1.904,4.252-4.252c0-2.348-1.904-4.252-4.252-4.252
		c-2.348,0-4.252,1.904-4.252,4.252C62.252,33.028,64.156,34.932,66.504,34.932z"/>
</g>
</svg>
