<?xml version="1.0" encoding="iso-8859-1"?>
<!-- Generator: Adobe Illustrator 22.1.0, SVG Export Plug-In . SVG Version: 6.00 Build 0)  -->
<svg version="1.1" id="Warstwa_1" xmlns="http://www.w3.org/2000/svg" xmlns:xlink="http://www.w3.org/1999/xlink" x="0px" y="0px"
	 viewBox="0 0 105.477 94.042" style="enable-background:new 0 0 105.477 94.042;" xml:space="preserve">
<g>
	<path style="fill:#5D2F88;" d="M52.736,92.494c-3.117,0-5.909-1.612-7.468-4.311L2.715,14.478
		c-1.559-2.699-1.559-5.923-0.001-8.622c1.559-2.699,4.351-4.311,7.468-4.311h85.107c3.117,0,5.909,1.612,7.468,4.311
		c1.558,2.699,1.558,5.923-0.001,8.622L60.204,88.183C58.645,90.882,55.854,92.494,52.736,92.494"/>
	<path style="fill:#382259;" d="M95.29,3.088c5.449,0,8.855,5.899,6.131,10.618L58.867,87.411c-1.362,2.359-3.746,3.539-6.131,3.539
		s-4.768-1.18-6.131-3.539L4.052,13.706C1.328,8.987,4.734,3.088,10.183,3.088H95.29 M95.29,0H10.183C6.507,0,3.216,1.9,1.378,5.083
		c-1.838,3.184-1.838,6.984,0,10.167l42.553,73.705c1.837,3.183,5.129,5.083,8.805,5.083c3.675,0,6.967-1.9,8.805-5.083
		l42.553-73.705c1.838-3.183,1.838-6.983,0-10.167C102.256,1.9,98.965,0,95.29,0"/>
</g>
<g>
	<path style="fill:none;" d="M51.201,61.084v-23.94c-2.167-0.363-4.985-1.359-8.16-2.49c-2.944-1.05-6.609-2.355-8.017-2.355
		c-1.675,0-5.648,1.893-8.666,3.603l23.344,26.09L51.201,61.084z"/>
	<path style="fill:none;" d="M55.771,61.991l23.345-26.091c-3.05-1.733-6.973-3.602-8.668-3.602c-1.406,0-5.071,1.306-8.016,2.354
		c-3.175,1.132-5.993,2.128-8.161,2.491v23.939L55.771,61.991z"/>
	<path style="fill:#FFFFFF;" d="M49.702,61.992l-23.344-26.09c-0.624,0.354-1.211,0.7-1.724,1.019
		c-0.364,0.226-0.764,0.331-1.163,0.356l24.159,27.001v-1.033L49.702,61.992z"/>
	<path style="fill:#FFFFFF;" d="M79.116,35.901L55.771,61.991l2.073,1.254v1.033l24.155-26.996c-0.398-0.026-0.796-0.135-1.158-0.36
		C80.32,36.598,79.734,36.252,79.116,35.901z"/>
	<path style="fill:#AFCA0B;" d="M54.271,32.052V17.908l-1.535-0.845l-1.535,0.846v14.143c0.63,0.153,1.164,0.247,1.535,0.247
		C53.107,32.299,53.641,32.205,54.271,32.052z"/>
	<polygon style="fill:#FFFFFF;" points="54.271,17.908 58.253,20.102 52.736,7.971 47.219,20.102 51.201,17.909 52.736,17.063 	"/>
	<path style="fill:#AFCA0B;" d="M55.771,61.991l-1.5-0.907V37.145c-0.553,0.092-1.074,0.154-1.535,0.154
		c-0.461,0-0.982-0.062-1.535-0.154v23.94l-1.499,0.907l-2.072,1.254v1.033v9.181l5.107-3.09l5.107,3.09v-9.181v-1.033
		L55.771,61.991z"/>
	<path style="fill:#C90C0F;" d="M83.482,32.677c-1.443-0.898-8.853-5.378-13.034-5.378c-2.271,0-5.711,1.226-9.694,2.645
		c-2.168,0.773-4.722,1.681-6.482,2.108c-0.63,0.153-1.164,0.247-1.535,0.247c-0.371,0-0.905-0.095-1.535-0.247
		c-1.76-0.427-4.313-1.335-6.481-2.108c-3.984-1.419-7.425-2.645-9.695-2.645c-4.181,0-11.59,4.479-13.033,5.378
		c-1.172,0.729-1.531,2.271-0.801,3.443c0.474,0.761,1.289,1.179,2.124,1.179c0.052,0,0.104-0.018,0.156-0.022
		c0.4-0.025,0.8-0.13,1.163-0.356c0.513-0.319,1.1-0.666,1.724-1.019c3.018-1.709,6.991-3.603,8.666-3.603
		c1.407,0,5.072,1.306,8.017,2.355c3.175,1.131,5.993,2.127,8.16,2.49c0.553,0.093,1.074,0.154,1.535,0.154
		c0.461,0,0.983-0.062,1.535-0.154c2.168-0.363,4.986-1.36,8.161-2.491c2.944-1.049,6.609-2.354,8.016-2.354
		c1.695,0,5.618,1.868,8.668,3.602c0.618,0.351,1.204,0.698,1.725,1.022c0.363,0.225,0.76,0.334,1.158,0.36
		c0.89,0.057,1.782-0.353,2.285-1.162C85.012,34.947,84.654,33.405,83.482,32.677z"/>
</g>
</svg>
