<svg id="Warstwa_1" data-name="Warstwa 1" xmlns="http://www.w3.org/2000/svg" viewBox="0 0 105.48 94.04"><defs><style>.cls-1{fill:#5d2f88;}.cls-2{fill:#382259;}.cls-3{fill:#fff;}.cls-4{fill:#26b4e6;}</style></defs><title>tropy-zuchowe-znaczki-popr-krz</title><path class="cls-1" d="M52.74,92.49a8.54,8.54,0,0,1-7.47-4.31L2.72,14.48A8.63,8.63,0,0,1,10.19,1.54h85.1a8.63,8.63,0,0,1,7.47,12.94L60.21,88.18a8.54,8.54,0,0,1-7.47,4.31"/><path class="cls-2" d="M95.29,3.09a7.08,7.08,0,0,1,6.13,10.62L58.87,87.41a7.08,7.08,0,0,1-12.26,0L4.06,13.71A7.08,7.08,0,0,1,10.19,3.09h85.1m0-3.09H10.19A10.17,10.17,0,0,0,1.38,15.25L43.93,89a10.16,10.16,0,0,0,17.61,0l42.56-73.7A10.17,10.17,0,0,0,95.29,0"/><path class="cls-3" d="M52.82,7.5A29.8,29.8,0,0,0,23,37.3c0,6,7.85,9.77,17.85,11.41.12,1.52,1.54,2.67,3.62,3.45V44.9a8.33,8.33,0,0,1,16.66,0v7.26c2.08-.78,3.5-1.93,3.63-3.45,10-1.64,17.84-5.44,17.84-11.41A29.8,29.8,0,0,0,52.82,7.5Z"/><path class="cls-4" d="M71,34.6a74,74,0,0,0-1.65-8.88,38.13,38.13,0,0,0,9.34-3.25A27.49,27.49,0,0,0,77,19.9a30.48,30.48,0,0,1-4.51,1.8,25.56,25.56,0,0,0-4.59-8.4c.56-.21,1.1-.44,1.62-.68a28.52,28.52,0,0,0-3.25-1.91,42.73,42.73,0,0,1-13.46,1.9,42.62,42.62,0,0,1-13.45-1.9,27.67,27.67,0,0,0-3.25,1.91c.5.23,1,.46,1.62.68a25.2,25.2,0,0,0-4.59,8.4,30.48,30.48,0,0,1-4.51-1.8A27.34,27.34,0,0,0,27,22.46,32.37,32.37,0,0,0,30.56,24a48.06,48.06,0,0,0,5.76,1.66,74.16,74.16,0,0,0-1.65,8.91c-4.71-1.31-8.51-3.17-10.48-5.55a28.34,28.34,0,0,0-.78,3.48,18.61,18.61,0,0,0,3.65,2.41,47.66,47.66,0,0,0-1.34,7.88,16,16,0,0,0,2.86,2,49.35,49.35,0,0,1,1.25-8.66c.25.1,5.59,1.8,8.38,2.34a15,15,0,0,0-.37,3.24v6.36q1.47.33,3,.57V41.77a12,12,0,0,1,24,0V48.7q1.55-.24,3-.57V41.77a14.85,14.85,0,0,0-.36-3.22,47.14,47.14,0,0,0,8.38-2.33,49,49,0,0,1,1.25,8.63,16.31,16.31,0,0,0,2.86-2A47.3,47.3,0,0,0,78.6,35a19.41,19.41,0,0,0,3.65-2.41,31.34,31.34,0,0,0-.79-3.51C79.48,31.43,75.69,33.29,71,34.6Zm-31.81,1-1.57-.31a72,72,0,0,1,1.67-9,76.78,76.78,0,0,0,9.73,1A15,15,0,0,0,39.17,35.63ZM51.32,24.38A70.93,70.93,0,0,1,36,22.51a21.53,21.53,0,0,1,4.87-8.24,48.2,48.2,0,0,0,10.41,1.31Zm3-8.79a48.74,48.74,0,0,0,10.42-1.32,21.53,21.53,0,0,1,4.87,8.24,71,71,0,0,1-15.29,1.87Zm12.15,20a15,15,0,0,0-9.8-8.32,79.3,79.3,0,0,0,9.72-1,71.54,71.54,0,0,1,1.65,9Z"/></svg>