<svg id="Warstwa_1" data-name="Warstwa 1" xmlns="http://www.w3.org/2000/svg" viewBox="0 0 105.48 94.04"><defs><style>.cls-1{fill:#5d2f88;}.cls-2{fill:#382259;}.cls-3{fill:none;}.cls-4{fill:#c90c0f;}.cls-5{fill:#f0ae00;}</style></defs><title>tropy-zuchowe-znaczki-popr-krz</title><path class="cls-1" d="M52.74,92.49a8.54,8.54,0,0,0,7.47-4.31l42.55-73.7A8.63,8.63,0,0,0,95.29,1.54H10.19A8.63,8.63,0,0,0,2.72,14.48l42.55,73.7a8.54,8.54,0,0,0,7.47,4.31"/><path class="cls-2" d="M10.19,3.09h85.1a7.08,7.08,0,0,1,6.13,10.62L58.87,87.41a7.08,7.08,0,0,1-12.26,0L4.06,13.71A7.08,7.08,0,0,1,10.19,3.09m0-3.09A10.17,10.17,0,0,0,1.38,15.25L43.93,89a10.16,10.16,0,0,0,17.61,0l42.56-73.7A10.17,10.17,0,0,0,95.29,0H10.19"/><path class="cls-3" d="M38.69,42.76a4.18,4.18,0,0,1,1.43-.4,4.06,4.06,0,0,1,2.1.57c-1.39-2.55-2.28-7.06,2.5-13.31,3.89-5.1,14.08-7.72,20.19-4.23a11.39,11.39,0,0,1,.91-2.75c-5.3-4.05-17.48-2.35-23.8,4.78C38.76,31.1,37.07,36.23,38.69,42.76Z"/><path class="cls-4" d="M32.39,38.7l-3.49-.24a27.91,27.91,0,0,1,.21-9.78l4.17,0-3.52-2.65a16.93,16.93,0,0,1,2.12-4.73A26.82,26.82,0,0,1,46.42,11l1.76,2.92.07-3.38a33,33,0,0,1,10-.5L59,15.1l2.08-4.73a43,43,0,0,1,11.08,3.36A29.37,29.37,0,0,0,65,21.86c-10.74-5-30.75,3.52-26.28,20.9-5.6,4.91,10,15,3.74,18.67C44,57.28,37.17,56,32.73,48.78a28.18,28.18,0,0,1-3.46-8.4Z"/><path class="cls-5" d="M74.46,48.87,70.51,46s.23-6.13-1.05-7.67c-2.13-2.54-5.36-.84-8,1.78,2.54,3.3,6.93,3.06,6.93,3.06L70,57.3s.59,1.87-4.59.05-11-5.66-11.25-8.17c-.49-4.79-2.63-4.08-2.86-3.13a8.13,8.13,0,0,1-4.52,5.39c-2.09.74-3.2.93-4.13.33-.73-.47,1.58-1.17,1.8-2.59a12.21,12.21,0,0,0-.27-3.81s-7.25-5.57.54-15.75c4.77-6.25,19-8.77,23.58-.9S74.46,48.87,74.46,48.87Z"/></svg>