<svg id="Warstwa_1" data-name="Warstwa 1" xmlns="http://www.w3.org/2000/svg" viewBox="0 0 105.48 94.04"><defs><style>.cls-1{fill:#5d2f88;}.cls-2{fill:#382259;}.cls-3{fill:#26b4e6;}.cls-4{fill:#f0ae00;}</style></defs><title>tropy-zuchowe-znaczki-popr-krz</title><path class="cls-1" d="M52.74,92.49a8.54,8.54,0,0,1-7.47-4.31L2.72,14.48A8.63,8.63,0,0,1,10.19,1.54h85.1a8.63,8.63,0,0,1,7.47,12.94L60.21,88.18a8.54,8.54,0,0,1-7.47,4.31"/><path class="cls-2" d="M95.29,3.09a7.08,7.08,0,0,1,6.13,10.62L58.87,87.41a7.08,7.08,0,0,1-12.26,0L4.06,13.71A7.08,7.08,0,0,1,10.19,3.09h85.1m0-3.09H10.19A10.17,10.17,0,0,0,1.38,15.25L43.93,89a10.16,10.16,0,0,0,17.61,0l42.56-73.7A10.17,10.17,0,0,0,95.29,0"/><polygon class="cls-3" points="34.48 32.07 33.07 43.38 52.74 51.88 73.03 43.38 71.2 32.02 52.74 36.64 34.48 32.07"/><polygon class="cls-3" points="52.74 33.85 87.32 25.18 52.74 16.52 18.15 25.18 52.74 33.85"/><path class="cls-4" d="M71.11,43a2.84,2.84,0,0,0-1.36-2.42V30a1.5,1.5,0,0,0-1-1.42L52.73,23a1.5,1.5,0,1,0-1,2.83l15,5.29v9.49A2.84,2.84,0,0,0,65.39,43L63.61,55.46h5.86l.31-8.16,1,8.16h2Z"/></svg>