<svg id="Warstwa_1" data-name="Warstwa 1" xmlns="http://www.w3.org/2000/svg" viewBox="0 0 105.48 94.04"><defs><style>.cls-1{fill:#5d2f88;}.cls-2{fill:#382259;}.cls-3{fill:#f0ae00;}.cls-4{fill:#fff;}</style></defs><title>tropy-zuchowe-znaczki-popr-krz</title><path class="cls-1" d="M52.74,92.49a8.54,8.54,0,0,1-7.47-4.31L2.72,14.48A8.63,8.63,0,0,1,10.19,1.54h85.1a8.63,8.63,0,0,1,7.47,12.94L60.21,88.18a8.54,8.54,0,0,1-7.47,4.31"/><path class="cls-2" d="M95.29,3.09a7.08,7.08,0,0,1,6.13,10.62L58.87,87.41a7.08,7.08,0,0,1-12.26,0L4.06,13.71A7.08,7.08,0,0,1,10.19,3.09h85.1m0-3.09H10.19A10.17,10.17,0,0,0,1.38,15.25L43.93,89a10.16,10.16,0,0,0,17.61,0l42.56-73.7A10.17,10.17,0,0,0,95.29,0"/><path class="cls-3" d="M33.71,16.66a26.09,26.09,0,0,0-7.14,18h0a26.09,26.09,0,0,1,7.14-18Z"/><path class="cls-3" d="M42.47,10.54h0a25.84,25.84,0,0,0-5.76,3.4h0A25.84,25.84,0,0,1,42.47,10.54Z"/><path class="cls-3" d="M75.2,34.62A22.35,22.35,0,0,0,71.77,22.7V46.53A22.32,22.32,0,0,0,75.2,34.62Z"/><path class="cls-3" d="M52.74,8.45A26.21,26.21,0,0,1,62,10.14h0a26.32,26.32,0,0,0-18.56,0h0A26.17,26.17,0,0,1,52.74,8.45Z"/><path class="cls-3" d="M78.91,34.62h0a26.09,26.09,0,0,0-7.14-18h0A26.09,26.09,0,0,1,78.91,34.62Z"/><path class="cls-3" d="M68.77,13.94h0A25.68,25.68,0,0,0,63,10.54h0A25.68,25.68,0,0,1,68.77,13.94Z"/><path class="cls-3" d="M45.47,37.67v18.2A22.47,22.47,0,0,0,51.24,57V42.35A7.92,7.92,0,0,1,45.47,37.67Z"/><path class="cls-3" d="M54.24,42.35V57A22.48,22.48,0,0,0,60,55.87V37.67A7.88,7.88,0,0,1,54.24,42.35Z"/><path class="cls-3" d="M60,31.56V13.36a22.48,22.48,0,0,0-5.76-1.15V26.88A7.88,7.88,0,0,1,60,31.56Z"/><path class="cls-3" d="M42.47,54.59V14.64a22.6,22.6,0,0,0-5.76,4.26V50.33A22.6,22.6,0,0,0,42.47,54.59Z"/><path class="cls-3" d="M51.24,26.88V12.21a22.47,22.47,0,0,0-5.77,1.15v18.2A7.92,7.92,0,0,1,51.24,26.88Z"/><path class="cls-3" d="M33.71,22.7a22.35,22.35,0,0,0,0,23.83Z"/><path class="cls-3" d="M68.77,50.33V18.9A22.65,22.65,0,0,0,63,14.64v40A22.65,22.65,0,0,0,68.77,50.33Z"/><path class="cls-4" d="M78.91,34.62a26.09,26.09,0,0,0-7.14-18,26.68,26.68,0,0,0-3-2.72A25.68,25.68,0,0,0,63,10.54l-1-.4a26.32,26.32,0,0,0-18.56,0l-1,.4a25.84,25.84,0,0,0-5.76,3.4,26.68,26.68,0,0,0-3,2.72,26.09,26.09,0,0,0-7.14,18h0a26.09,26.09,0,0,0,7.14,18,26.68,26.68,0,0,0,3,2.72,25.84,25.84,0,0,0,5.76,3.4c.39.17.78.32,1.18.47a26.31,26.31,0,0,0,18.18,0c.39-.15.79-.3,1.17-.47a25.68,25.68,0,0,0,5.77-3.4,26.68,26.68,0,0,0,3-2.72,26.09,26.09,0,0,0,7.14-18ZM33.71,22.7a22.67,22.67,0,0,1,8.76-8.06,24.8,24.8,0,0,1,3-1.28,22.47,22.47,0,0,1,5.77-1.15c.5,0,1-.06,1.5-.06s1,0,1.5.06A22.48,22.48,0,0,1,60,13.36a23.52,23.52,0,0,1,3,1.28,22.61,22.61,0,0,1,8.77,8.06,22.41,22.41,0,0,1,0,23.83A22.61,22.61,0,0,1,63,54.59a23.52,23.52,0,0,1-3,1.28A22.48,22.48,0,0,1,54.24,57q-.75.06-1.5.06c-.51,0-1,0-1.5-.06a22.47,22.47,0,0,1-5.77-1.15,24.8,24.8,0,0,1-3-1.28,22.6,22.6,0,0,1-5.76-4.26,22.49,22.49,0,0,1-6.44-15.71A22.36,22.36,0,0,1,33.71,22.7Z"/><path class="cls-4" d="M52.74,38.87a4.26,4.26,0,1,0-4.25-4.25A4.25,4.25,0,0,0,52.74,38.87Z"/></svg>