<svg id="Warstwa_1" data-name="Warstwa 1" xmlns="http://www.w3.org/2000/svg" viewBox="0 0 105.48 94.04"><defs><style>.cls-1{fill:#5d2f88;}.cls-2{fill:#382259;}.cls-3{fill:#f0ae00;}.cls-4{fill:#ef7d00;}.cls-5{fill:#26b4e6;}</style></defs><title>tropy-zuchowe-znaczki-popr-krz</title><path class="cls-1" d="M52.74,92.49a8.54,8.54,0,0,1-7.47-4.31L2.72,14.48A8.63,8.63,0,0,1,10.19,1.54h85.1a8.63,8.63,0,0,1,7.47,12.94L60.21,88.18a8.54,8.54,0,0,1-7.47,4.31"/><path class="cls-2" d="M95.29,3.09a7.08,7.08,0,0,1,6.13,10.62L58.87,87.41a7.08,7.08,0,0,1-12.26,0L4.06,13.71A7.08,7.08,0,0,1,10.19,3.09h85.1m0-3.09H10.19A10.17,10.17,0,0,0,1.38,15.25L43.93,89a10.16,10.16,0,0,0,17.61,0l42.56-73.7A10.17,10.17,0,0,0,95.29,0"/><path class="cls-3" d="M56.81,56.67l-.54,0h-.08a3,3,0,0,1-2.84-3V49.19c0-1.06,0-2.18-.07-3.32l-.43,0s-10.51,3.76-14,5.1a18.76,18.76,0,0,0,36,0c-1.56-.6-4.54-1.69-7.34-2.7A11,11,0,0,1,56.81,56.67Z"/><path class="cls-4" d="M70.18,22c0-1.9,0-2.78,0-2.78H62.81a6.94,6.94,0,0,0-6.23,5.21l-1.7.68s0-3.34-2.65-3.34a4.7,4.7,0,0,0-.63.05c-3.29.57-2.49,5.33-.23,7s3.85,5.77,4.08,7a117.12,117.12,0,0,1,.9,13.37v4.46l.46,0a8,8,0,0,0,7.89-6.55l-2.91-1V42.52h7.79A3.44,3.44,0,0,0,73,39.09V32.78s2-.55,1.94-1.18-1.23-2.65-2.87-5C70.94,24.94,70.21,23.84,70.18,22Zm0,.22Z"/><path class="cls-5" d="M29.7,27C34.72,9.77,48,7.45,55.19,7.45c3.5,0,15,2,15,11.72H62.81a6.94,6.94,0,0,0-6.23,5.21l-1.7.68s0-3.85-3.28-3.29-2.49,5.33-.23,7,3.85,5.77,4.08,7a117.12,117.12,0,0,1,.9,13.37V71.73s-9.16-.34-9.16-5.5V47.76c-1.6.58-12.13,5.32-15.59,6.72C31.6,54.48,27,36.33,29.7,27Z"/><path class="cls-3" d="M71.6,11.39s.81-.64.77-.94a.91.91,0,0,0-.77-.79,6.39,6.39,0,0,0-2.54,0,4.77,4.77,0,0,0-1,3.39c.28.81,1.41,2.78,1.58,3.45a.19.19,0,0,1-.09.23c-4.76-.08-12.29-.91-15.46,5-.1.19-.2.39-.29.6a4.23,4.23,0,0,1,1,2.74l.57-.23,1.13-.45a6.94,6.94,0,0,1,6.23-5.21h8.4C72.6,19.17,73.4,13,71.6,11.39Z"/><path class="cls-4" d="M54.88,25.06s0-3.85-3.28-3.29-2.49,5.33-.23,7,3.85,5.77,4.08,7Z"/></svg>