<svg xmlns="http://www.w3.org/2000/svg" viewBox="0 0 105.48 94.04"><path d="M52.74,92.49a8.54,8.54,0,0,1-7.47-4.31L2.72,14.48A8.63,8.63,0,0,1,10.19,1.54h85.1a8.63,8.63,0,0,1,7.47,12.94L60.21,88.18a8.54,8.54,0,0,1-7.47,4.31" fill="#5d2f88"/><path d="M95.29,3.09a7.08,7.08,0,0,1,6.13,10.62L58.87,87.41a7.08,7.08,0,0,1-12.26,0L4.06,13.71A7.08,7.08,0,0,1,10.19,3.09h85.1m0-3.09H10.19A10.17,10.17,0,0,0,1.38,15.25L43.93,89a10.16,10.16,0,0,0,17.61,0l42.56-73.7A10.17,10.17,0,0,0,95.29,0" fill="#382259"/><path d="M33.71 16.66a26.09 26.09 0 0 0-7.14 18h0a26.09 26.09 0 0 1 7.14-18zm8.76-6.12h0a25.84 25.84 0 0 0-5.76 3.4h0a25.84 25.84 0 0 1 5.76-3.4zM75.2 34.62a22.35 22.35 0 0 0-3.43-11.92v23.83a22.32 22.32 0 0 0 3.43-11.91zM52.74 8.45A26.21 26.21 0 0 1 62 10.14h0a26.32 26.32 0 0 0-18.56 0h0a26.17 26.17 0 0 1 9.3-1.69zm26.17 26.17h0a26.09 26.09 0 0 0-7.14-18h0a26.09 26.09 0 0 1 7.14 18zM68.77 13.94h0a25.68 25.68 0 0 0-5.77-3.4h0a25.68 25.68 0 0 1 5.77 3.4zm-23.3 23.73v18.2A22.47 22.47 0 0 0 51.24 57V42.35a7.92 7.92 0 0 1-5.77-4.68zm8.77 4.68V57A22.48 22.48 0 0 0 60 55.87v-18.2a7.88 7.88 0 0 1-5.76 4.68zM60 31.56v-18.2a22.48 22.48 0 0 0-5.76-1.15v14.67A7.88 7.88 0 0 1 60 31.56zM42.47 54.59V14.64a22.6 22.6 0 0 0-5.76 4.26v31.43a22.6 22.6 0 0 0 5.76 4.26zm8.77-27.71V12.21a22.47 22.47 0 0 0-5.77 1.15v18.2a7.92 7.92 0 0 1 5.77-4.68zM33.71 22.7a22.35 22.35 0 0 0 0 23.83zm35.06 27.63V18.9A22.65 22.65 0 0 0 63 14.64v40a22.65 22.65 0 0 0 5.77-4.31z" fill="#f0ae00"/><path d="M78.91 34.62a26.09 26.09 0 0 0-7.14-18 26.68 26.68 0 0 0-3-2.72A25.68 25.68 0 0 0 63 10.54l-1-.4a26.32 26.32 0 0 0-18.56 0l-1 .4a25.84 25.84 0 0 0-5.76 3.4 26.68 26.68 0 0 0-3 2.72 26.09 26.09 0 0 0-7.14 18h0a26.09 26.09 0 0 0 7.14 18 26.68 26.68 0 0 0 3 2.72 25.84 25.84 0 0 0 5.76 3.4l1.18.47a26.31 26.31 0 0 0 18.18 0l1.17-.47a25.68 25.68 0 0 0 5.77-3.4 26.68 26.68 0 0 0 3-2.72 26.09 26.09 0 0 0 7.14-18zM33.71 22.7a22.67 22.67 0 0 1 8.76-8.06 24.8 24.8 0 0 1 3-1.28 22.47 22.47 0 0 1 5.77-1.15l1.5-.06 1.5.06A22.48 22.48 0 0 1 60 13.36a23.52 23.52 0 0 1 3 1.28 22.61 22.61 0 0 1 8.77 8.06 22.41 22.41 0 0 1 0 23.83A22.61 22.61 0 0 1 63 54.59a23.52 23.52 0 0 1-3 1.28A22.48 22.48 0 0 1 54.24 57q-.75.06-1.5.06c-.51 0-1 0-1.5-.06a22.47 22.47 0 0 1-5.77-1.15 24.8 24.8 0 0 1-3-1.28 22.6 22.6 0 0 1-5.76-4.26 22.49 22.49 0 0 1-6.44-15.71 22.36 22.36 0 0 1 3.44-11.9zm19.03 16.17a4.26 4.26 0 1 0-4.25-4.25 4.25 4.25 0 0 0 4.25 4.25z" fill="#fff"/></svg>