<svg id="Warstwa_1" data-name="Warstwa 1" xmlns="http://www.w3.org/2000/svg" viewBox="0 0 105.48 94.04"><defs><style>.cls-1{fill:#5d2f88;}.cls-2{fill:#382259;}.cls-3{fill:#f0ae00;}.cls-4{fill:#fff;}</style></defs><title>tropy-zuchowe-znaczki-popr-krz</title><path class="cls-1" d="M52.74,92.49a8.54,8.54,0,0,1-7.47-4.31L2.72,14.48A8.63,8.63,0,0,1,10.19,1.54h85.1a8.63,8.63,0,0,1,7.47,12.94L60.21,88.18a8.54,8.54,0,0,1-7.47,4.31"/><path class="cls-2" d="M95.29,3.09a7.08,7.08,0,0,1,6.13,10.62L58.87,87.41a7.08,7.08,0,0,1-12.26,0L4.06,13.71A7.08,7.08,0,0,1,10.19,3.09h85.1m0-3.09H10.19A10.17,10.17,0,0,0,1.38,15.25L43.93,89a10.16,10.16,0,0,0,17.61,0l42.56-73.7A10.17,10.17,0,0,0,95.29,0"/><path class="cls-3" d="M30.54,47.33s0,3.62.1,4.15a12.49,12.49,0,0,0,.89,3.1,7.14,7.14,0,0,0,2.56,2h0V49.81H32.56V47.37C32.41,47.37,31,47.36,30.54,47.33Z"/><path class="cls-3" d="M34.2,39.06A72,72,0,0,0,47,40.63a47,47,0,0,0,12.82-1,13.57,13.57,0,0,0-3-6.56,12.38,12.38,0,0,0-9.73-4.62,11.54,11.54,0,0,0-9.09,4.33A25.33,25.33,0,0,0,34.2,39.06Z"/><path class="cls-3" d="M59.81,42.45a49,49,0,0,1-10,.94c-1,0-2,0-3-.07a72.22,72.22,0,0,1-13.76-1.76c-1.5,1.61-6,1.48-6,2.51,0,.78,2.11,1.29,5,1.29a26.67,26.67,0,0,0,9.8-1.84c.51,3.88-.56,4.72-1.59,4.72a3.3,3.3,0,0,1-1.54-.49S37,58.3,45.84,58.3c10.8,0,7.78-12.59,8.63-12.59a.22.22,0,0,1,.15.08c.72.73,2.68,5.67,3,6.56,1.6,4.86,4,6.62,5.93,6.62.56,0,.89-.16.84-.44-.21-1.34-1.64-4.19-2.56-6.18A24.14,24.14,0,0,1,59.81,42.45Z"/><path class="cls-4" d="M63.77,52.75q.24.49.45,1V33.09A12.83,12.83,0,0,0,51.4,20.28V23A10.14,10.14,0,0,1,61.53,33.09V45a22.56,22.56,0,0,0,1.74,6.65C63.42,52,63.6,52.37,63.77,52.75Z"/><path class="cls-4" d="M55.13,13.88c0-1.74-1.67-6.53-3.73-6.53V18.26a14.78,14.78,0,0,1,3.73.47Z"/><path class="cls-4" d="M60,15.53c.45-1.68.08-6.74-1.91-7.27L55.27,18.77a14.52,14.52,0,0,1,3.47,1.44Z"/><path class="cls-4" d="M67.67,22.24c1.23-1.23,3.43-5.79,2-7.25L62,22.68a15.16,15.16,0,0,1,2.28,3Z"/><path class="cls-4" d="M66.24,33.15,71,31.89c1.68-.45,5.87-3.3,5.34-5.29L65.78,29.42a14.82,14.82,0,0,1,.46,3.67Z"/><path class="cls-4" d="M69.94,26.85c1.51-.87,4.82-4.71,3.79-6.49L64.31,25.8a14.57,14.57,0,0,1,1.43,3.48Z"/><path class="cls-4" d="M64.27,18.38c.87-1.51,1.82-6.49,0-7.51l-5.44,9.41a15.14,15.14,0,0,1,3,2.29Z"/><path class="cls-4" d="M70.62,37.88c1.74,0,6.52-1.67,6.52-3.73H66.24v3.73Z"/><path class="cls-4" d="M66.24,42.81h4.38c1.74,0,6.52-1.67,6.52-3.72H66.24Z"/><path class="cls-4" d="M69.55,47.68c1.6,0,6-1.53,6-3.43H66.24v3.43Z"/><path class="cls-4" d="M68.56,52.33c1.48,0,5.54-1.42,5.54-3.16H66.24v3.16Z"/><path class="cls-4" d="M67.65,57c1.36,0,5.11-1.3,5.11-2.91H66.24V57Z"/></svg>