<svg xmlns="http://www.w3.org/2000/svg" viewBox="0 0 105.48 94.04"><path d="M52.74,92.49a8.54,8.54,0,0,1-7.47-4.31L2.72,14.48A8.63,8.63,0,0,1,10.19,1.54h85.1a8.63,8.63,0,0,1,7.47,12.94L60.21,88.18a8.54,8.54,0,0,1-7.47,4.31" fill="#5d2f88"/><path d="M95.29,3.09a7.08,7.08,0,0,1,6.13,10.62L58.87,87.41a7.08,7.08,0,0,1-12.26,0L4.06,13.71A7.08,7.08,0,0,1,10.19,3.09h85.1m0-3.09H10.19A10.17,10.17,0,0,0,1.38,15.25L43.93,89a10.16,10.16,0,0,0,17.61,0l42.56-73.7A10.17,10.17,0,0,0,95.29,0" fill="#382259"/><path d="M52.74 6.97L28.77 18.34h47.94L52.74 6.97zM28.77 19.78h47.94v2.88H28.77zm-1.74 27.03h51.43v2.88H27.03zm1.74-4.32h47.94v2.88H28.77zm17.51-1.45h-4.47l.31-16.93h3.86l.3 16.93zm-8.69 0h-4.47l.3-16.93h3.86l.31 16.93zm34.77 0h-4.47l.31-16.93h3.86l.3 16.93zm-8.69 0H59.2l.3-16.93h3.86l.31 16.93zm-8.7 0H50.5l.31-16.93h3.86l.3 16.93z" fill="#fff"/><path d="M52.74 9.33l-14.01 6.64h28.01l-14-6.64z" fill="#f0ae00"/></svg>