<svg xmlns="http://www.w3.org/2000/svg" viewBox="0 0 105.48 94.04"><path d="M52.74,92.49a8.54,8.54,0,0,1-7.47-4.31L2.72,14.48A8.63,8.63,0,0,1,10.19,1.54h85.1a8.63,8.63,0,0,1,7.47,12.94L60.21,88.18a8.54,8.54,0,0,1-7.47,4.31" fill="#5d2f88"/><path d="M95.29,3.09a7.08,7.08,0,0,1,6.13,10.62L58.87,87.41a7.08,7.08,0,0,1-12.26,0L4.06,13.71A7.08,7.08,0,0,1,10.19,3.09h85.1m0-3.09H10.19A10.17,10.17,0,0,0,1.38,15.25L43.93,89a10.16,10.16,0,0,0,17.61,0l42.56-73.7A10.17,10.17,0,0,0,95.29,0" fill="#382259"/><path d="M74.57 29.15L72.08 32H56.71V15.17l2.82-2.45-6.79-5.64L46 12.72l2.81 2.49V32H33.35l-2.45-2.85-5.63 6.79 5.63 6.79 2.5-2.82h15.37v29.65a1.33 1.33 0 0 0 1.33 1.32h5.29a1.32 1.32 0 0 0 1.32-1.32V39.91h15.42l2.44 2.82 5.64-6.79z" fill="#f0ae00"/><g fill="#fff"><circle cx="65.69" cy="22.99" r="6.02"/><circle cx="39.85" cy="22.99" r="6.02"/><circle cx="65.69" cy="48.67" r="6.02"/><circle cx="39.85" cy="48.67" r="6.02"/></g></svg>