<svg xmlns="http://www.w3.org/2000/svg" viewBox="0 0 105.48 94.04"><path d="M52.74,92.49a8.54,8.54,0,0,1-7.47-4.31L2.72,14.48A8.63,8.63,0,0,1,10.19,1.54h85.1a8.63,8.63,0,0,1,7.47,12.94L60.21,88.18a8.54,8.54,0,0,1-7.47,4.31" fill="#5d2f88"/><path d="M95.29,3.09a7.08,7.08,0,0,1,6.13,10.62L58.87,87.41a7.08,7.08,0,0,1-12.26,0L4.06,13.71A7.08,7.08,0,0,1,10.19,3.09h85.1m0-3.09H10.19A10.17,10.17,0,0,0,1.38,15.25L43.93,89a10.16,10.16,0,0,0,17.61,0l42.56-73.7A10.17,10.17,0,0,0,95.29,0" fill="#382259"/><path d="M50.36 9.26l-.13 6.46h23V22H49.77l-.7 4.74 20.36.05 1.8 1.76a54 54 0 0 1-3.68 9.2 41.91 41.91 0 0 1-5.35 7.58 48.88 48.88 0 0 0 12 4.6l-3.31 6.64a50.91 50.91 0 0 1-13.49-6.73A44.07 44.07 0 0 1 42.27 57l-2-5.9a43.81 43.81 0 0 0 12.08-5.4 33.27 33.27 0 0 1-3.52-4.21 25.51 25.51 0 0 1-2.51-4.11 49.61 49.61 0 0 1-11.59 18.87l-3.44-4.9Q41.46 40.48 43.7 22H33.48v-6.28h10.7l.06-6.46zm6.82 32.49a27.41 27.41 0 0 0 6.07-9.09H50.14a27.58 27.58 0 0 0 7.04 9.09z" fill="#afca0b"/></svg>