<svg xmlns="http://www.w3.org/2000/svg" viewBox="0 0 105.48 94.04"><path d="M52.74,92.49a8.54,8.54,0,0,1-7.47-4.31L2.72,14.48A8.63,8.63,0,0,1,10.19,1.54h85.1a8.63,8.63,0,0,1,7.47,12.94L60.21,88.18a8.54,8.54,0,0,1-7.47,4.31" fill="#5d2f88"/><path d="M95.29,3.09a7.08,7.08,0,0,1,6.13,10.62L58.87,87.41a7.08,7.08,0,0,1-12.26,0L4.06,13.71A7.08,7.08,0,0,1,10.19,3.09h85.1m0-3.09H10.19A10.17,10.17,0,0,0,1.38,15.25L43.93,89a10.16,10.16,0,0,0,17.61,0l42.56-73.7A10.17,10.17,0,0,0,95.29,0" fill="#382259"/><path d="M42.94 55.14c-6.69-1.69-6-5.92-7.08-7.31a3.202 3.202 0 1 0-5 4c1.06 1.34 5.14 5.1 12.08 3.31zm-4.64 4.73a3.2 3.2 0 1 0 4.75 4.28c1.18-1.31.77-5.58 7.56-6.81-6.81-2.26-11.13 1.22-12.31 2.53zm11.86 1.58a4.56 4.56 0 1 0 6.34 1.18 4.56 4.56 0 0 0-6.34-1.18zm23.95-14.16a3.2 3.2 0 0 0-4.49.54c-1.09 1.39-.39 5.62-7.08 7.31 6.95 1.79 11-2 12.11-3.36a3.2 3.2 0 0 0-.54-4.49zM54.86 57.34c6.8 1.23 6.38 5.5 7.57 6.81a3.2 3.2 0 1 0 4.75-4.28c-1.18-1.31-5.5-4.79-12.32-2.53z" fill="#afca0b"/><path d="M34.71 42.1c2.66 5.42 14.77 12.21 18.09 12.21s15.41-6.84 18-12.27c1.92-4-.3-13.78-.31-18.5 0-5.1 2.26-5.23 1.65-6.13-2-2.89-7-3.18-12.51-.39-.73.36-.42-4.73-7-8.34-6.51 3.63-6.18 8.73-6.92 8.36-5.57-2.77-10.55-2.47-12.51.44-.6.9 1.66 1 1.67 6.12.13 4.72-2.09 14.55-.16 18.5zm3.41-6.59c1.33-3.33 5.51 3.65 6.54 1.68 1.37-2.6-6.52-5.23-5.5-8.51 2.05-6.59 7.94-7.76 8-7.44.59 2.65 1.77 8.56 2.47 8.56 0 0 0-7.19 3.1-8.26 3 1.07 3.1 8.26 3.1 8.26.69 0 1.88-5.91 2.47-8.56.07-.32 6 .85 8 7.44 1 3.28-6.88 5.91-5.5 8.51 1 2 5.21-5 6.54-1.68 1.12 2.81-4.36 14.86-14.62 15.9-10.24-1.04-15.72-13.09-14.6-15.9z" fill="#26b4e6"/><path d="M52.74 51.41c10.26-1 15.74-13.09 14.62-15.9-1.33-3.33-5.51 3.65-6.54 1.68-1.38-2.6 6.51-5.23 5.5-8.51-2-6.59-7.94-7.76-8-7.44-.59 2.65-1.78 8.56-2.47 8.56 0 0-.05-7.19-3.1-8.26-3.05 1.07-3.1 8.26-3.1 8.26-.7 0-1.88-5.91-2.47-8.56-.07-.32-6 .85-8 7.44-1 3.28 6.87 5.91 5.5 8.51-1 2-5.21-5-6.54-1.68-1.14 2.81 4.34 14.86 14.6 15.9zm0-18h0s5.9 4.63 5.9 9.19a6.73 6.73 0 0 1-2.29 4.62 4.07 4.07 0 0 0 .7-2.22c0-3.34-4.32-6.73-4.32-6.73h0s-4.31 3.41-4.3 6.75a4 4 0 0 0 .7 2.18 6.73 6.73 0 0 1-2.28-4.58c0-4.55 5.87-9.2 5.87-9.2z" fill="#fefefd"/></svg>