<svg id="Warstwa_1" data-name="Warstwa 1" xmlns="http://www.w3.org/2000/svg" viewBox="0 0 105.47 94.04"><defs><style>.cls-1{fill:#5d2f88;}.cls-2{fill:#382259;}.cls-3{fill:#fff;}.cls-4{fill:#f0ae00;}</style></defs><title>tropy-zuchowe-znaczki-popr-krz</title><path class="cls-1" d="M52.74,92.49a8.54,8.54,0,0,1-7.47-4.31L2.72,14.48A8.62,8.62,0,0,1,10.18,1.54H95.29a8.63,8.63,0,0,1,7.47,12.94L60.2,88.18a8.53,8.53,0,0,1-7.46,4.31"/><path class="cls-2" d="M95.29,3.09a7.08,7.08,0,0,1,6.13,10.62L58.87,87.41a7.08,7.08,0,0,1-12.26,0L4.05,13.71A7.08,7.08,0,0,1,10.18,3.09H95.29m0-3.09H10.18a10.17,10.17,0,0,0-8.8,15.25L43.93,89a10.16,10.16,0,0,0,17.61,0l42.55-73.7a10.06,10.06,0,0,0,0-10.17A10,10,0,0,0,95.29,0"/><rect class="cls-3" x="34.61" y="44.95" width="35.42" height="8.86"/><polygon class="cls-4" points="52.32 53.8 43.47 44.95 61.18 44.95 52.32 53.8"/><polygon class="cls-4" points="34.61 53.8 34.61 44.95 43.47 44.95 34.61 53.8"/><polygon class="cls-4" points="70.03 53.8 70.03 44.95 61.18 44.95 70.03 53.8"/><path class="cls-3" d="M80.38,10.62a11.07,11.07,0,0,0-5,2.8,43.27,43.27,0,0,1,.34,5.25c.06,5.57-6,16.09-9.59,21.81,4-3.94,13.32-13.63,14.57-18.59C82.24,15.73,81.47,12.43,80.38,10.62Z"/><path class="cls-4" d="M62,18a12.49,12.49,0,0,0-.56,1.44A17.55,17.55,0,0,0,60.83,23l2.31,8.44-2.5-3.57c0,6.73.67,14.37.67,14.37a130.19,130.19,0,0,0,9.28-16.43l-4,1.62L72,22a11.35,11.35,0,0,0,.57-3.25c0-3.81-.47-8.49-2.16-10-2.56.39-5.1,3.41-6.85,6.28l1.78,7.49Z"/></svg>