<svg id="Warstwa_1" data-name="Warstwa 1" xmlns="http://www.w3.org/2000/svg" viewBox="0 0 111.28 99.21"><defs><style>.cls-1{fill:#5d2f88;}.cls-2{fill:#382259;}.cls-3{fill:#f0ae00;}.cls-4{fill:#ef7d00;}.cls-5{fill:#fff;}</style></defs><title>tropy-zuchowe-znaczki-popr-krz</title><path class="cls-1" d="M55.64,97.58A9,9,0,0,1,47.76,93L2.86,15.27A9.1,9.1,0,0,1,10.74,1.63h89.79a9.1,9.1,0,0,1,7.88,13.64L63.52,93a9,9,0,0,1-7.88,4.54"/><path class="cls-2" d="M100.53,3.26A7.47,7.47,0,0,1,107,14.46L62.11,92.22a7.48,7.48,0,0,1-12.94,0L4.28,14.46a7.46,7.46,0,0,1,6.46-11.2h89.79m0-3.26H10.74A10.73,10.73,0,0,0,1.45,16.09l44.9,77.76a10.73,10.73,0,0,0,18.58,0l44.89-77.76a10.62,10.62,0,0,0,0-10.73A10.61,10.61,0,0,0,100.53,0"/><path class="cls-3" d="M80.25,30.15V51.23a1.91,1.91,0,0,1-1.9,1.91H72.86A1.91,1.91,0,0,1,71,51.23V42l-.09,0c-5.88,1.51-13.43-.27-15-.83h0V51.23a1.91,1.91,0,0,1-1.9,1.91H48.43a1.91,1.91,0,0,1-1.9-1.91V32.51s-3.83,1.07-3.76,2.7a34.47,34.47,0,0,1-.5,8.12,7.84,7.84,0,0,1-8,6.36h0c-3.78,0-7.37-2.38-7.87-6.26a.67.67,0,0,1,.53-.74l3.8-.76a.69.69,0,0,1,.79.49A2.24,2.24,0,0,0,33.67,44h0c1.24,0,2.48-1.13,2.41-3.12a107.34,107.34,0,0,0-2.25-19.47C31.78,12,42.17,8.6,49.89,8.58,52.74,8.58,80.25,30.15,80.25,30.15Z"/><path class="cls-1" d="M45.47,23a2.84,2.84,0,1,1-2.83-2.84A2.83,2.83,0,0,1,45.47,23"/><path class="cls-4" d="M85,37.17c-.11.41-2.82,9.75-2.82,9.75l-4.43-4.4L73.32,47,68.9,42.58l-5.77,5.74-4.66-4.66L54.12,48l-4.56-4.56-4.62,4.62s-.25-10.71-.12-12.35c.21-2.8,5.31-3.41,7.39-5.41,4.69-4.52,4.19-9.07,4.56-10.79.45-2.09-6.44-5.65-5.72-7.61,1.11-3.05,5.85-8.06,12.8-4.08,4,2.28,6.29,6.25,10.08,9a13.75,13.75,0,0,0,3,1.5c4.15,1.59,9.36,3.26,10.08,8.2C87.48,30,85.89,33.83,85,37.17Z"/><path class="cls-5" d="M47.83,31.11C47,30,46.29,30,45.33,30.68c-.66.51-1.2,1.12-1.79,1.64a8.32,8.32,0,0,1-2.65,1.55,9.5,9.5,0,0,1-6.72-.28,10.26,10.26,0,0,1-4.59-3.67c-1.09-1.9-.47-4.49.57-6.21A.49.49,0,0,0,29.5,23c-1.72.89-3,3.44-3,5.61a7.18,7.18,0,0,0,.39,2.28c1.53,4.08,6,6.8,10.14,7.35a12.1,12.1,0,0,0,10.4-3.75A2.65,2.65,0,0,0,47.83,31.11Z"/><path class="cls-4" d="M42.44,7.32a9,9,0,0,0-6,2.27C31.11,15,32.83,20.47,32.83,20.47l4.71-4.73,2.91,2.91,4.1-4.08L48,15.78s11.62-5.09,12.12-5.15C59.8,9.12,44.66,7.24,42.44,7.32Z"/><path class="cls-3" d="M54.72,26.32c.29.36,9.1-2.35,9.44-9.44.25-5.21-4.88-8.9-9.65-8.9a9.76,9.76,0,0,0-7.62,4.45S47.46,17.28,54.72,26.32Z"/><path class="cls-4" d="M57.05,22c1.64-.84,3.72-2.47,3.53-5.25a5.22,5.22,0,0,0-3.75-4.57,5.45,5.45,0,0,0-5.16,1.05A1.1,1.1,0,0,0,51.79,15a7.83,7.83,0,0,1,3.31,6A1.34,1.34,0,0,0,57.05,22Z"/></svg>