<svg id="Warstwa_1" data-name="Warstwa 1" xmlns="http://www.w3.org/2000/svg" viewBox="0 0 111.28 99.21"><defs><style>.cls-1{fill:#5d2f88;}.cls-2{fill:#382259;}.cls-3{fill:#f0ae00;}.cls-4{fill:#c90c0f;}</style></defs><title>tropy-zuchowe-znaczki-popr-krz</title><path class="cls-1" d="M55.64,97.58A9,9,0,0,1,47.76,93L2.86,15.27A9.1,9.1,0,0,1,10.74,1.63h89.79a9.1,9.1,0,0,1,7.88,13.64L63.52,93a9,9,0,0,1-7.88,4.54"/><path class="cls-2" d="M100.53,3.26A7.47,7.47,0,0,1,107,14.46L62.11,92.22a7.48,7.48,0,0,1-12.94,0L4.28,14.46a7.46,7.46,0,0,1,6.46-11.2h89.79m0-3.26H10.74A10.73,10.73,0,0,0,1.45,16.09l44.9,77.76a10.73,10.73,0,0,0,18.58,0l44.89-77.76a10.62,10.62,0,0,0,0-10.73A10.61,10.61,0,0,0,100.53,0"/><path class="cls-3" d="M74.69,56.93a1.85,1.85,0,0,0-2.25,1.61,4.13,4.13,0,0,0,.34,1.66c-.29,1.69-1.81,1.55-1.32,4.1a2,2,0,0,0,1.42,1.82c1.5.44,2.13-1.32,2.59-2.16a35.32,35.32,0,0,0,2.74-8,4.75,4.75,0,0,0-.59-2.77C77.26,52.72,76.56,56.06,74.69,56.93Z"/><path class="cls-3" d="M75.29,31.24a6.77,6.77,0,0,1-3.66-.85,12,12,0,0,1-1.79,4.93c-2.3,3.1-9,.51-12.07,0L44.53,32.94c-1.13-.21-6-.41-6.52-1.69-.73-1.76,1.81-2.87,3.15-3,4.08-.36,9.23,1.5,13.26,2.22,1.63.28,4.6,1.41,5.94.19,1.14-1,1.16-4.73,1.43-6.24A52.08,52.08,0,0,1,63,17.82a5.07,5.07,0,0,1,.49-1.15c-.18-.49-.23-.72-.1-.57a12.07,12.07,0,0,0,.38-4.53c-.92,1.16-11.14-.85-12-.61-2.13.63-.58,2.29-1.92,2.8-.68.26-6.73-2.61-7.49-3.1C40.64,9.54,43.34,8.5,42,7c-.85-1-13.6.91-14,1.51-1.4,2.33-2.84,5.76-4.45,6.6-3.26,1.73-6.41,6.4-5.62,7.62,1.95,3-.58,4.31-.54,6.34,0,.41,6.59,8.68,9.41,8.89,1.84.14,5.48-1.27,8.08-1.51a2.92,2.92,0,0,1,2.28-.56c1.4.06,5.38.44,6.47,1.27,1.55,1.18.56,3.54.27,5.17L43.09,47c1.22,1.9,2.48,3.9,2.15,5.62-.67,3.46-3.31,4.26-1,7.85a6.34,6.34,0,0,1,.44.83c.21-1.32.48-2.53.58-3.06l2.07-11.71c.66-3.7.75-8.21,5.61-7.94,4,.23,8.24,1.46,12.22,2.17,2.2.39,3.6.35,3.71,2.75.1,2.15-.71,3.59-2.76,3.72-4,.24-8.2-2.4-12.22-2.17-3.51.21-3.24,6.47-3.75,9.31s-.46,9.13-2.91,11.16a5.7,5.7,0,0,1-1.05.71c.85,3.63,1.56,7.59,2.4,8.53.69.79,4.85-.14,6.39-.62,3-.92,10.06-8.42,9.57-11.37,0-.09-1.14-1.71-.63-2.44,2.09-3,7.51-1.68,5.77-8.1-.51-1.9-1.9-3.46-1.18-5.68.25-.78,2.49-2.67,4.9-5,.21-1.46.52-2.84.62-3.42ZM50.45,23.79c.69-1.66,3.62-3.41,5.2-4,6.27-2.41,4.33,8.87-.37,8C52.52,27.33,49,27.29,50.45,23.79ZM62,52.52c-.69,1.65-3.63,3.41-5.21,4-6.26,2.41-4.32-8.87.37-8C59.91,49,63.44,49,62,52.52Z"/><path class="cls-4" d="M57.14,48.49c-4.69-.83-6.63,10.45-.37,8,1.58-.6,4.52-2.36,5.21-4C63.44,49,59.91,49,57.14,48.49Z"/><path class="cls-4" d="M50.18,54.41c.51-2.84.24-9.1,3.75-9.31,4-.23,8.21,2.41,12.22,2.17,2-.13,2.86-1.57,2.76-3.72-.11-2.4-1.51-2.36-3.71-2.75-4-.71-8.19-1.94-12.22-2.17-4.86-.27-4.95,4.24-5.61,7.94L45.3,58.28c-.1.53-.37,1.74-.58,3.06a29.74,29.74,0,0,1,1.5,4.94,5.7,5.7,0,0,0,1.05-.71C49.72,63.54,49.66,57.38,50.18,54.41Z"/><path class="cls-4" d="M43.66,37.11c-1.09-.83-5.07-1.21-6.47-1.27a2.92,2.92,0,0,0-2.28.56,9.11,9.11,0,0,1,3.63,1.28c1,.63,3.49,2.32,2.67,4.29-.55,1.33.64,3.15,1.88,5.07l.84-4.76C44.22,40.65,45.21,38.29,43.66,37.11Z"/><path class="cls-4" d="M55.28,27.82c4.7.83,6.64-10.45.37-8-1.58.6-4.51,2.35-5.2,4C49,27.29,52.52,27.33,55.28,27.82Z"/><path class="cls-4" d="M61.79,24.44c-.27,1.51-.29,5.2-1.43,6.24-1.34,1.22-4.31.09-5.94-.19-4-.72-9.18-2.58-13.26-2.22-1.34.11-3.88,1.22-3.15,3,.52,1.28,5.39,1.48,6.52,1.69l13.24,2.34c3.1.55,9.77,3.14,12.07,0a12,12,0,0,0,1.79-4.93A7.47,7.47,0,0,1,69,27.75a83.52,83.52,0,0,1-5.56-11.08A5.07,5.07,0,0,0,63,17.82,52.08,52.08,0,0,0,61.79,24.44Z"/><path class="cls-4" d="M79.6,31.33c-.18-1-2-.15-4.31-.09l-1.23,6.93c-.1.58-.41,2-.62,3.42C76.67,38.44,80.21,34.48,79.6,31.33Z"/></svg>