<svg id="Warstwa_1" data-name="Warstwa 1" xmlns="http://www.w3.org/2000/svg" viewBox="0 0 105.48 94.04"><defs><style>.cls-1{fill:#5d2f88;}.cls-2{fill:#382259;}.cls-3{fill:none;}.cls-4{fill:#fff;}.cls-5{fill:#f0ae00;}</style></defs><title>tropy-zuchowe-znaczki-popr-krz</title><path class="cls-1" d="M52.74,92.49a8.54,8.54,0,0,1-7.47-4.31L2.72,14.48A8.63,8.63,0,0,1,10.19,1.54h85.1a8.63,8.63,0,0,1,7.47,12.94L60.21,88.18a8.54,8.54,0,0,1-7.47,4.31"/><path class="cls-2" d="M95.29,3.09a7.08,7.08,0,0,1,6.13,10.62L58.87,87.41a7.08,7.08,0,0,1-12.26,0L4.06,13.71A7.08,7.08,0,0,1,10.19,3.09h85.1m0-3.09H10.19A10.17,10.17,0,0,0,1.38,15.25L43.93,89a10.16,10.16,0,0,0,17.61,0l42.56-73.7A10.17,10.17,0,0,0,95.29,0"/><path class="cls-3" d="M36.81,37.78C38.29,50.4,45.4,55.45,49.73,58.51a24.6,24.6,0,0,1,2.72,2.1,24.6,24.6,0,0,1,2.72-2.1c4.26-3,11.2-7.91,12.85-20C62.3,44.3,57.46,45,52.74,45,47.85,45,42.81,44.23,36.81,37.78Z"/><path class="cls-4" d="M50,68.38c-.47,1.87-1.08,4-1.7,5.92a1.51,1.51,0,0,0,1,1.89,1.47,1.47,0,0,0,.46.07,1.51,1.51,0,0,0,1.43-1c.33-1,.82-2.6,1.28-4.28.46,1.68.95,3.23,1.28,4.28a1.51,1.51,0,0,0,1.43,1,1.47,1.47,0,0,0,.46-.07,1.51,1.51,0,0,0,1-1.89c-.62-1.92-1.23-4-1.7-5.92Z"/><path class="cls-4" d="M86.32,26c-3.63-3.75-8.71.84-15.63,9.48a40.15,40.15,0,0,1-2.67,3c-1.65,12.13-8.59,17-12.85,20a24.6,24.6,0,0,0-2.72,2.1,24.6,24.6,0,0,0-2.72-2.1C45.4,55.45,38.29,50.4,36.81,37.78c-.66-.71-1.34-1.48-2-2.34-6.92-8.64-12-13.23-15.62-9.48-1.42,1.53-1.47,3.1,0,4.62,1.85,1.91,6.85,5,14.51,5.94C34.85,51.65,43.07,57.47,48,61a28.48,28.48,0,0,1,2.32,1.75h4.26A28.48,28.48,0,0,1,56.9,61c4.93-3.48,13.13-9.3,14.32-24.38,8-.88,13.2-4,15.1-6C87.79,29.06,87.74,27.49,86.32,26Z"/><path class="cls-5" d="M34.78,35.44c.69.86,1.37,1.63,2,2.34,6,6.45,11,7.23,15.93,7.23,4.72,0,9.56-.71,15.28-6.54a40.15,40.15,0,0,0,2.67-3c6.92-8.64,12-13.23,15.63-9.48,0,0-3.77-4.48-10.68-1.47-2.27,1-4.75,2.06-7.31,3.08-.1-.35-.2-.71-.3-1.09.38,1.37.71,2.58.94,3.52a2.14,2.14,0,0,1-.58,2.35,26.5,26.5,0,0,1-31.49-.13,2,2,0,0,1-.42-2.15c.23-.92.56-2.15,1-3.53-.11.35-.2.7-.29,1-2.56-1-5-2.1-7.31-3.08C22.92,21.48,19.16,26,19.16,26,22.78,22.21,27.86,26.8,34.78,35.44Z"/><path class="cls-5" d="M37.44,26.52l.4-1.39Z"/><path class="cls-5" d="M52.74,30.56a24.1,24.1,0,0,0,14.52-5.12,1.48,1.48,0,0,0,.35-.4c-1.67-5.72-4.11-13.12-5.44-14.51a4.24,4.24,0,0,0-6.12,0c-1.23,1.21-5.4,1.21-6.62,0a4.24,4.24,0,0,0-6.12,0C42,11.92,39.52,19.38,37.85,25.1a1.9,1.9,0,0,0,.19.21A24.22,24.22,0,0,0,52.74,30.56Z"/><path class="cls-5" d="M67.62,25.06c.13.46.26.92.39,1.35C67.88,26,67.75,25.52,67.62,25.06Z"/><path class="cls-4" d="M36.48,30.07a2,2,0,0,0,.42,2.15,26.5,26.5,0,0,0,31.49.13A2.14,2.14,0,0,0,69,30c-.23-.94-.56-2.15-.94-3.52l0-.07c-.13-.43-.26-.89-.39-1.35v0h0a1.48,1.48,0,0,1-.35.4,24.1,24.1,0,0,1-14.52,5.12A24.22,24.22,0,0,1,38,25.31a1.9,1.9,0,0,1-.19-.21h0v0l-.4,1.39v0C37,27.92,36.71,29.15,36.48,30.07Z"/><polygon class="cls-5" points="50.32 62.72 49.68 62.72 49.68 68.38 50.01 68.38 54.89 68.38 55.35 68.38 55.35 62.72 54.58 62.72 50.32 62.72"/></svg>