<svg xmlns="http://www.w3.org/2000/svg" viewBox="0 0 105.48 94.04"><path d="M52.74,92.49a8.54,8.54,0,0,1-7.47-4.31L2.72,14.48A8.63,8.63,0,0,1,10.19,1.54h85.1a8.63,8.63,0,0,1,7.47,12.94L60.21,88.18a8.54,8.54,0,0,1-7.47,4.31" fill="#5d2f88"/><path d="M95.29,3.09a7.08,7.08,0,0,1,6.13,10.62L58.87,87.41a7.08,7.08,0,0,1-12.26,0L4.06,13.71A7.08,7.08,0,0,1,10.19,3.09h85.1m0-3.09H10.19A10.17,10.17,0,0,0,1.38,15.25L43.93,89a10.16,10.16,0,0,0,17.61,0l42.56-73.7A10.17,10.17,0,0,0,95.29,0" fill="#382259"/><path d="M56.81 56.67h-.54-.08a3 3 0 0 1-2.84-3v-4.48l-.07-3.32h-.43l-14 5.1a18.76 18.76 0 0 0 36 0l-7.34-2.7a11 11 0 0 1-10.7 8.4z" fill="#f0ae00"/><path d="M70.18 22v-2.78h-7.37a6.94 6.94 0 0 0-6.23 5.21l-1.7.68s0-3.34-2.65-3.34a4.7 4.7 0 0 0-.63.05c-3.29.57-2.49 5.33-.23 7s3.85 5.77 4.08 7a117.12 117.12 0 0 1 .9 13.37v4.46h.46a8 8 0 0 0 7.89-6.55l-2.91-1v-3.58h7.79A3.44 3.44 0 0 0 73 39.09v-6.31s2-.55 1.94-1.18-1.23-2.65-2.87-5c-1.13-1.66-1.86-2.76-1.89-4.6zm0 .22z" fill="#ef7d00"/><path d="M29.7 27C34.72 9.77 48 7.45 55.19 7.45c3.5 0 15 2 15 11.72h-7.38a6.94 6.94 0 0 0-6.23 5.21l-1.7.68s0-3.85-3.28-3.29-2.49 5.33-.23 7 3.85 5.77 4.08 7a117.12 117.12 0 0 1 .9 13.37v22.59s-9.16-.34-9.16-5.5V47.76c-1.6.58-12.13 5.32-15.59 6.72 0 0-4.6-18.15-1.9-27.48z" fill="#26b4e6"/><path d="M71.6,11.39s.81-.64.77-.94a.91.91,0,0,0-.77-.79,6.39,6.39,0,0,0-2.54,0,4.77,4.77,0,0,0-1,3.39c.28.81,1.41,2.78,1.58,3.45a.19.19,0,0,1-.09.23c-4.76-.08-12.29-.91-15.46,5-.1.19-.2.39-.29.6a4.23,4.23,0,0,1,1,2.74l.57-.23,1.13-.45a6.94,6.94,0,0,1,6.23-5.21h8.4C72.6,19.17,73.4,13,71.6,11.39Z" fill="#f0ae00"/><path d="M54.88,25.06s0-3.85-3.28-3.29-2.49,5.33-.23,7,3.85,5.77,4.08,7Z" fill="#ef7d00"/></svg>