<svg xmlns="http://www.w3.org/2000/svg" viewBox="0 0 105.47 94.04"><path d="M52.74,92.49a8.54,8.54,0,0,1-7.47-4.31L2.72,14.48A8.62,8.62,0,0,1,10.18,1.54H95.29a8.63,8.63,0,0,1,7.47,12.94L60.2,88.18a8.53,8.53,0,0,1-7.46,4.31" fill="#5d2f88"/><path d="M95.29,3.09a7.08,7.08,0,0,1,6.13,10.62L58.87,87.41a7.08,7.08,0,0,1-12.26,0L4.05,13.71A7.08,7.08,0,0,1,10.18,3.09H95.29m0-3.09H10.18a10.17,10.17,0,0,0-8.8,15.25L43.93,89a10.16,10.16,0,0,0,17.61,0l42.55-73.7a10.06,10.06,0,0,0,0-10.17A10,10,0,0,0,95.29,0" fill="#382259"/><path d="M34.61 44.95h35.42v8.86H34.61z" fill="#fff"/><g fill="#f0ae00"><path d="M52.32 53.8l-8.85-8.85h17.71l-8.86 8.85z"/><path d="M34.61 53.8v-8.85h8.86l-8.86 8.85zm35.42 0v-8.85h-8.85l8.85 8.85z"/></g><path d="M80.38 10.62a11.07 11.07 0 0 0-5 2.8 43.27 43.27 0 0 1 .34 5.25c.06 5.57-6 16.09-9.59 21.81 4-3.94 13.32-13.63 14.57-18.59 1.54-6.16.77-9.46-.32-11.27z" fill="#fff"/><path d="M62,18a12.49,12.49,0,0,0-.56,1.44A17.55,17.55,0,0,0,60.83,23l2.31,8.44-2.5-3.57c0,6.73.67,14.37.67,14.37a130.19,130.19,0,0,0,9.28-16.43l-4,1.62L72,22a11.35,11.35,0,0,0,.57-3.25c0-3.81-.47-8.49-2.16-10-2.56.39-5.1,3.41-6.85,6.28l1.78,7.49Z" fill="#f0ae00"/></svg>