<svg id="Warstwa_1" data-name="Warstwa 1" xmlns="http://www.w3.org/2000/svg" viewBox="0 0 105.48 94.04"><defs><style>.cls-1{fill:#5d2f88;}.cls-2{fill:#382259;}.cls-3{fill:#fff;}.cls-4{fill:#f0ae00;}</style></defs><title>tropy-zuchowe-znaczki-popr-krz</title><path class="cls-1" d="M52.74,92.49a8.54,8.54,0,0,1-7.47-4.31L2.72,14.48A8.63,8.63,0,0,1,10.19,1.54h85.1a8.63,8.63,0,0,1,7.47,12.94L60.21,88.18a8.54,8.54,0,0,1-7.47,4.31"/><path class="cls-2" d="M95.29,3.09a7.08,7.08,0,0,1,6.13,10.62L58.87,87.41a7.08,7.08,0,0,1-12.26,0L4.06,13.71A7.08,7.08,0,0,1,10.19,3.09h85.1m0-3.09H10.19A10.17,10.17,0,0,0,1.38,15.25L43.93,89a10.16,10.16,0,0,0,17.61,0l42.56-73.7A10.17,10.17,0,0,0,95.29,0"/><path class="cls-3" d="M61.3,16.81H43.79l-5,11.24h3v7.43L43.5,38h3.78L47,41.22H58.5L58.2,38h3.67l1.72-2.51V28.05h3.09Zm-.57,8H57.34V33H48.53V24.85H44.75a1.5,1.5,0,0,1,0-3h6.78V30h2.81V21.85h6.39a1.5,1.5,0,0,1,0,3Z"/><path class="cls-4" d="M65.2,12.37H65A12.22,12.22,0,0,1,54.81,7H50.18a12.22,12.22,0,0,1-9.91,5.39v2.2H65.2Z"/><path class="cls-4" d="M43.76,73.65l-.14,1.51a2.7,2.7,0,0,0,2.69,2.93H59.17a2.69,2.69,0,0,0,2.68-2.93l-.14-1.51Z"/><polygon class="cls-4" points="46.52 44 45.4 56.04 60.08 56.04 58.95 44 46.52 44"/><polygon class="cls-4" points="44.02 70.87 61.45 70.87 60.33 58.83 45.14 58.83 44.02 70.87"/></svg>