<svg id="Warstwa_1" data-name="Warstwa 1" xmlns="http://www.w3.org/2000/svg" viewBox="0 0 105.48 94.04"><defs><style>.cls-1{fill:#5d2f88;}.cls-2{fill:#382259;}.cls-3{fill:#fff;}.cls-4{fill:#f0ae00;}</style></defs><title>tropy-zuchowe-znaczki-popr-krz</title><path class="cls-1" d="M52.74,92.49a8.54,8.54,0,0,1-7.47-4.31L2.72,14.48A8.63,8.63,0,0,1,10.19,1.54h85.1a8.63,8.63,0,0,1,7.47,12.94L60.21,88.18a8.54,8.54,0,0,1-7.47,4.31"/><path class="cls-2" d="M95.29,3.09a7.08,7.08,0,0,1,6.13,10.62L58.87,87.41a7.08,7.08,0,0,1-12.26,0L4.06,13.71A7.08,7.08,0,0,1,10.19,3.09h85.1m0-3.09H10.19A10.17,10.17,0,0,0,1.38,15.25L43.93,89a10.16,10.16,0,0,0,17.61,0l42.56-73.7A10.17,10.17,0,0,0,95.29,0"/><polygon class="cls-3" points="52.74 6.97 28.77 18.34 76.71 18.34 52.74 6.97"/><rect class="cls-3" x="28.77" y="19.78" width="47.94" height="2.88"/><rect class="cls-3" x="27.03" y="46.81" width="51.43" height="2.88"/><rect class="cls-3" x="28.77" y="42.49" width="47.94" height="2.88"/><polygon class="cls-3" points="46.28 41.04 41.81 41.04 42.12 24.11 45.98 24.11 46.28 41.04"/><polygon class="cls-3" points="37.59 41.04 33.12 41.04 33.42 24.11 37.28 24.11 37.59 41.04"/><polygon class="cls-3" points="72.36 41.04 67.89 41.04 68.2 24.11 72.06 24.11 72.36 41.04"/><polygon class="cls-3" points="63.67 41.04 59.2 41.04 59.5 24.11 63.36 24.11 63.67 41.04"/><polygon class="cls-3" points="54.97 41.04 50.5 41.04 50.81 24.11 54.67 24.11 54.97 41.04"/><polygon class="cls-4" points="52.74 9.33 38.73 15.97 66.74 15.97 52.74 9.33"/></svg>