<svg id="Warstwa_1" data-name="Warstwa 1" xmlns="http://www.w3.org/2000/svg" viewBox="0 0 111.28 99.21"><defs><style>.cls-1{fill:#5d2f88;}.cls-2{fill:#382259;}.cls-3{fill:#afca0b;}.cls-4{fill:#26b4e6;}.cls-5{fill:#fff;}</style></defs><title>tropy-zuchowe-znaczki-popr-krz</title><path class="cls-1" d="M55.64,97.58A9,9,0,0,1,47.76,93L2.86,15.27A9.1,9.1,0,0,1,10.74,1.63h89.79a9.1,9.1,0,0,1,7.88,13.64L63.52,93a9,9,0,0,1-7.88,4.54"/><path class="cls-2" d="M100.53,3.26A7.47,7.47,0,0,1,107,14.46L62.11,92.22a7.48,7.48,0,0,1-12.94,0L4.28,14.46a7.46,7.46,0,0,1,6.46-11.2h89.79m0-3.26H10.74A10.73,10.73,0,0,0,1.45,16.09l44.9,77.76a10.73,10.73,0,0,0,18.58,0l44.89-77.76a10.62,10.62,0,0,0,0-10.73A10.61,10.61,0,0,0,100.53,0"/><path class="cls-3" d="M67.15,57.16l-5.36-9.3-8.71,5c3.73,3.07,7.62,4.81,11,4.81A8.55,8.55,0,0,0,67.15,57.16Z"/><path class="cls-3" d="M49.28,26.19l-9.43,5.45a40.11,40.11,0,0,0,3.71,9.41l10.72-6.19Z"/><path class="cls-4" d="M44.83,13.48l5.36,9.29,8.71-5c-3.73-3.07-7.62-4.81-11-4.81A8.59,8.59,0,0,0,44.83,13.48Z"/><path class="cls-3" d="M37.07,25.11A19.38,19.38,0,0,1,38,18.54,24.75,24.75,0,0,0,31.44,33.6L37.6,30A28.44,28.44,0,0,1,37.07,25.11Z"/><path class="cls-3" d="M55.53,37,44.82,43.21a40.55,40.55,0,0,0,6.29,7.93l9.43-5.44Z"/><path class="cls-4" d="M56.45,33.61l10.72-6.19a40.5,40.5,0,0,0-6.3-7.92l-9.43,5.44Z"/><path class="cls-4" d="M69.32,55.91c3.29-2.69,4.4-8.06,3.36-14.33l-8.72,5Z"/><path class="cls-4" d="M62.7,44.45,72.13,39a40.74,40.74,0,0,0-3.7-9.42L57.7,35.78Z"/><path class="cls-4" d="M74,52.09A24.61,24.61,0,0,0,80.54,37l-6.13,3.54A23,23,0,0,1,74,52.09Z"/><path class="cls-4" d="M73.82,38l6.75-3.9a24.51,24.51,0,0,0-2.67-10L70,28.65A42.66,42.66,0,0,1,73.82,38Z"/><path class="cls-3" d="M38.18,32.6l-6.77,3.9a24.58,24.58,0,0,0,2.67,10L42,42A43,43,0,0,1,38.18,32.6Z"/><path class="cls-4" d="M66.78,13.2a24.71,24.71,0,0,0-16.34-1.86,23.27,23.27,0,0,1,10.18,5.41Z"/><path class="cls-3" d="M42.66,14.73c-3.29,2.69-4.4,8.05-3.35,14.33L48,24Z"/><path class="cls-4" d="M68.78,26.49,76.65,22a24.5,24.5,0,0,0-7.34-7.32l-6.78,3.91A42.41,42.41,0,0,1,68.78,26.49Z"/><path class="cls-3" d="M43.2,44.15l-7.87,4.54A24.54,24.54,0,0,0,42.68,56l6.77-3.91A43.16,43.16,0,0,1,43.2,44.15Z"/><path class="cls-3" d="M45.21,57.44a24.6,24.6,0,0,0,16.33,1.85,23.12,23.12,0,0,1-10.18-5.41Z"/><path class="cls-5" d="M72.53,56.11a26.57,26.57,0,1,1-29.82-43.8,27.34,27.34,0,0,1,3.58-1.72,1.53,1.53,0,0,0-1.12-2.84c-.89.35-1.77.77-2.64,1.21L41.23,6.7a1.52,1.52,0,0,0-2.64,1.52l1.29,2.25a29.6,29.6,0,0,0,14.59,54.4v4.24h-2.8a1.53,1.53,0,0,0,0,3h8.64a1.53,1.53,0,1,0,0-3H57.52V64.88a29.34,29.34,0,0,0,11.93-3.2l1.3,2.26a1.54,1.54,0,0,0,1.33.76,1.63,1.63,0,0,0,.76-.2,1.53,1.53,0,0,0,.55-2.09l-1.3-2.26c.8-.52,1.59-1.06,2.33-1.65a1.52,1.52,0,0,0-1.89-2.39Z"/><path class="cls-5" d="M63,74.05H49a1.53,1.53,0,0,0,0,3H63a1.53,1.53,0,0,0,0-3Z"/></svg>