<svg xmlns="http://www.w3.org/2000/svg" viewBox="0 0 105.48 94.04"><path d="M52.74,92.49a8.54,8.54,0,0,1-7.47-4.31L2.72,14.48A8.63,8.63,0,0,1,10.19,1.54h85.1a8.63,8.63,0,0,1,7.47,12.94L60.21,88.18a8.54,8.54,0,0,1-7.47,4.31" fill="#5d2f88"/><path d="M95.29,3.09a7.08,7.08,0,0,1,6.13,10.62L58.87,87.41a7.08,7.08,0,0,1-12.26,0L4.06,13.71A7.08,7.08,0,0,1,10.19,3.09h85.1m0-3.09H10.19A10.17,10.17,0,0,0,1.38,15.25L43.93,89a10.16,10.16,0,0,0,17.61,0l42.56-73.7A10.17,10.17,0,0,0,95.29,0" fill="#382259"/><path d="M34.48 32.07l-1.41 11.31 19.67 8.5 20.29-8.5-1.83-11.36-18.46 4.62-18.26-4.57zm18.26 1.78l34.58-8.67-34.58-8.66-34.59 8.66 34.59 8.67z" fill="#26b4e6"/><path d="M71.11,43a2.84,2.84,0,0,0-1.36-2.42V30a1.5,1.5,0,0,0-1-1.42L52.73,23a1.5,1.5,0,1,0-1,2.83l15,5.29v9.49A2.84,2.84,0,0,0,65.39,43L63.61,55.46h5.86l.31-8.16,1,8.16h2Z" fill="#f0ae00"/></svg>