<svg id="Warstwa_1" data-name="Warstwa 1" xmlns="http://www.w3.org/2000/svg" viewBox="0 0 105.48 94.04"><defs><style>.cls-1{fill:#5d2f88;}.cls-2{fill:#382259;}.cls-3{fill:#26b4e6;}.cls-3,.cls-4{fill-rule:evenodd;}.cls-4{fill:#fff;}.cls-5{fill:#f0ae00;}</style></defs><title>tropy-zuchowe-znaczki-popr-krz</title><path class="cls-1" d="M52.66,92.28A8.53,8.53,0,0,1,45.21,88L2.76,14.44a8.6,8.6,0,0,1,7.45-12.9H95.12a8.6,8.6,0,0,1,7.45,12.9L60.11,88a8.51,8.51,0,0,1-7.45,4.3"/><path class="cls-2" d="M95.12,3.08a7.06,7.06,0,0,1,6.11,10.59L58.78,87.21a7.06,7.06,0,0,1-12.23,0L4.09,13.67A7.06,7.06,0,0,1,10.21,3.08H95.12m0-3.08H10.21A10.14,10.14,0,0,0,1.42,15.21L43.88,88.75a10.15,10.15,0,0,0,17.57,0L103.9,15.21a10,10,0,0,0,0-10.14A10,10,0,0,0,95.12,0"/><path class="cls-1" d="M52.42,92.37A8.53,8.53,0,0,1,45,88.07L2.52,14.53A8.59,8.59,0,0,1,10,1.63H94.88a8.6,8.6,0,0,1,7.45,12.9L59.87,88.07a8.51,8.51,0,0,1-7.45,4.3"/><path class="cls-2" d="M94.88,3.17A7.06,7.06,0,0,1,101,13.76L58.54,87.3a7.07,7.07,0,0,1-12.24,0L3.85,13.76A7.06,7.06,0,0,1,10,3.17H94.88m0-3.08H10A10.14,10.14,0,0,0,1.18,15.3L43.64,88.84a10.15,10.15,0,0,0,17.57,0L103.66,15.3a10.05,10.05,0,0,0,0-10.14A10,10,0,0,0,94.88.09"/><path class="cls-3" d="M59.8,70.11l-7.54,6.56-7.43-6.58a32.6,32.6,0,0,1-11-24.4V34.77H71V45.53A32.6,32.6,0,0,1,59.8,70.11Z"/><polygon class="cls-4" points="50.23 50.19 52.42 53.98 54.61 50.19 58.98 50.19 56.79 46.4 58.98 42.62 54.61 42.62 52.42 38.83 50.23 42.62 45.86 42.62 48.05 46.4 45.86 50.19 50.23 50.19"/><path class="cls-4" d="M63.41,51.9a11.43,11.43,0,0,1-22,0,11.45,11.45,0,1,0,22,0Z"/><rect class="cls-5" x="40.31" y="29.89" width="24.21" height="2.93"/><path class="cls-5" d="M72,13.79A6.83,6.83,0,0,0,69,15a5.17,5.17,0,0,0-2.18,3.56c-.23-2.18-1.85-3.74-4-2.3-1,.74-1.42,2.78-.48,5.11,0,0,1-1.31,1.85-1s2,1.93.33,5.2H53.62s0,0,0,0c0-4.49,2-5.55,3.19-5.4s1.35,2,1.35,2c2.24-1.86,2.9-4.19,2.31-5.49-1.41-2.65-3.92-1.95-5.36.17A6,6,0,0,0,54.84,12,7.85,7.85,0,0,0,52.42,9.1,7.85,7.85,0,0,0,50,12a6,6,0,0,0-.28,4.84c-1.43-2.12-3.94-2.82-5.36-.17-.59,1.3.07,3.63,2.31,5.49,0,0,.32-1.89,1.35-2s3.2.55,3.2,5.4v0H40.37c-1.67-3.27-.58-4.86.33-5.2s1.85,1,1.85,1c.94-2.33.5-4.37-.48-5.11-2.16-1.44-3.78.12-4,2.3A5.17,5.17,0,0,0,35.88,15a6.83,6.83,0,0,0-3-1.23L40.3,28.52H64.54Z"/></svg>