<svg xmlns="http://www.w3.org/2000/svg" viewBox="0 0 105.48 94.04"><path d="M52.74,92.49a8.54,8.54,0,0,1-7.47-4.31L2.72,14.48A8.63,8.63,0,0,1,10.19,1.54h85.1a8.63,8.63,0,0,1,7.47,12.94L60.21,88.18a8.54,8.54,0,0,1-7.47,4.31" fill="#5d2f88"/><path d="M95.29,3.09a7.08,7.08,0,0,1,6.13,10.62L58.87,87.41a7.08,7.08,0,0,1-12.26,0L4.06,13.71A7.08,7.08,0,0,1,10.19,3.09h85.1m0-3.09H10.19A10.17,10.17,0,0,0,1.38,15.25L43.93,89a10.16,10.16,0,0,0,17.61,0l42.56-73.7A10.17,10.17,0,0,0,95.29,0" fill="#382259"/><g fill="#fff"><path d="M38.16 13.26l.57-.46c-.2.2-.39.31-.57.46zM66.1 41.6l-3.39 2.19a5.26 5.26 0 0 1 1 5.85 20.8 20.8 0 0 0 2.77-1.84 21.45 21.45 0 0 0 1.72-1.5 21.8 21.8 0 0 0 6.16-11c-2.27 2.58-5.29 4.46-8.26 6.3zM36.38 15l.57-.58zm-1.01 1.09l.77-.88-.77.88zm2.33 30.83h0zM34.25 43l-.07-.09zm3.02-28.94l.54-.5zm30.82.15l1.09 1.11-1.09-1.11zm-37.33 20.7l.5 2a20.15 20.15 0 0 1-.5-2zM37 46.31h0l.07.07.1.09-.1-.1zm-1.7-30.13l-.46.59h0l.46-.59zM31.64 38l.41 1a23.07 23.07 0 0 0 1.79 3.32A22.66 22.66 0 0 1 32.05 39l-.41-1zM57 28.06c-1.41 2.18.34 2.07 1.39 3.62l3.31-2.86c-1.42-1.94-3.44-2.76-4.7-.76zm13-11.77l-.73-.86.73.87z"/><path d="M43.22 16.07c-2.72 2.86-7.58.64-6.21 4.13 1.19 3.07 5.49 4.65 4.15 7l2.15 1.95 1.9 1.72A3.77 3.77 0 0 1 49 27.15c3.53.12 1.61-1.37 2.62-3.14s-2-2.42 0-5.12 5.45.25 8.73-2.05a17.21 17.21 0 0 1 6.42-2.28l1.23-.47a22.27 22.27 0 0 0-29-1.47l1.77.18c1.96.57 4.04 1.6 2.45 3.27zm9.64-4c3.6-.59 4.41 1.91 3.82 2.35s-1.4-.3-2.39.34a2 2 0 0 1-2.39-.27c-.66-.55-1.83-1.93.96-2.38z"/></g><path d="M60.31 16.84c-3.28 2.3-6.77-.65-8.73 2.05s1 3.36 0 5.12.91 3.26-2.62 3.14a3.77 3.77 0 0 0-3.75 3.75 40 40 0 0 1 4 4.14 5.22 5.22 0 0 1 4.93.37c1.23-1.23 2.62-2.39 4-3.55l.22-.18c-1-1.55-2.8-1.44-1.39-3.62 1.29-2 3.31-1.18 4.7.76 3.34-3 6.51-6.69 8.13-11.87l.2-.65c-.24-.29-.48-.59-.73-.87l-.09-.11a28.53 28.53 0 0 0-1.09-1.11l-.09-.13h0l-1.24.47a17.21 17.21 0 0 0-6.45 2.29zM38.47 47.45A5.24 5.24 0 0 1 40 43.71l.75-.76a23.29 23.29 0 0 0-6.29-5.32 28 28 0 0 1-3.72-2.72l.5 2v.1l.35 1 .41 1a22.66 22.66 0 0 0 1.79 3.33l.34.55.07.09A22.32 22.32 0 0 0 37 46.3h0l.07.06.1.1.45.42h0l.78.66c.08 0 .07-.05.07-.09zm-3.41-29.36c.6 3.55 3.11 6.36 6.1 9.14 1.34-2.38-3-4-4.15-7-1.37-3.49 3.49-1.27 6.21-4.13 1.59-1.67-.49-2.7-2.5-3.27L39 12.62h0l-.21.18c-.2.15-.39.31-.57.46l-.35.3-.54.5c-.11.1-.22.2-.32.31l-.57.58-.24.26c-.27.29-.53.58-.77.88l-.07.09c-.16.19-.31.39-.46.59zm16.84-3.56a2 2 0 0 0 2.39.27c1-.64 1.8.1 2.39-.34s-.22-2.94-3.82-2.35c-2.79.45-1.62 1.83-.96 2.42z" fill="#afca0b"/><path d="M36.11 35.11a26.35 26.35 0 0 1 6.79 5.71l3.93-3.93a49.21 49.21 0 0 0-5.52-5.47c-3.72-3.33-7.26-6.5-8.71-10.85a14.31 14.31 0 0 0-1.92 7.93c.21 3.09 2.1 4.5 5.43 6.61z" fill="#fff"/><path d="M43,54.17c-2.06,2.85-3.76,5.89-3.76,9.5v.08c.43,3.31,2.33,5.67,4.53,8.41.41.5.83,1,1.25,1.57l1.2,1.54v-2a27.76,27.76,0,0,1,3.62-13.25,5.09,5.09,0,0,1-2.25-1.31Z" fill="#afca0b"/><path d="M52.93,60c3.92,4.38,7.84,8.76,8.42,14.65h0c8.08-12.4,3.34-14.74-2.31-19.92l-4,4A5.28,5.28,0,0,1,52.93,60Z" fill="#fff"/><path d="M71.92 19.9c-2.68 6.61-7.53 10.66-11.85 14.26-1.41 1.18-2.66 2.25-3.7 3.27l4.19 4.2c1.28-.9 2.62-1.74 4-2.57 4.17-2.6 8.48-5.28 9.86-9.6.47-3.14-.79-5.92-2.39-9.42-.03-.04-.09-.04-.11-.14z" fill="#afca0b"/><path d="M57.78 43.09l-4.36 4.36 4.36 4.36 2.72-2.72a2.31 2.31 0 0 0 0-3.28zm-12.95 8.77l4.36-4.36-4.36-4.36-2.72 2.72a2.31 2.31 0 0 0 0 3.28z" fill="#fff"/><path d="M55.64 54l-4.36-4.36L46.92 54l2.72 2.72a2.33 2.33 0 0 0 3.28 0zm.05-13L53 38.28a2.31 2.31 0 0 0-3.28 0L47 41l4.36 4.36z" fill="#afca0b"/></svg>