<svg xmlns="http://www.w3.org/2000/svg" viewBox="0 0 105.48 94.04"><path d="M52.74,92.49a8.54,8.54,0,0,1-7.47-4.31L2.72,14.48A8.63,8.63,0,0,1,10.19,1.54h85.1a8.63,8.63,0,0,1,7.47,12.94L60.21,88.18a8.54,8.54,0,0,1-7.47,4.31" fill="#5d2f88"/><path d="M95.29,3.09a7.08,7.08,0,0,1,6.13,10.62L58.87,87.41a7.08,7.08,0,0,1-12.26,0L4.06,13.71A7.08,7.08,0,0,1,10.19,3.09h85.1m0-3.09H10.19A10.17,10.17,0,0,0,1.38,15.25L43.93,89a10.16,10.16,0,0,0,17.61,0l42.56-73.7A10.17,10.17,0,0,0,95.29,0" fill="#382259"/><path d="M56.92,81.64l-2.74,4.83a1.65,1.65,0,0,1-2.88,0l-2.74-4.83V52.75h8.36Z" fill="#fff"/><path d="M68.67 50.76H47.24V37.82h21.43l3.75 6.47-3.75 6.47z" fill="#afca0b"/><path d="M76.58 20.91H47.24V7.97h29.34l3.75 6.47-3.75 6.47z" fill="#fff"/><path d="M29.12 22.9h29.12v12.94H29.12l-3.98-6.47 3.98-6.47z" fill="#f8c409"/></svg>