<svg id="Warstwa_1" data-name="Warstwa 1" xmlns="http://www.w3.org/2000/svg" viewBox="0 0 105.48 94.04"><defs><style>.cls-1{fill:#5d2f88;}.cls-2{fill:#382259;}.cls-3{fill:#fff;}.cls-4{fill:#afca0b;}.cls-5{fill:#f8c409;}</style></defs><title>tropy-zuchowe-znaczki-popr-krz</title><path class="cls-1" d="M52.74,92.49a8.54,8.54,0,0,1-7.47-4.31L2.72,14.48A8.63,8.63,0,0,1,10.19,1.54h85.1a8.63,8.63,0,0,1,7.47,12.94L60.21,88.18a8.54,8.54,0,0,1-7.47,4.31"/><path class="cls-2" d="M95.29,3.09a7.08,7.08,0,0,1,6.13,10.62L58.87,87.41a7.08,7.08,0,0,1-12.26,0L4.06,13.71A7.08,7.08,0,0,1,10.19,3.09h85.1m0-3.09H10.19A10.17,10.17,0,0,0,1.38,15.25L43.93,89a10.16,10.16,0,0,0,17.61,0l42.56-73.7A10.17,10.17,0,0,0,95.29,0"/><path class="cls-3" d="M56.92,81.64l-2.74,4.83a1.65,1.65,0,0,1-2.88,0l-2.74-4.83V52.75h8.36Z"/><polygon class="cls-4" points="68.67 50.76 47.24 50.76 47.24 37.82 68.67 37.82 72.42 44.29 68.67 50.76"/><polygon class="cls-3" points="76.58 20.91 47.24 20.91 47.24 7.97 76.58 7.97 80.33 14.44 76.58 20.91"/><polygon class="cls-5" points="29.12 22.9 58.24 22.9 58.24 35.84 29.12 35.84 25.14 29.37 29.12 22.9"/></svg>