<?xml version="1.0" encoding="iso-8859-1"?>
<!-- Generator: Adobe Illustrator 22.1.0, SVG Export Plug-In . SVG Version: 6.00 Build 0)  -->
<svg version="1.1" id="Warstwa_1" xmlns="http://www.w3.org/2000/svg" xmlns:xlink="http://www.w3.org/1999/xlink" x="0px" y="0px"
	 viewBox="0 0 105.477 94.042" style="enable-background:new 0 0 105.477 94.042;" xml:space="preserve">
<g>
	<path style="fill:#5D2F88;" d="M52.736,92.494c-3.117,0-5.909-1.612-7.468-4.311L2.715,14.478
		c-1.559-2.699-1.559-5.923-0.001-8.622c1.559-2.699,4.351-4.311,7.468-4.311h85.107c3.117,0,5.909,1.612,7.468,4.311
		c1.558,2.699,1.558,5.923-0.001,8.622L60.204,88.183C58.645,90.882,55.854,92.494,52.736,92.494"/>
	<path style="fill:#382259;" d="M95.29,3.088c5.449,0,8.855,5.899,6.131,10.618L58.867,87.411c-1.362,2.359-3.746,3.539-6.131,3.539
		s-4.768-1.18-6.131-3.539L4.052,13.706C1.328,8.987,4.734,3.088,10.183,3.088H95.29 M95.29,0H10.183C6.507,0,3.216,1.9,1.378,5.083
		c-1.838,3.184-1.838,6.984,0,10.167l42.553,73.705c1.837,3.183,5.129,5.083,8.805,5.083c3.675,0,6.967-1.9,8.805-5.083
		l42.553-73.705c1.838-3.183,1.838-6.983,0-10.167C102.256,1.9,98.965,0,95.29,0"/>
</g>
<g>
	<path style="fill:#EF7D00;" d="M9.957,15.291l2.478,4.292h22.341V7.971H14.183C10.427,7.971,8.079,12.038,9.957,15.291z"/>
	<rect x="39.408" y="7.971" style="fill:#EF7D00;" width="26.657" height="11.612"/>
	<path style="fill:#EF7D00;" d="M93.037,19.583l2.478-4.292c1.878-3.253-0.47-7.32-4.226-7.32H70.696v11.612H93.037z"/>
	<polygon style="fill:#EF7D00;" points="20.929,34.294 20.929,24.206 15.104,24.206 	"/>
	<rect x="25.56" y="24.206" style="fill:#EF7D00;" width="24.657" height="11.612"/>
	<rect x="54.848" y="24.206" style="fill:#EF7D00;" width="24.658" height="11.612"/>
	<polygon style="fill:#EF7D00;" points="84.136,35 90.368,24.206 84.136,24.206 	"/>
	<polygon style="fill:#EF7D00;" points="31.182,52.053 36.144,52.053 36.144,40.441 24.477,40.441 	"/>
	<rect x="39.775" y="40.441" style="fill:#EF7D00;" width="25.923" height="11.612"/>
	<polygon style="fill:#EF7D00;" points="69.329,52.053 74.291,52.053 80.995,40.441 69.329,40.441 	"/>
	<polygon style="fill:#EF7D00;" points="49.921,56.675 33.851,56.675 40.555,68.288 49.921,68.288 	"/>
	<polygon style="fill:#EF7D00;" points="54.552,56.675 54.552,68.288 64.918,68.288 71.622,56.675 	"/>
	<path style="fill:#EF7D00;" d="M56.962,82.067l5.287-9.156H43.224l5.287,9.156C50.389,85.32,55.084,85.32,56.962,82.067z"/>
</g>
<g>
	<path style="fill:#FFFFFF;" d="M49.66,11.428c3.14-0.021,6.28-0.009,9.421-0.007c3.075,0.021,6.059,1.719,7.669,4.333
		c1.632,2.527,1.872,5.876,0.655,8.622c-1.058,2.407-3.164,4.344-5.684,5.12c-1.892,0.672-3.927,0.353-5.888,0.442
		c-0.021,6.683-0.007,13.367-0.009,20.048c-0.021,1.94,1.351,3.768,3.183,4.364c1.421,0.55,3.06,0.177,4.265-0.699
		c1.178-0.888,1.853-2.371,1.807-3.838c0-6.564-2.547-13.361-2.58-13.547c0.53,0.058,7.108,1.697,7.132,1.952
		c1.099,3.994,1.652,8.14,1.611,12.283c-0.113,3.235-1.834,6.33-4.448,8.217c-2.791,2.06-6.604,2.614-9.875,1.471
		c-1.344-0.475-3.083-1.619-4.186-2.566c-3.115,3.151-7.623,3.797-11.08,2.6c-2.341-0.74-4.357-2.374-5.698-4.416
		c-0.864-1.368-1.539-2.909-1.647-4.522c-0.316-4.716,0.622-9.798,1.534-13.072c0.022-0.254,6.651-1.899,7.129-1.947
		c-0.082,0.49-2.369,6.883-2.369,15.062c0,1.023,1.632,2.665,3.104,3.068c2.112,0.725,4.565-0.489,5.492-2.47
		c0.393-0.754,0.485-1.62,0.459-2.46c-0.024-6.508,0.012-13.02-0.017-19.529c-1.022-0.038-3.067-0.021-3.067-0.021l0.002-6.171
		h3.065C49.642,23.749,49.631,15.534,49.66,11.428 M55.833,17.599c-0.017,2.05-0.015,4.1-0.002,6.15
		c1.088,0.015,2.179,0.027,3.265-0.009c1.575-0.048,2.926-1.496,2.89-3.068c0.038-1.57-1.318-3.008-2.888-3.063
		C58.01,17.572,56.92,17.584,55.833,17.599z"/>
</g>
</svg>
