<?xml version="1.0" encoding="iso-8859-1"?>
<!-- Generator: Adobe Illustrator 22.1.0, SVG Export Plug-In . SVG Version: 6.00 Build 0)  -->
<svg version="1.1" id="Warstwa_1" xmlns="http://www.w3.org/2000/svg" x="0px" y="0px"
	 viewBox="0 0 105.477 94.042" style="enable-background:new 0 0 105.477 94.042;" xml:space="preserve">
<g>
	<path style="fill:#5D2F88;" d="M52.736,92.494c-3.117,0-5.909-1.612-7.468-4.311L2.715,14.478
		c-1.559-2.699-1.559-5.923-0.001-8.622c1.559-2.699,4.351-4.311,7.468-4.311h85.107c3.117,0,5.909,1.612,7.468,4.311
		c1.558,2.699,1.558,5.923-0.001,8.622L60.204,88.183C58.645,90.882,55.854,92.494,52.736,92.494"/>
	<path style="fill:#382259;" d="M95.29,3.088c5.449,0,8.855,5.899,6.131,10.618L58.867,87.411c-1.362,2.359-3.746,3.539-6.131,3.539
		s-4.768-1.18-6.131-3.539L4.052,13.706C1.328,8.987,4.734,3.088,10.183,3.088H95.29 M95.29,0H10.183C6.507,0,3.216,1.9,1.378,5.083
		c-1.838,3.184-1.838,6.984,0,10.167l42.553,73.705c1.837,3.183,5.129,5.083,8.805,5.083c3.675,0,6.967-1.9,8.805-5.083
		l42.553-73.705c1.838-3.183,1.838-6.983,0-10.167C102.256,1.9,98.965,0,95.29,0"/>
</g>
<g>
	<path style="fill:#F0AE00;" d="M33.022,12.72c-2.183-1.491-5.162-0.929-6.652,1.254c-1.491,2.183-0.929,5.162,1.254,6.652
		c0.499,0.341,1.12,0.453,1.777,0.435c1.475-2.135,3.249-4.463,4.814-6.385C34.004,13.865,33.641,13.143,33.022,12.72z"/>
	<path style="fill:#EF7D00;" d="M83.203,11.276c-2.625-3.845-7.871-4.834-11.716-2.209c-1.073,0.733-1.709,1.975-2.083,3.377
		c-0.4-0.452-0.762-0.844-1.058-1.142c0.041,0.008,0.027,0.005-0.006-0.002c-0.064-0.018-5.698-1.558-15.603-1.558
		c-9.908,0-15.51,1.541-15.571,1.558c-0.033,0.007-0.047,0.01-0.006,0.002c-0.276,0.277-0.605,0.632-0.971,1.042
		c-0.378-1.361-1.009-2.562-2.057-3.277c-3.845-2.625-9.09-1.636-11.716,2.209c-2.625,3.845-1.636,9.09,2.209,11.716
		c0.851,0.581,1.905,0.783,3.022,0.766c-0.003,0.004-0.006,0.009-0.008,0.014c-0.469,0.785-2.788,4.963-2.788,11.58
		c0,0,1.471-1.782,2.139-2.079c0,0-1.738,9.997,1.605,13.858c0,0,0.134-1.583,0.534-2.079c0,0,0.049-0.008,0.137-0.007
		c5.436,6.378,12.71,12.235,23.486,12.235s18.05-5.858,23.486-12.235c0.088-0.001,0.137,0.007,0.137,0.007
		c0.401,0.495,0.534,2.079,0.534,2.079c3.343-3.861,1.605-13.858,1.605-13.858c0.668,0.297,2.139,2.079,2.139,2.079
		c0-6.617-2.319-10.796-2.787-11.58c-0.003-0.005-0.006-0.01-0.009-0.015c1.16,0.034,2.256-0.164,3.136-0.765
		C84.839,20.366,85.828,15.121,83.203,11.276z M27.624,20.627c-2.183-1.491-2.745-4.469-1.254-6.652
		c1.491-2.183,4.469-2.745,6.652-1.254c0.619,0.423,0.982,1.145,1.193,1.957c-1.565,1.922-3.339,4.249-4.814,6.385
		C28.744,21.08,28.123,20.968,27.624,20.627z M40.897,25.665c0-1.751,1.419-3.171,3.17-3.171s3.171,1.419,3.171,3.171
		c0,1.752-1.42,3.171-3.171,3.171S40.897,27.417,40.897,25.665z M61.823,43.648c-0.097,0.23-2.45,5.655-9.086,5.655
		c-7.205,0-9.058-5.544-9.133-5.78c-0.252-0.789,0.184-1.633,0.973-1.885c0.788-0.254,1.625,0.18,1.882,0.962
		c0.056,0.163,1.082,2.959,4.778,3.577c0,0,0.011-4.036,0.032-4.135c-1.815-1.047-4.667-3.06-4.667-5.367
		c0-0.865,0.701-1.566,1.566-1.566c0.865,0,8.271,0,9.136,0c0.865,0,1.566,0.702,1.566,1.566c0,2.307-2.852,4.319-4.667,5.367
		c0.021,0.099,0.032,4.116,0.032,4.116c3.519-0.686,4.806-3.638,4.82-3.672c0.32-0.764,1.196-1.124,1.964-0.802
		C61.785,42.005,62.144,42.884,61.823,43.648z M61.405,28.836c-1.75,0-3.17-1.42-3.17-3.171c0-1.751,1.42-3.171,3.17-3.171
		c1.751,0,3.171,1.419,3.171,3.171C64.576,27.417,63.156,28.836,61.405,28.836z M77.996,20.627c-0.528,0.361-1.192,0.47-1.892,0.434
		c-1.447-2.096-3.183-4.377-4.727-6.278c0.206-0.856,0.575-1.621,1.221-2.063c2.183-1.491,5.162-0.929,6.652,1.254
		C80.741,16.158,80.179,19.136,77.996,20.627z"/>
	<path style="fill:#F0AE00;" d="M72.598,12.72c-0.646,0.441-1.016,1.207-1.221,2.063c1.544,1.901,3.28,4.182,4.727,6.278
		c0.701,0.036,1.364-0.073,1.892-0.434c2.183-1.491,2.745-4.469,1.254-6.652C77.759,11.791,74.781,11.23,72.598,12.72z"/>
</g>
</svg>
