<svg id="Warstwa_1" data-name="Warstwa 1" xmlns="http://www.w3.org/2000/svg" viewBox="0 0 105.48 94.04"><defs><style>.cls-1{fill:#5d2f88;}.cls-2{fill:#382259;}.cls-3{fill:#f0ae00;}.cls-4{fill:#fff;}.cls-5{fill:#c90c0f;}</style></defs><title>tropy-zuchowe-znaczki-popr-krz</title><path class="cls-1" d="M53.15,92.49a8.54,8.54,0,0,1-7.47-4.31L3.13,14.48A8.63,8.63,0,0,1,10.59,1.54H95.7a8.63,8.63,0,0,1,7.47,12.94L60.62,88.18a8.54,8.54,0,0,1-7.47,4.31"/><path class="cls-2" d="M95.7,3.09a7.08,7.08,0,0,1,6.13,10.62L59.28,87.41a7.08,7.08,0,0,1-12.26,0L4.46,13.71A7.08,7.08,0,0,1,10.59,3.09H95.7M95.7,0H10.59a10.17,10.17,0,0,0-8.8,15.25L44.34,89A10.16,10.16,0,0,0,62,89l42.56-73.7A10.17,10.17,0,0,0,95.7,0"/><path class="cls-3" d="M64.28,37c0,5.75-5.17,10.4-11.54,10.4S41.2,42.78,41.2,37s5.17-10.4,11.54-10.4S64.28,31.29,64.28,37"/><path class="cls-4" d="M69.48,42.15a68.91,68.91,0,0,0-3-6.68s-.67-.4-1.84-.94l-.94-.42.09.81a15.85,15.85,0,0,1-.7,5.87,8.39,8.39,0,0,1-.47,1.15,5.1,5.1,0,0,1-.75,1.17,3.37,3.37,0,0,1-.5.5C58.7,45.8,53.15,43,53.15,43c-1,1.3-3.46,1.7-5.26,1.82a5.69,5.69,0,0,1-5.41-3.07c-.06-.12-.12-.25-.17-.37l0,0c-.06-.16-.12-.31-.17-.47A12.76,12.76,0,0,1,41.87,35c.08-.41.15-.74.21-1-1.06.44-1.89.84-2.42,1.12l-.18.1-.49.27S36.82,40,36,42.15C28.63,60.71,47,73.25,48.09,73.54c1.35.37,1.53-3.39,2.95-3.37.56,0,2.8,4.65,3.37,4.61,3.07,0,5.92-3.06,8.09-5.3C70.6,61.07,73.09,53.14,69.48,42.15Z"/><path class="cls-1" d="M50.2,37.24a2.84,2.84,0,1,1-2.84-2.83,2.83,2.83,0,0,1,2.84,2.83"/><path class="cls-1" d="M61,37.24a2.84,2.84,0,1,1-2.83-2.83A2.83,2.83,0,0,1,61,37.24"/><path class="cls-4" d="M63.48,40.91A1.77,1.77,0,0,0,63,41c-1.49.47-2.69,1.34-4.32,1.57a6.81,6.81,0,0,1-.93.06,22.37,22.37,0,0,1-5.08-.84,22.63,22.63,0,0,1-5.09.84,6.92,6.92,0,0,1-.93-.06C45,42.34,43.79,41.47,42.3,41a1.72,1.72,0,0,0-.51-.09c-.78,0-1,.77-.94,1.57a5.67,5.67,0,0,0,1.72,3.59A6.45,6.45,0,0,0,52.64,46a6.85,6.85,0,0,0,5.06,2.47,6.94,6.94,0,0,0,5-2.37,5.67,5.67,0,0,0,1.72-3.59C64.45,41.68,64.26,40.91,63.48,40.91Z"/><path class="cls-1" d="M41.77,39.56a5.23,5.23,0,0,0-.62.49,3.62,3.62,0,0,0-.9,2.76,7,7,0,0,0,2.09,4.53,8.16,8.16,0,0,0,5.92,2.72,7.67,7.67,0,0,0,4.38-1.42A7.64,7.64,0,0,0,57,50.06a8.14,8.14,0,0,0,5.91-2.72A7,7,0,0,0,65,42.81a3.58,3.58,0,0,0-.9-2.76,5.19,5.19,0,0,0-.71-.54A3.82,3.82,0,0,1,62,41.36c.67,0,.84.67.81,1.36a4.88,4.88,0,0,1-1.48,3.11A6,6,0,0,1,57,47.88a5.92,5.92,0,0,1-4.38-2.14,6,6,0,0,1-4.38,2.14,6,6,0,0,1-4.34-2.05,4.93,4.93,0,0,1-1.48-3.11,1.62,1.62,0,0,1,.29-1.16.7.7,0,0,1,.52-.2A3,3,0,0,1,41.77,39.56Z"/><path class="cls-5" d="M66.48,35.47c-14.08-7.19-27.5,0-27.5,0,.06-.55.78-4.13,1-5,2.56-9.38,11-34.8,30.84-15.41C73,17.15,60.58,16,62.19,18.9A37.09,37.09,0,0,1,66.48,35.47Z"/><path class="cls-4" d="M73.39,11.81h0a1.26,1.26,0,0,1,2.12,1h0a1.28,1.28,0,0,0,1.07,1.35h0a1.26,1.26,0,0,1,.53,2.29h0a1.25,1.25,0,0,0-.38,1.67h0A1.26,1.26,0,0,1,75.26,20h0a1.27,1.27,0,0,0-1.55.75h0a1.26,1.26,0,0,1-2.35,0h0A1.27,1.27,0,0,0,69.81,20h0a1.26,1.26,0,0,1-1.46-1.84h0A1.27,1.27,0,0,0,68,16.47h0a1.26,1.26,0,0,1,.53-2.29h0a1.27,1.27,0,0,0,1.07-1.35h0a1.26,1.26,0,0,1,2.12-1h0A1.25,1.25,0,0,0,73.39,11.81Z"/></svg>