<svg xmlns="http://www.w3.org/2000/svg" viewBox="0 0 105.48 94.04"><path d="M52.74,92.49a8.54,8.54,0,0,1-7.47-4.31L2.72,14.48A8.63,8.63,0,0,1,10.19,1.54h85.1a8.63,8.63,0,0,1,7.47,12.94L60.21,88.18a8.54,8.54,0,0,1-7.47,4.31" fill="#5d2f88"/><path d="M95.29,3.09a7.08,7.08,0,0,1,6.13,10.62L58.87,87.41a7.08,7.08,0,0,1-12.26,0L4.06,13.71A7.08,7.08,0,0,1,10.19,3.09h85.1m0-3.09H10.19A10.17,10.17,0,0,0,1.38,15.25L43.93,89a10.16,10.16,0,0,0,17.61,0l42.56-73.7A10.17,10.17,0,0,0,95.29,0" fill="#382259"/><g fill="#f0ae00"><path d="M35.05 45.64h-2.37l-.75-2.26a.32.32 0 0 0-.61 0l-.75 2.26H28.2a.32.32 0 0 0-.19.58l1.91 1.41-.72 2.26a.32.32 0 0 0 .49.36l1.93-1.38 1.93 1.38a.32.32 0 0 0 .49-.36l-.71-2.26 1.91-1.41a.32.32 0 0 0-.19-.58zm15.41-33.73l-.72 2.27a.32.32 0 0 0 .49.35l1.93-1.38 1.93 1.38a.32.32 0 0 0 .49-.35l-.71-2.27 1.91-1.41a.32.32 0 0 0-.19-.57h-2.37l-.75-2.25a.32.32 0 0 0-.61 0l-.75 2.25h-2.38a.31.31 0 0 0-.18.57zm5.13 46.35h-2.37L52.47 56a.32.32 0 0 0-.61 0l-.75 2.25h-2.38a.32.32 0 0 0-.18.58l1.91 1.41-.72 2.26a.32.32 0 0 0 .49.35l1.93-1.38 1.93 1.38a.32.32 0 0 0 .49-.35l-.71-2.26 1.91-1.41a.32.32 0 0 0-.19-.57zm24.16-24.17h-2.37l-.75-2.25a.32.32 0 0 0-.61 0l-.75 2.25H72.9a.32.32 0 0 0-.19.58l1.91 1.41-.71 2.26a.32.32 0 0 0 .49.36l1.93-1.38 1.93 1.38a.32.32 0 0 0 .49-.36L78 36.08l1.91-1.41a.32.32 0 0 0-.16-.58zm-50.7-.02l-.75-2.25a.32.32 0 0 0-.61 0l-.75 2.25h-2.37a.32.32 0 0 0-.19.58l1.91 1.41-.72 2.26a.32.32 0 0 0 .49.36L28 37.32l1.93 1.38a.32.32 0 0 0 .49-.36l-.72-2.26 1.34-1-.08-1z"/><path d="M30 21.46h-1.8a.32.32 0 0 0-.19.58l1.91 1.41-.72 2.26a.32.32 0 0 0 .49.36l.62-.44-.17-2.31zm2.27-1.24l-.34-1a.32.32 0 0 0-.61 0l-.52 1.57 1.28-.48zm44.64 25.42h-2.38l-.75-2.25a.27.27 0 0 0-.21-.19l-.43 1-2.08 5.75a.32.32 0 0 0 .49.35l1.93-1.38 1.93 1.38a.32.32 0 0 0 .49-.35l-.71-2.26 1.9-1.41a.332.332 0 0 0-.18-.64zM62.93 14.61l-.72 2.27a.32.32 0 0 0 .49.35l1.94-1.38 1.93 1.38a.32.32 0 0 0 .49-.35l-.72-2.27 1.91-1.41a.31.31 0 0 0-.19-.57h-2.37l-.75-2.25a.32.32 0 0 0-.61 0l-.75 2.25h-2.37a.31.31 0 0 0-.19.57zM43.9 54.48h-2.38l-.75-2.26a.32.32 0 0 0-.6 0l-.76 2.26H37a.32.32 0 0 0-.19.58l1.91 1.41-.71 2.26a.32.32 0 0 0 .49.36l1.93-1.38 1.93 1.38a.32.32 0 0 0 .49-.36l-.72-2.26 1.91-1.41a.32.32 0 0 0-.14-.58z"/><path d="M71.77 23.46l-.71 2.26a.32.32 0 0 0 .49.36l1.93-1.38 1.93 1.38a.32.32 0 0 0 .49-.36l-.71-2.26 1.9-1.41a.32.32 0 0 0-.18-.58h-2.38l-.75-2.25a.32.32 0 0 0-.6 0l-.75 2.25h-2.38a.32.32 0 0 0-.18.58zm-29.6-8.85l1.91-1.41a.31.31 0 0 0-.18-.57h-2.38l-.75-2.25a.32.32 0 0 0-.6 0l-.76 2.25h-2.37a.32.32 0 0 0-.19.57l1.91 1.41-.71 2.27a.32.32 0 0 0 .49.35l1.93-1.38 1.22.87 1-.38zm19.46 40.9l1.3 1-.72 2.26a.32.32 0 0 0 .49.36l1.94-1.38 1.93 1.38a.32.32 0 0 0 .49-.36l-.72-2.26z"/></g><path d="M53.99 51.16l11.82 2.02 4.59-10.26-3.79-10.35 2.57-2.44-3.79-9.55-15.94.34 2.94-3.23-5.16.17-14.1 5.25 1.43 18.63 19.43 9.42z" fill="#fff"/></svg>