<svg id="Warstwa_1" data-name="Warstwa 1" xmlns="http://www.w3.org/2000/svg" viewBox="0 0 105.48 94.04"><defs><style>.cls-1{fill:#5d2f88;}.cls-2{fill:#382259;}.cls-3{fill:#afca0b;}.cls-4{fill:#fff;}</style></defs><title>tropy-zuchowe-znaczki-popr-krz</title><path class="cls-1" d="M52.74,92.49a8.54,8.54,0,0,1-7.47-4.31L2.72,14.48A8.63,8.63,0,0,1,10.19,1.54h85.1a8.63,8.63,0,0,1,7.47,12.94L60.21,88.18a8.54,8.54,0,0,1-7.47,4.31"/><path class="cls-2" d="M95.29,3.09a7.08,7.08,0,0,1,6.13,10.62L58.87,87.41a7.08,7.08,0,0,1-12.26,0L4.06,13.71A7.08,7.08,0,0,1,10.19,3.09h85.1m0-3.09H10.19A10.17,10.17,0,0,0,1.38,15.25L43.93,89a10.16,10.16,0,0,0,17.61,0l42.56-73.7A10.17,10.17,0,0,0,95.29,0"/><path class="cls-3" d="M52.74,8A27.43,27.43,0,0,0,25.31,35.4c0,15.16,27.43,45.42,27.43,45.42S80.17,50.56,80.17,35.4A27.43,27.43,0,0,0,52.74,8ZM70.19,42.32l-3.62,8.1a3,3,0,0,1-2.74,1.78,2.92,2.92,0,0,1-.51,0l-8.21-1.41a15.47,15.47,0,0,1-2.37.2,15.74,15.74,0,0,1-13.28-7.3l-1.61-.78a3,3,0,0,1-1.68-2.47L35,25.69a3,3,0,0,1,2-3l11.13-4.14a3,3,0,0,1,1-.18l4-.14h.12a3,3,0,0,1,2.62,1.56,15.29,15.29,0,0,1,2.72.82l4.85-.1h.07a3,3,0,0,1,2.78,1.89l3,7.54a3,3,0,0,1-.72,3.28l-.17.17a16,16,0,0,1,.11,1.85v0l1.77,4.84A3,3,0,0,1,70.19,42.32Z"/><polygon class="cls-4" points="66.48 31.01 63.5 23.47 50.91 23.74 53.24 21.19 49.16 21.32 38.03 25.46 39.16 40.17 54.5 47.61 63.83 49.2 67.45 41.1 64.46 32.93 66.48 31.01"/></svg>