<?xml version="1.0" encoding="iso-8859-1"?>
<!-- Generator: Adobe Illustrator 22.1.0, SVG Export Plug-In . SVG Version: 6.00 Build 0)  -->
<svg version="1.1" id="Warstwa_1" xmlns="http://www.w3.org/2000/svg" xmlns:xlink="http://www.w3.org/1999/xlink" x="0px" y="0px"
	 viewBox="0 0 105.477 94.042" style="enable-background:new 0 0 105.477 94.042;" xml:space="preserve">
<g>
	<path style="fill:#C90C0F;" d="M52.738,92.493c-3.117,0-5.909-1.612-7.468-4.311L2.718,14.478
		c-1.559-2.699-1.559-5.923-0.001-8.622c1.559-2.699,4.351-4.311,7.468-4.311h85.106c3.117,0,5.909,1.612,7.468,4.311
		c1.558,2.699,1.558,5.923-0.001,8.622L60.206,88.182C58.647,90.881,55.856,92.493,52.738,92.493"/>
	<path style="fill:#9C1006;" d="M95.291,3.088c5.449,0,8.855,5.899,6.13,10.618L58.869,87.41c-1.362,2.359-3.746,3.539-6.13,3.539
		s-4.768-1.18-6.131-3.539L4.055,13.705C1.331,8.987,4.736,3.088,10.186,3.088H95.291 M95.291,0H10.186
		C6.51,0,3.219,1.9,1.381,5.083c-1.838,3.184-1.838,6.984,0,10.167l42.553,73.704c1.837,3.183,5.129,5.083,8.805,5.083
		c3.675,0,6.967-1.9,8.805-5.083l42.553-73.704c1.838-3.183,1.838-6.983,0-10.167C102.258,1.9,98.967,0,95.291,0"/>
</g>
<g>
	<path style="fill:#FFFFFF;" d="M52.691,24.884c0,0-3.981-0.747-7.238-0.391c-1.729,0.454-2.921,1.452-2.869,3.689
		c0,0,4.468-0.381,5.855,4.45c0,0,8.3,0.133,9.153,5.551c0,0,0.481,3.789-4.67,1.307c0,0-2.889-1.548-4.962-0.191
		c1.311,0.749,3.416,1.843,3.947,2.511c0.974,1.22,1.552,2.705,1.076,4.561c-0.797,3.1-3.303,5.134-5.688,6.404
		c-0.324,1.119,0.267,2.138,1.076,2.46c-0.613,0.963-5.8,6.84-8.446,11.966l8.583,14.866c1.878,3.253,6.574,3.253,8.452,0
		l10.757-18.631c-0.927-0.287-1.645-0.732-2.027-1.54c-1.072-2.268,0.691-11.845,0.87-14.141c0.375-4.795,1.988-11.697-0.614-15.115
		c0.429-0.303,1.813-4.588,0.82-5.175c-0.35,1.294-2.985,1.087-3.586,0.154c1.669-0.467,1.926-3.786,0.306-4.509
		c-0.412,1.089-1.084,1.919-2.151,2.357C61.337,25.466,60.732,26.486,52.691,24.884z M51.288,31.514
		c-3.098-0.522-3.461-2.736-3.219-5.272c0,0,7.809,2.296,7.769,2.575C55.798,29.099,54.389,32.04,51.288,31.514z"/>
	<path style="fill:#FFFFFF;" d="M36.582,61.406c0.39-0.336,0.71-0.679,0.929-1.013c1.082-1.651,1.635-3.788,1.486-6.405
		c-0.271-4.765-3.095-8.87-5.38-11.734c-2.609-3.271-5.247-6.071-8.505-8.607c-2.078-1.619-4.466-3.098-7.086-4.382L36.582,61.406z"
		/>
	<path style="fill:#FFFFFF;" d="M78.261,37.574c-3.234,3.503-6.707,7.724-8.351,12.911c-0.892,2.817-1.201,6.213,0.102,8.864
		c0.01,0.02,0.021,0.041,0.031,0.061l16.315-28.258C83.327,32.89,80.63,35.007,78.261,37.574z"/>
	<path style="fill:#FFFFFF;" d="M53.644,37.863c0,0,1.548,0.213,0.774-0.987c0,0-2.245-3.336-9.528-1.161
		c-2.082,0.353-3.934,2.011-6.354,1.998c-1.362-0.008-2.096-0.794-2.767-1.281c-0.301,1.015,0.049,1.943,0.513,2.409
		c2.393,2.397,7.747,0.22,10.606-0.309C46.888,38.531,47.96,34.981,53.644,37.863z"/>
	<path style="fill:#C90C0F;" d="M51.288,31.514c3.101,0.526,4.51-2.415,4.55-2.698c0.04-0.279-7.769-2.575-7.769-2.575
		C47.827,28.778,48.19,30.992,51.288,31.514z"/>
	<path style="fill:#F0AE00;" d="M52.923,39.49c5.151,2.482,4.67-1.307,4.67-1.307c-0.853-5.418-9.153-5.551-9.153-5.551
		c-1.388-4.831-5.855-4.45-5.855-4.45c-2.59,0.117-4.614,1.061-4.817,3.535c-0.124,1.499,0.403,2.726,0.82,3.945
		c0.802-0.802,2.243-1.708,3.894-1.536c1.146,0.117,2.027,0.786,2.408,1.588c7.283-2.175,9.528,1.161,9.528,1.161
		c0.774,1.2-0.774,0.987-0.774,0.987c-5.684-2.882-6.756,0.669-6.756,0.669c-0.145,0.301-0.161,0.897,0.102,1.076
		c0.365,0.171,0.73-0.143,0.73-0.143c0.078-0.062,0.161-0.111,0.242-0.164C50.034,37.942,52.923,39.49,52.923,39.49z"/>
	<path style="fill:#F0AE00;" d="M40.432,11.479c0,0,3.678,8.345,5.021,13.014c3.258-0.356,7.238,0.391,7.238,0.391
		c8.041,1.602,8.645,0.582,8.645,0.582c0.685-2.677,5.379-14.347,5.379-14.347l-8.403,3.434l-5.073-6.583l-4.765,7.095
		L40.432,11.479z"/>
</g>
</svg>
