<svg id="Warstwa_1" data-name="Warstwa 1" xmlns="http://www.w3.org/2000/svg" viewBox="0 0 105.48 94.04"><defs><style>.cls-1{fill:#5d2f88;}.cls-2{fill:#382259;}.cls-3{fill:#f0ae00;}</style></defs><title>tropy-zuchowe-znaczki-popr-krz</title><path class="cls-1" d="M52.74,92.49a8.54,8.54,0,0,1-7.47-4.31L2.72,14.48A8.63,8.63,0,0,1,10.19,1.54h85.1a8.63,8.63,0,0,1,7.47,12.94L60.21,88.18a8.54,8.54,0,0,1-7.47,4.31"/><path class="cls-2" d="M95.29,3.09a7.08,7.08,0,0,1,6.13,10.62L58.87,87.41a7.08,7.08,0,0,1-12.26,0L4.06,13.71A7.08,7.08,0,0,1,10.19,3.09h85.1m0-3.09H10.19A10.17,10.17,0,0,0,1.38,15.25L43.93,89a10.16,10.16,0,0,0,17.61,0l42.56-73.7A10.17,10.17,0,0,0,95.29,0"/><path class="cls-3" d="M77.32,41.55a6.68,6.68,0,0,0-6.24-3.2A7.79,7.79,0,0,0,65.45,41a32.42,32.42,0,0,0-3.31.85C57,43.44,47.91,47.54,48.59,56.34h0C46.38,44.42,60.72,40.42,61.63,40a30.34,30.34,0,0,1-.69-3.41c-10,.21-21.78,4.52-22.44,5.08,5.3-5.4,19.77-6.62,22.36-6.92l-.18-19.25a2.73,2.73,0,0,0-2.23-3,3.24,3.24,0,0,0-.69,0,2.71,2.71,0,0,0-2.42,2.05l-.9,18.28c-.21.81-.87,1.15-1.09.35l-3-22.11a2.94,2.94,0,0,0-5.72,1.36l2.51,22.78a.48.48,0,0,1-.53.54.46.46,0,0,1-.4-.35L42.05,16.55a2.75,2.75,0,0,0-3.12-2.08,2.66,2.66,0,0,0-2.08,3.16l3.72,20a.47.47,0,0,1-.37.57.49.49,0,0,1-.56-.33L35.31,23.62a2.45,2.45,0,0,0-2.89-1.71,2.38,2.38,0,0,0-1.72,2.93l4.43,16.47c0,2.9.38,10.75,4.11,14.5s5.62,4.68,5.62,4.68L45.92,74l4.32,7.91a2.89,2.89,0,0,0,5,0l5.06-9-1.1-14.06L62,54a34.53,34.53,0,0,1,5.81-6.23,88.31,88.31,0,0,1,8.87-4.44A1.23,1.23,0,0,0,77.32,41.55Z"/></svg>