<svg xmlns="http://www.w3.org/2000/svg" viewBox="0 0 105.48 94.04"><path d="M52.74,92.49a8.54,8.54,0,0,1-7.47-4.31L2.72,14.48A8.63,8.63,0,0,1,10.19,1.54h85.1a8.63,8.63,0,0,1,7.47,12.94L60.21,88.18a8.54,8.54,0,0,1-7.47,4.31" fill="#5d2f88"/><path d="M95.29,3.09a7.08,7.08,0,0,1,6.13,10.62L58.87,87.41a7.08,7.08,0,0,1-12.26,0L4.06,13.71A7.08,7.08,0,0,1,10.19,3.09h85.1m0-3.09H10.19A10.17,10.17,0,0,0,1.38,15.25L43.93,89a10.16,10.16,0,0,0,17.61,0l42.56-73.7A10.17,10.17,0,0,0,95.29,0" fill="#382259"/><path d="M30.54 47.33l.1 4.15a12.49 12.49 0 0 0 .89 3.1 7.14 7.14 0 0 0 2.56 2h0v-6.77h-1.53v-2.44c-.15 0-1.56-.01-2.02-.04zm3.66-8.27A72 72 0 0 0 47 40.63a47 47 0 0 0 12.82-1 13.57 13.57 0 0 0-3-6.56 12.38 12.38 0 0 0-9.73-4.62A11.54 11.54 0 0 0 38 32.78a25.33 25.33 0 0 0-3.8 6.28zm25.61 3.39a49 49 0 0 1-10 .94c-1 0-2 0-3-.07a72.22 72.22 0 0 1-13.76-1.76c-1.5 1.61-6 1.48-6 2.51 0 .78 2.11 1.29 5 1.29a26.67 26.67 0 0 0 9.8-1.84c.51 3.88-.56 4.72-1.59 4.72a3.3 3.3 0 0 1-1.54-.49S37 58.3 45.84 58.3c10.8 0 7.78-12.59 8.63-12.59a.22.22 0 0 1 .15.08c.72.73 2.68 5.67 3 6.56 1.6 4.86 4 6.62 5.93 6.62.56 0 .89-.16.84-.44-.21-1.34-1.64-4.19-2.56-6.18a24.14 24.14 0 0 1-2.02-9.9z" fill="#f0ae00"/><path d="M63.77 52.75q.24.49.45 1V33.09A12.83 12.83 0 0 0 51.4 20.28V23a10.14 10.14 0 0 1 10.13 10.09V45a22.56 22.56 0 0 0 1.74 6.65l.5 1.1zm-8.64-38.87c0-1.74-1.67-6.53-3.73-6.53v10.91a14.78 14.78 0 0 1 3.73.47zM60 15.53c.45-1.68.08-6.74-1.91-7.27l-2.82 10.51a14.52 14.52 0 0 1 3.47 1.44zm7.67 6.71c1.23-1.23 3.43-5.79 2-7.25L62 22.68a15.16 15.16 0 0 1 2.28 3zm-1.43 10.91L71 31.89c1.68-.45 5.87-3.3 5.34-5.29l-10.56 2.82a14.82 14.82 0 0 1 .46 3.67zm3.7-6.3c1.51-.87 4.82-4.71 3.79-6.49l-9.42 5.44a14.57 14.57 0 0 1 1.43 3.48zm-5.67-8.47c.87-1.51 1.82-6.49 0-7.51l-5.44 9.41a15.14 15.14 0 0 1 3 2.29zm6.35 19.5c1.74 0 6.52-1.67 6.52-3.73h-10.9v3.73zm-4.38 4.93h4.38c1.74 0 6.52-1.67 6.52-3.72h-10.9zm3.31 4.87c1.6 0 6-1.53 6-3.43h-9.31v3.43zm-.99 4.65c1.48 0 5.54-1.42 5.54-3.16h-7.86v3.16zM67.65 57c1.36 0 5.11-1.3 5.11-2.91h-6.52V57z" fill="#fff"/></svg>