<svg id="Warstwa_1" data-name="Warstwa 1" xmlns="http://www.w3.org/2000/svg" viewBox="0 0 105.48 94.04"><defs><style>.cls-1{fill:#5d2f88;}.cls-2{fill:#382259;}.cls-3{fill:#f0ae00;}.cls-4{fill:#fff;}</style></defs><title>tropy-zuchowe-znaczki-popr-krz</title><path class="cls-1" d="M52.74,92.49a8.54,8.54,0,0,1-7.47-4.31L2.72,14.48A8.63,8.63,0,0,1,10.19,1.54h85.1a8.63,8.63,0,0,1,7.47,12.94L60.21,88.18a8.54,8.54,0,0,1-7.47,4.31"/><path class="cls-2" d="M95.29,3.09a7.08,7.08,0,0,1,6.13,10.62L58.87,87.41a7.08,7.08,0,0,1-12.26,0L4.06,13.71A7.08,7.08,0,0,1,10.19,3.09h85.1m0-3.09H10.19A10.17,10.17,0,0,0,1.38,15.25L43.93,89a10.16,10.16,0,0,0,17.61,0l42.56-73.7A10.17,10.17,0,0,0,95.29,0"/><path class="cls-3" d="M35.05,45.64H32.68l-.75-2.26a.32.32,0,0,0-.61,0l-.75,2.26H28.2a.32.32,0,0,0-.19.58l1.91,1.41-.72,2.26a.32.32,0,0,0,.49.36l1.93-1.38,1.93,1.38a.32.32,0,0,0,.49-.36l-.71-2.26,1.91-1.41A.32.32,0,0,0,35.05,45.64Z"/><path class="cls-3" d="M50.46,11.91l-.72,2.27a.32.32,0,0,0,.49.35l1.93-1.38,1.93,1.38a.32.32,0,0,0,.49-.35l-.71-2.27,1.91-1.41a.32.32,0,0,0-.19-.57l-2.37,0-.75-2.25a.32.32,0,0,0-.61,0l-.75,2.25-2.38,0a.31.31,0,0,0-.18.57Z"/><path class="cls-3" d="M55.59,58.26l-2.37,0L52.47,56a.32.32,0,0,0-.61,0l-.75,2.25-2.38,0a.32.32,0,0,0-.18.58l1.91,1.41-.72,2.26a.32.32,0,0,0,.49.35l1.93-1.38,1.93,1.38a.32.32,0,0,0,.49-.35l-.71-2.26,1.91-1.41A.32.32,0,0,0,55.59,58.26Z"/><path class="cls-3" d="M79.75,34.09l-2.37,0-.75-2.25a.32.32,0,0,0-.61,0l-.75,2.25-2.37,0a.32.32,0,0,0-.19.58l1.91,1.41-.71,2.26a.32.32,0,0,0,.49.36l1.93-1.38,1.93,1.38a.32.32,0,0,0,.49-.36L78,36.08l1.91-1.41A.32.32,0,0,0,79.75,34.09Z"/><path class="cls-3" d="M29.05,34.07l-.75-2.25a.32.32,0,0,0-.61,0l-.75,2.25-2.37,0a.32.32,0,0,0-.19.58l1.91,1.41-.72,2.26a.32.32,0,0,0,.49.36L28,37.32l1.93,1.38a.32.32,0,0,0,.49-.36l-.72-2.26,1.34-1-.08-1Z"/><path class="cls-3" d="M30,21.46H28.2a.32.32,0,0,0-.19.58l1.91,1.41-.72,2.26a.32.32,0,0,0,.49.36l.62-.44-.17-2.31Z"/><path class="cls-3" d="M32.27,20.22l-.34-1a.32.32,0,0,0-.61,0l-.52,1.57,1.28-.48Z"/><path class="cls-3" d="M76.91,45.64l-2.38,0-.75-2.25a.27.27,0,0,0-.21-.19l-.43,1-2.08,5.75a.32.32,0,0,0,.49.35l1.93-1.38,1.93,1.38a.32.32,0,0,0,.49-.35l-.71-2.26,1.9-1.41A.32.32,0,0,0,76.91,45.64Z"/><path class="cls-3" d="M62.93,14.61l-.72,2.27a.32.32,0,0,0,.49.35l1.94-1.38,1.93,1.38a.32.32,0,0,0,.49-.35l-.72-2.27,1.91-1.41a.31.31,0,0,0-.19-.57l-2.37,0-.75-2.25a.32.32,0,0,0-.61,0l-.75,2.25-2.37,0a.31.31,0,0,0-.19.57Z"/><path class="cls-3" d="M43.9,54.48H41.52l-.75-2.26a.32.32,0,0,0-.6,0l-.76,2.26H37a.32.32,0,0,0-.19.58l1.91,1.41-.71,2.26a.32.32,0,0,0,.49.36l1.93-1.38,1.93,1.38a.32.32,0,0,0,.49-.36l-.72-2.26,1.91-1.41A.32.32,0,0,0,43.9,54.48Z"/><path class="cls-3" d="M71.77,23.46l-.71,2.26a.32.32,0,0,0,.49.36l1.93-1.38,1.93,1.38a.32.32,0,0,0,.49-.36l-.71-2.26,1.9-1.41a.32.32,0,0,0-.18-.58l-2.38,0-.75-2.25a.32.32,0,0,0-.6,0l-.75,2.25-2.38,0a.32.32,0,0,0-.18.58Z"/><path class="cls-3" d="M42.17,14.61l1.91-1.41a.31.31,0,0,0-.18-.57l-2.38,0-.75-2.25a.32.32,0,0,0-.6,0l-.76,2.25-2.37,0a.32.32,0,0,0-.19.57l1.91,1.41-.71,2.27a.32.32,0,0,0,.49.35l1.93-1.38,1.22.87,1-.38Z"/><path class="cls-3" d="M61.63,55.51l1.3,1-.72,2.26a.32.32,0,0,0,.49.36l1.94-1.38,1.93,1.38a.32.32,0,0,0,.49-.36l-.72-2.26Z"/><polygon class="cls-4" points="53.99 51.16 65.81 53.18 70.4 42.92 66.61 32.57 69.18 30.13 65.39 20.58 49.45 20.92 52.39 17.69 47.23 17.86 33.13 23.11 34.56 41.74 53.99 51.16"/></svg>