<svg id="Warstwa_1" data-name="Warstwa 1" xmlns="http://www.w3.org/2000/svg" viewBox="0 0 105.48 94.04"><defs><style>.cls-1{fill:#5d2f88;}.cls-2{fill:#382259;}.cls-3{fill:#fff;}.cls-4{fill:#c90c0f;}.cls-5{fill:#afca0b;}.cls-6{fill:#f0ae00;}</style></defs><title>tropy-zuchowe-znaczki-popr-krz</title><path class="cls-1" d="M52.74,92.49a8.54,8.54,0,0,1-7.47-4.31L2.72,14.48A8.63,8.63,0,0,1,10.19,1.54h85.1a8.63,8.63,0,0,1,7.47,12.94L60.21,88.18a8.54,8.54,0,0,1-7.47,4.31"/><path class="cls-2" d="M95.29,3.09a7.08,7.08,0,0,1,6.13,10.62L58.87,87.41a7.08,7.08,0,0,1-12.26,0L4.06,13.71A7.08,7.08,0,0,1,10.19,3.09h85.1m0-3.09H10.19A10.17,10.17,0,0,0,1.38,15.25L43.93,89a10.16,10.16,0,0,0,17.61,0l42.56-73.7A10.17,10.17,0,0,0,95.29,0"/><path class="cls-3" d="M58,48.8l20.7-11.95L77,34.13C67,39.94,55.8,39.79,52.74,46.45A7,7,0,0,1,58,48.8Z"/><path class="cls-3" d="M52.74,46.45c-3.06-6.66-14.26-6.51-24.24-12.32l-1.7,2.72L47.5,48.8A7,7,0,0,1,52.74,46.45Z"/><path class="cls-4" d="M80.82,39.81a1.55,1.55,0,0,0-2.11-.57L59.13,50.55l-2,1.14a4.57,4.57,0,0,0-8.82,0l-2-1.14L26.77,39.24a1.55,1.55,0,1,0-1.54,2.68L52,57.36a1.58,1.58,0,0,0,1.54,0L80.25,41.92A1.55,1.55,0,0,0,80.82,39.81Z"/><path class="cls-5" d="M55.6,30.51c1.1,5-2.38,9.9-3.84,11.25,1.89-.34,7.28-2.13,8.05-9.82.31-3.1-2.37-10.51,2.25-11.29,2.83-.48,3.57,2.2,2.79,3.16-.32.41-2,2.21-1.48,2.77,1.48,1.47,4.08,1,5.61-.14,3.9-3,2.74-9-.67-11.76-4-3.27-9.77-1.79-12.69,2.22C52.39,21.33,54.55,25.78,55.6,30.51Z"/><path class="cls-5" d="M55.05,12.15a4.16,4.16,0,0,0-7.77-3C46.46,11.35,45,18.4,51.66,25,49.06,16.35,54.24,14.3,55.05,12.15Z"/><path class="cls-5" d="M37.52,24.77a4.15,4.15,0,0,0,3.29,4.87c2.26.44,6.73-2.89,12.67,3.85-2.07-9.1-8.83-11.58-11.09-12A4.15,4.15,0,0,0,37.52,24.77Z"/><path class="cls-6" d="M25.17,27.26l1.69,1a.78.78,0,0,1,.37.63l.09,2a.79.79,0,0,0,1.29.57l1.53-1.29a.79.79,0,0,1,.71-.15l1.93.53a.79.79,0,0,0,.93-1.06L33,27.69A.82.82,0,0,1,33,27l1.1-1.67a.78.78,0,0,0-.71-1.21l-2,.14a.78.78,0,0,1-.67-.29l-1.25-1.56a.78.78,0,0,0-1.37.3l-.48,1.93a.76.76,0,0,1-.49.55l-1.86.7A.79.79,0,0,0,25.17,27.26Z"/><path class="cls-6" d="M35.42,17.94a.6.6,0,0,1,.28.47l.06,1.5a.59.59,0,0,0,1,.42l1.15-1a.62.62,0,0,1,.54-.12l1.44.4a.59.59,0,0,0,.7-.79L40,17.47a.63.63,0,0,1,0-.55l.83-1.25a.59.59,0,0,0-.54-.91l-1.49.11a.59.59,0,0,1-.5-.22l-.94-1.17a.59.59,0,0,0-1,.22L36,15.16a.61.61,0,0,1-.37.41l-1.4.53a.59.59,0,0,0-.1,1Z"/><path class="cls-6" d="M70.41,28.79l-1.48.2a.59.59,0,0,0-.34,1l1.06,1.06a.6.6,0,0,1,.17.52l-.27,1.48a.59.59,0,0,0,.85.63L71.73,33a.59.59,0,0,1,.55,0l1.32.71a.59.59,0,0,0,.86-.61l-.24-1.48a.58.58,0,0,1,.18-.52l1.08-1a.59.59,0,0,0-.32-1l-1.48-.23a.61.61,0,0,1-.44-.32l-.65-1.35a.59.59,0,0,0-1.06,0l-.67,1.33A.6.6,0,0,1,70.41,28.79Z"/></svg>