<svg id="Warstwa_1" data-name="Warstwa 1" xmlns="http://www.w3.org/2000/svg" viewBox="0 0 105.48 94.04"><defs><style>.cls-1{fill:#5d2f88;}.cls-2{fill:#382259;}.cls-3{fill:#afca0b;}.cls-4{fill:#fff;}</style></defs><title>tropy-zuchowe-znaczki-popr-krz</title><path class="cls-1" d="M52.74,92.49a8.54,8.54,0,0,1-7.47-4.31L2.72,14.48A8.63,8.63,0,0,1,10.19,1.54h85.1a8.63,8.63,0,0,1,7.47,12.94L60.21,88.18a8.54,8.54,0,0,1-7.47,4.31"/><path class="cls-2" d="M95.29,3.09a7.08,7.08,0,0,1,6.13,10.62L58.87,87.41a7.08,7.08,0,0,1-12.26,0L4.06,13.71A7.08,7.08,0,0,1,10.19,3.09h85.1m0-3.09H10.19A10.17,10.17,0,0,0,1.38,15.25L43.93,89a10.16,10.16,0,0,0,17.61,0l42.56-73.7A10.17,10.17,0,0,0,95.29,0"/><path class="cls-3" d="M67.22,27.83a9.73,9.73,0,0,1,9.72,9.72c0,3.5-3.68,8.63-6.22,11.77l2.33,4.12,8.7-16L65.13,8,56.42,24l3.83,6.77A9.7,9.7,0,0,1,67.22,27.83Z"/><path class="cls-3" d="M37,45.65A1.84,1.84,0,0,1,35.67,45a53.29,53.29,0,0,1-6.55-8.89l-3.26,6L42.49,71.59l8.7-16.05L42.45,40.07a63.37,63.37,0,0,1-4,5A1.85,1.85,0,0,1,37,45.65Z"/><path class="cls-3" d="M67.22,52.42a1.84,1.84,0,0,1-1.37-.61c-1.39-1.54-8.34-9.45-8.34-14.26a9.6,9.6,0,0,1,1.17-4.62l-4.39-7.78-9.66-.43a9.67,9.67,0,0,1,2.13,6.06c0,2.1-1.33,4.8-2.94,7.3l8.86,15.68,18.23.82-1.85-3.29-.46.52A1.85,1.85,0,0,1,67.22,52.42Z"/><path class="cls-4" d="M29.18,30.78c0,4.34,7.86,13,7.86,13s7.87-8.67,7.87-13a7.87,7.87,0,1,0-15.73,0ZM37,35.45a4.68,4.68,0,1,1,4.68-4.67A4.67,4.67,0,0,1,37,35.45Z"/><path class="cls-4" d="M75.09,37.55a7.87,7.87,0,1,0-15.73,0c0,4.34,7.86,13,7.86,13S75.09,41.89,75.09,37.55Zm-7.87-4.68a4.68,4.68,0,1,1-4.67,4.68A4.68,4.68,0,0,1,67.22,32.87Z"/></svg>