<?xml version="1.0" encoding="iso-8859-1"?>
<!-- Generator: Adobe Illustrator 22.1.0, SVG Export Plug-In . SVG Version: 6.00 Build 0)  -->
<svg version="1.1" id="Warstwa_1" xmlns="http://www.w3.org/2000/svg" x="0px" y="0px"
	 viewBox="0 0 105.477 94.042" style="enable-background:new 0 0 105.477 94.042;" xml:space="preserve">
<g>
	<path style="fill:#194093;" d="M52.738,92.493c-3.117,0-5.909-1.612-7.468-4.311L2.718,14.478
		c-1.559-2.699-1.559-5.923-0.001-8.622c1.559-2.699,4.351-4.311,7.468-4.311h85.106c3.117,0,5.909,1.612,7.468,4.311
		c1.558,2.699,1.558,5.923-0.001,8.622L60.206,88.182C58.647,90.881,55.856,92.493,52.738,92.493"/>
	<path style="fill:#252E78;" d="M95.291,3.088c5.449,0,8.855,5.899,6.13,10.618L58.869,87.41c-1.362,2.359-3.746,3.539-6.13,3.539
		s-4.768-1.18-6.131-3.539L4.055,13.705C1.331,8.987,4.736,3.088,10.186,3.088H95.291 M95.291,0H10.186
		C6.51,0,3.219,1.9,1.381,5.083c-1.838,3.184-1.838,6.984,0,10.167l42.553,73.704c1.837,3.183,5.129,5.083,8.805,5.083
		c3.675,0,6.967-1.9,8.805-5.083l42.553-73.704c1.838-3.183,1.838-6.983,0-10.167C102.258,1.9,98.967,0,95.291,0"/>
</g>
<g>
	<g>
		<path style="fill:#F0AE00;" d="M53.045,7.536l0.759,2.275l2.398,0.019c0.31,0.002,0.439,0.398,0.189,0.583l-1.929,1.424
			l0.723,2.286c0.094,0.296-0.243,0.541-0.496,0.36l-1.951-1.394l-1.951,1.394c-0.253,0.18-0.589-0.064-0.496-0.36l0.723-2.286
			l-1.929-1.424c-0.25-0.184-0.121-0.581,0.189-0.583l2.398-0.019l0.759-2.275C52.53,7.242,52.947,7.242,53.045,7.536z"/>
		<path style="fill:#F0AE00;" d="M53.045,56.371l0.759,2.275l2.398,0.019c0.31,0.002,0.439,0.398,0.189,0.583l-1.929,1.424
			l0.723,2.286c0.094,0.296-0.243,0.541-0.496,0.36l-1.951-1.394l-1.951,1.394c-0.253,0.18-0.589-0.064-0.496-0.36l0.723-2.286
			l-1.929-1.424c-0.25-0.184-0.121-0.581,0.189-0.583l2.398-0.019l0.759-2.275C52.53,56.077,52.947,56.077,53.045,56.371z"/>
		<path style="fill:#F0AE00;" d="M77.462,31.954l0.759,2.275l2.398,0.019c0.31,0.002,0.439,0.398,0.189,0.583l-1.929,1.424
			l0.723,2.286c0.094,0.296-0.243,0.541-0.496,0.36l-1.951-1.394L75.205,38.9c-0.253,0.18-0.59-0.064-0.496-0.36l0.723-2.286
			l-1.929-1.424c-0.25-0.184-0.121-0.581,0.189-0.583l2.398-0.019l0.759-2.275C76.948,31.659,77.364,31.659,77.462,31.954z"/>
		<path style="fill:#F0AE00;" d="M28.628,31.954l0.759,2.275l2.398,0.019c0.31,0.002,0.439,0.398,0.189,0.583l-1.929,1.424
			l0.723,2.286c0.094,0.296-0.243,0.541-0.496,0.36l-1.951-1.394L26.371,38.9c-0.253,0.18-0.59-0.064-0.496-0.36l0.723-2.286
			l-1.929-1.424c-0.25-0.184-0.121-0.581,0.189-0.583l2.398-0.019l0.759-2.275C28.113,31.659,28.529,31.659,28.628,31.954z"/>
		<path style="fill:#F0AE00;" d="M32.293,19.203l0.759,2.275l2.398,0.019c0.31,0.002,0.439,0.398,0.189,0.583l-1.929,1.424
			l0.723,2.286c0.094,0.296-0.243,0.541-0.496,0.36l-1.951-1.394l-1.951,1.394c-0.253,0.18-0.59-0.064-0.496-0.36l0.723-2.286
			l-1.929-1.424c-0.25-0.184-0.121-0.581,0.189-0.583l2.398-0.019l0.759-2.275C31.778,18.908,32.195,18.908,32.293,19.203z"/>
		<path style="fill:#F0AE00;" d="M74.585,43.62l0.759,2.275l2.398,0.019c0.31,0.002,0.439,0.398,0.189,0.583l-1.929,1.424
			l0.723,2.286c0.094,0.296-0.243,0.541-0.496,0.36l-1.951-1.394l-1.951,1.394c-0.253,0.18-0.589-0.064-0.496-0.36l0.723-2.286
			l-1.929-1.424c-0.25-0.184-0.121-0.581,0.189-0.583l2.398-0.019l0.759-2.275C74.071,43.325,74.487,43.325,74.585,43.62z"/>
		<path style="fill:#F0AE00;" d="M65.648,10.265l0.759,2.275l2.398,0.019c0.31,0.002,0.439,0.398,0.189,0.583l-1.929,1.424
			l0.723,2.286c0.094,0.296-0.243,0.541-0.496,0.36l-1.951-1.394l-1.951,1.394c-0.253,0.18-0.589-0.064-0.496-0.36l0.723-2.286
			l-1.929-1.424c-0.25-0.184-0.121-0.581,0.189-0.583l2.398-0.019l0.759-2.275C65.133,9.971,65.55,9.971,65.648,10.265z"/>
		<path style="fill:#F0AE00;" d="M41.231,52.557l0.759,2.275l2.398,0.019c0.31,0.002,0.439,0.398,0.189,0.583l-1.929,1.424
			l0.723,2.286c0.094,0.296-0.243,0.541-0.496,0.36l-1.951-1.394l-1.951,1.394c-0.253,0.18-0.589-0.064-0.496-0.36l0.723-2.286
			l-1.929-1.424c-0.25-0.184-0.121-0.581,0.189-0.583l2.398-0.019l0.759-2.275C40.716,52.263,41.132,52.263,41.231,52.557z"/>
		<path style="fill:#F0AE00;" d="M73.972,19.203l-0.759,2.275l-2.398,0.019c-0.31,0.002-0.439,0.398-0.189,0.583l1.929,1.424
			l-0.723,2.286c-0.094,0.296,0.243,0.541,0.496,0.36l1.951-1.394l1.951,1.394c0.253,0.18,0.589-0.064,0.496-0.36l-0.723-2.286
			l1.929-1.424c0.25-0.184,0.121-0.581-0.189-0.583l-2.398-0.019l-0.759-2.275C74.487,18.908,74.071,18.908,73.972,19.203z"/>
		<path style="fill:#F0AE00;" d="M31.68,43.62l-0.759,2.275l-2.398,0.019c-0.31,0.002-0.439,0.398-0.189,0.583l1.929,1.424
			l-0.723,2.286c-0.094,0.296,0.243,0.541,0.496,0.36l1.951-1.394l1.951,1.394c0.253,0.18,0.59-0.064,0.496-0.36l-0.723-2.286
			l1.929-1.424c0.25-0.184,0.121-0.581-0.189-0.583l-2.398-0.019l-0.759-2.275C32.195,43.325,31.778,43.325,31.68,43.62z"/>
		<path style="fill:#F0AE00;" d="M40.618,10.265l-0.759,2.275l-2.398,0.019c-0.31,0.002-0.439,0.398-0.189,0.583l1.929,1.424
			l-0.723,2.286c-0.094,0.296,0.243,0.541,0.496,0.36l1.951-1.394l1.951,1.394c0.253,0.18,0.59-0.064,0.496-0.36l-0.723-2.286
			l1.929-1.424c0.25-0.184,0.121-0.581-0.189-0.583l-2.398-0.019l-0.759-2.275C41.132,9.971,40.716,9.971,40.618,10.265z"/>
		<path style="fill:#F0AE00;" d="M65.035,52.557l-0.759,2.275l-2.398,0.019c-0.31,0.002-0.439,0.398-0.189,0.583l1.929,1.424
			l-0.723,2.286c-0.094,0.296,0.243,0.541,0.496,0.36l1.951-1.394l1.951,1.394c0.253,0.18,0.59-0.064,0.496-0.36l-0.723-2.286
			l1.929-1.424c0.25-0.184,0.121-0.581-0.189-0.583l-2.398-0.019l-0.759-2.275C65.55,52.263,65.133,52.263,65.035,52.557z"/>
	</g>
</g>
</svg>
