<svg xmlns="http://www.w3.org/2000/svg" viewBox="0 0 105.48 94.04"><path d="M52.74,92.49a8.54,8.54,0,0,1-7.47-4.31L2.72,14.48A8.63,8.63,0,0,1,10.19,1.54h85.1a8.63,8.63,0,0,1,7.47,12.94L60.21,88.18a8.54,8.54,0,0,1-7.47,4.31" fill="#5d2f88"/><path d="M95.29,3.09a7.08,7.08,0,0,1,6.13,10.62L58.87,87.41a7.08,7.08,0,0,1-12.26,0L4.06,13.71A7.08,7.08,0,0,1,10.19,3.09h85.1m0-3.09H10.19A10.17,10.17,0,0,0,1.38,15.25L43.93,89a10.16,10.16,0,0,0,17.61,0l42.56-73.7A10.17,10.17,0,0,0,95.29,0" fill="#382259"/><path d="M25.42,38.1c9.13-3,22.72-7.39,29.13-3.93a32.62,32.62,0,0,0,24,3.11l1.08-23.86c-26,7.16-21.12-.22-26.52-2.77-12.31-5.82-31.93-1-42.22,3.14Z" fill="#fff"/><path d="M31,48.27c7.32-2.38,18.23-5.93,23.37-3.16,10.48,5.65,23.67,1.75,24,1.91L79,28.44c-20.88,5.74-21.89-.2-26.22-2.25-9.88-4.67-25.1-.74-33.35,2.57Z" fill="#c90c0f"/><path d="M50.49 83.45a1.49 1.49 0 0 1-1.29-.74L9.79 15.34a1.5 1.5 0 1 1 2.59-1.52L51.79 81.2a1.51 1.51 0 0 1-.54 2 1.49 1.49 0 0 1-.76.25z" fill="#f0ae00"/></svg>