<?xml version="1.0" encoding="iso-8859-1"?>
<!-- Generator: Adobe Illustrator 22.1.0, SVG Export Plug-In . SVG Version: 6.00 Build 0)  -->
<svg version="1.1" id="Warstwa_1" xmlns="http://www.w3.org/2000/svg" xmlns:xlink="http://www.w3.org/1999/xlink" x="0px" y="0px"
	 viewBox="0 0 105.477 94.042" style="enable-background:new 0 0 105.477 94.042;" xml:space="preserve">
<g>
	<path style="fill:#5D2F88;" d="M52.736,92.494c-3.117,0-5.909-1.612-7.468-4.311L2.715,14.478
		c-1.559-2.699-1.559-5.923-0.001-8.622c1.559-2.699,4.351-4.311,7.468-4.311h85.107c3.117,0,5.909,1.612,7.468,4.311
		c1.558,2.699,1.558,5.923-0.001,8.622L60.204,88.183C58.645,90.882,55.854,92.494,52.736,92.494"/>
	<path style="fill:#382259;" d="M95.29,3.088c5.449,0,8.855,5.899,6.131,10.618L58.867,87.411c-1.362,2.359-3.746,3.539-6.131,3.539
		s-4.768-1.18-6.131-3.539L4.052,13.706C1.328,8.987,4.734,3.088,10.183,3.088H95.29 M95.29,0H10.183C6.507,0,3.216,1.9,1.378,5.083
		c-1.838,3.184-1.838,6.984,0,10.167l42.553,73.705c1.837,3.183,5.129,5.083,8.805,5.083c3.675,0,6.967-1.9,8.805-5.083
		l42.553-73.705c1.838-3.183,1.838-6.983,0-10.167C102.256,1.9,98.965,0,95.29,0"/>
</g>
<g>
	<path style="fill:#AFCA0B;" d="M84.353,34.703c-2.573-2.675-4.891-5.459-6.952-8.385c-0.034-0.048-0.041-0.104-0.019-0.159
		c0.021-0.054,0.066-0.091,0.123-0.102c1.052-0.213,2.042-0.483,2.934-0.811c0.183-0.067,0.309-0.209,0.353-0.399
		c0.044-0.19-0.006-0.373-0.141-0.514c-2.104-2.205-3.972-4.511-5.602-6.955c-0.032-0.048-0.037-0.104-0.015-0.158
		c0.022-0.053,0.065-0.09,0.123-0.101c0.561-0.112,1.094-0.249,1.586-0.412c0.187-0.062,0.319-0.203,0.367-0.394
		c0.048-0.191,0-0.378-0.134-0.522c-2.152-2.294-3.904-4.763-5.25-7.506c-0.097-0.197-0.284-0.314-0.503-0.314
		s-0.407,0.117-0.503,0.314c-1.346,2.743-3.098,5.212-5.25,7.506c-0.135,0.144-0.183,0.331-0.135,0.522
		c0.049,0.191,0.18,0.332,0.367,0.394c0.492,0.163,1.026,0.301,1.587,0.412c0.057,0.011,0.1,0.047,0.123,0.101
		c0.022,0.054,0.017,0.11-0.016,0.158c-1.629,2.443-3.498,4.749-5.602,6.955c-0.134,0.141-0.185,0.324-0.14,0.514
		c0.044,0.19,0.17,0.332,0.353,0.399c0.893,0.328,1.882,0.598,2.934,0.811c0.057,0.011,0.102,0.048,0.123,0.102
		c0.022,0.055,0.015,0.111-0.019,0.159c-2.061,2.926-4.379,5.71-6.953,8.385c-0.134,0.14-0.185,0.321-0.143,0.51
		c0.042,0.189,0.154,0.332,0.335,0.402c2.776,1.069,6.257,1.715,9.929,1.941V41.2h1.608h2.901h1.537v-3.643
		c3.575-0.226,7.172-0.872,9.951-1.942c0.18-0.07,0.273-0.213,0.315-0.402C84.568,35.024,84.487,34.842,84.353,34.703z"/>
	<path style="fill:#AFCA0B;" d="M65.853,66.881c-2.573-2.675-4.891-5.459-6.952-8.385c-0.034-0.048-0.041-0.104-0.019-0.159
		c0.021-0.054,0.066-0.091,0.123-0.102c1.052-0.213,2.042-0.483,2.934-0.811c0.183-0.067,0.309-0.209,0.353-0.399
		c0.044-0.19-0.006-0.373-0.141-0.514c-2.104-2.205-3.972-4.511-5.602-6.955c-0.032-0.048-0.037-0.104-0.015-0.158
		c0.022-0.053,0.065-0.09,0.123-0.101c0.561-0.112,1.094-0.249,1.586-0.412c0.187-0.062,0.319-0.203,0.367-0.394
		c0.048-0.191,0-0.378-0.134-0.522c-2.152-2.294-3.904-4.763-5.25-7.506c-0.097-0.197-0.284-0.314-0.503-0.314
		s-0.407,0.117-0.503,0.314c-1.346,2.743-3.098,5.212-5.25,7.506c-0.135,0.144-0.183,0.331-0.135,0.522
		c0.049,0.191,0.18,0.332,0.367,0.394c0.492,0.163,1.026,0.301,1.587,0.412c0.057,0.011,0.1,0.047,0.123,0.101
		c0.022,0.054,0.017,0.11-0.016,0.158c-1.629,2.443-3.498,4.749-5.602,6.955c-0.134,0.141-0.185,0.324-0.14,0.514
		c0.044,0.19,0.17,0.332,0.353,0.399c0.893,0.328,1.882,0.598,2.934,0.811c0.057,0.011,0.102,0.048,0.123,0.102
		c0.022,0.055,0.015,0.111-0.019,0.159c-2.061,2.926-4.379,5.71-6.953,8.385c-0.134,0.14-0.185,0.321-0.143,0.51
		c0.042,0.189,0.154,0.332,0.335,0.402c2.776,1.069,6.257,1.715,9.929,1.941v3.644h1.608h2.901h1.537v-3.643
		c3.575-0.226,7.172-0.872,9.951-1.942c0.18-0.07,0.273-0.213,0.315-0.402C66.068,67.202,65.987,67.021,65.853,66.881z"/>
	<path style="fill:#AFCA0B;" d="M47.353,34.703c-2.573-2.675-4.891-5.459-6.952-8.385c-0.034-0.048-0.041-0.104-0.019-0.159
		c0.021-0.054,0.066-0.091,0.123-0.102c1.052-0.213,2.042-0.483,2.934-0.811c0.183-0.067,0.309-0.209,0.353-0.399
		c0.044-0.19-0.006-0.373-0.141-0.514c-2.104-2.205-3.972-4.511-5.602-6.955c-0.032-0.048-0.037-0.104-0.015-0.158
		c0.022-0.053,0.065-0.09,0.123-0.101c0.561-0.112,1.094-0.249,1.586-0.412c0.187-0.062,0.319-0.203,0.367-0.394
		c0.048-0.191,0-0.378-0.134-0.522c-2.152-2.294-3.904-4.763-5.25-7.506c-0.097-0.197-0.284-0.314-0.503-0.314
		s-0.407,0.117-0.503,0.314c-1.346,2.743-3.098,5.212-5.25,7.506c-0.135,0.144-0.183,0.331-0.135,0.522
		c0.049,0.191,0.18,0.332,0.367,0.394c0.492,0.163,1.026,0.301,1.587,0.412c0.057,0.011,0.1,0.047,0.123,0.101
		c0.022,0.054,0.017,0.11-0.016,0.158c-1.629,2.443-3.498,4.749-5.602,6.955c-0.134,0.141-0.185,0.324-0.14,0.514
		c0.044,0.19,0.17,0.332,0.353,0.399c0.893,0.328,1.882,0.598,2.934,0.811c0.057,0.011,0.102,0.048,0.123,0.102
		c0.022,0.055,0.015,0.111-0.019,0.159c-2.061,2.926-4.379,5.71-6.953,8.385c-0.134,0.14-0.185,0.321-0.143,0.51
		c0.042,0.189,0.154,0.332,0.335,0.402c2.776,1.069,6.257,1.715,9.929,1.941V41.2h1.608h2.901h1.537v-3.643
		c3.575-0.226,7.172-0.872,9.951-1.942c0.18-0.07,0.273-0.213,0.315-0.402C47.568,35.024,47.487,34.842,47.353,34.703z"/>
</g>
</svg>
