<?xml version="1.0" encoding="iso-8859-1"?>
<!-- Generator: Adobe Illustrator 22.1.0, SVG Export Plug-In . SVG Version: 6.00 Build 0)  -->
<svg version="1.1" id="Warstwa_1" xmlns="http://www.w3.org/2000/svg" xmlns:xlink="http://www.w3.org/1999/xlink" x="0px" y="0px"
	 viewBox="0 0 105.477 94.042" style="enable-background:new 0 0 105.477 94.042;" xml:space="preserve">
<g>
	<path style="fill:#5D2F88;" d="M52.736,92.494c-3.117,0-5.909-1.612-7.468-4.311L2.715,14.478
		c-1.559-2.699-1.559-5.923-0.001-8.622c1.559-2.699,4.351-4.311,7.468-4.311h85.107c3.117,0,5.909,1.612,7.468,4.311
		c1.558,2.699,1.558,5.923-0.001,8.622L60.204,88.183C58.645,90.882,55.854,92.494,52.736,92.494"/>
	<path style="fill:#382259;" d="M95.29,3.088c5.449,0,8.855,5.899,6.131,10.618L58.867,87.411c-1.362,2.359-3.746,3.539-6.131,3.539
		s-4.768-1.18-6.131-3.539L4.052,13.706C1.328,8.987,4.734,3.088,10.183,3.088H95.29 M95.29,0H10.183C6.507,0,3.216,1.9,1.378,5.083
		c-1.838,3.184-1.838,6.984,0,10.167l42.553,73.705c1.837,3.183,5.129,5.083,8.805,5.083c3.675,0,6.967-1.9,8.805-5.083
		l42.553-73.705c1.838-3.183,1.838-6.983,0-10.167C102.256,1.9,98.965,0,95.29,0"/>
</g>
<g>
	<g>
		<path style="fill:#26B4E6;" d="M67.873,35.022c0-5.105-1.616-9.731-4.234-13.161l1.229-3.967
			c-0.116-1.466,0.072-4.934,0.023-5.038c-2.136-4.506-5.897-5.752-10.418-5.733c-3.555,0.015-6.946,2.072-8.479,4.546
			c-2.024,3.266-3.242,6.998-3.855,9.246c-3.074,3.498-5.015,8.515-5.015,14.108c0,6.665,6.115,13.82,10.632,18.197l-1.763,25.488
			l6.98-5l6.504,5l-1.793-25.923C62.149,48.377,67.873,41.472,67.873,35.022z M56.113,14.247c0-1.566,1.269-2.835,2.835-2.835
			c1.566,0,2.835,1.269,2.835,2.835s-1.269,2.835-2.835,2.835C57.382,17.082,56.113,15.813,56.113,14.247z"/>
	</g>
	<g>
		<path style="fill:#FFFFFF;" d="M61.637,35.871c0,9.446-8.919,19.997-8.919,19.997s-9.884-10.552-9.884-19.997
			c0-5.279,0.716-10,2.674-13.137c1.545-2.476,3.862,1.319,7.21,1.319c3.321,0,5.443-3.819,6.78-1.379
			C61.217,25.811,61.637,30.558,61.637,35.871z"/>
	</g>
	<g>
		<path style="fill:#AFCA0B;" d="M74.254,50.029H31.219c-0.848,0-1.535-0.688-1.535-1.535s0.688-1.535,1.535-1.535h43.034
			c0.848,0,1.535,0.688,1.535,1.535S75.101,50.029,74.254,50.029z"/>
	</g>
	<g>
		<path style="fill:#EF7D00;" d="M64.891,12.856c-0.87-1.835-2.013-3.122-3.363-4.01c-4.966-0.602-9.292,2.567-9.292,5.402
			c0,6.045,9.275,6.398,11.803,6.321l0.828-2.674C64.752,16.428,64.94,12.96,64.891,12.856z M58.948,17.082
			c-1.565,0-2.835-1.269-2.835-2.835s1.269-2.835,2.835-2.835c1.566,0,2.835,1.269,2.835,2.835S60.514,17.082,58.948,17.082z"/>
	</g>
	<g id="XMLID_3_">
		<g id="XMLID_13_">
			<polygon style="fill:#382259;" points="62.704,14.977 64.218,11.625 70.262,14.977 64.733,18.329 			"/>
		</g>
	</g>
</g>
</svg>
