<?xml version="1.0" encoding="iso-8859-1"?>
<!-- Generator: Adobe Illustrator 22.1.0, SVG Export Plug-In . SVG Version: 6.00 Build 0)  -->
<svg version="1.1" id="Warstwa_1" xmlns="http://www.w3.org/2000/svg" xmlns:xlink="http://www.w3.org/1999/xlink" x="0px" y="0px"
	 viewBox="0 0 105.477 94.042" style="enable-background:new 0 0 105.477 94.042;" xml:space="preserve">
<g>
	<path style="fill:#5D2F88;" d="M52.736,92.494c-3.117,0-5.909-1.612-7.468-4.311L2.715,14.478
		c-1.559-2.699-1.559-5.923-0.001-8.622c1.559-2.699,4.351-4.311,7.468-4.311h85.107c3.117,0,5.909,1.612,7.468,4.311
		c1.558,2.699,1.558,5.923-0.001,8.622L60.204,88.183C58.645,90.882,55.854,92.494,52.736,92.494"/>
	<path style="fill:#382259;" d="M95.29,3.088c5.449,0,8.855,5.899,6.131,10.618L58.867,87.411c-1.362,2.359-3.746,3.539-6.131,3.539
		s-4.768-1.18-6.131-3.539L4.052,13.706C1.328,8.987,4.734,3.088,10.183,3.088H95.29 M95.29,0H10.183C6.507,0,3.216,1.9,1.378,5.083
		c-1.838,3.184-1.838,6.984,0,10.167l42.553,73.705c1.837,3.183,5.129,5.083,8.805,5.083c3.675,0,6.967-1.9,8.805-5.083
		l42.553-73.705c1.838-3.183,1.838-6.983,0-10.167C102.256,1.9,98.965,0,95.29,0"/>
</g>
<g>
	<g>
		<g>
			<path style="fill:#AFCA0B;" d="M52.736,8.524c-11.575,0-20.958,9.383-20.958,20.958s9.384,20.959,20.958,20.959
				c11.575,0,20.959-9.383,20.959-20.959S64.311,8.524,52.736,8.524z M42.91,32.887c-1.729,0-3.131-1.402-3.131-3.132
				c0-1.729,1.402-3.132,3.131-3.132c1.73,0,3.132,1.403,3.132,3.132C46.042,31.485,44.64,32.887,42.91,32.887z M52.737,44.441
				c-3.129,0-5.675-2.546-5.675-5.675c0-0.8,0.648-1.449,1.449-1.449c0.8,0,1.449,0.649,1.449,1.449
				c0,1.531,1.246,2.777,2.777,2.777c1.531,0,2.776-1.246,2.776-2.777c0-0.8,0.649-1.449,1.449-1.449s1.449,0.649,1.449,1.449
				C58.411,41.895,55.865,44.441,52.737,44.441z M62.562,32.887c-1.729,0-3.131-1.402-3.131-3.132c0-1.729,1.402-3.132,3.131-3.132
				c1.73,0,3.132,1.403,3.132,3.132C65.694,31.485,64.292,32.887,62.562,32.887z"/>
		</g>
	</g>
	<path style="fill:#26B4E6;" d="M69.096,24.364c0,0,1.529-0.686,3.387-1.848C69.609,14.371,61.865,8.524,52.736,8.524
		c-9.129,0-16.873,5.847-19.747,13.992c1.858,1.162,3.387,1.848,3.387,1.848s5.315-2.382,8.18-5.811
		c2.865,3.429,8.18,5.811,8.18,5.811s5.315-2.382,8.18-5.811C63.782,21.982,69.096,24.364,69.096,24.364z"/>
</g>
<g>
	<path style="fill:#AFCA0B;" d="M72.728,54.759H32.744L48.51,82.067c1.878,3.253,6.574,3.253,8.452,0L72.728,54.759z"/>
</g>
<g>
	<path style="fill:#26B4E6;" d="M53.759,59.383c-6.751-2.125-12.96-5.711-19.484-8.411c-1.477-0.611-3.065-1.19-4.708-1.717
		l10.616,18.388c8.108,2.89,17.849,3.7,25.179-0.126l4.799-8.312C64.767,60.824,59.521,61.197,53.759,59.383z"/>
	<path style="fill:#26B4E6;" d="M45.226,76.378l3.284,5.688c1.878,3.253,6.574,3.253,8.452,0l3.052-5.286
		C55.042,77.917,50.114,77.51,45.226,76.378z"/>
</g>
</svg>
