<svg id="Warstwa_1" data-name="Warstwa 1" xmlns="http://www.w3.org/2000/svg" viewBox="0 0 105.48 94.04"><defs><style>.cls-1{fill:#5d2f88;}.cls-2{fill:#382259;}.cls-3{fill:#afca0b;}.cls-4{fill:#fff;}</style></defs><title>tropy-zuchowe-znaczki-popr-krz</title><path class="cls-1" d="M52.74,92.49a8.54,8.54,0,0,1-7.47-4.31L2.72,14.48A8.63,8.63,0,0,1,10.19,1.54h85.1a8.63,8.63,0,0,1,7.47,12.94L60.21,88.18a8.54,8.54,0,0,1-7.47,4.31"/><path class="cls-2" d="M95.29,3.09a7.08,7.08,0,0,1,6.13,10.62L58.87,87.41a7.08,7.08,0,0,1-12.26,0L4.06,13.71A7.08,7.08,0,0,1,10.19,3.09h85.1m0-3.09H10.19A10.17,10.17,0,0,0,1.38,15.25L43.93,89a10.16,10.16,0,0,0,17.61,0l42.56-73.7A10.17,10.17,0,0,0,95.29,0"/><path class="cls-3" d="M74.42,46c0-9.8-14.52-30-19.79-37a2.36,2.36,0,0,0-3.78,0c-5.28,7-19.79,27.23-19.79,37A21.68,21.68,0,0,0,50.85,67.54c0,6.95,0,5.48,0,15.09a1.88,1.88,0,1,0,3.75,0c0-9.56,0-8.16,0-15.09A21.68,21.68,0,0,0,74.42,46Z"/><path class="cls-4" d="M67,50.15a1.49,1.49,0,0,0-2.12,0L54.24,60.83V55.47l12-12a1.49,1.49,0,0,0,0-2.12,1.51,1.51,0,0,0-2.12,0l-9.88,9.89V45.32l8.12-8.12a1.5,1.5,0,0,0-2.12-2.12l-7.5,7.5-7.5-7.5a1.5,1.5,0,0,0-2.12,2.12l8.12,8.12v5.91l-9.88-9.89a1.5,1.5,0,0,0-2.13,2.12l12,12v5.36L40.56,50.15a1.5,1.5,0,0,0-2.13,2.12L51.68,65.51a1.5,1.5,0,0,0,2.12,0L67,52.27A1.49,1.49,0,0,0,67,50.15Z"/><path class="cls-1" d="M48.8,24.74A2.84,2.84,0,1,1,46,21.9a2.83,2.83,0,0,1,2.83,2.84"/><path class="cls-1" d="M52.74,36.16a4.6,4.6,0,0,1-4.59-4.59,1.5,1.5,0,0,1,3,0,1.59,1.59,0,1,0,3.18,0,1.5,1.5,0,0,1,3,0A4.6,4.6,0,0,1,52.74,36.16Z"/><path class="cls-1" d="M62.34,24.74a2.84,2.84,0,1,1-2.83-2.84,2.83,2.83,0,0,1,2.83,2.84"/></svg>