<?xml version="1.0" encoding="iso-8859-1"?>
<!-- Generator: Adobe Illustrator 22.1.0, SVG Export Plug-In . SVG Version: 6.00 Build 0)  -->
<svg version="1.1" id="Warstwa_1" xmlns="http://www.w3.org/2000/svg" xmlns:xlink="http://www.w3.org/1999/xlink" x="0px" y="0px"
	 viewBox="0 0 105.477 94.042" style="enable-background:new 0 0 105.477 94.042;" xml:space="preserve">
<g>
	<path style="fill:#5D2F88;" d="M52.736,92.494c-3.117,0-5.909-1.612-7.468-4.311L2.715,14.478
		c-1.559-2.699-1.559-5.923-0.001-8.622c1.559-2.699,4.351-4.311,7.468-4.311h85.107c3.117,0,5.909,1.612,7.468,4.311
		c1.558,2.699,1.558,5.923-0.001,8.622L60.204,88.183C58.645,90.882,55.854,92.494,52.736,92.494"/>
	<path style="fill:#382259;" d="M95.29,3.088c5.449,0,8.855,5.899,6.131,10.618L58.867,87.411c-1.362,2.359-3.746,3.539-6.131,3.539
		s-4.768-1.18-6.131-3.539L4.052,13.706C1.328,8.987,4.734,3.088,10.183,3.088H95.29 M95.29,0H10.183C6.507,0,3.216,1.9,1.378,5.083
		c-1.838,3.184-1.838,6.984,0,10.167l42.553,73.705c1.837,3.183,5.129,5.083,8.805,5.083c3.675,0,6.967-1.9,8.805-5.083
		l42.553-73.705c1.838-3.183,1.838-6.983,0-10.167C102.256,1.9,98.965,0,95.29,0"/>
</g>
<g>
	<g>
		<path style="fill:#AFCA0B;" d="M90.841,21.388l-4.509-7.809c-0.866-1.5-3.03-1.5-3.896,0l-4.509,7.809
			c-0.058,0.1-0.085,0.205-0.126,0.308l-4.824,6.13H60.932c-0.001-0.012-0.001-0.025-0.002-0.037
			c0.005-0.179,0.027-0.354,0.027-0.535c0-10.818-8.77-19.588-19.588-19.588s-19.588,8.77-19.588,19.588
			c0,7.37,4.075,13.783,10.091,17.127v7.584c0,3.324,2.695,6.019,6.019,6.019h17.048c3.324,0,6.019-2.695,6.019-6.019v-0.783
			l20.793-26.419h7.142C90.624,24.762,91.706,22.887,90.841,21.388z M26.781,27.254c0-8.044,6.544-14.588,14.588-14.588
			c5.897,0,10.977,3.524,13.274,8.571c-0.271-0.031-0.546-0.051-0.826-0.051H34.267c-1.323,0-2.395,1.072-2.395,2.395v14.723
			C28.761,35.626,26.781,31.67,26.781,27.254z M60.958,32.825h8.084l-8.084,10.271V32.825z"/>
	</g>
	<g>
		<path style="fill:#FFFFFF;" d="M56.132,35.454c-0.757-2.331-3.398-3.562-5.898-2.75c-0.03,0.01-0.057,0.027-0.087,0.038
			c-0.014-2.616-1.993-4.732-4.435-4.732c-2.451,0-4.438,2.131-4.438,4.76c0,0.032,0.008,0.063,0.01,0.094
			c-2.492-0.795-5.117,0.433-5.871,2.756c-0.758,2.331,0.655,4.879,3.156,5.692c0.03,0.01,0.062,0.011,0.093,0.02
			c-1.526,2.125-1.169,5,0.807,6.435c1.983,1.441,4.843,0.884,6.388-1.242c0.019-0.026,0.03-0.056,0.048-0.082
			c1.549,2.108,4.394,2.657,6.37,1.221c1.983-1.441,2.338-4.333,0.792-6.459c-0.019-0.026-0.044-0.046-0.063-0.071
			C55.486,40.313,56.887,37.777,56.132,35.454z M45.8,43.429c-2.499,0-4.525-2.026-4.525-4.525c0-2.499,2.026-4.525,4.525-4.525
			s4.525,2.026,4.525,4.525C50.325,41.403,48.299,43.429,45.8,43.429z"/>
		<circle style="fill:#F0AE00;" cx="45.8" cy="38.904" r="4.525"/>
	</g>
</g>
</svg>
