<?xml version="1.0" encoding="iso-8859-1"?>
<!-- Generator: Adobe Illustrator 22.1.0, SVG Export Plug-In . SVG Version: 6.00 Build 0)  -->
<svg version="1.1" id="Warstwa_1" xmlns="http://www.w3.org/2000/svg" xmlns:xlink="http://www.w3.org/1999/xlink" x="0px" y="0px"
	 viewBox="0 0 105.477 94.042" style="enable-background:new 0 0 105.477 94.042;" xml:space="preserve">
<g>
	<path style="fill:#5D2F88;" d="M52.736,92.494c-3.117,0-5.909-1.612-7.468-4.311L2.715,14.478
		c-1.559-2.699-1.559-5.923-0.001-8.622c1.559-2.699,4.351-4.311,7.468-4.311h85.107c3.117,0,5.909,1.612,7.468,4.311
		c1.558,2.699,1.558,5.923-0.001,8.622L60.204,88.183C58.645,90.882,55.854,92.494,52.736,92.494"/>
	<path style="fill:#382259;" d="M95.29,3.088c5.449,0,8.855,5.899,6.131,10.618L58.867,87.411c-1.362,2.359-3.746,3.539-6.131,3.539
		s-4.768-1.18-6.131-3.539L4.052,13.706C1.328,8.987,4.734,3.088,10.183,3.088H95.29 M95.29,0H10.183C6.507,0,3.216,1.9,1.378,5.083
		c-1.838,3.184-1.838,6.984,0,10.167l42.553,73.705c1.837,3.183,5.129,5.083,8.805,5.083c3.675,0,6.967-1.9,8.805-5.083
		l42.553-73.705c1.838-3.183,1.838-6.983,0-10.167C102.256,1.9,98.965,0,95.29,0"/>
</g>
<g>
	<g>
		<g>
			<path style="fill:#FFFFFF;" d="M74.716,22.12c0,0-0.555-4.475-0.99-6.924c-0.734-4.128-1.61-6.648-3.916-7.307
				c-0.292-0.083-0.595-0.126-0.901-0.126h-0.001h-0.001c-1.692,0.001-3.113,1.113-5.43,4.251c-0.244,0.331-3.056,5.244-3.085,5.369
				c-7.514-0.9-14.639,0.365-14.639,0.365s-3.314-4.83-3.558-5.161c-2.318-3.138-3.739-4.251-5.432-4.251
				c-0.306,0-0.609,0.042-0.901,0.126c-2.306,0.659-3.182,3.178-3.916,7.307c-0.435,2.448-0.806,7.205-0.806,7.205
				S23.466,36.23,23.466,37.83c0,1.6,9.121,17.739,29.437,17.147c21.974-0.64,29.901-17.067,29.901-18.38
				C82.803,35.241,74.716,22.12,74.716,22.12z M42.091,33.695c-1.625,0-2.941-1.317-2.941-2.942c0-1.625,1.316-2.942,2.941-2.942
				c1.625,0,2.942,1.317,2.942,2.942C45.033,32.378,43.716,33.695,42.091,33.695z M61.664,41.987
				c-0.091,0.217-2.301,5.314-8.53,5.314c-6.762,0-8.506-5.216-8.576-5.438c-0.252-0.789,0.184-1.633,0.973-1.885
				c0.786-0.253,1.624,0.18,1.881,0.96c0.051,0.145,0.959,2.626,4.223,3.23v-3.427c0-0.059,0.011-0.115,0.017-0.171
				c-1.716-0.745-4.309-2.061-4.309-3.216c0-1.726,2.593-2.434,5.792-2.434c3.199,0,5.792,0.708,5.792,2.434
				c0,1.156-2.594,2.472-4.31,3.217c0.007,0.057,0.017,0.113,0.017,0.171v3.404c3.114-0.67,4.252-3.289,4.265-3.319
				c0.319-0.764,1.199-1.125,1.963-0.803C61.626,40.345,61.986,41.224,61.664,41.987z M64.177,33.695
				c-1.624,0-2.941-1.317-2.941-2.942c0-1.625,1.317-2.942,2.941-2.942c1.625,0,2.942,1.317,2.942,2.942
				C67.12,32.378,65.802,33.695,64.177,33.695z"/>
		</g>
		<g>
			<path style="fill:#26B4E6;" d="M36.687,11.347c-1.494,0.427-2.454,9.334-2.454,10.294c0,0.96,8.694-1.467,8.134-3.067
				C41.807,16.974,37.694,11.059,36.687,11.347z"/>
		</g>
		<g>
			<path style="fill:#26B4E6;" d="M68.985,10.774c1.493,0.427,2.453,9.334,2.453,10.294c0,0.96-8.694-1.467-8.134-3.067
				C63.865,16.401,67.978,10.486,68.985,10.774z"/>
		</g>
	</g>
</g>
</svg>
