<?xml version="1.0" encoding="iso-8859-1"?>
<!-- Generator: Adobe Illustrator 22.1.0, SVG Export Plug-In . SVG Version: 6.00 Build 0)  -->
<svg version="1.1" id="Warstwa_1" xmlns="http://www.w3.org/2000/svg" x="0px" y="0px"
	 viewBox="0 0 105.477 94.042" style="enable-background:new 0 0 105.477 94.042;" xml:space="preserve">
<g>
	<path style="fill:#5D2F88;" d="M52.736,92.494c-3.117,0-5.909-1.612-7.468-4.311L2.715,14.478
		c-1.559-2.699-1.559-5.923-0.001-8.622c1.559-2.699,4.351-4.311,7.468-4.311h85.107c3.117,0,5.909,1.612,7.468,4.311
		c1.558,2.699,1.558,5.923-0.001,8.622L60.204,88.183C58.645,90.882,55.854,92.494,52.736,92.494"/>
	<path style="fill:#382259;" d="M95.29,3.088c5.449,0,8.855,5.899,6.131,10.618L58.867,87.411c-1.362,2.359-3.746,3.539-6.131,3.539
		s-4.768-1.18-6.131-3.539L4.052,13.706C1.328,8.987,4.734,3.088,10.183,3.088H95.29 M95.29,0H10.183C6.507,0,3.216,1.9,1.378,5.083
		c-1.838,3.184-1.838,6.984,0,10.167l42.553,73.705c1.837,3.183,5.129,5.083,8.805,5.083c3.675,0,6.967-1.9,8.805-5.083
		l42.553-73.705c1.838-3.183,1.838-6.983,0-10.167C102.256,1.9,98.965,0,95.29,0"/>
</g>
<g>
	<path style="fill:#382259;" d="M36.479,35.591c-4.879-3.076-7.781-1.571-8.125-1.369c-0.714,0.42-0.976,1.354-0.556,2.067
		c0.421,0.713,1.316,0.963,2.029,0.544c0.024-0.01,2.182-1.001,6.311,2.166c0.142,0.109,0.297,0.185,0.458,0.236
		c-0.094-0.863-0.147-1.724-0.147-2.577C36.449,36.295,36.461,35.941,36.479,35.591z"/>
	<path style="fill:#382259;" d="M36.757,44.143c-1.917,3.521,0.378,8.158,1.84,10.673c-1.972,0.84-3.506,1.917-4.573,3.213
		c-0.526,0.639-0.435,1.584,0.205,2.111c0.279,0.229,0.616,0.342,0.952,0.342c0.433,0,0.862-0.187,1.159-0.547
		c0.976-1.184,2.671-2.188,4.9-2.901c0.438-0.14,0.792-0.477,0.953-0.908c0.268-0.714-0.019-1.184-0.451-1.895
		c-1.55-2.547-2.438-4.641-2.661-6.263c-0.672-1.424-1.234-2.922-1.66-4.455C37.149,43.645,36.913,43.857,36.757,44.143z"/>
	<path style="fill:#382259;" d="M63.729,54.233c-0.432,0.71-0.717,1.179-0.451,1.892c0.161,0.431,0.514,0.768,0.952,0.908
		c2.231,0.714,3.927,1.718,4.904,2.903c0.297,0.36,0.726,0.546,1.158,0.546c0.336,0,0.674-0.112,0.953-0.343
		c0.64-0.526,0.73-1.473,0.203-2.111c-1.068-1.296-2.602-2.372-4.572-3.212c1.463-2.516,3.756-7.152,1.839-10.674
		c-0.165-0.301-0.419-0.518-0.711-0.647c-0.415,1.493-0.957,2.953-1.605,4.345C66.209,49.48,65.324,51.613,63.729,54.233z"/>
	<path style="fill:#382259;" d="M77.118,34.221c-0.342-0.201-3.265-1.712-8.165,1.395c-0.039-0.793-0.13-1.546-0.253-2.274
		c-0.027-0.16-0.057-0.317-0.088-0.474c-0.104-0.529-0.231-1.039-0.379-1.532c-0.036-0.12-0.069-0.242-0.107-0.359
		c-0.094-0.29-0.195-0.573-0.305-0.85c-0.039-0.099-0.083-0.193-0.123-0.29c-0.115-0.275-0.22-0.56-0.35-0.821
		c-0.008-0.002-0.017-0.001-0.024-0.003c-0.247-0.049-0.502-0.078-0.763-0.078c-2.145,0-3.884,1.74-3.884,3.884
		c0,2.145,1.739,3.884,3.884,3.884c0.907,0,1.729-0.326,2.389-0.847c0.01,0.266,0.022,0.53,0.022,0.803
		c0,0.856-0.053,1.72-0.148,2.586c0.179-0.05,0.354-0.124,0.51-0.245c4.091-3.136,6.253-2.191,6.263-2.192
		c0.712,0.42,1.632,0.184,2.054-0.532C78.071,35.561,77.832,34.642,77.118,34.221z"/>
	<path style="fill:#382259;" d="M43.851,23.086l6.127,0.828c-0.71,0.704-1.15,1.679-1.15,2.757c0,2.145,1.739,3.884,3.883,3.884
		c2.145,0,3.884-1.739,3.884-3.884c0-1.078-0.441-2.053-1.151-2.757l6.127-0.828c0.489,0.265,0.957,0.56,1.407,0.876
		c2.199-0.919,4.482-3.197,4.037-8.776c4.064,0.502,6.185-0.853,6.444-1.031c0.673-0.463,0.839-1.37,0.39-2.053
		c-0.448-0.682-1.374-0.872-2.064-0.436c-0.082,0.05-2.036,1.238-6.134,0.216c-0.493-0.122-1.01,0.013-1.379,0.352
		c-0.609,0.56-0.504,1.23-0.419,1.77c0.834,5.293-0.755,6.819-2.357,7.321c-0.551-1.643-1.982-3.527-3.926-4.825
		c4.103-4.165,3.225-7.353,3.099-7.731c-0.263-0.787-1.125-1.24-1.907-0.974c-0.785,0.263-1.218,1.085-0.955,1.871
		c0.006,0.023,0.489,2.245-3.188,5.503c-0.616-0.153-1.253-0.241-1.909-0.241c-0.641,0-1.266,0.083-1.869,0.229
		c-3.639-3.23-3.189-5.437-3.193-5.437c0.263-0.786-0.162-1.636-0.947-1.898c-0.791-0.266-1.637,0.162-1.898,0.947
		c-0.126,0.378-0.999,3.556,3.08,7.711c-1.953,1.295-3.394,3.181-3.951,4.829c-1.587-0.518-3.139-2.063-2.311-7.306
		c0.085-0.539,0.19-1.21-0.42-1.769c-0.37-0.339-0.888-0.475-1.381-0.351c-4.095,1.02-6.051-0.167-6.107-0.201
		c-0.683-0.47-1.615-0.296-2.086,0.387c-0.469,0.683-0.296,1.616,0.387,2.086c0.261,0.179,2.384,1.529,6.445,1.031
		c-0.445,5.553,1.815,7.835,4.005,8.762C42.908,23.638,43.368,23.347,43.851,23.086z"/>
	<path style="fill:#C90C0F;" d="M37.478,30.467c0.184-0.503,0.388-0.989,0.618-1.451C37.866,29.478,37.662,29.964,37.478,30.467z"/>
	<path style="fill:#C90C0F;" d="M60.712,55.603c-0.167,0.143-0.336,0.282-0.506,0.417C60.376,55.885,60.545,55.746,60.712,55.603z"
		/>
	<path style="fill:#C90C0F;" d="M68.611,32.868c0.031,0.157,0.061,0.314,0.088,0.474C68.673,33.182,68.642,33.025,68.611,32.868z"/>
	<path style="fill:#C90C0F;" d="M67.698,29.836c0.041,0.097,0.084,0.191,0.123,0.29C67.782,30.027,67.738,29.933,67.698,29.836z"/>
	<path style="fill:#C90C0F;" d="M68.125,30.976c0.038,0.118,0.071,0.24,0.107,0.359C68.197,31.216,68.164,31.094,68.125,30.976z"/>
	<path style="fill:#C90C0F;" d="M63.148,53.091c-0.081,0.099-0.163,0.197-0.245,0.294C62.985,53.288,63.067,53.191,63.148,53.091z"
		/>
	<path style="fill:#C90C0F;" d="M64.252,51.618c-0.044,0.064-0.09,0.127-0.135,0.191C64.162,51.746,64.207,51.683,64.252,51.618z"/>
	<path style="fill:#C90C0F;" d="M61.96,54.429c-0.118,0.122-0.237,0.241-0.358,0.359C61.722,54.67,61.842,54.551,61.96,54.429z"/>
	<path style="fill:#C90C0F;" d="M68.95,35.855c-0.661,0.521-1.483,0.847-2.389,0.847c-2.145,0-3.884-1.739-3.884-3.884
		c0-2.144,1.739-3.884,3.884-3.884c0.262,0,0.516,0.029,0.763,0.078c-1.04-2.097-2.531-3.779-4.346-5.05
		c-0.451-0.316-0.918-0.611-1.407-0.876l-6.127,0.828c0.71,0.704,1.151,1.679,1.151,2.757c0,2.145-1.739,3.884-3.884,3.884
		c-2.144,0-3.883-1.739-3.883-3.884c0-1.078,0.441-2.053,1.15-2.757l-6.127-0.828c-0.482,0.261-0.943,0.552-1.388,0.862
		c-1.825,1.273-3.323,2.96-4.367,5.066c0.255-0.052,0.518-0.081,0.788-0.081c2.145,0,3.884,1.74,3.884,3.884
		c0,2.145-1.739,3.884-3.884,3.884c-0.916,0-1.748-0.331-2.412-0.862c0.073-1.943,0.408-3.691,0.962-5.251
		c-0.532,1.493-0.864,3.157-0.956,5.002c-0.017,0.35-0.03,0.704-0.03,1.067c0,0.853,0.053,1.714,0.147,2.577
		c0.156,1.432,0.433,2.869,0.825,4.277c0.427,1.533,0.988,3.03,1.66,4.455c0.506,1.073,1.076,2.103,1.704,3.073
		c0.63-1.293,1.945-2.193,3.48-2.193c2.145,0,3.884,1.74,3.884,3.884c0,1.659-1.044,3.064-2.508,3.621
		c-1.839-1.357-3.482-3.19-4.855-5.31c2.665,4.115,6.354,7.138,10.489,7.717l1.487-23.335l1.403,23.333
		c2-0.284,3.896-1.135,5.622-2.41c-1.455-0.561-2.493-1.961-2.493-3.614c0-2.144,1.739-3.884,3.884-3.884
		c1.527,0,2.836,0.891,3.47,2.174c0.648-1.003,1.234-2.071,1.752-3.183c0.648-1.392,1.191-2.851,1.605-4.345
		c0.389-1.4,0.664-2.827,0.819-4.251c0.094-0.866,0.148-1.73,0.148-2.586C68.972,36.385,68.959,36.121,68.95,35.855z M47.209,44.86
		c-2.144,0-3.883-1.739-3.883-3.884c0-2.144,1.739-3.884,3.883-3.884c2.145,0,3.884,1.74,3.884,3.884
		C51.093,43.121,49.354,44.86,47.209,44.86z M58.119,44.86c-2.145,0-3.884-1.739-3.884-3.884c0-2.144,1.739-3.884,3.884-3.884
		c2.144,0,3.883,1.74,3.883,3.884C62.002,43.121,60.263,44.86,58.119,44.86z"/>
	<path style="fill:#382259;" d="M47.209,37.092c-2.144,0-3.883,1.74-3.883,3.884c0,2.145,1.739,3.884,3.883,3.884
		c2.145,0,3.884-1.739,3.884-3.884C51.093,38.832,49.354,37.092,47.209,37.092z"/>
	<path style="fill:#382259;" d="M36.472,35.839c0.664,0.531,1.495,0.862,2.412,0.862c2.145,0,3.884-1.739,3.884-3.884
		c0-2.144-1.739-3.884-3.884-3.884c-0.27,0-0.533,0.028-0.788,0.081h0c0,0,0,0.001,0,0.001c-0.229,0.463-0.434,0.948-0.618,1.451
		c-0.015,0.04-0.029,0.081-0.044,0.122C36.88,32.148,36.545,33.897,36.472,35.839z"/>
	<path style="fill:#382259;" d="M45.642,56.352c1.463-0.557,2.508-1.962,2.508-3.621c0-2.144-1.739-3.884-3.884-3.884
		c-1.535,0-2.85,0.899-3.48,2.193v0c0,0,0.001,0.001,0.001,0.001C42.16,53.162,43.804,54.996,45.642,56.352z"/>
	<path style="fill:#382259;" d="M58.119,37.092c-2.145,0-3.884,1.74-3.884,3.884c0,2.145,1.739,3.884,3.884,3.884
		c2.144,0,3.883-1.739,3.883-3.884C62.002,38.832,60.263,37.092,58.119,37.092z"/>
	<path style="fill:#382259;" d="M61.178,48.848c-2.145,0-3.884,1.74-3.884,3.884c0,1.653,1.038,3.054,2.493,3.614
		c0.005,0.002,0.009,0.005,0.014,0.007c0.138-0.102,0.268-0.225,0.404-0.332c0.171-0.135,0.339-0.274,0.506-0.417
		c0.303-0.259,0.6-0.531,0.89-0.816c0.12-0.118,0.24-0.237,0.358-0.359c0.323-0.333,0.637-0.681,0.943-1.043
		c0.082-0.097,0.164-0.195,0.245-0.294c0.335-0.412,0.657-0.839,0.969-1.282c0.045-0.064,0.09-0.127,0.135-0.191
		c0.134-0.194,0.277-0.378,0.407-0.578c-0.003-0.006-0.007-0.012-0.011-0.019C64.014,49.739,62.705,48.848,61.178,48.848z"/>
</g>
</svg>
