<svg xmlns="http://www.w3.org/2000/svg" viewBox="0 0 111.28 99.21"><path d="M55.64,97.58A9,9,0,0,1,47.76,93L2.86,15.27A9.1,9.1,0,0,1,10.74,1.63h89.79a9.1,9.1,0,0,1,7.88,13.64L63.52,93a9,9,0,0,1-7.88,4.54" fill="#5d2f88"/><path d="M100.53,3.26A7.47,7.47,0,0,1,107,14.46L62.11,92.22a7.48,7.48,0,0,1-12.94,0L4.28,14.46a7.46,7.46,0,0,1,6.46-11.2h89.79m0-3.26H10.74A10.73,10.73,0,0,0,1.45,16.09l44.9,77.76a10.73,10.73,0,0,0,18.58,0l44.89-77.76a10.62,10.62,0,0,0,0-10.73A10.61,10.61,0,0,0,100.53,0" fill="#382259"/><path d="M76.07 48.29l3.63-1a1.6 1.6 0 0 0-.85-3.08l-4.52 1.21-3.2-1.85L77 42a1.59 1.59 0 0 0-.86-3l-8.92 2.39-1.45-.84 4.84-2.14a2 2 0 0 0 0-3.75l-4.83-2.13 1.46-.85L76.15 34a1.6 1.6 0 0 0 .85-3l-5.84-1.56 3.2-1.85 4.5 1.21a1.6 1.6 0 0 0 .85-3.08l-3.64-1 1-3.61a1.6 1.6 0 0 0-3.07-.86l-1.21 4.54-3.21 1.85 1.57-5.84A1.6 1.6 0 0 0 68 20q-1.2 4.47-2.39 8.94l-1.48.85.58-5.31a2 2 0 0 0-3.25-1.87l-4.25 3.11V24l6.54-6.53a1.6 1.6 0 0 0-2.26-2.26l-4.28 4.28v-3.7l3.32-3.31a1.6 1.6 0 0 0-2.26-2.26l-2.65 2.65L53 10.25a1.6 1.6 0 0 0-2.26 2.26q1.66 1.65 3.26 3.31v3.69l-4.27-4.27a1.6 1.6 0 0 0-2.26 2.25L54 24v1.7l-4.32-3.16a2 2 0 0 0-3.25 1.87L47 29.7l-1.39-.81q-1.2-4.47-2.39-8.94a1.6 1.6 0 0 0-3.08.85l1.56 5.84-3.2-1.85-1.22-4.54a1.59 1.59 0 0 0-3.07.84l1 3.61-3.63 1a1.6 1.6 0 0 0 .84 3.08l4.51-1.21 3.2 1.85L34.28 31a1.6 1.6 0 0 0 .85 3L44 31.64l1.43.83-4.88 2.15a2 2 0 0 0 0 3.75l4.88 2.16-1.41.82L35.14 39a1.59 1.59 0 0 0-.85 3l5.86 1.57-3.21 1.85-4.51-1.21a1.6 1.6 0 0 0-.85 3.08l3.62 1-1 3.61a1.59 1.59 0 0 0 3.07.85l1.22-4.53 3.19-1.85-1.52 5.83a1.6 1.6 0 0 0 3.08.85l2.39-8.93L47 43.3l-.57 5.26a2.05 2.05 0 0 0 3.25 1.88L54 47.27V49l-6.49 6.5a1.6 1.6 0 0 0 2.26 2.26L54 53.48v3.7l-3.31 3.31A1.6 1.6 0 0 0 53 62.74l2.65-2.65 2.65 2.64a1.6 1.6 0 0 0 2.26-2.25l-3.32-3.32v-3.7l4.28 4.28a1.6 1.6 0 0 0 2.26-2.25L57.23 49v-1.68l4.25 3.12a2.05 2.05 0 0 0 3.25-1.88l-.58-5.3 1.5.86q1.18 4.46 2.39 8.93a1.59 1.59 0 0 0 3.07-.85l-1.56-5.83 3.2 1.85L74 52.75a1.59 1.59 0 0 0 3-.85z" fill="#fff"/><path d="M55.64 10.35a2.84 2.84 0 1 0-2.84-2.83 2.83 2.83 0 0 0 2.84 2.83zm0 52.29a2.84 2.84 0 1 0 2.83 2.84 2.84 2.84 0 0 0-2.83-2.84zm25.1-37.8A2.83 2.83 0 1 0 77.9 22a2.83 2.83 0 0 0 2.84 2.84zm0 23.32A2.83 2.83 0 1 0 83.57 51a2.83 2.83 0 0 0-2.83-2.84zm-50.2-23.32A2.83 2.83 0 1 0 27.71 22a2.83 2.83 0 0 0 2.83 2.84zm0 23.32A2.83 2.83 0 1 0 33.38 51a2.83 2.83 0 0 0-2.84-2.84z" fill="#26b4e6"/><path d="M51.92 34.55a2.84 2.84 0 1 1-2.84-2.83 2.84 2.84 0 0 1 2.84 2.83M55.64 45a4.35 4.35 0 0 1-4.35-4.35 1.5 1.5 0 0 1 3 0 1.35 1.35 0 1 0 2.7 0 1.5 1.5 0 0 1 3 0A4.35 4.35 0 0 1 55.64 45zM65 34.55a2.84 2.84 0 1 1-2.84-2.83A2.84 2.84 0 0 1 65 34.55" fill="#5d2f88"/></svg>