<svg id="Warstwa_1" data-name="Warstwa 1" xmlns="http://www.w3.org/2000/svg" viewBox="0 0 111.28 99.21"><defs><style>.cls-1{fill:#5d2f88;}.cls-2{fill:#382259;}.cls-3{fill:#fff;}.cls-4{fill:#26b4e6;}</style></defs><title>tropy-zuchowe-znaczki-popr-krz</title><path class="cls-1" d="M55.64,97.58A9,9,0,0,1,47.76,93L2.86,15.27A9.1,9.1,0,0,1,10.74,1.63h89.79a9.1,9.1,0,0,1,7.88,13.64L63.52,93a9,9,0,0,1-7.88,4.54"/><path class="cls-2" d="M100.53,3.26A7.47,7.47,0,0,1,107,14.46L62.11,92.22a7.48,7.48,0,0,1-12.94,0L4.28,14.46a7.46,7.46,0,0,1,6.46-11.2h89.79m0-3.26H10.74A10.73,10.73,0,0,0,1.45,16.09l44.9,77.76a10.73,10.73,0,0,0,18.58,0l44.89-77.76a10.62,10.62,0,0,0,0-10.73A10.61,10.61,0,0,0,100.53,0"/><path class="cls-3" d="M76.07,48.29l3.63-1a1.6,1.6,0,0,0-.85-3.08l-4.52,1.21-3.2-1.85L77,42A1.59,1.59,0,0,0,76.14,39l-8.92,2.39-1.45-.84,4.84-2.14a2,2,0,0,0,0-3.75l-4.83-2.13,1.46-.85L76.15,34A1.6,1.6,0,0,0,77,31l-5.84-1.56,3.2-1.85,4.5,1.21a1.6,1.6,0,0,0,.85-3.08l-3.64-1c.33-1.2.65-2.4,1-3.61A1.6,1.6,0,0,0,74,20.25c-.4,1.51-.81,3-1.21,4.54l-3.21,1.85c.52-1.95,1-3.89,1.57-5.84A1.6,1.6,0,0,0,68,20q-1.2,4.47-2.39,8.94l-1.48.85.58-5.31a2,2,0,0,0-3.25-1.87l-4.25,3.11V24l6.54-6.53a1.6,1.6,0,0,0-2.26-2.26l-4.28,4.28v-3.7l3.32-3.31a1.6,1.6,0,0,0-2.26-2.26l-2.65,2.65L53,10.25a1.6,1.6,0,0,0-2.26,2.26Q52.4,14.16,54,15.82v3.69l-4.27-4.27a1.6,1.6,0,0,0-2.26,2.25L54,24v1.7l-4.32-3.16a2,2,0,0,0-3.25,1.87L47,29.7l-1.39-.81q-1.2-4.47-2.39-8.94a1.6,1.6,0,0,0-3.08.85l1.56,5.84-3.2-1.85c-.41-1.52-.81-3-1.22-4.54a1.59,1.59,0,0,0-3.07.84l1,3.61-3.63,1a1.6,1.6,0,0,0,.84,3.08l4.51-1.21,3.2,1.85L34.28,31A1.6,1.6,0,0,0,35.13,34L44,31.64l1.43.83-4.88,2.15a2,2,0,0,0,0,3.75l4.88,2.16-1.41.82L35.14,39A1.59,1.59,0,0,0,34.29,42l5.86,1.57-3.21,1.85-4.51-1.21a1.6,1.6,0,0,0-.85,3.08l3.62,1-1,3.61a1.59,1.59,0,0,0,3.07.85l1.22-4.53,3.19-1.85L40.16,52.2a1.6,1.6,0,0,0,3.08.85c.8-3,1.59-6,2.39-8.93L47,43.3l-.57,5.26a2.05,2.05,0,0,0,3.25,1.88L54,47.27V49L47.51,55.5a1.6,1.6,0,0,0,2.26,2.26L54,53.48v3.7l-3.31,3.31A1.6,1.6,0,0,0,53,62.74l2.65-2.65,2.65,2.64a1.6,1.6,0,0,0,2.26-2.25l-3.32-3.32v-3.7l4.28,4.28a1.6,1.6,0,0,0,2.26-2.25L57.23,49V47.32l4.25,3.12a2.05,2.05,0,0,0,3.25-1.88l-.58-5.3,1.5.86q1.18,4.46,2.39,8.93a1.59,1.59,0,0,0,3.07-.85l-1.56-5.83,3.2,1.85L74,52.75A1.59,1.59,0,0,0,77,51.9Z"/><path class="cls-4" d="M55.64,10.35A2.84,2.84,0,1,0,52.8,7.52,2.83,2.83,0,0,0,55.64,10.35Z"/><path class="cls-4" d="M55.64,62.64a2.84,2.84,0,1,0,2.83,2.84A2.84,2.84,0,0,0,55.64,62.64Z"/><path class="cls-4" d="M80.74,24.84A2.83,2.83,0,1,0,77.9,22,2.83,2.83,0,0,0,80.74,24.84Z"/><path class="cls-4" d="M80.74,48.16A2.83,2.83,0,1,0,83.57,51,2.83,2.83,0,0,0,80.74,48.16Z"/><path class="cls-4" d="M30.54,24.84A2.83,2.83,0,1,0,27.71,22,2.83,2.83,0,0,0,30.54,24.84Z"/><path class="cls-4" d="M30.54,48.16A2.83,2.83,0,1,0,33.38,51,2.83,2.83,0,0,0,30.54,48.16Z"/><path class="cls-1" d="M51.92,34.55a2.84,2.84,0,1,1-2.84-2.83,2.84,2.84,0,0,1,2.84,2.83"/><path class="cls-1" d="M55.64,45a4.35,4.35,0,0,1-4.35-4.35,1.5,1.5,0,0,1,3,0,1.35,1.35,0,1,0,2.7,0,1.5,1.5,0,0,1,3,0A4.35,4.35,0,0,1,55.64,45Z"/><path class="cls-1" d="M65,34.55a2.84,2.84,0,1,1-2.84-2.83A2.84,2.84,0,0,1,65,34.55"/></svg>