<svg xmlns="http://www.w3.org/2000/svg" viewBox="0 0 105.48 94.04"><path d="M52.74,92.49a8.54,8.54,0,0,1-7.47-4.31L2.72,14.48A8.63,8.63,0,0,1,10.19,1.54h85.1a8.63,8.63,0,0,1,7.47,12.94L60.21,88.18a8.54,8.54,0,0,1-7.47,4.31" fill="#5d2f88"/><path d="M95.29,3.09a7.08,7.08,0,0,1,6.13,10.62L58.87,87.41a7.08,7.08,0,0,1-12.26,0L4.06,13.71A7.08,7.08,0,0,1,10.19,3.09h85.1m0-3.09H10.19A10.17,10.17,0,0,0,1.38,15.25L43.93,89a10.16,10.16,0,0,0,17.61,0l42.56-73.7A10.17,10.17,0,0,0,95.29,0" fill="#382259"/><circle cx="52.6" cy="20.28" r="12.32" fill="#26b4e6"/><path d="M52.6,32.61A12.33,12.33,0,1,1,52.6,8Z" fill="#f0ae00"/><path d="M47.31 64.32h10.91v10.91H47.31z" fill="#26b4e6"/><path d="M52.56 42.5h10.91v10.91H52.56z" fill="#f0ae00"/><path d="M42.06 42.5h10.91v10.91H42.06z" fill="#26b4e6"/><path d="M59.14 30.71a12.32 12.32 0 1 0-12.76.21v10.66h-5.25v12.76h5.25v21.82h12.76V54.34h5.25V41.58h-5.25zm3.93-10.43a10.49 10.49 0 0 1-9.19 10.39h-.36V9.86a10.48 10.48 0 0 1 9.55 10.42zm-21 0a10.48 10.48 0 0 1 9.6-10.42v20.81h-.36a10.49 10.49 0 0 1-9.19-10.39zm6.12 12.24h9v9.06h-9zM43 52.49v-9.06h8.64v9.06H43zM57.29 74.3h-9v-9h9zm0-10.91h-9v-9h9zm5.25-20v9.06h-8.65v-9.02h8.65z" fill="#fff"/></svg>