<svg id="Warstwa_1" data-name="Warstwa 1" xmlns="http://www.w3.org/2000/svg" viewBox="0 0 111.28 99.21"><defs><style>.cls-1{fill:#5d2f88;}.cls-2{fill:#382259;}.cls-3{fill:#26b4e6;}.cls-4{fill:#f8c409;}.cls-5{fill:#c90c0f;}.cls-6{fill:#afca0b;}</style></defs><title>tropy-zuchowe-znaczki-popr-krz</title><path class="cls-1" d="M55.64,97.58A9,9,0,0,1,47.76,93L2.86,15.27A9.1,9.1,0,0,1,10.74,1.63h89.79a9.1,9.1,0,0,1,7.88,13.64L63.52,93a9,9,0,0,1-7.88,4.54"/><path class="cls-2" d="M100.53,3.26A7.47,7.47,0,0,1,107,14.46L62.11,92.22a7.48,7.48,0,0,1-12.94,0L4.28,14.46a7.46,7.46,0,0,1,6.46-11.2h89.79m0-3.26H10.74A10.73,10.73,0,0,0,1.45,16.09l44.9,77.76a10.73,10.73,0,0,0,18.58,0l44.89-77.76a10.62,10.62,0,0,0,0-10.73A10.61,10.61,0,0,0,100.53,0"/><path class="cls-2" d="M55,30.13a10.88,10.88,0,0,1-6.52-2.73,10.74,10.74,0,0,1-1.94-2.26,5.85,5.85,0,0,0-.54-.95,4.26,4.26,0,0,0-1.23-.65,9.06,9.06,0,0,0-2.34-.66A13.86,13.86,0,0,0,54,32.92l.78.07Z"/><path class="cls-3" d="M25.49,30.1a10.84,10.84,0,1,1,8.4-18.68h0l.07.08A10.66,10.66,0,0,1,35,12.66l.12.14a10.91,10.91,0,0,1,0,13l0,0a11,11,0,0,1-2,2,8.81,8.81,0,0,0-.9,3.87,13.83,13.83,0,0,0,5.27-4.25h0a13.8,13.8,0,0,0,0-16.46h0A13.71,13.71,0,1,0,25.45,33c0-.4-.06-.8-.06-1.2A15.28,15.28,0,0,1,25.49,30.1Z"/><path class="cls-4" d="M42,18.1a16.17,16.17,0,0,1,0,2.87,10.85,10.85,0,0,1,8.73,5.8,9.13,9.13,0,0,0,3.61,1.4A13.73,13.73,0,0,0,42,18.1Z"/><path class="cls-4" d="M27.34,31.77a13.71,13.71,0,0,0,27.07,3.06,15,15,0,0,1-2.83-.5,10.84,10.84,0,1,1-17-11.24,9.09,9.09,0,0,0,.85-3.82A13.71,13.71,0,0,0,27.34,31.77Z"/><path class="cls-5" d="M98.51,18.64a13.71,13.71,0,0,0-27.06-2.39,9,9,0,0,1,2.24.32,3.4,3.4,0,0,0,.6.13,3.65,3.65,0,0,0,.23-.79,11.09,11.09,0,0,1,.74-1.74,10.84,10.84,0,0,1,19.53,9.38,11,11,0,0,1-10,6.59,10.85,10.85,0,0,1-7.15-2.74,11,11,0,0,1-1.94-2.26,5.85,5.85,0,0,0-.54-.95,4.21,4.21,0,0,0-1.22-.65,9.18,9.18,0,0,0-2.34-.66,13.7,13.7,0,0,0,24.68,4A13.71,13.71,0,0,0,98.51,18.64Z"/><path class="cls-6" d="M83.45,28.17A13.77,13.77,0,0,0,74,18.59a13.94,13.94,0,0,0-2.84-.49h0A15.28,15.28,0,0,1,71.1,21h.23a10.94,10.94,0,0,1,6.28,2.77,7.67,7.67,0,0,1,2.23,3A9,9,0,0,0,83.45,28.17Z"/><path class="cls-6" d="M70.23,42.61A10.84,10.84,0,0,1,59.42,32.47c0-.23,0-.46,0-.7a10.66,10.66,0,0,1,.28-2.41,10.84,10.84,0,0,1,4.09-6.27,8.94,8.94,0,0,0,.85-3.82,13.76,13.76,0,0,0-8,10.82v0a12.58,12.58,0,0,0,0,3.32,13.7,13.7,0,0,0,27,1.4,15.27,15.27,0,0,1-2.83-.5A10.84,10.84,0,0,1,70.23,42.61Z"/><path class="cls-2" d="M60.09,32.25a13.69,13.69,0,0,0,9.25-13.61,13.71,13.71,0,0,0-27.06-2.39,8.9,8.9,0,0,1,2.23.32,3.61,3.61,0,0,0,.6.13,3.65,3.65,0,0,0,.23-.79,11.14,11.14,0,0,1,.75-1.74A10.84,10.84,0,1,1,60.22,29.1Z"/></svg>