<svg id="Warstwa_1" data-name="Warstwa 1" xmlns="http://www.w3.org/2000/svg" viewBox="0 0 111.28 99.21"><defs><style>.cls-1{fill:#5d2f88;}.cls-2{fill:#382259;}.cls-3{fill:#fff;}.cls-4{fill:#afca0b;fill-rule:evenodd;}</style></defs><title>tropy-zuchowe-znaczki-popr-krz</title><path class="cls-1" d="M55.64,97.58A9,9,0,0,1,47.76,93L2.86,15.27A9.1,9.1,0,0,1,10.74,1.63h89.79a9.1,9.1,0,0,1,7.88,13.64L63.52,93a9,9,0,0,1-7.88,4.54"/><path class="cls-2" d="M100.53,3.26A7.47,7.47,0,0,1,107,14.46L62.11,92.22a7.48,7.48,0,0,1-12.94,0L4.28,14.46a7.46,7.46,0,0,1,6.46-11.2h89.79m0-3.26H10.74A10.73,10.73,0,0,0,1.45,16.09l44.9,77.76a10.73,10.73,0,0,0,18.58,0l44.89-77.76a10.62,10.62,0,0,0,0-10.73A10.61,10.61,0,0,0,100.53,0"/><path class="cls-3" d="M27,40.26c6.26-1.48,33.22,7.38,48.48,3.2a65.93,65.93,0,0,0,9.25-3.33,9.25,9.25,0,0,1,1,4.06c-.16,2.59-2.06,3.67-6.44,5.35a47.65,47.65,0,0,1-8.78,2.33c-3.13.5-19.46-.15-19.46-.15l-1.11-3-9.27-1.17-.59,3.77S26.9,49.25,26.3,48.76C25.54,44.88,25.49,41,27,40.26Z"/><path class="cls-3" d="M51.2,5.94c-1.22,0-3.27,1.75-3.85,3-2.37,4.8,2,8.63,2,8.63L56,24.42C50.15,15.18,52.41,5.91,51.2,5.94Z"/><path class="cls-4" d="M28.7,9.89c-2.33-.06-2.33,9-.52,9.21-2.39,9.91-3.52,18-2,22.12,21.91,4,48.47,8.08,58.58-1.09-.42-5.71-4.47-7.49-10.94-6.72C65,29.88,58.33,26.22,54.1,21.53,50.89,18,47.66,14.1,47.35,8.92c-6.6,1.43-11.79,2.38-18.65,1Z"/><path class="cls-2" d="M53.26,14.3a1.5,1.5,0,0,0-2-.69l-6,2.93a1.5,1.5,0,0,0,.66,2.85,1.55,1.55,0,0,0,.66-.15l6-2.93A1.49,1.49,0,0,0,53.26,14.3Z"/><path class="cls-2" d="M56,20.13a1.49,1.49,0,0,0-2.1-.33l-5.15,3.76a1.49,1.49,0,0,0-.33,2.09,1.5,1.5,0,0,0,2.1.33l5.15-3.76A1.5,1.5,0,0,0,56,20.13Z"/><path class="cls-2" d="M58.87,25.11l-4.56,4.55a1.49,1.49,0,0,0,0,2.12,1.5,1.5,0,0,0,2.12,0L61,27.23a1.51,1.51,0,0,0,0-2.12A1.49,1.49,0,0,0,58.87,25.11Z"/><path class="cls-2" d="M66.8,28.68a1.5,1.5,0,0,0-2,.55l-3,5.13a1.5,1.5,0,0,0,.55,2,1.46,1.46,0,0,0,.75.2,1.5,1.5,0,0,0,1.3-.75l3-5.13A1.5,1.5,0,0,0,66.8,28.68Z"/></svg>