<?xml version="1.0" encoding="iso-8859-1"?>
<!-- Generator: Adobe Illustrator 22.1.0, SVG Export Plug-In . SVG Version: 6.00 Build 0)  -->
<svg version="1.1" id="Warstwa_1" xmlns="http://www.w3.org/2000/svg" xmlns:xlink="http://www.w3.org/1999/xlink" x="0px" y="0px"
	 viewBox="0 0 105.477 94.042" style="enable-background:new 0 0 105.477 94.042;" xml:space="preserve">
<g>
	<path style="fill:#5D2F88;" d="M52.736,92.494c-3.117,0-5.909-1.612-7.468-4.311L2.715,14.478
		c-1.559-2.699-1.559-5.923-0.001-8.622c1.559-2.699,4.351-4.311,7.468-4.311h85.107c3.117,0,5.909,1.612,7.468,4.311
		c1.558,2.699,1.558,5.923-0.001,8.622L60.204,88.183C58.645,90.882,55.854,92.494,52.736,92.494"/>
	<path style="fill:#382259;" d="M95.29,3.088c5.449,0,8.855,5.899,6.131,10.618L58.867,87.411c-1.362,2.359-3.746,3.539-6.131,3.539
		s-4.768-1.18-6.131-3.539L4.052,13.706C1.328,8.987,4.734,3.088,10.183,3.088H95.29 M95.29,0H10.183C6.507,0,3.216,1.9,1.378,5.083
		c-1.838,3.184-1.838,6.984,0,10.167l42.553,73.705c1.837,3.183,5.129,5.083,8.805,5.083c3.675,0,6.967-1.9,8.805-5.083
		l42.553-73.705c1.838-3.183,1.838-6.983,0-10.167C102.256,1.9,98.965,0,95.29,0"/>
</g>
<g>
	<g>
		<g>
			<polygon style="fill:#F8C409;" points="62.329,23.383 73.268,23.383 73.268,51.209 73.268,53.48 62.329,53.48 			"/>
		</g>
		<g>
			<rect x="47.266" y="35.459" style="fill:#F8C409;" width="10.94" height="18.021"/>
		</g>
		<g>
			<rect x="32.204" y="46.998" style="fill:#F8C409;" width="10.94" height="6.482"/>
		</g>
	</g>
	<path style="fill:#FFFFFF;" d="M76.613,13.166l-4.351-4.351c-0.781-0.781-2.047-0.781-2.828,0s-0.781,2.047,0,2.828l0.937,0.937
		h-7.448c-0.586,0-1.143,0.257-1.522,0.703l-9.888,11.611l-9.616,1.137c-0.418,0.05-0.809,0.229-1.118,0.514l-11.856,10.89
		c-0.813,0.747-0.867,2.012-0.12,2.825c0.395,0.43,0.933,0.647,1.474,0.647c0.483,0,0.968-0.174,1.352-0.527l11.381-10.452
		l9.753-1.152c0.501-0.06,0.961-0.306,1.288-0.689l9.798-11.506h6.524l-0.937,0.937c-0.781,0.781-0.781,2.047,0,2.828
		c0.391,0.391,0.902,0.586,1.414,0.586s1.023-0.195,1.414-0.586l4.351-4.351C77.394,15.213,77.394,13.948,76.613,13.166z"/>
</g>
</svg>
