<?xml version="1.0" encoding="iso-8859-1"?>
<!-- Generator: Adobe Illustrator 22.1.0, SVG Export Plug-In . SVG Version: 6.00 Build 0)  -->
<svg version="1.1" id="Warstwa_1" xmlns="http://www.w3.org/2000/svg" xmlns:xlink="http://www.w3.org/1999/xlink" x="0px" y="0px"
	 viewBox="0 0 105.477 94.042" style="enable-background:new 0 0 105.477 94.042;" xml:space="preserve">
<g>
	<path style="fill:#5D2F88;" d="M52.736,92.494c-3.117,0-5.909-1.612-7.468-4.311L2.715,14.478
		c-1.559-2.699-1.559-5.923-0.001-8.622c1.559-2.699,4.351-4.311,7.468-4.311h85.107c3.117,0,5.909,1.612,7.468,4.311
		c1.558,2.699,1.558,5.923-0.001,8.622L60.204,88.183C58.645,90.882,55.854,92.494,52.736,92.494"/>
	<path style="fill:#382259;" d="M95.29,3.088c5.449,0,8.855,5.899,6.131,10.618L58.867,87.411c-1.362,2.359-3.746,3.539-6.131,3.539
		s-4.768-1.18-6.131-3.539L4.052,13.706C1.328,8.987,4.734,3.088,10.183,3.088H95.29 M95.29,0H10.183C6.507,0,3.216,1.9,1.378,5.083
		c-1.838,3.184-1.838,6.984,0,10.167l42.553,73.705c1.837,3.183,5.129,5.083,8.805,5.083c3.675,0,6.967-1.9,8.805-5.083
		l42.553-73.705c1.838-3.183,1.838-6.983,0-10.167C102.256,1.9,98.965,0,95.29,0"/>
</g>
<g>
	<path style="fill:#F0AE00;" d="M62.978,40.264c0.43-0.883,0.098-1.947-0.757-2.43l-4.611-2.603
		c-0.855-0.483-1.938-0.217-2.471,0.607l-2.966,4.528l6.312,9.244L62.978,40.264z"/>
	<path style="fill:#F0AE00;" d="M38.591,61.105c-1.39,2.145-0.684,5.018,1.542,6.275l3.592,2.028
		c2.226,1.257,5.051,0.377,6.169-1.922l2.502-5.206l-6.343-12.568L38.591,61.105z"/>
	<polygon style="fill:#FFFFFF;" points="77.802,10.349 73.094,7.69 63.694,16.684 64.205,22.112 59.074,31.2 64.916,34.498 
		70.046,25.41 74.958,23.044 	"/>
	<path style="fill:#FFFFFF;" d="M39.304,34.7l5.776-3.41l-4.476-7.582c2.526-3.069,3.035-7.497,0.93-11.142
		c-1.737-3.008-4.826-4.741-8.057-4.89l4.236,7.337l-3.051,5.284h-6.101l-4.236-7.337c-1.485,2.872-1.53,6.414,0.207,9.422
		c2.137,3.701,6.319,5.473,10.294,4.734L39.304,34.7z"/>
	<path style="fill:#26B4E6;" d="M58.485,49.611l-6.312-9.244l-2.967-4.344c-0.55-0.813-1.637-1.058-2.483-0.559l-4.56,2.692
		c-0.845,0.499-1.156,1.57-0.71,2.444l4.599,9.113l6.343,12.568l2.666,5.282c1.163,2.276,4.004,3.102,6.205,1.802l3.552-2.097
		c2.201-1.299,2.852-4.185,1.42-6.303L58.485,49.611z"/>
</g>
</svg>
