<?xml version="1.0" encoding="iso-8859-1"?>
<!-- Generator: Adobe Illustrator 22.1.0, SVG Export Plug-In . SVG Version: 6.00 Build 0)  -->
<svg version="1.1" id="Warstwa_1" xmlns="http://www.w3.org/2000/svg" xmlns:xlink="http://www.w3.org/1999/xlink" x="0px" y="0px"
	 viewBox="0 0 105.477 94.042" style="enable-background:new 0 0 105.477 94.042;" xml:space="preserve">
<g>
	<path style="fill:#5D2F88;" d="M52.736,92.494c-3.117,0-5.909-1.612-7.468-4.311L2.715,14.478
		c-1.559-2.699-1.559-5.923-0.001-8.622c1.559-2.699,4.351-4.311,7.468-4.311h85.107c3.117,0,5.909,1.612,7.468,4.311
		c1.558,2.699,1.558,5.923-0.001,8.622L60.204,88.183C58.645,90.882,55.854,92.494,52.736,92.494"/>
	<path style="fill:#382259;" d="M95.29,3.088c5.449,0,8.855,5.899,6.131,10.618L58.867,87.411c-1.362,2.359-3.746,3.539-6.131,3.539
		s-4.768-1.18-6.131-3.539L4.052,13.706C1.328,8.987,4.734,3.088,10.183,3.088H95.29 M95.29,0H10.183C6.507,0,3.216,1.9,1.378,5.083
		c-1.838,3.184-1.838,6.984,0,10.167l42.553,73.705c1.837,3.183,5.129,5.083,8.805,5.083c3.675,0,6.967-1.9,8.805-5.083
		l42.553-73.705c1.838-3.183,1.838-6.983,0-10.167C102.256,1.9,98.965,0,95.29,0"/>
</g>
<g>
	<g>
		<path style="fill:#26B4E6;" d="M28.469,37.238v6.368c7.599-2.153,16.44-2.473,24.267-2.473c7.818,0,16.648,0.32,24.241,2.465
			V37.23c-7.434-2.248-16.355-2.578-24.241-2.578C44.84,34.652,35.908,34.982,28.469,37.238z"/>
		<path style="fill:#26B4E6;" d="M81.615,24.353L55.699,8.792c-1.823-1.095-4.102-1.095-5.925,0L23.858,24.353
			c-4.315,2.591-3.46,9.081,1.378,10.467l1.198,0.343c8.022-2.726,17.765-3.11,26.302-3.11s18.281,0.385,26.303,3.11l1.198-0.343
			C85.075,33.434,85.93,26.944,81.615,24.353z"/>
		<path style="fill:#382259;" d="M52.736,43.732c-7.834,0-16.69,0.326-24.094,2.535c2.171,8.098,12.106,14.229,24.094,14.229
			c11.988,0,21.923-6.132,24.094-14.23C69.426,44.058,60.57,43.732,52.736,43.732z"/>
	</g>
	<path style="fill:#FFFFFF;" d="M56.562,27.904l-3.826,0.486l-3.826-0.486c-1.264-0.16-2.259-1.156-2.418-2.42l-0.851-6.765
		c-0.21-1.667,1.089-3.14,2.769-3.14h8.651c1.68,0,2.979,1.473,2.769,3.14l-0.851,6.765C58.821,26.748,57.826,27.743,56.562,27.904z
		"/>
</g>
</svg>
