<?xml version="1.0" encoding="iso-8859-1"?>
<!-- Generator: Adobe Illustrator 22.1.0, SVG Export Plug-In . SVG Version: 6.00 Build 0)  -->
<svg version="1.1" id="Warstwa_1" xmlns="http://www.w3.org/2000/svg" xmlns:xlink="http://www.w3.org/1999/xlink" x="0px" y="0px"
	 viewBox="0 0 105.477 94.042" style="enable-background:new 0 0 105.477 94.042;" xml:space="preserve">
<g>
	<path style="fill:#5D2F88;" d="M52.736,92.494c-3.117,0-5.909-1.612-7.468-4.311L2.715,14.478
		c-1.559-2.699-1.559-5.923-0.001-8.622c1.559-2.699,4.351-4.311,7.468-4.311h85.107c3.117,0,5.909,1.612,7.468,4.311
		c1.558,2.699,1.558,5.923-0.001,8.622L60.204,88.183C58.645,90.882,55.854,92.494,52.736,92.494"/>
	<path style="fill:#382259;" d="M95.29,3.088c5.449,0,8.855,5.899,6.131,10.618L58.867,87.411c-1.362,2.359-3.746,3.539-6.131,3.539
		s-4.768-1.18-6.131-3.539L4.052,13.706C1.328,8.987,4.734,3.088,10.183,3.088H95.29 M95.29,0H10.183C6.507,0,3.216,1.9,1.378,5.083
		c-1.838,3.184-1.838,6.984,0,10.167l42.553,73.705c1.837,3.183,5.129,5.083,8.805,5.083c3.675,0,6.967-1.9,8.805-5.083
		l42.553-73.705c1.838-3.183,1.838-6.983,0-10.167C102.256,1.9,98.965,0,95.29,0"/>
</g>
<g>
	<g>
		<polygon style="fill:#26B4E6;" points="32.206,37.802 40.004,41.655 39.442,50.336 33.002,54.538 33.077,46.139 25.766,42.004 		
			"/>
	</g>
	<polygon style="fill:#26B4E6;" points="70.941,51.44 69.785,47.127 67.594,47.714 66.66,43.047 69.947,42.166 68.791,37.853 
		65.781,38.66 63.735,28.439 55.906,21.556 58.11,19.352 54.952,16.195 52.546,18.601 48.972,15.459 50.576,13.854 47.418,10.697 
		45.611,12.504 41.095,8.534 36.431,11.226 52.383,34.993 64.99,60.69 69.653,57.998 68.472,52.101 	"/>
	<g>
		<path style="fill:#FFFFFF;" d="M72.85,17.069c6.645-3.837,10.467-3.309,11.927-0.78s0.006,6.103-6.639,9.939
			C56.706,38.603,34.516,50.261,32.371,46.546C30.107,42.624,51.418,29.444,72.85,17.069z"/>
	</g>
	<path style="fill:#26B4E6;" d="M80.68,16.209c-1.107-0.179-2.571,0.03-4.265,0.637l-0.004,0.015
		c0.809,0.231,1.79,1.234,2.626,2.682c0.849,1.47,1.217,2.788,1.011,3.617l0.008,0.002c1.363-1.171,2.257-2.361,2.644-3.433
		C83.02,18.844,81.588,16.355,80.68,16.209z"/>
</g>
</svg>
