<?xml version="1.0" encoding="iso-8859-1"?>
<!-- Generator: Adobe Illustrator 22.1.0, SVG Export Plug-In . SVG Version: 6.00 Build 0)  -->
<svg version="1.1" id="Warstwa_1" xmlns="http://www.w3.org/2000/svg" xmlns:xlink="http://www.w3.org/1999/xlink" x="0px" y="0px"
	 viewBox="0 0 105.477 94.042" style="enable-background:new 0 0 105.477 94.042;" xml:space="preserve">
<g>
	<path style="fill:#5D2F88;" d="M52.736,92.494c-3.117,0-5.909-1.612-7.468-4.311L2.715,14.478
		c-1.559-2.699-1.559-5.923-0.001-8.622c1.559-2.699,4.351-4.311,7.468-4.311h85.107c3.117,0,5.909,1.612,7.468,4.311
		c1.558,2.699,1.558,5.923-0.001,8.622L60.204,88.183C58.645,90.882,55.854,92.494,52.736,92.494"/>
	<path style="fill:#382259;" d="M95.29,3.088c5.449,0,8.855,5.899,6.131,10.618L58.867,87.411c-1.362,2.359-3.746,3.539-6.131,3.539
		s-4.768-1.18-6.131-3.539L4.052,13.706C1.328,8.987,4.734,3.088,10.183,3.088H95.29 M95.29,0H10.183C6.507,0,3.216,1.9,1.378,5.083
		c-1.838,3.184-1.838,6.984,0,10.167l42.553,73.705c1.837,3.183,5.129,5.083,8.805,5.083c3.675,0,6.967-1.9,8.805-5.083
		l42.553-73.705c1.838-3.183,1.838-6.983,0-10.167C102.256,1.9,98.965,0,95.29,0"/>
</g>
<g>
	<g>
		<path style="fill:#FFFFFF;" d="M63.566,70.355h-21.66v0c0-3.348,2.714-6.062,6.062-6.062h9.535
			C60.852,64.292,63.566,67.006,63.566,70.355L63.566,70.355z"/>
	</g>
	<g>
		<g>
			
				<rect x="51.518" y="9.087" transform="matrix(0.866 0.5 -0.5 0.866 20.9855 -23.8954)" style="fill:#26B4E6;" width="7.129" height="36.249"/>
		</g>
		<g>
			
				<rect x="48.07" y="19.741" transform="matrix(0.866 0.5 -0.5 0.866 21.9998 -22.8811)" style="fill:#FFFFFF;" width="11.252" height="19.74"/>
		</g>
		<g>
			<path style="fill:#FFFFFF;" d="M67.229,15.297c-0.339,0-0.683-0.086-0.998-0.268l-6.174-3.564
				c-0.957-0.553-1.284-1.775-0.732-2.732C59.878,7.777,61.097,7.447,62.057,8l6.174,3.564c0.957,0.553,1.284,1.775,0.732,2.732
				C68.592,14.939,67.921,15.297,67.229,15.297z"/>
		</g>
	</g>
	<g>
		<path style="fill:#26B4E6;" d="M67.435,30.144c0.048-0.296,0.08-0.598,0.08-0.908c0-3.131-2.538-5.669-5.669-5.669
			c-3.131,0-5.669,2.538-5.669,5.669c0,3.131,2.538,5.669,5.669,5.669c0.939,0,1.823-0.232,2.604-0.637
			c2.262,2.695,3.537,6.118,3.537,9.781c0,8.409-6.841,15.25-15.25,15.25c-4.822,0-9.238-2.25-12.078-5.945h-5.906
			c3.46,6.699,10.343,10.945,17.985,10.945c11.166,0,20.25-9.084,20.25-20.25C72.986,38.84,70.936,33.863,67.435,30.144z"/>
		<polygon style="fill:#FFFFFF;" points="51.084,53.355 51.084,48.355 31.861,48.355 31.861,53.355 34.751,53.355 40.658,53.355 		
			"/>
	</g>
</g>
</svg>
