<?xml version="1.0" encoding="iso-8859-1"?>
<!-- Generator: Adobe Illustrator 22.1.0, SVG Export Plug-In . SVG Version: 6.00 Build 0)  -->
<svg version="1.1" id="Warstwa_1" xmlns="http://www.w3.org/2000/svg" xmlns:xlink="http://www.w3.org/1999/xlink" x="0px" y="0px"
	 viewBox="0 0 105.477 94.042" style="enable-background:new 0 0 105.477 94.042;" xml:space="preserve">
<g>
	<path style="fill:#5D2F88;" d="M52.736,92.494c-3.117,0-5.909-1.612-7.468-4.311L2.715,14.478
		c-1.559-2.699-1.559-5.923-0.001-8.622c1.559-2.699,4.351-4.311,7.468-4.311h85.107c3.117,0,5.909,1.612,7.468,4.311
		c1.558,2.699,1.558,5.923-0.001,8.622L60.204,88.183C58.645,90.882,55.854,92.494,52.736,92.494"/>
	<path style="fill:#382259;" d="M95.29,3.088c5.449,0,8.855,5.899,6.131,10.618L58.867,87.411c-1.362,2.359-3.746,3.539-6.131,3.539
		s-4.768-1.18-6.131-3.539L4.052,13.706C1.328,8.987,4.734,3.088,10.183,3.088H95.29 M95.29,0H10.183C6.507,0,3.216,1.9,1.378,5.083
		c-1.838,3.184-1.838,6.984,0,10.167l42.553,73.705c1.837,3.183,5.129,5.083,8.805,5.083c3.675,0,6.967-1.9,8.805-5.083
		l42.553-73.705c1.838-3.183,1.838-6.983,0-10.167C102.256,1.9,98.965,0,95.29,0"/>
</g>
<g>
	<path style="fill:#FFFFFF;" d="M82.964,19.999l-8.173-8.172c-4.745-4.745-9.412-3.849-9.693-3.826
		c3.197,2.745,6.402,6.731,6.402,6.731l-2.555,2.555l0.747,0.748l-4.186,4.207c1.092,1.07,2.031,2.289,2.805,3.619l4.233-4.969
		l2.31,2.314c1.761,1.87,3.149,4.213,5.595,9.49c0.881-0.47,2.558-1.529,4.676-3.647c2.222-2.222,3.26-3.909,3.684-4.724
		C87.629,23.643,84.96,21.995,82.964,19.999z"/>
	<path style="fill:#FFFFFF;" d="M39.966,22.242l-4.186-4.207l0.747-0.748l-2.555-2.555c0,0,3.206-3.987,6.402-6.731
		c-0.281-0.023-4.947-0.92-9.693,3.826l-8.173,8.172c-1.996,1.996-4.665,3.643-5.844,4.326c0.424,0.815,1.462,2.501,3.683,4.724
		c2.118,2.119,3.795,3.178,4.676,3.647c2.447-5.277,3.834-7.62,5.595-9.49l2.31-2.314l4.233,4.969
		C37.934,24.531,38.874,23.312,39.966,22.242z"/>
	<path style="fill:#FFFFFF;" d="M62.836,56.001c2.706,3.177,7.742,2.717,9.828-0.897l-7.761-7.8
		c-2.687,0.291-5.733,0.488-8.993,0.567L62.836,56.001z"/>
	<path style="fill:#FFFFFF;" d="M32.809,55.104L32.809,55.104c2.087,3.614,7.122,4.073,9.828,0.897l6.925-8.13
		c-3.26-0.079-6.306-0.276-8.993-0.567L32.809,55.104z"/>
	<path style="fill:#C90C0F;" d="M65.507,22.242c-1.571-1.539-3.439-2.772-5.511-3.612l-0.742,13.358l-0.157,2.834h-2.838h-6.684
		h-2.838l-0.157-2.834L45.83,18.5c-2.211,0.84-4.205,2.117-5.864,3.742c-1.092,1.07-2.032,2.289-2.805,3.619
		c-1.459,2.509-2.308,5.417-2.308,8.528V40.3c-3.396,1.154-5.444,2.47-5.444,3.48c0,1.492,4.467,2.798,11.161,3.525
		c2.687,0.291,5.733,0.488,8.993,0.567c1.039,0.025,2.097,0.039,3.174,0.039c1.077,0,2.136-0.014,3.174-0.039
		c3.26-0.079,6.306-0.276,8.993-0.567c6.694-0.726,11.161-2.033,11.161-3.525c0-1.009-2.048-2.325-5.444-3.48v-5.911
		c0-3.112-0.849-6.019-2.308-8.528C67.538,24.531,66.599,23.311,65.507,22.242z"/>
	<polygon style="fill:#C90C0F;" points="56.259,31.822 57.15,15.78 48.684,15.78 49.575,31.822 	"/>
</g>
</svg>
