<?xml version="1.0" encoding="iso-8859-1"?>
<!-- Generator: Adobe Illustrator 22.1.0, SVG Export Plug-In . SVG Version: 6.00 Build 0)  -->
<svg version="1.1" id="Warstwa_1" xmlns="http://www.w3.org/2000/svg" xmlns:xlink="http://www.w3.org/1999/xlink" x="0px" y="0px"
	 viewBox="0 0 105.477 94.042" style="enable-background:new 0 0 105.477 94.042;" xml:space="preserve">
<g>
	<path style="fill:#5D2F88;" d="M52.736,92.494c-3.117,0-5.909-1.612-7.468-4.311L2.715,14.478
		c-1.559-2.699-1.559-5.923-0.001-8.622c1.559-2.699,4.351-4.311,7.468-4.311h85.107c3.117,0,5.909,1.612,7.468,4.311
		c1.558,2.699,1.558,5.923-0.001,8.622L60.204,88.183C58.645,90.882,55.854,92.494,52.736,92.494"/>
	<path style="fill:#382259;" d="M95.29,3.088c5.449,0,8.855,5.899,6.131,10.618L58.867,87.411c-1.362,2.359-3.746,3.539-6.131,3.539
		s-4.768-1.18-6.131-3.539L4.052,13.706C1.328,8.987,4.734,3.088,10.183,3.088H95.29 M95.29,0H10.183C6.507,0,3.216,1.9,1.378,5.083
		c-1.838,3.184-1.838,6.984,0,10.167l42.553,73.705c1.837,3.183,5.129,5.083,8.805,5.083c3.675,0,6.967-1.9,8.805-5.083
		l42.553-73.705c1.838-3.183,1.838-6.983,0-10.167C102.256,1.9,98.965,0,95.29,0"/>
</g>
<g>
	<path style="fill:#AFCA0B;" d="M44.936,58.694c-0.34,0-0.656-0.093-0.937-0.243c-2.064,1.058-3.784,1.306-4.926,0.644
		c-1.983-1.144-2.479-5.144-1.279-10.756c0.037-0.172,0.087-0.356,0.127-0.531c0.148-0.647,0.318-1.314,0.51-1.999
		c0.241-0.862,0.518-1.753,0.83-2.67c1.284-3.774,3.157-7.971,5.691-12.361c2.41-4.175,5.099-7.961,7.852-11.103
		c1.243-1.419,2.497-2.69,3.747-3.819c0.317-0.286,0.634-0.584,0.95-0.849c2.964-2.492,5.651-3.835,7.561-3.835
		c0.564,0,1.061,0.117,1.476,0.357c0.133,0.077,0.258,0.17,0.377,0.272c-0.556,0.366-1.046,0.848-1.401,1.464
		c-1.221,2.115-0.496,4.82,1.619,6.042c0.361,0.208,0.741,0.34,1.125,0.438c-0.115,0.872-0.278,1.797-0.493,2.77
		c0.765,0.916,1.436,1.879,2.006,2.882c0.048,0.012,0.098,0.023,0.146,0.036c0.582-2.076,0.994-4.07,1.205-5.92
		c0.832-0.365,1.563-0.977,2.052-1.824c1.221-2.115,0.496-4.82-1.619-6.042c-0.506-0.292-1.046-0.466-1.59-0.543
		c-0.512-0.834-1.182-1.511-2.027-1.999c-2.967-1.716-7.314-0.382-12.238,3.76c-0.932,0.784-1.868,1.672-2.803,2.616
		c-0.995,1.005-1.984,2.093-2.965,3.258c-2.605,3.096-5.13,6.7-7.404,10.638c-2.109,3.654-3.948,7.544-5.354,11.327
		c-0.227,0.612-0.444,1.219-0.647,1.824c-0.303,0.9-0.577,1.788-0.822,2.664c-0.003-0.001-0.006-0.001-0.008-0.002
		c-0.052,0.184-0.099,0.365-0.148,0.548c-0.016,0.06-0.037,0.123-0.052,0.183c-0.013,0.05-0.021,0.092-0.033,0.141
		c-1.865,7.173-1.617,13.246,2.212,15.457c0.897,0.518,1.88,0.76,2.927,0.76c1.541,0,3.222-0.53,4.973-1.471
		c-0.002-1.069-0.013-1.912-0.042-2.115H44.936z"/>
	<path style="fill:#26B4E6;" d="M83.066,35.313c0-4.601-5.555-7.936-13.152-9.879c-0.048-0.012-0.098-0.024-0.146-0.036
		c0.609,1.071,1.099,2.185,1.489,3.325c5.659,1.775,9.008,4.254,9.008,6.59c0,2.363-3.429,4.873-9.211,6.652
		c-0.351,0.931-0.795,1.831-1.291,2.708c0.05,0.173,0.103,0.346,0.151,0.518C77.511,43.249,83.066,39.913,83.066,35.313z"/>
	<path style="fill:#26B4E6;" d="M36.524,42.529c-1.15-0.279-1.596-0.417-2.091-0.587c-0.002-0.005-0.004-0.011-0.006-0.016
		c-0.13-0.041-0.263-0.08-0.39-0.122c-0.219-0.076-0.474-0.164-0.807-0.273c-4.934-1.725-7.833-4.001-7.884-6.161
		c0.603,0.308,1.276,0.499,2,0.499c2.443,0,4.423-1.98,4.423-4.423c0-0.59-0.121-1.152-0.331-1.667
		c0.847-0.357,1.774-0.696,2.774-1.014c0.395-1.162,0.895-2.277,1.494-3.336c-0.004,0.001-0.009,0.002-0.013,0.003
		c-2.302,0.589-4.412,1.306-6.241,2.147c-0.629-0.344-1.339-0.557-2.107-0.557c-2.443,0-4.423,1.98-4.423,4.423
		c0,0.468,0.093,0.911,0.227,1.334c-0.392,0.796-0.61,1.639-0.61,2.532c0,4.6,5.555,7.936,13.153,9.879
		c0.003,0.001,0.006,0.001,0.008,0.002C35.947,44.318,36.221,43.429,36.524,42.529z"/>
	<path style="fill:#FFFFFF;" d="M71.054,41.965c1.595-4.231,1.676-8.926,0.203-13.242c-0.389-1.14-0.88-2.254-1.489-3.325
		c-0.57-1.003-1.242-1.966-2.006-2.882c-0.063-0.076-0.115-0.157-0.18-0.232c-2.892-3.361-6.796-5.587-11.033-6.427
		c-1.249,1.128-2.504,2.4-3.747,3.819c2.753,3.142,5.443,6.926,7.854,11.103c2.531,4.385,4.418,8.588,5.701,12.359
		c0.313,0.918,0.585,1.807,0.826,2.67c-0.726,0.146-1.462,0.284-2.213,0.407c-0.442,0.483-0.907,0.952-1.416,1.39
		c-2.261,1.944-4.012,4.365-5.143,7.09h2.135c0.38,0,0.731,0.112,1.033,0.296c0.947-1.943,2.275-3.688,3.929-5.111
		c0.793-0.683,1.498-1.428,2.154-2.202c1.383,5.957,0.93,10.229-1.13,11.417c-1.139,0.659-2.886,0.395-4.975-0.685
		c-0.298,0.176-0.641,0.284-1.012,0.284h-0.594c-0.027,0.196-0.038,0.985-0.041,1.994c1.885,1.024,3.632,1.56,5.174,1.56
		c1.048,0,2.004-0.24,2.849-0.728c3.984-2.3,4.095-8.779,1.979-16.33c-0.048-0.172-0.1-0.345-0.151-0.518
		C70.26,43.797,70.703,42.897,71.054,41.965z M63.083,29.378c-2.266-3.924-4.779-7.525-7.373-10.613
		c3.704,0.673,7.101,2.573,9.598,5.475c3.99,4.637,4.94,10.864,3.063,16.265C66.975,36.786,65.154,32.967,63.083,29.378z"/>
	<path style="fill:#FFFFFF;" d="M34.212,28.766c-0.905,2.66-1.269,5.55-0.925,8.527c0.185,1.599,0.582,3.149,1.141,4.634
		c0.002,0.005,0.004,0.011,0.006,0.016c0.494,0.17,0.941,0.308,2.091,0.587c0.203-0.604,0.42-1.212,0.647-1.824
		c-0.438-1.205-0.754-2.461-0.904-3.757c-1.014-8.77,5.059-16.736,13.662-18.208c0.98-1.165,1.97-2.253,2.965-3.258
		c-0.048,0-0.095-0.004-0.143-0.004c-0.013,0-0.026,0.001-0.04,0.001c-0.934-0.943-1.869-1.831-2.801-2.614
		c-4.921-4.139-9.267-5.477-12.238-3.761c-3.984,2.3-4.095,8.778-1.979,16.328c0.004-0.001,0.009-0.002,0.013-0.003
		C35.107,26.489,34.607,27.603,34.212,28.766z M39.073,11.53c0.415-0.239,0.911-0.356,1.476-0.356c1.908,0,4.597,1.343,7.561,3.835
		c0.313,0.263,0.627,0.558,0.94,0.841c-4.526,0.862-8.424,3.243-11.23,6.552C36.589,16.73,37.076,12.682,39.073,11.53z"/>
	<path style="fill:#FFFFFF;" d="M41.835,47.531c-0.483-0.421-0.928-0.875-1.355-1.343c-0.694-0.116-1.377-0.243-2.05-0.378
		c-0.192,0.685-0.362,1.352-0.51,1.999c0.603,0.699,1.24,1.371,1.943,1.984c1.683,1.456,3.038,3.234,4.011,5.214
		c0.308-0.194,0.67-0.311,1.061-0.311h2.105C45.881,51.944,44.107,49.495,41.835,47.531z"/>
	<path style="fill:#26B4E6;" d="M60.548,58.694c0.371,0,0.714-0.108,1.012-0.284c0.589-0.348,0.988-0.983,0.988-1.716
		c0-0.725-0.39-1.354-0.967-1.704c-0.302-0.184-0.654-0.296-1.033-0.296h-2.135H47.041h-2.105c-0.391,0-0.753,0.117-1.061,0.311
		c-0.562,0.354-0.939,0.976-0.939,1.689c0,0.764,0.433,1.42,1.063,1.757c0.281,0.15,0.596,0.243,0.937,0.243h0.594
		c0.029,0.204,0.04,1.046,0.042,2.115c0.004,2.444-0.042,6.087-0.042,6.087c0,1.126,0.904,2.037,2.025,2.057v0.783
		c0,0.818,0.664,1.482,1.482,1.482h7.41c0.818,0,1.482-0.664,1.482-1.482v-0.783c1.121-0.02,2.025-0.931,2.025-2.057
		c0,0-0.046-3.765-0.041-6.208c0.002-1.009,0.013-1.799,0.041-1.994H60.548z"/>
	<path style="fill:#AFCA0B;" d="M49.732,29.993c-2.938,1.696-3.945,5.453-2.249,8.391c1.696,2.938,5.453,3.945,8.391,2.248
		c2.938-1.696,3.945-5.453,2.248-8.391C56.427,29.303,52.67,28.297,49.732,29.993z"/>
	<path style="fill:#26B4E6;" d="M52.803,44.38c-5.06,0-9.638-0.468-13.544-1.241c-0.312,0.917-0.589,1.807-0.83,2.67
		c0.673,0.136,1.356,0.263,2.05,0.378c3.932,0.655,8.163,0.994,12.323,0.994c4.105,0,8.28-0.328,12.168-0.967
		c0.75-0.123,1.487-0.261,2.213-0.407c-0.241-0.863-0.514-1.752-0.826-2.67C62.45,43.912,57.867,44.38,52.803,44.38z"/>
</g>
</svg>
