<?xml version="1.0" encoding="iso-8859-1"?>
<!-- Generator: Adobe Illustrator 22.1.0, SVG Export Plug-In . SVG Version: 6.00 Build 0)  -->
<svg version="1.1" id="Warstwa_1" xmlns="http://www.w3.org/2000/svg" xmlns:xlink="http://www.w3.org/1999/xlink" x="0px" y="0px"
	 viewBox="0 0 105.477 94.042" style="enable-background:new 0 0 105.477 94.042;" xml:space="preserve">
<g>
	<path style="fill:#5D2F88;" d="M52.736,92.494c-3.117,0-5.909-1.612-7.468-4.311L2.715,14.478
		c-1.559-2.699-1.559-5.923-0.001-8.622c1.559-2.699,4.351-4.311,7.468-4.311h85.107c3.117,0,5.909,1.612,7.468,4.311
		c1.558,2.699,1.558,5.923-0.001,8.622L60.204,88.183C58.645,90.882,55.854,92.494,52.736,92.494"/>
	<path style="fill:#382259;" d="M95.29,3.088c5.449,0,8.855,5.899,6.131,10.618L58.867,87.411c-1.362,2.359-3.746,3.539-6.131,3.539
		s-4.768-1.18-6.131-3.539L4.052,13.706C1.328,8.987,4.734,3.088,10.183,3.088H95.29 M95.29,0H10.183C6.507,0,3.216,1.9,1.378,5.083
		c-1.838,3.184-1.838,6.984,0,10.167l42.553,73.705c1.837,3.183,5.129,5.083,8.805,5.083c3.675,0,6.967-1.9,8.805-5.083
		l42.553-73.705c1.838-3.183,1.838-6.983,0-10.167C102.256,1.9,98.965,0,95.29,0"/>
</g>
<g>
	<g>
		<path style="fill:#EF7D00;" d="M46.691,56.31l5.189-7.765l-7.111-3.87l5.949-14.806l0.213-0.25l11.516-13.471l-5.496-7.123H27.577
			v10.137l-0.097,0.134c-4.897,6.805-5.35,15.849-1.158,23.109l7.046,12.203l3.062-4.54L46.691,56.31z"/>
		<path style="fill:#EF7D00;" d="M55.714,50.008l-7.828,11.712l-10.274-6.25l-2.019,2.993l1.114,1.928
			c6.954,12.044,24.085,12.323,31.522,0.85l-4.793-10.034L55.714,50.008z"/>
		<path style="fill:#EF7D00;" d="M77.889,19.164L77.889,19.164V9.027H73.8L54.185,31.97l-4.377,10.894l5.603,3.05l10.725,1.667
			l4.55,9.524l8.475-14.47C83.478,35.262,82.977,26.025,77.889,19.164z"/>
	</g>
	<g>
		<path style="fill:#FFFFFF;" d="M50.931,29.62l1.611-1.885l-4.95-4.95c-0.586-0.586-1.535-0.586-2.121,0l-5.144,5.144l-5.144-5.144
			c-0.586-0.586-1.535-0.586-2.121,0l-5.144,5.144l-3.246-3.246C24.287,25.783,24,26.91,23.799,28.05l3.06,3.06
			c0.586,0.586,1.535,0.586,2.121,0l5.144-5.144l5.144,5.144c0.586,0.586,1.535,0.586,2.121,0l5.144-5.144l4.105,4.105l0.081-0.202
			L50.931,29.62z"/>
		<path style="fill:#FFFFFF;" d="M64.084,31.11c0.586,0.586,1.535,0.586,2.121,0l5.144-5.144l5.144,5.144
			c0.293,0.293,0.677,0.439,1.061,0.439s0.768-0.146,1.061-0.439l3.109-3.108c-0.196-1.066-0.469-2.118-0.828-3.149
			c-0.225,0.07-0.44,0.175-0.618,0.353l-2.723,2.722l-5.144-5.144c-0.586-0.586-1.535-0.586-2.121,0l-5.144,5.144l-4.045-4.045
			l-1.955,2.287L64.084,31.11z"/>
		<path style="fill:#FFFFFF;" d="M77.552,37.666l-5.144-5.144c-0.586-0.586-1.535-0.586-2.121,0l-5.144,5.144l-5.144-5.144
			c-0.586-0.586-1.535-0.586-2.121,0l-5.144,5.144l-0.599-0.599l-1.216,3.026l0.754,0.754c0.586,0.586,1.535,0.586,2.121,0
			l5.144-5.144l5.144,5.144c0.586,0.586,1.535,0.586,2.121,0l5.144-5.144l5.144,5.144c0.293,0.293,0.677,0.439,1.061,0.439
			s0.768-0.146,1.061-0.439l2.436-2.436c0.551-1.704,0.87-3.459,0.98-5.222L77.552,37.666z"/>
		<path style="fill:#FFFFFF;" d="M47.592,32.522c-0.586-0.586-1.535-0.586-2.121,0l-5.144,5.144l-5.144-5.144
			c-0.586-0.586-1.535-0.586-2.121,0l-5.144,5.144l-4.388-4.388c0.129,1.799,0.487,3.585,1.075,5.318l2.252,2.252
			c0.586,0.586,1.535,0.586,2.121,0l5.144-5.144l5.144,5.144c0.586,0.586,1.535,0.586,2.121,0l5.144-5.144l1.314,1.314l1.216-3.026
			L47.592,32.522z"/>
	</g>
</g>
</svg>
