<?xml version="1.0" encoding="iso-8859-1"?>
<!-- Generator: Adobe Illustrator 22.1.0, SVG Export Plug-In . SVG Version: 6.00 Build 0)  -->
<svg version="1.1" id="Warstwa_1" xmlns="http://www.w3.org/2000/svg" xmlns:xlink="http://www.w3.org/1999/xlink" x="0px" y="0px"
	 viewBox="0 0 105.477 94.042" style="enable-background:new 0 0 105.477 94.042;" xml:space="preserve">
<g>
	<path style="fill:#5D2F88;" d="M52.736,92.494c-3.117,0-5.909-1.612-7.468-4.311L2.715,14.478
		c-1.559-2.699-1.559-5.923-0.001-8.622c1.559-2.699,4.351-4.311,7.468-4.311h85.107c3.117,0,5.909,1.612,7.468,4.311
		c1.558,2.699,1.558,5.923-0.001,8.622L60.204,88.183C58.645,90.882,55.854,92.494,52.736,92.494"/>
	<path style="fill:#382259;" d="M95.29,3.088c5.449,0,8.855,5.899,6.131,10.618L58.867,87.411c-1.362,2.359-3.746,3.539-6.131,3.539
		s-4.768-1.18-6.131-3.539L4.052,13.706C1.328,8.987,4.734,3.088,10.183,3.088H95.29 M95.29,0H10.183C6.507,0,3.216,1.9,1.378,5.083
		c-1.838,3.184-1.838,6.984,0,10.167l42.553,73.705c1.837,3.183,5.129,5.083,8.805,5.083c3.675,0,6.967-1.9,8.805-5.083
		l42.553-73.705c1.838-3.183,1.838-6.983,0-10.167C102.256,1.9,98.965,0,95.29,0"/>
</g>
<g>
	<g>
		<path style="fill:#FFFFFF;" d="M27.644,43.206c-0.556,0-1.089-0.31-1.349-0.842l-8.656-17.728
			c-1.008-2.062-1.093-4.465-0.233-6.594c0.859-2.128,2.589-3.799,4.746-4.583l3.642-1.325c0.777-0.282,1.639,0.117,1.922,0.896
			c0.283,0.778-0.118,1.639-0.896,1.922l-3.642,1.325c-1.379,0.502-2.44,1.527-2.989,2.888c-0.55,1.36-0.497,2.836,0.146,4.154
			l8.656,17.728c0.363,0.744,0.055,1.643-0.689,2.006C28.09,43.157,27.865,43.206,27.644,43.206z"/>
	</g>
	<g>
		<path style="fill:#FFFFFF;" d="M51.575,34.496c-0.673,0-1.285-0.455-1.455-1.138l-4.765-19.146
			c-0.354-1.424-1.262-2.587-2.558-3.276c-1.296-0.688-2.768-0.791-4.145-0.29l-3.644,1.325c-0.777,0.283-1.639-0.118-1.922-0.896
			s0.118-1.639,0.896-1.922l3.643-1.325c2.154-0.787,4.553-0.619,6.58,0.46c2.026,1.078,3.506,2.974,4.061,5.2l4.765,19.146
			c0.199,0.804-0.29,1.618-1.094,1.818C51.816,34.482,51.695,34.496,51.575,34.496z"/>
	</g>
	<g>
		<circle style="fill:#FFFFFF;" cx="81.355" cy="20.916" r="8.504"/>
	</g>
	<path style="fill:#26B4E6;" d="M83.534,19.692c-0.676-1.205-2.202-1.633-3.403-0.956c-12.87,7.226-14.3,20.503-15.448,31.171
		c-1.316,12.227-2.598,16.786-10.804,16.075c-6.199-0.53-7.55-9.603-7.729-15.978c3.039-1.532,5.469-4.012,6.929-7.143
		c1.72-3.688,1.9-7.825,0.509-11.648c-0.473-1.298-1.91-1.965-3.204-1.495c-1.298,0.473-1.967,1.907-1.495,3.204
		c0.936,2.569,0.813,5.349-0.341,7.826c-1.155,2.478-3.207,4.356-5.776,5.291c-5.299,1.934-11.186-0.813-13.116-6.116
		c-0.473-1.296-1.906-1.964-3.205-1.494c-1.297,0.473-1.966,1.907-1.494,3.205c2.25,6.18,8.105,10.024,14.33,10.023
		c0.637,0,1.279-0.055,1.92-0.137c0.817,15.984,7.913,19.074,12.247,19.445c0.691,0.059,1.35,0.088,1.979,0.088
		c12.002-0.001,13.13-10.47,14.222-20.61c1.079-10.022,2.302-21.383,12.924-27.347C83.782,22.42,84.21,20.896,83.534,19.692z"/>
</g>
</svg>
