<?xml version="1.0" encoding="iso-8859-1"?>
<!-- Generator: Adobe Illustrator 22.1.0, SVG Export Plug-In . SVG Version: 6.00 Build 0)  -->
<svg version="1.1" id="Warstwa_1" xmlns="http://www.w3.org/2000/svg" xmlns:xlink="http://www.w3.org/1999/xlink" x="0px" y="0px"
	 viewBox="0 0 105.477 94.042" style="enable-background:new 0 0 105.477 94.042;" xml:space="preserve">
<g>
	<path style="fill:#5D2F88;" d="M52.736,92.494c-3.117,0-5.909-1.612-7.468-4.311L2.715,14.478
		c-1.559-2.699-1.559-5.923-0.001-8.622c1.559-2.699,4.351-4.311,7.468-4.311h85.107c3.117,0,5.909,1.612,7.468,4.311
		c1.558,2.699,1.558,5.923-0.001,8.622L60.204,88.183C58.645,90.882,55.854,92.494,52.736,92.494"/>
	<path style="fill:#382259;" d="M95.29,3.088c5.449,0,8.855,5.899,6.131,10.618L58.867,87.411c-1.362,2.359-3.746,3.539-6.131,3.539
		s-4.768-1.18-6.131-3.539L4.052,13.706C1.328,8.987,4.734,3.088,10.183,3.088H95.29 M95.29,0H10.183C6.507,0,3.216,1.9,1.378,5.083
		c-1.838,3.184-1.838,6.984,0,10.167l42.553,73.705c1.837,3.183,5.129,5.083,8.805,5.083c3.675,0,6.967-1.9,8.805-5.083
		l42.553-73.705c1.838-3.183,1.838-6.983,0-10.167C102.256,1.9,98.965,0,95.29,0"/>
</g>
<g>
	<g>
		<path style="fill:#FFFFFF;" d="M57.49,72.687c-0.887,0-1.837-0.21-2.822-0.626c-4.406-1.855-4.259-5.471-3.566-7.123
			c0.134-0.354,1.893-5.471,3.755-10.887l3.28-9.536l13.846,5.95L66.24,61.607c-2.171,4.21-4.047,7.847-4.201,8.167
			C61.487,71.085,59.94,72.687,57.49,72.687L57.49,72.687z"/>
		<path style="fill:#5D2F88;" d="M59.326,47.204l9.896,4.253C64.824,60,60.327,68.69,60.224,68.935
			c-0.152,0.36-0.885,1.753-2.734,1.753c-0.57,0-1.247-0.133-2.045-0.469c-3.387-1.427-2.733-3.949-2.498-4.507
			C53.068,65.422,56.217,56.238,59.326,47.204 M56.946,41.827l-1.402,4.075l-2.478,7.205c-1.856,5.4-3.612,10.505-3.843,11.142
			c-1.075,2.681-0.711,7.39,4.668,9.656c1.233,0.519,2.444,0.783,3.599,0.783c3.365,0,5.517-2.173,6.37-4.084
			c0.273-0.548,2.052-3.997,4.102-7.972c1.455-2.82,3.143-6.093,4.817-9.344l1.963-3.813l-3.94-1.693l-9.896-4.253L56.946,41.827
			L56.946,41.827z"/>
	</g>
	<path style="fill:#26B4E6;" d="M80.973,10.446c-6.186-2.606-13.25-0.058-16.419,5.693l23.814,10.032
		C90.272,19.886,87.159,13.052,80.973,10.446z"/>
	<path style="fill:#26B4E6;" d="M63.067,20.564c-0.341,2.351-0.013,4.709,0.871,6.837l16.63,7.148
		c2.211-0.846,4.19-2.285,5.673-4.222L63.067,20.564z"/>
	<polygon style="fill:#F0AE00;" points="56.301,43.168 74.146,50.838 79.677,37.605 61.832,29.935 	"/>
</g>
<g>
	<path style="fill:#C90C0F;" d="M37.12,35.323l-11.537,6.02C33.998,57.366,45.23,72.634,48.39,70.985
		C51.551,69.336,45.451,51.39,37.12,35.323z"/>
	<path style="fill:#C90C0F;" d="M23.568,15.051l1.181-0.617c1.714,0.234,7.634,5.612,15.846,21.35
		c0.446,0.854,1.317,1.344,2.218,1.344c0.39,0,0.785-0.091,1.155-0.284c1.224-0.639,1.698-2.149,1.06-3.373
		C39.627,23.121,29.528,6.3,22.581,9.927l-4.741,2.512c-2.974,1.552-1.179,10.956,5.927,25.34l11.469-5.985
		C30.846,23.818,26.796,18.168,23.568,15.051z"/>
</g>
</svg>
