<?xml version="1.0" encoding="iso-8859-1"?>
<!-- Generator: Adobe Illustrator 25.0.0, SVG Export Plug-In . SVG Version: 6.00 Build 0)  -->
<svg version="1.1" id="Warstwa_1" xmlns="http://www.w3.org/2000/svg" x="0px" y="0px"
	 viewBox="0 0 105.477 94.042" style="enable-background:new 0 0 105.477 94.042;" xml:space="preserve">
<g>
	<path style="fill:#5D2F88;" d="M52.736,92.494c-3.117,0-5.909-1.612-7.468-4.311L2.715,14.478
		c-1.559-2.699-1.559-5.923-0.001-8.622c1.559-2.699,4.351-4.311,7.468-4.311h85.107c3.117,0,5.909,1.612,7.468,4.311
		c1.558,2.699,1.558,5.923-0.001,8.622L60.204,88.183C58.645,90.882,55.854,92.494,52.736,92.494"/>
	<path style="fill:#382259;" d="M95.29,3.088c5.449,0,8.855,5.899,6.131,10.618L58.867,87.411c-1.362,2.359-3.746,3.539-6.131,3.539
		s-4.768-1.18-6.131-3.539L4.052,13.706C1.328,8.987,4.734,3.088,10.183,3.088H95.29 M95.29,0H10.183C6.507,0,3.216,1.9,1.378,5.083
		c-1.838,3.184-1.838,6.984,0,10.167l42.553,73.705c1.837,3.183,5.129,5.083,8.805,5.083c3.675,0,6.967-1.9,8.805-5.083
		l42.553-73.705c1.838-3.183,1.838-6.983,0-10.167C102.256,1.9,98.965,0,95.29,0"/>
</g>
<g>
	<path style="fill:#EF7D00;" d="M80.181,28.571c0-2.421-1.963-4.384-4.384-4.384H29.675c-2.421,0-4.384,1.963-4.384,4.384
		c0,1.99,1.335,3.652,3.152,4.187l4.559,20.918c0.402,1.997,2.174,3.447,4.212,3.447h31.044c2.038,0,3.81-1.45,4.207-3.424
		l4.564-20.941C78.846,32.223,80.181,30.562,80.181,28.571z M72.957,37.354h-7.928l0.496-4.399h8.39L72.957,37.354z M71.238,45.239
		h-7.099l0.551-4.885h7.613L71.238,45.239z M54.237,54.124v-5.885h6.545l-0.664,5.885H54.237z M45.355,54.124l-0.664-5.885h6.546
		v5.885H45.355z M51.237,32.955v4.399h-7.774l-0.496-4.399H51.237z M54.237,32.955h8.27l-0.496,4.399h-7.773V32.955z M39.948,32.955
		l0.496,4.399h-7.928l-0.959-4.399H39.948z M33.17,40.354h7.613l0.551,4.885h-7.1L33.17,40.354z M43.801,40.354h7.436v4.885h-6.884
		L43.801,40.354z M54.237,45.239v-4.885h7.435l-0.551,4.885H54.237z M35.939,53.061l-1.051-4.822h6.784l0.664,5.885h-5.122
		C36.599,54.124,36.065,53.686,35.939,53.061z M68.258,54.124h-5.121l0.664-5.885h6.784l-1.056,4.846
		C69.408,53.686,68.873,54.124,68.258,54.124z"/>
	<path style="fill:#FFFFFF;" d="M48.543,8.48c-0.869-0.429-1.92-0.072-2.349,0.797l-8.901,16.297
		c-1.479,0.206-2.621,1.462-2.621,2.997c0,1.679,1.361,3.04,3.039,3.04s3.039-1.361,3.039-3.04c0-0.501-0.132-0.966-0.347-1.382
		l8.935-16.36C49.769,9.96,49.412,8.909,48.543,8.48z"/>
	<path style="fill:#FFFFFF;" d="M68.179,25.574L59.278,9.277c-0.429-0.869-1.48-1.226-2.349-0.797
		c-0.869,0.428-1.226,1.48-0.797,2.348l8.935,16.36c-0.214,0.416-0.347,0.882-0.347,1.382c0,1.679,1.361,3.04,3.04,3.04
		s3.039-1.361,3.039-3.04C70.799,27.036,69.657,25.78,68.179,25.574z"/>
</g>
</svg>
