<?xml version="1.0" encoding="iso-8859-1"?>
<!-- Generator: Adobe Illustrator 22.1.0, SVG Export Plug-In . SVG Version: 6.00 Build 0)  -->
<svg version="1.1" id="Warstwa_1" xmlns="http://www.w3.org/2000/svg" x="0px" y="0px"
	 viewBox="0 0 105.477 94.042" style="enable-background:new 0 0 105.477 94.042;" xml:space="preserve">
<g>
	<path style="fill:#5D2F88;" d="M52.736,92.494c-3.117,0-5.909-1.612-7.468-4.311L2.715,14.478
		c-1.559-2.699-1.559-5.923-0.001-8.622c1.559-2.699,4.351-4.311,7.468-4.311h85.107c3.117,0,5.909,1.612,7.468,4.311
		c1.558,2.699,1.558,5.923-0.001,8.622L60.204,88.183C58.645,90.882,55.854,92.494,52.736,92.494"/>
	<path style="fill:#382259;" d="M95.29,3.088c5.449,0,8.855,5.899,6.131,10.618L58.867,87.411c-1.362,2.359-3.746,3.539-6.131,3.539
		s-4.768-1.18-6.131-3.539L4.052,13.706C1.328,8.987,4.734,3.088,10.183,3.088H95.29 M95.29,0H10.183C6.507,0,3.216,1.9,1.378,5.083
		c-1.838,3.184-1.838,6.984,0,10.167l42.553,73.705c1.837,3.183,5.129,5.083,8.805,5.083c3.675,0,6.967-1.9,8.805-5.083
		l42.553-73.705c1.838-3.183,1.838-6.983,0-10.167C102.256,1.9,98.965,0,95.29,0"/>
</g>
<g>
	<g>
		<path style="fill:#F0AE00;" d="M27.876,38.094c-1.745,0.91-2.723,1.816-2.723,2.575c0,2.698,12.35,4.884,27.584,4.884
			s27.584-2.187,27.584-4.884c0-0.759-0.978-1.665-2.723-2.575v-10.89c0-9.346-7.539-16.926-16.867-17.003l-1.224,18.587H46.468
			l-1.224-18.594h-0.358c-9.395,0-17.01,7.616-17.01,17.01V38.094z"/>
		<polygon style="fill:#F0AE00;" points="57.633,26.788 58.872,7.971 47.102,7.971 48.341,26.788 		"/>
	</g>
	<g>
		<g>
			<g>
				<path style="fill:#26B4E6;" d="M52.737,39.866c-4.681,0-8.488-3.808-8.488-8.487s3.808-8.487,8.488-8.487
					c4.68,0,8.487,3.808,8.487,8.487S57.416,39.866,52.737,39.866z"/>
			</g>
			<g>
				<path style="fill:#FFFFFF;" d="M52.736,24.391c3.853,0,6.988,3.135,6.988,6.988s-3.135,6.988-6.988,6.988
					s-6.988-3.135-6.988-6.988S48.883,24.391,52.736,24.391 M52.736,21.391c-5.516,0-9.988,4.472-9.988,9.988
					s4.472,9.988,9.988,9.988s9.988-4.472,9.988-9.988S58.252,21.391,52.736,21.391L52.736,21.391z"/>
			</g>
		</g>
		<g>
			<path style="fill:#26B4E6;" d="M52.736,28.264c1.72,0,3.115,1.394,3.115,3.115"/>
			<path style="fill:#FFFFFF;" d="M55.851,32.879c-0.828,0-1.5-0.672-1.5-1.5c0-0.89-0.725-1.614-1.614-1.614
				c-0.828,0-1.5-0.672-1.5-1.5s0.672-1.5,1.5-1.5c2.544,0,4.614,2.07,4.614,4.614C57.351,32.207,56.679,32.879,55.851,32.879z"/>
		</g>
	</g>
</g>
</svg>
