<?xml version="1.0" encoding="iso-8859-1"?>
<!-- Generator: Adobe Illustrator 25.0.0, SVG Export Plug-In . SVG Version: 6.00 Build 0)  -->
<svg version="1.1" id="Warstwa_1" xmlns="http://www.w3.org/2000/svg" xmlns:xlink="http://www.w3.org/1999/xlink" x="0px" y="0px"
	 viewBox="0 0 105.477 94.042" style="enable-background:new 0 0 105.477 94.042;" xml:space="preserve">
<g>
	<g>
		<path style="fill:#5D2F88;" d="M52.736,92.494c-3.117,0-5.909-1.612-7.468-4.311L2.715,14.478
			c-1.559-2.699-1.559-5.923-0.001-8.622c1.559-2.699,4.351-4.311,7.468-4.311h85.107c3.117,0,5.909,1.612,7.468,4.311
			c1.558,2.699,1.558,5.923-0.001,8.622L60.204,88.183C58.645,90.882,55.854,92.494,52.736,92.494"/>
		<path style="fill:#382259;" d="M95.29,3.088c5.449,0,8.855,5.899,6.131,10.618L58.867,87.411
			c-1.362,2.359-3.746,3.539-6.131,3.539s-4.768-1.18-6.131-3.539L4.052,13.706C1.328,8.987,4.734,3.088,10.183,3.088H95.29
			 M95.29,0H10.183C6.507,0,3.216,1.9,1.378,5.083c-1.838,3.184-1.838,6.984,0,10.167l42.553,73.705
			c1.837,3.183,5.129,5.083,8.805,5.083c3.675,0,6.967-1.9,8.805-5.083l42.553-73.705c1.838-3.183,1.838-6.983,0-10.167
			C102.256,1.9,98.965,0,95.29,0"/>
	</g>
	<g>
		<g>
			<path style="fill:#F0AE00;" d="M61.742,34.193c0,0,3.403,3.108,7.184,3.108c1.513,0,3.15-0.589,3.15-2.395
				c0-3.36-13.652-3.655-13.652-12.687c0-4.705,3.36-8.065,8.023-8.947V9.324h4.579v3.823c5.124,0.588,7.687,3.276,7.687,3.276
				l-3.108,6.007c0,0-3.024-2.646-6.637-2.646c-1.513,0-3.192,0.672-3.192,2.353c0,3.57,13.652,3.318,13.652,12.603
				c0,4.452-3.025,8.317-8.401,9.157v3.823h-4.579v-3.823c-5.545-0.798-8.569-4.116-8.569-4.116L61.742,34.193z"/>
		</g>
		<g>
			<path style="fill:#FFFFFF;" d="M24.115,28.95h2.439c-0.088-0.652-0.131-1.307-0.044-2.09h-2.396v-4.18h3.136
				c2.003-6.402,7.926-10.889,15.111-10.889c2.613,0,5.096,0.611,5.096,0.611l-1.873,6.879c0,0-1.698-0.434-3.44-0.434
				c-3.005,0-5.4,1.393-6.706,3.832h9.406l-0.871,4.18h-9.537c-0.087,0.697-0.044,1.395,0.087,2.09h9.015l-0.871,4.182h-6.75
				c1.394,2.309,3.876,3.658,6.576,3.658c2.178,0,4.137-0.654,4.137-0.654l1.307,6.969c0,0-2.396,0.871-5.574,0.871
				c-7.49,0-13.021-4.398-15.024-10.844h-3.223V28.95z"/>
		</g>
	</g>
</g>
</svg>
