<?xml version="1.0" encoding="iso-8859-1"?>
<!-- Generator: Adobe Illustrator 22.1.0, SVG Export Plug-In . SVG Version: 6.00 Build 0)  -->
<svg version="1.1" id="Warstwa_1" xmlns="http://www.w3.org/2000/svg" xmlns:xlink="http://www.w3.org/1999/xlink" x="0px" y="0px"
	 viewBox="0 0 105.477 94.042" style="enable-background:new 0 0 105.477 94.042;" xml:space="preserve">
<g>
	<path style="fill:#5D2F88;" d="M52.736,92.494c-3.117,0-5.909-1.612-7.468-4.311L2.715,14.478
		c-1.559-2.699-1.559-5.923-0.001-8.622c1.559-2.699,4.351-4.311,7.468-4.311h85.107c3.117,0,5.909,1.612,7.468,4.311
		c1.558,2.699,1.558,5.923-0.001,8.622L60.204,88.183C58.645,90.882,55.854,92.494,52.736,92.494"/>
	<path style="fill:#382259;" d="M95.29,3.088c5.449,0,8.855,5.899,6.131,10.618L58.867,87.411c-1.362,2.359-3.746,3.539-6.131,3.539
		s-4.768-1.18-6.131-3.539L4.052,13.706C1.328,8.987,4.734,3.088,10.183,3.088H95.29 M95.29,0H10.183C6.507,0,3.216,1.9,1.378,5.083
		c-1.838,3.184-1.838,6.984,0,10.167l42.553,73.705c1.837,3.183,5.129,5.083,8.805,5.083c3.675,0,6.967-1.9,8.805-5.083
		l42.553-73.705c1.838-3.183,1.838-6.983,0-10.167C102.256,1.9,98.965,0,95.29,0"/>
</g>
<g>
	<path style="fill:#C90C0F;" d="M32.429,27.049c4.666,0,8.641,2.92,10.223,7.029c1.464-1.485,3.498-2.407,5.749-2.407
		c3.583,0,6.618,2.336,7.673,5.567c1.078-3.192,4.09-5.494,7.647-5.494c4.46,0,8.075,3.616,8.075,8.076
		c0,0.583-0.065,1.151-0.182,1.699h8.341L68.213,26.425c-0.188-0.292-0.401-0.565-0.637-0.818l-0.004-0.006l0,0.001
		c-0.976-1.048-2.333-1.733-3.852-1.836v-9.396h-7.244v9.375H46.305V12.2h1.537c1.104,0,2-0.896,2-2s-0.896-2-2-2H23.254
		c-1.104,0-2,0.896-2,2s0.896,2,2,2h1.537v11.547h0v6.411C26.766,28.236,29.457,27.049,32.429,27.049z M28.791,12.883h13.513v10.864
		H28.791V12.883z"/>
	<circle style="fill:#FFFFFF;" cx="32.429" cy="38.011" r="7.962"/>
	<path style="fill:#FFFFFF;" d="M53.476,39.746c0-2.799-2.277-5.076-5.075-5.076c-2.799,0-5.076,2.277-5.076,5.076
		s2.277,5.076,5.076,5.076C51.199,44.822,53.476,42.545,53.476,39.746z"/>
	<path style="fill:#FFFFFF;" d="M68.796,39.819c0-2.799-2.277-5.076-5.075-5.076c-2.799,0-5.076,2.277-5.076,5.076
		s2.277,5.076,5.076,5.076C66.519,44.895,68.796,42.618,68.796,39.819z"/>
</g>
</svg>
