<?xml version="1.0" encoding="iso-8859-1"?>
<!-- Generator: Adobe Illustrator 22.1.0, SVG Export Plug-In . SVG Version: 6.00 Build 0)  -->
<svg version="1.1" id="Warstwa_1" xmlns="http://www.w3.org/2000/svg" xmlns:xlink="http://www.w3.org/1999/xlink" x="0px" y="0px"
	 viewBox="0 0 105.477 94.042" style="enable-background:new 0 0 105.477 94.042;" xml:space="preserve">
<g>
	<path style="fill:#5D2F88;" d="M52.736,92.494c-3.117,0-5.909-1.612-7.468-4.311L2.715,14.478
		c-1.559-2.699-1.559-5.923-0.001-8.622c1.559-2.699,4.351-4.311,7.468-4.311h85.107c3.117,0,5.909,1.612,7.468,4.311
		c1.558,2.699,1.558,5.923-0.001,8.622L60.204,88.183C58.645,90.882,55.854,92.494,52.736,92.494"/>
	<path style="fill:#382259;" d="M95.29,3.088c5.449,0,8.855,5.899,6.131,10.618L58.867,87.411c-1.362,2.359-3.746,3.539-6.131,3.539
		s-4.768-1.18-6.131-3.539L4.052,13.706C1.328,8.987,4.734,3.088,10.183,3.088H95.29 M95.29,0H10.183C6.507,0,3.216,1.9,1.378,5.083
		c-1.838,3.184-1.838,6.984,0,10.167l42.553,73.705c1.837,3.183,5.129,5.083,8.805,5.083c3.675,0,6.967-1.9,8.805-5.083
		l42.553-73.705c1.838-3.183,1.838-6.983,0-10.167C102.256,1.9,98.965,0,95.29,0"/>
</g>
<g>
	<g>
		<path style="fill:#F0AE00;" d="M78.496,30.524h-2.223c-0.609-2.982-1.795-5.868-3.495-8.433l1.507-1.507
			c0.61-0.609,0.61-1.635,0-2.245l-4.553-4.553c-0.609-0.609-1.635-0.609-2.245,0l-1.507,1.507c-2.565-1.7-5.451-2.886-8.433-3.495
			V9.574c0-0.898-0.705-1.603-1.603-1.603H49.53c-0.898,0-1.603,0.705-1.603,1.603v2.223c-2.982,0.609-5.868,1.795-8.433,3.495
			l-1.507-1.507c-0.609-0.609-1.635-0.609-2.245,0l-4.553,4.553c-0.61,0.609-0.61,1.635,0,2.245l1.507,1.507
			c-1.7,2.565-2.886,5.451-3.495,8.433h-2.223c-0.898,0-1.603,0.705-1.603,1.603v6.413c0,0.898,0.705,1.603,1.603,1.603H29.2
			c0.609,2.982,1.795,5.868,3.495,8.433l-1.507,1.507c-0.61,0.609-0.61,1.635,0,2.245l4.553,4.553c0.609,0.61,1.635,0.61,2.245,0
			l1.507-1.507c2.565,1.699,5.451,2.886,8.433,3.495v2.223c0,0.898,0.705,1.603,1.603,1.603h6.413c0.898,0,1.603-0.706,1.603-1.603
			V58.87c2.982-0.609,5.868-1.796,8.433-3.495l1.507,1.507c0.609,0.61,1.635,0.61,2.245,0l4.553-4.553
			c0.61-0.609,0.61-1.635,0-2.245l-1.507-1.507c1.7-2.565,2.886-5.451,3.495-8.433h2.223c0.898,0,1.603-0.706,1.603-1.603v-6.413
			C80.099,31.229,79.394,30.524,78.496,30.524z"/>
	</g>
	<g>
		<circle style="fill:#FFFFFF;" cx="52.736" cy="35.334" r="18.425"/>
	</g>
	<g>
		<path style="fill:#5D2F88;" d="M53.444,40.528c-0.64,0-1.279-0.244-1.768-0.732L41.64,29.76c-0.977-0.977-0.977-2.559,0-3.535
			s2.559-0.977,3.535,0l8.269,8.269l6.716-6.716c0.977-0.977,2.559-0.977,3.535,0s0.977,2.559,0,3.535l-8.483,8.483
			C54.723,40.284,54.083,40.528,53.444,40.528z"/>
	</g>
</g>
</svg>
