<?xml version="1.0" encoding="iso-8859-1"?>
<!-- Generator: Adobe Illustrator 22.1.0, SVG Export Plug-In . SVG Version: 6.00 Build 0)  -->
<svg version="1.1" id="Warstwa_1" xmlns="http://www.w3.org/2000/svg" x="0px" y="0px"
	 viewBox="0 0 105.477 94.042" style="enable-background:new 0 0 105.477 94.042;" xml:space="preserve">
<g>
	<path style="fill:#5D2F88;" d="M52.736,92.494c-3.117,0-5.909-1.612-7.468-4.311L2.715,14.478
		c-1.559-2.699-1.559-5.923-0.001-8.622c1.559-2.699,4.351-4.311,7.468-4.311h85.107c3.117,0,5.909,1.612,7.468,4.311
		c1.558,2.699,1.558,5.923-0.001,8.622L60.204,88.183C58.645,90.882,55.854,92.494,52.736,92.494"/>
	<path style="fill:#382259;" d="M95.29,3.088c5.449,0,8.855,5.899,6.131,10.618L58.867,87.411c-1.362,2.359-3.746,3.539-6.131,3.539
		s-4.768-1.18-6.131-3.539L4.052,13.706C1.328,8.987,4.734,3.088,10.183,3.088H95.29 M95.29,0H10.183C6.507,0,3.216,1.9,1.378,5.083
		c-1.838,3.184-1.838,6.984,0,10.167l42.553,73.705c1.837,3.183,5.129,5.083,8.805,5.083c3.675,0,6.967-1.9,8.805-5.083
		l42.553-73.705c1.838-3.183,1.838-6.983,0-10.167C102.256,1.9,98.965,0,95.29,0"/>
</g>
<g>
	<path style="fill:none;" d="M49.046,40.652L49.046,40.652c0.125,0.08,0.244,0.153,0.365,0.229l0,0
		C49.29,40.806,49.171,40.732,49.046,40.652z"/>
	<path style="fill:none;" d="M68.713,23.947c0,0.202-0.016,0.399-0.024,0.599v0C68.697,24.347,68.713,24.15,68.713,23.947
		c0-8.823-7.153-15.976-15.976-15.976l0,0C61.56,7.971,68.713,15.124,68.713,23.947z"/>
	<path style="fill:none;" d="M43.227,36.204c0.991,0.922,2.013,1.759,3.005,2.503l0,0C45.241,37.963,44.218,37.125,43.227,36.204z"
		/>
	<path style="fill:none;" d="M65.257,33.362L65.257,33.362c1.053-1.373,1.945-2.889,2.559-4.545v0
		C67.202,30.473,66.31,31.989,65.257,33.362z"/>
	<path style="fill:none;" d="M60.09,38.397L60.09,38.397c1.343-1.02,2.707-2.215,3.945-3.576l0,0
		C62.797,36.183,61.433,37.378,60.09,38.397z"/>
	<path style="fill:none;" d="M56.309,40.917L56.309,40.917c0.148-0.087,0.3-0.178,0.454-0.27l0,0
		C56.609,40.739,56.457,40.83,56.309,40.917z"/>
	<path style="fill:#26B4E6;" d="M34.776,23.638c-3.397-1.755-4.351-5.24-4.395-6.567c-0.144-4.331-3.759-7.757-8.111-7.594
		c-2.098,0.068-4.043,0.95-5.478,2.483c-1.434,1.532-2.186,3.531-2.116,5.628c0.068,2.098,0.95,4.043,2.482,5.477
		c1.532,1.435,3.56,2.18,5.628,2.117c0.938-0.031,1.675-0.817,1.644-1.755c-0.031-0.938-0.837-1.641-1.755-1.644
		c-1.214,0.054-2.325-0.388-3.193-1.2c-0.868-0.813-1.368-1.917-1.407-3.106c-0.039-1.19,0.387-2.324,1.2-3.193
		s1.917-1.369,3.106-1.408c1.217-0.05,2.325,0.388,3.193,1.2c0.869,0.813,1.369,1.917,1.408,3.106
		c0.106,3.201,2.465,8.495,8.234,10.279c-0.29-1.128-0.456-2.299-0.456-3.514C34.76,23.843,34.774,23.742,34.776,23.638z"/>
	<path style="fill:#26B4E6;" d="M61.512,42.052c1.647,0,3.528-0.606,5.554-2.516c2.521-2.378,3.594-1.679,5.541-0.418
		c1.422,0.922,3.191,2.073,5.488,1.432c3.163-0.88,5.021-4.17,4.141-7.333c-0.881-3.163-4.17-5.022-7.332-4.14
		C74,29.33,73.47,30.266,73.722,31.171c0.252,0.905,1.194,1.437,2.094,1.182c1.351-0.376,2.767,0.419,3.145,1.776
		c0.378,1.356-0.42,2.768-1.776,3.146c-0.784,0.213-1.509-0.219-2.728-1.009c-2.095-1.358-5.262-3.408-9.723,0.796
		c-0.169,0.16-0.334,0.303-0.495,0.436c-1.723,1.66-3.564,3.033-5.231,4.116C59.762,41.867,60.601,42.052,61.512,42.052z"/>
	<path style="fill:#26B4E6;" d="M91.471,12.359c-1.787-3.134-5.791-4.226-8.925-2.44c-2.188,1.248-2.9,3.904-3.655,6.717
		c-1.196,4.451-2.127,7.145-6.106,7.07c-0.442-0.011-1.186,0.06-2.072,0.249c-0.001,1.269-0.153,2.48-0.425,3.635
		c1.319-0.425,2.386-0.485,2.409-0.485c0.107,0.003,0.212,0.004,0.316,0.004c6.585,0,8.071-5.533,9.161-9.591
		c0.541-2.016,1.101-4.1,2.058-4.646c1.501-0.856,3.427-0.334,4.286,1.173c0.858,1.505,0.333,3.429-1.173,4.287
		c-0.815,0.465-1.099,1.503-0.634,2.319c0.465,0.813,1.499,1.099,2.319,0.634C92.164,19.498,93.259,15.494,91.471,12.359z"/>
	<path style="fill:#26B4E6;" d="M37.298,32.239c-2.272-1.016-4.852-1.183-7.634,0.832c-0.467,0.339-0.966,0.336-1.303,0.271
		c-0.557-0.105-1.053-0.44-1.361-0.92c-0.287-0.446-0.384-0.977-0.271-1.495c0.112-0.518,0.42-0.961,0.865-1.247
		c0.789-0.508,1.018-1.56,0.51-2.35c-0.508-0.788-1.557-1.017-2.35-0.51c-1.209,0.778-2.043,1.98-2.348,3.387
		c-0.305,1.405-0.044,2.846,0.734,4.054c0.811,1.263,2.12,2.145,3.591,2.422c1.407,0.268,2.8-0.041,3.928-0.859
		c2.929-2.12,5.396-0.206,8.832,2.957c1.963,1.808,3.68,3.39,5.625,3.39c0.18,0,0.36-0.013,0.544-0.041
		c0.235-0.036,0.457-0.112,0.677-0.194C44.122,39.818,39.938,36.5,37.298,32.239z"/>
	<path style="fill:#26B4E6;" d="M56.309,40.917c0.148-0.087,0.3-0.178,0.454-0.27l0,0c1.026-0.618,2.166-1.368,3.328-2.25l0,0
		c1.343-1.02,2.707-2.214,3.945-3.575l0,0c0.425-0.467,0.833-0.954,1.222-1.46l0,0c1.053-1.373,1.945-2.889,2.559-4.545v0
		c0.496-1.334,0.806-2.759,0.872-4.271v0c0.009-0.199,0.024-0.396,0.024-0.599c0-8.823-7.153-15.976-15.976-15.976h0
		c-8.823,0-15.976,7.153-15.976,15.976c0,4.869,3.04,9.068,6.467,12.256c0.991,0.922,2.013,1.759,3.005,2.503l0,0
		c0.573,0.43,1.134,0.826,1.673,1.193c0.307,0.208,0.605,0.406,0.894,0.592c0.082,0.053,0.166,0.109,0.247,0.16l0,0
		c0.125,0.08,0.244,0.153,0.365,0.229l0,0c0.227,0.336,0.355,0.694,0.363,1.087c0.01,0.515-0.158,0.977-0.312,1.289
		c-0.106,0.213-0.206,0.358-0.237,0.392c-2.966,1.935-5.26,0.322-8.687-2.558c-2.23-1.873-4.348-3.625-6.843-3.414
		c-3.593,0.328-6.248,3.518-5.921,7.11c0.159,1.741,0.986,3.315,2.329,4.434c1.187,0.987,2.649,1.515,4.174,1.515
		c0.201,0,0.405-0.009,0.608-0.027c0.935-0.086,1.623-0.914,1.538-1.849c-0.086-0.935-0.916-1.609-1.849-1.538
		c-0.837,0.086-1.651-0.177-2.296-0.714c-0.645-0.537-1.042-1.293-1.118-2.129c-0.158-1.726,1.117-3.258,2.843-3.415
		c1.112-0.11,2.749,1.287,4.347,2.631c2.507,2.106,5.755,4.822,9.65,4.084c-2.194,1.74-4.78,1.876-4.825,1.876
		c-4.332,0-7.856,3.525-7.856,7.857s3.524,7.856,7.856,7.856s7.857-3.524,7.857-7.856c0-0.938-0.762-1.7-1.7-1.7s-1.7,0.762-1.7,1.7
		c0,2.457-1.999,4.456-4.457,4.456c-2.457,0-4.456-1.999-4.456-4.456c0-2.458,1.999-4.457,4.456-4.457
		c2.821,0,7.938-1.798,10.166-6.864c1.088,1.26,1.727,2.591,1.025,4.45c-2.491,6.604,1.247,12.033,4.189,13.904
		c2.074,1.318,2.688,4.078,1.37,6.152c-0.639,1.005-1.63,1.7-2.792,1.959c-1.161,0.259-2.355,0.05-3.36-0.59
		c-2.073-1.318-2.688-4.078-1.37-6.151c0.504-0.792,0.27-1.843-0.522-2.347c-0.795-0.505-1.844-0.27-2.347,0.522
		c-2.324,3.655-1.241,8.521,2.415,10.845c1.276,0.812,2.725,1.229,4.201,1.229c0.572,0,1.149-0.063,1.722-0.19
		c2.049-0.456,3.797-1.683,4.923-3.453c2.324-3.657,1.24-8.522-2.415-10.846c-1.369-0.87-4.828-4.546-2.832-9.836
		c0.75-1.988,0.609-3.677,0.092-5.074c2.055,0.809,4.396,0.949,6.384,1.063c2.083,0.12,4.238,0.243,4.967,1.068
		c0.556,0.63,0.833,1.438,0.781,2.275s-0.427,1.605-1.056,2.161c-1.3,1.149-3.29,1.022-4.436-0.275
		c-0.621-0.702-1.695-0.77-2.4-0.148c-0.703,0.622-0.77,1.696-0.148,2.4c1.292,1.461,3.096,2.207,4.908,2.207
		c1.539,0,3.085-0.538,4.326-1.635c1.311-1.157,2.092-2.755,2.199-4.499c0.108-1.744-0.47-3.427-1.626-4.736
		c-1.667-1.889-4.414-2.046-7.321-2.213c-3.188-0.182-5.507-0.446-6.874-1.797C56.896,42.194,56.548,41.634,56.309,40.917
		L56.309,40.917z M61.569,25.008c1.791,0,3.242,1.452,3.242,3.242c0,1.791-1.451,3.242-3.242,3.242c-1.79,0-3.241-1.451-3.241-3.242
		C58.327,26.461,59.779,25.008,61.569,25.008z M43.903,31.493c-1.79,0-3.241-1.451-3.241-3.242c0-1.79,1.452-3.242,3.241-3.242
		c1.791,0,3.242,1.452,3.242,3.242C47.145,30.041,45.694,31.493,43.903,31.493z"/>
</g>
<g>
	<g>
		<g>
			<path style="fill:#FFFFFF;" d="M56.346,10.874c1.61,0.418,2.633,1.84,2.286,3.176c-0.347,1.335-1.933,2.079-3.542,1.661
				c-1.609-0.418-2.633-1.84-2.286-3.175C53.151,11.2,54.738,10.456,56.346,10.874"/>
		</g>
	</g>
	<g>
		<g>
			<path style="fill:#FFFFFF;" d="M64.585,17.082c1.507,1.205,1.918,3.195,0.918,4.446c-0.999,1.25-3.031,1.287-4.538,0.082
				c-1.506-1.204-1.918-3.195-0.919-4.445C61.046,15.914,63.079,15.878,64.585,17.082"/>
		</g>
	</g>
	<g>
		<path style="fill:#FFFFFF;" d="M65.463,14.318c-1.354-1.786-3.062-3.286-5.037-4.373c-0.673,1.161-0.328,2.825,0.9,3.946
			C62.605,15.057,64.377,15.208,65.463,14.318z"/>
	</g>
</g>
</svg>
