<?xml version="1.0" encoding="iso-8859-1"?>
<!-- Generator: Adobe Illustrator 22.1.0, SVG Export Plug-In . SVG Version: 6.00 Build 0)  -->
<svg version="1.1" id="Warstwa_1" xmlns="http://www.w3.org/2000/svg" xmlns:xlink="http://www.w3.org/1999/xlink" x="0px" y="0px"
	 viewBox="0 0 105.477 94.042" style="enable-background:new 0 0 105.477 94.042;" xml:space="preserve">
<g>
	<path style="fill:#5D2F88;" d="M52.736,92.494c-3.117,0-5.909-1.612-7.468-4.311L2.715,14.478
		c-1.559-2.699-1.559-5.923-0.001-8.622c1.559-2.699,4.351-4.311,7.468-4.311h85.107c3.117,0,5.909,1.612,7.468,4.311
		c1.558,2.699,1.558,5.923-0.001,8.622L60.204,88.183C58.645,90.882,55.854,92.494,52.736,92.494"/>
	<path style="fill:#382259;" d="M95.29,3.088c5.449,0,8.855,5.899,6.131,10.618L58.867,87.411c-1.362,2.359-3.746,3.539-6.131,3.539
		s-4.768-1.18-6.131-3.539L4.052,13.706C1.328,8.987,4.734,3.088,10.183,3.088H95.29 M95.29,0H10.183C6.507,0,3.216,1.9,1.378,5.083
		c-1.838,3.184-1.838,6.984,0,10.167l42.553,73.705c1.837,3.183,5.129,5.083,8.805,5.083c3.675,0,6.967-1.9,8.805-5.083
		l42.553-73.705c1.838-3.183,1.838-6.983,0-10.167C102.256,1.9,98.965,0,95.29,0"/>
</g>
<g>
	<polygon style="fill:#26B4E6;" points="77.687,28.26 71.144,16.926 59.28,23.776 59.28,10.076 46.193,10.076 46.193,23.776 
		34.329,16.926 27.785,28.26 39.649,35.109 27.785,41.959 34.329,53.293 46.193,46.443 46.193,60.143 59.28,60.143 59.28,46.443 
		71.144,53.293 77.687,41.959 65.823,35.109 	"/>
	<path style="fill:#FFFFFF;" d="M61.28,62.143H44.193V49.907l-10.597,6.118l-8.543-14.798L35.65,35.11l-10.597-6.117l8.543-14.799
		l10.597,6.118V8.077H61.28v12.235l10.597-6.118l8.544,14.799L69.824,35.11l10.597,6.117l-8.544,14.798L61.28,49.907V62.143z
		 M48.193,58.143h9.087V42.979l13.132,7.581l4.544-7.868L61.824,35.11l13.132-7.582l-4.544-7.869L57.28,27.24V12.077h-9.087V27.24
		l-13.132-7.581l-4.543,7.869L43.65,35.11l-13.132,7.582l4.543,7.868l13.132-7.581V58.143z"/>
</g>
</svg>
