<?xml version="1.0" encoding="iso-8859-1"?>
<!-- Generator: Adobe Illustrator 22.1.0, SVG Export Plug-In . SVG Version: 6.00 Build 0)  -->
<svg version="1.1" id="Warstwa_1" xmlns="http://www.w3.org/2000/svg" xmlns:xlink="http://www.w3.org/1999/xlink" x="0px" y="0px"
	 viewBox="0 0 105.477 94.042" style="enable-background:new 0 0 105.477 94.042;" xml:space="preserve">
<g>
	<path style="fill:#5D2F88;" d="M52.736,92.494c-3.117,0-5.909-1.612-7.468-4.311L2.715,14.478
		c-1.559-2.699-1.559-5.923-0.001-8.622c1.559-2.699,4.351-4.311,7.468-4.311h85.107c3.117,0,5.909,1.612,7.468,4.311
		c1.558,2.699,1.558,5.923-0.001,8.622L60.204,88.183C58.645,90.882,55.854,92.494,52.736,92.494"/>
	<path style="fill:#382259;" d="M95.29,3.088c5.449,0,8.855,5.899,6.131,10.618L58.867,87.411c-1.362,2.359-3.746,3.539-6.131,3.539
		s-4.768-1.18-6.131-3.539L4.052,13.706C1.328,8.987,4.734,3.088,10.183,3.088H95.29 M95.29,0H10.183C6.507,0,3.216,1.9,1.378,5.083
		c-1.838,3.184-1.838,6.984,0,10.167l42.553,73.705c1.837,3.183,5.129,5.083,8.805,5.083c3.675,0,6.967-1.9,8.805-5.083
		l42.553-73.705c1.838-3.183,1.838-6.983,0-10.167C102.256,1.9,98.965,0,95.29,0"/>
</g>
<g>
	<path style="fill:#AFCA0B;" d="M54.276,11.101l-3.166-3.13l-3.13,3.166c-3.458,3.496-3.426,9.135,0.071,12.592l1.613,1.595v4.53
		c-1.618-2.33-4.317-3.85-7.367-3.833l-4.452,0.025l0.025,4.452c0.028,4.917,4.037,8.882,8.954,8.854l2.84-0.016v4.887
		c-1.626-2.267-4.283-3.743-7.285-3.726l-4.452,0.025l0.025,4.452c0.028,4.917,4.037,8.882,8.954,8.854l2.758-0.016v4.779
		c-1.632-2.205-4.25-3.635-7.204-3.618l-4.452,0.025l0.025,4.452c0.028,4.917,4.037,8.882,8.954,8.854l2.677-0.015v13.293
		c0,0.828,0.672,1.5,1.5,1.5s1.5-0.672,1.5-1.5V25.396l1.683-1.702C57.804,20.197,57.773,14.559,54.276,11.101z"/>
	<path style="fill:#AFCA0B;" d="M68.215,30.348l-0.025-4.452l-4.452,0.025c-4.917,0.028-8.882,4.037-8.854,8.954l0.025,4.452
		l4.452-0.025C64.278,39.274,68.242,35.265,68.215,30.348z"/>
	<path style="fill:#AFCA0B;" d="M68.296,44.825l-0.025-4.452l-4.452,0.025c-4.917,0.028-8.882,4.037-8.854,8.954l0.025,4.452
		l4.452-0.025C64.359,53.751,68.324,49.742,68.296,44.825z"/>
	<path style="fill:#AFCA0B;" d="M68.353,54.849l-4.452,0.025c-4.917,0.028-8.882,4.037-8.854,8.954l0.025,4.452l4.452-0.025
		c4.917-0.028,8.882-4.037,8.854-8.954L68.353,54.849z"/>
</g>
</svg>
