<?xml version="1.0" encoding="iso-8859-1"?>
<!-- Generator: Adobe Illustrator 22.1.0, SVG Export Plug-In . SVG Version: 6.00 Build 0)  -->
<svg version="1.1" id="Warstwa_1" xmlns="http://www.w3.org/2000/svg" xmlns:xlink="http://www.w3.org/1999/xlink" x="0px" y="0px"
	 viewBox="0 0 105.477 94.042" style="enable-background:new 0 0 105.477 94.042;" xml:space="preserve">
<g>
	<path style="fill:#5D2F88;" d="M52.736,92.494c-3.117,0-5.909-1.612-7.468-4.311L2.715,14.478
		c-1.559-2.699-1.559-5.923-0.001-8.622c1.559-2.699,4.351-4.311,7.468-4.311h85.107c3.117,0,5.909,1.612,7.468,4.311
		c1.558,2.699,1.558,5.923-0.001,8.622L60.204,88.183C58.645,90.882,55.854,92.494,52.736,92.494"/>
	<path style="fill:#382259;" d="M95.29,3.088c5.449,0,8.855,5.899,6.131,10.618L58.867,87.411c-1.362,2.359-3.746,3.539-6.131,3.539
		s-4.768-1.18-6.131-3.539L4.052,13.706C1.328,8.987,4.734,3.088,10.183,3.088H95.29 M95.29,0H10.183C6.507,0,3.216,1.9,1.378,5.083
		c-1.838,3.184-1.838,6.984,0,10.167l42.553,73.705c1.837,3.183,5.129,5.083,8.805,5.083c3.675,0,6.967-1.9,8.805-5.083
		l42.553-73.705c1.838-3.183,1.838-6.983,0-10.167C102.256,1.9,98.965,0,95.29,0"/>
</g>
<path style="fill:#26B4E6;" d="M72.094,36.994l-6.968,8.893l3.141,0.61c-0.35,3.222-2.646,6.473-4.562,7.579
	c-1.313,0.758-5.1,1.49-6.95,0.449l-1.538-27.873h7.098v-4.525h-5.831c1.897-1.231,3.155-3.368,3.155-5.793
	c0-3.805-3.096-6.901-6.901-6.901c-3.805,0-6.901,3.096-6.901,6.901c0,2.425,1.258,4.562,3.155,5.793h-5.831v4.525h7.098
	l-1.538,27.873c-1.85,1.041-5.637,0.309-6.95-0.449c-1.915-1.106-4.212-4.357-4.562-7.579l3.141-0.61l-6.968-8.893l-3.392,10.907
	l3.065-0.596c0.222,1.632,0.694,3.221,1.411,4.744c0.999,2.123,2.46,3.995,4.25,5.666c4.667,4.358,14.025,8.201,14.025,8.201
	s9.959-4.777,14.024-8.201c1.873-1.577,3.251-3.543,4.25-5.666c0.717-1.523,1.189-3.112,1.411-4.744l3.065,0.596L72.094,36.994z
	 M52.736,13.215c1.72,0,3.119,1.399,3.119,3.119c0,1.72-1.399,3.119-3.119,3.119c-1.72,0-3.119-1.399-3.119-3.119
	C49.617,14.614,51.016,13.215,52.736,13.215z"/>
</svg>
