<?xml version="1.0" encoding="iso-8859-1"?>
<!-- Generator: Adobe Illustrator 22.1.0, SVG Export Plug-In . SVG Version: 6.00 Build 0)  -->
<svg version="1.1" id="Warstwa_1" xmlns="http://www.w3.org/2000/svg" x="0px" y="0px"
	 viewBox="0 0 105.477 94.042" style="enable-background:new 0 0 105.477 94.042;" xml:space="preserve">
<g>
	<path style="fill:#5D2F88;" d="M52.736,92.494c-3.117,0-5.909-1.612-7.468-4.311L2.715,14.478
		c-1.559-2.699-1.559-5.923-0.001-8.622c1.559-2.699,4.351-4.311,7.468-4.311h85.107c3.117,0,5.909,1.612,7.468,4.311
		c1.558,2.699,1.558,5.923-0.001,8.622L60.204,88.183C58.645,90.882,55.853,92.494,52.736,92.494"/>
	<path style="fill:#382259;" d="M95.289,3.088c5.449,0,8.855,5.899,6.131,10.618L58.867,87.411
		c-1.362,2.359-3.746,3.539-6.131,3.539s-4.768-1.18-6.131-3.539L4.052,13.706C1.328,8.987,4.733,3.088,10.183,3.088H95.289
		 M95.289,0H10.183C6.507,0,3.216,1.9,1.378,5.083c-1.838,3.184-1.838,6.984,0,10.167l42.553,73.705
		c1.837,3.183,5.129,5.083,8.805,5.083c3.675,0,6.967-1.9,8.805-5.083l42.553-73.705c1.838-3.183,1.838-6.983,0-10.167
		C102.256,1.9,98.965,0,95.289,0"/>
</g>
<g>
	<path style="fill:#FFFFFF;" d="M41.389,54.585c-1.968-1.135-3.886-2.833-4.79-6.045c-2.194,0.485-3.953,2.208-4.296,4.484
		c-0.439,2.916,9.026,4.234,11.024,2.516c-0.595-0.243-1.184-0.512-1.751-0.846L41.389,54.585z"/>
	<path style="fill:#FFFFFF;" d="M69.964,49.505c-2.133-0.928-4.854-1.22-7.667-0.819c-1.671,0.225-3.029-0.891-3.293-2.744
		c-0.077-0.547,0.303-1.053,0.85-1.131c0.549-0.086,1.053,0.302,1.131,0.85c0.051,0.353,0.273,1.155,1.031,1.045
		c3.172-0.452,6.278-0.108,8.747,0.966c0.941,0.409,1.747,0.911,2.416,1.484c4.645-5.508,7.846-15.433,7.846-21.547
		c0-5.093-1.565-9.82-4.236-13.731c-2.702,2.91-3.139,7.88-1.993,10.396c-2.576-1-5.491-2.502-8.138-2.503
		c-0.809,0-1.592,0.14-2.333,0.478c1.291,5.056,4.839,9.501,8.073,10.939c0.24,0.107-1.302,0.851-3.431,0.851
		c-2.979,0-7.105-1.456-9.105-8.153C58.927,22.756,57.282,9.331,45.832,8.01c-0.374-0.043-0.744-0.064-1.108-0.064
		c-2.657,0-5.005,1.128-6.499,3.063c-0.542,0.702-1.342,1.155-2.228,1.155h-0.132c-1.5,0-2.611,1.404-2.262,2.862
		c0.5,2.092,1.545,3.969,2.965,5.491c1.765-0.443,2.838-1.475,2.911-1.546c0.583-0.582,1.532-0.586,2.117-0.006
		c0.586,0.58,0.597,1.521,0.021,2.11c-0.075,0.077-0.905,0.908-2.324,1.62c0.674,0.4,1.376,0.756,2.125,1.023c0,0,0,0,0,0
		c3.053,1.208,1.413,2.697,0.501,5.196c-7.218,19.783-1.214,22.48,0.876,23.71c2.313,1.361,5.096,1.766,7.938,1.876
		c-0.707-1.204-1.249-2.756-1.339-4.73c-0.025-0.552,0.401-1.02,0.953-1.045c0.546-0.021,1.02,0.401,1.045,0.953
		c0.229,5.009,3.938,6.556,4.096,6.619c3.835,1.536,14.124,0.227,17.202-2.188c0.268-0.21,0.709-0.616,0.658-0.974
		C73.135,51.651,71.934,50.362,69.964,49.505z"/>
	<path style="fill:#26B4E6;" d="M44.817,10.974c-1.655,0-2.997,1.343-2.997,2.997c0,1.655,1.342,2.997,2.997,2.997
		c1.655,0,2.996-1.342,2.996-2.997C47.814,12.317,46.472,10.974,44.817,10.974z"/>
</g>
</svg>
