<?xml version="1.0" encoding="iso-8859-1"?>
<!-- Generator: Adobe Illustrator 22.1.0, SVG Export Plug-In . SVG Version: 6.00 Build 0)  -->
<svg version="1.1" id="Warstwa_1" xmlns="http://www.w3.org/2000/svg" xmlns:xlink="http://www.w3.org/1999/xlink" x="0px" y="0px"
	 viewBox="0 0 105.477 94.042" style="enable-background:new 0 0 105.477 94.042;" xml:space="preserve">
<g>
	<path style="fill:#5D2F88;" d="M52.736,92.494c-3.117,0-5.909-1.612-7.468-4.311L2.715,14.478
		c-1.559-2.699-1.559-5.923-0.001-8.622c1.559-2.699,4.351-4.311,7.468-4.311h85.107c3.117,0,5.909,1.612,7.468,4.311
		c1.558,2.699,1.558,5.923-0.001,8.622L60.204,88.183C58.645,90.882,55.854,92.494,52.736,92.494"/>
	<path style="fill:#382259;" d="M95.29,3.088c5.449,0,8.855,5.899,6.131,10.618L58.867,87.411c-1.362,2.359-3.746,3.539-6.131,3.539
		s-4.768-1.18-6.131-3.539L4.052,13.706C1.328,8.987,4.734,3.088,10.183,3.088H95.29 M95.29,0H10.183C6.507,0,3.216,1.9,1.378,5.083
		c-1.838,3.184-1.838,6.984,0,10.167l42.553,73.705c1.837,3.183,5.129,5.083,8.805,5.083c3.675,0,6.967-1.9,8.805-5.083
		l42.553-73.705c1.838-3.183,1.838-6.983,0-10.167C102.256,1.9,98.965,0,95.29,0"/>
</g>
<g>
	<polygon style="fill:#FFFFFF;" points="61.917,13.989 39.464,13.989 34.063,8.971 67.318,8.971 	"/>
	<polygon style="fill:#FFFFFF;" points="39.464,50.731 61.917,50.731 67.318,55.749 34.063,55.749 	"/>
	<path style="fill:#C90C0F;" d="M73.385,37.171c0.308-0.019,1.096-0.114,1.185-0.135c5.496-0.917,9.69-5.681,9.69-11.438
		c0-6.412-5.198-11.609-11.609-11.609s-17.587,0-25.837,0v0h-7.372c-1.449,0-2.625,1.175-2.625,2.624
		c0,1.449,1.175,2.624,2.625,2.624c-1.449,0-2.625,1.175-2.625,2.624s1.175,2.624,2.625,2.624c-1.449,0-2.625,1.175-2.625,2.624
		s1.175,2.624,2.625,2.624c-1.449,0-2.625,1.175-2.625,2.624c0,1.449,1.175,2.624,2.625,2.624c-1.449,0-2.625,1.175-2.625,2.624
		c0,1.449,1.175,2.624,2.625,2.624c-1.449,0-2.625,1.175-2.625,2.624c0,1.449,1.175,2.624,2.625,2.624
		c-1.449,0-2.625,1.175-2.625,2.624c0,1.449,1.175,2.624,2.625,2.624h21.893c1.449,0,2.624-1.175,2.624-2.624
		c0-1.449-1.175-2.624-2.624-2.624c1.449,0,2.624-1.175,2.624-2.624c0-1.449-1.175-2.624-2.624-2.624
		c1.449,0,2.624-1.175,2.624-2.624c0-1.449-1.175-2.624-2.624-2.624c1.449,0,2.624-1.175,2.624-2.624
		c0-1.449-1.175-2.624-2.624-2.624c1.449,0,2.624-1.175,2.624-2.624s-1.175-2.624-2.624-2.624c1.449,0,2.624-1.175,2.624-2.624
		s-1.175-2.624-2.624-2.624c0.217,0,0.424-0.034,0.626-0.083l10.69-0.062c3.588,0,6.506,2.919,6.506,6.506
		c0,3.25-2.397,5.945-5.515,6.425c-4.293,0.183-7.732,3.723-7.732,8.061c0,4.454,3.624,8.078,8.079,8.078
		c1.409,0,2.552-1.142,2.552-2.551s-1.142-2.552-2.552-2.552c-1.64,0-2.976-1.335-2.976-2.975
		C71.012,38.651,72.033,37.45,73.385,37.171z"/>
</g>
</svg>
