<?xml version="1.0" encoding="iso-8859-1"?>
<!-- Generator: Adobe Illustrator 22.1.0, SVG Export Plug-In . SVG Version: 6.00 Build 0)  -->
<svg version="1.1" id="Warstwa_1" xmlns="http://www.w3.org/2000/svg" xmlns:xlink="http://www.w3.org/1999/xlink" x="0px" y="0px"
	 viewBox="0 0 105.477 94.042" style="enable-background:new 0 0 105.477 94.042;" xml:space="preserve">
<g>
	<path style="fill:#5D2F88;" d="M52.736,92.494c-3.117,0-5.909-1.612-7.468-4.311L2.715,14.478
		c-1.559-2.699-1.559-5.923-0.001-8.622c1.559-2.699,4.351-4.311,7.468-4.311h85.107c3.117,0,5.909,1.612,7.468,4.311
		c1.558,2.699,1.558,5.923-0.001,8.622L60.204,88.183C58.645,90.882,55.853,92.494,52.736,92.494"/>
	<path style="fill:#382259;" d="M95.289,3.088c5.449,0,8.855,5.899,6.131,10.618L58.867,87.411
		c-1.362,2.359-3.746,3.539-6.131,3.539s-4.768-1.18-6.131-3.539L4.052,13.706C1.328,8.987,4.733,3.088,10.183,3.088H95.289
		 M95.289,0H10.183C6.507,0,3.216,1.9,1.378,5.083c-1.838,3.184-1.838,6.984,0,10.167l42.553,73.705
		c1.837,3.183,5.129,5.083,8.805,5.083c3.675,0,6.967-1.9,8.805-5.083l42.553-73.705c1.838-3.183,1.838-6.983,0-10.167
		C102.256,1.9,98.965,0,95.289,0"/>
</g>
<g>
	<path style="fill:#FFFFFF;" d="M88.203,28.559c0,0-15.706,19.294-35.079,19.294S18.044,28.559,18.044,28.559
		S33.75,9.265,53.123,9.265S88.203,28.559,88.203,28.559z"/>
	<g>
		<circle style="fill:#26B4E6;" cx="53.534" cy="28.559" r="15.519"/>
		<circle style="fill:#382259;" cx="53.534" cy="28.559" r="8.968"/>
		<g>
			<path style="fill:#FFFFFF;" d="M51.64,25.552c0,2.806-2.274,5.08-5.08,5.08c-2.804,0-5.078-2.274-5.078-5.08
				c0-2.804,2.274-5.08,5.078-5.08C49.366,20.472,51.64,22.748,51.64,25.552"/>
		</g>
	</g>
	<path style="fill:#F0AE00;" d="M88.203,28.559c0,0-15.135-12.201-34.509-12.201s-35.65,12.201-35.65,12.201
		S33.75,7.392,53.123,7.392S88.203,28.559,88.203,28.559z"/>
	<path style="fill:#382259;" d="M88.203,28.559c0,0-15.135-11.205-34.509-11.205s-35.65,11.205-35.65,11.205
		s-4.764-3.007-1.815-8.968c3.485,5.045,7.718-4.478,32.842-6.551C68.379,11.447,88.203,28.559,88.203,28.559z"/>
</g>
</svg>
