<?xml version="1.0" encoding="iso-8859-1"?>
<!-- Generator: Adobe Illustrator 22.1.0, SVG Export Plug-In . SVG Version: 6.00 Build 0)  -->
<svg version="1.1" id="Warstwa_1" xmlns="http://www.w3.org/2000/svg" xmlns:xlink="http://www.w3.org/1999/xlink" x="0px" y="0px"
	 viewBox="0 0 105.477 94.042" style="enable-background:new 0 0 105.477 94.042;" xml:space="preserve">
<g>
	<path style="fill:#5D2F88;" d="M102.841,5.855c1.558,2.699,1.559,5.923,0,8.623L60.287,88.183c-1.558,2.7-4.35,4.311-7.467,4.312
		c-3.117,0-5.909-1.612-7.468-4.312L2.799,14.478c-1.559-2.7-1.559-5.924,0-8.623c1.559-2.699,4.35-4.311,7.468-4.311l85.107,0
		C98.491,1.544,101.282,3.155,102.841,5.855"/>
	<path style="fill:#382259;" d="M4.136,13.706C1.411,8.987,4.817,3.088,10.266,3.088l85.107,0c2.724,0,4.938,1.475,6.13,3.54
		s1.362,4.719,0,7.079L58.95,87.411c-2.724,4.719-9.536,4.719-12.261,0L4.136,13.706 M1.462,15.25l42.553,73.704
		c1.838,3.183,5.129,5.083,8.804,5.084c3.676,0,6.967-1.9,8.805-5.083l42.554-73.705c1.838-3.183,1.838-6.983,0-10.167
		C102.34,1.9,99.049,0,95.373,0L10.266,0C6.591,0,3.299,1.9,1.461,5.084C-0.376,8.266-0.376,12.067,1.462,15.25"/>
</g>
<path style="fill:#FFFFFF;" d="M55.8,71.879l2.7,0.345c0.882,0.113,1.251,1.187,0.626,1.818l-1.916,1.933
	c-0.248,0.251-0.358,0.607-0.292,0.954l0.506,2.675c0.165,0.873-0.742,1.557-1.536,1.157l-2.431-1.225
	c-0.315-0.159-0.688-0.152-0.998,0.017l-2.387,1.308c-0.779,0.427-1.71-0.225-1.575-1.103l0.414-2.69
	c0.054-0.349-0.068-0.702-0.325-0.944l-1.982-1.866c-0.647-0.609-0.315-1.696,0.563-1.839l2.687-0.438
	c0.348-0.057,0.646-0.281,0.797-0.6l1.162-2.461c0.379-0.804,1.516-0.823,1.923-0.033l1.247,2.42
	C55.144,71.62,55.45,71.834,55.8,71.879z"/>
<path style="fill:#FFFFFF;" d="M45.136,12.898l-0.754,1.821c-0.246,0.595,0.296,1.213,0.918,1.047l1.904-0.509
	c0.247-0.066,0.51-0.006,0.705,0.16l1.499,1.28c0.489,0.418,1.245,0.093,1.279-0.549l0.104-1.968
	c0.013-0.255,0.152-0.487,0.37-0.621l1.681-1.03c0.549-0.336,0.473-1.156-0.127-1.387l-1.84-0.707
	c-0.239-0.092-0.417-0.295-0.476-0.543l-0.46-1.917c-0.15-0.626-0.953-0.807-1.358-0.308l-1.241,1.531
	c-0.161,0.199-0.409,0.305-0.664,0.285l-1.965-0.154c-0.642-0.05-1.062,0.657-0.712,1.197l1.073,1.654
	C45.209,12.393,45.233,12.662,45.136,12.898z"/>
<path style="fill:#FFFFFF;" d="M20.578,13.949l1.07-1.908c0.349-0.623-0.167-1.376-0.874-1.275l-2.166,0.311
	c-0.281,0.04-0.563-0.06-0.756-0.268l-1.484-1.608c-0.484-0.525-1.36-0.266-1.482,0.437l-0.373,2.156
	c-0.048,0.279-0.231,0.517-0.489,0.636l-1.987,0.915c-0.649,0.299-0.674,1.212-0.042,1.545l1.935,1.021
	c0.251,0.132,0.42,0.38,0.454,0.661l0.256,2.173c0.083,0.709,0.944,1.015,1.456,0.517l1.569-1.525
	c0.203-0.198,0.491-0.283,0.769-0.227l2.145,0.428c0.7,0.14,1.257-0.584,0.942-1.225l-0.965-1.963
	C20.431,14.496,20.439,14.196,20.578,13.949z"/>
<g>
	<path style="fill:#F0AE00;" d="M58.805,58.933c4.712-3.156-0.229-9.45,5.775-16.401c4.487-5.194,6.201-10.973,6.781-13.563
		l-3.081-6.11c-2.135-0.726-8.396-2.482-15.687-1.088c-9.022,1.725-12.003-5.701-17.092-3.199c-5.089,2.502-6.533,3.772-6.533,3.772
		l23.303,40.362C52.272,62.706,54.094,62.089,58.805,58.933z"/>
	<g>
		<path style="fill:#C90C0F;" d="M42.679,46.091c-0.854-1.478-3.265-5.654-4.118-7.133c-1.384-2.398-5.771-2.457-9.798-0.132
			l9.131,15.816C41.921,52.317,44.063,48.488,42.679,46.091z"/>
		<path style="fill:#FFFFFF;" d="M90.677,15.746c0.384-1.347-0.398-2.75-1.746-3.13l-0.906-0.256
			c-5.646-1.416-11.621-0.58-16.661,2.33L37.891,34.015c-1.781,1.028-2.392,3.306-1.363,5.087l5.01,8.677
			c1.028,1.781,3.306,2.392,5.087,1.363l33.473-19.326c5.041-2.91,8.752-7.667,10.349-13.264L90.677,15.746z"/>
		<path style="fill:#F0AE00;" d="M55.549,33.927c-0.138-0.248-4.903-0.766-6.69,0.266l-13.009,7.511l3.096,5.363l12.935-7.468
			C53.715,38.539,55.687,34.175,55.549,33.927z"/>
		<path style="fill:#26B4E6;" d="M82.514,18.107c0.716,1.241-0.008,3.13-1.021,4.834c-0.154,0.26-0.154,0.583-0.003,0.844v0
			c0.293,0.508,1.003,0.569,1.376,0.116c1.462-1.777,4.353-5.72,3.145-7.813c-1.197-2.073-6.112-1.714-8.44-1.415
			c-0.595,0.076-0.918,0.735-0.618,1.254l0.068,0.118c0.146,0.254,0.414,0.415,0.707,0.42
			C79.754,16.499,81.798,16.868,82.514,18.107z"/>
	</g>
</g>
</svg>
