<?xml version="1.0" encoding="iso-8859-1"?>
<!-- Generator: Adobe Illustrator 22.1.0, SVG Export Plug-In . SVG Version: 6.00 Build 0)  -->
<svg version="1.1" id="Warstwa_1" xmlns="http://www.w3.org/2000/svg" xmlns:xlink="http://www.w3.org/1999/xlink" x="0px" y="0px"
	 viewBox="0 0 105.477 94.042" style="enable-background:new 0 0 105.477 94.042;" xml:space="preserve">
<g>
	<path style="fill:#5D2F88;" d="M52.736,92.494c-3.117,0-5.909-1.612-7.468-4.311L2.715,14.478
		c-1.559-2.699-1.559-5.923-0.001-8.622c1.559-2.699,4.351-4.311,7.468-4.311h85.107c3.117,0,5.909,1.612,7.468,4.311
		c1.558,2.699,1.558,5.923-0.001,8.622L60.204,88.183C58.645,90.882,55.854,92.494,52.736,92.494"/>
	<path style="fill:#382259;" d="M95.29,3.088c5.449,0,8.855,5.899,6.131,10.618L58.867,87.411c-1.362,2.359-3.746,3.539-6.131,3.539
		s-4.768-1.18-6.131-3.539L4.052,13.706C1.328,8.987,4.734,3.088,10.183,3.088H95.29 M95.29,0H10.183C6.507,0,3.216,1.9,1.378,5.083
		c-1.838,3.184-1.838,6.984,0,10.167l42.553,73.705c1.837,3.183,5.129,5.083,8.805,5.083c3.675,0,6.967-1.9,8.805-5.083
		l42.553-73.705c1.838-3.183,1.838-6.983,0-10.167C102.256,1.9,98.965,0,95.29,0"/>
</g>
<g>
	<g>
		<path style="fill:#FFFFFF;" d="M55.237,68.363V43.378c0-1.381-1.119-2.5-2.5-2.5s-2.5,1.119-2.5,2.5v24.984
			c-4.267,0.317-7.422,1.422-7.422,2.74c0,1.566,4.442,2.835,9.921,2.835s9.921-1.269,9.921-2.835
			C62.658,69.785,59.503,68.68,55.237,68.363z"/>
		<g>
			<path style="fill:#EF7D00;" d="M57.247,34.863c-0.884,0-1.6-0.716-1.6-1.6s0.716-1.6,1.6-1.6h4.71V28.3h-4.71
				c-0.884,0-1.6-0.716-1.6-1.6s0.716-1.6,1.6-1.6h4.71V24.31c0-2.422-1.982-4.404-4.404-4.404h-9.634
				c-2.422,0-4.404,1.982-4.404,4.404v0.791h4.711c0.884,0,1.6,0.716,1.6,1.6s-0.716,1.6-1.6,1.6h-4.711v3.363h4.711
				c0.884,0,1.6,0.716,1.6,1.6s-0.716,1.6-1.6,1.6h-4.711v3.364h4.711c0.884,0,1.6,0.716,1.6,1.6s-0.716,1.6-1.6,1.6h-4.711v1.139
				c0,2.422,1.982,4.404,4.404,4.404h1.723v2.193c0,0.813,0.665,1.478,1.478,1.478h3.233c0.813,0,1.478-0.665,1.478-1.478V46.97
				h1.723c2.422,0,4.404-1.982,4.404-4.404v-1.139h-4.71c-0.884,0-1.6-0.716-1.6-1.6s0.716-1.6,1.6-1.6h4.71v-3.364H57.247z"/>
		</g>
	</g>
	<path style="fill:#F0AE00;" d="M70.966,23.623C69.476,14.899,61.879,8.23,52.737,8.23c-9.108,0-16.682,6.616-18.215,15.29
		c-4.117,1.532-7.056,5.485-7.056,10.136c0,5.978,4.846,10.824,10.823,10.824c0-4.156,0-13.453,0-19.071
		c0.677-7.379,6.895-13.179,14.447-13.179c6.95,0,12.768,4.913,14.181,11.447c0,5.207,0,16.184,0,20.803
		c5.978,0,10.823-4.846,10.823-10.824C77.741,29.111,74.936,25.227,70.966,23.623z"/>
</g>
</svg>
