<?xml version="1.0" encoding="iso-8859-1"?>
<!-- Generator: Adobe Illustrator 22.1.0, SVG Export Plug-In . SVG Version: 6.00 Build 0)  -->
<svg version="1.1" id="Warstwa_1" xmlns="http://www.w3.org/2000/svg" xmlns:xlink="http://www.w3.org/1999/xlink" x="0px" y="0px"
	 viewBox="0 0 105.477 94.042" style="enable-background:new 0 0 105.477 94.042;" xml:space="preserve">
<g>
	<path style="fill:#5D2F88;" d="M52.736,92.494c-3.117,0-5.909-1.612-7.468-4.311L2.715,14.478
		c-1.559-2.699-1.559-5.923-0.001-8.622c1.559-2.699,4.351-4.311,7.468-4.311h85.107c3.117,0,5.909,1.612,7.468,4.311
		c1.558,2.699,1.558,5.923-0.001,8.622L60.204,88.183C58.645,90.882,55.854,92.494,52.736,92.494"/>
	<path style="fill:#382259;" d="M95.29,3.088c5.449,0,8.855,5.899,6.131,10.618L58.867,87.411c-1.362,2.359-3.746,3.539-6.131,3.539
		s-4.768-1.18-6.131-3.539L4.052,13.706C1.328,8.987,4.734,3.088,10.183,3.088H95.29 M95.29,0H10.183C6.507,0,3.216,1.9,1.378,5.083
		c-1.838,3.184-1.838,6.984,0,10.167l42.553,73.705c1.837,3.183,5.129,5.083,8.805,5.083c3.675,0,6.967-1.9,8.805-5.083
		l42.553-73.705c1.838-3.183,1.838-6.983,0-10.167C102.256,1.9,98.965,0,95.29,0"/>
</g>
<g>
	<polygon style="fill:#FFFFFF;" points="77.355,45.534 77.355,45.53 77.354,45.534 	"/>
	<path style="fill:#FFFFFF;" d="M28.118,34.997v-2.63l-0.027-0.014v13.181h0.027c0-0.001-0.001-0.003-0.001-0.005
		c7.161-1.798,15.591-2.838,24.619-2.838s17.459,1.04,24.619,2.838V34.997c-6.968-2.56-15.454-4.068-24.619-4.068
		S35.085,32.437,28.118,34.997z M44.84,40.899l-2.828-0.904l-2.348,1.817l-0.014-2.969l-2.453-1.672l2.819-0.931l0.832-2.85
		l1.756,2.394l2.968-0.09l-1.734,2.41L44.84,40.899z M62.869,35.784l1.756-2.394l0.832,2.85l2.819,0.931l-2.454,1.672l-0.014,2.969
		l-2.348-1.817l-2.828,0.904l1.002-2.795l-1.734-2.41L62.869,35.784z M56.988,35.336l-2.126,2.072l0.502,2.926l-2.628-1.381
		l-2.628,1.381l0.502-2.926l-2.126-2.072l2.938-0.427l1.314-2.662l1.314,2.662L56.988,35.336z"/>
	<path style="fill:#AFCA0B;" d="M52.736,8.18L18.872,27.716l9.218,4.638l0.027,0.014v2.63c6.967-2.56,15.453-4.068,24.619-4.068
		s17.651,1.508,24.619,4.068v-2.63l9.245-4.651L52.736,8.18z"/>
	<path style="fill:#382259;" d="M28.117,45.53c0,0.002,0.001,0.003,0.001,0.005c1.912,8.478,12.19,14.962,24.618,14.962
		c12.428,0,22.706-6.483,24.618-14.962c0-0.001,0.001-0.003,0.001-0.005c-7.161-1.798-15.591-2.838-24.619-2.838
		S35.277,43.732,28.117,45.53z"/>
	<polygon style="fill:#FFFFFF;" points="58.351,18.786 52.736,13.172 47.122,18.786 52.736,26.183 	"/>
</g>
</svg>
