<?xml version="1.0" encoding="iso-8859-1"?>
<!-- Generator: Adobe Illustrator 22.1.0, SVG Export Plug-In . SVG Version: 6.00 Build 0)  -->
<svg version="1.1" id="Warstwa_1" xmlns="http://www.w3.org/2000/svg" xmlns:xlink="http://www.w3.org/1999/xlink" x="0px" y="0px"
	 viewBox="0 0 105.477 94.042" style="enable-background:new 0 0 105.477 94.042;" xml:space="preserve">
<g>
	<path style="fill:#5D2F88;" d="M52.736,92.494c-3.117,0-5.909-1.612-7.468-4.311L2.715,14.478
		c-1.559-2.699-1.559-5.923-0.001-8.622c1.559-2.699,4.351-4.311,7.468-4.311h85.107c3.117,0,5.909,1.612,7.468,4.311
		c1.558,2.699,1.558,5.923-0.001,8.622L60.204,88.183C58.645,90.882,55.854,92.494,52.736,92.494"/>
	<path style="fill:#382259;" d="M95.29,3.088c5.449,0,8.855,5.899,6.131,10.618L58.867,87.411c-1.362,2.359-3.746,3.539-6.131,3.539
		s-4.768-1.18-6.131-3.539L4.052,13.706C1.328,8.987,4.734,3.088,10.183,3.088H95.29 M95.29,0H10.183C6.507,0,3.216,1.9,1.378,5.083
		c-1.838,3.184-1.838,6.984,0,10.167l42.553,73.705c1.837,3.183,5.129,5.083,8.805,5.083c3.675,0,6.967-1.9,8.805-5.083
		l42.553-73.705c1.838-3.183,1.838-6.983,0-10.167C102.256,1.9,98.965,0,95.29,0"/>
</g>
<g>
	<path style="fill:#FFFFFF;" d="M62.92,20.78c-1.284-7.293-7.636-12.838-15.297-12.838c-6.541,0-12.129,4.045-14.425,9.765
		c-0.772-0.169-1.571-0.264-2.394-0.264c-6.165,0-11.162,4.997-11.162,11.162c0,5.884,4.557,10.694,10.332,11.12l4.895,0.006
		c-1.093-1.162-1.834-2.549-1.992-3.988c-0.09-0.824,0.505-1.564,1.328-1.654c0.825-0.096,1.564,0.505,1.654,1.328
		c0.209,1.917,2.542,3.865,4.943,4.322l11.742,0.015c2.436-0.419,4.834-2.392,5.047-4.337c0.09-0.824,0.831-1.423,1.654-1.328
		c0.824,0.091,1.418,0.831,1.328,1.654c-0.159,1.452-0.914,2.85-2.023,4.019l4.049,0.005c5.248,0,9.501-4.254,9.501-9.501
		C72.104,25.125,68.019,20.949,62.92,20.78z"/>
	<rect x="30.855" y="43.007" style="fill:#FFFFFF;" width="30.126" height="7.384"/>
</g>
<path style="fill:#26B4E6;" d="M83.785,8.516c-4.58-1.067-9.164,1.781-10.233,6.352L62.63,61.318l-24.201-5.662
	c-1.874,8.01,3.101,16.023,11.111,17.897c6.86,1.605,13.708-1.822,16.715-7.867c0.379-0.332,12.166-49.677,12.166-49.677
	c0.442-1.889,2.342-3.069,4.227-2.624c1.889,0.441,3.066,2.338,2.624,4.228c-0.314,1.345,0.521,2.689,1.865,3.004
	c1.347,0.314,2.69-0.521,3.004-1.865C91.209,14.177,88.359,9.585,83.785,8.516z"/>
</svg>
