<?xml version="1.0" encoding="iso-8859-1"?>
<!-- Generator: Adobe Illustrator 22.1.0, SVG Export Plug-In . SVG Version: 6.00 Build 0)  -->
<svg version="1.1" id="Warstwa_1" xmlns="http://www.w3.org/2000/svg" xmlns:xlink="http://www.w3.org/1999/xlink" x="0px" y="0px"
	 viewBox="0 0 105.477 94.042" style="enable-background:new 0 0 105.477 94.042;" xml:space="preserve">
<g>
	<path style="fill:#5D2F88;" d="M52.736,92.494c-3.117,0-5.909-1.612-7.468-4.311L2.715,14.478
		c-1.559-2.699-1.559-5.923-0.001-8.622c1.559-2.699,4.351-4.311,7.468-4.311h85.107c3.117,0,5.909,1.612,7.468,4.311
		c1.558,2.699,1.558,5.923-0.001,8.622L60.204,88.183C58.645,90.882,55.854,92.494,52.736,92.494"/>
	<path style="fill:#382259;" d="M95.29,3.088c5.449,0,8.855,5.899,6.131,10.618L58.867,87.411c-1.362,2.359-3.746,3.539-6.131,3.539
		s-4.768-1.18-6.131-3.539L4.052,13.706C1.328,8.987,4.734,3.088,10.183,3.088H95.29 M95.29,0H10.183C6.507,0,3.216,1.9,1.378,5.083
		c-1.838,3.184-1.838,6.984,0,10.167l42.553,73.705c1.837,3.183,5.129,5.083,8.805,5.083c3.675,0,6.967-1.9,8.805-5.083
		l42.553-73.705c1.838-3.183,1.838-6.983,0-10.167C102.256,1.9,98.965,0,95.29,0"/>
</g>
<g>
	<path style="fill:#FFFFFF;" d="M52.736,7.971c-10.927,0-19.786,8.858-19.786,19.786c0,9.711,7.002,17.772,16.229,19.449v32.416
		h6.669V47.274c9.445-1.496,16.673-9.652,16.673-19.517C72.522,16.829,63.664,7.971,52.736,7.971z"/>
	<g>
		<path style="fill:#26B4E6;" d="M52.737,43.542c-8.705,0-15.786-7.081-15.786-15.786s7.081-15.786,15.786-15.786
			c8.704,0,15.785,7.081,15.785,15.786S61.44,43.542,52.737,43.542z"/>
	</g>
	<g>
		<circle style="fill:none;" cx="52.736" cy="27.757" r="15.786"/>
		<g>
			<circle style="fill:none;" cx="52.736" cy="27.757" r="15.786"/>
		</g>
	</g>
	<path style="fill:#FFFFFF;" d="M62.658,29.757c-1.104,0-2-0.896-2-2c0-4.367-3.554-7.921-7.921-7.921c-1.104,0-2-0.896-2-2
		s0.896-2,2-2c6.573,0,11.921,5.348,11.921,11.921C64.658,28.861,63.762,29.757,62.658,29.757z"/>
	<g>
		<path style="fill:#F0AE00;" d="M52.514,82.937L52.514,82.937c-3.02,0-5.468-2.448-5.468-5.468V57.27h10.936v20.199
			C57.982,80.489,55.534,82.937,52.514,82.937z"/>
	</g>
</g>
</svg>
