<?xml version="1.0" encoding="iso-8859-1"?>
<!-- Generator: Adobe Illustrator 22.1.0, SVG Export Plug-In . SVG Version: 6.00 Build 0)  -->
<svg version="1.1" id="Warstwa_1" xmlns="http://www.w3.org/2000/svg" xmlns:xlink="http://www.w3.org/1999/xlink" x="0px" y="0px"
	 viewBox="0 0 105.477 94.042" style="enable-background:new 0 0 105.477 94.042;" xml:space="preserve">
<g>
	<path style="fill:#5D2F88;" d="M52.736,92.494c-3.117,0-5.909-1.612-7.468-4.311L2.715,14.478
		c-1.559-2.699-1.559-5.923-0.001-8.622c1.559-2.699,4.351-4.311,7.468-4.311h85.107c3.117,0,5.909,1.612,7.468,4.311
		c1.558,2.699,1.558,5.923-0.001,8.622L60.204,88.183C58.645,90.882,55.854,92.494,52.736,92.494"/>
	<path style="fill:#382259;" d="M95.29,3.088c5.449,0,8.855,5.899,6.131,10.618L58.867,87.411c-1.362,2.359-3.746,3.539-6.131,3.539
		s-4.768-1.18-6.131-3.539L4.052,13.706C1.328,8.987,4.734,3.088,10.183,3.088H95.29 M95.29,0H10.183C6.507,0,3.216,1.9,1.378,5.083
		c-1.838,3.184-1.838,6.984,0,10.167l42.553,73.705c1.837,3.183,5.129,5.083,8.805,5.083c3.675,0,6.967-1.9,8.805-5.083
		l42.553-73.705c1.838-3.183,1.838-6.983,0-10.167C102.256,1.9,98.965,0,95.29,0"/>
</g>
<g>
	<path style="fill:#FFFFFF;" d="M71.283,48.277L57.095,23.703V12.52h0.721c1.243,0,2.25-1.007,2.25-2.25
		c0-1.243-1.007-2.25-2.25-2.25h-0.721h-8.717h-0.721c-1.243,0-2.25,1.007-2.25,2.25c0,1.243,1.007,2.25,2.25,2.25h0.721v11.183
		L34.19,48.277c-3.334,5.774,0.833,12.992,7.501,12.992h22.09C70.449,61.27,74.616,54.052,71.283,48.277z M63.794,57.27H41.679
		c-2.435,0-3.641-1.634-4.046-2.336c-0.406-0.702-1.217-2.563,0-4.671l9.305-16.117h11.597l2.093,3.625H57.25
		c-0.828,0-1.5,0.672-1.5,1.5s0.672,1.5,1.5,1.5h5.11l1.985,3.438H57.25c-0.828,0-1.5,0.672-1.5,1.5s0.672,1.5,1.5,1.5h8.827
		l1.763,3.055c0.075,0.13,0.12,0.255,0.18,0.383H57.25c-0.828,0-1.5,0.672-1.5,1.5s0.672,1.5,1.5,1.5h11.1
		c-0.137,0.567-0.353,1.016-0.51,1.289C67.434,55.636,66.229,57.27,63.794,57.27z"/>
	<path style="fill:#26B4E6;" d="M57.25,53.645c-0.828,0-1.5-0.672-1.5-1.5s0.672-1.5,1.5-1.5H68.02
		c-0.06-0.128-0.105-0.253-0.18-0.383l-1.763-3.055H57.25c-0.828,0-1.5-0.672-1.5-1.5s0.672-1.5,1.5-1.5h7.095L62.36,40.77h-5.11
		c-0.828,0-1.5-0.672-1.5-1.5s0.672-1.5,1.5-1.5h3.378l-2.093-3.625H46.938l-9.305,16.117c-1.217,2.108-0.406,3.969,0,4.671
		c0.406,0.702,1.612,2.336,4.046,2.336h22.116c2.434,0,3.64-1.634,4.046-2.336c0.157-0.272,0.373-0.721,0.51-1.289H57.25z"/>
</g>
</svg>
