<?xml version="1.0" encoding="utf-8"?>
<!-- Generator: Adobe Illustrator 24.2.0, SVG Export Plug-In . SVG Version: 6.00 Build 0)  -->
<svg version="1.1" id="Warstwa_2" xmlns="http://www.w3.org/2000/svg" x="0px" y="0px"
	 viewBox="0 0 87.87 87.87" style="enable-background:new 0 0 87.87 87.87;" xml:space="preserve">
<g>
	<g>
		<path d="M39.71,77.16l-1.15,8.94c1.8,0.23,3.63,0.35,5.45,0.35c1.88,0,3.77-0.13,5.62-0.37l-1.18-8.94
			C45.58,77.52,42.59,77.53,39.71,77.16z"/>
		<path d="M69.93,10.21c-2.94-2.27-6.18-4.14-9.6-5.56l-3.46,8.33c2.7,1.12,5.24,2.59,7.56,4.38L69.93,10.21z"/>
		<path d="M4.78,60.33c1.43,3.42,3.3,6.64,5.58,9.58l7.13-5.51c-1.79-2.32-3.27-4.86-4.39-7.55L4.78,60.33z"/>
		<path d="M18.22,77.73c2.95,2.26,6.19,4.12,9.62,5.53l3.43-8.34c-2.7-1.11-5.25-2.58-7.57-4.36L18.22,77.73z"/>
		<path d="M56.89,74.87l3.47,8.32c3.42-1.42,6.65-3.3,9.59-5.57l-5.5-7.14C62.12,72.27,59.58,73.75,56.89,74.87z"/>
		<path d="M86.18,38.38l-8.94,1.17c0.19,1.44,0.28,2.92,0.28,4.39c0,1.46-0.1,2.93-0.28,4.37l8.94,1.16
			c0.24-1.82,0.36-3.68,0.36-5.52C86.54,42.07,86.42,40.21,86.18,38.38z"/>
		<path d="M70.62,64.3l7.15,5.49c2.26-2.95,4.13-6.18,5.55-9.61l-8.33-3.45C73.87,59.43,72.4,61.97,70.62,64.3z"/>
		<path d="M83.31,27.65c-1.42-3.42-3.29-6.65-5.55-9.6l-7.15,5.49c1.78,2.32,3.26,4.87,4.38,7.56L83.31,27.65z"/>
		<path d="M10.51,43.93c0-18.47,15.03-33.5,33.5-33.5c1.48,0,2.96,0.1,4.41,0.29l1.17-8.94c-1.84-0.24-3.72-0.36-5.59-0.36
			C20.57,1.41,1.5,20.48,1.5,43.93c0,1.87,0.12,3.75,0.36,5.59l8.94-1.18C10.61,46.89,10.51,45.41,10.51,43.93z"/>
	</g>
	<path d="M62.72,52.84l0.63-24.84H48.71l-3.9,12.15l-9.33,2.72c-1.5-0.31-2.81-0.46-3.97-0.46c-4.22,0-6.04,2.12-6.83,3.89
		c-0.85,1.93-0.86,4.17-0.86,6.53l-2.15,0v5.01l20.39-0.02l2.11-2.41h6.78l1.57,2.43h11.93v-5.01H62.72z M29.26,48.33
		c0.15-0.34,0.4-0.91,2.25-0.91c0.94,0,2.12,0.16,3.51,0.48l0.63,0.14l13.12-3.83l3.59-11.2h5.85l-0.44,17.39H28.88
		C28.93,49.58,29.04,48.84,29.26,48.33z"/>
</g>
</svg>
