<?xml version="1.0" encoding="utf-8"?>
<!-- Generator: Adobe Illustrator 24.2.0, SVG Export Plug-In . SVG Version: 6.00 Build 0)  -->
<svg version="1.1" id="Warstwa_3" xmlns="http://www.w3.org/2000/svg" x="0px" y="0px"
	 viewBox="0 0 87.87 87.87" style="enable-background:new 0 0 87.87 87.87;" xml:space="preserve">
<g>
	<g>
		<path d="M4.74,60.24c1.42,3.42,3.29,6.64,5.55,9.59l7.15-5.5c-1.78-2.32-3.26-4.86-4.38-7.55L4.74,60.24z"/>
		<path d="M18.13,77.66c2.94,2.26,6.17,4.13,9.59,5.55l3.46-8.33c-2.69-1.12-5.23-2.59-7.56-4.37L18.13,77.66z"/>
		<path d="M44.02,1.41C20.57,1.41,1.5,20.48,1.5,43.93c0,1.87,0.12,3.75,0.36,5.58l8.94-1.18c-0.19-1.45-0.29-2.93-0.29-4.41
			c0-18.47,15.03-33.5,33.5-33.5c18.47,0,33.5,15.03,33.5,33.5c0,18.47-15.03,33.5-33.5,33.5c-1.47,0-2.96-0.1-4.41-0.29l-1.17,8.94
			c1.84,0.24,3.72,0.36,5.58,0.36c23.45,0,42.52-19.07,42.52-42.52C86.54,20.48,67.46,1.41,44.02,1.41z"/>
	</g>
	<path d="M61.5,46.6c-0.63-2.3-1.34-4.92-2.08-7.89c-1.31-5.28-4.3-8.2-7.36-9.81h6.67v-8.96h-9.45V30.9l-2.16-0.67V19.94h-8.15
		v10.29L36.8,30.9V19.94h-9.5v8.96h6.6c-3.03,1.61-5.99,4.52-7.29,9.81c-0.74,2.98-1.45,5.59-2.08,7.89
		c-2.01,7.35-3.02,11.05-1.26,13.51c2.11,2.95,6.99,4.86,12.44,4.86h0c0.78,0,1.58-0.04,2.38-0.11c3.05-0.29,4.32-0.4,5.27-0.4
		c0.69,0,1.28,0.06,2.36,0.18c0.59,0.06,1.3,0.14,2.22,0.22c0.8,0.08,1.6,0.11,2.38,0.11c5.44,0,10.33-1.91,12.44-4.86
		C64.52,57.64,63.51,53.95,61.5,46.6z M41.93,31.54c0.43,0,0.7,0.02,0.74,0.03l0.25,0.03l0.24-0.02c0.05-0.01,0.33-0.03,0.77-0.03
		c1.31,0,3.52,0.2,5.66,1.25l-0.46,8.48l-3.83,0.01v-2.64h-4.58v2.65l-3.7,0.01l-0.57-8.54C38.53,31.73,40.66,31.54,41.93,31.54z
		 M59.04,57.45c-0.85,1.18-3.86,2.94-8.71,2.94c-0.64,0-1.3-0.03-1.95-0.09c-0.9-0.08-1.6-0.16-2.17-0.22
		c-1.2-0.13-1.92-0.2-2.85-0.2c-1.2,0-2.61,0.13-5.7,0.42c-0.66,0.06-1.32,0.09-1.95,0.09h0c-4.85,0-7.86-1.76-8.69-2.91
		c-0.45-0.99,0.76-5.41,1.93-9.68c0.64-2.33,1.36-4.97,2.11-8c0.27-1.1,0.65-2.04,1.1-2.87l0.6,8.93l7.98-0.01v3.31h4.58v-3.32
		l8.16-0.01l0.47-8.78c0.42,0.8,0.78,1.7,1.04,2.75c0.75,3.03,1.47,5.67,2.11,8C58.25,52.08,59.46,56.49,59.04,57.45z"/>
</g>
</svg>
