<?xml version="1.0" encoding="utf-8"?>
<!-- Generator: Adobe Illustrator 24.2.0, SVG Export Plug-In . SVG Version: 6.00 Build 0)  -->
<svg version="1.1" id="Warstwa_3" xmlns="http://www.w3.org/2000/svg" x="0px" y="0px"
	 viewBox="0 0 87.87 87.87" style="enable-background:new 0 0 87.87 87.87;" xml:space="preserve">
<g>
	<g>
		<g>
			<g>
				<path d="M4.74,60.45c1.42,3.43,3.29,6.67,5.55,9.62l7.15-5.52c-1.78-2.33-3.26-4.88-4.38-7.58L4.74,60.45z"/>
				<path d="M18.13,77.93c2.94,2.27,6.17,4.15,9.59,5.57l3.46-8.36c-2.69-1.12-5.23-2.6-7.56-4.39L18.13,77.93z"/>
				<path d="M44.02,1.41C20.57,1.41,1.5,20.55,1.5,44.08c0,1.87,0.12,3.76,0.36,5.6l8.94-1.18c-0.19-1.46-0.29-2.94-0.29-4.42
					c0-18.54,15.03-33.62,33.5-33.62c18.47,0,33.5,15.08,33.5,33.62c0,18.54-15.03,33.62-33.5,33.62c-1.47,0-2.96-0.1-4.41-0.29
					l-1.17,8.97c1.84,0.24,3.72,0.37,5.58,0.37c23.45,0,42.52-19.14,42.52-42.67C86.54,20.55,67.46,1.41,44.02,1.41z"/>
			</g>
		</g>
	</g>
	<polygon points="59.06,34.47 64.53,29.3 59.06,23.76 40.57,23.75 40.57,34.71 27.34,34.71 21.87,39.88 27.34,45.42 40.57,45.42 
		40.57,64.11 37.62,64.11 37.62,68.11 48.78,68.11 48.78,64.11 45.82,64.11 45.82,34.47 	"/>
</g>
</svg>
