<?xml version="1.0" encoding="utf-8"?>
<!-- Generator: Adobe Illustrator 24.2.0, SVG Export Plug-In . SVG Version: 6.00 Build 0)  -->
<svg version="1.1" id="Warstwa_3" xmlns="http://www.w3.org/2000/svg" x="0px" y="0px"
	 viewBox="0 0 87.87 87.87" style="enable-background:new 0 0 87.87 87.87;" xml:space="preserve">
<style type="text/css">
	.st0{fill-rule:evenodd;clip-rule:evenodd;}
</style>
<g>
	<g>
		<g>
			<path d="M44.02,1.39C20.57,1.39,1.5,20.47,1.5,43.92c0,23.44,19.07,42.52,42.52,42.52c23.45,0,42.52-19.08,42.52-42.52
				C86.54,20.47,67.46,1.39,44.02,1.39z M44.02,77.42c-18.47,0-33.5-15.03-33.5-33.5c0-18.47,15.03-33.5,33.5-33.5
				c18.47,0,33.5,15.03,33.5,33.5C77.52,62.39,62.49,77.42,44.02,77.42z"/>
		</g>
	</g>
</g>
<g>
	<path class="st0" d="M65.2,55.59l-1.84,3.04c-0.74,1.22-1.93,1.98-3.14,1.99h-6.43l7.16-32.52l-2.61-0.56l-0.85,3.86l-5.08,1.95
		l-6.25-4.18c-0.04-0.03-0.09-0.05-0.13-0.07c0,0,0,0,0,0c-1.02-0.67-2.01-0.93-2.88-0.79c-1.1-0.15-2.17,0.52-2.47,1.61l-8.58,30.6
		c-0.01,0.04-0.01,0.07-0.02,0.11h-9.39v3h37.58c2.25-0.02,4.36-1.3,5.65-3.44l1.84-3.04L65.2,55.59z M47.74,34.49l2.96,1.98
		c0.1,0.07,0.21,0.13,0.32,0.17c0.43,0.28,0.98,0.37,1.49,0.15l4.15-1.63l-5.61,25.47h-4.83l3.66-13.97
		c0.31-1.18-0.38-2.4-1.56-2.73l-2.59-0.73L47.74,34.49z M40.72,46.44l4.25,1.21l-3.4,12.98h-4.83L40.72,46.44z"/>
	<path class="st0" d="M46.49,26.46c2.26-0.74,3.47-3.16,2.71-5.41c-0.76-2.24-3.22-3.43-5.44-2.65c-2.19,0.77-3.36,3.18-2.62,5.38
		C41.88,25.98,44.28,27.18,46.49,26.46z"/>
	<path class="st0" d="M31.42,42.24c2.03,0.58,4.14-0.6,4.71-2.63l2.23-7.86c0.57-2.03-0.6-4.14-2.63-4.71
		c-2.03-0.57-4.13,0.6-4.71,2.63l-2.23,7.86C28.22,39.56,29.39,41.67,31.42,42.24z"/>
</g>
</svg>
