<?xml version="1.0" encoding="utf-8"?>
<!-- Generator: Adobe Illustrator 24.2.0, SVG Export Plug-In . SVG Version: 6.00 Build 0)  -->
<svg version="1.1" xmlns="http://www.w3.org/2000/svg" x="0px" y="0px"
	 viewBox="0 0 87.87 87.87" style="enable-background:new 0 0 87.87 87.87;" xml:space="preserve">
<g id="Warstwa_3">
</g>
<g id="Warstwa_2">
	<g>
		<g>
			<path d="M44.02,1.41C20.57,1.41,1.5,20.55,1.5,44.08c0,23.53,19.07,42.67,42.52,42.67c23.45,0,42.52-19.14,42.52-42.67
				C86.54,20.55,67.46,1.41,44.02,1.41z M44.02,77.7c-18.47,0-33.5-15.08-33.5-33.62c0-18.54,15.03-33.62,33.5-33.62
				c18.47,0,33.5,15.08,33.5,33.62C77.52,62.62,62.49,77.7,44.02,77.7z"/>
		</g>
		<g>
			<path d="M52.13,49.15L53.99,47c1.35-1.56,8.07-9.6,8.07-14.4c0-5.47-4.45-9.92-9.92-9.92s-9.92,4.45-9.92,9.92
				c0,4.8,6.72,12.83,8.07,14.4L52.13,49.15z M52.13,27.57c2.78,0,5.03,2.26,5.03,5.03c0,1.62-2.37,5.48-5.03,8.93
				c-2.67-3.45-5.03-7.31-5.03-8.93C47.1,29.83,49.36,27.57,52.13,27.57z"/>
			<path d="M65.79,38.24L61.2,45.2c-0.11,0.16-0.17,0.36-0.16,0.55l0.05,11.04l-8.36-4.59c-0.26-0.14-0.58-0.14-0.85-0.01
				l-15.45,7.38l-9.53-5.7V34.48l8.65,5.26c0.28,0.16,0.61,0.18,0.89,0.04l2.73-1.5v-5.89l-2.9,1.58l-13.25-8.05
				c-0.29-0.17-0.65-0.18-0.94-0.01c-0.3,0.16-0.48,0.48-0.48,0.82v29.62c0,0.33,0.18,0.64,0.46,0.8l13.69,8.19
				c0.15,0.09,0.31,0.13,0.48,0.13c0.14,0,0.28-0.03,0.42-0.1l15.6-7.46l12.8,6.91c0.29,0.15,0.65,0.14,0.92-0.03
				c0.28-0.17,0.45-0.48,0.45-0.81l0.02-25.56C66.44,38.09,65.98,37.95,65.79,38.24z"/>
		</g>
	</g>
</g>
</svg>
