<?xml version="1.0" encoding="utf-8"?>
<!-- Generator: Adobe Illustrator 24.2.0, SVG Export Plug-In . SVG Version: 6.00 Build 0)  -->
<svg version="1.1" id="Warstwa_3" xmlns="http://www.w3.org/2000/svg" x="0px" y="0px"
	 viewBox="0 0 87.87 87.87" style="enable-background:new 0 0 87.87 87.87;" xml:space="preserve">
<g>
	<path d="M44.02,1.41C20.57,1.41,1.5,20.48,1.5,43.93c0,23.44,19.07,42.52,42.52,42.52c23.45,0,42.52-19.07,42.52-42.52
		C86.54,20.48,67.46,1.41,44.02,1.41z M44.02,77.43c-18.47,0-33.5-15.03-33.5-33.5c0-18.47,15.03-33.5,33.5-33.5
		c18.47,0,33.5,15.03,33.5,33.5C77.52,62.4,62.49,77.43,44.02,77.43z"/>
	<g>
		<path d="M62.32,59.6c-2.48-2.36-6.63-3.15-11.02-3.6c0.02,0.23,0.03,0.45,0.03,0.68c0,0.45-0.05,0.89-0.12,1.32
			c4,0.42,7.7,1.12,9.73,3.04c1.24,1.18,2.31,2.34,3.24,3.44c0.5-0.45,0.97-0.93,1.44-1.41C64.66,61.97,63.57,60.8,62.32,59.6z"/>
		<path d="M67.9,39.32c-5.3-3.88-13.25-4.11-18.09-0.53c-1.36,1.01-2.86,1.33-4.33,0.93c-1.73-0.47-3.23-1.93-4.12-4.01l-3.03-7.11
			c-1.87-4.38-4.58-5.16-6.03-5.23c-1.45-0.07-4.22,0.44-6.51,4.61l-11.9,21.73c0.46,1.74,1.08,3.41,1.82,5.02l13.59-24.82
			c0.43-0.79,0.92-1.43,1.41-1.86c-0.27,6.48-0.45,22.58,4.05,26.48c0.33,0.29,0.7,0.55,1.1,0.78c0.12-0.69,0.34-1.35,0.64-1.97
			c-0.15-0.1-0.29-0.21-0.42-0.32c-3.56-3.09-3.67-17.96-3.34-25.43c0.67,0.39,1.35,1.31,1.9,2.59l3.03,7.11
			c1.37,3.21,3.83,5.51,6.75,6.3c2.65,0.72,5.41,0.16,7.76-1.58c3.4-2.51,9.51-2.27,13.35,0.54l7.95,5.83
			c0.32-1.46,0.53-2.97,0.63-4.5L67.9,39.32z"/>
		<path d="M43.68,49.92c-3.37,0-6.1,2.73-6.1,6.1c0,3.37,2.73,6.1,6.1,6.1c3.37,0,6.1-2.73,6.1-6.1
			C49.78,52.66,47.04,49.92,43.68,49.92z"/>
	</g>
</g>
</svg>
