<?xml version="1.0" encoding="utf-8"?>
<!-- Generator: Adobe Illustrator 24.2.0, SVG Export Plug-In . SVG Version: 6.00 Build 0)  -->
<svg version="1.1" id="Warstwa_2" xmlns="http://www.w3.org/2000/svg" x="0px" y="0px"
	 viewBox="0 0 87.87 87.87" style="enable-background:new 0 0 87.87 87.87;" xml:space="preserve">
<g>
	<path d="M44.02,1.41C20.57,1.41,1.5,20.48,1.5,43.93c0,23.44,19.07,42.52,42.52,42.52c23.45,0,42.52-19.07,42.52-42.52
		C86.54,20.48,67.46,1.41,44.02,1.41z M44.02,77.43c-18.47,0-33.5-15.03-33.5-33.5c0-18.47,15.03-33.5,33.5-33.5
		c18.47,0,33.5,15.03,33.5,33.5C77.52,62.4,62.49,77.43,44.02,77.43z"/>
	<g>
		<path d="M64.29,32.39c-2.22,0-4.03,1.8-4.03,4.03c0,2.23,1.8,4.03,4.03,4.03c2.23,0,4.03-1.8,4.03-4.03
			C68.32,34.19,66.51,32.39,64.29,32.39z"/>
		<path d="M23.62,47.42c-2.22,0-4.03,1.8-4.03,4.03c0,2.22,1.8,4.03,4.03,4.03c2.22,0,4.03-1.8,4.03-4.03
			C27.65,49.22,25.85,47.42,23.62,47.42z"/>
		<path d="M33.79,31.19c2.83,0,5.12-2.29,5.12-5.12c0-2.83-2.29-5.12-5.12-5.12c-2.83,0-5.12,2.29-5.12,5.12
			C28.67,28.89,30.96,31.19,33.79,31.19z"/>
		<path d="M54.12,56.49c-2.83,0-5.12,2.29-5.12,5.12c0,2.83,2.29,5.12,5.12,5.12c2.83,0,5.12-2.29,5.12-5.12
			C59.24,58.78,56.95,56.49,54.12,56.49z"/>
		<path d="M59.57,34.01l-19.25-8.02c0,0.03,0,0.05,0,0.07c0,1.78-0.72,3.39-1.88,4.57l16.23,6.76L28.19,48.77
			c0.46,0.79,0.75,1.69,0.75,2.67c0,1.35-0.52,2.57-1.35,3.51l20.05,7.39c-0.03-0.24-0.04-0.48-0.04-0.73
			c0-1.55,0.54-2.97,1.45-4.09l-15.35-5.66l26.97-11.58c-1.03-0.97-1.69-2.34-1.69-3.87C58.97,35.54,59.2,34.74,59.57,34.01z"/>
	</g>
</g>
</svg>
