<?xml version="1.0" encoding="UTF-8" standalone="no"?><!-- Generator: Gravit.io --><svg xmlns="http://www.w3.org/2000/svg" style="isolation:isolate" viewBox="0 0 160 160" width="160pt" height="160pt"><defs><clipPath id="_clipPath_CIfey3iQwZgBbklY0WXaMgZFAul5sPfe"><rect width="160" height="160"/></clipPath></defs><g clip-path="url(#_clipPath_CIfey3iQwZgBbklY0WXaMgZFAul5sPfe)"><path d=" M 112.26 123.89 L 108.24 128.34 C 102.36 123.02 99.01 115.45 99.01 107.53 C 99.01 100.62 101.57 93.95 106.18 88.81 C 111.5 82.88 119.1 79.5 127.07 79.5 C 133.98 79.5 140.65 82.05 145.79 86.67 C 146.28 87.1 146.75 87.56 147.2 88.03 L 142.85 92.16 C 142.51 91.81 142.15 91.47 141.79 91.14 C 137.74 87.51 132.5 85.5 127.07 85.5 C 120.81 85.5 114.83 88.16 110.65 92.82 C 107.02 96.86 105.01 102.1 105.01 107.53 C 105.01 113.76 107.65 119.71 112.26 123.89 Z " fill="rgb(255,255,255)"/><path d=" M 17.15 92.16 L 12.8 88.03 C 13.25 87.56 13.72 87.1 14.21 86.67 C 19.35 82.05 26.02 79.5 32.93 79.5 C 40.9 79.5 48.5 82.88 53.82 88.81 C 58.43 93.95 60.99 100.62 60.99 107.53 C 60.99 115.45 57.64 123.02 51.76 128.34 L 47.74 123.89 C 52.35 119.71 54.99 113.76 54.99 107.53 C 54.99 102.1 52.98 96.86 49.35 92.82 C 45.17 88.16 39.19 85.5 32.93 85.5 C 27.5 85.5 22.26 87.51 18.21 91.14 C 17.85 91.47 17.49 91.81 17.15 92.16 Z " fill="rgb(255,255,255)"/><path d=" M 93.36 134.97 C 92.47 133.96 91.62 132.91 90.8 131.84 C 89.84 130.58 88.98 129.25 88.21 127.87 C 87.42 126.44 86.77 124.94 86.27 123.39 C 85.7 121.61 85.28 119.78 85.01 117.93 L 84.58 114.96 L 90.52 114.1 L 90.95 117.07 C 91.17 118.59 91.52 120.1 91.98 121.56 C 92.36 122.74 92.85 123.87 93.45 124.95 C 94.08 126.09 94.79 127.17 95.58 128.21 C 97.07 130.18 98.71 132.04 100.46 133.78 C 100.1 134.89 99.65 135.97 99.1 137 C 98.85 137.47 98.59 137.93 98.31 138.38 C 97.53 139.65 96.66 140.88 95.7 142.03 C 94.39 143.63 93 145.16 91.54 146.62 C 89.62 148.54 87.61 150.39 85.53 152.15 C 83.82 153.61 81.96 154.88 79.99 155.97 C 79.06 155.47 78.16 154.92 77.29 154.32 C 76.88 154.04 76.47 153.74 76.06 153.43 C 74.94 152.59 73.85 151.7 72.8 150.76 C 71.3 149.42 69.84 148.04 68.41 146.62 C 67.49 145.69 66.59 144.74 65.72 143.76 C 65.01 142.96 64.32 142.14 63.67 141.29 C 62.93 140.33 62.23 139.33 61.59 138.29 C 60.72 136.88 60.01 135.36 59.49 133.78 C 61.25 132.04 62.88 130.18 64.38 128.21 C 65.17 127.17 65.88 126.09 66.51 124.95 C 67.11 123.87 67.6 122.74 67.97 121.56 C 68.44 120.1 68.79 118.59 69.01 117.07 L 69.44 114.1 L 75.38 114.96 L 74.95 117.93 C 74.68 119.78 74.26 121.61 73.69 123.39 C 73.19 124.94 72.54 126.44 71.75 127.87 C 70.98 129.25 70.12 130.58 69.16 131.84 C 68.34 132.91 67.49 133.96 66.6 134.97 C 66.63 135.03 66.66 135.08 66.7 135.14 C 67.23 136 67.8 136.83 68.42 137.62 C 68.99 138.36 69.58 139.07 70.2 139.77 C 70.99 140.66 71.81 141.53 72.66 142.37 C 74 143.72 75.38 145.02 76.8 146.29 C 77.72 147.11 78.68 147.9 79.67 148.64 C 79.77 148.72 79.88 148.8 79.99 148.88 C 80.56 148.47 81.12 148.03 81.65 147.57 C 83.61 145.92 85.49 144.18 87.3 142.37 C 88.63 141.05 89.88 139.66 91.07 138.22 C 91.85 137.28 92.56 136.28 93.2 135.24 C 93.25 135.15 93.3 135.06 93.36 134.97 Z " fill="rgb(255,255,255)"/><path d=" M 70.8 81.49 L 71.81 84.32 L 66.16 86.33 L 65.15 83.51 C 64.14 80.67 63.11 77.83 62.07 74.99 C 61.12 72.4 60.15 69.8 59.17 67.21 C 58.26 64.82 57.37 62.41 56.5 60 C 55.67 57.69 54.91 55.36 54.22 53.01 C 53.55 50.77 53.01 48.49 52.6 46.2 C 52.2 43.99 51.99 41.75 51.98 39.51 C 51.98 37.88 52.13 36.26 52.42 34.65 C 52.73 33.02 53.17 31.42 53.76 29.87 C 54.4 28.19 55.18 26.56 56.1 25.02 C 57.14 23.28 58.32 21.62 59.61 20.05 C 60.15 19.4 60.7 18.77 61.27 18.16 C 61.88 17.5 62.51 16.85 63.15 16.23 C 65.16 14.27 67.3 12.45 69.55 10.79 C 72.42 8.67 75.39 6.71 78.46 4.91 C 78.92 4.64 79.45 4.5 79.98 4.5 L 79.98 4.5 C 80.51 4.5 81.04 4.64 81.5 4.91 C 85.4 7.2 89.15 9.76 92.7 12.58 C 95.33 14.66 97.75 16.99 99.92 19.55 C 101.29 21.15 102.54 22.86 103.64 24.66 C 104.61 26.24 105.44 27.9 106.11 29.63 C 106.72 31.22 107.19 32.86 107.51 34.53 C 107.82 36.17 107.98 37.84 107.98 39.51 C 107.96 41.75 107.76 43.99 107.36 46.2 C 106.94 48.49 106.4 50.77 105.74 53.01 C 105.05 55.36 104.29 57.69 103.45 60 C 102.59 62.41 101.7 64.82 100.78 67.21 C 99.81 69.8 98.84 72.4 97.89 74.99 C 96.85 77.83 95.82 80.67 94.8 83.51 L 93.8 86.33 L 88.15 84.32 L 89.15 81.49 C 90.17 78.63 91.21 75.78 92.25 72.93 C 93.21 70.31 94.19 67.69 95.17 65.08 C 96.08 62.72 96.95 60.35 97.81 57.97 C 98.6 55.77 99.33 53.55 99.99 51.31 C 100.59 49.28 101.08 47.21 101.45 45.13 C 101.79 43.27 101.97 41.38 101.98 39.49 C 101.98 38.2 101.86 36.92 101.62 35.65 C 101.37 34.34 101 33.05 100.51 31.8 C 99.97 30.41 99.31 29.07 98.53 27.8 C 97.59 26.27 96.53 24.81 95.36 23.44 C 93.44 21.18 91.3 19.12 88.97 17.28 C 86.1 15.01 83.1 12.91 79.98 11 C 77.62 12.44 75.33 13.98 73.11 15.61 C 71.08 17.12 69.15 18.76 67.34 20.52 C 66.77 21.08 66.21 21.65 65.67 22.23 C 65.18 22.77 64.7 23.31 64.23 23.88 C 63.13 25.21 62.14 26.62 61.25 28.1 C 60.51 29.34 59.88 30.64 59.37 31.99 C 58.91 33.21 58.56 34.46 58.32 35.75 C 58.1 36.98 57.98 38.23 57.98 39.49 C 57.99 41.38 58.17 43.27 58.51 45.13 C 58.88 47.21 59.37 49.28 59.97 51.31 C 60.63 53.55 61.36 55.77 62.15 57.97 C 63 60.35 63.88 62.72 64.78 65.08 C 65.77 67.69 66.74 70.31 67.7 72.93 C 68.75 75.78 69.78 78.63 70.8 81.49 Z " fill="rgb(255,255,255)"/><path d=" M 82.979 68.45 L 76.979 68.45 L 78.979 29.47 L 80.979 29.48 L 82.979 68.45 Z " fill="rgb(255,255,255)"/><path d=" M 71.48 99.5 C 71.48 97.25 72.38 95.08 73.97 93.49 C 75.56 91.9 77.73 91 79.98 91 C 82.23 91 84.4 91.9 85.99 93.49 C 87.58 95.08 88.48 97.25 88.48 99.5 C 88.48 101.75 87.58 103.92 85.99 105.51 C 84.4 107.1 82.23 108 79.98 108 C 77.73 108 75.56 107.1 73.97 105.51 C 72.38 103.92 71.48 101.75 71.48 99.5 Z  M 76.48 99.5 C 76.48 98.57 76.85 97.68 77.5 97.03 C 78.16 96.37 79.05 96 79.98 96 C 80.91 96 81.8 96.37 82.45 97.03 C 83.11 97.68 83.48 98.57 83.48 99.5 C 83.48 100.43 83.11 101.32 82.45 101.97 C 81.8 102.63 80.91 103 79.98 103 C 79.05 103 78.16 102.63 77.5 101.97 C 76.85 101.32 76.48 100.43 76.48 99.5 Z " fill-rule="evenodd" fill="rgb(255,255,255)"/></g></svg>