<?xml version="1.0" encoding="UTF-8" standalone="no"?><svg xmlns:android="http://schemas.android.com/apk/res/android" height="152.2" width="151.8" xmlns="http://www.w3.org/2000/svg">

<path d="M135.1,116.9c-1.4,2 -2.9,3.9 -4.4,5.7h-0.7v-19.2h2.5c1.7,0 2.7,1.4 2.7,2.7V116.9zM91.1,40.4c0,5.5 4.7,10 10.4,10 5.7,0 10.4,-4.5 10.4,-10 0,-5.5 -4.7,-10 -10.4,-10C95.8,30.4 91.1,34.9 91.1,40.4zM128.7,122.5h-14v13.9c-3.9,2.5 -8,4.6 -12.3,6.3v-40.6c0,-0.6 -0.5,-1 -1.1,-1 -0.6,0 -1.1,0.5 -1.1,1v41.4c-3.9,1.4 -8,2.5 -12.3,3.3 0,-0.1 0,-0.1 0,-0.2V69.2c0,-0.6 -0.5,-1 -1.1,-1 -0.6,0 -1.1,0.5 -1.1,1v28c0,2.4 -2,4.3 -4.5,4.3 -2.5,0 -4.5,-1.9 -4.5,-4.3V66.4c0,-0.1 0,-0.2 0,-0.3 0,-0.1 0,-0.1 0,-0.2v-0.1h0c0.1,-7.1 6.1,-12.8 13.5,-12.8h21.8c7.4,0 13.4,5.7 13.5,12.8h0v0.1c0,0.1 0,0.1 0,0.2 0,0.1 0,0.2 0,0.3v30.8c0,1 -0.4,1.9 -1,2.6 0.1,0.2 0.2,0.5 0.2,0.9v2.6h3.6V122.5zM101.1,60.7c-0.7,0.2 -0.7,0.2 -0.6,0.8 0.1,0.4 0.1,0.7 0.2,1.1 0.8,-0.2 1.6,-0.3 2.4,-0.2 0,-0.5 0,-1 0,-1.5 0,-0.2 -0.1,-0.2 -0.2,-0.2C102.3,60.5 101.7,60.6 101.1,60.7zM102.9,60.3c0.1,0 0.1,0 0.2,-0.1 0.3,-0.4 0.6,-0.7 0.9,-1.1 -0.7,0.2 -1.3,0.5 -1.8,1.1C102.4,60.2 102.6,60.2 102.9,60.3zM98.8,58c1.1,0.3 2,0.8 2.8,1.5 0,0 0.1,0.1 0.2,0.1 -0.1,-0.7 -0.5,-1.2 -0.8,-1.7 -0.8,-1.4 -1.8,-2.5 -3.3,-3.3 -0.5,-0.3 -1,-0.6 -1.5,-1 -0.4,0.3 -0.7,1 -0.7,1.4 0,0.5 0.2,0.9 0.6,1.2C96.8,57.2 97.7,57.7 98.8,58zM99,58.5c0.1,0.2 0.2,0.3 0.3,0.5 0.4,0.4 0.7,0.9 1.1,1.3 0,0 0.1,0.1 0.1,0.1 0.3,-0.1 0.6,-0.1 1,-0.2C101.2,59.5 99.8,58.6 99,58.5zM102.6,70.5c0.1,-0.8 0.2,-1.6 0.1,-2.5 -0.1,-1.3 -0.3,-2.6 -0.4,-3.8 -0.1,-0.5 -0.1,-1 -0.2,-1.5 -0.4,0.1 -0.8,0.1 -1.2,0.2 0,0.1 0,0.1 0,0.2 -0.1,1.1 -0.2,2.2 -0.4,3.2 -0.4,1.8 -0.8,3.5 -1.2,5.3 -0.2,0.9 -0.3,1.9 0,2.8 0.2,0.6 0.3,1.1 0.5,1.6 0.4,1.1 0.9,2.1 1.3,3.2 0,0 0,-0.1 0,-0.1C101.6,76.2 102.3,73.4 102.6,70.5zM105,73.4c-0.2,-1.6 -0.4,-3.1 -0.8,-4.7 -0.4,-1.9 -0.9,-3.9 -1.3,-5.8 0,-0.2 -0.1,-0.3 -0.4,-0.2 0,0.1 0,0.1 0,0.2 0.2,1.5 0.3,3.1 0.4,4.6 0.1,0.7 0.1,1.4 0.1,2.1 -0.2,1.8 -0.5,3.5 -0.8,5.3 -0.1,0.7 -0.3,1.4 -0.1,2.1 0.3,1.1 0.5,2.2 0.7,3.3 0.1,0.5 0.3,1.1 0.4,1.6 0.1,-0.1 0.1,-0.1 0.1,-0.2 0.2,-0.7 0.4,-1.3 0.7,-2C105,77.6 105.3,75.5 105,73.4zM108.1,55.9c0,-0.3 -0.1,-0.6 -0.2,-0.9 -0.1,-0.5 -0.4,-0.8 -0.8,-1.2 -0.1,0.5 -0.3,0.7 -0.6,1.1 -0.6,0.6 -1.3,1 -2.1,1.2 -0.4,0.1 -0.9,0.3 -1.1,0.7 -0.5,0.8 -0.8,1.6 -1,2.5 1,-0.4 2.1,-0.8 3.1,-1.3 0.8,-0.3 1.5,-0.7 2.2,-1.2C107.9,56.6 108.2,56.3 108.1,55.9zM117.5,99.5c-0.4,-0.7 -0.7,-1.4 -0.7,-2.3V69.2c0,-0.6 -0.5,-1 -1.1,-1 -0.6,0 -1.1,0.5 -1.1,1v34.1h2.3v-2.6C117,100.1 117.2,99.7 117.5,99.5zM123.5,100.9c-0.6,0.3 -1.4,0.5 -2.1,0.5 -1,0 -1.8,-0.3 -2.6,-0.8h-0.2v2.6h4.9V100.9zM63,90l6.8,22.4H57.8c-0.4,0 -0.6,0.3 -0.6,0.6v32.7c-2.8,-0.7 -5.6,-1.6 -8.3,-2.7v-30c0,-0.4 -0.3,-0.6 -0.6,-0.6h-2.9c-0.4,0 -0.6,0.3 -0.6,0.6v28.2c-2.9,-1.3 -5.7,-2.8 -8.3,-4.5v-23.7c0,-0.4 -0.3,-0.6 -0.6,-0.6h-11.9l6.6,-21.8 3.4,-11.1 3.3,-11c0.2,-1 -0.5,-1.9 -1.5,-2.1 -1,-0.2 -2,0.4 -2.2,1.3 0,0 0,0 0,0.1l-2.1,8.6c0,0.2 0,0.4 0.1,0.5 0,0 0.5,0.8 1.2,2l-2.8,9.3c-0.2,-0.4 -0.5,-0.8 -0.7,-1.2 -1.9,-3.2 -4.1,-6.8 -4.4,-9.5 -0.4,-3.3 2.5,-13.6 2.9,-15 0,0 0,-0.1 0.1,-0.1 1.8,-5.1 6.8,-8.5 12.5,-8.5h13.9c0,0 0.1,0 0.1,0 5.4,0.2 10.3,3.6 12,8.5 0,0 0,0.1 0,0.1 1,3.5 3.5,12.5 3.3,14.8 -0.2,3 -3.6,7.9 -5.7,10.7l-2.4,-7.9c1,-1.3 1.6,-2.2 1.6,-2.2 0.1,-0.2 0.2,-0.4 0.1,-0.6l-2.9,-9.6c0,0 0,0 0,0 -0.3,-0.9 -1.2,-1.5 -2.2,-1.3 -1,0.2 -1.6,1.1 -1.5,2.2l3.7,12L63,90zM46.7,61.1c-0.7,0.2 -0.7,0.2 -0.6,0.8 0.1,0.4 0.1,0.7 0.2,1.1 0.8,-0.2 1.6,-0.3 2.4,-0.2 0,-0.5 0,-1 0,-1.5 0,-0.2 -0.1,-0.2 -0.2,-0.2C47.9,60.9 47.3,60.9 46.7,61.1zM48.5,60.6c0.1,0 0.1,0 0.2,-0.1 0.3,-0.4 0.6,-0.7 0.9,-1.1 -0.7,0.2 -1.3,0.5 -1.8,1.1C48,60.6 48.2,60.6 48.5,60.6zM44.4,58.4c1.1,0.3 2,0.8 2.8,1.5 0,0 0.1,0.1 0.2,0.1 -0.1,-0.7 -0.5,-1.2 -0.8,-1.7 -0.8,-1.4 -1.8,-2.5 -3.3,-3.3 -0.5,-0.3 -1,-0.6 -1.5,-1 -0.4,0.3 -0.7,1 -0.7,1.4 0,0.5 0.2,0.9 0.6,1.2C42.4,57.5 43.3,58.1 44.4,58.4zM44.9,59.4c0.4,0.4 0.7,0.9 1.1,1.3 0,0 0.1,0.1 0.1,0.1 0.3,-0.1 0.6,-0.1 1,-0.2 -0.4,-0.7 -1.8,-1.6 -2.5,-1.7C44.7,59.1 44.8,59.2 44.9,59.4zM46.7,79.4c0.5,-2.8 1.2,-5.6 1.5,-8.5 0.1,-0.8 0.2,-1.6 0.1,-2.5 -0.1,-1.3 -0.3,-2.6 -0.4,-3.8 -0.1,-0.5 -0.1,-1 -0.2,-1.5 -0.4,0.1 -0.8,0.1 -1.2,0.2 0,0.1 0,0.1 0,0.2 -0.1,1.1 -0.2,2.2 -0.4,3.2 -0.4,1.8 -0.8,3.5 -1.2,5.3 -0.2,0.9 -0.3,1.9 0,2.8 0.2,0.6 0.3,1.1 0.5,1.6 0.4,1.1 0.9,2.1 1.3,3.2C46.7,79.5 46.7,79.4 46.7,79.4zM50.6,73.7c-0.2,-1.6 -0.4,-3.1 -0.8,-4.7 -0.4,-1.9 -0.9,-3.9 -1.3,-5.8 0,-0.2 -0.1,-0.3 -0.4,-0.2 0,0.1 0,0.1 0,0.2 0.1,1.5 0.3,3.1 0.4,4.6 0.1,0.7 0.1,1.4 0.1,2.1 -0.2,1.8 -0.5,3.5 -0.8,5.3 -0.1,0.7 -0.3,1.4 -0.1,2.1 0.3,1.1 0.5,2.2 0.7,3.3 0.1,0.5 0.3,1.1 0.4,1.6 0.1,-0.1 0.1,-0.1 0.1,-0.2 0.2,-0.7 0.4,-1.3 0.7,-2C50.6,78 50.9,75.9 50.6,73.7zM53.7,56.2c0,-0.3 -0.1,-0.6 -0.2,-0.9 -0.1,-0.5 -0.4,-0.8 -0.8,-1.2 -0.1,0.5 -0.3,0.7 -0.6,1.1 -0.6,0.6 -1.3,1 -2.1,1.2 -0.4,0.1 -0.9,0.3 -1.1,0.7 -0.5,0.8 -0.8,1.6 -1,2.5 1,-0.4 2.1,-0.8 3.1,-1.3 0.8,-0.3 1.5,-0.7 2.2,-1.2C53.5,56.9 53.8,56.6 53.7,56.2zM57.7,40.7c0,-5.6 -4.8,-10.2 -10.6,-10.2 -5.9,0 -10.6,4.6 -10.6,10.2 0,5.6 4.8,10.2 10.6,10.2C52.9,50.9 57.7,46.3 57.7,40.7zM113.6,140.1c0,-0.1 0,-0.3 0,-0.4v0.1c-0.3,0.3 -0.6,0.4 -0.8,0.6C113,140.5 113.2,140.5 113.6,140.1L113.6,140.1zM105.3,139.8c0.5,-0.1 1.3,-0.3 1.2,-0.1 0.3,-0.1 0.3,-0.4 0.1,-0.5C106.1,139.5 105.7,139.7 105.3,139.8L105.3,139.8 105.3,139.8zM135.2,110.4c0,0 -0.4,1.4 0.3,0.9 0.6,-1.6 0.4,-0.4 1.6,-1.4 -0.1,-1 1,-1.3 0.2,-2 0.9,-0.1 0.6,-0.1 1.5,-0.9 -0.7,0.2 0.4,-2 -0.3,-2.2 0.9,-0.1 0.1,2 1.4,1.1 0,-1 0.4,-2.7 -0.3,-3.2 0.4,-0.6 0.9,-0.7 1.3,-1.7 -0.1,0.1 0,0.4 0,0.5 0.2,-2 1.7,-4.6 1,-6 1.1,0.7 1.3,-4 1.9,-2.3 0.2,-0.8 0,-2.2 -0.2,-2.5 0.9,0.3 0.7,-1.9 1.3,-2.7 -0.4,-0.6 0,-2 -0.2,-2.9 0.1,0.4 0.2,0.6 0.5,0.6 -0.3,-1.1 0.1,-0.8 0.6,-1.6 -0.1,-1.4 -0.7,0.1 -1.1,-0.7 0.3,-1.1 0.6,-0.1 1,-0.3l-0.8,-1.9c0.1,-0.3 0.3,-0.6 0.6,-0.7 -0.3,-0.6 -0.6,-1.2 -0.1,-2l-0.1,1.5 0.5,-0.6 -0.5,-1.8c0.7,-2.6 1.7,-1.8 2.7,-1.6l0.1,1.1c0.3,0 0.6,-0.8 0.6,-1.3 0.2,-0.4 1.1,1.8 1.1,3 -0.2,3.3 -1.2,0.6 -1.6,2.8 0.1,1 0.2,1.9 0.3,2.9h-0.3c-0.3,0.4 0.1,0.7 0.1,0.9 -0.5,-0.3 -0.5,2.3 -0.8,3.4l0.5,-0.3c0.4,3.4 -2.1,4.8 -2.3,7.4l0.2,1.9 -0.7,0.2c0,1.1 0.4,1.4 -0.4,3 -3.1,5.3 -4.9,11.8 -9.1,16.5 0.1,0 0.3,-0.1 0.6,-0.4 -2.2,1.8 -3.1,3.7 -4.1,5.6 -1,1.9 -2,3.7 -4.1,5l0,-0.4c-1.7,1.9 0.1,-0.4 -1.4,0.6 0.3,0.8 -1.9,2.6 -2.8,3.8 0,-0.3 0.4,-0.6 0.7,-1 -0.3,0 -0.7,-0.2 -1.1,0.4 -0.4,1.9 -3.3,4 -5.2,5.7 -0.6,-0.3 -2.6,0.6 -4,0.5 -0.1,0.3 -0.3,0.9 -0.5,1.4 -1,0.2 -1.4,0.7 -1.8,1.3 0.7,-0.4 1.3,-0.8 1.8,-1.1l0,0.1c0.1,-0.1 0.2,-0.1 0.3,-0.2 0.4,-0.3 0.7,-0.5 0.5,-0.5 1.1,-0.1 0.2,0.4 0.6,0.9 -0.7,0.4 -2.1,1.5 -2.6,1.2 -0.4,0.3 -0.7,0.4 -1.3,0.5 -0.2,0.3 -0.5,0.4 -0.8,0.6l0.1,-0.1c-0.1,0 -0.2,0 -0.3,-0.1 -1.6,0.6 -3.2,2.3 -4.3,3.3 0.9,-1.2 -0.7,-0.6 -0.9,-1.1 -0.1,0.1 1.4,-0.5 3.3,-1.4 -0.1,0 -0.3,0 -0.4,-0.2 -1.8,0.2 -2.6,1.8 -5.1,2.4 0.1,-0.1 0.4,-0.4 0.2,-0.5 -0.9,0.2 -1.6,0.9 -1.6,1.3 -0.4,-0.4 -2.4,-0.1 -3.2,0.4 -0.7,0.7 -0.5,0.9 -2,1.3l0.6,-0.6c-1.8,0.2 -1.3,1 -2.8,1 0.6,0 0.6,-0.4 0.1,-0.3 -1.8,0.6 -1.8,0.9 -3,1.9l0.1,-0.7c-1.5,0.7 -4.5,1.9 -4.6,1.1 0.7,1.1 -3.5,1.1 -4.9,1.1 0.5,-0.1 0.6,-0.3 0.6,-0.4 -2.9,1 -6.1,0.3 -9.1,0.2l-0.4,-0.9c-1.6,0 -2.2,1.7 -3.9,1.5l0.7,-0.4c-3.1,-0.1 -4.3,-0.4 -6.8,-1l0.1,-0.6c-0.9,0.1 -2,-0.1 -3,0 -0.8,-0.9 -2.8,-1.2 -5,-1.7 -2.2,-0.4 -4.5,-1.1 -6,-2.6l-0.6,1c-1.3,-0.6 -3.1,-1.1 -3.4,-2.1l0.3,0.1c0.5,-0.7 -1.3,-0.6 -2,-1.2 -0.7,-0.2 -1.5,0 -1.1,0.4 -3.1,-2.2 -8.2,-4.8 -9.5,-7 -3.2,-1.9 -6,-3.1 -9,-6.1l0.1,-0.1c-0.9,-1.1 -2.6,-3.3 -1.9,-3.9 -2.1,-2 -4.3,-2.7 -6.1,-5.8l0.7,0.4c-0.4,-0.8 -1.6,-1.7 -1.9,-2 -0.1,-0.3 0.1,-0.2 0.3,-0.2 -0.2,-0.9 -0.9,-1 -1.3,-1.5l0.4,0c-1,-2.6 -4.3,-5.8 -5.7,-9.3 0.4,0.6 0.5,0.1 0.6,-0.2 -1.6,-0.9 -2.9,-4.8 -3.6,-6.2l0.7,0.8c-1.6,-2.6 0.2,-2.8 -1.3,-5.4l-0.1,1.8c-0.2,-1.2 -0.7,-2.1 -1,-1.7 0,-1.4 0.7,-0.4 0.3,-2.4 0.3,-0.1 0.6,1.4 0.8,0.7 0,-1 0,-2 0.1,-3 0.1,-0.1 0,-0.4 -0.3,-1.4 -1.2,0.5 -0.5,-2.3 -1.5,-0.7 -0.9,-4 -0.3,-7.6 -1,-11 1.1,-1.5 0.1,-7 1.7,-6.5 0.1,-2 0,-3.6 -0.6,-4.8 -0.2,0.4 0,0.9 0,1.3C2.8,67.9 3,65.5 3.2,64.5c0.1,1.4 0.2,3.4 0.7,4.5 0,-1.8 -0.3,-4.3 -0.3,-5.3l0.9,-0.3c-0.3,-1.6 0.9,-1.1 0.4,-2.7l-0.3,0.2c0.6,-2.7 -0.1,-2.9 0.4,-5.4l0.3,0.2c0.4,-0.8 0,-2.3 1,-2.9l-0.5,1.6c0.6,0 1.2,-1.1 1.7,-1.6 0.4,-1.7 -0.7,-0.9 -0.4,-1.8 0.6,-0.1 0.3,0 0.6,0.8 0.4,-1.9 1.3,-4.4 1.2,-6 0.1,0 0.2,0.1 0.2,0.1 1,-1.9 0.9,-3.9 1.9,-4.8l-0.1,0.4c1.5,-1.1 1.5,-4.1 2.8,-3.7 0.6,-0.5 -1,1.5 0.3,0.8 1.6,-1.8 -0.1,-2 1.4,-3.6 -0.2,0.2 -0.1,0.2 0,0.3l2.9,-4.5c2.1,-1 4,-5.2 6.6,-6 -0.9,0.2 0.1,-0.8 -0.1,-1 0,0 0,0.1 0.1,0.1 0.6,-0.6 0.4,-1 0.5,-1.3 0.8,-0.2 1.5,-2 2.1,-2.1 -0.2,-0.2 0.4,-0.6 1,-1.1 -1,1.3 0,0.8 -0.2,1.6 1.9,-1.4 1.3,-2.7 3.4,-4.1l1.4,-0.4c-0.3,-0.9 1.8,-1.9 1.6,-2.1 0.5,0 1.1,-0.2 1.3,0.2 0.7,-0.7 2.2,-1.1 2.3,-1.8l-1,0.3c2.8,-1.3 3.8,-3.3 6.2,-3.8l0.5,1.1c1.6,-0.2 2.3,-1.9 3.8,-1.7 -0.6,-0.2 -0.7,0 0.1,-0.8 -0.6,0.1 -1.5,0.9 -2.4,1.3l1.6,-1.5c-1,0.5 -1.9,1.1 -2.8,1.7 1.1,-1 1,-0.9 0.3,-1.1 1.7,-1.2 2.2,-0.3 3.8,-1.5 0.7,-0.1 0.2,0.6 1,0.6 1.4,-1 3.3,-0.3 4.3,-1.3 0.4,0 -0.7,0.2 -0.5,0.5 1,-0.4 1.8,-0.6 2,-1.1L54.2,5.6c0.8,-0.2 0.8,-0.8 2.4,-0.9 0.8,-0.5 1.1,-1.3 0.2,-1 0.4,-0.2 1.3,-0.1 1.1,0.4 2.4,-0.6 0.9,-1.6 3.3,-1.5 -0.1,0.1 -0.3,0.1 -0.2,0.2 0.6,0 1.1,-0.1 1.5,-0.3 -2.1,0.5 0.8,0.9 -1.7,1.1C61.2,4.3 62.7,3.4 63.5,3.6c1.1,-0.7 0,-1 0.5,-1.4 0,0.2 0.5,0.1 1.1,0.1l-0.6,-0.4c0.5,-0.1 1,-0.1 1.6,-0.3l-1,0.3c1.1,0 2.9,0.5 4.7,-0.1 -0.5,0.2 -1.5,0.7 -0.2,0.9 2.1,-0.5 0.5,0.1 1.7,0.4 2,-0.2 0.3,-0.9 3.4,-0.7 0.3,0 0,-0.3 -0.3,-0.4 2.1,0.2 3.3,-0.1 5.3,0.3 -0.9,-0.1 -1.6,-0.4 -0.3,-0.6 -0.6,0.4 1.6,0.5 2.4,0.8l0.2,-0.2c0.6,0.3 -0.1,0.4 -0.6,0.4 0,-0.1 -0.1,-0.2 -0.5,-0.2 -1,0.1 -0.7,1.1 0.8,1.3 1.7,-0.1 1.5,-0.8 1.2,-1 2.2,0.5 2.3,-0.9 4.4,-0.3 0.5,0.1 2,1.3 3.5,1.7 0.9,-0.4 -1.8,-0.8 -0.9,-1.1 2.3,1.9 5.5,0.3 8.6,2.1l-0.6,0.6c0.7,0.3 1.5,0.6 2.3,0.8L99.2,5.9c0.8,0.1 2.5,0.9 1.8,1.1 1.9,0.1 2.1,0.6 3.6,1.4 -1.6,-0.7 0,-0.1 -1.3,-0.3 1.6,1 1.8,0.9 3,1.3 -0.3,0.1 0.1,0.7 0.6,1 1.3,0.1 3.1,1.1 4.6,1.7l-0.1,0.2c2.6,1.1 4.6,3.6 7.2,4.7h0,0l0.1,0.1 -0.1,-0.2c-0.4,-1.1 2,0.9 2.9,1.3 0,0.3 -0.1,0.5 0.3,0.9 0.4,-0.5 1.1,0.4 1.6,0.5 0.6,0.8 -0.6,0.5 0.7,1.6 0.5,0.4 0.8,0.2 0.9,0 0,0.4 0.7,1.4 1.3,2 -0.3,-0.1 -0.6,-0.6 -0.7,-0.7 -0.3,0.2 0.2,0.5 -0.1,0.8 0.6,0.6 0.6,-0.2 1.2,0.6l-1,-0.3c0.2,0.4 0.7,0.6 0.9,0.7 -0.5,-0.3 -0.8,0.1 -1,0.4 1.9,1.3 1.3,-0.7 1.7,-1 1.3,1.8 2.9,2.6 4,3.8l-0.7,0.1c0.6,0.6 1,0.8 1.4,0.8l0.8,1c-0.6,-0.4 -0.9,-0.5 -1.3,-0.2 1,0.9 2,2.4 2.8,2.2l-0.1,0.1c0.9,1.6 2.8,4.7 2.5,4.7 1.3,1.5 2.1,3.8 2.8,3.4 0.7,0.9 0.6,3 1.8,3.3 0.1,1.4 -0.1,0.1 -0.9,0 0.1,1.4 1.9,2.1 1.1,3 1,1.3 0.1,-0.4 0.7,-0.1 -0.8,0.7 1,2.7 1,4.3 0.6,0.5 0,-0.7 0.8,0.2 -0.3,0 -0.1,0.6 0,0.9l0.7,0 -1,1.9c1.4,1.9 0.9,-0.8 2.1,2l-0.1,-0.2c-0.4,1 1.1,1.9 1.1,4.1 0,-0.7 -0.4,-0.2 -0.6,-0.4l0.5,1.1c0,-0.1 -0.1,-0.1 -0.1,0 -0.3,1.1 0.4,0.8 0.3,2.1 -0.3,-0.8 -0.7,-0.4 -0.9,0l1.1,1.6 -1,-0.5c0.2,1.6 2,3.9 0.9,4.9l-0.2,-0.8c-0.2,0.1 -0.8,0.6 -0.2,1.7 0.1,0.3 0.7,0.5 0.6,0l-0.1,0.9c-0.6,-0.4 -1,-2.4 -1.3,-3.6 0.3,0.4 0.6,1.3 0.9,1 -0.3,-1.1 -0.9,-2.1 -1.3,-3.2 0.3,0.4 0.7,0.6 1,0.8 0.1,-1.3 -0.5,-0.9 -0.7,-1.7 0.1,-0.4 0.3,-0.7 0.5,-0.5 -0.5,-1.1 -0.7,-2 -0.7,-3.3 0,0 0.8,1.3 0.9,0.4 -0.9,-2.2 -1.7,-2.4 -2.8,-4.7 -1.8,-2.4 -1.3,-5.4 -2.8,-7 -0.3,0 0.2,1.6 -0.5,0.4 0.6,0 0,-0.9 0.2,-1 -1.3,-0.9 -0.7,-1.9 -1.6,-2.6 0.3,0.1 0.1,-0.7 0,-1.2 0.7,-0.2 -0.5,-1.5 1.3,-0.1 -1.8,-1.4 -1.6,-3.4 -3.7,-4l0.1,0.6 -0.8,-1.9 0,0.1c-0.4,-0.8 -0.6,-0.9 -0.8,-2.3 0.4,0.4 0.9,1 1.3,1.4 -0.1,-1.3 -1.7,-1.7 -2.5,-2.7 0.4,-0.2 0.9,1 1.1,0.3 -0.4,-0.7 -1.2,-1.2 -1.8,-1.8l0.3,0c-0.9,-2.1 -1.5,0.1 -1.8,-1.7 -0.1,0.1 -0.3,0.1 -0.4,0.3 -0.1,-0.6 -0.7,-2 0.4,-1.1 -0.5,-0.6 -1.3,-1.1 -1.7,-1.2 0.1,0.7 0.4,0.7 0.2,1.3 -0.7,-0.7 -1.5,-1.4 -2.3,-2.1 -0.2,-0.2 0.4,0 0.7,0.3 -1.5,-3.6 -5.9,-4.3 -8,-8.1 0.1,0.6 -0.4,0.1 -0.9,0.1 -1,-0.9 -2.7,-2 -3.5,-2.9l0.5,0c-2.8,-1.5 -4.9,-2.1 -6.6,-3.3 -0.1,0 0.2,-0.4 0.6,-0.3 -1.6,-0.3 -2.5,-2.6 -3.4,-1.8l0.4,0.3c-2.7,-1.5 -6.1,-2 -9.1,-2.9 -0.5,-0.9 1.7,0.5 1.4,-0.4 -2,-1 -4.3,-1.1 -6.5,-1.9 0.4,0 0.3,-0.1 0.5,-0.1 -2.2,-1 0.1,0.7 -1.8,0.1 0.2,-0.3 0.1,-0.4 -0.5,-0.7l-0.7,0.4c-0.1,-0.1 0,-0.5 0.3,-0.6 -1,0.5 -3.5,-0.4 -4.3,0.1 -0.1,-0.2 0.4,-0.7 0.2,-1 -1,-0.4 -1.8,-0.2 -2.5,0l0,0c-0.7,-0.6 -2.5,-0.6 -2.1,-0.7 -1.9,-0.4 -0.3,0.3 -1.8,0.6l1.5,0.4c-0.9,0 -1.8,0 -2.7,0l1.1,-0.3c-1.2,-0.3 -2.5,0.2 -3.9,0.2l0.6,0.4L75.3,6.3c-0.1,-0.8 -2,-0.1 -1.2,-1.1 -3,-0.3 -4.9,0.9 -7.6,1.3 0.4,-0.1 0.3,-0.2 0.3,-0.3 -1.6,0 -2.5,0.6 -3.4,1.1 0.1,-0.3 0.5,-0.4 0.5,-0.6 -1.8,0.3 -1.1,0.6 -3,1.3 0.5,-0.4 0.3,-0.6 -0.3,-0.5 0.1,0.3 -0.3,0.6 -0.6,0.7 1.2,-1.9 -2.4,-0.1 -1.7,-1.5 0,0.3 -3,1.9 -1.9,2.2l0.5,-0.3c0.2,0.4 -0.6,0.4 -1.1,0.6 0.3,-0.1 0.6,-0.3 0.5,-0.4 -2.6,1.3 -5.7,1.9 -8.5,3.6 0.2,-0.3 1.3,-1.1 0.5,-0.9 -3.1,1.1 -4.5,2.7 -7.1,4.7 -0.7,-0.8 3,-1.8 2.7,-2.7 -3,1.8 -5.9,4 -8.7,6.7 -2,-0.4 -2.6,2.7 -5.1,3.4 0.5,0.2 -0.3,1.1 -1.2,2 0,-0.6 -1,0.3 -0.9,-0.1 -0.5,1.1 -2.6,3.6 -3.2,2.9 0.4,0.9 -1.7,1.8 -1.8,3 -1.2,0.9 -1.8,2.5 -3.1,3.8 0.9,-0.2 -0.8,1.6 -1,2.3 0.1,-0.2 0.2,-0.6 0.1,-0.5 -0.7,0.2 -0.8,2 -1.5,2.7 -0.4,0.3 -0.4,-0.4 -0.9,0.2 0.3,0.2 -0.6,2.8 -1.5,3.4 0.2,-0.4 0,-0.5 0,-0.9 -1.7,4.5 -4.4,8.9 -5,13.8l-0.4,-1c-1.7,2.7 0.6,2.3 -0.1,4.5 -1.8,6.2 -3.5,13.1 -2.7,19.6 0.2,0.4 0.2,-0.3 0.5,-0.4 -0.1,0.6 -0.6,0.7 -0.2,1.5l0.4,-0.2c-0.9,3 1.6,8.3 0.6,10.7 1.2,2.6 0.7,4.8 2.7,7.8 0,1.1 -1,-1 -0.6,0.4 0.6,1 1.1,1.9 1.7,2.8l-0.1,-0.1c2.1,2.4 2.2,8 5,10.9l-0.1,-0.1c-0.3,0.1 -0.1,0.9 0.3,1.4 0.3,0.1 0.1,-0.3 0.1,-0.8 2.2,2.7 2.7,3.3 4.4,5.3 -1,-0.7 0.4,1.1 0.1,1.5 0.7,0.3 0.2,-0.7 1.4,0.4 1.5,1.7 2.6,3.5 3.8,5 0.9,0.2 1.5,1 1.9,0.6 1.9,1.7 3.1,2.4 5.5,4.4l-0.1,0.2c1.1,-0.1 1.9,1.9 2.7,1.9 -0.2,0.1 -0.6,0.1 -0.6,0.3l1.3,0.6c-0.7,-0.2 -1.4,0.2 -0.5,0.9 1.3,0.3 -0.1,-0.5 0.7,-0.5l-0.1,0.8c0.8,0.4 1.4,-0.1 0.6,-0.9 2.6,1.7 5.4,2.9 7.9,4.2l-0.5,0.3c1.5,0.5 3.4,1.4 4.1,2.1 0.1,-0.1 0.5,-0.2 0.4,-0.4 1.9,0.1 -0.1,0.7 2,0.9 -0.5,0 -1.1,-0.1 -1.3,0.1 1.3,0.3 2.5,0.5 3.7,0.7 -0.1,0.3 1.9,1.8 3.5,1.9 0.1,-0.2 -0.3,-0.6 -0.6,-0.7l1,0.1 0.6,1 1.6,-0.3 -0.1,0.6c1.1,0.1 1.7,-0.6 2.5,-0.4 3.1,1 2.5,1.1 4.7,2 0.4,-1.2 3.7,0.4 4.4,-0.4 3.1,1.1 7.7,0.5 11.8,0.3l-0.3,0.1c1.8,0.4 1.9,-1.1 3.8,-1.2l-0.4,0.3c2.5,0.3 6.6,-1.2 8.6,-2.4 -0.4,0.3 0,0.6 0.7,0.4 0.5,-0.4 -0.8,-0.7 0.5,-0.8 -0.3,0.2 0,0.4 0.3,0.3l1,-1c3.3,-0.6 7.1,-1.7 10,-3.7 0.7,-0.1 0.4,0.3 0.3,0.6 2.4,-1.4 4.5,-3.3 6.5,-4.7l0.6,0.5c1,-0.7 0,-1.3 1.7,-1.7 0.3,-0.1 -0.8,0.7 -1,1.1 2.3,-1 0.8,-1.4 2.7,-2.7l0,1c1.7,-0.7 1.3,-1.6 1.5,-2.4 1.3,-2.3 2.4,0.1 4.4,-2.8 0.1,-0.7 -0.5,-0.3 -0.4,-1 1.9,-1.6 1.6,-2.1 3.4,-3.8 1.8,-0.1 -0.8,0.9 1,0.6 -0.5,0.4 -1,0.8 -1.4,1.1 1.6,-0.7 -0.9,1.2 -0.2,1.5 1,-0.7 1.8,-2.5 2.6,-3.9 0.4,0.4 -1.1,1.4 -0.1,1.4l0.4,-0.8c0,0.3 0.1,0.4 -0.2,0.8 0.6,0.1 0.7,-0.7 1.1,-1.3 -0.2,-0.2 -0.5,-0.4 -1,-0.5 0.1,0 0.2,0 0.3,0 0.4,-1.7 2.4,-3.4 2.7,-4.8 0,0.3 0.1,0.1 0.3,0.1 0.6,-0.7 0.5,-2 1,-3.1 0.7,-0.4 0.8,1 1.7,-0.9C135.4,111.5 134.3,111.8 135.2,110.4L135.2,110.4 135.2,110.4z" fill="#2e2b2c"/>
</svg>