<svg
    xmlns="http://www.w3.org/2000/svg"
    viewBox="0 0 151 152"
    id="vector">
    <path
        id="path"
        d="M 114.6 141.8 C 114.1 142.1 113.9 142.1 113.8 142.1 C 114 142 114.3 141.8 114.6 141.5 L 114.6 141.4 C 114.7 141.6 114.7 141.7 114.6 141.8 M 106.1 141.5 C 106.5 141.3 107 141.1 107.5 140.9 C 107.7 141 107.7 141.3 107.3 141.4 C 107.4 141.2 106.6 141.4 106.1 141.5 M 136.7 111.3 C 135.8 112.7 137 112.4 137.2 112.9 C 136.3 114.8 136.2 113.4 135.5 113.8 C 135 115 135 116.2 134.5 117 C 134.3 117 134.2 117.1 134.2 116.8 C 133.9 118.3 131.8 120 131.4 121.8 C 131.3 121.8 131.2 121.8 131.1 121.8 C 131.6 121.8 131.9 122.1 132.1 122.3 C 131.6 122.9 131.5 123.8 130.9 123.6 C 131.2 123.3 131.1 123.1 131.1 122.8 L 130.7 123.6 C 129.7 123.6 131.3 122.6 130.8 122.2 C 130 123.6 129.2 125.4 128.1 126.2 C 127.4 125.9 129.9 123.9 128.3 124.6 C 128.8 124.2 129.3 123.8 129.8 123.4 C 128 123.7 130.6 122.6 128.8 122.8 C 127 124.5 127.2 125.1 125.3 126.7 C 125.2 127.3 125.8 127 125.7 127.7 C 123.6 130.7 122.4 128.2 121.1 130.6 C 120.9 131.4 121.3 132.3 119.5 133.1 L 119.5 132 C 117.6 133.4 119.2 133.8 116.8 134.8 C 117 134.3 118.2 133.5 117.8 133.6 C 116.1 134 117.2 134.7 116.1 135.4 L 115.5 134.9 C 113.5 136.4 111.3 138.3 108.9 139.8 C 108.9 139.5 109.2 139.1 108.6 139.2 C 105.6 141.2 101.7 142.4 98.3 143 L 97.3 144 C 97 144.1 96.7 143.9 97 143.7 C 95.6 143.9 97 144.1 96.5 144.5 C 95.8 144.8 95.4 144.4 95.8 144.1 C 93.8 145.3 89.5 146.9 87 146.6 L 87.5 146.3 C 85.6 146.3 85.5 147.9 83.6 147.5 L 83.9 147.3 C 79.7 147.5 75 148.1 71.8 147 C 71.1 147.9 67.7 146.2 67.3 147.5 C 65 146.6 65.7 146.5 62.5 145.4 C 61.6 145.2 61 145.9 59.9 145.8 L 60 145.2 L 58.4 145.5 L 57.8 144.5 L 56.8 144.4 C 57.2 144.6 57.6 144.9 57.4 145.1 C 55.7 145 53.7 143.5 53.8 143.2 C 52.5 143 51.3 142.7 50 142.4 C 50.2 142.2 50.8 142.3 51.4 142.3 C 49.2 142.2 51.3 141.5 49.4 141.4 C 49.6 141.6 49.1 141.7 49 141.8 C 48.3 141.1 46.3 140.2 44.8 139.7 L 45.3 139.4 C 42.8 138.1 39.9 136.8 37.2 135.1 C 38 135.9 37.4 136.4 36.6 136 L 36.7 135.2 C 35.9 135.2 37.4 136 36 135.7 C 35.1 135 35.8 134.6 36.5 134.8 L 35.2 134.2 C 35.2 134 35.6 134 35.8 133.9 C 35 133.9 34.2 131.9 33.1 132 L 33.2 131.8 C 30.7 129.8 29.4 129.1 27.5 127.3 C 27 127.7 26.4 126.9 25.5 126.7 C 24.2 125.2 23.1 123.3 21.6 121.6 C 20.3 120.5 20.9 121.6 20.2 121.2 C 20.5 120.7 19.1 119 20.1 119.6 C 18.4 117.5 17.9 116.9 15.6 114.1 C 15.6 114.6 15.8 115 15.5 114.9 C 15.1 114.4 14.9 113.5 15.2 113.5 L 15.3 113.6 C 12.4 110.6 12.4 104.9 10.2 102.4 L 10.3 102.6 C 9.7 101.7 9.2 100.7 8.6 99.8 C 8.2 98.4 9.3 100.5 9.2 99.3 C 7.2 96.3 7.7 94 6.4 91.3 C 7.5 88.8 4.9 83.5 5.8 80.4 L 5.4 80.6 C 5 79.8 5.6 79.7 5.6 79.1 C 5.3 79.2 5.3 79.9 5.1 79.5 C 4.3 72.9 6 65.8 7.9 59.4 C 8.6 57.1 6.3 57.5 8.1 54.8 L 8.6 55.9 C 9.2 50.8 12.1 46.3 13.8 41.7 C 13.8 42 14 42.2 13.8 42.6 C 14.7 41.9 15.7 39.3 15.4 39.1 C 15.9 38.5 15.8 39.1 16.3 38.9 C 17.1 38.2 17.1 36.4 17.9 36.2 C 18.1 36.2 17.9 36.5 17.8 36.7 C 18 36 19.7 34.2 18.8 34.3 C 20.1 33 20.7 31.3 22 30.4 C 22.1 29.2 24.3 28.2 23.8 27.4 C 24.4 28.2 26.6 25.6 27.1 24.5 C 27 25 28 24 28 24.7 C 28.9 23.8 29.7 22.9 29.2 22.6 C 31.8 21.9 32.4 18.7 34.5 19.1 C 37.3 16.3 40.3 14.1 43.4 12.3 C 43.7 13.2 39.9 14.3 40.6 15.1 C 43.3 13.1 44.7 11.4 47.9 10.3 C 48.7 10.1 47.6 10.9 47.4 11.2 C 50.3 9.5 53.5 8.8 56.2 7.5 C 56.2 7.6 55.9 7.8 55.7 7.9 C 56.3 7.7 57.1 7.7 56.9 7.3 L 56.4 7.6 C 55.3 7.3 58.3 5.7 58.4 5.3 C 57.7 6.8 61.4 4.9 60.2 6.9 C 60.6 6.7 61 6.4 60.8 6.1 C 61.4 6.1 61.6 6.2 61.1 6.6 C 63.1 5.9 62.3 5.6 64.2 5.3 C 64.2 5.5 63.9 5.7 63.7 5.9 C 64.6 5.3 65.5 4.7 67.2 4.7 C 67.1 4.8 67.3 5 66.9 5 C 69.6 4.6 71.6 3.3 74.7 3.6 C 73.8 4.5 75.8 3.9 75.9 4.7 L 77.6 4.5 L 77 4.1 C 78.4 4.1 79.7 3.6 81 3.9 L 79.9 4.2 C 80.8 4.2 81.7 4.2 82.6 4.2 L 81.1 3.8 C 82.6 3.5 81 2.8 83 3.2 C 82.6 3.2 84.5 3.3 85.2 3.9 C 86 3.7 86.7 3.6 87.8 3.9 C 88 4.2 87.5 4.7 87.6 4.9 C 88.4 4.3 91 5.3 92 4.8 C 91.7 4.9 91.6 5.3 91.7 5.4 L 92.4 5 C 93 5.3 93.1 5.5 92.9 5.8 C 94.9 6.4 92.5 4.6 94.8 5.6 C 94.6 5.6 94.7 5.7 94.3 5.7 C 96.6 6.5 98.9 6.6 101 7.6 C 101.3 8.6 99.1 7.1 99.6 8.1 C 102.7 9 106.2 9.5 108.9 11.1 L 108.4 10.8 C 109.3 10 110.2 12.4 111.9 12.6 C 111.5 12.5 111.1 12.9 111.3 12.9 C 113 14.1 115.2 14.8 118.1 16.3 L 117.6 16.3 C 118.5 17.2 120.2 18.3 121.2 19.3 C 121.7 19.3 122.3 19.8 122.1 19.2 C 124.3 23.1 128.8 23.8 130.3 27.5 C 130 27.2 129.4 26.9 129.6 27.2 C 130.4 27.9 131.2 28.6 131.9 29.4 C 132.1 28.9 131.9 28.9 131.7 28.1 C 132.2 28.2 133 28.7 133.5 29.4 C 132.3 28.5 132.9 29.9 133 30.6 C 133.1 30.4 133.3 30.5 133.4 30.3 C 133.7 32.2 134.4 29.9 135.3 32.1 L 135 32.1 C 135.6 32.7 136.4 33.2 136.8 33.9 C 136.6 34.5 136.1 33.3 135.6 33.6 C 136.4 34.6 138 35.1 138.1 36.4 C 137.7 36 137.2 35.4 136.8 35 C 137 36.4 137.2 36.5 137.6 37.3 L 137.6 37.2 L 138.5 39.2 L 138.4 38.6 C 140.5 39.2 140.3 41.3 142.2 42.7 C 140.4 41.3 141.6 42.6 140.9 42.8 C 141 43.4 141.2 44.2 140.9 44.1 C 141.8 44.8 141.2 45.8 142.6 46.8 C 142.4 47 143 47.8 142.4 47.8 C 143.1 48.9 142.6 47.3 142.9 47.3 C 144.4 48.9 143.9 52 145.7 54.5 C 146.8 56.8 147.6 57.1 148.5 59.3 C 148.4 60.1 147.6 58.8 147.6 58.8 C 147.6 60.1 147.9 61 148.4 62.2 C 148.2 62 148.1 62.3 147.9 62.7 C 148.1 63.6 148.8 63.2 148.7 64.5 C 148.4 64.3 148 64.1 147.7 63.7 C 148.1 64.8 148.6 65.8 149 67 C 148.7 67.3 148.4 66.4 148 66 C 148.4 67.3 148.8 69.3 149.4 69.7 L 149.5 68.8 C 149.6 69.3 149 69.1 148.9 68.8 C 148.3 67.7 148.9 67.1 149.1 67.1 L 149.3 67.9 C 150.4 66.9 148.7 64.6 148.4 62.9 L 149.4 63.4 L 148.3 61.8 C 148.5 61.4 148.9 61 149.2 61.8 C 149.4 60.5 148.7 60.8 148.9 59.7 C 148.9 59.6 149 59.6 149.1 59.7 L 148.6 58.6 C 148.8 58.8 149.2 58.3 149.2 59 C 149.2 56.7 147.6 55.8 148.1 54.8 L 148.2 55 C 147 52.2 147.5 54.9 146.1 53 L 147.1 51 L 146.4 51 C 146.3 50.7 146.1 50.1 146.4 50.1 C 145.6 49.2 146.2 50.4 145.6 49.9 C 145.6 48.3 143.8 46.2 144.6 45.5 C 143.9 45.2 144.8 46.9 143.8 45.7 C 144.7 44.8 142.9 44.1 142.7 42.7 C 143.4 42.8 143.7 44.1 143.6 42.7 C 142.3 42.4 142.5 40.2 141.8 39.3 C 141.1 39.6 140.2 37.3 139 35.8 C 139.3 35.8 137.3 32.5 136.4 30.9 L 136.5 30.8 C 135.7 31 134.6 29.5 133.6 28.5 C 134 28.2 134.3 28.3 135 28.7 L 134.2 27.7 C 133.8 27.7 133.4 27.4 132.8 26.9 L 133.5 26.7 C 132.3 25.4 130.7 24.6 129.4 22.8 C 128.9 23.1 129.6 25.1 127.7 23.8 C 127.9 23.5 128.2 23.1 128.7 23.4 C 128.5 23.3 128 23.1 127.8 22.7 L 128.8 23 C 128.2 22.2 128.2 23 127.6 22.4 C 127.9 22.1 127.4 21.8 127.7 21.6 C 127.9 21.7 128.1 22.2 128.4 22.3 C 127.8 21.6 127.1 20.7 127.1 20.2 C 127 20.4 126.7 20.6 126.2 20.2 C 124.9 19.1 126.1 19.4 125.4 18.6 C 124.9 18.6 124.3 17.6 123.8 18.1 C 123.4 17.8 123.5 17.5 123.5 17.2 C 122.6 16.9 120.1 14.8 120.5 15.9 L 120.7 16.1 L 120.5 16 C 117.8 14.8 115.8 12.3 113.1 11.1 L 113.2 10.9 C 111.6 10.3 109.8 9.3 108.5 9.2 C 108 9 107.6 8.3 107.9 8.2 C 106.6 7.8 106.4 7.9 104.8 6.9 C 106.2 7.1 104.5 6.4 106.2 7.2 C 104.7 6.4 104.5 5.9 102.5 5.8 C 103.3 5.5 101.5 4.7 100.7 4.6 L 101.7 5.4 C 100.8 5.2 100.1 4.9 99.3 4.6 L 99.9 4 C 96.7 2.1 93.4 3.8 91.1 1.8 C 90.1 2.1 92.9 2.5 92 2.9 C 90.4 2.5 89 1.2 88.4 1.1 C 86.2 0.4 86.2 1.9 83.9 1.4 C 84.2 1.7 84.4 2.4 82.6 2.5 C 81 2.3 80.7 1.3 81.8 1.2 C 82.2 1.2 82.4 1.3 82.3 1.4 C 82.8 1.3 83.5 1.3 82.9 0.9 L 82.7 1.1 C 81.9 0.8 79.7 0.7 80.2 0.3 C 78.9 0.5 79.6 0.7 80.5 0.9 C 78.5 0.4 77.2 0.8 75.1 0.6 C 75.4 0.8 75.7 1.1 75.4 1.1 C 72.3 0.9 74 1.6 71.9 1.8 C 70.7 1.5 72.3 0.9 70.2 1.3 C 68.9 1.1 69.9 0.6 70.4 0.4 C 68.5 1 66.7 0.5 65.5 0.5 L 66.5 0.2 C 65.9 0.4 65.4 0.5 64.9 0.5 L 65.5 1 C 64.9 1 64.4 1.1 64.4 0.8 C 63.8 1.3 65 1.6 63.9 2.2 C 63.1 2 61.5 2.9 61.1 2.3 C 63.6 2 60.7 1.7 62.8 1.2 C 62.4 1.4 61.9 1.4 61.3 1.5 C 61.2 1.4 61.3 1.3 61.5 1.3 C 59 1.2 60.6 2.3 58.1 2.9 C 58.3 2.4 57.3 2.3 57 2.5 C 58 2.2 57.6 3 56.8 3.5 C 55.2 3.6 55.2 4.2 54.4 4.4 L 55.4 4.2 C 55.2 4.7 54.4 4.8 53.4 5.3 C 53.2 5 54.3 4.8 53.9 4.8 C 52.9 5.8 51 5 49.5 6.1 C 48.6 6.1 49.2 5.4 48.4 5.5 C 46.8 6.7 46.2 5.8 44.5 7.1 C 45.3 7.3 45.3 7.2 44.2 8.2 C 45.1 7.6 46.1 7 47.1 6.5 L 45.4 8.1 C 46.3 7.7 47.2 6.9 47.8 6.8 C 47 7.6 47.1 7.4 47.7 7.6 C 46.1 7.4 45.4 9.1 43.8 9.3 L 43.3 8.1 C 40.8 8.7 39.8 10.6 36.9 12 L 37.9 11.7 C 37.8 12.3 36.3 12.8 35.5 13.5 C 35.3 13.1 34.7 13.3 34.2 13.3 C 34.4 13.6 32.3 14.6 32.6 15.5 L 31.2 15.9 C 29 17.3 29.7 18.6 27.7 20.1 C 27.9 19.3 26.9 19.8 27.9 18.5 C 27.3 19 26.7 19.4 26.9 19.7 C 26.3 19.8 25.6 21.6 24.8 21.9 C 24.7 22.3 24.9 22.7 24.3 23.3 C 24.1 23.3 24.1 23.1 24.1 23.1 C 24.3 23.3 23.3 24.3 24.2 24.1 C 21.5 24.9 19.6 29.2 17.4 30.2 L 14.4 34.8 C 14.4 34.6 14.2 34.7 14.4 34.5 C 12.8 36.1 14.7 36.3 13 38.2 C 11.7 38.9 13.3 36.9 12.7 37.4 C 11.3 36.9 11.3 40.1 9.8 41.2 L 10 40.8 C 8.9 41.7 9 43.8 8 45.7 C 8 45.7 7.9 45.5 7.8 45.6 C 7.9 47.2 7 49.8 6.6 51.8 C 6.3 51 6.6 50.9 6 51 C 5.8 51.9 6.9 51.1 6.5 52.8 C 6 53.3 5.4 54.4 4.8 54.4 L 5.3 52.8 C 4.3 53.4 4.6 54.9 4.2 55.8 L 3.9 55.6 C 3.3 58.2 4.1 58.4 3.4 61.1 L 3.7 60.9 C 4.2 62.6 3 62.1 3.3 63.7 L 2.4 64 C 2.4 65.1 2.7 67.6 2.7 69.5 C 2.2 68.4 2.1 66.3 1.9 64.9 C 1.7 65.9 1.5 68.4 1.9 68.9 C 1.9 68.5 1.7 68 1.9 67.6 C 2.4 68.9 2.6 70.5 2.5 72.5 C 0.1 71.4 1.2 77 0 78.5 C 0.8 82.1 0.2 85.7 1.1 89.8 C 2.1 88.1 1.4 91 2.6 90.5 C 2.9 91.5 2.9 91.8 2.9 91.9 C 2.8 92.9 2.8 93.9 2.8 94.9 C 2.6 95.7 2.3 94.1 2 94.2 C 2.4 96.3 1.7 95.2 1.7 96.7 C 2.1 96.3 2.6 97.2 2.8 98.4 L 2.8 96.7 C 4.4 99.4 2.5 99.5 4.2 102.2 L 3.5 101.4 C 4.2 102.8 5.6 106.8 7.2 107.7 C 7.2 108 7 108.5 6.6 107.9 C 8 111.4 11.4 114.7 12.4 117.4 L 12 117.4 C 12.5 117.9 13.1 118 13.4 119 C 13.3 119 13 119 13.1 119.2 C 13.4 119.4 14.6 120.4 15 121.2 L 14.2 120.8 C 16 124 18.3 124.7 20.5 126.7 C 19.8 127.3 21.5 129.6 22.4 130.7 L 22.3 130.8 C 25.3 133.8 28.2 135.1 31.5 137 C 32.8 139.3 38 142 41.3 144.2 C 40.8 143.7 41.7 143.6 42.4 143.8 C 43.1 144.4 44.9 144.3 44.4 145 L 44.1 144.8 C 44.4 145.9 46.2 146.4 47.6 147 L 48.2 146 C 49.7 147.5 52.1 148.2 54.3 148.7 C 56.5 149.2 58.6 149.5 59.5 150.4 C 60.5 150.3 61.6 150.6 62.5 150.4 L 62.3 151 C 64.8 151.6 66.1 151.9 69.2 152 L 68.5 152.4 C 70.3 152.6 70.9 150.8 72.5 150.8 L 73 151.7 C 76.1 151.8 79.3 152.5 82.3 151.5 C 82.3 151.6 82.2 151.9 81.7 152 C 83.2 152 87.5 152 86.7 150.8 C 86.9 151.6 89.9 150.4 91.4 149.7 L 91.2 150.4 C 92.5 149.3 92.5 149.1 94.3 148.5 C 94.8 148.5 94.8 148.8 94.2 148.8 C 95.8 148.7 95.2 148 97.1 147.7 L 96.5 148.3 C 98 147.9 97.9 147.7 98.5 147 C 99.4 146.5 101.4 146.2 101.8 146.6 C 101.9 146.2 102.6 145.5 103.5 145.3 C 103.7 145.5 103.4 145.7 103.3 145.8 C 106 145.2 106.7 143.6 108.6 143.4 C 108.7 143.6 108.9 143.6 109 143.6 C 107.1 144.5 105.5 145.2 105.6 145 C 105.8 145.5 107.5 144.9 106.5 146.2 C 107.6 145.2 109.4 143.4 110.9 142.9 C 111 142.9 111.1 142.9 111.2 143 L 111.1 143.2 C 111.4 143 111.7 142.9 112 142.6 C 112.5 142.4 112.8 142.3 113.3 142.1 C 113.7 142.4 115.2 141.3 115.9 140.9 C 115.5 140.4 116.5 139.9 115.3 140 C 115.5 140 115.2 140.2 114.8 140.5 C 114.7 140.6 114.6 140.7 114.5 140.7 L 114.5 140.6 C 114 140.9 113.4 141.3 112.7 141.7 C 113.1 141.1 113.6 140.5 114.6 140.3 C 114.8 139.7 114.9 139.1 115.1 138.8 C 116.5 139 118.6 138 119.2 138.3 C 121.2 136.5 124.1 134.4 124.5 132.4 C 125 131.8 125.3 132.1 125.7 132 C 125.5 132.4 125.1 132.7 125 133 C 125.9 131.8 128.2 130 127.8 129.1 C 129.4 128 127.6 130.4 129.3 128.5 L 129.3 128.9 C 131.5 127.6 132.6 125.6 133.6 123.7 C 134.6 121.8 135.5 119.8 137.8 118 C 137.5 118.3 137.3 118.4 137.2 118.4 C 141.5 113.6 143.3 106.9 146.5 101.5 C 147.3 99.9 146.9 99.5 146.9 98.4 L 147.6 98.2 L 147.4 96.2 C 147.6 93.5 150.2 92.2 149.7 88.6 L 149.2 88.9 C 149.5 87.7 149.5 85.1 150 85.4 C 149.9 85.2 149.6 84.9 149.9 84.5 L 150.2 84.5 C 150.2 83.5 150.1 82.5 149.9 81.5 C 150.3 79.3 151.3 82 151.5 78.6 C 151.4 77.3 150.6 75.1 150.3 75.5 C 150.3 76 150.1 76.8 149.7 76.8 L 149.6 75.7 C 148.6 75.5 147.6 74.7 146.8 77.3 L 147.3 79.2 L 146.8 79.8 L 146.9 78.2 C 146.4 79.1 146.8 79.6 147 80.3 C 146.7 80.4 146.5 80.7 146.4 81 L 147.2 82.9 C 146.8 83.1 146.5 82 146.2 83.2 C 146.5 84.1 147.2 82.5 147.3 83.9 C 146.7 84.7 146.4 84.4 146.7 85.5 C 146.4 85.6 146.3 85.3 146.2 84.9 C 146.4 85.9 146 87.3 146.4 87.9 C 145.7 88.7 145.9 91 145 90.7 C 145.2 91 145.4 92.4 145.2 93.3 C 144.5 91.6 144.3 96.4 143.2 95.6 C 143.9 97 142.4 99.6 142.2 101.7 C 142.2 101.6 142.1 101.3 142.2 101.2 C 141.7 102.2 141.3 102.4 140.8 103 C 141.5 103.5 141 105.2 141.1 106.3 C 139.8 107.2 140.6 105.1 139.7 105.2 C 140.4 105.4 139.3 107.7 140 107.5 C 139.1 108.2 139.4 108.2 138.5 108.4 C 139.3 109.1 138.2 109.4 138.3 110.5 C 137.1 111.6 137.3 110.3 136.7 112 C 136.3 112.8 136.7 111.3 136.7 111.3 M 58.5 52 C 59.9 44.6 79.6 50.4 84.5 54 C 90.5 58.6 100 72 107.8 73.4 C 113.6 74.5 141.6 67.3 130.9 78.5 C 111 87.3 93.8 77.6 93.8 77.6 C 93.8 77.6 84.7 85.4 84.2 83.7 C 83.7 82 94 93.7 90.1 99.5 C 81.5 106.6 63.4 119.1 59.8 112.1 C 54.4 104.2 85.7 101.5 77.3 90.7 C 73.2 84.2 53.2 110.7 42.5 105.6 C 34.9 94.2 84.6 68.4 84.6 68.4 C 85.3 59.3 57.1 59.4 58.5 52 M 107.2 47 C 101.3 46.5 96.1 51 95.7 56.9 C 95.2 62.8 99.7 68 105.6 68.4 C 111.5 68.9 116.7 64.4 117.1 58.5 C 117.5 52.7 113.1 47.5 107.2 47 M 80.4 67.9 C 69.2 71.8 43.3 89.9 43.3 89.9 C 43.3 89.9 40.8 91.3 34.4 84.7 C 30.4 74.9 16.9 74.5 16.9 74.5 C 16.9 74.5 32.1 68.2 44.8 63.9 C 44.5 64.5 44.3 65.2 44.1 66 C 48.9 64.6 46.6 70.3 45.3 71 C 45.4 71.3 45.2 71.5 45.4 71.4 C 47.7 70.4 47.8 70 49.2 67.9 C 50.5 65.8 51.3 63.6 50 62.2 C 53 61.3 55.7 60.6 57.8 60.3 C 61.5 59.7 69.2 60.9 72.6 62.6 C 74.4 63.5 80.6 65.9 80.4 67.9 M 41.8 73.1 C 42 73 44.8 71.9 45 71.7 C 45.1 71.6 45.1 71.1 45.1 71.2 C 44.8 71.5 39.7 72.9 41.6 69.1 C 37.4 70.2 38.9 74.3 41.8 73.1 M 38.4 76.6 L 58.5 64.3 C 56 63.5 53.1 64.1 51.7 65 C 49.5 66.3 49.2 69.7 46.5 71.1 L 45 71.9 L 40.9 73.6 C 38.7 74.5 39.2 75.6 38.4 76.6 M 46.6 77.2 C 42.4 77.1 46 73.3 46.3 73.1 C 46.4 73.1 45.9 72.9 45.8 72.9 C 45.6 73 43.3 75 43.1 75.2 C 40.7 77.2 43.6 80.5 46.6 77.2 M 56.7 74 C 56.7 71.2 53.9 70.8 51.1 71 C 48.6 71.2 48.2 71.2 46.3 72.7 C 46.1 72.9 46.4 72.7 46.6 73 C 47.8 72.1 54 72.7 50.5 76.4 C 56.4 78 56.7 74.5 56.7 74 M 58.6 64.4 L 38.4 76.6 C 39.7 76.3 40.4 77.3 42.2 75.8 L 45.6 72.9 L 47 71.9 C 49.4 70.1 52.6 71.3 54.8 70 C 56.3 69.2 58.2 66.9 58.6 64.4"
        fill="#000000"/>
</svg>
