<?xml version="1.0" encoding="UTF-8" standalone="no"?><svg xmlns:android="http://schemas.android.com/apk/res/android" height="152.2" width="151.8" xmlns="http://www.w3.org/2000/svg">

<path d="m115.7,142.6c-0.5,0.3 -0.7,0.3 -0.8,0.3 0.2,-0.1 0.5,-0.3 0.8,-0.6v-0.1c0,0.2 0,0.3 0,0.4m-8.5,-0.3c0.4,-0.2 0.9,-0.4 1.4,-0.6 0.2,0.1 0.2,0.4 -0.1,0.5 0,-0.2 -0.8,0 -1.3,0.1m30.4,-29.9c-0.9,1.4 0.3,1.1 0.5,1.6 -0.9,1.9 -1,0.5 -1.7,0.9 -0.5,1.2 -0.5,2.4 -1,3.2 -0.2,0 -0.3,0.1 -0.3,-0.1 -0.3,1.5 -2.3,3.2 -2.7,4.9 -0.1,0 -0.2,0 -0.3,0 0.5,0 0.8,0.3 1,0.5 -0.5,0.6 -0.6,1.5 -1.2,1.3 0.3,-0.3 0.2,-0.5 0.2,-0.8l-0.4,0.8c-1,0 0.6,-1 0.1,-1.4 -0.8,1.4 -1.6,3.2 -2.6,3.9 -0.7,-0.3 1.8,-2.3 0.2,-1.5 0.5,-0.4 1,-0.8 1.5,-1.2 -1.8,0.3 0.8,-0.8 -1,-0.6 -1.8,1.7 -1.5,2.3 -3.4,3.8 -0.1,0.6 0.5,0.3 0.4,1 -2.1,2.9 -3.2,0.5 -4.5,2.9 -0.2,0.8 0.2,1.7 -1.5,2.4v-1.1c-1.9,1.4 -0.3,1.8 -2.7,2.8 0.2,-0.5 1.4,-1.3 1,-1.2 -1.7,0.4 -0.6,1.1 -1.7,1.8l-0.6,-0.5c-2,1.5 -4.1,3.4 -6.6,4.8 0,-0.3 0.3,-0.7 -0.3,-0.6 -2.9,2 -6.8,3.1 -10.2,3.8l-1,1c-0.3,0.1 -0.6,-0.1 -0.3,-0.3 -1.4,0.2 0,0.4 -0.5,0.8 -0.7,0.3 -1.1,-0.1 -0.7,-0.4 -2,1.2 -6.2,2.8 -8.8,2.4l0.5,-0.3c-1.9,0 -2,1.6 -3.8,1.2l0.3,-0.1c-4.2,0.2 -8.8,0.8 -12,-0.3 -0.7,0.9 -4.1,-0.8 -4.5,0.5 -2.3,-0.9 -1.6,-1 -4.8,-2 -0.9,-0.2 -1.5,0.5 -2.6,0.4l0.1,-0.6 -1.6,0.3 -0.6,-1 -1,-0.1c0.4,0.1 0.8,0.5 0.6,0.7 -1.7,-0.1 -3.6,-1.6 -3.6,-1.9 -1.3,-0.2 -2.5,-0.5 -3.8,-0.8 0.2,-0.2 0.8,-0.1 1.4,-0.1 -2.1,-0.1 -0.1,-0.8 -2,-0.9 0.1,0.2 -0.3,0.3 -0.4,0.4 -0.7,-0.7 -2.6,-1.6 -4.1,-2.1l0.5,-0.3c-2.5,-1.3 -5.4,-2.6 -8,-4.3 0.8,0.8 0.2,1.3 -0.6,0.9l0.1,-0.8c-0.8,0 0.7,0.8 -0.7,0.5 -0.9,-0.7 -0.2,-1.1 0.5,-0.9l-1.3,-0.6c0,-0.2 0.4,-0.2 0.6,-0.3 -0.8,0 -1.6,-2 -2.7,-1.9l0.1,-0.2c-2.5,-2 -3.7,-2.7 -5.6,-4.4 -0.5,0.4 -1.1,-0.4 -2,-0.6 -1.2,-1.5 -2.3,-3.4 -3.8,-5.1 -1.2,-1.1 -0.7,0 -1.4,-0.4 0.3,-0.5 -1.1,-2.2 -0.1,-1.5 -1.7,-2.1 -2.2,-2.7 -4.5,-5.4 0,0.5 0.2,0.9 -0.1,0.8 -0.4,-0.5 -0.6,-1.4 -0.3,-1.4l0.1,0.1c-2.9,-3 -2.9,-8.7 -5.1,-11.1l0.1,0.2c-0.6,-0.9 -1.1,-1.8 -1.7,-2.8 -0.4,-1.4 0.7,0.7 0.6,-0.4 -2,-3 -1.5,-5.3 -2.7,-7.9 1.1,-2.4 -1.5,-7.8 -0.6,-10.8l-0.4,0.2c-0.4,-0.8 0.2,-0.9 0.2,-1.5 -0.3,0.1 -0.3,0.8 -0.5,0.4 -0.8,-6.6 0.9,-13.6 2.7,-19.9 0.7,-2.3 -1.6,-1.8 0.1,-4.6l0.5,1.1c0.6,-5 3.4,-9.5 5.1,-14 0,0.3 0.2,0.5 0,0.9 0.9,-0.7 1.9,-3.3 1.5,-3.5 0.5,-0.6 0.4,0 0.9,-0.2 0.7,-0.7 0.8,-2.5 1.5,-2.7 0.1,0 0,0.3 -0.1,0.5 0.1,-0.7 1.8,-2.5 1,-2.3 1.3,-1.3 1.9,-3 3.1,-3.8 0.1,-1.2 2.3,-2.1 1.8,-3 0.6,0.8 2.7,-1.8 3.3,-2.9 -0.1,0.5 0.9,-0.5 0.9,0.1 0.9,-0.9 1.7,-1.8 1.2,-2 2.6,-0.7 3.2,-3.9 5.2,-3.5 2.8,-2.7 5.8,-4.9 8.8,-6.8 0.3,0.9 -3.4,2 -2.7,2.8 2.6,-2 4,-3.7 7.2,-4.8 0.8,-0.2 -0.3,0.6 -0.5,0.9 2.9,-1.7 6,-2.3 8.7,-3.7 0,0.1 -0.3,0.3 -0.5,0.4 0.6,-0.2 1.4,-0.2 1.2,-0.6l-0.5,0.3c-1.1,-0.3 1.9,-1.9 2,-2.3 -0.7,1.5 3,-0.4 1.8,1.5 0.4,-0.2 0.8,-0.5 0.6,-0.8 0.6,0 0.8,0.1 0.3,0.5 2,-0.7 1.2,-1 3.1,-1.3 0,0.2 -0.3,0.4 -0.5,0.6 0.9,-0.6 1.8,-1.2 3.4,-1.2 -0.1,0.1 0.1,0.3 -0.3,0.3 2.7,-0.4 4.6,-1.7 7.7,-1.4 -1.2,0.6 0.7,0 0.9,0.8l1.7,-0.2 -0.6,-0.4c1.4,0 2.7,-0.5 3.9,-0.2l-1.1,0.3c0.9,0 1.8,0 2.7,0l-1.5,-0.4c1.5,-0.3 -0.1,-1 1.8,-0.6 -0.4,-0.1 1.5,0 2.2,0.6 0.8,-0.2 1.5,-0.3 2.6,0 0.2,0.3 -0.3,0.8 -0.2,1 0.8,-0.6 3.4,0.4 4.4,-0.1 -0.4,0.1 -0.5,0.5 -0.4,0.6l0.7,-0.4c0.6,0.3 0.7,0.5 0.5,0.8 2,0.6 -0.4,-1.2 1.8,-0.1 -0.2,0 -0.1,0.1 -0.5,0.1 2.3,0.8 4.6,0.9 6.6,1.9 0.3,1 -1.9,-0.4 -1.4,0.5 3,0.9 6.5,1.4 9.2,2.9l-0.5,-0.3c0.9,-0.8 1.8,1.5 3.4,1.8 -0.4,-0.1 -0.8,0.3 -0.6,0.3 1.7,1.2 3.9,1.8 6.7,3.4h-0.5c0.9,0.9 2.6,2 3.6,2.9 0.5,0 1.1,0.5 0.9,-0.1 2.2,3.8 6.7,4.6 8.2,8.2 -0.3,-0.3 -0.9,-0.6 -0.7,-0.3 0.8,0.7 1.5,1.4 2.3,2.2 0.2,-0.5 0,-0.5 -0.2,-1.3 0.5,0.1 1.2,0.6 1.8,1.2 -1.2,-0.9 -0.6,0.5 -0.4,1.2 0.1,-0.2 0.3,-0.1 0.4,-0.3 0.3,1.8 1,-0.4 1.9,1.8h-0.3c0.6,0.6 1.4,1.1 1.8,1.8 -0.2,0.6 -0.7,-0.6 -1.2,-0.3 0.8,1 2.4,1.5 2.5,2.7 -0.4,-0.4 -0.9,-1 -1.3,-1.4 0.2,1.4 0.4,1.5 0.8,2.3v-0.1l0.9,2 -0.1,-0.6c2.1,0.6 1.9,2.6 3.8,4.1 -1.8,-1.4 -0.6,-0.1 -1.3,0.1 0.1,0.6 0.3,1.4 0,1.2 0.9,0.7 0.3,1.7 1.7,2.6 -0.2,0.1 0.4,1 -0.2,1 0.7,1.1 0.2,-0.5 0.5,-0.5 1.5,1.6 1,4.7 2.8,7.1 1.1,2.3 1.9,2.6 2.8,4.8 -0.1,0.8 -0.9,-0.5 -0.9,-0.5 0,1.3 0.3,2.2 0.8,3.4 -0.2,-0.2 -0.3,0.1 -0.5,0.5 0.2,0.9 0.9,0.5 0.8,1.8 -0.3,-0.1 -0.7,-0.4 -1,-0.8 0.4,1.1 0.9,2.1 1.3,3.3 -0.3,0.3 -0.6,-0.6 -0.9,-1 0.4,1.3 0.8,3.3 1.4,3.7l0.1,-0.9c0.1,0.5 -0.5,0.3 -0.6,0 -0.6,-1.1 0,-1.7 0.2,-1.7l0.2,0.8c1.1,-1 -0.6,-3.3 -0.9,-5l1,0.5 -1.1,-1.6c0.2,-0.4 0.6,-0.8 0.9,0 0.2,-1.3 -0.5,-1 -0.3,-2.1 0,-0.1 0.1,-0.1 0.2,0l-0.5,-1.1c0.2,0.2 0.6,-0.3 0.6,0.4 0,-2.3 -1.5,-3.2 -1.1,-4.2l0.1,0.2c-1.2,-2.8 -0.7,-0.1 -2.1,-2l1,-2h-0.7c-0.1,-0.3 -0.3,-0.9 0,-0.9 -0.8,-0.9 -0.2,0.3 -0.8,-0.2 0,-1.6 -1.8,-3.7 -1,-4.4 -0.7,-0.3 0.2,1.4 -0.8,0.1 0.9,-0.9 -0.9,-1.6 -1.1,-3 0.7,0.1 1,1.4 0.9,0 -1.2,-0.3 -1.1,-2.5 -1.8,-3.4 -0.7,0.3 -1.5,-2 -2.8,-3.5 0.3,0 -1.7,-3.2 -2.6,-4.8l0.1,-0.1c-0.8,0.2 -1.8,-1.3 -2.9,-2.3 0.4,-0.3 0.7,-0.2 1.4,0.2l-0.8,-1c-0.4,0 -0.8,-0.3 -1.4,-0.8l0.7,-0.2c-1.2,-1.3 -2.8,-2.1 -4.1,-3.9 -0.5,0.3 0.2,2.3 -1.7,1 0.2,-0.3 0.5,-0.7 1,-0.4 -0.2,-0.1 -0.7,-0.3 -0.9,-0.7l1,0.3c-0.6,-0.8 -0.6,0 -1.2,-0.6 0.3,-0.3 -0.2,-0.6 0.1,-0.8 0.2,0.1 0.4,0.6 0.7,0.7 -0.6,-0.7 -1.2,-1.6 -1.3,-2.1 -0.1,0.2 -0.4,0.4 -0.9,0 -1.3,-1.1 -0.1,-0.8 -0.8,-1.6 -0.5,0 -1.1,-1 -1.6,-0.5 -0.4,-0.3 -0.3,-0.6 -0.3,-0.9 -0.9,-0.3 -3.3,-2.4 -2.9,-1.3l0.1,0.2 -0.1,-0.1c-2.6,-1.2 -4.7,-3.7 -7.3,-4.8l0.1,-0.2c-1.6,-0.6 -3.4,-1.6 -4.7,-1.7 -0.5,-0.2 -0.9,-0.9 -0.6,-1 -1.3,-0.4 -1.5,-0.3 -3.1,-1.3 1.4,0.2 -0.3,-0.5 1.4,0.3 -1.5,-0.8 -1.7,-1.3 -3.6,-1.4 0.8,-0.3 -1,-1.1 -1.8,-1.2l1,0.8c-0.9,-0.2 -1.6,-0.5 -2.4,-0.8l0.6,-0.6c-3.2,-1.9 -6.4,-0.2 -8.7,-2.2 -1,0.3 1.8,0.7 0.9,1.1 -1.5,-0.4 -3,-1.7 -3.5,-1.8 -2.1,-0.7 -2.2,0.8 -4.4,0.3 0.3,0.3 0.5,1 -1.2,1.1 -1.5,-0.2 -1.9,-1.2 -0.8,-1.3 0.4,0 0.6,0.1 0.5,0.2 0.5,-0.1 1.2,-0.1 0.6,-0.4l-0.2,0.2c-0.8,-0.3 -3,-0.4 -2.4,-0.8 -1.2,0.2 -0.6,0.4 0.3,0.6 -2,-0.5 -3.2,-0.1 -5.3,-0.3 0.3,0.1 0.6,0.5 0.3,0.5 -3.1,-0.2 -1.4,0.5 -3.4,0.7 -1.2,-0.3 0.4,-0.9 -1.7,-0.4 -1.3,-0.2 -0.3,-0.7 0.2,-0.9 -1.9,0.6 -3.7,0.1 -4.8,0.1l1,-0.3c-0.6,0.2 -1.1,0.3 -1.6,0.3l0.6,0.5c-0.6,0 -1.1,0.1 -1.1,-0.1 -0.6,0.5 0.6,0.8 -0.5,1.4 -0.8,-0.2 -2.3,0.7 -2.7,0.1 2.5,-0.3 -0.4,-0.6 1.7,-1.1 -0.4,0.1 -0.9,0.2 -1.5,0.3 -0.1,-0.1 0,-0.1 0.2,-0.2 -2.5,-0.1 -0.9,1 -3.3,1.5 0.2,-0.4 -0.8,-0.6 -1.1,-0.4 1,-0.3 0.6,0.5 -0.2,1 -1.6,0.1 -1.6,0.7 -2.4,0.9l0.9,-0.1c-0.2,0.5 -1,0.6 -2,1.1 -0.2,-0.3 0.9,-0.5 0.5,-0.5 -1,1 -2.9,0.2 -4.3,1.3 -0.9,0 -0.3,-0.7 -1.1,-0.6 -1.6,1.2 -2.2,0.3 -3.9,1.5 0.8,0.2 0.8,0.1 -0.3,1.1 0.9,-0.6 1.9,-1.2 2.9,-1.7l-1.7,1.5c0.9,-0.4 1.8,-1.2 2.4,-1.3 -0.8,0.8 -0.7,0.6 -0.1,0.8 -1.6,-0.2 -2.3,1.5 -3.9,1.7l-0.5,-1.2c-2.4,0.6 -3.5,2.5 -6.3,3.9l1,-0.3c-0.1,0.6 -1.6,1.1 -2.3,1.8 -0.2,-0.4 -0.8,-0.2 -1.3,-0.2 0.2,0.3 -1.9,1.3 -1.6,2.1l-1.4,0.4c-2.1,1.4 -1.5,2.7 -3.4,4.1 0.2,-0.8 -0.8,-0.3 0.2,-1.6 -0.6,0.5 -1.2,0.9 -1,1.2 -0.6,0.1 -1.3,1.9 -2.1,2.1 -0.1,0.4 0.1,0.8 -0.5,1.4 -0.1,0 -0.1,-0.1 -0.1,-0.1 0.2,0.1 -0.8,1.2 0.1,1 -2.7,0.8 -4.6,5.1 -6.7,6.1l-2.9,4.6c0,-0.2 -0.2,-0.1 0,-0.3 -1.5,1.6 0.3,1.8 -1.4,3.7 -1.2,0.7 0.3,-1.3 -0.3,-0.8 -1.4,-0.5 -1.4,2.7 -2.9,3.8l0.1,-0.4c-1.1,0.9 -1,3 -2,4.9 0,0 -0.1,-0.1 -0.2,-0.1 0.1,1.6 -0.8,4.2 -1.2,6.1 -0.3,-0.8 0,-0.9 -0.6,-0.8 -0.2,0.9 0.9,0.1 0.5,1.8 -0.5,0.5 -1.1,1.6 -1.7,1.6l0.5,-1.6c-1,0.6 -0.7,2.1 -1.1,2.9l-0.3,-0.2c-0.6,2.6 0.2,2.8 -0.4,5.5l0.3,-0.2c0.5,1.7 -0.7,1.2 -0.4,2.8l-1.6,0.4c0,1.1 0.3,3.6 0.3,5.4 -0.5,-1.1 -0.6,-3.2 -0.8,-4.6 -0.2,1 -0.4,3.4 0,4 0,-0.4 -0.2,-0.9 0,-1.3 0.5,1.3 0.7,2.9 0.6,4.9 -1.7,-0.5 -0.6,5.1 -1.8,6.6 0.8,3.5 0.2,7.1 1.1,11.2 1,-1.7 0.3,1.2 1.5,0.7 0.3,0.9 0.3,1.3 0.3,1.4 -0.1,1 -0.1,2 -0.1,3 -0.2,0.8 -0.5,-0.8 -0.8,-0.7 0.4,2.1 -0.3,1 -0.3,2.5 0.4,-0.4 0.9,0.5 1.1,1.7l0.1,-1.8c1.5,2.6 -0.3,2.8 1.4,5.5l-0.7,-0.8c0.7,1.4 2.1,5.4 3.7,6.3 0,0.3 -0.2,0.8 -0.6,0.2 1.4,3.5 4.7,6.7 5.8,9.4h-0.4c0.5,0.5 1.1,0.6 1.4,1.5 -0.1,0 -0.4,0 -0.3,0.2 0.3,0.2 1.5,1.2 1.9,2l-0.7,-0.4c1.8,3.2 4.1,3.8 6.2,5.9 -0.7,0.6 1,2.9 1.9,4l-0.1,0.1c3,3 5.8,4.2 9.1,6.2 1.3,2.3 6.5,4.9 9.7,7.2 -0.5,-0.5 0.4,-0.6 1.1,-0.4 0.7,0.6 2.5,0.5 2,1.2l-0.3,-0.2c0.3,1.1 2.1,1.6 3.4,2.2l0.6,-1c1.5,1.5 3.9,2.2 6.1,2.6 2.2,0.5 4.3,0.8 5.1,1.7 0.9,-0.1 2.1,0.1 3,0l-0.2,0.6c2.5,0.6 3.7,0.9 6.9,1l-0.7,0.4c1.8,0.2 2.4,-1.6 4,-1.5l0.5,0.9c3,0.1 6.2,0.8 9.2,-0.2 0,0.1 -0.1,0.4 -0.6,0.5 1.5,0 5.7,0 5,-1.2 0.2,0.8 3.2,-0.4 4.7,-1.1l-0.2,0.7c1.2,-1.1 1.2,-1.3 3,-1.9 0.5,0 0.5,0.3 -0.1,0.3 1.6,-0.1 1,-0.8 2.9,-1.1l-0.6,0.6c1.5,-0.4 1.4,-0.6 2,-1.3 0.9,-0.5 2.9,-0.8 3.3,-0.4 0.1,-0.4 0.8,-1.1 1.7,-1.3 0.2,0.1 -0.1,0.4 -0.2,0.5 2.6,-0.6 3.3,-2.2 5.2,-2.4 0.1,0.2 0.3,0.2 0.4,0.2 -1.9,0.9 -3.5,1.5 -3.3,1.4 0.2,0.5 1.8,-0.1 0.9,1.2 1.1,-0.9 2.8,-2.7 4.4,-3.3 0.1,0 0.2,0 0.3,0.1l-0.1,0.1c0.3,-0.1 0.6,-0.3 0.9,-0.6 0.5,-0.1 0.8,-0.3 1.3,-0.5 0.4,0.3 1.8,-0.8 2.6,-1.2 -0.4,-0.5 0.6,-1 -0.6,-0.9 0.2,0 -0.1,0.2 -0.5,0.5 -0.1,0.1 -0.2,0.1 -0.3,0.2v-0.1c-0.5,0.3 -1.1,0.7 -1.8,1.1 0.4,-0.6 0.9,-1.2 1.9,-1.4 0.1,-0.6 0.3,-1.2 0.5,-1.5 1.4,0.2 3.5,-0.8 4.1,-0.5 2,-1.8 4.8,-3.9 5.3,-5.8 0.5,-0.6 0.8,-0.3 1.2,-0.4 -0.2,0.4 -0.6,0.7 -0.7,1 0.9,-1.2 3.1,-3 2.8,-3.8 1.5,-1.1 -0.2,1.2 1.5,-0.6v0.4c2.2,-1.3 3.2,-3.2 4.2,-5.1 1,-1.9 1.9,-3.8 4.2,-5.6 -0.3,0.3 -0.5,0.4 -0.6,0.4 4.3,-4.8 6.1,-11.4 9.2,-16.8 0.8,-1.6 0.4,-2 0.4,-3.1l0.7,-0.2 -0.2,-2c0.2,-2.6 2.7,-4 2.3,-7.5l-0.5,0.3c0.3,-1.2 0.3,-3.7 0.8,-3.5 -0.1,-0.2 -0.4,-0.5 -0.1,-0.9h0.3c0,-1 -0.1,-2 -0.3,-3 0.4,-2.2 1.4,0.5 1.6,-2.9 -0.1,-1.2 -0.9,-3.5 -1.2,-3 0,0.5 -0.2,1.2 -0.6,1.3l-0.1,-1.1c-1,-0.2 -2,-1 -2.7,1.6l0.5,1.8 -0.5,0.6 0.1,-1.5c-0.5,0.9 -0.1,1.4 0.1,2.1 -0.3,0.1 -0.5,0.4 -0.6,0.7l0.8,1.9c-0.4,0.1 -0.7,-0.9 -1,0.3 0.3,0.9 0.9,-0.7 1.1,0.7 -0.6,0.8 -0.9,0.5 -0.6,1.6 -0.3,0.1 -0.4,-0.1 -0.5,-0.6 0.2,0.9 -0.2,2.4 0.2,3 -0.7,0.8 -0.5,3.1 -1.4,2.8 0.2,0.3 0.4,1.7 0.2,2.6 -0.7,-1.7 -0.9,3.1 -2,2.3 0.7,1.4 -0.8,4 -1,6.1 0,-0.1 -0.1,-0.4 0,-0.5 -0.5,1 -0.9,1.2 -1.4,1.8 0.7,0.5 0.2,2.2 0.3,3.2 -1.3,0.9 -0.5,-1.2 -1.4,-1.1 0.7,0.2 -0.4,2.4 0.3,2.3 -0.9,0.7 -0.6,0.7 -1.5,0.9 0.8,0.7 -0.3,1 -0.2,2 -1.2,1.1 -1,-0.1 -1.6,1.5 -1,0.5 -0.6,-1 -0.6,-1m-10.3,-53.3c-0.5,-15.2 -13.3,-27.2 -28.6,-26.7 -7.5,0.3 -14.5,3.5 -19.5,9.1l-2.1,2.1 -1.1,-1.2c-5.2,-6.1 -12.9,-9.7 -21,-9.7 -15.2,0 -27.6,12.4 -27.6,27.6 0,7.5 3,14.6 8.4,19.9 0,0 2.4,2.5 5.7,6.1l-1.6,1.6c-2.9,2.9 -2.8,7.7 0.1,10.5 1.4,1.4 3.3,2.2 5.3,2.2 0.3,0 0.6,0 0.9,-0.1 0,2.1 0.8,4.1 2.4,5.7 1.8,1.8 4.2,2.5 6.5,2.2 -0.1,2.1 0.6,4.2 2.3,5.8 1.8,1.7 4.1,2.4 6.4,2.1 -0.1,2.1 0.8,4.2 2.4,5.9 1.5,1.5 3.6,2.3 5.7,2.3 1.6,0 3.1,-0.5 4.3,-1.4l0.2,0.2c2,2.1 4.5,3.1 7,3.1 1.9,0 3.8,-0.7 5.2,-2 2,-1.9 2.5,-4.6 1.9,-7.4 0.5,0.1 1,0.3 1.5,0.3 2,0 3.9,-0.7 5.4,-2.1 2,-1.9 2.6,-4.7 2.1,-7.5 0.5,0.1 1.1,0.3 1.6,0.3 2,0 3.9,-0.7 5.3,-2.1 2,-1.9 2.6,-4.8 2,-7.6 0.5,0.1 1.1,0.3 1.6,0.3 2,0 4,-0.7 5.5,-2.2 1.5,-1.4 2.4,-3.4 2.4,-5.6 0.1,-2.5 -0.9,-5 -2.8,-6.9l-0.1,-0.1 3.5,-3.5c5.7,-5.3 9,-13.1 8.8,-21.2m-11.5,18.8c0,0 -1.3,1.3 -3.5,3.5l-2,-2.1 -17.2,-18.5c-0.1,-0.2 -0.2,-0.4 -0.4,-0.6l-1.1,-1.2 -3.5,3.2c-2.2,2.2 -6.2,6.2 -6.2,6.2 -3.3,3.3 -7.6,5.1 -12.3,5.2 0,0 -0.1,0 -0.1,0 -4.6,0 -8.9,-1.8 -12.2,-5 0,0 -0.1,-0.1 -0.1,-0.1 1.7,-1.7 12.8,-12.7 17.7,-17.5l4.6,-4.7c1.4,-1.4 2.2,-2.2 2.2,-2.2 4.5,-5 10.5,-7.8 17.1,-8 0.3,-0.1 0.6,-0.1 0.9,-0.1 12.9,0 23.6,10.3 24,23.2 0.2,7.1 -2.6,13.9 -7.9,18.7m-3.5,8.6c1.2,1.2 1.8,2.8 1.8,4.4 0,1.2 -0.5,2.3 -1.3,3.1 -1.9,1.8 -5.2,1.5 -7.4,-0.7l-11.9,-12c-0.7,-0.7 -1.8,-0.7 -2.5,0 -0.7,0.7 -0.7,1.8 0,2.5l12.2,12.3c2.2,2.3 2.4,5.6 0.6,7.4 -1.7,1.6 -4.7,1.4 -6.9,-0.5 -0.1,-0.1 -0.2,-0.1 -0.2,-0.1l-11.9,-12c-0.7,-0.7 -1.8,-0.7 -2.5,0 -0.7,0.7 -0.7,1.8 0,2.5l12.2,12.4c0,0 0.1,0.1 0.1,0.1 1.8,2.2 1.9,5.2 0.1,6.9 -1.8,1.7 -5,1.4 -7.2,-0.7 -0.1,-0.1 -0.1,-0.1 -0.2,-0.2l0.4,-0.4c1.4,-1.4 2.1,-3.3 2.1,-5.2 0,-2.1 -0.9,-4.1 -2.4,-5.6 -1.5,-1.5 -3.5,-2.3 -5.6,-2.3 0,0 0,0 -0.1,0 -0.3,0 -0.6,0 -0.8,0.1 0,-0.1 0,-0.2 0,-0.3 0,-2 -0.8,-3.9 -2.3,-5.4 -1.5,-1.4 -3.4,-2.2 -5.4,-2.2 -0.5,0 -0.9,0.1 -1.3,0.1 0,-2 -0.8,-4 -2.4,-5.6 -1.5,-1.5 -3.5,-2.3 -5.5,-2.3 0,0 0,0 -0.1,0 -0.3,0 -0.5,0 -0.8,0.1 0.1,-2 -0.7,-4.1 -2.2,-5.6 -2.9,-2.9 -7.7,-2.9 -10.5,0l-6.5,6.6 -5.6,-6c-4.8,-4.8 -7.4,-11 -7.4,-17.5 0,-13.3 10.8,-24.1 24.1,-24.1 7.1,0 13.8,3.1 18.4,8.5l1.3,1.4 -21.1,21c-0.7,0.7 -0.8,1.7 -0.1,2.4l1.4,1.5c4,3.9 9.2,6.1 14.8,6 5.6,0 10.8,-2.2 14.8,-6.2l6.8,-6.9 21,22.5m-26.3,35.4c-0.7,0.7 -1.7,1 -2.7,1 -1.5,0 -3.1,-0.7 -4.4,-2 0,0 -0.1,-0.1 -0.2,-0.2l6.2,-6.3c0,0 0.1,0.1 0.1,0.1l0.3,0.3c2.2,2.2 2.4,5.4 0.7,7.1m-14.3,-0.9c-1.2,0 -2.3,-0.4 -3.1,-1.3 -1.6,-1.6 -1.8,-4.1 -0.4,-5.7l10.6,-10.7c0.1,-0.1 0.1,-0.1 0.2,-0.2l0.1,-0.1c0.7,-0.7 1.7,-1.1 2.7,-1.1 1.2,0 2.3,0.5 3.1,1.3 0.9,0.8 1.3,1.9 1.4,3.1 0,1 -0.4,2 -1.1,2.7l-10.8,10.9c-0.7,0.7 -1.6,1.1 -2.7,1.1m-11.9,-9.2c-1.6,-1.6 -1.6,-4.1 -0.1,-5.6l10.8,-11c0.7,-0.7 1.7,-1.2 2.8,-1.2 1.1,0 2.1,0.4 2.9,1.2 0.8,0.8 1.2,1.8 1.2,2.9 0,1 -0.4,2 -1.1,2.8l-10.8,11c-1.6,1.4 -4.1,1.4 -5.7,-0.1m-8.7,-8.1c-1.6,-1.6 -1.7,-4 -0.4,-5.5l10.3,-10.5c0.1,-0.1 0.1,-0.1 0.2,-0.2l0.1,-0.1c0.7,-0.7 1.6,-1.1 2.6,-1.1 1.1,0 2.2,0.4 3,1.3 1.6,1.6 1.8,4.1 0.3,5.6l-10.5,10.7c-1.4,1.5 -4,1.4 -5.6,-0.2m-3.1,-7.8c-0.7,0.7 -1.7,1.1 -2.7,1.1 -1,0 -2,-0.4 -2.8,-1.1 -1.5,-1.5 -1.6,-4 -0.1,-5.5l10.6,-10.7c0.7,-0.8 1.7,-1.1 2.7,-1.1 1,0 2,0.4 2.8,1.1 1.5,1.5 1.6,4 0.1,5.5l-10.6,10.7" fill="#2e2b2c"/>
</svg>