<?xml version="1.0" encoding="UTF-8" standalone="no"?><svg xmlns:android="http://schemas.android.com/apk/res/android" height="317.0" width="316.0" xmlns="http://www.w3.org/2000/svg">
    <path d="M135.2,1.3c-1.2,0.6 -2.2,1.6 -2.2,2.4 0,0.7 -0.7,1.3 -1.5,1.3s-1.2,-0.6 -0.9,-1.4c0.4,-1.2 -0.2,-1.4 -2.7,-1.1 -1.8,0.3 -3.7,0.9 -4.3,1.5 -0.5,0.5 -2.1,1 -3.5,1 -1.3,0 -2.2,0.3 -1.8,0.6 1.2,1.2 -8.5,5.4 -13.1,5.8 -2.6,0.2 -5.4,0.6 -6.2,0.9 -0.8,0.3 -2.7,0.8 -4.2,1.1 -1.6,0.4 -2.8,1.2 -2.8,2 0,0.7 -1.2,1.6 -2.8,1.9 -2.5,0.5 -7,3.5 -13.1,8.7 -1.3,1.1 -3.2,2 -4.2,2s-2.6,1.1 -3.7,2.5 -2.4,2.5 -3,2.5c-0.6,0 -2.1,1.3 -3.4,2.8 -1.3,1.6 -2.8,2.7 -3.4,2.5 -1,-0.3 -7.4,6.8 -7.4,8.2 0,0.7 0.2,0.5 -9.2,10.2C34.1,64.6 28,73.3 28,76.3c0,1.1 -0.3,1.7 -0.6,1.4 -1,-0.9 -4.4,1.2 -4.4,2.7 0,0.7 -0.9,2.5 -2,3.8 -2.2,2.9 -4.4,8.8 -6,16.6 -0.7,2.8 -1.6,5.2 -2.2,5.2 -0.6,0 -0.8,0.7 -0.4,1.5 0.3,0.8 0.3,2.2 -0.1,3.1 -0.4,1.2 -0.7,1.3 -1.4,0.3 -0.6,-1 -0.9,-0.9 -1.4,0.6 -0.4,1.1 -1.1,2.8 -1.6,3.8 -0.6,1 -0.9,4.6 -0.8,8 0.1,5.9 -1.5,11.7 -3.3,11.7 -1.2,0 -1,8.8 0.2,9.5 1.3,0.8 1.3,6.2 0,6.7 -1.7,0.5 -2.8,14 -2,25.6 0.6,9.7 1,11.5 2.9,13.1 2.1,1.8 3,7.6 1.3,8.3 -1.3,0.5 -2.4,5.8 -1.2,5.8 0.5,0 1,0.7 1,1.5s0.5,1.5 1,1.5c0.6,0 1,1.3 1,3 0,3.2 4.1,13.3 5.9,14.4 0.6,0.4 1.1,1.5 1.1,2.4 0,1 2.4,5.3 5.3,9.7 3,4.4 6,9.5 6.8,11.3 0.7,1.7 1.7,3.2 2.1,3.2 0.4,0 1.4,1.6 2.2,3.5 0.9,2 3.4,4.8 6.1,6.7 2.9,2 5.3,4.8 6.4,7.4 2.3,5.1 7.9,10.6 15,14.6 3.1,1.7 7.2,4.6 9.1,6.3 5.2,4.9 17.7,12.6 20.9,13 1.6,0.2 4,1.5 5.4,2.9 1.5,1.4 3.2,2.6 3.9,2.7 3.8,0.2 6.7,0.8 10.8,2.3 17.6,6.1 17.3,6.1 49.5,6.1 30.7,0 33.2,-0.2 35.9,-2.4 0.8,-0.7 2.1,-1.4 2.8,-1.5 4.9,-0.9 8.6,-2 10.3,-3.2 1.1,-0.8 3.2,-1.4 4.7,-1.4s2.9,-0.4 3.2,-0.9c0.9,-1.3 7.9,-2.2 8.7,-1 0.4,0.7 2,-0.1 4.1,-2 2,-1.7 4.1,-3.1 4.7,-3.1 0.6,0 1.9,-0.4 2.9,-1 0.9,-0.5 2.9,-1.4 4.5,-2 3.1,-1.1 4.6,-3.8 2.8,-5 -1.4,-0.8 1.8,-2 5.7,-2 2.6,0 20.2,-16.4 20.2,-18.9 0,-0.8 0.3,-1.2 0.6,-0.8 1.7,1.6 6.6,-2.9 10.5,-9.6 2.3,-3.9 5.4,-8.6 6.9,-10.2 4.6,-5.2 6.9,-9.1 14.5,-24.3 5.4,-11.1 7.5,-16.4 8,-20.8 0.4,-3.2 1.8,-8 3.1,-10.5 1.7,-3.1 2.4,-6.1 2.3,-9.5 0,-2.7 0.2,-9.9 0.6,-15.9l0.6,-11.1 -2.9,-0.2c-4,-0.3 -5.3,1.6 -5.6,8.7 -0.5,9.5 -1.6,8.5 -1.6,-1.5 0,-11.7 -1.1,-13.4 -8.5,-13.4 -3.2,0 -5.7,0.5 -6.2,1.2 -0.4,0.7 -0.8,6.1 -0.8,12v10.6l7.4,0.7c5.3,0.5 7.6,0.4 8.1,-0.5 0.5,-0.8 1,-0.9 1.4,-0.2 0.3,0.6 0.2,1.3 -0.4,1.7 -0.6,0.3 -0.9,2.5 -0.9,4.8 0.1,2.4 -0.4,5.3 -1,6.6 -0.7,1.3 -1.1,3.2 -0.8,4.2 0.3,1 0.1,1.9 -0.4,1.9s-1.1,1.1 -1.5,2.5c-0.3,1.4 -1.1,2.5 -1.6,2.5 -0.6,0 -0.8,0.6 -0.5,1.4 0.7,1.8 -2.1,11.2 -3.8,12.6 -0.8,0.7 -1.2,2.6 -0.9,5.3 0.2,2.3 0.1,3.4 -0.2,2.5 -0.9,-2.8 -2.4,-2.1 -2.4,1.1 0,1.6 -0.6,3.1 -1.5,3.5 -0.8,0.3 -1.5,0.9 -1.4,1.3 0.4,2.3 -0.3,3.4 -2.7,4.3 -1.9,0.8 -2.4,1.5 -1.9,3 0.4,1.4 0.2,2 -0.8,2 -0.8,0 -1.8,1.2 -2.1,2.6 -1.1,4.3 -9.9,17 -11.6,16.7 -1.7,-0.4 -9.4,8.2 -8.6,9.6 0.8,1.2 -1.6,3.1 -5.1,4 -1.8,0.5 -2.9,1.6 -3.3,3.2 -0.3,1.3 -1.3,2.4 -2.2,2.4 -0.9,0 -3,1.2 -4.7,2.7 -1.7,1.6 -3.5,2.8 -3.9,2.8 -0.5,0 -3.5,2 -6.6,4.5 -3.2,2.5 -6.5,4.5 -7.3,4.5 -0.7,0 -3.6,1.1 -6.3,2.5 -2.7,1.4 -7.5,3.2 -10.5,4 -3,0.7 -6.1,1.7 -6.8,2.2 -0.6,0.4 -1.6,0.8 -2.2,0.9 -0.5,0.1 -3.7,1.4 -7.1,2.8 -3.3,1.4 -8.3,2.7 -11,3 -2.7,0.3 -8.3,1 -12.4,1.7 -4.1,0.6 -10.4,0.8 -14,0.5 -3.6,-0.4 -9.2,-0.7 -12.5,-0.8 -3.5,0 -7.5,-0.8 -9.5,-1.8 -2.1,-1.1 -5.6,-1.8 -8.4,-1.8 -2.9,0.1 -5.1,-0.4 -5.6,-1.2 -0.4,-0.7 -1.7,-1 -2.9,-0.7 -1.2,0.3 -3.1,-0.3 -4.5,-1.4 -1.3,-1 -3.3,-1.9 -4.4,-1.9 -1.1,0 -2.7,-0.7 -3.6,-1.5 -0.8,-0.8 -2.2,-1.5 -3.1,-1.5 -1.7,0 -7.6,-2.8 -8.5,-4 -0.3,-0.4 -4.3,-2.6 -9,-5s-10.3,-6 -12.5,-8c-5.9,-5.4 -15.7,-12.7 -18,-13.4 -1.2,-0.3 -2.9,-1.9 -3.8,-3.6 -1,-1.6 -3.4,-4.6 -5.4,-6.7 -2.1,-2.1 -3.7,-4.1 -3.7,-4.5 -0.1,-0.3 -2.4,-3.5 -5.2,-7 -7.1,-8.8 -8.1,-10.4 -10.9,-18.7 -1.3,-4 -3.5,-8.9 -4.7,-10.9 -1.3,-2 -2.2,-4.1 -2,-4.6 0.2,-0.5 -0.4,-2.3 -1.2,-4 -1.9,-4.1 -3.9,-12.4 -3.7,-15.6 0.1,-1.4 -0.3,-4.8 -0.9,-7.6 -0.6,-2.8 -1.2,-7.7 -1.2,-10.8 -0.1,-3.1 -0.6,-5.6 -1.1,-5.6 -1.9,0 0.1,-19.2 3.2,-31.4 2.2,-8.4 2.8,-12.4 2.1,-13.7 -1.3,-2.4 -1.3,-2.9 0.5,-2.9 0.8,0 1.5,-0.8 1.5,-1.8 0,-5.2 10.8,-29 15.4,-34.1 0.9,-1 1.6,-2.1 1.6,-2.5 0,-0.4 0.5,-1.2 1,-1.9 0.6,-0.7 2.8,-3.9 4.9,-7.3C46.2,65.2 57.2,53 58.7,53c0.2,0 3.2,-2.7 6.6,-6 3.4,-3.3 6.5,-6 7,-6s3,-1.8 5.6,-4c2.6,-2.2 5.7,-4.2 6.8,-4.4 1.1,-0.3 4.4,-2.2 7.3,-4.4 2.9,-2.2 6,-4.1 6.9,-4.1 0.9,0 6,-1.6 11.3,-3.7 6.4,-2.4 9.8,-4.3 10.1,-5.5 0.3,-1.2 1.1,-1.6 2.6,-1.2 1.2,0.3 2.1,0.9 2.1,1.3 0,0.5 1.5,0.4 3.3,-0.1 1.7,-0.6 4,-1.2 4.9,-1.4 0.9,-0.2 2.5,-0.8 3.6,-1.4 1.1,-0.6 2.2,-0.8 2.4,-0.5 0.3,0.3 3.6,-0.3 7.2,-1.2 5.1,-1.3 7.3,-1.4 9.1,-0.6 2.9,1.3 18.3,0.4 16.3,-1 -0.9,-0.7 -0.2,-0.8 2.1,-0.4 1.8,0.3 4.4,0.6 5.7,0.6 1.3,0 2.4,0.6 2.4,1.2 0,0.7 1.2,1.4 2.8,1.4 2.6,0.2 8.2,1 9.2,1.5 0.3,0.1 1,0.3 1.5,0.4 6.7,1.1 12.4,2.8 12,3.6 -0.4,0.5 0,1.1 0.7,1.3 0.7,0.2 5.4,1.6 10.3,3.1 5,1.5 10.1,3.7 11.5,5 1.4,1.3 5.2,3.7 8.5,5.4 5.8,3 10.2,6.2 19.4,13.9 9.9,8.4 12.1,10.5 12.1,11.8 0,0.7 1.2,2.1 2.8,3.1 1.5,1 3.3,2.6 4,3.5 0.7,1 1.9,1.8 2.6,1.8 1.2,0 2.8,2.2 3,4.2 0.1,0.4 0.7,1.3 1.4,2 0.6,0.6 1.2,1.8 1.2,2.5 0,2 3.3,8.3 4.1,7.7 1.4,-0.8 4.8,5.2 4.2,7.4 -0.3,1.3 0.3,3.6 1.6,5.8 1.2,1.9 1.9,4 1.6,4.5 -0.4,0.5 0,0.9 0.8,0.9 1,0 1.9,1.8 2.7,4.8 0.6,2.6 2.5,7.3 4.3,10.3 2.5,4.3 3.2,6.7 3.4,11.9 0.2,7.1 0.9,13.2 1.8,16.1 0.7,2.1 2.7,2.6 2.4,0.6 -0.1,-0.6 0.1,-2 0.5,-2.9 0.5,-1 0.3,-3.2 -0.3,-4.9 -0.6,-1.7 -0.8,-3.5 -0.5,-4.1 0.3,-0.5 0,-1.6 -0.8,-2.5 -0.7,-0.9 -0.8,-1.4 -0.1,-1 1.6,1 1.4,-5.5 -0.4,-12.1 -0.9,-3.3 -2,-5.2 -3,-5.2 -1.1,0 -1.3,-0.7 -0.8,-2.9 0.4,-1.9 0.1,-3.3 -0.9,-4.3 -0.8,-0.9 -2.2,-3.8 -3.2,-6.7 -0.9,-2.8 -2,-5.3 -2.4,-5.6 -0.5,-0.3 -0.6,-1.4 -0.3,-2.5s0.1,-2 -0.5,-2 -1.3,-1.3 -1.7,-3c-0.4,-1.6 -1.2,-3.3 -1.9,-3.7 -1.4,-0.9 -4.1,-5.1 -7.4,-11.3 -1.3,-2.5 -3.8,-5.8 -5.5,-7.3 -1.8,-1.6 -2.6,-2.6 -1.9,-2.2 2.1,1.1 1.3,-1.3 -1,-3 -1.3,-0.8 -2.1,-1.7 -1.8,-2 0.3,-0.2 -1.8,-2.3 -4.5,-4.7 -2.8,-2.4 -7.1,-6.4 -9.5,-8.9 -5.1,-5.2 -11.5,-9.9 -13.8,-9.9 -0.8,0 -4.2,-2.1 -7.6,-4.6 -3.3,-2.6 -7.2,-5.1 -8.6,-5.6 -4.6,-1.7 -11.1,-5 -12.4,-6.3 -1.6,-1.7 -9.6,-5.5 -11.4,-5.5 -0.8,0 -2,-0.7 -2.6,-1.6 -0.8,-1 -3.9,-1.9 -8.7,-2.5 -10,-1.3 -10.1,-1.4 -12.5,-2.7 -1.2,-0.6 -4.6,-1.1 -7.5,-1 -3,0.1 -8.6,-0.2 -12.6,-0.7 -4.7,-0.5 -8.7,-0.4 -11.7,0.4 -2.9,0.7 -5.3,0.8 -6.4,0.3 -2.7,-1.5 -10.5,-2 -13,-0.9z" fill="#2e2b2c"/>
    <path d="M73,65.1c-7,4 -9,5.8 -9,8 0,3.1 2.2,6.9 4,6.9 1,0 5.3,-2 9.6,-4.5C82,73 86.1,71 86.8,71c0.6,0 1.2,-0.4 1.2,-0.8 0,-1.1 -7.4,-8.2 -8.5,-8.2 -0.6,0 -3.5,1.4 -6.5,3.1zM79.8,77.8c-4.8,3.1 -8.8,6 -8.8,6.4 0,0.4 2.7,3.7 6,7.4 3.3,3.6 7,8.4 8.2,10.5 2.6,4.8 3.1,4.7 12.1,-1.2 7,-4.5 9.4,-8.1 8.2,-12 -0.7,-2.1 -15.1,-16.9 -16.4,-16.9 -0.3,0 -4.5,2.6 -9.3,5.8zM123.1,98.5c-7.1,2 -21.3,8.2 -22.3,9.8 -0.4,0.6 -0.8,3.8 -0.8,6.9 0,4.5 0.5,6.2 2.3,8.3l2.3,2.7 6.4,-3.5c3.6,-1.9 9.3,-4.3 12.8,-5.3 3.7,-1 6.7,-2.4 7.3,-3.5 0.5,-1 3.2,-4.8 6,-8.4 2.8,-3.7 4.9,-6.8 4.7,-7 -1.3,-1.3 -14,-1.3 -18.7,0zM151.6,103.6c-4.9,1.8 -5.8,2.5 -10.1,8.5 -3.1,4.4 -3.3,5 -1.8,5.5 7.3,2.4 13.1,5.2 17.2,8.5 5.7,4.5 8.8,4.9 17.1,2 6.6,-2.3 7.1,-3.9 3.7,-11.4 -2.6,-5.7 -5.8,-8.6 -12.9,-11.6 -6.4,-2.8 -8.9,-3.1 -13.2,-1.5zM89.5,117.1c-2,2.3 -5.1,7.1 -6.8,10.8 -3.9,8.4 -4.9,21.4 -2.3,30.5 1.7,5.6 2.4,6.4 4.1,4.7 0.6,-0.6 3.9,-2 7.5,-3.3 6,-2.1 6.5,-2.5 6,-4.8 -1.1,-5.5 -0.4,-16.5 1.3,-19.6 1.6,-3 1.5,-3.2 -0.4,-5 -3.2,-2.9 -5.1,-8.4 -4.6,-13.2 0.2,-2.3 0.1,-4.2 -0.3,-4.2s-2.4,1.9 -4.5,4.1zM121.2,123.2c-2.8,1.8 -5.2,3.7 -5.2,4.3 0.1,2.4 20.5,21.5 23,21.5 0.4,0 2.2,-2.5 3.9,-5.5 2,-3.6 4.4,-6.2 7.1,-7.7 3.8,-2.2 5.3,-4.8 2.8,-4.8 -2.3,0 -11.9,-4.9 -15.6,-8 -4.9,-4 -9.1,-4 -16,0.2zM197.7,127.7c-1.3,2.3 -1.8,8.2 -1.2,14.9 0.6,6.4 1,7.4 2.4,6.9 0.9,-0.4 4.5,-1.2 8,-1.8 5.9,-1.1 6.4,-1 8,0.9 1.5,1.9 3,2.2 13.9,2.6l12.2,0.4v-3c0,-1.7 -0.9,-4.9 -1.9,-7.1 -4.5,-10 -14.2,-14.5 -31.1,-14.5 -5.4,0 -10.1,0.3 -10.3,0.7zM181,131.8c-7.4,3.1 -9.7,3.6 -17.3,3.7 -6.3,0.1 -9.3,0.6 -10.5,1.7 -2.8,2.5 -6,6.5 -7.6,9.7 -1.5,2.8 -1.5,3.1 0.9,4.9 4.2,3.3 10.6,4.5 22.2,4 8.5,-0.3 12.1,-1 16.8,-2.9l6,-2.4L191.5,141c0,-5.2 0.4,-10.3 0.9,-11.3 1.2,-2.6 -1.5,-2.1 -11.4,2.1zM59.2,136.4c-7.4,1.5 -9.7,3.2 -6.7,4.8 4.3,2.4 8.5,7.7 9.7,12.2l1.2,4.6 6.1,-0.4 6,-0.4 -0.4,-10.4c-0.1,-5.7 -0.5,-10.6 -0.8,-11.1 -0.6,-1 -7.8,-0.7 -15.1,0.7zM27,140.3c0,0.7 0.4,3.8 0.9,6.8s1.2,7.6 1.6,10.2l0.6,4.8 6.2,-0.7c3.4,-0.4 6.4,-0.8 6.6,-1 0.2,-0.2 -0.6,-3.4 -1.8,-7.3 -1.1,-3.8 -2.1,-7.8 -2.1,-9 0,-1.6 -1.1,-2.4 -5.2,-3.6 -6.3,-1.8 -6.8,-1.9 -6.8,-0.2zM104.7,140.7c-0.3,0.5 -0.8,4.2 -1.2,8.4l-0.7,7.6 4.5,1.7c2.4,0.9 6.2,3.2 8.3,5l3.8,3.3 9.1,-3c4.9,-1.6 9.4,-3.3 9.9,-3.8 1.4,-1.3 -1.9,-4.4 -10.4,-10.2 -10.7,-7.3 -21.8,-11.5 -23.3,-9zM41.3,143.8c0.2,1.5 1.3,5.8 2.2,9.5l1.8,6.8 6.1,-0.3c5.8,-0.3 6.1,-0.4 6.4,-3.1 0.7,-5.5 -6.3,-13.1 -13.5,-14.7 -3.4,-0.8 -3.5,-0.8 -3,1.8zM276.4,155.1c-1.7,0.5 -3.7,1.6 -4.4,2.4 -1,1.2 -1.5,1.2 -3.6,-0.1 -1.6,-1.1 -3.4,-1.4 -5.6,-0.9 -7.3,1.5 -6.8,0.5 -6.8,13.1 0,11.1 0.1,11.5 2.4,12.5 3,1.4 11.6,0.3 11.7,-1.4 0,-0.7 0.1,-4.6 0.1,-8.7s0.2,-5.9 0.4,-4c0.2,1.9 0.7,5.4 1,7.8l0.5,4.3 5.7,-0.6c9.4,-1.1 8.8,-0.3 9.5,-11.8 0.3,-5.6 0.9,-11 1.2,-12 0.6,-1.5 0.1,-1.7 -4.1,-1.6 -2.7,0 -6.3,0.5 -8,1zM184.5,158.1c-3.8,1.7 -7.8,3.1 -8.7,3.3 -1,0.1 -2.1,0.5 -2.4,0.9 -2.3,2.2 14.5,13.1 19.3,12.5 2,-0.2 4.5,-2.4 9.4,-8.3 3.7,-4.4 6.6,-8.3 6.3,-8.6 -0.2,-0.3 -2.5,-0.4 -5.2,-0.1 -3.3,0.3 -5.9,-0.1 -8,-1.2 -1.7,-0.9 -3.2,-1.6 -3.4,-1.5 -0.2,0 -3.4,1.4 -7.3,3zM220.5,157.8l-8,0.4 -5,6.8c-2.7,3.8 -5.2,7.7 -5.4,8.6 -0.5,2.8 2.8,4.4 9.3,4.4 7.5,0 27.7,1.8 32.9,3 2,0.4 3.9,0.5 4.1,0.1 1,-1.5 -1.3,-20.4 -2.6,-21.6 -1.5,-1.4 -13.4,-2.2 -25.3,-1.7zM91.6,166.1c-2.6,1.4 -4.9,1.9 -6.7,1.5 -2.7,-0.5 -2.9,-0.3 -2.9,2.4 0,4.1 3.5,13 7,17.8 5.7,7.9 22.2,13.1 34.4,10.8 3.5,-0.7 3.6,-0.9 3.6,-4.9 0,-2.6 -1,-6.1 -2.5,-9 -1.4,-2.6 -2.3,-5.1 -2,-5.6 0.6,-1.1 -2.3,-2.3 -3.6,-1.5 -1.8,1.1 -12,-1.8 -14.9,-4.3 -1.6,-1.3 -3.4,-3.9 -3.8,-5.6 -1,-4 -3.3,-4.4 -8.6,-1.6zM131.3,168.8c-2.3,0.9 -4.4,2 -4.8,2.4 -1.2,1.1 0.4,4.4 5.5,11.3 2.7,3.6 5.2,7.9 5.5,9.6 0.8,3.5 1.7,3.4 10.5,-1.3 3.5,-1.9 6.3,-2.7 7.7,-2.3 2.7,0.6 2.8,0 0.8,-6.9 -1,-3.3 -3,-6.8 -5.8,-9.9 -4.2,-4.5 -4.6,-4.7 -9.8,-4.6 -3,0 -7.3,0.8 -9.6,1.7zM162,177.7c0,1.7 1.3,4.7 3.2,7.3 2.4,3.3 3.2,5.3 3.1,8.2l-0.2,3.8h4.1c3.3,0 4.6,0.6 7.3,3.5l3.2,3.5 5.2,-1.1c5.3,-1.1 11.1,-0.9 14.4,0.5 3,1.4 2,-2.4 -2.4,-9.1 -7.6,-11.8 -17.8,-18.1 -30.5,-19l-7.4,-0.6v3zM232.5,184.2c-1.1,0.7 -5.2,1.2 -9.1,1.1l-7,-0.1 -2.4,4.5c-1.3,2.4 -3.7,5.5 -5.3,6.9l-3,2.5 2.1,2.2c1.1,1.2 3.4,5 5.1,8.4 1.7,3.5 3.8,6.3 4.5,6.3 2.6,0 11.1,-10.6 15.4,-19.2 5.6,-11.5 5.6,-16 -0.3,-12.6zM147.3,195.3c-7.1,2.4 -7.4,3 -4.9,12.2 1.9,7.2 4,10.8 8.7,14.8 5.1,4.4 11.3,6.7 20.5,7.4l7.1,0.6 -0.1,-7.9c0,-4.4 0.1,-8.5 0.4,-9.3 0.3,-0.9 -0.6,-1.8 -2.6,-2.4 -5.7,-1.7 -12.7,-7.8 -14.5,-12.7 -1.5,-4 -2,-4.5 -5,-4.7 -1.9,-0.1 -6.2,0.8 -9.6,2zM182.4,211.9c0.4,1.4 1,7.2 1.5,12.9s1.1,10.6 1.5,10.9c0.3,0.4 1.7,0 3.1,-0.7 4.7,-2.5 15.7,0.2 21.2,5.2 6.5,5.9 5.6,-7 -1.4,-22.1 -4.3,-9.2 -4.6,-9.3 -18.4,-9l-8.1,0.2 0.6,2.6zM190.8,243.7c-1.6,0.2 -2.8,0.7 -2.8,1 0,2.6 4.6,16.6 5.6,17 0.7,0.3 4.8,-1.1 9.1,-3s8.8,-3.8 10.1,-4.2c4.9,-1.5 1.1,-6.7 -7,-9.5 -5.5,-1.9 -9,-2.2 -15,-1.3zM202.3,262.3c-6.3,2.9 -9.2,4.7 -9.3,5.9 0,0.9 0.4,1.9 0.9,2.2 0.5,0.4 1.2,2.4 1.6,4.6 0.4,2.2 1,4.2 1.4,4.4 0.9,0.6 12.3,-1.9 16.3,-3.5 1.4,-0.6 3.5,-2.1 4.7,-3.3l2.1,-2.2 -2.4,-6c-1.6,-4 -3,-6 -4.3,-6.1 -1,-0.1 -5.9,1.7 -11,4z" fill="#2e2b2c"/>
</svg>