<?xml version="1.0" encoding="UTF-8" standalone="no"?><svg xmlns:android="http://schemas.android.com/apk/res/android" height="152.2" width="151.8" xmlns="http://www.w3.org/2000/svg">

<path d="m130,107.3l5.4,-2.4 -2.9,-18 -1.8,-5.7c-4.7,-17.9 -17.1,-33.4 -28.4,-42.5 -5.9,-4.7 -13.8,-9 -20.9,-12.1 -4.3,-1.9 -7.2,-2.9 -11.8,-4.6 -2.2,-0.8 -11.7,-2.9 -12.4,-3.3h-12.1c-0.4,0.3 -5.9,1.9 -7.3,2.7 -2.1,1.2 -3.9,2.4 -5.2,4.2 -1.4,1.9 -2.5,3.4 -3.2,5.9 -1,3.2 -0.6,4.8 -1.3,7.7l0.6,0.7c0,0 0,0 0,0l1.5,3 -1.5,-3c-0.9,1 -5,2.5 -7,4.6 -2.4,2.6 -1.7,5.7 -2.9,8.2l2.2,8.3c2.3,2 2.7,6.1 6.6,7.9l1.1,-2.5c2.8,-0.5 -2,-7.8 13.6,-7.8l0.1,0.4c-3.8,0 -7.5,0.9 -8.2,3.4l3.3,1.8 0.1,-0.3 1.3,4.9 0.3,1.1c2.4,1.4 9.2,6.1 9.9,9.1l0.6,2.3c2.1,7.9 -12.2,20.1 -8.8,29.9l2.9,8.7 7.4,0.5 0.7,-0.1c1.6,0 0.7,-1.7 0.3,-3.4l1.3,-1.7 0.6,1.7c1,3.9 -3.1,8.3 -2.5,10.6l0.3,1.1c0.3,1.3 3.7,2.3 4.8,2.3 0.5,0 7.7,-8.6 12.9,-8.7 0.4,0.8 0.6,0.9 0.9,1.9l0.7,2.7 0.7,4.2 6.1,1.6c0.7,-2.5 3.7,-11.1 6.6,-11.1 1.7,0 3.2,4.5 6.6,6.4 4.4,-1.1 3.7,-2 5,-5.9 0.6,-1.9 1.6,-6.4 3.4,-6.9 1.8,3.6 4.2,10.2 8.3,10.2h0.8c6.2,0 5.6,-20.4 9,-23.4 1.7,1 4,3.9 5.3,5.7 2.7,3.5 1.8,3.1 5.8,4.9 0.4,-1 2.3,-2.6 2,-3.8 -0.2,-0.7 -0.3,-0.4 -0.8,-1.4m-19.9,-19.7c-5,0 -3.2,7.2 -3.4,11.4 -0.2,3 0.4,11.6 -2.7,11.6 -2.1,0 -6.7,-11 -10.1,-11 -0.2,0 -2.7,2.3 -3.1,2.6 0.9,3.7 -0.9,11.4 -2.7,12.9 -2.9,-1.6 -5.7,-8.3 -8.6,-8.3 -3.6,0 -3.3,7.1 -6.2,9.4l-1.1,-2.3 -3.6,-2.7 -6.1,4.3c-0.1,-2 0.9,-5 0.5,-6.5 -1.3,-4.8 -2.6,-4.2 -7.1,-4.2 2,-4.8 8.9,-10.6 6.9,-18.5l-1.2,-4.5c-1,-3.8 -5,-8.7 -7.3,-11.1 -3.8,-4 -7.7,-5.4 -9.7,-7.4h1.1c14.3,0 31.6,14.7 34.9,14.7h0.4c2,0 1.3,-3.6 0.8,-5.7l-0.5,-1.9h1.1c7.3,0 23.8,9.8 25.3,9.8 0.9,0 1.8,-0.5 1.5,-1.5 -0.7,-2.7 -21.8,-14.4 -26.5,-14.4h-2.6c-2.8,0 -3.3,2.6 -3.3,4.9 -4.4,-2.5 -7.1,-4 -12.1,-6.2 -3.1,-1.3 -12.5,-3.4 -13.7,-4l20,1.3 4.9,-0.2c-0.8,-1.4 -5.8,-3.9 -7.5,-4.7 -2.9,-1.3 -6.2,-1 -9.3,-1.7 -3.2,-0.8 -6,-1.1 -8.9,-2.3 -2.3,-0.9 -5.6,-3.4 -8.1,-3.4 -0.6,0 -1.1,1.5 -0.9,2.3 0.1,0.2 0.8,0.8 1.1,1.1 -2.8,1.7 -6.8,2.3 -10.2,3.6 -5.2,1.9 -4.3,2.7 -6.5,6.3 -1.5,-5.6 -1.4,-6.7 -0.2,-10.4 0.6,-1.9 3.1,-5.5 5.9,-5.5h1.9c2.9,0 3.6,4.5 6.9,4.5 1.1,0 0.6,-2.1 0.2,-3.4 1,-1.7 -0.5,-1.1 1.8,-1.9 1,-0.4 1.3,-0.7 0.9,-2.3 -0.3,-1.2 -3.1,-2.2 -4.4,-2.3 -0.1,-2.8 3.3,-6.6 5.2,-8.2 2.8,-2.3 6.1,-3.2 11.5,-3.2 9.2,0 17.2,4.8 24,8l0.2,0.7h-8.7l-10.9,-1.3 -4.1,0.2c-3.2,0 -6.5,5.7 -6.5,8.3 2.5,-1.5 4.9,-3.4 9.3,-3.4 -0.2,0.9 0,2.8 0.3,4.2 0.6,2.5 4.5,4.5 7.3,4.5h3.4c3.6,0 5.8,-2.3 8.9,-2.3h2.3v-1.5l-9.8,-4.5 9.9,-2.3 -0.2,-0.4 -0.4,-1.5c8.5,4.8 21,15.1 27.2,23.2 9.9,13.1 11.5,18.7 16.4,37.7 -2.8,-1.4 -8.5,-10.6 -13.8,-10.6m-48.8,-43.1c0.5,1.8 2,3 3.8,3h0.8c1.2,0 2,-1.2 1.6,-2.7l-0.2,-0.7c-0.2,-0.9 -0.5,-0.8 -1.2,-1.5 1.3,0.1 2.9,1 3.2,2.3l0.1,0.4c0.5,1.8 -0.4,3 -2.2,3h-0.8c-5.4,0 -4.8,-3.1 -6.8,-7.2h2.3c-0.3,0.9 -1,2 -0.6,3.4m74.8,66.4c-0.9,1.4 0.3,1.1 0.5,1.6 -0.9,1.9 -1,0.5 -1.7,0.9 -0.5,1.2 -0.4,2.4 -1,3.2 -0.1,0 -0.3,0.1 -0.3,-0.2 -0.3,1.5 -2.3,3.2 -2.7,4.9 -0.1,0 -0.2,0.1 -0.3,0 0.5,0.1 0.8,0.3 1,0.5 -0.5,0.6 -0.6,1.4 -1.1,1.3 0.3,-0.4 0.2,-0.5 0.2,-0.8l-0.4,0.8c-1,0.1 0.5,-1 0.1,-1.4 -0.8,1.4 -1.6,3.2 -2.6,3.9 -0.7,-0.3 1.8,-2.2 0.2,-1.5 0.5,-0.4 1,-0.8 1.5,-1.2 -1.8,0.3 0.8,-0.8 -1,-0.6 -1.8,1.7 -1.6,2.3 -3.4,3.8 -0.1,0.7 0.6,0.3 0.4,1 -2.1,2.9 -3.2,0.5 -4.5,2.9 -0.2,0.8 0.2,1.7 -1.6,2.4v-1c-1.9,1.4 -0.4,1.8 -2.7,2.8 0.2,-0.5 1.4,-1.3 1,-1.2 -1.7,0.4 -0.7,1 -1.7,1.8l-0.6,-0.5c-2,1.5 -4.1,3.4 -6.6,4.8 0,-0.3 0.4,-0.7 -0.3,-0.6 -3,2 -6.9,3.1 -10.2,3.7l-1,1c-0.3,0.1 -0.6,-0.1 -0.3,-0.3 -1.3,0.1 0.1,0.4 -0.5,0.8 -0.7,0.3 -1.1,-0.1 -0.7,-0.4 -2.1,1.2 -6.2,2.7 -8.8,2.4l0.4,-0.3c-1.9,0 -2,1.6 -3.8,1.2l0.3,-0.1c-4.2,0.2 -8.8,0.8 -12,-0.3 -0.7,0.9 -4.1,-0.7 -4.5,0.5 -2.3,-0.9 -1.6,-1 -4.8,-2 -0.9,-0.2 -1.4,0.5 -2.6,0.4l0.1,-0.7 -1.6,0.3 -0.6,-1 -1,-0.1c0.4,0.1 0.8,0.5 0.7,0.7 -1.7,-0.1 -3.7,-1.6 -3.6,-1.9 -1.3,-0.2 -2.5,-0.5 -3.8,-0.8 0.2,-0.2 0.8,-0.1 1.3,-0.1 -2.1,-0.1 -0.1,-0.8 -2.1,-0.9 0.2,0.2 -0.3,0.3 -0.4,0.4 -0.7,-0.7 -2.6,-1.6 -4.1,-2.1l0.5,-0.3c-2.5,-1.3 -5.4,-2.5 -8,-4.3 0.8,0.8 0.2,1.3 -0.6,0.9l0.1,-0.8c-0.7,0 0.7,0.8 -0.7,0.5 -0.9,-0.8 -0.2,-1.1 0.5,-0.9l-1.3,-0.6c0.1,-0.2 0.4,-0.1 0.6,-0.3 -0.8,0 -1.6,-2 -2.7,-1.9l0.1,-0.2c-2.5,-1.9 -3.7,-2.7 -5.6,-4.4 -0.5,0.4 -1.1,-0.4 -2,-0.6 -1.2,-1.5 -2.3,-3.4 -3.8,-5.1 -1.3,-1.1 -0.7,0 -1.4,-0.4 0.3,-0.4 -1.1,-2.2 -0.1,-1.5 -1.7,-2.1 -2.2,-2.7 -4.5,-5.4 0,0.4 0.2,0.9 -0.1,0.8 -0.4,-0.5 -0.6,-1.4 -0.3,-1.4l0.1,0.1c-2.8,-3 -2.9,-8.6 -5.1,-11l0.1,0.1c-0.6,-0.9 -1.2,-1.9 -1.7,-2.8 -0.4,-1.4 0.7,0.7 0.6,-0.4 -2,-3 -1.5,-5.3 -2.7,-7.9 1.1,-2.4 -1.5,-7.7 -0.6,-10.8l-0.4,0.2c-0.4,-0.7 0.2,-0.9 0.2,-1.5 -0.3,0.1 -0.3,0.9 -0.5,0.4 -0.8,-6.6 0.9,-13.5 2.8,-19.8 0.7,-2.3 -1.6,-1.9 0.2,-4.6l0.4,1c0.6,-5 3.4,-9.5 5.1,-14 0,0.3 0.2,0.4 0,0.9 0.9,-0.7 1.9,-3.3 1.5,-3.5 0.4,-0.6 0.4,0.1 0.8,-0.2 0.8,-0.7 0.8,-2.5 1.6,-2.7 0.1,0 0,0.3 -0.1,0.5 0.2,-0.7 1.8,-2.5 1,-2.3 1.3,-1.3 1.9,-2.9 3.1,-3.8 0.1,-1.2 2.3,-2.1 1.8,-3 0.6,0.7 2.8,-1.8 3.3,-2.9 -0.1,0.5 0.9,-0.5 0.9,0.1 0.9,-0.9 1.7,-1.8 1.2,-2 2.5,-0.7 3.2,-3.9 5.2,-3.5 2.8,-2.7 5.8,-4.9 8.8,-6.8 0.3,0.9 -3.4,2 -2.7,2.8 2.6,-2 4,-3.6 7.2,-4.8 0.8,-0.2 -0.3,0.6 -0.5,0.8 2.9,-1.7 6,-2.3 8.7,-3.7 0,0.1 -0.3,0.3 -0.5,0.4 0.6,-0.2 1.3,-0.2 1.2,-0.7l-0.5,0.3c-1.1,-0.4 1.9,-1.9 1.9,-2.3 -0.7,1.5 3,-0.4 1.8,1.5 0.4,-0.2 0.8,-0.5 0.6,-0.7 0.6,0 0.8,0.1 0.3,0.5 2,-0.7 1.2,-1 3.1,-1.3 0,0.2 -0.3,0.4 -0.5,0.6 0.9,-0.6 1.8,-1.2 3.4,-1.2 -0.1,0.1 0.1,0.3 -0.3,0.3 2.7,-0.4 4.6,-1.6 7.7,-1.3 -0.9,0.9 1.1,0.3 1.2,1.1l1.6,-0.2 -0.6,-0.4c1.4,0 2.7,-0.5 4,-0.2l-1.1,0.3c0.9,0 1.8,0 2.7,0l-1.5,-0.4c1.5,-0.3 -0.1,-1 1.8,-0.7 -0.4,0 1.5,0.1 2.2,0.7 0.7,-0.2 1.5,-0.3 2.6,0 0.2,0.3 -0.4,0.8 -0.2,1 0.8,-0.6 3.4,0.4 4.4,-0.1 -0.3,0.1 -0.4,0.5 -0.4,0.6l0.7,-0.4c0.6,0.3 0.7,0.4 0.5,0.7 1.9,0.6 -0.4,-1.1 1.8,-0.2 -0.2,0 -0.1,0.1 -0.5,0.1 2.3,0.8 4.6,0.9 6.6,1.9 0.4,1 -1.9,-0.4 -1.4,0.5 3,0.8 6.5,1.4 9.2,2.9l-0.5,-0.3c0.9,-0.8 1.8,1.5 3.4,1.8 -0.4,-0.1 -0.7,0.3 -0.6,0.2 1.7,1.2 3.9,1.9 6.7,3.4h-0.5c0.9,0.9 2.6,2 3.6,2.9 0.5,0 1.1,0.5 1,-0.1 2.2,3.8 6.6,4.6 8.1,8.3 -0.3,-0.3 -0.9,-0.6 -0.7,-0.3 0.8,0.7 1.5,1.4 2.3,2.2 0.2,-0.5 0,-0.5 -0.2,-1.3 0.5,0.1 1.2,0.6 1.8,1.2 -1.2,-0.9 -0.6,0.5 -0.4,1.2 0.1,-0.2 0.3,-0.1 0.4,-0.3 0.3,1.8 1,-0.4 1.9,1.7l-0.3,0.1c0.6,0.6 1.4,1 1.8,1.8 -0.3,0.6 -0.7,-0.6 -1.2,-0.3 0.8,1 2.3,1.4 2.5,2.7 -0.4,-0.4 -0.9,-1 -1.3,-1.4 0.2,1.4 0.4,1.4 0.8,2.3v-0.1l0.9,2 -0.1,-0.6c2.1,0.6 1.9,2.6 3.7,4.1 -1.8,-1.4 -0.6,-0.1 -1.3,0.1 0.1,0.6 0.3,1.4 0,1.3 0.9,0.7 0.4,1.7 1.6,2.6 -0.2,0.1 0.4,1 -0.2,1 0.7,1.1 0.2,-0.4 0.5,-0.4 1.5,1.6 1,4.7 2.8,7.1 1.1,2.3 1.9,2.5 2.8,4.8 -0.1,0.9 -0.9,-0.5 -0.9,-0.5 0,1.3 0.3,2.2 0.7,3.4 -0.2,-0.2 -0.3,0.1 -0.5,0.5 0.2,0.9 0.9,0.5 0.8,1.8 -0.3,-0.2 -0.7,-0.4 -1,-0.8 0.4,1.1 0.9,2.1 1.3,3.3 -0.3,0.4 -0.6,-0.6 -0.9,-1 0.4,1.3 0.7,3.3 1.3,3.7l0.1,-0.9c0.1,0.5 -0.5,0.3 -0.6,0 -0.6,-1.1 0,-1.6 0.2,-1.7l0.2,0.8c1.1,-1 -0.6,-3.3 -0.9,-5l1,0.5 -1.1,-1.6c0.2,-0.4 0.6,-0.8 0.9,0 0.2,-1.3 -0.5,-1 -0.3,-2.1 0.1,-0.1 0.1,-0.1 0.2,0l-0.5,-1.1c0.2,0.2 0.6,-0.3 0.6,0.4 0,-2.2 -1.5,-3.2 -1.1,-4.2l0.1,0.2c-1.2,-2.8 -0.7,-0.1 -2.1,-2l1,-2 -0.7,-0.1c-0.1,-0.3 -0.3,-0.9 0,-0.9 -0.8,-0.9 -0.2,0.3 -0.8,-0.2 0,-1.6 -1.8,-3.6 -1,-4.4 -0.7,-0.3 0.2,1.4 -0.7,0.2 0.8,-0.9 -0.9,-1.6 -1.1,-3 0.7,0.1 1,1.4 0.9,0 -1.2,-0.3 -1.1,-2.5 -1.8,-3.4 -0.7,0.3 -1.5,-2 -2.8,-3.5 0.3,-0.1 -1.7,-3.3 -2.6,-4.8h0.1c-0.8,0.2 -1.9,-1.4 -2.9,-2.3 0.4,-0.3 0.7,-0.2 1.3,0.2l-0.8,-1c-0.4,-0.1 -0.7,-0.3 -1.4,-0.8l0.7,-0.2c-1.1,-1.3 -2.8,-2.1 -4.1,-3.9 -0.5,0.3 0.1,2.3 -1.7,1 0.2,-0.3 0.4,-0.7 1,-0.4 -0.2,-0.1 -0.7,-0.3 -0.9,-0.7l1,0.3c-0.6,-0.9 -0.7,-0.1 -1.2,-0.6 0.3,-0.3 -0.2,-0.6 0.1,-0.8 0.2,0.1 0.4,0.6 0.7,0.7 -0.6,-0.7 -1.2,-1.6 -1.3,-2.1 -0.1,0.2 -0.4,0.4 -0.9,0 -1.3,-1.1 -0.1,-0.8 -0.7,-1.6 -0.5,0 -1.2,-1 -1.6,-0.5 -0.4,-0.3 -0.3,-0.6 -0.3,-0.9 -0.9,-0.3 -3.3,-2.4 -2.9,-1.3l0.2,0.2 -0.1,-0.1c-2.7,-1.2 -4.7,-3.6 -7.4,-4.8l0.1,-0.2c-1.6,-0.6 -3.4,-1.6 -4.7,-1.7 -0.5,-0.2 -0.9,-0.9 -0.6,-1 -1.3,-0.4 -1.5,-0.2 -3.1,-1.3 1.3,0.1 -0.3,-0.5 1.3,0.3 -1.5,-0.8 -1.7,-1.3 -3.6,-1.4 0.8,-0.3 -1,-1.1 -1.8,-1.2l1,0.7c-0.9,-0.2 -1.6,-0.5 -2.4,-0.8l0.6,-0.5c-3.1,-1.9 -6.4,-0.2 -8.7,-2.2 -1,0.3 1.8,0.7 0.9,1.1 -1.5,-0.4 -3,-1.7 -3.5,-1.8 -2.1,-0.7 -2.2,0.7 -4.4,0.2 0.3,0.3 0.5,1 -1.2,1.1 -1.6,-0.2 -1.9,-1.2 -0.9,-1.3 0.4,0 0.6,0.1 0.5,0.2 0.5,-0.1 1.2,-0.1 0.6,-0.4l-0.2,0.2c-0.8,-0.3 -3,-0.4 -2.5,-0.8 -1.2,0.2 -0.5,0.4 0.4,0.6 -2,-0.5 -3.2,-0.1 -5.3,-0.3 0.3,0.1 0.7,0.4 0.3,0.4 -3.1,-0.2 -1.3,0.5 -3.4,0.7 -1.2,-0.3 0.4,-1 -1.7,-0.5 -1.3,-0.1 -0.3,-0.7 0.2,-0.9 -1.9,0.6 -3.7,0.1 -4.8,0.1l1,-0.3c-0.6,0.2 -1.1,0.3 -1.6,0.3l0.7,0.4c-0.6,0 -1.1,0.1 -1.1,-0.1 -0.6,0.4 0.6,0.8 -0.5,1.4 -0.8,-0.1 -2.3,0.7 -2.7,0.1 2.5,-0.3 -0.4,-0.6 1.7,-1.1 -0.4,0.2 -0.9,0.2 -1.5,0.3 -0.1,-0.1 0.1,-0.2 0.2,-0.2 -2.5,-0.1 -0.9,1 -3.4,1.5 0.2,-0.4 -0.7,-0.6 -1.1,-0.4 1,-0.3 0.6,0.5 -0.2,1 -1.6,0.1 -1.6,0.7 -2.4,0.9l1,-0.1c-0.2,0.5 -1,0.6 -2,1.1 -0.2,-0.3 0.9,-0.5 0.5,-0.5 -1,1 -2.9,0.2 -4.3,1.3 -0.8,0 -0.3,-0.6 -1.1,-0.5 -1.6,1.2 -2.2,0.3 -3.9,1.6 0.8,0.2 0.8,0.1 -0.3,1.1 1,-0.6 1.9,-1.2 2.9,-1.7l-1.8,2c0.9,-0.4 1.8,-1.2 2.4,-1.3 -0.8,0.8 -0.7,0.6 -0.1,0.8 -1.6,-0.2 -2.3,1.5 -3.9,1.7l-0.5,-1.2c-2.4,0.6 -3.5,2.5 -6.3,3.9l1,-0.3c-0.1,0.6 -1.6,1.1 -2.3,1.8 -0.2,-0.4 -0.8,-0.2 -1.3,-0.2 0.2,0.2 -1.9,1.3 -1.6,2.1l-1.5,0.4c-2.1,1.4 -1.5,2.7 -3.4,4.1 0.2,-0.8 -0.8,-0.3 0.2,-1.6 -0.6,0.5 -1.2,0.9 -1,1.2 -0.5,0.1 -1.3,1.9 -2.1,2.1 -0.1,0.4 0.1,0.8 -0.5,1.4 -0.1,0 -0.1,-0.2 -0.1,-0.2 0.1,0.1 -0.8,1.2 0.1,1 -2.7,0.8 -4.6,5.1 -6.7,6.1l-2.9,4.6c-0.1,-0.2 -0.2,-0.1 0,-0.3 -1.5,1.6 0.3,1.8 -1.4,3.6 -1.2,0.7 0.4,-1.3 -0.3,-0.8 -1.4,-0.4 -1.4,2.7 -2.9,3.8l0.1,-0.4c-1,0.9 -1,3 -1.9,4.9 0,0 -0.1,-0.1 -0.2,-0.1 0.1,1.6 -0.7,4.2 -1.2,6.1 -0.3,-0.8 0,-1 -0.6,-0.8 -0.2,0.9 0.9,0.1 0.5,1.8 -0.5,0.5 -1.1,1.6 -1.7,1.6l0.5,-1.6c-1,0.6 -0.6,2.1 -1,2.9l-0.3,-0.2c-0.7,2.5 0.1,2.8 -0.6,5.5l0.3,-0.2c0.5,1.7 -0.7,1.2 -0.4,2.8l-0.9,0.2c0,1 0.3,3.6 0.3,5.4 -0.5,-1.1 -0.6,-3.2 -0.8,-4.6 -0.1,1 -0.4,3.4 0,4 0,-0.4 -0.2,-0.9 0,-1.3 0.5,1.3 0.7,2.9 0.6,4.9 -1.7,-0.4 -0.6,5.1 -1.8,6.6 0.7,3.5 0.2,7.1 1,11.2 1,-1.7 0.3,1.2 1.5,0.7 0.3,0.9 0.3,1.3 0.3,1.4 -0.1,1 -0.1,2 -0.1,3 -0.2,0.8 -0.5,-0.8 -0.8,-0.7 0.4,2.1 -0.3,1 -0.3,2.5 0.4,-0.4 0.9,0.5 1,1.8l0.1,-1.8c1.5,2.6 -0.3,2.8 1.3,5.4l-0.7,-0.8c0.7,1.4 2.1,5.4 3.7,6.3 0,0.3 -0.2,0.8 -0.6,0.2 1.4,3.5 4.7,6.7 5.8,9.4l-0.4,-0.1c0.5,0.5 1.2,0.7 1.4,1.5 -0.1,0 -0.4,0 -0.3,0.2 0.3,0.2 1.5,1.2 1.9,2l-0.7,-0.4c1.8,3.2 4.1,3.8 6.2,5.8 -0.7,0.6 1,2.9 1.9,4l-0.1,0.1c2.9,3 5.8,4.2 9.1,6.2 1.3,2.3 6.5,4.9 9.7,7.1 -0.4,-0.4 0.4,-0.6 1.1,-0.4 0.7,0.6 2.5,0.5 2,1.2l-0.3,-0.1c0.3,1.1 2.1,1.6 3.4,2.2l0.6,-1c1.4,1.5 3.9,2.2 6.1,2.6 2.2,0.5 4.2,0.8 5.1,1.7 1,-0.1 2.1,0.1 3,0l-0.2,0.6c2.5,0.6 3.7,0.9 6.9,1l-0.7,0.4c1.8,0.2 2.4,-1.6 4,-1.5l0.5,0.9c3.1,0.1 6.2,0.8 9.2,-0.3 0,0.1 -0.1,0.4 -0.6,0.5 1.4,-0.1 5.7,0 5,-1.2 0.2,0.8 3.2,-0.4 4.7,-1.1l-0.1,0.6c1.2,-1 1.2,-1.2 3,-1.9 0.5,0 0.5,0.4 -0.1,0.4 1.6,-0.1 1,-0.8 2.9,-1l-0.6,0.6c1.5,-0.4 1.4,-0.6 2,-1.3 0.9,-0.5 2.9,-0.8 3.3,-0.4 0.1,-0.4 0.7,-1.1 1.7,-1.3 0.2,0.1 -0.1,0.4 -0.2,0.5 2.6,-0.6 3.3,-2.2 5.2,-2.4 0.1,0.2 0.3,0.2 0.4,0.2 -1.9,0.9 -3.5,1.5 -3.3,1.4 0.2,0.5 1.8,-0.1 0.9,1.2 1.1,-0.9 2.8,-2.7 4.4,-3.3 0.1,0 0.2,0 0.3,0.1l-0.1,0.1c0.4,-0.1 0.6,-0.3 0.9,-0.6 0.5,-0.2 0.8,-0.3 1.3,-0.5 0.4,0.3 1.8,-0.8 2.6,-1.2 -0.4,-0.5 0.6,-1 -0.5,-0.9 0.1,0 -0.1,0.1 -0.6,0.5 -0.1,0.1 -0.2,0.2 -0.3,0.2v-0.1c-0.5,0.3 -1.1,0.7 -1.8,1.1 0.4,-0.6 0.9,-1.2 1.9,-1.4 0.2,-0.6 0.4,-1.1 0.5,-1.4 1.4,0.1 3.5,-0.8 4.1,-0.5 1.9,-1.7 4.8,-3.9 5.3,-5.8 0.5,-0.6 0.8,-0.3 1.2,-0.4 -0.2,0.4 -0.6,0.7 -0.7,1 0.9,-1.2 3.2,-3 2.8,-3.8 1.6,-1 -0.2,1.3 1.5,-0.6l-0.1,0.4c2.2,-1.3 3.2,-3.2 4.2,-5.1 1,-1.9 1.9,-3.8 4.2,-5.6 -0.3,0.3 -0.4,0.4 -0.6,0.4 4.2,-4.8 6.1,-11.4 9.2,-16.7 0.8,-1.6 0.4,-1.9 0.3,-3.1l0.7,-0.2 -0.2,-2c0.2,-2.6 2.7,-4 2.3,-7.5l-0.5,0.3c0.3,-1.1 0.3,-3.7 0.8,-3.5 -0.1,-0.1 -0.4,-0.4 -0.1,-0.9h0.3c-0.1,-1 -0.2,-2 -0.3,-2.9 0.4,-2.2 1.3,0.5 1.6,-2.9 -0.1,-1.3 -0.9,-3.5 -1.1,-3.1 0,0.5 -0.2,1.3 -0.6,1.3l-0.2,-1.1c-1,-0.2 -2,-1 -2.7,1.6l0.5,1.8 -0.5,0.6v-1.5c-0.5,0.9 -0.1,1.4 0.1,2.1 -0.3,0.1 -0.5,0.4 -0.6,0.7l0.8,1.9c-0.4,0.2 -0.7,-0.9 -1,0.3 0.3,0.9 1,-0.7 1.1,0.7 -0.6,0.8 -0.9,0.5 -0.6,1.6 -0.3,0.1 -0.4,-0.1 -0.5,-0.5 0.2,0.9 -0.2,2.4 0.2,2.9 -0.7,0.8 -0.4,3.1 -1.4,2.8 0.2,0.3 0.4,1.7 0.2,2.6 -0.7,-1.8 -0.9,3 -2,2.3 0.7,1.4 -0.8,4 -1,6.1 0,-0.1 -0.1,-0.4 0,-0.5 -0.5,1 -0.9,1.2 -1.4,1.8 0.7,0.5 0.2,2.2 0.3,3.2 -1.3,0.9 -0.5,-1.2 -1.4,-1.1 0.7,0.2 -0.4,2.4 0.3,2.3 -0.9,0.7 -0.6,0.7 -1.5,0.9 0.8,0.7 -0.3,1 -0.2,2 -1.2,1.1 -1,-0.1 -1.6,1.5 -0.7,0.4 -0.3,-1.1 -0.3,-1.1m-27.3,28.4l0.7,-0.4 -0.7,0.4zM127,108.8c0.4,-0.2 0.9,-0.4 1.3,-0.6 0.2,0.1 0.2,0.4 -0.1,0.5 0.1,-0.2 -0.7,0 -1.2,0.1m8.4,0.2c-0.4,0.4 -0.7,0.4 -0.8,0.3 0.2,-0.1 0.5,-0.3 0.8,-0.6v-0.1c0.1,0.2 0.1,0.3 0,0.4" fill="#2e2b2c"/>
</svg>