<?xml version="1.0" ?>
<svg height="144.27998" viewBox="0 0 132.5 144.27998" width="132.5" xmlns="http://www.w3.org/2000/svg">
  <path d="M39.643,64.2c0,3.888 -2.014,4.575 -5.323,4.575L32.5,68.775v-8.75h1.687c3.621,0 5.456,0.865 5.456,4.175M23.75,55.025v31.25h8.75v-11.25h2.447c7.157,0 12.256,-3.023 12.256,-10.223 0,-6.8 -4.92,-9.777 -12.929,-9.777L23.75,55.025zM60.798,65.984c2.864,0 4.295,2.19 4.295,7.467 0,5.144 -1.431,7.425 -4.295,7.425 -2.86,0 -4.293,-2.191 -4.293,-7.469 0,-5.142 1.433,-7.423 4.293,-7.423m0,20.08c7.244,0 11.629,-5.01 11.629,-12.613 0,-8.006 -4.385,-12.656 -11.63,-12.656 -7.243,0 -11.627,5.01 -11.627,12.612 0,8.005 4.43,12.657 11.628,12.657M76.25,52.119v27.148c0,4.337 2.401,6.797 6.518,6.797 1.696,0 3.21,-0.358 4.285,-0.805l-1.392,-5.01c-0.312,0.136 -0.443,0.223 -0.932,0.223 -0.85,0 -0.979,-0.491 -0.979,-1.475v-27.64l-7.5,0.762zM100,78.774c0,1.386 -1.257,2.237 -2.867,2.237 -1.743,0 -2.33,-0.87 -2.33,-2.746 0,-2.37 2.012,-3.24 5.233,-3.24L100,75.025v3.749zM99.364,71.274c-7.199,0 -11.135,2.498 -11.135,7.688 0,4.338 2.997,7.262 7.74,7.262 2.812,0 5.454,-1.02 7.151,-3.614 1.12,2.327 2.951,3.136 5.725,3.361l1.496,-4.627c-1.115,-0.404 -1.59,-1.095 -1.59,-2.928v-9.214c0,-5.501 -2.97,-8.407 -9.86,-8.407 -2.68,0 -5.957,0.626 -8.953,1.744l1.605,4.652c2.37,-0.804 3.803,-1.254 5.327,-1.254 2.905,0 3.13,0.852 3.13,3.668v1.67h-0.636z" fill="rgb(0,0,0)"/>
  <path d="M128.567,22.525H92.5v-5.679L61.253,25.22 92.5,33.595v-3.57h31.25v78.659l-30.938,27.381L8.75,99.182V31.374L97.976,7.329 95.757,0 3.01,24.801C1.35,25.245 0,26.746 0,28.465v73.207c0,1.513 0.967,2.88 2.356,3.48l89.58,38.817c0.484,0.21 1.015,0.311 1.525,0.311 0.89,0 1.775,-0.311 2.476,-0.913L131.1,113.31c0.841,-0.72 1.4,-1.774 1.4,-2.88V25.22c0,-2.095 -1.837,-2.695 -3.933,-2.695" fill="rgb(0,0,0)"/>
</svg>
