<svg
    xmlns="http://www.w3.org/2000/svg"
    viewBox="0 0 1200 1200"
    id="vector">
    <path
        id="path"
        d="M 1133.32 950.28 L 1098.03 900.98 L 1039.94 891.44 C 1028.62 889.58 1020.59 886.67 1017.53 883.32 L 1015.04 880.59 C 1011.63 876.86 1002.06 873.69 988.8 871.9 L 879.84 857.2 L 759.08 844.3 C 746.49 842.95 732.2 843.12 720.14 844.75 L 638.22 855.81 L 528.22 876.09 L 472.14 877.06 L 472.14 877.06 L 434.46 877.71 C 426.65 877.85 419.71 879.04 416.27 880.84 L 382.16 898.67 L 301.02 922.63 C 301.02 922.63 268.56 957.65 268.56 959.5 C 268.56 960.97 281.19 998.53 286.29 1013.65 C 287.58 1017.48 296.99 1020.82 310.79 1022.35 L 438.06 1036.46 L 562.48 1050.74 L 786.08 1050.74 L 865.42 1041.52 L 964.6 1041.52 L 1061.97 1019.86 L 1144.62 980.15 C 1149.48 977.81 1151.11 975.13 1149.25 972.52 L 1133.32 950.28 C 1133.32 950.28 1133.32 950.28 1133.32 950.28 Z M 508.67 975.33 L 508.67 975.33 L 638.2 996.84 L 508.67 975.33 Z"
        fill="#000000"
        fill-opacity="0.1"
        stroke-opacity="0.1"/>
    <path
        id="path_1"
        d="M 460.73 816.39 L 226.31 664.06 L 50 654.04 C 50 660.43 64.03 823.76 69.7 889.48 C 71.14 906.13 81.59 920.65 96.92 927.3 L 238.33 988.63 L 376.58 1050.74"
        fill="#7c7972"/>
    <path
        id="path_2"
        d="M 376.58 1050.75 L 625.02 1050.75 L 713.18 1010.68 L 823.38 1010.68 L 931.57 916.51 L 1023.41 743.86 C 1028.81 733.7 1030.63 722.02 1028.56 710.7 L 971.65 399.59 L 907.1 358.1 C 894.53 350.02 885.6 337.36 882.2 322.8 L 879.43 310.93 C 875.64 294.71 865.01 280.92 850.28 273.15 L 729.22 209.26 L 831.39 405.6 L 729.21 537.84 L 637.05 559.88 L 647.07 642.03 L 524.85 658.06 L 460.73 816.39"
        fill="#605d58"/>
    <path
        id="path_3"
        d="M 460.73 816.39 L 316.8 722.86 C 257.5 684.33 189.17 661.95 118.57 657.93 L 50 654.04 C 50 646.03 86.06 493.75 86.06 493.75 L 176.22 389.57 L 214.12 312.04 C 217.94 304.22 225.65 299.04 234.33 298.45 L 338.51 291.39 L 460.73 203.23 L 551.76 155.12 C 565.17 148.03 581.04 147.32 595.03 153.16 L 729.21 209.23 L 831.39 405.6 L 729.21 537.84 L 659.08 565.89 L 647.06 642.03 L 530.85 684.11 L 460.73 816.39"
        fill="#99958c"/>
    <path
        id="path_4"
        d="M 729.21 209.25 L 568.92 343.49 L 440.69 357.51 L 366.32 400 C 352.16 408.09 334.39 406.01 322.48 394.88 L 261.23 337.65 C 245.68 323.12 254.96 297.05 276.19 295.61 L 338.5 291.39 L 460.72 203.23 L 551.75 155.12 C 565.16 148.03 581.03 147.32 595.02 153.16 L 729.21 209.25 Z"
        fill="#a8a59e"/>
    <path
        id="path_5"
        d="M 659.08 565.89 L 525.72 585.89 C 511.7 587.99 503 602.28 507.57 615.7 L 530.85 684.1 L 647.06 642.02 L 659.08 565.89 Z"
        fill="#a8a59e"/>
    <path
        id="path_6"
        d="M 831.39 405.6 L 971.64 399.59 L 1010.85 613.95 C 1018.84 657.65 971.06 690 933.46 666.34 L 729.21 537.84 L 831.39 405.6 Z"
        fill="#706c63"/>
    <path
        id="path_7"
        d="M 647.06 642.02 L 787.31 768.24 L 675.11 876.43 L 578.94 865.94 L 530.85 684.09 Z"
        fill="#706c63"/>
    <path
        id="path_8"
        d="M 675.11 876.44 L 713.18 1010.68 L 625.02 1050.75 L 578.94 865.95 Z"
        fill="#514e47"/>
    <path
        id="path_9"
        d="M 787.31 768.24 L 931.57 916.5 L 823.38 1010.67 L 675.12 876.43 Z"
        fill="#7c7972"/>
    <path
        id="path_10"
        d="M 539.69 600"
        fill="#514e47"/>
</svg>
