<?xml version="1.0" encoding="utf-8"?>
<!-- Generator: Adobe Illustrator 24.2.0, SVG Export Plug-In . SVG Version: 6.00 Build 0)  -->
<svg version="1.1" xmlns="http://www.w3.org/2000/svg" x="0px" y="0px"
	 viewBox="0 0 87.87 87.87" style="enable-background:new 0 0 87.87 87.87;" xml:space="preserve">
<g id="Warstwa_3">
</g>
<g id="Warstwa_2">
	<g>
		<g>
			<g>
				<g>
					<path d="M39.71,77.14l-1.15,8.94c1.8,0.23,3.63,0.35,5.45,0.35c1.88,0,3.77-0.13,5.62-0.37l-1.18-8.94
						C45.58,77.51,42.59,77.51,39.71,77.14z"/>
					<path d="M69.93,10.2c-2.94-2.27-6.18-4.14-9.6-5.56l-3.46,8.33c2.7,1.12,5.24,2.59,7.56,4.38L69.93,10.2z"/>
					<path d="M4.78,60.31c1.43,3.42,3.3,6.64,5.58,9.58l7.13-5.51c-1.79-2.32-3.27-4.86-4.39-7.55L4.78,60.31z"/>
					<path d="M18.22,77.71c2.95,2.26,6.19,4.12,9.62,5.53l3.43-8.34c-2.7-1.11-5.25-2.58-7.57-4.36L18.22,77.71z"/>
					<path d="M56.89,74.86l3.47,8.32c3.42-1.42,6.65-3.3,9.59-5.57l-5.5-7.14C62.12,72.26,59.58,73.73,56.89,74.86z"/>
					<path d="M86.18,38.36l-8.94,1.17c0.19,1.44,0.28,2.92,0.28,4.39c0,1.46-0.1,2.92-0.28,4.36l8.94,1.16
						c0.24-1.82,0.36-3.68,0.36-5.52C86.54,42.06,86.42,40.19,86.18,38.36z"/>
					<path d="M70.62,64.28l7.15,5.49c2.26-2.95,4.13-6.18,5.55-9.61l-8.33-3.45C73.87,59.41,72.4,61.96,70.62,64.28z"/>
					<path d="M83.31,27.64c-1.42-3.42-3.29-6.65-5.55-9.6l-7.15,5.49c1.78,2.32,3.26,4.87,4.38,7.56L83.31,27.64z"/>
					<path d="M10.51,43.91c0-18.47,15.03-33.5,33.5-33.5c1.48,0,2.96,0.1,4.41,0.29l1.17-8.94c-1.84-0.24-3.72-0.36-5.59-0.36
						C20.57,1.39,1.5,20.47,1.5,43.91c0,1.87,0.12,3.75,0.36,5.59l8.94-1.18C10.61,46.87,10.51,45.39,10.51,43.91z"/>
				</g>
			</g>
		</g>
		<g>
			<path d="M18.67,52.45l6.48,9.18l10.26-5.97c2.12-1.26,3.8-3.15,4.82-5.4l5.15-11.38c0.58-1.29,0.14-2.81-1.05-3.59l0,0
				c-1.19-0.77-2.61,0.07-3.55,1.14l-2.52,4.19c-0.65,1.08-2.43,0.27-2.83-0.92v0c-0.12-0.35-0.1-0.73,0.04-1.06l2.6-6
				c0.38-0.88,1.19-1.51,2.14-1.66l5.79-0.92c0.9-0.14,1.56-0.93,1.54-1.85v0c-0.02-1.06-0.94-1.88-1.99-1.78l-9.22,0.83
				c-0.83,0.07-1.58,0.51-2.06,1.19l-6,8.6c-0.46,0.66-0.73,1.42-0.8,2.22l-0.09,1.01c-0.2,2.35-1.19,4.55-2.81,6.26L18.67,52.45z"
				/>
			<path d="M68.38,42.23c-1.71-9.33-5.19-10.47-7.25-10.56c-3.54-0.15-5.61,2.65-6.17,6.98c0,0,0.54,4.56-4.4,6
				s-6.43,7.39-4.12,12.02c2.31,4.63,10.21,7.56,15.89,4.67C67.99,58.46,70.09,51.56,68.38,42.23z M59.69,52.95
				c-1.45,0.32-2.88-0.59-3.2-2.04s0.59-2.88,2.04-3.2c1.45-0.32,2.88,0.59,3.2,2.04C62.05,51.2,61.13,52.63,59.69,52.95z"/>
		</g>
	</g>
</g>
</svg>
