<?xml version="1.0" encoding="utf-8"?>
<!-- Generator: Adobe Illustrator 24.2.0, SVG Export Plug-In . SVG Version: 6.00 Build 0)  -->
<svg version="1.1" xmlns="http://www.w3.org/2000/svg" x="0px" y="0px"
	 viewBox="0 0 87.87 87.87" style="enable-background:new 0 0 87.87 87.87;" xml:space="preserve">
<g id="Warstwa_3">
</g>
<g id="Warstwa_2">
	<g>
		<path d="M4.74,60.23c1.42,3.42,3.29,6.64,5.55,9.59l7.15-5.5c-1.78-2.32-3.26-4.86-4.38-7.55L4.74,60.23z"/>
		<path d="M18.13,77.65c2.94,2.26,6.17,4.13,9.59,5.55l3.46-8.33c-2.69-1.12-5.23-2.59-7.55-4.37L18.13,77.65z"/>
		<path d="M44.01,1.39C20.57,1.39,1.5,20.47,1.5,43.92c0,1.87,0.12,3.75,0.36,5.58l8.94-1.18c-0.19-1.45-0.29-2.93-0.29-4.41
			c0-18.47,15.03-33.5,33.5-33.5c18.48,0,33.51,15.03,33.51,33.5c0,18.47-15.03,33.5-33.51,33.5c-1.47,0-2.96-0.1-4.41-0.29
			l-1.17,8.94c1.84,0.24,3.72,0.36,5.58,0.36c23.45,0,42.52-19.08,42.52-42.52C86.54,20.47,67.46,1.39,44.01,1.39z"/>
		<path d="M30.55,44.47c2.1-2.81,5.17-6.76,9.94-12.78l0.16-0.2l-4.15-3.24l-0.15,0.19c-3.72,4.69-7.27,9.19-9.95,12.8l-0.14,0.2
			l4.14,3.24L30.55,44.47z M29.88,39.02c0.51-0.45,1.3-0.41,1.75,0.11c0.45,0.51,0.41,1.3-0.11,1.75c-0.51,0.45-1.3,0.41-1.75-0.11
			S29.37,39.48,29.88,39.02z"/>
		<path d="M40.3,60.35l4.25-3.29c0.31,2.64,1.7,5.45,5.44,6.77c4.85,1.71,4.82,6.92,4.82,7.17c1.03-0.23,2.46-1.06,3.36-1.63
			c-0.37-2.67-1.66-6.95-7.02-8.84c-3.63-1.28-3.32-4.8-3.02-6.24l11.82-9.15c1.81-1.4,2.86-3.51,2.88-5.79
			c0.02-2.28-0.98-4.42-2.76-5.85l-5.53-4.47l-3.26-2.63l-2.29-1.85c-0.46-0.37-0.95-0.67-1.46-0.91l-0.19-9.21
			c-1.23-0.36-2.49-0.38-3.5-0.29l0.19,8.8c-2.01,0.09-3.99,0.97-5.37,2.61l-1.01,1.27l4.15,3.24l0.91-1.14
			c0.38-0.44,0.9-0.69,1.45-0.74l0.44,20.12l3.42-2.73l-0.32-15.33l0.96,0.77l3.12,2.52l5.02,4.06c0.51,0.42,0.81,1.04,0.8,1.7
			c-0.01,0.67-0.31,1.28-0.84,1.69L39.36,54.43l-2.97,2.3c-0.27,0.21-0.57,0.33-0.89,0.4c-0.23,0.05-0.48,0.07-0.72,0.03
			c-0.58-0.08-1.08-0.38-1.44-0.84l-4.88-6.46c-0.56-0.74-0.65-1.19-0.38-1.87c0.09-0.18,0.36-0.59,1.08-1.59l0.14-0.2l-4.14-3.23
			l-0.15,0.21c-1.01,1.42-1.59,2.31-1.77,2.74c-1.02,2.47-0.68,4.87,1.01,7.11l4.88,6.46c0.12,0.16,0.24,0.31,0.37,0.45
			c1.18,1.33,2.8,2.2,4.57,2.43c0.85,0.11,1.7,0.07,2.51-0.1c1.08-0.23,2.11-0.69,3.01-1.39L40.3,60.35z"/>
	</g>
</g>
</svg>
