<?xml version="1.0" encoding="utf-8"?>
<!-- Generator: Adobe Illustrator 24.2.0, SVG Export Plug-In . SVG Version: 6.00 Build 0)  -->
<svg version="1.1" xmlns="http://www.w3.org/2000/svg" x="0px" y="0px"
	 viewBox="0 0 87.87 87.87" style="enable-background:new 0 0 87.87 87.87;" xml:space="preserve">
<g id="Warstwa_3">
</g>
<g id="Warstwa_2">
	<g>
		<g>
			<g>
				<g>
					<path d="M44.02,1.39C20.57,1.39,1.5,20.47,1.5,43.92c0,23.44,19.07,42.52,42.52,42.52c23.45,0,42.52-19.08,42.52-42.52
						C86.54,20.47,67.46,1.39,44.02,1.39z M44.02,77.42c-18.47,0-33.5-15.03-33.5-33.5c0-18.47,15.03-33.5,33.5-33.5
						c18.47,0,33.5,15.03,33.5,33.5C77.52,62.39,62.49,77.42,44.02,77.42z"/>
				</g>
			</g>
		</g>
	</g>
	<g>
		<path d="M31.47,37.51c-0.76-2.24-3.22-3.43-5.44-2.65c-2.19,0.77-3.36,3.18-2.62,5.38c0.74,2.2,3.14,3.4,5.35,2.67
			C31.01,42.17,32.23,39.75,31.47,37.51z"/>
		<path d="M60.47,42.83l11.36,6.99c0.4-1.91,0.62-3.88,0.62-5.91c0-15.7-12.73-28.43-28.43-28.43c-6.74,0-12.93,2.35-17.8,6.27
			l7.66,4.71l-0.08,13.45l-0.01-0.01l-3.92,4.04c-1.25,1.29-1.22,3.34,0.07,4.59l6.41,6.55c0.53,0.51,1.16,0.84,1.82,1.03
			c0.24,0.11,0.51,0.17,0.79,0.17c0.01,0,0.01,0,0.02,0l0.23,0c0.11,0,0.21,0,0.32,0l1.32-0.01c-0.11,1.14-0.45,2.54-1.29,3.44
			c-0.68,0.74-1.61,1.1-2.84,1.05c-1.24-0.03-2.29,0.4-3.12,1.28c-2.42,2.56-1.99,8.19-1.97,8.43l1.74-0.14
			c-0.11-1.41-0.06-5.43,1.5-7.08c0.48-0.51,1.09-0.76,1.81-0.73c1.76,0.02,3.14-0.5,4.17-1.61c1.25-1.35,1.65-3.26,1.76-4.65
			l5.79-0.06l0.16,9.91c0.02,1.09,0.91,1.97,2,1.97c0.01,0,0.02,0,0.03,0c1.1-0.02,1.98-0.93,1.97-2.03l-0.19-11.89
			c-0.02-1.09-0.91-1.97-2-1.97c-0.01,0-0.01,0-0.02,0l-5.04,0.05l3.61-6.42L60.47,42.83z M37.86,28.91l3.9,2.4v16.56l-3.99-3.99
			L37.86,28.91z M45.84,43.09l-2.58,4.58V32.24l12.49,7.69l-8.67,2.2C46.56,42.26,46.11,42.61,45.84,43.09z"/>
	</g>
</g>
</svg>
