<svg xmlns="http://www.w3.org/2000/svg" viewBox="0 0 87.87 87.87" width="117.16" height="117.16"><defs><clipPath id="A"><path d="M0 0h87.87v87.87H0z"/></clipPath></defs><g clip-path="url(#A)"><path d="M39.64 77.1l-1.14 8.93a42.84 42.84 0 0 0 5.44.35c1.88 0 3.76-.13 5.61-.37l-1.18-8.92c-2.88.38-5.86.38-8.73.01zM69.8 10.28c-2.94-2.26-6.16-4.13-9.58-5.55l-3.46 8.31a33.67 33.67 0 0 1 7.55 4.37l5.49-7.13zM4.77 60.3c1.43 3.41 3.3 6.63 5.57 9.57l7.12-5.5c-1.79-2.31-3.26-4.85-4.39-7.53l-8.3 3.46zm13.42 17.37a42.65 42.65 0 0 0 9.6 5.52l3.43-8.32a33.28 33.28 0 0 1-7.56-4.35l-5.47 7.15zm38.59-2.85l3.46 8.31a42.57 42.57 0 0 0 9.57-5.55l-5.49-7.13c-2.31 1.78-4.85 3.25-7.54 4.37zm29.24-36.43l-8.92 1.17a33.56 33.56 0 0 1 .28 4.38c0 1.46-.1 2.92-.28 4.36l8.93 1.15c.24-1.82.36-3.67.36-5.51-.01-1.86-.13-3.72-.37-5.55zM70.49 64.27l7.14 5.48c2.26-2.94 4.12-6.17 5.54-9.59l-8.32-3.44c-1.11 2.69-2.58 5.23-4.36 7.55zm12.67-36.58c-1.42-3.42-3.28-6.64-5.54-9.58l-7.14 5.48a33.67 33.67 0 0 1 4.37 7.55l8.31-3.45zM10.5 43.94c0-18.44 15-33.44 33.44-33.44 1.47 0 2.95.1 4.4.29l1.17-8.92c-1.84-.25-3.71-.37-5.57-.37C20.54 1.5 1.5 20.54 1.5 43.94c0 1.87.12 3.74.36 5.58l8.92-1.17c-.19-1.46-.28-2.94-.28-4.41zm51.54 9.94L46.56 33.53l4.91-6.45-3.98-3.03-4.07 5.35-4.07-5.35-3.98 3.03 4.91 6.45-15.49 20.35h-6.54v5h50.33v-5h-6.54zM43.42 37.66l12.34 16.22H31.08l12.34-16.22z"/></g></svg>