<svg xmlns="http://www.w3.org/2000/svg" viewBox="0 0 87.87 87.87"><path d="M43.94 1.5C20.54 1.5 1.5 20.54 1.5 43.94s19.04 42.44 42.44 42.44 42.44-19.04 42.44-42.44S67.34 1.5 43.94 1.5zm0 75.88c-18.44 0-33.44-15-33.44-33.44s15-33.44 33.44-33.44 33.44 15 33.44 33.44c0 18.43-15 33.44-33.44 33.44zm20.33-23.09L47.81 32.65l5.21-6.86-4.23-3.22-4.32 5.68-4.32-5.68-4.23 3.22 5.21 6.86-16.45 21.64h-6.95v5.31h53.49v-5.31h-6.95zM45.69 43.46c.26-1.24 1.27-2.69 2.3-2.67l.03-.13.15-.41c.06-.15.13-.32.27-.51.19.14.29.33.35.52.06.2.05.41-.01.62-.02.06-.06.11-.08.17.78.61 1.21 2.15.97 3.25-.28 1.32-1.4 2.19-2.49 1.96-1.11-.22-1.77-1.48-1.49-2.8zm-4.58-2.79c-.01-.04-.04-.07-.05-.1a1.09 1.09 0 0 1 0-.62c.05-.19.15-.38.34-.52a2.33 2.33 0 0 1 .27.51c.07.15.11.29.15.41l.03.12c1.14.08 2.29 1.75 2.4 3.11.12 1.43-.76 2.66-1.95 2.76-1.2.09-2.25-.99-2.37-2.41-.09-1.19.35-2.72 1.18-3.26zm-4.97 7.8c-.25-.99-.11-2.35.5-2.96-.04-.07-.08-.14-.1-.21-.06-.21-.07-.43 0-.62a.94.94 0 0 1 .34-.53c.13.2.21.36.27.51.07.15.11.28.14.41.01.04.03.08.04.12.99-.07 2.21 1.2 2.51 2.35.31 1.22-.27 2.42-1.29 2.68-1.03.26-2.1-.52-2.41-1.75zm14.12 7.64c-.42.35-.94.55-1.5.58h-.3c-.57-.03-1.24-.21-1.79-.38-.49-.14-1.39-.34-1.87-.31l-.98.12-.44.11c-.54.15-1.49.43-2.1.45h-.18l-.58-.06c-.19-.03-.37-.11-.53-.19-.02-.01-.03-.02-.05-.02a1.81 1.81 0 0 1-.29-.19c-.12-.09-.25-.18-.33-.29-.1-.13-.13-.12-.29-.35a1.81 1.81 0 0 1-.23-.41c-.21-.51-.24-.78-.24-1.34 0-.37 1.37-.91 2.43-2.32 1.05-1.41 1.63-3.37 1.63-3.37.02-.02.02-.03.05-.06l.35-.38.22-.2c.44-.34.93-.62 1.61-.59.47.02.84.08 1.26.25a2.28 2.28 0 0 1 .38.2c.04.02.06.04.09.06.14.09.23.2.33.28 0 0 .08 2.3 1.59 4.2 1.51 1.89 2.91 1.53 2.77 2.5a2.66 2.66 0 0 1-1.01 1.71zM52.8 49c-.43 1-1.46 1.52-2.29 1.16s-1.16-1.46-.73-2.46c.38-.86 1.28-1.78 2.05-1.77l.07-.27.15-.41c.07-.15.14-.32.27-.51a.95.95 0 0 1 .34.52 1.01 1.01 0 0 1-.01.62c-.03.11-.1.22-.17.33.58.58.7 1.93.32 2.79z"/></svg>