<svg xmlns="http://www.w3.org/2000/svg" viewBox="0 0 177.94 180.23"><circle cx="89" cy="90.11" r="85.55" transform="matrix(.22971 -.973259 .973259 .22971 -19.15 156.03)" fill="#194093"/><path d="M89,7.06A83.06,83.06,0,1,1,5.94,90.11,83.05,83.05,0,0,1,89,7.06m0-5a88.06,88.06,0,1,0,88.05,88.05A88.15,88.15,0,0,0,89,2.06Z" fill="#0083ac"/><g fill="#fff"><path d="M76.42 87.92h24.5a3.29 3.29 0 0 0 2.77-5L91.44 63.61a3.29 3.29 0 0 0-5.55 0L73.65 82.87a3.28 3.28 0 0 0 2.77 5.05z"/><path d="M71.49 109.27h34.35a3.29 3.29 0 0 0 2.69-5.18L91.36 79.63a3.29 3.29 0 0 0-5.38 0L68.8 104.09a3.29 3.29 0 0 0 2.69 5.18z"/><path d="M64.54 135.82h48.26a3.29 3.29 0 0 0 2.73-5.11l-24.13-36a3.29 3.29 0 0 0-5.46 0l-24.13 36a3.28 3.28 0 0 0 2.73 5.11z"/><path d="M83.71 129.34v15.45a5 5 0 0 0 1.45 3.51h0a5 5 0 0 0 7 0h0a5 5 0 0 0 1.45-3.51v-15.45a5 5 0 0 0-1.45-3.5h0a5 5 0 0 0-7 0h0a5 5 0 0 0-1.45 3.5z"/></g><g fill="#f8c409"><path d="M38.75 70A54.52 54.52 0 0 1 89 36.1 54.49 54.49 0 0 1 139.19 70a40 40 0 0 1 1.9 8 2.66 2.66 0 0 1-5 1.64l-3.7-6.81A53.82 53.82 0 0 0 119.8 60a51.34 51.34 0 0 0-61.64 0 54.15 54.15 0 0 0-12.6 12.83c-.34.5-2 3.42-3.81 6.8a2.66 2.66 0 0 1-5-1.71 40.69 40.69 0 0 1 2-7.92z"/><circle cx="88.97" cy="37.46" r="14.21"/></g><path d="M89,25.06a12.4,12.4,0,1,1-12.41,12.4A12.4,12.4,0,0,1,89,25.06m0-3.63a16,16,0,1,0,16,16,16,16,0,0,0-16-16Z" fill="#194093"/></svg>