<svg id="ratownik-1" xmlns="http://www.w3.org/2000/svg" viewBox="0 0 177.94 180.23"><defs><style>.cls-1{fill:#194093;}.cls-2{fill:#0083ac;}.cls-3{fill:#fff;}.cls-4{fill:#f8c409;}</style></defs><title>sprawnosci-h-kolka</title><circle class="cls-1" cx="89" cy="90.11" r="85.55" transform="translate(-19.15 156.03) rotate(-76.72)"/><path class="cls-2" d="M89,7.06A83.06,83.06,0,1,1,5.94,90.11,83.05,83.05,0,0,1,89,7.06m0-5a88.06,88.06,0,1,0,88.05,88.05A88.15,88.15,0,0,0,89,2.06Z"/><path class="cls-3" d="M76.42,87.92h24.5a3.29,3.29,0,0,0,2.77-5L91.44,63.61a3.29,3.29,0,0,0-5.55,0L73.65,82.87A3.28,3.28,0,0,0,76.42,87.92Z"/><path class="cls-3" d="M71.49,109.27h34.35a3.29,3.29,0,0,0,2.69-5.18L91.36,79.63a3.29,3.29,0,0,0-5.38,0L68.8,104.09A3.29,3.29,0,0,0,71.49,109.27Z"/><path class="cls-3" d="M64.54,135.82H112.8a3.29,3.29,0,0,0,2.73-5.11l-24.13-36a3.29,3.29,0,0,0-5.46,0l-24.13,36A3.28,3.28,0,0,0,64.54,135.82Z"/><path class="cls-3" d="M83.71,129.34v15.45a5,5,0,0,0,1.45,3.51h0a5,5,0,0,0,7,0h0a5,5,0,0,0,1.45-3.51V129.34a5,5,0,0,0-1.45-3.5h0a5,5,0,0,0-7,0h0A5,5,0,0,0,83.71,129.34Z"/><path class="cls-4" d="M38.75,70A54.52,54.52,0,0,1,89,36.1,54.49,54.49,0,0,1,139.19,70a40,40,0,0,1,1.9,8,2.66,2.66,0,0,1-5,1.64c-1.79-3.39-3.36-6.31-3.7-6.81A53.82,53.82,0,0,0,119.8,60a51.34,51.34,0,0,0-61.64,0,54.15,54.15,0,0,0-12.6,12.83c-.34.5-2,3.42-3.81,6.8a2.66,2.66,0,0,1-5-1.71A40.69,40.69,0,0,1,38.75,70Z"/><circle class="cls-4" cx="88.97" cy="37.46" r="14.21"/><path class="cls-1" d="M89,25.06a12.4,12.4,0,1,1-12.41,12.4A12.4,12.4,0,0,1,89,25.06m0-3.63a16,16,0,1,0,16,16,16,16,0,0,0-16-16Z"/></svg>