<?xml version="1.0" encoding="iso-8859-1"?>
<!-- Generator: Adobe Illustrator 22.1.0, SVG Export Plug-In . SVG Version: 6.00 Build 0)  -->
<svg version="1.1" xmlns="http://www.w3.org/2000/svg" xmlns:xlink="http://www.w3.org/1999/xlink" x="0px" y="0px"
	 viewBox="0 0 90.709 90.709" style="enable-background:new 0 0 90.709 90.709;" xml:space="preserve">
<g id="ratownik-1">
	<g>
		<g>
			<path style="fill:#194093;" d="M45.354,88.874c-23.997,0-43.52-19.522-43.52-43.52S21.358,1.834,45.354,1.834
				s43.52,19.523,43.52,43.521S69.351,88.874,45.354,88.874z"/>
			<g>
				<path style="fill:#252E78;" d="M45.354,2.835c23.483,0,42.52,19.037,42.52,42.52s-19.037,42.52-42.52,42.52
					s-42.52-19.037-42.52-42.52S21.871,2.835,45.354,2.835 M45.354,0.835c-24.548,0-44.52,19.971-44.52,44.52
					s19.971,44.52,44.52,44.52s44.52-19.971,44.52-44.52S69.903,0.835,45.354,0.835L45.354,0.835z"/>
			</g>
		</g>
	</g>
</g>
<g id="Warstwa_4">
	<g>
		<path style="fill:#FFFFFF;" d="M63.829,19.988c0.454-2.412-0.751-4.917-3.078-6.002c-2.327-1.085-5.02-0.398-6.576,1.5
			c-1.862-1.599-4.633-1.808-6.737-0.335c-2.103,1.473-2.855,4.148-1.989,6.445c-2.316,0.813-3.882,3.109-3.659,5.666
			c0.224,2.558,2.165,4.547,4.587,4.945c-0.454,2.412,0.751,4.917,3.078,6.002c2.327,1.085,5.02,0.398,6.576-1.5
			c1.862,1.599,4.633,1.808,6.737,0.335c2.103-1.473,2.855-4.148,1.989-6.445c2.316-0.813,3.882-3.109,3.659-5.666
			C68.192,22.375,66.251,20.387,63.829,19.988z"/>
		<path style="fill:#FFFFFF;" d="M41.691,41.273c0.787-2.088,0.104-4.521-1.808-5.86c-1.912-1.339-4.432-1.149-6.125,0.305
			c-1.415-1.726-3.863-2.35-5.979-1.364s-3.211,3.264-2.799,5.457c-2.202,0.362-3.967,2.171-4.171,4.496
			c-0.203,2.326,1.221,4.413,3.327,5.152c-0.787,2.088-0.104,4.521,1.808,5.86c1.912,1.339,4.432,1.149,6.125-0.305
			c1.415,1.726,3.863,2.35,5.979,1.364c2.116-0.987,3.211-3.264,2.799-5.457c2.202-0.362,3.967-2.171,4.171-4.496
			C45.221,44.099,43.797,42.012,41.691,41.273z"/>
		<path style="fill:#F8C409;" d="M37.724,44.479c0.489,2.657-1.267,5.21-3.925,5.697c-2.657,0.489-5.207-1.264-5.697-3.923
			c-0.489-2.657,1.269-5.207,3.925-5.697C34.685,40.066,37.234,41.826,37.724,44.479z"/>
		<path style="fill:#F8C409;" d="M59.637,24.263c1.013,2.503-0.194,5.355-2.697,6.367c-2.503,1.015-5.355-0.192-6.368-2.698
			c-1.016-2.502,0.194-5.353,2.695-6.366C55.771,20.551,58.622,21.758,59.637,24.263z"/>
		<polygon style="fill:#FFFFFF;" points="57.08,60.072 53.74,80.072 37.405,80.072 33.628,60.072 		"/>
		<g>
			<path style="fill:#F8C409;" d="M64.505,54.544c-5.767,4.038-14.604,1.367-14.604,1.367s0.513-9.217,6.28-13.255
				s14.604-1.367,14.604-1.367S70.272,50.506,64.505,54.544z"/>
		</g>
		<path style="fill:#F8C409;" d="M27.213,28.656c4.672,3.271,11.831,1.108,11.831,1.108s-0.415-7.468-5.088-10.739
			s-11.831-1.108-11.831-1.108S22.541,25.385,27.213,28.656z"/>
	</g>
</g>
</svg>
