<svg xmlns="http://www.w3.org/2000/svg" viewBox="0 0 90.709 90.709"><path d="M45.354 88.874c-23.997 0-43.52-19.522-43.52-43.52s19.524-43.52 43.52-43.52 43.52 19.523 43.52 43.521-19.523 43.519-43.52 43.519z" fill="#194093"/><path d="M45.354 2.835c23.483 0 42.52 19.037 42.52 42.52s-19.037 42.52-42.52 42.52-42.52-19.037-42.52-42.52 19.037-42.52 42.52-42.52m0-2C20.806.835.834 20.806.834 45.355s19.971 44.52 44.52 44.52 44.52-19.971 44.52-44.52S69.903.835 45.354.835h0z" fill="#252e78"/><path d="M63.829 19.988c.454-2.412-.751-4.917-3.078-6.002s-5.02-.398-6.576 1.5c-1.862-1.599-4.633-1.808-6.737-.335a5.5 5.5 0 0 0-1.989 6.445c-2.316.813-3.882 3.109-3.659 5.666a5.5 5.5 0 0 0 4.587 4.945c-.454 2.412.751 4.917 3.078 6.002s5.02.398 6.576-1.5c1.862 1.599 4.633 1.808 6.737.335a5.5 5.5 0 0 0 1.989-6.445c2.316-.813 3.882-3.109 3.659-5.666s-2.165-4.546-4.587-4.945zM41.691 41.273c.787-2.088.104-4.521-1.808-5.86s-4.432-1.149-6.125.305c-1.415-1.726-3.863-2.35-5.979-1.364s-3.211 3.264-2.799 5.457c-2.202.362-3.967 2.171-4.171 4.496s1.221 4.413 3.327 5.152c-.787 2.088-.104 4.521 1.808 5.86s4.432 1.149 6.125-.305c1.415 1.726 3.863 2.35 5.979 1.364s3.211-3.264 2.799-5.457c2.202-.362 3.967-2.171 4.171-4.496s-1.221-4.413-3.327-5.152z" fill="#fff"/><path d="M37.724 44.479a4.892 4.892 0 1 1-9.622 1.774c-.489-2.657 1.269-5.207 3.925-5.697s5.207 1.27 5.697 3.923zm21.913-20.216a4.89 4.89 0 0 1-9.065 3.669 4.89 4.89 0 0 1 9.065-3.669z" fill="#f8c409"/><path d="M57.08 60.072l-3.34 20H37.405l-3.777-20z" fill="#fff"/><path d="M64.505 54.544c-5.767 4.038-14.604 1.367-14.604 1.367s.513-9.217 6.28-13.255 14.604-1.367 14.604-1.367-.513 9.217-6.28 13.255zM27.213 28.656c4.672 3.271 11.831 1.108 11.831 1.108s-.415-7.468-5.088-10.739-11.831-1.108-11.831-1.108.416 7.468 5.088 10.739z" fill="#f8c409"/></svg>