<?xml version="1.0" encoding="iso-8859-1"?>
<!-- Generator: Adobe Illustrator 22.1.0, SVG Export Plug-In . SVG Version: 6.00 Build 0)  -->
<svg version="1.1" xmlns="http://www.w3.org/2000/svg" xmlns:xlink="http://www.w3.org/1999/xlink" x="0px" y="0px"
	 viewBox="0 0 90.709 90.709" style="enable-background:new 0 0 90.709 90.709;" xml:space="preserve">
<g id="ratownik-1">
	<g>
		<g>
			<path style="fill:#194093;" d="M45.354,88.874c-23.997,0-43.52-19.522-43.52-43.52S21.357,1.834,45.354,1.834
				s43.52,19.523,43.52,43.521S69.352,88.874,45.354,88.874z"/>
			<g>
				<path style="fill:#252E78;" d="M45.354,2.835c23.483,0,42.52,19.037,42.52,42.52s-19.037,42.52-42.52,42.52
					s-42.52-19.037-42.52-42.52S21.871,2.835,45.354,2.835 M45.354,0.835c-24.548,0-44.52,19.971-44.52,44.52
					s19.971,44.52,44.52,44.52s44.52-19.971,44.52-44.52S69.903,0.835,45.354,0.835L45.354,0.835z"/>
			</g>
		</g>
	</g>
</g>
<g id="Warstwa_4">
	<g>
		<g>
			<circle style="fill:#F8C409;" cx="45.293" cy="17.048" r="7.641"/>
			<path style="fill:#F8C409;" d="M72.289,34.544c-1.438-3.546-3.594-6.799-6.287-9.526c-2.698-2.724-5.936-4.916-9.478-6.403
				c-0.223-0.094-0.451-0.177-0.677-0.266c-0.303,2.468-1.45,4.675-3.147,6.325c3.209,0.898,6.31,2.372,9.167,4.48
				c2.506,1.841,4.848,4.111,6.773,6.904c0.185,0.268,1.027,1.839,1.992,3.659c0.754,1.422,2.926,0.709,2.682-0.882
				C73.066,37.224,72.734,35.665,72.289,34.544z"/>
			<path style="fill:#F8C409;" d="M34.74,18.348c-0.226,0.089-0.454,0.172-0.678,0.266c-3.542,1.488-6.78,3.68-9.478,6.404
				c-2.694,2.727-4.849,5.981-6.288,9.526c-0.442,1.114-0.788,2.658-1.054,4.254c-0.265,1.586,1.896,2.328,2.67,0.918
				c0.996-1.816,1.864-3.384,2.049-3.652c1.926-2.791,4.267-5.057,6.77-6.898c2.857-2.108,5.958-3.581,9.167-4.481
				C36.194,23.033,35.043,20.822,34.74,18.348z"/>
		</g>
		<g>
			<g>
				<path style="fill:#FFFFFF;" d="M57.456,73.869l-0.875-4.307c2.211-0.949,5.003-7.074,2.176-9.586
					c4.19-1.977,4.119-6.237,4.005-7.085c-0.118-0.884-1.679-1.849-2.128-2.894c-0.454-1.046-1.201-3.547-3.528-4.691
					c-1.296-0.634-2.644-1.059-4.233-1.117c-1.419-4.502-2.374-6.857-3.764-9.202c-1.792-3.018-4.289-4.899-4.909-4.677
					c-0.36,0.127-1.225,1.929-1.336,4.454c2.917,2.422,5.988,5.851,7.833,10.478c0.307,0.77-0.068,1.643-0.838,1.949
					c-0.183,0.072-0.37,0.106-0.556,0.106c-0.596,0-1.159-0.357-1.394-0.944c-1.742-4.37-4.749-7.554-7.514-9.735
					c-1.811-1.311-3.959-2.459-5.181-1.655c-0.546,0.359-0.572,5.973,3.958,9.87c1.901,1.64,3.949,2.639,5.623,3.244
					c-1.755,1.764-2.062,5.604-0.468,8.612v0.005c0.586,1.877-2.091,2.019-6.55,3.291c-2.794,0.793-4.656,2.492-5.753,4.658
					c-0.001-0.005-0.001-0.009-0.003-0.014c-0.269-0.94-1.799-3.407-2.74-3.138c-0.851,0.244-0.926,2.641-0.733,3.791
					c-0.996-0.505-1.757,0.188-1.775,1.428c-0.019,1.276,0.747,3.069,1.967,4.35c-1.201,0.042-1.438,0.615-1.121,1.438
					c0.317,0.832,1.523,1.801,4.072,1.551v3.197h13.801c-0.18-0.738-0.547-1.42-1.098-1.972c-0.792-0.791-1.844-1.228-2.963-1.229
					c-0.003,0-0.006,0-0.009,0c-0.828,0-1.5-0.671-1.5-1.5c0-0.828,0.671-1.499,1.499-1.5c0.001,0,0.001,0,0.002,0
					c1.263,0,2.29-1.028,2.29-2.291c0-1.264-1.027-2.292-2.291-2.292c-0.828,0-1.5-0.672-1.5-1.5s0.672-1.5,1.5-1.5
					c2.917,0,5.291,2.374,5.291,5.292c0,1.334-0.496,2.554-1.313,3.484c0.396,0.264,0.77,0.569,1.114,0.913
					c1.121,1.121,1.82,2.549,2.034,4.094h12.283C60.834,75.382,59.322,73.869,57.456,73.869z M51.934,51.371
					c0-1.566,1.269-2.835,2.835-2.835s2.835,1.269,2.835,2.835s-1.269,2.835-2.835,2.835S51.934,52.937,51.934,51.371z"/>
			</g>
			<g>
				<path style="fill:#F8C409;" d="M60.295,53.664c-0.036,0.811,1.166,1.921,2.091,2.307c0.477-1.402,0.433-2.66,0.377-3.079
					c-0.02-0.148-0.09-0.299-0.179-0.452C61.695,52.537,60.333,52.821,60.295,53.664z"/>
			</g>
		</g>
	</g>
</g>
</svg>
