<svg xmlns="http://www.w3.org/2000/svg" viewBox="0 0 90.709 90.709"><path d="M45.354 88.874c-23.997 0-43.52-19.522-43.52-43.52s19.523-43.52 43.52-43.52 43.52 19.523 43.52 43.521-19.522 43.519-43.52 43.519z" fill="#194093"/><path d="M45.354 2.835c23.483 0 42.52 19.037 42.52 42.52s-19.037 42.52-42.52 42.52-42.52-19.037-42.52-42.52 19.037-42.52 42.52-42.52m0-2C20.806.835.834 20.806.834 45.355s19.971 44.52 44.52 44.52 44.52-19.971 44.52-44.52S69.903.835 45.354.835h0z" fill="#252e78"/><g fill="#f8c409"><circle cx="45.293" cy="17.048" r="7.641"/><path d="M72.289 34.544c-1.438-3.546-3.594-6.799-6.287-9.526s-5.936-4.916-9.478-6.403c-.223-.094-.451-.177-.677-.266a10.62 10.62 0 0 1-3.147 6.325c3.209.898 6.31 2.372 9.167 4.48 2.506 1.841 4.848 4.111 6.773 6.904.185.268 1.027 1.839 1.992 3.659.754 1.422 2.926.709 2.682-.882-.248-1.611-.58-3.17-1.025-4.291zM34.74 18.348l-.678.266c-3.542 1.488-6.78 3.68-9.478 6.404a29.27 29.27 0 0 0-6.288 9.526c-.442 1.114-.788 2.658-1.054 4.254-.265 1.586 1.896 2.328 2.67.918l2.049-3.652c1.926-2.791 4.267-5.057 6.77-6.898 2.857-2.108 5.958-3.581 9.167-4.481-1.704-1.652-2.855-3.863-3.158-6.337z"/></g><path d="M57.456 73.869l-.875-4.307c2.211-.949 5.003-7.074 2.176-9.586 4.19-1.977 4.119-6.237 4.005-7.085-.118-.884-1.679-1.849-2.128-2.894-.454-1.046-1.201-3.547-3.528-4.691-1.296-.634-2.644-1.059-4.233-1.117-1.419-4.502-2.374-6.857-3.764-9.202-1.792-3.018-4.289-4.899-4.909-4.677-.36.127-1.225 1.929-1.336 4.454 2.917 2.422 5.988 5.851 7.833 10.478a1.5 1.5 0 0 1-.838 1.949 1.51 1.51 0 0 1-.556.106 1.5 1.5 0 0 1-1.394-.944c-1.742-4.37-4.749-7.554-7.514-9.735-1.811-1.311-3.959-2.459-5.181-1.655-.546.359-.572 5.973 3.958 9.87 1.901 1.64 3.949 2.639 5.623 3.244-1.755 1.764-2.062 5.604-.468 8.612v.005c.586 1.877-2.091 2.019-6.55 3.291-2.794.793-4.656 2.492-5.753 4.658-.272-.954-1.802-3.421-2.743-3.152-.851.244-.926 2.641-.733 3.791-.996-.505-1.757.188-1.775 1.428-.019 1.276.747 3.069 1.967 4.35-1.201.042-1.438.615-1.121 1.438.317.832 1.523 1.801 4.072 1.551v3.197h13.801c-.18-.738-.547-1.42-1.098-1.972a4.17 4.17 0 0 0-2.963-1.229c-.837 0-1.509-.671-1.509-1.5a1.5 1.5 0 0 1 1.499-1.5c1.265 0 2.292-1.028 2.292-2.291s-1.027-2.292-2.291-2.292a1.5 1.5 0 1 1 0-3 5.3 5.3 0 0 1 5.291 5.292c0 1.334-.496 2.554-1.313 3.484a7.31 7.31 0 0 1 1.114.913c1.121 1.121 1.82 2.549 2.034 4.094h12.283c.003-1.863-1.509-3.376-3.375-3.376zm-5.522-22.498c0-1.566 1.269-2.835 2.835-2.835s2.835 1.269 2.835 2.835-1.269 2.835-2.835 2.835-2.835-1.269-2.835-2.835z" fill="#fff"/><path d="M60.295 53.664c-.036.811 1.166 1.921 2.091 2.307.477-1.402.433-2.66.377-3.079-.02-.148-.09-.299-.179-.452-.889.097-2.251.381-2.289 1.224z" fill="#f8c409"/></svg>