<svg xmlns="http://www.w3.org/2000/svg" viewBox="0 0 90.709 90.709"><circle transform="matrix(.9239 -.3827 .3827 .9239 -13.9041 20.8088)" cx="45.354" cy="45.355" r="43.52" fill="#194093"/><path d="M45.354 2.835c23.483 0 42.52 19.037 42.52 42.52s-19.037 42.52-42.52 42.52-42.52-19.037-42.52-42.52 19.037-42.52 42.52-42.52m0-2C20.806.835.834 20.806.834 45.355s19.971 44.52 44.52 44.52 44.52-19.971 44.52-44.52S69.903.835 45.354.835h0z" fill="#252e78"/><path d="M33.016 26.683l-7.711-13.355-7.711 13.355c1.2.364 2.437.645 3.702.838l-6.322 10.95c1.197.364 2.43.644 3.677.881L10.615 53.27c3.704 1.125 7.588 1.832 11.598 2.076v5.247h6.183v-5.247c.566-.034 1.124-.099 1.685-.152V39.961a2.01 2.01 0 0 1 .046-.421c.004-.018.012-.036.017-.054.035-.143.087-.279.151-.408.009-.019.012-.04.022-.059s.029-.036.041-.057c.07-.12.15-.232.242-.334.018-.02.032-.042.05-.061.111-.114.236-.212.371-.297.033-.021.069-.037.103-.056.11-.06.224-.11.345-.149.042-.014.082-.028.124-.039a1.96 1.96 0 0 1 .487-.067h3.26l-6.028-10.44c1.268-.192 2.504-.472 3.704-.836zm3.276 27.372c0-.942.654-1.727 1.531-1.939l-2.289-3.415h-1.452v5.971l2.226-.454c-.004-.055-.016-.107-.016-.163z" fill="#fff"/><path d="M80.596 54.055a2 2 0 0 0-2-2h-4.067l-2.248-3.354h.763a2 2 0 1 0 0-4H69.6l-3.924-5.854c-.371-.555-.994-.887-1.661-.887h-7.021l-1.209-1.804c-.615-.919-1.857-1.165-2.774-.548-.783.525-1.071 1.505-.758 2.352h-3.297l-1.209-1.804c-.615-.919-1.858-1.165-2.775-.548-.783.525-1.071 1.505-.758 2.352h-3.298l-1.209-1.804c-.529-.791-1.523-1.079-2.374-.752-.138.053-.273.118-.401.205-.783.525-1.071 1.505-.758 2.352h-.83-3.26c-.169 0-.331.027-.487.067-.043.011-.083.025-.124.039a1.89 1.89 0 0 0-.345.149l-.103.056c-.135.085-.26.183-.371.297-.018.019-.033.041-.05.061-.092.103-.172.214-.242.334-.012.021-.03.036-.041.057s-.012.04-.022.059c-.064.129-.116.265-.151.408-.004.018-.013.035-.017.054a2.01 2.01 0 0 0-.046.421v15.232 5.403c0 .863.55 1.592 1.315 1.872.214.078.443.128.685.128a2 2 0 0 0 2-2v-2.881-3.043-5.971h1.452l2.289 3.415c-.877.212-1.531.997-1.531 1.939 0 .056.012.109.016.163.084 1.027.935 1.837 1.984 1.837h2.171l.112.167 3.679 5.488c.371.555.994.887 1.661.887H77.85a2 2 0 0 0 1.765-1.059c.348-.652.308-1.441-.104-2.055l-2.298-3.428h1.386c1.101-.002 1.997-.898 1.997-2.002zm-6.498 4.541h-3.272l-1.703-2.541h3.272l1.703 2.541zM56.696 44.701h-3.224l-1.837-2.74h3.224l1.837 2.74zm2.978-2.74h3.272l1.837 2.74h-3.272l-1.837-2.74zm3.113 16.635l-1.703-2.541h3.224l1.703 2.541h-3.224zm-8.04 0l-1.703-2.541h3.224l1.703 2.541h-3.224zm-12.149-6.541l-2.248-3.354h2.95l2.248 3.354h-2.95zm5.516-3.354h3.224l2.248 3.354h-3.224l-2.248-3.354zm10.288 3.354l-2.248-3.354h3.224l2.248 3.354h-3.224zm-9.745-7.354h-3.224l-1.837-2.74h3.225l1.836 2.74zm-8.039 0h-2.95l-1.837-2.74h2.95l1.837 2.74zm7.611 11.354l1.703 2.541h-2.95l-1.703-2.541h2.95zm18.212-4l-2.248-3.354h3.272l2.248 3.354h-3.272zM44.093 65.134c.311.559.544 1.177.68 1.838a6.45 6.45 0 0 1-.623 4.34c-.82 1.544-3.054 1.472-3.743-.134a8.15 8.15 0 0 1-.519-1.731 7.98 7.98 0 0 0-2.278 5.229c-.178 3.797 2.318 7.096 5.826 8.083-.722-.516-1.203-1.282-1.18-2.285.054-2.98 3.379-2.267 3.296-6.485.752.454 6.1 4.135 3.569 8.178 4.653-2.688 4.987-7.867 3.766-10.33-1.229-2.476-3.07-6.108-8.794-6.703z" fill="#f8c409"/></svg>