<?xml version="1.0" encoding="iso-8859-1"?>
<!-- Generator: Adobe Illustrator 22.1.0, SVG Export Plug-In . SVG Version: 6.00 Build 0)  -->
<svg version="1.1" xmlns="http://www.w3.org/2000/svg" xmlns:xlink="http://www.w3.org/1999/xlink" x="0px" y="0px"
	 viewBox="0 0 90.709 90.709" style="enable-background:new 0 0 90.709 90.709;" xml:space="preserve">
<g id="ratownik-1">
	<g>
		<g>
			
				<ellipse transform="matrix(0.9239 -0.3827 0.3827 0.9239 -13.9041 20.8088)" style="fill:#194093;" cx="45.354" cy="45.355" rx="43.52" ry="43.52"/>
			<g>
				<path style="fill:#252E78;" d="M45.354,2.835c23.483,0,42.52,19.037,42.52,42.52s-19.037,42.52-42.52,42.52
					s-42.52-19.037-42.52-42.52S21.871,2.835,45.354,2.835 M45.354,0.835c-24.548,0-44.52,19.971-44.52,44.52
					s19.971,44.52,44.52,44.52s44.52-19.971,44.52-44.52S69.903,0.835,45.354,0.835L45.354,0.835z"/>
			</g>
		</g>
	</g>
</g>
<g id="Warstwa_4">
	<g>
		<path style="fill:#FFFFFF;" d="M33.016,26.683l-7.711-13.355l-7.711,13.355c1.2,0.364,2.437,0.645,3.702,0.838l-6.322,10.95
			c1.197,0.364,2.43,0.644,3.677,0.881l-8.036,13.918c3.704,1.125,7.588,1.832,11.598,2.076v5.247h6.183v-5.247
			c0.566-0.034,1.124-0.099,1.685-0.152V39.961c0-0.145,0.017-0.285,0.046-0.421c0.004-0.018,0.012-0.036,0.017-0.054
			c0.035-0.143,0.087-0.279,0.151-0.408c0.009-0.019,0.012-0.04,0.022-0.059c0.011-0.021,0.029-0.036,0.041-0.057
			c0.07-0.12,0.15-0.232,0.242-0.334c0.018-0.02,0.032-0.042,0.05-0.061c0.111-0.114,0.236-0.212,0.371-0.297
			c0.033-0.021,0.069-0.037,0.103-0.056c0.11-0.06,0.224-0.11,0.345-0.149c0.042-0.014,0.082-0.028,0.124-0.039
			c0.157-0.04,0.318-0.067,0.487-0.067h3.26l-6.028-10.44C30.58,27.327,31.816,27.047,33.016,26.683z"/>
		<path style="fill:#FFFFFF;" d="M36.292,54.055c0-0.942,0.654-1.727,1.531-1.939l-2.289-3.415h-1.452v5.971
			c0.749-0.131,1.489-0.29,2.226-0.454C36.304,54.163,36.292,54.111,36.292,54.055z"/>
		<path style="fill:#F8C409;" d="M80.596,54.055c0-1.104-0.896-2-2-2h-4.067l-2.248-3.354h0.763c1.104,0,2-0.896,2-2s-0.896-2-2-2
			h-3.444l-3.924-5.854c-0.371-0.555-0.994-0.887-1.661-0.887h-7.021l-1.209-1.804c-0.615-0.919-1.857-1.165-2.774-0.548
			c-0.783,0.525-1.071,1.505-0.758,2.352h-3.297l-1.209-1.804c-0.615-0.919-1.858-1.165-2.775-0.548
			c-0.783,0.525-1.071,1.505-0.758,2.352h-3.298l-1.209-1.804c-0.529-0.791-1.523-1.079-2.374-0.752
			c-0.138,0.053-0.273,0.118-0.401,0.205c-0.783,0.525-1.071,1.505-0.758,2.352h-0.83h-3.26c-0.169,0-0.331,0.027-0.487,0.067
			c-0.043,0.011-0.083,0.025-0.124,0.039c-0.121,0.039-0.236,0.088-0.345,0.149c-0.035,0.019-0.07,0.035-0.103,0.056
			c-0.135,0.085-0.26,0.183-0.371,0.297c-0.018,0.019-0.033,0.041-0.05,0.061c-0.092,0.103-0.172,0.214-0.242,0.334
			c-0.012,0.021-0.03,0.036-0.041,0.057c-0.01,0.019-0.012,0.04-0.022,0.059c-0.064,0.129-0.116,0.265-0.151,0.408
			c-0.004,0.018-0.013,0.035-0.017,0.054c-0.029,0.136-0.046,0.276-0.046,0.421v15.232v5.403c0,0.863,0.55,1.592,1.315,1.872
			c0.214,0.078,0.443,0.128,0.685,0.128c1.104,0,2-0.896,2-2v-2.881v-3.043v-5.971h1.452l2.289,3.415
			c-0.877,0.212-1.531,0.997-1.531,1.939c0,0.056,0.012,0.109,0.016,0.163c0.084,1.027,0.935,1.837,1.984,1.837h2.171l0.112,0.167
			l3.679,5.488c0.371,0.555,0.994,0.887,1.661,0.887h31.932c0.738,0,1.417-0.407,1.765-1.059s0.308-1.441-0.104-2.055l-2.298-3.428
			h1.386C79.7,56.055,80.596,55.159,80.596,54.055z M74.098,58.596h-3.272l-1.703-2.541h3.272L74.098,58.596z M56.696,44.701h-3.224
			l-1.837-2.74h3.224L56.696,44.701z M59.674,41.961h3.272l1.837,2.74h-3.272L59.674,41.961z M62.787,58.596l-1.703-2.541h3.224
			l1.703,2.541H62.787z M54.747,58.596l-1.703-2.541h3.224l1.703,2.541H54.747z M42.598,52.055l-2.248-3.354h2.95l2.248,3.354
			H42.598z M48.114,48.701h3.224l2.248,3.354h-3.224L48.114,48.701z M58.402,52.055l-2.248-3.354h3.224l2.248,3.354H58.402z
			 M48.657,44.701h-3.224l-1.837-2.74h3.225L48.657,44.701z M40.618,44.701h-2.95l-1.837-2.74h2.95L40.618,44.701z M48.229,56.055
			l1.703,2.541h-2.95l-1.703-2.541H48.229z M66.441,52.055l-2.248-3.354h3.272l2.248,3.354H66.441z"/>
		<path style="fill:#F8C409;" d="M44.093,65.134c0.311,0.559,0.544,1.177,0.68,1.838c0.316,1.536,0.059,3.056-0.623,4.34
			c-0.82,1.544-3.054,1.472-3.743-0.134c-0.235-0.549-0.408-1.129-0.519-1.731c-1.328,1.355-2.182,3.184-2.278,5.229
			c-0.178,3.797,2.318,7.096,5.826,8.083c-0.722-0.516-1.203-1.282-1.18-2.285c0.054-2.98,3.379-2.267,3.296-6.485
			c0.752,0.454,6.1,4.135,3.569,8.178c4.653-2.688,4.987-7.867,3.766-10.33C51.658,69.361,49.817,65.729,44.093,65.134z"/>
	</g>
</g>
</svg>
