<?xml version="1.0" encoding="iso-8859-1"?>
<!-- Generator: Adobe Illustrator 22.1.0, SVG Export Plug-In . SVG Version: 6.00 Build 0)  -->
<svg version="1.1" xmlns="http://www.w3.org/2000/svg" xmlns:xlink="http://www.w3.org/1999/xlink" x="0px" y="0px"
	 viewBox="0 0 90.709 90.709" style="enable-background:new 0 0 90.709 90.709;" xml:space="preserve">
<g id="ratownik-1">
	<g>
		<g>
			<path style="fill:#194093;" d="M45.354,88.874c-23.997,0-43.52-19.522-43.52-43.52s19.522-43.52,43.52-43.52
				s43.521,19.522,43.521,43.52S69.351,88.874,45.354,88.874z"/>
			<g>
				<path style="fill:#252E78;" d="M45.354,2.835c23.483,0,42.52,19.037,42.52,42.52s-19.037,42.52-42.52,42.52
					c-23.483,0-42.52-19.037-42.52-42.52S21.871,2.835,45.354,2.835 M45.354,0.835c-24.548,0-44.52,19.971-44.52,44.52
					s19.971,44.52,44.52,44.52s44.52-19.971,44.52-44.52S69.903,0.835,45.354,0.835L45.354,0.835z"/>
			</g>
		</g>
	</g>
</g>
<g id="Warstwa_4">
	<g>
		<polygon style="fill:none;" points="49.759,47.329 49.759,58.242 58.348,47.329 		"/>
		<path style="fill:none;" d="M29.424,26.306c-8.456,0-15.335,6.879-15.335,15.335c0,4.703,2.132,8.913,5.475,11.728V37.827
			c0-1.373,1.113-2.486,2.486-2.486h20.296c0.37,0,0.73,0.036,1.085,0.088C41.043,30.062,35.668,26.306,29.424,26.306z"/>
		<path style="fill:#F8C409;" d="M14.09,41.64c0-8.456,6.879-15.335,15.335-15.335c6.244,0,11.619,3.756,14.008,9.123
			c3.397,0.5,6.04,3.298,6.299,6.768c0.005-0.187,0.028-0.368,0.028-0.556c0-11.231-9.104-20.335-20.335-20.335
			S9.09,30.41,9.09,41.64c0,7.651,4.23,14.309,10.475,17.779v-6.051C16.222,50.553,14.09,46.343,14.09,41.64z"/>
		<path style="fill:#FFFFFF;" d="M67.128,36.174l-4.845,6.156H49.738c-0.003-0.044-0.003-0.089-0.007-0.133
			c-0.258-3.47-2.901-6.268-6.299-6.768c-0.355-0.052-0.716-0.088-1.085-0.088H22.051c-1.373,0-2.486,1.113-2.486,2.486v15.542
			v6.051v7.873c0,3.451,2.797,6.248,6.248,6.248h17.697c3.451,0,6.248-2.797,6.248-6.248v-0.966l21.465-27.273h6.742l-6.306-10.923
			C71.659,28.131,67.179,35.963,67.128,36.174z M40.592,64.173c-2.051,1.49-5.004,0.92-6.612-1.268
			c-0.018,0.027-0.03,0.058-0.05,0.085c-1.604,2.208-4.573,2.785-6.631,1.29c-2.051-1.49-2.422-4.475-0.838-6.681
			c-0.032-0.009-0.065-0.01-0.096-0.021c-2.595-0.843-4.062-3.489-3.276-5.908c0.783-2.411,3.508-3.686,6.095-2.861
			c-0.001-0.033-0.01-0.065-0.01-0.098c0-2.729,2.063-4.941,4.607-4.941c2.535,0,4.589,2.197,4.604,4.913
			c0.031-0.011,0.059-0.03,0.09-0.04c2.595-0.843,5.337,0.435,6.123,2.855c0.783,2.411-0.671,5.044-3.249,5.897
			c0.021,0.026,0.046,0.047,0.066,0.073C43.019,59.676,42.651,62.678,40.592,64.173z M49.759,47.329h8.589l-8.589,10.912V47.329z"/>
		<path style="fill:#FFFFFF;" d="M81.026,36.148c0.104,0.404,0.091,0.815-0.016,1.195C81.117,36.963,81.129,36.553,81.026,36.148z"
			/>
		<path style="fill:#F8C409;" d="M81.026,36.148c-0.052-0.202-0.132-0.403-0.245-0.597l-4.68-8.107
			c-0.899-1.557-3.146-1.557-4.045,0l-0.396,0.687v0l6.306,10.923h0.793h0c0.899,0,1.629-0.487,2.022-1.168
			c0.098-0.17,0.176-0.353,0.229-0.543C81.117,36.963,81.129,36.553,81.026,36.148z"/>
		<path style="fill:#F8C409;" d="M41.415,57.468c-0.019-0.027-0.045-0.047-0.066-0.073c2.578-0.853,4.033-3.486,3.249-5.897
			c-0.786-2.42-3.528-3.698-6.123-2.855c-0.031,0.01-0.059,0.028-0.09,0.04c-0.015-2.715-2.069-4.913-4.604-4.913
			c-2.544,0-4.607,2.212-4.607,4.941c0,0.033,0.009,0.065,0.01,0.098c-2.587-0.825-5.312,0.45-6.095,2.861
			c-0.786,2.42,0.68,5.065,3.276,5.908c0.031,0.01,0.064,0.012,0.096,0.021c-1.584,2.206-1.213,5.191,0.838,6.681
			c2.058,1.496,5.027,0.918,6.631-1.29c0.02-0.027,0.031-0.058,0.05-0.085c1.608,2.188,4.561,2.758,6.612,1.268
			C42.651,62.678,43.019,59.676,41.415,57.468z M33.872,50.381c2.595,0,4.698,2.103,4.698,4.698s-2.103,4.698-4.698,4.698
			c-2.594,0-4.698-2.103-4.698-4.698S31.278,50.381,33.872,50.381z"/>
	</g>
</g>
</svg>
