<svg xmlns="http://www.w3.org/2000/svg" viewBox="0 0 90.709 90.709"><path d="M45.354 88.874c-23.997 0-43.52-19.522-43.52-43.52s19.522-43.52 43.52-43.52 43.521 19.522 43.521 43.52-19.524 43.52-43.521 43.52z" fill="#194093"/><path d="M45.354 2.835c23.483 0 42.52 19.037 42.52 42.52s-19.037 42.52-42.52 42.52-42.52-19.037-42.52-42.52 19.037-42.52 42.52-42.52m0-2C20.806.835.834 20.806.834 45.355s19.971 44.52 44.52 44.52 44.52-19.971 44.52-44.52S69.903.835 45.354.835h0z" fill="#252e78"/><path d="M14.09 41.64c0-8.456 6.879-15.335 15.335-15.335 6.244 0 11.619 3.756 14.008 9.123 3.397.5 6.04 3.298 6.299 6.768.005-.187.028-.368.028-.556 0-11.231-9.104-20.335-20.335-20.335A20.34 20.34 0 0 0 9.09 41.64c0 7.651 4.23 14.309 10.475 17.779v-6.051c-3.343-2.815-5.475-7.025-5.475-11.728z" fill="#f8c409"/><path d="M67.128 36.174l-4.845 6.156H49.738l-.007-.133c-.258-3.47-2.901-6.268-6.299-6.768-.355-.052-.716-.088-1.085-.088H22.051c-1.373 0-2.486 1.113-2.486 2.486v15.542 6.051 7.873a6.25 6.25 0 0 0 6.248 6.248H43.51a6.25 6.25 0 0 0 6.248-6.248v-.966l21.465-27.273h6.742l-6.306-10.923-4.531 8.043zM40.592 64.173c-2.051 1.49-5.004.92-6.612-1.268-.018.027-.03.058-.05.085-1.604 2.208-4.573 2.785-6.631 1.29-2.051-1.49-2.422-4.475-.838-6.681-.032-.009-.065-.01-.096-.021-2.595-.843-4.062-3.489-3.276-5.908.783-2.411 3.508-3.686 6.095-2.861-.001-.033-.01-.065-.01-.098 0-2.729 2.063-4.941 4.607-4.941 2.535 0 4.589 2.197 4.604 4.913.031-.011.059-.03.09-.04 2.595-.843 5.337.435 6.123 2.855.783 2.411-.671 5.044-3.249 5.897.021.026.046.047.066.073 1.604 2.208 1.236 5.21-.823 6.705zm9.167-16.844h8.589l-8.589 10.912V47.329zm31.267-11.181c.104.404.091.815-.016 1.195.107-.38.119-.79.016-1.195z" fill="#fff"/><path d="M81.026 36.148c-.052-.202-.132-.403-.245-.597l-4.68-8.107a2.34 2.34 0 0 0-4.045 0l-.396.687h0l6.306 10.923h.793 0c.899 0 1.629-.487 2.022-1.168a2.36 2.36 0 0 0 .229-.543c.107-.38.119-.79.016-1.195zm-39.611 21.32c-.019-.027-.045-.047-.066-.073 2.578-.853 4.033-3.486 3.249-5.897-.786-2.42-3.528-3.698-6.123-2.855-.031.01-.059.028-.09.04-.015-2.715-2.069-4.913-4.604-4.913-2.544 0-4.607 2.212-4.607 4.941 0 .033.009.065.01.098-2.587-.825-5.312.45-6.095 2.861-.786 2.42.68 5.065 3.276 5.908.031.01.064.012.096.021-1.584 2.206-1.213 5.191.838 6.681 2.058 1.496 5.027.918 6.631-1.29.02-.027.031-.058.05-.085 1.608 2.188 4.561 2.758 6.612 1.268 2.059-1.495 2.427-4.497.823-6.705zm-7.543-7.087a4.7 4.7 0 0 1 4.698 4.698 4.7 4.7 0 0 1-4.698 4.698 4.7 4.7 0 0 1-4.698-4.698 4.7 4.7 0 0 1 4.698-4.698z" fill="#f8c409"/></svg>