<?xml version="1.0" encoding="iso-8859-1"?>
<!-- Generator: Adobe Illustrator 22.1.0, SVG Export Plug-In . SVG Version: 6.00 Build 0)  -->
<svg version="1.1" xmlns="http://www.w3.org/2000/svg" xmlns:xlink="http://www.w3.org/1999/xlink" x="0px" y="0px"
	 viewBox="0 0 90.709 90.709" style="enable-background:new 0 0 90.709 90.709;" xml:space="preserve">
<g id="ratownik-1">
	<g>
		<g>
			<circle style="fill:#194093;" cx="45.354" cy="45.355" r="43.52"/>
			<g>
				<path style="fill:#252E78;" d="M45.354,2.835c23.483,0,42.52,19.037,42.52,42.52s-19.037,42.52-42.52,42.52
					s-42.52-19.037-42.52-42.52S21.871,2.835,45.354,2.835 M45.354,0.835c-24.548,0-44.52,19.971-44.52,44.52
					s19.971,44.52,44.52,44.52s44.52-19.971,44.52-44.52S69.903,0.835,45.354,0.835L45.354,0.835z"/>
			</g>
		</g>
	</g>
</g>
<g id="Warstwa_4">
	<g>
		<g>
			<g>
				<path style="fill:#FFFFFF;" d="M42.597,79.088V70.32c0-0.468-0.234-0.701-0.701-0.701h-1.212v-4.623h5.102
					c0.808,0,1.397,0.187,1.77,0.558c0.371,0.372,0.558,0.962,0.558,1.77v8.768c0,0.468,0.233,0.701,0.701,0.701h1.212v4.623h-5.102
					c-0.808,0-1.397-0.186-1.77-0.558S42.597,79.895,42.597,79.088z M43.011,63.083v-4.464h4.623v4.464H43.011z"/>
			</g>
		</g>
		<g>
			<path style="fill:#F8C409;" d="M74.768,54.307H15.941c-0.828,0-1.5-0.672-1.5-1.5s0.672-1.5,1.5-1.5h58.827
				c0.828,0,1.5,0.672,1.5,1.5S75.596,54.307,74.768,54.307z"/>
		</g>
		<g>
			<polygon style="fill:#FFFFFF;" points="62.71,41.091 62.71,22.792 56.71,22.792 56.71,41.091 48.354,41.091 48.354,22.792 
				42.354,22.792 42.354,41.091 33.999,41.091 33.999,22.792 27.999,22.792 27.999,41.091 22.921,41.091 22.921,47.091 
				67.787,47.091 67.787,41.091 			"/>
			<g>
				<polygon style="fill:#F8C409;" points="67.787,25.413 22.922,25.413 45.426,9.294 				"/>
			</g>
		</g>
	</g>
</g>
</svg>
