<svg xmlns="http://www.w3.org/2000/svg" viewBox="0 0 90.709 90.709"><path d="M45.354 88.874c-23.997 0-43.52-19.523-43.52-43.52s19.522-43.52 43.52-43.52 43.521 19.523 43.521 43.52-19.524 43.52-43.521 43.52z" fill="#194093"/><path d="M45.354 2.835c23.483 0 42.52 19.037 42.52 42.52s-19.037 42.52-42.52 42.52-42.52-19.037-42.52-42.52 19.037-42.52 42.52-42.52m0-2C20.806.835.834 20.806.834 45.355s19.971 44.52 44.52 44.52 44.52-19.971 44.52-44.52S69.903.835 45.354.835h0z" fill="#252e78"/><path d="M44.04 67.592L30.269 52.936c-1.261 2.547-2.067 4.72-2.067 6.112a11.55 11.55 0 0 0 11.547 11.547h2.716v5.485a2.67 2.67 0 0 0 .781 1.886c1.042 1.042 2.731 1.042 3.772 0a2.67 2.67 0 0 0 .781-1.886v-5.485h2.685a11.55 11.55 0 0 0 11.547-11.547c0-1.392-.807-3.566-2.067-6.112L46.196 67.592a1.48 1.48 0 0 1-2.156 0z" fill="#fff"/><path d="M72.289 34.544c-1.438-3.546-3.594-6.799-6.287-9.526a29.42 29.42 0 0 0-9.478-6.403c-.223-.094-.451-.177-.677-.266-.303 2.468-1.449 4.675-3.147 6.325 3.209.898 6.31 2.372 9.167 4.48 2.506 1.841 4.848 4.111 6.773 6.904.185.268 1.027 1.839 1.992 3.659.754 1.422 2.926.709 2.682-.882-.247-1.611-.58-3.17-1.025-4.291zm-37.55-16.196l-.678.266c-3.542 1.488-6.78 3.68-9.478 6.404a29.27 29.27 0 0 0-6.288 9.526c-.442 1.114-.788 2.658-1.054 4.254-.264 1.586 1.896 2.328 2.67.918l2.049-3.652c1.927-2.79 4.267-5.057 6.77-6.898 2.857-2.108 5.958-3.581 9.167-4.481-1.703-1.652-2.854-3.863-3.158-6.337zm18.195-1.3a7.65 7.65 0 0 0-7.641-7.641 7.65 7.65 0 0 0-7.641 7.641c0 4.213 3.428 7.641 7.641 7.641a7.65 7.65 0 0 0 7.641-7.641z" fill="#f8c409"/><path d="M43.617 31.973l-5.355 7.695 5.355 5.311V31.973zm8.355 7.695l-5.355-7.695v13.005l5.355-5.31zm-8.355 9.535l-7.042-6.983-4.822 7.912 11.864 12.636V49.203zm3 13.566l11.864-12.636-4.823-7.912-7.042 6.983v13.565z" fill="#fff"/></svg>