<?xml version="1.0" encoding="iso-8859-1"?>
<!-- Generator: Adobe Illustrator 22.1.0, SVG Export Plug-In . SVG Version: 6.00 Build 0)  -->
<svg version="1.1" xmlns="http://www.w3.org/2000/svg" xmlns:xlink="http://www.w3.org/1999/xlink" x="0px" y="0px"
	 viewBox="0 0 90.709 90.709" style="enable-background:new 0 0 90.709 90.709;" xml:space="preserve">
<g id="ratownik-1">
	<g>
		<g>
			<circle style="fill:#194093;" cx="45.354" cy="45.355" r="43.52"/>
			<g>
				<path style="fill:#252E78;" d="M45.354,2.835c23.483,0,42.52,19.037,42.52,42.52s-19.037,42.52-42.52,42.52
					s-42.52-19.037-42.52-42.52S21.871,2.835,45.354,2.835 M45.354,0.835c-24.548,0-44.52,19.971-44.52,44.52
					s19.971,44.52,44.52,44.52s44.52-19.971,44.52-44.52S69.903,0.835,45.354,0.835L45.354,0.835z"/>
			</g>
		</g>
	</g>
</g>
<g id="Warstwa_4">
	<g>
		<path style="fill-rule:evenodd;clip-rule:evenodd;fill:#FFFFFF;" d="M59.118,73.149c0,0-10.307,1.422-13.764,1.422
			c-3.457,0-13.764-1.422-13.764-1.422c-3.91-0.404-6.893-3.911-6.893-8.103v0c0-2.798,1.346-5.399,3.565-6.89l11.707-7.862
			c3.291-2.21,7.478-2.21,10.769,0l11.707,7.862c2.219,1.49,3.565,4.092,3.565,6.89v0C66.011,69.238,63.028,72.745,59.118,73.149z"
			/>
		<g>
			<path style="fill:#F8C409;" d="M40.772,24.202c-1.332-2.975-3.721-6.064-3.721-6.064s-2.53,3.268-3.835,6.318
				c1.212-0.747,2.561-1.171,3.998-1.171C38.48,23.285,39.676,23.615,40.772,24.202z"/>
			<ellipse style="fill:#FFFFFF;" cx="37.215" cy="36.491" rx="6.597" ry="10.206"/>
			<path style="fill:#F8C409;" d="M57.052,22.202c-1.332-2.975-3.721-6.064-3.721-6.064s-2.53,3.267-3.835,6.318
				c1.212-0.747,2.561-1.171,3.998-1.171C54.759,21.285,55.955,21.615,57.052,22.202z"/>
			<ellipse style="fill:#FFFFFF;" cx="53.494" cy="34.491" rx="6.597" ry="10.206"/>
			<path style="fill:#F8C409;" d="M70.604,34.235c-1.16-2.318-2.866-4.524-2.866-4.524s-1.797,2.322-2.956,4.704
				c0.958-0.486,1.997-0.763,3.095-0.763C68.835,33.651,69.749,33.86,70.604,34.235z"/>
			<ellipse style="fill:#FFFFFF;" cx="67.877" cy="45.346" rx="5.62" ry="8.695"/>
			<path style="fill:#F8C409;" d="M25.559,35.235c-1.16-2.318-2.866-4.524-2.866-4.524s-1.797,2.322-2.956,4.704
				c0.958-0.486,1.997-0.763,3.095-0.763C23.79,34.651,24.704,34.86,25.559,35.235z"/>
			<ellipse style="fill:#FFFFFF;" cx="22.832" cy="46.346" rx="5.62" ry="8.695"/>
		</g>
	</g>
</g>
</svg>
