<svg xmlns="http://www.w3.org/2000/svg" viewBox="0 0 90.7 90.7"><defs><path id="a" d="M70.6 34.2c-1.2-2.3-2.9-4.5-2.9-4.5s-1.8 2.3-3 4.7a6.8 6.8 0 0 1 5.9-.2z"/></defs><circle cx="45.4" cy="45.4" r="43.5" fill="#194093"/><path d="M45.4 2.8a42.5 42.5 0 1 1 0 85 42.5 42.5 0 0 1 0-85m0-2a44.6 44.6 0 1 0 0 89.2 44.6 44.6 0 0 0 0-89.2z" fill="#252e78"/><path d="M59.1 73.1s-10.3 1.5-13.7 1.5S31.6 73 31.6 73a8 8 0 0 1-6.9-8c0-2.9 1.3-5.5 3.6-7L40 50.4a9.6 9.6 0 0 1 10.7 0l11.7 7.9c2.3 1.4 3.6 4 3.6 6.8a8 8 0 0 1-6.9 8.1z" fill-rule="evenodd" fill="#fff"/><path d="M40.8 24.2c-1.4-3-3.7-6-3.7-6s-2.6 3.2-3.9 6.3a7.5 7.5 0 0 1 7.6-.3z" fill="#f8c409"/><ellipse cx="37.2" cy="36.5" rx="6.6" ry="10.2" fill="#fff"/><path d="M57 22.2c-1.3-3-3.7-6-3.7-6s-2.5 3.2-3.8 6.3a7.5 7.5 0 0 1 7.6-.3z" fill="#f8c409"/><ellipse cx="53.5" cy="34.5" rx="6.6" ry="10.2" fill="#fff"/><use xlink:href="#a" fill="#f8c409"/><ellipse cx="67.9" cy="45.3" rx="5.6" ry="8.7" fill="#fff"/><use xlink:href="#a" x="-45" y="1" fill="#f8c409"/><ellipse cx="22.8" cy="46.3" rx="5.6" ry="8.7" fill="#fff"/></svg>