<?xml version="1.0" encoding="iso-8859-1"?>
<!-- Generator: Adobe Illustrator 22.1.0, SVG Export Plug-In . SVG Version: 6.00 Build 0)  -->
<svg version="1.1" xmlns="http://www.w3.org/2000/svg" xmlns:xlink="http://www.w3.org/1999/xlink" x="0px" y="0px"
	 viewBox="0 0 90.709 90.709" style="enable-background:new 0 0 90.709 90.709;" xml:space="preserve">
<g id="ratownik-1">
	<g>
		<g>
			<path style="fill:#194093;" d="M45.354,88.874c-23.997,0-43.52-19.523-43.52-43.52s19.522-43.52,43.52-43.52
				s43.521,19.523,43.521,43.52S69.351,88.874,45.354,88.874z"/>
			<g>
				<path style="fill:#252E78;" d="M45.354,2.835c23.483,0,42.52,19.037,42.52,42.52s-19.037,42.52-42.52,42.52
					c-23.483,0-42.52-19.037-42.52-42.52S21.871,2.835,45.354,2.835 M45.354,0.835c-24.548,0-44.52,19.971-44.52,44.52
					s19.971,44.52,44.52,44.52s44.52-19.971,44.52-44.52S69.903,0.835,45.354,0.835L45.354,0.835z"/>
			</g>
		</g>
	</g>
</g>
<g id="Warstwa_4">
	<g>
		<path style="fill:#FFFFFF;" d="M44.04,67.592L30.269,52.936c-1.261,2.547-2.067,4.72-2.067,6.112
			c0,6.377,5.17,11.547,11.547,11.547c0.566,0,1.557,0,2.716,0v5.485c0,0.707,0.281,1.386,0.781,1.886
			c1.042,1.042,2.731,1.042,3.772,0c0.5-0.5,0.781-1.179,0.781-1.886v-5.485c1.146,0,2.124,0,2.685,0
			c6.377,0,11.547-5.17,11.547-11.547c0-1.392-0.807-3.566-2.067-6.112L46.196,67.592C45.612,68.214,44.624,68.214,44.04,67.592z"/>
		<path style="fill:#F8C409;" d="M72.289,34.544c-1.438-3.546-3.594-6.799-6.287-9.526c-2.698-2.723-5.936-4.916-9.478-6.403
			c-0.223-0.094-0.451-0.177-0.677-0.266c-0.303,2.468-1.449,4.675-3.147,6.325c3.209,0.898,6.31,2.372,9.167,4.48
			c2.506,1.841,4.848,4.111,6.773,6.904c0.185,0.268,1.027,1.839,1.992,3.659c0.754,1.422,2.926,0.709,2.682-0.882
			C73.067,37.224,72.734,35.665,72.289,34.544z"/>
		<path style="fill:#F8C409;" d="M34.739,18.348c-0.226,0.089-0.454,0.172-0.678,0.266c-3.542,1.488-6.78,3.68-9.478,6.404
			c-2.694,2.727-4.849,5.981-6.288,9.526c-0.442,1.114-0.788,2.658-1.054,4.254c-0.264,1.586,1.896,2.328,2.67,0.918
			c0.996-1.816,1.864-3.384,2.049-3.652c1.927-2.79,4.267-5.057,6.77-6.898c2.857-2.108,5.958-3.581,9.167-4.481
			C36.194,23.033,35.043,20.822,34.739,18.348z"/>
		<path style="fill:#F8C409;" d="M52.934,17.048c0-4.214-3.428-7.641-7.641-7.641c-4.214,0-7.641,3.428-7.641,7.641
			s3.428,7.641,7.641,7.641C49.507,24.69,52.934,21.262,52.934,17.048z"/>
		<path style="fill:#FFFFFF;" d="M43.617,31.973c-1.282,1.779-3.248,4.553-5.355,7.695l5.355,5.311V31.973z"/>
		<path style="fill:#FFFFFF;" d="M51.972,39.668c-2.107-3.142-4.073-5.916-5.355-7.695v13.005L51.972,39.668z"/>
		<path style="fill:#FFFFFF;" d="M43.617,49.203l-7.042-6.983c-1.706,2.621-3.403,5.363-4.822,7.912l11.864,12.636V49.203z"/>
		<path style="fill:#FFFFFF;" d="M46.617,62.769l11.864-12.636c-1.419-2.549-3.116-5.291-4.823-7.912l-7.042,6.983V62.769z"/>
	</g>
</g>
</svg>
