<svg xmlns="http://www.w3.org/2000/svg" xmlns:xlink="http://www.w3.org/1999/xlink" viewBox="0 0 90.709 90.709"><circle cx="45.354" cy="45.355" r="43.52" fill="#194093"/><path d="M45.354 2.835c23.483 0 42.52 19.037 42.52 42.52s-19.037 42.52-42.52 42.52-42.52-19.037-42.52-42.52 19.037-42.52 42.52-42.52m0-2C20.806.835.834 20.806.834 45.355s19.971 44.52 44.52 44.52 44.52-19.971 44.52-44.52S69.903.835 45.354.835h0z" fill="#252e78"/><path d="M59.118 73.149s-10.307 1.422-13.764 1.422-13.764-1.422-13.764-1.422c-3.91-.404-6.893-3.911-6.893-8.103h0c0-2.798 1.346-5.399 3.565-6.89l11.707-7.862a9.57 9.57 0 0 1 10.769 0l11.707 7.862c2.219 1.49 3.565 4.092 3.565 6.89h0c.001 4.192-2.982 7.699-6.892 8.103z" fill-rule="evenodd" fill="#fff"/><path d="M40.772 24.202c-1.332-2.975-3.721-6.064-3.721-6.064s-2.53 3.268-3.835 6.318c1.212-.747 2.561-1.171 3.998-1.171 1.266 0 2.462.33 3.558.917z" fill="#f8c409"/><ellipse cx="37.215" cy="36.491" rx="6.597" ry="10.206" fill="#fff"/><path d="M57.052 22.202c-1.332-2.975-3.721-6.064-3.721-6.064s-2.53 3.267-3.835 6.318c1.212-.747 2.561-1.171 3.998-1.171 1.265 0 2.461.33 3.558.917z" fill="#f8c409"/><ellipse cx="53.494" cy="34.491" rx="6.597" ry="10.206" fill="#fff"/><use xlink:href="#B" fill="#f8c409"/><ellipse cx="67.877" cy="45.346" rx="5.62" ry="8.695" fill="#fff"/><use xlink:href="#B" x="-45.045" y="1" fill="#f8c409"/><ellipse cx="22.832" cy="46.346" rx="5.62" ry="8.695" fill="#fff"/><defs ><path id="B" d="M70.604 34.235c-1.16-2.318-2.866-4.524-2.866-4.524s-1.797 2.322-2.956 4.704c.958-.486 1.997-.763 3.095-.763.958-.001 1.872.208 2.727.583z"/></defs></svg>