<?xml version="1.0" encoding="iso-8859-1"?>
<!-- Generator: Adobe Illustrator 22.1.0, SVG Export Plug-In . SVG Version: 6.00 Build 0)  -->
<svg version="1.1" xmlns="http://www.w3.org/2000/svg" xmlns:xlink="http://www.w3.org/1999/xlink" x="0px" y="0px"
	 viewBox="0 0 90.709 90.709" style="enable-background:new 0 0 90.709 90.709;" xml:space="preserve">
<g id="ratownik-1">
	<g>
		<g>
			<circle style="fill:#194093;" cx="45.354" cy="45.355" r="43.52"/>
			<g>
				<path style="fill:#252E78;" d="M45.354,2.835c23.483,0,42.52,19.037,42.52,42.52s-19.037,42.52-42.52,42.52
					s-42.52-19.037-42.52-42.52S21.871,2.835,45.354,2.835 M45.354,0.835c-24.548,0-44.52,19.971-44.52,44.52
					s19.971,44.52,44.52,44.52s44.52-19.971,44.52-44.52S69.903,0.835,45.354,0.835L45.354,0.835z"/>
			</g>
		</g>
	</g>
</g>
<g id="Warstwa_4">
	<g>
		<g>
			<circle style="fill:#F8C409;" cx="45.293" cy="17.048" r="7.641"/>
			<path style="fill:#F8C409;" d="M72.289,34.544c-1.438-3.546-3.594-6.799-6.287-9.526c-2.698-2.724-5.936-4.916-9.478-6.403
				c-0.223-0.094-0.451-0.177-0.677-0.266c-0.303,2.468-1.45,4.675-3.147,6.325c3.209,0.898,6.31,2.372,9.167,4.48
				c2.506,1.841,4.848,4.111,6.773,6.904c0.185,0.268,1.027,1.839,1.992,3.659c0.754,1.422,2.926,0.709,2.682-0.882
				C73.066,37.224,72.734,35.665,72.289,34.544z"/>
			<path style="fill:#F8C409;" d="M34.74,18.348c-0.226,0.089-0.454,0.172-0.678,0.266c-3.542,1.488-6.78,3.68-9.478,6.404
				c-2.694,2.727-4.849,5.981-6.288,9.526c-0.442,1.114-0.788,2.658-1.054,4.254c-0.265,1.586,1.896,2.328,2.67,0.918
				c0.996-1.816,1.864-3.384,2.049-3.652c1.926-2.791,4.267-5.057,6.77-6.898c2.857-2.108,5.958-3.581,9.167-4.481
				C36.194,23.033,35.043,20.822,34.74,18.348z"/>
		</g>
		<g>
			<path style="fill:#F8C409;" d="M45.354,59.827c0,0-1.062-0.771-1.5-1.129v23.289c0,0.828,0.672,1.5,1.5,1.5s1.5-0.672,1.5-1.5
				V58.698C46.416,59.056,45.354,59.827,45.354,59.827z"/>
			<path style="fill:#FFFFFF;" d="M36.104,45.386c0-2.287,0.734-4.418,1.763-6.3c-2.763-0.869-5.102-1.018-5.102-1.018
				s-3.423,8.467,0.087,14.042c2.324,3.691,7.093,5.183,10.059,5.774C40.408,55.634,36.104,50.96,36.104,45.386z"/>
			<path style="fill:#FFFFFF;" d="M57.856,52.11c3.511-5.575,0.087-14.042,0.087-14.042s-2.339,0.15-5.103,1.019
				c1.029,1.881,1.763,4.013,1.763,6.299c0,5.575-4.304,10.248-6.807,12.499C50.763,57.294,55.532,55.801,57.856,52.11z"/>
			<path style="fill:#FFFFFF;" d="M45.355,33.952c-1.873,1.552-6.851,6.172-6.851,11.434s4.975,9.881,6.85,11.434
				c1.875-1.553,6.85-6.172,6.85-11.434C52.204,40.109,47.23,35.501,45.355,33.952z"/>
			<path style="fill:#F8C409;" d="M60.971,62.522c0,0-6.286,1.593-9.374,6.497s-1.808,11.261-1.808,11.261s6.286-1.593,9.374-6.497
				C62.251,68.879,60.971,62.522,60.971,62.522z"/>
			<path style="fill:#F8C409;" d="M29.738,58.257c0,0-1.28,6.357,1.808,11.261c3.088,4.904,9.374,6.497,9.374,6.497
				s1.28-6.357-1.808-11.261C36.024,59.85,29.738,58.257,29.738,58.257z"/>
		</g>
	</g>
</g>
</svg>
