<svg xmlns="http://www.w3.org/2000/svg" viewBox="0 0 90.709 90.709"><circle cx="45.354" cy="45.355" r="43.52" fill="#194093"/><path d="M45.354 2.835c23.483 0 42.52 19.037 42.52 42.52s-19.037 42.52-42.52 42.52-42.52-19.037-42.52-42.52 19.037-42.52 42.52-42.52m0-2C20.806.835.834 20.806.834 45.355s19.971 44.52 44.52 44.52 44.52-19.971 44.52-44.52S69.903.835 45.354.835h0z" fill="#252e78"/><g fill="#f8c409"><circle cx="45.293" cy="17.048" r="7.641"/><path d="M72.289 34.544c-1.438-3.546-3.594-6.799-6.287-9.526s-5.936-4.916-9.478-6.403c-.223-.094-.451-.177-.677-.266a10.62 10.62 0 0 1-3.147 6.325c3.209.898 6.31 2.372 9.167 4.48 2.506 1.841 4.848 4.111 6.773 6.904.185.268 1.027 1.839 1.992 3.659.754 1.422 2.926.709 2.682-.882-.248-1.611-.58-3.17-1.025-4.291zM34.74 18.348l-.678.266c-3.542 1.488-6.78 3.68-9.478 6.404a29.27 29.27 0 0 0-6.288 9.526c-.442 1.114-.788 2.658-1.054 4.254-.265 1.586 1.896 2.328 2.67.918l2.049-3.652c1.926-2.791 4.267-5.057 6.77-6.898 2.857-2.108 5.958-3.581 9.167-4.481-1.704-1.652-2.855-3.863-3.158-6.337zm10.614 41.479l-1.5-1.129v23.289a1.5 1.5 0 1 0 3 0V58.698l-1.5 1.129z"/></g><path d="M36.104 45.386c0-2.287.734-4.418 1.763-6.3-2.763-.869-5.102-1.018-5.102-1.018s-3.423 8.467.087 14.042c2.324 3.691 7.093 5.183 10.059 5.774-2.503-2.25-6.807-6.924-6.807-12.498zm21.752 6.724c3.511-5.575.087-14.042.087-14.042s-2.339.15-5.103 1.019c1.029 1.881 1.763 4.013 1.763 6.299 0 5.575-4.304 10.248-6.807 12.499 2.967-.591 7.736-2.084 10.06-5.775zM45.355 33.952c-1.873 1.552-6.851 6.172-6.851 11.434s4.975 9.881 6.85 11.434c1.875-1.553 6.85-6.172 6.85-11.434 0-5.277-4.974-9.885-6.849-11.434z" fill="#fff"/><path d="M60.971 62.522s-6.286 1.593-9.374 6.497-1.808 11.261-1.808 11.261 6.286-1.593 9.374-6.497 1.808-11.261 1.808-11.261zm-31.233-4.265s-1.28 6.357 1.808 11.261 9.374 6.497 9.374 6.497 1.28-6.357-1.808-11.261-9.374-6.497-9.374-6.497z" fill="#f8c409"/></svg>