<?xml version="1.0" encoding="iso-8859-1"?>
<!-- Generator: Adobe Illustrator 22.1.0, SVG Export Plug-In . SVG Version: 6.00 Build 0)  -->
<svg version="1.1" xmlns="http://www.w3.org/2000/svg" xmlns:xlink="http://www.w3.org/1999/xlink" x="0px" y="0px"
	 viewBox="0 0 90.709 90.709" style="enable-background:new 0 0 90.709 90.709;" xml:space="preserve">
<g id="ratownik-1">
	<g>
		<g>
			<circle style="fill:#194093;" cx="45.354" cy="45.355" r="43.52"/>
			<g>
				<path style="fill:#252E78;" d="M45.354,2.835c23.483,0,42.52,19.037,42.52,42.52s-19.037,42.52-42.52,42.52
					s-42.52-19.037-42.52-42.52S21.871,2.835,45.354,2.835 M45.354,0.835c-24.548,0-44.52,19.971-44.52,44.52
					s19.971,44.52,44.52,44.52s44.52-19.971,44.52-44.52S69.903,0.835,45.354,0.835L45.354,0.835z"/>
			</g>
		</g>
	</g>
</g>
<g id="Warstwa_4">
	<g>
		<path style="fill:#F8C409;" d="M34.301,52.084v-12.99l11.25-6.494l11.25,6.494v4.055c1.127-0.193,2.17-0.355,3-0.462v-3.73
			l11.085-6.4l11.983,6.917c0.102,0.059,0.21,0.099,0.318,0.131c-0.197-1.296-0.46-2.587-0.794-3.87l-10.024-5.787v-11.7
			c-0.932-0.93-1.907-1.804-2.918-2.623c-0.049,0.148-0.082,0.303-0.082,0.467v13.877l-11.186,6.459l-11.237-6.487V16.993
			l11.992-6.924c0.154-0.089,0.281-0.204,0.389-0.332c-1.206-0.472-2.433-0.885-3.679-1.233L45.438,14.4L35.154,8.463
			c-1.231,0.341-2.452,0.745-3.66,1.216c0.117,0.154,0.266,0.288,0.444,0.39l12.008,6.933v13.06l-11.131,6.426L21.507,29.96V16.092
			c0-0.206-0.042-0.401-0.117-0.58c-1.012,0.81-1.973,1.666-2.883,2.561v11.876L8.295,35.844c-0.321,1.251-0.577,2.518-0.771,3.797
			c0.165-0.03,0.329-0.078,0.482-0.167l11.992-6.922l11.303,6.526v12.87l-11.276,6.51L8.006,51.519
			c-0.143-0.083-0.294-0.132-0.447-0.164c0.204,1.286,0.473,2.566,0.812,3.838l10.136,5.852v11.578
			c0.945,0.931,1.932,1.805,2.956,2.624c0.026-0.111,0.044-0.226,0.044-0.345V61.065l11.175-6.452l3.3,1.905
			c0.495-0.656,1.152-1.477,1.893-2.371L34.301,52.084z"/>
		<path style="fill:#F8C409;" d="M82.869,51.519l-12.01,6.934l-11.057-6.384V51.81c-1.054,0.408-2.334,0.702-3.523,0.466
			c-0.244-0.048-0.704-0.216-1.277-0.449c-1.608,0.247-3.272,0.818-4.861,1.735c-1.482,0.856-2.729,1.921-3.718,3.089
			c-0.091,0.679-0.183,1.217-0.269,1.47c-0.413,1.212-1.387,2.216-2.314,2.934l0.105,0.061v12.875l-12.008,6.933
			c-0.088,0.051-0.168,0.109-0.241,0.173c1.247,0.476,2.516,0.89,3.804,1.233l9.937-5.737l9.889,5.709
			c1.278-0.346,2.547-0.757,3.801-1.242c-0.06-0.049-0.121-0.097-0.19-0.137L46.946,74V61.238l1.406-0.812
			c-0.013-0.01-0.026-0.02-0.039-0.03c0.885-1.363,2.151-2.595,3.745-3.515c1.662-0.959,3.44-1.448,5.124-1.5
			c-0.002-0.017-0.004-0.033-0.006-0.05l1.139-0.658l11.054,6.382v13.845c0,0.08,0.012,0.156,0.023,0.232
			c1.047-0.843,2.038-1.737,2.977-2.671V61.045l9.935-5.736c0.347-1.288,0.623-2.594,0.834-3.912
			C83.046,51.428,82.956,51.468,82.869,51.519z"/>
		<path style="fill:#F8C409;" d="M50.837,62.011c1.701,0.853,3.39,1.202,4.602,0.502c1.188-0.686,1.734-2.273,1.86-4.124
			c-1.21,0.037-2.522,0.387-3.741,1.091C52.402,60.147,51.474,61.043,50.837,62.011z"/>
		<path style="fill:#F8C409;" d="M50.786,49.926c-1.211-0.581-2.198-1.08-2.421-1.226c-0.603-0.395-1.107-0.978-1.286-1.677
			c-0.178-0.698,0.018-1.51,0.579-1.963c0.11-0.089,1.058-0.324,2.408-0.616c-0.77-1.123-2.198-2.077-3.676-2.393
			c0.051-0.976,0.07-1.957-0.011-2.95c0.209-0.594,0.409-1.192,0.589-1.8c0.205-0.68,0.392-1.368,0.544-2.074
			c-0.468,0.55-0.902,1.116-1.317,1.692c-0.419,0.574-0.819,1.157-1.201,1.749l-0.07,0.235c-0.355,1.047-0.594,2.108-0.791,3.175
			c-0.173,0.095-0.341,0.198-0.512,0.296c-0.013,0.007-0.027,0.012-0.04,0.019c-0.007,0.004-0.011,0.01-0.018,0.014
			c-0.177,0.103-0.357,0.201-0.532,0.308c-1.022-0.361-2.061-0.685-3.145-0.901l-0.238-0.056c-0.704,0.034-1.409,0.09-2.115,0.165
			c-0.706,0.072-1.414,0.163-2.124,0.293c0.687,0.22,1.377,0.402,2.068,0.564c0.617,0.147,1.235,0.274,1.854,0.389
			c0.82,0.566,1.678,1.041,2.55,1.486c-0.482,1.488-0.34,3.263,0.302,4.499c1.076-1.197,1.888-2.05,2.033-2.106
			c0.672-0.259,1.474-0.023,1.989,0.48s0.769,1.232,0.809,1.952c0.015,0.265-0.045,1.352-0.146,2.674
			c0.56-0.422,1.144-0.826,1.773-1.189C49.344,50.559,50.063,50.221,50.786,49.926z"/>
		<path style="fill:#FFFFFF;" d="M46.155,58.122c0.086-0.253,0.178-0.791,0.269-1.47c0.168-1.259,0.332-3.021,0.445-4.498
			c0.101-1.322,0.161-2.409,0.146-2.674c-0.041-0.72-0.294-1.448-0.809-1.952s-1.317-0.74-1.989-0.48
			c-0.145,0.056-0.957,0.909-2.033,2.106c-1.274,1.417-2.916,3.313-4.307,4.994c-0.74,0.895-1.398,1.715-1.893,2.371
			c-0.416,0.551-0.725,0.994-0.84,1.235c-1.016,2.112-1.202,4.611-0.51,6.85c1.112,0.503,2.452,0.469,3.537-0.089
			c1.085-0.558,1.893-1.627,2.132-2.824c0.26,0.544,0.992,0.718,1.568,0.542c0.279-0.085,1.104-0.507,1.971-1.178
			C44.768,60.338,45.742,59.334,46.155,58.122z"/>
		<path style="fill:#FFFFFF;" d="M50.066,44.445c-1.351,0.292-2.298,0.527-2.408,0.616c-0.561,0.453-0.757,1.265-0.579,1.963
			c0.178,0.698,0.683,1.282,1.286,1.677c0.224,0.147,1.21,0.645,2.421,1.226c1.379,0.661,3.042,1.425,4.216,1.902
			c0.573,0.233,1.033,0.4,1.277,0.449c1.188,0.235,2.469-0.059,3.523-0.466c1.102-0.426,1.956-0.977,2.181-1.188
			c0.441-0.411,0.656-1.132,0.315-1.629c1.156,0.391,2.486,0.227,3.512-0.434c1.025-0.661,1.724-1.805,1.845-3.019
			c-1.593-1.719-3.85-2.807-6.187-2.984c-0.291-0.022-0.886,0.03-1.665,0.13c-0.83,0.107-1.873,0.27-3,0.462
			C54.523,43.538,51.916,44.045,50.066,44.445z"/>
	</g>
</g>
</svg>
