<svg xmlns="http://www.w3.org/2000/svg" viewBox="0 0 90.709 90.709"><circle cx="45.354" cy="45.355" r="43.52" fill="#194093"/><path d="M45.354 2.835c23.483 0 42.52 19.037 42.52 42.52s-19.037 42.52-42.52 42.52-42.52-19.037-42.52-42.52 19.037-42.52 42.52-42.52m0-2C20.806.835.834 20.806.834 45.355s19.971 44.52 44.52 44.52 44.52-19.971 44.52-44.52S69.903.835 45.354.835h0z" fill="#252e78"/><path d="M34.301 52.084v-12.99l11.25-6.494 11.25 6.494v4.055l3-.462v-3.73l11.085-6.4 11.983 6.917a1.45 1.45 0 0 0 .318.131 38.05 38.05 0 0 0-.794-3.87l-10.024-5.787v-11.7c-.932-.93-1.907-1.804-2.918-2.623-.049.148-.082.303-.082.467v13.877l-11.186 6.459-11.237-6.487V16.993l11.992-6.924c.154-.089.281-.204.389-.332l-3.679-1.233-10.21 5.896-10.284-5.937-3.66 1.216a1.48 1.48 0 0 0 .444.39l12.008 6.933v13.06l-11.131 6.426-11.308-6.528V16.092c0-.206-.042-.401-.117-.58a37.78 37.78 0 0 0-2.883 2.561v11.876L8.295 35.844c-.321 1.251-.577 2.518-.771 3.797.165-.03.329-.078.482-.167l11.992-6.922 11.303 6.526v12.87l-11.276 6.51-12.019-6.939a1.48 1.48 0 0 0-.447-.164 38.03 38.03 0 0 0 .812 3.838l10.136 5.852v11.578a38.26 38.26 0 0 0 2.956 2.624 1.51 1.51 0 0 0 .044-.345V61.065l11.175-6.452 3.3 1.905 1.893-2.371-3.574-2.063zm48.568-.565l-12.01 6.934-11.057-6.384v-.259c-1.054.408-2.334.702-3.523.466-.244-.048-.704-.216-1.277-.449-1.608.247-3.272.818-4.861 1.735-1.482.856-2.729 1.921-3.718 3.089l-.269 1.47c-.413 1.212-1.387 2.216-2.314 2.934l.105.061v12.875l-12.008 6.933c-.088.051-.168.109-.241.173A38.33 38.33 0 0 0 35.5 82.33l9.937-5.737 9.889 5.709a38.21 38.21 0 0 0 3.801-1.242 1.46 1.46 0 0 0-.19-.137L46.946 74V61.238l1.406-.812-.039-.03c.885-1.363 2.151-2.595 3.745-3.515 1.662-.959 3.44-1.448 5.124-1.5l-.006-.05 1.139-.658 11.054 6.382V74.9c0 .08.012.156.023.232a38.15 38.15 0 0 0 2.977-2.671V61.045l9.935-5.736a38.32 38.32 0 0 0 .834-3.912 1.44 1.44 0 0 0-.269.122zM50.837 62.011c1.701.853 3.39 1.202 4.602.502 1.188-.686 1.734-2.273 1.86-4.124-1.21.037-2.522.387-3.741 1.091-1.156.667-2.084 1.563-2.721 2.531zm-.051-12.085L48.365 48.7c-.603-.395-1.107-.978-1.286-1.677s.018-1.51.579-1.963c.11-.089 1.058-.324 2.408-.616-.77-1.123-2.198-2.077-3.676-2.393.051-.976.07-1.957-.011-2.95l.589-1.8.544-2.074-1.317 1.692-1.201 1.749-.07.235c-.355 1.047-.594 2.108-.791 3.175l-.512.296-.04.019c-.007.004-.011.01-.018.014l-.532.308c-1.022-.361-2.061-.685-3.145-.901l-.238-.056-2.115.165-2.124.293 2.068.564 1.854.389c.82.566 1.678 1.041 2.55 1.486-.482 1.488-.34 3.263.302 4.499l2.033-2.106c.672-.259 1.474-.023 1.989.48s.769 1.232.809 1.952c.015.265-.045 1.352-.146 2.674a17.39 17.39 0 0 1 1.773-1.189c.703-.406 1.422-.744 2.145-1.039z" fill="#f8c409"/><path d="M46.155 58.122c.086-.253.178-.791.269-1.47l.445-4.498.146-2.674c-.041-.72-.294-1.448-.809-1.952s-1.317-.74-1.989-.48c-.145.056-.957.909-2.033 2.106l-4.307 4.994-1.893 2.371-.84 1.235c-1.016 2.112-1.202 4.611-.51 6.85a4.13 4.13 0 0 0 3.537-.089c1.085-.558 1.893-1.627 2.132-2.824.26.544.992.718 1.568.542.279-.085 1.104-.507 1.971-1.178.926-.717 1.9-1.721 2.313-2.933zm3.911-13.677l-2.408.616c-.561.453-.757 1.265-.579 1.963s.683 1.282 1.286 1.677c.224.147 1.21.645 2.421 1.226l4.216 1.902 1.277.449c1.188.235 2.469-.059 3.523-.466 1.102-.426 1.956-.977 2.181-1.188.441-.411.656-1.132.315-1.629a4.14 4.14 0 0 0 5.357-3.453 9.51 9.51 0 0 0-6.187-2.984c-.291-.022-.886.03-1.665.13l-3 .462-6.737 1.295z" fill="#fff"/></svg>