<svg xmlns="http://www.w3.org/2000/svg" viewBox="0 0 90.709 90.709"><circle cx="45.354" cy="45.355" r="43.52" fill="#194093"/><path d="M45.354 2.835c23.483 0 42.52 19.037 42.52 42.52s-19.037 42.52-42.52 42.52-42.52-19.037-42.52-42.52 19.037-42.52 42.52-42.52m0-2C20.806.835.834 20.806.834 45.355s19.971 44.52 44.52 44.52 44.52-19.971 44.52-44.52S69.903.835 45.354.835h0z" fill="#252e78"/><path d="M75.044 37.164c1.29-8.201-4.312-15.893-12.513-17.184-1.552-.245-3.084-.241-4.563-.023-.574-6.355-5.377-11.757-11.97-12.795a14.26 14.26 0 0 0-16.301 11.869c-.164 1.038-.202 2.065-.142 3.071-7.002.873-12.875 6.261-14.026 13.577-1.262 8.026 3.599 15.586 11.113 17.971.054 5.513 4.066 10.344 9.692 11.232 2.925.461 5.757-.238 8.055-1.738 1.474.774 3.086 1.331 4.819 1.605 8.529 1.342 16.531-4.486 17.873-13.013.192-1.231.222-2.446.132-3.632 4.039-2.143 7.067-6.076 7.831-10.94z" fill="#fff"/><path d="M31.856 56.116a4.892 4.892 0 0 1-9.783.003c0-2.701 2.191-4.891 4.891-4.892a4.89 4.89 0 0 1 4.892 4.889zm35.858-1.304a4.892 4.892 0 0 1-9.783.003c0-2.701 2.191-4.891 4.891-4.892s4.891 2.191 4.892 4.889zM31.856 36.004a4.892 4.892 0 0 1-9.783.003c0-2.701 2.191-4.891 4.891-4.892a4.89 4.89 0 0 1 4.892 4.889zm19.372 11.994L61.42 29.129 49.38 42.803l-1.623-2.914-1.775-12.798-1.615 11.648-10.321-4.379 9.393 7.74c.049.201 2.756 5.358 2.756 5.358.001.02-.001.04 0 .06l-1.332 5.359-13.597-6.021 12.07 11.393-3.362 24.989c1.759.248 3.553.384 5.38.384 1.847 0 3.661-.138 5.438-.391l-1.826-19.108v-7.021l2.262-9.104z" fill="#f8c409"/></svg>