<?xml version="1.0" encoding="iso-8859-1"?>
<!-- Generator: Adobe Illustrator 22.1.0, SVG Export Plug-In . SVG Version: 6.00 Build 0)  -->
<svg version="1.1" xmlns="http://www.w3.org/2000/svg" xmlns:xlink="http://www.w3.org/1999/xlink" x="0px" y="0px"
	 viewBox="0 0 90.709 90.709" style="enable-background:new 0 0 90.709 90.709;" xml:space="preserve">
<g id="ratownik-1">
	<g>
		<g>
			<circle style="fill:#194093;" cx="45.354" cy="45.355" r="43.52"/>
			<g>
				<path style="fill:#252E78;" d="M45.354,2.835c23.483,0,42.52,19.037,42.52,42.52s-19.037,42.52-42.52,42.52
					s-42.52-19.037-42.52-42.52S21.871,2.835,45.354,2.835 M45.354,0.835c-24.548,0-44.52,19.971-44.52,44.52
					s19.971,44.52,44.52,44.52s44.52-19.971,44.52-44.52S69.903,0.835,45.354,0.835L45.354,0.835z"/>
			</g>
		</g>
	</g>
</g>
<g id="Warstwa_4">
	<g>
		<g>
			<path style="fill:#FFFFFF;" d="M75.044,37.164c1.29-8.201-4.312-15.893-12.513-17.184c-1.552-0.245-3.084-0.241-4.563-0.023
				c-0.574-6.355-5.377-11.757-11.97-12.795c-7.778-1.225-15.078,4.089-16.301,11.869c-0.164,1.038-0.202,2.065-0.142,3.071
				c-7.002,0.873-12.875,6.261-14.026,13.577c-1.262,8.026,3.599,15.586,11.113,17.971c0.054,5.513,4.066,10.344,9.692,11.232
				c2.925,0.461,5.757-0.238,8.055-1.738c1.474,0.774,3.086,1.331,4.819,1.605c8.529,1.342,16.531-4.486,17.873-13.013
				c0.192-1.231,0.222-2.446,0.132-3.632C71.252,45.961,74.28,42.028,75.044,37.164z"/>
		</g>
		<path style="fill:#F8C409;" d="M31.856,56.116c0,2.702-2.19,4.894-4.891,4.892c-2.702,0-4.892-2.187-4.892-4.889
			c0-2.701,2.191-4.891,4.891-4.892C29.667,51.225,31.855,53.418,31.856,56.116z"/>
		<path style="fill:#F8C409;" d="M67.714,54.812c0,2.702-2.19,4.894-4.891,4.892c-2.702,0-4.892-2.187-4.892-4.889
			c0-2.701,2.191-4.891,4.891-4.892C65.525,49.922,67.713,52.114,67.714,54.812z"/>
		<path style="fill:#F8C409;" d="M31.856,36.004c0,2.702-2.19,4.894-4.891,4.892c-2.702,0-4.892-2.187-4.892-4.889
			c0-2.701,2.191-4.891,4.891-4.892C29.667,31.113,31.855,33.306,31.856,36.004z"/>
		<path style="fill:#F8C409;" d="M51.228,47.998l10.192-18.869L49.38,42.803c0,0-1.506-2.778-1.623-2.914l-1.775-12.798
			l-1.615,11.648L34.046,34.36l9.393,7.74c0.049,0.201,2.756,5.358,2.756,5.358c0.001,0.02-0.001,0.04,0,0.06l-1.332,5.359
			l-13.597-6.021l12.07,11.393l-3.362,24.989c1.759,0.248,3.553,0.384,5.38,0.384c1.847,0,3.661-0.138,5.438-0.391l-1.826-19.108
			v-7.021L51.228,47.998z"/>
	</g>
</g>
</svg>
