<?xml version="1.0" encoding="iso-8859-1"?>
<!-- Generator: Adobe Illustrator 22.1.0, SVG Export Plug-In . SVG Version: 6.00 Build 0)  -->
<svg version="1.1" xmlns="http://www.w3.org/2000/svg" xmlns:xlink="http://www.w3.org/1999/xlink" x="0px" y="0px"
	 viewBox="0 0 90.709 90.709" style="enable-background:new 0 0 90.709 90.709;" xml:space="preserve">
<g id="ratownik-1">
	<g>
		<g>
			
				<ellipse transform="matrix(0.8281 -0.5606 0.5606 0.8281 -17.6292 33.225)" style="fill:#194093;" cx="45.354" cy="45.355" rx="43.52" ry="43.52"/>
			<g>
				<path style="fill:#252E78;" d="M45.354,2.835c23.483,0,42.52,19.037,42.52,42.52c0,23.483-19.037,42.52-42.52,42.52
					c-23.483,0-42.52-19.037-42.52-42.52C2.835,21.871,21.871,2.835,45.354,2.835 M45.354,0.835c-24.548,0-44.52,19.972-44.52,44.52
					s19.971,44.52,44.52,44.52c24.548,0,44.52-19.972,44.52-44.52S69.903,0.835,45.354,0.835L45.354,0.835z"/>
			</g>
		</g>
	</g>
</g>
<g id="Warstwa_4">
	<g>
		<g>
			<path style="fill:#FFFFFF;" d="M46.181,22.139l7.405,4.238c4.089-4.089,4.089-10.72,0-14.809s-10.72-4.089-14.809,0
				s-4.089,10.72,0,14.809L46.181,22.139z"/>
		</g>
		<g>
			<path style="fill:#F8C409;" d="M46.284,81.509c-0.797,0-1.458-0.625-1.498-1.426c-0.017-0.327-1.804-32.885-16.066-43.252
				c-0.67-0.486-0.818-1.425-0.332-2.095c0.487-0.672,1.424-0.821,2.095-0.331c7.598,5.521,11.892,16.315,14.301,26.011V26.541
				c0-0.828,0.671-1.5,1.5-1.5s1.5,0.672,1.5,1.5v53.469c0,0.813-0.649,1.479-1.462,1.499C46.31,81.509,46.297,81.509,46.284,81.509
				z"/>
		</g>
		<g>
			<path style="fill:#FFFFFF;" d="M26.359,32.537l8.233-2.239c0-5.783-4.688-10.472-10.472-10.472s-10.472,4.688-10.472,10.472
				S18.336,40.77,24.12,40.77L26.359,32.537z"/>
		</g>
		<g>
			<path style="fill:#F8C409;" d="M62.129,42.069c-7.152,12.255-9.29,24.321-11.61,37.346c0.111-0.176,5.126-8.077,8.143-12.431
				c-0.139-0.442-0.234-0.903-0.234-1.391c0-2.58,2.091-4.671,4.671-4.671c0.242,0,0.474,0.036,0.706,0.071
				c-0.403-0.821-0.636-1.741-0.636-2.717c0-3.413,2.767-6.18,6.18-6.18c0.902,0,1.757,0.198,2.529,0.545
				c-1.083-0.991-1.767-2.411-1.767-3.995c0-2.992,2.425-5.417,5.417-5.417c0.156,0,0.31,0.01,0.463,0.023
				c-1.618-1.229-2.667-3.168-2.667-5.357c0-3.538,2.731-6.432,6.199-6.703c-1.395-0.508-5.888-1.89-11.575-1.037
				c-7.439,1.116-17.429,13.202-17.429,21.277c0,3.157,0,8.28,0,13.286C52.373,56.79,56.852,45.939,62.129,42.069z"/>
		</g>
	</g>
</g>
</svg>
