<svg xmlns="http://www.w3.org/2000/svg" viewBox="0 0 90.709 90.709"><circle transform="matrix(.8281 -.5606 .5606 .8281 -17.6292 33.225)" cx="45.354" cy="45.355" r="43.52" fill="#194093"/><path d="M45.354 2.835c23.483 0 42.52 19.037 42.52 42.52s-19.037 42.52-42.52 42.52-42.52-19.037-42.52-42.52 19.037-42.52 42.52-42.52m0-2C20.806.835.834 20.807.834 45.355s19.971 44.52 44.52 44.52 44.52-19.972 44.52-44.52S69.903.835 45.354.835h0z" fill="#252e78"/><path d="M46.181 22.139l7.405 4.238c4.089-4.089 4.089-10.72 0-14.809s-10.72-4.089-14.809 0-4.089 10.72 0 14.809l7.404-4.238z" fill="#fff"/><path d="M46.284 81.509a1.5 1.5 0 0 1-1.498-1.426c-.017-.327-1.804-32.885-16.066-43.252a1.5 1.5 0 0 1-.332-2.095c.487-.672 1.424-.821 2.095-.331 7.598 5.521 11.892 16.315 14.301 26.011V26.541a1.5 1.5 0 1 1 3 0V80.01a1.5 1.5 0 0 1-1.462 1.499h-.038z" fill="#f8c409"/><path d="M26.359 32.537l8.233-2.239c0-5.783-4.688-10.472-10.472-10.472s-10.472 4.688-10.472 10.472S18.336 40.77 24.12 40.77l2.239-8.233z" fill="#fff"/><path d="M62.129 42.069c-7.152 12.255-9.29 24.321-11.61 37.346.111-.176 5.126-8.077 8.143-12.431a4.61 4.61 0 0 1-.234-1.391 4.67 4.67 0 0 1 4.671-4.671c.242 0 .474.036.706.071-.403-.821-.636-1.741-.636-2.717a6.18 6.18 0 0 1 6.18-6.18c.902 0 1.757.198 2.529.545a5.4 5.4 0 0 1-1.767-3.995 5.42 5.42 0 0 1 5.417-5.417c.156 0 .31.01.463.023-1.618-1.229-2.667-3.168-2.667-5.357 0-3.538 2.731-6.432 6.199-6.703-1.395-.508-5.888-1.89-11.575-1.037-7.439 1.116-17.429 13.202-17.429 21.277v13.286c1.854-7.928 6.333-18.779 11.61-22.649z" fill="#f8c409"/></svg>