<svg xmlns="http://www.w3.org/2000/svg" viewBox="0 0 90.709 90.709"><path d="M45.354 88.874c-23.997 0-43.52-19.522-43.52-43.52s19.523-43.52 43.52-43.52 43.52 19.523 43.52 43.521-19.523 43.519-43.52 43.519z" fill="#194093"/><path d="M45.354 2.835c23.483 0 42.52 19.037 42.52 42.52s-19.037 42.52-42.52 42.52-42.52-19.037-42.52-42.52 19.037-42.52 42.52-42.52m0-2C20.806.835.834 20.806.834 45.355s19.971 44.52 44.52 44.52 44.52-19.971 44.52-44.52S69.903.835 45.354.835h0z" fill="#252e78"/><path d="M15.622 39.289c-.022-7.837 10.911-22.992 29.455-22.992 20.212 0 30.103 15.204 30.041 22.991 0 0-22.306-2-29.764-2-7.45.001-29.732 2.001-29.732 2.001z" fill-rule="evenodd" fill="#f8c409"/><path d="M73.827 36.701c-3.498-2.931-8.13-1.998-12.196-2.66-3.403-.567-6.757-2.51-11.666-2.51-5.315 0-8.739 2.51-26.055 2.51-8.165 0-13.803 7.481.284 10.034 3.279.615 7.356 1.081 11.858 1.507.066-.778.112-1.566.112-2.38 0-3.031 3.096-4.568 9.201-4.568s9.201 1.537 9.201 4.568c0 .799.044 1.59.106 2.376 4.496-.425 8.51-.89 11.781-1.503 9.076-1.607 10.021-5.199 7.374-7.374zm-22.261 6.501c0-1.045-3.101-1.568-6.201-1.568s-6.201.523-6.201 1.568c0 13.749-9.31 22.414-3.077 31.141 1.263 1.769 4.694 2.634 8.274 2.634 3.634 0 7.422-.892 9.25-2.634 6.89-6.568-2.045-17.392-2.045-31.141z" fill="#fff"/></svg>