<?xml version="1.0" encoding="utf-8"?>
<!-- Generator: Adobe Illustrator 24.2.0, SVG Export Plug-In . SVG Version: 6.00 Build 0)  -->
<svg version="1.1" id="Layer_1" xmlns="http://www.w3.org/2000/svg" x="0px" y="0px"
	 viewBox="0 0 87.87 87.87" style="enable-background:new 0 0 87.87 87.87;" xml:space="preserve">
<g>
	<path d="M39.64,77.1l-1.14,8.93c1.79,0.23,3.62,0.35,5.44,0.35c1.88,0,3.76-0.13,5.61-0.37l-1.18-8.92
		C45.49,77.47,42.51,77.47,39.64,77.1z"/>
	<path d="M69.8,10.28c-2.94-2.26-6.16-4.13-9.58-5.55l-3.46,8.31c2.69,1.12,5.23,2.59,7.55,4.37L69.8,10.28z"/>
	<path d="M4.77,60.31c1.43,3.41,3.3,6.63,5.57,9.57l7.12-5.5c-1.79-2.31-3.26-4.85-4.39-7.53L4.77,60.31z"/>
	<path d="M18.19,77.67c2.95,2.25,6.18,4.11,9.6,5.52l3.43-8.32c-2.69-1.11-5.24-2.57-7.56-4.35L18.19,77.67z"/>
	<path d="M56.78,74.82l3.46,8.31c3.41-1.42,6.63-3.29,9.57-5.55l-5.49-7.13C62.01,72.23,59.47,73.7,56.78,74.82z"/>
	<path d="M86.02,38.39l-8.92,1.17c0.19,1.44,0.28,2.91,0.28,4.38c0,1.46-0.1,2.92-0.28,4.36l8.93,1.15
		c0.24-1.82,0.36-3.67,0.36-5.51C86.38,42.08,86.26,40.22,86.02,38.39z"/>
	<path d="M70.49,64.27l7.14,5.48c2.26-2.94,4.12-6.17,5.54-9.59l-8.32-3.44C73.74,59.41,72.27,61.95,70.49,64.27z"/>
	<path d="M83.16,27.69c-1.42-3.42-3.28-6.64-5.54-9.58l-7.14,5.48c1.78,2.32,3.25,4.86,4.37,7.55L83.16,27.69z"/>
	<path d="M10.5,43.94c0-18.44,15-33.44,33.44-33.44c1.47,0,2.95,0.1,4.4,0.29l1.17-8.92C47.67,1.62,45.8,1.5,43.94,1.5
		C20.54,1.5,1.5,20.54,1.5,43.94c0,1.87,0.12,3.74,0.36,5.58l8.92-1.17C10.59,46.89,10.5,45.41,10.5,43.94z"/>
</g>
<g>
	<path d="M42.42,50.95c2.46,1.14,4.59,2.13,6.41,2.13c0.42,0,0.81-0.05,1.18-0.16c3.35-0.94,5.97-4.62,5.97-8.36
		c0-3.85-3.02-7.38-6.9-8.08c-1.12-0.26-8.6-1.93-11.53-1.93c-2.93,0-10.41,1.68-11.53,1.93c-3.87,0.7-6.9,4.23-6.9,8.08
		c0,3.75,2.62,7.42,5.97,8.36c0.37,0.1,0.76,0.16,1.18,0.16c0,0,0,0,0,0c1.82,0,3.95-0.99,6.41-2.13c1.66-0.77,3.93-1.82,4.87-1.82
		C38.49,49.13,40.76,50.18,42.42,50.95z M48.84,48.07 M30.59,46.41c-1.39,0.64-3.47,1.6-4.25,1.66c-1.05-0.38-2.22-1.94-2.22-3.52
		c0-1.43,1.31-2.91,2.81-3.16l0.14-0.03c3.08-0.7,8.65-1.82,10.48-1.82c1.83,0,7.4,1.12,10.48,1.82l0.14,0.03
		c1.5,0.25,2.81,1.73,2.81,3.16c0,1.58-1.17,3.14-2.21,3.52c-0.78-0.06-2.86-1.02-4.25-1.66c-2.54-1.17-4.93-2.28-6.97-2.28
		C35.52,44.13,33.13,45.23,30.59,46.41z"/>
	<path d="M58.2,22.55c0,36.68-0.49,38.86-8.71,38.86c-8.1,0-8.73-6.71-8.73-8.77h-5c0,5.11,2.89,13.77,13.73,13.77
		c6.02,0,10.41-1.58,12.24-9.29c1.47-6.19,1.47-16.27,1.47-34.58H58.2z"/>
</g>
</svg>
