<?xml version="1.0" encoding="utf-8"?>
<!-- Generator: Adobe Illustrator 24.2.0, SVG Export Plug-In . SVG Version: 6.00 Build 0)  -->
<svg version="1.1" id="Layer_1" xmlns="http://www.w3.org/2000/svg" x="0px" y="0px"
	 viewBox="0 0 87.87 87.87" style="enable-background:new 0 0 87.87 87.87;" xml:space="preserve">
<g>
	<path d="M4.74,60.22c1.42,3.41,3.28,6.63,5.54,9.57l7.13-5.49c-1.78-2.32-3.25-4.85-4.37-7.54L4.74,60.22z"/>
	<path d="M18.09,77.61c2.94,2.26,6.16,4.12,9.57,5.54l3.45-8.31c-2.69-1.12-5.22-2.58-7.54-4.37L18.09,77.61z"/>
	<path d="M43.94,1.5C20.54,1.5,1.5,20.54,1.5,43.94c0,1.86,0.12,3.74,0.36,5.57l8.92-1.17c-0.19-1.45-0.29-2.93-0.29-4.4
		c0-18.44,15-33.44,33.44-33.44c18.44,0,33.44,15,33.44,33.44c0,18.44-15,33.44-33.44,33.44c-1.47,0-2.95-0.1-4.4-0.29l-1.17,8.92
		c1.84,0.24,3.71,0.36,5.57,0.36c23.4,0,42.44-19.04,42.44-42.44C86.38,20.54,67.34,1.5,43.94,1.5z"/>
</g>
<path d="M33.17,35.79c0.49-0.23,0.96-0.5,1.43-0.76c1.53-0.84,3.06-1.67,4.6-2.51c1.41,1.2,2.77,2.37,4.24,3.62
	c-2.49,1.57-7.95,4.93-12.75,7.89c4.6,0.32,9.03,2.13,13.33,3.91c4.41,1.82,8.58,3.54,12.57,3.54c0.85,0,1.67-0.09,2.47-0.25
	c-1.01-3.13-2.33-7.12-2.89-8.49c-1.43-3.52-4.47-7.24-4.88-7.57c-3.4-2.72-6.82-5.42-10.25-8.1c-0.82-0.64-1.79-0.75-2.68-0.18
	c-2.54,1.62-5.06,3.27-7.55,4.96c-1.01,0.68-1.21,2.05-0.58,3.08C30.83,35.91,32.08,36.3,33.17,35.79z"/>
<path d="M60.83,41.2c3.09,0.01,5.74-2.62,5.74-5.72c0-3.17-2.57-5.72-5.77-5.72c-3.16,0-5.67,2.53-5.67,5.72
	C55.14,38.64,57.68,41.19,60.83,41.2z"/>
<path d="M19.29,50.54c0,1.67,0,3.33,0,5c15.76-13.02,31.52,13.02,47.29,0c0-1.67,0-3.33,0-5C50.81,63.56,35.05,37.53,19.29,50.54z"
	/>
</svg>
