<?xml version="1.0" encoding="utf-8"?>
<!-- Generator: Adobe Illustrator 24.2.0, SVG Export Plug-In . SVG Version: 6.00 Build 0)  -->
<svg version="1.1" id="Layer_1" xmlns="http://www.w3.org/2000/svg" x="0px" y="0px"
	 viewBox="0 0 87.87 87.87" style="enable-background:new 0 0 87.87 87.87;" xml:space="preserve">
<style type="text/css">
	.st0{fill-rule:evenodd;clip-rule:evenodd;}
</style>
<path d="M43.94,1.5C20.54,1.5,1.5,20.54,1.5,43.94c0,23.4,19.04,42.44,42.44,42.44c23.4,0,42.44-19.04,42.44-42.44
	C86.38,20.54,67.34,1.5,43.94,1.5z M43.94,77.38c-18.44,0-33.44-15-33.44-33.44c0-18.44,15-33.44,33.44-33.44
	c18.44,0,33.44,15,33.44,33.44C77.38,62.37,62.38,77.38,43.94,77.38z"/>
<path class="st0" d="M19.63,49.97c1.04-1.71,2.48-2.96,4.48-3.45c1.07-0.26,1.49-0.81,1.52-1.9c0.23-8.74,4.49-14.81,12.34-18.47
	c0.32-0.15,0.64-0.27,0.96-0.42c1.53-0.7,1.54-0.78,0.56-2.22c-0.22-0.33-0.46-0.88-0.34-1.16c0.12-0.26,0.71-0.41,1.11-0.44
	c2.75-0.22,5.34,0.24,7.71,1.77c0.67,0.43,1.53,0.6,2.32,0.81c4.13,1.09,7.92,2.81,11.1,5.74c2.36,2.17,3.89,4.73,4.13,8
	c0.05,0.6,0.39,1.23,0.75,1.74c0.52,0.73,1.18,1.36,1.99,2.27c-0.6-0.08-0.93-0.07-1.21-0.18c-2.23-0.83-4.49-1.62-6.68-2.54
	c-2.39-1.01-4.74-1.15-7.22-0.33c-2.22,0.74-4.51,1.31-6.89,0.62c-0.2-0.05-0.38-0.14-0.67-0.56c1.33-0.5,2.67-0.99,4-1.49
	c-2.33-1-4.66-1.32-7.04-1.12c-4.36,0.37-7.82,2.66-11,5.44c-0.84,0.74-1.56,1.63-2.28,2.5c-0.96,1.17-1.26,2.47-0.9,4.01
	c0.23,1.01,0.05,2.13,0.05,3c-1.33-0.79-2.6-1.98-4.04-2.25C22.91,49.08,21.27,49.72,19.63,49.97z"/>
<path d="M65.44,55.01c0,1.52,0,3.03,0,4.55c-14.33-11.84-28.66,11.83-43,0c0-1.52,0-3.03,0-4.55
	C36.78,66.85,51.11,43.18,65.44,55.01z"/>
</svg>
