<?xml version="1.0" encoding="utf-8"?>
<!-- Generator: Adobe Illustrator 24.2.0, SVG Export Plug-In . SVG Version: 6.00 Build 0)  -->
<svg version="1.1" id="Layer_1" xmlns="http://www.w3.org/2000/svg" xmlns:xlink="http://www.w3.org/1999/xlink" x="0px" y="0px"
	 viewBox="0 0 87.87 87.87" style="enable-background:new 0 0 87.87 87.87;" xml:space="preserve">
<style type="text/css">
	.st0{clip-path:url(#SVGID_2_);fill:#231F20;}
</style>
<g>
	<defs>
		<rect id="SVGID_1_" y="0" width="87.87" height="87.87"/>
	</defs>
	<clipPath id="SVGID_2_">
		<use xlink:href="#SVGID_1_"  style="overflow:visible;"/>
	</clipPath>
	<path class="st0" d="M43.94,1.5C20.54,1.5,1.5,20.54,1.5,43.94c0,23.4,19.04,42.44,42.44,42.44c23.4,0,42.44-19.04,42.44-42.44
		C86.38,20.54,67.34,1.5,43.94,1.5 M43.94,77.38c-18.44,0-33.44-15-33.44-33.44c0-18.44,15-33.44,33.44-33.44
		c18.44,0,33.44,15,33.44,33.44C77.38,62.37,62.37,77.38,43.94,77.38"/>
	<path class="st0" d="M34.06,28.27c0.44-0.2,0.87-0.46,1.3-0.69c1.39-0.76,2.79-1.52,4.18-2.29c1.28,1.09,2.52,2.15,3.85,3.29
		c-2.27,1.43-7.23,4.48-11.59,7.17c4.19,0.29,8.21,1.94,12.12,3.55c4.01,1.66,7.8,3.22,11.43,3.22c0.78,0,1.52-0.08,2.24-0.23
		c-0.92-2.84-2.12-6.47-2.63-7.72c-1.3-3.2-4.06-6.59-4.44-6.89c-3.09-2.47-6.2-4.93-9.32-7.36c-0.74-0.58-1.63-0.68-2.44-0.16
		c-2.31,1.47-4.6,2.97-6.86,4.51c-0.92,0.62-1.1,1.86-0.52,2.8C31.94,28.37,33.07,28.72,34.06,28.27"/>
	<path class="st0" d="M59.22,33.19c2.81,0.01,5.22-2.38,5.22-5.2c0-2.88-2.34-5.2-5.25-5.2c-2.88,0-5.16,2.3-5.15,5.2
		C54.04,30.85,56.35,33.17,59.22,33.19"/>
	<path class="st0" d="M21.44,41.68v4.55c14.33-11.84,28.67,11.83,43,0v-4.55C50.1,53.52,35.77,29.84,21.44,41.68"/>
	<path class="st0" d="M21.44,49.88v4.55c14.33-11.84,28.67,11.83,43,0v-4.55C50.1,61.72,35.77,38.05,21.44,49.88"/>
	<path class="st0" d="M21.44,58.09v4.55c14.33-11.84,28.67,11.83,43,0v-4.55C50.1,69.92,35.77,46.25,21.44,58.09"/>
</g>
</svg>
