<?xml version="1.0" encoding="iso-8859-1"?>
<!-- Generator: Adobe Illustrator 22.1.0, SVG Export Plug-In . SVG Version: 6.00 Build 0)  -->
<svg version="1.1" xmlns="http://www.w3.org/2000/svg" xmlns:xlink="http://www.w3.org/1999/xlink" x="0px" y="0px"
	 viewBox="0 0 90.709 90.709" style="enable-background:new 0 0 90.709 90.709;" xml:space="preserve">
<g id="ratownik-1">
	<g>
		<g>
			<circle style="fill:#194093;" cx="45.354" cy="45.355" r="43.52"/>
			<g>
				<path style="fill:#252E78;" d="M45.354,2.835c23.483,0,42.52,19.037,42.52,42.52s-19.037,42.52-42.52,42.52
					s-42.52-19.037-42.52-42.52S21.871,2.835,45.354,2.835 M45.354,0.835c-24.548,0-44.52,19.971-44.52,44.52
					s19.971,44.52,44.52,44.52s44.52-19.971,44.52-44.52S69.903,0.835,45.354,0.835L45.354,0.835z"/>
			</g>
		</g>
	</g>
</g>
<g id="Warstwa_4">
	<g>
		<path style="fill:#F8C409;" d="M41.836,57.634L31.274,78.759c-0.494,0.988-0.093,2.189,0.895,2.684
			c0.987,0.493,2.189,0.094,2.684-0.895l2.868-5.736h4.116v4.842c0,1.104,0.896,2,2,2s2-0.896,2-2v-4.842h4.117l2.868,5.736
			c0.351,0.701,1.057,1.106,1.791,1.105c0.301,0,0.606-0.067,0.893-0.211c0.988-0.494,1.388-1.695,0.895-2.684L45.836,57.634v-6.515
			l-4,2.184V57.634z M39.72,70.812l2.116-4.233v4.233H39.72z M47.953,70.812h-2.117v-4.233L47.953,70.812z"/>
		
			<rect x="10.955" y="54.417" transform="matrix(0.8777 -0.4792 0.4792 0.8777 -25.8859 15.7336)" style="fill:#F8C409;" width="13.856" height="8.335"/>
		
			<rect x="26.218" y="34.246" transform="matrix(0.8777 -0.4792 0.4792 0.8777 -13.8251 21.2198)" style="fill:#F8C409;" width="16.889" height="6.902"/>
		
			<rect x="21.934" y="40.465" transform="matrix(0.8777 -0.4792 0.4792 0.8777 -17.9562 24.2528)" style="fill:#FFFFFF;" width="33.212" height="13.684"/>
		
			<rect x="54.328" y="22.772" transform="matrix(0.8777 -0.4792 0.4792 0.8777 -7.4378 35.5525)" style="fill:#FFFFFF;" width="23.22" height="19.153"/>
		<polygon style="fill:#FFFFFF;" points="71.456,57.693 68.837,52.385 66.217,57.693 60.36,58.544 64.598,62.675 63.598,68.509 
			68.837,65.755 74.076,68.509 73.075,62.675 77.313,58.544 		"/>
		<polygon style="fill:#FFFFFF;" points="40.657,21.727 45.048,19.419 49.438,21.727 48.6,16.838 52.152,13.376 47.243,12.663 
			45.048,8.214 42.852,12.663 37.944,13.376 41.496,16.838 		"/>
		<polygon style="fill:#FFFFFF;" points="14.476,35.577 17.604,33.933 20.733,35.577 20.135,32.094 22.666,29.627 19.169,29.118 
			17.604,25.949 16.04,29.118 12.542,29.627 15.073,32.094 		"/>
	</g>
</g>
</svg>
