<svg xmlns="http://www.w3.org/2000/svg" viewBox="0 0 90.709 90.709"><circle cx="45.354" cy="45.355" r="43.52" fill="#194093"/><path d="M45.354 2.835c23.483 0 42.52 19.037 42.52 42.52s-19.037 42.52-42.52 42.52-42.52-19.037-42.52-42.52 19.037-42.52 42.52-42.52m0-2C20.806.835.834 20.806.834 45.355s19.971 44.52 44.52 44.52 44.52-19.971 44.52-44.52S69.903.835 45.354.835h0z" fill="#252e78"/><path d="M41.836 57.634L31.274 78.759a2.001 2.001 0 1 0 3.579 1.789l2.868-5.736h4.116v4.842a2 2 0 1 0 4 0v-4.842h4.117l2.868 5.736a2 2 0 0 0 1.791 1.105c.301 0 .606-.067.893-.211a2 2 0 0 0 .895-2.684L45.836 57.634v-6.515l-4 2.184v4.331zM39.72 70.812l2.116-4.233v4.233H39.72zm8.233 0h-2.117v-4.233l2.117 4.233zM9.806 58.246l12.161-6.64 3.994 7.316-12.161 6.64zm15.791-19.532l14.823-8.093 3.307 6.058-14.823 8.093z" fill="#f8c409"/><path d="M20.686 49.258l29.15-15.915 6.557 12.01-29.15 15.915zm30.472-19.752l20.38-11.127 9.178 16.811-20.38 11.127zm20.298 28.187l-2.619-5.308-2.62 5.308-5.857.851 4.238 4.131-1 5.834 5.239-2.754 5.239 2.754-1.001-5.834 4.238-4.131zM40.657 21.727l4.391-2.308 4.39 2.308-.838-4.889 3.552-3.462-4.909-.713-2.195-4.449-2.196 4.449-4.908.713 3.552 3.462zm-26.181 13.85l3.128-1.644 3.129 1.644-.598-3.483 2.531-2.467-3.497-.509-1.565-3.169-1.564 3.169-3.498.509 2.531 2.467z" fill="#fff"/></svg>