<?xml version="1.0" encoding="iso-8859-1"?>
<!-- Generator: Adobe Illustrator 22.1.0, SVG Export Plug-In . SVG Version: 6.00 Build 0)  -->
<svg version="1.1" xmlns="http://www.w3.org/2000/svg" xmlns:xlink="http://www.w3.org/1999/xlink" x="0px" y="0px"
	 viewBox="0 0 90.709 90.709" style="enable-background:new 0 0 90.709 90.709;" xml:space="preserve">
<g id="ratownik-1">
	<g>
		<g>
			<circle style="fill:#194093;" cx="45.354" cy="45.355" r="43.52"/>
			<g>
				<path style="fill:#252E78;" d="M45.354,2.835c23.483,0,42.52,19.037,42.52,42.52s-19.037,42.52-42.52,42.52
					s-42.52-19.037-42.52-42.52S21.871,2.835,45.354,2.835 M45.354,0.835c-24.548,0-44.52,19.971-44.52,44.52
					s19.971,44.52,44.52,44.52s44.52-19.971,44.52-44.52S69.903,0.835,45.354,0.835L45.354,0.835z"/>
			</g>
		</g>
	</g>
</g>
<g id="Warstwa_4">
	<g>
		<path style="fill:#F8C409;" d="M26.143,62.201c-2.942-0.369-5.824-0.438-8.475-0.164V25.209L13.97,24.51l-0.145,41.046
			l8.932,1.461c0.078-0.146,0.149-0.294,0.248-0.432L26.143,62.201z"/>
		<path style="fill:#F8C409;" d="M76.884,24.51l-3.843,0.723v36.804c-7.309-0.756-16.356,1.064-23.624,4.769
			c-0.759,0.766-1.502,1.578-2.22,2.439l-1.13,1.353l30.816-5.041V24.51z"/>
		<path style="fill:#F8C409;" d="M41.29,66.805c-2.252-1.148-4.67-2.115-7.16-2.879l-3.173,4.433l13.684,2.239l-1.13-1.353
			C42.793,68.383,42.05,67.572,41.29,66.805z"/>
		<path style="fill:#FFFFFF;" d="M41.29,66.805c-1.866-1.882-3.838-3.466-5.844-4.717l1.399-1.954
			c2.532,1.594,5.01,3.679,7.309,6.199V54.572c-1.436-0.198-2.855-0.624-4.199-1.297l-3.389,4.735l-3.719-2.662l3.425-4.786
			c-4.475-4.618-5.163-11.907-1.287-17.322c2.273-3.176,5.665-5.067,9.254-5.543c-5.784-6.382-12.723-9.991-18.796-9.991
			c-0.372,0-0.741,0.014-1.107,0.041v38.729c0.365-0.027,0.735-0.041,1.107-0.041c1.427,0,2.903,0.21,4.399,0.598l-1.509,2.109
			c-0.979-0.195-1.947-0.306-2.89-0.306c-0.312,0-0.624,0.012-0.928,0.034l-2.579,0.193v-2.586V22.632
			c-1.452,0.146-2.882,0.399-4.269,0.792v1.785v36.829c2.651-0.274,5.533-0.206,8.475,0.164l-3.138,4.384
			c-0.099,0.138-0.17,0.286-0.248,0.432c-0.869,1.634-0.432,3.693,1.114,4.799c1.684,1.205,4.026,0.817,5.231-0.867l1.855-2.591
			l3.173-4.433C36.62,64.69,39.039,65.657,41.29,66.805z"/>
		<path style="fill:#FFFFFF;" d="M68.772,56.476v2.586l-2.579-0.193c-0.304-0.023-0.616-0.034-0.928-0.034
			c-5.097,0-10.857,2.935-15.847,7.971c7.268-3.705,16.315-5.525,23.624-4.769V25.233v-1.809c-1.387-0.393-2.817-0.646-4.269-0.792
			V56.476z"/>
		<path style="fill:#FFFFFF;" d="M66.372,17.748c-0.365-0.027-0.735-0.041-1.107-0.041c-6.039,0-12.93,3.569-18.695,9.882
			c2.555,0.102,5.11,0.916,7.345,2.516c6.093,4.361,7.497,12.836,3.136,18.929c-2.534,3.541-6.459,5.477-10.497,5.64v11.66
			c5.767-6.324,12.667-9.898,18.71-9.898c0.372,0,0.742,0.014,1.107,0.041V17.748z"/>
		<path style="fill:#FFFFFF;" d="M40.45,48.917c1.635,1.17,3.556,1.789,5.557,1.789c3.086,0,5.999-1.495,7.791-4
			c1.487-2.078,2.076-4.611,1.659-7.132c-0.418-2.521-1.792-4.729-3.87-6.216c-1.635-1.17-3.556-1.789-5.557-1.789
			c-3.086,0-5.999,1.495-7.792,4c-1.487,2.078-2.076,4.611-1.659,7.132C36.997,45.222,38.372,47.43,40.45,48.917z"/>
	</g>
</g>
</svg>
