<svg xmlns="http://www.w3.org/2000/svg" viewBox="0 0 90.709 90.709"><circle cx="45.354" cy="45.355" r="43.52" fill="#194093"/><path d="M45.354 2.835c23.483 0 42.52 19.037 42.52 42.52s-19.037 42.52-42.52 42.52-42.52-19.037-42.52-42.52 19.037-42.52 42.52-42.52m0-2C20.806.835.834 20.806.834 45.355s19.971 44.52 44.52 44.52 44.52-19.971 44.52-44.52S69.903.835 45.354.835h0z" fill="#252e78"/><path d="M26.143 62.201c-2.942-.369-5.824-.438-8.475-.164V25.209l-3.698-.699-.145 41.046 8.932 1.461c.078-.146.149-.294.248-.432l3.138-4.384zM76.884 24.51l-3.843.723v36.804c-7.309-.756-16.356 1.064-23.624 4.769-.759.766-1.502 1.578-2.22 2.439l-1.13 1.353 30.816-5.041V24.51zM41.29 66.805c-2.252-1.148-4.67-2.115-7.16-2.879l-3.173 4.433 13.684 2.239-1.13-1.353-2.221-2.44z" fill="#f8c409"/><g fill="#fff"><path d="M41.29 66.805c-1.866-1.882-3.838-3.466-5.844-4.717l1.399-1.954c2.532 1.594 5.01 3.679 7.309 6.199V54.572c-1.436-.198-2.855-.624-4.199-1.297l-3.389 4.735-3.719-2.662 3.425-4.786c-4.475-4.618-5.163-11.907-1.287-17.322 2.273-3.176 5.665-5.067 9.254-5.543-5.784-6.382-12.723-9.991-18.796-9.991a15.04 15.04 0 0 0-1.107.041v38.729a15.02 15.02 0 0 1 1.107-.041c1.427 0 2.903.21 4.399.598l-1.509 2.109a14.84 14.84 0 0 0-2.89-.306c-.312 0-.624.012-.928.034l-2.579.193v-2.586-33.845c-1.452.146-2.882.399-4.269.792v1.785 36.829c2.651-.274 5.533-.206 8.475.164l-3.138 4.384c-.099.138-.17.286-.248.432-.869 1.634-.432 3.693 1.114 4.799a3.75 3.75 0 0 0 5.231-.867l1.855-2.591 3.173-4.433a44.62 44.62 0 0 1 7.161 2.879zm27.482-10.329v2.586l-2.579-.193-.928-.034c-5.097 0-10.857 2.935-15.847 7.971 7.268-3.705 16.315-5.525 23.624-4.769V25.233v-1.809c-1.387-.393-2.817-.646-4.269-.792v33.844z"/><path d="M66.372 17.748l-1.107-.041c-6.039 0-12.93 3.569-18.695 9.882 2.555.102 5.11.916 7.345 2.516a13.57 13.57 0 0 1 3.136 18.929c-2.534 3.541-6.459 5.477-10.497 5.64v11.66c5.767-6.324 12.667-9.898 18.71-9.898a15.02 15.02 0 0 1 1.107.041V17.748zM40.45 48.917c1.635 1.17 3.556 1.789 5.557 1.789 3.086 0 5.999-1.495 7.791-4a9.51 9.51 0 0 0 1.659-7.132c-.418-2.521-1.792-4.729-3.87-6.216-1.635-1.17-3.556-1.789-5.557-1.789a9.6 9.6 0 0 0-7.792 4 9.51 9.51 0 0 0-1.659 7.132c.418 2.521 1.793 4.729 3.871 6.216z"/></g></svg>