<?xml version="1.0" encoding="iso-8859-1"?>
<!-- Generator: Adobe Illustrator 22.1.0, SVG Export Plug-In . SVG Version: 6.00 Build 0)  -->
<svg version="1.1" xmlns="http://www.w3.org/2000/svg" xmlns:xlink="http://www.w3.org/1999/xlink" x="0px" y="0px"
	 viewBox="0 0 90.709 90.709" style="enable-background:new 0 0 90.709 90.709;" xml:space="preserve">
<g id="ratownik-1">
	<g>
		<g>
			<circle style="fill:#194093;" cx="45.354" cy="45.355" r="43.52"/>
			<g>
				<path style="fill:#252E78;" d="M45.354,2.835c23.483,0,42.52,19.037,42.52,42.52s-19.037,42.52-42.52,42.52
					s-42.52-19.037-42.52-42.52S21.871,2.835,45.354,2.835 M45.354,0.835c-24.548,0-44.52,19.971-44.52,44.52
					s19.971,44.52,44.52,44.52s44.52-19.971,44.52-44.52S69.903,0.835,45.354,0.835L45.354,0.835z"/>
			</g>
		</g>
	</g>
</g>
<g id="Warstwa_4">
	<g>
		<g>
			<path style="fill:#FFFFFF;" d="M45.436,58.823c2.174,0.011,3.946-1.743,3.957-3.918c0.011-2.174-1.743-3.946-3.918-3.957
				c-2.174-0.011-3.946,1.743-3.957,3.918C41.507,57.04,43.261,58.812,45.436,58.823z"/>
			<path style="fill:#FFFFFF;" d="M58.231,75.246c0.008-1.608-1.289-2.917-2.896-2.925c-7.188-0.036-6.764,9.087-10.012,9.07
				c-3.248-0.016-2.733-9.134-9.921-9.17c-1.607-0.008-2.917,1.289-2.925,2.896c-0.005,1.055,0.557,1.973,1.395,2.488l-0.001,0.005
				c0,0,8.193,6.138,11.441,6.154s11.501-6.04,11.501-6.04l-0.001-0.005C57.655,77.214,58.226,76.301,58.231,75.246z"/>
			<path style="fill:#FFFFFF;" d="M54.532,68.225c0.006-1.141-0.915-2.071-2.056-2.077c-5.104-0.025-4.803,6.452-7.108,6.44
				s-1.94-6.485-7.044-6.511c-1.141-0.006-2.071,0.915-2.077,2.056c-0.004,0.749,0.396,1.401,0.99,1.766l-0.001,0.003
				c0,0,5.817,4.358,8.123,4.369s8.166-4.288,8.166-4.288l-0.001-0.004C54.123,69.622,54.528,68.974,54.532,68.225z"/>
			<path style="fill:#FFFFFF;" d="M38.743,61.628c-0.003,0.544,0.299,1.001,0.729,1.269l-0.007,0.024c0,0,4.25,3.183,5.934,3.192
				c1.684,0.008,5.966-3.133,5.966-3.133l-0.006-0.024c0.433-0.263,0.739-0.717,0.742-1.262c0.004-0.834-0.668-1.513-1.502-1.517
				c-3.728-0.019-3.508,4.713-5.193,4.705c-1.685-0.008-1.417-4.737-5.146-4.756C39.426,60.122,38.747,60.795,38.743,61.628z"/>
			<polygon style="fill:#FFFFFF;" points="51.762,17.002 49.525,13.54 45.354,19.994 41.183,13.54 38.946,17.002 45.354,26.916 			
				"/>
			<polygon style="fill:#FFFFFF;" points="48.501,11.956 45.354,7.087 42.207,11.956 45.354,16.825 			"/>
			<polygon style="fill:#FFFFFF;" points="48.501,43.15 45.354,38.281 42.207,43.15 45.354,48.019 			"/>
			<polygon style="fill:#FFFFFF;" points="37.147,36.039 40.232,40.82 45.354,32.976 50.477,40.82 53.561,36.039 46.741,31.585 
				54.588,33.232 54.588,27.418 45.354,29.356 36.121,27.418 36.121,33.232 43.968,31.584 			"/>
		</g>
		<g>
			<g>
				<path style="fill:#F8C409;" d="M36.866,42.739c0,0-4.055-5.613-5-6.384c-1.176-0.958-2.68-1.225-4.045-0.877
					c-0.043,0.923,0.19,1.848,0.684,2.648c-0.066-0.028-0.12-0.07-0.188-0.095c-1.251-0.449-2.571-0.231-3.597,0.455
					c0.315,1.047,1.06,1.933,2.091,2.44c-0.003,0.008-0.004,0.015-0.007,0.023c-1.012,0.208-1.861,0.811-2.372,1.651
					c0.604,0.678,3.121,2.502,3.704,2.963c-0.37,2.379-1.026,3.874-1.628,5.082c-0.419-4.803-4.445-8.573-9.357-8.573
					c-5.191,0-9.399,4.208-9.399,9.399c0,1.198,0.233,2.34,0.642,3.393c1.362-3.512,4.765-6.006,8.757-6.006
					c1.158,0,2.263,0.215,3.286,0.599c-1.961-0.433-4.088-0.094-5.878,1.129c-3.437,2.349-4.32,7.039-1.971,10.476
					c0.542,0.793,1.213,1.444,1.96,1.957c-0.687-2.942,0.438-6.133,3.082-7.939c1.644-1.123,3.572-1.502,5.395-1.22
					c-2.353,0.069-4.549,1.516-5.459,3.847c-1.214,3.11,0.324,6.616,3.434,7.829c0.718,0.28,1.456,0.407,2.183,0.409
					c-1.786-1.637-2.485-4.259-1.551-6.651c0.669-1.714,2.038-2.935,3.649-3.495c0.392,2.068,5.707,10.312,5.707,10.312
					s5.878-8.823,5.878-11.407c0-2.98-0.615-3.767-3.631-9.143C33.603,45.273,36.866,42.739,36.866,42.739z"/>
				<path style="fill:#F8C409;" d="M53.842,42.739c0,0,4.055-5.613,5-6.384c1.176-0.958,2.68-1.225,4.045-0.877
					c0.043,0.923-0.19,1.848-0.684,2.648c0.066-0.028,0.12-0.07,0.188-0.095c1.251-0.449,2.571-0.231,3.597,0.455
					c-0.315,1.047-1.06,1.933-2.091,2.44c0.003,0.008,0.004,0.015,0.007,0.023c1.012,0.208,1.861,0.811,2.372,1.651
					c-0.604,0.678-3.121,2.502-3.704,2.963c0.37,2.379,1.026,3.874,1.628,5.082c0.419-4.803,4.445-8.573,9.357-8.573
					c5.191,0,9.399,4.208,9.399,9.399c0,1.198-0.233,2.34-0.642,3.393c-1.362-3.512-4.765-6.006-8.757-6.006
					c-1.158,0-2.263,0.215-3.286,0.599c1.961-0.433,4.088-0.094,5.878,1.129c3.437,2.349,4.32,7.039,1.971,10.476
					c-0.542,0.793-1.213,1.444-1.96,1.957c0.687-2.942-0.438-6.133-3.082-7.939c-1.644-1.123-3.572-1.502-5.395-1.22
					c2.353,0.069,4.549,1.516,5.459,3.847c1.214,3.11-0.324,6.616-3.434,7.829c-0.718,0.28-1.456,0.407-2.183,0.409
					c1.786-1.637,2.485-4.259,1.551-6.651c-0.669-1.714-2.038-2.935-3.649-3.495c-0.392,2.068-5.707,10.312-5.707,10.312
					s-5.878-8.823-5.878-11.407c0-2.98,0.615-3.767,3.631-9.143C57.106,45.273,53.842,42.739,53.842,42.739z"/>
			</g>
		</g>
	</g>
</g>
</svg>
