<svg xmlns="http://www.w3.org/2000/svg" viewBox="0 0 90.709 90.709"><circle cx="45.354" cy="45.355" r="43.52" fill="#194093"/><path d="M45.354 2.835c23.483 0 42.52 19.037 42.52 42.52s-19.037 42.52-42.52 42.52-42.52-19.037-42.52-42.52 19.037-42.52 42.52-42.52m0-2C20.806.835.834 20.806.834 45.355s19.971 44.52 44.52 44.52 44.52-19.971 44.52-44.52S69.903.835 45.354.835h0z" fill="#252e78"/><path d="M45.436 58.823a3.94 3.94 0 0 0 3.957-3.918 3.94 3.94 0 0 0-3.918-3.957 3.94 3.94 0 0 0-3.957 3.918 3.94 3.94 0 0 0 3.918 3.957zm12.795 16.423a2.91 2.91 0 0 0-2.896-2.925c-7.188-.036-6.764 9.087-10.012 9.07s-2.733-9.134-9.921-9.17a2.91 2.91 0 0 0-2.925 2.896 2.9 2.9 0 0 0 1.395 2.488l-.001.005s8.193 6.138 11.441 6.154 11.501-6.04 11.501-6.04l-.001-.005c.843-.505 1.414-1.418 1.419-2.473zm-3.699-7.021c.006-1.141-.915-2.071-2.056-2.077-5.104-.025-4.803 6.452-7.108 6.44s-1.94-6.485-7.044-6.511c-1.141-.006-2.071.915-2.077 2.056-.004.749.396 1.401.99 1.766l-.001.003s5.817 4.358 8.123 4.369 8.166-4.288 8.166-4.288l-.001-.004a2.05 2.05 0 0 0 1.008-1.754zm-15.789-6.597c-.003.544.299 1.001.729 1.269l-.007.024s4.25 3.183 5.934 3.192 5.966-3.133 5.966-3.133l-.006-.024c.433-.263.739-.717.742-1.262a1.51 1.51 0 0 0-1.502-1.517c-3.728-.019-3.508 4.713-5.193 4.705s-1.417-4.737-5.146-4.756a1.51 1.51 0 0 0-1.517 1.502zm13.019-44.626l-2.237-3.462-4.171 6.454-4.171-6.454-2.237 3.462 6.408 9.914zm-3.261-5.046l-3.147-4.869-3.147 4.869 3.147 4.869zm0 31.194l-3.147-4.869-3.147 4.869 3.147 4.869zm-11.354-7.111l3.085 4.781 5.122-7.844 5.123 7.844 3.084-4.781-6.82-4.454 7.847 1.647v-5.814l-9.234 1.938-9.233-1.938v5.814l7.847-1.648z" fill="#fff"/><path d="M36.866 42.739l-5-6.384c-1.176-.958-2.68-1.225-4.045-.877a4.63 4.63 0 0 0 .684 2.648c-.066-.028-.12-.07-.188-.095-1.251-.449-2.571-.231-3.597.455.315 1.047 1.06 1.933 2.091 2.44-.003.008-.004.015-.007.023-1.012.208-1.861.811-2.372 1.651.604.678 3.121 2.502 3.704 2.963-.37 2.379-1.026 3.874-1.628 5.082-.419-4.803-4.445-8.573-9.357-8.573a9.4 9.4 0 0 0-9.399 9.399c0 1.198.233 2.34.642 3.393 1.362-3.512 4.765-6.006 8.757-6.006 1.158 0 2.263.215 3.286.599-1.961-.433-4.088-.094-5.878 1.129a7.54 7.54 0 0 0-1.971 10.476 7.52 7.52 0 0 0 1.96 1.957c-.687-2.942.438-6.133 3.082-7.939 1.644-1.123 3.572-1.502 5.395-1.22-2.353.069-4.549 1.516-5.459 3.847-1.214 3.11.324 6.616 3.434 7.829a6.03 6.03 0 0 0 2.183.409c-1.786-1.637-2.485-4.259-1.551-6.651.669-1.714 2.038-2.935 3.649-3.495.392 2.068 5.707 10.312 5.707 10.312s5.878-8.823 5.878-11.407c0-2.98-.615-3.767-3.631-9.143l3.631-2.822zm16.976 0l5-6.384c1.176-.958 2.68-1.225 4.045-.877a4.63 4.63 0 0 1-.684 2.648c.066-.028.12-.07.188-.095 1.251-.449 2.571-.231 3.597.455-.315 1.047-1.06 1.933-2.091 2.44.003.008.004.015.007.023 1.012.208 1.861.811 2.372 1.651-.604.678-3.121 2.502-3.704 2.963.37 2.379 1.026 3.874 1.628 5.082.419-4.803 4.445-8.573 9.357-8.573a9.4 9.4 0 0 1 9.399 9.399c0 1.198-.233 2.34-.642 3.393-1.362-3.512-4.765-6.006-8.757-6.006-1.158 0-2.263.215-3.286.599 1.961-.433 4.088-.094 5.878 1.129a7.54 7.54 0 0 1 1.971 10.476 7.52 7.52 0 0 1-1.96 1.957c.687-2.942-.438-6.133-3.082-7.939-1.644-1.123-3.572-1.502-5.395-1.22 2.353.069 4.549 1.516 5.459 3.847 1.214 3.11-.324 6.616-3.434 7.829a6.03 6.03 0 0 1-2.183.409c1.786-1.637 2.485-4.259 1.551-6.651-.669-1.714-2.038-2.935-3.649-3.495-.392 2.068-5.707 10.312-5.707 10.312s-5.878-8.823-5.878-11.407c0-2.98.615-3.767 3.631-9.143l-3.631-2.822z" fill="#f8c409"/></svg>