<svg xmlns="http://www.w3.org/2000/svg" viewBox="0 0 90.709 90.709"><defs><path id="B" d="M56.204 20.232a5.62 5.62 0 1 1-11.243.003c0-3.105 2.518-5.621 5.621-5.622s5.621 2.519 5.622 5.619z"/><path id="C" d="M34.666 56.527a5.62 5.62 0 0 1-11.243.003c0-3.104 2.518-5.621 5.621-5.622s5.621 2.518 5.622 5.619z"/><path id="D" d="M42.748 34.23a5.62 5.62 0 0 1-11.243.003c0-3.105 2.518-5.621 5.621-5.622s5.621 2.519 5.622 5.619z"/></defs><path d="M45.354 88.874c-23.997 0-43.52-19.522-43.52-43.52s19.522-43.52 43.52-43.52 43.521 19.522 43.521 43.52-19.524 43.52-43.521 43.52z" fill="#194093"/><path d="M45.354 2.835c23.483 0 42.52 19.037 42.52 42.52s-19.037 42.52-42.52 42.52-42.52-19.037-42.52-42.52 19.037-42.52 42.52-42.52m0-2C20.806.835.834 20.806.834 45.355s19.971 44.52 44.52 44.52 44.52-19.972 44.52-44.52S69.902.835 45.354.835h0z" fill="#252e78"/><path d="M66.746 22.424a2 2 0 0 0-2 2v5.361H52.583v-5.361a2 2 0 1 0-4 0v7.361a2 2 0 0 0 2 2h8.788c-.063.454 0 31.296 0 31.296H31.044V47.784h6.082a2 2 0 0 0 2-2v-7.362a2 2 0 1 0-4 0v5.362H22.963v-5.362a2 2 0 1 0-4 0v7.362a2 2 0 0 0 2 2h6.081v19.297a2 2 0 0 0 2 2h14.163v8.824a2 2 0 1 0 4 0v-8.824H61.37a2 2 0 0 0 2-2V33.785h3.375a2 2 0 0 0 2-2v-7.361a2 2 0 0 0-1.999-2z" fill="#f8c409"/><g fill="#fff"><path d="M72.368 20.232a5.62 5.62 0 1 1-11.243.003c0-3.105 2.518-5.621 5.621-5.622s5.62 2.519 5.622 5.619z"/><use xlink:href="#B"/><use xlink:href="#B" x="-5.375" y="57.672"/><use xlink:href="#C"/><use xlink:href="#D"/><use xlink:href="#B" x="10.788" y="20.625"/><use xlink:href="#D" x="-16.163"/><use xlink:href="#C" x="32.326"/></g></svg>