<?xml version="1.0" encoding="iso-8859-1"?>
<!-- Generator: Adobe Illustrator 22.1.0, SVG Export Plug-In . SVG Version: 6.00 Build 0)  -->
<svg version="1.1" xmlns="http://www.w3.org/2000/svg" xmlns:xlink="http://www.w3.org/1999/xlink" x="0px" y="0px"
	 viewBox="0 0 90.709 90.709" style="enable-background:new 0 0 90.709 90.709;" xml:space="preserve">
<g id="ratownik-1">
	<g>
		<g>
			<path style="fill:#194093;" d="M45.354,88.874c-23.997,0-43.52-19.522-43.52-43.52c0-23.997,19.522-43.52,43.52-43.52
				c23.997,0,43.521,19.522,43.521,43.52C88.874,69.352,69.351,88.874,45.354,88.874z"/>
			<g>
				<path style="fill:#252E78;" d="M45.354,2.835c23.483,0,42.52,19.037,42.52,42.52c0,23.483-19.037,42.52-42.52,42.52
					c-23.483,0-42.52-19.037-42.52-42.52C2.835,21.871,21.871,2.835,45.354,2.835 M45.354,0.835c-24.548,0-44.52,19.971-44.52,44.52
					s19.971,44.52,44.52,44.52s44.52-19.972,44.52-44.52S69.902,0.835,45.354,0.835L45.354,0.835z"/>
			</g>
		</g>
	</g>
</g>
<g id="Warstwa_4">
	<g>
		<path style="fill:#F8C409;" d="M66.746,22.424c-1.104,0-2,0.896-2,2v5.361H52.583v-5.361c0-1.104-0.896-2-2-2
			c-1.105,0-2,0.896-2,2v7.361c0,1.104,0.895,2,2,2h8.788c-0.063,0.454,0,31.296,0,31.296H31.044V47.784h6.082c1.104,0,2-0.896,2-2
			v-7.362c0-1.104-0.896-2-2-2c-1.105,0-2,0.896-2,2v5.362H22.963v-5.362c0-1.104-0.896-2-2-2s-2,0.896-2,2v7.362
			c0,1.104,0.896,2,2,2h6.081v19.297c0,1.104,0.895,2,2,2h14.163v8.824c0,1.104,0.896,2,2,2s2-0.896,2-2v-8.824H61.37
			c1.104,0,2-0.896,2-2V33.785h3.375c1.105,0,2-0.896,2-2v-7.361C68.746,23.319,67.85,22.424,66.746,22.424z"/>
		<g>
			<path style="fill:#FFFFFF;" d="M72.368,20.232c0,3.105-2.517,5.625-5.621,5.622c-3.105,0-5.622-2.513-5.622-5.619
				c0-3.105,2.518-5.621,5.621-5.622C69.852,14.612,72.366,17.132,72.368,20.232z"/>
		</g>
		<g>
			<path style="fill:#FFFFFF;" d="M56.204,20.232c0,3.105-2.516,5.625-5.621,5.622c-3.105,0-5.622-2.513-5.622-5.619
				c0-3.105,2.518-5.621,5.621-5.622C53.689,14.612,56.203,17.132,56.204,20.232z"/>
		</g>
		<g>
			<path style="fill:#FFFFFF;" d="M50.829,77.904c0,3.105-2.517,5.625-5.621,5.622c-3.105,0-5.622-2.513-5.622-5.619
				c0-3.105,2.518-5.621,5.621-5.622C48.313,72.284,50.828,74.804,50.829,77.904z"/>
		</g>
		<g>
			<path style="fill:#FFFFFF;" d="M34.666,56.527c0,3.105-2.516,5.625-5.621,5.622c-3.105,0-5.622-2.513-5.622-5.619
				c0-3.104,2.518-5.621,5.621-5.622C32.15,50.906,34.665,53.426,34.666,56.527z"/>
		</g>
		<g>
			<path style="fill:#FFFFFF;" d="M42.748,34.23c0,3.105-2.516,5.625-5.621,5.622c-3.105,0-5.622-2.513-5.622-5.619
				c0-3.105,2.518-5.621,5.621-5.622C40.232,28.61,42.747,31.13,42.748,34.23z"/>
		</g>
		<g>
			<path style="fill:#FFFFFF;" d="M66.992,40.857c0,3.105-2.517,5.625-5.621,5.622c-3.105,0-5.622-2.513-5.622-5.619
				c0-3.105,2.518-5.621,5.621-5.622C64.476,35.237,66.991,37.757,66.992,40.857z"/>
		</g>
		<g>
			<path style="fill:#FFFFFF;" d="M26.585,34.23c0,3.105-2.516,5.625-5.621,5.622c-3.105,0-5.622-2.513-5.622-5.619
				c0-3.105,2.518-5.621,5.621-5.622C24.069,28.61,26.584,31.13,26.585,34.23z"/>
		</g>
		<g>
			<path style="fill:#FFFFFF;" d="M66.992,56.527c0,3.105-2.517,5.625-5.621,5.622c-3.105,0-5.622-2.513-5.622-5.619
				c0-3.104,2.518-5.621,5.621-5.622C64.476,50.906,66.991,53.426,66.992,56.527z"/>
		</g>
	</g>
</g>
</svg>
