<svg xmlns="http://www.w3.org/2000/svg" viewBox="0 0 90.709 90.709"><circle transform="matrix(.9239 -.3827 .3827 .9239 -13.9041 20.8088)" cx="45.354" cy="45.355" r="43.52" fill="#194093"/><path d="M45.354 2.835c23.483 0 42.52 19.037 42.52 42.52s-19.037 42.52-42.52 42.52-42.52-19.037-42.52-42.52 19.037-42.52 42.52-42.52m0-2C20.806.835.834 20.806.834 45.355s19.971 44.52 44.52 44.52 44.52-19.971 44.52-44.52S69.903.835 45.354.835h0z" fill="#252e78"/><path d="M73.066 18.979l-14.315-.727-6.169 4.749-.947.729-.849-.061-8.605-.615-5.233 3.808-1.271.925-.573-1.031-3.001-5.404 3.783 2.832 4.276-4.834.435-.492.997-.055 8.041-.443 5.9-5.901.638-.638 1.407-.176 4.737-.594a38.1 38.1 0 0 0-16.964-3.965 38.13 38.13 0 0 0-14.465 2.838l8.185 1.198 5.709-1.018-5.277 3.512-.12.08-.44.011-9 .226-11.194 3.925c-5.263 5.093-9.065 11.68-10.727 19.081l13.691-10.3 1.148 5.789 7.641-4.396 1.521 5.642 5.126 13.817 4.052-8.441.86-9.228 7.237.072 3.654 11.794 3.5-4.294.083-5.024 2.149-6.022 3.045 1.482 2.4-1.772 4.156 6.801 1.465-3.725 2.405-1.628 4.937 1.765 2.439-1.124c-1.702-3.373-3.887-6.458-6.467-9.168zM60.623 59.238l-4.608-8.573-4.749 2.605-2.579 6.078-2.579-5.789-1.72 10.998-3.552-1.789-4.042 7.432-8.169-12.011-4.871 8.104h-3.44l-1.719 1.592-3.718.606c6.989 9.193 18.038 15.132 30.477 15.132 6.425 0 12.475-1.591 17.792-4.389l-6.615-5.66-2.406 3.332-1.151 1.594-1.547-.343-8.082-1.79-7.845 3.896-.82.408-.472-.38-5.753-4.633 6.141 2.077 7.393-5.377.495-.36.915.079 6.876.595 2.882-5.607 1.419-2.76 3.244 1.774 13.496 7.381c1.679-1.552 3.221-3.25 4.601-5.078L69.18 62.82l-8.557-3.582z" fill="#fff"/><path d="M56.175 11.822l-.638.638-5.9 5.901-8.041.443-.997.055-.435.492-4.276 4.834-3.783-2.832 3.001 5.404.573 1.031 1.271-.925 5.233-3.808 8.605.615.849.061.947-.729 6.169-4.749 14.315.727c-3.076-3.231-6.708-5.926-10.748-7.928l-4.737.594-1.408.176zm-1.601 52.485l-1.419 2.76-2.882 5.607-6.876-.595-.915-.079-.495.36-7.393 5.377-6.141-2.077 5.753 4.633.472.38.82-.408 7.845-3.896 8.082 1.79 1.547.343 1.151-1.594 2.406-3.332 6.615 5.66a38.35 38.35 0 0 0 8.168-5.771l-13.496-7.381-3.242-1.777zm-15.627-50.6l.44-.011.12-.08 5.277-3.512-5.709 1.018-8.185-1.198c-4.55 1.86-8.66 4.57-12.136 7.934l11.194-3.925 8.999-.226z" fill="#f8c409"/></svg>