<?xml version="1.0" encoding="iso-8859-1"?>
<!-- Generator: Adobe Illustrator 22.1.0, SVG Export Plug-In . SVG Version: 6.00 Build 0)  -->
<svg version="1.1" xmlns="http://www.w3.org/2000/svg" xmlns:xlink="http://www.w3.org/1999/xlink" x="0px" y="0px"
	 viewBox="0 0 90.709 90.709" style="enable-background:new 0 0 90.709 90.709;" xml:space="preserve">
<g id="ratownik-1">
	<g>
		<g>
			
				<ellipse transform="matrix(0.9239 -0.3827 0.3827 0.9239 -13.9041 20.8088)" style="fill:#194093;" cx="45.354" cy="45.355" rx="43.52" ry="43.52"/>
			<g>
				<path style="fill:#252E78;" d="M45.354,2.835c23.483,0,42.52,19.037,42.52,42.52s-19.037,42.52-42.52,42.52
					s-42.52-19.037-42.52-42.52S21.871,2.835,45.354,2.835 M45.354,0.835c-24.548,0-44.52,19.971-44.52,44.52
					s19.971,44.52,44.52,44.52s44.52-19.971,44.52-44.52S69.903,0.835,45.354,0.835L45.354,0.835z"/>
			</g>
		</g>
	</g>
</g>
<g id="Warstwa_4">
	<g>
		<path style="fill:#FFFFFF;" d="M73.066,18.979l-14.315-0.727l-6.169,4.749l-0.947,0.729l-0.849-0.061l-8.605-0.615l-5.233,3.808
			l-1.271,0.925l-0.573-1.031l-3.001-5.404l3.783,2.832l4.276-4.834l0.435-0.492l0.997-0.055l8.041-0.443l5.9-5.901l0.638-0.638
			l1.407-0.176l4.737-0.594c-5.114-2.534-10.871-3.965-16.964-3.965c-5.12,0-10.001,1.013-14.465,2.838l8.185,1.198l5.709-1.018
			l-5.277,3.512l-0.12,0.08l-0.44,0.011l-9,0.226l-11.194,3.925c-5.263,5.093-9.065,11.68-10.727,19.081l13.691-10.3l1.148,5.789
			l7.641-4.396l1.521,5.642l5.126,13.817l4.052-8.441l0.86-9.228l7.237,0.072l3.654,11.794l3.5-4.294l0.083-5.024l2.149-6.022
			l3.045,1.482l2.4-1.772l4.156,6.801l1.465-3.725l2.405-1.628l4.937,1.765l2.439-1.124C77.831,24.774,75.646,21.689,73.066,18.979z
			"/>
		<path style="fill:#FFFFFF;" d="M60.623,59.238l-4.608-8.573l-4.749,2.605l-2.579,6.078l-2.579-5.789l-1.72,10.998l-3.552-1.789
			L36.794,70.2l-8.169-12.011l-4.871,8.104h-3.44l-1.719,1.592l-3.718,0.606c6.989,9.193,18.038,15.132,30.477,15.132
			c6.425,0,12.475-1.591,17.792-4.389l-6.615-5.66l-2.406,3.332l-1.151,1.594l-1.547-0.343l-8.082-1.79l-7.845,3.896l-0.82,0.408
			l-0.472-0.38l-5.753-4.633l6.141,2.077l7.393-5.377l0.495-0.36l0.915,0.079l6.876,0.595l2.882-5.607l1.419-2.76l3.244,1.774
			l13.496,7.381c1.679-1.552,3.221-3.25,4.601-5.078L69.18,62.82L60.623,59.238z"/>
		<path style="fill:#F8C409;" d="M56.175,11.822l-0.638,0.638l-5.9,5.901l-8.041,0.443l-0.997,0.055l-0.435,0.492l-4.276,4.834
			l-3.783-2.832l3.001,5.404l0.573,1.031l1.271-0.925l5.233-3.808l8.605,0.615l0.849,0.061l0.947-0.729l6.169-4.749l14.315,0.727
			c-3.076-3.231-6.708-5.926-10.748-7.928l-4.737,0.594L56.175,11.822z"/>
		<path style="fill:#F8C409;" d="M54.574,64.307l-1.419,2.76l-2.882,5.607l-6.876-0.595l-0.915-0.079l-0.495,0.36l-7.393,5.377
			l-6.141-2.077l5.753,4.633l0.472,0.38l0.82-0.408l7.845-3.896l8.082,1.79l1.547,0.343l1.151-1.594l2.406-3.332l6.615,5.66
			c2.976-1.566,5.72-3.509,8.168-5.771l-13.496-7.381L54.574,64.307z"/>
		<path style="fill:#F8C409;" d="M38.947,13.707l0.44-0.011l0.12-0.08l5.277-3.512l-5.709,1.018l-8.185-1.198
			c-4.55,1.86-8.66,4.57-12.136,7.934l11.194-3.925L38.947,13.707z"/>
	</g>
</g>
</svg>
