<?xml version="1.0" encoding="iso-8859-1"?>
<!-- Generator: Adobe Illustrator 22.1.0, SVG Export Plug-In . SVG Version: 6.00 Build 0)  -->
<svg version="1.1" xmlns="http://www.w3.org/2000/svg" xmlns:xlink="http://www.w3.org/1999/xlink" x="0px" y="0px"
	 viewBox="0 0 90.709 90.709" style="enable-background:new 0 0 90.709 90.709;" xml:space="preserve">
<g id="ratownik-1">
	<g>
		<g>
			<path style="fill:#194093;" d="M45.354,88.874c-23.997,0-43.52-19.522-43.52-43.52S21.357,1.834,45.354,1.834
				s43.521,19.523,43.521,43.521S69.351,88.874,45.354,88.874z"/>
			<g>
				<path style="fill:#252E78;" d="M45.354,2.835c23.483,0,42.52,19.037,42.52,42.52s-19.037,42.52-42.52,42.52
					c-23.483,0-42.52-19.037-42.52-42.52S21.871,2.835,45.354,2.835 M45.354,0.835c-24.548,0-44.52,19.971-44.52,44.52
					s19.971,44.52,44.52,44.52s44.52-19.971,44.52-44.52S69.903,0.835,45.354,0.835L45.354,0.835z"/>
			</g>
		</g>
	</g>
</g>
<g id="Warstwa_4">
	<g>
		<path style="fill:#FFFFFF;" d="M45.354,63.962c2.36,0,4.485,1.002,5.989,2.597L75.157,52.81l-1.953-3.134
			C61.733,56.357,48.873,56.18,45.354,63.83c-3.518-7.65-16.378-7.473-27.849-14.154l-1.953,3.134l23.814,13.749
			C40.869,64.964,42.995,63.962,45.354,63.962z"/>
		<path style="fill:#F8C409;" d="M80.281,55.667c-0.554-0.956-1.773-1.285-2.732-0.732L52.99,69.113l-2.655,1.533
			c-0.667-2.129-2.631-3.684-4.98-3.684c-2.349,0-4.314,1.555-4.98,3.685l-2.655-1.533L13.16,54.935
			c-0.959-0.553-2.18-0.224-2.732,0.732c-0.552,0.957-0.225,2.18,0.732,2.732l26.074,15.054l7.12,4.11
			c0.31,0.179,0.654,0.268,1,0.268s0.69-0.089,1-0.268l7.116-4.108L79.548,58.4C80.505,57.847,80.832,56.624,80.281,55.667z"/>
		<path style="fill:#FFFFFF;" d="M38.748,43.159l6.385-3.508l6.385,3.508c0,1.575-0.576,3.017-1.526,4.131h2.913
			c0.756-1.315,1.195-2.835,1.195-4.46c0-3.691-4.044-8.554-6.802-10.793c2.758-2.239,6.802-7.102,6.802-10.793
			c0-1.626-0.439-3.146-1.195-4.46H37.361c-0.756,1.315-1.195,2.835-1.195,4.46c0,3.691,4.044,8.554,6.802,10.793
			c-2.758,2.239-6.802,7.102-6.802,10.793c0,1.626,0.439,3.146,1.195,4.46h2.913C39.324,46.176,38.748,44.734,38.748,43.159z
			 M39.271,22.77h11.722c-1.179,2.686-4.098,5.972-5.861,7.333C43.369,28.742,40.45,25.456,39.271,22.77z"/>
		<polygon style="fill:#F8C409;" points="54.477,16.783 54.477,12.277 35.788,12.277 35.788,16.783 37.361,16.783 52.904,16.783 		
			"/>
		<path style="fill:#F8C409;" d="M54.477,51.797V47.29h-1.573h-2.913c0.949-1.115,1.526-2.556,1.526-4.131l-6.385-3.508
			l-6.385,3.508c0,1.575,0.576,3.017,1.526,4.131h-2.913h-1.573v4.507H54.477z"/>
		<path style="fill:#F8C409;" d="M45.132,30.103c1.763-1.361,4.682-4.646,5.861-7.333H39.271
			C40.45,25.456,43.369,28.742,45.132,30.103z"/>
	</g>
</g>
</svg>
