<svg xmlns="http://www.w3.org/2000/svg" viewBox="0 0 90.709 90.709"><path d="M45.354 88.874c-23.997 0-43.52-19.522-43.52-43.52s19.523-43.52 43.52-43.52 43.521 19.523 43.521 43.521-19.524 43.519-43.521 43.519z" fill="#194093"/><path d="M45.354 2.835c23.483 0 42.52 19.037 42.52 42.52s-19.037 42.52-42.52 42.52-42.52-19.037-42.52-42.52 19.037-42.52 42.52-42.52m0-2C20.806.835.834 20.806.834 45.355s19.971 44.52 44.52 44.52 44.52-19.971 44.52-44.52S69.903.835 45.354.835h0z" fill="#252e78"/><path d="M45.354 63.962a8.21 8.21 0 0 1 5.989 2.597L75.157 52.81l-1.953-3.134c-11.471 6.681-24.331 6.504-27.85 14.154-3.518-7.65-16.378-7.473-27.849-14.154l-1.953 3.134 23.814 13.749c1.503-1.595 3.629-2.597 5.988-2.597z" fill="#fff"/><path d="M80.281 55.667a2 2 0 0 0-2.732-.732L52.99 69.113l-2.655 1.533c-.667-2.129-2.631-3.684-4.98-3.684s-4.314 1.555-4.98 3.685l-2.655-1.533-24.56-14.179a2 2 0 1 0-2 3.464l26.074 15.054 7.12 4.11c.31.179.654.268 1 .268s.69-.089 1-.268l7.116-4.108L79.548 58.4c.957-.553 1.284-1.776.733-2.733z" fill="#f8c409"/><path d="M38.748 43.159l6.385-3.508 6.385 3.508c0 1.575-.576 3.017-1.526 4.131h2.913c.756-1.315 1.195-2.835 1.195-4.46 0-3.691-4.044-8.554-6.802-10.793 2.758-2.239 6.802-7.102 6.802-10.793 0-1.626-.439-3.146-1.195-4.46H37.361c-.756 1.315-1.195 2.835-1.195 4.46 0 3.691 4.044 8.554 6.802 10.793-2.758 2.239-6.802 7.102-6.802 10.793 0 1.626.439 3.146 1.195 4.46h2.913c-.95-1.114-1.526-2.556-1.526-4.131zm.523-20.389h11.722c-1.179 2.686-4.098 5.972-5.861 7.333-1.763-1.361-4.682-4.647-5.861-7.333z" fill="#fff"/><path d="M54.477 16.783v-4.506H35.788v4.506h1.573 15.543zm0 35.014V47.29h-1.573-2.913c.949-1.115 1.526-2.556 1.526-4.131l-6.385-3.508-6.385 3.508c0 1.575.576 3.017 1.526 4.131H37.36h-1.573v4.507h18.69zm-9.345-21.694c1.763-1.361 4.682-4.646 5.861-7.333H39.271c1.179 2.686 4.098 5.972 5.861 7.333z" fill="#f8c409"/></svg>