<svg xmlns="http://www.w3.org/2000/svg" viewBox="0 0 90.709 90.709"><circle cx="45.354" cy="45.355" r="43.52" fill="#194093"/><path d="M45.354 2.835c23.483 0 42.52 19.037 42.52 42.52s-19.037 42.52-42.52 42.52-42.52-19.037-42.52-42.52 19.037-42.52 42.52-42.52m0-2C20.806.835.834 20.806.834 45.355s19.971 44.52 44.52 44.52 44.52-19.971 44.52-44.52S69.903.835 45.354.835h0z" fill="#252e78"/><path d="M45.354 7.937c-20.632 0-37.417 16.785-37.417 37.417s16.785 37.417 37.417 37.417 37.417-16.785 37.417-37.417S65.986 7.937 45.354 7.937zm-8.042 4.985c-1.893 2.663-3.436 6.243-4.623 10.349h4.164c2.265-7.112 5.478-11.334 8.501-11.334s6.236 4.222 8.501 11.334h4.164c-1.186-4.106-2.73-7.686-4.623-10.349 9.674 2.4 17.697 9.022 21.99 17.794H64.347v4h12.677c1.127 3.344 1.746 6.919 1.746 10.639s-.62 7.294-1.746 10.639H60.262c.412-3.488.624-7.084.624-10.639a92.22 92.22 0 0 0-.204-6.06h-3.997c.129 1.948.201 3.968.201 6.06 0 3.786-.226 7.349-.628 10.639h-2.892v4h2.294c-2.05 11.523-6.341 18.778-10.306 18.778s-8.256-7.255-10.306-18.778h2.294v-4H34.45c-.402-3.29-.628-6.852-.628-10.639 0-2.092.072-4.112.201-6.06h-3.997c-.133 2.016-.204 4.045-.204 6.06a91.27 91.27 0 0 0 .624 10.639H13.684c-1.127-3.344-1.746-6.919-1.746-10.639s.62-7.294 1.746-10.639h12.677v-4H15.322c4.293-8.772 12.316-15.394 21.99-17.794zm-21.99 47.071h15.696c1.21 7.191 3.326 13.616 6.294 17.794-9.674-2.4-17.697-9.023-21.99-17.794zm38.075 17.794c2.969-4.177 5.084-10.602 6.294-17.794h15.695c-4.292 8.771-12.315 15.394-21.989 17.794z" fill="#f8c409"/><path d="M29.361 26.271v10.023h10.982v28.144h10.023V36.294h10.981V26.271z" fill="#fff"/></svg>