<?xml version="1.0" encoding="iso-8859-1"?>
<!-- Generator: Adobe Illustrator 22.1.0, SVG Export Plug-In . SVG Version: 6.00 Build 0)  -->
<svg version="1.1" xmlns="http://www.w3.org/2000/svg" xmlns:xlink="http://www.w3.org/1999/xlink" x="0px" y="0px"
	 viewBox="0 0 90.709 90.709" style="enable-background:new 0 0 90.709 90.709;" xml:space="preserve">
<g id="ratownik-1">
	<g>
		<g>
			<circle style="fill:#194093;" cx="45.354" cy="45.355" r="43.52"/>
			<g>
				<path style="fill:#252E78;" d="M45.354,2.835c23.483,0,42.52,19.037,42.52,42.52s-19.037,42.52-42.52,42.52
					s-42.52-19.037-42.52-42.52S21.871,2.835,45.354,2.835 M45.354,0.835c-24.548,0-44.52,19.971-44.52,44.52
					s19.971,44.52,44.52,44.52s44.52-19.971,44.52-44.52S69.903,0.835,45.354,0.835L45.354,0.835z"/>
			</g>
		</g>
	</g>
</g>
<g id="Warstwa_4">
	<path style="fill:#F8C409;" d="M45.354,7.937c-20.632,0-37.417,16.785-37.417,37.417s16.785,37.417,37.417,37.417
		c20.631,0,37.417-16.785,37.417-37.417S65.986,7.937,45.354,7.937z M37.312,12.922c-1.893,2.663-3.436,6.243-4.623,10.349h4.164
		c2.265-7.112,5.478-11.334,8.501-11.334s6.236,4.222,8.501,11.334h4.164c-1.186-4.106-2.73-7.686-4.623-10.349
		c9.674,2.4,17.697,9.022,21.99,17.794H64.347v4h12.677c1.127,3.344,1.746,6.919,1.746,10.639s-0.62,7.294-1.746,10.639H60.262
		c0.412-3.488,0.624-7.084,0.624-10.639c0-2.016-0.071-4.044-0.204-6.06h-3.997c0.129,1.948,0.201,3.968,0.201,6.06
		c0,3.786-0.226,7.349-0.628,10.639h-2.892v4h2.294c-2.05,11.523-6.341,18.778-10.306,18.778s-8.256-7.255-10.306-18.778h2.294v-4
		h-2.892c-0.402-3.29-0.628-6.852-0.628-10.639c0-2.092,0.072-4.112,0.201-6.06h-3.997c-0.133,2.016-0.204,4.045-0.204,6.06
		c0,3.554,0.212,7.151,0.624,10.639H13.684c-1.127-3.344-1.746-6.919-1.746-10.639s0.62-7.294,1.746-10.639h12.677v-4H15.322
		C19.615,21.944,27.638,15.322,37.312,12.922z M15.322,59.993h15.696c1.21,7.191,3.326,13.616,6.294,17.794
		C27.638,75.387,19.615,68.764,15.322,59.993z M53.397,77.787c2.969-4.177,5.084-10.602,6.294-17.794h15.695
		C71.094,68.764,63.071,75.387,53.397,77.787z"/>
	<polygon style="fill:#FFFFFF;" points="29.361,26.271 29.361,36.294 40.343,36.294 40.343,64.438 50.366,64.438 50.366,36.294 
		61.347,36.294 61.347,26.271 	"/>
</g>
</svg>
