<?xml version="1.0" encoding="iso-8859-1"?>
<!-- Generator: Adobe Illustrator 22.1.0, SVG Export Plug-In . SVG Version: 6.00 Build 0)  -->
<svg version="1.1" xmlns="http://www.w3.org/2000/svg" xmlns:xlink="http://www.w3.org/1999/xlink" x="0px" y="0px"
	 viewBox="0 0 90.709 90.709" style="enable-background:new 0 0 90.709 90.709;" xml:space="preserve">
<g id="ratownik-1">
	<g>
		<g>
			<circle style="fill:#194093;" cx="45.354" cy="45.355" r="43.52"/>
			<g>
				<path style="fill:#252E78;" d="M45.354,2.835c23.483,0,42.52,19.037,42.52,42.52s-19.037,42.52-42.52,42.52
					s-42.52-19.037-42.52-42.52S21.871,2.835,45.354,2.835 M45.354,0.835c-24.548,0-44.52,19.971-44.52,44.52
					s19.971,44.52,44.52,44.52s44.52-19.971,44.52-44.52S69.903,0.835,45.354,0.835L45.354,0.835z"/>
			</g>
		</g>
	</g>
</g>
<g id="Warstwa_4">
	<path style="fill:#FFFFFF;" d="M37.058,22.671v16.592h16.592V22.671H37.058z M49.606,35.219h-8.504v-8.504h8.504V35.219z"/>
	<polygon style="fill:#FFFFFF;" points="53.651,19.458 37.058,19.458 45.354,11.961 	"/>
	<g>
		<path style="fill:#F8C409;" d="M12.683,25.424c-2.208,3.612-3.83,7.62-4.743,11.891l33.163-5.627v-1.443L12.683,25.424z"/>
		<path style="fill:#F8C409;" d="M7.091,45.175c0,0.06-0.005,0.119-0.005,0.179c0,5.26,1.063,10.272,2.983,14.834l31.033-25.699
			v-1.942L7.091,45.175z"/>
		<path style="fill:#F8C409;" d="M24.213,13.459c-2.873,1.908-5.469,4.197-7.726,6.789l24.616,9.14v-1.942L24.213,13.459z"/>
		<path style="fill:#F8C409;" d="M82.769,37.315c-0.913-4.271-2.535-8.279-4.743-11.891l-28.42,4.822v1.443L82.769,37.315z"/>
		<path style="fill:#F8C409;" d="M83.618,45.175L49.606,32.546v1.942l31.033,25.699c1.92-4.562,2.983-9.574,2.983-14.834
			C83.622,45.294,83.618,45.235,83.618,45.175z"/>
		<path style="fill:#F8C409;" d="M74.222,20.249c-2.257-2.593-4.853-4.881-7.726-6.789l-16.89,13.987v1.942L74.222,20.249z"/>
		<polygon style="fill:#FFFFFF;" points="53.651,42.477 37.058,42.477 36.306,50.515 54.403,50.515 		"/>
		<polygon style="fill:#FFFFFF;" points="34.764,66.988 55.944,66.988 55.185,58.876 35.524,58.876 		"/>
		<path style="fill:#FFFFFF;" d="M33.388,81.703c3.358,1.105,6.921,1.757,10.618,1.885h2.698c3.697-0.128,7.259-0.78,10.618-1.885
			l-0.595-6.354H33.982L33.388,81.703z"/>
	</g>
</g>
</svg>
