<svg xmlns="http://www.w3.org/2000/svg" viewBox="0 0 90.709 90.709"><circle cx="45.354" cy="45.355" r="43.52" fill="#194093"/><path d="M45.354 2.835c23.483 0 42.52 19.037 42.52 42.52s-19.037 42.52-42.52 42.52-42.52-19.037-42.52-42.52 19.037-42.52 42.52-42.52m0-2C20.806.835.834 20.806.834 45.355s19.971 44.52 44.52 44.52 44.52-19.971 44.52-44.52S69.903.835 45.354.835h0z" fill="#252e78"/><path d="M37.058 22.671v16.592H53.65V22.671H37.058zm12.548 12.548h-8.504v-8.504h8.504v8.504zm4.045-15.761H37.058l8.296-7.497z" fill="#fff"/><g fill="#f8c409"><path d="M12.683 25.424c-2.208 3.612-3.83 7.62-4.743 11.891l33.163-5.627v-1.443l-28.42-4.821zM7.091 45.175l-.005.179a38.15 38.15 0 0 0 2.983 14.834l31.033-25.699v-1.942L7.091 45.175z"/><path d="M24.213 13.459a38.48 38.48 0 0 0-7.726 6.789l24.616 9.14v-1.942l-16.89-13.987zm58.556 23.856c-.913-4.271-2.535-8.279-4.743-11.891l-28.42 4.822v1.443l33.163 5.626zm.849 7.86L49.606 32.546v1.942l31.033 25.699a38.15 38.15 0 0 0 2.983-14.834l-.004-.178z"/><path d="M74.222 20.249a38.45 38.45 0 0 0-7.726-6.789l-16.89 13.987v1.942l24.616-9.14z"/></g><path d="M53.651 42.477H37.058l-.752 8.038h18.097zM34.764 66.988h21.18l-.759-8.112H35.524zm-1.376 14.715c3.358 1.105 6.921 1.757 10.618 1.885h2.698c3.697-.128 7.259-.78 10.618-1.885l-.595-6.354H33.982l-.594 6.354z" fill="#fff"/></svg>