<svg xmlns="http://www.w3.org/2000/svg" viewBox="0 0 105.47 94.04"><defs><style>.cls-1{fill:#f0ae00;}.cls-2{fill:#f19e19;}.cls-3{fill:#26b4e6;}.cls-4{fill:#fff;}</style></defs><title>sprawnosci-zuchowe</title><g id="Warstwa_1" data-name="Warstwa 1"><path class="cls-1" d="M52.74,92.49a8.54,8.54,0,0,1-7.47-4.31L2.72,14.48A8.62,8.62,0,0,1,10.18,1.54H95.29a8.63,8.63,0,0,1,7.47,12.94L60.2,88.18a8.53,8.53,0,0,1-7.46,4.31"/><path class="cls-2" d="M95.29,3.09a7.08,7.08,0,0,1,6.13,10.62L58.87,87.41a7.08,7.08,0,0,1-12.26,0L4.05,13.71A7.08,7.08,0,0,1,10.18,3.09H95.29m0-3.09H10.18a10.17,10.17,0,0,0-8.8,15.25L43.93,89a10.16,10.16,0,0,0,17.61,0l42.55-73.7a10.06,10.06,0,0,0,0-10.17A10,10,0,0,0,95.29,0"/></g><g id="Warstwa_2" data-name="Warstwa 2"><path class="cls-3" d="M52.74,20.14A75.59,75.59,0,0,0,69,18.41l.19-.05A15.79,15.79,0,0,0,38,18.71l.2,0A75.86,75.86,0,0,0,52.74,20.14Z"/><path class="cls-3" d="M87.62,30.24a52.17,52.17,0,0,0-8.76-4.13l-2.74.8a82.92,82.92,0,0,1-23.38,3.23,83.06,83.06,0,0,1-23.4-3.23L26.6,26.1a54.08,54.08,0,0,0-8.75,4.14C26.63,35.51,39,38.8,52.74,38.8S78.85,35.51,87.62,30.24Z"/><path class="cls-4" d="M75.56,25c-2-.6-4-1.15-6.15-1.6,0-.69,0-2.78,0-3a77.85,77.85,0,0,1-16.64,1.78,78.69,78.69,0,0,1-15-1.43c0,.13,0,1.74,0,2.35A70.9,70.9,0,0,0,29.9,25a81.28,81.28,0,0,0,22.84,3.15A81.19,81.19,0,0,0,75.56,25Z"/><path class="cls-4" d="M64.23,60.57a3.25,3.25,0,0,0-2.63,2.36,3.24,3.24,0,0,0-5.9.46,3.24,3.24,0,0,0-5.92,0,3.25,3.25,0,0,0-5.91-.46,3.25,3.25,0,1,0-.28,2.39,3.23,3.23,0,0,0,6.09.48,3.23,3.23,0,0,0,6.11,0,3.23,3.23,0,0,0,6.09-.48,3.25,3.25,0,1,0,2.35-4.75Z"/></g></svg>