<svg xmlns="http://www.w3.org/2000/svg" viewBox="0 0 105.47 94.04"><path d="M52.74 93a8.54 8.54 0 0 1-7.47-4.31L2.72 15a8.62 8.62 0 0 1 7.46-13h85.11a8.63 8.63 0 0 1 7.47 13L60.2 88.67A8.53 8.53 0 0 1 52.74 93" fill="#f0ae00"/><path d="M95.29,3.58a7.08,7.08,0,0,1,6.13,10.62L58.87,87.9a7.08,7.08,0,0,1-12.26,0L4.05,14.2A7.08,7.08,0,0,1,10.18,3.58H95.29m0-3.09H10.18a10.17,10.17,0,0,0-8.8,15.25l42.55,73.7a10.16,10.16,0,0,0,17.61,0l42.55-73.7a10.06,10.06,0,0,0,0-10.17A10.06,10.06,0,0,0,95.29.49" fill="#f19e19"/><path d="M68.5 49.46a95.18 95.18 0 0 1-15.76 1.42A82.41 82.41 0 0 1 37 49.46c-3.77.81-6.1 1.93-6.1 3.15 0 2.51 9.79 4.55 21.87 4.55s21.86-2 21.86-4.55c-.03-1.22-2.35-2.34-6.13-3.15zm-15.76-9.41a144.92 144.92 0 0 0 15.78-1.31l3.38-20.8a21.48 21.48 0 0 1-4.85 1.46 75.75 75.75 0 0 1-14.31 1.21 75.79 75.79 0 0 1-14.32-1.21 21.63 21.63 0 0 1-4.85-1.46L37 38.73a140.34 140.34 0 0 0 15.74 1.32zM33.33 13.7c0 2.16 8.69 3.91 19.41 3.91s19.4-1.75 19.4-3.91-8.69-3.9-19.4-3.9-19.41 1.74-19.41 3.9z" fill="#194093"/><path d="M38.26,46.75a97,97,0,0,0,14.48,1.13,97.21,97.21,0,0,0,14.48-1.13L68,41.69a79,79,0,0,1-15.3,1.36,79,79,0,0,1-15.31-1.36Z" fill="#fff"/></svg>