<svg id="Warstwa_1" data-name="Warstwa 1" xmlns="http://www.w3.org/2000/svg" viewBox="0 0 105.47 94.04"><defs><style>.cls-1{fill:#f0ae00;}.cls-2{fill:#f19e19;}.cls-3{fill:#194093;}.cls-4{fill:#fff;}</style></defs><title>sprawnosci-zuchowe</title><path class="cls-1" d="M52.74,93a8.54,8.54,0,0,1-7.47-4.31L2.72,15A8.62,8.62,0,0,1,10.18,2H95.29A8.63,8.63,0,0,1,102.76,15L60.2,88.67A8.53,8.53,0,0,1,52.74,93"/><path class="cls-2" d="M95.29,3.58a7.08,7.08,0,0,1,6.13,10.62L58.87,87.9a7.08,7.08,0,0,1-12.26,0L4.05,14.2A7.08,7.08,0,0,1,10.18,3.58H95.29m0-3.09H10.18a10.17,10.17,0,0,0-8.8,15.25l42.55,73.7a10.16,10.16,0,0,0,17.61,0l42.55-73.7a10.06,10.06,0,0,0,0-10.17A10.06,10.06,0,0,0,95.29.49"/><path class="cls-3" d="M68.5,49.46a95.18,95.18,0,0,1-15.76,1.42A82.41,82.41,0,0,1,37,49.46c-3.77.81-6.1,1.93-6.1,3.15,0,2.51,9.79,4.55,21.87,4.55s21.86-2,21.86-4.55C74.6,51.39,72.28,50.27,68.5,49.46Z"/><path class="cls-3" d="M52.74,40.05a144.92,144.92,0,0,0,15.78-1.31l3.38-20.8a21.48,21.48,0,0,1-4.85,1.46,75.75,75.75,0,0,1-14.31,1.21A75.79,75.79,0,0,1,38.42,19.4a21.63,21.63,0,0,1-4.85-1.46L37,38.73A140.34,140.34,0,0,0,52.74,40.05Z"/><path class="cls-3" d="M33.33,13.7c0,2.16,8.69,3.91,19.41,3.91s19.4-1.75,19.4-3.91-8.69-3.9-19.4-3.9S33.33,11.54,33.33,13.7Z"/><path class="cls-4" d="M38.26,46.75a97,97,0,0,0,14.48,1.13,97.21,97.21,0,0,0,14.48-1.13L68,41.69a79,79,0,0,1-15.3,1.36,79,79,0,0,1-15.31-1.36Z"/></svg>