<svg xmlns="http://www.w3.org/2000/svg" viewBox="0 0 105.473 94.038"><path d="M52.736 92.494c-3.117 0-5.909-1.612-7.468-4.311L2.715 14.478a8.53 8.53 0 0 1-.001-8.622c1.559-2.699 4.351-4.311 7.468-4.311h85.107c3.117 0 5.909 1.612 7.468 4.311a8.53 8.53 0 0 1-.001 8.622L60.204 88.183c-1.559 2.699-4.35 4.311-7.468 4.311" fill="#f0ae00"/><path d="M95.29 3.088c5.449 0 8.855 5.899 6.131 10.618L58.867 87.411c-1.362 2.359-3.746 3.539-6.131 3.539s-4.768-1.18-6.131-3.539L4.052 13.706c-2.724-4.719.682-10.618 6.131-10.618H95.29m0-3.088H10.183a10.06 10.06 0 0 0-8.805 5.083 10.06 10.06 0 0 0 0 10.167l42.553 73.705a10.06 10.06 0 0 0 8.805 5.083 10.06 10.06 0 0 0 8.805-5.083l42.553-73.705a10.06 10.06 0 0 0 0-10.167A10.06 10.06 0 0 0 95.29 0" fill="#f19e19"/><path d="M75.978 36.32c-2.077-.675-4.271.086-5.522 1.731l-2.863-.93a15.24 15.24 0 0 0 0-6.19l3.476-1.129c.939.891 2.314 1.267 3.632.839a3.65 3.65 0 0 0 2.343-4.599 3.65 3.65 0 0 0-4.598-2.343c-1.382.449-2.301 1.647-2.479 2.997L66.566 27.8c-.862-1.911-2.108-3.605-3.64-4.997l1.78-2.45a5 5 0 0 0 5.485-1.845c1.623-2.234 1.128-5.361-1.106-6.985s-5.361-1.127-6.985 1.107a5 5 0 0 0-.06 5.787l-1.776 2.444a15.07 15.07 0 0 0-5.881-1.918v-3.674c1.183-.603 2.002-1.82 2.002-3.24a3.65 3.65 0 0 0-3.649-3.649 3.65 3.65 0 0 0-3.649 3.649c0 1.42.819 2.636 2.002 3.24v3.674c-2.125.229-4.112.904-5.881 1.918l-1.776-2.444c1.178-1.698 1.224-4.02-.06-5.787a5 5 0 1 0-8.091 5.879c1.283 1.767 3.506 2.441 5.485 1.845l1.78 2.45c-1.532 1.392-2.778 3.086-3.64 4.997l-3.401-1.105c-.179-1.35-1.098-2.548-2.479-2.997a3.65 3.65 0 1 0-2.256 6.942c1.318.428 2.692.053 3.632-.839l3.476 1.129a15.24 15.24 0 0 0 0 6.19l-2.863.93c-1.251-1.645-3.445-2.406-5.522-1.731a5 5 0 1 0 3.091 9.511c2.077-.675 3.405-2.58 3.45-4.647l2.872-.933c.862 1.911 2.108 3.605 3.64 4.997l-2.06 2.836c-1.329-.232-2.734.272-3.581 1.437a3.65 3.65 0 0 0 .807 5.097 3.65 3.65 0 0 0 5.097-.807c.822-1.132.884-2.571.309-3.746l2.088-2.874a15.07 15.07 0 0 0 5.881 1.918v3.014c-1.951.682-3.353 2.533-3.353 4.717a5 5 0 1 0 10 0c0-2.184-1.402-4.035-3.353-4.717v-3.014c2.125-.23 4.112-.904 5.881-1.918l2.088 2.874c-.575 1.175-.513 2.614.309 3.746a3.65 3.65 0 0 0 5.905-4.29c-.846-1.165-2.252-1.668-3.581-1.437l-2.06-2.836c1.532-1.392 2.778-3.086 3.64-4.997l2.872.933c.045 2.066 1.373 3.972 3.45 4.647 2.626.853 5.447-.584 6.301-3.21a5 5 0 0 0-3.208-6.301z" fill="#194093"/><g fill="#26b4e6"><circle cx="59.185" cy="36.139" r="3.947"/><circle cx="46.865" cy="30.478" r="4.729"/><circle cx="50.136" cy="42.215" r="3.412"/></g></svg>