<?xml version="1.0" encoding="iso-8859-1"?>
<!-- Generator: Adobe Illustrator 22.1.0, SVG Export Plug-In . SVG Version: 6.00 Build 0)  -->
<svg version="1.1" xmlns="http://www.w3.org/2000/svg" xmlns:xlink="http://www.w3.org/1999/xlink" x="0px" y="0px"
	 viewBox="0 0 105.473 94.038" style="enable-background:new 0 0 105.473 94.038;" xml:space="preserve">
<g id="Warstwa_1">
	<g>
		<path style="fill:#F0AE00;" d="M52.736,92.494c-3.117,0-5.909-1.612-7.468-4.311L2.715,14.478
			c-1.559-2.699-1.559-5.923-0.001-8.622c1.559-2.699,4.351-4.311,7.468-4.311h85.107c3.117,0,5.909,1.612,7.468,4.311
			c1.558,2.699,1.558,5.923-0.001,8.622L60.204,88.183C58.645,90.882,55.854,92.494,52.736,92.494"/>
		<path style="fill:#F19E19;" d="M95.29,3.088c5.449,0,8.855,5.899,6.131,10.618L58.867,87.411
			c-1.362,2.359-3.746,3.539-6.131,3.539s-4.768-1.18-6.131-3.539L4.052,13.706C1.328,8.987,4.734,3.088,10.183,3.088H95.29
			 M95.29,0H10.183C6.507,0,3.216,1.9,1.378,5.083c-1.838,3.184-1.838,6.984,0,10.167l42.553,73.705
			c1.837,3.183,5.129,5.083,8.805,5.083c3.675,0,6.967-1.9,8.805-5.083l42.553-73.705c1.838-3.183,1.838-6.983,0-10.167
			C102.256,1.9,98.965,0,95.29,0"/>
	</g>
	<g>
		<path style="fill:#194093;" d="M75.978,36.32c-2.077-0.675-4.271,0.086-5.522,1.731l-2.863-0.93
			c0.207-0.999,0.318-2.034,0.318-3.095c0-1.061-0.111-2.096-0.318-3.095l3.476-1.129c0.939,0.891,2.314,1.267,3.632,0.839
			c1.917-0.623,2.966-2.682,2.343-4.599c-0.623-1.917-2.682-2.966-4.598-2.343c-1.382,0.449-2.301,1.647-2.479,2.997L66.566,27.8
			c-0.862-1.911-2.108-3.605-3.64-4.997l1.78-2.45c1.979,0.595,4.202-0.079,5.485-1.845c1.623-2.234,1.128-5.361-1.106-6.985
			C66.851,9.9,63.724,10.396,62.1,12.63c-1.283,1.767-1.238,4.089-0.06,5.787l-1.776,2.444c-1.769-1.014-3.757-1.688-5.881-1.918
			v-3.674c1.183-0.603,2.002-1.82,2.002-3.24c0-2.015-1.634-3.649-3.649-3.649s-3.649,1.634-3.649,3.649
			c0,1.42,0.819,2.636,2.002,3.24v3.674c-2.125,0.229-4.112,0.904-5.881,1.918l-1.776-2.444c1.178-1.698,1.224-4.02-0.06-5.787
			c-1.623-2.234-4.75-2.73-6.985-1.106c-2.234,1.623-2.73,4.75-1.106,6.985c1.283,1.767,3.506,2.441,5.485,1.845l1.78,2.45
			c-1.532,1.392-2.778,3.086-3.64,4.997l-3.401-1.105c-0.179-1.35-1.098-2.548-2.479-2.997c-1.917-0.623-3.976,0.426-4.599,2.343
			c-0.623,1.917,0.426,3.976,2.343,4.599c1.318,0.428,2.692,0.053,3.632-0.839l3.476,1.129c-0.207,0.999-0.318,2.034-0.318,3.095
			c0,1.061,0.111,2.096,0.318,3.095l-2.863,0.93c-1.251-1.645-3.445-2.406-5.522-1.731c-2.626,0.853-4.064,3.674-3.21,6.301
			c0.853,2.626,3.674,4.064,6.301,3.21c2.077-0.675,3.405-2.58,3.45-4.647l2.872-0.933c0.862,1.911,2.108,3.605,3.64,4.997
			l-2.06,2.836c-1.329-0.232-2.734,0.272-3.581,1.437c-1.185,1.631-0.823,3.913,0.807,5.097c1.631,1.185,3.913,0.823,5.097-0.807
			c0.822-1.132,0.884-2.571,0.309-3.746l2.088-2.874c1.769,1.014,3.757,1.688,5.881,1.918v3.014
			c-1.951,0.682-3.353,2.533-3.353,4.717c0,2.762,2.239,5,5,5s5-2.239,5-5c0-2.184-1.402-4.035-3.353-4.717v-3.014
			c2.125-0.23,4.112-0.904,5.881-1.918l2.088,2.874c-0.575,1.175-0.513,2.614,0.309,3.746c1.185,1.631,3.467,1.992,5.098,0.807
			c1.631-1.185,1.992-3.467,0.807-5.097c-0.846-1.165-2.252-1.668-3.581-1.437l-2.06-2.836c1.532-1.392,2.778-3.086,3.64-4.997
			l2.872,0.933c0.045,2.066,1.373,3.972,3.45,4.647c2.626,0.853,5.447-0.584,6.301-3.21C80.042,39.994,78.605,37.173,75.978,36.32z"
			/>
		<g>
			<circle style="fill:#26B4E6;" cx="59.185" cy="36.139" r="3.947"/>
			<circle style="fill:#26B4E6;" cx="46.865" cy="30.478" r="4.729"/>
			<circle style="fill:#26B4E6;" cx="50.136" cy="42.215" r="3.412"/>
		</g>
	</g>
</g>
<g id="Warstwa_2">
</g>
<g id="Warstwa_3" style="display:none;">
</g>
</svg>
