<svg id="Warstwa_1" data-name="Warstwa 1" xmlns="http://www.w3.org/2000/svg" viewBox="0 0 105.47 94.04"><defs><style>.cls-1{fill:#f0ae00;}.cls-2{fill:#f19e19;}.cls-3{fill:#fff;}.cls-4{fill:#26b4e6;}</style></defs><title>sprawnosci-zuchowe</title><path class="cls-1" d="M52.74,92.49a8.54,8.54,0,0,1-7.47-4.31L2.72,14.48A8.62,8.62,0,0,1,10.18,1.54H95.29a8.63,8.63,0,0,1,7.47,12.94L60.2,88.18a8.53,8.53,0,0,1-7.46,4.31"/><path class="cls-2" d="M95.29,3.09a7.08,7.08,0,0,1,6.13,10.62L58.87,87.41a7.08,7.08,0,0,1-12.26,0L4.05,13.71A7.08,7.08,0,0,1,10.18,3.09H95.29m0-3.09H10.18a10.17,10.17,0,0,0-8.8,15.25L43.93,89a10.16,10.16,0,0,0,17.61,0l42.55-73.7a10.06,10.06,0,0,0,0-10.17A10,10,0,0,0,95.29,0"/><path class="cls-3" d="M28,42.69a3.89,3.89,0,0,0,0,5.5l9.11,9.12a3.9,3.9,0,0,0,5.51,0l8-8.05L36,34.64Z"/><path class="cls-3" d="M77.52,22.35a3.89,3.89,0,0,0,0-5.5L68.41,7.74a3.89,3.89,0,0,0-5.5,0l-8,8L69.47,30.4Z"/><path class="cls-3" d="M77.52,42.69,42.57,7.74a3.9,3.9,0,0,0-5.51,0L28,16.85a3.89,3.89,0,0,0,0,5.5l35,35a3.89,3.89,0,0,0,5.5,0l9.11-9.12A3.89,3.89,0,0,0,77.52,42.69Zm-33.36-9a1.69,1.69,0,0,1,0-2.39L51.54,24a1.69,1.69,0,0,1,2.39,0l7.38,7.38a1.69,1.69,0,0,1,0,2.39L53.93,41.1a1.69,1.69,0,0,1-2.39,0Z"/><rect class="cls-4" x="45.83" y="25.61" width="13.82" height="13.82" rx="1.69" ry="1.69" transform="translate(-7.55 46.82) rotate(-45)"/></svg>