<svg id="Warstwa_1" data-name="Warstwa 1" xmlns="http://www.w3.org/2000/svg" viewBox="0 0 105.47 94.04"><defs><style>.cls-1{fill:#f0ae00;}.cls-2{fill:#f19e19;}.cls-3{fill:#fff;}</style></defs><title>sprawnosci-zuchowe</title><path class="cls-1" d="M52.74,92.49a8.54,8.54,0,0,1-7.47-4.31L2.72,14.48A8.62,8.62,0,0,1,10.18,1.54H95.29a8.63,8.63,0,0,1,7.47,12.94L60.2,88.18a8.53,8.53,0,0,1-7.46,4.31"/><path class="cls-2" d="M95.29,3.09a7.08,7.08,0,0,1,6.13,10.62L58.87,87.41a7.08,7.08,0,0,1-12.26,0L4.05,13.71A7.08,7.08,0,0,1,10.18,3.09H95.29m0-3.09H10.18a10.17,10.17,0,0,0-8.8,15.25L43.93,89a10.16,10.16,0,0,0,17.61,0l42.55-73.7a10.06,10.06,0,0,0,0-10.17A10,10,0,0,0,95.29,0"/><path class="cls-3" d="M71.92,21.43A17.53,17.53,0,0,0,38.38,18,12.59,12.59,0,1,0,34.5,42.78h6.37a8.09,8.09,0,0,1-2.66-4.86,1.5,1.5,0,0,1,1.33-1.65,1.48,1.48,0,0,1,1.65,1.33c.28,2.56,3.78,5.16,6.93,5.16l.21,0H59l.21,0c3.15,0,6.64-2.6,6.92-5.16a1.5,1.5,0,0,1,3,.32,8.09,8.09,0,0,1-2.66,4.86h6.31a10.71,10.71,0,0,0-.82-21.36Z"/><rect class="cls-3" x="35.74" y="45.78" width="34" height="8.33"/></svg>