<svg id="Warstwa_1" data-name="Warstwa 1" xmlns="http://www.w3.org/2000/svg" viewBox="0 0 105.47 94.04"><defs><style>.cls-1{fill:#f0ae00;}.cls-2{fill:#f19e19;}.cls-3{fill:#c90c0f;}.cls-4{fill:#fff;}</style></defs><title>sprawnosci-zuchowe</title><path class="cls-1" d="M52.74,92.49a8.54,8.54,0,0,1-7.47-4.31L2.72,14.48A8.62,8.62,0,0,1,10.18,1.54H95.29a8.63,8.63,0,0,1,7.47,12.94L60.2,88.18a8.53,8.53,0,0,1-7.46,4.31"/><path class="cls-2" d="M95.29,3.09a7.08,7.08,0,0,1,6.13,10.62L58.87,87.41a7.08,7.08,0,0,1-12.26,0L4.05,13.71A7.08,7.08,0,0,1,10.18,3.09H95.29m0-3.09H10.18a10.17,10.17,0,0,0-8.8,15.25L43.93,89a10.16,10.16,0,0,0,17.61,0l42.55-73.7a10.06,10.06,0,0,0,0-10.17A10,10,0,0,0,95.29,0"/><path class="cls-3" d="M27.77,24.94v2.77a5.54,5.54,0,0,0,5.53,5.54H45.54v3.06A1.69,1.69,0,0,0,47.23,38h2.54V84.31a3.31,3.31,0,0,0,5.93,0V38h2.54a1.69,1.69,0,0,0,1.69-1.69V33.25H72.17a5.54,5.54,0,0,0,5.54-5.54V24.94Z"/><polygon class="cls-4" points="77.8 6.57 76.06 15.15 74.33 6.57 71.13 6.57 69.4 15.15 67.67 6.57 64.47 6.57 62.73 15.15 61 6.57 57.8 6.57 56.07 15.15 54.34 6.57 51.14 6.57 49.4 15.15 47.67 6.57 44.47 6.57 42.74 15.15 41.01 6.57 37.81 6.57 36.07 15.15 34.34 6.57 31.14 6.57 29.41 15.15 27.68 6.57 25.01 6.57 27.77 24.94 31.43 24.94 32.83 12.49 34.24 24.94 38.06 24.94 39.47 12.49 40.88 24.94 44.7 24.94 46.1 12.49 47.51 24.94 51.33 24.94 52.74 12.49 54.14 24.94 57.96 24.94 59.37 12.49 60.78 24.94 64.6 24.94 66 12.49 67.41 24.94 71.23 24.94 72.64 12.49 74.05 24.94 77.71 24.94 80.46 6.57 77.8 6.57"/></svg>