<svg xmlns="http://www.w3.org/2000/svg" viewBox="0 0 105.47 94.04"><path d="M52.74,92.49a8.54,8.54,0,0,1-7.47-4.31L2.72,14.48A8.62,8.62,0,0,1,10.18,1.54H95.29a8.63,8.63,0,0,1,7.47,12.94L60.2,88.18a8.53,8.53,0,0,1-7.46,4.31" fill="#f0ae00"/><path d="M95.29,3.09a7.08,7.08,0,0,1,6.13,10.62L58.87,87.41a7.08,7.08,0,0,1-12.26,0L4.05,13.71A7.08,7.08,0,0,1,10.18,3.09H95.29m0-3.09H10.18a10.17,10.17,0,0,0-8.8,15.25L43.93,89a10.16,10.16,0,0,0,17.61,0l42.55-73.7a10.06,10.06,0,0,0,0-10.17A10,10,0,0,0,95.29,0" fill="#f19e19"/><path d="M27.77,24.94v2.77a5.54,5.54,0,0,0,5.53,5.54H45.54v3.06A1.69,1.69,0,0,0,47.23,38h2.54V84.31a3.31,3.31,0,0,0,5.93,0V38h2.54a1.69,1.69,0,0,0,1.69-1.69V33.25H72.17a5.54,5.54,0,0,0,5.54-5.54V24.94Z" fill="#c90c0f"/><path d="M77.8 6.57l-1.74 8.58-1.73-8.58h-3.2l-1.73 8.58-1.73-8.58h-3.2l-1.74 8.58L61 6.57h-3.2l-1.73 8.58-1.73-8.58h-3.2l-1.74 8.58-1.73-8.58h-3.2l-1.73 8.58-1.73-8.58h-3.2l-1.74 8.58-1.73-8.58h-3.2l-1.73 8.58-1.73-8.58h-2.67l2.76 18.37h3.66l1.4-12.45 1.41 12.45h3.82l1.41-12.45 1.41 12.45h3.82l1.4-12.45 1.41 12.45h3.82l1.41-12.45 1.4 12.45h3.82l1.41-12.45 1.41 12.45h3.82L66 12.49l1.41 12.45h3.82l1.41-12.45 1.41 12.45h3.66l2.75-18.37H77.8z" fill="#fff"/></svg>