<svg id="Warstwa_1" data-name="Warstwa 1" xmlns="http://www.w3.org/2000/svg" viewBox="0 0 105.47 94.04"><defs><style>.cls-1{fill:#f0ae00;}.cls-2{fill:#f19e19;}.cls-3{fill:#fff;}.cls-4{fill:#194093;}</style></defs><title>sprawnosci-zuchowe</title><path class="cls-1" d="M52.74,92.49a8.54,8.54,0,0,1-7.47-4.31L2.72,14.48A8.62,8.62,0,0,1,10.18,1.54H95.29a8.63,8.63,0,0,1,7.47,12.94L60.2,88.18a8.53,8.53,0,0,1-7.46,4.31"/><path class="cls-2" d="M95.29,3.09a7.08,7.08,0,0,1,6.13,10.62L58.87,87.41a7.08,7.08,0,0,1-12.26,0L4.05,13.71A7.08,7.08,0,0,1,10.18,3.09H95.29m0-3.09H10.18a10.17,10.17,0,0,0-8.8,15.25L43.93,89a10.16,10.16,0,0,0,17.61,0l42.55-73.7a10.06,10.06,0,0,0,0-10.17A10,10,0,0,0,95.29,0"/><polygon class="cls-3" points="26.35 43.79 26.32 43.85 33.45 56.31 36.38 43.79 26.35 43.79"/><polygon class="cls-3" points="54.74 43.79 54.74 69.24 64.41 69.24 69.07 61.26 64.98 43.79 54.74 43.79"/><polygon class="cls-3" points="40.49 43.79 36.37 61.41 40.85 69.24 50.74 69.24 50.74 43.79 40.49 43.79"/><polygon class="cls-3" points="79.12 43.79 69.09 43.79 72 56.23 79.19 43.93 79.12 43.79"/><path class="cls-4" d="M57.71,30.12l4.72,4.05a3,3,0,1,0,3.9-4.55l-4.42-3.8-4-5.76a3,3,0,0,0-2.22-1.28l-6.45-.53a2.94,2.94,0,0,0-2.11.64L41.33,23.5a3.06,3.06,0,0,0-1,1.47l-2.11,6.84A3,3,0,1,0,44,33.58l1.83-5.95,2.76-2.19S47.44,33,47.36,33.36l-2.27,9.33L38.92,51a3,3,0,1,0,4.81,3.58s7-9.48,7.05-9.87L52.15,39l3.64,4.47,3.87,11.26a3,3,0,1,0,5.67-1.94l-4-11.77c-.12-.34-5.9-7.55-5.9-7.55L56,27.88S57.51,30,57.71,30.12Z"/><path class="cls-4" d="M53.21,16.6a4.35,4.35,0,1,0-4.35-4.35A4.35,4.35,0,0,0,53.21,16.6Z"/></svg>