<svg xmlns="http://www.w3.org/2000/svg" viewBox="0 0 105.47 94.04"><path d="M52.74,92.49a8.54,8.54,0,0,1-7.47-4.31L2.72,14.48A8.62,8.62,0,0,1,10.18,1.54H95.29a8.63,8.63,0,0,1,7.47,12.94L60.2,88.18a8.53,8.53,0,0,1-7.46,4.31" fill="#f0ae00"/><path d="M95.29,3.09a7.08,7.08,0,0,1,6.13,10.62L58.87,87.41a7.08,7.08,0,0,1-12.26,0L4.05,13.71A7.08,7.08,0,0,1,10.18,3.09H95.29m0-3.09H10.18a10.17,10.17,0,0,0-8.8,15.25L43.93,89a10.16,10.16,0,0,0,17.61,0l42.55-73.7a10.06,10.06,0,0,0,0-10.17A10,10,0,0,0,95.29,0" fill="#f19e19"/><path d="M26.35 43.79l-.03.06 7.13 12.46 2.93-12.52H26.35zm28.39 0v25.45h9.67l4.66-7.98-4.09-17.47H54.74zm-14.25 0l-4.12 17.62 4.48 7.83h9.89V43.79H40.49zm38.63 0H69.09L72 56.23l7.19-12.3-.07-.14z" fill="#fff"/><path d="M57.71 30.12l4.72 4.05a3 3 0 1 0 3.9-4.55l-4.42-3.8-4-5.76a3 3 0 0 0-2.22-1.28l-6.45-.53a2.94 2.94 0 0 0-2.11.64l-5.8 4.61a3.06 3.06 0 0 0-1 1.47l-2.11 6.84A3.022 3.022 0 1 0 44 33.58l1.83-5.95 2.76-2.19-1.23 7.92-2.27 9.33L38.92 51a3 3 0 1 0 4.81 3.58s7-9.48 7.05-9.87L52.15 39l3.64 4.47 3.87 11.26a3 3 0 1 0 5.67-1.94l-4-11.77c-.12-.34-5.9-7.55-5.9-7.55l.57-5.59s1.51 2.12 1.71 2.24zm-4.5-13.52a4.35 4.35 0 1 0-4.35-4.35 4.35 4.35 0 0 0 4.35 4.35z" fill="#194093"/></svg>