<svg id="Warstwa_1" data-name="Warstwa 1" xmlns="http://www.w3.org/2000/svg" viewBox="0 0 105.47 94.04"><defs><style>.cls-1{fill:#f0ae00;}.cls-2{fill:#f19e19;}.cls-3{fill:#26b4e6;}.cls-4{fill:#fff;}</style></defs><title>sprawnosci-zuchowe</title><path class="cls-1" d="M52.74,92.49a8.54,8.54,0,0,1-7.47-4.31L2.72,14.48A8.62,8.62,0,0,1,10.18,1.54H95.29a8.63,8.63,0,0,1,7.47,12.94L60.2,88.18a8.53,8.53,0,0,1-7.46,4.31"/><path class="cls-2" d="M95.29,3.09a7.08,7.08,0,0,1,6.13,10.62L58.87,87.41a7.08,7.08,0,0,1-12.26,0L4.05,13.71A7.08,7.08,0,0,1,10.18,3.09H95.29m0-3.09H10.18a10.17,10.17,0,0,0-8.8,15.25L43.93,89a10.16,10.16,0,0,0,17.61,0l42.55-73.7a10.06,10.06,0,0,0,0-10.17A10,10,0,0,0,95.29,0"/><path class="cls-3" d="M80.12,31.84c0,30-27.12,39.21-27.12,39.21S25.88,61.81,25.88,31.84V14.1S44.56,15,53,6.72C61.33,15,80.12,14.1,80.12,14.1Z"/><path class="cls-4" d="M49.1,50.87V32.27h4.2a3.2,3.2,0,0,1,2.34.74,3.2,3.2,0,0,1,.74,2.34V46.92a.81.81,0,0,0,.92.92h1.6v6.1H52.17a2.64,2.64,0,0,1-3.07-3.07Zm0-21.08v-7h7.22v7Z"/><path class="cls-4" d="M53,15.9c6.12,3.53,13.6,4.92,19.74,5.41V31.84C72.72,51.34,59,60.14,53,63c-6-2.88-19.72-11.68-19.72-31.18V21.3c6.12-.48,13.57-1.87,19.7-5.4m0-3.77c-7.06,4.79-17,5.93-22.91,6.15V31.84C30.08,55,47.83,64.31,53,66.54,58.16,64.31,75.92,55,75.92,31.84V18.29C70,18.07,60,16.93,53,12.13Z"/></svg>