<svg xmlns="http://www.w3.org/2000/svg" viewBox="0 0 105.47 94.04"><path d="M52.74,92.49a8.54,8.54,0,0,1-7.47-4.31L2.72,14.48A8.62,8.62,0,0,1,10.18,1.54H95.29a8.63,8.63,0,0,1,7.47,12.94L60.2,88.18a8.53,8.53,0,0,1-7.46,4.31" fill="#f0ae00"/><path d="M95.29,3.09a7.08,7.08,0,0,1,6.13,10.62L58.87,87.41a7.08,7.08,0,0,1-12.26,0L4.05,13.71A7.08,7.08,0,0,1,10.18,3.09H95.29m0-3.09H10.18a10.17,10.17,0,0,0-8.8,15.25L43.93,89a10.16,10.16,0,0,0,17.61,0l42.55-73.7a10.06,10.06,0,0,0,0-10.17A10.06,10.06,0,0,0,95.29,0" fill="#f19e19"/><path d="M71.92,35.41c2.38-7.28,6-18.29-2-23.29a14.86,14.86,0,0,0-8-2.54,17.41,17.41,0,0,0-7,1.75,9.83,9.83,0,0,1-2.18.76,9.5,9.5,0,0,1-2.18-.76,17.5,17.5,0,0,0-7-1.75,14.86,14.86,0,0,0-8,2.54c-7.93,5-4.33,16-2,23.29a33.3,33.3,0,0,1,1.54,5.52c.18,2-.94,8.22.1,12,1.75,6.43,7.32,11.09,7.56,11.29a3.29,3.29,0,0,0,2,.7c1.08-.12,3.24-1.38,3.06-3.06-.14-1.43-1.7-3,.31-8.59,1.5-4.13,3.71-6.3,4.66-6.87.94.57,3.15,2.74,4.65,6.87,2.2,6.07.52,7.22.37,8a3.06,3.06,0,0,0,5,2.93c.24-.2,5.82-4.86,7.56-11.29,1-3.79-.08-10,.1-12a33.3,33.3,0,0,1,1.54-5.52" fill="#fff"/><path d="M46.94 24.51A2.95 2.95 0 1 1 44 21.57a2.95 2.95 0 0 1 2.95 2.94m5.9 13.55a5.35 5.35 0 0 1-5.35-5.34 1.5 1.5 0 0 1 3 0 2.35 2.35 0 0 0 4.69 0 1.5 1.5 0 0 1 3 0 5.35 5.35 0 0 1-5.34 5.34zm11.79-13.55a2.94 2.94 0 1 1-2.94-2.94 2.94 2.94 0 0 1 2.94 2.94" fill="#26b4e6"/></svg>