<svg xmlns="http://www.w3.org/2000/svg" viewBox="0 0 105.473 94.038"><path d="M95.29 3.088H10.183c-5.449 0-8.855 5.899-6.131 10.618l42.553 73.705c1.362 2.359 3.746 3.539 6.131 3.539s4.768-1.18 6.131-3.539l42.553-73.705c2.725-4.719-.681-10.618-6.13-10.618z" fill="#f0ae00"/><path d="M104.094 5.083A10.06 10.06 0 0 0 95.29 0H10.183a10.06 10.06 0 0 0-8.805 5.083 10.06 10.06 0 0 0 0 10.167l42.553 73.705a10.06 10.06 0 0 0 8.805 5.083 10.06 10.06 0 0 0 8.805-5.083l42.553-73.705a10.06 10.06 0 0 0 0-10.167zm-2.674 8.623L58.867 87.411c-1.362 2.359-3.746 3.539-6.131 3.539s-4.768-1.18-6.131-3.539L4.052 13.706c-2.724-4.719.682-10.618 6.131-10.618H95.29c5.449 0 8.855 5.899 6.13 10.618z" fill="#f19e19"/><path d="M23.345 18.231c-2.634-3.525-7.174-7.882-11.296-8.559a2.01 2.01 0 0 0-2.297 1.649 2 2 0 0 0 1.65 2.298c2.622.431 6.381 3.85 8.745 7.013a68.62 68.62 0 0 0 1.569 2.019c.436-1.484 1.04-2.893 1.789-4.212l-.16-.208z" fill="#26b4e6"/><path d="M40.898 14.009A14.31 14.31 0 0 0 26.607 28.3a14.31 14.31 0 0 0 14.291 14.291A14.31 14.31 0 0 0 55.188 28.3c0-1.181-.16-2.323-.431-3.421-1.655 1.003-3.793 1.494-6.764.808-.547.422-1.224.682-1.969.682a3.24 3.24 0 0 1-3.241-3.242c0-1.79 1.451-3.242 3.241-3.242a3.24 3.24 0 0 1 2.969 1.947c1.939.444 3.148.106 4.222-.741-2.484-4.229-7.069-7.082-12.317-7.082zM35.77 36.715a3.24 3.24 0 0 1-3.241-3.242c0-1.79 1.451-3.242 3.241-3.242s3.242 1.452 3.242 3.242-1.451 3.242-3.242 3.242zm0-10.346a3.24 3.24 0 0 1-3.241-3.242c0-1.79 1.451-3.242 3.241-3.242s3.242 1.452 3.242 3.242a3.24 3.24 0 0 1-3.242 3.242zm10.254 3.861c1.791 0 3.242 1.452 3.242 3.242a3.241 3.241 0 1 1-6.483 0c0-1.79 1.451-3.242 3.241-3.242zm10.924-7.162c.539 1.649.839 3.405.839 5.232 0 9.313-7.577 16.891-16.89 16.891s-16.89-7.577-16.89-16.891 7.577-16.891 16.89-16.891c5.941 0 11.165 3.091 14.177 7.741l.315-.38c.537-.65 1.123-1.359 1.804-2.046-3.626-5.095-9.566-8.429-16.295-8.429-7.46 0-13.954 4.092-17.393 10.145-.749 1.319-1.353 2.728-1.789 4.212-.527 1.792-.822 3.684-.822 5.648 0 11.048 8.956 20.004 20.004 20.004S60.902 39.348 60.902 28.3c0-2.817-.588-5.494-1.639-7.925l-.79.943c-.474.574-.974 1.175-1.525 1.75z" fill="#ec6608"/><path d="M79.339 21.443c-.539 1.052-1.318 2.267-2.209 3.55 1.192 2.353 1.758 5.019 1.436 7.667-.47 3.862-2.584 7.337-5.799 9.533-3.325 2.271-8.842 7.66-9.492 12.458a2 2 0 0 0 1.713 2.25 1.92 1.92 0 0 0 .271.019 2 2 0 0 0 1.979-1.731c.42-3.105 4.869-7.702 7.784-9.692a17.53 17.53 0 0 0 7.514-12.353c.523-4.301-.695-8.557-3.042-12.029-.051.109-.099.219-.155.328zm-3.677 1.208c.888-1.415 1.526-2.908 1.735-4.118-.695-.715-1.436-1.383-2.236-1.974-.838-.619-1.734-1.155-2.669-1.615-1.615-.795-3.356-1.345-5.186-1.567-5.104-.619-8.046 1.262-10.114 3.349-.681.687-2.015 2.302-2.119 2.426-.652.785-1.235 1.447-1.859 1.94-1.074.847-2.283 1.186-4.222.741a13.87 13.87 0 0 1-1.657-.501 2 2 0 0 0-2.567 1.188 2 2 0 0 0 1.188 2.566 16.77 16.77 0 0 0 2.036.603c2.971.686 5.108.195 6.764-.808.835-.506 1.549-1.14 2.191-1.811.55-.575 2.054-2.39 2.315-2.693 1.774-2.06 3.545-3.52 7.56-3.029 1.288.157 2.526.534 3.688 1.084.782.37 1.526.821 2.227 1.339 1.098.81 2.087 1.784 2.925 2.88z" fill="#26b4e6"/><path d="M79.495 21.115c1.797-3.755 1.496-7.638-.735-8.781-1.799-.922-4.313.218-6.268 2.608.935.46 1.831.996 2.669 1.615.573-.41 1.134-.563 1.619-.314.655.335.805 1.198.616 2.289-.209 1.211-.847 2.703-1.735 4.118-1.172 1.868-2.763 3.584-4.353 4.267-.444-2.009.29-4.873 1.428-7.148-.7-.518-1.445-.969-2.227-1.339-1.322 3.579-3.717 12.082-4.913 14.451-.452.896-18.933 42.023-18.933 42.023l23.101-39.888c1.792-2.693 4.991-6.605 7.366-10.023.891-1.283 1.67-2.498 2.209-3.55.056-.109.104-.219.156-.328z" fill="#fff"/></svg>