<?xml version="1.0" encoding="iso-8859-1"?>
<!-- Generator: Adobe Illustrator 22.1.0, SVG Export Plug-In . SVG Version: 6.00 Build 0)  -->
<svg version="1.1" xmlns="http://www.w3.org/2000/svg" xmlns:xlink="http://www.w3.org/1999/xlink" x="0px" y="0px"
	 viewBox="0 0 105.473 94.038" style="enable-background:new 0 0 105.473 94.038;" xml:space="preserve">
<g id="Warstwa_1">
	<g>
		<path style="fill:#F0AE00;" d="M95.29,3.088H10.183c-5.449,0-8.855,5.899-6.131,10.618l42.553,73.705
			c1.362,2.359,3.746,3.539,6.131,3.539c2.384,0,4.768-1.18,6.131-3.539l42.553-73.705C104.145,8.987,100.739,3.088,95.29,3.088z"/>
		<path style="fill:#F19E19;" d="M104.094,5.083C102.256,1.9,98.965,0,95.29,0H10.183C6.507,0,3.216,1.9,1.378,5.083
			c-1.838,3.184-1.838,6.984,0,10.167l42.553,73.705c1.837,3.183,5.129,5.083,8.805,5.083c3.675,0,6.967-1.9,8.805-5.083
			l42.553-73.705C105.932,12.067,105.932,8.266,104.094,5.083z M101.42,13.706L58.867,87.411c-1.362,2.359-3.746,3.539-6.131,3.539
			c-2.384,0-4.768-1.18-6.131-3.539L4.052,13.706C1.328,8.987,4.734,3.088,10.183,3.088H95.29
			C100.739,3.088,104.145,8.987,101.42,13.706z"/>
	</g>
	<g>
		<path style="fill:#26B4E6;" d="M23.345,18.231c-2.634-3.525-7.174-7.882-11.296-8.559c-1.083-0.172-2.119,0.561-2.297,1.649
			c-0.179,1.091,0.56,2.119,1.65,2.298c2.622,0.431,6.381,3.85,8.745,7.013c0.501,0.67,1.027,1.348,1.569,2.019
			c0.436-1.484,1.04-2.893,1.789-4.212C23.451,18.37,23.398,18.303,23.345,18.231z"/>
		<path style="fill:#EC6608;" d="M40.898,14.009c-7.88,0-14.291,6.411-14.291,14.291s6.411,14.291,14.291,14.291
			S55.188,36.18,55.188,28.3c0-1.181-0.16-2.323-0.431-3.421c-1.655,1.003-3.793,1.494-6.764,0.808
			c-0.547,0.422-1.224,0.682-1.969,0.682c-1.79,0-3.241-1.451-3.241-3.242c0-1.79,1.451-3.242,3.241-3.242
			c1.329,0,2.469,0.802,2.969,1.947c1.939,0.444,3.148,0.106,4.222-0.741C50.731,16.862,46.146,14.009,40.898,14.009z M35.77,36.715
			c-1.79,0-3.241-1.451-3.241-3.242c0-1.79,1.451-3.242,3.241-3.242c1.791,0,3.242,1.452,3.242,3.242
			C39.012,35.263,37.561,36.715,35.77,36.715z M35.77,26.369c-1.79,0-3.241-1.451-3.241-3.242c0-1.79,1.451-3.242,3.241-3.242
			c1.791,0,3.242,1.452,3.242,3.242C39.012,24.918,37.561,26.369,35.77,26.369z M46.024,30.23c1.791,0,3.242,1.452,3.242,3.242
			c0,1.791-1.451,3.242-3.242,3.242c-1.79,0-3.241-1.451-3.241-3.242C42.783,31.682,44.234,30.23,46.024,30.23z"/>
		<path style="fill:#EC6608;" d="M56.948,23.068c0.539,1.649,0.839,3.405,0.839,5.232c0,9.313-7.577,16.891-16.89,16.891
			s-16.89-7.577-16.89-16.891s7.577-16.891,16.89-16.891c5.941,0,11.165,3.091,14.177,7.741c0.104-0.125,0.207-0.25,0.315-0.38
			c0.537-0.65,1.123-1.359,1.804-2.046c-3.626-5.095-9.566-8.429-16.295-8.429c-7.46,0-13.954,4.092-17.393,10.145
			c-0.749,1.319-1.353,2.728-1.789,4.212c-0.527,1.792-0.822,3.684-0.822,5.648c0,11.048,8.956,20.004,20.004,20.004
			S60.902,39.348,60.902,28.3c0-2.817-0.588-5.494-1.639-7.925c-0.261,0.303-0.522,0.619-0.79,0.943
			C57.999,21.892,57.499,22.493,56.948,23.068z"/>
		<path style="fill:#26B4E6;" d="M79.339,21.443c-0.539,1.052-1.318,2.267-2.209,3.55c1.192,2.353,1.758,5.019,1.436,7.667
			c-0.47,3.862-2.584,7.337-5.799,9.533c-3.325,2.271-8.842,7.66-9.492,12.458c-0.148,1.095,0.619,2.103,1.713,2.25
			c0.091,0.013,0.182,0.019,0.271,0.019c0.985,0,1.844-0.729,1.979-1.731c0.42-3.105,4.869-7.702,7.784-9.692
			c4.166-2.845,6.904-7.348,7.514-12.353c0.523-4.301-0.695-8.557-3.042-12.029C79.443,21.224,79.395,21.334,79.339,21.443z"/>
		<path style="fill:#26B4E6;" d="M75.662,22.651c0.888-1.415,1.526-2.908,1.735-4.118c-0.695-0.715-1.436-1.383-2.236-1.974
			c-0.838-0.619-1.734-1.155-2.669-1.615c-1.615-0.795-3.356-1.345-5.186-1.567c-5.104-0.619-8.046,1.262-10.114,3.349
			c-0.681,0.687-2.015,2.302-2.119,2.426c-0.652,0.785-1.235,1.447-1.859,1.94c-1.074,0.847-2.283,1.186-4.222,0.741
			c-0.501-0.115-1.047-0.278-1.657-0.501c-1.037-0.382-2.187,0.15-2.567,1.188c-0.381,1.036,0.151,2.186,1.188,2.566
			c0.724,0.266,1.395,0.455,2.036,0.603c2.971,0.686,5.108,0.195,6.764-0.808c0.835-0.506,1.549-1.14,2.191-1.811
			c0.55-0.575,2.054-2.39,2.315-2.693c1.774-2.06,3.545-3.52,7.56-3.029c1.288,0.157,2.526,0.534,3.688,1.084
			c0.782,0.37,1.526,0.821,2.227,1.339C73.835,20.581,74.824,21.555,75.662,22.651z"/>
		<path style="fill:#FFFFFF;" d="M79.495,21.115c1.797-3.755,1.496-7.638-0.735-8.781c-1.799-0.922-4.313,0.218-6.268,2.608
			c0.935,0.46,1.831,0.996,2.669,1.615c0.573-0.41,1.134-0.563,1.619-0.314c0.655,0.335,0.805,1.198,0.616,2.289
			c-0.209,1.211-0.847,2.703-1.735,4.118c-1.172,1.868-2.763,3.584-4.353,4.267c-0.444-2.009,0.29-4.873,1.428-7.148
			c-0.7-0.518-1.445-0.969-2.227-1.339c-1.322,3.579-3.717,12.082-4.913,14.451c-0.452,0.896-18.933,42.023-18.933,42.023
			S69.483,35.44,69.764,35.016c1.792-2.693,4.991-6.605,7.366-10.023c0.891-1.283,1.67-2.498,2.209-3.55
			C79.395,21.334,79.443,21.224,79.495,21.115z"/>
	</g>
</g>
<g id="Warstwa_2">
</g>
<g id="Warstwa_3" style="display:none;">
</g>
</svg>
