<svg id="Warstwa_1" data-name="Warstwa 1" xmlns="http://www.w3.org/2000/svg" viewBox="0 0 105.47 94.04"><defs><style>.cls-1{fill:#f0ae00;}.cls-2{fill:#f19e19;}.cls-3{fill:#fff;}.cls-4{fill:#c90c0f;}.cls-5{fill:#ec6608;}</style></defs><title>sprawnosci-zuchowe</title><path class="cls-1" d="M52.74,92.49a8.54,8.54,0,0,1-7.47-4.31L2.72,14.48A8.62,8.62,0,0,1,10.18,1.54H95.29a8.63,8.63,0,0,1,7.47,12.94L60.2,88.18a8.53,8.53,0,0,1-7.46,4.31"/><path class="cls-2" d="M95.29,3.09a7.08,7.08,0,0,1,6.13,10.62L58.87,87.41a7.08,7.08,0,0,1-12.26,0L4.05,13.71A7.08,7.08,0,0,1,10.18,3.09H95.29m0-3.09H10.18a10.17,10.17,0,0,0-8.8,15.25L43.93,89a10.16,10.16,0,0,0,17.61,0l42.55-73.7a10.06,10.06,0,0,0,0-10.17A10,10,0,0,0,95.29,0"/><polygon class="cls-3" points="41.06 38.43 46.87 35.08 41.05 25.01 41.51 19.57 32.03 10.67 27.34 13.37 30.31 26.04 35.24 28.36 41.06 38.43"/><path class="cls-4" d="M58.81,51.44,52.68,63.89l3.12,6.35A4.44,4.44,0,0,0,62,72.1L65.56,70A4.43,4.43,0,0,0,67,63.75Z"/><path class="cls-4" d="M50.25,38.64a1.86,1.86,0,0,0-2.47-.58l-4.59,2.65a1.86,1.86,0,0,0-.73,2.44l4.07,8.27,6.14-9.17Z"/><path class="cls-5" d="M63,43a1.86,1.86,0,0,0-.73-2.44L57.63,38a1.87,1.87,0,0,0-2.48.58l-2.48,3.72-6.14,9.17L38.36,63.64a4.44,4.44,0,0,0,1.48,6.29L43.42,72a4.42,4.42,0,0,0,6.18-1.86l3.08-6.24,6.13-12.45Z"/><path class="cls-3" d="M88.82,25.31,81.18,15,64.74,5.48l-6.2,10.75,8.11,4.68L58.47,35.08l5.81,3.35,8.18-14.17L75,25.72l12.77,1.44A1.14,1.14,0,0,0,88.82,25.31Z"/></svg>