<svg xmlns="http://www.w3.org/2000/svg" viewBox="0 0 105.47 94.04"><defs><style>.cls-1{fill:#f0ae00;}.cls-2{fill:#f19e19;}.cls-3{fill:#fff;}.cls-4{fill:#26b4e6;}</style></defs><title>sprawnosci-zuchowe</title><g id="Warstwa_1" data-name="Warstwa 1"><path class="cls-1" d="M52.74,92.49a8.54,8.54,0,0,1-7.47-4.31L2.72,14.48A8.62,8.62,0,0,1,10.18,1.54H95.29a8.63,8.63,0,0,1,7.47,12.94L60.2,88.18a8.53,8.53,0,0,1-7.46,4.31"/><path class="cls-2" d="M95.29,3.09a7.08,7.08,0,0,1,6.13,10.62L58.87,87.41a7.08,7.08,0,0,1-12.26,0L4.05,13.71A7.08,7.08,0,0,1,10.18,3.09H95.29m0-3.09H10.18a10.17,10.17,0,0,0-8.8,15.25L43.93,89a10.16,10.16,0,0,0,17.61,0l42.55-73.7a10.06,10.06,0,0,0,0-10.17A10,10,0,0,0,95.29,0"/></g><g id="Warstwa_2" data-name="Warstwa 2"><path class="cls-3" d="M91.29,8H86L73.32,16.64h0l-6.05,0h0a37.44,37.44,0,0,1-9-2.09h0a99,99,0,0,1-9-5.91,1.4,1.4,0,0,0-2.12.48,7.25,7.25,0,0,0,.44,7.48,8.48,8.48,0,0,0,5.56,3.86h0a32.66,32.66,0,0,0,2.6,2.65c4.28,3.95,13.1,10.32,21,4.88-9.95,8.5-21.41-2.58-22.44-3.39,0,0,0,0,0,0A25.45,25.45,0,0,1,52,26.29c4.15,4.31,7.79,8.29,8.23,8.76a4.35,4.35,0,0,1,0,6,4.28,4.28,0,0,1-1.74,1.09,4.6,4.6,0,0,1-3.76,7.26,4.69,4.69,0,0,1-1.81-.37,4.24,4.24,0,0,1-.87,1.56,4.36,4.36,0,0,1-3.27,1.48,4.41,4.41,0,0,1-1.53-.28l-4.44,4.06a3,3,0,0,0-.26,4.06,2.88,2.88,0,0,0,4.1.25L63.47,45.79a.53.53,0,0,1,.74.75l-11,11.77a2.72,2.72,0,0,0-.19,3.6,2.58,2.58,0,0,0,3.79.14L69.9,48.92h0c2.72-1.59,9.91-6.21,11.42-11.76,1.41-5.2,1.36-7.59,1.35-7.83,0,0,0,0,0,0l7.83-5.37,5-8.64A4.88,4.88,0,0,0,91.29,8Z"/><path class="cls-3" d="M35.8,49,33.14,51a3.2,3.2,0,0,0,4.39,4.65L41.23,53a4.07,4.07,0,0,1-2.62-1.18Z"/><path class="cls-4" d="M43.2,50.18A2.25,2.25,0,0,0,43,47.34l-9-9.58a.43.43,0,0,1,0-.57.43.43,0,0,1,.61,0l12.6,12.34a2.36,2.36,0,0,0,3.34-.2,2.42,2.42,0,0,0-.21-3.3L38.81,33.84a.42.42,0,0,1-.1-.47.42.42,0,0,1,.39-.25.43.43,0,0,1,.26.09L53,46.78A2.6,2.6,0,0,0,56.59,43L43.68,29.34c-.25-.3.11-.79.48-.79a.39.39,0,0,1,.27.11L55.49,39.71a2.31,2.31,0,1,0,3.26-3.28S47.13,23.71,41.19,18.51c-1.3-1.13-6.6-4.75-9.46-5.05a39.61,39.61,0,0,0-5.09,0h0L18.69,8H14.18A4.88,4.88,0,0,0,10,15.29L12.09,19,19,23.72l0,0a23,23,0,0,0,1.09,6.38C21.31,34.63,40,50.39,40,50.39a2.11,2.11,0,0,0,1.49.62A2.13,2.13,0,0,0,43.2,50.18Z"/></g></svg>