<svg id="Warstwa_1" data-name="Warstwa 1" xmlns="http://www.w3.org/2000/svg" viewBox="0 0 105.47 94.04"><defs><style>.cls-1{fill:#f0ae00;}.cls-2{fill:#fff;}.cls-3{fill:#ec6608;}.cls-4{fill:#c90c0f;}.cls-5{fill:#194093;}.cls-6{fill:#f19e19;}</style></defs><title>sprawnosci-zuchowe</title><path class="cls-1" d="M52.74,92.49a8.54,8.54,0,0,1-7.47-4.31L2.72,14.48A8.62,8.62,0,0,1,10.18,1.54H95.29a8.63,8.63,0,0,1,7.47,12.94L60.2,88.18a8.53,8.53,0,0,1-7.46,4.31"/><polygon class="cls-2" points="56.42 19.03 50.47 6 45.78 19.99 51.59 30.58 56.42 19.03"/><polygon class="cls-3" points="64.79 41.49 79.29 38.49 67.31 31.18 55.18 34.63 64.79 41.49"/><polygon class="cls-2" points="41.5 45.16 41.21 59.36 51.07 49.24 50.44 37.23 41.5 45.16"/><polygon class="cls-4" points="48.45 34.98 36.28 32.87 25.21 41.34 39.67 42.77 48.45 34.98"/><polygon class="cls-4" points="53.43 37.07 54.05 48.77 65.28 58.09 63.54 44.29 53.43 37.07"/><polygon class="cls-3" points="42.9 20.98 29.33 17.59 37.37 30.02 48.96 32.03 42.9 20.98"/><polygon class="cls-4" points="66.06 28.41 72.7 15.3 59.17 20.24 54.36 31.74 66.06 28.41"/><path class="cls-5" d="M50.75,53.87V84.94a2,2,0,0,0,4,0V53.25l-1.88-1.56Z"/><path class="cls-6" d="M95.29,3.09a7.08,7.08,0,0,1,6.13,10.62L58.87,87.41a7.08,7.08,0,0,1-12.26,0L4.05,13.71A7.08,7.08,0,0,1,10.18,3.09H95.29m0-3.09H10.18a10.17,10.17,0,0,0-8.8,15.25L43.93,89a10.16,10.16,0,0,0,17.61,0l42.55-73.7a10.06,10.06,0,0,0,0-10.17A10,10,0,0,0,95.29,0"/></svg>