<svg xmlns="http://www.w3.org/2000/svg" viewBox="0 0 105.47 94.04"><path d="M52.74,92.49a8.54,8.54,0,0,1-7.47-4.31L2.72,14.48A8.62,8.62,0,0,1,10.18,1.54H95.29a8.63,8.63,0,0,1,7.47,12.94L60.2,88.18a8.53,8.53,0,0,1-7.46,4.31" fill="#f0ae00"/><path d="M56.42 19.03L50.47 6l-4.69 13.99 5.81 10.59 4.83-11.55z" fill="#fff"/><path d="M64.79 41.49l14.5-3-11.98-7.31-12.13 3.45 9.61 6.86z" fill="#ec6608"/><path d="M41.5 45.16l-.29 14.2 9.86-10.12-.63-12.01-8.94 7.93z" fill="#fff"/><path d="M48.45 34.98l-12.17-2.11-11.07 8.47 14.46 1.43 8.78-7.79zm4.98 2.09l.62 11.7 11.23 9.32-1.74-13.8-10.11-7.22z" fill="#c90c0f"/><path d="M42.9 20.98l-13.57-3.39 8.04 12.43 11.59 2.01-6.06-11.05z" fill="#ec6608"/><path d="M66.06 28.41L72.7 15.3l-13.53 4.94-4.81 11.5 11.7-3.33z" fill="#c90c0f"/><path d="M50.75,53.87V84.94a2,2,0,0,0,4,0V53.25l-1.88-1.56Z" fill="#194093"/><path d="M95.29,3.09a7.08,7.08,0,0,1,6.13,10.62L58.87,87.41a7.08,7.08,0,0,1-12.26,0L4.05,13.71A7.08,7.08,0,0,1,10.18,3.09H95.29m0-3.09H10.18a10.17,10.17,0,0,0-8.8,15.25L43.93,89a10.16,10.16,0,0,0,17.61,0l42.55-73.7a10.06,10.06,0,0,0,0-10.17A10,10,0,0,0,95.29,0" fill="#f19e19"/></svg>