<svg xmlns="http://www.w3.org/2000/svg" viewBox="0 0 105.473 94.038"><path d="M52.736 92.494c-3.117 0-5.909-1.612-7.468-4.311L2.715 14.478a8.53 8.53 0 0 1-.001-8.622c1.559-2.699 4.351-4.311 7.468-4.311h85.107c3.117 0 5.909 1.612 7.468 4.311a8.53 8.53 0 0 1-.001 8.622L60.204 88.183c-1.559 2.699-4.35 4.311-7.468 4.311" fill="#f0ae00"/><path d="M95.29 3.088c5.449 0 8.855 5.899 6.131 10.618L58.867 87.411c-1.362 2.359-3.746 3.539-6.131 3.539s-4.768-1.18-6.131-3.539L4.052 13.706c-2.724-4.719.682-10.618 6.131-10.618H95.29m0-3.088H10.183a10.06 10.06 0 0 0-8.805 5.083 10.06 10.06 0 0 0 0 10.167l42.553 73.705a10.06 10.06 0 0 0 8.805 5.083 10.06 10.06 0 0 0 8.805-5.083l42.553-73.705a10.06 10.06 0 0 0 0-10.167A10.06 10.06 0 0 0 95.29 0" fill="#f19e19"/><path d="M73.37 33.958l-.484-2.531-2.561-2.081 3.322-4.315-4.546-13.381-22.807 1.432 5.267-5.111h-6.796L23.49 14.513l1.179 19.445z" fill="#fff"/><path d="M25.127 41.511l14.281 10.457 30.305 7.559 5.969-13.486-2.312-12.083H24.669z" fill="#c90c0f"/></svg>