<?xml version="1.0" encoding="iso-8859-1"?>
<!-- Generator: Adobe Illustrator 22.1.0, SVG Export Plug-In . SVG Version: 6.00 Build 0)  -->
<svg version="1.1" xmlns="http://www.w3.org/2000/svg" xmlns:xlink="http://www.w3.org/1999/xlink" x="0px" y="0px"
	 viewBox="0 0 105.473 94.038" style="enable-background:new 0 0 105.473 94.038;" xml:space="preserve">
<g id="Warstwa_1">
	<g>
		<path style="fill:#F0AE00;" d="M52.736,92.494c-3.117,0-5.909-1.612-7.468-4.311L2.715,14.478
			c-1.559-2.699-1.559-5.923-0.001-8.622c1.559-2.699,4.351-4.311,7.468-4.311h85.107c3.117,0,5.909,1.612,7.468,4.311
			c1.558,2.699,1.558,5.923-0.001,8.622L60.204,88.183C58.645,90.882,55.854,92.494,52.736,92.494"/>
		<path style="fill:#F19E19;" d="M95.29,3.088c5.449,0,8.855,5.899,6.131,10.618L58.867,87.411
			c-1.362,2.359-3.746,3.539-6.131,3.539s-4.768-1.18-6.131-3.539L4.052,13.706C1.328,8.987,4.734,3.088,10.183,3.088H95.29
			 M95.29,0H10.183C6.507,0,3.216,1.9,1.378,5.083c-1.838,3.184-1.838,6.984,0,10.167l42.553,73.705
			c1.837,3.183,5.129,5.083,8.805,5.083c3.675,0,6.967-1.9,8.805-5.083l42.553-73.705c1.838-3.183,1.838-6.983,0-10.167
			C102.256,1.9,98.965,0,95.29,0"/>
	</g>
	<g>
		<polygon style="fill:#FFFFFF;" points="73.37,33.958 72.886,31.427 70.325,29.346 73.647,25.031 69.101,11.65 46.294,13.082 
			51.561,7.971 44.765,7.971 23.49,14.513 24.669,33.958 		"/>
		<polygon style="fill:#C90C0F;" points="25.127,41.511 39.408,51.968 69.713,59.527 75.682,46.041 73.37,33.958 24.669,33.958 		
			"/>
	</g>
</g>
<g id="Warstwa_2">
</g>
<g id="Warstwa_3" style="display:none;">
</g>
</svg>
