<svg xmlns="http://www.w3.org/2000/svg" viewBox="0 0 105.47 94.04"><path d="M52.74,92.49a8.54,8.54,0,0,1-7.47-4.31L2.72,14.48A8.62,8.62,0,0,1,10.18,1.54H95.29a8.63,8.63,0,0,1,7.47,12.94L60.2,88.18a8.53,8.53,0,0,1-7.46,4.31" fill="#f0ae00"/><path d="M95.29,3.09a7.08,7.08,0,0,1,6.13,10.62L58.87,87.41a7.08,7.08,0,0,1-12.26,0L4.05,13.71A7.08,7.08,0,0,1,10.18,3.09H95.29m0-3.09H10.18a10.17,10.17,0,0,0-8.8,15.25L43.93,89a10.16,10.16,0,0,0,17.61,0l42.55-73.7a10.06,10.06,0,0,0,0-10.17A10.06,10.06,0,0,0,95.29,0" fill="#f19e19"/><path d="M53 7.56l.76 2.28h2.4a.32.32 0 0 1 .19.58l-1.93 1.43.72 2.29a.32.32 0 0 1-.49.36l-1.95-1.4-2 1.4a.32.32 0 0 1-.49-.36l.79-2.27-1.93-1.43a.32.32 0 0 1 .19-.58h2.4l.76-2.28a.32.32 0 0 1 .58-.02zm0 48.89l.76 2.28h2.4a.32.32 0 0 1 .19.58l-1.93 1.43.76 2.26a.32.32 0 0 1-.49.37L52.74 62l-2 1.4a.32.32 0 0 1-.49-.37l.75-2.27-1.93-1.43a.32.32 0 0 1 .19-.58h2.4l.76-2.28a.32.32 0 0 1 .58-.02zM77.49 32l.76 2.27h2.4a.33.33 0 0 1 .19.59l-1.94 1.45.73 2.29a.32.32 0 0 1-.5.36l-1.95-1.39-2 1.39a.32.32 0 0 1-.5-.36l.72-2.29-1.93-1.42a.33.33 0 0 1 .19-.59h2.4l.81-2.3a.33.33 0 0 1 .62 0zM28.6 32l.76 2.27h2.4a.33.33 0 0 1 .19.59L30 36.31l.72 2.29a.32.32 0 0 1-.5.36l-1.95-1.39L26.34 39a.33.33 0 0 1-.5-.36l.73-2.29-1.93-1.42a.33.33 0 0 1 .19-.59h2.4L28 32a.32.32 0 0 1 .6 0zm3.67-12.76l.73 2.28h2.4a.32.32 0 0 1 .19.58l-1.93 1.43.72 2.29a.33.33 0 0 1-.5.36L32 24.8l-2 1.4a.33.33 0 0 1-.5-.36l.73-2.29-1.93-1.43a.32.32 0 0 1 .19-.58h2.4l.75-2.28a.33.33 0 0 1 .63-.02zm42.34 24.45l.76 2.31h2.4a.33.33 0 0 1 .19.59L76 48l.73 2.29a.33.33 0 0 1-.5.36l-2-1.4-2 1.4a.32.32 0 0 1-.5-.36l.84-2.29-1.93-1.42a.33.33 0 0 1 .19-.59h2.4l.77-2.3a.33.33 0 0 1 .61 0zm-8.95-33.4l.76 2.28h2.4a.32.32 0 0 1 .19.58l-1.93 1.45.72 2.29a.32.32 0 0 1-.5.36l-2-1.4-1.95 1.4a.33.33 0 0 1-.5-.36l.73-2.29-1.88-1.43a.32.32 0 0 1 .19-.58h2.4l.76-2.28a.32.32 0 0 1 .61-.02zM41.22 52.63l.78 2.28h2.4a.32.32 0 0 1 .19.58l-1.93 1.43.73 2.29a.33.33 0 0 1-.5.36l-2-1.4L39 59.59a.33.33 0 0 1-.5-.36l.72-2.29-1.93-1.43a.32.32 0 0 1 .19-.58h2.4l.76-2.28a.33.33 0 0 1 .58-.02zM74 19.24l-.76 2.28h-2.4a.32.32 0 0 0-.19.58l1.93 1.43-.72 2.29a.33.33 0 0 0 .5.36l2-1.4 2 1.4a.33.33 0 0 0 .5-.36L76 23.55l2-1.43a.32.32 0 0 0-.19-.58h-2.4l-.76-2.28a.33.33 0 0 0-.65-.02zM31.65 43.69L30.9 46h-2.41a.33.33 0 0 0-.18.59L30.24 48l-.73 2.29a.33.33 0 0 0 .5.36L32 49.24l1.95 1.4a.32.32 0 0 0 .5-.36L33.69 48l1.93-1.42a.33.33 0 0 0-.19-.59L33 46l-.76-2.27a.33.33 0 0 0-.59-.04zm8.95-33.4l-.76 2.28h-2.4a.32.32 0 0 0-.19.58l1.93 1.43-.72 2.29a.33.33 0 0 0 .5.36l1.95-1.4 2 1.4a.33.33 0 0 0 .5-.36l-.73-2.29 1.93-1.43a.32.32 0 0 0-.19-.58h-2.4l-.75-2.28a.335.335 0 0 0-.67 0zm24.45 42.34l-.76 2.28h-2.4a.32.32 0 0 0-.19.58l1.93 1.43-.73 2.29a.33.33 0 0 0 .5.36l1.95-1.4 2 1.4a.32.32 0 0 0 .5-.36l-.72-2.29L69 55.51a.32.32 0 0 0-.19-.58h-2.4l-.76-2.28a.32.32 0 0 0-.6-.02z" fill="#194093"/></svg>