<svg id="Warstwa_1" data-name="Warstwa 1" xmlns="http://www.w3.org/2000/svg" viewBox="0 0 105.47 94.04"><defs><style>.cls-1{fill:#f0ae00;}.cls-2{fill:#f19e19;}.cls-3{fill:#194093;}</style></defs><title>sprawnosci-zuchowe</title><path class="cls-1" d="M52.74,92.49a8.54,8.54,0,0,1-7.47-4.31L2.72,14.48A8.62,8.62,0,0,1,10.18,1.54H95.29a8.63,8.63,0,0,1,7.47,12.94L60.2,88.18a8.53,8.53,0,0,1-7.46,4.31"/><path class="cls-2" d="M95.29,3.09a7.08,7.08,0,0,1,6.13,10.62L58.87,87.41a7.08,7.08,0,0,1-12.26,0L4.05,13.71A7.08,7.08,0,0,1,10.18,3.09H95.29m0-3.09H10.18a10.17,10.17,0,0,0-8.8,15.25L43.93,89a10.16,10.16,0,0,0,17.61,0l42.55-73.7a10.06,10.06,0,0,0,0-10.17A10.06,10.06,0,0,0,95.29,0"/><path class="cls-3" d="M53,7.56l.76,2.28,2.4,0a.32.32,0,0,1,.19.58l-1.93,1.43.72,2.29a.32.32,0,0,1-.49.36l-1.95-1.4-2,1.4a.32.32,0,0,1-.49-.36L51,11.87l-1.93-1.43a.32.32,0,0,1,.19-.58l2.4,0,.76-2.28A.32.32,0,0,1,53,7.56Z"/><path class="cls-3" d="M53,56.45l.76,2.28,2.4,0a.32.32,0,0,1,.19.58l-1.93,1.43L55.18,63a.32.32,0,0,1-.49.37L52.74,62l-2,1.4a.32.32,0,0,1-.49-.37L51,60.76l-1.93-1.43a.32.32,0,0,1,.19-.58l2.4,0,.76-2.28A.32.32,0,0,1,53,56.45Z"/><path class="cls-3" d="M77.49,32l.76,2.27,2.4,0a.33.33,0,0,1,.19.59L78.9,36.31l.73,2.29a.32.32,0,0,1-.5.36l-1.95-1.39-2,1.39a.32.32,0,0,1-.5-.36l.72-2.29-1.93-1.42a.33.33,0,0,1,.19-.59l2.4,0L76.87,32A.33.33,0,0,1,77.49,32Z"/><path class="cls-3" d="M28.6,32l.76,2.27,2.4,0a.33.33,0,0,1,.19.59L30,36.31l.72,2.29a.32.32,0,0,1-.5.36l-1.95-1.39L26.34,39a.33.33,0,0,1-.5-.36l.73-2.29-1.93-1.42a.33.33,0,0,1,.19-.59l2.4,0L28,32A.32.32,0,0,1,28.6,32Z"/><path class="cls-3" d="M32.27,19.24,33,21.52l2.4,0a.32.32,0,0,1,.19.58l-1.93,1.43.72,2.29a.33.33,0,0,1-.5.36L32,24.8,30,26.2a.33.33,0,0,1-.5-.36l.73-2.29-1.93-1.43a.32.32,0,0,1,.19-.58l2.4,0,.75-2.28A.33.33,0,0,1,32.27,19.24Z"/><path class="cls-3" d="M74.61,43.69,75.37,46l2.4,0a.33.33,0,0,1,.19.59L76,48l.73,2.29a.33.33,0,0,1-.5.36l-2-1.4-2,1.4a.32.32,0,0,1-.5-.36L72.57,48l-1.93-1.42a.33.33,0,0,1,.19-.59l2.4,0L74,43.69A.33.33,0,0,1,74.61,43.69Z"/><path class="cls-3" d="M65.66,10.29l.76,2.28,2.4,0a.32.32,0,0,1,.19.58L67.08,14.6l.72,2.29a.32.32,0,0,1-.5.36l-2-1.4-1.95,1.4a.33.33,0,0,1-.5-.36l.73-2.29L61.7,13.17a.32.32,0,0,1,.19-.58l2.4,0,.76-2.28A.32.32,0,0,1,65.66,10.29Z"/><path class="cls-3" d="M41.22,52.63,42,54.91l2.4,0a.32.32,0,0,1,.19.58l-1.93,1.43.73,2.29a.33.33,0,0,1-.5.36l-2-1.4L39,59.59a.33.33,0,0,1-.5-.36l.72-2.29-1.93-1.43a.32.32,0,0,1,.19-.58l2.4,0,.76-2.28A.33.33,0,0,1,41.22,52.63Z"/><path class="cls-3" d="M74,19.24l-.76,2.28-2.4,0a.32.32,0,0,0-.19.58l1.93,1.43-.72,2.29a.33.33,0,0,0,.5.36l2-1.4,2,1.4a.33.33,0,0,0,.5-.36L76,23.55,78,22.12a.32.32,0,0,0-.19-.58l-2.4,0-.76-2.28A.33.33,0,0,0,74,19.24Z"/><path class="cls-3" d="M31.65,43.69,30.9,46l-2.41,0a.33.33,0,0,0-.18.59L30.24,48l-.73,2.29a.33.33,0,0,0,.5.36L32,49.24l1.95,1.4a.32.32,0,0,0,.5-.36L33.69,48l1.93-1.42a.33.33,0,0,0-.19-.59L33,46l-.76-2.27A.33.33,0,0,0,31.65,43.69Z"/><path class="cls-3" d="M40.6,10.29l-.76,2.28-2.4,0a.32.32,0,0,0-.19.58l1.93,1.43-.72,2.29a.33.33,0,0,0,.5.36l1.95-1.4,2,1.4a.33.33,0,0,0,.5-.36l-.73-2.29,1.93-1.43a.32.32,0,0,0-.19-.58l-2.4,0-.75-2.28A.33.33,0,0,0,40.6,10.29Z"/><path class="cls-3" d="M65.05,52.63l-.76,2.28-2.4,0a.32.32,0,0,0-.19.58l1.93,1.43-.73,2.29a.33.33,0,0,0,.5.36l1.95-1.4,2,1.4a.32.32,0,0,0,.5-.36l-.72-2.29L69,55.51a.32.32,0,0,0-.19-.58l-2.4,0-.76-2.28A.32.32,0,0,0,65.05,52.63Z"/></svg>