<svg id="Warstwa_1" data-name="Warstwa 1" xmlns="http://www.w3.org/2000/svg" viewBox="0 0 105.47 94.04"><defs><style>.cls-1{fill:#f0ae00;}.cls-2{fill:#f19e19;}.cls-3{fill:#ec6608;}.cls-4{fill:#fff;}</style></defs><title>sprawnosci-zuchowe</title><path class="cls-1" d="M52.74,92.49a8.54,8.54,0,0,1-7.47-4.31L2.72,14.48A8.62,8.62,0,0,1,10.18,1.54H95.29a8.63,8.63,0,0,1,7.47,12.94L60.2,88.18a8.53,8.53,0,0,1-7.46,4.31"/><path class="cls-2" d="M95.29,3.09a7.08,7.08,0,0,1,6.13,10.62L58.87,87.41a7.08,7.08,0,0,1-12.26,0L4.05,13.71A7.08,7.08,0,0,1,10.18,3.09H95.29m0-3.09H10.18a10.17,10.17,0,0,0-8.8,15.25L43.93,89a10.16,10.16,0,0,0,17.61,0l42.55-73.7a10.06,10.06,0,0,0,0-10.17A10,10,0,0,0,95.29,0"/><path class="cls-3" d="M45.8,50a4,4,0,0,1-4-3.84c2.23-.55,7.73-1.91,10.47-2.49l-10.47.89a4,4,0,0,1-4-4,4.38,4.38,0,0,1,0-.51c1.92-.48,7.93-2,10.83-2.58l-10.54.89h-.32A4.46,4.46,0,0,1,33.36,34c1.88-.47,8-2,10.87-2.59l-10.56.82c-.67,2.44-1.16,4.38-1.16,4.38l-6.22,6.93L37.75,63.43l8-7.06,0,0L62,50l-4.32-.1Z"/><path class="cls-4" d="M71.85,32c-.58-.52-2.79-6.74-4.73-12.13A3.18,3.18,0,0,1,64,19.67a4.15,4.15,0,0,1-1.45,4A4.2,4.2,0,0,1,56.64,23s-.53,2.69-1.84,3.75a4.21,4.21,0,0,1-5.92-.6,8.83,8.83,0,0,1-2,2.91,3.78,3.78,0,0,1-5.33-.54l-4.73-6c-3.12.2-5.59.37-5.68.39A4.61,4.61,0,0,0,27.53,26a4.42,4.42,0,0,0-.25,1.55,4.64,4.64,0,0,0,1.58,3.48A4.7,4.7,0,0,0,32,32.27h1.66l10.56-.82c-2.92.62-9,2.12-10.87,2.59a4.46,4.46,0,0,0,4.47,4.31h.32l10.54-.89c-2.9.62-8.91,2.1-10.83,2.58a4.38,4.38,0,0,0,0,.51,4,4,0,0,0,4,4l10.47-.89c-2.74.58-8.24,1.94-10.47,2.49a4,4,0,0,0,4,3.84l11.9-.07L62,50h0l8.58,8.46,10.28-17.8S72.86,32.92,71.85,32Z"/><path class="cls-3" d="M41.55,28.56a3.78,3.78,0,0,0,5.33.54,8.83,8.83,0,0,0,2-2.91,4.21,4.21,0,0,0,5.92.6C56.11,25.73,56.64,23,56.64,23a4.2,4.2,0,0,0,5.91.61,4.15,4.15,0,0,0,1.45-4,3.18,3.18,0,0,0,3.12.23c.17-.07.35-.14.53-.23a3.32,3.32,0,0,0,.63-4.81L64,9.25A3.58,3.58,0,0,0,59,8.69,11.69,11.69,0,0,0,57.3,10.4a4.21,4.21,0,0,0-5.91-.61c-1.3,1.06-1.83,3.74-1.83,3.74a4.21,4.21,0,0,0-7.31,3.79,3.78,3.78,0,0,0-5.55,5.12l.12.14Z"/></svg>