<svg id="Warstwa_1" data-name="Warstwa 1" xmlns="http://www.w3.org/2000/svg" viewBox="0 0 105.47 94.04"><defs><style>.cls-1{fill:#f0ae00;}.cls-2{fill:#f19e19;}.cls-3{fill:#fff;}.cls-4{fill:#26b4e6;}.cls-5{fill:#c90c0f;}</style></defs><title>sprawnosci-zuchowe</title><path class="cls-1" d="M52.74,92.49a8.54,8.54,0,0,1-7.47-4.31L2.72,14.48A8.62,8.62,0,0,1,10.18,1.54H95.29a8.63,8.63,0,0,1,7.47,12.94L60.2,88.18a8.53,8.53,0,0,1-7.46,4.31"/><path class="cls-2" d="M95.29,3.09a7.08,7.08,0,0,1,6.13,10.62L58.87,87.41a7.08,7.08,0,0,1-12.26,0L4.05,13.71A7.08,7.08,0,0,1,10.18,3.09H95.29m0-3.09H10.18a10.17,10.17,0,0,0-8.8,15.25L43.93,89a10.16,10.16,0,0,0,17.61,0l42.55-73.7a10.06,10.06,0,0,0,0-10.17A10,10,0,0,0,95.29,0"/><path class="cls-3" d="M62.65,42.16a1.5,1.5,0,0,1,1.5-1.5h9.19A21.71,21.71,0,0,0,74.1,35H31.3a21.72,21.72,0,0,0,.77,5.62h9.19a1.5,1.5,0,0,1,0,3H33.12a21.39,21.39,0,0,0,39.17,0H64.15A1.5,1.5,0,0,1,62.65,42.16Z"/><path class="cls-4" d="M40.29,19.76a5.83,5.83,0,1,1-5.83-5.83,5.83,5.83,0,0,1,5.83,5.83"/><path class="cls-4" d="M76.83,19.76A5.82,5.82,0,1,1,71,13.93a5.82,5.82,0,0,1,5.82,5.83"/><path class="cls-5" d="M74.1,35h0m0,0a21.4,21.4,0,1,1-42.8,0H74.1m0-4H31.3a4,4,0,0,0-4,4,25.4,25.4,0,0,0,50.8.16.81.81,0,0,0,0-.16,4,4,0,0,0-4-4Zm0,8h0Z"/></svg>