<svg id="Warstwa_1" data-name="Warstwa 1" xmlns="http://www.w3.org/2000/svg" viewBox="0 0 105.47 94.04"><defs><style>.cls-1{fill:#f0ae00;}.cls-2{fill:#f19e19;}.cls-3{fill:#ef7d00;}.cls-4{fill:#fff;}</style></defs><title>sprawnosci-zuchowe</title><path class="cls-1" d="M52.74,92.49a8.54,8.54,0,0,1-7.47-4.31L2.72,14.48A8.62,8.62,0,0,1,10.18,1.54H95.29a8.63,8.63,0,0,1,7.47,12.94L60.2,88.18a8.53,8.53,0,0,1-7.46,4.31"/><path class="cls-2" d="M95.29,3.09a7.08,7.08,0,0,1,6.13,10.62L58.87,87.41a7.08,7.08,0,0,1-12.26,0L4.05,13.71A7.08,7.08,0,0,1,10.18,3.09H95.29m0-3.09H10.18a10.17,10.17,0,0,0-8.8,15.25L43.93,89a10.16,10.16,0,0,0,17.61,0l42.55-73.7a10.06,10.06,0,0,0,0-10.17A10,10,0,0,0,95.29,0"/><path class="cls-3" d="M45.76,58.53l.15,0h0Z"/><path class="cls-3" d="M43.28,49.16,38.77,37.93l11.34,4.25,7.46-9.51,2,11.93,11.69,1.67c2.57-4.9,3.29-11,.64-18.08a1.08,1.08,0,0,0-2.06.08l-.06.17a1.79,1.79,0,0,1-3.5-.7A18.56,18.56,0,0,0,46.5,7.68a1.09,1.09,0,0,0-.9,1.57,18.58,18.58,0,0,1,.22,16.3,6,6,0,0,1-10.79,0,22.51,22.51,0,0,1-1.11-2.79,1.08,1.08,0,0,0-1.91-.3,22.93,22.93,0,0,0,4.82,32Z"/><path class="cls-3" d="M62.19,54l.51,1.27A23.93,23.93,0,0,0,71,46.77Z"/><path class="cls-4" d="M71.24,46.27,59.55,44.6l-2-11.93-7.46,9.51L38.77,37.93l4.51,11.23-6.45,5.31-2.89,2.38,11.82,1.68.15,0h0l2,11.93L55.38,61l11.31,4.24-4-10L62.19,54,71,46.77l.56-.46Zm-11,7,3.44,8.35-8.5-3.08-5.52,7.16L48.05,56.8l-9-1.19L46,49.79l-3.45-8.36,8.5,3.1,5.52-7.17,1.57,8.91,9,1.19Z"/><polygon class="cls-4" points="55.55 41.62 51.69 46.63 45.74 44.46 48.15 50.32 43.3 54.39 49.57 55.22 50.67 61.46 54.53 56.45 60.48 58.6 58.07 52.75 62.92 48.69 56.64 47.85 55.55 41.62"/></svg>