<svg xmlns="http://www.w3.org/2000/svg" viewBox="0 0 105.47 94.04"><path d="M52.74,92.49a8.54,8.54,0,0,1-7.47-4.31L2.72,14.48A8.62,8.62,0,0,1,10.18,1.54H95.29a8.63,8.63,0,0,1,7.47,12.94L60.2,88.18a8.53,8.53,0,0,1-7.46,4.31" fill="#f0ae00"/><path d="M95.29,3.09a7.08,7.08,0,0,1,6.13,10.62L58.87,87.41a7.08,7.08,0,0,1-12.26,0L4.05,13.71A7.08,7.08,0,0,1,10.18,3.09H95.29m0-3.09H10.18a10.17,10.17,0,0,0-8.8,15.25L43.93,89a10.16,10.16,0,0,0,17.61,0l42.55-73.7a10.06,10.06,0,0,0,0-10.17A10,10,0,0,0,95.29,0" fill="#f19e19"/><path d="M66.19 41.58l-6.46 20.68c.71 0 1.47-.1 2.33-.19 4.83-.55 4.28-3.47 4.28-3.47s3.89 1.4 7.24-2.88a7.59 7.59 0 0 0 1.06-7.78s2.92-1.55 3.06-6a8.94 8.94 0 0 0-1.7-5.77l-1.58-1.27zm-.09-15.21c-.1-.37-1.1-3.69-5.72-4.61S53.61 23 53.61 23a10.17 10.17 0 0 0-7-2.52c-4 0-7.39 1.41-8.58 5.42l-.38.07a6.93 6.93 0 1 0 1.05 12.4 5.54 5.54 0 0 0 8.14-1.66 5.76 5.76 0 0 0 6.83-.48h.11a.19.19 0 0 1 0 .08l.06-.11a30.92 30.92 0 0 1 2.49 9.2 8.25 8.25 0 0 1-.84 4.9c-.43.76-1.2 1.52-2.06 1.35-1.2-.24-1.64-1.78-1.78-3.51-2.27 5.28-6.29 9.27-11.86 8-4.79-1.05-6.79-5.07-7.47-9.52h0c-.18 4.55-.26 7.7 1.07 10a.83.83 0 0 1 .32-.14c1.84-.41 3.18.3 4.64 1.36 1.23.89 3.75 2 3.68 3.78a1.93 1.93 0 0 1-.08.43 14.7 14.7 0 0 0 .95.25 1.63 1.63 0 0 1 .57-1.56c2-1.73 4.4-2.22 8-2.31a3.33 3.33 0 0 1 2 .52 2.53 2.53 0 0 1 .77 3.33h2.32l9.54-30.46z" fill="#fff"/><path d="M38.35 57.87c-1.46-1.06-2.8-1.77-4.64-1.36a.83.83 0 0 0-.32.14 1.59 1.59 0 0 0-.8 1.49c.52 3 5.63 5.67 7.73 5.4A1.82 1.82 0 0 0 42 62.08a1.93 1.93 0 0 0 .08-.43c.02-1.78-2.5-2.89-3.73-3.78zM53.48 59a3.33 3.33 0 0 0-2-.52c-3.6.09-6 .58-8 2.31a1.63 1.63 0 0 0-.57 1.56 2.21 2.21 0 0 0 1.94 1.74 23.61 23.61 0 0 0 5-.17c1.36-.19 3.63-.27 4.43-1.57h0a2.53 2.53 0 0 0-.8-3.35zM39.8 56.16c5.57 1.24 9.59-2.75 11.86-8 .14 1.73.58 3.27 1.78 3.51.86.17 1.63-.59 2.06-1.35a8.25 8.25 0 0 0 .84-4.9 30.92 30.92 0 0 0-2.49-9.2l-.06.11a.19.19 0 0 0 0-.08h-.11a5.76 5.76 0 0 1-6.83.48 5.54 5.54 0 0 1-8.14 1.66 6.92 6.92 0 0 1-9.37-2c-.18.67-.34 1.34-.46 2-.48 2.76-1.41 8.32.13 11a1.78 1.78 0 0 0 2.27.89c.68-.29.92-2 1.05-3.57h0c.67 4.36 2.67 8.38 7.47 9.45zm5-5.64C44.76 52 41 54.89 41 54.89s-3.71-2.89-3.71-4.37S39 49 41 49s3.76.06 3.76 1.52z" fill="#ec6608"/><path d="M37.29 50.52c0 1.48 3.71 4.37 3.71 4.37s3.73-2.91 3.73-4.37S43.09 49 41 49s-3.71.06-3.71 1.52z" fill="#fff"/><path d="M66.1 41.66v-9.84l-9.53 30.52-.62 2a1.49 1.49 0 0 0 1 1.88 1.41 1.41 0 0 0 .45.07 1.5 1.5 0 0 0 1.43-1l.92-3 6.46-20.68z" fill="#ec6608"/><path d="M82.75,5.23H66.1V41.66l.09-.08,8.23-6.68L76,36.17l6.76,5.49ZM79.18,17.09H75.92V27.14a1.5,1.5,0,0,1-3,0v-10H69.67a1.5,1.5,0,0,1,0-3h3.25V10.9a1.5,1.5,0,0,1,3,0v3.19h3.26a1.5,1.5,0,0,1,0,3Z" fill="#c90c0f"/></svg>