<?xml version="1.0" encoding="utf-8"?>
<!-- Generator: Adobe Illustrator 24.2.0, SVG Export Plug-In . SVG Version: 6.00 Build 0)  -->
<svg version="1.1" id="Layer_1" xmlns="http://www.w3.org/2000/svg" x="0px" y="0px"
	 viewBox="0 0 87.87 87.87" style="enable-background:new 0 0 87.87 87.87;" xml:space="preserve">
<g>
	<path d="M39.56,77.1l-1.14,8.93c1.79,0.23,3.62,0.35,5.44,0.35c1.88,0,3.76-0.13,5.61-0.37l-1.18-8.92
		C45.42,77.47,42.43,77.47,39.56,77.1z"/>
	<path d="M69.72,10.28c-2.94-2.26-6.16-4.13-9.58-5.55l-3.46,8.31c2.69,1.12,5.23,2.59,7.55,4.37L69.72,10.28z"/>
	<path d="M4.69,60.3c1.43,3.41,3.3,6.63,5.57,9.57l7.12-5.5c-1.79-2.31-3.26-4.85-4.39-7.53L4.69,60.3z"/>
	<path d="M18.11,77.67c2.95,2.25,6.18,4.11,9.6,5.52l3.43-8.32c-2.69-1.11-5.24-2.57-7.56-4.35L18.11,77.67z"/>
	<path d="M56.7,74.82l3.46,8.31c3.41-1.42,6.63-3.29,9.57-5.55l-5.49-7.13C61.93,72.23,59.39,73.7,56.7,74.82z"/>
	<path d="M85.94,38.39l-8.92,1.17c0.19,1.44,0.28,2.91,0.28,4.38c0,1.45-0.1,2.92-0.28,4.36l8.93,1.15
		c0.24-1.82,0.36-3.67,0.36-5.51C86.3,42.08,86.18,40.22,85.94,38.39z"/>
	<path d="M70.41,64.26l7.14,5.48c2.26-2.94,4.12-6.17,5.54-9.59l-8.32-3.44C73.66,59.41,72.19,61.95,70.41,64.26z"/>
	<path d="M83.08,27.69c-1.42-3.42-3.28-6.64-5.54-9.58l-7.14,5.48c1.78,2.32,3.25,4.86,4.37,7.55L83.08,27.69z"/>
	<path d="M10.42,43.93c0-18.44,15-33.44,33.44-33.44c1.47,0,2.95,0.1,4.4,0.29l1.17-8.92c-1.84-0.24-3.71-0.36-5.58-0.36
		c-23.4,0-42.44,19.04-42.44,42.44c0,1.87,0.12,3.74,0.36,5.58l8.92-1.17C10.51,46.89,10.42,45.41,10.42,43.93z"/>
</g>
<path d="M61.85,37.81L35.3,20.19l-2.76,4.17L52.8,37.81H26.9V61.1h35.1V37.81H61.85z M57.01,56.1H31.9V42.81h25.1V56.1z"/>
</svg>
