<?xml version="1.0" encoding="utf-8"?>
<!-- Generator: Adobe Illustrator 24.2.0, SVG Export Plug-In . SVG Version: 6.00 Build 0)  -->
<svg version="1.1" id="Layer_1" xmlns="http://www.w3.org/2000/svg" x="0px" y="0px"
	 viewBox="0 0 87.87 87.87" style="enable-background:new 0 0 87.87 87.87;" xml:space="preserve">
<g>
	<path d="M4.74,60.22c1.42,3.41,3.28,6.63,5.54,9.57l7.13-5.49c-1.78-2.32-3.25-4.85-4.37-7.54L4.74,60.22z"/>
	<path d="M18.1,77.61c2.94,2.26,6.16,4.12,9.57,5.54l3.45-8.31c-2.69-1.12-5.22-2.58-7.54-4.37L18.1,77.61z"/>
	<path d="M43.94,1.5C20.54,1.5,1.5,20.54,1.5,43.94c0,1.86,0.12,3.74,0.36,5.57l8.92-1.17c-0.19-1.45-0.29-2.93-0.29-4.4
		c0-18.44,15-33.44,33.44-33.44c18.44,0,33.44,15,33.44,33.44c0,18.44-15,33.44-33.44,33.44c-1.47,0-2.95-0.1-4.4-0.29l-1.17,8.92
		c1.84,0.24,3.71,0.36,5.57,0.36c23.4,0,42.44-19.04,42.44-42.44C86.38,20.54,67.34,1.5,43.94,1.5z"/>
</g>
<path d="M57.21,33.16h-16.7c-7.06,0-11.79-8-11.84-8.08l-4.67,1.24v30.96l4.58,1.39c1.53-2.29,6.66-8.22,11.93-8.22h5.39L41.07,63.3
	l5.62,2.11l5.62-14.96h4.9c4.77,0,8.65-3.88,8.65-8.65S61.98,33.16,57.21,33.16z M29.01,50.7V33.24c2.75,2.52,6.65,4.92,11.51,4.92
	h6.32v7.3h-6.32C35.91,45.46,31.88,48.08,29.01,50.7z"/>
</svg>
