<svg xmlns="http://www.w3.org/2000/svg" xmlns:xlink="http://www.w3.org/1999/xlink" viewBox="0 0 87.87 87.87" width="117.16" height="117.16"><defs><clipPath id="A"><path d="M0 0h87.87v87.87H0z"/></clipPath><path id="B" d="M37.08 62.68c0 .77-.62 1.39-1.39 1.39s-1.39-.62-1.39-1.39.62-1.39 1.39-1.39a1.4 1.4 0 0 1 1.39 1.39z"/><path id="C" d="M48.08 62.68c0 .77-.62 1.39-1.39 1.39s-1.39-.62-1.39-1.39.62-1.39 1.39-1.39 1.39.63 1.39 1.39z"/></defs><g clip-path="url(#A)"><path d="M43.94 1.5C20.54 1.5 1.5 20.54 1.5 43.94s19.04 42.44 42.44 42.44 42.44-19.04 42.44-42.44S67.34 1.5 43.94 1.5zm0 75.88c-18.44 0-33.44-15-33.44-33.44s15-33.44 33.44-33.44 33.44 15 33.44 33.44-15.01 33.44-33.44 33.44zM66.76 29.4c-.78-.4-1.74-.11-2.15.68l-1.46 2.8-3.44-2.19.01-.01s-.08-.05-.2-.11l-.02-.01-.06-.03c-.56-.3-1.82-.96-2.26-1.04l-1.37-.21c-.06-.01-.12-.03-.18-.04l-.58-.06-1.18-.11h0l-4.2-.41c-.84-.07-1.58.51-1.72 1.33l-2.79 4.99a1.6 1.6 0 0 0 .61 2.17c.25.14.51.2.78.2.56 0 1.1-.29 1.39-.82l2.57-4.59 1.85.18-4.12 8.3a1.07 1.07 0 0 0-.15.22l-2.47 4.42-6.93.14a1.59 1.59 0 0 0-1.56 1.63c.02.87.73 1.56 1.59 1.56h.03l7.28-.15c.09 0 .18-.02.26-.03.09.01.17.03.26.03.56 0 1.1-.3 1.39-.82l2.86-5.11c.08.29.21.57.46.78l4.06 3.56-.34 8.12c-.04.88.65 1.62 1.53 1.66h.07a1.59 1.59 0 0 0 1.59-1.53l.36-8.71c.01-.34-.08-.65-.25-.92-.09-.24-.22-.46-.42-.64l-3.74-3.27 4.12-7.84 4.13 2.63c.15.23.34.43.6.56.24.12.49.18.74.18a1.58 1.58 0 0 0 1.41-.86l2.34-4.47c.38-.79.08-1.75-.7-2.16zm-7.79-.89a3.25 3.25 0 1 0-3.25-3.25c0 1.8 1.45 3.25 3.25 3.25z"/><path d="M49.92 29.4c-.78-.4-1.74-.11-2.15.68l-1.46 2.8-3.44-2.19.01-.01s-.08-.05-.2-.11l-.02-.01-.06-.03c-.56-.3-1.82-.96-2.26-1.04l-1.37-.21c-.06-.01-.12-.03-.18-.04l-.58-.06-1.18-.11h0l-4.2-.41c-.84-.07-1.58.51-1.72 1.33l-2.79 4.99a1.6 1.6 0 0 0 .61 2.17c.25.14.51.2.78.2.56 0 1.1-.29 1.39-.82l2.57-4.59 1.85.18-4.12 8.3a1.07 1.07 0 0 0-.15.22l-2.47 4.42h-6.97c-.88.02-1.54.89-1.53 1.77.02.87.73 1.56 1.59 1.56h.03l7.28-.15c.09 0 .18-.02.26-.03.09.01.17.03.26.03.56 0 1.1-.3 1.39-.82l2.86-5.11c.08.29.21.57.46.78l4.06 3.56-.34 8.12c-.04.88.65 1.62 1.53 1.66h.07a1.59 1.59 0 0 0 1.59-1.53l.36-8.71c.01-.34-.08-.65-.25-.92-.09-.24-.22-.46-.42-.64l-3.74-3.27 4.12-7.84 4.13 2.63c.15.23.34.43.6.56.24.12.49.18.74.18a1.58 1.58 0 0 0 1.41-.86l2.34-4.47c.39-.79.09-1.75-.69-2.16zm-7.8-.89a3.25 3.25 0 1 0 0-6.5 3.25 3.25 0 1 0 0 6.5z" fill-opacity=".5"/><path d="M31.58 62.68a3.27 3.27 0 0 1-3.27 3.27c-1.81 0-3.27-1.46-3.27-3.27a3.27 3.27 0 0 1 3.27-3.27 3.28 3.28 0 0 1 3.27 3.27zm31.26 0a3.27 3.27 0 0 1-3.27 3.27c-1.81 0-3.27-1.46-3.27-3.27a3.27 3.27 0 1 1 6.54 0z"/><use xlink:href="#B"/><path d="M42.58 62.68c0 .77-.62 1.39-1.39 1.39s-1.39-.62-1.39-1.39.62-1.39 1.39-1.39a1.4 1.4 0 0 1 1.39 1.39z"/><use xlink:href="#C"/><path d="M53.58 62.68c0 .77-.62 1.39-1.39 1.39s-1.39-.62-1.39-1.39.62-1.39 1.39-1.39 1.39.63 1.39 1.39z"/></g></svg>