<?xml version="1.0" encoding="utf-8"?>
<!-- Generator: Adobe Illustrator 24.2.0, SVG Export Plug-In . SVG Version: 6.00 Build 0)  -->
<svg version="1.1" id="Layer_1" xmlns="http://www.w3.org/2000/svg" x="0px" y="0px"
	 viewBox="0 0 87.87 87.87" style="enable-background:new 0 0 87.87 87.87;" xml:space="preserve">
<style type="text/css">
	.st0{fill:none;}
	.st1{clip-path:url(#SVGID_2_);fill:none;stroke:#231F20;stroke-width:0.864;}
	.st2{clip-path:url(#SVGID_4_);fill:none;stroke:#231F20;stroke-width:0.864;}
	.st3{clip-path:url(#SVGID_6_);fill:#231F20;}
	.st4{clip-path:url(#SVGID_6_);fill:url(#SVGID_7_);}
	.st5{clip-path:url(#SVGID_6_);fill:url(#SVGID_8_);}
</style>
<pattern  y="87.87" width="21.6" height="21.6" patternUnits="userSpaceOnUse" id="Unnamed_Pattern" viewBox="21.67 -21.6 21.6 21.6" style="overflow:visible;">
	<g>
		<rect x="21.67" y="-21.6" class="st0" width="21.6" height="21.6"/>
		<g>
			<defs>
				<rect id="SVGID_1_" x="21.67" y="-21.6" width="21.6" height="21.6"/>
			</defs>
			<clipPath id="SVGID_2_">
				<use xlink:href="#SVGID_1_"  style="overflow:visible;"/>
			</clipPath>
			<line class="st1" x1="43.2" y1="-20.52" x2="64.95" y2="-20.52"/>
			<line class="st1" x1="43.2" y1="-16.2" x2="64.95" y2="-16.2"/>
			<line class="st1" x1="43.2" y1="-11.88" x2="64.95" y2="-11.88"/>
			<line class="st1" x1="43.2" y1="-7.56" x2="64.95" y2="-7.56"/>
			<line class="st1" x1="43.2" y1="-3.24" x2="64.95" y2="-3.24"/>
			<line class="st1" x1="43.2" y1="-18.36" x2="64.95" y2="-18.36"/>
			<line class="st1" x1="43.2" y1="-14.04" x2="64.95" y2="-14.04"/>
			<line class="st1" x1="43.2" y1="-9.72" x2="64.95" y2="-9.72"/>
			<line class="st1" x1="43.2" y1="-5.4" x2="64.95" y2="-5.4"/>
			<line class="st1" x1="43.2" y1="-1.08" x2="64.95" y2="-1.08"/>
			<line class="st1" x1="43.2" y1="-20.52" x2="64.95" y2="-20.52"/>
			<line class="st1" x1="43.2" y1="-16.2" x2="64.95" y2="-16.2"/>
			<line class="st1" x1="43.2" y1="-11.88" x2="64.95" y2="-11.88"/>
			<line class="st1" x1="43.2" y1="-7.56" x2="64.95" y2="-7.56"/>
			<line class="st1" x1="43.2" y1="-3.24" x2="64.95" y2="-3.24"/>
			<line class="st1" x1="43.2" y1="-18.36" x2="64.95" y2="-18.36"/>
			<line class="st1" x1="43.2" y1="-14.04" x2="64.95" y2="-14.04"/>
			<line class="st1" x1="43.2" y1="-9.72" x2="64.95" y2="-9.72"/>
			<line class="st1" x1="43.2" y1="-5.4" x2="64.95" y2="-5.4"/>
			<line class="st1" x1="43.2" y1="-1.08" x2="64.95" y2="-1.08"/>
			<line class="st1" x1="21.6" y1="-20.52" x2="43.35" y2="-20.52"/>
			<line class="st1" x1="21.6" y1="-16.2" x2="43.35" y2="-16.2"/>
			<line class="st1" x1="21.6" y1="-11.88" x2="43.35" y2="-11.88"/>
			<line class="st1" x1="21.6" y1="-7.56" x2="43.35" y2="-7.56"/>
			<line class="st1" x1="21.6" y1="-3.24" x2="43.35" y2="-3.24"/>
			<line class="st1" x1="21.6" y1="-18.36" x2="43.35" y2="-18.36"/>
			<line class="st1" x1="21.6" y1="-14.04" x2="43.35" y2="-14.04"/>
			<line class="st1" x1="21.6" y1="-9.72" x2="43.35" y2="-9.72"/>
			<line class="st1" x1="21.6" y1="-5.4" x2="43.35" y2="-5.4"/>
			<line class="st1" x1="21.6" y1="-1.08" x2="43.35" y2="-1.08"/>
			<line class="st1" x1="43.2" y1="-20.52" x2="64.95" y2="-20.52"/>
			<line class="st1" x1="43.2" y1="-16.2" x2="64.95" y2="-16.2"/>
			<line class="st1" x1="43.2" y1="-11.88" x2="64.95" y2="-11.88"/>
			<line class="st1" x1="43.2" y1="-7.56" x2="64.95" y2="-7.56"/>
			<line class="st1" x1="43.2" y1="-3.24" x2="64.95" y2="-3.24"/>
			<line class="st1" x1="43.2" y1="-18.36" x2="64.95" y2="-18.36"/>
			<line class="st1" x1="43.2" y1="-14.04" x2="64.95" y2="-14.04"/>
			<line class="st1" x1="43.2" y1="-9.72" x2="64.95" y2="-9.72"/>
			<line class="st1" x1="43.2" y1="-5.4" x2="64.95" y2="-5.4"/>
			<line class="st1" x1="43.2" y1="-1.08" x2="64.95" y2="-1.08"/>
			<line class="st1" x1="21.6" y1="-20.52" x2="43.35" y2="-20.52"/>
			<line class="st1" x1="21.6" y1="-16.2" x2="43.35" y2="-16.2"/>
			<line class="st1" x1="21.6" y1="-11.88" x2="43.35" y2="-11.88"/>
			<line class="st1" x1="21.6" y1="-7.56" x2="43.35" y2="-7.56"/>
			<line class="st1" x1="21.6" y1="-3.24" x2="43.35" y2="-3.24"/>
			<line class="st1" x1="21.6" y1="-18.36" x2="43.35" y2="-18.36"/>
			<line class="st1" x1="21.6" y1="-14.04" x2="43.35" y2="-14.04"/>
			<line class="st1" x1="21.6" y1="-9.72" x2="43.35" y2="-9.72"/>
			<line class="st1" x1="21.6" y1="-5.4" x2="43.35" y2="-5.4"/>
			<line class="st1" x1="21.6" y1="-1.08" x2="43.35" y2="-1.08"/>
			<line class="st1" x1="0" y1="-20.52" x2="21.75" y2="-20.52"/>
			<line class="st1" x1="0" y1="-16.2" x2="21.75" y2="-16.2"/>
			<line class="st1" x1="0" y1="-11.88" x2="21.75" y2="-11.88"/>
			<line class="st1" x1="0" y1="-7.56" x2="21.75" y2="-7.56"/>
			<line class="st1" x1="0" y1="-3.24" x2="21.75" y2="-3.24"/>
			<line class="st1" x1="0" y1="-18.36" x2="21.75" y2="-18.36"/>
			<line class="st1" x1="0" y1="-14.04" x2="21.75" y2="-14.04"/>
			<line class="st1" x1="0" y1="-9.72" x2="21.75" y2="-9.72"/>
			<line class="st1" x1="0" y1="-5.4" x2="21.75" y2="-5.4"/>
			<line class="st1" x1="0" y1="-1.08" x2="21.75" y2="-1.08"/>
			<line class="st1" x1="21.6" y1="-20.52" x2="43.35" y2="-20.52"/>
			<line class="st1" x1="21.6" y1="-16.2" x2="43.35" y2="-16.2"/>
			<line class="st1" x1="21.6" y1="-11.88" x2="43.35" y2="-11.88"/>
			<line class="st1" x1="21.6" y1="-7.56" x2="43.35" y2="-7.56"/>
			<line class="st1" x1="21.6" y1="-3.24" x2="43.35" y2="-3.24"/>
			<line class="st1" x1="21.6" y1="-18.36" x2="43.35" y2="-18.36"/>
			<line class="st1" x1="21.6" y1="-14.04" x2="43.35" y2="-14.04"/>
			<line class="st1" x1="21.6" y1="-9.72" x2="43.35" y2="-9.72"/>
			<line class="st1" x1="21.6" y1="-5.4" x2="43.35" y2="-5.4"/>
			<line class="st1" x1="21.6" y1="-1.08" x2="43.35" y2="-1.08"/>
			<line class="st1" x1="0" y1="-20.52" x2="21.75" y2="-20.52"/>
			<line class="st1" x1="0" y1="-16.2" x2="21.75" y2="-16.2"/>
			<line class="st1" x1="0" y1="-11.88" x2="21.75" y2="-11.88"/>
			<line class="st1" x1="0" y1="-7.56" x2="21.75" y2="-7.56"/>
			<line class="st1" x1="0" y1="-3.24" x2="21.75" y2="-3.24"/>
			<line class="st1" x1="0" y1="-18.36" x2="21.75" y2="-18.36"/>
			<line class="st1" x1="0" y1="-14.04" x2="21.75" y2="-14.04"/>
			<line class="st1" x1="0" y1="-9.72" x2="21.75" y2="-9.72"/>
			<line class="st1" x1="0" y1="-5.4" x2="21.75" y2="-5.4"/>
			<line class="st1" x1="0" y1="-1.08" x2="21.75" y2="-1.08"/>
			<line class="st1" x1="0" y1="-20.52" x2="21.75" y2="-20.52"/>
			<line class="st1" x1="0" y1="-16.2" x2="21.75" y2="-16.2"/>
			<line class="st1" x1="0" y1="-11.88" x2="21.75" y2="-11.88"/>
			<line class="st1" x1="0" y1="-7.56" x2="21.75" y2="-7.56"/>
			<line class="st1" x1="0" y1="-3.24" x2="21.75" y2="-3.24"/>
			<line class="st1" x1="0" y1="-18.36" x2="21.75" y2="-18.36"/>
			<line class="st1" x1="0" y1="-14.04" x2="21.75" y2="-14.04"/>
			<line class="st1" x1="0" y1="-9.72" x2="21.75" y2="-9.72"/>
			<line class="st1" x1="0" y1="-5.4" x2="21.75" y2="-5.4"/>
			<line class="st1" x1="0" y1="-1.08" x2="21.75" y2="-1.08"/>
		</g>
	</g>
</pattern>
<pattern  y="87.87" width="21.6" height="21.6" patternUnits="userSpaceOnUse" id="Unnamed_Pattern_2" viewBox="21.67 -21.6 21.6 21.6" style="overflow:visible;">
	<g>
		<rect x="21.67" y="-21.6" class="st0" width="21.6" height="21.6"/>
		<g>
			<defs>
				<rect id="SVGID_3_" x="21.67" y="-21.6" width="21.6" height="21.6"/>
			</defs>
			<clipPath id="SVGID_4_">
				<use xlink:href="#SVGID_3_"  style="overflow:visible;"/>
			</clipPath>
			<line class="st2" x1="43.2" y1="-20.52" x2="64.95" y2="-20.52"/>
			<line class="st2" x1="43.2" y1="-16.2" x2="64.95" y2="-16.2"/>
			<line class="st2" x1="43.2" y1="-11.88" x2="64.95" y2="-11.88"/>
			<line class="st2" x1="43.2" y1="-7.56" x2="64.95" y2="-7.56"/>
			<line class="st2" x1="43.2" y1="-3.24" x2="64.95" y2="-3.24"/>
			<line class="st2" x1="43.2" y1="-18.36" x2="64.95" y2="-18.36"/>
			<line class="st2" x1="43.2" y1="-14.04" x2="64.95" y2="-14.04"/>
			<line class="st2" x1="43.2" y1="-9.72" x2="64.95" y2="-9.72"/>
			<line class="st2" x1="43.2" y1="-5.4" x2="64.95" y2="-5.4"/>
			<line class="st2" x1="43.2" y1="-1.08" x2="64.95" y2="-1.08"/>
			<line class="st2" x1="43.2" y1="-20.52" x2="64.95" y2="-20.52"/>
			<line class="st2" x1="43.2" y1="-16.2" x2="64.95" y2="-16.2"/>
			<line class="st2" x1="43.2" y1="-11.88" x2="64.95" y2="-11.88"/>
			<line class="st2" x1="43.2" y1="-7.56" x2="64.95" y2="-7.56"/>
			<line class="st2" x1="43.2" y1="-3.24" x2="64.95" y2="-3.24"/>
			<line class="st2" x1="43.2" y1="-18.36" x2="64.95" y2="-18.36"/>
			<line class="st2" x1="43.2" y1="-14.04" x2="64.95" y2="-14.04"/>
			<line class="st2" x1="43.2" y1="-9.72" x2="64.95" y2="-9.72"/>
			<line class="st2" x1="43.2" y1="-5.4" x2="64.95" y2="-5.4"/>
			<line class="st2" x1="43.2" y1="-1.08" x2="64.95" y2="-1.08"/>
			<line class="st2" x1="21.6" y1="-20.52" x2="43.35" y2="-20.52"/>
			<line class="st2" x1="21.6" y1="-16.2" x2="43.35" y2="-16.2"/>
			<line class="st2" x1="21.6" y1="-11.88" x2="43.35" y2="-11.88"/>
			<line class="st2" x1="21.6" y1="-7.56" x2="43.35" y2="-7.56"/>
			<line class="st2" x1="21.6" y1="-3.24" x2="43.35" y2="-3.24"/>
			<line class="st2" x1="21.6" y1="-18.36" x2="43.35" y2="-18.36"/>
			<line class="st2" x1="21.6" y1="-14.04" x2="43.35" y2="-14.04"/>
			<line class="st2" x1="21.6" y1="-9.72" x2="43.35" y2="-9.72"/>
			<line class="st2" x1="21.6" y1="-5.4" x2="43.35" y2="-5.4"/>
			<line class="st2" x1="21.6" y1="-1.08" x2="43.35" y2="-1.08"/>
			<line class="st2" x1="43.2" y1="-20.52" x2="64.95" y2="-20.52"/>
			<line class="st2" x1="43.2" y1="-16.2" x2="64.95" y2="-16.2"/>
			<line class="st2" x1="43.2" y1="-11.88" x2="64.95" y2="-11.88"/>
			<line class="st2" x1="43.2" y1="-7.56" x2="64.95" y2="-7.56"/>
			<line class="st2" x1="43.2" y1="-3.24" x2="64.95" y2="-3.24"/>
			<line class="st2" x1="43.2" y1="-18.36" x2="64.95" y2="-18.36"/>
			<line class="st2" x1="43.2" y1="-14.04" x2="64.95" y2="-14.04"/>
			<line class="st2" x1="43.2" y1="-9.72" x2="64.95" y2="-9.72"/>
			<line class="st2" x1="43.2" y1="-5.4" x2="64.95" y2="-5.4"/>
			<line class="st2" x1="43.2" y1="-1.08" x2="64.95" y2="-1.08"/>
			<line class="st2" x1="21.6" y1="-20.52" x2="43.35" y2="-20.52"/>
			<line class="st2" x1="21.6" y1="-16.2" x2="43.35" y2="-16.2"/>
			<line class="st2" x1="21.6" y1="-11.88" x2="43.35" y2="-11.88"/>
			<line class="st2" x1="21.6" y1="-7.56" x2="43.35" y2="-7.56"/>
			<line class="st2" x1="21.6" y1="-3.24" x2="43.35" y2="-3.24"/>
			<line class="st2" x1="21.6" y1="-18.36" x2="43.35" y2="-18.36"/>
			<line class="st2" x1="21.6" y1="-14.04" x2="43.35" y2="-14.04"/>
			<line class="st2" x1="21.6" y1="-9.72" x2="43.35" y2="-9.72"/>
			<line class="st2" x1="21.6" y1="-5.4" x2="43.35" y2="-5.4"/>
			<line class="st2" x1="21.6" y1="-1.08" x2="43.35" y2="-1.08"/>
			<line class="st2" x1="0" y1="-20.52" x2="21.75" y2="-20.52"/>
			<line class="st2" x1="0" y1="-16.2" x2="21.75" y2="-16.2"/>
			<line class="st2" x1="0" y1="-11.88" x2="21.75" y2="-11.88"/>
			<line class="st2" x1="0" y1="-7.56" x2="21.75" y2="-7.56"/>
			<line class="st2" x1="0" y1="-3.24" x2="21.75" y2="-3.24"/>
			<line class="st2" x1="0" y1="-18.36" x2="21.75" y2="-18.36"/>
			<line class="st2" x1="0" y1="-14.04" x2="21.75" y2="-14.04"/>
			<line class="st2" x1="0" y1="-9.72" x2="21.75" y2="-9.72"/>
			<line class="st2" x1="0" y1="-5.4" x2="21.75" y2="-5.4"/>
			<line class="st2" x1="0" y1="-1.08" x2="21.75" y2="-1.08"/>
			<line class="st2" x1="21.6" y1="-20.52" x2="43.35" y2="-20.52"/>
			<line class="st2" x1="21.6" y1="-16.2" x2="43.35" y2="-16.2"/>
			<line class="st2" x1="21.6" y1="-11.88" x2="43.35" y2="-11.88"/>
			<line class="st2" x1="21.6" y1="-7.56" x2="43.35" y2="-7.56"/>
			<line class="st2" x1="21.6" y1="-3.24" x2="43.35" y2="-3.24"/>
			<line class="st2" x1="21.6" y1="-18.36" x2="43.35" y2="-18.36"/>
			<line class="st2" x1="21.6" y1="-14.04" x2="43.35" y2="-14.04"/>
			<line class="st2" x1="21.6" y1="-9.72" x2="43.35" y2="-9.72"/>
			<line class="st2" x1="21.6" y1="-5.4" x2="43.35" y2="-5.4"/>
			<line class="st2" x1="21.6" y1="-1.08" x2="43.35" y2="-1.08"/>
			<line class="st2" x1="0" y1="-20.52" x2="21.75" y2="-20.52"/>
			<line class="st2" x1="0" y1="-16.2" x2="21.75" y2="-16.2"/>
			<line class="st2" x1="0" y1="-11.88" x2="21.75" y2="-11.88"/>
			<line class="st2" x1="0" y1="-7.56" x2="21.75" y2="-7.56"/>
			<line class="st2" x1="0" y1="-3.24" x2="21.75" y2="-3.24"/>
			<line class="st2" x1="0" y1="-18.36" x2="21.75" y2="-18.36"/>
			<line class="st2" x1="0" y1="-14.04" x2="21.75" y2="-14.04"/>
			<line class="st2" x1="0" y1="-9.72" x2="21.75" y2="-9.72"/>
			<line class="st2" x1="0" y1="-5.4" x2="21.75" y2="-5.4"/>
			<line class="st2" x1="0" y1="-1.08" x2="21.75" y2="-1.08"/>
			<line class="st2" x1="0" y1="-20.52" x2="21.75" y2="-20.52"/>
			<line class="st2" x1="0" y1="-16.2" x2="21.75" y2="-16.2"/>
			<line class="st2" x1="0" y1="-11.88" x2="21.75" y2="-11.88"/>
			<line class="st2" x1="0" y1="-7.56" x2="21.75" y2="-7.56"/>
			<line class="st2" x1="0" y1="-3.24" x2="21.75" y2="-3.24"/>
			<line class="st2" x1="0" y1="-18.36" x2="21.75" y2="-18.36"/>
			<line class="st2" x1="0" y1="-14.04" x2="21.75" y2="-14.04"/>
			<line class="st2" x1="0" y1="-9.72" x2="21.75" y2="-9.72"/>
			<line class="st2" x1="0" y1="-5.4" x2="21.75" y2="-5.4"/>
			<line class="st2" x1="0" y1="-1.08" x2="21.75" y2="-1.08"/>
		</g>
	</g>
</pattern>
<g>
	<defs>
		<rect id="SVGID_5_" y="0" width="87.87" height="87.87"/>
	</defs>
	<clipPath id="SVGID_6_">
		<use xlink:href="#SVGID_5_"  style="overflow:visible;"/>
	</clipPath>
	<path class="st3" d="M43.94,1.5C20.54,1.5,1.5,20.54,1.5,43.94c0,23.4,19.04,42.44,42.44,42.44c23.4,0,42.44-19.04,42.44-42.44
		C86.38,20.54,67.34,1.5,43.94,1.5 M43.94,77.38c-18.44,0-33.44-15-33.44-33.44c0-18.44,15-33.44,33.44-33.44
		c18.44,0,33.44,15,33.44,33.44C77.38,62.38,62.37,77.38,43.94,77.38"/>
	<path class="st3" d="M66.76,29.4c-0.78-0.4-1.74-0.11-2.15,0.68l-1.46,2.8l-3.44-2.19l0.01-0.01c0,0-0.08-0.05-0.2-0.11l-0.02-0.01
		c-0.02-0.01-0.04-0.02-0.06-0.03c-0.56-0.3-1.82-0.96-2.26-1.04c-0.45-0.08-0.92-0.15-1.37-0.21c-0.06-0.01-0.12-0.03-0.18-0.04
		l-0.58-0.06c-0.68-0.08-1.18-0.11-1.18-0.11v0l-4.2-0.41c-0.84-0.07-1.58,0.51-1.72,1.33l-2.79,4.99
		c-0.43,0.77-0.15,1.74,0.61,2.17c0.25,0.14,0.51,0.2,0.78,0.2c0.56,0,1.1-0.29,1.39-0.82l2.57-4.59l1.85,0.18l-4.12,8.3
		c-0.06,0.07-0.11,0.14-0.15,0.22l-2.47,4.42l-6.93,0.14c-0.88,0.02-1.58,0.74-1.56,1.63c0.02,0.87,0.73,1.56,1.59,1.56h0.03
		l7.28-0.15c0.09,0,0.18-0.02,0.26-0.03c0.09,0.01,0.17,0.03,0.26,0.03c0.56,0,1.1-0.3,1.39-0.82l2.86-5.11
		c0.08,0.29,0.21,0.57,0.46,0.78l4.06,3.56l-0.34,8.12c-0.04,0.88,0.65,1.62,1.53,1.66c0.02,0,0.04,0,0.07,0
		c0.85,0,1.56-0.67,1.59-1.53l0.36-8.71c0.01-0.34-0.08-0.65-0.25-0.92c-0.09-0.24-0.22-0.46-0.42-0.64l-3.74-3.27l4.12-7.84
		l4.13,2.63c0.15,0.23,0.34,0.43,0.6,0.56c0.24,0.12,0.49,0.18,0.74,0.18c0.57,0,1.13-0.31,1.41-0.86l2.34-4.47
		C67.84,30.77,67.54,29.81,66.76,29.4"/>
	<path class="st3" d="M58.97,28.51c1.79,0,3.25-1.45,3.25-3.25c0-1.79-1.45-3.25-3.25-3.25c-1.79,0-3.25,1.45-3.25,3.25
		C55.72,27.06,57.17,28.51,58.97,28.51"/>
	<pattern  id="SVGID_7_" xlink:href="#Unnamed_Pattern" patternTransform="matrix(1.1433 0 0 -1.1433 2352.0242 205.9421)">
	</pattern>
	<path class="st4" d="M49.92,29.4c-0.78-0.4-1.74-0.11-2.15,0.68l-1.46,2.8l-3.44-2.19l0.01-0.01c0,0-0.08-0.05-0.2-0.11l-0.02-0.01
		c-0.02-0.01-0.04-0.02-0.06-0.03c-0.56-0.3-1.82-0.96-2.26-1.04c-0.45-0.08-0.92-0.15-1.37-0.21c-0.06-0.01-0.12-0.03-0.18-0.04
		l-0.58-0.06c-0.68-0.08-1.18-0.11-1.18-0.11l0,0l-4.2-0.41c-0.84-0.07-1.58,0.51-1.72,1.33l-2.79,4.99
		c-0.43,0.77-0.15,1.74,0.61,2.17c0.25,0.14,0.51,0.2,0.78,0.2c0.56,0,1.1-0.29,1.39-0.82l2.57-4.59l1.85,0.18l-4.12,8.3
		c-0.06,0.07-0.11,0.14-0.15,0.22l-2.47,4.42l-6.97,0c-0.88,0.02-1.54,0.89-1.53,1.77c0.02,0.87,0.73,1.56,1.59,1.56h0.03l7.28-0.15
		c0.09,0,0.18-0.02,0.26-0.03c0.09,0.01,0.17,0.03,0.26,0.03c0.56,0,1.1-0.3,1.39-0.82l2.86-5.11c0.08,0.29,0.21,0.57,0.46,0.78
		l4.06,3.56l-0.34,8.12c-0.04,0.88,0.65,1.62,1.53,1.66c0.02,0,0.04,0,0.07,0c0.85,0,1.56-0.67,1.59-1.53l0.36-8.71
		c0.01-0.34-0.08-0.65-0.25-0.92c-0.09-0.24-0.22-0.46-0.42-0.64l-3.74-3.27l4.12-7.84l4.13,2.63c0.15,0.23,0.34,0.43,0.6,0.56
		c0.24,0.12,0.49,0.18,0.74,0.18c0.57,0,1.13-0.31,1.41-0.86l2.34-4.47C51,30.77,50.7,29.81,49.92,29.4"/>
	<pattern  id="SVGID_8_" xlink:href="#Unnamed_Pattern_2" patternTransform="matrix(1.1433 0 0 -1.1433 2352.0242 205.9421)">
	</pattern>
	<path class="st5" d="M42.12,28.51c1.79,0,3.25-1.45,3.25-3.25c0-1.79-1.45-3.25-3.25-3.25c-1.79,0-3.25,1.45-3.25,3.25
		C38.87,27.06,40.33,28.51,42.12,28.51"/>
	<path class="st3" d="M31.58,62.68c0,1.81-1.47,3.27-3.27,3.27c-1.81,0-3.27-1.46-3.27-3.27c0-1.81,1.47-3.27,3.27-3.27
		C30.11,59.41,31.58,60.88,31.58,62.68"/>
	<path class="st3" d="M62.84,62.68c0,1.81-1.47,3.27-3.27,3.27c-1.81,0-3.27-1.46-3.27-3.27c0-1.81,1.47-3.27,3.27-3.27
		C61.38,59.41,62.84,60.88,62.84,62.68"/>
	<path class="st3" d="M37.08,62.68c0,0.77-0.62,1.39-1.39,1.39c-0.77,0-1.39-0.62-1.39-1.39c0-0.77,0.62-1.39,1.39-1.39
		C36.45,61.29,37.08,61.92,37.08,62.68"/>
	<path class="st3" d="M42.58,62.68c0,0.77-0.62,1.39-1.39,1.39c-0.77,0-1.39-0.62-1.39-1.39c0-0.77,0.62-1.39,1.39-1.39
		C41.95,61.29,42.58,61.92,42.58,62.68"/>
	<path class="st3" d="M48.08,62.68c0,0.77-0.62,1.39-1.39,1.39c-0.77,0-1.39-0.62-1.39-1.39c0-0.77,0.62-1.39,1.39-1.39
		C47.46,61.29,48.08,61.92,48.08,62.68"/>
	<path class="st3" d="M53.58,62.68c0,0.77-0.62,1.39-1.39,1.39c-0.77,0-1.39-0.62-1.39-1.39c0-0.77,0.62-1.39,1.39-1.39
		C52.96,61.29,53.58,61.92,53.58,62.68"/>
</g>
</svg>
