<?xml version="1.0" encoding="utf-8"?>
<!-- Generator: Adobe Illustrator 24.2.0, SVG Export Plug-In . SVG Version: 6.00 Build 0)  -->
<svg version="1.1" id="Layer_1" xmlns="http://www.w3.org/2000/svg" x="0px" y="0px"
	 viewBox="0 0 87.87 87.87" style="enable-background:new 0 0 87.87 87.87;" xml:space="preserve">
<path d="M43.94,1.5C20.54,1.5,1.5,20.54,1.5,43.94c0,23.4,19.04,42.44,42.44,42.44c23.4,0,42.44-19.04,42.44-42.44
	C86.38,20.54,67.34,1.5,43.94,1.5z M43.94,77.38c-18.44,0-33.44-15-33.44-33.44c0-18.44,15-33.44,33.44-33.44
	c18.44,0,33.44,15,33.44,33.44C77.38,62.38,62.38,77.38,43.94,77.38z"/>
<path d="M63.72,40.33h-6.87V22.15h-5v4H36.02v-4h-5v18.18h-6.87l16.03,14.26l-11.12,9.89l3.32,3.74l11.55-10.28l11.55,10.28
	l3.32-3.74L47.7,54.59L63.72,40.33z M36.02,34.92h15.83v5.41H36.02V34.92z M37.29,45.33h13.29l-6.64,5.91L37.29,45.33z"/>
</svg>
