<?xml version="1.0" encoding="iso-8859-1"?>
<!-- Generator: Adobe Illustrator 22.1.0, SVG Export Plug-In . SVG Version: 6.00 Build 0)  -->
<svg version="1.1" xmlns="http://www.w3.org/2000/svg" xmlns:xlink="http://www.w3.org/1999/xlink" x="0px" y="0px"
	 viewBox="0 0 90.709 90.709" style="enable-background:new 0 0 90.709 90.709;" xml:space="preserve">
<g id="ratownik-1">
	<g>
		<g>
			
				<ellipse transform="matrix(0.9239 -0.3827 0.3827 0.9239 -13.9041 20.8088)" style="fill:#194093;" cx="45.354" cy="45.355" rx="43.52" ry="43.52"/>
			<g>
				<path style="fill:#252E78;" d="M45.354,2.835c23.483,0,42.52,19.037,42.52,42.52s-19.037,42.52-42.52,42.52
					s-42.52-19.037-42.52-42.52S21.871,2.835,45.354,2.835 M45.354,0.835c-24.548,0-44.52,19.971-44.52,44.52
					s19.971,44.52,44.52,44.52s44.52-19.971,44.52-44.52S69.903,0.835,45.354,0.835L45.354,0.835z"/>
			</g>
		</g>
	</g>
</g>
<g id="Warstwa_4">
	<g>
		<g>
			<path style="fill:#FFFFFF;" d="M34.597,63.627c-10.076,0-18.273-8.197-18.273-18.272c0-10.076,8.197-18.273,18.273-18.273
				c6.536,0,16.529,7.235,25.276,14.896c5.258-4.805,10.287-9.88,14.136-14.084c0.933-1.017,2.513-1.088,3.532-0.155
				c1.019,0.933,1.088,2.514,0.155,3.532c-1.297,1.416-6.972,7.539-14.067,14.085C70.725,51.9,76.4,58.023,77.696,59.439
				c0.933,1.019,0.862,2.6-0.155,3.532c-1.018,0.934-2.6,0.862-3.532-0.155c-3.849-4.203-8.88-9.278-14.137-14.083
				C51.125,56.393,41.133,63.627,34.597,63.627z M34.597,32.081c-7.319,0-13.273,5.954-13.273,13.273
				c0,7.318,5.954,13.272,13.273,13.272c4.614,0,13.049-5.95,21.485-13.271C47.645,38.032,39.209,32.081,34.597,32.081z"/>
		</g>
		<path style="fill:#F8C409;" d="M13.012,59.439c-0.933,1.019-0.863,2.6,0.155,3.532c1.019,0.932,2.599,0.862,3.532-0.155
			c1.404-1.534,2.969-3.186,4.642-4.896c-1.175-1.238-2.167-2.626-2.95-4.13C15.653,56.578,13.704,58.683,13.012,59.439z"/>
		<path style="fill:#F8C409;" d="M56.112,32.081c7.318,0,13.272,5.954,13.272,13.273c0,1.639-0.313,3.203-0.859,4.654
			c1.377,1.346,2.648,2.617,3.783,3.772c1.319-2.524,2.076-5.387,2.076-8.427c0-10.076-8.197-18.273-18.272-18.273
			c-3.006,0-6.746,1.541-10.757,3.939c1.524,0.911,3.084,1.941,4.662,3.066C52.405,32.823,54.497,32.081,56.112,32.081z"/>
		<path style="fill:#F8C409;" d="M65.823,54.371c-2.425,2.61-5.876,4.256-9.712,4.256c-4.611,0-13.047-5.951-21.484-13.273
			c3.681-3.195,7.362-6.128,10.725-8.42c-1.642-1.119-3.205-2.08-4.658-2.849c-3.3,2.353-6.662,5.091-9.858,7.891
			c-5.257-4.805-10.288-9.88-14.137-14.083c-0.933-1.018-2.514-1.088-3.532-0.155s-1.088,2.514-0.155,3.532
			c1.296,1.416,6.972,7.539,14.067,14.084c-1.737,1.602-3.387,3.178-4.91,4.667c0.607,1.616,1.527,3.093,2.707,4.361
			c1.916-1.879,3.92-3.784,5.96-5.648c8.748,7.66,18.739,14.895,25.275,14.895c5.213,0,9.911-2.206,13.243-5.72
			C68.223,56.75,67.042,55.566,65.823,54.371z"/>
	</g>
</g>
</svg>
