<svg xmlns="http://www.w3.org/2000/svg" viewBox="0 0 90.709 90.709"><circle transform="matrix(.9239 -.3827 .3827 .9239 -13.9041 20.8088)" cx="45.354" cy="45.355" r="43.52" fill="#194093"/><path d="M45.354 2.835c23.483 0 42.52 19.037 42.52 42.52s-19.037 42.52-42.52 42.52-42.52-19.037-42.52-42.52 19.037-42.52 42.52-42.52m0-2C20.806.835.834 20.806.834 45.355s19.971 44.52 44.52 44.52 44.52-19.971 44.52-44.52S69.903.835 45.354.835h0z" fill="#252e78"/><path d="M34.597 63.627c-10.076 0-18.273-8.197-18.273-18.272s8.197-18.273 18.273-18.273c6.536 0 16.529 7.235 25.276 14.896 5.258-4.805 10.287-9.88 14.136-14.084a2.5 2.5 0 0 1 3.687 3.377c-1.297 1.416-6.972 7.539-14.067 14.085a252.16 252.16 0 0 1 14.067 14.083 2.5 2.5 0 0 1-3.687 3.377c-3.849-4.203-8.88-9.278-14.137-14.083-8.747 7.66-18.739 14.894-25.275 14.894zm0-31.546a13.29 13.29 0 0 0-13.273 13.273 13.29 13.29 0 0 0 13.273 13.272c4.614 0 13.049-5.95 21.485-13.271-8.437-7.323-16.873-13.274-21.485-13.274z" fill="#fff"/><g fill="#f8c409"><path d="M13.012 59.439a2.5 2.5 0 0 0 3.687 3.377l4.642-4.896a18.22 18.22 0 0 1-2.95-4.13l-5.379 5.649zm43.1-27.358a13.29 13.29 0 0 1 13.272 13.273c0 1.639-.313 3.203-.859 4.654l3.783 3.772a18.14 18.14 0 0 0 2.076-8.427c0-10.076-8.197-18.273-18.272-18.273-3.006 0-6.746 1.541-10.757 3.939 1.524.911 3.084 1.941 4.662 3.066 2.388-1.262 4.48-2.004 6.095-2.004z"/><path d="M65.823 54.371c-2.425 2.61-5.876 4.256-9.712 4.256-4.611 0-13.047-5.951-21.484-13.273 3.681-3.195 7.362-6.128 10.725-8.42-1.642-1.119-3.205-2.08-4.658-2.849-3.3 2.353-6.662 5.091-9.858 7.891-5.257-4.805-10.288-9.88-14.137-14.083a2.5 2.5 0 0 0-3.687 3.377 252.78 252.78 0 0 0 14.067 14.084l-4.91 4.667c.607 1.616 1.527 3.093 2.707 4.361 1.916-1.879 3.92-3.784 5.96-5.648 8.748 7.66 18.739 14.895 25.275 14.895 5.213 0 9.911-2.206 13.243-5.72l-3.531-3.538z"/></g></svg>