<?xml version="1.0" encoding="iso-8859-1"?>
<!-- Generator: Adobe Illustrator 22.1.0, SVG Export Plug-In . SVG Version: 6.00 Build 0)  -->
<svg version="1.1" xmlns="http://www.w3.org/2000/svg" xmlns:xlink="http://www.w3.org/1999/xlink" x="0px" y="0px"
	 viewBox="0 0 90.709 90.709" style="enable-background:new 0 0 90.709 90.709;" xml:space="preserve">
<g id="ratownik-1">
	<g>
		<g>
			
				<ellipse transform="matrix(0.9239 -0.3827 0.3827 0.9239 -13.9041 20.8088)" style="fill:#194093;" cx="45.354" cy="45.355" rx="43.52" ry="43.52"/>
			<g>
				<path style="fill:#252E78;" d="M45.354,2.835c23.483,0,42.52,19.037,42.52,42.52s-19.037,42.52-42.52,42.52
					s-42.52-19.037-42.52-42.52S21.871,2.835,45.354,2.835 M45.354,0.835c-24.548,0-44.52,19.971-44.52,44.52
					s19.971,44.52,44.52,44.52s44.52-19.971,44.52-44.52S69.903,0.835,45.354,0.835L45.354,0.835z"/>
			</g>
		</g>
	</g>
</g>
<g id="Warstwa_4">
	<g>
		<g>
			<path style="fill:#F8C409;" d="M26.753,17.405l-5.81,5.502c7.787,10.254,15.317,17.785,27.129,28.039
				c7.267,6.571,16.387,10.03,17.308,19.668l2.023,2.698l6.235-3.949C66.167,58.228,58.756,51.45,49.503,43.881
				c-6.257-5.98-11.56-10.061-14.855-18.58L26.753,17.405z"/>
		</g>
		<g>
			<path style="fill:#FFFFFF;" d="M27.054,14.856c-5.29,5.187-9.61,10.495-18.291,15.257c2.591,3.686,5.108,6.691,11.379,10.367
				c2.497-2.742,2.594-5.725,2.445-8.682c-0.222-4.415,3.768-2.183,6.489-4.637c2.301-2.075,1.824-3.849,4.046-5.901L27.054,14.856z
				"/>
		</g>
		<path style="fill:#FFFFFF;" d="M75.1,25.864c-2.263-4.962-5.65-9.021-11.284-11.285c-10.449,8.927-13.754,16.757-15.961,24.417
			L18.177,68.674l-3.256-3.256c-0.78-0.781-2.048-0.781-2.828,0c-0.781,0.781-0.781,2.047,0,2.828l9.34,9.34
			c0.39,0.391,0.902,0.586,1.414,0.586s1.024-0.195,1.414-0.586c0.781-0.781,0.781-2.047,0-2.828l-3.256-3.256l29.68-29.68
			C58.345,39.614,66.173,36.309,75.1,25.864z"/>
	</g>
</g>
</svg>
