<svg xmlns="http://www.w3.org/2000/svg" viewBox="0 0 90.709 90.709"><circle transform="matrix(.9239 -.3827 .3827 .9239 -13.9041 20.8088)" cx="45.354" cy="45.355" r="43.52" fill="#194093"/><path d="M45.354 2.835c23.483 0 42.52 19.037 42.52 42.52s-19.037 42.52-42.52 42.52-42.52-19.037-42.52-42.52 19.037-42.52 42.52-42.52m0-2C20.806.835.834 20.806.834 45.355s19.971 44.52 44.52 44.52 44.52-19.971 44.52-44.52S69.903.835 45.354.835h0z" fill="#252e78"/><path d="M26.753 17.405l-5.81 5.502C28.73 33.161 36.26 40.692 48.072 50.946c7.267 6.571 16.387 10.03 17.308 19.668l2.023 2.698 6.235-3.949C66.167 58.228 58.756 51.45 49.503 43.881c-6.257-5.98-11.56-10.061-14.855-18.58l-7.895-7.896z" fill="#f8c409"/><path d="M27.054 14.856c-5.29 5.187-9.61 10.495-18.291 15.257 2.591 3.686 5.108 6.691 11.379 10.367 2.497-2.742 2.594-5.725 2.445-8.682-.222-4.415 3.768-2.183 6.489-4.637 2.301-2.075 1.824-3.849 4.046-5.901l-6.068-6.404zM75.1 25.864c-2.263-4.962-5.65-9.021-11.284-11.285-10.449 8.927-13.754 16.757-15.961 24.417L18.177 68.674l-3.256-3.256a2 2 0 0 0-2.828 2.828l9.34 9.34a1.99 1.99 0 0 0 2.828 0 2 2 0 0 0 0-2.828l-3.256-3.256 29.68-29.68c7.66-2.208 15.488-5.513 24.415-15.958z" fill="#fff"/></svg>