<?xml version="1.0" encoding="iso-8859-1"?>
<!-- Generator: Adobe Illustrator 22.1.0, SVG Export Plug-In . SVG Version: 6.00 Build 0)  -->
<svg version="1.1" xmlns="http://www.w3.org/2000/svg" xmlns:xlink="http://www.w3.org/1999/xlink" x="0px" y="0px"
	 viewBox="0 0 90.709 90.709" style="enable-background:new 0 0 90.709 90.709;" xml:space="preserve">
<g id="ratownik-1">
	<g>
		<g>
			
				<ellipse transform="matrix(0.9239 -0.3827 0.3827 0.9239 -13.9041 20.8088)" style="fill:#194093;" cx="45.354" cy="45.355" rx="43.52" ry="43.52"/>
			<g>
				<path style="fill:#252E78;" d="M45.354,2.835c23.483,0,42.52,19.037,42.52,42.52s-19.037,42.52-42.52,42.52
					s-42.52-19.037-42.52-42.52S21.871,2.835,45.354,2.835 M45.354,0.835c-24.548,0-44.52,19.971-44.52,44.52
					s19.971,44.52,44.52,44.52s44.52-19.971,44.52-44.52S69.903,0.835,45.354,0.835L45.354,0.835z"/>
			</g>
		</g>
	</g>
</g>
<g id="Warstwa_4">
	<g>
		<path style="fill:#F8C407;" d="M61.965,65.154c0.155-6.472,6.134-8.339,9.837-8.456c0.161-3.01-0.728-6.308-2.849-9.961
			c0,0-2.999,4.474-6.343,6.541c-1.07,0.661-2.275,1.6-3.201,2.92C61.745,58.682,62.079,60.669,61.965,65.154z"/>
		<path style="fill:#F8C407;" d="M16.849,60.134c-0.571-1.179-1.038-2.333-1.42-3.459c0.226,2.319,0.717,5.675,1.772,8.301
			c-3.361,0.585-3.075,3.036-3.075,3.036h4.97h6.26C21.752,66.433,18.699,63.956,16.849,60.134z"/>
		<path style="fill:#F8C407;" d="M25.284,58.682c0,0,0.14,5.554,1.555,9.916c0.551,1.699,1.295,3.217,2.299,4.155h15.113
			c0,0,0.135-1.163-0.879-2.078c-0.657-0.593-1.795-1.083-3.77-1.083C34.582,69.591,39.509,58.682,25.284,58.682z"/>
		<path style="fill:#FFFFFF;" d="M72.312,56.691c-0.166-0.001-0.336,0.001-0.51,0.007c-3.7,0.117-9.811,2.177-9.822,8.456
			c0.001-0.444,0.004-1.807,0.004-2.578c0-4.729-2.817-9.143-14.885-12.063c-12.936-3.13-15.679-7.482-14.862-12.931
			c1.425-9.496-3.701-13.83-9.544-13.83c-5.844,0-7.716,4.145-11.335,5.601c-0.001,0.001-0.002,0.002-0.003,0.003
			c-0.741,0.311-1.362,0.906-1.678,1.714c-0.617,1.582,0.165,3.365,1.747,3.982c0.752,0.293,2.923,1.404,5.061,2.321
			c-1.436,2.882-4.159,10.138-1.056,19.3c0.382,1.126,0.849,2.28,1.42,3.459c1.851,3.823,4.903,6.299,8.508,7.877
			c0.484,0.212,0.979,0.406,1.482,0.587c-1.414-4.362-1.555-9.916-1.555-9.916c14.225,0,9.298,10.91,14.318,10.91
			c1.975,0,3.113,0.64,3.77,1.234c0,0,18.521-0.008,18.521,0c11.715,0,18.873-4.325,19.266-16.317
			C81.159,54.508,76.244,56.712,72.312,56.691z M23.395,32.563c-1.566,0-2.835-1.269-2.835-2.835c0-1.566,1.269-2.834,2.835-2.834
			c1.566,0,2.835,1.269,2.835,2.834C26.23,31.294,24.961,32.563,23.395,32.563z"/>
	</g>
</g>
</svg>
