<svg xmlns="http://www.w3.org/2000/svg" viewBox="0 0 90.709 90.709"><circle transform="matrix(.9239 -.3827 .3827 .9239 -13.9041 20.8088)" cx="45.354" cy="45.355" r="43.52" fill="#194093"/><path d="M45.354 2.835c23.483 0 42.52 19.037 42.52 42.52s-19.037 42.52-42.52 42.52-42.52-19.037-42.52-42.52 19.037-42.52 42.52-42.52m0-2C20.806.835.834 20.806.834 45.355s19.971 44.52 44.52 44.52 44.52-19.971 44.52-44.52S69.903.835 45.354.835h0z" fill="#252e78"/><path d="M61.965 65.154c.155-6.472 6.134-8.339 9.837-8.456.161-3.01-.728-6.308-2.849-9.961 0 0-2.999 4.474-6.343 6.541-1.07.661-2.275 1.6-3.201 2.92 2.336 2.484 2.67 4.471 2.556 8.956zm-45.116-5.02c-.571-1.179-1.038-2.333-1.42-3.459.226 2.319.717 5.675 1.772 8.301-3.361.585-3.075 3.036-3.075 3.036h4.97 6.26c-3.604-1.579-6.657-4.056-8.507-7.878zm8.435-1.452s.14 5.554 1.555 9.916c.551 1.699 1.295 3.217 2.299 4.155h15.113s.135-1.163-.879-2.078c-.657-.593-1.795-1.083-3.77-1.083-5.02-.001-.093-10.91-14.318-10.91z" fill="#f8c407"/><path d="M72.312 56.691c-.166-.001-.336.001-.51.007-3.7.117-9.811 2.177-9.822 8.456l.004-2.578c0-4.729-2.817-9.143-14.885-12.063-12.936-3.13-15.679-7.482-14.862-12.931 1.425-9.496-3.701-13.83-9.544-13.83s-7.716 4.145-11.335 5.601c-.744.314-1.365.909-1.681 1.717-.617 1.582.165 3.365 1.747 3.982.752.293 2.923 1.404 5.061 2.321-1.436 2.882-4.159 10.138-1.056 19.3.382 1.126.849 2.28 1.42 3.459 1.851 3.823 4.903 6.299 8.508 7.877.484.212.979.406 1.482.587-1.414-4.362-1.555-9.916-1.555-9.916 14.225 0 9.298 10.91 14.318 10.91 1.975 0 3.113.64 3.77 1.234h18.521c11.715 0 18.873-4.325 19.266-16.317 0 .001-4.915 2.205-8.847 2.184zM23.395 32.563c-1.566 0-2.835-1.269-2.835-2.835s1.269-2.834 2.835-2.834 2.835 1.269 2.835 2.834-1.269 2.835-2.835 2.835z" fill="#fff"/></svg>