<?xml version="1.0" encoding="iso-8859-1"?>
<!-- Generator: Adobe Illustrator 22.1.0, SVG Export Plug-In . SVG Version: 6.00 Build 0)  -->
<svg version="1.1" xmlns="http://www.w3.org/2000/svg" xmlns:xlink="http://www.w3.org/1999/xlink" x="0px" y="0px"
	 viewBox="0 0 90.709 90.709" style="enable-background:new 0 0 90.709 90.709;" xml:space="preserve">
<g id="ratownik-1">
	<g>
		<g>
			
				<ellipse transform="matrix(0.9239 -0.3827 0.3827 0.9239 -13.9041 20.8088)" style="fill:#194093;" cx="45.354" cy="45.355" rx="43.52" ry="43.52"/>
			<g>
				<path style="fill:#252E78;" d="M45.354,2.835c23.483,0,42.52,19.037,42.52,42.52s-19.037,42.52-42.52,42.52
					s-42.52-19.037-42.52-42.52S21.871,2.835,45.354,2.835 M45.354,0.835c-24.548,0-44.52,19.971-44.52,44.52
					s19.971,44.52,44.52,44.52s44.52-19.971,44.52-44.52S69.903,0.835,45.354,0.835L45.354,0.835z"/>
			</g>
		</g>
	</g>
</g>
<g id="Warstwa_4">
	<g>
		<path style="fill:#FFFFFF;" d="M71.585,44.433l-9.442,12.05l4.256,0.827c-0.474,4.366-3.586,8.771-6.181,10.27
			c-1.779,1.027-6.91,2.019-9.418,0.609l-2.084-37.769h9.617v-6.131h-7.901c2.571-1.668,4.275-4.564,4.275-7.85
			c0-5.157-4.195-9.352-9.352-9.352c-5.157,0-9.352,4.195-9.352,9.352c0,3.286,1.704,6.182,4.275,7.85h-7.901v6.131h9.617
			L39.91,68.188c-2.507,1.41-7.639,0.418-9.418-0.609c-2.595-1.498-5.707-5.904-6.181-10.27l4.256-0.827l-9.442-12.05l-4.596,14.779
			l4.153-0.807c0.301,2.212,0.94,4.364,1.912,6.429c1.354,2.877,3.334,5.413,5.758,7.677c6.323,5.906,19.004,11.113,19.004,11.113
			s13.495-6.473,19.003-11.113c2.537-2.137,4.405-4.8,5.758-7.677c0.971-2.064,1.611-4.217,1.912-6.429l4.153,0.807L71.585,44.433z
			 M45.354,11.478c2.735,0,4.961,2.225,4.961,4.961c0,2.735-2.225,4.961-4.961,4.961c-2.735,0-4.961-2.225-4.961-4.961
			C40.394,13.703,42.619,11.478,45.354,11.478z"/>
		<g>
			<path style="fill:none;" d="M51.141,37.063l-7.733-3.362c-3.951,1.525-6.076,3.715-6.378,6.571
				c-0.332,3.145,2.03,5.725,7.088,7.74l6.885,2.766c1.869-0.676,3.283-1.643,4.242-2.902c0.959-1.259,1.494-2.417,1.606-3.474
				c0.132-1.248-0.281-2.574-1.238-3.973C54.656,39.029,53.165,37.907,51.141,37.063z"/>
			<path style="fill:#F8C409;" d="M54.403,32.388l-4.964-1.968H37.887c0.415,0.366,0.861,0.719,1.347,1.057
				c-4.945,2.438-7.638,5.735-8.077,9.887c-0.269,2.544,0.323,4.755,1.777,6.632c1.453,1.878,4.222,3.603,8.306,5.177l7.249,2.771
				c4.877,1.876,7.142,4.47,6.793,7.781c-0.246,2.327-1.477,4.101-3.696,5.323c-2.218,1.221-4.72,1.685-7.507,1.39
				c-5.045-0.533-8.433-3.138-10.162-7.813h-6.537c2.107,7.412,7.4,11.566,15.879,12.463c4.877,0.516,9.002-0.362,12.375-2.631
				c3.374-2.269,5.256-5.255,5.647-8.958c0.478-4.52-1.486-8.131-5.887-10.834c4.247-2.731,6.557-5.848,6.927-9.353
				c0.233-2.208-0.316-4.3-1.65-6.273S57.248,33.514,54.403,32.388z M55.244,47.877c-0.96,1.259-2.374,2.226-4.242,2.902
				l-6.885-2.766c-5.058-2.015-7.42-4.595-7.088-7.74c0.302-2.856,2.428-5.047,6.378-6.571l7.733,3.362
				c2.024,0.844,3.515,1.966,4.472,3.366c0.956,1.399,1.37,2.725,1.238,3.973C56.738,45.46,56.203,46.618,55.244,47.877z"/>
			<path style="fill:#F8C409;" d="M40.394,16.438c0,0.759,0.185,1.47,0.491,2.114c0.428-0.614,0.986-1.161,1.691-1.633
				c1.581-1.059,3.645-1.454,6.192-1.185c4.78,0.505,7.767,2.84,8.962,7.005l5.6,0c-0.555-3.022-2.069-5.531-4.542-7.531
				c-2.472-1.997-5.606-3.197-9.402-3.598c-2.043-0.216-3.909-0.163-5.605,0.147C41.819,12.42,40.394,14.256,40.394,16.438z"/>
			<path style="fill:#F8C409;" d="M36.008,16.513c-0.913,1.359-1.478,2.939-1.671,4.759c-0.112,1.057-0.093,2.062,0.055,3.016h5.885
				C37.727,22.633,36.034,19.768,36.008,16.513z"/>
		</g>
	</g>
</g>
</svg>
