<svg xmlns="http://www.w3.org/2000/svg" viewBox="0 0 90.709 90.709"><circle transform="matrix(.9239 -.3827 .3827 .9239 -13.9041 20.8088)" cx="45.354" cy="45.355" r="43.52" fill="#194093"/><path d="M45.354 2.835c23.483 0 42.52 19.037 42.52 42.52s-19.037 42.52-42.52 42.52-42.52-19.037-42.52-42.52 19.037-42.52 42.52-42.52m0-2C20.806.835.834 20.806.834 45.355s19.971 44.52 44.52 44.52 44.52-19.971 44.52-44.52S69.903.835 45.354.835h0z" fill="#252e78"/><path d="M71.585 44.433l-9.442 12.05 4.256.827c-.474 4.366-3.586 8.771-6.181 10.27-1.779 1.027-6.91 2.019-9.418.609L48.716 30.42h9.617v-6.131h-7.901c2.571-1.668 4.275-4.564 4.275-7.85 0-5.157-4.195-9.352-9.352-9.352s-9.352 4.195-9.352 9.352c0 3.286 1.704 6.182 4.275 7.85h-7.901v6.131h9.617L39.91 68.188c-2.507 1.41-7.639.418-9.418-.609-2.595-1.498-5.707-5.904-6.181-10.27l4.256-.827-9.442-12.05-4.596 14.779 4.153-.807c.301 2.212.94 4.364 1.912 6.429 1.354 2.877 3.334 5.413 5.758 7.677 6.323 5.906 19.004 11.113 19.004 11.113S58.851 77.15 64.359 72.51c2.537-2.137 4.405-4.8 5.758-7.677a22.04 22.04 0 0 0 1.912-6.429l4.153.807-4.597-14.778zM45.354 11.478a4.97 4.97 0 0 1 4.961 4.961 4.97 4.97 0 0 1-4.961 4.961 4.97 4.97 0 0 1-4.961-4.961 4.97 4.97 0 0 1 4.961-4.961z" fill="#fff"/><path d="M54.403 32.388l-4.964-1.968H37.887c.415.366.861.719 1.347 1.057-4.945 2.438-7.638 5.735-8.077 9.887-.269 2.544.323 4.755 1.777 6.632s4.222 3.603 8.306 5.177l7.249 2.771c4.877 1.876 7.142 4.47 6.793 7.781-.246 2.327-1.477 4.101-3.696 5.323s-4.72 1.685-7.507 1.39c-5.045-.533-8.433-3.138-10.162-7.813H27.38c2.107 7.412 7.4 11.566 15.879 12.463 4.877.516 9.002-.362 12.375-2.631s5.256-5.255 5.647-8.958c.478-4.52-1.486-8.131-5.887-10.834 4.247-2.731 6.557-5.848 6.927-9.353.233-2.208-.316-4.3-1.65-6.273s-3.423-3.525-6.268-4.651zm.841 15.489c-.96 1.259-2.374 2.226-4.242 2.902l-6.885-2.766c-5.058-2.015-7.42-4.595-7.088-7.74.302-2.856 2.428-5.047 6.378-6.571l7.733 3.362c2.024.844 3.515 1.966 4.472 3.366s1.37 2.725 1.238 3.973c-.112 1.057-.647 2.215-1.606 3.474zm-14.85-31.439c0 .759.185 1.47.491 2.114.428-.614.986-1.161 1.691-1.633 1.581-1.059 3.645-1.454 6.192-1.185 4.78.505 7.767 2.84 8.962 7.005h5.6c-.555-3.022-2.069-5.531-4.542-7.531s-5.606-3.197-9.402-3.598c-2.043-.216-3.909-.163-5.605.147-1.962.663-3.387 2.499-3.387 4.681zm-4.386.075c-.913 1.359-1.478 2.939-1.671 4.759-.112 1.057-.093 2.062.055 3.016h5.885a9.35 9.35 0 0 1-4.269-7.775z" fill="#f8c409"/></svg>