<svg xmlns="http://www.w3.org/2000/svg" viewBox="0 0 90.709 90.709"><circle cx="45.354" cy="45.355" r="43.52" fill="#194093"/><path d="M45.354 2.835c23.483 0 42.52 19.037 42.52 42.52s-19.037 42.52-42.52 42.52-42.52-19.037-42.52-42.52 19.037-42.52 42.52-42.52m0-2C20.806.835.834 20.806.834 45.355s19.971 44.52 44.52 44.52 44.52-19.971 44.52-44.52S69.903.835 45.354.835h0z" fill="#252e78"/><circle cx="45.354" cy="45.178" r="7.971" fill="#194093"/><path d="M36.207 36.207c-14.908 14.908-17.85 36.138-17.85 36.138s21.23-2.941 36.138-17.85 17.85-36.138 17.85-36.138-21.229 2.942-36.138 17.85zm15.998 13.31l-4.01 4.01a4.15 4.15 0 0 1-5.868 0l-5.221-5.221a4.15 4.15 0 0 1 0-5.868l4.01-4.01a7.84 7.84 0 0 1 11.088 0h0c3.063 3.063 3.063 8.027.001 11.089z" fill="#f8c409"/><path d="M74.489 67.221l-5.503-5.503-8.625-3.902-27.469-27.468-3.902-8.625-5.503-5.503c-.705-.705-1.848-.705-2.553 0l-4.715 4.715c-.705.705-.705 1.848 0 2.553l5.503 5.503 8.623 3.901 27.472 27.472 3.901 8.623 5.503 5.503c.705.705 1.848.705 2.553 0l4.715-4.715c.705-.706.705-1.849 0-2.554z" fill="#fff"/></svg>