<?xml version="1.0" encoding="iso-8859-1"?>
<!-- Generator: Adobe Illustrator 22.1.0, SVG Export Plug-In . SVG Version: 6.00 Build 0)  -->
<svg version="1.1" xmlns="http://www.w3.org/2000/svg" xmlns:xlink="http://www.w3.org/1999/xlink" x="0px" y="0px"
	 viewBox="0 0 90.709 90.709" style="enable-background:new 0 0 90.709 90.709;" xml:space="preserve">
<g id="ratownik-1">
	<g>
		<g>
			<circle style="fill:#194093;" cx="45.354" cy="45.355" r="43.52"/>
			<g>
				<path style="fill:#252E78;" d="M45.354,2.835c23.483,0,42.52,19.037,42.52,42.52s-19.037,42.52-42.52,42.52
					s-42.52-19.037-42.52-42.52S21.871,2.835,45.354,2.835 M45.354,0.835c-24.548,0-44.52,19.971-44.52,44.52
					s19.971,44.52,44.52,44.52s44.52-19.971,44.52-44.52S69.903,0.835,45.354,0.835L45.354,0.835z"/>
			</g>
		</g>
	</g>
</g>
<g id="Warstwa_4">
	<circle style="fill:#194093;" cx="45.354" cy="45.178" r="7.971"/>
	<g>
		<path style="fill:#F8C409;" d="M36.207,36.207c-14.908,14.908-17.85,36.138-17.85,36.138s21.23-2.941,36.138-17.85
			s17.85-36.138,17.85-36.138S51.116,21.299,36.207,36.207z M52.205,49.517l-4.01,4.01c-1.62,1.62-4.247,1.62-5.868,0l-5.221-5.221
			c-1.62-1.62-1.62-4.247,0-5.868l4.01-4.01c3.062-3.062,8.026-3.062,11.088,0l0,0C55.267,41.491,55.267,46.455,52.205,49.517z"/>
		<path style="fill:#FFFFFF;" d="M74.489,67.221l-5.503-5.503l-8.625-3.902L32.892,30.348l-3.902-8.625l-5.503-5.503
			c-0.705-0.705-1.848-0.705-2.553,0l-4.715,4.715c-0.705,0.705-0.705,1.848,0,2.553l5.503,5.503l8.623,3.901l27.472,27.472
			l3.901,8.623l5.503,5.503c0.705,0.705,1.848,0.705,2.553,0l4.715-4.715C75.194,69.069,75.194,67.926,74.489,67.221z"/>
	</g>
</g>
</svg>
