<?xml version="1.0" encoding="iso-8859-1"?>
<!-- Generator: Adobe Illustrator 22.1.0, SVG Export Plug-In . SVG Version: 6.00 Build 0)  -->
<svg version="1.1" xmlns="http://www.w3.org/2000/svg" xmlns:xlink="http://www.w3.org/1999/xlink" x="0px" y="0px"
	 viewBox="0 0 90.709 90.709" style="enable-background:new 0 0 90.709 90.709;" xml:space="preserve">
<g id="ratownik-1">
	<g>
		<g>
			
				<ellipse transform="matrix(0.9239 -0.3827 0.3827 0.9239 -13.9041 20.8088)" style="fill:#194093;" cx="45.354" cy="45.355" rx="43.52" ry="43.52"/>
			<g>
				<path style="fill:#252E78;" d="M45.354,2.835c23.483,0,42.52,19.037,42.52,42.52s-19.037,42.52-42.52,42.52
					s-42.52-19.037-42.52-42.52S21.871,2.835,45.354,2.835 M45.354,0.835c-24.548,0-44.52,19.971-44.52,44.52
					s19.971,44.52,44.52,44.52s44.52-19.971,44.52-44.52S69.903,0.835,45.354,0.835L45.354,0.835z"/>
			</g>
		</g>
	</g>
</g>
<g id="Warstwa_4">
	<g>
		<g>
			<path style="fill:#FCC709;" d="M56.14,37.306V32.31l-5.668-0.872c-0.14-0.698-0.334-1.376-0.557-2.04l4.481-3.596l-2.498-4.327
				l-5.363,2.086c-0.465-0.526-0.961-1.022-1.487-1.487l2.086-5.363l-4.327-2.498l-3.596,4.481c-0.664-0.223-1.342-0.417-2.04-0.557
				l-0.872-5.668h-4.996l-0.872,5.668c-0.698,0.14-1.376,0.334-2.04,0.557l-3.596-4.481l-4.327,2.498l2.086,5.363
				c-0.526,0.465-1.022,0.961-1.487,1.487l-5.363-2.086l-2.498,4.327l4.481,3.596c-0.223,0.664-0.417,1.342-0.557,2.04l-5.668,0.872
				v4.996l5.668,0.872c0.14,0.698,0.334,1.375,0.557,2.04l-4.481,3.596l2.498,4.327l5.363-2.086
				c0.465,0.526,0.961,1.022,1.487,1.487l-2.086,5.363l4.327,2.498l3.596-4.481c0.664,0.223,1.342,0.417,2.04,0.557l0.872,5.668
				h4.996l0.872-5.668c0.698-0.14,1.375-0.334,2.04-0.557l3.596,4.481l4.327-2.498l-2.086-5.363
				c0.526-0.465,1.022-0.961,1.487-1.487l5.363,2.086l2.498-4.327l-4.481-3.596c0.223-0.664,0.417-1.342,0.557-2.04L56.14,37.306z
				 M33.801,44.729c-5.479,0-9.921-4.442-9.921-9.921c0-5.479,4.442-9.921,9.921-9.921s9.921,4.442,9.921,9.921
				C43.722,40.287,39.281,44.729,33.801,44.729z"/>
		</g>
		<g>
			<path style="fill:#FFFFFF;" d="M79.246,56.524v-5.972l-6.545-1.007c-0.177-0.898-0.423-1.768-0.713-2.62l5.174-4.152
				l-2.986-5.172l-6.188,2.407c-0.596-0.679-1.234-1.318-1.913-1.913l2.407-6.188l-5.172-2.986l-4.152,5.173
				c-0.852-0.29-1.722-0.536-2.62-0.713l-1.007-6.545h-5.972l-1.007,6.545c-0.898,0.177-1.768,0.423-2.62,0.713l-4.152-5.173
				l-5.172,2.986l2.407,6.188c-0.679,0.595-1.318,1.234-1.913,1.913l-6.188-2.407l-2.986,5.172l5.174,4.152
				c-0.29,0.852-0.536,1.722-0.713,2.62l-6.545,1.007v5.972l6.545,1.007c0.177,0.898,0.423,1.768,0.713,2.62l-5.174,4.152
				l2.986,5.172l6.188-2.407c0.596,0.679,1.234,1.317,1.913,1.913l-2.407,6.188l5.172,2.986l4.152-5.174
				c0.852,0.29,1.722,0.536,2.62,0.713l1.007,6.545h5.972l1.007-6.545c0.898-0.177,1.768-0.423,2.62-0.713l4.152,5.174l5.172-2.986
				l-2.407-6.188c0.679-0.596,1.318-1.234,1.913-1.913l6.188,2.407l2.986-5.172l-5.174-4.152c0.29-0.852,0.536-1.722,0.713-2.62
				L79.246,56.524z M52.545,64.877c-6.262,0-11.339-5.076-11.339-11.339c0-6.262,5.076-11.339,11.339-11.339
				c6.262,0,11.339,5.077,11.339,11.339C63.884,59.801,58.807,64.877,52.545,64.877z"/>
		</g>
	</g>
</g>
</svg>
