<svg xmlns="http://www.w3.org/2000/svg" viewBox="0 0 90.709 90.709"><circle transform="matrix(.9239 -.3827 .3827 .9239 -13.9041 20.8088)" cx="45.354" cy="45.355" r="43.52" fill="#194093"/><path d="M45.354 2.835c23.483 0 42.52 19.037 42.52 42.52s-19.037 42.52-42.52 42.52-42.52-19.037-42.52-42.52 19.037-42.52 42.52-42.52m0-2C20.806.835.834 20.806.834 45.355s19.971 44.52 44.52 44.52 44.52-19.971 44.52-44.52S69.903.835 45.354.835h0z" fill="#252e78"/><path d="M56.14 37.306V32.31l-5.668-.872a16.76 16.76 0 0 0-.557-2.04l4.481-3.596-2.498-4.327-5.363 2.086c-.465-.526-.961-1.022-1.487-1.487l2.086-5.363-4.327-2.498-3.596 4.481a16.76 16.76 0 0 0-2.04-.557l-.872-5.668h-4.996l-.872 5.668a16.76 16.76 0 0 0-2.04.557l-3.596-4.481-4.327 2.498 2.086 5.363c-.526.465-1.022.961-1.487 1.487l-5.363-2.086-2.498 4.327 4.481 3.596a16.76 16.76 0 0 0-.557 2.04l-5.668.872v4.996l5.668.872a16.81 16.81 0 0 0 .557 2.04l-4.481 3.596 2.498 4.327 5.363-2.086c.465.526.961 1.022 1.487 1.487l-2.086 5.363 4.327 2.498 3.596-4.481a16.76 16.76 0 0 0 2.04.557l.872 5.668h4.996l.872-5.668a16.81 16.81 0 0 0 2.04-.557l3.596 4.481 4.327-2.498-2.086-5.363c.526-.465 1.022-.961 1.487-1.487l5.363 2.086 2.498-4.327-4.481-3.596a16.76 16.76 0 0 0 .557-2.04l5.668-.872zm-22.339 7.423c-5.479 0-9.921-4.442-9.921-9.921s4.442-9.921 9.921-9.921 9.921 4.442 9.921 9.921-4.441 9.921-9.921 9.921z" fill="#fcc709"/><path d="M79.246 56.524v-5.972l-6.545-1.007c-.177-.898-.423-1.768-.713-2.62l5.174-4.152-2.986-5.172-6.188 2.407c-.596-.679-1.234-1.318-1.913-1.913l2.407-6.188-5.172-2.986-4.152 5.173c-.852-.29-1.722-.536-2.62-.713l-1.007-6.545h-5.972l-1.007 6.545c-.898.177-1.768.423-2.62.713l-4.152-5.173-5.172 2.986 2.407 6.188a20.56 20.56 0 0 0-1.913 1.913l-6.188-2.407-2.986 5.172 5.174 4.152c-.29.852-.536 1.722-.713 2.62l-6.545 1.007v5.972l6.545 1.007c.177.898.423 1.768.713 2.62l-5.174 4.152 2.986 5.172 6.188-2.407c.596.679 1.234 1.317 1.913 1.913l-2.407 6.188 5.172 2.986 4.152-5.174c.852.29 1.722.536 2.62.713l1.007 6.545h5.972l1.007-6.545c.898-.177 1.768-.423 2.62-.713l4.152 5.174 5.172-2.986-2.407-6.188c.679-.596 1.318-1.234 1.913-1.913l6.188 2.407 2.986-5.172-5.174-4.152c.29-.852.536-1.722.713-2.62l6.545-1.007zm-26.701 8.353a11.34 11.34 0 0 1-11.339-11.339 11.34 11.34 0 0 1 11.339-11.339 11.34 11.34 0 0 1 11.339 11.339 11.34 11.34 0 0 1-11.339 11.339z" fill="#fff"/></svg>