<?xml version="1.0" encoding="iso-8859-1"?>
<!-- Generator: Adobe Illustrator 22.1.0, SVG Export Plug-In . SVG Version: 6.00 Build 0)  -->
<svg version="1.1" xmlns="http://www.w3.org/2000/svg" xmlns:xlink="http://www.w3.org/1999/xlink" x="0px" y="0px"
	 viewBox="0 0 90.709 90.709" style="enable-background:new 0 0 90.709 90.709;" xml:space="preserve">
<g id="ratownik-1">
	<g>
		<g>
			<path style="fill:#194093;" d="M45.354,88.874c-23.997,0-43.52-19.522-43.52-43.52S21.358,1.834,45.354,1.834
				s43.52,19.523,43.52,43.521S69.351,88.874,45.354,88.874z"/>
			<g>
				<path style="fill:#252E78;" d="M45.354,2.835c23.483,0,42.52,19.037,42.52,42.52s-19.037,42.52-42.52,42.52
					s-42.52-19.037-42.52-42.52S21.871,2.835,45.354,2.835 M45.354,0.835c-24.548,0-44.52,19.971-44.52,44.52
					s19.971,44.52,44.52,44.52s44.52-19.971,44.52-44.52S69.903,0.835,45.354,0.835L45.354,0.835z"/>
			</g>
		</g>
	</g>
</g>
<g id="Warstwa_4">
	<g>
		<path style="fill:#F8C409;" d="M16.748,44.164c-2.729-3.12-4.233-7.11-4.233-11.234c0-9.42,7.664-17.084,17.084-17.084
			c7.653,0,14.419,5.157,16.456,12.541l0.686,2.485l-2.5-0.633c-0.944-0.239-1.893-0.36-2.82-0.36c-4.43,0-8.495,2.586-10.355,6.588
			l-0.536,1.154l-1.226-0.341c-0.699-0.194-1.421-0.293-2.147-0.293c-1.063,0-2.104,0.211-3.09,0.628
			c-2.454,1.036-4.217,3.221-4.715,5.842l-0.575,3.025L16.748,44.164z"/>
		<path style="fill:#194093;" d="M29.599,17.346c7.169,0,13.192,4.848,15.009,11.44c-1.029-0.261-2.097-0.407-3.188-0.407
			c-5.156,0-9.651,3.014-11.716,7.457c-0.822-0.229-1.678-0.348-2.549-0.348c0,0-0.001,0-0.001,0c-1.265,0-2.501,0.251-3.673,0.746
			c-3.02,1.275-5.032,3.929-5.605,6.943c-2.398-2.741-3.862-6.319-3.862-10.246C14.015,24.323,20.992,17.346,29.599,17.346
			 M29.599,14.346c-10.247,0-18.584,8.337-18.584,18.584c0,4.488,1.635,8.828,4.604,12.222l4.055,4.635l1.15-6.05
			c0.404-2.126,1.834-3.898,3.825-4.739c0.801-0.338,1.644-0.51,2.506-0.51c0.592,0,1.178,0.08,1.743,0.238l2.453,0.685l1.074-2.31
			c1.616-3.476,5.147-5.721,8.996-5.721c0.803,0,1.627,0.106,2.449,0.315l5.002,1.271l-1.371-4.975
			C45.286,19.956,37.925,14.346,29.599,14.346L29.599,14.346z"/>
	</g>
	<g>
		<g>
			<path style="fill:#FFFFFF;" d="M60.424,30.867c7.668,0,13.883,6.216,13.883,13.883c0,1.427-0.217,2.803-0.616,4.098
				c3.715,1.04,6.444,4.442,6.444,8.49c0,4.873-3.951,8.824-8.824,8.824c-4.495,0-46.037,0-51.389,0s-9.691-4.339-9.691-9.691
				s4.339-9.691,9.691-9.691c0.362,0,0.714,0.035,1.065,0.075c-0.969-3.134,0.576-6.554,3.663-7.857
				c0.82-0.346,1.67-0.51,2.506-0.51c1.631,0,3.21,0.623,4.404,1.73c0.54-4.97,4.747-8.839,9.861-8.839
				c3.49,0,6.553,1.805,8.322,4.529C52.289,32.835,56.121,30.867,60.424,30.867"/>
		</g>
	</g>
</g>
</svg>
