<svg xmlns="http://www.w3.org/2000/svg" viewBox="0 0 90.709 90.709"><path d="M45.354 88.874c-23.997 0-43.52-19.522-43.52-43.52s19.524-43.52 43.52-43.52 43.52 19.523 43.52 43.521-19.523 43.519-43.52 43.519z" fill="#194093"/><path d="M45.354 2.835c23.483 0 42.52 19.037 42.52 42.52s-19.037 42.52-42.52 42.52-42.52-19.037-42.52-42.52 19.037-42.52 42.52-42.52m0-2C20.806.835.834 20.806.834 45.355s19.971 44.52 44.52 44.52 44.52-19.971 44.52-44.52S69.903.835 45.354.835h0z" fill="#252e78"/><path d="M16.748 44.164c-2.729-3.12-4.233-7.11-4.233-11.234 0-9.42 7.664-17.084 17.084-17.084 7.653 0 14.419 5.157 16.456 12.541l.686 2.485-2.5-.633a11.51 11.51 0 0 0-2.82-.36 11.45 11.45 0 0 0-10.355 6.588l-.536 1.154-1.226-.341c-.699-.194-1.421-.293-2.147-.293-1.063 0-2.104.211-3.09.628-2.454 1.036-4.217 3.221-4.715 5.842l-.575 3.025-2.029-2.318z" fill="#f8c409"/><path d="M29.599 17.346c7.169 0 13.192 4.848 15.009 11.44-1.029-.261-2.097-.407-3.188-.407a12.9 12.9 0 0 0-11.716 7.457 9.49 9.49 0 0 0-2.549-.348c-1.266 0-2.502.251-3.674.746-3.02 1.275-5.032 3.929-5.605 6.943-2.398-2.741-3.862-6.319-3.862-10.246a15.59 15.59 0 0 1 15.585-15.585m0-3A18.61 18.61 0 0 0 11.015 32.93c0 4.488 1.635 8.828 4.604 12.222l4.055 4.635 1.15-6.05c.404-2.126 1.834-3.898 3.825-4.739.801-.338 1.644-.51 2.506-.51a6.47 6.47 0 0 1 1.743.238l2.453.685 1.074-2.31c1.616-3.476 5.147-5.721 8.996-5.721.803 0 1.627.106 2.449.315l5.002 1.271-1.371-4.975c-2.215-8.035-9.576-13.645-17.902-13.645h0z" fill="#194093"/><path d="M60.424 30.867c7.668 0 13.883 6.216 13.883 13.883 0 1.427-.217 2.803-.616 4.098 3.715 1.04 6.444 4.442 6.444 8.49 0 4.873-3.951 8.824-8.824 8.824H19.922c-5.352 0-9.691-4.339-9.691-9.691s4.339-9.691 9.691-9.691c.362 0 .714.035 1.065.075-.969-3.134.576-6.554 3.663-7.857.82-.346 1.67-.51 2.506-.51 1.631 0 3.21.623 4.404 1.73.54-4.97 4.747-8.839 9.861-8.839 3.49 0 6.553 1.805 8.322 4.529 2.546-3.073 6.378-5.041 10.681-5.041" fill="#fff"/></svg>