<?xml version="1.0" encoding="iso-8859-1"?>
<!-- Generator: Adobe Illustrator 22.1.0, SVG Export Plug-In . SVG Version: 6.00 Build 0)  -->
<svg version="1.1" xmlns="http://www.w3.org/2000/svg" xmlns:xlink="http://www.w3.org/1999/xlink" x="0px" y="0px"
	 viewBox="0 0 90.709 90.709" style="enable-background:new 0 0 90.709 90.709;" xml:space="preserve">
<g id="ratownik-1">
	<g>
		<g>
			
				<ellipse transform="matrix(0.9239 -0.3827 0.3827 0.9239 -13.9041 20.8088)" style="fill:#194093;" cx="45.354" cy="45.355" rx="43.52" ry="43.52"/>
			<g>
				<path style="fill:#252E78;" d="M45.354,2.835c23.483,0,42.52,19.037,42.52,42.52s-19.037,42.52-42.52,42.52
					s-42.52-19.037-42.52-42.52S21.871,2.835,45.354,2.835 M45.354,0.835c-24.548,0-44.52,19.971-44.52,44.52
					s19.971,44.52,44.52,44.52s44.52-19.971,44.52-44.52S69.903,0.835,45.354,0.835L45.354,0.835z"/>
			</g>
		</g>
	</g>
</g>
<g id="Warstwa_4">
	<g>
		<path style="fill:#F8C409;" d="M49.336,36.004l-3.982-10.192l-3.982,10.192c1.262-0.38,2.597-0.59,3.982-0.59
			C46.739,35.413,48.074,35.623,49.336,36.004z"/>
		<polygon style="fill:#FFFFFF;" points="25.172,77.47 32.315,59.187 29.108,59.187 		"/>
		<polygon style="fill:#FFFFFF;" points="65.537,77.47 61.601,59.187 58.394,59.187 		"/>
		<path style="fill:#FFFFFF;" d="M31.476,48.187h5.136l8.742-22.375l8.742,22.375h5.136l-5.813-26.999
			c0.819-1.391,1.298-3.007,1.298-4.739c0-5.171-4.192-9.363-9.363-9.363c-5.171,0-9.363,4.192-9.363,9.363
			c0,1.731,0.478,3.347,1.298,4.739L31.476,48.187z M45.354,11.712c2.617,0,4.738,2.121,4.738,4.738
			c0,2.616-2.121,4.738-4.738,4.738c-2.617,0-4.738-2.121-4.738-4.738C40.617,13.833,42.738,11.712,45.354,11.712z"/>
		<path style="fill:#F8C409;" d="M74.069,48.187h-3.915c-0.42-10.009-6.793-18.5-15.663-22.024l4.742,22.024H31.476l4.742-22.024
			c-8.87,3.524-15.243,12.015-15.663,22.024H16.64v11h57.429V48.187z"/>
	</g>
</g>
</svg>
