<svg xmlns="http://www.w3.org/2000/svg" viewBox="0 0 90.709 90.709"><circle transform="matrix(.9239 -.3827 .3827 .9239 -13.9041 20.8088)" cx="45.354" cy="45.355" r="43.52" fill="#194093"/><path d="M45.354 2.835c23.483 0 42.52 19.037 42.52 42.52s-19.037 42.52-42.52 42.52-42.52-19.037-42.52-42.52 19.037-42.52 42.52-42.52m0-2C20.806.835.834 20.806.834 45.355s19.971 44.52 44.52 44.52 44.52-19.971 44.52-44.52S69.903.835 45.354.835h0z" fill="#252e78"/><path d="M49.336 36.004l-3.982-10.192-3.982 10.192c1.262-.38 2.597-.59 3.982-.59s2.72.209 3.982.59z" fill="#f8c409"/><path d="M25.172 77.47l7.143-18.283h-3.207zm40.365 0l-3.936-18.283h-3.207zM31.476 48.187h5.136l8.742-22.375 8.742 22.375h5.136l-5.813-26.999c.819-1.391 1.298-3.007 1.298-4.739 0-5.171-4.192-9.363-9.363-9.363s-9.363 4.192-9.363 9.363c0 1.731.478 3.347 1.298 4.739l-5.813 26.999zm13.878-36.475a4.74 4.74 0 0 1 4.738 4.738 4.74 4.74 0 0 1-4.738 4.738 4.74 4.74 0 0 1-4.738-4.738 4.74 4.74 0 0 1 4.738-4.738z" fill="#fff"/><path d="M74.069 48.187h-3.915c-.42-10.009-6.793-18.5-15.663-22.024l4.742 22.024H31.476l4.742-22.024c-8.87 3.524-15.243 12.015-15.663 22.024H16.64v11h57.429v-11z" fill="#f8c409"/></svg>