<svg xmlns="http://www.w3.org/2000/svg" viewBox="0 0 90.709 90.709"><circle transform="matrix(.9239 -.3827 .3827 .9239 -13.9041 20.8088)" cx="45.354" cy="45.355" r="43.52" fill="#194093"/><path d="M45.354 2.835c23.483 0 42.52 19.037 42.52 42.52s-19.037 42.52-42.52 42.52-42.52-19.037-42.52-42.52 19.037-42.52 42.52-42.52m0-2C20.806.835.834 20.806.834 45.355s19.971 44.52 44.52 44.52 44.52-19.971 44.52-44.52S69.903.835 45.354.835h0z" fill="#252e78"/><path d="M66.527 76.89a1.3 1.3 0 0 1-1.066-.554L34.149 31.619l2.13-1.492 31.312 44.718a1.3 1.3 0 0 1-1.064 2.045z" fill="#f8c409"/><path d="M23.405 14.007c-1.106.775-2.158 1.599-3.156 2.464l14.935 20.558 3.911 1.718 2.191-1.534-.276-4.263L26.8 11.884a39.02 39.02 0 0 0-3.395 2.123z" fill="#fff"/><path d="M24.182 76.89c-.258 0-.518-.076-.745-.235a1.3 1.3 0 0 1-.319-1.811L54.43 30.126l2.13 1.492-31.312 44.719a1.3 1.3 0 0 1-1.066.553z" fill="#f8c409"/><path d="M67.304 14.007c-1.106-.775-2.24-1.481-3.395-2.123L49.699 32.95l-.276 4.263 2.191 1.534 3.911-1.718L70.46 16.472a38.88 38.88 0 0 0-3.156-2.465z" fill="#fff"/></svg>