<?xml version="1.0" encoding="iso-8859-1"?>
<!-- Generator: Adobe Illustrator 22.1.0, SVG Export Plug-In . SVG Version: 6.00 Build 0)  -->
<svg version="1.1" xmlns="http://www.w3.org/2000/svg" xmlns:xlink="http://www.w3.org/1999/xlink" x="0px" y="0px"
	 viewBox="0 0 90.709 90.709" style="enable-background:new 0 0 90.709 90.709;" xml:space="preserve">
<g id="ratownik-1">
	<g>
		<g>
			
				<ellipse transform="matrix(0.9239 -0.3827 0.3827 0.9239 -13.9041 20.8088)" style="fill:#194093;" cx="45.354" cy="45.355" rx="43.52" ry="43.52"/>
			<g>
				<path style="fill:#252E78;" d="M45.354,2.835c23.483,0,42.52,19.037,42.52,42.52s-19.037,42.52-42.52,42.52
					s-42.52-19.037-42.52-42.52S21.871,2.835,45.354,2.835 M45.354,0.835c-24.548,0-44.52,19.971-44.52,44.52
					s19.971,44.52,44.52,44.52s44.52-19.971,44.52-44.52S69.903,0.835,45.354,0.835L45.354,0.835z"/>
			</g>
		</g>
	</g>
</g>
<g id="Warstwa_4">
	<g>
		<g>
			<g>
				<path style="fill:#F8C409;" d="M66.527,76.89c-0.41,0-0.813-0.193-1.066-0.554L34.149,31.619l2.13-1.492l31.312,44.718
					c0.412,0.589,0.269,1.399-0.319,1.811C67.045,76.814,66.785,76.89,66.527,76.89z"/>
			</g>
			<g>
				<path style="fill:#FFFFFF;" d="M23.405,14.007c-1.106,0.775-2.158,1.599-3.156,2.464l14.935,20.558l3.911,1.718l2.191-1.534
					L41.01,32.95L26.8,11.884C25.645,12.527,24.511,13.233,23.405,14.007z"/>
			</g>
		</g>
		<g>
			<g>
				<path style="fill:#F8C409;" d="M24.182,76.89c-0.258,0-0.518-0.076-0.745-0.235c-0.588-0.411-0.731-1.222-0.319-1.811
					l31.312-44.718l2.13,1.492L25.248,76.337C24.995,76.697,24.591,76.89,24.182,76.89z"/>
			</g>
			<g>
				<path style="fill:#FFFFFF;" d="M67.304,14.007c-1.106-0.775-2.24-1.481-3.395-2.123L49.699,32.95l-0.276,4.263l2.191,1.534
					l3.911-1.718L70.46,16.472C69.461,15.606,68.41,14.782,67.304,14.007z"/>
			</g>
		</g>
	</g>
</g>
</svg>
