<?xml version="1.0" encoding="iso-8859-1"?>
<!-- Generator: Adobe Illustrator 22.1.0, SVG Export Plug-In . SVG Version: 6.00 Build 0)  -->
<svg version="1.1" xmlns="http://www.w3.org/2000/svg" xmlns:xlink="http://www.w3.org/1999/xlink" x="0px" y="0px"
	 viewBox="0 0 90.709 90.709" style="enable-background:new 0 0 90.709 90.709;" xml:space="preserve">
<g id="ratownik-1">
	<g>
		<g>
			<path style="fill:#194093;" d="M45.354,88.874c-23.997,0-43.52-19.522-43.52-43.52S21.358,1.834,45.354,1.834
				s43.52,19.523,43.52,43.521S69.351,88.874,45.354,88.874z"/>
			<g>
				<path style="fill:#252E78;" d="M45.354,2.835c23.483,0,42.52,19.037,42.52,42.52s-19.037,42.52-42.52,42.52
					s-42.52-19.037-42.52-42.52S21.871,2.835,45.354,2.835 M45.354,0.835c-24.548,0-44.52,19.971-44.52,44.52
					s19.971,44.52,44.52,44.52s44.52-19.971,44.52-44.52S69.903,0.835,45.354,0.835L45.354,0.835z"/>
			</g>
		</g>
	</g>
</g>
<g id="Warstwa_4">
	<g>
		<path style="fill:#FFFFFF;" d="M79.486,33.225l-0.804-2.063c-0.95-2.436-1.901-4.677-5.418-6.454
			c-0.053-0.049-0.112-0.09-0.182-0.113c-4.02-1.293-8.413-7.898-15.919-10.891c-0.403-0.175-2.818-1.042-4.421,0.708
			c-6.119,6.685-7.601,11.279-11.313,16.731c-0.902,1.325-2.998,3.606-5.562,5.075c-1.806,1.034-4.325,2.938-6.614,4.784
			c-1.589,1.281,20.011,7.012,20.346,6.807c0.833-0.51,2.874-1.018,5.033-1.553c1.904,1.148,4.437,1.746,6.401,0.964
			c1.809-0.721,3.936-0.473,5.395-1.054c3.948-1.572,5.874-6.048,4.302-9.996c-1.573-3.948-6.048-5.874-9.996-4.302
			c-1.481,0.59-2.907,2.279-4.71,2.998c-1.786,0.711-3.119,2.592-3.773,4.543c-1.275,0.481-2.588-0.614-2.642-1.252
			c-0.054-0.64,7.232-14.07,7.639-15.368c0.441,0.397,7.222,4.892,12.743,6.263c0.453,0.616,7.099,6.646,8.364,7.765
			c1.265,1.117,2.209-0.068,2.264-0.701C80.689,35.285,79.486,33.225,79.486,33.225z"/>
		<path style="fill:#F8C409;" d="M63.907,38.885c1.025,2.575,1.011,5.302,0.169,7.73c0.861-0.092,1.678-0.183,2.352-0.451
			c3.948-1.572,5.874-6.048,4.302-9.996c-1.573-3.948-6.048-5.874-9.996-4.302c-0.671,0.267-1.332,0.762-2.02,1.288
			C60.994,34.339,62.881,36.31,63.907,38.885z"/>
		<g>
			<path style="fill:#FFFFFF;" d="M45.354,83.622c13.688,0,25.691-7.192,32.454-17.998c-8.988,0.517-18.03,3.868-24.698,4.642
				c-3.112,0.361-5.848,0.602-8.423,0.602c-5.046,0-9.477-0.924-14.925-3.677c-7.092-3.57-11.694-7.723-15.907-15.578
				c-0.686,10.391,2.109,17.84,6.806,22.966C27.327,80.217,35.941,83.622,45.354,83.622z"/>
			<path style="fill:#FFFFFF;" d="M39.974,63.494c1.5,0.163,2.929,0.236,4.296,0.236c11.495,0,18.759-5.14,28.966-5.14
				c2.218,0,4.572,0.242,7.142,0.833c-6.416-6.383-13.26-7.735-20.193-7.735c-5.093,0-10.234,0.729-15.293,0.729
				c-3.758,0-7.469-0.402-11.081-1.805c-7.699-2.983-14.616-9.181-22.232-18.868C14.939,47.125,23.562,61.717,39.974,63.494z"/>
		</g>
		<g>
			<path style="fill:#F8C409;" d="M35.259,46.883c2.694,1.046,5.755,1.534,9.632,1.534c1.862,0,3.741-0.106,5.688-0.238
				c-0.409-0.403-1.001-0.541-1.371-1.258c-0.176-0.61-0.285-1.249-0.299-1.913c-0.047-2.167,0.839-4.132,2.282-5.528
				c-0.622-0.236-1.503-0.849-1.574-1.296c-1.229,2.311-3.635,3.91-6.438,3.97c-3.624,0.078-6.7-2.438-7.456-5.847
				c-2.286,1.336-5.631,3.974-8.235,6.142C30.091,44.415,32.651,45.872,35.259,46.883z"/>
		</g>
	</g>
</g>
</svg>
