<svg xmlns="http://www.w3.org/2000/svg" viewBox="0 0 90.709 90.709"><path d="M45.354 88.874c-23.997 0-43.52-19.522-43.52-43.52s19.524-43.52 43.52-43.52 43.52 19.523 43.52 43.521-19.523 43.519-43.52 43.519z" fill="#194093"/><path d="M45.354 2.835c23.483 0 42.52 19.037 42.52 42.52s-19.037 42.52-42.52 42.52-42.52-19.037-42.52-42.52 19.037-42.52 42.52-42.52m0-2C20.806.835.834 20.806.834 45.355s19.971 44.52 44.52 44.52 44.52-19.971 44.52-44.52S69.903.835 45.354.835h0z" fill="#252e78"/><path d="M79.486 33.225l-.804-2.063c-.95-2.436-1.901-4.677-5.418-6.454a.5.5 0 0 0-.182-.113c-4.02-1.293-8.413-7.898-15.919-10.891-.403-.175-2.818-1.042-4.421.708-6.119 6.685-7.601 11.279-11.313 16.731-.902 1.325-2.998 3.606-5.562 5.075-1.806 1.034-4.325 2.938-6.614 4.784-1.589 1.281 20.011 7.012 20.346 6.807.833-.51 2.874-1.018 5.033-1.553 1.904 1.148 4.437 1.746 6.401.964 1.809-.721 3.936-.473 5.395-1.054a7.7 7.7 0 0 0 4.302-9.996 7.7 7.7 0 0 0-9.996-4.302c-1.481.59-2.907 2.279-4.71 2.998-1.786.711-3.119 2.592-3.773 4.543-1.275.481-2.588-.614-2.642-1.252s7.232-14.07 7.639-15.368c.441.397 7.222 4.892 12.743 6.263.453.616 7.099 6.646 8.364 7.765s2.209-.068 2.264-.701c.07-.831-1.133-2.891-1.133-2.891z" fill="#fff"/><path d="M63.907 38.885a11.04 11.04 0 0 1 .169 7.73c.861-.092 1.678-.183 2.352-.451a7.7 7.7 0 0 0 4.302-9.996 7.7 7.7 0 0 0-9.996-4.302c-.671.267-1.332.762-2.02 1.288a11.05 11.05 0 0 1 5.193 5.731z" fill="#f8c409"/><path d="M45.354 83.622c13.688 0 25.691-7.192 32.454-17.998-8.988.517-18.03 3.868-24.698 4.642-3.112.361-5.848.602-8.423.602-5.046 0-9.477-.924-14.925-3.677-7.092-3.57-11.694-7.723-15.907-15.578-.686 10.391 2.109 17.84 6.806 22.966 6.666 5.638 15.28 9.043 24.693 9.043zm-5.38-20.128c1.5.163 2.929.236 4.296.236 11.495 0 18.759-5.14 28.966-5.14 2.218 0 4.572.242 7.142.833-6.416-6.383-13.26-7.735-20.193-7.735-5.093 0-10.234.729-15.293.729-3.758 0-7.469-.402-11.081-1.805-7.699-2.983-14.616-9.181-22.232-18.868 3.36 15.381 11.983 29.973 28.395 31.75z" fill="#fff"/><path d="M35.259 46.883c2.694 1.046 5.755 1.534 9.632 1.534l5.688-.238c-.409-.403-1.001-.541-1.371-1.258a7.45 7.45 0 0 1-.299-1.913c-.047-2.167.839-4.132 2.282-5.528-.622-.236-1.503-.849-1.574-1.296-1.229 2.311-3.635 3.91-6.438 3.97-3.624.078-6.7-2.438-7.456-5.847-2.286 1.336-5.631 3.974-8.235 6.142 2.603 1.966 5.163 3.423 7.771 4.434z" fill="#f8c409"/></svg>