<svg xmlns="http://www.w3.org/2000/svg" viewBox="0 0 90.709 90.709"><circle transform="matrix(.9239 -.3827 .3827 .9239 -13.9041 20.8088)" cx="45.354" cy="45.355" r="43.52" fill="#194093"/><path d="M45.354 2.835c23.483 0 42.52 19.037 42.52 42.52s-19.037 42.52-42.52 42.52-42.52-19.037-42.52-42.52 19.037-42.52 42.52-42.52m0-2C20.806.835.834 20.806.834 45.355s19.971 44.52 44.52 44.52 44.52-19.971 44.52-44.52S69.903.835 45.354.835h0z" fill="#252e78"/><path d="M60.234 13.444c4.892 2.281 8.425 6.324 10.019 11.25a32.14 32.14 0 0 1 3.837 5.831c-.055-.419-.099-.84-.127-1.265-.518-8.076-5.207-14.94-12.543-18.361s-15.607-2.603-22.128 2.195c-.342.251-.692.488-1.048.715 2.293-.522 4.616-.797 6.937-.811 4.797-1.942 10.163-1.833 15.053.446zm17.03 46.79c-2.289 4.909-6.352 8.45-11.302 10.036a32.04 32.04 0 0 1-5.791 3.821c.423-.056.849-.1 1.277-.128 2.166-.139 4.243-.578 6.191-1.287 5.318-1.936 9.668-5.887 12.171-11.256 3.42-7.336 2.6-15.608-2.194-22.128a19.15 19.15 0 0 1-.721-1.058 32.14 32.14 0 0 1 .799 6.906c1.959 4.809 1.857 10.191-.43 15.094zm-46.789 17.03c-4.907-2.288-8.447-6.349-10.033-11.296-1.46-1.761-2.745-3.698-3.824-5.792.056.422.1.846.128 1.273.518 8.076 5.207 14.94 12.543 18.361s15.607 2.603 22.128-2.195a19.23 19.23 0 0 1 1.06-.723c-2.298.52-4.609.784-6.899.798-4.81 1.964-10.197 1.862-15.103-.426zm-17.031-46.79c2.289-4.908 6.351-8.448 11.299-10.034 1.761-1.46 3.698-2.744 5.792-3.822-.422.056-.847.1-1.275.127-8.079.517-14.941 5.207-18.362 12.542s-2.6 15.608 2.194 22.128a19.15 19.15 0 0 1 .721 1.058c-.52-2.301-.787-4.614-.799-6.906-1.959-4.807-1.856-10.189.43-15.093z" fill="#fff"/><path d="M60.441 44.216c.392 5.24-1.991 10.351-6.262 13.423l5.989 16.455a32.1 32.1 0 0 0 5.795-3.823c7.457-6.18 11.784-15.454 11.731-25.129a32.14 32.14 0 0 0-.799-6.906l-16.454 5.98zM46.492 60.438c-5.24.392-10.351-1.989-13.423-6.26l-16.455 5.989c1.083 2.102 2.367 4.039 3.828 5.8 6.181 7.457 15.458 11.78 25.135 11.723a32.01 32.01 0 0 0 6.899-.798l-5.984-16.454zM30.268 46.492c-.392-5.24 1.99-10.352 6.262-13.423l-5.989-16.455c-2.1 1.081-4.037 2.366-5.798 3.825a32.5 32.5 0 0 0-11.728 25.127 32.14 32.14 0 0 0 .799 6.906l16.454-5.98zm13.946-16.231c2.537-.195 5.096.246 7.471 1.34a15.04 15.04 0 0 1 5.962 4.926l16.451-5.988c-1.082-2.106-2.365-4.06-3.845-5.846a32.22 32.22 0 0 0-11.376-8.718c-4.368-2.01-9.026-3.006-13.695-2.978-2.321.014-4.644.289-6.937.811l5.969 16.453z" fill="#f8c409"/></svg>