<?xml version="1.0" encoding="iso-8859-1"?>
<!-- Generator: Adobe Illustrator 22.1.0, SVG Export Plug-In . SVG Version: 6.00 Build 0)  -->
<svg version="1.1" xmlns="http://www.w3.org/2000/svg" xmlns:xlink="http://www.w3.org/1999/xlink" x="0px" y="0px"
	 viewBox="0 0 90.709 90.709" style="enable-background:new 0 0 90.709 90.709;" xml:space="preserve">
<g id="ratownik-1">
	<g>
		<g>
			
				<ellipse transform="matrix(0.9239 -0.3827 0.3827 0.9239 -13.9041 20.8088)" style="fill:#194093;" cx="45.354" cy="45.355" rx="43.52" ry="43.52"/>
			<g>
				<path style="fill:#252E78;" d="M45.354,2.835c23.483,0,42.52,19.037,42.52,42.52s-19.037,42.52-42.52,42.52
					s-42.52-19.037-42.52-42.52S21.871,2.835,45.354,2.835 M45.354,0.835c-24.548,0-44.52,19.971-44.52,44.52
					s19.971,44.52,44.52,44.52s44.52-19.971,44.52-44.52S69.903,0.835,45.354,0.835L45.354,0.835z"/>
			</g>
		</g>
	</g>
</g>
<g id="Warstwa_4">
	<g>
		<path style="fill:#FFFFFF;" d="M60.234,13.444c4.892,2.281,8.425,6.324,10.019,11.25c1.48,1.786,2.763,3.74,3.837,5.831
			c-0.055-0.419-0.099-0.84-0.127-1.265c-0.518-8.076-5.207-14.94-12.543-18.361c-7.334-3.419-15.607-2.603-22.128,2.195
			c-0.342,0.251-0.692,0.488-1.048,0.715c2.293-0.522,4.616-0.797,6.937-0.811C49.978,11.056,55.344,11.165,60.234,13.444z"/>
		<path style="fill:#FFFFFF;" d="M77.264,60.234c-2.289,4.909-6.352,8.45-11.302,10.036c-1.761,1.459-3.697,2.744-5.791,3.821
			c0.423-0.056,0.849-0.1,1.277-0.128c2.166-0.139,4.243-0.578,6.191-1.287c5.318-1.936,9.668-5.887,12.171-11.256
			c3.42-7.336,2.6-15.608-2.194-22.128c-0.254-0.345-0.492-0.699-0.721-1.058c0.52,2.3,0.786,4.614,0.799,6.906
			C79.653,49.949,79.551,55.331,77.264,60.234z"/>
		<path style="fill:#FFFFFF;" d="M30.475,77.264c-4.907-2.288-8.447-6.349-10.033-11.296c-1.46-1.761-2.745-3.698-3.824-5.792
			c0.056,0.422,0.1,0.846,0.128,1.273c0.518,8.076,5.207,14.94,12.543,18.361c7.334,3.42,15.607,2.603,22.128-2.195
			c0.346-0.254,0.7-0.494,1.06-0.723c-2.298,0.52-4.609,0.784-6.899,0.798C40.768,79.654,35.381,79.552,30.475,77.264z"/>
		<path style="fill:#FFFFFF;" d="M13.444,30.474c2.289-4.908,6.351-8.448,11.299-10.034c1.761-1.46,3.698-2.744,5.792-3.822
			c-0.422,0.056-0.847,0.1-1.275,0.127c-8.079,0.517-14.941,5.207-18.362,12.542c-3.42,7.336-2.6,15.608,2.194,22.128
			c0.254,0.345,0.492,0.699,0.721,1.058c-0.52-2.301-0.787-4.614-0.799-6.906C11.055,40.76,11.158,35.378,13.444,30.474z"/>
		<path style="fill:#F8C409;" d="M60.441,44.216c0.392,5.24-1.991,10.351-6.262,13.423l5.989,16.455
			c0.001-0.001,0.003-0.001,0.004-0.002c2.094-1.078,4.03-2.362,5.791-3.821c7.457-6.18,11.784-15.454,11.731-25.129
			c-0.013-2.292-0.279-4.606-0.799-6.906c-0.001-0.003-0.001-0.005-0.002-0.008L60.441,44.216z"/>
		<path style="fill:#F8C409;" d="M46.492,60.438c-5.24,0.392-10.351-1.989-13.423-6.26l-16.455,5.989
			c0.001,0.003,0.003,0.005,0.004,0.008c1.079,2.094,2.363,4.031,3.824,5.792C26.623,73.424,35.9,77.747,45.577,77.69
			c2.29-0.013,4.601-0.277,6.899-0.798c0.001,0,0.003-0.001,0.004-0.001L46.492,60.438z"/>
		<path style="fill:#F8C409;" d="M30.268,46.492c-0.392-5.24,1.99-10.352,6.262-13.423l-5.989-16.455
			c-0.002,0.001-0.004,0.002-0.006,0.003c-2.094,1.078-4.031,2.363-5.792,3.822c-7.455,6.179-11.782,15.452-11.728,25.127
			c0.013,2.292,0.279,4.606,0.799,6.906c0.001,0.003,0.001,0.005,0.002,0.008L30.268,46.492z"/>
		<path style="fill:#F8C409;" d="M44.214,30.261c2.537-0.195,5.096,0.246,7.471,1.34c2.422,1.114,4.451,2.816,5.962,4.926
			l16.451-5.988c-0.003-0.005-0.005-0.01-0.008-0.015c-1.074-2.091-2.357-4.045-3.837-5.831c-3.049-3.68-6.907-6.661-11.376-8.718
			c-4.368-2.01-9.026-3.006-13.695-2.978c-2.321,0.014-4.644,0.289-6.937,0.811c-0.006,0.001-0.012,0.003-0.018,0.004L44.214,30.261
			z"/>
	</g>
</g>
</svg>
