<?xml version="1.0" encoding="UTF-8" standalone="no"?>
<svg
   xmlns:dc="http://purl.org/dc/elements/1.1/"
   xmlns:cc="http://creativecommons.org/ns#"
   xmlns:rdf="http://www.w3.org/1999/02/22-rdf-syntax-ns#"
   xmlns:svg="http://www.w3.org/2000/svg"
   xmlns="http://www.w3.org/2000/svg"
   xmlns:sodipodi="http://sodipodi.sourceforge.net/DTD/sodipodi-0.dtd"
   xmlns:inkscape="http://www.inkscape.org/namespaces/inkscape"
   inkscape:export-ydpi="97.366302"
   inkscape:export-xdpi="97.366302"
   inkscape:export-filename="C:\Users\Joanna\Desktop\Pryzmat\Materiały\Emblematy\Sprawnosci brakujące\sim-spr-h-Ratownik-specjalista.png"
   version="1.1"
   x="0px"
   y="0px"
   viewBox="0 0 90.709 90.709"
   style="enable-background:new 0 0 90.709 90.709;"
   xml:space="preserve"
   id="svg26"
   sodipodi:docname="sim-spr-h-Ratownik-specjalista.svg"
   inkscape:version="1.0 (4035a4fb49, 2020-05-01)"><metadata
   id="metadata32"><rdf:RDF><cc:Work
       rdf:about=""><dc:format>image/svg+xml</dc:format><dc:type
         rdf:resource="http://purl.org/dc/dcmitype/StillImage" /><dc:title /></cc:Work></rdf:RDF></metadata><defs
   id="defs30"><clipPath
     clipPathUnits="userSpaceOnUse"
     id="clipPath50"><circle
       style="fill:#f15a38;fill-rule:evenodd;stroke:none;stroke-width:19.3805;stroke-linecap:round;stop-color:#000000"
       id="circle52"
       cx="197.70859"
       cy="45.909863"
       r="71.826721" /></clipPath><clipPath
     clipPathUnits="userSpaceOnUse"
     id="clipPath1011"><circle
       r="101.44066"
       cy="59.05611"
       cx="385.84714"
       id="circle1013"
       style="opacity:0.5;fill:#f15a38;fill-rule:evenodd;stroke:none;stroke-width:47.6107;stroke-linecap:round;stop-color:#000000" /></clipPath><clipPath
     clipPathUnits="userSpaceOnUse"
     id="clipPath1081"><circle
       r="217.79622"
       cy="126.60494"
       cx="-592.00348"
       id="circle1083"
       style="opacity:0.5;fill:#f15a38;fill-rule:evenodd;stroke:none;stroke-width:102.222;stroke-linecap:round;stop-color:#000000" /></clipPath></defs><sodipodi:namedview
   inkscape:document-rotation="0"
   pagecolor="#ffffff"
   bordercolor="#666666"
   borderopacity="1"
   objecttolerance="10"
   gridtolerance="10"
   guidetolerance="10"
   inkscape:pageopacity="0"
   inkscape:pageshadow="2"
   inkscape:window-width="640"
   inkscape:window-height="480"
   id="namedview28"
   showgrid="false"
   inkscape:zoom="4"
   inkscape:cx="83.58828"
   inkscape:cy="46.152082"
   inkscape:current-layer="svg26"
   inkscape:snap-global="false" />
<g
   id="ratownik-1">
	<g
   id="g10">
		<g
   id="g8">
			
				<ellipse
   transform="matrix(0.7071 -0.7071 0.7071 0.7071 -18.7867 45.3541)"
   style="fill:#194093;"
   cx="45.354"
   cy="45.355"
   rx="43.52"
   ry="43.52"
   id="ellipse2" />
			<g
   id="g6">
				<path
   style="fill:#252E78;"
   d="M45.354,2.835c23.483,0,42.52,19.037,42.52,42.52c0,23.483-19.037,42.52-42.52,42.52      c-23.483,0-42.52-19.037-42.52-42.52C2.835,21.871,21.871,2.835,45.354,2.835 M45.354,0.835c-24.548,0-44.52,19.972-44.52,44.52      s19.972,44.52,44.52,44.52s44.52-19.972,44.52-44.52S69.902,0.835,45.354,0.835L45.354,0.835z"
   id="path4" />
			</g>
		</g>
	</g>
</g>

<path
   id="path1115"
   style="opacity:1;fill:#efac1f;fill-opacity:1;fill-rule:evenodd;stroke:none;stroke-width:1px;stroke-linecap:butt;stroke-linejoin:miter;stroke-opacity:1"
   d="m 26.800781,13.457031 c -0.521171,0.04043 -0.948293,0.240073 -1.27539,0.677735 -0.962239,1.287498 -0.221603,2.537173 0.664062,4.392578 3.741023,7.83718 7.199219,14.710937 7.199219,14.710937 l -0.0039,0.01758 -0.01172,-0.002 c 0,0 -6.873758,-3.458195 -14.710938,-7.199218 -1.855405,-0.885665 -3.10508,-1.626302 -4.392578,-0.664063 -1.55614,1.163014 0.02524,3.606758 0.789063,6.958984 0.959801,4.621551 1.715563,8.978205 1.679812,12.873047 -0.04319,4.705613 -0.874604,9.305624 -1.679812,12.871094 -0.477388,2.095141 -1.330626,3.836291 -1.457032,5.130859 -0.07584,0.776741 0.08442,1.391995 0.667969,1.828125 1.287498,0.962239 2.537173,0.221603 4.392578,-0.664062 7.83718,-3.741023 14.710938,-7.199219 14.710938,-7.199219 h 0.01758 l -0.002,0.01563 c 0,0 -3.458195,6.873758 -7.199219,14.710938 -0.885665,1.855405 -1.626301,3.10508 -0.664062,4.392578 1.163014,1.55614 3.618477,-6.16e-4 6.970703,-0.761719 4.621551,-0.956382 8.880549,-1.705546 12.861328,-1.701172 4.705807,0.0052 9.305624,0.871489 12.871094,1.673828 2.114672,0.444438 3.890979,1.330626 5.185547,1.457031 0.776741,0.07584 1.337307,-0.08442 1.773437,-0.667968 0.962239,-1.287498 0.221603,-2.537173 -0.664062,-4.392578 -3.741023,-7.83718 -7.199219,-14.710938 -7.199219,-14.710938 v -0.01172 l 0.01563,-0.0039 c 0,0 6.873757,3.458195 14.710937,7.199219 1.855405,0.885665 3.10508,1.626301 4.392578,0.664062 1.55614,-1.163014 -0.0579,-3.606758 -0.789062,-6.958984 -0.918767,-4.621551 -1.642219,-8.978205 -1.607997,-12.873047 0.04135,-4.705613 0.837214,-9.305624 1.607997,-12.871094 0.456979,-2.095141 1.330626,-3.836291 1.457031,-5.130859 0.01896,-0.194186 0.02321,-0.37901 0.0098,-0.552734 C 77.080663,26.14481 76.88102,25.717687 76.443358,25.39059 75.15586,24.428351 73.906185,25.168987 72.05078,26.054653 64.2136,29.795676 57.339843,33.253871 57.339843,33.253871 l -0.01172,-0.002 -0.0039,-0.01367 c 0,0 3.458195,-6.873757 7.199219,-14.710937 0.885665,-1.855405 1.626301,-3.10508 0.664062,-4.392578 -1.163014,-1.55614 -3.700508,0.06207 -7.052734,0.773437 -4.621551,0.893888 -8.978205,1.707124 -12.873047,1.673828 -4.705613,-0.04023 -9.305624,-0.923917 -12.871094,-1.673828 -2.095141,-0.444604 -3.742541,-1.315001 -5.037109,-1.441406 -0.194186,-0.01896 -0.379011,-0.02321 -0.552735,-0.0098 z m 0.665607,2.197221 c 12.657621,3.649486 23.137864,3.864631 35.977741,-0.05095 0.42625,-0.129987 0.327863,0.221544 0.247185,0.381809 L 52.560547,38.107422 74.492632,26.938515 c 0.338409,-0.172335 0.60652,-0.153183 0.426195,0.470223 -3.651822,12.624852 -3.818607,23.06148 0.06825,35.910753 0.116344,0.384613 -0.173122,0.351733 -0.411408,0.232301 L 52.576172,52.392578 63.660981,74.372648 c 0.175475,0.347949 0.0725,0.580037 -0.518399,0.407301 -12.963483,-3.789593 -23.019334,-3.711006 -35.622821,-0.0082 -0.345238,0.101428 -0.796226,0.236509 -0.460896,-0.429841 L 38.238281,52.414062 16.228326,63.519568 c -0.46348,0.233857 -0.540392,-0.07764 -0.469682,-0.305962 4.11808,-13.297441 3.5792,-23.854526 -0.02008,-36.100455 -0.137447,-0.467639 0.301655,-0.265782 0.350043,-0.241459 l 22.1687,11.14377 -11.167427,-21.875795 c -0.09948,-0.194872 -0.285761,-0.676363 0.37651,-0.485415 z"
   sodipodi:nodetypes="ssscccsscscssscccsscscssscccsscscscsscccsscscscsssccsssscsssscsssssss" /><path
   id="path1089"
   style="fill:#ffffff;fill-rule:evenodd;stroke:none;stroke-width:1px;stroke-linecap:butt;stroke-linejoin:miter;stroke-opacity:1"
   d="M 32.222656 19.583984 L 45.041016 45.042969 L 19.583984 32.222656 C 22.508858 41.627054 22.336534 49.202695 19.583984 58.486328 L 45.041016 45.667969 L 32.222656 71.125 C 41.627054 68.200126 49.202695 68.37245 58.486328 71.125 L 45.669922 45.671875 L 71.125 58.486328 C 68.200127 49.08193 68.37245 41.506289 71.125 32.222656 L 45.669922 45.039062 L 58.486328 19.583984 C 49.08193 22.508857 41.506289 22.336534 32.222656 19.583984 z " /></svg>
