<svg xmlns="http://www.w3.org/2000/svg" viewBox="0 0 90.709 90.709"><circle transform="matrix(.7071 -.7071 .7071 .7071 -18.7867 45.3541)" cx="45.354" cy="45.355" r="43.52" fill="#194093"/><path d="M45.354 2.835c23.483 0 42.52 19.037 42.52 42.52s-19.037 42.52-42.52 42.52-42.52-19.037-42.52-42.52 19.037-42.52 42.52-42.52m0-2C20.806.835.834 20.807.834 45.355s19.972 44.52 44.52 44.52 44.52-19.972 44.52-44.52S69.902.835 45.354.835h0z" fill="#252e78"/><g fill-rule="evenodd"><path d="M26.801 13.457c-.521.04-.948.24-1.275.678-.962 1.287-.222 2.537.664 4.393l7.199 14.711-.004.018-.012-.002-14.711-7.199c-1.855-.886-3.105-1.626-4.393-.664-1.556 1.163.025 3.607.789 6.959.96 4.622 1.716 8.978 1.68 12.873-.043 4.706-.875 9.306-1.68 12.871-.477 2.095-1.331 3.836-1.457 5.131-.076.777.084 1.392.668 1.828 1.287.962 2.537.222 4.393-.664l14.711-7.199h.018l-.002.016-7.199 14.711c-.886 1.855-1.626 3.105-.664 4.393 1.163 1.556 3.618-.001 6.971-.762 4.622-.956 8.881-1.706 12.861-1.701 4.706.005 9.306.871 12.871 1.674 2.115.444 3.891 1.331 5.186 1.457.777.076 1.337-.084 1.773-.668.962-1.287.222-2.537-.664-4.393l-7.199-14.711v-.012l.016-.004 14.711 7.199c1.855.886 3.105 1.626 4.393.664 1.556-1.163-.058-3.607-.789-6.959-.919-4.622-1.642-8.978-1.608-12.873.041-4.706.837-9.306 1.608-12.871.457-2.095 1.331-3.836 1.457-5.131.019-.194.023-.379.01-.553-.04-.521-.24-.948-.678-1.275-1.287-.962-2.537-.222-4.393.664L57.34 33.254l-.012-.002-.004-.014 7.199-14.711c.886-1.855 1.626-3.105.664-4.393-1.163-1.556-3.701.062-7.053.773-4.622.894-8.978 1.707-12.873 1.674-4.706-.04-9.306-.924-12.871-1.674-2.095-.445-3.743-1.315-5.037-1.441-.194-.019-.379-.023-.553-.01zm.666 2.197c12.658 3.649 23.138 3.865 35.978-.051.426-.13.328.222.247.382L52.561 38.107l21.932-11.169c.338-.172.607-.153.426.47-3.652 12.625-3.819 23.061.068 35.911.116.385-.173.352-.411.232L52.576 52.393l11.085 21.98c.175.348.072.58-.518.407-12.963-3.79-23.019-3.711-35.623-.008-.345.101-.796.237-.461-.43l11.179-21.928-22.01 11.106c-.463.234-.54-.078-.47-.306 4.118-13.297 3.579-23.855-.02-36.1-.137-.468.302-.266.35-.241l22.169 11.144L27.09 16.14c-.099-.195-.286-.676.377-.485z" fill="#efac1f"/><path d="M32.223 19.584l12.818 25.459-25.457-12.82c2.925 9.404 2.753 16.98 0 26.264l25.457-12.818-12.818 25.457c9.404-2.925 16.98-2.753 26.264 0L45.67 45.672l25.455 12.814c-2.925-9.404-2.753-16.98 0-26.264L45.67 45.039l12.816-25.455c-9.404 2.925-16.98 2.753-26.264 0z" fill="#fff"/></g></svg>