<?xml version="1.0" encoding="iso-8859-1"?>
<!-- Generator: Adobe Illustrator 22.1.0, SVG Export Plug-In . SVG Version: 6.00 Build 0)  -->
<svg version="1.1" xmlns="http://www.w3.org/2000/svg" xmlns:xlink="http://www.w3.org/1999/xlink" x="0px" y="0px"
	 viewBox="0 0 90.709 90.709" style="enable-background:new 0 0 90.709 90.709;" xml:space="preserve">
<g id="ratownik-1">
	<g>
		<g>
			
				<ellipse transform="matrix(0.9239 -0.3827 0.3827 0.9239 -13.9041 20.8088)" style="fill:#194093;" cx="45.354" cy="45.355" rx="43.52" ry="43.52"/>
			<g>
				<path style="fill:#252E78;" d="M45.354,2.835c23.483,0,42.52,19.037,42.52,42.52s-19.037,42.52-42.52,42.52
					s-42.52-19.037-42.52-42.52S21.871,2.835,45.354,2.835 M45.354,0.835c-24.548,0-44.52,19.971-44.52,44.52
					s19.971,44.52,44.52,44.52s44.52-19.971,44.52-44.52S69.903,0.835,45.354,0.835L45.354,0.835z"/>
			</g>
		</g>
	</g>
</g>
<g id="Warstwa_4">
	<g>
		<path style="fill:#FCC709;" d="M32.682,42.886c-4.563-0.167-9.992,0.494-13.848,2.72c-5.115,2.953-11.171,10.904-6.6,18.821
			c2.953,5.115,12.179,2.654,17.294-0.299c2.427-1.401,5.843-4.625,8.455-8.171C33.782,53.039,31.71,47.877,32.682,42.886z"/>
		<path style="fill:#FCC709;" d="M49.552,57.56c2.137,4.036,5.424,8.407,9.28,10.633c5.115,2.953,15.029,4.222,19.6-3.695
			c2.953-5.115-3.791-11.874-8.906-14.828c-2.427-1.401-6.927-2.747-11.304-3.237C57.795,51.531,54.361,55.906,49.552,57.56z"/>
		<path style="fill:#FCC709;" d="M53.825,35.613c2.427-3.868,4.568-8.901,4.568-13.353c0-5.906-3.858-15.127-13-15.127
			c-5.906,0-8.388,9.22-8.388,15.127c0,2.803,1.084,7.373,2.849,11.408C44.482,31.489,49.989,32.275,53.825,35.613z"/>
		<path style="fill:#FFFFFF;" d="M45.354,35.433c-5.479,0-9.921,4.442-9.921,9.921s4.442,9.921,9.921,9.921s9.921-4.442,9.921-9.921
			S50.834,35.433,45.354,35.433z M45.354,49.606c-2.348,0-4.252-1.904-4.252-4.252c0-2.348,1.904-4.252,4.252-4.252
			c2.348,0,4.252,1.904,4.252,4.252C49.606,47.703,47.703,49.606,45.354,49.606z"/>
	</g>
</g>
</svg>
