<svg xmlns="http://www.w3.org/2000/svg" viewBox="0 0 90.709 90.709"><circle transform="matrix(.9239 -.3827 .3827 .9239 -13.9041 20.8088)" cx="45.354" cy="45.355" r="43.52" fill="#194093"/><path d="M45.354 2.835c23.483 0 42.52 19.037 42.52 42.52s-19.037 42.52-42.52 42.52-42.52-19.037-42.52-42.52 19.037-42.52 42.52-42.52m0-2C20.806.835.834 20.806.834 45.355s19.971 44.52 44.52 44.52 44.52-19.971 44.52-44.52S69.903.835 45.354.835h0z" fill="#252e78"/><path d="M32.682 42.886c-4.563-.167-9.992.494-13.848 2.72-5.115 2.953-11.171 10.904-6.6 18.821 2.953 5.115 12.179 2.654 17.294-.299 2.427-1.401 5.843-4.625 8.455-8.171-4.201-2.918-6.273-8.08-5.301-13.071zm16.87 14.674c2.137 4.036 5.424 8.407 9.28 10.633 5.115 2.953 15.029 4.222 19.6-3.695 2.953-5.115-3.791-11.874-8.906-14.828-2.427-1.401-6.927-2.747-11.304-3.237-.427 5.098-3.861 9.473-8.67 11.127zm4.273-21.947c2.427-3.868 4.568-8.901 4.568-13.353 0-5.906-3.858-15.127-13-15.127-5.906 0-8.388 9.22-8.388 15.127 0 2.803 1.084 7.373 2.849 11.408 4.628-2.179 10.135-1.393 13.971 1.945z" fill="#fcc709"/><path d="M45.354 35.433c-5.479 0-9.921 4.442-9.921 9.921s4.442 9.921 9.921 9.921 9.921-4.442 9.921-9.921-4.441-9.921-9.921-9.921zm0 14.173c-2.348 0-4.252-1.904-4.252-4.252s1.904-4.252 4.252-4.252 4.252 1.904 4.252 4.252a4.25 4.25 0 0 1-4.252 4.252z" fill="#fff"/></svg>