<svg xmlns="http://www.w3.org/2000/svg" viewBox="0 0 90.709 90.709"><circle transform="matrix(.9239 -.3827 .3827 .9239 -13.9041 20.8088)" cx="45.354" cy="45.355" r="43.52" fill="#194093"/><path d="M45.354 2.835c23.483 0 42.52 19.037 42.52 42.52s-19.037 42.52-42.52 42.52-42.52-19.037-42.52-42.52 19.037-42.52 42.52-42.52m0-2C20.806.835.834 20.806.834 45.355s19.971 44.52 44.52 44.52 44.52-19.971 44.52-44.52S69.903.835 45.354.835h0z" fill="#252e78"/><path d="M45.354 52.441a7.1 7.1 0 0 1-7.087-7.086 7.1 7.1 0 0 1 7.087-7.087 7.1 7.1 0 0 1 7.087 7.087c0 3.907-3.179 7.086-7.087 7.086z" fill="#f8c409"/><path d="M17.683 48.894h5.291v-1.539h12.494a10.07 10.07 0 0 1-.201-2c0-.685.07-1.353.201-2H22.974v-1.54h-5.291s-.236 2.515-3.337 1.418c-1.889-.669-2.76-1.3-4.135-1.3-1.89 0-3.422 1.532-3.422 3.422s1.532 3.422 3.422 3.422c1.375 0 2.246-.631 4.136-1.3 3.1-1.098 3.336 1.417 3.336 1.417zm25.671-13.426c.647-.131 1.315-.201 2-.201s1.353.07 1.999.201V22.974h1.54v-5.291s-2.515-.236-1.418-3.337c.669-1.889 1.3-2.76 1.3-4.135 0-1.89-1.532-3.422-3.422-3.422s-3.422 1.532-3.422 3.422c0 1.375.631 2.246 1.3 4.135 1.097 3.101-1.418 3.337-1.418 3.337v5.291h1.539v12.494zm7.572 1.486c1.12.745 2.083 1.708 2.828 2.828l8.839-8.839 1.089 1.089 3.741-3.741s-1.612-1.945 1.357-3.362c1.809-.863 2.871-1.032 3.843-2.005 1.336-1.336 1.336-3.503 0-4.839s-3.503-1.336-4.839 0c-.973.973-1.142 2.035-2.005 3.843-1.417 2.969-3.362 1.357-3.362 1.357l-3.741 3.741 1.089 1.089-8.839 8.839zM21.928 24.929c2.969 1.417 1.357 3.362 1.357 3.362l3.742 3.741 1.089-1.089 8.839 8.839c.746-1.12 1.708-2.083 2.828-2.828l-8.839-8.839 1.089-1.089-3.741-3.741s-1.945 1.612-3.362-1.357c-.863-1.809-1.032-2.871-2.005-3.843-1.336-1.336-3.503-1.336-4.839 0s-1.336 3.503 0 4.839c.971.972 2.033 1.142 3.842 2.005zm58.57 17.004c-1.375 0-2.246.631-4.136 1.3-3.101 1.097-3.337-1.418-3.337-1.418h-5.291v1.54H55.24c.131.647.201 1.315.201 2s-.07 1.354-.201 2h12.494v1.539h5.291s.236-2.515 3.337-1.418c1.889.669 2.76 1.3 4.135 1.3 1.89 0 3.422-1.532 3.422-3.422a3.42 3.42 0 0 0-3.421-3.421zM68.78 65.78c-2.969-1.417-1.357-3.362-1.357-3.362l-3.741-3.741-1.089 1.089-8.839-8.839c-.746 1.12-1.708 2.083-2.828 2.828l8.839 8.839-1.089 1.089 3.741 3.741s1.945-1.612 3.362 1.357c.863 1.809 1.032 2.871 2.005 3.843 1.336 1.336 3.503 1.336 4.839 0s1.336-3.503 0-4.839c-.972-.973-2.034-1.142-3.843-2.005zM39.782 53.755c-1.12-.745-2.083-1.708-2.828-2.828l-8.839 8.839-1.089-1.089-3.742 3.741s1.612 1.945-1.357 3.362c-1.809.863-2.871 1.032-3.843 2.005-1.336 1.336-1.336 3.503 0 4.839s3.503 1.336 4.839 0c.973-.973 1.142-2.035 2.005-3.843 1.417-2.969 3.362-1.357 3.362-1.357l3.741-3.741-1.089-1.089 8.84-8.839zm7.572 1.485a10.06 10.06 0 0 1-1.999.201c-.685 0-1.353-.07-2-.201v12.494h-1.539v5.291s2.515.236 1.418 3.337c-.669 1.889-1.3 2.76-1.3 4.135 0 1.89 1.532 3.422 3.422 3.422s3.422-1.532 3.422-3.422c0-1.375-.631-2.246-1.3-4.135-1.097-3.101 1.418-3.337 1.418-3.337v-5.291h-1.54V55.24z" fill="#fff"/><path d="M45.354 26.677c10.299 0 18.677 8.379 18.677 18.677s-8.379 18.677-18.677 18.677-18.677-8.379-18.677-18.677 8.379-18.677 18.677-18.677m0-4c-12.524 0-22.677 10.153-22.677 22.677S32.83 68.031 45.354 68.031s22.677-10.153 22.677-22.677a22.68 22.68 0 0 0-22.677-22.677h0z" fill="#f8c409"/></svg>