<svg xmlns="http://www.w3.org/2000/svg" viewBox="0 0 90.709 90.709"><circle transform="matrix(.9239 -.3827 .3827 .9239 -13.9041 20.8088)" cx="45.354" cy="45.355" r="43.52" fill="#194093"/><path d="M45.354 2.835c23.483 0 42.52 19.037 42.52 42.52s-19.037 42.52-42.52 42.52-42.52-19.037-42.52-42.52 19.037-42.52 42.52-42.52m0-2C20.806.835.834 20.806.834 45.355s19.971 44.52 44.52 44.52 44.52-19.971 44.52-44.52S69.903.835 45.354.835h0z" fill="#252e78"/><path d="M58.479 45.183a12.89 12.89 0 0 1 1.235-5.509l.311-.645c-4.108-3.001-9.18-4.777-14.671-4.777a24.79 24.79 0 0 0-14.665 4.772l.305.65c.82 1.747 1.235 3.601 1.235 5.509 0 6.439-4.81 11.967-11.188 12.858l-.454.063-.019.751v2.167h49.57v-2.167c0-.252-.012-.501-.019-.751l-.454-.063c-6.377-.891-11.186-6.419-11.186-12.858z" fill="#f8c409"/><path d="M20.57 74.356h49.57V64.272H20.57v10.084zm39.878-8.444c1.879 0 3.402 1.523 3.402 3.402s-1.523 3.402-3.402 3.402-3.402-1.523-3.402-3.402 1.523-3.402 3.402-3.402zm-15.094 0c1.879 0 3.402 1.523 3.402 3.402s-1.523 3.402-3.402 3.402-3.402-1.523-3.402-3.402 1.524-3.402 3.402-3.402zm-15.093 0c1.879 0 3.402 1.523 3.402 3.402s-1.523 3.402-3.402 3.402-3.402-1.523-3.402-3.402 1.524-3.402 3.402-3.402zM9.544 36.833c0 7.992 4.503 14.928 11.109 18.42 4.949-.692 8.762-4.93 8.762-10.07 0-1.544-.354-3.002-.969-4.313-.332.025-.665.051-1.004.051a13.23 13.23 0 0 1-13.227-13.227c0-1.85.382-3.609 1.068-5.208-3.554 3.735-5.739 8.784-5.739 14.347zm60.512 18.42c6.605-3.492 11.109-10.429 11.109-18.42 0-5.563-2.185-10.612-5.739-14.348.686 1.599 1.068 3.358 1.068 5.208A13.23 13.23 0 0 1 63.267 40.92c-.339 0-.671-.026-1.004-.051-.615 1.311-.969 2.769-.969 4.313 0 5.141 3.813 9.38 8.762 10.071z" fill="#fff"/></svg>