<svg xmlns="http://www.w3.org/2000/svg" viewBox="0 0 90.709 90.709"><circle transform="matrix(.9239 -.3827 .3827 .9239 -13.9041 20.8088)" cx="45.354" cy="45.355" r="43.52" fill="#194093"/><path d="M45.354 2.835c23.483 0 42.52 19.037 42.52 42.52s-19.037 42.52-42.52 42.52-42.52-19.037-42.52-42.52 19.037-42.52 42.52-42.52m0-2C20.806.835.834 20.806.834 45.355s19.971 44.52 44.52 44.52 44.52-19.971 44.52-44.52S69.903.835 45.354.835h0z" fill="#252e78"/><path d="M37.447 40.789l-7.62 31.46L53.262 49.92l7.62-31.46-23.435 22.329zm7.907 9.668c-2.818 0-5.102-2.284-5.102-5.102s2.284-5.102 5.102-5.102 5.102 2.284 5.102 5.102-2.284 5.102-5.102 5.102z" fill="#fff"/><path d="M77.476 35.774h2.495c-3.504-12.643-13.758-22.501-26.625-25.437V12.8a33.65 33.65 0 0 1 24.13 22.974zM37.325 12.809v-2.463c-12.849 2.946-23.087 12.797-26.587 25.428h2.495c3.378-11.305 12.569-20.121 24.092-22.965zm14.951 65.347c.189.581.303 1.229.303 1.962 0 .147-.013.29-.022.435 13.678-2.795 24.542-13.39 27.747-26.915h-2.463C74.705 65.93 64.759 75.525 52.276 78.156zm-13.103.142c-12.828-2.402-23.108-12.127-26.305-24.66h-2.463c3.229 13.625 14.233 24.271 28.053 26.97l1.154-1.668c-.16-.199-.303-.417-.439-.642zM23.41 38.774l-3.004 11.864h-3.235l-1.726-7.384h-.033l-1.725 7.384h-3.269L7.53 38.774h3.054l1.642 8.661h.034l2.024-8.661h2.339l1.975 8.661h.033l1.775-8.661h3.004M50.347 7.487v11.864h-2.921l-4.297-7.55-.034 7.55h-2.77V7.487h2.936l4.281 7.567-.099-7.567h2.904m32.431 31.287v2.489h-4.53v2.157h3.617v2.489h-3.617v2.239h4.762v2.49h-7.666V38.774h7.434M45.53 71.54c2.556 0 3.817 1.344 3.817 1.344l-1.228 2.373s-1.195-1.045-2.622-1.045c-.597 0-1.261.266-1.261.93 0 1.493 5.343 1.228 5.343 4.978 0 1.974-1.51 3.684-4.182 3.684-2.787 0-4.331-1.693-4.331-1.693l1.527-2.207s1.344 1.228 2.838 1.228c.597 0 1.244-.232 1.244-.945 0-1.411-5.343-1.36-5.343-5.011 0-2.193 1.842-3.636 4.198-3.636" fill="#f8c409"/></svg>