<?xml version="1.0" encoding="iso-8859-1"?>
<!-- Generator: Adobe Illustrator 22.1.0, SVG Export Plug-In . SVG Version: 6.00 Build 0)  -->
<svg version="1.1" xmlns="http://www.w3.org/2000/svg" xmlns:xlink="http://www.w3.org/1999/xlink" x="0px" y="0px"
	 viewBox="0 0 90.709 90.709" style="enable-background:new 0 0 90.709 90.709;" xml:space="preserve">
<g id="ratownik-1">
	<g>
		<g>
			
				<ellipse transform="matrix(0.9239 -0.3827 0.3827 0.9239 -13.9041 20.8088)" style="fill:#194093;" cx="45.354" cy="45.355" rx="43.52" ry="43.52"/>
			<g>
				<path style="fill:#252E78;" d="M45.354,2.835c23.483,0,42.52,19.037,42.52,42.52s-19.037,42.52-42.52,42.52
					s-42.52-19.037-42.52-42.52S21.871,2.835,45.354,2.835 M45.354,0.835c-24.548,0-44.52,19.971-44.52,44.52
					s19.971,44.52,44.52,44.52s44.52-19.971,44.52-44.52S69.903,0.835,45.354,0.835L45.354,0.835z"/>
			</g>
		</g>
	</g>
</g>
<g id="Warstwa_4">
	<g>
		<path style="fill:#FFFFFF;" d="M37.447,40.789l-7.62,31.46L53.262,49.92l7.62-31.46L37.447,40.789z M45.354,50.457
			c-2.818,0-5.102-2.284-5.102-5.102c0-2.818,2.284-5.102,5.102-5.102c2.818,0,5.102,2.284,5.102,5.102
			C50.457,48.172,48.172,50.457,45.354,50.457z"/>
		<path style="fill:#F8C409;" d="M77.476,35.774h2.495c-3.504-12.643-13.758-22.501-26.625-25.437V12.8
			C64.887,15.635,74.094,24.457,77.476,35.774z"/>
		<path style="fill:#F8C409;" d="M37.325,12.809v-2.463c-12.849,2.946-23.087,12.797-26.587,25.428h2.495
			C16.611,24.469,25.802,15.653,37.325,12.809z"/>
		<path style="fill:#F8C409;" d="M52.276,78.156c0.189,0.581,0.303,1.229,0.303,1.962c0,0.147-0.013,0.29-0.022,0.435
			c13.678-2.795,24.542-13.39,27.747-26.915h-2.463C74.705,65.93,64.759,75.525,52.276,78.156z"/>
		<path style="fill:#F8C409;" d="M39.173,78.298c-12.828-2.402-23.108-12.127-26.305-24.66h-2.463
			c3.229,13.625,14.233,24.271,28.053,26.97l1.154-1.668C39.452,78.741,39.309,78.523,39.173,78.298z"/>
		<polyline style="fill:#F8C409;" points="23.41,38.774 20.406,50.638 17.171,50.638 15.445,43.254 15.412,43.254 13.687,50.638 
			10.418,50.638 7.53,38.774 10.584,38.774 12.226,47.435 12.26,47.435 14.284,38.774 16.623,38.774 18.598,47.435 18.631,47.435 
			20.406,38.774 23.41,38.774 		"/>
		<polyline style="fill:#F8C409;" points="50.347,7.487 50.347,19.351 47.426,19.351 43.129,11.801 43.095,19.351 40.325,19.351 
			40.325,7.487 43.261,7.487 47.542,15.054 47.443,7.487 50.347,7.487 		"/>
		<polyline style="fill:#F8C409;" points="82.778,38.774 82.778,41.263 78.248,41.263 78.248,43.42 81.865,43.42 81.865,45.909 
			78.248,45.909 78.248,48.148 83.01,48.148 83.01,50.638 75.344,50.638 75.344,38.774 82.778,38.774 		"/>
		<path style="fill:#F8C409;" d="M45.53,71.54c2.556,0,3.817,1.344,3.817,1.344l-1.228,2.373c0,0-1.195-1.045-2.622-1.045
			c-0.597,0-1.261,0.266-1.261,0.93c0,1.493,5.343,1.228,5.343,4.978c0,1.974-1.51,3.684-4.182,3.684
			c-2.787,0-4.331-1.693-4.331-1.693l1.527-2.207c0,0,1.344,1.228,2.838,1.228c0.597,0,1.244-0.232,1.244-0.945
			c0-1.411-5.343-1.36-5.343-5.011C41.332,72.983,43.174,71.54,45.53,71.54"/>
	</g>
</g>
</svg>
