<?xml version="1.0" encoding="utf-8"?>
<!-- Generator: Adobe Illustrator 24.2.0, SVG Export Plug-In . SVG Version: 6.00 Build 0)  -->
<svg version="1.1" id="Layer_1" xmlns="http://www.w3.org/2000/svg" x="0px" y="0px"
	 viewBox="0 0 87.87 87.87" style="enable-background:new 0 0 87.87 87.87;" xml:space="preserve">
<style type="text/css">
	.st0{clip-path:url(#SVGID_2_);fill:#231F20;}
	.st1{clip-path:url(#SVGID_2_);fill:none;stroke:#231F20;stroke-width:2.508;stroke-miterlimit:10;}
	.st2{clip-path:url(#SVGID_2_);fill-rule:evenodd;clip-rule:evenodd;fill:#231F20;}
</style>
<g>
	<defs>
		<rect id="SVGID_1_" y="0" width="87.87" height="87.87"/>
	</defs>
	<clipPath id="SVGID_2_">
		<use xlink:href="#SVGID_1_"  style="overflow:visible;"/>
	</clipPath>
	<path class="st0" d="M38.18,21.09c-3.63,0-6.57,10.23-6.57,22.85c0,12.62,2.94,22.85,6.57,22.85c3.63,0,6.57-10.23,6.57-22.85
		C44.75,31.32,41.81,21.09,38.18,21.09 M38.18,56.98c-2.06,0-3.73-5.84-3.73-13.04c0-7.2,1.67-13.04,3.73-13.04
		c2.06,0,3.72,5.84,3.72,13.04C41.91,51.14,40.24,56.98,38.18,56.98"/>
	<line class="st1" x1="53.32" y1="61.82" x2="53.32" y2="26.16"/>
	<path class="st2" d="M53.36,20.39c1.6,0,2.9,2.53,2.9,5.66c0,3.13-1.3,5.66-2.91,5.66c-1.6,0-2.9-2.53-2.9-5.66
		C50.45,22.93,51.75,20.39,53.36,20.39"/>
	<path class="st2" d="M53.36,56.16c1.6,0,2.9,2.53,2.9,5.66c0,3.13-1.3,5.66-2.9,5.66c-1.6,0-2.9-2.53-2.91-5.66
		C50.45,58.7,51.75,56.17,53.36,56.16"/>
	<path class="st0" d="M48.37,77.09l1.18,8.92c-1.85,0.24-3.74,0.37-5.61,0.37c-1.82,0-3.65-0.12-5.44-0.35l1.15-8.93
		C42.51,77.47,45.49,77.47,48.37,77.09 M69.8,10.28c-2.94-2.26-6.16-4.13-9.58-5.55l-3.46,8.31c2.69,1.12,5.23,2.59,7.55,4.37
		L69.8,10.28z M4.77,60.31c1.43,3.41,3.3,6.63,5.57,9.57l7.12-5.5c-1.79-2.31-3.26-4.85-4.39-7.53L4.77,60.31z M18.19,77.67
		c2.95,2.26,6.18,4.11,9.6,5.52l3.43-8.32c-2.69-1.11-5.24-2.57-7.56-4.35L18.19,77.67z M56.78,74.82l3.46,8.31
		c3.41-1.42,6.63-3.29,9.57-5.56l-5.49-7.13C62.01,72.23,59.47,73.7,56.78,74.82 M86.02,38.39l-8.92,1.17
		c0.19,1.44,0.28,2.91,0.28,4.38c0,1.45-0.09,2.92-0.28,4.36l8.93,1.16c0.24-1.82,0.35-3.68,0.35-5.51
		C86.38,42.08,86.26,40.22,86.02,38.39 M70.49,64.27l7.14,5.48c2.26-2.94,4.12-6.17,5.54-9.59l-8.32-3.44
		C73.74,59.41,72.27,61.95,70.49,64.27 M83.16,27.69c-1.42-3.42-3.28-6.64-5.54-9.58l-7.14,5.48c1.78,2.32,3.25,4.86,4.37,7.55
		L83.16,27.69z M10.5,43.94c0-18.44,15-33.44,33.44-33.44c1.47,0,2.95,0.1,4.41,0.29l1.17-8.92C47.67,1.62,45.8,1.5,43.94,1.5
		C20.54,1.5,1.5,20.54,1.5,43.94c0,1.86,0.12,3.74,0.36,5.58l8.92-1.18C10.59,46.89,10.5,45.41,10.5,43.94"/>
</g>
</svg>
