<?xml version="1.0" encoding="utf-8"?>
<!-- Generator: Adobe Illustrator 24.2.0, SVG Export Plug-In . SVG Version: 6.00 Build 0)  -->
<svg version="1.1" id="Layer_1" xmlns="http://www.w3.org/2000/svg" xmlns:xlink="http://www.w3.org/1999/xlink" x="0px" y="0px"
	 viewBox="0 0 87.87 87.87" style="enable-background:new 0 0 87.87 87.87;" xml:space="preserve">
<style type="text/css">
	.st0{clip-path:url(#SVGID_2_);fill:#231F20;}
	.st1{clip-path:url(#SVGID_2_);fill:none;stroke:#231F20;stroke-width:2.508;stroke-miterlimit:10;}
	.st2{clip-path:url(#SVGID_2_);fill-rule:evenodd;clip-rule:evenodd;fill:#231F20;}
</style>
<g>
	<defs>
		<rect id="SVGID_1_" y="0" width="87.87" height="87.87"/>
	</defs>
	<clipPath id="SVGID_2_">
		<use xlink:href="#SVGID_1_"  style="overflow:visible;"/>
	</clipPath>
	<path class="st0" d="M43.94,21.09c-3.63,0-6.57,10.23-6.57,22.85c0,12.62,2.94,22.85,6.57,22.85c3.63,0,6.57-10.23,6.57-22.85
		C50.51,31.32,47.57,21.09,43.94,21.09 M43.94,56.98c-2.06,0-3.73-5.84-3.73-13.04c0-7.2,1.67-13.04,3.73-13.04
		c2.06,0,3.72,5.84,3.72,13.04C47.66,51.14,45.99,56.98,43.94,56.98"/>
	<path class="st0" d="M4.73,60.22c1.42,3.41,3.28,6.63,5.54,9.57l7.14-5.49c-1.78-2.32-3.25-4.85-4.37-7.54L4.73,60.22z"/>
	<path class="st0" d="M18.09,77.6c2.94,2.26,6.16,4.12,9.57,5.54l3.45-8.31c-2.69-1.12-5.22-2.58-7.54-4.37L18.09,77.6z"/>
	<path class="st0" d="M43.94,1.5C20.53,1.5,1.5,20.54,1.5,43.94c0,1.86,0.12,3.74,0.36,5.57l8.92-1.17
		c-0.19-1.45-0.29-2.92-0.29-4.4c0-18.44,15-33.44,33.44-33.44c18.44,0,33.44,15,33.44,33.44c0,18.44-15,33.44-33.44,33.44
		c-1.47,0-2.95-0.1-4.4-0.29l-1.17,8.92c1.83,0.24,3.71,0.36,5.57,0.36c23.4,0,42.44-19.04,42.44-42.44
		C86.38,20.54,67.34,1.5,43.94,1.5"/>
	<line class="st1" x1="56.61" y1="31.31" x2="31.39" y2="56.53"/>
	<path class="st2" d="M27.29,60.59c-1.13-1.13-0.26-3.84,1.95-6.05c2.21-2.21,4.92-3.08,6.05-1.95c1.14,1.13,0.26,3.84-1.95,6.05
		C31.13,60.85,28.42,61.72,27.29,60.59"/>
	<path class="st2" d="M52.58,35.29c-1.13-1.13-0.26-3.85,1.95-6.06c2.21-2.21,4.92-3.08,6.06-1.95c1.13,1.13,0.26,3.85-1.95,6.06
		C56.43,35.55,53.72,36.42,52.58,35.29"/>
</g>
</svg>
