<?xml version="1.0" encoding="utf-8"?>
<!-- Generator: Adobe Illustrator 24.2.0, SVG Export Plug-In . SVG Version: 6.00 Build 0)  -->
<svg version="1.1" id="Layer_1" xmlns="http://www.w3.org/2000/svg" x="0px" y="0px"
	 viewBox="0 0 87.87 87.87" style="enable-background:new 0 0 87.87 87.87;" xml:space="preserve">
<style type="text/css">
	.st0{clip-path:url(#SVGID_2_);fill:#231F20;}
	.st1{clip-path:url(#SVGID_2_);fill:none;stroke:#231F20;stroke-width:2.508;stroke-miterlimit:10;}
	.st2{clip-path:url(#SVGID_2_);fill-rule:evenodd;clip-rule:evenodd;fill:#231F20;}
</style>
<g>
	<defs>
		<rect id="SVGID_1_" y="0" width="87.87" height="87.87"/>
	</defs>
	<clipPath id="SVGID_2_">
		<use xlink:href="#SVGID_1_"  style="overflow:visible;"/>
	</clipPath>
	<path class="st0" d="M43.94,1.5C20.54,1.5,1.5,20.54,1.5,43.94c0,23.4,19.04,42.44,42.44,42.44c23.4,0,42.44-19.04,42.44-42.44
		C86.38,20.54,67.34,1.5,43.94,1.5 M43.94,77.38c-18.44,0-33.44-15-33.44-33.44c0-18.44,15-33.44,33.44-33.44
		c18.44,0,33.44,15,33.44,33.44C77.38,62.37,62.38,77.38,43.94,77.38"/>
	<path class="st0" d="M43.94,21.09c-3.63,0-6.57,10.23-6.57,22.85c0,12.62,2.94,22.85,6.57,22.85c3.63,0,6.57-10.23,6.57-22.85
		C50.51,31.32,47.57,21.09,43.94,21.09 M43.94,56.98c-2.06,0-3.73-5.84-3.73-13.04c0-7.2,1.67-13.04,3.73-13.04
		c2.06,0,3.72,5.84,3.72,13.04C47.66,51.14,45.99,56.98,43.94,56.98"/>
	<line class="st1" x1="56.61" y1="31.31" x2="31.39" y2="56.53"/>
	<path class="st2" d="M27.29,60.59c-1.13-1.13-0.26-3.84,1.95-6.05c2.21-2.21,4.92-3.08,6.05-1.95c1.14,1.13,0.26,3.84-1.95,6.05
		C31.13,60.85,28.42,61.72,27.29,60.59"/>
	<path class="st2" d="M52.58,35.29c-1.13-1.13-0.26-3.85,1.95-6.06c2.21-2.21,4.92-3.08,6.06-1.95c1.13,1.13,0.26,3.85-1.95,6.06
		C56.43,35.55,53.72,36.42,52.58,35.29"/>
	<line class="st1" x1="31.26" y1="31.31" x2="56.48" y2="56.53"/>
	<path class="st2" d="M60.59,60.59c1.13-1.13,0.26-3.84-1.95-6.05c-2.21-2.21-4.92-3.08-6.06-1.95c-1.13,1.13-0.26,3.84,1.95,6.05
		C56.74,60.85,59.45,61.72,60.59,60.59"/>
	<path class="st2" d="M35.29,35.29c1.13-1.13,0.26-3.85-1.95-6.06c-2.21-2.21-4.92-3.08-6.05-1.95s-0.26,3.85,1.95,6.06
		C31.44,35.55,34.16,36.42,35.29,35.29"/>
</g>
</svg>
