<?xml version="1.0" encoding="utf-8"?>
<!-- Generator: Adobe Illustrator 24.2.0, SVG Export Plug-In . SVG Version: 6.00 Build 0)  -->
<svg version="1.1" id="Warstwa_2" xmlns="http://www.w3.org/2000/svg" x="0px" y="0px"
	 viewBox="0 0 87.87 87.87" style="enable-background:new 0 0 87.87 87.87;" xml:space="preserve">
<g>
	<g>
		<g>
			<path d="M39.71,77.14l-1.15,8.94c1.8,0.23,3.63,0.35,5.45,0.35c1.88,0,3.77-0.13,5.62-0.37l-1.18-8.94
				C45.58,77.51,42.59,77.51,39.71,77.14z"/>
			<path d="M69.93,10.2c-2.94-2.27-6.18-4.14-9.6-5.56l-3.46,8.33c2.7,1.12,5.24,2.59,7.56,4.38L69.93,10.2z"/>
			<path d="M4.78,60.31c1.43,3.42,3.3,6.64,5.58,9.58l7.13-5.51c-1.79-2.32-3.27-4.86-4.39-7.55L4.78,60.31z"/>
			<path d="M18.22,77.71c2.95,2.26,6.19,4.12,9.62,5.53l3.43-8.34c-2.7-1.11-5.25-2.58-7.57-4.36L18.22,77.71z"/>
			<path d="M56.89,74.86l3.47,8.32c3.42-1.42,6.65-3.3,9.59-5.57l-5.5-7.14C62.12,72.26,59.58,73.74,56.89,74.86z"/>
			<path d="M86.18,38.36l-8.94,1.17c0.19,1.44,0.28,2.92,0.28,4.39c0,1.46-0.1,2.92-0.28,4.36l8.94,1.16
				c0.24-1.82,0.36-3.68,0.36-5.52C86.54,42.06,86.42,40.19,86.18,38.36z"/>
			<path d="M70.62,64.28l7.15,5.49c2.26-2.95,4.13-6.18,5.55-9.61l-8.33-3.45C73.87,59.41,72.4,61.96,70.62,64.28z"/>
			<path d="M83.31,27.64c-1.42-3.42-3.29-6.65-5.55-9.6l-7.15,5.49c1.78,2.32,3.26,4.87,4.38,7.56L83.31,27.64z"/>
			<path d="M10.51,43.91c0-18.47,15.03-33.5,33.5-33.5c1.48,0,2.96,0.1,4.41,0.29l1.17-8.94c-1.84-0.24-3.72-0.36-5.59-0.36
				C20.57,1.39,1.5,20.47,1.5,43.91c0,1.87,0.12,3.75,0.36,5.59l8.94-1.18C10.61,46.87,10.51,45.39,10.51,43.91z"/>
		</g>
	</g>
	<g>
		<path d="M64.25,32.54C64.26,32.55,64.26,32.55,64.25,32.54c-1.42-2.85-1.85-3.1-1.85-3.1s0,0,0,0.01
			c-3.44-3.74-15.63-3.96-18.39-3.96c-2.63,0-13.81,0.2-17.85,3.44l-0.18,0.16c-0.57,0.65-0.76,1.02-1.18,1.69
			c-2.47,3.68-3.76,7.96-3.76,12.37c0,7.65,3.93,14.71,10.51,18.88l0.49,0.31h23.94l0.49-0.31c6.58-4.17,10.51-11.23,10.51-18.88
			C66.99,39.43,66.04,35.8,64.25,32.54z M44.02,29.49c7.41,0,12.36,1.1,14.43,1.99c-1.5,0.69-3.37,1.25-5.47,1.67
			c-2.38,0.36-5.38,0.62-8.95,0.62c-2.95,0-5.51-0.17-7.66-0.44c-2.58-0.44-4.85-1.1-6.58-1.93C31.94,30.53,36.82,29.49,44.02,29.49
			z M54.81,58.34H33.22c-5.13-3.47-8.18-9.1-8.18-15.19c0-2.88,0.69-5.68,1.99-8.23c2.23,1.3,5.73,2.01,9.02,2.4
			c2.53,0.42,5.28,0.66,8.14,0.66c3.29,0,6.47-0.3,9.32-0.86c2.81-0.42,5.59-1.09,7.48-2.19c1.31,2.55,1.99,5.35,1.99,8.22
			C62.99,49.23,59.94,54.87,54.81,58.34z"/>
		<path d="M51.88,47.55c-1.85-2.51-5.53-4.22-9.77-4.22c-4.27,0-7.97,1.74-9.81,4.27H32.3c0,0,0,0,0,0c0,0,0,0,0,0h0.01
			c1.84,2.54,5.54,4.27,9.81,4.27c4.21,0,7.86-1.69,9.72-4.17l3.96,4.07l-0.12-8.13L51.88,47.55z"/>
	</g>
</g>
</svg>
