<?xml version="1.0" encoding="utf-8"?>
<!-- Generator: Adobe Illustrator 24.2.0, SVG Export Plug-In . SVG Version: 6.00 Build 0)  -->
<svg version="1.1" xmlns="http://www.w3.org/2000/svg" x="0px" y="0px"
	 viewBox="0 0 87.87 87.87" style="enable-background:new 0 0 87.87 87.87;" xml:space="preserve">
<g id="Warstwa_3">
</g>
<g id="Warstwa_2">
	<g>
		<g>
			<g>
				<g>
					<g>
						<path d="M4.74,60.23c1.42,3.42,3.29,6.64,5.55,9.59l7.15-5.5c-1.78-2.32-3.26-4.86-4.38-7.55L4.74,60.23z"/>
						<path d="M18.13,77.65c2.94,2.26,6.17,4.13,9.59,5.55l3.46-8.33c-2.69-1.12-5.23-2.59-7.55-4.37L18.13,77.65z"/>
						<path d="M44.01,1.4C20.57,1.4,1.5,20.48,1.5,43.92c0,1.87,0.12,3.75,0.36,5.58l8.94-1.18c-0.19-1.45-0.29-2.93-0.29-4.41
							c0-18.47,15.03-33.5,33.5-33.5c18.48,0,33.51,15.03,33.51,33.5c0,18.47-15.03,33.5-33.51,33.5c-1.47,0-2.96-0.1-4.41-0.29
							l-1.17,8.94c1.84,0.24,3.72,0.36,5.58,0.36c23.45,0,42.52-19.07,42.52-42.51C86.54,20.48,67.46,1.4,44.01,1.4z"/>
					</g>
				</g>
			</g>
		</g>
		<path d="M62.08,49.17c-1.25-1.76-1.9-3.86-1.98-6.02c-0.72-19.76-20-18.87-23.41-11.93c-1.19,2.43-6.59,0.34-10.73-0.8
			c-4.14-1.14-1.65,5.91-1.65,5.91C22.8,45.37,33.5,46.84,35.76,48.1c2.26,1.26,1.95,5.88,1.95,5.88
			c-0.49,3.81,3.37,11.78,3.37,11.78c13.25,1.57,21.13-8.74,22.49-11.2C64.37,53.13,63.53,51.21,62.08,49.17z M53.96,41.23
			c0,2.34-1.91,4.25-4.25,4.25c-2.34,0-4.25-1.91-4.25-4.25V35.5c0-0.48,0.39-0.88,0.88-0.88s0.88,0.39,0.88,0.88v5.72
			c0,1.38,1.12,2.5,2.5,2.5c1.38,0,2.5-1.12,2.5-2.5V35.5c0-0.48,0.39-0.88,0.88-0.88s0.88,0.39,0.88,0.88V41.23z"/>
	</g>
</g>
</svg>
