<?xml version="1.0" encoding="utf-8"?>
<!-- Generator: Adobe Illustrator 24.2.0, SVG Export Plug-In . SVG Version: 6.00 Build 0)  -->
<svg version="1.1" id="Warstwa_2" xmlns="http://www.w3.org/2000/svg" x="0px" y="0px"
	 viewBox="0 0 87.87 87.87" style="enable-background:new 0 0 87.87 87.87;" xml:space="preserve">
<g>
	<g>
		<path d="M44.02,1.4C20.57,1.4,1.5,20.47,1.5,43.92c0,23.44,19.07,42.52,42.52,42.52c23.45,0,42.52-19.07,42.52-42.52
			C86.54,20.47,67.46,1.4,44.02,1.4z M44.02,77.42c-18.47,0-33.5-15.03-33.5-33.5c0-18.47,15.03-33.5,33.5-33.5
			c18.47,0,33.5,15.03,33.5,33.5C77.52,62.39,62.49,77.42,44.02,77.42z"/>
	</g>
	<path d="M31.98,56.47c-3.68,0.25-3.1,3.98-1.92,4.63c1.18,0.65,2.14-0.26,2.15-0.99c-1.03,0.26-1.57,0.02-1.73-0.46
		c-0.15-0.48-0.31-1.21,0.74-1.61c1.04-0.39,1.78,0.39,1.95,1.25c0.17,0.85,0.53,2.68-1.42,3.74c-1.95,1.06-5.15-0.55-6.41-4.28
		c-0.06-0.18-0.11-0.36-0.16-0.54l44.93-17.8l-1.47-3.72l-9.94,3.94l-1.39-2.98c0.09-0.04,0.19-0.08,0.28-0.12
		c3.21-1.13,6.95-2.68,7.88-3.99c-0.61-3.02-6.89-11.43-17.83-9.68l0.59,1.84c-0.45,0.07-0.91,0.16-1.38,0.26
		c0,0-15.93,2.54-21.37,12.56c-7.35,13.55-5.59,22.44,0.68,26.79c3.84,2.22,8.26-0.52,9.22-2.34
		C36.49,60.88,35.43,56.23,31.98,56.47z M55.4,29.01c0.96-0.07,1.8,0.65,1.87,1.62c0.07,0.96-0.65,1.8-1.62,1.87
		c-0.96,0.07-1.8-0.65-1.87-1.62C53.72,29.92,54.44,29.08,55.4,29.01z M53.62,39.18l1.37,2.93l-15.85,6.28l-1.56-3.34
		C42.38,43.25,48.5,41.19,53.62,39.18z M31.85,47.4c0.58-0.28,1.25-0.58,1.99-0.89l1.57,3.35l-9.99,3.96
		C26.26,51.48,28.29,49.18,31.85,47.4z"/>
</g>
</svg>
