<?xml version="1.0" encoding="utf-8"?>
<!-- Generator: Adobe Illustrator 24.2.0, SVG Export Plug-In . SVG Version: 6.00 Build 0)  -->
<svg version="1.1" id="Warstwa_3" xmlns="http://www.w3.org/2000/svg" x="0px" y="0px"
	 viewBox="0 0 87.87 87.87" style="enable-background:new 0 0 87.87 87.87;" xml:space="preserve">
<g>
	<g>
		<path d="M44.02,1.4C20.57,1.4,1.5,20.47,1.5,43.92c0,23.44,19.07,42.52,42.52,42.52c23.45,0,42.52-19.07,42.52-42.52
			C86.54,20.47,67.46,1.4,44.02,1.4z M44.02,77.42c-18.47,0-33.5-15.03-33.5-33.5c0-18.47,15.03-33.5,33.5-33.5
			c18.47,0,33.5,15.03,33.5,33.5C77.52,62.39,62.49,77.42,44.02,77.42z"/>
	</g>
	<path d="M67.94,34.47c-0.62,0.94-1.13,1.73-1.65,2.17c-0.26,0.21-0.47,0.3-0.65,0.34l-0.26,0.04c-1.76-3.9-5.67-6.62-10.23-6.62
		H37.26c-1.4,0-2.74,0.27-3.97,0.74l-4.25-2.82l-0.15,5.54c-0.11,0.03-0.18,0.05-0.18,0.05s-6.92,5.17-8.73,5.45
		c-0.07,0.01-0.13,0.05-0.2,0.08c-0.02,0-0.04-0.02-0.06-0.02c-0.81,0-1.47,1.6-1.47,3.57c0,1.97,0.66,3.57,1.47,3.57
		c0.03,0,0.07-0.02,0.1-0.02c1.1,0.11,8.19,0.99,11.36,4.79l2.45,7.87h1.85l1.11-5.87l1.89,5.87h1.85l1.14-6.07h8.98l1.96,6.07h1.85
		l1.15-6.09c0.12,0,0.24-0.01,0.36-0.02l1.97,6.1h1.85l1.46-7.76c3.19-1.98,5.33-5.51,5.33-9.54v-0.29c0-0.6-0.06-1.18-0.15-1.75
		c0.09-0.03,0.19-0.07,0.29-0.11c0.18-0.08,0.36-0.15,0.51-0.27c0.66-0.42,1.12-1.06,1.33-1.67C68.77,36.59,68.56,35.43,67.94,34.47
		z"/>
</g>
</svg>
