<svg xmlns="http://www.w3.org/2000/svg" viewBox="0 0 105.47 94.04"><defs><style>.cls-1{fill:#f0ae00;}.cls-2{fill:#f19e19;}.cls-3{fill:#fff;}.cls-4{fill:#c90c0f;}</style></defs><title>sprawnosci-zuchowe</title><g id="Warstwa_1" data-name="Warstwa 1"><path class="cls-1" d="M52.74,92.49a8.54,8.54,0,0,1-7.47-4.31L2.72,14.48A8.62,8.62,0,0,1,10.18,1.54H95.29a8.63,8.63,0,0,1,7.47,12.94L60.2,88.18a8.53,8.53,0,0,1-7.46,4.31"/><path class="cls-2" d="M95.29,3.09a7.08,7.08,0,0,1,6.13,10.62L58.87,87.41a7.08,7.08,0,0,1-12.26,0L4.05,13.71A7.08,7.08,0,0,1,10.18,3.09H95.29m0-3.09H10.18a10.17,10.17,0,0,0-8.8,15.25L43.93,89a10.16,10.16,0,0,0,17.61,0l42.55-73.7a10.06,10.06,0,0,0,0-10.17A10.06,10.06,0,0,0,95.29,0"/></g><g id="Warstwa_2" data-name="Warstwa 2"><path class="cls-3" d="M49.89,82.11a3,3,0,0,0,6,0V78.65h-6Z"/><path class="cls-4" d="M49.89,53.69v25h6v-25a10.49,10.49,0,0,1-3.29.59A7.23,7.23,0,0,1,49.89,53.69Z"/><path class="cls-3" d="M66.9,20.27l.39,6.32h0a6.53,6.53,0,1,0-4.58-11.16l1.34.64A5,5,0,0,1,66.9,20.27Z"/><path class="cls-3" d="M56.13,12.27,56.75,11a3,3,0,1,0-5.42-2.57l-.72,1.53a4.92,4.92,0,0,1,1.47.42Z"/><path class="cls-4" d="M49.89,50.33a3.54,3.54,0,0,0,2.46.92,9.39,9.39,0,0,0,5.46-2.18l8.5-7a9.54,9.54,0,0,0,1.62-13l-.53-.72,0,0h-2l.21,3.46A3,3,0,0,1,62.81,35h-.19a3,3,0,0,1-2.8-2c-.34.73-.69,1.46-1,2.14a12.37,12.37,0,0,1-1.62,2.48,29.51,29.51,0,0,1-5,3.46L51,38.65l-3.72-8.23,4.48-9.14-4-1.93a5.24,5.24,0,0,1-1.26-.9L41.3,29a3,3,0,0,0,0,2.56l4.81,10.64,2.39,5.28A13.36,13.36,0,0,0,49.89,50.33Z"/><path class="cls-3" d="M64.9,20.39a3,3,0,0,0-1.7-2.51l-12-5.75a3,3,0,0,0-2.6,5.41l10.4,5,.6,9.61a2.87,2.87,0,0,0,.2.84,3,3,0,0,0,2.8,2h.19a3,3,0,0,0,2.8-3.18l-.21-3.46Z"/></g></svg>