<svg xmlns="http://www.w3.org/2000/svg" viewBox="0 0 105.47 94.04"><path d="M52.74,92.49a8.54,8.54,0,0,1-7.47-4.31L2.72,14.48A8.62,8.62,0,0,1,10.18,1.54H95.29a8.63,8.63,0,0,1,7.47,12.94L60.2,88.18a8.53,8.53,0,0,1-7.46,4.31" fill="#f0ae00"/><path d="M95.29,3.09a7.08,7.08,0,0,1,6.13,10.62L58.87,87.41a7.08,7.08,0,0,1-12.26,0L4.05,13.71A7.08,7.08,0,0,1,10.18,3.09H95.29m0-3.09H10.18a10.17,10.17,0,0,0-8.8,15.25L43.93,89a10.16,10.16,0,0,0,17.61,0l42.55-73.7a10.06,10.06,0,0,0,0-10.17A10.06,10.06,0,0,0,95.29,0" fill="#f19e19"/><path d="M49.89,82.11a3,3,0,0,0,6,0V78.65h-6Z" fill="#fff"/><path d="M49.89 53.69v25h6v-25a10.49 10.49 0 0 1-3.29.59 7.23 7.23 0 0 1-2.71-.59z" fill="#c90c0f"/><path d="M66.9 20.27l.39 6.32h0a6.53 6.53 0 1 0-4.58-11.16l1.34.64a5 5 0 0 1 2.85 4.2zm-10.77-8l.62-1.27a3 3 0 1 0-5.42-2.57l-.72 1.53a4.92 4.92 0 0 1 1.47.42z" fill="#fff"/><path d="M49.89 50.33a3.54 3.54 0 0 0 2.46.92 9.39 9.39 0 0 0 5.46-2.18l8.5-7a9.54 9.54 0 0 0 1.62-13l-.53-.72h0-2l.21 3.46a3 3 0 0 1-2.8 3.19h-.19a3 3 0 0 1-2.8-2l-1 2.14a12.37 12.37 0 0 1-1.62 2.48 29.51 29.51 0 0 1-5 3.46L51 38.65l-3.72-8.23 4.48-9.14-4-1.93a5.24 5.24 0 0 1-1.26-.9L41.3 29a3 3 0 0 0 0 2.56l4.81 10.64 2.39 5.28a13.36 13.36 0 0 0 1.39 2.85z" fill="#c90c0f"/><path d="M64.9,20.39a3,3,0,0,0-1.7-2.51l-12-5.75a3,3,0,0,0-2.6,5.41l10.4,5,.6,9.61a2.87,2.87,0,0,0,.2.84,3,3,0,0,0,2.8,2h.19a3,3,0,0,0,2.8-3.18l-.21-3.46Z" fill="#fff"/></svg>