<svg xmlns="http://www.w3.org/2000/svg" viewBox="0 0 105.47 94.04"><defs><style>.cls-1{fill:#f0ae00;}.cls-2{fill:#f19e19;}.cls-3{fill:none;}.cls-4{fill:#fff;}.cls-5{fill:#c90c0f;}.cls-6{fill:#26b4e6;}</style></defs><title>sprawnosci-zuchowe</title><g id="Warstwa_1" data-name="Warstwa 1"><path class="cls-1" d="M52.74,92.49a8.54,8.54,0,0,1-7.47-4.31L2.72,14.48A8.62,8.62,0,0,1,10.18,1.54H95.29a8.63,8.63,0,0,1,7.47,12.94L60.2,88.18a8.53,8.53,0,0,1-7.46,4.31"/><path class="cls-2" d="M95.29,3.09a7.08,7.08,0,0,1,6.13,10.62L58.87,87.41a7.08,7.08,0,0,1-12.26,0L4.05,13.71A7.08,7.08,0,0,1,10.18,3.09H95.29m0-3.09H10.18a10.17,10.17,0,0,0-8.8,15.25L43.93,89a10.16,10.16,0,0,0,17.61,0l42.55-73.7a10.06,10.06,0,0,0,0-10.17A10,10,0,0,0,95.29,0"/></g><g id="Warstwa_2" data-name="Warstwa 2"><polygon class="cls-3" points="65.26 22.47 63.76 24.98 63.78 24.99 65.26 22.47"/><polygon class="cls-3" points="44.29 22.56 44.34 22.5 44.34 22.5 44.29 22.56"/><path class="cls-4" d="M55.21,49.89,63.79,61.7a2.77,2.77,0,0,0,3.87.61,2.76,2.76,0,0,0,.6-3.88L60.42,46.19c-.06-.07-1.17-1.06-2.55-2.28l-4.6,4.46Z"/><path class="cls-5" d="M43.72,35.22a5.37,5.37,0,0,0,.8,6.23l8.75,6.92,4.6-4.46C55.46,41.79,52.21,39,52.21,39l0,0-8-4.62Z"/><path class="cls-4" d="M64.54,31.67a3,3,0,0,0,2.67-1.59l5.62-10a2.72,2.72,0,0,0,.19-2,2.66,2.66,0,0,0-4.89-.48l-2.87,4.87h0L63.78,25h0l-3.14,5.24,2.59,1.14A3,3,0,0,0,64.54,31.67Z"/><polygon class="cls-6" points="47.85 18.1 44.34 22.5 49.08 24.66 44.18 34.32 52.23 38.94 58.55 29.3 60.62 30.22 63.76 24.98 47.85 18.1"/><path class="cls-4" d="M45,16.86a3,3,0,0,0-3.64,1l-7.15,8.91a2.65,2.65,0,0,0,4.31,3.07l5.81-7.29-1.72,2.16,1.72-2.16.05-.06h0l3.51-4.4Z"/><polygon class="cls-5" points="43.36 44 40.92 47.42 45.97 51.3 48.29 47.6 43.36 44"/><path class="cls-4" d="M40.92,47.42l-8-6.14a3,3,0,1,0-3.68,4.8L40.1,54.42a3,3,0,0,0,1.84.63,2.88,2.88,0,0,0,.59-.06,3,3,0,0,0,2-1.46L46,51.3l-5-3.88Z"/><circle class="cls-4" cx="58.35" cy="14.17" r="5.67" transform="translate(-1.69 13.79) rotate(-13.28)"/></g></svg>