<svg xmlns="http://www.w3.org/2000/svg" viewBox="0 0 105.47 94.04"><path d="M52.74,92.49a8.54,8.54,0,0,1-7.47-4.31L2.72,14.48A8.62,8.62,0,0,1,10.18,1.54H95.29a8.63,8.63,0,0,1,7.47,12.94L60.2,88.18a8.53,8.53,0,0,1-7.46,4.31" fill="#f0ae00"/><path d="M95.29,3.09a7.08,7.08,0,0,1,6.13,10.62L58.87,87.41a7.08,7.08,0,0,1-12.26,0L4.05,13.71A7.08,7.08,0,0,1,10.18,3.09H95.29m0-3.09H10.18a10.17,10.17,0,0,0-8.8,15.25L43.93,89a10.16,10.16,0,0,0,17.61,0l42.55-73.7a10.06,10.06,0,0,0,0-10.17A10,10,0,0,0,95.29,0" fill="#f19e19"/><path d="M55.21,49.89,63.79,61.7a2.77,2.77,0,0,0,3.87.61,2.76,2.76,0,0,0,.6-3.88L60.42,46.19c-.06-.07-1.17-1.06-2.55-2.28l-4.6,4.46Z" fill="#fff"/><path d="M43.72 35.22a5.37 5.37 0 0 0 .8 6.23l8.75 6.92 4.6-4.46L52.21 39h0l-8-4.62z" fill="#c90c0f"/><path d="M64.54 31.67a3 3 0 0 0 2.67-1.59l5.62-10a2.72 2.72 0 0 0 .19-2 2.66 2.66 0 0 0-4.89-.48l-2.87 4.87h0L63.78 25h0l-3.14 5.24 2.59 1.14a3 3 0 0 0 1.31.29z" fill="#fff"/><path d="M47.85 18.1l-3.51 4.4 4.74 2.16-4.9 9.66 8.05 4.62 6.32-9.64 2.07.92 3.14-5.24-15.91-6.88z" fill="#26b4e6"/><path d="M45,16.86a3,3,0,0,0-3.64,1l-7.15,8.91a2.65,2.65,0,0,0,4.31,3.07l5.81-7.29-1.72,2.16,1.72-2.16.05-.06h0l3.51-4.4Z" fill="#fff"/><path d="M43.36 44l-2.44 3.42 5.05 3.88 2.32-3.7-4.93-3.6z" fill="#c90c0f"/><g fill="#fff"><path d="M40.92,47.42l-8-6.14a3,3,0,1,0-3.68,4.8L40.1,54.42a3,3,0,0,0,1.84.63,2.88,2.88,0,0,0,.59-.06,3,3,0,0,0,2-1.46L46,51.3l-5-3.88Z"/><circle cx="58.35" cy="14.17" r="5.67" transform="matrix(.973259 -.22971 .22971 .973259 -1.69 13.79)"/></g></svg>