<svg id="Warstwa_1" data-name="Warstwa 1" xmlns="http://www.w3.org/2000/svg" viewBox="0 0 105.47 94.04"><defs><style>.cls-1{fill:#f0ae00;}.cls-2{fill:#f19e19;}.cls-3{fill:none;}.cls-4{fill:#26b4e6;}.cls-5{fill:#fff;}.cls-6{fill:#ec6608;}</style></defs><title>sprawnosci-zuchowe</title><path class="cls-1" d="M52.74,92.49a8.54,8.54,0,0,1-7.47-4.31L2.72,14.48A8.62,8.62,0,0,1,10.18,1.54H95.29a8.63,8.63,0,0,1,7.47,12.94L60.2,88.18a8.53,8.53,0,0,1-7.46,4.31"/><path class="cls-2" d="M95.29,3.09a7.08,7.08,0,0,1,6.13,10.62L58.87,87.41a7.08,7.08,0,0,1-12.26,0L4.05,13.71A7.08,7.08,0,0,1,10.18,3.09H95.29m0-3.09H10.18a10.17,10.17,0,0,0-8.8,15.25L43.93,89a10.16,10.16,0,0,0,17.61,0l42.55-73.7a10.06,10.06,0,0,0,0-10.17A10,10,0,0,0,95.29,0"/><path class="cls-3" d="M33.3,48.53c.81.58,7.11,1.07,8.66.85,1.3-.19.95-2.3.8-3a39.36,39.36,0,0,1-10.44-1.23A2.54,2.54,0,0,0,33.3,48.53Z"/><path class="cls-3" d="M61.08,40.59c-1.46.47-12.16,4.61-14.58,5.55.15,2.65,1,3,2.77,3,4.36,0,14.45-.65,14.45-.65,2.51,0,2.37-3,2.09-4.77H61.08Z"/><path class="cls-4" d="M76.31,47.89S73,48,71.9,48c-1.67,0-2.1-1.28-2.14-4.25h-4c.28,1.74.42,4.77-2.09,4.77,0,0-10.09.65-14.45.65-1.82,0-2.62-.39-2.77-3l-.5.19c-1.15.06-2.22.07-3.24.07.15.68.5,2.79-.8,3-1.55.22-7.85-.27-8.66-.85a2.54,2.54,0,0,1-1-3.36,16.81,16.81,0,0,1-2.25-.8l-.2,0s-1.65,1.87-1.65,2.8c0,0-.67,5.49,11.34,5.49,11.21,0,37.61-1.9,37.61-1.9S77.68,48.26,76.31,47.89Z"/><path class="cls-5" d="M72.75,33.07v.54a28.87,28.87,0,0,0,.2-3c-.2-3.42-2.1-6-2.1-6.37s1-10.95,1-10.95l-14.46-5s-1.61-.06-1.67.43-2.17-3.34-5.82-1L49.64,14l6.74,1.16a1.5,1.5,0,0,1-.26,3,1.06,1.06,0,0,1-.25,0l-6.34-1.08L49.44,20l5,.85a1.5,1.5,0,0,1-.25,3l-.25,0-5-.86a16.12,16.12,0,0,1-1.18,2.72l4.71.81a1.5,1.5,0,0,1-.25,3,1.18,1.18,0,0,1-.26,0l-6.13-1a12.24,12.24,0,0,1-4.41,3.1C34.3,34.36,31,36.1,31,36.1s-1.6,1.3-1.5,5c.11.06,4.8,2.34,16.55,2.28Z"/><path class="cls-6" d="M42.76,46.4c1,0,2.09,0,3.24-.07l.5-.19c2.42-.94,13.12-5.08,14.58-5.55v3.17H72.75V33.07L46,43.36c-11.75.06-16.44-2.22-16.55-2.28h0v3a6.1,6.1,0,0,0,.63.32,16.81,16.81,0,0,0,2.25.8A39.36,39.36,0,0,0,42.76,46.4Z"/></svg>