<svg xmlns="http://www.w3.org/2000/svg" viewBox="0 0 105.47 94.04"><path d="M52.74,92.49a8.54,8.54,0,0,1-7.47-4.31L2.72,14.48A8.62,8.62,0,0,1,10.18,1.54H95.29a8.63,8.63,0,0,1,7.47,12.94L60.2,88.18a8.53,8.53,0,0,1-7.46,4.31" fill="#f0ae00"/><path d="M95.29,3.09a7.08,7.08,0,0,1,6.13,10.62L58.87,87.41a7.08,7.08,0,0,1-12.26,0L4.05,13.71A7.08,7.08,0,0,1,10.18,3.09H95.29m0-3.09H10.18a10.17,10.17,0,0,0-8.8,15.25L43.93,89a10.16,10.16,0,0,0,17.61,0l42.55-73.7a10.06,10.06,0,0,0,0-10.17A10,10,0,0,0,95.29,0" fill="#f19e19"/><path d="M76.31 47.89L71.9 48c-1.67 0-2.1-1.28-2.14-4.25h-4c.28 1.74.42 4.77-2.09 4.77 0 0-10.09.65-14.45.65-1.82 0-2.62-.39-2.77-3l-.5.19a61.18 61.18 0 0 1-3.24.07c.15.68.5 2.79-.8 3-1.55.22-7.85-.27-8.66-.85a2.54 2.54 0 0 1-1-3.36 16.81 16.81 0 0 1-2.25-.8h-.2s-1.65 1.87-1.65 2.8c0 0-.67 5.49 11.34 5.49 11.21 0 37.61-1.9 37.61-1.9s.58-2.55-.79-2.92z" fill="#26b4e6"/><path d="M72.75 33.07v.54a28.87 28.87 0 0 0 .2-3c-.2-3.42-2.1-6-2.1-6.37s1-10.95 1-10.95l-14.46-5s-1.61-.06-1.67.43-2.17-3.34-5.82-1L49.64 14l6.74 1.16a1.5 1.5 0 0 1-.26 3 1.06 1.06 0 0 1-.25 0l-6.34-1.08-.09 2.92 5 .85a1.5 1.5 0 0 1-.25 3h-.25l-5-.86a16.12 16.12 0 0 1-1.18 2.72l4.71.81a1.5 1.5 0 0 1-.25 3 1.18 1.18 0 0 1-.26 0l-6.13-1a12.24 12.24 0 0 1-4.41 3.1C34.3 34.36 31 36.1 31 36.1s-1.6 1.3-1.5 5c.11.06 4.8 2.34 16.55 2.28z" fill="#fff"/><path d="M42.76 46.4l3.24-.07.5-.19 14.58-5.55v3.17h11.67V33.07L46 43.36c-11.75.06-16.44-2.22-16.55-2.28h0v3a6.1 6.1 0 0 0 .63.32 16.81 16.81 0 0 0 2.25.8 39.36 39.36 0 0 0 10.43 1.2z" fill="#ec6608"/></svg>