<svg xmlns="http://www.w3.org/2000/svg" viewBox="0 0 105.47 94.04"><path d="M52.74,92.49a8.54,8.54,0,0,1-7.47-4.31L2.72,14.48A8.62,8.62,0,0,1,10.18,1.54H95.29a8.63,8.63,0,0,1,7.47,12.94L60.2,88.18a8.53,8.53,0,0,1-7.46,4.31" fill="#f0ae00"/><path d="M95.29,3.09a7.08,7.08,0,0,1,6.13,10.62L58.87,87.41a7.08,7.08,0,0,1-12.26,0L4.05,13.71A7.08,7.08,0,0,1,10.18,3.09H95.29m0-3.09H10.18a10.17,10.17,0,0,0-8.8,15.25L43.93,89a10.16,10.16,0,0,0,17.61,0l42.55-73.7a10.06,10.06,0,0,0,0-10.17A10,10,0,0,0,95.29,0" fill="#f19e19"/><path d="M52.73 80.8c4.54 0 9.18-3 9.18-11.34 0-6.94-2.42-14-2.41-25.36 0-7.44.84-15.6 1.55-22.76.38-3.89.73-8.47-2.39-11.84a8.22 8.22 0 0 0-11.79 0c-3.12 3.37-2.78 8-2.4 11.83.7 7.16 1.53 15.32 1.53 22.76 0 11.32-2.44 18.42-2.44 25.36 0 8.39 4.63 11.35 9.17 11.35z" fill="#26b4e6"/><g fill="#194093"><rect x="46.43" y="51.6" width="12.61" height="6.34" rx="3.17" transform="matrix(.707107 .707107 -.707107 .707107 54.17 -21.25)"/><rect x="46.43" y="29.87" width="12.61" height="6.34" rx="3.17" transform="matrix(.707107 .707107 -.707107 .707107 38.81 -27.61)"/></g><path d="M45 56.78l-1 6.65 15 14.91a10.1 10.1 0 0 0 2.57-5.06zm1.73-47.11A9.86 9.86 0 0 0 44.4 15l15.77 15.74.64-7zm12.89 38.75l-14-14 .27 5 14.16 14.15-.43-5.15z" fill="#fff"/></svg>