<svg id="Warstwa_1" data-name="Warstwa 1" xmlns="http://www.w3.org/2000/svg" viewBox="0 0 105.47 94.04"><defs><style>.cls-1{fill:#f0ae00;}.cls-2{fill:#f19e19;}.cls-3{fill:none;}.cls-4{fill:#26b4e6;}.cls-5{fill:#c90c0f;}.cls-6{fill:#fff;}</style></defs><title>sprawnosci-zuchowe</title><path class="cls-1" d="M52.74,92.49a8.54,8.54,0,0,1-7.47-4.31L2.72,14.48A8.62,8.62,0,0,1,10.18,1.54H95.29a8.63,8.63,0,0,1,7.47,12.94L60.2,88.18a8.53,8.53,0,0,1-7.46,4.31"/><path class="cls-2" d="M95.29,3.09a7.08,7.08,0,0,1,6.13,10.62L58.87,87.41a7.08,7.08,0,0,1-12.26,0L4.05,13.71A7.08,7.08,0,0,1,10.18,3.09H95.29m0-3.09H10.18a10.17,10.17,0,0,0-8.8,15.25L43.93,89a10.16,10.16,0,0,0,17.61,0l42.55-73.7a10.06,10.06,0,0,0,0-10.17A10,10,0,0,0,95.29,0"/><path class="cls-3" d="M54,43.19h3.78V33.11H54.17a13.5,13.5,0,0,1-1.57.1,13.67,13.67,0,0,1-1.58-.1H47.74V43.19H54Z"/><polygon class="cls-3" points="51.52 55.33 51.52 45.25 45.68 45.25 41.9 45.25 41.9 55.33 45.68 55.33 45.68 55.33 51.52 55.33"/><path class="cls-3" d="M51.57,31.05V7.89a11.65,11.65,0,0,0-.41,23.16Z"/><rect class="cls-3" x="47.74" y="69.53" width="10.08" height="10.08"/><polygon class="cls-3" points="51.52 57.39 47.74 57.39 47.74 67.47 57.82 67.47 57.82 57.39 54.04 57.39 51.52 57.39"/><polygon class="cls-3" points="54.04 55.33 59.88 55.33 59.88 55.33 63.66 55.33 63.66 45.25 59.88 45.25 54.04 45.25 54.04 55.33"/><path class="cls-4" d="M64.64,19.49A11.67,11.67,0,0,1,54.42,31.05H54V7.89A11.66,11.66,0,0,1,64.64,19.49Z"/><path class="cls-5" d="M40.92,19.49A11.66,11.66,0,0,1,51.54,7.89V31.05h-.4A11.67,11.67,0,0,1,40.92,19.49Z"/><rect class="cls-6" x="47.74" y="33.11" width="10.08" height="10.08"/><rect class="cls-4" x="41.9" y="45.25" width="9.62" height="10.08"/><rect class="cls-4" x="47.74" y="69.53" width="10.08" height="10.08"/><rect class="cls-6" x="47.74" y="57.39" width="10.08" height="10.08"/><rect class="cls-5" x="54.04" y="45.25" width="9.62" height="10.08"/></svg>