<svg id="Warstwa_1" data-name="Warstwa 1" xmlns="http://www.w3.org/2000/svg" viewBox="0 0 105.47 94.04"><defs><style>.cls-1{fill:#f0ae00;}.cls-2{fill:#f19e19;}.cls-3{fill:none;}.cls-4{fill:#fff;}.cls-5{fill:#26b4e6;}.cls-6{fill:#c90c0f;}.cls-7{fill:#194093;}</style></defs><title>sprawnosci-zuchowe</title><path class="cls-1" d="M52.74,92.49a8.54,8.54,0,0,1-7.47-4.31L2.72,14.48A8.62,8.62,0,0,1,10.18,1.54H95.29a8.63,8.63,0,0,1,7.47,12.94L60.2,88.18a8.53,8.53,0,0,1-7.46,4.31"/><path class="cls-2" d="M95.29,3.09a7.08,7.08,0,0,1,6.13,10.62L58.87,87.41a7.08,7.08,0,0,1-12.26,0L4.05,13.71A7.08,7.08,0,0,1,10.18,3.09H95.29m0-3.09H10.18a10.17,10.17,0,0,0-8.8,15.25L43.93,89a10.16,10.16,0,0,0,17.61,0l42.55-73.7a10.06,10.06,0,0,0,0-10.17A10,10,0,0,0,95.29,0"/><polygon class="cls-3" points="54.24 62.13 57.7 62.13 59.48 52.87 57.14 50.11 54.24 52.92 54.24 62.13"/><polygon class="cls-3" points="48.34 50.11 45.99 52.87 47.78 62.13 51.24 62.13 51.24 52.87 48.34 50.11"/><path class="cls-4" d="M46,52.87l-1.24,1.46L36.68,12.51,29.43,9.27a1.56,1.56,0,0,0-2.12,1.87L39,50.11,43,53l1.75,9.11h3.06Z"/><path class="cls-5" d="M76,9.27l-7.29,3.24-8,41.82L62.51,53l3.8-2.87,11.84-39A1.55,1.55,0,0,0,76,9.27Z"/><polygon class="cls-5" points="52.77 54.34 54.24 52.92 57.14 50.11 61.54 7.89 52.74 12.51 52.77 54.34"/><polygon class="cls-5" points="44.75 54.34 45.99 52.87 48.34 50.11 43.93 7.89 36.68 12.51 44.75 54.34"/><polygon class="cls-4" points="68.75 12.51 61.54 7.89 57.14 50.11 59.48 52.87 57.7 62.13 60.75 62.13 62.51 52.98 60.72 54.34 68.75 12.51"/><polygon class="cls-4" points="51.24 52.87 51.24 62.13 54.24 62.13 54.24 52.92 52.77 54.34 52.74 12.51 43.93 7.89 48.34 50.11 51.24 52.87"/><path class="cls-4" d="M42.47,67.63V70.1h0A10.25,10.25,0,0,0,63,70.1h0V67.63H42.47Z"/><polygon class="cls-6" points="54.24 62.13 51.24 62.13 47.78 62.13 44.72 62.13 42.59 62.13 42.59 67.63 63 67.63 63.11 67.63 63.11 62.13 60.75 62.13 57.7 62.13 54.24 62.13"/><path class="cls-7" d="M45.81,25.85a3.25,3.25,0,1,1-3.25-3.24,3.25,3.25,0,0,1,3.25,3.24"/><path class="cls-6" d="M52.74,41.15a6,6,0,0,1-6-6,1.6,1.6,0,1,1,3.2,0,2.78,2.78,0,0,0,5.55,0,1.6,1.6,0,1,1,3.2,0A6,6,0,0,1,52.74,41.15Z"/><path class="cls-7" d="M66.15,25.85a3.24,3.24,0,1,1-3.24-3.24,3.24,3.24,0,0,1,3.24,3.24"/></svg>