<svg xmlns="http://www.w3.org/2000/svg" viewBox="0 0 105.47 94.04"><defs><style>.cls-1{fill:#f0ae00;}.cls-2{fill:#f19e19;}.cls-3{fill:#26b4e6;}.cls-4{fill:#194093;}.cls-5{fill:#fff;}</style></defs><title>sprawnosci-zuchowe</title><g id="Warstwa_1" data-name="Warstwa 1"><path class="cls-1" d="M52.74,92.49a8.54,8.54,0,0,1-7.47-4.31L2.72,14.48A8.62,8.62,0,0,1,10.18,1.54H95.29a8.63,8.63,0,0,1,7.47,12.94L60.2,88.18a8.53,8.53,0,0,1-7.46,4.31"/><path class="cls-2" d="M95.29,3.09a7.08,7.08,0,0,1,6.13,10.62L58.87,87.41a7.08,7.08,0,0,1-12.26,0L4.05,13.71A7.08,7.08,0,0,1,10.18,3.09H95.29m0-3.09H10.18a10.17,10.17,0,0,0-8.8,15.25L43.93,89a10.16,10.16,0,0,0,17.61,0l42.55-73.7a10.06,10.06,0,0,0,0-10.17A10,10,0,0,0,95.29,0"/></g><g id="Warstwa_2" data-name="Warstwa 2"><path class="cls-3" d="M52.73,80.8c4.54,0,9.18-3,9.18-11.34,0-6.94-2.42-14-2.41-25.36,0-7.44.84-15.6,1.55-22.76.38-3.89.73-8.47-2.39-11.84a8.22,8.22,0,0,0-11.79,0c-3.12,3.37-2.78,8-2.4,11.83C45.17,28.49,46,36.65,46,44.09c0,11.32-2.44,18.42-2.44,25.36C43.56,77.84,48.19,80.8,52.73,80.8Z"/><rect class="cls-4" x="46.43" y="51.6" width="12.61" height="6.34" rx="3.17" ry="3.17" transform="translate(54.17 -21.25) rotate(45)"/><rect class="cls-4" x="46.43" y="29.87" width="12.61" height="6.34" rx="3.17" ry="3.17" transform="translate(38.81 -27.61) rotate(45)"/><path class="cls-5" d="M45,56.78c-.34,2.38-.7,4.57-1,6.65L59,78.34a10.1,10.1,0,0,0,2.57-5.06Z"/><path class="cls-5" d="M46.73,9.67A9.86,9.86,0,0,0,44.4,15L60.17,30.74c.2-2.38.42-4.72.64-7Z"/><path class="cls-5" d="M59.62,48.42l-14-14c.11,1.67.21,3.33.27,5L60.05,53.57C59.87,52,59.71,50.25,59.62,48.42Z"/></g></svg>