<svg xmlns="http://www.w3.org/2000/svg" viewBox="0 0 105.47 94.04"><path d="M52.74,92.49a8.54,8.54,0,0,1-7.47-4.31L2.72,14.48A8.62,8.62,0,0,1,10.18,1.54H95.29a8.63,8.63,0,0,1,7.47,12.94L60.2,88.18a8.53,8.53,0,0,1-7.46,4.31" fill="#f0ae00"/><path d="M95.29,3.09a7.08,7.08,0,0,1,6.13,10.62L58.87,87.41a7.08,7.08,0,0,1-12.26,0L4.05,13.71A7.08,7.08,0,0,1,10.18,3.09H95.29m0-3.09H10.18a10.17,10.17,0,0,0-8.8,15.25L43.93,89a10.16,10.16,0,0,0,17.61,0l42.55-73.7a10.06,10.06,0,0,0,0-10.17A10,10,0,0,0,95.29,0" fill="#f19e19"/><path d="M64.64 19.49a11.67 11.67 0 0 1-10.22 11.56H54V7.89a11.66 11.66 0 0 1 10.64 11.6z" fill="#26b4e6"/><path d="M40.92,19.49A11.66,11.66,0,0,1,51.54,7.89V31.05h-.4A11.67,11.67,0,0,1,40.92,19.49Z" fill="#c90c0f"/><path d="M47.74 33.11h10.08v10.08H47.74z" fill="#fff"/><path d="M41.9 45.25h9.62v10.08H41.9zm5.84 24.28h10.08v10.08H47.74z" fill="#26b4e6"/><path d="M47.74 57.39h10.08v10.08H47.74z" fill="#fff"/><path d="M54.04 45.25h9.62v10.08h-9.62z" fill="#c90c0f"/></svg>