<svg xmlns="http://www.w3.org/2000/svg" viewBox="0 0 105.47 94.04"><path d="M52.74,92.49a8.54,8.54,0,0,1-7.47-4.31L2.72,14.48A8.62,8.62,0,0,1,10.18,1.54H95.29a8.63,8.63,0,0,1,7.47,12.94L60.2,88.18a8.53,8.53,0,0,1-7.46,4.31" fill="#f0ae00"/><path d="M95.29,3.09a7.08,7.08,0,0,1,6.13,10.62L58.87,87.41a7.08,7.08,0,0,1-12.26,0L4.05,13.71A7.08,7.08,0,0,1,10.18,3.09H95.29m0-3.09H10.18a10.17,10.17,0,0,0-8.8,15.25L43.93,89a10.16,10.16,0,0,0,17.61,0l42.55-73.7a10.06,10.06,0,0,0,0-10.17A10,10,0,0,0,95.29,0" fill="#f19e19"/><path d="M69 39.61c2.5-6.44 2.37-14.17-2.3-22.07a19.37 19.37 0 0 0-7.87-7.41C40.7.92 22.63 13.91 22.63 31.05a23.94 23.94 0 0 0 10 19.48l-1.27-11.74c-2.55-5-2.76-11.37 1.06-17.73a12.79 12.79 0 0 1 4.69-4.52c13.17-7.38 26.6 2 26.6 14.51a16.08 16.08 0 0 1-.15 2.21l1.1 9.15zm-1.38 2.89v-.09l-.13.13z" fill="#c90c0f"/><path d="M39.78 51.39L38.17 39.2a10.39 10.39 0 0 0-1.41-.2 3.31 3.31 0 0 0-3.25 2.64c.88 9.1.88 10.86 3.7 10.86 1.79 0 2.45-.89 2.57-1.11zM44.32 37a4.32 4.32 0 0 0-3.76 2.34L42 50.68a2.94 2.94 0 0 0 3 2.11 3.53 3.53 0 0 0 2.54-.91L44.93 37h-.61zm7.42 14a3.72 3.72 0 0 0 2.36-4.47l-1.39-11.7a5.77 5.77 0 0 0-2.46-.69 4.48 4.48 0 0 0-3.65 2.25l2.48 13.91s.63 1.44 2.66.7zm7.94-3.7a3.39 3.39 0 0 0 2.72-2.46c.05-.19-.62-8-.87-9.31-.36-1.85-1.7-2.76-3.81-2.76a3.38 3.38 0 0 0-2.93 1.87L56 45.25a2.94 2.94 0 0 0 3.68 2.05zm18.11-1.11a6.37 6.37 0 0 0-5.74-4.59 8.25 8.25 0 0 0-4.43.9h-.08a15.12 15.12 0 0 0-3.18 2.33 9.07 9.07 0 0 1-.36 1.35 6.86 6.86 0 0 1-4 3.06 5.07 5.07 0 0 1-4-.65c-.35 1.89-2.93 5.47-5.62 4.51a14.48 14.48 0 0 0-2.46 8.32v5.68l-1.68-12a5.88 5.88 0 0 1-5.21-1.53c-.19.19-1.27 1.31-4.24 1.31a10.4 10.4 0 0 0 1.75 3.07c3.46 4.05 5.39 5.18 5.39 5.18v12.6L48.7 84a4.66 4.66 0 0 0 8.07 0l2-3.44V62.6l6.57-9.71a33.57 33.57 0 0 1 5.15-3.41 35.33 35.33 0 0 1 6.59-2 1 1 0 0 0 .71-1.29z" fill="#fff"/></svg>