<svg xmlns="http://www.w3.org/2000/svg" viewBox="0 0 105.47 94.04"><path d="M52.74,92.49a8.54,8.54,0,0,1-7.47-4.31L2.72,14.48A8.62,8.62,0,0,1,10.18,1.54H95.29a8.63,8.63,0,0,1,7.47,12.94L60.2,88.18a8.53,8.53,0,0,1-7.46,4.31" fill="#f0ae00"/><path d="M95.29,3.09a7.08,7.08,0,0,1,6.13,10.62L58.87,87.41a7.08,7.08,0,0,1-12.26,0L4.05,13.71A7.08,7.08,0,0,1,10.18,3.09H95.29m0-3.09H10.18a10.17,10.17,0,0,0-8.8,15.25L43.93,89a10.16,10.16,0,0,0,17.61,0l42.55-73.7a10.06,10.06,0,0,0,0-10.17A10,10,0,0,0,95.29,0" fill="#f19e19"/><circle cx="34.55" cy="20.09" r="7.76" fill="#fff"/><path d="M45.49 49.3h0l15.73 4.21-15.73-4.21zm35.62-11.44c3.4-12.71-2.85-26.56-14.32-29.63a17.77 17.77 0 0 0-4.66-.62c-6.54 0-12.93 3.51-17.38 9a10.79 10.79 0 0 1-5.81 13.28 22.7 22.7 0 0 0 2.67 14.51l28.89 7.74a23.17 23.17 0 0 0 10.61-14.28zm-16.56.82A5.74 5.74 0 0 1 59 42.92a5.4 5.4 0 0 1-1.49-.2 5.71 5.71 0 0 1-4-7 1.5 1.5 0 1 1 2.89.78 2.72 2.72 0 0 0 1.92 3.32 2.61 2.61 0 0 0 2.06-.27 2.68 2.68 0 0 0 1.27-1.64 1.5 1.5 0 0 1 2.9.77z" fill="#c90c0f"/><path d="M64.85,54.49,45.34,49.26l4.25,4.89L45,71.37a4.66,4.66,0,0,0,9,2.41l4.56-17Z" fill="#ec6608"/><path d="M55.1 26.85a3.22 3.22 0 1 0-4 2.28 3.23 3.23 0 0 0 4-2.28zm16.45 1.07a3.22 3.22 0 1 0 2.28 3.95 3.22 3.22 0 0 0-2.28-3.95z" fill="#194093"/></svg>