<svg id="Warstwa_1" data-name="Warstwa 1" xmlns="http://www.w3.org/2000/svg" viewBox="0 0 105.47 94.04"><defs><style>.cls-1{fill:#f0ae00;}.cls-2{fill:#f19e19;}.cls-3{fill:none;}.cls-4{fill:#194093;}.cls-5{fill:#fff;}.cls-6{fill:#26b4e6;}</style></defs><title>sprawnosci-zuchowe</title><path class="cls-1" d="M52.74,92.49a8.54,8.54,0,0,1-7.47-4.31L2.72,14.48A8.62,8.62,0,0,1,10.18,1.54H95.29a8.63,8.63,0,0,1,7.47,12.94L60.2,88.18a8.53,8.53,0,0,1-7.46,4.31"/><path class="cls-2" d="M95.29,3.09a7.08,7.08,0,0,1,6.13,10.62L58.87,87.41a7.08,7.08,0,0,1-12.26,0L4.05,13.71A7.08,7.08,0,0,1,10.18,3.09H95.29m0-3.09H10.18a10.17,10.17,0,0,0-8.8,15.25L43.93,89a10.16,10.16,0,0,0,17.61,0l42.55-73.7a10.06,10.06,0,0,0,0-10.17A10,10,0,0,0,95.29,0"/><path class="cls-3" d="M82.91,30.65a3.14,3.14,0,0,0,2.55-3.1,2.26,2.26,0,0,0-2.1-2.4l-2.53,1.5a3.14,3.14,0,0,0-.46,1.62A2.24,2.24,0,0,0,82.91,30.65Z"/><path class="cls-3" d="M52.68,48.33a3.14,3.14,0,0,0,2.55-3.1,2.28,2.28,0,0,0-1.79-2.36l-3,1.78a3.18,3.18,0,0,0-.3,1.3A2.24,2.24,0,0,0,52.68,48.33Z"/><path class="cls-4" d="M83.36,25.15a2.26,2.26,0,0,1,2.1,2.4,3.14,3.14,0,0,1-2.55,3.1,2.24,2.24,0,0,1-2.54-2.38,3.14,3.14,0,0,1,.46-1.62l-6.44,3.81c1.09.6,5.21,2.86,5.5,3h0a5.67,5.67,0,0,0,3,.53,7,7,0,0,0,5.63-6.86A5.44,5.44,0,0,0,86.79,23a11.18,11.18,0,0,1-1.33.93Z"/><path class="cls-4" d="M28.23,31l6.48-3.84-.46-.26a4.8,4.8,0,0,0-3-.51,7,7,0,0,0-5.63,6.78A9.76,9.76,0,0,1,28.23,31Z"/><path class="cls-4" d="M55.23,45.23a3.14,3.14,0,0,1-2.55,3.1A2.24,2.24,0,0,1,50.14,46a3.18,3.18,0,0,1,.3-1.3l-2.87,1.7a15.82,15.82,0,0,1-3.79,1.57l.11.07s5.43,3,5.77,3.14h0a5.74,5.74,0,0,0,3,.52,7,7,0,0,0,5.63-6.86,5.53,5.53,0,0,0-1.5-3.92l-3.37,2A2.28,2.28,0,0,1,55.23,45.23Z"/><path class="cls-4" d="M64.48,9.21a4.8,4.8,0,0,0-3-.51,6.93,6.93,0,0,0-5.56,5.88l8.82-5.22Z"/><path class="cls-5" d="M89.52,18.05V14.41h0c0-2.1-1.31-4.2-4-5.81-5.32-3.22-14.08-3.25-19.46-.07l-1.37.82-8.82,5.22L34.71,27.15,28.23,31a9.76,9.76,0,0,0-2.61,2.17,5.69,5.69,0,0,0-1.45,3.7v3.62c0,2.1,1.32,4.2,4,5.8,4.2,2.55,10.54,3.09,15.67,1.64a15.82,15.82,0,0,0,3.79-1.57L85.46,23.9A11.18,11.18,0,0,0,86.79,23,6.41,6.41,0,0,0,89.52,18.05Z"/><path class="cls-6" d="M28.23,31c-5.38,3.18-5.43,8.43-.11,11.65s14.08,3.26,19.45.07L85.46,20.27c5.38-3.19,5.43-8.43.11-11.66S71.49,5.36,66.11,8.54Z"/></svg>