<svg xmlns="http://www.w3.org/2000/svg" viewBox="0 0 105.47 94.04"><path d="M52.74,92.49a8.54,8.54,0,0,1-7.47-4.31L2.72,14.48A8.62,8.62,0,0,1,10.18,1.54H95.29a8.63,8.63,0,0,1,7.47,12.94L60.2,88.18a8.53,8.53,0,0,1-7.46,4.31" fill="#f0ae00"/><path d="M95.29,3.09a7.08,7.08,0,0,1,6.13,10.62L58.87,87.41a7.08,7.08,0,0,1-12.26,0L4.05,13.71A7.08,7.08,0,0,1,10.18,3.09H95.29m0-3.09H10.18a10.17,10.17,0,0,0-8.8,15.25L43.93,89a10.16,10.16,0,0,0,17.61,0l42.55-73.7a10.06,10.06,0,0,0,0-10.17A10,10,0,0,0,95.29,0" fill="#f19e19"/><path d="M46 52.87l-1.24 1.46-8.08-41.82-7.25-3.24a1.56 1.56 0 0 0-2.12 1.87L39 50.11 43 53l1.75 9.11h3.06z" fill="#fff"/><path d="M76 9.27l-7.29 3.24-8 41.82 1.8-1.33 3.8-2.87 11.84-39A1.55 1.55 0 0 0 76 9.27zM52.77 54.34l1.47-1.42 2.9-2.81 4.4-42.22-8.8 4.62.03 41.83zm-8.02 0l1.24-1.47 2.35-2.76-4.41-42.22-7.25 4.62 8.07 41.83z" fill="#26b4e6"/><path d="M68.75 12.51l-7.21-4.62-4.4 42.22 2.34 2.76-1.78 9.26h3.05l1.76-9.15-1.79 1.36 8.03-41.83zM51.24 52.87v9.26h3v-9.21l-1.47 1.42-.03-41.83-8.81-4.62 4.41 42.22 2.9 2.76zm-8.77 14.76v2.47h0a10.265 10.265 0 0 0 20.53 0h0v-2.47H42.47z" fill="#fff"/><path d="M54.24 62.13h-3-3.46-3.06-2.13v5.5H63h.11v-5.5h-2.36-3.05-3.46z" fill="#c90c0f"/><path d="M45.81,25.85a3.25,3.25,0,1,1-3.25-3.24,3.25,3.25,0,0,1,3.25,3.24" fill="#194093"/><path d="M52.74 41.15a6 6 0 0 1-6-6 1.6 1.6 0 1 1 3.2 0 2.78 2.78 0 0 0 5.55 0 1.6 1.6 0 1 1 3.2 0 6 6 0 0 1-5.95 6z" fill="#c90c0f"/><path d="M66.15,25.85a3.24,3.24,0,1,1-3.24-3.24,3.24,3.24,0,0,1,3.24,3.24" fill="#194093"/></svg>