<svg xmlns="http://www.w3.org/2000/svg" viewBox="0 0 105.47 94.04"><path d="M52.74,92.49a8.54,8.54,0,0,1-7.47-4.31L2.72,14.48A8.62,8.62,0,0,1,10.18,1.54H95.29a8.63,8.63,0,0,1,7.47,12.94L60.2,88.18a8.53,8.53,0,0,1-7.46,4.31" fill="#f0ae00"/><path d="M95.29,3.09a7.08,7.08,0,0,1,6.13,10.62L58.87,87.41a7.08,7.08,0,0,1-12.26,0L4.05,13.71A7.08,7.08,0,0,1,10.18,3.09H95.29m0-3.09H10.18a10.17,10.17,0,0,0-8.8,15.25L43.93,89a10.16,10.16,0,0,0,17.61,0l42.55-73.7a10.06,10.06,0,0,0,0-10.17A10,10,0,0,0,95.29,0" fill="#f19e19"/><path d="M34 11.94s-.55 11-1.26 13.75-2.61 11.45 0 14.21l.39 1h39.8s1.34-.08 1.34-3.55-5.84-3.87-6.87-4.19-10.67-.87-14.14-5.77S51.44 11 51.44 9.89s1-4.27-5.53-3.16S35 11.39 34 11.94z" fill="#ef7d00"/><path d="M74.27 37.9H46.78s-4.65.4-4.75-1.51l12.63-9.72a2 2 0 0 0-2.49-3.23l-9.36 7.21c.15-.68.4-4.38.52-5A7.75 7.75 0 0 1 51 19.29a3.28 3.28 0 1 0 0-6.56h-7.62c-7.26 0-10.58 2.69-10.58 2.69a38.12 38.12 0 0 1-1.36 12.38 26.47 26.47 0 0 0-1.25 7.13 11.55 11.55 0 0 0 2.21 6.63h41.47c.64-.71.4-3.66.4-3.66z" fill="#c90c0f"/><g fill="#fff"><path d="M72,42.26a5.67,5.67,0,1,0,5.67,5.67A5.67,5.67,0,0,0,72,42.26Zm0,8.82a3.15,3.15,0,1,1,3.14-3.15A3.15,3.15,0,0,1,72,51.08Z"/><use xlink:href="#B"/><path d="M46.31 42.26A5.67 5.67 0 1 0 52 47.93a5.67 5.67 0 0 0-5.69-5.67zm0 8.82a3.15 3.15 0 1 1 3.14-3.15 3.15 3.15 0 0 1-3.14 3.15z"/><use xlink:href="#B" x="-25.72"/></g><defs ><path id="B" d="M59.17 42.26a5.67 5.67 0 1 0 5.67 5.67 5.67 5.67 0 0 0-5.67-5.67zm0 8.82a3.15 3.15 0 1 1 3.14-3.15 3.15 3.15 0 0 1-3.14 3.15z"/></defs></svg>