<svg xmlns="http://www.w3.org/2000/svg" viewBox="0 0 105.47 94.04"><path d="M52.74,92.49a8.54,8.54,0,0,1-7.47-4.31L2.72,14.48A8.62,8.62,0,0,1,10.18,1.54H95.29a8.63,8.63,0,0,1,7.47,12.94L60.2,88.18a8.53,8.53,0,0,1-7.46,4.31" fill="#f0ae00"/><path d="M95.29,3.09a7.08,7.08,0,0,1,6.13,10.62L58.87,87.41a7.08,7.08,0,0,1-12.26,0L4.05,13.71A7.08,7.08,0,0,1,10.18,3.09H95.29m0-3.09H10.18a10.17,10.17,0,0,0-8.8,15.25L43.93,89a10.16,10.16,0,0,0,17.61,0l42.55-73.7a10.06,10.06,0,0,0,0-10.17A10,10,0,0,0,95.29,0" fill="#f19e19"/><path d="M94.18 9.14a5.15 5.15 0 0 0-2.65-.74 4.27 4.27 0 0 0-3.25 1.48c-1.32 1.44-3.42 4.89-5.45 7.85-4.23 6.19-6.46 10.26-9.44 15L72 35.74a142.67 142.67 0 0 0-5.66 13.18L62.1 61l11.33-17.26c6.08-8.94 9.77-12.14 16.36-21.07 2.13-2.89 4.7-6 5.62-7.72a4.64 4.64 0 0 0-1.23-5.81zM63.67 48c3.72-10.18 6.51-14.2 10.69-24.48 1.35-3.32 3.07-7 3.54-8.87a4.64 4.64 0 0 0-2.63-5.32 4.6 4.6 0 0 0-1.49-.22 4.39 4.39 0 0 0-4 2.39c-.92 1.72-2.1 5.58-3.34 9-3.79 10.41-4.48 15.25-8.55 25.29-6.6 16.07-11.48 25.37-12.29 28.63-.65 2.65.52 4.53 2.45 5.3a4.17 4.17 0 0 0 5.36-2.3C55 74.46 57.65 64.39 63.67 48z" fill="#c90c0f"/><path d="M48.45 63.17a1.61 1.61 0 0 0-2.19-.59l-1.49.85-22.7-39.78-2.8 1.6L42 65l-1.49.85a1.6 1.6 0 0 0 1.59 2.78l1.52-.87 3.69 3.3-1-4.86 1.52-.86a1.61 1.61 0 0 0 .62-2.17z" fill="#fff"/><path d="M23.65,22.75,15.37,8.26a6.86,6.86,0,0,0-2.55,9.36l4.87,8.53,1.58-.9,2.8-1.6Z" fill="#194093"/><path d="M64.59 61.94a1.61 1.61 0 0 0-2.19-.6l-1.49.85-22.7-39.78-2.8 1.59 22.72 39.78-1.49.85a1.6 1.6 0 0 0 1.59 2.78l1.52-.87 3.69 3.3-1-4.85 1.56-.87a1.6 1.6 0 0 0 .59-2.18z" fill="#fff"/><path d="M39.79,21.51,31.51,7A6.86,6.86,0,0,0,29,16.38l4.87,8.53,1.58-.9,2.8-1.6Z" fill="#194093"/></svg>