<svg xmlns="http://www.w3.org/2000/svg" viewBox="0 0 105.47 94.04"><path d="M52.74,92.49a8.54,8.54,0,0,1-7.47-4.31L2.72,14.48A8.62,8.62,0,0,1,10.18,1.54H95.29a8.63,8.63,0,0,1,7.47,12.94L60.2,88.18a8.53,8.53,0,0,1-7.46,4.31" fill="#f0ae00"/><path d="M95.29,3.09a7.08,7.08,0,0,1,6.13,10.62L58.87,87.41a7.08,7.08,0,0,1-12.26,0L4.05,13.71A7.08,7.08,0,0,1,10.18,3.09H95.29m0-3.09H10.18a10.17,10.17,0,0,0-8.8,15.25L43.93,89a10.16,10.16,0,0,0,17.61,0l42.55-73.7a10.06,10.06,0,0,0,0-10.17A10.06,10.06,0,0,0,95.29,0" fill="#f19e19"/><path d="M61.25 16.64a41.16 41.16 0 0 0-8.17 3.61l2.19 9.05 9.89 1.44a21.83 21.83 0 0 0 3.6-7.74 41.38 41.38 0 0 0-7.51-6.36zm5.1 40.63c.86-.2 2.08-.66 4.84-3.07a24.29 24.29 0 0 0 5-7.51l-5.32-.8a63.91 63.91 0 0 1-6.71 7.87 8.53 8.53 0 0 0 2.19 3.51zM41.8 54.16A21.6 21.6 0 0 0 47.93 51a63.17 63.17 0 0 1-3.3-9.14l-8.26-1.46a13.52 13.52 0 0 0-2 6.63c1.44 2.07 5.35 6.06 7.43 7.13zm-10.11-29.1a67.42 67.42 0 0 1 6.82-8 24.5 24.5 0 0 1-.26-3A26.19 26.19 0 0 0 30.1 24.6l1.59.46z" fill="#194093"/><path d="M41.35 15.57c2.87-.3 8.42 1.49 10 2.23A48.12 48.12 0 0 1 59.7 14c0-.23-.69-4.2-.93-5.11v-.11c-.44-.12-1-.24-1.58-.35a27.16 27.16 0 0 0-15.89 3.3 23.15 23.15 0 0 0 .05 3.84zM59.8 60.69a11.62 11.62 0 0 0 3.68-2.07 13.74 13.74 0 0 1-2-3.53 24.82 24.82 0 0 1-5.66-.4A35.53 35.53 0 0 1 50 53.12a25.12 25.12 0 0 1-5.81 3.37 18.82 18.82 0 0 0 4.36 4.24q.53.12 1.08.21a21.77 21.77 0 0 0 10.17-.25zM32.56 49.61l-.28.24c.91 2.6 3.24 4.56 5 5.84a23.48 23.48 0 0 0 4 2.41l-.71-1.2c-2.49-1.24-6.07-4.83-8.01-7.29zM71.76 43l5.51.79c2-3.08 2.63-7.56 2.64-9.63A35.74 35.74 0 0 0 78.45 26a24.13 24.13 0 0 0-6.2-1.76h-.7a25.37 25.37 0 0 1-3.94 8.33C69 34.82 71.19 39 71.76 43zm-9.03-29a43.54 43.54 0 0 1 8.38 7.06c.48 0 3 .28 3.66.4a27.27 27.27 0 0 1 3 .86 5.12 5.12 0 0 0-.22-.5c-3.79-7.43-8.68-10.29-15.29-12.36l-.16.06c.22 1.08.6 4.15.63 4.48zM34.52 31a24.49 24.49 0 0 0 2.32 6.44l8.06 1.42h0a28.29 28.29 0 0 1 4.81-6.18l2.64-2.44v-.05l-2.31-9.55A22 22 0 0 0 44.85 19h0a14.47 14.47 0 0 0-3.8-.24 66.48 66.48 0 0 0-7.19 8.46 49.85 49.85 0 0 0 .66 3.78zm17.21 19.38a31.67 31.67 0 0 0 4.56 1.2 20.17 20.17 0 0 0 5.49.3 59.86 59.86 0 0 0 7-8.16c-.36-3.8-3.07-8.54-3.94-10-.3-.06-9.41-1.38-10.18-1.49-1.65 1.39-5.25 4.66-7.09 8l-.14.26a62.27 62.27 0 0 0 3.44 9.5c.2.16.5.27.86.39zm-20.47-3.69h.08a17.28 17.28 0 0 1 2.56-8 33.71 33.71 0 0 1-3.24-10.75l-1.68-.5c-.24.84-.43 1.68-.58 2.51a27.35 27.35 0 0 0 2.43 17z" fill="#fff"/></svg>