<svg xmlns="http://www.w3.org/2000/svg" viewBox="0 0 105.47 94.04"><path d="M52.74,92.49a8.54,8.54,0,0,1-7.47-4.31L2.72,14.48A8.62,8.62,0,0,1,10.18,1.54H95.29a8.63,8.63,0,0,1,7.47,12.94L60.2,88.18a8.53,8.53,0,0,1-7.46,4.31" fill="#f0ae00"/><path d="M95.29,3.09a7.08,7.08,0,0,1,6.13,10.62L58.87,87.41a7.08,7.08,0,0,1-12.26,0L4.05,13.71A7.08,7.08,0,0,1,10.18,3.09H95.29m0-3.09H10.18a10.17,10.17,0,0,0-8.8,15.25L43.93,89a10.16,10.16,0,0,0,17.61,0l42.55-73.7a10.06,10.06,0,0,0,0-10.17A10.06,10.06,0,0,0,95.29,0" fill="#f19e19"/><path d="M67 63c-4.1 9.32-14.45 10.15-23.68 8.56l-7-12.08C46.4 63 56.61 67.7 67 63zm9.4-16.33c-5.55 13.21-21 13.22-32.51 8.83A27.71 27.71 0 0 0 33 53.56l-9.8-17a45 45 0 0 1 16.09 3.68c6.08 2.52 11.87 5.86 18.16 7.85 6.64 2.13 12.55 1.08 18.95-1.42z" fill="#26b4e6"/><g fill="#fff"><circle cx="67.51" cy="32.93" r="7.51"/><path d="M60.14 44.8l-7.69-20.43 7.83-7.63 12.89 3.43a4 4 0 1 0 2.06-7.74l-15.09-4a4 4 0 0 0-3.82 1L45 20.42a4 4 0 0 0-1 4.18l2.71 7.75-9.15 3.79 6.05 2.35c5.98 2.63 11.17 5.16 16.53 6.31z"/></g></svg>