<svg id="Warstwa_1" data-name="Warstwa 1" xmlns="http://www.w3.org/2000/svg" viewBox="0 0 105.47 94.04"><defs><style>.cls-1{fill:#f0ae00;}.cls-2{fill:#f19e19;}.cls-3{fill:none;}.cls-4{fill:#26b4e6;}.cls-5{fill:#c90c0f;}.cls-6{fill:#fff;}</style></defs><title>sprawnosci-zuchowe</title><path class="cls-1" d="M52.74,92.49a8.54,8.54,0,0,1-7.47-4.31L2.72,14.48A8.62,8.62,0,0,1,10.18,1.54H95.29a8.63,8.63,0,0,1,7.47,12.94L60.2,88.18a8.53,8.53,0,0,1-7.46,4.31"/><path class="cls-2" d="M95.29,3.09a7.08,7.08,0,0,1,6.13,10.62L58.87,87.41a7.08,7.08,0,0,1-12.26,0L4.05,13.71A7.08,7.08,0,0,1,10.18,3.09H95.29m0-3.09H10.18a10.17,10.17,0,0,0-8.8,15.25L43.93,89a10.16,10.16,0,0,0,17.61,0l42.55-73.7a10.06,10.06,0,0,0,0-10.17A10,10,0,0,0,95.29,0"/><path class="cls-3" d="M46.52,29.64c.66,0,1.32-.06,2-.07l-1.81-3.15-3.37-5.83-1.54,2.67A12.93,12.93,0,0,1,46.52,29.64Z"/><path class="cls-3" d="M59.36,19.09H45.91l3.36,5.83L52.22,30a3.51,3.51,0,0,1,.61.39Z"/><path class="cls-3" d="M24.52,33.72a9.83,9.83,0,0,0,18.86,3.9c-5.59-.45-11-1.55-11-3.9A1.69,1.69,0,0,1,33,32.49l4.64-8a9.56,9.56,0,0,0-3.27-.57A9.84,9.84,0,0,0,24.52,33.72Z"/><path class="cls-3" d="M72,35.05a1.59,1.59,0,0,1-.75.2A1.5,1.5,0,0,1,70,34.5L65.07,26a9.91,9.91,0,1,0,2.61-1.46L72.59,33A1.51,1.51,0,0,1,72,35.05Z"/><path class="cls-3" d="M40.27,25.87l-2.78,4.8a46.58,46.58,0,0,1,5.9-.83A10,10,0,0,0,40.27,25.87Z"/><path class="cls-4" d="M71.12,20.88a12.8,12.8,0,0,0-5,1l1.52,2.64A9.85,9.85,0,1,1,65.07,26l-1.51-2.61a12.82,12.82,0,1,0,7.56-2.48Z"/><path class="cls-4" d="M43.39,29.84c1-.09,2.08-.16,3.13-.2a12.93,12.93,0,0,0-4.75-6.38l-1.5,2.61A10,10,0,0,1,43.39,29.84Z"/><path class="cls-4" d="M34.35,43.55a9.84,9.84,0,0,1,0-19.67,9.56,9.56,0,0,1,3.27.57l1.52-2.64a12.69,12.69,0,0,0-4.79-.93A12.84,12.84,0,1,0,46.51,37.8c-1,0-2.08-.1-3.13-.18A9.84,9.84,0,0,1,34.35,43.55Z"/><path class="cls-5" d="M42.34,15l6-1.58V9.47H35.22A5.67,5.67,0,0,0,42.34,15Z"/><path class="cls-5" d="M70,34.5a1.5,1.5,0,0,0,1.3.75,1.59,1.59,0,0,0,.75-.2,1.51,1.51,0,0,0,.55-2l-4.91-8.49-1.52-2.64-2.45-4.25,3.37-5.84a1.5,1.5,0,0,0-1.29-2.25H58.13a1.5,1.5,0,1,0,0,3h5.06l-2.06,3.56H43.31a1.52,1.52,0,0,0-1.3.75l-2.87,5-1.52,2.64-4.64,8a10.36,10.36,0,0,1,4.51-1.82l2.78-4.8,1.5-2.61,1.54-2.67,3.37,5.83,1.81,3.15,1.84,0a4.16,4.16,0,0,1,1.89.47l-2.95-5.1-3.36-5.83H59.36L52.83,30.41a4.12,4.12,0,0,1,1.65,3.15l3.14-5.45a1.24,1.24,0,0,0,.14-.18L62,20.62l1.58,2.74L65.07,26Z"/><path class="cls-6" d="M52.83,30.41a3.51,3.51,0,0,0-.61-.39,4.16,4.16,0,0,0-1.89-.47l-1.84,0c-.65,0-1.31,0-2,.07-1.05,0-2.1.11-3.13.2a46.58,46.58,0,0,0-5.9.83A10.36,10.36,0,0,0,33,32.49a1.69,1.69,0,0,0-.63,1.23c0,2.35,5.44,3.45,11,3.9,1,.08,2.11.14,3.13.18,1.35.06,2.65.08,3.82.08a4.16,4.16,0,0,0,4.16-4.16c0-.06,0-.11,0-.16A4.12,4.12,0,0,0,52.83,30.41Z"/></svg>