<svg xmlns="http://www.w3.org/2000/svg" viewBox="0 0 105.47 94.04"><path d="M52.74,92.49a8.54,8.54,0,0,1-7.47-4.31L2.72,14.48A8.62,8.62,0,0,1,10.18,1.54H95.29a8.63,8.63,0,0,1,7.47,12.94L60.2,88.18a8.53,8.53,0,0,1-7.46,4.31" fill="#f0ae00"/><path d="M95.29,3.09a7.08,7.08,0,0,1,6.13,10.62L58.87,87.41a7.08,7.08,0,0,1-12.26,0L4.05,13.71A7.08,7.08,0,0,1,10.18,3.09H95.29m0-3.09H10.18a10.17,10.17,0,0,0-8.8,15.25L43.93,89a10.16,10.16,0,0,0,17.61,0l42.55-73.7a10.06,10.06,0,0,0,0-10.17A10,10,0,0,0,95.29,0" fill="#f19e19"/><path d="M71.12 20.88a12.8 12.8 0 0 0-5 1l1.52 2.64A9.85 9.85 0 1 1 65.07 26l-1.51-2.61a12.82 12.82 0 1 0 7.56-2.48zm-27.73 8.96l3.13-.2a12.93 12.93 0 0 0-4.75-6.38l-1.5 2.61a10 10 0 0 1 3.12 3.97zm-9.04 13.71a9.84 9.84 0 0 1 0-19.67 9.56 9.56 0 0 1 3.27.57l1.52-2.64a12.69 12.69 0 0 0-4.79-.93A12.84 12.84 0 1 0 46.51 37.8c-1 0-2.08-.1-3.13-.18a9.84 9.84 0 0 1-9.03 5.93z" fill="#26b4e6"/><path d="M42.34 15l6-1.58V9.47H35.22A5.67 5.67 0 0 0 42.34 15zM70 34.5a1.5 1.5 0 0 0 1.3.75 1.59 1.59 0 0 0 .75-.2 1.51 1.51 0 0 0 .55-2l-4.91-8.49-1.52-2.64-2.45-4.25 3.37-5.84a1.5 1.5 0 0 0-1.29-2.25h-7.67a1.5 1.5 0 1 0 0 3h5.06l-2.06 3.56H43.31a1.52 1.52 0 0 0-1.3.75l-2.87 5-1.52 2.64-4.64 8a10.36 10.36 0 0 1 4.51-1.82l2.78-4.8 1.5-2.61 1.54-2.67 3.37 5.83 1.81 3.15h1.84a4.16 4.16 0 0 1 1.89.47l-2.95-5.1-3.36-5.83h13.45l-6.53 11.26a4.12 4.12 0 0 1 1.65 3.15l3.14-5.45a1.24 1.24 0 0 0 .14-.18L62 20.62l1.58 2.74L65.07 26z" fill="#c90c0f"/><path d="M52.83 30.41a3.51 3.51 0 0 0-.61-.39 4.16 4.16 0 0 0-1.89-.47h-1.84l-2 .07c-1.05 0-2.1.11-3.13.2a46.58 46.58 0 0 0-5.9.83A10.36 10.36 0 0 0 33 32.49a1.69 1.69 0 0 0-.63 1.23c0 2.35 5.44 3.45 11 3.9a79.76 79.76 0 0 0 3.13.18 86.46 86.46 0 0 0 3.82.08 4.16 4.16 0 0 0 4.16-4.16v-.16a4.12 4.12 0 0 0-1.65-3.15z" fill="#fff"/></svg>