<svg id="Warstwa_1" data-name="Warstwa 1" xmlns="http://www.w3.org/2000/svg" viewBox="0 0 105.47 94.04"><defs><style>.cls-1{fill:#f0ae00;}.cls-2{fill:#f19e19;}.cls-3{fill:#c90c0f;}.cls-4{fill:#fff;}</style></defs><title>sprawnosci-zuchowe</title><path class="cls-1" d="M52.74,92.49a8.54,8.54,0,0,1-7.47-4.31L2.72,14.48A8.62,8.62,0,0,1,10.18,1.54H95.29a8.63,8.63,0,0,1,7.47,12.94L60.2,88.18a8.53,8.53,0,0,1-7.46,4.31"/><path class="cls-2" d="M95.29,3.09a7.08,7.08,0,0,1,6.13,10.62L58.87,87.41a7.08,7.08,0,0,1-12.26,0L4.05,13.71A7.08,7.08,0,0,1,10.18,3.09H95.29m0-3.09H10.18a10.17,10.17,0,0,0-8.8,15.25L43.93,89a10.16,10.16,0,0,0,17.61,0l42.55-73.7a10.06,10.06,0,0,0,0-10.17A10,10,0,0,0,95.29,0"/><path class="cls-3" d="M71.5,49.58,56.66,38.07c.76-1.89,2-5.81,1-9.45C55.7,21.74,41.44,9.53,39.83,8.16a2,2,0,0,0-2.88.3l-7.06,9.11a2.14,2.14,0,0,0-2.17.77,2.16,2.16,0,0,0,.38,3l7.76,6-5.62,4-5.35-4.15a2,2,0,1,0-2.45,3.16l26.3,20.41.12.08h0c4.38,3.36,8.19,4.5,11.33,4.5a13.13,13.13,0,0,0,8.13-2.86l.54.42a2.16,2.16,0,0,0,2.64-3.41ZM53.33,35.49,42.47,27.06l4.86-6.28c3.13,3.33,5.82,6.69,6.45,8.93A10.72,10.72,0,0,1,53.33,35.49ZM38.82,12.58c1.6,1.41,3.63,3.29,5.69,5.32l-5.2,6.7-6.13-4.75Zm.34,17.36,12.53,9.73-2.58,6.4L33.54,34ZM52.41,48.57,55,42.22,65,50C62.53,51.57,58.3,52.61,52.41,48.57Z"/><path class="cls-4" d="M49,84.51a4.27,4.27,0,0,0,7.39,0L66,67.88l-47.39-36Z"/></svg>