<svg id="Warstwa_1" data-name="Warstwa 1" xmlns="http://www.w3.org/2000/svg" viewBox="0 0 105.47 94.04"><defs><style>.cls-1{fill:#f0ae00;}.cls-2{fill:#f19e19;}.cls-3{fill:#fff;}</style></defs><title>sprawnosci-zuchowe</title><path class="cls-1" d="M52.74,92.49a8.54,8.54,0,0,1-7.47-4.31L2.72,14.48A8.62,8.62,0,0,1,10.18,1.54H95.29a8.63,8.63,0,0,1,7.47,12.94L60.2,88.18a8.53,8.53,0,0,1-7.46,4.31"/><path class="cls-2" d="M95.29,3.09a7.08,7.08,0,0,1,6.13,10.62L58.87,87.41a7.08,7.08,0,0,1-12.26,0L4.05,13.71A7.08,7.08,0,0,1,10.18,3.09H95.29m0-3.09H10.18a10.17,10.17,0,0,0-8.8,15.25L43.93,89a10.16,10.16,0,0,0,17.61,0l42.55-73.7a10.06,10.06,0,0,0,0-10.17A10,10,0,0,0,95.29,0"/><polygon class="cls-3" points="46.99 32.72 41.99 54.77 63.48 54.77 58.48 32.72 46.99 32.72"/><path class="cls-3" d="M62.49,15.34a9.72,9.72,0,1,0-17.71,5.54h16A9.69,9.69,0,0,0,62.49,15.34Z"/><polygon class="cls-3" points="60.73 29.55 62.73 23.88 42.8 23.88 44.8 29.55 60.73 29.55"/><rect class="cls-3" x="37.57" y="57.69" width="30.32" height="6.19"/></svg>