<svg xmlns="http://www.w3.org/2000/svg" viewBox="0 0 105.47 94.04"><path d="M52.74,92.49a8.54,8.54,0,0,1-7.47-4.31L2.72,14.48A8.62,8.62,0,0,1,10.18,1.54H95.29a8.63,8.63,0,0,1,7.47,12.94L60.2,88.18a8.53,8.53,0,0,1-7.46,4.31" fill="#f0ae00"/><path d="M95.29,3.09a7.08,7.08,0,0,1,6.13,10.62L58.87,87.41a7.08,7.08,0,0,1-12.26,0L4.05,13.71A7.08,7.08,0,0,1,10.18,3.09H95.29m0-3.09H10.18a10.17,10.17,0,0,0-8.8,15.25L43.93,89a10.16,10.16,0,0,0,17.61,0l42.55-73.7a10.06,10.06,0,0,0,0-10.17A10,10,0,0,0,95.29,0" fill="#f19e19"/><circle cx="53.32" cy="33.9" r="25.22" fill="#94b516"/><path d="M41.1 51.73a13.24 13.24 0 0 1 8.51-1.27c3 .41 8.48.3 12.19-1.85a17 17 0 1 0-24.73-19.67 13.75 13.75 0 0 1-5.31 6.59 11.62 11.62 0 0 1-3.47 1.32 24.54 24.54 0 0 0 .71 3.56c.14.52.3 1 .47 1.54A16.94 16.94 0 0 0 41.75 31.4c.09-.24 1.42-5.22 5.7-7.69a11.76 11.76 0 1 1 11.74 20.38 11.66 11.66 0 0 1-8.76 1.21h0a16.89 16.89 0 0 0-16 5.23 24.81 24.81 0 0 0 3.85 3.54 11.67 11.67 0 0 1 2.82-2.34z" fill="#fff"/><path d="M46.39 28.67a3.24 3.24 0 1 1-3.24-3.24 3.24 3.24 0 0 1 3.24 3.24M53.32 44a6 6 0 0 1-6-6 1.6 1.6 0 1 1 3.2 0 2.78 2.78 0 1 0 5.55 0 1.6 1.6 0 1 1 3.2 0 6 6 0 0 1-5.95 6zm13.42-15.33a3.25 3.25 0 1 1-3.25-3.24 3.25 3.25 0 0 1 3.25 3.24" fill="#194093"/></svg>