<svg xmlns="http://www.w3.org/2000/svg" viewBox="0 0 90.709 90.709"><path d="M45.354 88.874c-23.997 0-43.52-19.522-43.52-43.52s19.522-43.52 43.52-43.52 43.521 19.522 43.521 43.52-19.524 43.52-43.521 43.52z" fill="#194093"/><path d="M45.354 2.835c23.483 0 42.52 19.037 42.52 42.52s-19.037 42.52-42.52 42.52-42.52-19.037-42.52-42.52 19.037-42.52 42.52-42.52m0-2C20.806.835.834 20.806.834 45.355s19.971 44.52 44.52 44.52 44.52-19.971 44.52-44.52S69.903.835 45.354.835h0z" fill="#252e78"/><path d="M73.091 32.46L47.764 47.029v29.339l25.327-14.724V32.46zM54.524 68.703c-1.621.936-2.935.177-2.935-1.694s1.314-4.147 2.935-5.083 2.935-.177 2.935 1.694-1.314 4.147-2.935 5.083zm6.256-10.705c-1.783 1.029-3.228.195-3.228-1.864s1.445-4.562 3.228-5.591 3.228-.195 3.228 1.864-1.445 4.561-3.228 5.591zm6.257-11.383c-1.621.936-2.935.177-2.935-1.694s1.314-4.147 2.935-5.083 2.935-.177 2.935 1.694-1.314 4.147-2.935 5.083zM17.617 32.46v29.184l25.327 14.724V47.029L17.617 32.46zm6.57 15.158c-1.783-1.029-3.228-3.533-3.228-5.592s1.446-2.893 3.228-1.864 3.228 3.533 3.228 5.591-1.445 2.895-3.228 1.865zM35.67 68.377c-1.783-1.029-3.228-3.533-3.228-5.592s1.445-2.893 3.228-1.864 3.228 3.533 3.228 5.592-1.445 2.893-3.228 1.864z" fill="#fff"/><path d="M45.308 14.024l-25.36 14.62 25.344 14.62 25.344-14.62-25.328-14.62zm3.952 16.515c-2.157 1.246-5.655 1.246-7.812 0s-2.157-3.265 0-4.51 5.655-1.246 7.812 0 2.158 3.264 0 4.51z" fill="#f8c409"/></svg>