<?xml version="1.0" encoding="iso-8859-1"?>
<!-- Generator: Adobe Illustrator 22.1.0, SVG Export Plug-In . SVG Version: 6.00 Build 0)  -->
<svg version="1.1" xmlns="http://www.w3.org/2000/svg" xmlns:xlink="http://www.w3.org/1999/xlink" x="0px" y="0px"
	 viewBox="0 0 90.709 90.709" style="enable-background:new 0 0 90.709 90.709;" xml:space="preserve">
<g id="ratownik-1">
	<g>
		<g>
			<path style="fill:#194093;" d="M45.354,88.874c-23.997,0-43.52-19.522-43.52-43.52s19.522-43.52,43.52-43.52
				s43.521,19.522,43.521,43.52S69.351,88.874,45.354,88.874z"/>
			<g>
				<path style="fill:#252E78;" d="M45.354,2.835c23.483,0,42.52,19.037,42.52,42.52s-19.037,42.52-42.52,42.52
					c-23.483,0-42.52-19.037-42.52-42.52S21.871,2.835,45.354,2.835 M45.354,0.835c-24.548,0-44.52,19.971-44.52,44.52
					s19.971,44.52,44.52,44.52s44.52-19.971,44.52-44.52S69.903,0.835,45.354,0.835L45.354,0.835z"/>
			</g>
		</g>
	</g>
</g>
<g id="Warstwa_4">
	<g>
		<g>
			<path style="fill:#FFFFFF;" d="M73.091,32.46L47.764,47.029v29.339l25.327-14.724L73.091,32.46z M54.524,68.703
				c-1.621,0.936-2.935,0.177-2.935-1.694s1.314-4.147,2.935-5.083c1.621-0.936,2.935-0.177,2.935,1.694
				C57.459,65.491,56.145,67.767,54.524,68.703z M60.78,57.998c-1.783,1.029-3.228,0.195-3.228-1.864
				c0-2.059,1.445-4.562,3.228-5.591c1.783-1.03,3.228-0.195,3.228,1.864C64.008,54.465,62.563,56.968,60.78,57.998z M67.037,46.615
				c-1.621,0.936-2.935,0.177-2.935-1.694c0-1.871,1.314-4.147,2.935-5.083c1.621-0.936,2.935-0.177,2.935,1.694
				S68.658,45.679,67.037,46.615z"/>
		</g>
		<g>
			<path style="fill:#FFFFFF;" d="M17.617,32.46v29.184l25.327,14.724l0-29.339L17.617,32.46z M24.187,47.618
				c-1.783-1.029-3.228-3.533-3.228-5.592c0-2.059,1.446-2.893,3.228-1.864c1.783,1.029,3.228,3.533,3.228,5.591
				C27.415,47.813,25.97,48.648,24.187,47.618z M35.67,68.377c-1.783-1.029-3.228-3.533-3.228-5.592
				c0-2.059,1.445-2.893,3.228-1.864c1.783,1.029,3.228,3.533,3.228,5.592C38.898,68.572,37.453,69.406,35.67,68.377z"/>
		</g>
		<path style="fill:#F8C409;" d="M45.308,14.024l-25.36,14.62l25.344,14.62l25.344-14.62L45.308,14.024z M49.26,30.539
			c-2.157,1.246-5.655,1.246-7.812,0c-2.157-1.246-2.157-3.265,0-4.51c2.157-1.246,5.655-1.246,7.812,0
			C51.418,27.274,51.418,29.293,49.26,30.539z"/>
	</g>
</g>
</svg>
