<svg xmlns="http://www.w3.org/2000/svg" viewBox="0 0 90.709 90.709"><circle cx="45.354" cy="45.355" r="43.52" fill="#194093"/><path d="M45.354 2.835c23.483 0 42.52 19.037 42.52 42.52s-19.037 42.52-42.52 42.52-42.52-19.037-42.52-42.52 19.037-42.52 42.52-42.52m0-2C20.806.835.834 20.806.834 45.355s19.971 44.52 44.52 44.52 44.52-19.971 44.52-44.52S69.903.835 45.354.835h0z" fill="#252e78"/><path d="M67.088 67.372a5.25 5.25 0 0 1 5.248-5.248v-7.448a5.25 5.25 0 0 1-5.248-5.248 5.25 5.25 0 0 1 5.248-5.248v-7.448a5.25 5.25 0 0 1-5.248-5.248 5.25 5.25 0 0 1 5.248-5.248V18.22l-.15-.143h-7.868a5.25 5.25 0 0 1-5.247 5.255 5.25 5.25 0 0 1-5.248-5.248l-7.448-.007a5.25 5.25 0 0 1-5.247 5.255 5.25 5.25 0 0 1-5.248-5.248l-7.448-.007a5.25 5.25 0 0 1-5.247 5.255c-2.717 0-4.925-2.072-5.194-4.718-3.31 3.387-6.002 7.382-7.88 11.808h49.881v50.294a38.3 38.3 0 0 0 12.22-8.11 5.24 5.24 0 0 1-5.124-5.234z" fill="#fff"/><path d="M10.11 30.423c-1.946 4.588-3.023 9.634-3.023 14.931a38.08 38.08 0 0 0 5.937 20.463c3.165-9.857 9.403-18.656 18.134-22.513l6.972-8-.757 7.403c4.686 1.65 6.254 6.4 9.583 10.84 1.742 2.325 3.716 4.798 4.973 6.713.293 1.052 2.512 7.823-5.005 7.185-1.9-.162-3.687-2.366-3.638-4.399-8.289-.958-7.58-1.943-9.4-4.291-2.605 8.203-.344 15.351 1.494 23.545 3.181.857 6.523 1.321 9.974 1.321a38.16 38.16 0 0 0 14.637-2.905V30.423H10.11z" fill="#f8c409"/></svg>