<?xml version="1.0" encoding="iso-8859-1"?>
<!-- Generator: Adobe Illustrator 22.1.0, SVG Export Plug-In . SVG Version: 6.00 Build 0)  -->
<svg version="1.1" xmlns="http://www.w3.org/2000/svg" xmlns:xlink="http://www.w3.org/1999/xlink" x="0px" y="0px"
	 viewBox="0 0 90.709 90.709" style="enable-background:new 0 0 90.709 90.709;" xml:space="preserve">
<g id="ratownik-1">
	<g>
		<g>
			<circle style="fill:#194093;" cx="45.354" cy="45.355" r="43.52"/>
			<g>
				<path style="fill:#252E78;" d="M45.354,2.835c23.483,0,42.52,19.037,42.52,42.52s-19.037,42.52-42.52,42.52
					s-42.52-19.037-42.52-42.52S21.871,2.835,45.354,2.835 M45.354,0.835c-24.548,0-44.52,19.971-44.52,44.52
					s19.971,44.52,44.52,44.52s44.52-19.971,44.52-44.52S69.903,0.835,45.354,0.835L45.354,0.835z"/>
			</g>
		</g>
	</g>
</g>
<g id="Warstwa_4">
	<g>
		<path style="fill:#FFFFFF;" d="M67.088,67.372c0-2.898,2.349-5.248,5.248-5.248v-7.448c-2.898,0-5.248-2.349-5.248-5.248
			s2.349-5.248,5.248-5.248v-7.448c-2.898,0-5.248-2.349-5.248-5.248c0-2.898,2.349-5.248,5.248-5.248v-8.016
			c-0.049-0.049-0.101-0.095-0.15-0.143h-7.868c0,0.002,0.001,0.005,0.001,0.007c0,2.898-2.35,5.248-5.248,5.248
			s-5.248-2.349-5.248-5.248c0-0.003,0.001-0.005,0.001-0.007h-7.449c0,0.002,0.001,0.005,0.001,0.007
			c0,2.898-2.35,5.248-5.248,5.248c-2.898,0-5.248-2.349-5.248-5.248c0-0.003,0.001-0.005,0.001-0.007h-7.449
			c0,0.002,0.001,0.005,0.001,0.007c0,2.898-2.35,5.248-5.248,5.248c-2.717,0-4.925-2.072-5.194-4.718
			c-3.31,3.387-6.002,7.382-7.88,11.808h49.881v50.294c4.593-1.903,8.734-4.674,12.22-8.11
			C69.372,72.539,67.088,70.227,67.088,67.372z"/>
		<path style="fill:#F8C409;" d="M10.11,30.423c-1.946,4.588-3.023,9.634-3.023,14.931c0,7.529,2.183,14.543,5.937,20.463
			c3.165-9.857,9.403-18.656,18.134-22.513l6.972-8l-0.757,7.403c4.686,1.65,6.254,6.4,9.583,10.84
			c1.742,2.325,3.716,4.798,4.973,6.713c0.293,1.052,2.512,7.823-5.005,7.185c-1.9-0.162-3.687-2.366-3.638-4.399
			c-8.289-0.958-7.58-1.943-9.4-4.291c-2.605,8.203-0.344,15.351,1.494,23.545c3.181,0.857,6.523,1.321,9.974,1.321
			c5.185,0,10.127-1.037,14.637-2.905V30.423H10.11z"/>
	</g>
</g>
</svg>
