<svg xmlns="http://www.w3.org/2000/svg" viewBox="0 0 90.709 90.709"><path d="M45.354 88.874c-23.997 0-43.52-19.522-43.52-43.52s19.523-43.52 43.52-43.52 43.52 19.523 43.52 43.521-19.523 43.519-43.52 43.519z" fill="#194093"/><path d="M45.354 2.835c23.483 0 42.52 19.037 42.52 42.52s-19.037 42.52-42.52 42.52-42.52-19.037-42.52-42.52 19.037-42.52 42.52-42.52m0-2C20.806.835.834 20.806.834 45.355s19.971 44.52 44.52 44.52 44.52-19.971 44.52-44.52S69.903.835 45.354.835h0z" fill="#252e78"/><path d="M56.414 59.015s-3.627-14.454-8.199-24.542l-2.024 5.635-.558-10.604c-.919-1.497-1.855-2.722-2.789-3.524-3.74-3.208-9.699-7.242-12.281-6.719-1.978 3.047-1.23 8.443.082 12.872l9.314 4.835-7.724-.454c.339.768.664 1.415.946 1.892.662 1.117 1.754 2.436 3.105 3.855l10.781 5.131-5.972-.555c6.863 6.071 15.319 12.178 15.319 12.178zm1.91-4.469L76.47 32.222c-2.091-.206-3.619-2.069-3.412-4.159a3.78 3.78 0 0 1 .605-1.702L56.454 48.195l1.87 6.351zm-11.288 5.6l-31.667-3.125.048-.06c-.757.67-1.28 1.607-1.387 2.692-.22 2.229 1.37 4.207 3.57 4.509l-.012.015 30.466 3.006 5.362-6.597-4.277-3.107-2.103 2.667z" fill="#fff"/><path d="M50.948 33.235c2.135 4.71 4.048 10.272 5.507 14.96l17.209-21.834.448-.568-30.393-2.999 1.079.909c.958.823 6.15 9.532 6.15 9.532zm-3.912 26.911l2.102-2.667c-2.996-2.255-6.745-5.246-10.03-8.393-3.753-3.595-6.778-7.826-8.801-11.018L15.416 56.961l-.048.06 31.668 3.125z" fill="#f8c409"/></svg>