<?xml version="1.0" encoding="iso-8859-1"?>
<!-- Generator: Adobe Illustrator 22.1.0, SVG Export Plug-In . SVG Version: 6.00 Build 0)  -->
<svg version="1.1" xmlns="http://www.w3.org/2000/svg" xmlns:xlink="http://www.w3.org/1999/xlink" x="0px" y="0px"
	 viewBox="0 0 90.709 90.709" style="enable-background:new 0 0 90.709 90.709;" xml:space="preserve">
<g id="ratownik-1">
	<g>
		<g>
			<path style="fill:#194093;" d="M45.354,88.874c-23.997,0-43.52-19.522-43.52-43.52S21.357,1.834,45.354,1.834
				s43.52,19.523,43.52,43.521S69.351,88.874,45.354,88.874z"/>
			<g>
				<path style="fill:#252E78;" d="M45.354,2.835c23.483,0,42.52,19.037,42.52,42.52s-19.037,42.52-42.52,42.52
					s-42.52-19.037-42.52-42.52S21.871,2.835,45.354,2.835 M45.354,0.835c-24.548,0-44.52,19.971-44.52,44.52
					s19.971,44.52,44.52,44.52s44.52-19.971,44.52-44.52S69.903,0.835,45.354,0.835L45.354,0.835z"/>
			</g>
		</g>
	</g>
</g>
<g id="Warstwa_4">
	<g>
		<g>
			<path style="fill:#FFFFFF;" d="M56.414,59.015c0,0-3.627-14.454-8.199-24.542l-2.024,5.635l-0.558-10.604
				c-0.919-1.497-1.855-2.722-2.789-3.524c-3.74-3.208-9.699-7.242-12.281-6.719c-1.978,3.047-1.23,8.443,0.082,12.872l9.314,4.835
				l-7.724-0.454c0.339,0.768,0.664,1.415,0.946,1.892c0.662,1.117,1.754,2.436,3.105,3.855l10.781,5.131l-5.972-0.555
				C47.958,52.908,56.414,59.015,56.414,59.015z"/>
		</g>
		<g>
			<path style="fill:#FFFFFF;" d="M58.324,54.546l18.146-22.324c-2.091-0.206-3.619-2.069-3.412-4.159
				c0.062-0.63,0.281-1.206,0.605-1.702L56.454,48.195C57.212,50.631,57.846,52.826,58.324,54.546z"/>
			<path style="fill:#FFFFFF;" d="M47.036,60.146l-31.667-3.125l0.048-0.06c-0.757,0.67-1.28,1.607-1.387,2.692
				c-0.22,2.229,1.37,4.207,3.57,4.509l-0.012,0.015l30.466,3.006l5.362-6.597c-0.991-0.693-2.493-1.764-4.277-3.107L47.036,60.146z
				"/>
			<path style="fill:#F8C409;" d="M50.948,33.235c2.135,4.71,4.048,10.272,5.507,14.96l17.209-21.834l0.448-0.568l-30.393-2.999
				c0.355,0.293,0.714,0.596,1.079,0.909C45.756,24.526,50.948,33.235,50.948,33.235z"/>
			<path style="fill:#F8C409;" d="M47.036,60.146l2.102-2.667c-2.996-2.255-6.745-5.246-10.03-8.393
				c-3.753-3.595-6.778-7.826-8.801-11.018L15.416,56.961l-0.048,0.06L47.036,60.146z"/>
		</g>
	</g>
</g>
</svg>
