<svg xmlns="http://www.w3.org/2000/svg" viewBox="0 0 90.709 90.709"><circle cy="45.355" cx="45.354" transform="matrix(.7071 -.7071 .7071 .7071 -18.7867 45.3541)" r="43.52" fill="#194093"/><path d="M45.354 2.835c23.483 0 42.52 19.037 42.52 42.52s-19.037 42.52-42.52 42.52-42.52-19.037-42.52-42.52 19.037-42.52 42.52-42.52m0-2C20.806.835.834 20.807.834 45.355s19.972 44.52 44.52 44.52 44.52-19.972 44.52-44.52S69.902.835 45.354.835h0z" fill="#252e78"/><g fill-rule="evenodd"><path d="M45.002 10.984c-17.539.159-31.674 14.423-31.674 31.963 0 4.605.996 9.155 2.918 13.34a4.29 4.29 0 0 1 2.773-3.039 27.15 27.15 0 0 1-.877-6.844c-.001-14.938 12.066-27.071 27.004-27.152h.146c14.995 0 27.151 12.157 27.15 27.152a27.15 27.15 0 0 1-.893 6.906 4.29 4.29 0 0 1 2.715 3.137c1.97-4.228 2.992-8.836 2.992-13.5-.001-17.653-14.312-31.963-31.965-31.963-.097 0-.194 0-.291 0zM31.143 44.689a-11.786 11.786 0 0 0-9.654 6.76-11.786 11.786 0 0 0 1.027 11.742-11.786 11.786 0 0 0 10.682 4.98l-2.055-23.482zm28.197.031l-2.055 23.482a11.786 11.786 0 0 0 7.918-2.18c-.808 1.676-1.839 3.327-3.131 4.508-2.039 1.864-4.427 2.944-6.402 3.545s-3.723.713-3.719.713v3.6c.798 0 2.42-.154 4.766-.867s5.229-1.999 7.783-4.334c3.839-3.509 5.543-8.879 6.203-11.609a4.29 4.29 0 0 1-1.729-.096 11.786 11.786 0 0 0-9.635-16.762z" fill="#f8c409"/><path d="M34.33 44.416l-3.187.273 2.055 23.48 3.098-.258c1.545-.129 2.684-1.479 2.555-3.023l-1.498-17.918a2.79 2.79 0 0 0-3.021-2.555zm21.822.031a2.79 2.79 0 0 0-3.021 2.555L51.633 64.92c-.129 1.545 1.01 2.894 2.555 3.023l3.098.258 2.055-23.48-3.187-.273zm-35.74 8.568a4.29 4.29 0 0 0-4.289 4.289 4.29 4.29 0 0 0 5.385 4.146 11.786 11.786 0 0 1-.627-8.41 4.29 4.29 0 0 0-.469-.025zm49.658.031a4.29 4.29 0 0 0-.469.025 11.786 11.786 0 0 1-.627 8.41 4.29 4.29 0 0 0 5.385-4.146 4.29 4.29 0 0 0-4.289-4.289zM42.734 73.428c-1.83-.02-3.314 1.486-3.312 3.316s1.484 3.295 3.314 3.314c.239.002.384-.036.609-.057l8.611-1.619v-3.586l-8.51-1.289a4.01 4.01 0 0 0-.713-.08z" fill="#fff"/></g></svg>