<?xml version="1.0" encoding="UTF-8" standalone="no"?>
<svg
   xmlns:dc="http://purl.org/dc/elements/1.1/"
   xmlns:cc="http://creativecommons.org/ns#"
   xmlns:rdf="http://www.w3.org/1999/02/22-rdf-syntax-ns#"
   xmlns:svg="http://www.w3.org/2000/svg"
   xmlns="http://www.w3.org/2000/svg"
   xmlns:sodipodi="http://sodipodi.sourceforge.net/DTD/sodipodi-0.dtd"
   xmlns:inkscape="http://www.inkscape.org/namespaces/inkscape"
   inkscape:version="1.0 (4035a4fb49, 2020-05-01)"
   sodipodi:docname="sim-spr-h-Krotkofalowiec.svg"
   id="svg26"
   xml:space="preserve"
   style="enable-background:new 0 0 90.709 90.709;"
   viewBox="0 0 90.709 90.709"
   y="0px"
   x="0px"
   version="1.1"><metadata
   id="metadata32"><rdf:RDF><cc:Work
       rdf:about=""><dc:format>image/svg+xml</dc:format><dc:type
         rdf:resource="http://purl.org/dc/dcmitype/StillImage" /><dc:title></dc:title></cc:Work></rdf:RDF></metadata><defs
   id="defs30"><clipPath
     id="clipPath50"
     clipPathUnits="userSpaceOnUse"><circle
       r="71.826721"
       cy="45.909863"
       cx="197.70859"
       id="circle52"
       style="fill:#f15a38;fill-rule:evenodd;stroke:none;stroke-width:19.3805;stroke-linecap:round;stop-color:#000000" /></clipPath></defs><sodipodi:namedview
   inkscape:current-layer="svg26"
   inkscape:cy="60.497412"
   inkscape:cx="87.835727"
   inkscape:zoom="2"
   showgrid="false"
   id="namedview28"
   inkscape:window-height="480"
   inkscape:window-width="640"
   inkscape:pageshadow="2"
   inkscape:pageopacity="0"
   guidetolerance="10"
   gridtolerance="10"
   objecttolerance="10"
   borderopacity="1"
   bordercolor="#666666"
   pagecolor="#ffffff" />
<g
   id="ratownik-1">
	<g
   id="g10">
		<g
   id="g8">
			
				<ellipse
   id="ellipse2"
   ry="43.52"
   rx="43.52"
   cy="45.355"
   cx="45.354"
   style="fill:#194093;"
   transform="matrix(0.7071 -0.7071 0.7071 0.7071 -18.7867 45.3541)" />
			<g
   id="g6">
				<path
   id="path4"
   d="M45.354,2.835c23.483,0,42.52,19.037,42.52,42.52c0,23.483-19.037,42.52-42.52,42.52      c-23.483,0-42.52-19.037-42.52-42.52C2.835,21.871,21.871,2.835,45.354,2.835 M45.354,0.835c-24.548,0-44.52,19.972-44.52,44.52      s19.972,44.52,44.52,44.52s44.52-19.972,44.52-44.52S69.902,0.835,45.354,0.835L45.354,0.835z"
   style="fill:#252E78;" />
			</g>
		</g>
	</g>
</g>

<path
   d="M 45.001953 10.984375 C 27.462608 11.143673 13.328079 25.407198 13.328125 42.947266 C 13.328528 47.552156 14.323895 52.102594 16.246094 56.287109 C 16.59273 54.867896 17.637849 53.722681 19.019531 53.248047 C 18.437364 51.013373 18.142667 48.713558 18.142578 46.404297 C 18.141617 31.465945 30.208351 19.332881 45.146484 19.251953 C 45.195314 19.251821 45.244144 19.251821 45.292969 19.251953 C 60.28834 19.252287 72.444104 31.408926 72.443359 46.404297 C 72.44351 48.73515 72.143517 51.05632 71.550781 53.310547 C 72.934765 53.81992 73.960048 55.004527 74.265625 56.447266 C 76.236079 52.219488 77.257368 47.611684 77.257812 42.947266 C 77.257131 25.294169 62.946066 10.983978 45.292969 10.984375 C 45.195959 10.983933 45.098958 10.983933 45.001953 10.984375 z M 31.142578 44.689453 A -11.786002 11.786002 0 0 0 21.488281 51.449219 A -11.786002 11.786002 0 0 0 22.515625 63.191406 A -11.786002 11.786002 0 0 0 33.197266 68.171875 L 31.142578 44.689453 z M 59.339844 44.720703 L 57.285156 68.203125 A 11.786002 11.786002 0 0 0 65.203125 66.023438 C 64.395544 67.699074 63.364587 69.350127 62.072266 70.53125 C 60.033133 72.394923 57.645486 73.475058 55.669922 74.076172 C 53.694358 74.677286 51.947228 74.789064 51.951172 74.789062 L 51.951172 78.388672 C 52.748926 78.388672 54.371341 78.235147 56.716797 77.521484 C 59.062253 76.807822 61.945413 75.522274 64.5 73.1875 C 68.339198 69.67865 70.04347 64.308717 70.703125 61.578125 A 4.2895331 4.2895331 0 0 1 70.070312 61.625 A 4.2895331 4.2895331 0 0 1 68.974609 61.482422 A 11.786002 11.786002 0 0 0 68.994141 51.480469 A 11.786002 11.786002 0 0 0 59.339844 44.720703 z "
   style="opacity:1;fill:#f8c409;fill-rule:evenodd;stroke:none;stroke-width:15.0023;stroke-linecap:round;stop-color:#000000;fill-opacity:1"
   id="path54" /><path
   d="M 34.330078 44.416016 C 32.817991 44.542559 31.463426 44.650533 31.142578 44.689453 L 33.197266 68.169922 L 36.294922 67.912109 C 37.839827 67.78301 38.978708 66.433576 38.849609 64.888672 L 37.351562 46.970703 C 37.222463 45.425798 35.874984 44.286917 34.330078 44.416016 z M 56.152344 44.447266 C 54.607438 44.318167 53.259958 45.457048 53.130859 47.001953 L 51.632812 64.919922 C 51.503715 66.464826 52.642595 67.81426 54.1875 67.943359 L 57.285156 68.201172 L 59.339844 44.720703 C 59.018996 44.681783 57.664431 44.573809 56.152344 44.447266 z M 20.412109 53.015625 A 4.2895331 4.2895331 0 0 0 16.123047 57.304688 A 4.2895331 4.2895331 0 0 0 20.412109 61.59375 A 4.2895331 4.2895331 0 0 0 21.507812 61.451172 A 11.786002 11.786002 0 0 1 20.880859 53.041016 A 4.2895331 4.2895331 0 0 0 20.412109 53.015625 z M 70.070312 53.046875 A 4.2895331 4.2895331 0 0 0 69.601562 53.072266 A 11.786002 11.786002 0 0 1 68.974609 61.482422 A 4.2895331 4.2895331 0 0 0 70.070312 61.625 A 4.2895331 4.2895331 0 0 0 74.359375 57.335938 A 4.2895331 4.2895331 0 0 0 70.070312 53.046875 z M 42.734375 73.427734 C 40.903989 73.407514 39.420856 74.913644 39.421875 76.744141 C 39.421936 78.574638 40.905934 80.039236 42.736328 80.058594 C 42.97536 80.061094 43.119866 80.022943 43.345703 80.001953 L 51.957031 78.382812 L 51.957031 74.796875 L 43.447266 73.507812 C 43.20061 73.458542 42.946532 73.430073 42.734375 73.427734 z "
   style="opacity:1;fill:#ffffff;fill-rule:evenodd;stroke:none;stroke-width:2.01327;stroke-linecap:round;stop-color:#000000"
   id="path87" /></svg>
