<svg xmlns="http://www.w3.org/2000/svg" viewBox="0 0 90.709 90.709"><circle transform="matrix(.7071 -.7071 .7071 .7071 -18.7867 45.3541)" cx="45.354" cy="45.355" r="43.52" fill="#194093"/><path d="M45.354 2.835c23.483 0 42.52 19.037 42.52 42.52s-19.037 42.52-42.52 42.52-42.52-19.037-42.52-42.52 19.037-42.52 42.52-42.52m0-2C20.806.835.834 20.807.834 45.355s19.972 44.52 44.52 44.52 44.52-19.972 44.52-44.52S69.902.835 45.354.835h0z" fill="#252e78"/><g fill-rule="evenodd"><path d="M23.154 23.73c-.587 28.193-.401 32.967 8.621 44.594 6.76 8.712 13.677 9.94 13.697 9.943.025-.004 6.939-1.231 13.699-9.943 9.022-11.627 9.208-16.401 8.621-44.594-16.476 1.693-30.035 1.669-44.639 0zm23.836 5.01a2.2 2.2 0 0 1 2.201 2.201v15.311c.002.345.271.613.602.613a.6.6 0 0 0 .6-.6c0-.012.002-.019.002-.031V33.363a2.2 2.2 0 1 1 4.4 0v22.91l3.736-5.633a2.2 2.2 0 0 1 3.666 2.434l-7.615 11.473c-1.075 1.62-2.539 2.948-4.426 3.645s-4.042.846-6.867.773c-4.594-.118-7.369-3.203-8.502-5.898s-1.102-5.262-1.102-5.262l-.176-20.486a2.2 2.2 0 0 1 2.18-2.219 2.2 2.2 0 0 1 2.219 2.182L38 47.982c.042.29.282.517.584.518a.6.6 0 0 0 .602-.6c0-.008.002-.016.002-.023V32.436a2.2 2.2 0 0 1 2.199-2.199 2.2 2.2 0 0 1 2.199 2.199v13.486c.002.345.272.614.604.613a.6.6 0 0 0 .6-.6c0-.015.002-.026.002-.041V30.941a2.2 2.2 0 0 1 2.199-2.201z" fill="#efac1f"/><path d="M17.471 18.338l-.26 18.928c-.117 17.649 1.362 23.355 10.121 34.131 2.805 3.451 5.741 5.945 8.424 7.758 5.431 3.84 9.699 4.503 9.717 4.506.004 0 .05-.011.055-.012s.048.012.049.012c.022-.003 4.287-.665 9.715-4.502 2.684-1.813 5.623-4.308 8.43-7.762 8.759-10.776 10.238-16.481 10.121-34.131.027-5.183-.094-11.317-.26-18.928-.035.004-.07.006-.105.01-9.986.97-19.11 1.459-27.949 1.488-8.839-.029-17.965-.518-27.951-1.498a.38.38 0 0 1-.105 0zm5.789 5.402c7.514.855 14.761 1.269 22.268 1.242 7.506.026 14.752-.387 22.266-1.242.587 28.183.4 32.958-8.621 44.584-6.624 8.537-13.355 9.877-13.645 9.932-.28-.052-7.017-1.388-13.646-9.932-9.021-11.626-9.208-16.401-8.621-44.584z" fill="#fff"/></g></svg>