<svg xmlns="http://www.w3.org/2000/svg" viewBox="0 0 90.709 90.709"><circle cy="45.355" cx="45.354" transform="matrix(.7071 -.7071 .7071 .7071 -18.7867 45.3541)" r="43.52" fill="#194093"/><path d="M45.354 2.835c23.483 0 42.52 19.037 42.52 42.52s-19.037 42.52-42.52 42.52-42.52-19.037-42.52-42.52 19.037-42.52 42.52-42.52m0-2C20.806.835.834 20.807.834 45.355s19.972 44.52 44.52 44.52 44.52-19.972 44.52-44.52S69.902.835 45.354.835h0z" fill="#252e78"/><g fill-rule="evenodd"><path d="M30.033 20.594l20.801 16.41 20.801-16.41H30.033zm-4.99 1.158c-.073.196-.117.405-.117.627v19.119h4.42a3.04 3.04 0 0 1 3.049 3.049c0 1.689-1.367 2.896-3.049 3.051-.629.058-.754 3.354.393 6.047l17.865-14.094-22.561-17.799zm51.121.363L54.063 39.551l18.523 14.615c1.209-1.953 2.184-4.089 2.877-6.373a1.88 1.88 0 0 1-1.377-2.191 1.88 1.88 0 0 1 2.105-1.496V22.379c0-.091-.014-.177-.027-.264zM50.832 42.1l-1.135.895a14.046 14.046 0 0 1 .811-.023 14.046 14.046 0 0 1 1.535.084l-1.211-.955zm-.436 6.086a8.412 8.412 0 0 0-7.934 11.078H58.42a8.412 8.412 0 0 0-7.979-11.078 8.412 8.412 0 0 0-.043 0 8.412 8.412 0 0 1-.002 0zm13.334 4.09a14.046 14.046 0 0 1 .643 6.988h4.063a24.9 24.9 0 0 0 1.785-1.867l-6.49-5.121zm-26.672.689l-5.125 4.043c.655.803 1.363 1.554 2.117 2.256h2.592a14.046 14.046 0 0 1 .416-6.299z" fill="#fff"/><path d="M8.816 41.498a3.04 3.04 0 0 0-3.049 3.049c0 1.689 1.366 3.194 3.049 3.051 2.713-.231 3.133 7.849 7.283 14.541 4.141 8.102 16.143 16.505 29.213 16.549 17.553.059 31.978-13.126 33.832-30.164a1.88 1.88 0 0 0 2.066-1.5c.205-1.027-.457-2.02-1.484-2.225l-3.418-.682c-1.027-.205-2.018.457-2.223 1.484a1.88 1.88 0 0 0 1.377 2.191c-2.024 6.671-6.4 12.12-12.262 15.24.891-1.88 1.353-3.935 1.354-6.016a14.05 14.05 0 0 0-14.047-14.047h-.004a14.05 14.05 0 0 0-14.043 14.047c0 1.631.284 3.25.84 4.783-2.795-1.808-5.192-4.174-6.99-7.049-1.745-2.791-1.684-7.088-.965-7.154 1.682-.155 3.049-1.361 3.049-3.051a3.04 3.04 0 0 0-3.049-3.049zm41.58 6.688h.002.043c4.646 0 8.412 3.766 8.412 8.412s-3.766 8.412-8.412 8.412-8.412-3.766-8.412-8.412c0-4.628 3.739-8.388 8.367-8.412z" fill="#efac1f"/></g></svg>