<svg xmlns="http://www.w3.org/2000/svg" viewBox="0 0 90.709 90.709"><circle cx="45.354" cy="45.355" r="43.52" fill="#194093"/><path d="M45.354 2.835c23.483 0 42.52 19.037 42.52 42.52s-19.037 42.52-42.52 42.52-42.52-19.037-42.52-42.52 19.037-42.52 42.52-42.52m0-2C20.806.835.834 20.806.834 45.355s19.971 44.52 44.52 44.52 44.52-19.971 44.52-44.52S69.903.835 45.354.835h0z" fill="#252e78"/><path d="M67.886 45.252l-2.746.517v26.304c-5.421-.561-12.184.858-17.47 3.712-.396.418-2.132 2.459-2.132 2.459l22.348-3.656V45.252zm-24.85 30.532c-5.287-2.853-12.049-4.272-17.471-3.711V45.752l-2.643-.5-.103 29.335 22.349 3.656c0 .001-1.736-2.041-2.132-2.459z" fill="#f8c409"/><path d="M43.036 75.784c-3.924-4.139-8.623-6.487-12.593-6.19l-1.611.12V43.888c-1.112.098-2.206.287-3.266.588v1.276 26.321c5.421-.561 12.184.858 17.47 3.711zm18.838-6.07l-1.611-.12c-3.969-.305-8.67 2.051-12.593 6.19 5.287-2.853 12.049-4.272 17.47-3.712V45.769v-1.293c-1.06-.3-2.154-.489-3.266-.587v25.825zM43.853 49.005c-3.638-4.194-8.093-6.804-12.021-7.089v24.671c3.992.216 8.25 2.277 12.021 5.779V49.005zm3 0v23.361c3.77-3.501 8.027-5.562 12.021-5.778V41.916c-3.93.284-8.383 2.895-12.021 7.089z" fill="#fff"/><g fill="#f8c409"><circle cx="45.293" cy="17.048" r="7.641"/><path d="M72.289 34.544c-1.438-3.546-3.594-6.799-6.287-9.526s-5.936-4.916-9.478-6.403c-.223-.094-.451-.177-.677-.266a10.62 10.62 0 0 1-3.147 6.325c3.209.898 6.31 2.372 9.167 4.48 2.506 1.841 4.848 4.111 6.773 6.904.185.268 1.027 1.839 1.992 3.659.754 1.422 2.926.709 2.682-.882-.248-1.611-.58-3.17-1.025-4.291zM34.74 18.348l-.678.266c-3.542 1.488-6.78 3.68-9.478 6.404a29.27 29.27 0 0 0-6.288 9.526c-.442 1.114-.788 2.658-1.054 4.254-.265 1.586 1.896 2.328 2.67.918l2.049-3.652c1.926-2.791 4.267-5.057 6.77-6.898 2.857-2.108 5.958-3.581 9.167-4.481-1.704-1.652-2.855-3.863-3.158-6.337z"/></g></svg>