<?xml version="1.0" encoding="iso-8859-1"?>
<!-- Generator: Adobe Illustrator 22.1.0, SVG Export Plug-In . SVG Version: 6.00 Build 0)  -->
<svg version="1.1" xmlns="http://www.w3.org/2000/svg" xmlns:xlink="http://www.w3.org/1999/xlink" x="0px" y="0px"
	 viewBox="0 0 90.709 90.709" style="enable-background:new 0 0 90.709 90.709;" xml:space="preserve">
<g id="ratownik-1">
	<g>
		<g>
			<circle style="fill:#194093;" cx="45.354" cy="45.355" r="43.52"/>
			<g>
				<path style="fill:#252E78;" d="M45.354,2.835c23.483,0,42.52,19.037,42.52,42.52s-19.037,42.52-42.52,42.52
					s-42.52-19.037-42.52-42.52S21.871,2.835,45.354,2.835 M45.354,0.835c-24.548,0-44.52,19.971-44.52,44.52
					s19.971,44.52,44.52,44.52s44.52-19.971,44.52-44.52S69.903,0.835,45.354,0.835L45.354,0.835z"/>
			</g>
		</g>
	</g>
</g>
<g id="Warstwa_4">
	<g>
		<g>
			<path style="fill:#F8C409;" d="M67.886,45.252l-2.746,0.517v26.304c-5.421-0.561-12.184,0.858-17.47,3.712
				c-0.396,0.418-2.132,2.459-2.132,2.459l22.348-3.656V45.252z"/>
			<path style="fill:#F8C409;" d="M43.036,75.784c-5.287-2.853-12.049-4.272-17.471-3.711V45.752l-2.643-0.5l-0.103,29.335
				l22.349,3.656C45.168,78.244,43.432,76.202,43.036,75.784z"/>
			<path style="fill:#FFFFFF;" d="M43.036,75.784c-3.924-4.139-8.623-6.487-12.593-6.19l-1.611,0.12V43.888
				c-1.112,0.098-2.206,0.287-3.266,0.588v1.276v26.321C30.987,71.512,37.75,72.931,43.036,75.784z"/>
			<path style="fill:#FFFFFF;" d="M61.874,69.714l-1.611-0.12c-3.969-0.305-8.67,2.051-12.593,6.19
				c5.287-2.853,12.049-4.272,17.47-3.712V45.769v-1.293c-1.06-0.3-2.154-0.489-3.266-0.587V69.714z"/>
			<path style="fill:#FFFFFF;" d="M43.853,49.005c-3.638-4.194-8.093-6.804-12.021-7.089v24.671
				c3.992,0.216,8.25,2.277,12.021,5.779V49.005z"/>
			<path style="fill:#FFFFFF;" d="M46.853,49.005v23.361c3.77-3.501,8.027-5.562,12.021-5.778V41.916
				C54.944,42.2,50.491,44.811,46.853,49.005z"/>
		</g>
		<g>
			<g>
				<circle style="fill:#F8C409;" cx="45.293" cy="17.048" r="7.641"/>
			</g>
			<g>
				<path style="fill:#F8C409;" d="M72.289,34.544c-1.438-3.546-3.594-6.799-6.287-9.526c-2.698-2.724-5.936-4.916-9.478-6.403
					c-0.223-0.094-0.451-0.177-0.677-0.266c-0.303,2.468-1.45,4.675-3.147,6.325c3.209,0.898,6.31,2.372,9.167,4.48
					c2.506,1.841,4.848,4.111,6.773,6.904c0.185,0.268,1.027,1.839,1.992,3.659c0.754,1.422,2.926,0.709,2.682-0.882
					C73.066,37.224,72.734,35.665,72.289,34.544z"/>
			</g>
			<g>
				<path style="fill:#F8C409;" d="M34.74,18.348c-0.226,0.089-0.454,0.172-0.678,0.266c-3.542,1.488-6.78,3.68-9.478,6.404
					c-2.694,2.727-4.849,5.981-6.288,9.526c-0.442,1.114-0.788,2.658-1.054,4.254c-0.265,1.586,1.896,2.328,2.67,0.918
					c0.996-1.816,1.864-3.384,2.049-3.652c1.926-2.791,4.267-5.057,6.77-6.898c2.857-2.108,5.958-3.581,9.167-4.481
					C36.194,23.033,35.043,20.822,34.74,18.348z"/>
			</g>
		</g>
	</g>
</g>
</svg>
