<svg xmlns="http://www.w3.org/2000/svg" viewBox="0 0 90.709 90.709"><circle cy="45.355" cx="45.354" transform="matrix(.7071 -.7071 .7071 .7071 -18.7867 45.3541)" r="43.52" fill="#194093"/><path d="M45.354 2.835c23.483 0 42.52 19.037 42.52 42.52s-19.037 42.52-42.52 42.52-42.52-19.037-42.52-42.52 19.037-42.52 42.52-42.52m0-2C20.806.835.834 20.807.834 45.355s19.972 44.52 44.52 44.52 44.52-19.972 44.52-44.52S69.902.835 45.354.835h0z" fill="#252e78"/><g fill-rule="evenodd"><path d="M45.994 46.809a4.287 4.287 0 0 0 .117 8.572 4.287 4.287 0 0 0 4.287-4.287 4.287 4.287 0 0 0-4.287-4.285 4.287 4.287 0 0 0-.117 0zm-7.342 7.607L25.059 65.729l.094 3.75 3.625-.187L41.715 58.01l-3.062-3.594z" fill="#efac1f"/><path d="M56.139 10.527c-7.583-.04-15.519.11-21.406.15l3.559 11.543c3.906-2.164 8.645-3.089 12.57-3.1 8.456-.022 16.486 3.926 21.055 11.041a16.44 16.44 0 0 0 .316-3.197c.001-8.945-7.149-16.39-16.094-16.437zm-5.775 12.467a23.6 23.6 0 0 0-22.42 16.232l11.322 6.77c1.611-2.164 4.15-3.439 6.848-3.439a8.54 8.54 0 0 1 8.537 8.537c0 2.081-.76 4.09-2.137 5.65L68.77 74.529c1.228-.938-2.106-11.347-1.322-12.131 4.364-4.364 6.515-9.458 6.516-15.805 0-13.034-10.566-23.6-23.6-23.6zM25.164 41.105l-15.811 5.92a17.633 17.633 0 0 0 26.104 1.213l-10.293-7.133z" fill="#fff"/></g></svg>