<svg xmlns="http://www.w3.org/2000/svg" viewBox="0 0 90.709 90.709"><circle cy="45.355" cx="45.354" transform="matrix(.7071 -.7071 .7071 .7071 -18.7867 45.3541)" r="43.52" fill="#194093"/><path d="M45.354 2.835c23.483 0 42.52 19.037 42.52 42.52s-19.037 42.52-42.52 42.52-42.52-19.037-42.52-42.52 19.037-42.52 42.52-42.52m0-2C20.806.835.834 20.807.834 45.355s19.972 44.52 44.52 44.52 44.52-19.972 44.52-44.52S69.902.835 45.354.835h0z" fill="#252e78"/><g fill-rule="evenodd"><path d="M40.396 31.037l-.066.088-.045 9.131 5.262 4.213 5.061-4.053-.045-9.291-.025-.035-5.131 4.098-5.01-4.15zm-.148 17.127l-.045 9.318 5.344 4.279 5.143-4.119-.045-9.318-5.098 4.082-5.299-4.242zm-.084 17.227l-.041 8.867 5.424 4.344 5.225-4.184-.043-8.867-5.182 4.148-5.383-4.309z" fill="#fff"/><path d="M45.445 24.303l-5.049 6.734 5.01 4.15 5.131-4.098-5.092-6.787zm-5.16 15.953l-.037 7.908 5.299 4.242 5.098-4.082-.037-7.908-5.061 4.053-5.262-4.213zm-.082 17.227l-.039 7.908 5.383 4.309 5.182-4.148-.039-7.908-5.143 4.119-5.344-4.279zm-.08 16.775L40.08 83h.057l-.012.125c3.617 1.055 7.151.891 10.643 0L50.756 83h.057l-.041-8.582-5.225 4.184-5.424-4.344z" fill="#ce181e"/><path d="M39.068 16.793l-22.629 7.293 1.592 29.477 18.297 12.773-.443-35.93 11.492-13.215-8.309-.398zm27.533 4.244l-18.254 1.148 6.055 7.469-.043 39.951 12.463 3.58 6.672-13.744-2.562-16.795-3.049-1.678v-1.68l3.27-3.58-4.551-14.672z" fill="#fff"/></g></svg>