<?xml version="1.0" encoding="UTF-8" standalone="no"?>
<svg
   xmlns:dc="http://purl.org/dc/elements/1.1/"
   xmlns:cc="http://creativecommons.org/ns#"
   xmlns:rdf="http://www.w3.org/1999/02/22-rdf-syntax-ns#"
   xmlns:svg="http://www.w3.org/2000/svg"
   xmlns="http://www.w3.org/2000/svg"
   xmlns:sodipodi="http://sodipodi.sourceforge.net/DTD/sodipodi-0.dtd"
   xmlns:inkscape="http://www.inkscape.org/namespaces/inkscape"
   inkscape:version="1.0 (4035a4fb49, 2020-05-01)"
   sodipodi:docname="sprawnosci-h-Strazak.svg"
   id="svg26"
   xml:space="preserve"
   style="enable-background:new 0 0 90.709 90.709;"
   viewBox="0 0 90.709 90.709"
   y="0px"
   x="0px"
   version="1.1"><metadata
   id="metadata32"><rdf:RDF><cc:Work
       rdf:about=""><dc:format>image/svg+xml</dc:format><dc:type
         rdf:resource="http://purl.org/dc/dcmitype/StillImage" /><dc:title></dc:title></cc:Work></rdf:RDF></metadata><defs
   id="defs30"><clipPath
     id="clipPath50"
     clipPathUnits="userSpaceOnUse"><circle
       r="71.826721"
       cy="45.909863"
       cx="197.70859"
       id="circle52"
       style="fill:#f15a38;fill-rule:evenodd;stroke:none;stroke-width:19.3805;stroke-linecap:round;stop-color:#000000" /></clipPath><clipPath
     id="clipPath1011"
     clipPathUnits="userSpaceOnUse"><circle
       style="opacity:0.5;fill:#f15a38;fill-rule:evenodd;stroke:none;stroke-width:47.6107;stroke-linecap:round;stop-color:#000000"
       id="circle1013"
       cx="385.84714"
       cy="59.05611"
       r="101.44066" /></clipPath><clipPath
     id="clipPath1081"
     clipPathUnits="userSpaceOnUse"><circle
       style="opacity:0.5;fill:#f15a38;fill-rule:evenodd;stroke:none;stroke-width:102.222;stroke-linecap:round;stop-color:#000000"
       id="circle1083"
       cx="-592.00348"
       cy="126.60494"
       r="217.79622" /></clipPath><clipPath
     id="clipPath1277"
     clipPathUnits="userSpaceOnUse"><circle
       style="opacity:0.5;fill:#f15a38;fill-rule:evenodd;stroke:none;stroke-width:78.1231;stroke-linecap:round;stop-color:#000000"
       id="circle1279"
       cx="326.76178"
       cy="-601.58362"
       r="166.45103" /></clipPath><clipPath
     id="clipPath1281"
     clipPathUnits="userSpaceOnUse"><circle
       style="opacity:0.5;fill:#f15a38;fill-rule:evenodd;stroke:none;stroke-width:94.1746;stroke-linecap:round;stop-color:#000000"
       id="circle1283"
       cx="441.13412"
       cy="-232.99599"
       r="200.651" /></clipPath><clipPath
     id="clipPath1285"
     clipPathUnits="userSpaceOnUse"><circle
       style="opacity:0.5;fill:#f15a38;fill-rule:evenodd;stroke:none;stroke-width:86.4305;stroke-linecap:round;stop-color:#000000"
       id="circle1287"
       cx="-556.18292"
       cy="-359.95541"
       r="184.151" /></clipPath><clipPath
     id="clipPath1289"
     clipPathUnits="userSpaceOnUse"><circle
       style="opacity:0.5;fill:#f15a38;fill-rule:evenodd;stroke:none;stroke-width:81.5288;stroke-linecap:round;stop-color:#000000"
       id="circle1291"
       cx="-589.78162"
       cy="-999.40125"
       r="173.70735" /></clipPath><clipPath
     clipPathUnits="userSpaceOnUse"
     id="clipPath50-2"><circle
       style="fill:#f15a38;fill-rule:evenodd;stroke:none;stroke-width:19.3805;stroke-linecap:round;stop-color:#000000"
       id="circle52-3"
       cx="197.70859"
       cy="45.909863"
       r="71.826721" /></clipPath><clipPath
     clipPathUnits="userSpaceOnUse"
     id="clipPath1011-9"><circle
       r="101.44066"
       cy="59.05611"
       cx="385.84714"
       id="circle1013-4"
       style="opacity:0.5;fill:#f15a38;fill-rule:evenodd;stroke:none;stroke-width:47.6107;stroke-linecap:round;stop-color:#000000" /></clipPath><clipPath
     clipPathUnits="userSpaceOnUse"
     id="clipPath1081-3"><circle
       r="217.79622"
       cy="126.60494"
       cx="-592.00348"
       id="circle1083-5"
       style="opacity:0.5;fill:#f15a38;fill-rule:evenodd;stroke:none;stroke-width:102.222;stroke-linecap:round;stop-color:#000000" /></clipPath><clipPath
     clipPathUnits="userSpaceOnUse"
     id="clipPath1281-0"><circle
       r="200.651"
       cy="-232.99599"
       cx="441.13412"
       id="circle1283-7"
       style="opacity:0.5;fill:#f15a38;fill-rule:evenodd;stroke:none;stroke-width:94.1746;stroke-linecap:round;stop-color:#000000" /></clipPath><clipPath
     clipPathUnits="userSpaceOnUse"
     id="clipPath1277-9"><circle
       r="166.45103"
       cy="-601.58362"
       cx="326.76178"
       id="circle1279-0"
       style="opacity:0.5;fill:#f15a38;fill-rule:evenodd;stroke:none;stroke-width:78.1231;stroke-linecap:round;stop-color:#000000" /></clipPath><clipPath
     clipPathUnits="userSpaceOnUse"
     id="clipPath1285-8"><circle
       r="184.151"
       cy="-359.95541"
       cx="-556.18292"
       id="circle1287-7"
       style="opacity:0.5;fill:#f15a38;fill-rule:evenodd;stroke:none;stroke-width:86.4305;stroke-linecap:round;stop-color:#000000" /></clipPath><clipPath
     clipPathUnits="userSpaceOnUse"
     id="clipPath1289-9"><circle
       r="173.70735"
       cy="-999.40125"
       cx="-589.78162"
       id="circle1291-7"
       style="opacity:0.5;fill:#f15a38;fill-rule:evenodd;stroke:none;stroke-width:81.5288;stroke-linecap:round;stop-color:#000000" /></clipPath></defs><sodipodi:namedview
   inkscape:snap-global="false"
   inkscape:current-layer="svg26"
   inkscape:cy="95.558284"
   inkscape:cx="-9.4072752"
   inkscape:zoom="1.4142136"
   showgrid="false"
   id="namedview28"
   inkscape:window-height="480"
   inkscape:window-width="640"
   inkscape:pageshadow="2"
   inkscape:pageopacity="0"
   guidetolerance="10"
   gridtolerance="10"
   objecttolerance="10"
   borderopacity="1"
   bordercolor="#666666"
   pagecolor="#ffffff" />
<g
   id="ratownik-1">
	<g
   id="g10">
		<g
   id="g8">
			
				<ellipse
   id="ellipse2"
   ry="43.52"
   rx="43.52"
   cy="45.355"
   cx="45.354"
   style="fill:#194093;"
   transform="matrix(0.7071 -0.7071 0.7071 0.7071 -18.7867 45.3541)" />
			<g
   id="g6">
				<path
   id="path4"
   d="M45.354,2.835c23.483,0,42.52,19.037,42.52,42.52c0,23.483-19.037,42.52-42.52,42.52      c-23.483,0-42.52-19.037-42.52-42.52C2.835,21.871,21.871,2.835,45.354,2.835 M45.354,0.835c-24.548,0-44.52,19.972-44.52,44.52      s19.972,44.52,44.52,44.52s44.52-19.972,44.52-44.52S69.902,0.835,45.354,0.835L45.354,0.835z"
   style="fill:#252E78;" />
			</g>
		</g>
	</g>
</g>

<path
   d="M 45.994141 46.808594 A 4.2868347 4.2868347 0 0 0 41.824219 51.09375 A 4.2868347 4.2868347 0 0 0 46.111328 55.380859 A 4.2868347 4.2868347 0 0 0 50.398438 51.09375 A 4.2868347 4.2868347 0 0 0 46.111328 46.808594 A 4.2868347 4.2868347 0 0 0 45.994141 46.808594 z M 38.652344 54.416016 L 25.058594 65.728516 L 25.152344 69.478516 L 28.777344 69.291016 L 41.714844 58.009766 L 38.652344 54.416016 z "
   style="fill:#efac1f;fill-opacity:1;fill-rule:evenodd;stroke:none;stroke-width:1.22526;stroke-linecap:round;stroke-linejoin:round;stroke-miterlimit:4;stroke-dasharray:none;stop-color:#000000"
   id="path1640" /><path
   d="M 56.138672 10.527344 C 48.555553 10.487014 40.620097 10.636985 34.732422 10.677734 L 38.291016 22.220703 C 42.196552 20.056925 46.936234 19.131294 50.861328 19.121094 C 59.316868 19.099124 67.347589 23.046907 71.916016 30.162109 C 72.125621 29.10924 72.231595 28.038374 72.232422 26.964844 C 72.232922 18.019823 65.083566 10.574917 56.138672 10.527344 z M 50.363281 22.994141 C 40.16827 22.994182 31.125896 29.541022 27.943359 39.226562 L 39.265625 45.996094 C 40.876489 43.832023 43.415487 42.55673 46.113281 42.556641 C 50.828259 42.556489 54.650543 46.378772 54.650391 51.09375 C 54.650625 53.174686 53.890775 55.184051 52.513672 56.744141 L 68.769531 74.529297 C 69.997364 73.591676 66.663733 63.182025 67.447266 62.398438 C 71.811392 58.034009 73.962698 52.940265 73.962891 46.59375 C 73.963043 33.559983 63.397048 22.99399 50.363281 22.994141 z M 25.164062 41.105469 L 9.3535156 47.025391 A 17.633474 17.633474 0 0 0 22.955078 53.435547 A 17.633474 17.633474 0 0 0 35.457031 48.238281 L 25.164062 41.105469 z "
   style="fill:#ffffff;fill-opacity:1;fill-rule:evenodd;stroke:none;stroke-width:6.74514;stroke-linecap:round;stroke-linejoin:round;stroke-miterlimit:4;stroke-dasharray:none;stop-color:#000000"
   id="circle1648" /></svg>
