<?xml version="1.0" encoding="iso-8859-1"?>
<!-- Generator: Adobe Illustrator 22.1.0, SVG Export Plug-In . SVG Version: 6.00 Build 0)  -->
<svg version="1.1" xmlns="http://www.w3.org/2000/svg" xmlns:xlink="http://www.w3.org/1999/xlink" x="0px" y="0px"
	 viewBox="0 0 90.709 90.709" style="enable-background:new 0 0 90.709 90.709;" xml:space="preserve">
<g id="ratownik-1">
	<g>
		<g>
			
				<ellipse transform="matrix(0.9239 -0.3827 0.3827 0.9239 -13.9041 20.8088)" style="fill:#194093;" cx="45.354" cy="45.355" rx="43.52" ry="43.52"/>
			<g>
				<path style="fill:#252E78;" d="M45.354,2.835c23.483,0,42.52,19.037,42.52,42.52s-19.037,42.52-42.52,42.52
					s-42.52-19.037-42.52-42.52S21.871,2.835,45.354,2.835 M45.354,0.835c-24.548,0-44.52,19.971-44.52,44.52
					s19.971,44.52,44.52,44.52s44.52-19.971,44.52-44.52S69.903,0.835,45.354,0.835L45.354,0.835z"/>
			</g>
		</g>
	</g>
</g>
<g id="Warstwa_4">
	<g>
		<g>
			<path style="fill:#F8C409;" d="M45.354,52.441c-3.907,0-7.087-3.179-7.087-7.086s3.179-7.087,7.087-7.087
				c3.908,0,7.087,3.18,7.087,7.087S49.262,52.441,45.354,52.441z"/>
		</g>
		<g>
			<path style="fill:#FFFFFF;" d="M17.683,48.894h5.291v-1.539h12.494c-0.131-0.647-0.201-1.316-0.201-2c0-0.685,0.07-1.353,0.201-2
				H22.974v-1.54h-5.291c0,0-0.236,2.515-3.337,1.418c-1.889-0.669-2.76-1.3-4.135-1.3c-1.89,0-3.422,1.532-3.422,3.422
				c0,1.89,1.532,3.422,3.422,3.422c1.375,0,2.246-0.631,4.136-1.3C17.447,46.379,17.683,48.894,17.683,48.894z"/>
			<path style="fill:#FFFFFF;" d="M43.354,35.468c0.647-0.131,1.315-0.201,2-0.201c0.684,0,1.353,0.07,1.999,0.201V22.974h1.54
				v-5.291c0,0-2.515-0.236-1.418-3.337c0.669-1.889,1.3-2.76,1.3-4.135c0-1.89-1.532-3.422-3.422-3.422
				c-1.89,0-3.422,1.532-3.422,3.422c0,1.375,0.631,2.246,1.3,4.135c1.097,3.101-1.418,3.337-1.418,3.337v5.291h1.539V35.468z"/>
			<path style="fill:#FFFFFF;" d="M50.926,36.954c1.12,0.745,2.083,1.708,2.828,2.828l8.839-8.839l1.089,1.089l3.741-3.741
				c0,0-1.612-1.945,1.357-3.362c1.809-0.863,2.871-1.032,3.843-2.005c1.336-1.336,1.336-3.503,0-4.839s-3.503-1.336-4.839,0
				c-0.973,0.973-1.142,2.035-2.005,3.843c-1.417,2.969-3.362,1.357-3.362,1.357l-3.741,3.741l1.089,1.089L50.926,36.954z"/>
			<path style="fill:#FFFFFF;" d="M21.928,24.929c2.969,1.417,1.357,3.362,1.357,3.362l3.742,3.741l1.089-1.089l8.839,8.839
				c0.746-1.12,1.708-2.083,2.828-2.828l-8.839-8.839l1.089-1.089l-3.741-3.741c0,0-1.945,1.612-3.362-1.357
				c-0.863-1.809-1.032-2.871-2.005-3.843c-1.336-1.336-3.503-1.336-4.839,0c-1.336,1.336-1.336,3.503,0,4.839
				C19.057,23.896,20.119,24.066,21.928,24.929z"/>
			<path style="fill:#FFFFFF;" d="M80.498,41.933c-1.375,0-2.246,0.631-4.136,1.3c-3.101,1.097-3.337-1.418-3.337-1.418h-5.291v1.54
				H55.24c0.131,0.647,0.201,1.315,0.201,2c0,0.685-0.07,1.354-0.201,2h12.494v1.539h5.291c0,0,0.236-2.515,3.337-1.418
				c1.889,0.669,2.76,1.3,4.135,1.3c1.89,0,3.422-1.532,3.422-3.422C83.919,43.465,82.387,41.933,80.498,41.933z"/>
			<path style="fill:#FFFFFF;" d="M68.78,65.78c-2.969-1.417-1.357-3.362-1.357-3.362l-3.741-3.741l-1.089,1.089l-8.839-8.839
				c-0.746,1.12-1.708,2.083-2.828,2.828l8.839,8.839l-1.089,1.089l3.741,3.741c0,0,1.945-1.612,3.362,1.357
				c0.863,1.809,1.032,2.871,2.005,3.843c1.336,1.336,3.503,1.336,4.839,0s1.336-3.503,0-4.839
				C71.651,66.812,70.589,66.643,68.78,65.78z"/>
			<path style="fill:#FFFFFF;" d="M39.782,53.755c-1.12-0.745-2.083-1.708-2.828-2.828l-8.839,8.839l-1.089-1.089l-3.742,3.741
				c0,0,1.612,1.945-1.357,3.362c-1.809,0.863-2.871,1.032-3.843,2.005c-1.336,1.336-1.336,3.503,0,4.839
				c1.336,1.336,3.503,1.336,4.839,0c0.973-0.973,1.142-2.035,2.005-3.843c1.417-2.969,3.362-1.357,3.362-1.357l3.741-3.741
				l-1.089-1.089L39.782,53.755z"/>
			<path style="fill:#FFFFFF;" d="M47.354,55.24c-0.647,0.131-1.315,0.201-1.999,0.201c-0.685,0-1.353-0.07-2-0.201v12.494h-1.539
				v5.291c0,0,2.515,0.236,1.418,3.337c-0.669,1.889-1.3,2.76-1.3,4.135c0,1.89,1.532,3.422,3.422,3.422
				c1.89,0,3.422-1.532,3.422-3.422c0-1.375-0.631-2.246-1.3-4.135c-1.097-3.101,1.418-3.337,1.418-3.337v-5.291h-1.54V55.24z"/>
		</g>
		<g>
			<g>
				<path style="fill:#F8C409;" d="M45.354,26.677c10.299,0,18.677,8.379,18.677,18.677c0,10.299-8.379,18.677-18.677,18.677
					s-18.677-8.379-18.677-18.677C26.677,35.056,35.056,26.677,45.354,26.677 M45.354,22.677c-12.524,0-22.677,10.153-22.677,22.677
					c0,12.524,10.153,22.677,22.677,22.677s22.677-10.153,22.677-22.677C68.031,32.83,57.879,22.677,45.354,22.677L45.354,22.677z"
					/>
			</g>
		</g>
	</g>
</g>
</svg>
