<?xml version="1.0" encoding="utf-8"?>
<!-- Generator: Adobe Illustrator 24.2.0, SVG Export Plug-In . SVG Version: 6.00 Build 0)  -->
<svg version="1.1" id="Warstwa_2" xmlns="http://www.w3.org/2000/svg" x="0px" y="0px"
	 viewBox="0 0 87.87 87.87" style="enable-background:new 0 0 87.87 87.87;" xml:space="preserve">
<g>
	<g>
		<g>
			<path d="M39.71,77.15l-1.15,8.94c1.8,0.23,3.63,0.35,5.45,0.35c1.88,0,3.77-0.13,5.62-0.37l-1.18-8.94
				C45.58,77.52,42.59,77.52,39.71,77.15z"/>
			<path d="M69.93,10.21c-2.94-2.27-6.18-4.14-9.6-5.56l-3.46,8.33c2.7,1.12,5.24,2.59,7.56,4.38L69.93,10.21z"/>
			<path d="M4.78,60.32c1.43,3.42,3.3,6.64,5.58,9.58l7.13-5.51c-1.79-2.32-3.27-4.86-4.39-7.55L4.78,60.32z"/>
			<path d="M18.22,77.72c2.95,2.26,6.19,4.12,9.62,5.53l3.43-8.34c-2.7-1.11-5.25-2.58-7.57-4.36L18.22,77.72z"/>
			<path d="M56.89,74.86l3.47,8.32c3.42-1.42,6.65-3.3,9.59-5.57l-5.5-7.14C62.12,72.27,59.58,73.74,56.89,74.86z"/>
			<path d="M86.18,38.37l-8.94,1.17c0.19,1.44,0.28,2.92,0.28,4.39c0,1.46-0.1,2.92-0.28,4.36l8.94,1.16
				c0.24-1.82,0.36-3.68,0.36-5.52C86.54,42.07,86.42,40.2,86.18,38.37z"/>
			<path d="M70.62,64.29l7.15,5.49c2.26-2.95,4.13-6.18,5.55-9.61l-8.33-3.45C73.87,59.42,72.4,61.97,70.62,64.29z"/>
			<path d="M83.31,27.65c-1.42-3.42-3.29-6.65-5.55-9.6l-7.15,5.49c1.78,2.32,3.26,4.87,4.38,7.56L83.31,27.65z"/>
			<path d="M10.51,43.92c0-18.47,15.03-33.5,33.5-33.5c1.48,0,2.96,0.1,4.41,0.29l1.17-8.94c-1.84-0.24-3.72-0.36-5.59-0.36
				C20.57,1.4,1.5,20.48,1.5,43.92c0,1.87,0.12,3.75,0.36,5.59l8.94-1.18C10.61,46.88,10.51,45.4,10.51,43.92z"/>
		</g>
	</g>
	<g>
		<g>
			<path d="M64.24,53.81c0,0.13,0,0.25,0,0.38c-0.01,0.03-0.03,0.06-0.03,0.08c-0.14,1.21-1.61,2.1-2.92,1.28
				c-0.78-0.49-1.59-0.92-2.39-1.38c-0.08-0.05-0.17-0.1-0.29-0.16c0,0.13,0,0.21,0,0.3c0,0.77,0,1.53,0,2.3
				c0,0.51-0.16,0.97-0.52,1.34c-0.52,0.54-1.33,0.72-2.03,0.45c-0.71-0.28-1.19-0.94-1.19-1.7c-0.01-1.55-0.01-3.09,0-4.64
				c0-0.16-0.05-0.25-0.19-0.33c-2.49-1.43-4.98-2.87-7.46-4.31c-0.08-0.04-0.16-0.08-0.25-0.13c-0.01,0.07-0.01,0.1-0.01,0.13
				c0,2.9,0,5.8,0.01,8.69c0,0.08,0.07,0.19,0.14,0.23c0.29,0.19,0.59,0.35,0.89,0.52c1.06,0.61,2.12,1.22,3.18,1.84
				c0.76,0.44,1.13,1.22,0.97,2.01c-0.25,1.25-1.59,1.89-2.72,1.29c-0.56-0.3-1.1-0.63-1.65-0.94c-0.26-0.15-0.52-0.3-0.82-0.46
				c0,0.13,0,0.21,0,0.3c0,1,0,2,0,3c0,0.86-0.59,1.61-1.42,1.82c-0.06,0.01-0.11,0.04-0.17,0.05c-0.19,0-0.38,0-0.56,0
				c-0.01-0.01-0.02-0.03-0.03-0.03c-1.08-0.31-1.56-0.93-1.56-2.06c0-0.93,0-1.86,0-2.79c0-0.08,0-0.16,0-0.28
				c-0.11,0.06-0.19,0.1-0.26,0.14c-0.7,0.41-1.4,0.82-2.11,1.22c-0.66,0.37-1.33,0.38-1.97-0.03c-1.2-0.75-1.15-2.48,0.1-3.21
				c1.35-0.79,2.7-1.57,4.05-2.34c0.14-0.08,0.2-0.16,0.2-0.33c-0.01-2.89,0-5.78,0-8.67c0-0.07-0.01-0.14-0.02-0.24
				c-0.11,0.06-0.18,0.1-0.26,0.14c-2.47,1.42-4.93,2.85-7.4,4.27c-0.17,0.1-0.23,0.2-0.23,0.4c0.01,1.51,0.02,3.01,0,4.52
				c0,0.33-0.07,0.69-0.21,0.99c-0.36,0.78-1.24,1.18-2.05,1c-0.88-0.2-1.47-0.92-1.47-1.81c-0.01-0.84,0-1.69,0-2.53
				c0-0.07-0.01-0.15-0.01-0.25c-0.12,0.07-0.22,0.12-0.31,0.17c-0.88,0.51-1.75,1.03-2.64,1.51c-1.1,0.6-2.41,0.02-2.73-1.19
				c-0.02-0.08-0.04-0.16-0.07-0.24c0-0.13,0-0.25,0-0.38c0.13-0.84,0.67-1.33,1.38-1.7c0.76-0.4,1.49-0.85,2.23-1.28
				c0.08-0.04,0.15-0.09,0.25-0.16c-0.13-0.08-0.21-0.13-0.3-0.18c-0.73-0.42-1.47-0.82-2.18-1.28c-1.13-0.71-1.14-2.34-0.04-3.09
				c0.65-0.45,1.35-0.45,2.03-0.06c1.36,0.78,2.72,1.56,4.08,2.35c0.12,0.07,0.21,0.08,0.34,0.01c2.16-1.26,4.32-2.5,6.49-3.75
				c0.37-0.21,0.74-0.43,1.14-0.66c-0.12-0.07-0.2-0.12-0.29-0.17c-2.4-1.38-4.81-2.76-7.2-4.16c-0.32-0.19-0.56-0.23-0.85,0.01
				c-0.12,0.1-0.28,0.17-0.42,0.25c-1.11,0.64-2.21,1.29-3.33,1.92c-0.91,0.51-2.05,0.19-2.55-0.69c-0.51-0.9-0.22-2,0.68-2.55
				c0.26-0.16,0.53-0.31,0.79-0.46c0.49-0.28,0.98-0.57,1.51-0.87c-0.1-0.06-0.17-0.11-0.25-0.15c-0.86-0.5-1.73-0.98-2.57-1.5
				c-1.11-0.68-1.16-2.3-0.1-3.06c0.67-0.48,1.38-0.5,2.09-0.1c0.86,0.48,1.71,0.98,2.56,1.47c0.08,0.04,0.16,0.08,0.27,0.14
				c0-0.14,0-0.23,0-0.32c0-0.88,0-1.77,0.01-2.65c0.01-0.9,0.71-1.68,1.59-1.78c1.19-0.14,2.13,0.7,2.14,1.92
				c0.01,1.59,0.01,3.19,0,4.78c0,0.16,0.04,0.25,0.18,0.33c2.48,1.42,4.95,2.85,7.43,4.28c0.08,0.05,0.17,0.09,0.28,0.15
				c0.01-0.1,0.01-0.16,0.01-0.22c0-2.95,0-5.89,0-8.84c0-0.16-0.07-0.23-0.19-0.31c-1.35-0.77-2.69-1.55-4.04-2.33
				c-0.93-0.54-1.25-1.64-0.75-2.54c0.51-0.92,1.62-1.23,2.57-0.71c0.47,0.26,0.92,0.53,1.38,0.79c0.33,0.19,0.66,0.38,1.03,0.59
				c0-0.16,0-0.27,0-0.39c0-0.92-0.01-1.84,0-2.77c0.01-0.82,0.36-1.44,1.12-1.8c0.16-0.08,0.34-0.11,0.51-0.17
				c0.17,0,0.34,0,0.52,0c0.01,0.01,0.02,0.03,0.03,0.03c1.05,0.26,1.56,0.92,1.56,2c0,0.94,0,1.87,0,2.81c0,0.08,0,0.16,0,0.28
				c0.12-0.07,0.2-0.11,0.27-0.15c0.72-0.41,1.43-0.84,2.15-1.24c0.91-0.51,2.01-0.22,2.53,0.66c0.54,0.91,0.24,2.05-0.7,2.6
				c-1.36,0.79-2.72,1.57-4.08,2.35c-0.13,0.08-0.18,0.16-0.18,0.31c0,2.9,0,5.8,0,8.69c0,0.06,0.01,0.13,0.02,0.22
				c0.1-0.06,0.18-0.1,0.25-0.14c2.47-1.42,4.93-2.85,7.41-4.27c0.18-0.1,0.24-0.21,0.24-0.42c-0.01-1.56-0.01-3.12,0-4.69
				c0.01-1.23,1.18-2.1,2.37-1.78c0.83,0.22,1.36,0.95,1.37,1.88c0.01,0.8,0,1.61,0,2.41c0,0.08,0,0.16,0,0.28
				c0.11-0.06,0.18-0.09,0.24-0.13c0.8-0.46,1.61-0.93,2.41-1.4c0.44-0.26,0.9-0.36,1.39-0.26c0.79,0.16,1.35,0.75,1.48,1.53
				c0.13,0.73-0.22,1.49-0.89,1.9c-0.62,0.38-1.26,0.73-1.88,1.09c-0.28,0.16-0.56,0.33-0.87,0.51c0.1,0.06,0.16,0.11,0.22,0.14
				c0.71,0.41,1.42,0.82,2.13,1.23c0.4,0.23,0.7,0.55,0.86,0.99c0.27,0.73,0.06,1.56-0.51,2.05c-0.64,0.55-1.48,0.62-2.22,0.2
				c-1.35-0.77-2.69-1.55-4.04-2.33c-0.12-0.07-0.21-0.12-0.36-0.03c-2.31,1.35-4.63,2.68-6.95,4.02c-0.29,0.17-0.59,0.34-0.92,0.53
				c0.11,0.07,0.19,0.11,0.27,0.16c2.44,1.41,4.88,2.81,7.32,4.23c0.24,0.14,0.4,0.15,0.65,0c1.32-0.78,2.66-1.54,3.99-2.31
				c0.65-0.37,1.3-0.41,1.96-0.04c1.21,0.69,1.25,2.44,0.07,3.18c-0.76,0.48-1.55,0.91-2.33,1.36c-0.08,0.05-0.15,0.09-0.26,0.16
				c0.11,0.06,0.18,0.11,0.25,0.15c0.88,0.51,1.76,1.02,2.64,1.52c0.46,0.27,0.76,0.66,0.9,1.18
				C64.19,53.63,64.21,53.72,64.24,53.81z"/>
		</g>
	</g>
</g>
</svg>
