<?xml version="1.0" encoding="utf-8"?>
<!-- Generator: Adobe Illustrator 24.2.0, SVG Export Plug-In . SVG Version: 6.00 Build 0)  -->
<svg version="1.1" id="Warstwa_3" xmlns="http://www.w3.org/2000/svg" x="0px" y="0px"
	 viewBox="0 0 87.87 87.87" style="enable-background:new 0 0 87.87 87.87;" xml:space="preserve">
<g>
	<g>
		<g>
			<g>
				<g>
					<path d="M4.74,60.23c1.42,3.42,3.29,6.64,5.55,9.59l7.15-5.5c-1.78-2.32-3.26-4.86-4.38-7.55L4.74,60.23z"/>
					<path d="M18.13,77.65c2.94,2.26,6.17,4.13,9.59,5.55l3.46-8.33c-2.69-1.12-5.23-2.59-7.55-4.37L18.13,77.65z"/>
					<path d="M44.01,1.41C20.57,1.41,1.5,20.48,1.5,43.92c0,1.87,0.12,3.75,0.36,5.58l8.94-1.18c-0.19-1.45-0.29-2.93-0.29-4.41
						c0-18.47,15.03-33.5,33.5-33.5c18.48,0,33.51,15.03,33.51,33.5c0,18.47-15.03,33.5-33.51,33.5c-1.47,0-2.96-0.1-4.41-0.29
						l-1.17,8.94c1.84,0.24,3.72,0.36,5.58,0.36c23.45,0,42.52-19.07,42.52-42.51C86.54,20.48,67.46,1.41,44.01,1.41z"/>
				</g>
			</g>
		</g>
	</g>
	<g>
		<g>
			<path d="M52.5,56.18c-2.28,0-4.48-0.91-6.06-2.6l-2.17-2.32l-2.16,2.32c-2.22,2.38-5.7,3.21-8.85,2.13l-6.99-2.4
				c-2.59-0.89-4.33-3.25-4.33-5.87V34.89l1.55-0.64c7.44-3.04,17.56-3.6,20.48-3.7l0.58,0c2.83,0.06,12.66,0.49,20.51,3.7
				l1.55,0.64v12.56c0,2.62-1.74,4.98-4.33,5.87l-6.99,2.4C54.38,56.03,53.43,56.18,52.5,56.18z M44.28,46.02
				c1.24,0,2.44,0.52,3.28,1.42l2.54,2.73c0.86,0.92,2.29,1.25,3.57,0.81l6.99-2.4c0.57-0.2,0.96-0.65,0.96-1.14v-9.15
				c-6.75-2.34-14.69-2.69-17.14-2.74h-0.43c-1.71,0.06-10.41,0.46-17.12,2.75v9.15c0,0.48,0.38,0.94,0.96,1.14l6.99,2.4
				c1.28,0.44,2.71,0.11,3.57-0.81L41,47.44C41.84,46.54,43.04,46.02,44.28,46.02L44.28,46.02z"/>
		</g>
		<g>
			<path d="M68.16,34.91v10.38c2.41-0.49,4.23-2.63,4.23-5.19C72.4,37.54,70.58,35.4,68.16,34.91z"/>
		</g>
		<g>
			<path d="M20.4,45.29V34.91c-2.41,0.49-4.23,2.63-4.23,5.19C16.16,42.66,17.98,44.79,20.4,45.29z"/>
		</g>
	</g>
</g>
</svg>
