<?xml version="1.0" encoding="utf-8"?>
<!-- Generator: Adobe Illustrator 24.2.0, SVG Export Plug-In . SVG Version: 6.00 Build 0)  -->
<svg version="1.1" id="Warstwa_2" xmlns="http://www.w3.org/2000/svg" x="0px" y="0px"
	 viewBox="0 0 87.87 87.87" style="enable-background:new 0 0 87.87 87.87;" xml:space="preserve">
<g>
	<g>
		<path d="M44.02,1.4C20.57,1.4,1.5,20.47,1.5,43.92c0,23.44,19.07,42.52,42.52,42.52c23.45,0,42.52-19.07,42.52-42.52
			C86.54,20.47,67.46,1.4,44.02,1.4z M44.02,77.42c-18.47,0-33.5-15.03-33.5-33.5c0-18.47,15.03-33.5,33.5-33.5
			c18.47,0,33.5,15.03,33.5,33.5C77.52,62.39,62.49,77.42,44.02,77.42z"/>
	</g>
	<g>
		<path d="M51.19,30.32c2.37,0.03,4.31-1.87,4.32-4.24c0.01-2.36-1.93-4.29-4.29-4.27c-2.32,0.02-4.21,1.92-4.22,4.24
			C46.98,28.38,48.87,30.29,51.19,30.32z"/>
		<path d="M64.86,61.95c-0.31-1.1-1.47-1.75-2.58-1.43l-3.91,1.12c-0.9,0.26-1.87,0.23-2.72-0.07l-14.5-5.55l5.86-8.47
			c0.65-0.93,0.6-2.13-0.01-3.01l0.01,0c-0.33-0.6-1.5-1.52-2.06-1.78c-1.52-0.71-2.98-1.56-4.34-2.28c0.24-0.24,0.47-0.48,0.7-0.72
			l9.62-0.06l0-0.01h4.5c0.88,0,1.59-0.71,1.59-1.59c0-0.88-0.71-1.59-1.59-1.59h-4.32l-4.06-6.33c-0.03-0.04-0.06-0.08-0.09-0.12
			c0,0,0,0,0,0c-1.43-2.19-3.81-2.44-5.64-0.61c-2.71,2.7-5.41,5.41-8.11,8.12c-0.08,0.08-0.12,0.16-0.19,0.23l-11.05,0.07v-1.46
			h-1.8v1.47l-2.41,0.01l0.01,2l2.4-0.01v1.31h1.8v-1.32l10-0.06c-0.24,1.39,0.47,2.75,2.11,3.66c2.24,1.26,4.49,2.51,6.75,3.74
			l-4.75,6.86l-13.61-5.21c-1.08-0.41-2.28,0.13-2.69,1.2c-0.41,1.07,0.13,2.28,1.2,2.69l33.23,12.72c0.94,0.33,1.92,0.5,2.9,0.5
			c0.81,0,1.61-0.11,2.4-0.34l3.91-1.12c0.54-0.15,0.98-0.5,1.25-0.99S65.01,62.48,64.86,61.95z M45.94,35.01
			c0.1,0.16,0.2,0.32,0.3,0.48c0,0,0-0.01,0.01-0.01l1.44,2.25l-4.41,0.03C44.16,36.84,45.04,35.94,45.94,35.01z"/>
	</g>
</g>
</svg>
