<?xml version="1.0" encoding="utf-8"?>
<!-- Generator: Adobe Illustrator 24.2.0, SVG Export Plug-In . SVG Version: 6.00 Build 0)  -->
<svg version="1.1" id="Warstwa_2" xmlns="http://www.w3.org/2000/svg" x="0px" y="0px"
	 viewBox="0 0 87.87 87.87" style="enable-background:new 0 0 87.87 87.87;" xml:space="preserve">
<g>
	<path d="M44.02,1.4C20.57,1.4,1.5,20.48,1.5,43.92c0,23.44,19.07,42.52,42.52,42.52c23.45,0,42.52-19.07,42.52-42.52
		C86.54,20.48,67.46,1.4,44.02,1.4z M44.02,77.42c-18.47,0-33.5-15.03-33.5-33.5c0-18.47,15.03-33.5,33.5-33.5
		c18.47,0,33.5,15.03,33.5,33.5C77.52,62.39,62.49,77.42,44.02,77.42z"/>
</g>
<g>
	<path d="M46.74,29.6c2.34,0.03,4.24-1.84,4.25-4.18c0.01-2.33-1.9-4.23-4.23-4.21c-2.29,0.02-4.15,1.9-4.16,4.18
		C42.6,27.69,44.46,29.57,46.74,29.6z"/>
	<path d="M68.11,52.8c-1.04-1.72-2.9-2.6-4.9-2.22c-2.63,0.5-3.98,0.82-6.59,1.4c-0.61,0.13-1.22,0.25-1.82,0.38l-1.72-8.72
		c-0.16-0.83-0.82-1.48-1.65-1.65l-8.13-1.61l2.88-4.99l11.45,3.55c0.2,0.06,0.4,0.09,0.59,0.09c0.85,0,1.64-0.55,1.91-1.41
		c0.33-1.05-0.26-2.18-1.32-2.5l-29.55-9.15c-1.06-0.33-2.18,0.26-2.5,1.32c-0.33,1.05,0.26,2.18,1.32,2.5l9.63,2.98l-3.42,5.92
		c-0.68,1.18-0.62,2.56,0,3.66c0.06,0.14,0.15,0.27,0.24,0.4c0.03,0.04,0.07,0.07,0.1,0.11c0.05,0.06,0.1,0.12,0.16,0.17l0.02,0.02
		c0.13,0.14,0.28,0.27,0.43,0.39l5.65,5.1l0.1,5.83c0,0.12,0.02,0.23,0.04,0.34c-0.88,0.11-1.77,0.24-2.65,0.34
		c-3.17,0.36-6.33,0.76-9.5,1.16c-1.62,0.21-2.82,1.07-3.59,2.52c-1.35,2.54-0.27,5.51,2.22,6.7c0.91,0.43,1.88,0.52,2.86,0.33
		c2.4-0.48,4.81-0.93,7.2-1.47c6.21-1.4,12.46-2.5,18.78-3.21c3.22-0.36,5.17-0.56,8.38-0.97c1.31-0.17,2.33-0.84,2.81-1.49
		C69.02,56.58,69.12,54.47,68.11,52.8z M45.06,47.56c-0.01-0.58-0.26-1.13-0.69-1.52l-1.66-1.5l6.52,1.29l1.45,7.35
		c-1.83,0.35-3.66,0.66-5.5,0.95L45.06,47.56z"/>
</g>
</svg>
