<?xml version="1.0" encoding="iso-8859-1"?>
<!-- Generator: Adobe Illustrator 22.1.0, SVG Export Plug-In . SVG Version: 6.00 Build 0)  -->
<svg version="1.1" xmlns="http://www.w3.org/2000/svg" xmlns:xlink="http://www.w3.org/1999/xlink" x="0px" y="0px"
	 viewBox="0 0 90.709 90.709" style="enable-background:new 0 0 90.709 90.709;" xml:space="preserve">
<g id="ratownik-1">
	<g>
		<g>
			<circle style="fill:#194093;" cx="45.354" cy="45.355" r="43.52"/>
			<g>
				<path style="fill:#252E78;" d="M45.354,2.835c23.483,0,42.52,19.037,42.52,42.52s-19.037,42.52-42.52,42.52
					s-42.52-19.037-42.52-42.52S21.871,2.835,45.354,2.835 M45.354,0.835c-24.548,0-44.52,19.971-44.52,44.52
					s19.971,44.52,44.52,44.52s44.52-19.971,44.52-44.52S69.903,0.835,45.354,0.835L45.354,0.835z"/>
			</g>
		</g>
	</g>
</g>
<g id="Warstwa_4">
	<g>
		<path style="fill:none;" d="M51.769,54.495c0,0,2.923,2.831,3.039,3.021c-0.116-0.19-0.25-0.371-0.418-0.53L51.769,54.495z"/>
		<path style="fill:#F8C409;" d="M33.427,67.516c1.057-1.12,2.625-1.359,3.623-0.61c-1.069-1.141-1.017-3.004,0.158-4.25
			c1.086-1.15,2.75-1.369,3.94-0.603c-1.244-1.25-1.305-3.25-0.11-4.515c1.217-1.29,3.265-1.324,4.576-0.08l0.48,0.457
			c-0.965-1.11-0.866-2.895,0.287-4.116c0.234-0.248,0.5-0.441,0.775-0.605c-0.841-1.015-1.356-2.507-0.881-4.716l-1.557-1.064
			l-4.258,1.083c-5.334,6.183-10.883,12.628-14.48,16.808c-2.413,2.803-3.949,4.589-3.949,4.589l6.804,7.046
			c0,0,2.109-1.829,5.33-4.626l-0.998-0.949C32.184,70.433,32.3,68.711,33.427,67.516z"/>
		<path style="fill:#FFFFFF;" d="M58.674,22.24l17.739,17.484c3.947-4.948,3.601-12.177-1.007-16.719
			C70.798,18.464,63.564,18.222,58.674,22.24z"/>
		<path style="fill:#FFFFFF;" d="M55.762,25.67c-0.96,1.663-1.498,3.499-1.63,5.358l13.378,13.377
			c1.919-0.136,3.812-0.705,5.515-1.721L55.762,25.67z"/>
		<path style="fill:#F8C409;" d="M53.17,30.067l-9.229,9.229c0.078,0.003,0.153,0.007,0.217,0.012l7.833,5.14l0.052,8.811
			c0,0-0.067,0.671-0.273,1.236l3.89,3.872l12.905-12.905l-1.056-1.056L54.131,31.028L53.17,30.067z"/>
		<path style="fill:#FFFFFF;" d="M51.769,54.495c0.206-0.565,0.273-1.236,0.273-1.236l-0.052-8.811l-7.833-5.14
			c-0.064-0.005-0.138-0.009-0.217-0.012c-1.595-0.063-18.857,1.289-18.857,1.289L11.257,27.978
			c-2.633,5.165-4.015,10.801-4.149,16.463l10.498,8.861l3.192,7.743l5.182,4.258c3.598-4.18,9.147-10.624,14.48-16.808l4.258-1.083
			l1.557,1.064c-0.474,2.209,0.04,3.701,0.881,4.716c-0.276,0.164-0.541,0.357-0.775,0.605c-1.152,1.221-1.252,3.006-0.287,4.116
			l-0.48-0.457c-1.311-1.244-3.359-1.21-4.576,0.08c-1.194,1.265-1.134,3.265,0.11,4.515c-1.19-0.766-2.854-0.546-3.94,0.603
			c-1.175,1.246-1.227,3.109-0.158,4.25c-0.999-0.75-2.566-0.511-3.623,0.61c-1.127,1.195-1.243,2.917-0.26,3.848l0.998,0.949
			l2.212,2.104c0.982,0.932,2.693,0.723,3.819-0.47c1.009-1.071,0.834-3.236,0.834-3.236c1.186,1.126,3.131,0.996,4.349-0.293
			c1.119-1.184,1.215-2.93,0.301-4.081c1.31,1.08,3.225,1.005,4.384-0.225c1.17-1.238,1.132-3.174-0.033-4.427
			c1.149,1.042,3.028,0.873,4.228-0.399c1.04-1.1,1.227-2.66,0.548-3.77C54.692,57.326,51.769,54.495,51.769,54.495z"/>
	</g>
</g>
</svg>
