<svg xmlns="http://www.w3.org/2000/svg" viewBox="0 0 90.709 90.709"><circle cx="45.354" cy="45.355" r="43.52" fill="#194093"/><path d="M45.354 2.835c23.483 0 42.52 19.037 42.52 42.52s-19.037 42.52-42.52 42.52-42.52-19.037-42.52-42.52 19.037-42.52 42.52-42.52m0-2C20.806.835.834 20.806.834 45.355s19.971 44.52 44.52 44.52 44.52-19.971 44.52-44.52S69.903.835 45.354.835h0z" fill="#252e78"/><path d="M33.427 67.516c1.057-1.12 2.625-1.359 3.623-.61-1.069-1.141-1.017-3.004.158-4.25 1.086-1.15 2.75-1.369 3.94-.603-1.244-1.25-1.305-3.25-.11-4.515 1.217-1.29 3.265-1.324 4.576-.08l.48.457c-.965-1.11-.866-2.895.287-4.116a3.54 3.54 0 0 1 .775-.605c-.841-1.015-1.356-2.507-.881-4.716l-1.557-1.064-4.258 1.083-14.48 16.808-3.949 4.589 6.804 7.046 5.33-4.626-.998-.949c-.983-.932-.867-2.654.26-3.849z" fill="#f8c409"/><path d="M58.674 22.24l17.739 17.484c3.947-4.948 3.601-12.177-1.007-16.719a12.53 12.53 0 0 0-16.732-.765zm-2.912 3.43a12.47 12.47 0 0 0-1.63 5.358L67.51 44.405a12.47 12.47 0 0 0 5.515-1.721L55.762 25.67z" fill="#fff"/><path d="M53.17 30.067l-9.229 9.229.217.012 7.833 5.14.052 8.811s-.067.671-.273 1.236l3.89 3.872 12.905-12.905-1.056-1.056-13.378-13.378-.961-.961z" fill="#f8c409"/><path d="M51.769 54.495c.206-.565.273-1.236.273-1.236l-.052-8.811-7.833-5.14-.217-.012c-1.595-.063-18.857 1.289-18.857 1.289L11.257 27.978c-2.633 5.165-4.015 10.801-4.149 16.463l10.498 8.861 3.192 7.743 5.182 4.258 14.48-16.808 4.258-1.083 1.557 1.064c-.474 2.209.04 3.701.881 4.716-.276.164-.541.357-.775.605-1.152 1.221-1.252 3.006-.287 4.116l-.48-.457c-1.311-1.244-3.359-1.21-4.576.08-1.194 1.265-1.134 3.265.11 4.515-1.19-.766-2.854-.546-3.94.603-1.175 1.246-1.227 3.109-.158 4.25-.999-.75-2.566-.511-3.623.61-1.127 1.195-1.243 2.917-.26 3.848l.998.949 2.212 2.104c.982.932 2.693.723 3.819-.47 1.009-1.071.834-3.236.834-3.236 1.186 1.126 3.131.996 4.349-.293 1.119-1.184 1.215-2.93.301-4.081 1.31 1.08 3.225 1.005 4.384-.225 1.17-1.238 1.132-3.174-.033-4.427 1.149 1.042 3.028.873 4.228-.399 1.04-1.1 1.227-2.66.548-3.77-.115-.188-3.038-3.019-3.038-3.019z" fill="#fff"/></svg>