<?xml version="1.0" encoding="iso-8859-1"?>
<!-- Generator: Adobe Illustrator 22.1.0, SVG Export Plug-In . SVG Version: 6.00 Build 0)  -->
<svg version="1.1" xmlns="http://www.w3.org/2000/svg" xmlns:xlink="http://www.w3.org/1999/xlink" x="0px" y="0px"
	 viewBox="0 0 90.709 90.709" style="enable-background:new 0 0 90.709 90.709;" xml:space="preserve">
<g id="ratownik-1">
	<g>
		<g>
			<circle style="fill:#194093;" cx="45.354" cy="45.355" r="43.52"/>
			<g>
				<path style="fill:#252E78;" d="M45.354,2.835c23.483,0,42.52,19.037,42.52,42.52s-19.037,42.52-42.52,42.52
					s-42.52-19.037-42.52-42.52S21.871,2.835,45.354,2.835 M45.354,0.835c-24.548,0-44.52,19.971-44.52,44.52
					s19.971,44.52,44.52,44.52s44.52-19.971,44.52-44.52S69.903,0.835,45.354,0.835L45.354,0.835z"/>
			</g>
		</g>
	</g>
</g>
<g id="Warstwa_4">
	<g>
		<path style="fill:#F8C409;" d="M34.199,65.407c0.237,0.471,24.356,5.116,24.356,5.116L67.65,52.47
			c-3,2.477-6.853,4.424-11.074,5.436c-1.92,0.46-4.368,0.839-7.221,0.839c-6.079,0-13.999-1.724-22.57-8.05L34.199,65.407z"/>
		<polygon style="fill:#F8C409;" points="31.106,66.379 22.556,49.408 19.436,55.21 29.436,66.127 		"/>
		<path style="fill:#F8C409;" d="M42.382,49.082c-5.007-0.531-10.662-1.644-16.967-3.594c12.914,11.26,24.471,10.732,30.416,9.306
			c6.904-1.654,11.549-5.554,13.604-9.209c-3.219,1.536-9.784,3.895-19.785,3.895c-0.484,0-0.978-0.006-1.479-0.018l-0.084-2.422
			l-0.604-17.484l19.865,0.905v-6.333l-19.759,0.9l0.847-17.529h-6.333l0.847,17.519l-19.759-0.89v6.333l19.864-0.895l-0.591,17.1
			L42.382,49.082z"/>
	</g>
	<g>
		<path style="fill:#FFFFFF;" d="M75.337,68.516c-2.76,0.68-5.268,1.144-7.674,1.198c-2.397,0.072-4.653-0.182-6.892-0.657
			c-4.469-0.925-8.928-2.678-13.788-4.346c-4.842-1.648-10.112-3.371-16.034-3.63c-2.936-0.098-6.057,0.241-8.89,1.399
			c-2.826,1.149-5.258,3.081-6.688,5.535c5.537-1.491,9.887-0.652,14.316,0.827c4.436,1.474,8.987,3.601,14.044,5.324
			c2.526,0.862,5.172,1.651,7.97,2.17c2.79,0.521,5.744,0.803,8.742,0.551c2.988-0.249,6.013-1.041,8.629-2.49
			C71.688,72.946,73.876,70.936,75.337,68.516z"/>
		<path style="fill:#FFFFFF;" d="M31.721,75.177c-1.911-0.868-3.912-1.68-6.074-2.008c-1.958-0.325-4.016-0.055-5.845,0.667
			c6.775,6.083,15.73,9.787,25.552,9.787c2.751,0,5.432-0.296,8.019-0.848c-3.587-0.166-7.127-0.95-10.477-2.303
			C39.079,79.059,35.535,76.954,31.721,75.177z"/>
	</g>
</g>
</svg>
