<svg xmlns="http://www.w3.org/2000/svg" viewBox="0 0 90.709 90.709"><circle cx="45.354" cy="45.355" r="43.52" fill="#194093"/><path d="M45.354 2.835c23.483 0 42.52 19.037 42.52 42.52s-19.037 42.52-42.52 42.52-42.52-19.037-42.52-42.52 19.037-42.52 42.52-42.52m0-2C20.806.835.834 20.806.834 45.355s19.971 44.52 44.52 44.52 44.52-19.971 44.52-44.52S69.903.835 45.354.835h0z" fill="#252e78"/><path d="M34.199 65.407c.237.471 24.356 5.116 24.356 5.116L67.65 52.47c-3 2.477-6.853 4.424-11.074 5.436-1.92.46-4.368.839-7.221.839-6.079 0-13.999-1.724-22.57-8.05l7.414 14.712zm-3.093.972l-8.55-16.971-3.12 5.802 10 10.917zm11.276-17.297c-5.007-.531-10.662-1.644-16.967-3.594 12.914 11.26 24.471 10.732 30.416 9.306 6.904-1.654 11.549-5.554 13.604-9.209-3.219 1.536-9.784 3.895-19.785 3.895a61.84 61.84 0 0 1-1.479-.018l-.084-2.422-.604-17.484 19.865.905v-6.333l-19.759.9.847-17.529h-6.333l.847 17.519-19.759-.89v6.333l19.864-.895-.591 17.1-.082 2.416z" fill="#f8c409"/><path d="M75.337 68.516c-2.76.68-5.268 1.144-7.674 1.198-2.397.072-4.653-.182-6.892-.657-4.469-.925-8.928-2.678-13.788-4.346-4.842-1.648-10.112-3.371-16.034-3.63-2.936-.098-6.057.241-8.89 1.399-2.826 1.149-5.258 3.081-6.688 5.535 5.537-1.491 9.887-.652 14.316.827 4.436 1.474 8.987 3.601 14.044 5.324 2.526.862 5.172 1.651 7.97 2.17 2.79.521 5.744.803 8.742.551 2.988-.249 6.013-1.041 8.629-2.49s4.804-3.461 6.265-5.881zm-43.616 6.661c-1.911-.868-3.912-1.68-6.074-2.008-1.958-.325-4.016-.055-5.845.667 6.775 6.083 15.73 9.787 25.552 9.787 2.751 0 5.432-.296 8.019-.848-3.587-.166-7.127-.95-10.477-2.303-3.817-1.413-7.361-3.518-11.175-5.295z" fill="#fff"/></svg>