<?xml version="1.0" encoding="iso-8859-1"?>
<!-- Generator: Adobe Illustrator 22.1.0, SVG Export Plug-In . SVG Version: 6.00 Build 0)  -->
<svg version="1.1" xmlns="http://www.w3.org/2000/svg" xmlns:xlink="http://www.w3.org/1999/xlink" x="0px" y="0px"
	 viewBox="0 0 90.709 90.709" style="enable-background:new 0 0 90.709 90.709;" xml:space="preserve">
<g id="ratownik-1">
	<g>
		<g>
			<circle style="fill:#194093;" cx="45.354" cy="45.355" r="43.52"/>
			<g>
				<path style="fill:#252E78;" d="M45.354,2.835c23.483,0,42.52,19.037,42.52,42.52c0,23.483-19.037,42.52-42.52,42.52
					c-23.483,0-42.52-19.037-42.52-42.52C2.835,21.871,21.871,2.835,45.354,2.835 M45.354,0.835c-24.548,0-44.52,19.972-44.52,44.52
					s19.971,44.52,44.52,44.52c24.548,0,44.52-19.972,44.52-44.52S69.903,0.835,45.354,0.835L45.354,0.835z"/>
			</g>
		</g>
	</g>
</g>
<g id="Warstwa_4">
	<g>
		<path style="fill:#F8C409;" d="M45.786,8.815l1.067,3.2l3.373,0.026c0.437,0.003,0.618,0.561,0.266,0.82l-2.714,2.004l1.018,3.216
			c0.132,0.416-0.342,0.761-0.698,0.507l-2.745-1.962l-2.745,1.962c-0.355,0.254-0.829-0.09-0.698-0.507l1.018-3.216l-2.714-2.004
			c-0.351-0.259-0.17-0.817,0.266-0.82l3.373-0.026l1.067-3.2C45.061,8.4,45.647,8.4,45.786,8.815z"/>
		<path style="fill:#F8C409;" d="M45.786,72.343l1.067,3.2l3.373,0.026c0.437,0.004,0.618,0.561,0.266,0.82l-2.714,2.004
			l1.018,3.216c0.132,0.416-0.342,0.761-0.698,0.507l-2.745-1.962l-2.745,1.962c-0.355,0.254-0.829-0.09-0.698-0.507l1.018-3.216
			l-2.714-2.004c-0.351-0.259-0.17-0.817,0.266-0.82l3.373-0.026l1.067-3.2C45.061,71.929,45.647,71.929,45.786,72.343z"/>
		<path style="fill:#F8C409;" d="M77.55,40.579l1.067,3.2l3.373,0.026c0.437,0.003,0.618,0.561,0.266,0.82l-2.714,2.004l1.018,3.216
			c0.132,0.416-0.342,0.761-0.698,0.507l-2.745-1.962l-2.745,1.962c-0.355,0.254-0.83-0.09-0.698-0.507l1.018-3.216l-2.714-2.004
			c-0.351-0.259-0.17-0.817,0.266-0.82l3.373-0.026l1.067-3.2C76.826,40.165,77.412,40.165,77.55,40.579z"/>
		<path style="fill:#F8C409;" d="M14.021,40.579l1.067,3.2l3.373,0.026c0.437,0.003,0.618,0.561,0.266,0.82l-2.714,2.004
			l1.018,3.216c0.132,0.416-0.342,0.761-0.698,0.507l-2.745-1.962l-2.745,1.962c-0.355,0.254-0.83-0.09-0.698-0.507l1.018-3.216
			l-2.714-2.004c-0.351-0.259-0.17-0.817,0.266-0.82l3.373-0.026l1.067-3.2C13.297,40.165,13.883,40.165,14.021,40.579z"/>
		<path style="fill:#F8C409;" d="M18.79,23.991l1.067,3.2l3.373,0.026c0.437,0.004,0.618,0.561,0.266,0.82l-2.714,2.004l1.018,3.216
			c0.132,0.416-0.342,0.761-0.698,0.507l-2.745-1.962l-2.745,1.962c-0.355,0.254-0.83-0.09-0.698-0.507l1.018-3.216l-2.714-2.004
			c-0.351-0.259-0.17-0.817,0.266-0.82l3.373-0.026l1.067-3.2C18.065,23.577,18.651,23.577,18.79,23.991z"/>
		<path style="fill:#F8C409;" d="M73.807,55.756l1.067,3.2l3.373,0.026c0.437,0.004,0.618,0.561,0.266,0.82L75.8,61.807l1.018,3.216
			c0.132,0.416-0.342,0.761-0.698,0.507l-2.745-1.962l-2.745,1.962c-0.355,0.254-0.829-0.09-0.698-0.507l1.018-3.216l-2.714-2.004
			c-0.351-0.259-0.17-0.817,0.266-0.82l3.373-0.026l1.067-3.2C73.083,55.341,73.669,55.341,73.807,55.756z"/>
		<path style="fill:#F8C409;" d="M62.18,12.365l1.067,3.2l3.373,0.026c0.437,0.004,0.618,0.561,0.266,0.82l-2.714,2.004l1.018,3.216
			c0.132,0.416-0.342,0.761-0.698,0.507l-2.745-1.962l-2.745,1.962c-0.355,0.254-0.829-0.09-0.698-0.507l1.018-3.216l-2.714-2.004
			c-0.351-0.259-0.17-0.817,0.266-0.82l3.373-0.026l1.067-3.2C61.456,11.95,62.042,11.95,62.18,12.365z"/>
		<path style="fill:#F8C409;" d="M30.416,67.382l1.067,3.2l3.373,0.026c0.437,0.004,0.618,0.561,0.266,0.82l-2.714,2.004
			l1.018,3.216c0.132,0.416-0.342,0.761-0.698,0.507l-2.745-1.962l-2.745,1.962c-0.355,0.254-0.829-0.09-0.698-0.507l1.018-3.216
			l-2.714-2.004c-0.351-0.259-0.17-0.817,0.266-0.82l3.373-0.026l1.067-3.2C29.692,66.968,30.278,66.968,30.416,67.382z"/>
		<path style="fill:#F8C409;" d="M72.945,23.991l-1.067,3.2l-3.373,0.026c-0.437,0.004-0.618,0.561-0.266,0.82l2.714,2.004
			l-1.018,3.216c-0.132,0.416,0.342,0.761,0.698,0.507l2.745-1.962l2.745,1.962c0.355,0.254,0.829-0.09,0.698-0.507L75.8,30.042
			l2.714-2.004c0.351-0.259,0.17-0.817-0.266-0.82l-3.373-0.026l-1.067-3.2C73.669,23.577,73.083,23.577,72.945,23.991z"/>
		<path style="fill:#F8C409;" d="M17.927,55.756l-1.067,3.2l-3.373,0.026c-0.437,0.004-0.618,0.561-0.266,0.82l2.714,2.004
			l-1.018,3.216c-0.132,0.416,0.342,0.761,0.698,0.507l2.745-1.962l2.745,1.962c0.355,0.254,0.83-0.09,0.698-0.507l-1.018-3.216
			l2.714-2.004c0.351-0.259,0.17-0.817-0.266-0.82l-3.373-0.026l-1.067-3.2C18.651,55.341,18.065,55.341,17.927,55.756z"/>
		<path style="fill:#F8C409;" d="M29.554,12.365l-1.067,3.2l-3.373,0.026c-0.437,0.004-0.618,0.561-0.266,0.82l2.714,2.004
			l-1.018,3.216c-0.132,0.416,0.342,0.761,0.698,0.507l2.745-1.962l2.745,1.962c0.355,0.254,0.83-0.09,0.698-0.507l-1.018-3.216
			l2.714-2.004c0.351-0.259,0.17-0.817-0.266-0.82l-3.373-0.026l-1.067-3.2C30.278,11.95,29.692,11.95,29.554,12.365z"/>
		<path style="fill:#F8C409;" d="M61.318,67.382l-1.067,3.2l-3.373,0.026c-0.437,0.004-0.618,0.561-0.266,0.82l2.714,2.004
			l-1.018,3.216c-0.132,0.416,0.342,0.761,0.698,0.507l2.745-1.962l2.745,1.962c0.355,0.254,0.83-0.09,0.698-0.507l-1.018-3.216
			l2.714-2.004c0.351-0.259,0.17-0.817-0.266-0.82l-3.373-0.026l-1.067-3.2C62.042,66.968,61.456,66.968,61.318,67.382z"/>
	</g>
</g>
</svg>
