<svg xmlns="http://www.w3.org/2000/svg" viewBox="0 0 90.709 90.709"><defs><path id="B" d="M45.786 72.343l1.067 3.2 3.373.026c.437.004.618.561.266.82l-2.714 2.004 1.018 3.216c.132.416-.342.761-.698.507l-2.745-1.962-2.745 1.962c-.355.254-.829-.09-.698-.507l1.018-3.216-2.714-2.004c-.351-.259-.17-.817.266-.82l3.373-.026 1.067-3.2a.46.46 0 0 1 .866 0z"/><path id="C" d="M77.55 40.579l1.067 3.2 3.373.026c.437.003.618.561.266.82l-2.714 2.004 1.018 3.216c.132.416-.342.761-.698.507l-2.745-1.962-2.745 1.962c-.355.254-.83-.09-.698-.507l1.018-3.216-2.714-2.004c-.351-.259-.17-.817.266-.82l3.373-.026 1.067-3.2a.46.46 0 0 1 .866 0z"/><path id="D" d="M17.927 55.756l-1.067 3.2-3.373.026c-.437.004-.618.561-.266.82l2.714 2.004-1.018 3.216c-.132.416.342.761.698.507l2.745-1.962 2.745 1.962c.355.254.83-.09.698-.507l-1.018-3.216 2.714-2.004c.351-.259.17-.817-.266-.82l-3.373-.026-1.067-3.2a.46.46 0 0 0-.866 0z"/></defs><circle cx="45.354" cy="45.355" r="43.52" fill="#194093"/><path d="M45.354 2.835c23.483 0 42.52 19.037 42.52 42.52s-19.037 42.52-42.52 42.52-42.52-19.037-42.52-42.52 19.037-42.52 42.52-42.52m0-2C20.806.835.834 20.807.834 45.355s19.971 44.52 44.52 44.52 44.52-19.972 44.52-44.52S69.903.835 45.354.835h0z" fill="#252e78"/><g fill="#f8c409"><path d="M45.786 8.815l1.067 3.2 3.373.026c.437.003.618.561.266.82l-2.714 2.004 1.018 3.216c.132.416-.342.761-.698.507l-2.745-1.962-2.745 1.962c-.355.254-.829-.09-.698-.507l1.018-3.216-2.714-2.004c-.351-.259-.17-.817.266-.82l3.373-.026 1.067-3.2a.46.46 0 0 1 .866 0z"/><use xlink:href="#B"/><use xlink:href="#C"/><use xlink:href="#C" x="-63.529"/><path d="M18.79 23.991l1.067 3.2 3.373.026c.437.004.618.561.266.82l-2.714 2.004 1.018 3.216c.132.416-.342.761-.698.507l-2.745-1.962-2.745 1.962c-.355.254-.83-.09-.698-.507l1.018-3.216-2.714-2.004c-.351-.259-.17-.817.266-.82l3.373-.026 1.067-3.2a.46.46 0 0 1 .866 0zm55.017 31.765l1.067 3.2 3.373.026c.437.004.618.561.266.82L75.8 61.807l1.018 3.216c.132.416-.342.761-.698.507l-2.745-1.962-2.745 1.962c-.355.254-.829-.09-.698-.507l1.018-3.216-2.714-2.004c-.351-.259-.17-.817.266-.82l3.373-.026 1.067-3.2c.141-.416.727-.416.865-.001z"/><use xlink:href="#B" x="16.394" y="-59.978"/><use xlink:href="#B" x="-15.37" y="-4.961"/><path d="M72.945 23.991l-1.067 3.2-3.373.026c-.437.004-.618.561-.266.82l2.714 2.004-1.018 3.216c-.132.416.342.761.698.507l2.745-1.962 2.745 1.962c.355.254.829-.09.698-.507L75.8 30.042l2.714-2.004c.351-.259.17-.817-.266-.82l-3.373-.026-1.067-3.2c-.139-.415-.725-.415-.863-.001z"/><use xlink:href="#D"/><use xlink:href="#D" x="11.627" y="-43.391"/><use xlink:href="#D" x="43.391" y="11.626"/></g></svg>