<?xml version="1.0" encoding="iso-8859-1"?>
<!-- Generator: Adobe Illustrator 22.1.0, SVG Export Plug-In . SVG Version: 6.00 Build 0)  -->
<svg version="1.1" xmlns="http://www.w3.org/2000/svg" xmlns:xlink="http://www.w3.org/1999/xlink" x="0px" y="0px"
	 viewBox="0 0 90.709 90.709" style="enable-background:new 0 0 90.709 90.709;" xml:space="preserve">
<g id="ratownik-1">
	<g>
		<g>
			
				<ellipse transform="matrix(0.9239 -0.3827 0.3827 0.9239 -13.904 20.8088)" style="fill:#194093;" cx="45.354" cy="45.354" rx="43.52" ry="43.52"/>
			<g>
				<path style="fill:#252E78;" d="M45.354,2.835c23.483,0,42.52,19.037,42.52,42.52s-19.037,42.52-42.52,42.52
					s-42.52-19.037-42.52-42.52S21.871,2.835,45.354,2.835 M45.354,0.835c-24.548,0-44.52,19.971-44.52,44.52
					s19.971,44.52,44.52,44.52s44.52-19.971,44.52-44.52S69.903,0.835,45.354,0.835L45.354,0.835z"/>
			</g>
		</g>
	</g>
</g>
<g id="elementy">
	<g>
		<path style="fill:#FFFFFF;" d="M50.195,21.022L39.002,8.177l1.215,11.885c-7.523,2.649-10.04,10.276-15.385,17.404
			c-2.797,3.732-5.829,7.797-7.984,10.778c-1.574,2.176-4.033,12.56,8.036,11.536c3.05-0.26,5.92-3.798,5.841-7.063
			c13.308-1.537,12.169-3.119,15.091-6.89c4.177,13.15,0.563,24.614-2.385,37.746c0.637,0.032,1.279,0.049,1.924,0.049
			c13.891,0,26.046-7.405,32.75-18.479c0.848-1.4,1.863-5.849,1.642-6.584C74.814,42.173,64.623,27.394,50.195,21.022z
			 M35.868,36.649c-1.566,0-2.835-1.269-2.835-2.835c0-1.565,1.269-2.835,2.835-2.835c1.565,0,2.835,1.269,2.835,2.835
			C38.703,35.38,37.434,36.649,35.868,36.649z"/>
		<path style="fill:#F8C409;" d="M80.638,52.939c-0.823-0.134-1.588,0.424-1.72,1.243c-1.873,11.651-9.797,18.394-21.172,18.059
			c-10.707-0.323-22.936-7.428-24.021-18.344c0-0.003-0.002-0.004-0.002-0.007c-0.039-0.376-0.218-0.737-0.531-0.998l-2.988-2.485
			l10.37-6.849l2.232,5.188c0.244,0.568,1.177,1.258,1.971,0.785c0.712-0.424,1.112-1.209,0.785-1.971l-2.6-6.043
			c2.485-3.369,4.494-6.701,5.964-9.914c0.035-0.078,0.064-0.158,0.086-0.241l2.633-9.958c0.212-0.801-0.266-1.622-1.066-1.833
			c-0.803-0.21-1.622,0.266-1.834,1.067l-1.931,7.302l-6.967-8.216c-0.535-0.631-1.482-0.709-2.114-0.174
			c-0.632,0.536-0.709,1.482-0.174,2.114l8.171,9.637c-1.409,2.887-3.25,5.874-5.528,8.908l-12.407,8.194l-6.854-5.7
			c-0.638-0.529-1.582-0.442-2.112,0.194c-0.53,0.637-0.443,1.583,0.194,2.112l11.8,9.814C32.459,67,45.885,74.885,57.655,75.24
			c0.272,0.008,0.545,0.012,0.819,0.012c9.866,0,20.96-5.379,23.406-20.594C82.012,53.84,81.455,53.071,80.638,52.939z"/>
	</g>
</g>
</svg>
