<svg xmlns="http://www.w3.org/2000/svg" viewBox="0 0 90.709 90.709"><circle cx="45.354" cy="45.355" r="43.52" fill="#194093"/><path d="M45.354 2.835c23.483 0 42.52 19.037 42.52 42.52s-19.037 42.52-42.52 42.52-42.52-19.037-42.52-42.52 19.037-42.52 42.52-42.52m0-2C20.806.835.834 20.806.834 45.355s19.971 44.52 44.52 44.52 44.52-19.971 44.52-44.52S69.903.835 45.354.835h0z" fill="#252e78"/><path d="M27.754 44.226a18.31 18.31 0 0 0 9.719 11.559c2.535 1.699 4.218 4.568 4.218 7.849 0 .912-.142 1.789-.383 2.623-3.808 1.586-6.486 5.341-6.486 9.724 0 5.817 21.064 5.817 21.064 0 0-4.382-2.678-8.137-6.486-9.724-.241-.834-.383-1.711-.383-2.623 0-3.281 1.684-6.15 4.219-7.849a18.31 18.31 0 0 0 9.719-11.558c-4.179 2.945-11.234 4.111-17.601 4.111s-13.422-1.167-17.6-4.112zm26.322-11.674a11.94 11.94 0 0 1-17.444 0c-5.032 1.03-8.907 3.021-9.482 5.977.883 4.536 9.537 6.808 18.204 6.808s17.321-2.272 18.204-6.808c-.575-2.957-4.45-4.948-9.482-5.977z" fill="#f8c409"/><path d="M33.37 24.35a11.93 11.93 0 0 0 3.263 8.202 11.94 11.94 0 0 0 17.444 0 11.93 11.93 0 0 0 3.263-8.202c0-.137-.016-.27-.021-.406-.052-1.558-.394-3.041-.986-4.393-1.851-4.228-6.067-7.186-10.978-7.186s-9.127 2.957-10.978 7.186c-.592 1.352-.933 2.835-.986 4.393-.005.136-.021.269-.021.406z" fill="#fff"/></svg>