<?xml version="1.0" encoding="iso-8859-1"?>
<!-- Generator: Adobe Illustrator 22.1.0, SVG Export Plug-In . SVG Version: 6.00 Build 0)  -->
<svg version="1.1" xmlns="http://www.w3.org/2000/svg" xmlns:xlink="http://www.w3.org/1999/xlink" x="0px" y="0px"
	 viewBox="0 0 90.709 90.709" style="enable-background:new 0 0 90.709 90.709;" xml:space="preserve">
<g id="ratownik-1">
	<g>
		<g>
			<circle style="fill:#194093;" cx="45.354" cy="45.355" r="43.52"/>
			<g>
				<path style="fill:#252E78;" d="M45.354,2.835c23.483,0,42.52,19.037,42.52,42.52s-19.037,42.52-42.52,42.52
					s-42.52-19.037-42.52-42.52S21.871,2.835,45.354,2.835 M45.354,0.835c-24.548,0-44.52,19.971-44.52,44.52
					s19.971,44.52,44.52,44.52s44.52-19.971,44.52-44.52S69.903,0.835,45.354,0.835L45.354,0.835z"/>
			</g>
		</g>
	</g>
</g>
<g id="Warstwa_4">
	<g>
		<path style="fill:#F8C409;" d="M27.754,44.226c1.429,5.11,5.014,9.305,9.719,11.559c2.535,1.699,4.218,4.568,4.218,7.849
			c0,0.912-0.142,1.789-0.383,2.623c-3.808,1.586-6.486,5.341-6.486,9.724c0,5.817,21.064,5.817,21.064,0
			c0-4.382-2.678-8.137-6.486-9.724c-0.241-0.834-0.383-1.711-0.383-2.623c0-3.281,1.684-6.15,4.219-7.849
			c4.705-2.254,8.29-6.449,9.719-11.558c-4.179,2.945-11.234,4.111-17.601,4.111S31.932,47.171,27.754,44.226z"/>
		<path style="fill:#F8C409;" d="M54.076,32.552c-2.186,2.323-5.28,3.782-8.722,3.782s-6.536-1.459-8.722-3.782
			c-5.032,1.03-8.907,3.021-9.482,5.977c0.883,4.536,9.537,6.808,18.204,6.808s17.321-2.272,18.204-6.808
			C62.983,35.572,59.108,33.581,54.076,32.552z"/>
		<path style="fill:#FFFFFF;" d="M33.37,24.35c0,3.177,1.245,6.057,3.263,8.202c2.186,2.323,5.28,3.782,8.722,3.782
			s6.536-1.459,8.722-3.782c2.018-2.145,3.263-5.025,3.263-8.202c0-0.137-0.016-0.27-0.021-0.406
			c-0.052-1.558-0.394-3.041-0.986-4.393c-1.851-4.228-6.067-7.186-10.978-7.186c-4.911,0-9.127,2.957-10.978,7.186
			c-0.592,1.352-0.933,2.835-0.986,4.393C33.386,24.08,33.37,24.213,33.37,24.35z"/>
	</g>
</g>
</svg>
