<svg xmlns="http://www.w3.org/2000/svg" viewBox="0 0 90.709 90.709"><circle cx="45.354" cy="45.354" r="43.52" fill="#194093"/><path d="M45.354 2.835c23.483 0 42.52 19.037 42.52 42.52s-19.037 42.52-42.52 42.52-42.52-19.037-42.52-42.52 19.037-42.52 42.52-42.52m0-2C20.806.835.834 20.806.834 45.355s19.971 44.52 44.52 44.52 44.52-19.971 44.52-44.52S69.903.835 45.354.835h0z" fill="#252e78"/><g stroke-width="1"><path d="M20.229 24.567c-.022 1.273-.844 20.83 0 31.173.187 2.296.792 4.581 1.697 6.699 1.036 2.423 2.445 4.732 4.198 6.699 1.522 1.708 3.332 3.227 5.359 4.287 2.78 1.453 5.892 2.46 9.021 2.68 3.599.252 7.374-.213 10.703-1.603 2.691-1.124 5.165-3.04 7.004-5.244 6.399-7.667 13.756-18.741 15.561-21.276s1.203-4.993-.396-6.164-3.845-1.514-6.514.868-9.52 9.281-9.52 9.281l-.156-33.629c-.022-2.098-1.842-3.785-4.198-3.796s-4.568 1.655-4.622 3.774l.054 15.118c-.78-2.025-2.112-2.005-5.034-2.099-2.542.197-3.622 1.389-4.311 3.395-.351 1.021-.898.233-1.155-.173-1.373-2.175-2.168-2.053-3.995-2.223-2.417-.225-5.042.744-5.054 2.339l-.558-10.182c0-1.206-1.1-3.717-3.707-3.672s-4.354 2.479-4.377 3.751z" fill="#f8c409" stroke="#f8c409"/><path d="M28.87 34.67l.032 13.769c.032 3.232 2.528 3.969 4.58 3.947s4.195-.82 4.195-4.026l-.016-13.705c-.016-.224.055-2.304-4.178-2.321s-4.612 1.826-4.612 2.337zm10.825-.859l.032 14.462c.032 3.395 2.511 4.169 4.55 4.146s4.167-.861 4.167-4.229l-.016-14.396c-.016-.235.055-2.421-4.151-2.438s-4.582 1.918-4.582 2.455z" fill="#fff" stroke="#fff"/></g></svg>