<?xml version="1.0" encoding="UTF-8" standalone="no"?>
<svg
   xmlns:dc="http://purl.org/dc/elements/1.1/"
   xmlns:cc="http://creativecommons.org/ns#"
   xmlns:rdf="http://www.w3.org/1999/02/22-rdf-syntax-ns#"
   xmlns:svg="http://www.w3.org/2000/svg"
   xmlns="http://www.w3.org/2000/svg"
   xmlns:sodipodi="http://sodipodi.sourceforge.net/DTD/sodipodi-0.dtd"
   xmlns:inkscape="http://www.inkscape.org/namespaces/inkscape"
   version="1.1"
   x="0px"
   y="0px"
   viewBox="0 0 90.709 90.709"
   style="enable-background:new 0 0 90.709 90.709;"
   xml:space="preserve"
   id="svg906"
   sodipodi:docname="sim-spr-h-Migacz.svg"
   inkscape:version="1.0.1 (3bc2e813f5, 2020-09-07)"><metadata
   id="metadata912"><rdf:RDF><cc:Work
       rdf:about=""><dc:format>image/svg+xml</dc:format><dc:type
         rdf:resource="http://purl.org/dc/dcmitype/StillImage" /><dc:title></dc:title></cc:Work></rdf:RDF></metadata><defs
   id="defs910" /><sodipodi:namedview
   pagecolor="#ffffff"
   bordercolor="#666666"
   borderopacity="1"
   objecttolerance="10"
   gridtolerance="10"
   guidetolerance="10"
   inkscape:pageopacity="0"
   inkscape:pageshadow="2"
   inkscape:window-width="1773"
   inkscape:window-height="1005"
   id="namedview908"
   showgrid="false"
   showguides="true"
   inkscape:guide-bbox="true"
   inkscape:zoom="3.3519928"
   inkscape:cx="78.76953"
   inkscape:cy="14.318448"
   inkscape:window-x="0"
   inkscape:window-y="0"
   inkscape:window-maximized="0"
   inkscape:current-layer="g1570"><sodipodi:guide
     position="199.29611,96.984797"
     orientation="0,-1"
     id="guide1518" /><sodipodi:guide
     position="202.40764,105.58106"
     orientation="1,0"
     id="guide1520" /><sodipodi:guide
     position="181.75755,84.071158"
     orientation="1,0"
     id="guide1522" /><sodipodi:guide
     position="189.69783,105.97659"
     orientation="0,-1"
     id="guide1524" /><sodipodi:guide
     position="115.1266,85.804385"
     orientation="1,0"
     id="guide1528" /><sodipodi:guide
     position="135.58886,85.118794"
     orientation="1,0"
     id="guide1530" /><sodipodi:guide
     position="147.52418,18.587724"
     orientation="1,0"
     id="guide1538" /><sodipodi:guide
     position="191.67702,158.72824"
     orientation="0,-1"
     id="guide1542" /></sodipodi:namedview>
<g
   id="ratownik-1">
	<g
   id="g892">
		<g
   id="g890">
			<circle
   style="fill:#194093;"
   cx="45.354"
   cy="45.354"
   r="43.52"
   id="circle884" />
			<g
   id="g888">
				<path
   style="fill:#252E78;"
   d="M45.354,2.835c23.483,0,42.52,19.037,42.52,42.52s-19.037,42.52-42.52,42.52      s-42.52-19.037-42.52-42.52S21.871,2.835,45.354,2.835 M45.354,0.835c-24.548,0-44.52,19.971-44.52,44.52      s19.971,44.52,44.52,44.52s44.52-19.971,44.52-44.52S69.903,0.835,45.354,0.835L45.354,0.835z"
   id="path886" />
			</g>
		</g>
	</g>
</g>

<g
   id="g1570"
   transform="matrix(0.42341403,0,0,0.42341403,-28.539933,20.993743)"
   style="stroke-width:2.36175"><path
     style="fill:#f8c409;fill-opacity:1;stroke:#f8c409;stroke-width:2.36175px;stroke-linecap:butt;stroke-linejoin:miter;stroke-opacity:1"
     d="m 115.17933,8.4380465 c -0.0527,3.0061525 -1.99248,49.1953215 0,73.6219555 0.4423,5.422369 1.86969,10.818836 4.00808,15.821337 2.4463,5.722831 5.77389,11.174961 9.9147,15.821341 3.59473,4.03363 7.86899,7.62235 12.65707,10.12565 6.56553,3.43258 13.91553,5.81021 21.30607,6.32854 8.49911,0.59608 17.41623,-0.50267 25.27794,-3.78652 6.35577,-2.65482 12.19799,-7.18026 16.54157,-12.38434 15.11345,-18.107531 32.48792,-44.26222 36.7501,-50.248775 4.26219,-5.986555 2.84031,-11.791821 -0.9352,-14.557827 -3.7755,-2.766005 -9.08036,-3.576212 -15.38554,2.049546 -6.30518,5.625757 -22.48457,21.918361 -22.48457,21.918361 0,0 -0.42191,-52.445484 -0.36918,-79.423112 -0.0527,-4.954203 -4.35086,-8.939055 -9.9147,-8.965424 -5.56384,-0.02637 -10.78812,3.908022 -10.91672,8.9126861 0.1286,26.8194919 0.1286,35.7041269 0.1286,35.7041269 -1.8413,-4.782971 -4.98818,-4.734183 -11.88912,-4.957994 -6.00301,0.466426 -8.55458,3.280183 -10.18206,8.018264 -0.82811,2.410879 -2.12202,0.550095 -2.72811,-0.409674 -3.24343,-5.136161 -5.12086,-4.849574 -9.43408,-5.250381 -5.70891,-0.530504 -11.90761,1.756081 -11.93529,5.524216 0,0 -1.31847,-21.200591 -1.31847,-24.0484322 0,-2.847841 -2.59875,-8.77896844 -8.75448,-8.67349312 -6.15573,0.10547532 -10.28388,5.85379662 -10.33661,8.85994882 z"
     id="path1516"
     sodipodi:nodetypes="zsaaaaaszzzcczcccsssczzz" /><path
     style="fill:#ffffff;stroke:#ffffff;stroke-width:2.36175px;stroke-linecap:butt;stroke-linejoin:miter;stroke-opacity:1"
     d="m 135.58886,32.300023 c 0,1.205932 0,24.884159 0.0751,32.51797 0.0752,7.633811 5.96936,9.374047 10.81744,9.322812 4.84809,-0.05124 9.90667,-1.935802 9.90667,-9.509268 0,-7.573466 0,-31.839732 -0.0381,-32.368805 -0.0381,-0.529073 0.12984,-5.442384 -9.86848,-5.481813 -9.99831,-0.03943 -10.8926,4.313172 -10.8926,5.519104 z"
     id="path1534"
     sodipodi:nodetypes="zzzzzzz" /><path
     style="fill:#ffffff;stroke:#ffffff;stroke-width:2.36174px;stroke-linecap:butt;stroke-linejoin:miter;stroke-opacity:1"
     d="m 161.15362,30.271491 c 0,1.266701 0,26.138128 0.0747,34.156624 0.0747,8.018496 5.93048,9.846427 10.74697,9.79261 4.81651,-0.05382 9.84215,-2.033352 9.84215,-9.988462 0,-7.95511 0,-33.444208 -0.038,-33.999942 -0.038,-0.555735 0.12899,-5.716639 -9.80421,-5.758055 -9.93318,-0.04142 -10.82164,4.530523 -10.82164,5.797225 z"
     id="path1534-8"
     sodipodi:nodetypes="zzzzzzz" /></g></svg>
