<svg xmlns="http://www.w3.org/2000/svg" viewBox="0 0 90.709 90.709"><ellipse transform="matrix(.923 -.3847 .3847 .923 -13.9581 20.9397)" cx="45.354" cy="45.355" rx="43.52" ry="43.519" fill="#194093"/><path d="M45.354 2.835c23.483 0 42.52 19.037 42.52 42.52s-19.037 42.52-42.52 42.52-42.52-19.037-42.52-42.52 19.037-42.52 42.52-42.52m0-2C20.806.835.834 20.807.834 45.355s19.971 44.52 44.52 44.52 44.52-19.972 44.52-44.52S69.903.835 45.354.835h0z" fill="#252e78"/><path d="M47.373 28.202V10.407a2 2 0 1 0-4 0v17.795H23.812v4h43.123v-4H47.373z" fill="#fff"/><g fill="#f8c409"><circle cx="45.374" cy="30.209" r="6.463"/><path d="M68.593 28.932a1.5 1.5 0 0 0-2.598 0L52.401 52.927c.009 1.287.944 2.758 2.342 4.239 6.749 7.15 18.355 7.15 25.103 0 1.398-1.481 2.333-2.952 2.342-4.239L68.593 28.932zm10.389 23.992l-10.187-.009V35.28l10.187 17.644zm-23.368-.01l10.18-17.634v17.633c-3.896-.002-7.642-.002-10.18.001zm-30.77-23.982a1.5 1.5 0 0 0-2.598 0L8.652 52.927c.009 1.287.944 2.758 2.342 4.239 6.749 7.15 18.355 7.15 25.103 0 1.398-1.481 2.333-2.952 2.342-4.239L24.844 28.932zm10.389 23.992l-10.187-.009V35.28l10.187 17.644zm-23.368-.01l10.18-17.634v17.633c-3.896-.002-7.642-.002-10.18.001z"/></g></svg>