<?xml version="1.0" encoding="iso-8859-1"?>
<!-- Generator: Adobe Illustrator 22.1.0, SVG Export Plug-In . SVG Version: 6.00 Build 0)  -->
<svg version="1.1" xmlns="http://www.w3.org/2000/svg" xmlns:xlink="http://www.w3.org/1999/xlink" x="0px" y="0px"
	 viewBox="0 0 90.709 90.709" style="enable-background:new 0 0 90.709 90.709;" xml:space="preserve">
<g id="ratownik-1">
	<g>
		<g>
			
				<ellipse transform="matrix(0.923 -0.3847 0.3847 0.923 -13.9581 20.9397)" style="fill:#194093;" cx="45.354" cy="45.355" rx="43.52" ry="43.519"/>
			<g>
				<path style="fill:#252E78;" d="M45.354,2.835c23.483,0,42.52,19.037,42.52,42.52s-19.037,42.52-42.52,42.52
					c-23.483,0-42.52-19.037-42.52-42.52S21.871,2.835,45.354,2.835 M45.354,0.835c-24.548,0-44.52,19.972-44.52,44.52
					s19.971,44.52,44.52,44.52c24.548,0,44.52-19.972,44.52-44.52S69.903,0.835,45.354,0.835L45.354,0.835z"/>
			</g>
		</g>
	</g>
</g>
<g id="Warstwa_4">
	<g>
		<path style="fill:#FFFFFF;" d="M47.373,28.202V10.407c0-1.104-0.895-2-2-2c-1.104,0-2,0.896-2,2v17.795H23.812v4h43.123v-4H47.373
			z"/>
		<g>
			<circle style="fill:#F8C409;" cx="45.374" cy="30.209" r="6.463"/>
		</g>
		<path style="fill:#F8C409;" d="M68.593,28.932c-0.268-0.464-0.763-0.75-1.299-0.75s-1.031,0.286-1.299,0.75L52.401,52.927
			c0.009,1.287,0.944,2.758,2.342,4.239c6.749,7.15,18.355,7.15,25.103,0c1.398-1.481,2.333-2.952,2.342-4.239L68.593,28.932z
			 M78.982,52.924c-2.539-0.003-6.287-0.006-10.187-0.009V35.28L78.982,52.924z M55.614,52.914L65.794,35.28v17.633
			C61.898,52.911,58.152,52.911,55.614,52.914z"/>
		<path style="fill:#F8C409;" d="M24.844,28.932c-0.268-0.464-0.763-0.75-1.299-0.75s-1.031,0.286-1.299,0.75L8.652,52.927
			c0.009,1.287,0.944,2.758,2.342,4.239c6.749,7.15,18.355,7.15,25.103,0c1.398-1.481,2.333-2.952,2.342-4.239L24.844,28.932z
			 M35.233,52.924c-2.539-0.003-6.287-0.006-10.187-0.009V35.28L35.233,52.924z M11.865,52.914L22.045,35.28v17.633
			C18.149,52.911,14.403,52.911,11.865,52.914z"/>
	</g>
</g>
</svg>
