<svg xmlns="http://www.w3.org/2000/svg" viewBox="0 0 90.709 90.709"><path d="M45.354 88.874c-23.997 0-43.52-19.522-43.52-43.52s19.522-43.52 43.52-43.52 43.521 19.522 43.521 43.52-19.524 43.52-43.521 43.52z" fill="#194093"/><path d="M45.354 2.835c23.483 0 42.52 19.037 42.52 42.52s-19.037 42.52-42.52 42.52-42.52-19.037-42.52-42.52 19.037-42.52 42.52-42.52m0-2C20.806.835.834 20.806.834 45.355s19.971 44.52 44.52 44.52 44.52-19.971 44.52-44.52S69.903.835 45.354.835h0z" fill="#252e78"/><path d="M70.464 42.599l-2.788-2.266 3.617-4.7-4.95-14.569-24.835 1.558 5.735-5.565h-7.4l-23.167 7.124 1.163 19.173h52.77z" fill="#fff"/><path d="M18.459 53.579l15.55 11.387 33 8.232 6.5-14.686-2.135-11.158H18.082z" fill="#c90c0f"/></svg>