<?xml version="1.0" encoding="utf-8"?>
<!-- Generator: Adobe Illustrator 24.2.0, SVG Export Plug-In . SVG Version: 6.00 Build 0)  -->
<svg version="1.1" id="Warstwa_3" xmlns="http://www.w3.org/2000/svg" x="0px" y="0px"
	 viewBox="0 0 87.87 87.87" style="enable-background:new 0 0 87.87 87.87;" xml:space="preserve">
<g>
	<g>
		<g>
			<path d="M39.71,77.14l-1.15,8.94c1.8,0.23,3.63,0.35,5.45,0.35c1.88,0,3.77-0.13,5.62-0.37l-1.18-8.94
				C45.58,77.51,42.59,77.51,39.71,77.14z"/>
			<path d="M69.93,10.2c-2.94-2.27-6.18-4.14-9.6-5.56l-3.46,8.33c2.7,1.12,5.24,2.59,7.56,4.38L69.93,10.2z"/>
			<path d="M4.78,60.31c1.43,3.42,3.3,6.64,5.58,9.58l7.13-5.51c-1.79-2.32-3.27-4.86-4.39-7.55L4.78,60.31z"/>
			<path d="M18.22,77.71c2.95,2.26,6.19,4.12,9.62,5.53l3.43-8.34c-2.7-1.11-5.25-2.58-7.57-4.36L18.22,77.71z"/>
			<path d="M56.89,74.86l3.47,8.32c3.42-1.42,6.65-3.3,9.59-5.57l-5.5-7.14C62.12,72.26,59.58,73.74,56.89,74.86z"/>
			<path d="M86.18,38.36l-8.94,1.17c0.19,1.44,0.28,2.92,0.28,4.39c0,1.46-0.1,2.92-0.28,4.36l8.94,1.16
				c0.24-1.82,0.36-3.68,0.36-5.52C86.54,42.06,86.42,40.19,86.18,38.36z"/>
			<path d="M70.62,64.28l7.15,5.49c2.26-2.95,4.13-6.18,5.55-9.61l-8.33-3.45C73.87,59.41,72.4,61.96,70.62,64.28z"/>
			<path d="M83.31,27.64c-1.42-3.42-3.29-6.65-5.55-9.6l-7.15,5.49c1.78,2.32,3.26,4.87,4.38,7.56L83.31,27.64z"/>
			<path d="M10.51,43.91c0-18.47,15.03-33.5,33.5-33.5c1.48,0,2.96,0.1,4.41,0.29l1.17-8.94c-1.84-0.24-3.72-0.36-5.59-0.36
				C20.57,1.39,1.5,20.47,1.5,43.91c0,1.87,0.12,3.75,0.36,5.59l8.94-1.18C10.61,46.87,10.51,45.39,10.51,43.91z"/>
		</g>
	</g>
	<path d="M56.94,43.95l0.36-8.03l-5.95-2.2l3.43-6.37l-8.34-6.95l-11.32,7.81l4.54,5.7l-6.96,2.99v6.83l-9.26,6.22l3.26,11.1
		l9.01,5.12l28.18-6.51l0.5-8.38L56.94,43.95z M36.27,55.66l-9.25-4.48l7.17-4.82l11.74,4.09l8.52-4.74l5.52,5.43L36.27,55.66z
		 M48.23,35.77l5.39,1.99l-8.13,4.02l-8.48-3.46l5.2-2.23L48.23,35.77z M50.71,27.86l-10.84,0.72l6.41-4.42L50.71,27.86z"/>
</g>
</svg>
