<?xml version="1.0" encoding="utf-8"?>
<!-- Generator: Adobe Illustrator 24.2.0, SVG Export Plug-In . SVG Version: 6.00 Build 0)  -->
<svg version="1.1" id="Warstwa_3" xmlns="http://www.w3.org/2000/svg" x="0px" y="0px"
	 viewBox="0 0 87.87 87.87" style="enable-background:new 0 0 87.87 87.87;" xml:space="preserve">
<g>
	<g>
		<g>
			<g>
				<path d="M4.74,60.12c1.42,3.41,3.28,6.63,5.54,9.57l7.13-5.49c-1.78-2.32-3.25-4.85-4.37-7.54L4.74,60.12z"/>
			</g>
			<g>
				<path d="M18.09,77.5c2.94,2.26,6.16,4.12,9.57,5.54l3.45-8.31c-2.69-1.12-5.22-2.58-7.54-4.37L18.09,77.5z"/>
			</g>
			<g>
				<path d="M43.94,1.39C20.54,1.39,1.5,20.43,1.5,43.84c0,1.86,0.12,3.74,0.36,5.57l8.92-1.17c-0.19-1.45-0.29-2.93-0.29-4.4
					c0-18.44,15-33.44,33.44-33.44c18.44,0,33.44,15,33.44,33.44c0,18.44-15,33.44-33.44,33.44c-1.47,0-2.95-0.1-4.4-0.29
					l-1.17,8.92c1.84,0.24,3.71,0.36,5.57,0.36c23.4,0,42.44-19.04,42.44-42.44C86.38,20.43,67.34,1.39,43.94,1.39z"/>
			</g>
		</g>
	</g>
	<path d="M62.85,32.36L46.46,19.99l-8.79,12.05l-10.91,2.84l-6.41,19.5l18.52,7.35l26.93-5.75L62.85,32.36z M39.92,35.59l7.45,4.84
		V25.68l11.65,8.8L39.14,57.45l-9.1-19.29L39.92,35.59z"/>
</g>
</svg>
