<?xml version="1.0" encoding="utf-8"?>
<!-- Generator: Adobe Illustrator 24.2.0, SVG Export Plug-In . SVG Version: 6.00 Build 0)  -->
<svg version="1.1" id="Warstwa_3" xmlns="http://www.w3.org/2000/svg" x="0px" y="0px"
	 viewBox="0 0 87.87 87.87" style="enable-background:new 0 0 87.87 87.87;" xml:space="preserve">
<g>
	<g>
		<path d="M44.02,1.39C20.57,1.39,1.5,20.47,1.5,43.91c0,23.44,19.07,42.52,42.52,42.52c23.45,0,42.52-19.07,42.52-42.52
			C86.54,20.47,67.46,1.39,44.02,1.39z M44.02,77.41c-18.47,0-33.5-15.03-33.5-33.5c0-18.47,15.03-33.5,33.5-33.5
			c18.47,0,33.5,15.03,33.5,33.5C77.52,62.38,62.49,77.41,44.02,77.41z"/>
	</g>
	<path d="M55.99,29.16l-2.01,2.99c-0.89-2-1.95-4.45-2.44-5.86c-0.98-2.85-1.94-5.07-1.98-5.17l-1.82-4.18l-10.98,24.8l-5.34-0.16
		L21.04,60.77h46.13L55.99,29.16z M39.33,45.82l8.27-18.68c0.05,0.15,0.1,0.3,0.16,0.45c0.99,2.87,3.94,9.23,4.07,9.5l1.5,3.21
		l1.55-2.3l1.84,5.22l-10.17,4.46l-11.75,4.9l-2.86-3.51l1.84-3.4L39.33,45.82z"/>
</g>
</svg>
