<svg
    xmlns="http://www.w3.org/2000/svg"
    viewBox="0 0 1400 1400"
    id="vector">
    <path
        id="path"
        d="M 54 561.9 L 54 1123.8 L 56.5 1136.6 C 59.1 1149.3 60.1 1153 64.6 1166.5 C 68.3 1177.7 78.1 1198.9 82.6 1205.5 C 83.9 1207.5 85 1209.3 85 1209.6 C 85 1210.8 96.7 1227 103.3 1235 C 117.5 1252.2 137.4 1270 156 1282.2 C 180.9 1298.5 208.5 1307.8 250 1313.7 C 261.4 1315.3 276.5 1315.5 421 1316 C 592 1316.7 583.8 1316.4 604 1321.9 C 611.9 1324 624.6 1328.2 627.7 1329.8 C 628.7 1330.3 633.1 1332.4 637.5 1334.5 C 656 1343.3 674.7 1358.3 683.2 1371.2 C 687.8 1378 691.4 1386.6 693 1394.2 L 694.1 1400 L 700 1400 L 705.8 1400 L 706.9 1395 C 707.5 1392.2 708 1389.1 708 1388.2 C 708 1383.8 713.2 1372.8 719.4 1364 C 728.3 1351.3 747.8 1337 765 1330.5 C 789.3 1321.4 804.5 1318 829.8 1316.5 C 835.1 1316.2 906.3 1315.8 988 1315.6 C 1120.7 1315.3 1137.9 1315.1 1149.5 1313.6 C 1182.1 1309.4 1208.7 1301.7 1231.1 1290.2 C 1237.3 1287.1 1254.2 1275.5 1261.9 1269.2 C 1266 1265.8 1269.7 1263.3 1270.2 1263.6 C 1270.7 1263.9 1270.9 1263.8 1270.8 1263.3 C 1270.5 1262.3 1292.1 1240.6 1293.2 1240.9 C 1293.7 1240.9 1293.9 1240.6 1293.7 1240.1 C 1293.6 1239.7 1296.5 1235.5 1300.1 1230.9 C 1318.4 1207.7 1332.4 1180.1 1339.8 1153 C 1344.9 1134.3 1345.3 1131.1 1346.1 1103 C 1346.5 1087.9 1346.9 833.5 1346.9 537.7 L 1347 0 L 700.5 0 L 54 0 L 54 561.9 Z M 350.5 162 C 389.6 165.7 431.4 182.7 476.5 213.1 C 510.4 235.9 536.7 260.5 555.4 287 C 579.7 321.2 591.4 348.9 592.7 375 C 593.6 393.4 589 407.5 578.5 418.9 C 569.6 428.4 558.7 433.2 545.6 433.2 C 541.3 433.2 538.2 433.6 537.8 434.3 C 536.3 436.7 537 448.4 538.9 452.6 C 545.5 467.2 567.7 478.2 599.3 482.5 L 604 483.1 L 604 478.3 C 604 471.4 606.5 457 609 449.4 C 610.2 445.8 613.4 439.6 616 435.7 L 620.9 428.5 L 618 425.5 C 611.5 418.7 611.9 414.1 619.3 411 C 627.9 407.4 638.2 400.9 643.9 395.6 C 649.3 390.4 659 377.6 659 375.5 C 659 374.9 657 373 654.6 371.3 C 649.4 367.6 644.7 361.7 645.2 359.4 C 645.4 358.3 648 357.1 653 355.6 C 662 353 666.6 350.3 673.9 343.5 C 684.8 333.4 691 320.1 691 307.1 C 691 297.2 689.5 293.2 683.6 287.3 C 677 280.7 674.6 280.1 665.4 282.8 C 661.3 284 657.4 285 656.6 285 C 654.9 285 652 278.1 652 274 C 652 272.3 651.8 271 651.5 271 C 651.2 271 648.4 272.3 645.2 273.9 C 631.4 280.8 615.2 284.8 605.2 283.6 C 590.4 281.9 578.9 270.7 578.7 257.9 C 578.6 254.5 579.1 252.6 580.1 251.9 C 582.1 250.6 582.2 250.7 587.1 254.4 C 593 258.9 598 260.4 605.1 259.7 C 611.4 259 623.3 254.9 632.5 250.3 L 638.4 247.3 L 635 245.5 C 633.1 244.5 628.5 243.5 624.9 243.2 C 616.7 242.6 607.3 245.5 600.6 250.6 C 598.1 252.5 595.9 254 595.6 254 C 594 254 592 248.5 591 241.3 C 587.9 218.1 599 202.8 621.2 199.6 C 625.8 198.9 626 198.7 627 194.7 C 629.5 185.1 633.6 178.6 640 174.4 L 644 171.7 L 665.2 171.7 C 680.8 171.7 694.1 172.4 715 174.4 C 735.8 176.4 747.6 177.1 758.7 176.8 L 774 176.5 L 775 179.4 C 777.1 185.5 775.3 193.3 771 196.3 C 769 197.7 769.6 197.8 779.7 198.4 C 785.6 198.8 791.6 199.2 793 199.3 C 795.4 199.5 795.5 199.8 795.3 205.6 C 795.1 213.1 792.2 219.5 787.8 221.8 C 780.7 225.8 780.7 225.8 785.1 233 C 794.6 248.4 795.6 262.4 790 300 C 786 326.5 785 347.2 787.3 355.1 C 788.2 358.1 790.3 362.1 792 364 C 793.6 365.8 795 367.7 795 368.1 C 795 369.4 788 375 785.5 375.6 C 782.5 376.3 782.5 376.2 785 387.3 C 787.3 397.7 792.1 407.2 799 415.3 C 801.8 418.5 804 421.9 804 422.9 C 804 423.8 803 426.6 801.8 429 C 800.1 432.4 798.2 434.2 794.3 436.3 L 789.1 439.1 L 791.6 446.3 C 794.7 455.3 797 468.3 797 476.6 L 797 482.9 L 800.8 482.3 C 828.2 478.4 846.8 470.9 856.6 459.7 C 861.3 454.3 863 449.5 863 441.4 C 863 433.6 862.2 432.6 857.3 433.3 C 846.4 435.1 830.7 428.8 821.7 419 C 795.6 390.9 804.4 342.9 846.2 284.7 C 864.7 259 892.2 234 928 210.5 C 972.4 181.3 1012.7 165.4 1051.4 162 C 1064.7 160.8 1067 161.4 1067 165.9 C 1067 174.9 1054 201.9 1041.6 218.8 C 1039.1 222.2 1037 225.3 1037 225.6 C 1037 225.9 1039.8 224.5 1043.3 222.5 C 1069.3 207.5 1087.4 201 1103.3 201 C 1112.6 201 1112.9 201.3 1111.2 211.3 C 1108.9 224.6 1098.5 248 1087.8 263.9 C 1086.2 266.3 1085.1 268.4 1085.3 268.7 C 1086.1 269.4 1100.6 257.2 1105.6 251.7 C 1108.1 248.9 1112.3 243.7 1114.8 240.2 C 1119.9 232.9 1121.6 232.7 1124.5 238.5 C 1127.6 244.7 1127.4 262.9 1124.1 272.5 C 1121 281.6 1117.3 289 1111.6 297 C 1109.1 300.5 1107.2 303.5 1107.3 303.7 C 1107.5 303.8 1110.3 303.3 1113.7 302.5 C 1130.2 298.6 1151.9 297.7 1163 300.3 L 1168.5 301.6 L 1168.4 306.1 C 1168.2 312 1163.7 320.7 1156.1 330.1 C 1148.5 339.6 1144.5 343.3 1133.6 351.4 C 1128.7 355 1125.1 358 1125.4 358 C 1128.4 358 1146.2 352 1153.5 348.5 C 1164.6 343.3 1170.2 339.2 1173.5 334 C 1174.9 331.8 1176.4 330 1176.8 330 C 1179.2 330.1 1180.3 332.5 1181.2 340 C 1182.9 354.3 1179.9 364.1 1170.1 375.8 C 1165.5 381.3 1156.5 389.6 1149.6 394.6 L 1146.7 396.7 L 1154.6 398.4 C 1165.1 400.7 1179.8 405.5 1188.8 409.6 C 1198.2 413.9 1210 421.7 1210 423.7 C 1210 426.2 1204.4 432.6 1197.7 437.6 C 1186 446.4 1165.4 454.7 1148.1 457.4 L 1140.5 458.7 L 1154.5 459.5 C 1180.8 461 1197.9 458.9 1203.3 453.4 C 1207.7 449 1209.4 450.4 1209.8 458.5 C 1210.7 476.9 1203.6 486.6 1185 492.4 C 1177.2 494.9 1158.3 498.4 1147 499.6 C 1143.4 500 1140.1 500.5 1139.7 500.7 C 1139.2 501 1143.3 503.8 1148.7 506.9 C 1176.7 523.1 1193.8 538.7 1206.1 559.2 C 1211.3 567.8 1212.3 572.6 1209.3 573.6 C 1208.3 573.9 1204.8 575.3 1201.5 576.6 C 1181.7 584.5 1159.1 584.7 1125.5 577.3 C 1116.7 575.4 1108.4 573.6 1107 573.3 C 1103.9 572.8 1111.5 577 1137.5 590.5 C 1170.2 607.5 1186.3 612.9 1200.7 611.6 C 1210.2 610.8 1210.7 611.8 1205.5 621.9 C 1200.2 632.3 1190.6 641.9 1182.5 644.9 C 1165.8 651.2 1143.5 647 1111.1 631.4 C 1103.7 627.9 1097.5 625.1 1097.3 625.3 C 1097.1 625.5 1099.5 629.9 1102.6 635.1 C 1110.2 647.9 1123.1 674.4 1127.5 686.3 C 1136.8 711.7 1141.7 735.2 1142.7 759.5 C 1143.4 777.5 1143.1 778.3 1135.3 776.9 C 1120.5 774.1 1102.9 764.8 1085.5 750.6 C 1075.7 742.5 1055.4 722.6 1045.8 711.4 C 1041.3 706.2 1037.5 702.2 1037.2 702.5 C 1036.9 702.7 1042.9 713.4 1050.5 726.2 C 1076.8 770.8 1092.9 792.7 1101.9 796.3 C 1104.1 797.2 1106.1 798.3 1106.4 798.9 C 1108.2 801.7 1102.8 805.8 1093.8 808.5 C 1083.2 811.6 1073.1 810.1 1058.5 803 C 1046.1 797 1038.1 790.4 1028.4 778.4 C 1023 771.6 1004.8 746.9 1002.6 743.3 C 1002.5 743.2 1002.5 755.8 1002.4 771.3 C 1002.3 802.6 1000.5 823.4 996.5 841.3 C 993.8 853.2 990 862.7 987.5 863.6 C 985.1 864.6 981.5 862.3 973.2 854.6 C 953.2 835.9 935.1 804.3 921.3 764 C 918.4 755.5 916 748.9 916 749.5 C 916 750 917.1 757.2 918.5 765.5 C 921.1 781.3 924.1 792.7 926.7 796.7 C 927.9 798.5 928 799.3 927 800.5 C 925.3 802.6 923.3 802.4 917 799.4 C 904.8 793.8 896.6 785.2 889.1 770.5 C 885.1 762.8 877.8 742.2 876.5 734.9 C 875.8 731 873 728.3 857.5 716.5 C 845.9 707.7 837.3 703.6 829.8 703.3 C 826.6 703.2 824 703.3 824 703.6 C 824 703.8 826.3 707.7 829.1 712.3 C 838.9 728.1 848.9 738.5 859.7 743.9 C 862 745 864.1 746.4 864.4 746.8 C 865.3 748.4 862.1 751.8 859 752.5 C 857.3 752.9 856 753.5 856 753.8 C 856 756.2 863.3 766.5 868.7 771.8 C 875.7 778.7 876.3 780.9 871.5 782.4 C 864.2 784.5 864.2 784.3 871.1 789.5 C 874.6 792.1 880.3 795.6 883.8 797.3 C 887.3 798.9 890.4 800.9 890.7 801.6 C 891.3 803.3 889.4 805.7 885.7 808.1 L 882.8 809.8 L 889.2 814.9 C 892.6 817.7 898.5 821.6 902.3 823.6 C 907.9 826.5 909.1 827.6 908.8 829.3 C 908.2 833.7 891.6 839 878.4 839 L 872.9 839 L 879 846.7 C 897.9 870.8 899.2 872.8 898.1 874.7 C 897.2 876.2 898.8 878.2 909.8 888.7 C 921.5 899.9 922.4 901 921.3 902.9 C 920.6 904 920 905.1 920 905.3 C 920 905.5 925 909.6 931.1 914.5 C 940.7 922.1 942.1 923.6 941.7 925.7 C 941.3 927.8 942.6 929.3 949.9 935.6 C 954.6 939.7 960.8 944.2 963.7 945.6 L 968.8 948.1 L 988.2 944 C 1016.2 938 1014.3 938.7 1017.7 933.2 C 1019.9 929.7 1022.1 927.7 1025.6 925.9 C 1031.3 923.2 1041.4 922.2 1047.7 923.9 C 1053.9 925.6 1061.1 930.9 1064.7 936.5 C 1066.5 939.2 1069.5 943.6 1071.5 946.2 C 1077.9 954.6 1079.5 959.4 1079.5 969.5 C 1079.4 977.2 1079 979.4 1076.6 984.6 C 1073.5 991.4 1067 998.6 1064.7 997.7 C 1063.9 997.4 1062.3 994.4 1061.1 991 C 1060 987.5 1057.9 983.3 1056.5 981.4 L 1054 978.1 L 1044.2 978.7 C 1035.4 979.2 1034 979.1 1030 977 C 1027.5 975.8 1024.8 974.2 1024 973.4 C 1022.6 972.3 1021.5 972.4 1016.2 974.6 C 1012.7 976 1008 977.4 1005.8 977.8 L 1001.6 978.5 L 1006.6 982.1 C 1018.6 990.7 1020.6 991.5 1031 991.5 C 1038.8 991.5 1041.2 991.9 1044.5 993.7 C 1049.7 996.4 1052.4 999.5 1054.8 1005 C 1059 1014.6 1058.5 1025.4 1053.6 1033 C 1052.3 1034.9 1051 1038.7 1050.7 1041.4 C 1049 1053.5 1038.7 1063 1025 1064.9 C 1020.7 1065.4 1018.5 1065.3 1017.3 1064.5 C 1015.7 1063.3 1015.7 1062.9 1017.3 1058 C 1020.3 1048.6 1019.1 1043 1012.9 1038.1 C 1008.4 1034.4 1006.4 1031 1004.9 1024.1 L 1003.9 1019.2 L 995.7 1016.5 C 991.2 1015 984.2 1012 980.1 1009.8 C 973 1006 972.7 1005.9 973.3 1008.1 C 973.6 1009.4 974.4 1013.1 975 1016.2 C 976.1 1021.1 976.6 1022 978.4 1022 C 981.7 1022 991.2 1028.1 993.7 1031.9 C 996.8 1036.5 998 1041.3 998 1049.1 C 998 1057.9 995.7 1064.4 991.4 1067.6 C 989.5 1069.1 988 1070.9 988 1071.7 C 988 1074 984.4 1080.3 981.3 1083.2 C 973.7 1090.5 959.1 1092.5 948.6 1087.7 C 944.4 1085.8 943 1084.6 943 1083 C 943 1081.9 943.7 1080.7 944.5 1080.4 C 946.7 1079.5 950.7 1072.3 951.9 1067 C 952.8 1062.8 952.7 1062.3 950 1059.5 C 948.4 1057.8 946.6 1055.2 946.1 1053.7 C 944.7 1050.2 944.7 1042.6 945.9 1038.2 C 946.8 1035.2 946.5 1034.3 943.6 1030.2 C 939 1023.8 935.8 1017.1 932.6 1007.3 L 929.8 999 L 927 1000.5 C 925.4 1001.3 922.1 1002 919.6 1002 C 915.3 1002 915.1 1002.2 913 1006.5 C 911.8 1009 908.8 1012.7 906.4 1014.8 C 902.7 1017.8 902 1019 902 1022 C 902 1027.2 903.8 1032.6 906.6 1036 C 911.1 1041.2 909.8 1042.5 900 1042.5 C 890.1 1042.4 884.7 1040.4 878.6 1034.2 C 875 1030.7 870 1022.4 870 1020 C 870 1019.4 868.4 1017.6 866.5 1015.9 C 861.1 1011.1 857.8 1003.4 857.8 995.3 C 857.7 979.9 864.8 972.7 881.8 971.1 C 891.2 970.2 898.5 967.8 900 965 C 901.4 962.4 899.6 959.8 881.8 938.3 C 849.1 898.6 833.1 880.6 819.9 868.9 L 813 862.8 L 806.8 869.3 C 803.3 872.8 797.8 877.5 794.4 879.7 C 787.9 883.9 777.2 887.7 774.6 886.7 C 772.6 885.9 772.5 882.1 774.5 879.3 C 776.7 876.1 778.6 870.3 779.5 864.1 C 780.2 859 780.1 858.9 778.2 859.9 C 775.4 861.4 771.3 861.3 770.7 859.7 C 770.4 859 770.6 854.4 771.1 849.6 C 772.9 832.2 768.8 813.5 759.3 796 C 753.3 784.9 740.7 766.4 740.2 767.9 C 739.5 770 742 794.7 744.1 807.3 C 747 824.3 752.2 842.3 758.6 857.7 C 761.7 865.1 763.9 871.8 763.6 872.7 C 762.8 874.7 757 873.9 748.6 870.5 C 745.3 869.2 742.4 868.3 742.1 868.5 C 741.3 869.4 744.1 877.3 748.1 885.7 C 753.3 896.5 760 903.3 767.5 905.6 C 773.6 907.3 777.2 906.9 783.7 903.8 C 786 902.6 788.5 902 789.4 902.3 C 791.5 903.1 793.3 910.4 793.2 918.2 C 793.2 923.2 792.5 926.3 790.5 930.9 C 784.3 944.7 770.9 951.5 755.1 949.1 C 751.3 948.5 747.4 947.7 746.5 947.4 C 743 946 749.2 955.4 757 963.2 C 767.1 973.4 776.6 978.1 787.9 978.8 C 796.8 979.3 802.7 977.9 807 974.4 C 811.5 970.5 812.4 968.4 813 959 L 813.5 950.5 L 818.3 950.7 C 824.2 950.9 834.3 955.4 839.9 960.5 C 844.8 964.9 849.6 974.5 850.5 981.6 C 852 993.2 846.6 1007.5 837.5 1016.6 C 831.8 1022.4 831.3 1023 833 1023 C 833.6 1023 836.7 1024.6 839.8 1026.6 C 855.5 1036.5 863.1 1049.8 863.3 1067.5 C 863.6 1092.1 845.7 1114.7 821.9 1120 C 812.5 1122.1 797.2 1120.9 786.8 1117.3 C 770 1111.5 752.4 1099.3 740 1084.8 C 736.4 1080.7 733.4 1077.8 733.3 1078.4 C 733.2 1079 732.6 1086.6 732 1095.3 C 729.5 1131.6 723.5 1149.8 707 1170.5 C 703.1 1175.4 701.2 1177 699.7 1176.8 C 696.9 1176.4 685.1 1160.8 680.6 1151.6 C 673.5 1137.2 669.6 1117.8 668.2 1091.2 L 667.5 1076.9 L 661.3 1084.3 C 647.7 1100.6 625.2 1115.1 606.8 1119.5 C 599.5 1121.2 584.6 1121.4 578 1119.9 C 558.5 1115.5 541.6 1097.4 538 1077 C 534.3 1056.4 544.3 1036 563.4 1025.1 L 568.7 1022.1 L 563 1016.2 C 547.6 1000.4 545.8 977.1 558.9 962.8 C 564.3 956.9 571.6 952.7 579.6 950.9 C 587.4 949.1 587.9 949.6 587.8 958.3 C 587.7 972.3 594.8 979 609.8 979 C 625 979 641.1 969.6 651.1 954.9 C 655.2 948.8 656 946.4 653.4 947.4 C 652.6 947.7 648.9 948.4 645.4 949 C 637.8 950.2 630.2 949.2 624.2 946.1 C 619.2 943.6 612.4 936 609.7 930.2 C 605.8 921.6 607.7 902 612.4 902 C 613.2 902 615.6 903 617.7 904.2 C 620.4 905.8 623 906.5 627 906.4 C 637 906.4 644.9 900.2 651.4 887.3 C 654.9 880.2 658.7 869.4 657.9 868.5 C 657.6 868.3 654.6 869.2 651.1 870.6 C 647.7 872 643 873.2 640.7 873.3 C 636.8 873.5 636.5 873.3 636.6 871 C 636.7 869.6 639.3 862.4 642.4 855 C 648.9 839.2 654 821.1 656.9 803.8 C 659.1 790.7 661.4 768.1 660.7 767.3 C 659.9 766.6 648.7 782.8 643.1 792.6 C 632.4 811.5 628.3 828.2 629.4 848.3 C 630.1 858.8 629.9 860.1 628.4 860.7 C 627.5 861 625.4 860.8 623.9 860.3 C 621.2 859.2 621 859.3 621 861.8 C 621 865.7 623.4 873.8 626 879.1 C 629.1 885.4 628.3 887.4 622.8 886.7 C 614.8 885.6 604.2 879.4 595.3 870.5 L 587.2 862.3 L 573.3 876.4 C 553.4 896.5 535.7 916.3 505.8 952.1 C 494.5 965.5 493.1 968.1 496 971 C 498.4 973.4 500.3 973.8 511.6 974.3 C 519 974.5 521.7 975.1 525.6 977.1 C 537.3 983.1 540 997.3 531.6 1008.3 C 529.5 1011 527.9 1014.7 527.2 1018.4 C 525.7 1025.6 522.2 1031.8 517.3 1035.9 C 510.5 1041.5 496.5 1045.3 490.8 1043.1 C 487.4 1041.8 487.3 1040 490.4 1036.3 C 493.9 1032 494.9 1029.7 495.5 1023.9 C 496.1 1018.5 496.1 1018.5 492.2 1015.8 C 489.8 1014.1 487.1 1010.9 485.4 1007.5 C 482.6 1002.1 482.4 1002 478.2 1002 C 475.8 1002 472.6 1001.3 471 1000.5 C 467.7 998.8 467.9 998.4 465 1007.5 C 461.7 1017.7 458.5 1024.6 454.6 1029.9 L 451.1 1034.6 L 452.2 1041.1 C 453.5 1049 452.2 1054.5 447.9 1059.4 C 445.1 1062.7 445 1063 446 1067.5 C 447.3 1073.4 449.1 1076.8 452.4 1079.9 C 453.8 1081.3 455 1083 455 1083.7 C 455 1084.5 452.5 1086.3 449.4 1087.7 C 439.9 1092 425.7 1090.8 418.3 1085 C 414.5 1082 411.1 1077.1 410 1072.9 C 409.4 1070.8 408 1068.8 406.5 1068 C 402.3 1065.8 399.6 1058.8 399.6 1050.1 C 399.6 1040.3 401.3 1034.8 405.6 1030 C 409.1 1026.2 416.4 1022 419.8 1022 C 421.2 1022 421.8 1020.7 422.8 1015.2 C 423.4 1011.4 424.3 1007.5 424.7 1006.5 C 425.3 1004.7 425.2 1004.8 422.4 1006.7 C 417.6 1010.1 408 1014.6 400.3 1017.1 C 394.7 1018.9 393 1019.8 393 1021.3 C 393 1027.4 390.5 1032.6 385.2 1037.8 C 380 1042.7 379.6 1043.4 379.2 1048.6 C 378.9 1052.3 379.3 1055.5 380.5 1058.7 C 382.2 1063.2 382.2 1063.4 380.4 1064.7 C 375.7 1068.1 360.4 1062.5 353.5 1054.7 C 349.3 1050.1 346 1042.6 346 1037.7 C 346 1036.7 345.2 1034.6 344.1 1033.2 C 339.7 1026.8 338.8 1014.2 342.3 1005.9 C 346.7 995.3 359.3 988.8 370 991.7 C 372.9 992.5 374.3 992.3 378.5 990.2 C 385.5 986.7 396.2 979.9 395.6 979.3 C 395.3 979 393 978.4 390.5 977.9 C 387.9 977.4 383.7 975.9 381 974.6 L 376.1 972.1 L 370.3 975.6 L 364.5 979.2 L 354.3 978.7 L 344 978.1 L 341.4 981.6 C 339.9 983.5 337.7 987.8 336.5 991.3 C 333.7 999.1 331.6 999.7 327.1 994.3 C 325.3 992.2 322.7 988 321.2 985 C 318.8 980.1 318.5 978.4 318.5 969 C 318.5 957.4 319.8 953.8 326.3 946.2 C 328.1 944.2 330.4 940.8 331.5 938.7 C 340.1 921.6 366.7 917.6 378.8 931.5 C 380.6 933.5 382 935.7 382 936.5 C 382 938.2 381 937.9 407.2 943.5 L 428.8 948.2 L 433.2 946.2 C 439.8 943.3 457.1 928.9 455.9 927.4 C 454.2 925.3 456.5 922.5 467.3 913.9 C 472.9 909.3 477.7 905.4 478 905.2 C 478.3 904.9 477.9 904.5 477.3 904.3 C 474.2 903.2 476.8 899.5 488.5 888.2 C 495.4 881.5 500.5 875.8 500 875.5 C 497.8 874.2 499.5 871.3 511.5 855.7 L 524 839.5 L 514.7 838.3 C 500.8 836.6 490.3 832.1 491.6 828.5 C 491.9 827.8 495.8 825.1 500.3 822.5 C 504.8 820 510.5 816.2 512.9 814.1 L 517.2 810.2 L 513.5 806.8 C 511.2 804.7 509.9 802.7 510.2 801.8 C 510.5 801 513.7 798.9 517.1 797.2 C 524.8 793.4 535 786 535 784.2 C 535 783.6 533.8 783 532.4 783 C 529.1 783 526 781.3 526 779.5 C 526 778.6 528.8 775.2 532.3 771.7 C 537.5 766.6 545 756 545 753.7 C 545 753.4 543.7 752.9 542.1 752.5 C 538.6 751.8 535.7 748.8 536.5 746.9 C 536.8 746.1 539.4 744.3 542.3 743 C 549.9 739.4 561.1 728.2 569.1 716.2 C 572.9 710.6 576 705.3 576 704.5 C 576 703.5 574.6 703.2 570.3 703.3 C 562.7 703.6 554.2 707.7 542.4 716.6 C 524.9 729.9 525.5 729.2 521.6 742.2 C 511.4 775.7 501.1 791 482.9 799.5 C 476.7 802.4 474.7 802.6 473.1 800.6 C 472.1 799.5 472.3 798.3 473.9 795.1 C 476.6 789.9 478.5 782.5 481 767.9 C 483.8 751.7 483.5 750.9 479.1 763.5 C 469.1 792.4 455 820.3 441.1 838.5 C 431.8 850.9 417.6 864 413.6 864 C 408.2 864 401.7 839.4 398.9 808.5 C 398.2 801.3 397.7 783.7 397.6 769.3 C 397.5 754.9 397.4 743.2 397.4 743.3 C 397.3 743.4 392.4 750.2 386.5 758.5 C 366.8 786.1 357.1 795.8 341.5 803.4 C 326.6 810.7 312.9 811.9 301.9 806.8 C 294.9 803.6 292.7 801.5 294 799 C 294.5 798 296.1 796.9 297.6 796.6 C 303.8 795 315.9 780.7 330.2 758 C 341.9 739.3 364.4 701 363.9 700.5 C 363.6 700.3 359.4 704.8 354.5 710.6 C 334 734.8 306.7 758.3 288 768 C 278.4 772.9 266 777 260.8 777 C 256.9 777 256.5 774.5 257.9 755.1 C 260.7 714.6 273.6 675.4 297 636.2 C 300.4 630.5 303 625.6 302.7 625.4 C 302.5 625.2 296.3 627.9 288.9 631.4 C 256.8 646.9 234.2 651.2 217.5 644.9 C 209.6 642 199.9 632.4 194.6 622.2 C 189.2 611.7 189.2 611.6 203 611.5 C 213.2 611.4 215.6 611 224.5 608 C 239.5 602.9 296.4 574 288.5 575.4 C 286.9 575.7 280.1 577.1 273.6 578.4 C 267 579.8 257.2 581.4 251.7 582.1 C 239.2 583.5 216.5 582.8 208.7 580.6 C 199.3 578 188 572.8 188 571 C 188 570.2 189.9 566.1 192.3 561.9 C 204.5 540.4 223.4 522.7 250.7 507.3 C 256.3 504.1 260.6 501.2 260.2 500.9 C 259.8 500.6 255 499.7 249.5 499.1 C 202.7 493.3 189 483.9 190.2 458.5 C 190.4 452.7 190.8 451.5 192.3 451.2 C 193.4 451 195.4 451.9 196.8 453.3 C 202.5 458.7 217.8 460.8 242.4 459.5 C 250.5 459.1 256.9 458.6 256.7 458.4 C 256.5 458.1 253.5 457.5 250 456.9 C 234.6 454.4 212.8 445.6 202.5 437.5 C 196.9 433.2 190 425.7 190 423.9 C 190 422.5 192.8 420.2 200.4 415.5 C 210.5 409.2 224.9 403.5 240.3 399.6 L 253.1 396.3 L 249.3 393.5 C 235 382.9 224.7 371 220.9 361.1 C 219.3 356.9 218.8 353.4 218.9 347 C 219 335.4 220 331.5 222.7 331.5 C 224.1 331.5 225.7 332.8 227.2 335 C 230.1 339.3 240.1 346 249.5 349.9 C 256.7 352.9 274 358.3 274.6 357.7 C 274.8 357.5 271.6 355 267.5 352.1 C 259.2 346.1 244.2 331.2 239 323.5 C 234.9 317.5 231.1 308.5 231 304.7 C 231 301.2 232.9 300.4 245.7 299 C 258.4 297.6 274.4 299.2 291.3 303.5 L 294.2 304.3 L 290.6 299.6 C 284.6 291.7 279.3 281.9 276.4 273.5 C 271.5 259.4 272.9 236.8 278.7 234.6 C 280.8 233.8 281.5 234.4 286.2 241.3 C 291.1 248.5 301 258.6 309.8 265.3 C 313.2 268 316 269.9 316 269.7 C 316 269.4 313.5 265.2 310.4 260.4 C 297.8 240.4 289 219 288.7 207.7 C 288.5 201.9 288.6 201.7 291.4 200.9 C 295.8 199.7 310.5 201.8 320.1 205 C 328.5 207.8 346.6 216.4 357.9 223 C 360.8 224.8 363.1 225.8 362.9 225.3 C 362.7 224.9 359.1 219.3 354.8 213 C 346 199.7 339.2 186.5 335.5 175.7 C 332.7 167.3 332.4 164 334.2 162.2 C 335.7 160.7 336.6 160.7 350.5 162 Z"
        fill="#000000"
        stroke="#00000000"/>
</svg>
