<?xml version="1.0" encoding="UTF-8" ?>
<svg width="360pt" height="360pt" viewBox="0 0 360 360" version="1.1" xmlns="http://www.w3.org/2000/svg">
<path fill="#030504" opacity="1.00" d=" M 162.05 36.06 C 180.37 35.94 198.69 36.01 217.01 36.02 C 234.95 36.14 252.36 46.05 261.75 61.30 C 271.27 76.04 272.67 95.58 265.57 111.60 C 259.40 125.64 247.11 136.94 232.41 141.47 C 221.37 145.39 209.50 143.53 198.06 144.05 C 197.94 183.04 198.02 222.03 198.01 261.01 C 197.89 272.33 205.89 282.99 216.58 286.47 C 224.87 289.68 234.43 287.50 241.46 282.39 C 248.33 277.21 252.27 268.56 252.00 260.00 C 251.73 234.15 247.01 208.31 237.79 184.15 C 237.42 183.11 237.14 182.05 236.95 180.97 C 240.04 181.31 242.99 182.28 246.00 183.00 C 255.89 185.46 265.78 187.96 275.67 190.39 C 276.78 190.73 278.42 190.87 278.56 192.36 C 284.97 215.66 288.20 239.85 287.96 264.02 C 287.30 282.89 277.26 300.95 262.01 311.96 C 245.73 323.98 223.48 327.21 204.40 320.54 C 196.56 317.77 189.18 313.58 183.06 307.92 C 182.08 307.07 181.14 306.15 179.98 305.57 C 178.09 306.30 176.90 308.10 175.36 309.33 C 159.12 323.14 135.51 327.72 115.34 320.74 C 101.68 316.42 89.92 306.89 82.10 294.98 C 77.06 287.00 73.77 277.94 72.49 268.60 C 71.85 262.74 71.96 256.84 72.23 250.97 C 72.87 231.14 76.12 211.44 81.44 192.34 C 81.57 190.86 83.23 190.74 84.32 190.38 C 94.50 187.87 104.67 185.31 114.85 182.78 C 117.57 182.12 120.24 181.26 123.03 180.98 C 122.55 183.84 121.16 186.42 120.22 189.14 C 112.77 210.26 108.62 232.57 108.11 254.98 C 107.98 259.61 107.80 264.37 109.21 268.85 C 111.80 277.31 118.73 284.40 127.32 286.75 C 139.64 290.98 153.95 283.90 159.36 272.34 C 161.65 267.94 162.19 262.89 162.04 257.99 C 161.90 220.02 162.11 182.03 161.94 144.06 C 155.98 143.84 150.01 144.16 144.05 143.94 C 143.97 131.98 143.95 120.01 144.06 108.06 C 150.02 107.84 155.98 108.16 161.94 107.94 C 162.12 83.98 161.88 60.01 162.05 36.06 M 198.06 72.06 C 197.96 84.02 197.97 95.98 198.05 107.94 C 204.40 108.03 210.76 108.10 217.10 107.89 C 226.29 107.61 234.17 99.16 233.96 89.99 C 234.18 80.83 226.27 72.44 217.11 72.12 C 210.76 71.90 204.40 71.97 198.06 72.06 Z" />
</svg>
