<?xml version="1.0" encoding="utf-8"?>
<!-- Generator: Adobe Illustrator 24.2.0, SVG Export Plug-In . SVG Version: 6.00 Build 0)  -->
<svg version="1.1" id="Layer_1" xmlns="http://www.w3.org/2000/svg" xmlns:xlink="http://www.w3.org/1999/xlink" x="0px" y="0px"
	 viewBox="0 0 87.87 87.87" style="enable-background:new 0 0 87.87 87.87;" xml:space="preserve">
<style type="text/css">
	.st0{clip-path:url(#SVGID_2_);fill:#231F20;}
	.st1{clip-path:url(#SVGID_2_);fill:#010101;}
</style>
<g>
	<defs>
		<rect id="SVGID_1_" y="0" width="87.87" height="87.87"/>
	</defs>
	<clipPath id="SVGID_2_">
		<use xlink:href="#SVGID_1_"  style="overflow:visible;"/>
	</clipPath>
	<path class="st0" d="M39.64,77.1l-1.15,8.93c1.79,0.23,3.62,0.35,5.44,0.35c1.88,0,3.76-0.13,5.61-0.37l-1.18-8.92
		C45.49,77.47,42.51,77.47,39.64,77.1"/>
	<path class="st0" d="M69.8,10.28c-2.94-2.26-6.16-4.13-9.58-5.55l-3.46,8.31c2.69,1.12,5.23,2.59,7.55,4.37L69.8,10.28z"/>
	<path class="st0" d="M4.77,60.31c1.43,3.41,3.3,6.63,5.57,9.57l7.12-5.5c-1.79-2.31-3.26-4.85-4.39-7.53L4.77,60.31z"/>
	<path class="st0" d="M18.19,77.67c2.95,2.25,6.18,4.11,9.6,5.52l3.43-8.32c-2.69-1.11-5.24-2.57-7.56-4.35L18.19,77.67z"/>
	<path class="st0" d="M56.78,74.82l3.46,8.31c3.41-1.42,6.63-3.29,9.57-5.56l-5.49-7.13C62.01,72.23,59.47,73.7,56.78,74.82"/>
	<path class="st0" d="M86.02,38.39l-8.92,1.17c0.19,1.44,0.28,2.91,0.28,4.38c0,1.45-0.09,2.92-0.28,4.36l8.93,1.16
		c0.24-1.82,0.35-3.68,0.35-5.51C86.38,42.08,86.26,40.22,86.02,38.39"/>
	<path class="st0" d="M70.49,64.27l7.14,5.48c2.26-2.94,4.12-6.17,5.54-9.59l-8.32-3.44C73.74,59.41,72.27,61.95,70.49,64.27"/>
	<path class="st0" d="M83.16,27.69c-1.42-3.42-3.28-6.64-5.54-9.58l-7.14,5.48c1.78,2.32,3.25,4.86,4.37,7.55L83.16,27.69z"/>
	<path class="st0" d="M10.5,43.94c0-18.44,15-33.44,33.44-33.44c1.47,0,2.95,0.1,4.41,0.29l1.17-8.92C47.67,1.62,45.8,1.5,43.94,1.5
		C20.54,1.5,1.5,20.54,1.5,43.94c0,1.86,0.12,3.74,0.36,5.58l8.92-1.18C10.59,46.89,10.5,45.41,10.5,43.94"/>
	<path class="st1" d="M51.17,41.11h7.09c1.31,0,2.38-1.07,2.38-2.38c0-1.31-1.07-2.38-2.38-2.38h-8.52c-0.01,0-0.02,0-0.03,0
		c-0.92,0.78-2.24,2.01-2.75,4.18c-0.31,1.31-2.14,8.27-8.68,8.07c-0.21-0.01-0.41-0.01-0.62-0.02c-0.83-0.05-1.46-0.75-1.41-1.58
		c0.05-0.83,0.77-1.43,1.58-1.41c0.63,0.04,1.21-0.02,1.74-0.13c0.61-0.15,1.18-0.39,1.7-0.7c1.14-0.77,1.96-2.05,2.45-3.9
		c1.36-5.16,4.44-7.3,5.97-8.08c0.5-0.57,1.04-1.37,1.66-2.67c0.97-2.03,0.9-6.02-0.94-7.01c-0.65-0.35-1.44-0.12-1.8,0.53
		c0,0-1.87,3.51-2.53,4.66c-2.69,4.78-8.25,6.26-10.25,8.2c-0.48,0.5-0.93,0.93-1.22,1.22h-7.55c-0.73,0-1.33,0.59-1.33,1.33v15.91
		c0,0.73,0.59,1.33,1.33,1.33h10.47c3.08,1.48,6.45,2.33,9.86,2.55c0.19,0.06,0.39,0.1,0.6,0.1h7.53c1.1,0,2.1-0.79,2.2-1.88
		c0.13-1.26-0.86-2.31-2.09-2.31h-5.88H49.1c-0.38,0-0.69-0.31-0.69-0.69s0.31-0.69,0.69-0.69h7.03c1.24,0,2.38-0.9,2.5-2.13
		c0.14-1.42-0.97-2.63-2.37-2.63h-6.5H49.1c-0.38,0-0.69-0.31-0.69-0.69c0-0.36,0.28-0.65,0.63-0.67h8.26c1.25,0,2.38-0.9,2.51-2.13
		c0.14-1.42-0.97-2.63-2.37-2.63h-6.27c-0.38,0-0.69-0.31-0.69-0.69C50.48,41.42,50.79,41.11,51.17,41.11 M47.74,54.77L47.74,54.77
		l0.04,0C47.77,54.77,47.75,54.77,47.74,54.77"/>
</g>
</svg>
