<?xml version="1.0" encoding="utf-8"?>
<!-- Generator: Adobe Illustrator 24.2.0, SVG Export Plug-In . SVG Version: 6.00 Build 0)  -->
<svg version="1.1" id="Layer_1" xmlns="http://www.w3.org/2000/svg" xmlns:xlink="http://www.w3.org/1999/xlink" x="0px" y="0px"
	 viewBox="0 0 87.87 87.87" style="enable-background:new 0 0 87.87 87.87;" xml:space="preserve">
<style type="text/css">
	.st0{clip-path:url(#SVGID_2_);fill:#231F20;}
	.st1{clip-path:url(#SVGID_2_);fill:#FFFFFF;}
</style>
<g>
	<defs>
		<rect id="SVGID_1_" y="0" width="87.87" height="87.87"/>
	</defs>
	<clipPath id="SVGID_2_">
		<use xlink:href="#SVGID_1_"  style="overflow:visible;"/>
	</clipPath>
	<path class="st0" d="M33.86,42.25c-0.04-0.01,0.48-2.09,1.05-2.53c0.57-0.43,1.44-1.13,2.39-1.01c0.95,0.12,2.41,0.34,1.66,1.9
		c-0.75,1.56-1.7,2.49-3.04,2.17C34.58,42.47,33.86,42.25,33.86,42.25"/>
	<path class="st0" d="M4.74,60.22c1.42,3.41,3.28,6.63,5.54,9.57l7.14-5.49c-1.78-2.32-3.25-4.85-4.37-7.54L4.74,60.22z"/>
	<path class="st0" d="M18.09,77.61c2.94,2.26,6.16,4.12,9.57,5.54l3.45-8.31c-2.69-1.12-5.22-2.58-7.54-4.37L18.09,77.61z"/>
	<path class="st0" d="M43.94,1.5C20.54,1.5,1.5,20.54,1.5,43.94c0,1.86,0.12,3.74,0.36,5.57l8.92-1.17
		c-0.19-1.45-0.29-2.93-0.29-4.4c0-18.44,15-33.44,33.44-33.44c18.44,0,33.44,15,33.44,33.44c0,18.44-15,33.44-33.44,33.44
		c-1.47,0-2.95-0.1-4.4-0.29l-1.17,8.92c1.84,0.24,3.71,0.36,5.57,0.36c23.4,0,42.44-19.04,42.44-42.44
		C86.38,20.54,67.34,1.5,43.94,1.5"/>
	<path class="st0" d="M62.89,44.64c-0.65-1.19-1.67-1.94-2.9-2.4c-2.94-1.1-5.74-0.7-8.3,1.07c-0.79,0.54-1.52,0.85-2.49,0.83
		c-1.51-0.03-2.85,0.52-3.99,1.53c-1.4,1.25-2.14,2.81-2.15,4.7c0,0.72-0.58,1.26-1.29,1.24c-0.67-0.02-1.26-0.61-1.2-1.26
		c0.15-1.55,0.47-3.06,1.19-4.46c0.77-1.48,1.86-2.65,3.38-3.38c1.11-0.54,2.29-0.8,3.52-0.85c0.57-0.02,1.13,0.02,1.63-0.39
		c0.19-0.15,0.28-0.28,0.28-0.52c0-0.55-0.06-1.13,0.08-1.65c0.48-1.84,1.03-3.66,1.56-5.48c0.68-2.39,1.38-4.77,2.04-7.16
		c0.29-1.04-0.32-2.03-1.37-2.3c-0.97-0.25-1.97,0.34-2.25,1.33c-0.66,2.31-1.29,4.62-2,6.91c-0.36,1.17-1.28,4-1.58,5
		c-0.19,0.62-0.65,0.49-0.79,0.49c-0.7-0.06-0.69-0.38-0.69-1.14c0-4.21,0-8.74,0-12.95c0-0.17,0-0.33-0.01-0.5
		c-0.05-0.56-0.3-1.01-0.76-1.34c-0.21-0.15-0.45-0.24-0.67-0.36h-0.81c-1.1,0.37-1.52,1.14-1.51,2.29
		c0.03,4.2,0.02,9.19,0.02,13.39c0,0.15-0.02,0.34-0.28,0.56c-0.21,0.19-0.52,0.16-0.74,0.1c-0.28-0.07-0.42-0.24-0.49-0.46
		c-0.14-0.49-1.84-5.99-2.2-7.25c-0.45-1.59-0.9-3.18-1.37-4.76c-0.32-1.05-1.35-1.6-2.36-1.29c-1.01,0.32-1.54,1.33-1.23,2.39
		c0.94,3.3,3.88,12.81,4.11,13.4c0.12,0.31-0.03,0.97-0.17,1.25c-0.15,0.29-0.44,0.47-0.74,0.57c-0.3,0.1-0.69,0.03-0.96-0.13
		c-0.15-0.08-0.26-0.19-0.35-0.32c-0.11-0.12-0.18-0.26-0.22-0.42c-0.15-0.38-0.3-0.76-0.45-1.14c-0.01-0.04-0.04-0.06-0.05-0.1
		l0.05,0.12c-0.02-0.04-0.04-0.09-0.06-0.13c0,0,0-0.01,0-0.01c-0.01-0.01-0.01-0.02-0.02-0.04c-0.06-0.14-0.12-0.29-0.17-0.43
		c-0.31,0.48-0.59,0.98-0.81,1.49c-0.04,0.1-0.11,0.18-0.17,0.26c-0.31,1.46-0.98,3.06-1.13,4.54c-0.15,1.48-0.2,5.05,0.94,7.52
		c0.07,0.14,0.1,0.32,0.1,0.47c0.01,3.15,0,6.29,0,9.44c0,0.89,0.5,1.38,1.4,1.38c4.9,0,9.79,0,14.69,0c0.93,0,1.43-0.49,1.43-1.42
		c0-1.52,0.01-3.04,0-4.56c-0.02-2.81,0.69-5.43,2.12-7.85c1.12-1.89,2.71-3.19,4.88-3.71c1.33-0.32,2.68-0.29,4.04-0.18
		c0.53,0.04,0.97-0.11,1.27-0.57C63.16,45.55,63.14,45.1,62.89,44.64"/>
	<path class="st1" d="M47.05,37.24c0,0.41-0.33,0.74-0.74,0.74c-0.41,0-0.74-0.33-0.74-0.74c0-0.41,0.33-0.74,0.74-0.74
		C46.72,36.5,47.05,36.83,47.05,37.24"/>
	<path class="st1" d="M41.8,37.36c0,0.41-0.33,0.74-0.74,0.74c-0.41,0-0.74-0.33-0.74-0.74c0-0.41,0.33-0.74,0.74-0.74
		C41.47,36.62,41.8,36.95,41.8,37.36"/>
	<path class="st1" d="M36.88,38.89c0,0.41-0.33,0.74-0.74,0.74c-0.41,0-0.74-0.33-0.74-0.74c0-0.41,0.33-0.74,0.74-0.74
		C36.55,38.15,36.88,38.48,36.88,38.89"/>
	<path class="st0" d="M35.5,41.7l-0.06,0.06c-0.67,0.67-1.76,0.67-2.43,0l-5.7-5.7c-0.67-0.67-0.67-1.76,0-2.43l0.06-0.06
		c0.67-0.67,1.76-0.67,2.43,0l5.7,5.7C36.16,39.94,36.16,41.03,35.5,41.7"/>
</g>
</svg>
