<?xml version="1.0" encoding="utf-8"?>
<!-- Generator: Adobe Illustrator 24.2.0, SVG Export Plug-In . SVG Version: 6.00 Build 0)  -->
<svg version="1.1" id="Layer_1" xmlns="http://www.w3.org/2000/svg" x="0px" y="0px"
	 viewBox="0 0 87.87 87.87" style="enable-background:new 0 0 87.87 87.87;" xml:space="preserve">
<style type="text/css">
	.st0{clip-path:url(#SVGID_2_);fill:#231F20;}
	.st1{clip-path:url(#SVGID_2_);fill:#010101;}
</style>
<g>
	<defs>
		<rect id="SVGID_1_" y="0" width="87.87" height="87.87"/>
	</defs>
	<clipPath id="SVGID_2_">
		<use xlink:href="#SVGID_1_"  style="overflow:visible;"/>
	</clipPath>
	<path class="st0" d="M43.94,1.5C20.54,1.5,1.5,20.54,1.5,43.94c0,23.4,19.04,42.44,42.44,42.44c23.4,0,42.44-19.04,42.44-42.44
		C86.38,20.54,67.34,1.5,43.94,1.5 M43.94,77.38c-18.44,0-33.44-15-33.44-33.44c0-18.44,15-33.44,33.44-33.44
		c18.44,0,33.44,15,33.44,33.44C77.38,62.37,62.37,77.38,43.94,77.38"/>
	<path class="st1" d="M37.31,31.76v6.63c0,1.1,0.89,1.99,1.99,1.99s1.99-0.89,1.99-1.99v-6.63c0-1.1-0.89-1.99-1.99-1.99
		S37.31,30.66,37.31,31.76"/>
	<path class="st1" d="M30.68,34.41v3.98c0,1.1,0.89,1.99,1.99,1.99c1.1,0,1.99-0.89,1.99-1.99v-3.98c0-1.1-0.89-1.99-1.99-1.99
		C31.57,32.42,30.68,33.31,30.68,34.41"/>
	<path class="st1" d="M34.66,64.43h15.91c0.74,0,1.33-0.58,1.33-1.33v-7.55c0.29-0.29,0.72-0.74,1.22-1.22
		c2.7-2.76,4.08-6.38,4.08-9.94c0-3.4-2.53-6.47-6.63-6.66h-5.3c-0.74,0-1.33,0.58-1.33,1.33c0,2.1,1.72,3.98,3.98,3.98h2.65
		c0.74,0,1.33,0.58,1.33,1.33c0,0.72-0.56,1.33-1.33,1.33c-3.66,0-6.63,2.97-6.63,6.63c0,0.74-0.58,1.33-1.33,1.33
		s-1.33-0.58-1.33-1.33c0-3,1.41-5.65,3.63-7.35c-1.23-0.62-2.2-1.65-2.84-2.89c-0.78,0.59-1.73,0.95-2.78,0.95
		c-1.3,0-2.47-0.54-3.32-1.4c-0.84,0.86-2.02,1.4-3.31,1.4c-0.68,0-1.32-0.15-1.9-0.42c0.2,3.47,1.06,6.89,2.57,10.02V63.1
		C33.33,63.84,33.91,64.43,34.66,64.43"/>
	<path class="st1" d="M54.76,19.65c-1.21-0.4-2.51,0.26-2.9,1.46l-2.98,11.84l-2.65-11.84c-0.4-1.21-1.7-1.86-2.9-1.46
		c-1.21,0.4-1.86,1.7-1.46,2.9l3.05,13.03h7.94l3.37-13.03C56.62,21.35,55.96,20.05,54.76,19.65"/>
</g>
</svg>
