<?xml version="1.0" encoding="UTF-8" standalone="no"?>
<!-- Created with Inkscape (http://www.inkscape.org/) -->

<svg
   xmlns:dc="http://purl.org/dc/elements/1.1/"
   xmlns:cc="http://creativecommons.org/ns#"
   xmlns:rdf="http://www.w3.org/1999/02/22-rdf-syntax-ns#"
   xmlns:svg="http://www.w3.org/2000/svg"
   xmlns="http://www.w3.org/2000/svg"
   xmlns:sodipodi="http://sodipodi.sourceforge.net/DTD/sodipodi-0.dtd"
   xmlns:inkscape="http://www.inkscape.org/namespaces/inkscape"
   width="32.469666mm"
   height="32.888306mm"
   viewBox="0 0 32.469666 32.888306"
   version="1.1"
   id="svg3280"
   inkscape:version="0.92.4 (5da689c313, 2019-01-14)"
   sodipodi:docname="sim_tropy.svg">
  <defs
     id="defs3274">
    <clipPath
       id="clipPath1065"
       clipPathUnits="userSpaceOnUse">
      <path
         inkscape:connector-curvature="0"
         id="path1063"
         d="m 117.839,711.502 h 92.04 v 93.227 h -92.04 z" />
    </clipPath>
  </defs>
  <sodipodi:namedview
     id="base"
     pagecolor="#ffffff"
     bordercolor="#666666"
     borderopacity="1.0"
     inkscape:pageopacity="0.0"
     inkscape:pageshadow="2"
     inkscape:zoom="2.8"
     inkscape:cx="77.66848"
     inkscape:cy="1.2717006"
     inkscape:document-units="mm"
     inkscape:current-layer="layer1"
     showgrid="false"
     fit-margin-top="0"
     fit-margin-left="0"
     fit-margin-right="0"
     fit-margin-bottom="0"
     inkscape:window-width="1920"
     inkscape:window-height="1027"
     inkscape:window-x="1912"
     inkscape:window-y="-8"
     inkscape:window-maximized="1" />
  <metadata
     id="metadata3277">
    <rdf:RDF>
      <cc:Work
         rdf:about="">
        <dc:format>image/svg+xml</dc:format>
        <dc:type
           rdf:resource="http://purl.org/dc/dcmitype/StillImage" />
        <dc:title></dc:title>
      </cc:Work>
    </rdf:RDF>
  </metadata>
  <g
     inkscape:label="Layer 1"
     inkscape:groupmode="layer"
     id="layer1"
     transform="translate(128.87174,-30.335608)">
    <g
       id="g1067"
       transform="matrix(0.35277777,0,0,-0.35277777,-112.63673,62.687975)">
      <path
         d="M 0,0 C -2.075,0 -4.019,0.814 -5.474,2.292 L -42.31,39.705 c -2.926,2.972 -2.926,7.807 0,10.779 l 36.836,37.413 c 1.455,1.478 3.399,2.292 5.474,2.292 2.074,0 4.019,-0.814 5.474,-2.292 L 42.31,50.484 c 2.925,-2.972 2.925,-7.807 0,-10.779 L 5.474,2.292 C 4.019,0.814 2.074,0 0,0"
         style="fill:#543097;fill-opacity:1;fill-rule:nonzero;stroke:none"
         id="path1069"
         inkscape:connector-curvature="0" />
    </g>
    <g
       id="g1071"
       transform="matrix(0.35277777,0,0,-0.35277777,-112.63684,30.335361)">
      <path
         d="m 0,0 c -2.484,0 -4.813,-0.975 -6.556,-2.746 l -36.836,-37.412 c -3.504,-3.56 -3.504,-9.351 0,-12.91 l 36.836,-37.414 c 1.743,-1.77 4.072,-2.745 6.556,-2.745 2.484,0 4.813,0.975 6.556,2.745 l 36.836,37.414 c 3.505,3.559 3.505,9.35 0,12.91 L 6.556,-2.746 C 4.813,-0.975 2.484,0 0,0 m 0,-3.038 c 1.592,0 3.184,-0.613 4.392,-1.839 L 41.228,-42.29 c 2.361,-2.399 2.361,-6.249 0,-8.647 L 4.392,-88.351 c -1.208,-1.225 -2.8,-1.838 -4.392,-1.838 -1.592,0 -3.184,0.613 -4.391,1.838 l -36.837,37.414 c -2.361,2.398 -2.361,6.248 0,8.647 l 36.837,37.413 c 1.207,1.226 2.799,1.839 4.391,1.839"
         style="fill:#302359;fill-opacity:1;fill-rule:nonzero;stroke:none"
         id="path1073"
         inkscape:connector-curvature="0" />
    </g>
    <g
       id="g1075"
       transform="matrix(0.35277777,0,0,-0.35277777,-117.89735,46.488596)">
      <path
         d="M 0,0 C -0.063,0.472 -0.123,0.946 -0.179,1.415 -0.144,0.934 -0.079,0.464 0,0"
         style="fill:#f4bd18;fill-opacity:1;fill-rule:nonzero;stroke:none"
         id="path1077"
         inkscape:connector-curvature="0" />
    </g>
    <g
       id="g1107"
       transform="matrix(0.35277777,0,0,-0.35277777,-97.467745,46.779603)">
      <path
         d="m 0,0 c 0,-1.563 -0.591,-3.124 -1.772,-4.323 l -36.836,-37.414 c -1.207,-1.226 -2.799,-1.839 -4.391,-1.839 v -3.037 c 2.485,0 4.813,0.975 6.556,2.745 L 0.394,-6.455 C 2.145,-4.675 3.022,-2.338 3.022,0 Z"
         style="fill:#302359;fill-opacity:1;fill-rule:nonzero;stroke:none"
         id="path1109"
         inkscape:connector-curvature="0" />
    </g>
    <g
       id="g1111"
       transform="matrix(0.35277777,0,0,-0.35277777,-112.63684,31.4071)">
      <path
         d="m 0,0 c 1.592,0 3.184,-0.613 4.392,-1.839 l 36.836,-37.413 c 1.181,-1.199 1.771,-2.761 1.771,-4.323 h 3.022 c 0,2.337 -0.877,4.675 -2.629,6.455 L 6.556,0.292 C 4.813,2.063 2.484,3.038 0,3.038 Z"
         style="fill:#302359;fill-opacity:1;fill-rule:nonzero;stroke:none"
         id="path1113"
         inkscape:connector-curvature="0" />
    </g>
    <g
       id="g1115"
       transform="matrix(0.35277777,0,0,-0.35277777,-127.18095,45.254333)">
      <path
         d="m 0,0 36.836,37.413 c 1.207,1.226 2.799,1.839 4.392,1.839 v 3.038 c -2.485,0 -4.814,-0.975 -6.557,-2.746 L -2.165,2.132 c -1.752,-1.78 -2.628,-4.118 -2.628,-6.455 h 3.022 c 0,1.562 0.59,3.124 1.771,4.323"
         style="fill:#302359;fill-opacity:1;fill-rule:nonzero;stroke:none"
         id="path1117"
         inkscape:connector-curvature="0" />
    </g>
    <g
       id="g1119"
       transform="matrix(0.35277777,0,0,-0.35277777,-114.18595,61.503418)">
      <path
         d="m 0,0 -36.836,37.413 c -1.181,1.199 -1.772,2.761 -1.772,4.324 h -3.022 c 0,-2.338 0.877,-4.676 2.629,-6.455 L -2.165,-2.131 c 1.743,-1.771 4.072,-2.746 6.556,-2.746 v 3.038 C 2.799,-1.839 1.207,-1.226 0,0"
         style="fill:#302359;fill-opacity:1;fill-rule:nonzero;stroke:none"
         id="path1121"
         inkscape:connector-curvature="0" />
    </g>
  </g>
</svg>
