<svg xmlns="http://www.w3.org/2000/svg" viewBox="0 0 177.93 180.23"><defs><clipPath id="A"><path d="M0 0h177.93v180.23H0z" fill="none"/></clipPath></defs><g clip-path="url(#A)"><g clip-path="url(#A)"><path d="M89,177.29a14.72,14.72,0,0,1-10.58-4.43L7.17,100.53a14.92,14.92,0,0,1,0-20.83L78.39,7.37a14.85,14.85,0,0,1,21.16,0L170.76,79.7a14.9,14.9,0,0,1,0,20.83L99.55,172.86A14.72,14.72,0,0,1,89,177.29" fill="#5d2f88"/><path d="M89,5.87a11.89,11.89,0,0,1,8.49,3.56l71.21,72.33a11.9,11.9,0,0,1,0,16.71L97.46,170.8a11.93,11.93,0,0,1-17,0L9.27,98.47a11.9,11.9,0,0,1,0-16.71L80.48,9.43A11.87,11.87,0,0,1,89,5.87M89,0A17.63,17.63,0,0,0,76.29,5.31L5.08,77.64a17.86,17.86,0,0,0,0,25l71.21,72.33a17.78,17.78,0,0,0,25.35,0l71.22-72.33a17.86,17.86,0,0,0,0-25L101.64,5.31A17.63,17.63,0,0,0,89,0" fill="#382259"/><path d="M84.19,85.16a16.1,16.1,0,0,1-19.34-2.61l18.4-18.4H74.33a23.48,23.48,0,0,0-16.73,7H36.81L22.93,85a7.24,7.24,0,0,0,0,10.23l13.59,13.58H49.1l17.22,12.84a4.93,4.93,0,1,0,7-7l7,7a4.93,4.93,0,1,0,7-7l7,7a4.93,4.93,0,0,0,7-7l7,7a4.93,4.93,0,0,0,7-7L85.48,85.06l-.4-.4Z" fill="#fff"/><g fill="#f8c409"><path d="M155 85l-16.39-16.39H124.1l-7.84-7.84a20.94 20.94 0 0 0-29.63 0l-3.38 3.38-18.4 18.4a16.1 16.1 0 0 0 19.34 2.61l.89-.5 4-2.28h0L98 77.32l1.74 1.75a9.89 9.89 0 0 0 13.94 0l3.49 3.48a14.83 14.83 0 0 1-20.91 0l-4.88 2.09 27.53 27.53 11.19-4.61h12.61L155 95.23A7.24 7.24 0 0 0 155 85m17.85-7.36L101.64 5.31a17.78 17.78 0 0 0-25.35 0L5.08 77.64A17.7 17.7 0 0 0 0 90.11h5.84a11.82 11.82 0 0 1 3.43-8.35L80.48 9.43a11.9 11.9 0 0 1 17 0l71.21 72.33a11.92 11.92 0 0 1 0 16.71L97.46 170.8a11.91 11.91 0 0 1-8.46 3.56v5.87a17.67 17.67 0 0 0 12.67-5.31l71.21-72.33a17.83 17.83 0 0 0 0-25"/></g><path d="M80.48,170.8,9.27,98.47a11.86,11.86,0,0,1-3.43-8.36H0a17.72,17.72,0,0,0,5.08,12.48l71.21,72.33A17.67,17.67,0,0,0,89,180.23v-5.87a11.87,11.87,0,0,1-8.49-3.56" fill="#382259"/></g></g></svg>