<svg xmlns="http://www.w3.org/2000/svg" viewBox="0 0 177.93 180.23"><defs><clipPath id="A"><path d="M0 0h177.93v180.23H0z" fill="none"/></clipPath><path id="B" d="M9.27,81.76,80.48,9.43A11.87,11.87,0,0,1,89,5.87V0A17.63,17.63,0,0,0,76.29,5.31L5.08,77.64A17.7,17.7,0,0,0,0,90.11H5.84a11.82,11.82,0,0,1,3.43-8.35"/></defs><g clip-path="url(#A)"><g clip-path="url(#A)"><path d="M89,177.29a14.72,14.72,0,0,1-10.58-4.43L7.17,100.53a14.93,14.93,0,0,1,0-20.84L78.39,7.37a14.85,14.85,0,0,1,21.16,0l71.21,72.32a14.91,14.91,0,0,1,0,20.84L99.55,172.86A14.72,14.72,0,0,1,89,177.29" fill="#5d2f88"/><path d="M89,5.87a11.89,11.89,0,0,1,8.49,3.56l71.21,72.33a11.9,11.9,0,0,1,0,16.71L97.46,170.8a11.93,11.93,0,0,1-17,0L9.27,98.47a11.9,11.9,0,0,1,0-16.71L80.48,9.43A11.87,11.87,0,0,1,89,5.87M89,0A17.63,17.63,0,0,0,76.29,5.31L5.08,77.64a17.86,17.86,0,0,0,0,25l71.21,72.33a17.78,17.78,0,0,0,25.35,0l71.22-72.33a17.86,17.86,0,0,0,0-25L101.64,5.31A17.63,17.63,0,0,0,89,0" fill="#382259"/><g fill="#f8c409"><path d="M125.39 71.56l4.94.21a1.48 1.48 0 0 0 1.51-1.44c0-.82-1.76-2.9-2.72-2.79a20.11 20.11 0 0 0-3.62 1.25s-8.61-1.93-13.48-.86c-.07 0-1.74-.33-4-.74l-6.61 4.33zm-61.11-3.63c-4.87-1.07-13.48.86-13.48.86a20.23 20.23 0 0 0-3.61-1.25c-1-.11-2.75 2-2.73 2.79h0A1.48 1.48 0 0 0 46 71.77l4.94-.21h24l-6.61-4.33-4 .74M78 93.25c-3.11 3.33-6.34 7.29-8.08 9.53h0a415.1 415.1 0 0 1-2.66 3c-1.91 1.77-5.58 5.19-7.54 8.2l-4.86 8a3.37 3.37 0 0 0-.9.71c-.31.33-.68 1.1-.75 1L50 125.26a1.07 1.07 0 0 0-.56 1.26 3.66 3.66 0 0 0 1.46 1.93l.74.48a.87.87 0 0 0 1.12-.15l18.44-19.17c.45-.34 3.68-3.31 7-6.39a85.81 85.81 0 0 1-.18-10m20.67 10.92l6.08 5.19c1.33 1.6 5 6.1 8.2 8.37l9.67 7.81a8.06 8.06 0 0 0 1.45 2.45.69.69 0 0 0 1 .06l5.76-5.62a.81.81 0 0 0-.18-1.28.82.82 0 0 0-.67-.12l-5.39 1.53c-.07-.12-11.69-12.51-16-17-.79-.83-1.74-1.93-2.56-2.93h0c-1.85-2.27-4.55-5.48-7.51-8.49a81.24 81.24 0 0 1 .07 10"/></g><path d="M95.31 89l-.22-1c-1.13-5.56-.32-8.2-.19-8.82l.44-2 1.26-5.49 25.84-16.9 4.24-2.53a1.48 1.48 0 0 0 .47-2 4.39 4.39 0 0 0-2.91-1.06 1.4 1.4 0 0 0-.9.24 20.52 20.52 0 0 0-2.34 3s-8.25 3.12-11.73 6.68c-.15.15-11.3 4.44-14.69 7.2l-4.27-1.1V63l.17-.11a4.22 4.22 0 0 0 1.81-3l.35-2.6a4.07 4.07 0 0 0 .15-.86A5.09 5.09 0 0 0 93 55a4.94 4.94 0 1 0-9.87 0 5.34 5.34 0 0 0 .37 2 4.93 4.93 0 0 0 .26.95l.44 2.27a4.48 4.48 0 0 0 1.8 2.71v2.22l-4.24 1.1c-3.39-2.76-14.54-7-14.69-7.2-3.48-3.56-11.73-6.68-11.73-6.68a20.52 20.52 0 0 0-2.34-3 1.4 1.4 0 0 0-.9-.24 4.39 4.39 0 0 0-2.91 1.06h0a1.48 1.48 0 0 0 .48 2l4.24 2.53L79.7 71.64l1.3 5.5.43 2a.53.53 0 0 0 .08.17c.18.64.62 1.93-.11 8.65l-.1 1c-1.56 3.19-.5 15.9.07 21h0c0 .31.14 2.89.2 4-.13 2.61-.37 7.62.33 11.14l2.07 9.09a3.29 3.29 0 0 0-.15 1.14c0 .46.27 1.26.17 1.26L82.75 140a1.06 1.06 0 0 0 .48 1.3 3.62 3.62 0 0 0 1.7.42 4 4 0 0 0 .69-.06l.86-.17a.88.88 0 0 0 .7-.89L87 114c.15-1 .81-14.06 1-18.55h.24l1.88 18.59c-.15 2.07-.63 7.89.06 11.72l1.51 12.34a8.27 8.27 0 0 0-.66 2.76.68.68 0 0 0 .67.74h0 8.06a.82.82 0 0 0 .75-1.05.85.85 0 0 0-.39-.5l-4.94-2.65c0-.14.31-17.12.37-23.29 0-1.15.09-2.6.2-3.88h0 0c.46-5.33 1.08-15-.47-21.21z" fill="#fff"/><g fill="#382259"><path d="M172.09,90.11a11.89,11.89,0,0,1-3.42,8.36L97.46,170.8A11.88,11.88,0,0,1,89,174.35v5.88a17.67,17.67,0,0,0,12.67-5.31l71.22-72.33a17.77,17.77,0,0,0,5.08-12.48Z"/><path d="M89,5.87a11.89,11.89,0,0,1,8.49,3.56l71.21,72.33a11.85,11.85,0,0,1,3.42,8.35h5.85a17.74,17.74,0,0,0-5.08-12.47L101.64,5.31A17.63,17.63,0,0,0,89,0Z"/><use xlink:href="#B"/><path d="M80.48,170.8,9.27,98.47a11.86,11.86,0,0,1-3.43-8.36H0a17.72,17.72,0,0,0,5.08,12.48l71.21,72.33A17.67,17.67,0,0,0,89,180.23v-5.87a11.87,11.87,0,0,1-8.49-3.56"/></g><use xlink:href="#B" fill="#f8c409"/></g></g></svg>