<svg xmlns="http://www.w3.org/2000/svg" viewBox="0 0 177.93 180.23"><defs><clipPath id="A"><path d="M0 0h177.93v180.23H0z" fill="none"/></clipPath></defs><g clip-path="url(#A)"><g clip-path="url(#A)"><path d="M89,177.29a14.72,14.72,0,0,1-10.58-4.43L7.17,100.53a14.92,14.92,0,0,1,0-20.83L78.39,7.37a14.85,14.85,0,0,1,21.16,0L170.76,79.7a14.9,14.9,0,0,1,0,20.83L99.55,172.86A14.72,14.72,0,0,1,89,177.29" fill="#5d2f88"/><path d="M89,5.87a11.89,11.89,0,0,1,8.49,3.56l71.21,72.33a11.92,11.92,0,0,1,0,16.71L97.46,170.8a11.93,11.93,0,0,1-17,0L9.27,98.47a11.9,11.9,0,0,1,0-16.71L80.48,9.43A11.87,11.87,0,0,1,89,5.87M89,0A17.63,17.63,0,0,0,76.29,5.31L5.08,77.63a17.88,17.88,0,0,0,0,25l71.21,72.33a17.78,17.78,0,0,0,25.35,0l71.21-72.33a17.86,17.86,0,0,0,0-25L101.64,5.31A17.63,17.63,0,0,0,89,0" fill="#382259"/><g fill="#f8c409"><path d="M60.14 88.52l-.35-2.74a30.6 30.6 0 0 0 .35 2.74M103.31 69a17.11 17.11 0 0 0-9.73 2.8c1.32.79 1.54 2.14 1.08 2.48-.74.56-1.76-.37-3 .44a2.25 2.25 0 0 1-1.11.36 10.85 10.85 0 0 0-1.4 3.92c2.56-1.72 6.43.89 10.1-1.68 2.2-1.54 5.47-3.18 8.1-2.87a39.63 39.63 0 0 1 8.9 1.88 12.76 12.76 0 0 0-.68-1.06A20.82 20.82 0 0 1 103.31 69m5.28 24.78c-3.37 8.38-5 3.86-6.66.31S97 88.42 95 91.46s.91 2.55 2.12 5.22-4.84 12.3-7 13.66-2-6.54-6.72-10.16-3-10 1.45-9.87 2-1.74 3.31-4-2.48-3.07 0-6.48a3.47 3.47 0 0 1 .61-.65C87.88 72.4 81.76 69 74.34 69a14.6 14.6 0 0 0-9.42 3.44 21.43 21.43 0 0 0 9.58-.23c2.58-.57 5.16 2 3.16 4.12-3.44 3.62-9.57.81-7.86 5.22s8.52 6.38 4.14 10.19-8.73 9.79-3.06 13.85a7 7 0 0 1 2.73 4.67 20.72 20.72 0 0 1 1.89 2 68 68 0 0 0 13.5 8.59s25.59-11.58 28.9-32.72a20.15 20.15 0 0 1-2 1.68c-2.19-.89-5.26-1-7.25 4"/></g><g fill="#fff"><path d="M99.25 77.28c-3.66 2.57-7.54 0-10.1 1.68A13.33 13.33 0 0 0 89 81.1a14.07 14.07 0 0 0-.14-1.88 3.47 3.47 0 0 0-.61.65c-2.48 3.41 1.27 4.26 0 6.48s1.14 4.11-3.31 4-6.13 6.24-1.45 9.87 4.51 11.48 6.69 10.12 8.18-11 7-13.66-4.11-2.19-2.18-5.22 5.26-.92 6.9 2.63 3.29 8.07 6.66-.31c2-4.94 5.06-4.86 7.25-4a20.15 20.15 0 0 0 2-1.68 29 29 0 0 0 .36-4.52 14.53 14.53 0 0 0-2-7.32 39.63 39.63 0 0 0-8.9-1.88c-2.63-.31-5.9 1.33-8.1 2.87m-28.29 28.32c-5.67-4.06-1.32-10 3.06-13.85S71.52 86 69.8 81.53s4.42-1.6 7.86-5.22c2-2.11-.58-4.69-3.16-4.12a21.43 21.43 0 0 1-9.58.23 14.62 14.62 0 0 0-5.21 11.19c0 .73 0 1.46.08 2.17l.35 2.74c1.38 8.1 6 14.78 11.19 19.92a22 22 0 0 1 2.28 1.8 7 7 0 0 0-2.73-4.67"/><path d="M94.66 74.27c.46-.34.24-1.69-1.08-2.48a10.62 10.62 0 0 0-3 3.28 2.25 2.25 0 0 0 1.11-.36c1.26-.81 2.28.12 3-.44m-19.28 63.49a10.51 10.51 0 0 0 5.14 1.34h24.92a4.11 4.11 0 0 0 4.1-3.76 4 4 0 0 0-3.75-4.18h-17a5.7 5.7 0 0 1-.93 1.47 1.6 1.6 0 0 1-.16.19 6 6 0 0 1-8.44-.36l-10.69-9.8 1.69-1.86 10.88 10a3.44 3.44 0 0 0 4.76.27v-.05a3.41 3.41 0 0 0 .91-2.49 3.46 3.46 0 0 0-1.12-2.4l-10.14-9.48s0-.08-.08-.11h0 0l-.12-.2-.07-.11a18.25 18.25 0 0 0-15.65-8.88H35l18.53 18.53zm27.11-95.3a10.6 10.6 0 0 0-5.13-1.33H72.47a4.13 4.13 0 0 0-4.11 3.76 4 4 0 0 0 3.75 4.18h17a5.87 5.87 0 0 1 .93-1.47 1.63 1.63 0 0 1 .17-.2 6 6 0 0 1 8.43.37l10.7 9.8-1.7 1.85-10.78-9.91a3.47 3.47 0 0 0-4.86-.34h-.05a3.45 3.45 0 0 0 .22 4.88l10.14 9.49a1 1 0 0 1 .08.11h0 0c0 .07.08.13.11.19a.34.34 0 0 1 .07.11 18.25 18.25 0 0 0 15.65 8.89h24.68l-18.53-18.47z"/></g><g fill="#382259"><path d="M172.09,90.11a11.89,11.89,0,0,1-3.42,8.36L97.46,170.8A11.88,11.88,0,0,1,89,174.35v5.88a17.67,17.67,0,0,0,12.67-5.31l71.22-72.33a17.77,17.77,0,0,0,5.08-12.48Z"/><path d="M89,5.87a11.89,11.89,0,0,1,8.49,3.56l71.21,72.33a11.85,11.85,0,0,1,3.42,8.35h5.85a17.75,17.75,0,0,0-5.09-12.48L101.64,5.31A17.63,17.63,0,0,0,89,0Z"/><path d="M9.27,81.76,80.48,9.43A11.87,11.87,0,0,1,89,5.87V0A17.63,17.63,0,0,0,76.29,5.31L5.08,77.63A17.74,17.74,0,0,0,0,90.11H5.84a11.82,11.82,0,0,1,3.43-8.35"/><path d="M80.48,170.8,9.27,98.47a11.86,11.86,0,0,1-3.43-8.36H0a17.72,17.72,0,0,0,5.08,12.48l71.21,72.33A17.67,17.67,0,0,0,89,180.23v-5.87a11.87,11.87,0,0,1-8.49-3.56"/></g></g></g></svg>