<svg xmlns="http://www.w3.org/2000/svg" xmlns:xlink="http://www.w3.org/1999/xlink" viewBox="0 0 177.93 180.23"><defs><clipPath id="A"><path d="M0 0h177.93v180.23H0z" fill="none"/></clipPath><path id="B" d="M9.27,81.75,80.48,9.43A11.87,11.87,0,0,1,89,5.87V0A17.63,17.63,0,0,0,76.29,5.31L5.08,77.64A17.72,17.72,0,0,0,0,90.11H5.84a11.86,11.86,0,0,1,3.43-8.36"/></defs><g clip-path="url(#A)"><g clip-path="url(#A)"><path d="M89,177.29a14.72,14.72,0,0,1-10.58-4.43L7.17,100.53a14.92,14.92,0,0,1,0-20.83L78.39,7.37a14.85,14.85,0,0,1,21.16,0l71.21,72.32a14.91,14.91,0,0,1,0,20.84L99.55,172.86A14.72,14.72,0,0,1,89,177.29" fill="#5d2f88"/><path d="M89,5.87a11.89,11.89,0,0,1,8.49,3.56l71.21,72.33a11.9,11.9,0,0,1,0,16.71L97.46,170.8a11.9,11.9,0,0,1-17,0L9.27,98.47a11.9,11.9,0,0,1,0-16.71L80.48,9.43A11.87,11.87,0,0,1,89,5.87M89,0A17.67,17.67,0,0,0,76.29,5.31L5.08,77.64a17.86,17.86,0,0,0,0,25l71.21,72.33a17.78,17.78,0,0,0,25.35,0l71.22-72.33a17.86,17.86,0,0,0,0-25L101.64,5.31A17.67,17.67,0,0,0,89,0" fill="#382259"/><g fill="#f8c409"><path d="M74.86 32c2.59 1.2 32.38 12.89 19.14 41.06C60.07 57.57 73.27 35.34 74.86 32M61.41 83.38c2.13.44 26.31 4.19 21 28-27.82-5.34-21.67-25.19-21-28M119.58 130c-1.4-1.66-13.86-21.53-32.56-5.75 18 21.84 30.33 7.64 32.56 5.75M138 91.63c-2.24-1.79-27.48-21.49-46.87 2.89 28.87 23.54 44.56 0 46.87-2.89"/></g><path d="M117.28,90.36c-6.59-1.32-21.37.78-22.45.92,1.32-5.69,2-14.17,1.23-18.83-.94-5.81-5-15.45-9.46-21.55a2.74,2.74,0,0,0-4.42,3.23c3.9,5.33,7.54,13.1,8.37,18,.9,5.28,2,17.13-7.59,34.23a76.11,76.11,0,0,0-4.44-6.53,2.74,2.74,0,0,0-4.31,3.37c1.56,2,5.12,7.65,5.41,8.11a70.9,70.9,0,0,1-18.07,16.41,2.74,2.74,0,0,0-1,3.72,2.72,2.72,0,0,0,3.72,1,61.29,61.29,0,0,0,8.67-6.36c3.95-1.38,22.89.42,26.58,1.46a2.73,2.73,0,1,0,1.49-5.26c-4.36-1.24-19.2-2.38-21.59-2.48A58.06,58.06,0,0,0,93.2,97c1.91-.23,17.33-2.4,23-1.26a2.74,2.74,0,0,0,1.08-5.37" fill="#fff"/><g fill="#382259"><path d="M172.09,90.11a11.89,11.89,0,0,1-3.42,8.36L97.46,170.8A11.89,11.89,0,0,1,89,174.36v5.87a17.67,17.67,0,0,0,12.67-5.31l71.22-72.33a17.77,17.77,0,0,0,5.08-12.48Z"/><path d="M89,5.87a11.89,11.89,0,0,1,8.49,3.56l71.21,72.33a11.85,11.85,0,0,1,3.42,8.35h5.85a17.76,17.76,0,0,0-5.08-12.47L101.64,5.31A17.67,17.67,0,0,0,89,0Z"/><use xlink:href="#B"/><path d="M80.48,170.8,9.27,98.47a11.86,11.86,0,0,1-3.43-8.36H0a17.72,17.72,0,0,0,5.08,12.48l71.21,72.33A17.67,17.67,0,0,0,89,180.23v-5.87a11.87,11.87,0,0,1-8.49-3.56"/></g><use xlink:href="#B" fill="#f8c409"/></g></g></svg>