<svg xmlns="http://www.w3.org/2000/svg" style="isolation:isolate" viewBox="0 0 177.93 180.23" width="237.24" height="240.307"><defs><clipPath id="a"><path d="M0 0h177.93v180.23H0z"/></clipPath></defs><g clip-path="url(#a)"><path d="M89 177.29a14.72 14.72 0 0 1-10.58-4.43L7.17 100.53c-5.65-5.798-5.65-15.042 0-20.84L78.39 7.37a14.849 14.849 0 0 1 21.16 0l71.21 72.32c5.661 5.793 5.661 15.047 0 20.84l-71.21 72.33A14.722 14.722 0 0 1 89 177.29z" fill="#5D2F88"/><path d="M47.033 92.308C45.82 69.163 63.626 49.387 86.771 48.174c23.145-1.213 42.921 16.593 44.134 39.738 1.213 23.145-16.593 42.921-39.738 44.134-23.145 1.213-42.921-16.593-44.134-39.738z" fill="none" vector-effect="non-scaling-stroke" stroke-width="30" stroke-dasharray="30,22.77" stroke="#F8C409"/><path d="M89 5.87a11.887 11.887 0 0 1 8.49 3.56l71.21 72.33c4.568 4.633 4.568 12.077 0 16.71L97.46 170.8a11.928 11.928 0 0 1-17 0L9.27 98.47c-4.568-4.633-4.568-12.077 0-16.71L80.48 9.43A11.87 11.87 0 0 1 89 5.87zM89 0a17.63 17.63 0 0 0-12.71 5.31L5.08 77.64c-6.805 6.944-6.805 18.056 0 25l71.21 72.33a17.778 17.778 0 0 0 25.35 0l71.22-72.33c6.805-6.944 6.805-18.056 0-25L101.64 5.31A17.629 17.629 0 0 0 89 0" fill="#382259"/><path d="m92.43 120.38 22.39 3.83 8.69-19.44-7.17-19.6 4.86-4.62-7.17-18.09-30.2.64 5.58-6.11-9.78.32-26.72 9.93 2.71 35.29 36.81 17.85h0z" fill="#FFF" vector-effect="non-scaling-stroke" stroke-width="4" stroke-dasharray="1,1" stroke="#5D2F88" stroke-linecap="round"/><path d="M172.09 90.11a11.891 11.891 0 0 1-3.42 8.36L97.46 170.8a11.882 11.882 0 0 1-8.46 3.55v5.88a17.673 17.673 0 0 0 12.67-5.31l71.22-72.33a17.768 17.768 0 0 0 5.08-12.48h-5.88zM89 5.87a11.887 11.887 0 0 1 8.49 3.56l71.21 72.33a11.847 11.847 0 0 1 3.42 8.35h5.85a17.743 17.743 0 0 0-5.08-12.47L101.64 5.31A17.629 17.629 0 0 0 89 0v5.87zM9.27 81.76 80.48 9.43A11.87 11.87 0 0 1 89 5.87V0a17.63 17.63 0 0 0-12.71 5.31L5.08 77.64A17.697 17.697 0 0 0 0 90.11h5.84a11.82 11.82 0 0 1 3.43-8.35M80.48 170.8 9.27 98.47a11.858 11.858 0 0 1-3.43-8.36H0a17.718 17.718 0 0 0 5.08 12.48l71.21 72.33A17.672 17.672 0 0 0 89 180.23v-5.87a11.87 11.87 0 0 1-8.49-3.56" fill="#F8C409"/></g></svg>