<svg xmlns="http://www.w3.org/2000/svg" viewBox="0 0 177.93 180.23"><defs><clipPath id="A"><path d="M0 0h177.93v180.23H0z" fill="none"/></clipPath></defs><g clip-path="url(#A)"><g clip-path="url(#A)"><path d="M89,177.29a14.72,14.72,0,0,1-10.58-4.43L7.17,100.53a14.93,14.93,0,0,1,0-20.84L78.39,7.37a14.85,14.85,0,0,1,21.16,0l71.21,72.32a14.91,14.91,0,0,1,0,20.84L99.55,172.86A14.72,14.72,0,0,1,89,177.29" fill="#5d2f88"/><path d="M89,5.87a11.89,11.89,0,0,1,8.49,3.56l71.21,72.33a11.9,11.9,0,0,1,0,16.71L97.46,170.8a11.93,11.93,0,0,1-17,0L9.27,98.47a11.9,11.9,0,0,1,0-16.71L80.48,9.43A11.87,11.87,0,0,1,89,5.87M89,0A17.63,17.63,0,0,0,76.29,5.31L5.08,77.63a17.88,17.88,0,0,0,0,25l71.21,72.33a17.78,17.78,0,0,0,25.35,0l71.22-72.33a17.88,17.88,0,0,0,0-25L101.64,5.31A17.63,17.63,0,0,0,89,0" fill="#382259"/><path d="M130,75.59h-3.54a38.16,38.16,0,0,0-5.56-13.42l2.4-2.4a2.57,2.57,0,0,0,0-3.58L116,48.94a2.57,2.57,0,0,0-3.58,0l-2.4,2.4a38.35,38.35,0,0,0-13.42-5.56V42.24a2.54,2.54,0,0,0-2.56-2.56H83.86a2.53,2.53,0,0,0-2.55,2.56v3.54a38.32,38.32,0,0,0-13.43,5.56l-2.4-2.4a2.55,2.55,0,0,0-3.57,0l-7.25,7.25a2.57,2.57,0,0,0,0,3.58l2.4,2.4a38.18,38.18,0,0,0-5.57,13.42H48a2.53,2.53,0,0,0-2.55,2.56V88.36A2.52,2.52,0,0,0,48,90.91h3.54a38.15,38.15,0,0,0,5.57,13.43l-2.4,2.4a2.55,2.55,0,0,0,0,3.57l7.25,7.25a2.55,2.55,0,0,0,3.57,0l2.4-2.4a37.83,37.83,0,0,0,7.32,3.77A27.54,27.54,0,0,0,67.54,108a32.59,32.59,0,1,1,42.69.15,26.5,26.5,0,0,0-7.52,10.78,38,38,0,0,0,7.34-3.78l2.4,2.4a2.57,2.57,0,0,0,3.58,0l7.25-7.25a2.55,2.55,0,0,0,0-3.57l-2.4-2.4a38.13,38.13,0,0,0,5.56-13.43H130a2.53,2.53,0,0,0,2.56-2.55V78.15A2.54,2.54,0,0,0,130,75.59" fill="#fff"/><path d="M90.69,105.78h1.72A20.58,20.58,0,0,0,113,85.2h-3.43A20.57,20.57,0,0,0,90.69,97.57V83.37a13.72,13.72,0,0,0,12-13.6A13.7,13.7,0,0,0,89.41,80.12a1.54,1.54,0,0,0-.43-.06,1.61,1.61,0,0,0-.44.06A13.7,13.7,0,0,0,75.26,69.77a13.72,13.72,0,0,0,12,13.6v14.2A20.57,20.57,0,0,0,68.4,85.2H65a20.57,20.57,0,0,0,20.58,20.58h1.71V119.5h3.43Z" fill="#f8c409"/><path d="M90.69,119.5H76.05a1.87,1.87,0,0,0-.59.11,1.71,1.71,0,0,0,.59,3.32h.36a25.21,25.21,0,0,1,.49,3.44,1.71,1.71,0,0,0,.07,3.42v3.43a1.72,1.72,0,0,0,0,3.43v1.72a3.43,3.43,0,0,0,3.37,3.42v1.31a2.47,2.47,0,0,0,2.47,2.46H95.14a2.46,2.46,0,0,0,2.47-2.46v-1.31a3.42,3.42,0,0,0,3.37-3.42v-1.72a1.72,1.72,0,1,0,0-3.43v-3.43a1.71,1.71,0,0,0,.07-3.42,26.85,26.85,0,0,1,.48-3.44h.37a1.71,1.71,0,0,0,.56-3.33,1.69,1.69,0,0,0-.56-.1Z" fill="#fff"/><g fill="#382259"><path d="M172.09,90.11a11.89,11.89,0,0,1-3.42,8.36L97.46,170.8A11.88,11.88,0,0,1,89,174.35v5.88a17.67,17.67,0,0,0,12.67-5.31l71.22-72.33a17.77,17.77,0,0,0,5.08-12.48Z"/><path d="M89,5.87a11.89,11.89,0,0,1,8.49,3.56l71.21,72.33a11.85,11.85,0,0,1,3.42,8.35h5.85a17.78,17.78,0,0,0-5.08-12.48L101.64,5.31A17.63,17.63,0,0,0,89,0Z"/><path d="M9.27,81.76,80.48,9.43A11.87,11.87,0,0,1,89,5.87V0A17.63,17.63,0,0,0,76.29,5.31L5.08,77.63A17.74,17.74,0,0,0,0,90.11H5.84a11.82,11.82,0,0,1,3.43-8.35"/><path d="M80.48,170.8,9.27,98.47a11.86,11.86,0,0,1-3.43-8.36H0a17.72,17.72,0,0,0,5.08,12.48l71.21,72.33A17.67,17.67,0,0,0,89,180.23v-5.87a11.87,11.87,0,0,1-8.49-3.56"/></g><path d="M172.85,77.63,101.64,5.31a17.78,17.78,0,0,0-25.35,0L5.08,77.63A17.74,17.74,0,0,0,0,90.11H5.84a11.82,11.82,0,0,1,3.43-8.35L80.48,9.43a11.9,11.9,0,0,1,17,0l71.21,72.33a11.92,11.92,0,0,1,0,16.71L97.46,170.8A11.91,11.91,0,0,1,89,174.36v5.87a17.67,17.67,0,0,0,12.67-5.31l71.21-72.33a17.84,17.84,0,0,0,0-25" fill="#f8c409"/></g></g></svg>