<svg xmlns="http://www.w3.org/2000/svg" viewBox="0 0 177.935 180.228"><g fill="#f8c409"><path d="M172.094 90.114c0 3.021-1.142 6.04-3.425 8.358l-71.212 72.329c-2.334 2.37-5.412 3.554-8.489 3.554v5.873c4.803 0 9.304-1.885 12.674-5.307l71.213-72.328c3.386-3.441 5.081-7.959 5.081-12.479h-5.842z"/><path d="M88.968 5.873c3.077 0 6.155 1.185 8.489 3.555l71.212 72.328c2.283 2.318 3.425 5.339 3.425 8.358h5.842c0-4.519-1.695-9.038-5.081-12.478L101.642 5.308C98.272 1.885 93.771 0 88.968 0v5.873z"/><path d="M9.266 81.756L80.478 9.427c2.334-2.37 5.412-3.555 8.49-3.555V-.001c-4.804 0-9.305 1.885-12.675 5.308L5.081 77.635C1.694 81.076 0 85.594 0 90.114h5.842c0-3.02 1.141-6.04 3.424-8.358"/><path d="M80.478 170.8L9.266 98.472c-2.283-2.318-3.424-5.338-3.424-8.359H0c0 4.52 1.694 9.039 5.082 12.479l71.211 72.328c3.371 3.423 7.872 5.308 12.675 5.308v-5.873c-3.078 0-6.156-1.185-8.49-3.555"/></g><path d="M88.968 177.292c-4.011 0-7.769-1.573-10.582-4.431L7.173 100.533c-5.656-5.745-5.656-15.093 0-20.838L78.385 7.367c2.814-2.857 6.572-4.43 10.583-4.43a14.74 14.74 0 0 1 10.582 4.43l71.212 72.328c5.656 5.745 5.656 15.093 0 20.838L99.55 172.861a14.74 14.74 0 0 1-10.582 4.431" fill="#5d2f88"/><path d="M88.968 5.873c3.077 0 6.155 1.185 8.489 3.555l71.212 72.328c4.566 4.637 4.566 12.08 0 16.717L97.457 170.8a11.87 11.87 0 0 1-8.489 3.555c-3.078 0-6.156-1.184-8.49-3.555L9.266 98.473c-4.566-4.637-4.566-12.08 0-16.717L80.478 9.428c2.334-2.37 5.412-3.555 8.49-3.555m0-5.873c-4.804 0-9.305 1.885-12.675 5.308L5.081 77.636c-6.775 6.881-6.775 18.076 0 24.957l71.212 72.328c3.37 3.423 7.871 5.308 12.675 5.308s9.304-1.885 12.674-5.308l71.213-72.328c6.774-6.881 6.774-18.076-.001-24.957L101.642 5.308C98.272 1.885 93.771 0 88.968 0" fill="#382259"/><g fill="#f8c409"><circle cx="116.171" cy="66.018" r="13.961" fill-rule="evenodd"/><path d="M74.232 91.127H84.51l-2.564-4.441 7.663-1.837-13.177-22.823a55.12 55.12 0 0 0 7.716-1.746L68.076 32.443 52.004 60.28c2.501.76 5.079 1.344 7.716 1.746L46.543 84.849c2.496.758 5.064 1.342 7.663 1.837l-16.749 29.01c7.04 2.138 14.397 3.542 21.976 4.16 3.587-6.247 7.729-14.932 10.522-25.429.516-1.943 2.276-3.3 4.277-3.3z"/></g><path d="M104.208 101.543c-5.605 17.028-13.96 28.308-16.604 31.608h16.604v-31.608zm-48.762 30.423a1.5 1.5 0 0 0 .579.711c.297.284.692.475 1.166.475h26.835l-1.708-4.366a1.51 1.51 0 0 1 .855-1.955 1.51 1.51 0 0 1 1.955.855l.967 2.471c3.613-4.791 12.496-17.891 17.221-36.313H74.232c-.778 0-1.453.53-1.653 1.282-4.139 15.558-11.076 27.17-15.296 33.25l-.948-2.425a1.49 1.49 0 0 0-.339-.516c-.412-.41-1.042-.563-1.616-.34a1.51 1.51 0 0 0-.855 1.955l.486 1.243 1.435 3.673zm66.155-6.016l-.937 2.394c-3.646-5.258-9.3-14.624-13.438-27.086v31.892h13.552c.564 0 1.023-.263 1.325-.645.16-.149.301-.323.386-.541l1.448-3.703.474-1.213a1.51 1.51 0 0 0-.855-1.955c-.563-.219-1.182-.073-1.594.322a1.51 1.51 0 0 0-.361.535z" fill="#fff"/></svg>