<svg xmlns="http://www.w3.org/2000/svg" viewBox="0 0 87.87 87.87" width="117.16" height="117.16" ><defs><clipPath id="A"><path d="M0 0h87.87v87.87H0z"/></clipPath></defs><g clip-path="url(#A)"><path d="M39.71 77.14l-1.15 8.94c1.8.23 3.63.35 5.45.35 1.88 0 3.77-.13 5.62-.37l-1.18-8.94c-2.87.39-5.86.39-8.74.02zM69.93 10.2c-2.95-2.27-6.18-4.14-9.6-5.56l-3.46 8.33a33.18 33.18 0 0 1 7.56 4.38l5.5-7.15zM4.78 60.31a42.16 42.16 0 0 0 5.58 9.58l7.13-5.51a33.37 33.37 0 0 1-4.39-7.55l-8.32 3.48zm13.44 17.4a42.23 42.23 0 0 0 9.62 5.53l3.43-8.34a33.17 33.17 0 0 1-7.57-4.36l-5.48 7.17zm38.67-2.85l3.47 8.32c3.42-1.42 6.65-3.3 9.59-5.57l-5.5-7.14c-2.33 1.79-4.87 3.27-7.56 4.39zm29.29-36.5l-8.94 1.17c.19 1.44.28 2.92.28 4.39 0 1.46-.1 2.92-.28 4.36l8.94 1.16c.24-1.82.36-3.68.36-5.52 0-1.86-.12-3.73-.36-5.56zM70.62 64.28l7.15 5.49c2.26-2.95 4.13-6.18 5.55-9.61l-8.33-3.45c-1.12 2.7-2.59 5.25-4.37 7.57zm12.69-36.64c-1.42-3.42-3.29-6.65-5.55-9.6l-7.15 5.49c1.78 2.32 3.26 4.87 4.38 7.56l8.32-3.45zm-72.8 16.27c0-18.47 15.03-33.5 33.5-33.5 1.48 0 2.96.1 4.41.29l1.17-8.94c-1.84-.24-3.72-.36-5.59-.36C20.57 1.39 1.5 20.47 1.5 43.91c0 1.87.12 3.75.36 5.59l8.94-1.18c-.19-1.45-.29-2.93-.29-4.41zm53.71 13.87c2.16-.92 3.17-3.41 2.25-5.57s-3.41-3.17-5.57-2.25c-1.67.71-2.64 2.37-2.58 4.08L35.1 63.89l1.17 2.76 23.22-9.85c1.19 1.23 3.06 1.69 4.73.98zm-40.63-29.9h4.8v31.84h-4.8V27.88zm7.38 0h4.8v28.24h-4.8V27.88zm7.39 0h4.8V52.8h-4.8V27.88zm7.38 0h4.8v21.6h-4.8v-21.6zm7.39 0h4.8v18h-4.8v-18zm7.38 0h4.8v14.4h-4.8v-14.4z"/></g></svg>