<svg xmlns="http://www.w3.org/2000/svg" viewBox="0 0 87.87 87.87" width="117.16" height="117.16" ><defs><clipPath id="A"><path d="M0 0h87.87v87.87H0z"/></clipPath></defs><g clip-path="url(#A)"><path d="M4.74 60.22a42.7 42.7 0 0 0 5.55 9.59l7.15-5.5a33.71 33.71 0 0 1-4.38-7.55l-8.32 3.46zm13.39 17.42a42.48 42.48 0 0 0 9.59 5.55l3.46-8.33a33.67 33.67 0 0 1-7.55-4.37l-5.5 7.15zM44.01 1.39C20.57 1.39 1.5 20.47 1.5 43.91c0 1.87.12 3.75.36 5.58l8.94-1.18c-.19-1.45-.29-2.93-.29-4.41 0-18.47 15.03-33.5 33.5-33.5 18.48 0 33.51 15.03 33.51 33.5S62.49 77.4 44.01 77.4a34.14 34.14 0 0 1-4.41-.29l-1.17 8.94a43.33 43.33 0 0 0 5.58.36c23.45 0 42.52-19.07 42.52-42.51.01-23.43-19.07-42.51-42.52-42.51zm.01 26.64c1.57 0 15.3-.12 15.3-4.21s-13.74-4.21-15.3-4.21-15.3.12-15.3 4.21c-.01 4.09 13.73 4.21 15.3 4.21zm0-6.16c7.52 0 11.9 1.2 12.91 1.96-1.01.75-5.39 1.96-12.91 1.96s-11.9-1.2-12.91-1.96c1-.76 5.39-1.96 12.91-1.96zm6.33 31.76c-1.53.37-3.61.6-5.91.6-2.37 0-4.51-.24-6.05-.63h-.1l-2.32 14.18c0 1.17 3.79 2.11 8.47 2.11s8.47-.95 8.47-2.11c0-.05-.02-.11-.03-.16h.03l-2.56-13.99zm3.7-24.39c-2.31.44-5.22.73-8.43.8l4.29 17.28 4.14-18.08zm5.21-2.5c0 .79-1.25 1.51-3.34 2.08 0 .04.01.07 0 .1l-4.99 21.79c9.55-4.31 8.33-23.97 8.33-23.97h0zM38.3 47.76l5.31-17.7c-3.8-.03-7.25-.36-9.85-.88l4.54 18.58zm10.8 3.56c0-.01-.01-.01-.01-.02L44.55 33l-5.49 18.3c2.94.62 7.29.67 10.04.02zM31.9 28.94c-.02-.07-.01-.15-.01-.22-1.87-.55-2.99-1.23-2.99-1.97l-.01-.01s-1.21 19.64 8.33 23.97L31.9 28.94z"/></g></svg>