<svg xmlns="http://www.w3.org/2000/svg" viewBox="0 0 87.87 87.87" ><path d="M4.74 60.22a42.7 42.7 0 0 0 5.55 9.59l7.15-5.5a33.71 33.71 0 0 1-4.38-7.55l-8.32 3.46zm13.39 17.42a42.48 42.48 0 0 0 9.59 5.55l3.46-8.33a33.67 33.67 0 0 1-7.55-4.37l-5.5 7.15zM44.01 1.39C20.57 1.39 1.5 20.47 1.5 43.91c0 1.87.12 3.75.36 5.58l8.94-1.18c-.19-1.45-.29-2.93-.29-4.41 0-18.47 15.03-33.5 33.5-33.5 18.48 0 33.51 15.03 33.51 33.5S62.49 77.4 44.01 77.4a34.14 34.14 0 0 1-4.41-.29l-1.17 8.94a43.33 43.33 0 0 0 5.58.36c23.45 0 42.52-19.07 42.52-42.51.01-23.43-19.07-42.51-42.52-42.51zm9.25 34.85c0-2.23-.8-4.26-2.12-5.85-1.63-1.96-2.34-4.53-2.34-7.08v-4.23h-9.58v3.77c0 2.75-.72 5.53-2.44 7.68-1.7 2.13-2.48 5.01-1.71 8.09.55 2.22 1.98 4.12 3.87 5.36l.08 26.98h10.2l-.08-27.02c2.48-1.67 4.12-4.49 4.12-7.7zm-9.24 30.51c-1.45 0-2.63-1.18-2.63-2.63s1.18-2.63 2.63-2.63 2.63 1.18 2.63 2.63-1.18 2.63-2.63 2.63zm0-8.71c-1.45 0-2.63-1.18-2.63-2.63s1.18-2.63 2.63-2.63 2.63 1.18 2.63 2.63-1.18 2.63-2.63 2.63zm4-18.27h-8.01v-3.5h8.01v3.5z"/></svg>