<svg xmlns="http://www.w3.org/2000/svg" viewBox="0 0 87.87 87.87" ><path d="M44.02 1.39C20.57 1.39 1.5 20.47 1.5 43.91s19.07 42.52 42.52 42.52 42.52-19.07 42.52-42.52c0-23.44-19.08-42.52-42.52-42.52zm0 76.02c-18.47 0-33.5-15.03-33.5-33.5s15.03-33.5 33.5-33.5 33.5 15.03 33.5 33.5-15.03 33.5-33.5 33.5zM33.367 45.466l27.77-25.748 1.7 1.833L35.067 47.3zM44.49 44.7a2.497 2.497 0 0 0-4.59 1.97l1.41 3.28-.36.37c-6.1 4.39-10.38-1.37-9.57-5.27l8-7.16a2.5 2.5 0 1 0-3.34-3.72l-12.7 11.38c-.71.63-.99 1.61-.74 2.52l2.49 9.14v7.75a2.5 2.5 0 0 0 2.5 2.5h9.63a2.5 2.5 0 0 0 2.5-2.39l.3-6.62 6.04-6.2c.71-.72.91-1.8.51-2.73l-2.08-4.82z"/></svg>