<svg xmlns="http://www.w3.org/2000/svg" viewBox="0 0 87.87 87.87" ><path d="M65.09 26.24l-7.54-2.52-.03.09-4.32-1.36c-2.86-.87-6 .2-7.63 2.61a7.55 7.55 0 0 0-1.32 4.17l-.04 2.26-2.47.03.04 3.03 2.38-.03-.05 2.71-2.4.03.04 3.03 2.31-.03-.05 2.66-2.11.03.04 3.03 2.02-.03-.2 10.92c-.03.03-.05.06-.08.09-2.13 2.01-4.35-1.28-4.15-3.56.4-4.59-1.95-7.63-1.95-7.63s-9.4 7.1-13.81 10.01c8.1.98 6.48 11.19 14.29 12.3.11.02.21.02.32.03.18.03.37.03.55.05.05 0 .1.01.14.01.2.01.39.04.59.04a8.4 8.4 0 0 0 1.85-.21l.82-.19a8.22 8.22 0 0 0 6.42-7.88l.56-30.62c.01-.51.17-1 .45-1.42.4-.59 1.22-.84 1.96-.62l4.37 1.38-.02.07 9.02-2.48zM21.051 52.451l14.111-10.078 1.47 2.059-14.11 10.078zM44.02 1.39C20.57 1.39 1.5 20.47 1.5 43.91s19.07 42.52 42.52 42.52 42.52-19.07 42.52-42.52c0-23.44-19.08-42.52-42.52-42.52zm0 76.02c-18.47 0-33.5-15.03-33.5-33.5s15.03-33.5 33.5-33.5 33.5 15.03 33.5 33.5-15.03 33.5-33.5 33.5z"/></svg>