<svg xmlns="http://www.w3.org/2000/svg" viewBox="0 0 87.87 87.87" ><path d="M43.94 1.42C20.5 1.42 1.42 20.49 1.42 43.94c0 23.44 19.07 42.52 42.52 42.52s42.52-19.07 42.52-42.52S67.38 1.42 43.94 1.42zm0 76.02c-18.47 0-33.5-15.03-33.5-33.5s15.03-33.5 33.5-33.5 33.5 15.03 33.5 33.5-15.03 33.5-33.5 33.5zm-8.5-44.43l-6.53-2.2-1.34-2.61-2.56 1.3-5.79-1.94-1.37 4.07 6.43 2.16v30.97h3.5V34.97l6.29 2.12zm19.45 11.63c-2.49-3.34-6.47-5.52-10.95-5.52-7.54 0-13.67 6.13-13.67 13.67 0 3.93 1.68 7.47 4.34 9.96l-1.37 4.23 3.33 1.08 1.03-3.18c1.9 1 4.05 1.57 6.34 1.57s4.44-.57 6.34-1.57l1.03 3.18 3.33-1.08-1.37-4.23c2.66-2.5 4.34-6.03 4.34-9.96 0-2.67-.78-5.15-2.11-7.26h6.15v19.23h3.5V45.52h6.75v-7.94H54.89v7.06zM44.38 60.56c-1.83 0-3.32-1.49-3.32-3.32s1.49-3.32 3.32-3.32 3.32 1.49 3.32 3.32-1.49 3.32-3.32 3.32zm10.51-26.97H71.9v2.25H54.89z"/></svg>