<svg xmlns="http://www.w3.org/2000/svg" viewBox="0 0 87.87 87.87" ><path d="M44.02 1.39C20.57 1.39 1.5 20.47 1.5 43.91s19.07 42.52 42.52 42.52 42.52-19.07 42.52-42.52c0-23.44-19.08-42.52-42.52-42.52zm0 76.02c-18.47 0-33.5-15.03-33.5-33.5s15.03-33.5 33.5-33.5 33.5 15.03 33.5 33.5-15.03 33.5-33.5 33.5zm19.09-31.69v-.32c.68-1.56 1.31-3.5 1.3-5.42 0-1.74-.74-3.64-2.09-5.36l-1.6-1.86-1.2-1.38h3.59v-2.5h-5.12c-.26-.77-.35-1.52-.43-2.22l-.07-.58-.07-.5-1.83-.02v3.32H23.76v2.5h31.82v4.67H41.21c-.59-1.72-3.02-3.01-5.93-3.01s-5.34 1.29-5.93 3.01h-5.59v2.5h5.67v4.67h-5.67v2.5h5.67v4.67h-5.67v2.5h5.67v4.67h-5.67v2.5h5.67v3.55h2v-3.55H63.1v-2.5H31.43v-4.67H45.8c.85 1.46 3.07 2.5 5.69 2.5s4.85-1.04 5.69-2.5h5.91v-2.5h-5.62v-4.67h5.64zm-1.28-7.17c.27.7.45 1.45.47 2.17.04.85-.1 1.69-.31 2.5h-4.5v-4.67h4.34zm-4.34-4.1c.9.24 1.87.83 2.67 1.59h-2.67v-1.59zm-26.06 5.34c1.05.54 2.39.86 3.85.86 2.37 0 4.42-.86 5.42-2.1h14.88v4.67H31.43v-3.43zm24.15 8.99c-1.08-.62-2.51-1-4.08-1-2.68 0-4.95 1.09-5.75 2.61H31.43v-4.67h24.15v3.06z"/></svg>