<?xml version="1.0" encoding="utf-8"?>
<!-- Generator: Adobe Illustrator 24.2.0, SVG Export Plug-In . SVG Version: 6.00 Build 0)  -->
<svg version="1.1" id="Layer_1" xmlns="http://www.w3.org/2000/svg" xmlns:xlink="http://www.w3.org/1999/xlink" x="0px" y="0px"
	 viewBox="0 0 87.87 87.87" style="enable-background:new 0 0 87.87 87.87;" xml:space="preserve">
<style type="text/css">
	.st0{clip-path:url(#SVGID_2_);fill:#231F20;}
</style>
<g>
	<defs>
		<rect id="SVGID_1_" y="0" width="87.87" height="87.87"/>
	</defs>
	<clipPath id="SVGID_2_">
		<use xlink:href="#SVGID_1_"  style="overflow:visible;"/>
	</clipPath>
	<path class="st0" d="M39.64,77.1l-1.15,8.93c1.79,0.23,3.62,0.35,5.44,0.35c1.88,0,3.76-0.13,5.61-0.37l-1.18-8.92
		C45.49,77.47,42.51,77.47,39.64,77.1"/>
	<path class="st0" d="M69.8,10.28c-2.94-2.26-6.16-4.13-9.58-5.55l-3.46,8.31c2.69,1.12,5.23,2.59,7.55,4.37L69.8,10.28z"/>
	<path class="st0" d="M4.77,60.31c1.43,3.41,3.3,6.63,5.57,9.57l7.12-5.5c-1.79-2.31-3.26-4.85-4.39-7.53L4.77,60.31z"/>
	<path class="st0" d="M18.19,77.67c2.95,2.25,6.18,4.11,9.6,5.52l3.43-8.32c-2.69-1.11-5.24-2.57-7.56-4.35L18.19,77.67z"/>
	<path class="st0" d="M56.78,74.82l3.46,8.31c3.41-1.42,6.63-3.29,9.57-5.56l-5.49-7.13C62.01,72.23,59.47,73.7,56.78,74.82"/>
	<path class="st0" d="M86.02,38.39l-8.92,1.17c0.19,1.44,0.28,2.91,0.28,4.38c0,1.45-0.09,2.92-0.28,4.36l8.93,1.16
		c0.24-1.82,0.35-3.68,0.35-5.51C86.38,42.08,86.26,40.22,86.02,38.39"/>
	<path class="st0" d="M70.49,64.27l7.14,5.48c2.26-2.94,4.12-6.17,5.54-9.59l-8.32-3.44C73.74,59.41,72.27,61.95,70.49,64.27"/>
	<path class="st0" d="M83.16,27.69c-1.42-3.42-3.28-6.64-5.54-9.58l-7.14,5.48c1.78,2.32,3.25,4.86,4.37,7.55L83.16,27.69z"/>
	<path class="st0" d="M10.5,43.94c0-18.44,15-33.44,33.44-33.44c1.47,0,2.95,0.1,4.41,0.29l1.17-8.92C47.67,1.62,45.8,1.5,43.94,1.5
		C20.54,1.5,1.5,20.54,1.5,43.94c0,1.86,0.12,3.74,0.36,5.58l8.92-1.18C10.59,46.89,10.5,45.41,10.5,43.94"/>
	<polygon class="st0" points="36.83,60.32 40,52.87 40.29,22.3 34.53,22.25 34.24,52.8 	"/>
	<path class="st0" d="M44.17,60.11c-1.31,3.99-6.82,7.52-6.71,7.18c0.8-2.33,0.97-4.01-4.06-7.29c-2.55-1.66-5.21-5.12-3.25-7.67
		c1.28-2.56,7.5-4.59,7.49-4.57C37.16,48.62,45.82,56.12,44.17,60.11"/>
	<rect x="49.26" y="22.2" class="st0" width="6.82" height="6.76"/>
	<polygon class="st0" points="49.26,58.34 49.26,58.34 49.26,58.35 49.26,58.36 49.27,58.36 52.42,67.22 56.07,58.36 56.08,58.36 
		56.08,30.32 49.26,30.32 	"/>
</g>
</svg>
