<?xml version="1.0" encoding="utf-8"?>
<!-- Generator: Adobe Illustrator 24.2.0, SVG Export Plug-In . SVG Version: 6.00 Build 0)  -->
<svg version="1.1" id="Layer_1" xmlns="http://www.w3.org/2000/svg" x="0px" y="0px"
	 viewBox="0 0 87.87 87.87" style="enable-background:new 0 0 87.87 87.87;" xml:space="preserve">
<style type="text/css">
	.st0{clip-path:url(#SVGID_2_);fill:#231F20;}
</style>
<g>
	<defs>
		<rect id="SVGID_1_" y="0" width="87.87" height="87.87"/>
	</defs>
	<clipPath id="SVGID_2_">
		<use xlink:href="#SVGID_1_"  style="overflow:visible;"/>
	</clipPath>
	<path class="st0" d="M4.74,60.22c1.42,3.41,3.28,6.63,5.54,9.57l7.14-5.49c-1.78-2.32-3.25-4.85-4.37-7.54L4.74,60.22z"/>
	<path class="st0" d="M18.09,77.61c2.94,2.26,6.16,4.12,9.57,5.54l3.45-8.31c-2.69-1.12-5.22-2.58-7.54-4.37L18.09,77.61z"/>
	<path class="st0" d="M43.94,1.5C20.54,1.5,1.5,20.54,1.5,43.94c0,1.86,0.12,3.74,0.36,5.57l8.92-1.17
		c-0.19-1.45-0.29-2.93-0.29-4.4c0-18.44,15-33.44,33.44-33.44c18.44,0,33.44,15,33.44,33.44c0,18.44-15,33.44-33.44,33.44
		c-1.47,0-2.95-0.1-4.4-0.29l-1.17,8.92c1.84,0.24,3.71,0.36,5.57,0.36c23.4,0,42.44-19.04,42.44-42.44
		C86.38,20.54,67.34,1.5,43.94,1.5"/>
	<path class="st0" d="M48.62,61.99c-0.3,0.03-0.62-0.02-0.92-0.01c-1.46,0.06-2.97,0.25-4.29-0.57c-1.39-0.87-1.79-2.49-1.08-3.97
		c0.47-0.99,1.38-1.84,1.88-2.65c0.05-0.08,0.08-0.17,0.1-0.17c-0.03-0.18-0.14-0.38-0.19-0.55c-0.19-0.56-0.35-1.11-0.34-1.72
		c0.01-1.73,1.26-3.22,2.29-4.46c1.22-1.46,2.63-2.71,4.08-3.93c-1.51-0.4-3.08-0.62-4.71-0.62c-10.15,0-18.42,8.39-18.86,18.92
		h22.12C48.66,62.16,48.64,62.07,48.62,61.99"/>
	<polygon class="st0" points="56.11,61.61 28.56,61.61 28.56,25.05 56.11,25.05 56.11,41 58.74,38.15 58.74,22.42 25.92,22.42 
		25.92,64.25 58.74,64.25 58.74,51.33 56.11,54.18 	"/>
	
		<rect x="63.61" y="34.33" transform="matrix(0.6795 -0.7336 0.7336 0.6795 -5.8386 60.2773)" class="st0" width="4.94" height="4.98"/>
	<polygon class="st0" points="47.98,52.7 47.98,52.69 47.98,52.7 47.97,52.7 47.98,52.71 45.27,59.02 51.63,56.09 51.63,56.09 
		65.55,41.06 61.89,37.67 	"/>
	<path class="st0" d="M49.14,38.39c0,4.38-3.05,7.93-6.81,7.93c-3.76,0-6.81-3.55-6.81-7.93c0-4.38,3.05-7.92,6.81-7.92
		C46.09,30.47,49.14,34.02,49.14,38.39"/>
</g>
</svg>
