<?xml version="1.0" encoding="utf-8"?>
<!-- Generator: Adobe Illustrator 24.2.0, SVG Export Plug-In . SVG Version: 6.00 Build 0)  -->
<svg version="1.1" id="Layer_1" xmlns="http://www.w3.org/2000/svg" xmlns:xlink="http://www.w3.org/1999/xlink" x="0px" y="0px"
	 viewBox="0 0 87.87 87.87" style="enable-background:new 0 0 87.87 87.87;" xml:space="preserve">
<style type="text/css">
	.st0{clip-path:url(#SVGID_2_);fill:#231F20;}
</style>
<g>
	<defs>
		<rect id="SVGID_1_" y="0" width="87.87" height="87.87"/>
	</defs>
	<clipPath id="SVGID_2_">
		<use xlink:href="#SVGID_1_"  style="overflow:visible;"/>
	</clipPath>
	<path class="st0" d="M49.43,27.25c-1.36-3.41-5.03-4.52-7.99-2.35c-2.26,1.66-3.22,3.99-3.08,6.75c0.1,2.02,0.16,4.03-0.13,6.04
		c-0.14,0.94-0.33,1.87-0.82,2.78c-0.14-0.36-0.26-0.65-0.37-0.95c-0.06-0.18-0.12-0.36-0.16-0.54c-0.48-2.38-0.28-4.77-0.1-7.16
		c0.01-0.07,0.02-0.18,0.07-0.21c0.34-0.19,0.24-0.49,0.17-0.75c-0.21-0.79-0.42-1.58-0.68-2.35c-0.56-1.62-1.6-2.88-3.04-3.8
		c-2.82-1.8-6.24-0.86-7.65,2.09c-1.43,2.99-0.5,6.98,2.1,9.04c1.44,1.14,3.05,1.58,4.91,1.14c2.94,9.75,5.86,19.45,8.82,29.24
		c0.18-0.29,0.31-0.49,0.42-0.69c2.37-4.38,2.85-8.98,1.57-13.78c-0.66-2.47-1.78-4.74-3.22-6.85c-0.23-0.33-0.26-0.62-0.14-1
		c0.48-1.53,0.94-3.07,1.4-4.6c0.23-0.77,0.46-1.53,0.7-2.32c1.55,0.38,2.97,0.13,4.28-0.69C49.38,34.47,50.7,30.43,49.43,27.25
		 M33.02,32.93c-0.57,1.17-1.73,1.49-2.86,0.85c-1.21-0.69-1.81-1.79-2.07-3.12c-0.17-0.86-0.1-1.69,0.27-2.49
		c0.6-1.3,1.84-1.7,3.05-0.93c1.41,0.89,1.97,2.27,2.08,4.17C33.39,31.75,33.29,32.38,33.02,32.93 M44.88,33.68
		c-1.28,0.82-2.58,0.43-3.16-0.98c-0.2-0.5-0.26-1.06-0.33-1.34c0.06-1.72,0.57-2.98,1.73-3.9c1.4-1.11,2.93-0.65,3.52,1.04
		C47.26,30.31,46.46,32.67,44.88,33.68"/>
	<path class="st0" d="M33.8,46.17c-2.25,3.82-3.4,7.8-3.03,12.13c0.24,2.8,1.05,5.43,2.59,7.89c0.06-0.16,0.1-0.22,0.12-0.3
		c0.86-2.85,1.65-5.71,2.6-8.53c0.45-1.32,0.42-2.51-0.02-3.81C35.24,51.16,34.57,48.71,33.8,46.17"/>
	<path class="st0" d="M57.62,23.28h-4.7c-0.7,0-1.28,0.57-1.28,1.28V43.3c0,0.7,0.58,1.28,1.28,1.28h1.1v10.14l-1.69,3.45l2.33,8.06
		h0.18h0.87h0.19l2.33-8.06l-1.69-3.45V44.57h1.1c0.7,0,1.28-0.58,1.28-1.28V24.56C58.89,23.86,58.32,23.28,57.62,23.28"/>
	<path class="st0" d="M4.74,60.22c1.42,3.41,3.28,6.63,5.54,9.57l7.14-5.49c-1.78-2.32-3.25-4.85-4.37-7.54L4.74,60.22z"/>
	<path class="st0" d="M18.09,77.61c2.94,2.26,6.16,4.12,9.57,5.54l3.45-8.31c-2.69-1.12-5.22-2.58-7.54-4.37L18.09,77.61z"/>
	<path class="st0" d="M43.94,1.5C20.54,1.5,1.5,20.54,1.5,43.94c0,1.86,0.12,3.74,0.36,5.57l8.92-1.17
		c-0.19-1.45-0.29-2.93-0.29-4.4c0-18.44,15-33.44,33.44-33.44c18.44,0,33.44,15,33.44,33.44c0,18.44-15,33.44-33.44,33.44
		c-1.47,0-2.95-0.1-4.4-0.29l-1.17,8.92c1.84,0.24,3.71,0.36,5.57,0.36c23.4,0,42.44-19.04,42.44-42.44
		C86.38,20.54,67.34,1.5,43.94,1.5"/>
</g>
</svg>
