<?xml version="1.0" encoding="utf-8"?>
<!-- Generator: Adobe Illustrator 24.2.0, SVG Export Plug-In . SVG Version: 6.00 Build 0)  -->
<svg version="1.1" id="Layer_1" xmlns="http://www.w3.org/2000/svg" x="0px" y="0px"
	 viewBox="0 0 87.87 87.87" style="enable-background:new 0 0 87.87 87.87;" xml:space="preserve">
<style type="text/css">
	.st0{clip-path:url(#SVGID_2_);fill:#231F20;}
</style>
<g>
	<defs>
		<rect id="SVGID_1_" y="0" width="87.87" height="87.87"/>
	</defs>
	<clipPath id="SVGID_2_">
		<use xlink:href="#SVGID_1_"  style="overflow:visible;"/>
	</clipPath>
	<path class="st0" d="M43.94,1.5C20.54,1.5,1.5,20.54,1.5,43.94c0,23.4,19.04,42.44,42.44,42.44c23.4,0,42.44-19.04,42.44-42.44
		C86.38,20.54,67.34,1.5,43.94,1.5 M43.94,77.38c-18.44,0-33.44-15-33.44-33.44c0-18.44,15-33.44,33.44-33.44
		c18.44,0,33.44,15,33.44,33.44C77.38,62.37,62.37,77.38,43.94,77.38"/>
	<polygon class="st0" points="39.37,39.11 38.76,32.57 30.26,16.69 26.12,18.87 34.62,34.73 	"/>
	<path class="st0" d="M44.52,36.14c0.59,3.35-1.98,7.99-2.03,7.71c-0.33-1.97-0.85-3.24-5.7-3.65c-2.46-0.21-5.69-1.66-5.26-4.23
		c-0.07-2.32,3.6-6.16,3.6-6.14C35.1,30.62,44.17,32.66,44.52,36.14"/>
	<path class="st0" d="M35.87,43.42c-2.8,1.5-5.82,4.57-6.13,7.9c-0.14,1.58,0.58,3,1.96,3.81c1.68,0.98,3.62,0.63,5.39,0.12
		c6.62-1.9,12.63-5.36,19.07-7.73c1.59-0.59,3.21-1.11,4.86-1.52c0.83-0.2,1.66-0.38,2.5-0.52c0.34-0.06,0.68-0.12,1.02-0.13
		c0.18-0.01,0.35-0.01,0.52-0.01c0.19,0.08,0.21,0.05,0.05-0.08c0.28,1-1.9,2.23-2.52,2.67c-1.59,1.14-3.27,2.15-4.98,3.11
		c-5.94,3.37-12.28,6.41-16.51,11.97c-1.31,1.73-1.77,4.29,0.74,5.23c1.84,0.69,3.93,0.52,5.82,0.18c2.12-0.38,4.19-1.12,6.25-1.74
		l3.22-0.97c0.56-0.17,2.33-0.97,2.72-0.83c-0.29-0.17-0.59-0.34-0.88-0.51c0.06,0.07,0.13,0.13,0.19,0.2
		c-0.17-0.29-0.34-0.59-0.51-0.88c-0.09-0.28,0.07-0.2-0.18,0.08c-0.24,0.26-0.43,0.72-0.61,1.02c-0.41,0.68-0.82,1.36-1.22,2.04
		c-1.33,2.22,2.13,4.23,3.45,2.02c1.03-1.72,3.14-4.07,2.42-6.22c-0.92-2.75-4.04-1.49-5.97-0.9c-2.29,0.69-4.58,1.4-6.87,2.08
		c-2.15,0.64-4.54,1.38-6.75,0.6c0.29,0.17,0.59,0.34,0.88,0.51c-0.1-0.08-0.2-0.15-0.29-0.23c0.17,0.29,0.34,0.59,0.51,0.88
		c0.14,0.37,0.27-0.14,0.4-0.31c0.2-0.26,0.41-0.51,0.62-0.75c0.36-0.41,0.73-0.81,1.12-1.19c0.95-0.94,1.97-1.82,3.06-2.6
		c2.18-1.58,4.52-2.92,6.87-4.22c2.44-1.35,4.91-2.66,7.24-4.2c2.08-1.37,4.92-3.04,5.64-5.61c0.8-2.83-1.19-5.27-4.05-5.33
		c-2.57-0.06-5.38,0.85-7.79,1.63c-5.11,1.65-9.89,4.13-14.83,6.18c-1.38,0.58-2.78,1.12-4.21,1.6c-1.32,0.45-2.73,1.02-4.13,1
		c-0.1,0-0.26-0.07-0.32-0.15c0.22,0.32,0.18-0.24,0.27-0.47c0.23-0.59,0.59-1.17,0.96-1.68c0.8-1.1,1.85-1.93,3.04-2.57
		C40.15,45.65,38.13,42.2,35.87,43.42"/>
</g>
</svg>
