<?xml version="1.0" encoding="utf-8"?>
<!-- Generator: Adobe Illustrator 24.2.0, SVG Export Plug-In . SVG Version: 6.00 Build 0)  -->
<svg version="1.1" id="Layer_1" xmlns="http://www.w3.org/2000/svg" x="0px" y="0px"
	 viewBox="0 0 87.87 87.87" style="enable-background:new 0 0 87.87 87.87;" xml:space="preserve">
<style type="text/css">
	.st0{clip-path:url(#SVGID_2_);fill:#231F20;}
</style>
<g>
	<defs>
		<rect id="SVGID_1_" y="0" width="87.87" height="87.87"/>
	</defs>
	<clipPath id="SVGID_2_">
		<use xlink:href="#SVGID_1_"  style="overflow:visible;"/>
	</clipPath>
	<path class="st0" d="M43.94,86.38c23.4,0,42.44-19.04,42.44-42.44c0-23.4-19.04-42.44-42.44-42.44C20.54,1.5,1.5,20.54,1.5,43.94
		C1.5,67.34,20.54,86.38,43.94,86.38 M43.94,10.5c18.44,0,33.44,15,33.44,33.44c0,18.44-15,33.44-33.44,33.44
		c-18.44,0-33.44-15-33.44-33.44C10.5,25.5,25.5,10.5,43.94,10.5"/>
	<rect x="42.41" y="35.39" class="st0" width="3.05" height="6.02"/>
	<rect x="42.41" y="24.33" class="st0" width="3.05" height="6.02"/>
	<rect x="42.41" y="13.26" class="st0" width="3.05" height="6.02"/>
	<path class="st0" d="M55,57.32c-1.66-0.79-3.33-0.86-5.04-0.02c-5.04-8.85-10.06-17.65-15.12-26.53c-0.11,0.32-0.19,0.54-0.25,0.77
		c-1.33,4.8-0.77,9.39,1.55,13.78c0.84,1.6,1.89,3.03,3.09,4.35c0.4,0.35,0.77,0.74,1.13,1.15c0.15,0.15,0.3,0.3,0.46,0.45
		c0.12,0.11,0.19,0.22,0.25,0.33c-0.18,0.34-0.35,0.64-0.39,0.7c-0.84,1.37-1.65,2.75-2.47,4.13c-0.41,0.69-0.81,1.38-1.24,2.08
		c-1.41-0.74-2.85-0.84-4.33-0.36c-3.25,1.07-5.5,4.67-5.04,8.06c0.5,3.64,3.8,5.6,7.19,4.2c2.6-1.06,4.09-3.1,4.62-5.81
		c0.39-1.99,0.81-3.95,1.58-5.83c0.29-0.7,1.61-3.18,2.72-4.36c0.74,0.69,1.34,1.25,1.42,1.37c0.1,0.16,0.2,0.32,0.28,0.49
		c1,2.21,1.34,4.59,1.7,6.96c0.01,0.07,0.46,2.04,1.17,3.14c0.93,1.44,2.21,2.45,3.82,3.03c3.15,1.13,6.28-0.56,6.99-3.75
		C59.79,62.43,57.99,58.75,55,57.32 M36.38,64.18c-0.48,1.66-1.27,2.75-2.62,3.37c-1.63,0.74-3-0.08-3.16-1.86
		c-0.17-1.91,1.17-4,2.95-4.6c1.44-0.48,2.61,0.2,2.83,1.71C36.47,63.33,36.48,63.51,36.38,64.18 M54.94,66.6
		c-1.32,0.67-3.13-0.27-4.05-2.1c-0.92-1.82-0.6-3.84,0.72-4.51c1.32-0.67,3.13,0.27,4.05,2.1C56.59,63.92,56.26,65.94,54.94,66.6"
		/>
	<path class="st0" d="M53.82,39.53c0.48-2.9,0.35-5.76-0.53-8.62c-0.1,0.14-0.15,0.2-0.19,0.27c-1.55,2.68-8.43,14.39-8.43,14.39
		s2.1,3.38,3.16,5.53C47.82,51.1,53.08,44.02,53.82,39.53"/>
</g>
</svg>
