<?xml version="1.0" encoding="utf-8"?>
<!-- Generator: Adobe Illustrator 24.2.0, SVG Export Plug-In . SVG Version: 6.00 Build 0)  -->
<svg version="1.1" id="Layer_1" xmlns="http://www.w3.org/2000/svg" xmlns:xlink="http://www.w3.org/1999/xlink" x="0px" y="0px"
	 viewBox="0 0 87.87 87.87" style="enable-background:new 0 0 87.87 87.87;" xml:space="preserve">
<style type="text/css">
	.st0{clip-path:url(#SVGID_2_);fill:#231F20;}
</style>
<g>
	<defs>
		<rect id="SVGID_1_" y="0" width="87.87" height="87.87"/>
	</defs>
	<clipPath id="SVGID_2_">
		<use xlink:href="#SVGID_1_"  style="overflow:visible;"/>
	</clipPath>
	<path class="st0" d="M43.94,1.5C20.54,1.5,1.5,20.54,1.5,43.94c0,23.4,19.04,42.44,42.44,42.44c23.4,0,42.44-19.04,42.44-42.44
		C86.38,20.54,67.34,1.5,43.94,1.5 M43.94,77.38c-18.44,0-33.44-15-33.44-33.44c0-18.44,15-33.44,33.44-33.44
		c18.44,0,33.44,15,33.44,33.44C77.38,62.37,62.37,77.38,43.94,77.38"/>
	<polygon class="st0" points="37.07,40.18 36.47,33.64 27.97,17.76 23.83,19.94 32.32,35.8 	"/>
	<path class="st0" d="M42.23,37.21c0.59,3.35-1.98,7.99-2.03,7.71c-0.33-1.97-0.85-3.24-5.69-3.65c-2.46-0.21-5.69-1.66-5.26-4.23
		c-0.07-2.32,3.6-6.16,3.6-6.14C32.8,31.69,41.88,33.73,42.23,37.21"/>
	<path class="st0" d="M52.95,50.09c1.07,0.26,2.14,0.52,3.2,0.77c1.76,0.42,3.52,0.84,5.28,1.28c0.29,0.07,0.46,0.04,0.65-0.23
		c0.45-0.66,0.94-1.31,1.43-1.94c0.45-0.59,1.01-1.03,1.79-1.1c0.49-0.05,0.97,0.04,1.35,0.33c0.5,0.37,0.56,0.94,0.44,1.51
		c-0.22,1.11-0.47,2.22-0.71,3.33c-0.48,2.14-0.97,4.27-1.45,6.41c-0.17,0.73-0.42,0.91-1.15,0.83c-0.39-0.04-0.78-0.08-1.16-0.17
		c-0.59-0.13-0.94-0.52-1.08-1.1c-0.23-1-0.45-2.01-0.68-3.01c-0.02-0.1-0.13-0.24-0.22-0.25c-2.9-0.4-5.81-0.78-8.73-1.17
		c-0.45,0.98-0.59,2.01-0.52,3.06c0.15,2.13,0.36,4.26,0.54,6.39c0.11,1.27,0.21,2.54,0.3,3.82c0.02,0.22,0,0.45-0.04,0.67
		c-0.08,0.48-0.37,0.8-0.85,0.81c-0.76,0.01-1.53-0.03-2.29-0.11c-0.57-0.06-0.97-0.44-1.17-0.97c-0.53-1.43-1.05-2.87-1.54-4.32
		c-1.1-3.23-2.18-6.47-3.28-9.7c-0.1-0.3-0.22-0.6-0.37-0.88c-0.33-0.61-0.88-0.88-1.55-1c-1.68-0.28-3.36-0.55-5.03-0.87
		c-1.37-0.26-2.75-0.54-3.95-1.32c-0.41-0.27-0.84-0.55-1.17-0.91c-0.94-0.98-0.59-2.3,0.7-2.72c1.52-0.5,3.08-0.6,4.66-0.31
		c2.05,0.37,4.1,0.74,6.14,1.16c0.81,0.17,1.4-0.01,1.96-0.62c3.3-3.58,6.63-7.15,9.94-10.72c0.51-0.55,1.06-1.04,1.81-1.25
		c1.17-0.33,2.17,0.08,3.06,0.8c0.32,0.25,0.33,0.65,0.19,1.01c-0.11,0.28-0.25,0.56-0.41,0.83c-1.5,2.61-3,5.22-4.52,7.81
		c-0.69,1.18-1.09,2.46-1.57,3.73C52.94,49.99,52.95,50.03,52.95,50.09"/>
</g>
</svg>
