<?xml version="1.0" encoding="utf-8"?>
<!-- Generator: Adobe Illustrator 24.2.0, SVG Export Plug-In . SVG Version: 6.00 Build 0)  -->
<svg version="1.1" id="Layer_1" xmlns="http://www.w3.org/2000/svg" x="0px" y="0px"
	 viewBox="0 0 87.87 87.87" style="enable-background:new 0 0 87.87 87.87;" xml:space="preserve">
<style type="text/css">
	.st0{clip-path:url(#SVGID_2_);fill:#231F20;}
</style>
<g>
	<defs>
		<rect id="SVGID_1_" y="0" width="87.87" height="87.87"/>
	</defs>
	<clipPath id="SVGID_2_">
		<use xlink:href="#SVGID_1_"  style="overflow:visible;"/>
	</clipPath>
	<path class="st0" d="M43.94,1.5C20.54,1.5,1.5,20.54,1.5,43.94c0,23.4,19.04,42.44,42.44,42.44c23.4,0,42.44-19.04,42.44-42.44
		C86.38,20.54,67.34,1.5,43.94,1.5 M43.94,77.38c-18.44,0-33.44-15-33.44-33.44c0-18.44,15-33.44,33.44-33.44
		c18.44,0,33.44,15,33.44,33.44C77.38,62.37,62.37,77.38,43.94,77.38"/>
	<path class="st0" d="M56.79,50.08h-5.71v-3.69l2.02-2.02h3.69V40.4c0-1.63-0.01-5.01-3.77-5.94l-3.87-0.97
		c1.21-1.32,1.92-3.08,1.92-4.93v-2.55c0-3.64-2.56-6.8-5.95-7.35c-4.39-0.71-8.33,2.64-8.33,7.05v2.86c0,1.85,0.71,3.61,1.92,4.93
		l-3.87,0.97c-3.7,0.93-3.75,4.14-3.77,5.68v4.23h3.69l2.02,2.02v3.69h-5.71v17.24h25.71V50.08z M33.94,41.51v-1.34
		c0.03-2.16,0.45-2.65,1.6-2.94l6.97-1.74v-2.73l-0.71-0.41c-1.3-0.76-2.15-2.24-2.15-3.78V25.7c0-2.56,2.27-4.67,5.01-4.23
		c2.03,0.33,3.56,2.28,3.56,4.53v2.55c0,1.54-0.84,3.02-2.15,3.78l-0.71,0.41v2.73l6.97,1.74c1.2,0.3,1.6,0.8,1.6,3.18v1.11h-2.02
		l-2.86,2.86H38.81l-2.86-2.86H33.94z M39.65,47.22h8.57v2.86h-8.57V47.22z M53.94,64.46h-20V52.94h20V64.46z"/>
</g>
</svg>
