<?xml version="1.0" encoding="utf-8"?>
<!-- Generator: Adobe Illustrator 24.2.0, SVG Export Plug-In . SVG Version: 6.00 Build 0)  -->
<svg version="1.1" id="Layer_1" xmlns="http://www.w3.org/2000/svg" xmlns:xlink="http://www.w3.org/1999/xlink" x="0px" y="0px"
	 viewBox="0 0 87.87 87.87" style="enable-background:new 0 0 87.87 87.87;" xml:space="preserve">
<style type="text/css">
	.st0{clip-path:url(#SVGID_2_);fill:#231F20;}
</style>
<g>
	<defs>
		<rect id="SVGID_1_" y="0" width="87.87" height="87.87"/>
	</defs>
	<clipPath id="SVGID_2_">
		<use xlink:href="#SVGID_1_"  style="overflow:visible;"/>
	</clipPath>
	<path class="st0" d="M43.94,1.5C20.54,1.5,1.5,20.54,1.5,43.94c0,23.4,19.04,42.44,42.44,42.44c23.4,0,42.44-19.04,42.44-42.44
		C86.38,20.54,67.34,1.5,43.94,1.5 M43.94,77.38c-18.44,0-33.44-15-33.44-33.44c0-18.44,15-33.44,33.44-33.44
		c18.44,0,33.44,15,33.44,33.44C77.38,62.37,62.37,77.38,43.94,77.38"/>
	<path class="st0" d="M62.09,30.77c-5.7-2.68-11.37-5.41-17.03-8.17c-0.85-0.42-1.53-0.47-2.42-0.02
		c-4.98,2.48-9.99,4.88-14.99,7.31c-3.33,1.62-3.33,1.63-3.03,5.57h38.71c0-0.99-0.07-1.87,0.02-2.74
		C63.46,31.67,63,31.2,62.09,30.77"/>
	<rect x="24.61" y="57.75" class="st0" width="38.62" height="3.99"/>
	<path class="st0" d="M56.1,47.21c0.39,2.12,0.75,4.26,1.28,6.34c0.45,1.74,1.68,2.6,3.41,2.65V37.22H49.2
		c1.1,3.32,2.81,6.05,5.66,7.9C55.73,45.68,55.94,46.34,56.1,47.21"/>
	<path class="st0" d="M31.79,47.12c0.15-0.83,0.38-1.44,1.19-1.97c2.87-1.88,4.63-4.62,5.69-7.95H27.12v19.15
		c1.79-0.31,3.01-1.19,3.42-2.88C31.04,51.37,31.41,49.25,31.79,47.12"/>
</g>
</svg>
