<?xml version="1.0" encoding="utf-8"?>
<!-- Generator: Adobe Illustrator 24.2.0, SVG Export Plug-In . SVG Version: 6.00 Build 0)  -->
<svg version="1.1" id="Warstwa_2" xmlns="http://www.w3.org/2000/svg" x="0px" y="0px"
	 viewBox="0 0 87.87 87.87" style="enable-background:new 0 0 87.87 87.87;" xml:space="preserve">
<g>
	<path d="M39.71,77.15l-1.15,8.94c1.8,0.23,3.63,0.35,5.45,0.35c1.88,0,3.77-0.13,5.62-0.37l-1.18-8.94
		C45.58,77.52,42.59,77.52,39.71,77.15z"/>
	<path d="M69.93,10.21c-2.95-2.27-6.18-4.14-9.6-5.56l-3.46,8.33c2.7,1.12,5.24,2.59,7.56,4.38L69.93,10.21z"/>
	<path d="M4.78,60.32c1.43,3.42,3.3,6.64,5.58,9.58l7.13-5.51c-1.79-2.32-3.27-4.86-4.39-7.55L4.78,60.32z"/>
	<path d="M18.22,77.72c2.95,2.26,6.19,4.12,9.62,5.53l3.43-8.34c-2.7-1.11-5.25-2.58-7.57-4.36L18.22,77.72z"/>
	<path d="M56.89,74.86l3.47,8.32c3.42-1.42,6.65-3.3,9.59-5.57l-5.5-7.14C62.12,72.27,59.58,73.74,56.89,74.86z"/>
	<path d="M86.18,38.37l-8.94,1.17c0.19,1.44,0.28,2.92,0.28,4.39c0,1.46-0.1,2.92-0.28,4.36l8.94,1.16
		c0.24-1.82,0.36-3.68,0.36-5.52C86.54,42.07,86.42,40.2,86.18,38.37z"/>
	<path d="M70.62,64.29l7.15,5.49c2.26-2.95,4.13-6.18,5.55-9.61l-8.33-3.45C73.87,59.42,72.4,61.97,70.62,64.29z"/>
	<path d="M83.31,27.65c-1.42-3.42-3.29-6.65-5.55-9.6l-7.15,5.49c1.78,2.32,3.26,4.87,4.38,7.56L83.31,27.65z"/>
	<path d="M10.51,43.92c0-18.47,15.03-33.5,33.5-33.5c1.48,0,2.96,0.1,4.41,0.29l1.17-8.94c-1.84-0.24-3.72-0.36-5.59-0.36
		C20.57,1.4,1.5,20.48,1.5,43.92c0,1.87,0.12,3.75,0.36,5.59l8.94-1.18C10.61,46.88,10.51,45.4,10.51,43.92z"/>
	<g>
		<path d="M58.27,44.02c-2.32-0.01-4.3,1.93-4.32,4.23c-0.02,2.3,1.92,4.26,4.25,4.27c2.4,0.01,4.25-1.81,4.26-4.21
			C62.48,45.92,60.63,44.03,58.27,44.02z"/>
		<path d="M55.27,37.66L43.43,25.82c-1.73-1.73-4.54-1.73-6.27,0l-0.98,0.98c-0.89,0.89-1.31,2.06-1.29,3.23v29.88
			c0,1.2,0.99,2.17,2.22,2.17s2.22-0.97,2.22-2.17V36.22l8.78,8.78l-5.61,8.61c-0.58,0.9-0.33,2.1,0.57,2.68
			c0.33,0.21,0.69,0.32,1.06,0.32c0.63,0,1.25-0.31,1.63-0.88l9.65-14.36C56.32,40.29,56.29,38.68,55.27,37.66z"/>
	</g>
</g>
</svg>
