<?xml version="1.0" encoding="utf-8"?>
<!-- Generator: Adobe Illustrator 24.2.0, SVG Export Plug-In . SVG Version: 6.00 Build 0)  -->
<svg version="1.1" id="Warstwa_2" xmlns="http://www.w3.org/2000/svg" x="0px" y="0px"
	 viewBox="0 0 87.87 87.87" style="enable-background:new 0 0 87.87 87.87;" xml:space="preserve">
<g>
	<g>
		<g>
			<g>
				<g>
					<g>
						<path d="M4.74,60.23c1.42,3.42,3.29,6.64,5.55,9.59l7.15-5.5c-1.78-2.32-3.26-4.86-4.38-7.55L4.74,60.23z"/>
					</g>
					<g>
						<path d="M18.13,77.65c2.94,2.26,6.17,4.13,9.59,5.55l3.46-8.33c-2.69-1.12-5.23-2.59-7.55-4.37L18.13,77.65z"/>
					</g>
					<g>
						<path d="M44.01,1.4C20.57,1.4,1.5,20.48,1.5,43.92c0,1.87,0.12,3.75,0.36,5.58l8.94-1.18c-0.19-1.45-0.29-2.93-0.29-4.41
							c0-18.47,15.03-33.5,33.5-33.5c18.48,0,33.51,15.03,33.51,33.5c0,18.47-15.03,33.5-33.51,33.5c-1.47,0-2.96-0.1-4.41-0.29
							l-1.17,8.94c1.84,0.24,3.72,0.36,5.58,0.36c23.45,0,42.52-19.07,42.52-42.51C86.54,20.48,67.46,1.4,44.01,1.4z"/>
					</g>
				</g>
			</g>
		</g>
	</g>
	<g>
		<path d="M42.36,61.55c0.04-0.16,0.07-0.32,0.07-0.49V49.1c2.3-0.26,4.1-2.19,4.1-4.56V34.49l5.07-6.5l5.1,3.65
			c0.89,0.63,2.12,0.43,2.76-0.46c0.64-0.89,0.43-2.13-0.46-2.76l-6.65-4.75c-0.86-0.61-2.06-0.44-2.71,0.39l-7.3,9.36h-0.12
			l-4.88-4.54l5.23-6.57c0.68-0.86,0.54-2.1-0.31-2.78c-0.86-0.68-2.1-0.54-2.78,0.31l-6.38,8c-0.64,0.81-0.56,1.98,0.2,2.68
			l5.18,4.82v10.56c-0.01,0.07-0.02,0.15-0.02,0.23v14.92c0,0.17,0.03,0.33,0.07,0.49h-12.9v2.99h38.35v-2.99H42.36z"/>
		<path d="M45.22,53.2c-0.02,2.3,1.92,4.26,4.25,4.27c2.4,0.01,4.25-1.81,4.26-4.21c0.01-2.39-1.83-4.28-4.2-4.3
			C47.21,48.96,45.24,50.9,45.22,53.2z"/>
	</g>
</g>
</svg>
