<?xml version="1.0" encoding="utf-8"?>
<!-- Generator: Adobe Illustrator 24.2.0, SVG Export Plug-In . SVG Version: 6.00 Build 0)  -->
<svg version="1.1" id="Warstwa_3" xmlns="http://www.w3.org/2000/svg" x="0px" y="0px"
	 viewBox="0 0 87.87 87.87" style="enable-background:new 0 0 87.87 87.87;" xml:space="preserve">
<g>
	<g>
		<path d="M44.02,1.4C20.57,1.4,1.5,20.47,1.5,43.92c0,23.44,19.07,42.52,42.52,42.52c23.45,0,42.52-19.07,42.52-42.52
			C86.54,20.47,67.46,1.4,44.02,1.4z M44.02,77.42c-18.47,0-33.5-15.03-33.5-33.5c0-18.47,15.03-33.5,33.5-33.5
			c18.47,0,33.5,15.03,33.5,33.5C77.52,62.39,62.49,77.42,44.02,77.42z"/>
	</g>
	<g>
		<path d="M62.44,34.63v-14.5h-2.04v14.5c-1.5,0.36-2.68,1.48-3.16,2.93H32.28c-0.47-1.45-1.66-2.57-3.16-2.93v-14.5h-2.04v14.5
			c-1.94,0.46-3.39,2.2-3.39,4.28c0,2.43,1.98,4.41,4.41,4.41c1.55,0,2.9-0.8,3.69-2.01h8.54L40.3,69.46c0,0.92,0.84,1.66,1.87,1.66
			c1.03,0,1.87-0.74,1.87-1.66V54.84h1.43v14.62c0,0.92,0.84,1.66,1.87,1.66c1.03,0,1.87-0.74,1.87-1.66L49.2,41.3h8.54
			c0.79,1.21,2.14,2.01,3.69,2.01c2.43,0,4.41-1.98,4.41-4.41C65.83,36.83,64.38,35.09,62.44,34.63z M25.74,38.9
			c0-1.31,1.06-2.37,2.37-2.37c0.82,0,1.55,0.42,1.98,1.06c-0.84,0.18-1.48,0.93-1.48,1.83c0,0.61,0.3,1.15,0.75,1.49
			c-0.36,0.23-0.79,0.36-1.24,0.36C26.8,41.27,25.74,40.21,25.74,38.9z M61.42,41.27c-0.46,0-0.88-0.14-1.24-0.36
			c0.45-0.34,0.75-0.88,0.75-1.49c0-0.9-0.63-1.65-1.48-1.83c0.42-0.64,1.15-1.06,1.98-1.06c1.31,0,2.37,1.06,2.37,2.37
			S62.73,41.27,61.42,41.27z"/>
		<path d="M44.91,35.77c2.32,0.01,4.11-1.75,4.12-4.07c0.01-2.31-1.77-4.14-4.06-4.15c-2.24-0.01-4.15,1.86-4.17,4.09
			C40.78,33.86,42.66,35.75,44.91,35.77z"/>
	</g>
</g>
</svg>
