<?xml version="1.0" encoding="iso-8859-1"?>
<!-- Generator: Adobe Illustrator 22.1.0, SVG Export Plug-In . SVG Version: 6.00 Build 0)  -->
<svg version="1.1" xmlns="http://www.w3.org/2000/svg" xmlns:xlink="http://www.w3.org/1999/xlink" x="0px" y="0px"
	 viewBox="0 0 90.709 90.709" style="enable-background:new 0 0 90.709 90.709;" xml:space="preserve">
<g id="ratownik-1">
	<g>
		<g>
			<circle style="fill:#194093;" cx="45.354" cy="45.355" r="43.52"/>
			<g>
				<path style="fill:#252E78;" d="M45.354,2.835c23.483,0,42.52,19.037,42.52,42.52s-19.037,42.52-42.52,42.52
					s-42.52-19.037-42.52-42.52S21.871,2.835,45.354,2.835 M45.354,0.835c-24.548,0-44.52,19.971-44.52,44.52
					s19.971,44.52,44.52,44.52s44.52-19.971,44.52-44.52S69.903,0.835,45.354,0.835L45.354,0.835z"/>
			</g>
		</g>
	</g>
</g>
<g id="Warstwa_4">
	<g>
		<g>
			<g>
				<path style="fill:#F8C409;" d="M29.179,27.986c2.218,0,4.169,1.088,5.392,2.746c1.223-1.658,3.174-2.746,5.392-2.746
					s4.169,1.088,5.392,2.746c1.223-1.658,3.174-2.746,5.392-2.746s4.169,1.088,5.392,2.746c1.223-1.658,3.174-2.746,5.392-2.746
					c2.214,0,4.161,1.085,5.385,2.737c0.009-0.253,0.038-0.5,0.038-0.756c0-11.928-9.67-21.598-21.598-21.598
					s-21.598,9.67-21.598,21.598c0,0.255,0.029,0.503,0.038,0.756C25.018,29.071,26.965,27.986,29.179,27.986z"/>
			</g>
		</g>
		<path style="fill:#F8C409;" d="M59.767,75.382l-8.231-2.815l8.231-2.815c1.045-0.357,1.603-1.495,1.245-2.54
			s-1.493-1.603-2.54-1.245l-13.117,4.487l-13.117-4.487c-1.048-0.356-2.183,0.201-2.54,1.245c-0.357,1.045,0.2,2.183,1.245,2.54
			l8.231,2.815l-8.231,2.815c-1.045,0.357-1.603,1.495-1.245,2.54c0.284,0.83,1.061,1.354,1.893,1.354
			c0.215,0,0.433-0.035,0.647-0.108l13.117-4.487l13.117,4.487c0.215,0.073,0.433,0.108,0.647,0.108
			c0.832,0,1.608-0.523,1.893-1.354C61.369,76.877,60.811,75.739,59.767,75.382z"/>
		<path style="fill:#FFFFFF;" d="M65.237,33.564c-0.687-0.459-1.619-0.275-2.08,0.414L50.314,53.206l5.976-17.913
			c0.263-0.786-0.162-1.636-0.948-1.897c-0.785-0.266-1.636,0.161-1.897,0.948L46.866,54.06l-0.012-19.241
			c0-0.828-0.671-1.5-1.5-1.5s-1.5,0.672-1.5,1.5l0.012,19.313l-6.601-19.787c-0.262-0.786-1.111-1.21-1.897-0.948
			c-0.786,0.262-1.21,1.111-0.948,1.897l5.965,17.882l-12.8-19.197c-0.46-0.689-1.391-0.878-2.08-0.416
			c-0.689,0.46-0.875,1.391-0.416,2.08l19.017,28.521c0.278,0.417,0.746,0.668,1.248,0.668h0c0.501,0,0.969-0.25,1.248-0.667
			l19.05-28.521C66.112,34.955,65.927,34.024,65.237,33.564z"/>
	</g>
</g>
</svg>
