<?xml version="1.0" encoding="iso-8859-1"?>
<!-- Generator: Adobe Illustrator 22.1.0, SVG Export Plug-In . SVG Version: 6.00 Build 0)  -->
<svg version="1.1" xmlns="http://www.w3.org/2000/svg" xmlns:xlink="http://www.w3.org/1999/xlink" x="0px" y="0px"
	 viewBox="0 0 90.709 90.709" style="enable-background:new 0 0 90.709 90.709;" xml:space="preserve">
<g id="ratownik-1">
	<g>
		<g>
			<circle style="fill:#194093;" cx="45.354" cy="45.354" r="43.52"/>
			<g>
				<path style="fill:#252E78;" d="M45.354,2.835c23.483,0,42.52,19.037,42.52,42.52s-19.037,42.52-42.52,42.52
					s-42.52-19.037-42.52-42.52S21.871,2.835,45.354,2.835 M45.354,0.835c-24.548,0-44.52,19.971-44.52,44.52
					s19.971,44.52,44.52,44.52s44.52-19.971,44.52-44.52S69.903,0.835,45.354,0.835L45.354,0.835z"/>
			</g>
		</g>
	</g>
</g>
<g id="Warstwa_4">
	<g>
		<g>
			<path style="fill:#FFFFFF;" d="M67.314,52.654c0.336,0.561,0.562,1.369,0.541,2.584c-0.022,1.258-1.456,2.823-3.821,4.549
				c-1.59,1.161-3.732,1.938-5.966,0.916c-1.66-0.759-1.961-2.764-1.671-4.542c0.204-1.245,3.414-15.473,3.414-15.473
				c-0.103-0.126-0.203-0.256-0.297-0.391c-1.09-1.569-1.53-3.473-1.164-5.347c1.735-8.895,10.721-9.425,10.721-9.425
				s-0.122,2.254-0.162,3.005c-0.035,0.64,0.373,1.433,0.892,2.254l0,0c0.368-0.361,0.719-0.74,1.043-1.145
				c4.317-5.398,1.605-12.66-3.917-15.974c-0.525-0.319-4.08-2.911-10.983-2.331c-5.711,0.48-11.067,2.069-15.571,5.629
				C33.22,22.614,28.611,31.175,27.07,40.161c-0.969,5.643-0.759,11.596,1.418,16.887c3.288,7.989,11.196,13.931,19.798,14.716
				c13.303,1.214,20.832-8.394,22.282-10.577c1.536-2.315,2.646-4.992,2.647-7.768c0.001-5.128-4.249-6.991-5.058-7.286
				L67.314,52.654z"/>
		</g>
		<g>
			<path style="fill:#F8C409;" d="M57.247,81.216c0.222,0.04,0.442,0.059,0.659,0.059c1.731,0,3.264-1.223,3.579-2.968l1.36-9.885
				c-2.242,1.323-4.69,2.295-7.228,2.862l-1.326,5.727C53.937,78.975,55.261,80.858,57.247,81.216z"/>
		</g>
		<g>
			<path style="fill:#F8C409;" d="M60.083,51.398l-2.015,9.304c0.765,0.361,1.626,0.545,2.464,0.491
				c1.168-0.074,2.39-0.651,3.502-1.407l0.955-7.629L60.083,51.398z"/>
		</g>
		<g>
			<path style="fill:#FFFFFF;" d="M64.118,43.254c-0.75-0.135-1.458-0.388-2.111-0.738l-1.409,6.506l4.661,0.797l0.88-6.517
				c-0.248,0.026-0.492,0.066-0.746,0.066C64.968,43.368,64.539,43.33,64.118,43.254z"/>
		</g>
		<g>
			<path style="fill:#F8C409;" d="M60.434,35.324c-0.493,2.735,1.325,5.352,4.06,5.845c0.302,0.054,0.602,0.081,0.898,0.081
				c2.388,0,4.508-1.707,4.946-4.14c0.493-2.735-3.719-5.489-3.546-8.695C63.566,29.378,60.927,32.589,60.434,35.324z"/>
		</g>
		<g>
			
				<ellipse transform="matrix(0.1602 -0.9871 0.9871 0.1602 6.7881 66.1138)" style="fill:#F8C409;" cx="42.248" cy="29.068" rx="5.768" ry="5.768"/>
		</g>
		<g>
			
				<ellipse transform="matrix(0.1602 -0.9871 0.9871 0.1602 27.6457 73.9461)" style="fill:#F8C409;" cx="57.279" cy="20.726" rx="5.768" ry="5.768"/>
		</g>
		<g>
			<path style="fill-rule:evenodd;clip-rule:evenodd;fill:#F8C409;" d="M52.059,62.652L38.655,47.718l4.451-4.418
				c1.316-1.306,1.32-3.433,0.009-4.744c-1.311-1.311-3.438-1.307-4.744,0.009l-4.418,4.451L19.019,29.612
				c-1.483-1.176-2.686-1.221-3.166,0.597c-0.371,2.469,0.534,5.165,2.388,8.014c2.721,3.997,5.441,7.995,8.161,11.992l-0.223,0.21
				c0,0-3.724,4.859-7.372,9.712l-5.863-2.645l-2.125,2.125l3.496,7.747l7.747,3.496l2.125-2.125l-2.645-5.861
				c4.86-3.651,9.713-7.372,9.713-7.372l0.21-0.223c2.662,1.812,10.162,6.916,11.991,8.161c2.849,1.854,5.544,2.758,8.014,2.388
				C53.29,65.347,53.244,64.144,52.059,62.652z"/>
		</g>
	</g>
</g>
</svg>
