<svg xmlns="http://www.w3.org/2000/svg" viewBox="0 0 90.709 90.709"><circle cx="45.354" cy="45.354" r="43.52" fill="#194093"/><path d="M45.354 2.835c23.483 0 42.52 19.037 42.52 42.52s-19.037 42.52-42.52 42.52-42.52-19.037-42.52-42.52 19.037-42.52 42.52-42.52m0-2C20.806.835.834 20.806.834 45.355s19.971 44.52 44.52 44.52 44.52-19.971 44.52-44.52S69.903.835 45.354.835h0z" fill="#252e78"/><path d="M67.314 52.654c.336.561.562 1.369.541 2.584-.022 1.258-1.456 2.823-3.821 4.549-1.59 1.161-3.732 1.938-5.966.916-1.66-.759-1.961-2.764-1.671-4.542.204-1.245 3.414-15.473 3.414-15.473-.103-.126-.203-.256-.297-.391-1.09-1.569-1.53-3.473-1.164-5.347 1.735-8.895 10.721-9.425 10.721-9.425l-.162 3.005c-.035.64.373 1.433.892 2.254h0c.368-.361.719-.74 1.043-1.145 4.317-5.398 1.605-12.66-3.917-15.974-.525-.319-4.08-2.911-10.983-2.331-5.711.48-11.067 2.069-15.571 5.629-7.153 5.651-11.762 14.212-13.303 23.198-.969 5.643-.759 11.596 1.418 16.887 3.288 7.989 11.196 13.931 19.798 14.716 13.303 1.214 20.832-8.394 22.282-10.577 1.536-2.315 2.646-4.992 2.647-7.768.001-5.128-4.249-6.991-5.058-7.286l-.843 6.521z" fill="#fff"/><path d="M57.247 81.216a3.71 3.71 0 0 0 .659.059c1.731 0 3.264-1.223 3.579-2.968l1.36-9.885c-2.242 1.323-4.69 2.295-7.228 2.862l-1.326 5.727c-.354 1.964.97 3.847 2.956 4.205zm2.836-29.818l-2.015 9.304c.765.361 1.626.545 2.464.491 1.168-.074 2.39-.651 3.502-1.407l.955-7.629-4.906-.759z" fill="#f8c409"/><path d="M64.118 43.254a7.14 7.14 0 0 1-2.111-.738l-1.409 6.506 4.661.797.88-6.517-.746.066c-.425 0-.854-.038-1.275-.114z" fill="#fff"/><g fill="#f8c409"><path d="M60.434 35.324c-.493 2.735 1.325 5.352 4.06 5.845a5.1 5.1 0 0 0 .898.081c2.388 0 4.508-1.707 4.946-4.14.493-2.735-3.719-5.489-3.546-8.695-3.226.963-5.865 4.174-6.358 6.909z"/><circle transform="matrix(.1602 -.9871 .9871 .1602 6.7881 66.1138)" cx="42.248" cy="29.068" r="5.768"/><circle transform="matrix(.1602 -.9871 .9871 .1602 27.6457 73.9461)" cx="57.279" cy="20.726" r="5.768"/><path d="M52.059 62.652L38.655 47.718l4.451-4.418a3.35 3.35 0 0 0 .009-4.744 3.35 3.35 0 0 0-4.744.009l-4.418 4.451-14.934-13.404c-1.483-1.176-2.686-1.221-3.166.597-.371 2.469.534 5.165 2.388 8.014l8.161 11.992-.223.21-7.372 9.712-5.863-2.645-2.125 2.125 3.496 7.747 7.747 3.496 2.125-2.125-2.645-5.861 9.713-7.372.21-.223 11.991 8.161c2.849 1.854 5.544 2.758 8.014 2.388 1.82-.481 1.774-1.684.589-3.176z" fill-rule="evenodd"/></g></svg>