<svg xmlns="http://www.w3.org/2000/svg" viewBox="0 0 90.709 90.709"><path d="M45.354 88.874c-23.997 0-43.52-19.522-43.52-43.52s19.523-43.52 43.52-43.52 43.521 19.523 43.521 43.521-19.524 43.519-43.521 43.519z" fill="#194093"/><path d="M45.354 2.835c23.483 0 42.52 19.037 42.52 42.52s-19.037 42.52-42.52 42.52-42.52-19.037-42.52-42.52 19.037-42.52 42.52-42.52m0-2C20.806.835.834 20.806.834 45.355s19.971 44.52 44.52 44.52 44.52-19.971 44.52-44.52S69.903.835 45.354.835h0z" fill="#252e78"/><path d="M38.252 72.245h14.205v7.81a3.57 3.57 0 0 1-3.567 3.567h-7.072a3.57 3.57 0 0 1-3.567-3.567v-7.81z" fill="#f8c409"/><path d="M64.701 13.567c5.525 4.382 8.982 10.615 8.982 17.534 0 .599-.035 1.191-.086 1.779-.897 14.597-20.856 28.646-21.141 34.535h-2.367c0-8.507 26.321-30.246 14.612-53.848z" fill="#fefefe"/><path d="M53.763 8.163c4.133 1.087 7.855 2.959 10.938 5.404C76.41 37.169 50.089 58.908 50.089 67.415h-2.368c.001-9.015 16.851-35.488 6.042-59.252z" fill="#f8c409"/><path d="M53.763 8.163c10.809 23.764-6.041 50.238-6.041 59.252h-2.367V7.087c2.927 0 5.751.377 8.408 1.076z" fill="#fefefe"/><path d="M26.008 13.567c-5.525 4.382-8.982 10.615-8.982 17.534 0 .599.035 1.191.086 1.779.897 14.597 20.856 28.646 21.141 34.535h2.367c-.001-8.507-26.321-30.246-14.612-53.848z" fill="#f8c409"/><path d="M36.946 8.163c-4.133 1.087-7.855 2.959-10.938 5.404-11.709 23.602 14.611 45.341 14.611 53.848h2.368c0-9.015-16.851-35.488-6.041-59.252z" fill="#fefefe"/><path d="M36.946 8.163c-10.81 23.764 6.041 50.237 6.041 59.252h2.367V7.087c-2.928 0-5.752.377-8.408 1.076z" fill="#f8c409"/></svg>