<?xml version="1.0" encoding="iso-8859-1"?>
<!-- Generator: Adobe Illustrator 22.1.0, SVG Export Plug-In . SVG Version: 6.00 Build 0)  -->
<svg version="1.1" xmlns="http://www.w3.org/2000/svg" xmlns:xlink="http://www.w3.org/1999/xlink" x="0px" y="0px"
	 viewBox="0 0 90.709 90.709" style="enable-background:new 0 0 90.709 90.709;" xml:space="preserve">
<g id="ratownik-1">
	<g>
		<g>
			<path style="fill:#194093;" d="M45.354,88.874c-23.997,0-43.52-19.522-43.52-43.52S21.357,1.834,45.354,1.834
				s43.521,19.523,43.521,43.521S69.351,88.874,45.354,88.874z"/>
			<g>
				<path style="fill:#252E78;" d="M45.354,2.835c23.483,0,42.52,19.037,42.52,42.52s-19.037,42.52-42.52,42.52
					c-23.483,0-42.52-19.037-42.52-42.52S21.871,2.835,45.354,2.835 M45.354,0.835c-24.548,0-44.52,19.971-44.52,44.52
					s19.971,44.52,44.52,44.52s44.52-19.971,44.52-44.52S69.903,0.835,45.354,0.835L45.354,0.835z"/>
			</g>
		</g>
	</g>
</g>
<g id="Warstwa_4">
	<g>
		<g>
			<g>
				<path style="fill:#F8C409;" d="M38.252,72.245h14.205v7.81c0,1.97-1.597,3.567-3.567,3.567h-7.072
					c-1.97,0-3.567-1.597-3.567-3.567V72.245z"/>
			</g>
		</g>
		<g>
			<g>
				<path style="fill:#FEFEFE;" d="M64.701,13.567c5.525,4.382,8.982,10.615,8.982,17.534c0,0.599-0.035,1.191-0.086,1.779
					c-0.897,14.597-20.856,28.646-21.141,34.535h-2.367C50.089,58.908,76.41,37.169,64.701,13.567z"/>
			</g>
			<g>
				<path style="fill:#F8C409;" d="M53.763,8.163c4.133,1.087,7.855,2.959,10.938,5.404C76.41,37.169,50.089,58.908,50.089,67.415
					h-2.368C47.722,58.4,64.572,31.927,53.763,8.163z"/>
			</g>
			<g>
				<path style="fill:#FEFEFE;" d="M53.763,8.163c10.809,23.764-6.041,50.238-6.041,59.252h-2.367V7.087
					C48.282,7.087,51.106,7.464,53.763,8.163z"/>
			</g>
			<g>
				<path style="fill:#F8C409;" d="M26.008,13.567c-5.525,4.382-8.982,10.615-8.982,17.534c0,0.599,0.035,1.191,0.086,1.779
					c0.897,14.597,20.856,28.646,21.141,34.535h2.367C40.619,58.908,14.299,37.169,26.008,13.567z"/>
			</g>
			<g>
				<path style="fill:#FEFEFE;" d="M36.946,8.163c-4.133,1.087-7.855,2.959-10.938,5.404C14.299,37.169,40.619,58.908,40.619,67.415
					h2.368C42.987,58.4,26.136,31.927,36.946,8.163z"/>
			</g>
			<g>
				<path style="fill:#F8C409;" d="M36.946,8.163C26.136,31.927,42.987,58.4,42.987,67.415h2.367V7.087
					C42.426,7.087,39.602,7.464,36.946,8.163z"/>
			</g>
		</g>
	</g>
</g>
</svg>
