<svg xmlns="http://www.w3.org/2000/svg" viewBox="0 0 90.709 90.709"><circle transform="matrix(.9239 -.3827 .3827 .9239 -13.9041 20.8088)" cx="45.354" cy="45.355" r="43.52" fill="#194093"/><path d="M45.354 2.835c23.483 0 42.52 19.037 42.52 42.52s-19.037 42.52-42.52 42.52-42.52-19.037-42.52-42.52 19.037-42.52 42.52-42.52m0-2C20.806.835.834 20.806.834 45.355s19.971 44.52 44.52 44.52 44.52-19.971 44.52-44.52S69.903.835 45.354.835h0z" fill="#252e78"/><path d="M65.237 31.906a1.5 1.5 0 0 0-2.08.414L50.314 51.548l5.976-17.913a1.5 1.5 0 0 0-.948-1.897c-.785-.266-1.636.161-1.897.948l-6.578 19.716-.012-19.241a1.5 1.5 0 1 0-3 0l.012 19.313-6.601-19.787a1.5 1.5 0 0 0-1.897-.948 1.5 1.5 0 0 0-.948 1.897l5.965 17.882-12.8-19.197a1.5 1.5 0 0 0-2.496 1.664l19.017 28.521a1.5 1.5 0 0 0 1.248.668h0a1.5 1.5 0 0 0 1.248-.667l19.05-28.521a1.5 1.5 0 0 0-.416-2.08z" fill="#fff"/><path d="M29.179 26.319c2.218 0 4.169 1.088 5.392 2.746 1.223-1.658 3.174-2.746 5.392-2.746s4.169 1.088 5.392 2.746c1.223-1.658 3.174-2.746 5.392-2.746s4.169 1.088 5.392 2.746c1.223-1.658 3.174-2.746 5.392-2.746s4.161 1.085 5.385 2.737l.038-.756c0-11.928-9.67-21.598-21.598-21.598S23.758 16.372 23.758 28.3c0 .255.029.503.038.756 1.222-1.652 3.169-2.737 5.383-2.737zm8.92 40.618h3.989l2.184 6.34.756 2.479h.042l.756-2.479 2.184-6.34h3.989l1.218 15.012h-3.675l-.462-6.761c-.084-1.134 0-2.52 0-2.52h-.042l-.84 2.52-1.574 4.347h-3.149L41.9 75.188l-.84-2.52h-.042s.084 1.386 0 2.52l-.462 6.761H36.86l1.239-15.012z" fill="#f8c409"/></svg>