<svg xmlns="http://www.w3.org/2000/svg" viewBox="0 0 90.709 90.709"><circle transform="matrix(.9239 -.3827 .3827 .9239 -13.904 20.8088)" cx="45.354" cy="45.354" r="43.52" fill="#194093"/><path d="M45.354 2.835c23.483 0 42.52 19.037 42.52 42.52s-19.037 42.52-42.52 42.52-42.52-19.037-42.52-42.52 19.037-42.52 42.52-42.52m0-2C20.806.835.834 20.806.834 45.355s19.971 44.52 44.52 44.52 44.52-19.971 44.52-44.52S69.903.835 45.354.835h0z" fill="#252e78"/><g fill="#fff"><path d="M69.381 44.556L55.585 29.187l4.581-4.547a3.45 3.45 0 0 0 .009-4.883h0a3.45 3.45 0 0 0-4.883.009l-4.547 4.581-15.369-13.795c-1.527-1.21-2.765-1.257-3.258.614-.382 2.541.549 5.315 2.457 8.248l8.4 12.342-.229.216-7.587 9.996-6.034-2.723-2.188 2.188 3.598 7.973 7.973 3.598 2.188-2.188-2.722-6.032 9.996-7.588.216-.23 12.341 8.399c2.932 1.908 5.706 2.839 8.248 2.457 1.872-.492 1.825-1.73.606-3.266z" fill-rule="evenodd"/><path d="M51.343 66.559L75.157 52.81l-1.953-3.134c-11.471 6.681-24.331 6.504-27.85 14.154v.132h0a8.21 8.21 0 0 1 5.989 2.597z"/><path d="M45.354 63.962v-.132c-3.518-7.65-16.378-7.473-27.849-14.155l-1.953 3.134 23.814 13.749a8.21 8.21 0 0 1 5.988-2.596z"/></g><path d="M80.28 55.667a2 2 0 0 0-2.732-.732L50.334 70.647c-.667-2.129-2.631-3.685-4.98-3.685s-4.314 1.556-4.98 3.685L13.161 54.935a2 2 0 1 0-2 3.464l33.193 19.164c.31.179.655.268 1 .268s.69-.089 1-.268l33.194-19.164a2 2 0 0 0 .732-2.732z" fill="#f8c409"/></svg>