<?xml version="1.0" encoding="iso-8859-1"?>
<!-- Generator: Adobe Illustrator 22.1.0, SVG Export Plug-In . SVG Version: 6.00 Build 0)  -->
<svg version="1.1" xmlns="http://www.w3.org/2000/svg" xmlns:xlink="http://www.w3.org/1999/xlink" x="0px" y="0px"
	 viewBox="0 0 90.709 90.709" style="enable-background:new 0 0 90.709 90.709;" xml:space="preserve">
<g id="ratownik-1">
	<g>
		<g>
			
				<ellipse transform="matrix(0.9239 -0.3827 0.3827 0.9239 -13.904 20.8088)" style="fill:#194093;" cx="45.354" cy="45.354" rx="43.52" ry="43.52"/>
			<g>
				<path style="fill:#252E78;" d="M45.354,2.835c23.483,0,42.52,19.037,42.52,42.52s-19.037,42.52-42.52,42.52
					s-42.52-19.037-42.52-42.52S21.871,2.835,45.354,2.835 M45.354,0.835c-24.548,0-44.52,19.971-44.52,44.52
					s19.971,44.52,44.52,44.52s44.52-19.971,44.52-44.52S69.903,0.835,45.354,0.835L45.354,0.835z"/>
			</g>
		</g>
	</g>
</g>
<g id="Warstwa_4">
	<g>
		<g>
			<path style="fill-rule:evenodd;clip-rule:evenodd;fill:#FFFFFF;" d="M69.381,44.556L55.585,29.187l4.581-4.547
				c1.354-1.344,1.358-3.533,0.009-4.883h0c-1.349-1.349-3.538-1.345-4.883,0.009l-4.547,4.581L35.376,10.552
				c-1.527-1.21-2.765-1.257-3.258,0.614c-0.382,2.541,0.549,5.315,2.457,8.248c2.8,4.114,5.6,8.228,8.4,12.342l-0.229,0.216
				c0,0-3.833,5.001-7.587,9.996l-6.034-2.723l-2.188,2.188l3.598,7.973l7.973,3.598l2.188-2.188l-2.722-6.032
				c5.002-3.758,9.996-7.588,9.996-7.588l0.216-0.23c2.74,1.865,10.459,7.118,12.341,8.399c2.932,1.908,5.706,2.839,8.248,2.457
				C70.647,47.33,70.6,46.092,69.381,44.556z"/>
		</g>
		<g>
			<path style="fill:#FFFFFF;" d="M51.343,66.559L75.157,52.81l-1.953-3.134C61.733,56.357,48.873,56.18,45.354,63.83v0.132l0,0
				C47.714,63.962,49.839,64.964,51.343,66.559z"/>
			<path style="fill:#FFFFFF;" d="M45.354,63.962V63.83c-3.518-7.65-16.378-7.473-27.849-14.155l-1.953,3.134l23.814,13.749
				C40.869,64.964,42.995,63.962,45.354,63.962z"/>
			<path style="fill:#F8C409;" d="M80.28,55.667c-0.553-0.956-1.774-1.286-2.732-0.732L50.334,70.647
				c-0.667-2.129-2.631-3.685-4.98-3.685c-2.349,0-4.314,1.556-4.98,3.685L13.161,54.935c-0.957-0.553-2.18-0.225-2.732,0.732
				c-0.552,0.957-0.225,2.18,0.732,2.732l33.193,19.164c0.31,0.179,0.655,0.268,1,0.268s0.69-0.089,1-0.268l33.194-19.164
				C80.505,57.847,80.832,56.624,80.28,55.667z"/>
		</g>
	</g>
</g>
</svg>
