<?xml version="1.0" encoding="iso-8859-1"?>
<!-- Generator: Adobe Illustrator 22.1.0, SVG Export Plug-In . SVG Version: 6.00 Build 0)  -->
<svg version="1.1" xmlns="http://www.w3.org/2000/svg" xmlns:xlink="http://www.w3.org/1999/xlink" x="0px" y="0px"
	 viewBox="0 0 90.709 90.709" style="enable-background:new 0 0 90.709 90.709;" xml:space="preserve">
<g id="ratownik-1">
	<g>
		<g>
			<circle style="fill:#194093;" cx="45.354" cy="45.354" r="43.52"/>
			<g>
				<path style="fill:#252E78;" d="M45.354,2.835c23.483,0,42.52,19.037,42.52,42.52s-19.037,42.52-42.52,42.52
					s-42.52-19.037-42.52-42.52S21.871,2.835,45.354,2.835 M45.354,0.835c-24.548,0-44.52,19.971-44.52,44.52
					s19.971,44.52,44.52,44.52s44.52-19.971,44.52-44.52S69.903,0.835,45.354,0.835L45.354,0.835z"/>
			</g>
		</g>
	</g>
</g>
<g id="Warstwa_4">
	<g>
		<polygon style="fill-rule:evenodd;clip-rule:evenodd;fill:#F8C409;" points="30.348,60.361 20.477,55.906 17.768,58.615 
			22.222,68.486 32.094,72.941 34.802,70.232 		"/>
		<polygon style="fill-rule:evenodd;clip-rule:evenodd;fill:#F8C409;" points="72.941,71.524 72.393,49.518 41.191,18.316 
			19.185,17.768 36.61,35.193 36.852,44.91 45.799,53.857 55.516,54.099 		"/>
		<g>
			<path style="fill:#FFFFFF;" d="M22.222,70.486c-0.512,0-1.023-0.195-1.414-0.586c-0.781-0.781-0.781-2.047,0-2.828l35.896-35.896
				c0.781-0.781,2.047-0.781,2.828,0c0.781,0.781,0.781,2.047,0,2.828L23.636,69.9C23.246,70.291,22.734,70.486,22.222,70.486z"/>
		</g>
		<g>
			<path style="fill:#FFFFFF;" d="M26.706,26.788c-0.559,0-1.095-0.313-1.353-0.85c-0.359-0.747-0.046-1.643,0.701-2.002
				l14.486-6.972c0.749-0.36,1.644-0.045,2.002,0.701c0.359,0.747,0.046,1.643-0.701,2.002L27.355,26.64
				C27.145,26.741,26.923,26.788,26.706,26.788z"/>
		</g>
		<g>
			<path style="fill:#FFFFFF;" d="M36.613,36.766c-0.459,0-0.913-0.21-1.207-0.608c-0.492-0.667-0.352-1.605,0.314-2.098L48.1,24.91
				c0.666-0.491,1.605-0.351,2.098,0.315c0.492,0.667,0.352,1.605-0.314,2.098l-12.38,9.149
				C37.235,36.67,36.922,36.766,36.613,36.766z"/>
		</g>
		<g>
			<path style="fill:#FFFFFF;" d="M65.394,65.479c-0.218,0-0.439-0.048-0.649-0.149c-0.746-0.359-1.061-1.255-0.701-2.002
				l6.972-14.486c0.358-0.746,1.254-1.061,2.002-0.701c0.746,0.359,1.061,1.255,0.701,2.002l-6.972,14.486
				C66.489,65.165,65.953,65.479,65.394,65.479z"/>
		</g>
		<g>
			<path style="fill:#FFFFFF;" d="M55.417,55.572c-0.31,0-0.622-0.096-0.891-0.293c-0.666-0.493-0.807-1.432-0.314-2.098
				l9.149-12.38c0.492-0.667,1.432-0.806,2.098-0.315c0.666,0.493,0.807,1.432,0.314,2.098l-9.149,12.38
				C56.33,55.361,55.875,55.572,55.417,55.572z"/>
		</g>
	</g>
</g>
</svg>
