<svg xmlns="http://www.w3.org/2000/svg" viewBox="0 0 90.709 90.709"><circle cx="45.354" cy="45.354" r="43.52" fill="#194093"/><path d="M45.354 2.835c23.483 0 42.52 19.037 42.52 42.52s-19.037 42.52-42.52 42.52-42.52-19.037-42.52-42.52 19.037-42.52 42.52-42.52m0-2C20.806.835.834 20.806.834 45.355s19.971 44.52 44.52 44.52 44.52-19.971 44.52-44.52S69.903.835 45.354.835h0z" fill="#252e78"/><path d="M30.348 60.361l-9.871-4.455-2.709 2.709 4.454 9.871 9.872 4.455 2.708-2.709zm42.593 11.163l-.548-22.006-31.202-31.202-22.006-.548L36.61 35.193l.242 9.717 8.947 8.947 9.717.242z" fill-rule="evenodd" fill="#f8c409"/><path d="M22.222 70.486a1.99 1.99 0 0 1-1.414-.586 2 2 0 0 1 0-2.828l35.896-35.896a2 2 0 0 1 2.828 2.828L23.636 69.9a1.99 1.99 0 0 1-1.414.586zm4.484-43.698a1.5 1.5 0 0 1-.652-2.852l14.486-6.972a1.5 1.5 0 1 1 1.301 2.703L27.355 26.64c-.21.101-.432.148-.649.148zm9.907 9.978c-.459 0-.913-.21-1.207-.608a1.5 1.5 0 0 1 .314-2.098l12.38-9.15a1.5 1.5 0 1 1 1.784 2.413l-12.38 9.149a1.5 1.5 0 0 1-.891.294zm28.781 28.713c-.218 0-.439-.048-.649-.149a1.5 1.5 0 0 1-.701-2.002l6.972-14.486a1.5 1.5 0 1 1 2.703 1.301l-6.972 14.486a1.5 1.5 0 0 1-1.353.85zm-9.977-9.907c-.31 0-.622-.096-.891-.293a1.5 1.5 0 0 1-.314-2.098l9.149-12.38a1.5 1.5 0 1 1 2.412 1.783l-9.149 12.38a1.5 1.5 0 0 1-1.207.608z" fill="#fff"/></svg>