<?xml version="1.0" encoding="iso-8859-1"?>
<!-- Generator: Adobe Illustrator 22.1.0, SVG Export Plug-In . SVG Version: 6.00 Build 0)  -->
<svg version="1.1" xmlns="http://www.w3.org/2000/svg" xmlns:xlink="http://www.w3.org/1999/xlink" x="0px" y="0px"
	 viewBox="0 0 90.709 90.709" style="enable-background:new 0 0 90.709 90.709;" xml:space="preserve">
<g id="ratownik-1">
	<g>
		<g>
			<circle style="fill:#194093;" cx="45.354" cy="45.354" r="43.52"/>
			<g>
				<path style="fill:#252E78;" d="M45.354,2.835c23.483,0,42.52,19.037,42.52,42.52s-19.037,42.52-42.52,42.52
					s-42.52-19.037-42.52-42.52S21.871,2.835,45.354,2.835 M45.354,0.835c-24.548,0-44.52,19.971-44.52,44.52
					s19.971,44.52,44.52,44.52s44.52-19.971,44.52-44.52S69.903,0.835,45.354,0.835L45.354,0.835z"/>
			</g>
		</g>
	</g>
</g>
<g id="Warstwa_4">
	<g>
		<path style="fill:#FFFFFF;" d="M67.088,49.429c0-2.898,2.349-5.248,5.248-5.248v-7.448c-2.898,0-5.248-2.349-5.248-5.248
			c0-2.898,2.349-5.248,5.248-5.248v-8.016c-0.049-0.049-0.101-0.095-0.15-0.143h-7.868c0,0.003,0.001,0.005,0.001,0.008
			c0,2.898-2.35,5.248-5.248,5.248s-5.248-2.349-5.248-5.248c0-0.003,0.001-0.005,0.001-0.008h-7.449
			c0,0.003,0.001,0.005,0.001,0.008c0,2.898-2.35,5.248-5.248,5.248c-2.898,0-5.248-2.349-5.248-5.248
			c0-0.003,0.001-0.005,0.001-0.008h-7.449c0,0.003,0.001,0.005,0.001,0.008c0,2.898-2.35,5.248-5.248,5.248
			c-2.717,0-4.925-2.072-5.194-4.718c-3.31,3.387-6.002,7.382-7.88,11.808h49.881v50.294c4.593-1.903,8.734-4.674,12.22-8.11
			c-2.839-0.068-5.123-2.38-5.123-5.235c0-2.898,2.349-5.248,5.248-5.248v-7.448C69.438,54.676,67.088,52.327,67.088,49.429z"/>
		<path style="fill:#F8C409;" d="M10.11,30.423c-1.946,4.588-3.023,9.634-3.023,14.931c0,21.135,17.133,38.268,38.268,38.268
			c5.185,0,10.127-1.037,14.637-2.905V30.423H10.11z M56.574,69.47c-2.469,0.371-5.164-0.534-8.014-2.388
			c-1.829-1.245-9.329-6.349-11.991-8.161l-0.21,0.223c0,0-4.853,3.721-9.713,7.372l2.645,5.861l-2.125,2.125l-7.747-3.496
			l-3.496-7.747l2.125-2.125l5.863,2.645c3.648-4.854,7.372-9.712,7.372-9.712l0.222-0.21c-2.72-3.997-5.441-7.995-8.161-11.992
			c-1.854-2.849-2.758-5.544-2.388-8.014c0.479-1.818,1.682-1.773,3.166-0.597L39.056,46.66l4.418-4.451
			c1.306-1.316,3.433-1.32,4.744-0.009c1.311,1.311,1.307,3.438-0.009,4.744l-4.451,4.418l13.404,14.933
			C58.347,67.788,58.392,68.991,56.574,69.47z"/>
	</g>
</g>
</svg>
