<svg xmlns="http://www.w3.org/2000/svg" viewBox="0 0 90.709 90.709"><circle cx="45.354" cy="45.354" r="43.52" fill="#194093"/><path d="M45.354 2.835c23.483 0 42.52 19.037 42.52 42.52s-19.037 42.52-42.52 42.52-42.52-19.037-42.52-42.52 19.037-42.52 42.52-42.52m0-2C20.806.835.834 20.806.834 45.355s19.971 44.52 44.52 44.52 44.52-19.971 44.52-44.52S69.903.835 45.354.835h0z" fill="#252e78"/><path d="M67.088 49.429a5.25 5.25 0 0 1 5.248-5.248v-7.448a5.25 5.25 0 0 1-5.248-5.248 5.25 5.25 0 0 1 5.248-5.248v-8.016l-.15-.143h-7.868a5.25 5.25 0 0 1-5.247 5.256 5.25 5.25 0 0 1-5.248-5.248l-7.448-.008a5.25 5.25 0 0 1-5.247 5.256 5.25 5.25 0 0 1-5.248-5.248l-7.448-.008a5.25 5.25 0 0 1-5.247 5.256c-2.717 0-4.925-2.072-5.194-4.718-3.31 3.387-6.002 7.382-7.88 11.808h49.881v50.294a38.3 38.3 0 0 0 12.22-8.11c-2.839-.068-5.123-2.38-5.123-5.235a5.25 5.25 0 0 1 5.248-5.248v-7.448a5.25 5.25 0 0 1-5.249-5.248z" fill="#fff"/><path d="M10.11 30.423c-1.946 4.588-3.023 9.634-3.023 14.931 0 21.135 17.133 38.268 38.268 38.268a38.16 38.16 0 0 0 14.637-2.905V30.423H10.11zM56.574 69.47c-2.469.371-5.164-.534-8.014-2.388l-11.991-8.161-.21.223-9.713 7.372 2.645 5.861-2.125 2.125-7.747-3.496-3.496-7.747 2.125-2.125 5.863 2.645 7.372-9.712.222-.21-8.161-11.992c-1.854-2.849-2.758-5.544-2.388-8.014.479-1.818 1.682-1.773 3.166-.597L39.056 46.66l4.418-4.451a3.35 3.35 0 0 1 4.744-.009 3.35 3.35 0 0 1-.009 4.744l-4.451 4.418 13.404 14.933c1.185 1.493 1.23 2.696-.588 3.175z" fill="#f8c409"/></svg>