<svg xmlns="http://www.w3.org/2000/svg" viewBox="0 0 90.709 90.709"><path d="M45.354 88.874c-23.997 0-43.52-19.523-43.52-43.52s19.522-43.52 43.52-43.52 43.521 19.523 43.521 43.52-19.524 43.52-43.521 43.52z" fill="#194093"/><path d="M45.354 2.835c23.483 0 42.52 19.037 42.52 42.52s-19.037 42.52-42.52 42.52-42.52-19.037-42.52-42.52 19.037-42.52 42.52-42.52m0-2C20.806.835.834 20.806.834 45.355s19.971 44.52 44.52 44.52 44.52-19.971 44.52-44.52S69.903.835 45.354.835h0z" fill="#252e78"/><path d="M20.12 17.457L7.55 42.627l18.869-6.3z" fill="#f8c409"/><path d="M26.419 36.327l18.87-6.3-25.169-12.57z" fill="#fff"/><path d="M37.53 69.607l7.759-39.58-18.87 6.3z" fill="#f8c409"/><path d="M83.935 41.365c-2.057-5.507-6.254-9.098-11.515-9.854-5.545-.796-11.313 1.607-14.692 6.122-3.438 4.592-3.822 10.425-1.084 16.427 2.607 5.715 2.349 11.336-.712 15.423-2.585 3.452-6.718 5.231-10.775 4.651-3.065-.44-5.722-2.158-7.766-4.943L26.419 36.327l-18.87 6.3 24.119 21.706.414 1.177c3.358 8.99 9.366 11.123 12.648 11.594.652.094 1.306.14 1.957.14 4.481 0 8.815-2.181 11.646-5.962 3.737-4.992 4.115-11.723 1.038-18.466-2.262-4.958-1.993-9.71.758-13.384 2.689-3.593 7.459-5.582 11.863-4.95 4.202.603 7.445 3.421 9.131 7.934a1.5 1.5 0 1 0 2.812-1.051z" fill="#fff"/><path d="M62.257 58.488l8.207 4.225-.444-9.22zm-5.016.254l-8.206-4.225.444 9.219zm13.657-23.368l-4.412 8.108 9.227-.233zm.236-5.021l4.412-8.107-9.227.232z" fill="#f8c409"/></svg>