<?xml version="1.0" encoding="iso-8859-1"?>
<!-- Generator: Adobe Illustrator 22.1.0, SVG Export Plug-In . SVG Version: 6.00 Build 0)  -->
<svg version="1.1" xmlns="http://www.w3.org/2000/svg" xmlns:xlink="http://www.w3.org/1999/xlink" x="0px" y="0px"
	 viewBox="0 0 90.709 90.709" style="enable-background:new 0 0 90.709 90.709;" xml:space="preserve">
<g id="ratownik-1">
	<g>
		<g>
			<path style="fill:#194093;" d="M45.354,88.874c-23.997,0-43.52-19.523-43.52-43.52s19.522-43.52,43.52-43.52
				s43.521,19.523,43.521,43.52S69.351,88.874,45.354,88.874z"/>
			<g>
				<path style="fill:#252E78;" d="M45.354,2.835c23.483,0,42.52,19.037,42.52,42.52s-19.037,42.52-42.52,42.52
					c-23.483,0-42.52-19.037-42.52-42.52S21.871,2.835,45.354,2.835 M45.354,0.835c-24.548,0-44.52,19.971-44.52,44.52
					s19.971,44.52,44.52,44.52s44.52-19.971,44.52-44.52S69.903,0.835,45.354,0.835L45.354,0.835z"/>
			</g>
		</g>
	</g>
</g>
<g id="Warstwa_4">
	<g>
		<g>
			<g>
				<polygon style="fill:#F8C409;" points="20.12,17.457 7.55,42.627 26.419,36.327 				"/>
			</g>
			<g>
				<polygon style="fill:#FFFFFF;" points="26.419,36.327 45.289,30.027 20.12,17.457 				"/>
			</g>
			<g>
				<polygon style="fill:#F8C409;" points="37.53,69.607 45.289,30.027 26.419,36.327 				"/>
			</g>
		</g>
		<path style="fill:#FFFFFF;" d="M83.935,41.365c-2.057-5.507-6.254-9.098-11.515-9.854c-5.545-0.796-11.313,1.607-14.692,6.122
			c-3.438,4.592-3.822,10.425-1.084,16.427c2.607,5.715,2.349,11.336-0.712,15.423c-2.585,3.452-6.718,5.231-10.775,4.651
			c-3.065-0.44-5.722-2.158-7.766-4.943L26.419,36.327l-18.87,6.3l24.119,21.706l0.414,1.177c3.358,8.99,9.366,11.123,12.648,11.594
			c0.652,0.094,1.306,0.14,1.957,0.14c4.481,0,8.815-2.181,11.646-5.962c3.737-4.992,4.115-11.723,1.038-18.466
			c-2.262-4.958-1.993-9.71,0.758-13.384c2.689-3.593,7.459-5.582,11.863-4.95c4.202,0.603,7.445,3.421,9.131,7.934
			c0.29,0.777,1.157,1.17,1.93,0.88C83.83,43.005,84.225,42.141,83.935,41.365z"/>
		<g>
			<polygon style="fill:#F8C409;" points="62.257,58.488 70.464,62.713 70.02,53.493 			"/>
		</g>
		<g>
			<polygon style="fill:#F8C409;" points="57.241,58.742 49.035,54.517 49.479,63.736 			"/>
		</g>
		<g>
			<polygon style="fill:#F8C409;" points="70.898,35.374 66.486,43.482 75.713,43.249 			"/>
		</g>
		<g>
			<polygon style="fill:#F8C409;" points="71.134,30.353 75.546,22.246 66.319,22.478 			"/>
		</g>
	</g>
</g>
</svg>
