<svg xmlns="http://www.w3.org/2000/svg" viewBox="0 0 90.709 90.709"><path d="M45.354 88.874c-23.997 0-43.52-19.522-43.52-43.52s19.523-43.52 43.52-43.52 43.521 19.523 43.521 43.521-19.524 43.519-43.521 43.519z" fill="#194093"/><path d="M45.354 2.835c23.483 0 42.52 19.037 42.52 42.52s-19.037 42.52-42.52 42.52-42.52-19.037-42.52-42.52 19.037-42.52 42.52-42.52m0-2C20.806.835.834 20.806.834 45.355s19.971 44.52 44.52 44.52 44.52-19.971 44.52-44.52S69.903.835 45.354.835h0z" fill="#252e78"/><g fill="#fff"><path d="M72.952 47.525l3.009 7.959h3.83l3.83-10.13c-2.861.859-6.757 1.585-10.669 2.171z"/><path d="M79.792 35.224h-3.83L72.945 43.2c3.89.585 7.776 1.305 10.677 2.154l-3.83-10.13z"/></g><path d="M72.945 43.2c-7.766-1.167-15.549-1.79-15.549-1.79l-1.901-10.003-6.292-2.592V17.918h3.077c.641 1.396 1.173 2.945 1.548 4.715-.897-4.238-2.51-7.481-5.069-9.372-2.07-1.206-3.113-.082-3.39 2.331-.652 6.178-2.961 23.593-3.464 26.123l-3.062-.044v7.384l3.065-.044c.502 2.525 2.809 19.929 3.461 26.123.277 2.396 1.32 3.521 3.39 2.315 2.559-1.891 4.173-5.134 5.069-9.372-.374 1.769-.907 3.318-1.548 4.715h-3.077V61.895l6.292-2.592L57.396 49.3s7.812-.612 15.556-1.773c3.912-.586 7.808-1.312 10.67-2.171-2.901-.85-6.786-1.571-10.677-2.156zm-25.237 4.713c-4.557 0-5.263-1.142-5.263-2.55s.706-2.55 5.263-2.55 8.251 2.55 8.251 2.55-3.694 2.55-8.251 2.55z" fill="#f8c409"/><path d="M38.841 41.669h-3.4c-.812 0-1.464.644-1.5 1.447a2.25 2.25 0 0 0-2.225 2.246 2.25 2.25 0 0 0 2.225 2.246c.037.803.688 1.447 1.5 1.447h3.4v-.001-7.384-.001zm3.604 3.693c0 1.409.706 2.55 5.263 2.55s8.251-2.55 8.251-2.55-3.694-2.55-8.251-2.55-5.263 1.142-5.263 2.55zm6.757 27.428h3.077c.641-1.396 1.173-2.945 1.548-4.715l1.668-8.774h0l-6.292 2.592-.001 10.897zm0-54.872v10.897l6.292 2.592h0l-1.668-8.774c-.374-1.769-.907-3.318-1.548-4.715h-3.076zM36.506 79.046h-8.48a1.5 1.5 0 0 1-1.5-1.5V13.163a1.5 1.5 0 0 1 1.5-1.5h8.48a1.5 1.5 0 1 1 0 3h-6.98v61.383h6.98a1.5 1.5 0 1 1 0 3z" fill="#fff"/></svg>