<?xml version="1.0" encoding="iso-8859-1"?>
<!-- Generator: Adobe Illustrator 22.1.0, SVG Export Plug-In . SVG Version: 6.00 Build 0)  -->
<svg version="1.1" xmlns="http://www.w3.org/2000/svg" xmlns:xlink="http://www.w3.org/1999/xlink" x="0px" y="0px"
	 viewBox="0 0 90.709 90.709" style="enable-background:new 0 0 90.709 90.709;" xml:space="preserve">
<g id="ratownik-1">
	<g>
		<g>
			<path style="fill:#194093;" d="M45.354,88.874c-23.997,0-43.52-19.522-43.52-43.52S21.357,1.834,45.354,1.834
				s43.521,19.523,43.521,43.521S69.351,88.874,45.354,88.874z"/>
			<g>
				<path style="fill:#252E78;" d="M45.354,2.835c23.483,0,42.52,19.037,42.52,42.52s-19.037,42.52-42.52,42.52
					c-23.483,0-42.52-19.037-42.52-42.52S21.871,2.835,45.354,2.835 M45.354,0.835c-24.548,0-44.52,19.971-44.52,44.52
					s19.971,44.52,44.52,44.52s44.52-19.971,44.52-44.52S69.903,0.835,45.354,0.835L45.354,0.835z"/>
			</g>
		</g>
	</g>
</g>
<g id="Warstwa_4">
	<g>
		<g>
			<path style="fill:#FFFFFF;" d="M72.952,47.525l3.009,7.959h3.83l3.83-10.13C80.76,46.213,76.864,46.939,72.952,47.525z"/>
			<path style="fill:#FFFFFF;" d="M79.792,35.224h-3.83L72.945,43.2c3.89,0.585,7.776,1.305,10.677,2.154L79.792,35.224z"/>
			<path style="fill:#F8C409;" d="M72.945,43.2c-7.766-1.167-15.549-1.79-15.549-1.79c-0.634-3.334-1.268-6.669-1.901-10.003
				l-6.292-2.592l0-10.897h3.077c0.641,1.396,1.173,2.945,1.548,4.715c-0.897-4.238-2.51-7.481-5.069-9.372
				c-2.07-1.206-3.113-0.082-3.39,2.331c-0.652,6.178-2.961,23.593-3.464,26.123c-0.737-0.013-3.062-0.044-3.062-0.044v7.384
				c0,0,2.327-0.031,3.065-0.044c0.502,2.525,2.809,19.929,3.461,26.123c0.277,2.396,1.32,3.521,3.39,2.315
				c2.559-1.891,4.173-5.134,5.069-9.372c-0.374,1.769-0.907,3.318-1.548,4.715h-3.077l0-10.897l6.292-2.592
				c0.634-3.334,1.268-6.669,1.901-10.003c0,0,7.812-0.612,15.556-1.773c3.912-0.586,7.808-1.312,10.67-2.171
				C80.721,44.506,76.836,43.785,72.945,43.2z M47.708,47.913c-4.557,0-5.263-1.142-5.263-2.55s0.706-2.55,5.263-2.55
				s8.251,2.55,8.251,2.55S52.265,47.913,47.708,47.913z"/>
			<path style="fill:#FFFFFF;" d="M38.841,41.669h-3.4c-0.812,0-1.464,0.644-1.5,1.447c-1.23,0.015-2.225,1.012-2.225,2.246
				c0,1.234,0.995,2.232,2.225,2.246c0.037,0.803,0.688,1.447,1.5,1.447h3.4v-0.001V41.67V41.669z"/>
			<path style="fill:#FFFFFF;" d="M42.445,45.362c0,1.409,0.706,2.55,5.263,2.55s8.251-2.55,8.251-2.55s-3.694-2.55-8.251-2.55
				S42.445,43.954,42.445,45.362z"/>
			<path style="fill:#FFFFFF;" d="M49.202,72.79h3.077c0.641-1.396,1.173-2.945,1.548-4.715c0.556-2.925,1.112-5.849,1.668-8.774
				l0,0l-6.292,2.592L49.202,72.79z"/>
			<path style="fill:#FFFFFF;" d="M49.202,17.918l0,10.897l6.292,2.592l0,0c-0.556-2.924-1.112-5.849-1.668-8.774
				c-0.374-1.769-0.907-3.318-1.548-4.715H49.202z"/>
		</g>
		<g>
			<path style="fill:#FFFFFF;" d="M36.506,79.046h-8.48c-0.828,0-1.5-0.672-1.5-1.5V13.163c0-0.828,0.672-1.5,1.5-1.5h8.48
				c0.828,0,1.5,0.672,1.5,1.5s-0.672,1.5-1.5,1.5h-6.98v61.383h6.98c0.828,0,1.5,0.672,1.5,1.5S37.334,79.046,36.506,79.046z"/>
		</g>
	</g>
</g>
</svg>
