<?xml version="1.0" encoding="iso-8859-1"?>
<!-- Generator: Adobe Illustrator 22.1.0, SVG Export Plug-In . SVG Version: 6.00 Build 0)  -->
<svg version="1.1" xmlns="http://www.w3.org/2000/svg" xmlns:xlink="http://www.w3.org/1999/xlink" x="0px" y="0px"
	 viewBox="0 0 90.709 90.709" style="enable-background:new 0 0 90.709 90.709;" xml:space="preserve">
<g id="ratownik-1">
	<g>
		<g>
			
				<ellipse transform="matrix(0.9239 -0.3827 0.3827 0.9239 -13.9041 20.8088)" style="fill:#194093;" cx="45.354" cy="45.355" rx="43.52" ry="43.52"/>
			<g>
				<path style="fill:#252E78;" d="M45.354,2.835c23.483,0,42.52,19.037,42.52,42.52s-19.037,42.52-42.52,42.52
					s-42.52-19.037-42.52-42.52S21.871,2.835,45.354,2.835 M45.354,0.835c-24.548,0-44.52,19.971-44.52,44.52
					s19.971,44.52,44.52,44.52s44.52-19.971,44.52-44.52S69.903,0.835,45.354,0.835L45.354,0.835z"/>
			</g>
		</g>
	</g>
</g>
<g id="Warstwa_4">
	<g>
		<path style="fill:#FFFFFF;" d="M80.395,30.43c-0.735-1.887-5.398-5.599-9.684-2.941c-4.079,2.53-3.573,7.721-1.473,10.106
			c0.214,0.244,0.542,0.649,0.542,0.649l-2.055,1.155c0.726,0.516,1.303,1.214,1.652,2.059c0.17,0.412,0.259,0.84,0.311,1.27
			l1.766,1.119l2.033-2.721c0.789,0.699,1.626,1.125,2.236,1.423c1.276,0.623,4.147-2.464,4.498-3.912
			C80.437,37.75,81.032,32.065,80.395,30.43z"/>
		<path style="fill:#FFFFFF;" d="M22.206,39.348L22.206,39.348l-0.069-3.563c-0.029-1.482-1.254-2.661-2.736-2.632l-10.278,0.2
			c0.027,1.625,1.139,3.031,2.715,3.431l4.989,2.089l0.01,0.501l0.002-0.027H22.206z"/>
		<path style="fill:#F8C409;" d="M69.349,45.191c-0.759,1.766-2.49,2.907-4.409,2.907c-0.596,0-1.181-0.11-1.739-0.327
			c-0.735-0.286-1.812-0.674-3.059-1.122c-0.788-0.283-1.622-0.584-2.469-0.894c-1.439,0.822-2.759,1.48-3.642,1.706
			c-2.159,0.552-8.311-0.611-9.79-0.81c-4.024-0.541-21.666,5.497-21.666,5.497l-0.37-12.799l0,0h-5.368l-0.002,0.027L15.847,56.6
			c0.386,0.808,1.112,1.402,1.982,1.619c0,0,22.119,2.191,31.362,0.062l12.704-1.618c5.81-0.74,10.039-5.876,9.651-11.72
			l-0.072-1.085l-0.019-0.012l-1.766-1.119C69.788,43.556,69.689,44.4,69.349,45.191z"/>
		<path style="fill:#F8C409;" d="M63.927,45.907c0.333,0.13,0.676,0.191,1.013,0.191c1.087,0,2.117-0.639,2.572-1.697
			c0.622-1.447-0.062-3.118-1.524-3.703c-2.239-0.897-5.763-2.256-8.734-3.363c0,0,6.288-11.5,6.563-12.029
			c0.543-1.048-0.948-2.066-2.659-2.066c-1.11,0-2.312,0.428-3.111,1.553c-1.021,1.438-0.625,3.042-0.359,3.622
			c-0.704,1.03-9.475,11.049-6.683,12.461C54.421,42.605,61.252,44.866,63.927,45.907z"/>
	</g>
</g>
</svg>
