<svg xmlns="http://www.w3.org/2000/svg" viewBox="0 0 90.709 90.709"><defs><path id="B" d="M71.064 48.858l.032.015v-8.621l.072-1.719c0-14.245-11.548-25.794-25.794-25.794S19.58 24.287 19.58 38.533v10.382c0 3.331-.233 4.139 0 7.325.213 2.913 1.781 6.983 1.781 11.07a3.25 3.25 0 0 0 3.248 3.248 3.25 3.25 0 0 0 3.248-3.248c0-4.087-1.569-8.157-1.781-11.07-.233-3.186.326-3.994.326-7.325 0-.474.212-.955.498-1.41 4.685.102 11.229-1.696 18.474-1.696 7.192 0 13.695 1.774 18.373 1.7.285.454.496.933.496 1.406 0 3.331.558 4.139.326 7.325-.213 2.913-1.781 6.983-1.781 11.07a3.25 3.25 0 0 0 3.248 3.248 3.25 3.25 0 0 0 3.248-3.248c0-4.087 1.569-8.157 1.781-11.07.233-3.186 0-3.994 0-7.325 0-.019-.001-.038-.001-.057zM43.181 37.603c0 2.29-1.369 4.357-3.477 5.251l-2.943 1.247a7.21 7.21 0 0 1-2.356.395 8.15 8.15 0 0 1-8.146-8.147v-.227a5.33 5.33 0 0 1 5.328-5.328l6.864 1.189c2.733.474 4.73 2.846 4.73 5.62h0zm21.098-1.254a8.15 8.15 0 0 1-8.146 8.147c-.802 0-1.598-.134-2.356-.395l-2.943-1.247c-2.108-.894-3.477-2.961-3.477-5.251h0c0-2.774 1.996-5.146 4.73-5.619l6.864-1.189a5.33 5.33 0 0 1 5.328 5.328v.226z"/></defs><path d="M45.354 88.874c-23.997 0-43.52-19.522-43.52-43.52s19.523-43.52 43.52-43.52 43.52 19.523 43.52 43.521-19.523 43.519-43.52 43.519z" fill="#194093"/><path d="M45.354 2.835c23.483 0 42.52 19.037 42.52 42.52s-19.037 42.52-42.52 42.52-42.52-19.037-42.52-42.52 19.037-42.52 42.52-42.52m0-2C20.806.835.834 20.806.834 45.355s19.971 44.52 44.52 44.52 44.52-19.971 44.52-44.52S69.903.835 45.354.835h0z" fill="#252e78"/><g fill="#f8c409"><use xlink:href="#B"/><use xlink:href="#B"/></g><path d="M70.596 33.107c-1.213-.474-2.677-.91-4.351-1.3-1.234-2.977-3.872-5.43-7.299-5.43s-10.99 2.083-13.551 2.083c-2.773 0-10.25-2.081-13.719-2.081-3.387 0-6.066 2.452-7.3 5.428-1.611.375-3.027.794-4.212 1.247-.871 2.315-.526 9.399-.584 11.697 1.287-.54 2.901-1.033 4.771-1.471 1.732 3.044 5.08 5.108 8.928 5.108 3.082 0 6.318-.721 9.079-1.94a7.32 7.32 0 0 1 5.904 0c2.761 1.218 5.997 1.94 9.079 1.94 3.849 0 7.197-2.064 8.928-5.108 1.897.443 3.53.945 4.826 1.494.001 0 .528-8.926-.499-11.667zm-27.415 4.496c0 2.29-1.369 4.357-3.477 5.251l-2.943 1.247a7.21 7.21 0 0 1-2.356.395 8.15 8.15 0 0 1-8.146-8.147v-.227a5.33 5.33 0 0 1 5.328-5.328l6.864 1.189c2.733.474 4.73 2.846 4.73 5.62h0zm21.098-1.254a8.15 8.15 0 0 1-8.146 8.147c-.802 0-1.598-.134-2.356-.395l-2.943-1.247c-2.108-.894-3.477-2.961-3.477-5.251h0c0-2.774 1.996-5.146 4.73-5.619l6.864-1.189a5.33 5.33 0 0 1 5.328 5.328v.226z" fill="#fff"/></svg>