<?xml version="1.0" encoding="iso-8859-1"?>
<!-- Generator: Adobe Illustrator 22.1.0, SVG Export Plug-In . SVG Version: 6.00 Build 0)  -->
<svg version="1.1" xmlns="http://www.w3.org/2000/svg" xmlns:xlink="http://www.w3.org/1999/xlink" x="0px" y="0px"
	 viewBox="0 0 90.709 90.709" style="enable-background:new 0 0 90.709 90.709;" xml:space="preserve">
<g id="ratownik-1">
	<g>
		<g>
			<path style="fill:#194093;" d="M45.354,88.874c-23.997,0-43.52-19.522-43.52-43.52S21.357,1.834,45.354,1.834
				s43.52,19.523,43.52,43.521S69.351,88.874,45.354,88.874z"/>
			<g>
				<path style="fill:#252E78;" d="M45.354,2.835c23.483,0,42.52,19.037,42.52,42.52s-19.037,42.52-42.52,42.52
					s-42.52-19.037-42.52-42.52S21.871,2.835,45.354,2.835 M45.354,0.835c-24.548,0-44.52,19.971-44.52,44.52
					s19.971,44.52,44.52,44.52s44.52-19.971,44.52-44.52S69.903,0.835,45.354,0.835L45.354,0.835z"/>
			</g>
		</g>
	</g>
</g>
<g id="Warstwa_4">
	<g>
		<g>
			<path style="fill:#F8C409;" d="M71.064,48.858c0.01,0.005,0.022,0.01,0.032,0.015v-8.621c0.043-0.539,0.072-1.102,0.072-1.719
				c0-14.245-11.548-25.794-25.794-25.794c-14.245,0-25.794,11.548-25.794,25.794v10.382c0,3.331-0.233,4.139,0,7.325
				c0.213,2.913,1.781,6.983,1.781,11.07c0,1.794,1.454,3.248,3.248,3.248s3.248-1.454,3.248-3.248c0-4.087-1.569-8.157-1.781-11.07
				c-0.233-3.186,0.326-3.994,0.326-7.325c0-0.474,0.212-0.955,0.498-1.41c4.685,0.102,11.229-1.696,18.474-1.696
				c7.192,0,13.695,1.774,18.373,1.7c0.285,0.454,0.496,0.933,0.496,1.406c0,3.331,0.558,4.139,0.326,7.325
				c-0.213,2.913-1.781,6.983-1.781,11.07c0,1.794,1.454,3.248,3.248,3.248s3.248-1.454,3.248-3.248
				c0-4.087,1.569-8.157,1.781-11.07c0.233-3.186,0-3.994,0-7.325C71.065,48.896,71.064,48.877,71.064,48.858z M43.181,37.603
				c0,2.29-1.369,4.357-3.477,5.251l-2.943,1.247c-0.758,0.262-1.554,0.395-2.356,0.395c-4.499-0.001-8.146-3.648-8.146-8.147
				v-0.227c0-2.942,2.385-5.328,5.328-5.328l6.864,1.189C41.184,32.457,43.181,34.829,43.181,37.603L43.181,37.603z M64.279,36.349
				c0,4.499-3.647,8.147-8.146,8.147c-0.802,0-1.598-0.134-2.356-0.395l-2.943-1.247c-2.108-0.894-3.477-2.961-3.477-5.251v0
				c0-2.774,1.996-5.146,4.73-5.619l6.864-1.189c2.942,0,5.328,2.385,5.328,5.328V36.349z"/>
		</g>
		<g>
			<path style="fill:#F8C409;" d="M71.064,48.858c0.01,0.005,0.022,0.01,0.032,0.015v-8.621c0.043-0.539,0.072-1.102,0.072-1.719
				c0-14.245-11.548-25.794-25.794-25.794c-14.245,0-25.794,11.548-25.794,25.794v10.382c0,3.331-0.233,4.139,0,7.325
				c0.213,2.913,1.781,6.983,1.781,11.07c0,1.794,1.454,3.248,3.248,3.248s3.248-1.454,3.248-3.248c0-4.087-1.569-8.157-1.781-11.07
				c-0.233-3.186,0.326-3.994,0.326-7.325c0-0.474,0.212-0.955,0.498-1.41c4.685,0.102,11.229-1.696,18.474-1.696
				c7.192,0,13.695,1.774,18.373,1.7c0.285,0.454,0.496,0.933,0.496,1.406c0,3.331,0.558,4.139,0.326,7.325
				c-0.213,2.913-1.781,6.983-1.781,11.07c0,1.794,1.454,3.248,3.248,3.248s3.248-1.454,3.248-3.248
				c0-4.087,1.569-8.157,1.781-11.07c0.233-3.186,0-3.994,0-7.325C71.065,48.896,71.064,48.877,71.064,48.858z M43.181,37.603
				c0,2.29-1.369,4.357-3.477,5.251l-2.943,1.247c-0.758,0.262-1.554,0.395-2.356,0.395c-4.499-0.001-8.146-3.648-8.146-8.147
				v-0.227c0-2.942,2.385-5.328,5.328-5.328l6.864,1.189C41.184,32.457,43.181,34.829,43.181,37.603L43.181,37.603z M64.279,36.349
				c0,4.499-3.647,8.147-8.146,8.147c-0.802,0-1.598-0.134-2.356-0.395l-2.943-1.247c-2.108-0.894-3.477-2.961-3.477-5.251v0
				c0-2.774,1.996-5.146,4.73-5.619l6.864-1.189c2.942,0,5.328,2.385,5.328,5.328V36.349z"/>
		</g>
		<g>
			<path style="fill:#FFFFFF;" d="M70.596,33.107c-1.213-0.474-2.677-0.91-4.351-1.3c-1.234-2.977-3.872-5.43-7.299-5.43
				c-3.428,0-10.99,2.083-13.551,2.083c-2.773,0-10.25-2.081-13.719-2.081c-3.387,0-6.066,2.452-7.3,5.428
				c-1.611,0.375-3.027,0.794-4.212,1.247c-0.871,2.315-0.526,9.399-0.584,11.697c1.287-0.54,2.901-1.033,4.771-1.471
				c1.732,3.044,5.08,5.108,8.928,5.108c3.082,0,6.318-0.721,9.079-1.94c1.88-0.829,4.023-0.829,5.904,0
				c2.761,1.218,5.997,1.94,9.079,1.94c3.849,0,7.197-2.064,8.928-5.108c1.897,0.443,3.53,0.945,4.826,1.494
				C71.096,44.774,71.623,35.848,70.596,33.107z M43.181,37.603c0,2.29-1.369,4.357-3.477,5.251l-2.943,1.247
				c-0.758,0.262-1.554,0.395-2.356,0.395c-4.499-0.001-8.146-3.648-8.146-8.147v-0.227c0-2.942,2.385-5.328,5.328-5.328
				l6.864,1.189C41.184,32.457,43.181,34.829,43.181,37.603L43.181,37.603z M64.279,36.349c0,4.499-3.647,8.147-8.146,8.147
				c-0.802,0-1.598-0.134-2.356-0.395l-2.943-1.247c-2.108-0.894-3.477-2.961-3.477-5.251v0c0-2.774,1.996-5.146,4.73-5.619
				l6.864-1.189c2.942,0,5.328,2.385,5.328,5.328V36.349z"/>
		</g>
	</g>
</g>
</svg>
