<?xml version="1.0" encoding="iso-8859-1"?>
<!-- Generator: Adobe Illustrator 22.1.0, SVG Export Plug-In . SVG Version: 6.00 Build 0)  -->
<svg version="1.1" xmlns="http://www.w3.org/2000/svg" xmlns:xlink="http://www.w3.org/1999/xlink" x="0px" y="0px"
	 viewBox="0 0 90.709 90.709" style="enable-background:new 0 0 90.709 90.709;" xml:space="preserve">
<g id="ratownik-1">
	<g>
		<g>
			<path style="fill:#194093;" d="M45.354,88.874c-23.997,0-43.52-19.522-43.52-43.52S21.357,1.834,45.354,1.834
				s43.52,19.523,43.52,43.521S69.352,88.874,45.354,88.874z"/>
			<g>
				<path style="fill:#252E78;" d="M45.354,2.835c23.483,0,42.52,19.037,42.52,42.52s-19.037,42.52-42.52,42.52
					s-42.52-19.037-42.52-42.52S21.871,2.835,45.354,2.835 M45.354,0.835c-24.548,0-44.52,19.971-44.52,44.52
					s19.971,44.52,44.52,44.52s44.52-19.971,44.52-44.52S69.903,0.835,45.354,0.835L45.354,0.835z"/>
			</g>
		</g>
	</g>
</g>
<g id="Warstwa_4">
	<g>
		<polygon style="fill:#FFFFFF;" points="77.217,58.504 71.36,57.653 68.74,52.345 66.121,57.653 60.264,58.504 64.502,62.635 
			63.501,68.469 68.74,65.714 73.979,68.469 72.978,62.635 		"/>
		<polygon style="fill:#FFFFFF;" points="40.561,21.687 44.951,19.379 49.342,21.687 48.503,16.798 52.055,13.336 47.146,12.623 
			44.951,8.175 42.756,12.623 37.847,13.336 41.399,16.798 		"/>
		<polygon style="fill:#FFFFFF;" points="14.379,35.537 17.508,33.893 20.636,35.537 20.039,32.054 22.57,29.587 19.072,29.079 
			17.508,25.909 15.944,29.079 12.446,29.587 14.977,32.054 		"/>
		<path style="fill:#F8C409;" d="M39.634,81.665c0,0,1.492-0.995,4.974-4.974c3.482-3.979-2.487-8.455,1.243-16.165
			c1.085-2.242,1.767-4.461,2.193-6.483L30.028,72.06L39.634,81.665z"/>
		<path style="fill:#F8C409;" d="M30.045,44.721c-7.709,3.73-12.186-2.238-16.165,1.244c-3.979,3.482-4.974,4.974-4.974,4.974
			l9.605,9.605l18.015-18.015C34.505,42.955,32.288,43.636,30.045,44.721z"/>
		<path style="fill:#F8C409;" d="M18.507,62.956c-0.068-0.068-0.125-0.144-0.18-0.22c-1.786,0.247-3.856,1.325-5.628,3.096
			l12.04,12.04c1.772-1.772,2.85-3.842,3.096-5.628c-0.076-0.054-0.152-0.111-0.22-0.18L18.507,62.956z"/>
		<path style="fill:#FFFFFF;" d="M72.628,19.634c0.678-1.062-0.56-2.303-1.623-1.628L43.731,35.325l-7.204,7.204L18.512,60.544
			l-0.005,0.005c-0.596,0.596-0.653,1.522-0.18,2.187c0.054,0.076,0.111,0.152,0.18,0.22l9.109,9.109
			c0.068,0.068,0.144,0.125,0.22,0.18c0.665,0.473,1.591,0.416,2.187-0.18l0.005-0.005l18.016-18.016l7.203-7.203L72.628,19.634z"/>
	</g>
</g>
</svg>
