<svg xmlns="http://www.w3.org/2000/svg" viewBox="0 0 90.709 90.709"><path d="M45.354 88.874c-23.997 0-43.52-19.522-43.52-43.52s19.523-43.52 43.52-43.52 43.52 19.523 43.52 43.521-19.522 43.519-43.52 43.519z" fill="#194093"/><path d="M45.354 2.835c23.483 0 42.52 19.037 42.52 42.52s-19.037 42.52-42.52 42.52-42.52-19.037-42.52-42.52 19.037-42.52 42.52-42.52m0-2C20.806.835.834 20.806.834 45.355s19.971 44.52 44.52 44.52 44.52-19.971 44.52-44.52S69.903.835 45.354.835h0z" fill="#252e78"/><path d="M77.217 58.504l-5.857-.851-2.62-5.308-2.619 5.308-5.857.851 4.238 4.131-1.001 5.834 5.239-2.755 5.239 2.755-1.001-5.834zM40.561 21.687l4.39-2.308 4.391 2.308-.839-4.889 3.552-3.462-4.909-.713-2.195-4.448-2.195 4.448-4.909.713 3.552 3.462zm-26.182 13.85l3.129-1.644 3.128 1.644-.597-3.483 2.531-2.467-3.498-.508-1.564-3.17-1.564 3.17-3.498.508 2.531 2.467z" fill="#fff"/><path d="M39.634 81.665s1.492-.995 4.974-4.974-2.487-8.455 1.243-16.165c1.085-2.242 1.767-4.461 2.193-6.483L30.028 72.06l9.606 9.605zm-9.589-36.944c-7.709 3.73-12.186-2.238-16.165 1.244s-4.974 4.974-4.974 4.974l9.605 9.605 18.015-18.015c-2.021.426-4.238 1.107-6.481 2.192zM18.507 62.956c-.068-.068-.125-.144-.18-.22-1.786.247-3.856 1.325-5.628 3.096l12.04 12.04c1.772-1.772 2.85-3.842 3.096-5.628a1.62 1.62 0 0 1-.22-.18l-9.108-9.108z" fill="#f8c409"/><path d="M72.628 19.634c.678-1.062-.56-2.303-1.623-1.628L43.731 35.325l-7.204 7.204-18.015 18.015-.005.005a1.7 1.7 0 0 0-.18 2.187 1.62 1.62 0 0 0 .18.22l9.109 9.109c.068.068.144.125.22.18a1.7 1.7 0 0 0 2.187-.18l.005-.005 18.016-18.016 7.203-7.203 17.381-27.207z" fill="#fff"/></svg>