<svg xmlns="http://www.w3.org/2000/svg" viewBox="0 0 90.709 90.709"><path d="M45.354 88.874c-23.997 0-43.52-19.522-43.52-43.52s19.523-43.52 43.52-43.52 43.52 19.523 43.52 43.521-19.523 43.519-43.52 43.519z" fill="#194093"/><path d="M45.354 2.835c23.483 0 42.52 19.037 42.52 42.52s-19.037 42.52-42.52 42.52-42.52-19.037-42.52-42.52 19.037-42.52 42.52-42.52m0-2C20.806.835.834 20.806.834 45.355s19.971 44.52 44.52 44.52 44.52-19.971 44.52-44.52S69.903.835 45.354.835h0z" fill="#252e78"/><path d="M45.354 69.45c-1.983 0-3.871.197-5.59.554l5.915-12.62-3.935 1.326-5.855 12.494c-3.021 1.299-4.938 3.204-4.938 5.333 0 3.914 6.449 7.087 14.404 7.087s14.404-3.173 14.404-7.087-6.449-7.087-14.405-7.087z" fill="#fff"/><path d="M63.406 48.609c.007-.002-12.44-5.447-12.44-5.447s-9.824-5.295-12.837-4.715c-2.234.43-9.385-1.607-13.323-2.932-1.191-.402-2.098-.74-2.473-.922-.058-.029-.1-.051-.131-.07-.057-.036-.124-.1-.197-.184-.026-.03-.057-.075-.085-.11a3.52 3.52 0 0 1-.154-.205c-.039-.057-.083-.127-.125-.192l-.149-.235c-.051-.084-.104-.178-.158-.27l-.14-.244-.193-.354-.121-.226-.23-.442-.09-.177-.27-.54-.048-.097-.309-.637h0c-1.013-2.111-1.945-4.28-1.945-4.28s-3.099-.903-3.365-.606c-.165.185-.16 3.971-.086 7.005L8.244 35.2s1.638 5.783 6.107 4.34c.964-.311 2.052-.702 3.182-1.127l9.003 4.954c2.678 1.522 6.955 3.955 11.797 6.255L16.5 60.194c-3.526 1.58 3.062 5.613 5.423 5.038 2.202-.537 27.594-9.14 31-10.296.741.16 1.476.301 2.196.408 7.766 1.149 11.359-.779 11.563-3.584.054-.765-1.03-1.913-3.276-3.151zm11.579-15.077l-21.422 8.583 4.425 1.937 4.277 1.873 2.084.974.022-.04a18.73 18.73 0 0 1 .995.589l16.637-11.157c.82-.708-4.513-3.788-7.018-2.759zm-47.276.813l.568-.215c3.418-1.252-.531-6.588-.531-6.588L21.8 29.877l1.603 3.008c.675.289 2.331.858 4.306 1.46z" fill="#f8c409"/><path d="M48.606 39.749c-4.133-1.776-11.121-1.245-11.6-1.255l-.495 2.577s8.346 3.728 8.855 3.766c1.888.14 5.601-1.675 5.601-1.675s-1.88-3.206-2.361-3.413z" fill="#fff"/></svg>