<?xml version="1.0" encoding="iso-8859-1"?>
<!-- Generator: Adobe Illustrator 22.1.0, SVG Export Plug-In . SVG Version: 6.00 Build 0)  -->
<svg version="1.1" xmlns="http://www.w3.org/2000/svg" xmlns:xlink="http://www.w3.org/1999/xlink" x="0px" y="0px"
	 viewBox="0 0 90.709 90.709" style="enable-background:new 0 0 90.709 90.709;" xml:space="preserve">
<g id="ratownik-1">
	<g>
		<g>
			<path style="fill:#194093;" d="M45.354,88.874c-23.997,0-43.52-19.522-43.52-43.52S21.357,1.834,45.354,1.834
				s43.52,19.523,43.52,43.521S69.351,88.874,45.354,88.874z"/>
			<g>
				<path style="fill:#252E78;" d="M45.354,2.835c23.483,0,42.52,19.037,42.52,42.52s-19.037,42.52-42.52,42.52
					s-42.52-19.037-42.52-42.52S21.871,2.835,45.354,2.835 M45.354,0.835c-24.548,0-44.52,19.971-44.52,44.52
					s19.971,44.52,44.52,44.52s44.52-19.971,44.52-44.52S69.903,0.835,45.354,0.835L45.354,0.835z"/>
			</g>
		</g>
	</g>
</g>
<g id="Warstwa_4">
	<g>
		<path style="fill:#FFFFFF;" d="M45.354,69.45c-1.983,0-3.871,0.197-5.59,0.554l5.915-12.62l-3.935,1.326l-5.855,12.494
			c-3.021,1.299-4.938,3.204-4.938,5.333c0,3.914,6.449,7.087,14.404,7.087s14.404-3.173,14.404-7.087
			C59.758,72.623,53.31,69.45,45.354,69.45z"/>
		<g>
			<g>
				<path style="fill:#F8C409;" d="M63.406,48.609c0.007-0.002-12.44-5.447-12.44-5.447s-9.824-5.295-12.837-4.715
					c-2.234,0.43-9.385-1.607-13.323-2.932c0.001,0,0.001,0,0.002-0.001c-1.193-0.401-2.1-0.739-2.475-0.921
					c-0.002-0.001-0.004-0.002-0.005-0.003c-0.053-0.026-0.095-0.048-0.126-0.067c-0.057-0.036-0.124-0.1-0.197-0.184
					c-0.026-0.03-0.057-0.075-0.085-0.11c-0.05-0.063-0.099-0.125-0.154-0.205c-0.039-0.057-0.083-0.127-0.125-0.192
					c-0.049-0.076-0.097-0.15-0.149-0.235c-0.051-0.084-0.104-0.178-0.158-0.27c-0.046-0.08-0.092-0.158-0.14-0.244
					c-0.063-0.113-0.128-0.233-0.193-0.354c-0.04-0.075-0.08-0.149-0.121-0.226c-0.076-0.143-0.152-0.291-0.23-0.442
					c-0.03-0.059-0.06-0.117-0.09-0.177c-0.089-0.177-0.18-0.357-0.27-0.54c-0.016-0.032-0.032-0.065-0.048-0.097
					c-0.103-0.21-0.207-0.423-0.309-0.637l0,0c-1.013-2.111-1.945-4.28-1.945-4.28s-3.099-0.903-3.365-0.606
					c-0.165,0.185-0.16,3.971-0.086,7.005l-6.293,2.471c0,0,1.638,5.783,6.107,4.34c0.964-0.311,2.052-0.702,3.182-1.127
					c1.819,0.991,4.668,2.489,9.003,4.954c2.678,1.522,6.955,3.955,11.797,6.255c-5.687,2.787-19.073,9.335-21.833,10.572
					c-3.526,1.58,3.062,5.613,5.423,5.038c2.202-0.537,27.594-9.14,31-10.296c0.741,0.16,1.476,0.301,2.196,0.408
					c7.766,1.149,11.359-0.779,11.563-3.584C66.736,50.995,65.652,49.847,63.406,48.609z"/>
				<path style="fill:#F8C409;" d="M74.985,33.532c-1.749,0.718-14.111,5.661-21.422,8.583l4.425,1.937l4.277,1.873
					c0.929,0.407,1.604,0.702,2.084,0.974l0.022-0.04c0.356,0.196,0.684,0.392,0.995,0.589c5.772-3.849,15.981-10.591,16.637-11.157
					C82.823,35.583,77.49,32.503,74.985,33.532z"/>
				<path style="fill:#F8C409;" d="M27.709,34.345c0.208-0.081,0.401-0.154,0.568-0.215c3.418-1.252-0.531-6.588-0.531-6.588
					l-5.946,2.335c0.672,1.391,1.269,2.533,1.603,3.008C24.078,33.174,25.734,33.743,27.709,34.345z"/>
			</g>
			<g>
				<g>
					<path style="fill:#FFFFFF;" d="M48.606,39.749c-4.133-1.776-11.121-1.245-11.6-1.255l-0.495,2.577c0,0,8.346,3.728,8.855,3.766
						c1.888,0.14,5.601-1.675,5.601-1.675S49.087,39.956,48.606,39.749z"/>
				</g>
			</g>
		</g>
	</g>
</g>
</svg>
