<svg xmlns="http://www.w3.org/2000/svg" viewBox="0 0 90.709 90.709"><path d="M45.354 88.874c-23.997 0-43.52-19.522-43.52-43.52s19.524-43.52 43.52-43.52 43.52 19.523 43.52 43.521-19.523 43.519-43.52 43.519z" fill="#194093"/><path d="M45.354 2.835c23.483 0 42.52 19.037 42.52 42.52s-19.037 42.52-42.52 42.52-42.52-19.037-42.52-42.52 19.037-42.52 42.52-42.52m0-2C20.806.835.834 20.806.834 45.355s19.971 44.52 44.52 44.52 44.52-19.971 44.52-44.52S69.903.835 45.354.835h0z" fill="#252e78"/><path d="M66.021 64.182l-5.627-5.074c-2.009-1.811-4.331-3.24-6.854-4.216l-7.082-2.74-15.597-10.383-2.042-11.203-3.344.278.295 7.554c-.673-.358-1.518-.162-1.949.487a1.5 1.5 0 0 0 .417 2.08l17.498 11.648.607 1.031 19.572 15.409a3.19 3.19 0 0 0 4.197-.223h0c1.318-1.285 1.276-3.415-.091-4.648z" fill="#fff"/><path d="M14.405 29.773l2.158 1.811 12.256-1.019 7.666-2.994-1.666-1.421zm67.662 5.663l-5.496-1.813-11.078 9.033 9.025 3.039zM10.4 61.08l4.005 3.517 14.539.978-7.42-5.328zm13.682-1.458l7.96 5.715 40.511-18.194-9.406-3.167z" fill="#f8c409"/></svg>