<?xml version="1.0" encoding="iso-8859-1"?>
<!-- Generator: Adobe Illustrator 22.1.0, SVG Export Plug-In . SVG Version: 6.00 Build 0)  -->
<svg version="1.1" xmlns="http://www.w3.org/2000/svg" xmlns:xlink="http://www.w3.org/1999/xlink" x="0px" y="0px"
	 viewBox="0 0 90.709 90.709" style="enable-background:new 0 0 90.709 90.709;" xml:space="preserve">
<g id="ratownik-1">
	<g>
		<g>
			<path style="fill:#194093;" d="M45.354,88.874c-23.997,0-43.52-19.522-43.52-43.52S21.358,1.834,45.354,1.834
				s43.52,19.523,43.52,43.521S69.351,88.874,45.354,88.874z"/>
			<g>
				<path style="fill:#252E78;" d="M45.354,2.835c23.483,0,42.52,19.037,42.52,42.52s-19.037,42.52-42.52,42.52
					s-42.52-19.037-42.52-42.52S21.871,2.835,45.354,2.835 M45.354,0.835c-24.548,0-44.52,19.971-44.52,44.52
					s19.971,44.52,44.52,44.52s44.52-19.971,44.52-44.52S69.903,0.835,45.354,0.835L45.354,0.835z"/>
			</g>
		</g>
	</g>
</g>
<g id="Warstwa_4">
	<g>
		<path style="fill:#FFFFFF;" d="M66.021,64.182l-5.627-5.074c-2.009-1.811-4.331-3.24-6.854-4.216l-7.082-2.74L30.861,41.769
			l-2.042-11.203l-3.344,0.278l0.295,7.554c-0.673-0.358-1.518-0.162-1.949,0.487c-0.459,0.689-0.272,1.621,0.417,2.08
			l17.498,11.648l0.607,1.031l19.572,15.409c1.257,0.989,3.052,0.894,4.197-0.223v0C67.43,67.545,67.388,65.415,66.021,64.182z"/>
		<g>
			<polygon style="fill:#F8C409;" points="14.405,29.773 16.563,31.584 28.819,30.565 36.485,27.571 34.819,26.15 			"/>
		</g>
		<g>
			<polygon style="fill:#F8C409;" points="82.067,35.436 76.571,33.623 65.493,42.656 74.518,45.695 			"/>
			<polygon style="fill:#F8C409;" points="10.4,61.08 14.405,64.597 28.944,65.575 21.524,60.247 			"/>
			<polygon style="fill:#F8C409;" points="24.082,59.622 32.042,65.337 72.553,47.143 63.147,43.976 			"/>
		</g>
	</g>
</g>
</svg>
