<svg xmlns="http://www.w3.org/2000/svg" viewBox="0 0 90.709 90.709"><path d="M45.354 88.874c-23.997 0-43.52-19.522-43.52-43.52s19.522-43.52 43.52-43.52 43.521 19.522 43.521 43.52-19.524 43.52-43.521 43.52z" fill="#194093"/><path d="M45.354 2.835c23.483 0 42.52 19.037 42.52 42.52s-19.037 42.52-42.52 42.52-42.52-19.037-42.52-42.52 19.037-42.52 42.52-42.52m0-2C20.806.835.834 20.806.834 45.355s19.971 44.52 44.52 44.52 44.52-19.971 44.52-44.52S69.903.835 45.354.835h0z" fill="#252e78"/><path d="M65.18 66.777a2 2 0 0 1-2-2c0-9.836-8.003-17.839-17.839-17.839s-17.838 8.003-17.838 17.839a2 2 0 1 1-4 0c0-12.042 9.797-21.839 21.838-21.839S67.18 52.735 67.18 64.777a2 2 0 0 1-2 2zM8.16 35.478c2.332-.828 4.665-1.257 6.997-1.567 2.332-.293 4.665-.43 6.997-.432s4.665.134 6.997.427c2.332.309 4.665.74 6.997 1.573-2.332.833-4.665 1.264-6.997 1.573-2.332.293-4.665.43-6.997.427a56.65 56.65 0 0 1-6.997-.432c-2.332-.311-4.664-.741-6.997-1.569zm74.388 0c-2.332.828-4.665 1.257-6.997 1.567-2.332.293-4.665.43-6.997.432s-4.665-.134-6.997-.427c-2.332-.309-4.665-.74-6.997-1.573 2.332-.833 4.665-1.264 6.997-1.573 2.332-.293 4.665-.43 6.997-.427a56.65 56.65 0 0 1 6.997.432c2.332.312 4.665.742 6.997 1.569zM37.546 57.321v11.094h15.59V57.321h-15.59zm7.795 8.948c-1.879 0-3.402-1.523-3.402-3.402a3.4 3.4 0 0 1 3.402-3.401c1.879 0 3.402 1.523 3.402 3.401s-1.523 3.402-3.402 3.402z" fill="#fff"/><path d="M70.661 42.697l-.107-.01v-9.506a2 2 0 1 0-4 0v9.139L53.45 41.119c-.097-4.399-3.687-7.937-8.109-7.937-4.44 0-8.042 3.566-8.111 7.989l-13.075 1.161v-9.15a2 2 0 1 0-4 0v9.506l-.102.009a2 2 0 0 0-1.815 2.169c.099 1.1 1.076 1.904 2.169 1.815l14.059-1.249c2.458 2.082 5.522 3.463 8.889 3.859-.003.043-.013.083-.013.127v7.903h4v-7.903c0-.043-.01-.084-.013-.127a16.76 16.76 0 0 0 8.933-3.899l14.035 1.287a1.94 1.94 0 0 0 .185.009 2 2 0 0 0 .179-3.991z" fill="#f8c409"/></svg>