<?xml version="1.0" encoding="iso-8859-1"?>
<!-- Generator: Adobe Illustrator 22.1.0, SVG Export Plug-In . SVG Version: 6.00 Build 0)  -->
<svg version="1.1" xmlns="http://www.w3.org/2000/svg" xmlns:xlink="http://www.w3.org/1999/xlink" x="0px" y="0px"
	 viewBox="0 0 90.709 90.709" style="enable-background:new 0 0 90.709 90.709;" xml:space="preserve">
<g id="ratownik-1">
	<g>
		<g>
			<path style="fill:#194093;" d="M45.354,88.874c-23.997,0-43.52-19.522-43.52-43.52s19.522-43.52,43.52-43.52
				s43.521,19.522,43.521,43.52S69.351,88.874,45.354,88.874z"/>
			<g>
				<path style="fill:#252E78;" d="M45.354,2.835c23.483,0,42.52,19.037,42.52,42.52s-19.037,42.52-42.52,42.52
					c-23.483,0-42.52-19.037-42.52-42.52S21.871,2.835,45.354,2.835 M45.354,0.835c-24.548,0-44.52,19.971-44.52,44.52
					s19.971,44.52,44.52,44.52s44.52-19.971,44.52-44.52S69.903,0.835,45.354,0.835L45.354,0.835z"/>
			</g>
		</g>
	</g>
</g>
<g id="Warstwa_4">
	<g>
		<g>
			<path style="fill:#FFFFFF;" d="M65.18,66.777c-1.104,0-2-0.896-2-2c0-9.836-8.003-17.839-17.839-17.839
				s-17.838,8.003-17.838,17.839c0,1.104-0.896,2-2,2s-2-0.896-2-2c0-12.042,9.797-21.839,21.838-21.839
				c12.042,0,21.839,9.797,21.839,21.839C67.18,65.881,66.285,66.777,65.18,66.777z"/>
		</g>
		<g>
			<path style="fill:#FFFFFF;" d="M8.16,35.478c2.332-0.828,4.665-1.257,6.997-1.567c2.332-0.293,4.665-0.43,6.997-0.432
				c2.332-0.003,4.665,0.134,6.997,0.427c2.332,0.309,4.665,0.74,6.997,1.573c-2.332,0.833-4.665,1.264-6.997,1.573
				c-2.332,0.293-4.665,0.43-6.997,0.427c-2.332-0.002-4.665-0.139-6.997-0.432C12.825,36.736,10.493,36.306,8.16,35.478z"/>
		</g>
		<g>
			<path style="fill:#FFFFFF;" d="M82.548,35.478c-2.332,0.828-4.665,1.257-6.997,1.567c-2.332,0.293-4.665,0.43-6.997,0.432
				c-2.332,0.003-4.665-0.134-6.997-0.427c-2.332-0.309-4.665-0.74-6.997-1.573c2.332-0.833,4.665-1.264,6.997-1.573
				c2.332-0.293,4.665-0.43,6.997-0.427c2.332,0.002,4.665,0.139,6.997,0.432C77.883,34.221,80.216,34.651,82.548,35.478z"/>
		</g>
		<g>
			<path style="fill:#FFFFFF;" d="M37.546,57.321v11.094h15.59V57.321H37.546z M45.341,66.269c-1.879,0-3.402-1.523-3.402-3.402
				c0-1.879,1.523-3.401,3.402-3.401s3.402,1.523,3.402,3.401C48.743,64.746,47.22,66.269,45.341,66.269z"/>
		</g>
		<path style="fill:#F8C409;" d="M70.661,42.697l-0.107-0.01v-9.506c0-1.104-0.896-2-2-2s-2,0.896-2,2v9.139L53.45,41.119
			c-0.097-4.399-3.687-7.937-8.109-7.937c-4.44,0-8.042,3.566-8.111,7.989l-13.075,1.161v-9.15c0-1.104-0.896-2-2-2s-2,0.896-2,2
			v9.506l-0.102,0.009c-1.101,0.098-1.913,1.069-1.815,2.169c0.099,1.1,1.076,1.904,2.169,1.815l14.059-1.249
			c2.458,2.082,5.522,3.463,8.889,3.859c-0.003,0.043-0.013,0.083-0.013,0.127v7.903h4v-7.903c0-0.043-0.01-0.084-0.013-0.127
			c3.387-0.399,6.468-1.796,8.933-3.899l14.035,1.287c0.063,0.006,0.124,0.009,0.185,0.009c1.022,0,1.895-0.779,1.989-1.817
			C72.572,43.772,71.761,42.798,70.661,42.697z"/>
	</g>
</g>
</svg>
