<?xml version="1.0" encoding="iso-8859-1"?>
<!-- Generator: Adobe Illustrator 22.1.0, SVG Export Plug-In . SVG Version: 6.00 Build 0)  -->
<svg version="1.1" xmlns="http://www.w3.org/2000/svg" xmlns:xlink="http://www.w3.org/1999/xlink" x="0px" y="0px"
	 viewBox="0 0 90.709 90.709" style="enable-background:new 0 0 90.709 90.709;" xml:space="preserve">
<g id="ratownik-1">
	<g>
		<g>
			<path style="fill:#194093;" d="M45.354,88.874c-23.997,0-43.52-19.522-43.52-43.52S21.357,1.834,45.354,1.834
				s43.52,19.523,43.52,43.521S69.352,88.874,45.354,88.874z"/>
			<g>
				<path style="fill:#252E78;" d="M45.354,2.835c23.483,0,42.52,19.037,42.52,42.52s-19.037,42.52-42.52,42.52
					s-42.52-19.037-42.52-42.52S21.871,2.835,45.354,2.835 M45.354,0.835c-24.548,0-44.52,19.971-44.52,44.52
					s19.971,44.52,44.52,44.52s44.52-19.971,44.52-44.52S69.903,0.835,45.354,0.835L45.354,0.835z"/>
			</g>
		</g>
	</g>
</g>
<g id="Warstwa_4">
	<g>
		<path style="fill:#FFFFFF;" d="M68.05,58.516c1.385-0.208,2.644-0.474,3.742-0.812c0-5.45-0.724-40.331-0.724-40.331
			S57.704,37.579,43.982,38.362C34.601,51.827,8.277,53.236,8.277,53.236s23.539,4.577,43.008,5.64l-2.201,6.425
			c-0.188,0.551-0.042,1.16,0.376,1.564c0.285,0.275,0.661,0.422,1.043,0.422c0.18,0,16.979-6.351,16.979-6.351
			c0.465-0.177,0.813-0.573,0.927-1.058c0.114-0.483-0.019-0.993-0.355-1.359L68.05,58.516z M52.958,63.249l1.45-4.234
			c3.57,0.124,6.943,0.108,9.933-0.103l0.006,0.007L52.958,63.249z"/>
		<path style="fill:#F8C409;" d="M71.067,17.373c0,0-2.893,24.296-4.739,32.534L40.727,33.685l1.939,6.356l21.067,13.481
			c-10.144,3.329-55.456-0.286-55.456-0.286s47.817,9.298,63.515,4.468C71.792,52.254,71.067,17.373,71.067,17.373z"/>
	</g>
</g>
</svg>
