<svg xmlns="http://www.w3.org/2000/svg" viewBox="0 0 90.709 90.709"><path d="M45.354 88.874c-23.997 0-43.52-19.522-43.52-43.52s19.523-43.52 43.52-43.52 43.52 19.523 43.52 43.521-19.522 43.519-43.52 43.519z" fill="#194093"/><path d="M45.354 2.835c23.483 0 42.52 19.037 42.52 42.52s-19.037 42.52-42.52 42.52-42.52-19.037-42.52-42.52 19.037-42.52 42.52-42.52m0-2C20.806.835.834 20.806.834 45.355s19.971 44.52 44.52 44.52 44.52-19.971 44.52-44.52S69.903.835 45.354.835h0z" fill="#252e78"/><path d="M68.05 58.516c1.385-.208 2.644-.474 3.742-.812 0-5.45-.724-40.331-.724-40.331S57.704 37.579 43.982 38.362C34.601 51.827 8.277 53.236 8.277 53.236s23.539 4.577 43.008 5.64l-2.201 6.425a1.5 1.5 0 0 0 .376 1.564c.285.275.661.422 1.043.422.18 0 16.979-6.351 16.979-6.351a1.5 1.5 0 0 0 .572-2.417l-.004-.003zm-15.092 4.733l1.45-4.234c3.57.124 6.943.108 9.933-.103l.006.007-11.389 4.33z" fill="#fff"/><path d="M71.067 17.373s-2.893 24.296-4.739 32.534L40.727 33.685l1.939 6.356 21.067 13.481c-10.144 3.329-55.456-.286-55.456-.286s47.817 9.298 63.515 4.468c0-5.45-.725-40.331-.725-40.331z" fill="#f8c409"/></svg>