<?xml version="1.0" encoding="iso-8859-1"?>
<!-- Generator: Adobe Illustrator 22.1.0, SVG Export Plug-In . SVG Version: 6.00 Build 0)  -->
<svg version="1.1" xmlns="http://www.w3.org/2000/svg" xmlns:xlink="http://www.w3.org/1999/xlink" x="0px" y="0px"
	 viewBox="0 0 90.709 90.709" style="enable-background:new 0 0 90.709 90.709;" xml:space="preserve">
<g id="ratownik-1">
	<g>
		<g>
			<circle style="fill:#194093;" cx="45.354" cy="45.355" r="43.52"/>
			<g>
				<path style="fill:#252E78;" d="M45.354,2.835c23.483,0,42.52,19.037,42.52,42.52s-19.037,42.52-42.52,42.52
					s-42.52-19.037-42.52-42.52S21.871,2.835,45.354,2.835 M45.354,0.835c-24.548,0-44.52,19.971-44.52,44.52
					s19.971,44.52,44.52,44.52s44.52-19.971,44.52-44.52S69.903,0.835,45.354,0.835L45.354,0.835z"/>
			</g>
		</g>
	</g>
</g>
<g id="Warstwa_4">
	<g>
		<path style="fill:#F8C409;" d="M70.788,24.142h-2.417v43.966h2.417c2.882,0,5.219-2.336,5.219-5.219V29.361
			C76.007,26.479,73.671,24.142,70.788,24.142z"/>
		<path style="fill:#F8C409;" d="M59.064,24.142v-3.624c0-3.23-2.628-5.859-5.858-5.859H37.887c-3.23,0-5.858,2.629-5.858,5.859
			v3.624h-5.657v43.966h38V24.142H59.064z M55.064,24.142H36.029v-3.624c0-1.025,0.834-1.859,1.858-1.859h15.318
			c1.024,0,1.858,0.834,1.858,1.859V24.142z"/>
		<path style="fill:#F8C409;" d="M19.954,24.142c-2.882,0-5.219,2.337-5.219,5.219v33.529c0,2.882,2.336,5.219,5.219,5.219h2.418
			V24.142H19.954z"/>
		<g>
			<g>
				<g>
					<path style="fill:#FFFFFF;" d="M35.192,40.925c1.396,0,2.623,0.685,3.393,1.728c0.77-1.043,1.997-1.728,3.393-1.728
						c1.396,0,2.623,0.685,3.393,1.728c0.77-1.043,1.997-1.728,3.393-1.728c1.396,0,2.623,0.685,3.393,1.728
						c0.77-1.043,1.997-1.728,3.393-1.728c1.393,0,2.619,0.683,3.389,1.722c0.005-0.159,0.024-0.315,0.024-0.476
						c0-7.507-6.085-13.592-13.592-13.592s-13.592,6.085-13.592,13.592c0,0.161,0.019,0.316,0.024,0.476
						C32.573,41.608,33.798,40.925,35.192,40.925z"/>
				</g>
			</g>
			<path style="fill:#FFFFFF;" d="M57.338,44.681c-0.688-0.459-1.619-0.275-2.08,0.414l-4.929,7.378l2.023-6.066
				c0.263-0.786-0.162-1.636-0.948-1.897c-0.787-0.264-1.636,0.163-1.897,0.948l-2.636,7.901v-7.426c0-0.828-0.672-1.5-1.5-1.5
				s-1.5,0.672-1.5,1.5v7.427l-2.637-7.902c-0.262-0.786-1.11-1.21-1.897-0.948c-0.786,0.262-1.211,1.111-0.948,1.897l2.012,6.031
				l-4.896-7.343c-0.46-0.69-1.392-0.877-2.08-0.416c-0.689,0.46-0.876,1.391-0.416,2.08l11.114,16.668
				c0.278,0.417,0.746,0.668,1.247,0.668c0.001,0,0.001,0,0.001,0c0.501,0,0.969-0.25,1.247-0.667l11.134-16.668
				C58.212,46.072,58.028,45.141,57.338,44.681z"/>
		</g>
	</g>
</g>
</svg>
