<svg xmlns="http://www.w3.org/2000/svg" viewBox="0 0 90.709 90.709"><path d="M45.354 88.874c-23.997 0-43.52-19.522-43.52-43.52s19.522-43.52 43.52-43.52 43.521 19.522 43.521 43.52-19.524 43.52-43.521 43.52z" fill="#194093"/><path d="M45.354 2.835c23.483 0 42.52 19.037 42.52 42.52s-19.037 42.52-42.52 42.52-42.52-19.037-42.52-42.52 19.037-42.52 42.52-42.52m0-2C20.806.835.834 20.806.834 45.355s19.971 44.52 44.52 44.52 44.52-19.971 44.52-44.52S69.903.835 45.354.835h0z" fill="#252e78"/><path d="M58.354 24c11.928 0 21.598 9.67 21.598 21.598 0 .255-.03.503-.038.756-1.224-1.652-3.171-2.737-5.385-2.737s-4.169 1.088-5.392 2.746c-1.223-1.658-3.174-2.746-5.392-2.746s-4.169 1.088-5.392 2.746c-1.223-1.658-3.174-2.746-5.392-2.746s-4.169 1.088-5.392 2.746c-1.223-1.658-3.174-2.746-5.392-2.746s-4.161 1.085-5.385 2.737c-.009-.253-.038-.5-.038-.756C36.756 33.67 46.426 24 58.354 24" fill="#f8c409"/><path d="M78.238 49.194a1.5 1.5 0 0 0-2.08.414l-12.845 19.23 5.976-17.915a1.5 1.5 0 0 0-.948-1.897c-.786-.265-1.635.163-1.897.948l-6.589 19.751V50.449a1.5 1.5 0 1 0-3 0v19.276l-6.588-19.75a1.5 1.5 0 0 0-1.897-.948 1.5 1.5 0 0 0-.948 1.897l5.965 17.883-12.8-19.197a1.5 1.5 0 0 0-2.496 1.664l19.017 28.521a1.5 1.5 0 0 0 2.495.001l19.051-28.521c.458-.689.273-1.621-.416-2.081zM37.006 31.408h-6.467a2 2 0 0 1-2-2v-6.467a2 2 0 1 1 4 0v4.467h4.467a2 2 0 1 1 0 4zm-6.467 9.534c-6.324 0-11.47-5.146-11.47-11.47s5.146-11.469 11.47-11.469c5.226 0 9.638 3.517 11.015 8.306 1.052-.917 2.177-1.752 3.369-2.49-2.264-5.738-7.851-9.816-14.384-9.816a15.49 15.49 0 0 0-15.47 15.469c0 8.53 6.939 15.47 15.47 15.47.762 0 1.505-.074 2.238-.181.046-1.417.203-2.806.471-4.156-.87.212-1.774.337-2.709.337z" fill="#fff"/></svg>