<svg xmlns="http://www.w3.org/2000/svg" viewBox="0 0 90.709 90.709"><circle cx="45.354" cy="45.355" r="43.52" fill="#194093"/><path d="M45.354 2.835c23.483 0 42.52 19.037 42.52 42.52s-19.037 42.52-42.52 42.52-42.52-19.037-42.52-42.52 19.037-42.52 42.52-42.52m0-2C20.806.835.834 20.806.834 45.355s19.971 44.52 44.52 44.52 44.52-19.971 44.52-44.52S69.903.835 45.354.835h0z" fill="#252e78"/><path d="M70.788 24.142h-2.417v43.966h2.417a5.22 5.22 0 0 0 5.219-5.219V29.361a5.22 5.22 0 0 0-5.219-5.219zm-11.724 0v-3.624a5.87 5.87 0 0 0-5.858-5.859H37.887a5.87 5.87 0 0 0-5.858 5.859v3.624h-5.657v43.966h38V24.142h-5.308zm-4 0H36.029v-3.624a1.86 1.86 0 0 1 1.858-1.859h15.318a1.86 1.86 0 0 1 1.858 1.859v3.624zm-35.11 0a5.22 5.22 0 0 0-5.219 5.219V62.89a5.22 5.22 0 0 0 5.219 5.219h2.418V24.142h-2.418z" fill="#f8c409"/><path d="M35.192 40.925c1.396 0 2.623.685 3.393 1.728.77-1.043 1.997-1.728 3.393-1.728s2.623.685 3.393 1.728c.77-1.043 1.997-1.728 3.393-1.728s2.623.685 3.393 1.728c.77-1.043 1.997-1.728 3.393-1.728s2.619.683 3.389 1.722l.024-.476c0-7.507-6.085-13.592-13.592-13.592s-13.592 6.085-13.592 13.592c0 .161.019.316.024.476a4.21 4.21 0 0 1 3.389-1.722zm22.146 3.756a1.5 1.5 0 0 0-2.08.414l-4.929 7.378 2.023-6.066a1.5 1.5 0 0 0-.948-1.897 1.5 1.5 0 0 0-1.897.948l-2.636 7.901v-7.426a1.5 1.5 0 1 0-3 0v7.427l-2.637-7.902a1.5 1.5 0 0 0-1.897-.948 1.5 1.5 0 0 0-.948 1.897l2.012 6.031-4.896-7.343a1.5 1.5 0 0 0-2.496 1.664l11.114 16.668a1.5 1.5 0 0 0 2.495.001L57.752 46.76a1.5 1.5 0 0 0-.414-2.079z" fill="#fff"/></svg>