<svg xmlns="http://www.w3.org/2000/svg" viewBox="0 0 90.709 90.709"><path d="M45.354 88.874c-23.997 0-43.52-19.522-43.52-43.52s19.524-43.52 43.52-43.52 43.52 19.523 43.52 43.521-19.523 43.519-43.52 43.519z" fill="#194093"/><path d="M45.354 2.835c23.483 0 42.52 19.037 42.52 42.52s-19.037 42.52-42.52 42.52-42.52-19.037-42.52-42.52 19.037-42.52 42.52-42.52m0-2C20.806.835.834 20.806.834 45.355s19.971 44.52 44.52 44.52 44.52-19.971 44.52-44.52S69.903.835 45.354.835h0z" fill="#252e78"/><path d="M26.19 19.41v51.965h38.328V19.41H26.19zm31.827 46.85c-1.594.24-3.335-.344-5.175-1.542l-7.743-5.27-.136.144-6.272 4.761 1.708 3.784-1.372 1.372-5.002-2.257-2.257-5.002 1.372-1.372 3.786 1.708 4.76-6.272.144-.136-5.27-7.744c-1.197-1.84-1.781-3.58-1.542-5.175.31-1.174 1.086-1.145 2.044-.385l9.643 8.655 2.853-2.874c.844-.85 2.217-.852 3.063-.006a2.16 2.16 0 0 1-.006 3.063l-2.874 2.853 8.655 9.643c.766.966.795 1.743-.379 2.052zm1.136-26.568H31.556v-3h27.596v3zm0-6.219H31.556v-3h27.596v3zm0-6.219H31.556v-3h27.596v3z" fill="#fff"/><path d="M55.375 15.41v-2.903h-5.533c-.786-1.698-2.494-2.883-4.488-2.883s-3.702 1.185-4.488 2.883h-5.533v2.903H22.19v59.965h46.328V15.41H55.375zm9.143 55.964H26.19V19.41h38.328v51.964z" fill="#f8c409"/></svg>