<?xml version="1.0" encoding="iso-8859-1"?>
<!-- Generator: Adobe Illustrator 22.1.0, SVG Export Plug-In . SVG Version: 6.00 Build 0)  -->
<svg version="1.1" xmlns="http://www.w3.org/2000/svg" xmlns:xlink="http://www.w3.org/1999/xlink" x="0px" y="0px"
	 viewBox="0 0 90.709 90.709" style="enable-background:new 0 0 90.709 90.709;" xml:space="preserve">
<g id="ratownik-1">
	<g>
		<g>
			<path style="fill:#194093;" d="M45.354,88.874c-23.997,0-43.52-19.522-43.52-43.52S21.358,1.834,45.354,1.834
				s43.52,19.523,43.52,43.521S69.351,88.874,45.354,88.874z"/>
			<g>
				<path style="fill:#252E78;" d="M45.354,2.835c23.483,0,42.52,19.037,42.52,42.52s-19.037,42.52-42.52,42.52
					s-42.52-19.037-42.52-42.52S21.871,2.835,45.354,2.835 M45.354,0.835c-24.548,0-44.52,19.971-44.52,44.52
					s19.971,44.52,44.52,44.52s44.52-19.971,44.52-44.52S69.903,0.835,45.354,0.835L45.354,0.835z"/>
			</g>
		</g>
	</g>
</g>
<g id="Warstwa_4">
	<g>
		<path style="fill:#FFFFFF;" d="M26.19,19.41v51.965h38.328V19.41H26.19z M58.017,66.26c-1.594,0.24-3.335-0.344-5.175-1.542
			c-1.181-0.804-6.024-4.1-7.743-5.27l-0.136,0.144c0,0-3.134,2.403-6.272,4.761l1.708,3.784l-1.372,1.372l-5.002-2.257
			l-2.257-5.002l1.372-1.372l3.786,1.708c2.355-3.134,4.76-6.272,4.76-6.272l0.144-0.136c-1.757-2.581-3.513-5.162-5.27-7.744
			c-1.197-1.84-1.781-3.58-1.542-5.175c0.31-1.174,1.086-1.145,2.044-0.385l9.643,8.655l2.853-2.874
			c0.844-0.85,2.217-0.852,3.063-0.006c0.847,0.847,0.844,2.22-0.006,3.063l-2.874,2.853l8.655,9.643
			C59.162,65.174,59.191,65.951,58.017,66.26z M59.153,39.692H31.556v-3h27.596V39.692z M59.153,33.473H31.556v-3h27.596V33.473z
			 M59.153,27.254H31.556v-3h27.596V27.254z"/>
		<path style="fill:#F8C409;" d="M55.375,15.41v-2.903h-5.533c-0.786-1.698-2.494-2.883-4.488-2.883s-3.702,1.185-4.488,2.883
			h-5.533v2.903H22.19v59.965h46.328V15.41H55.375z M64.518,71.374H26.19V19.41h38.328V71.374z"/>
	</g>
</g>
</svg>
