<?xml version="1.0" encoding="iso-8859-1"?>
<!-- Generator: Adobe Illustrator 22.1.0, SVG Export Plug-In . SVG Version: 6.00 Build 0)  -->
<svg version="1.1" xmlns="http://www.w3.org/2000/svg" xmlns:xlink="http://www.w3.org/1999/xlink" x="0px" y="0px"
	 viewBox="0 0 90.709 90.709" style="enable-background:new 0 0 90.709 90.709;" xml:space="preserve">
<g id="ratownik-1">
	<g>
		<g>
			<path style="fill:#194093;" d="M45.354,88.874c-23.997,0-43.52-19.522-43.52-43.52s19.522-43.52,43.52-43.52
				s43.521,19.522,43.521,43.52S69.351,88.874,45.354,88.874z"/>
			<g>
				<path style="fill:#252E78;" d="M45.354,2.835c23.483,0,42.52,19.037,42.52,42.52s-19.037,42.52-42.52,42.52
					c-23.483,0-42.52-19.037-42.52-42.52S21.871,2.835,45.354,2.835 M45.354,0.835c-24.548,0-44.52,19.971-44.52,44.52
					s19.971,44.52,44.52,44.52s44.52-19.971,44.52-44.52S69.903,0.835,45.354,0.835L45.354,0.835z"/>
			</g>
		</g>
	</g>
</g>
<g id="Warstwa_4">
	<g>
		<g>
			<g>
				<g>
					<path style="fill:#F8C409;" d="M58.354,24c11.928,0,21.598,9.67,21.598,21.598c0,0.255-0.03,0.503-0.038,0.756
						c-1.224-1.652-3.171-2.737-5.385-2.737c-2.218,0-4.169,1.088-5.392,2.746c-1.223-1.658-3.174-2.746-5.392-2.746
						c-2.218,0-4.169,1.088-5.392,2.746c-1.223-1.658-3.174-2.746-5.392-2.746s-4.169,1.088-5.392,2.746
						c-1.223-1.658-3.174-2.746-5.392-2.746c-2.214,0-4.161,1.085-5.385,2.737c-0.009-0.253-0.038-0.5-0.038-0.756
						C36.756,33.67,46.426,24,58.354,24"/>
				</g>
			</g>
			<path style="fill:#FFFFFF;" d="M78.238,49.194c-0.688-0.459-1.619-0.275-2.08,0.414l-12.845,19.23l5.976-17.915
				c0.263-0.786-0.162-1.636-0.948-1.897c-0.786-0.265-1.635,0.163-1.897,0.948l-6.589,19.751V50.449c0-0.828-0.672-1.5-1.5-1.5
				s-1.5,0.672-1.5,1.5v19.276l-6.588-19.75c-0.262-0.786-1.112-1.211-1.897-0.948c-0.786,0.262-1.21,1.111-0.948,1.897
				l5.965,17.883l-12.8-19.197c-0.46-0.689-1.392-0.876-2.08-0.416c-0.689,0.46-0.876,1.391-0.416,2.08l19.017,28.521
				c0.278,0.417,0.746,0.668,1.247,0.668c0.001,0,0.001,0,0.001,0c0.501,0,0.969-0.25,1.247-0.667l19.051-28.521
				C79.112,50.586,78.927,49.654,78.238,49.194z"/>
		</g>
		<g>
			<path style="fill:#FFFFFF;" d="M37.006,31.408h-6.467c-1.104,0-2-0.896-2-2v-6.467c0-1.104,0.896-2,2-2s2,0.896,2,2v4.467h4.467
				c1.104,0,2,0.896,2,2S38.111,31.408,37.006,31.408z"/>
		</g>
		<g>
			<path style="fill:#FFFFFF;" d="M30.539,40.942c-6.324,0-11.47-5.146-11.47-11.47s5.146-11.469,11.47-11.469
				c5.226,0,9.638,3.517,11.015,8.306c1.052-0.917,2.177-1.752,3.369-2.49c-2.264-5.738-7.851-9.816-14.384-9.816
				c-8.53,0-15.47,6.939-15.47,15.469c0,8.53,6.939,15.47,15.47,15.47c0.762,0,1.505-0.074,2.238-0.181
				c0.046-1.417,0.203-2.806,0.471-4.156C32.378,40.817,31.474,40.942,30.539,40.942z"/>
		</g>
	</g>
</g>
</svg>
