<svg xmlns="http://www.w3.org/2000/svg" viewBox="0 0 90.709 90.709"><path d="M45.354 88.874c-23.997 0-43.52-19.522-43.52-43.52s19.523-43.52 43.52-43.52 43.52 19.523 43.52 43.521-19.523 43.519-43.52 43.519z" fill="#194093"/><path d="M45.354 2.835c23.483 0 42.52 19.037 42.52 42.52s-19.037 42.52-42.52 42.52-42.52-19.037-42.52-42.52 19.037-42.52 42.52-42.52m0-2C20.806.835.834 20.806.834 45.355s19.971 44.52 44.52 44.52 44.52-19.971 44.52-44.52S69.903.835 45.354.835h0z" fill="#252e78"/><g fill="#fff"><path d="M60.017 46.984L46.613 32.051l4.451-4.418a3.35 3.35 0 0 0 .009-4.744 3.35 3.35 0 0 0-4.744.009l-4.418 4.451-14.934-13.405c-1.483-1.176-2.686-1.221-3.166.597-.371 2.469.534 5.165 2.388 8.014l8.161 11.992-.223.21-7.372 9.712-5.863-2.645-2.125 2.125 3.496 7.747 7.747 3.496 2.125-2.125-2.645-5.861 9.713-7.372.21-.223 11.991 8.161c2.849 1.854 5.544 2.758 8.014 2.388 1.819-.481 1.774-1.684.589-3.176z" fill-rule="evenodd"/><path d="M40.194 68.602h-6.207a1.5 1.5 0 1 0 0 3h6.207a1.5 1.5 0 1 0 0-3zm13.425-3.104a1.5 1.5 0 0 0-1.5 1.5v6.206a1.5 1.5 0 1 0 3 0v-6.206a1.5 1.5 0 0 0-1.5-1.5z"/></g><path d="M57.558 59.194h-1.939v-5.095a2 2 0 0 0-2-2H37.09a2 2 0 0 0-2 2v5.095h-1.94a5.22 5.22 0 0 0-5.219 5.219V75.79a5.22 5.22 0 0 0 5.219 5.219h24.407a5.22 5.22 0 0 0 5.219-5.219V64.412a5.22 5.22 0 0 0-5.218-5.218zM39.09 56.099h12.528v3.095H39.09v-3.095zm-2 20.318c-3.488 0-6.315-2.828-6.315-6.315s2.828-6.315 6.315-6.315 6.315 2.828 6.315 6.315-2.827 6.315-6.315 6.315zm16.528 0c-3.488 0-6.315-2.828-6.315-6.315s2.828-6.315 6.315-6.315 6.315 2.828 6.315 6.315-2.827 6.315-6.315 6.315z" fill="#f8c409"/></svg>