<?xml version="1.0" encoding="iso-8859-1"?>
<!-- Generator: Adobe Illustrator 22.1.0, SVG Export Plug-In . SVG Version: 6.00 Build 0)  -->
<svg version="1.1" xmlns="http://www.w3.org/2000/svg" xmlns:xlink="http://www.w3.org/1999/xlink" x="0px" y="0px"
	 viewBox="0 0 90.709 90.709" style="enable-background:new 0 0 90.709 90.709;" xml:space="preserve">
<g id="ratownik-1">
	<g>
		<g>
			<path style="fill:#194093;" d="M45.354,88.874c-23.997,0-43.52-19.522-43.52-43.52S21.357,1.834,45.354,1.834
				s43.52,19.523,43.52,43.521S69.351,88.874,45.354,88.874z"/>
			<g>
				<path style="fill:#252E78;" d="M45.354,2.835c23.483,0,42.52,19.037,42.52,42.52s-19.037,42.52-42.52,42.52
					s-42.52-19.037-42.52-42.52S21.871,2.835,45.354,2.835 M45.354,0.835c-24.548,0-44.52,19.971-44.52,44.52
					s19.971,44.52,44.52,44.52s44.52-19.971,44.52-44.52S69.903,0.835,45.354,0.835L45.354,0.835z"/>
			</g>
		</g>
	</g>
</g>
<g id="Warstwa_4">
	<g>
		<path style="fill-rule:evenodd;clip-rule:evenodd;fill:#FFFFFF;" d="M60.017,46.984L46.613,32.051l4.451-4.418
			c1.316-1.306,1.32-3.433,0.009-4.744c-1.311-1.311-3.438-1.307-4.744,0.009l-4.418,4.451L26.977,13.944
			c-1.483-1.176-2.686-1.221-3.166,0.597c-0.371,2.469,0.534,5.165,2.388,8.014c2.721,3.997,5.441,7.995,8.161,11.992l-0.223,0.21
			c0,0-3.724,4.859-7.372,9.712l-5.863-2.645l-2.125,2.125l3.496,7.747l7.747,3.496l2.125-2.125l-2.645-5.861
			c4.86-3.651,9.713-7.372,9.713-7.372l0.21-0.223c2.662,1.812,10.162,6.916,11.991,8.161c2.849,1.854,5.544,2.758,8.014,2.388
			C61.247,49.679,61.202,48.476,60.017,46.984z"/>
	</g>
	<g>
		<path style="fill:#FFFFFF;" d="M40.194,68.602h-6.207c-0.828,0-1.5,0.672-1.5,1.5s0.672,1.5,1.5,1.5h6.207
			c0.828,0,1.5-0.672,1.5-1.5S41.022,68.602,40.194,68.602z"/>
		<path style="fill:#FFFFFF;" d="M53.619,65.498c-0.828,0-1.5,0.672-1.5,1.5v6.206c0,0.828,0.672,1.5,1.5,1.5s1.5-0.672,1.5-1.5
			v-6.206C55.119,66.17,54.447,65.498,53.619,65.498z"/>
		<path style="fill:#F8C409;" d="M57.558,59.194h-1.939v-5.095c0-1.104-0.896-2-2-2H37.09c-1.104,0-2,0.896-2,2v5.095h-1.94
			c-2.882,0-5.219,2.336-5.219,5.219V75.79c0,2.882,2.337,5.219,5.219,5.219h24.407c2.882,0,5.219-2.336,5.219-5.219V64.412
			C62.777,61.53,60.44,59.194,57.558,59.194z M39.09,56.099h12.528v3.095H39.09V56.099z M37.09,76.417
			c-3.488,0-6.315-2.828-6.315-6.315c0-3.488,2.828-6.315,6.315-6.315c3.488,0,6.315,2.828,6.315,6.315
			C43.406,73.589,40.578,76.417,37.09,76.417z M53.618,76.417c-3.488,0-6.315-2.828-6.315-6.315c0-3.488,2.828-6.315,6.315-6.315
			c3.488,0,6.315,2.828,6.315,6.315C59.934,73.589,57.106,76.417,53.618,76.417z"/>
	</g>
</g>
</svg>
