<?xml version="1.0" encoding="iso-8859-1"?>
<!-- Generator: Adobe Illustrator 22.1.0, SVG Export Plug-In . SVG Version: 6.00 Build 0)  -->
<svg version="1.1" xmlns="http://www.w3.org/2000/svg" xmlns:xlink="http://www.w3.org/1999/xlink" x="0px" y="0px"
	 viewBox="0 0 90.709 90.709" style="enable-background:new 0 0 90.709 90.709;" xml:space="preserve">
<g id="ratownik-1">
	<g>
		<g>
			<circle style="fill:#194093;" cx="45.354" cy="45.355" r="43.52"/>
			<g>
				<path style="fill:#252E78;" d="M45.354,2.835c23.483,0,42.52,19.037,42.52,42.52s-19.037,42.52-42.52,42.52
					s-42.52-19.037-42.52-42.52S21.871,2.835,45.354,2.835 M45.354,0.835c-24.548,0-44.52,19.971-44.52,44.52
					s19.971,44.52,44.52,44.52s44.52-19.971,44.52-44.52S69.903,0.835,45.354,0.835L45.354,0.835z"/>
			</g>
		</g>
	</g>
</g>
<g id="Warstwa_4">
	<g>
		<g>
			<path style="fill:#FFFFFF;" d="M45.354,80.493C45.354,80.493,45.354,80.493,45.354,80.493c-0.502,0-0.97-0.251-1.248-0.668
				l-4.74-7.11c-0.46-0.689-0.273-1.62,0.416-2.08c0.688-0.46,1.62-0.274,2.08,0.416l3.493,5.24l6.692-10.018H35.873
				c-0.502,0-0.97-0.251-1.248-0.668l-4.74-7.11c-0.307-0.46-0.336-1.052-0.074-1.54c0.261-0.487,0.77-0.792,1.322-0.792H58.8
				l2.745-4.11H26.391c-0.502,0-0.97-0.251-1.248-0.668l-4.747-7.119c-0.46-0.689-0.273-1.62,0.416-2.08
				c0.688-0.461,1.62-0.274,2.08,0.416l4.302,6.451h37.157c0.554,0,1.062,0.305,1.323,0.793c0.261,0.488,0.231,1.08-0.076,1.54
				l-4.749,7.11c-0.278,0.417-0.746,0.667-1.247,0.667H33.935l2.74,4.11h18.178c0.554,0,1.062,0.305,1.323,0.793
				c0.261,0.488,0.231,1.08-0.076,1.54l-9.499,14.22C46.323,80.243,45.855,80.493,45.354,80.493z"/>
		</g>
		<g>
			<g>
				<path style="fill:#F8C409;" d="M25.186,34.924c2.765,0,5.198,1.357,6.723,3.424c1.525-2.067,3.957-3.424,6.723-3.424
					c2.765,0,5.198,1.357,6.723,3.424c1.525-2.067,3.957-3.424,6.723-3.424c2.765,0,5.198,1.357,6.723,3.424
					c1.525-2.067,3.957-3.424,6.723-3.424c2.76,0,5.188,1.353,6.714,3.413c0.011-0.315,0.048-0.624,0.048-0.942
					c0-14.873-12.057-26.929-26.929-26.929S18.425,22.522,18.425,37.395c0,0.318,0.037,0.627,0.048,0.942
					C19.998,36.277,22.426,34.924,25.186,34.924z"/>
			</g>
		</g>
		<g>
			<path style="fill:#FFFFFF;" d="M69.107,44.934H33.588c-0.828,0-1.5-0.672-1.5-1.5s0.672-1.5,1.5-1.5h35.519
				c0.828,0,1.5,0.672,1.5,1.5S69.935,44.934,69.107,44.934z"/>
		</g>
	</g>
</g>
</svg>
