<svg xmlns="http://www.w3.org/2000/svg" viewBox="0 0 90.709 90.709"><path d="M45.354 88.874c-23.997 0-43.52-19.522-43.52-43.52s19.522-43.52 43.52-43.52 43.521 19.522 43.521 43.52-19.524 43.52-43.521 43.52z" fill="#194093"/><path d="M45.354 2.835c23.483 0 42.52 19.037 42.52 42.52s-19.037 42.52-42.52 42.52-42.52-19.037-42.52-42.52 19.037-42.52 42.52-42.52m0-2C20.806.835.834 20.806.834 45.355s19.971 44.52 44.52 44.52 44.52-19.971 44.52-44.52S69.903.835 45.354.835h0z" fill="#252e78"/><path d="M58.354 24c11.928 0 21.598 9.67 21.598 21.598 0 .255-.03.503-.038.756-1.224-1.652-3.171-2.737-5.385-2.737s-4.169 1.088-5.392 2.746c-1.223-1.658-3.174-2.746-5.392-2.746s-4.169 1.088-5.392 2.746c-1.223-1.658-3.174-2.746-5.392-2.746s-4.169 1.088-5.392 2.746c-1.223-1.658-3.174-2.746-5.392-2.746s-4.161 1.085-5.385 2.737c-.009-.253-.038-.5-.038-.756C36.756 33.67 46.426 24 58.354 24" fill="#f8c409"/><path d="M78.238 49.194a1.5 1.5 0 0 0-2.08.414l-12.845 19.23 5.976-17.915a1.5 1.5 0 0 0-.948-1.897c-.786-.265-1.635.163-1.897.948l-6.589 19.751V50.449a1.5 1.5 0 1 0-3 0v19.276l-6.588-19.75a1.5 1.5 0 0 0-1.897-.948 1.5 1.5 0 0 0-.948 1.897l5.965 17.883-12.8-19.197a1.5 1.5 0 0 0-2.496 1.664l19.017 28.521a1.5 1.5 0 0 0 2.495.001l19.051-28.521c.458-.689.273-1.621-.416-2.081z" fill="#fff"/><path d="M32.377 39.363a8.69 8.69 0 0 0 1.232-.316 25.35 25.35 0 0 1 1.842-4.862 5.71 5.71 0 0 1-3.074 2.11v-4.001h4.124c.809-1.324 1.732-2.57 2.761-3.722-.863-3.248-3.532-5.762-6.884-6.348v-3.828c4.427.533 8.135 3.39 9.891 7.309a25.68 25.68 0 0 1 2.486-1.778c-2.325-4.68-6.941-8.029-12.377-8.554v-3.762a1.5 1.5 0 1 0-3 0v3.762a15.52 15.52 0 0 0-13.919 13.92h-3.762a1.5 1.5 0 1 0 0 3h3.762a15.52 15.52 0 0 0 13.919 13.92v3.762a1.5 1.5 0 1 0 3 0V39.363zm0-14.071a5.72 5.72 0 0 1 4.001 4.001h-4.001v-4.001zm-3 17.898a12.51 12.51 0 0 1-10.896-10.897h3.827a8.72 8.72 0 0 0 7.069 7.069v3.828zm0-6.895a5.72 5.72 0 0 1-4.001-4.001h4.001v4.001zm0-7.002h-4.001a5.72 5.72 0 0 1 4.001-4.001v4.001zm0-7.069a8.72 8.72 0 0 0-7.069 7.069h-3.827a12.51 12.51 0 0 1 10.896-10.897v3.828z" fill="#f8c409"/></svg>