<svg xmlns="http://www.w3.org/2000/svg" viewBox="0 0 90.709 90.709"><circle cx="45.354" cy="45.355" r="43.52" fill="#194093"/><path d="M45.354 2.835c23.483 0 42.52 19.037 42.52 42.52s-19.037 42.52-42.52 42.52-42.52-19.037-42.52-42.52 19.037-42.52 42.52-42.52m0-2C20.806.835.834 20.806.834 45.355s19.971 44.52 44.52 44.52 44.52-19.971 44.52-44.52S69.903.835 45.354.835h0z" fill="#252e78"/><path d="M65.237 31.906a1.5 1.5 0 0 0-2.08.414L50.314 51.548l5.976-17.913a1.5 1.5 0 0 0-.948-1.897c-.785-.266-1.636.161-1.897.948l-6.578 19.716-.012-19.241a1.5 1.5 0 1 0-3 0l.012 19.313-6.601-19.787a1.5 1.5 0 0 0-1.897-.948 1.5 1.5 0 0 0-.948 1.897l5.965 17.882-12.8-19.197a1.5 1.5 0 0 0-2.496 1.664l19.017 28.521a1.5 1.5 0 0 0 1.248.668h0a1.5 1.5 0 0 0 1.248-.667l19.05-28.521a1.5 1.5 0 0 0-.416-2.08z" fill="#fff"/><path d="M29.179 26.319c2.218 0 4.169 1.088 5.392 2.746 1.223-1.658 3.174-2.746 5.392-2.746s4.169 1.088 5.392 2.746c1.223-1.658 3.174-2.746 5.392-2.746s4.169 1.088 5.392 2.746c1.223-1.658 3.174-2.746 5.392-2.746s4.161 1.085 5.385 2.737l.038-.756c0-11.928-9.67-21.598-21.598-21.598S23.758 16.372 23.758 28.3c0 .255.029.503.038.756 1.222-1.652 3.169-2.737 5.383-2.737zm29.832 36.946l3.137 1.425 6.341-3.79-4.726-2.147.347-5.18-6.342 3.79-.219 3.282-12.194 7.288-12.195-7.289-.22-3.281-6.341-3.79.347 5.18-4.727 2.147 6.342 3.79 3.137-1.425 10.733 6.415-6.541 3.909-1.454-2.432-5.217 8.166 9.663-.727-1.454-2.432 7.927-4.737 7.926 4.737-1.454 2.432 9.662.727-5.216-8.166-1.454 2.432-6.541-3.909z" fill="#f8c409"/></svg>