<svg xmlns="http://www.w3.org/2000/svg" viewBox="0 0 90.709 90.709"><circle cx="45.354" cy="45.355" r="43.52" fill="#194093"/><path d="M45.354 2.835c23.483 0 42.52 19.037 42.52 42.52s-19.037 42.52-42.52 42.52-42.52-19.037-42.52-42.52 19.037-42.52 42.52-42.52m0-2C20.806.835.834 20.806.834 45.355s19.971 44.52 44.52 44.52 44.52-19.971 44.52-44.52S69.903.835 45.354.835h0z" fill="#252e78"/><path d="M40.976 26.825v-2.938h-8.885v-8.885h-9.105v8.885h-8.885v9.105h8.885v8.885h9.105v-8.885h3.997a25.78 25.78 0 0 1 4.888-6.167z" fill="#fff"/><path d="M58.354 24c11.928 0 21.598 9.67 21.598 21.598 0 .255-.03.503-.038.756-1.224-1.652-3.171-2.737-5.385-2.737s-4.169 1.088-5.392 2.746c-1.223-1.658-3.174-2.746-5.392-2.746s-4.169 1.088-5.392 2.746c-1.223-1.658-3.174-2.746-5.392-2.746s-4.169 1.088-5.392 2.746c-1.223-1.658-3.174-2.746-5.392-2.746s-4.161 1.085-5.385 2.737c-.009-.253-.038-.5-.038-.756C36.756 33.67 46.426 24 58.354 24" fill="#f8c409"/><path d="M78.238 49.194a1.5 1.5 0 0 0-2.08.414l-12.845 19.23 5.976-17.915a1.5 1.5 0 0 0-.948-1.897c-.786-.265-1.635.163-1.897.948l-6.589 19.751V50.449a1.5 1.5 0 1 0-3 0v19.276l-6.588-19.75a1.5 1.5 0 0 0-1.897-.948 1.5 1.5 0 0 0-.948 1.897l5.965 17.883-12.8-19.197a1.5 1.5 0 0 0-2.496 1.664l19.017 28.521a1.5 1.5 0 0 0 2.495.001l19.051-28.521c.458-.689.273-1.621-.416-2.081z" fill="#fff"/></svg>