<?xml version="1.0" encoding="iso-8859-1"?>
<!-- Generator: Adobe Illustrator 22.1.0, SVG Export Plug-In . SVG Version: 6.00 Build 0)  -->
<svg version="1.1" xmlns="http://www.w3.org/2000/svg" xmlns:xlink="http://www.w3.org/1999/xlink" x="0px" y="0px"
	 viewBox="0 0 90.709 90.709" style="enable-background:new 0 0 90.709 90.709;" xml:space="preserve">
<g id="ratownik-1">
	<g>
		<g>
			<circle style="fill:#194093;" cx="45.354" cy="45.355" r="43.52"/>
			<g>
				<path style="fill:#252E78;" d="M45.354,2.835c23.483,0,42.52,19.037,42.52,42.52s-19.037,42.52-42.52,42.52
					s-42.52-19.037-42.52-42.52S21.871,2.835,45.354,2.835 M45.354,0.835c-24.548,0-44.52,19.971-44.52,44.52
					s19.971,44.52,44.52,44.52s44.52-19.971,44.52-44.52S69.903,0.835,45.354,0.835L45.354,0.835z"/>
			</g>
		</g>
	</g>
</g>
<g id="Warstwa_4">
	<g>
		<path style="fill:#FFFFFF;" d="M40.976,26.825v-2.938h-8.885v-8.885h-9.105v8.885h-8.885v9.105h8.885v8.885h9.105v-8.885h3.997
			C37.396,30.692,39.047,28.612,40.976,26.825z"/>
		<g>
			<g>
				<g>
					<g>
						<path style="fill:#F8C409;" d="M58.354,24c11.928,0,21.598,9.67,21.598,21.598c0,0.255-0.03,0.503-0.038,0.756
							c-1.224-1.652-3.171-2.737-5.385-2.737c-2.218,0-4.169,1.088-5.392,2.746c-1.223-1.658-3.174-2.746-5.392-2.746
							c-2.218,0-4.169,1.088-5.392,2.746c-1.223-1.658-3.174-2.746-5.392-2.746s-4.169,1.088-5.392,2.746
							c-1.223-1.658-3.174-2.746-5.392-2.746c-2.214,0-4.161,1.085-5.385,2.737c-0.009-0.253-0.038-0.5-0.038-0.756
							C36.756,33.67,46.426,24,58.354,24"/>
					</g>
				</g>
				<path style="fill:#FFFFFF;" d="M78.238,49.194c-0.688-0.459-1.619-0.275-2.08,0.414l-12.845,19.23l5.976-17.915
					c0.263-0.786-0.162-1.636-0.948-1.897c-0.786-0.265-1.635,0.163-1.897,0.948l-6.589,19.751V50.449c0-0.828-0.672-1.5-1.5-1.5
					s-1.5,0.672-1.5,1.5v19.276l-6.588-19.75c-0.262-0.786-1.112-1.211-1.897-0.948c-0.786,0.262-1.21,1.111-0.948,1.897
					l5.965,17.883l-12.8-19.197c-0.46-0.689-1.392-0.876-2.08-0.416c-0.689,0.46-0.876,1.391-0.416,2.08l19.017,28.521
					c0.278,0.417,0.746,0.668,1.247,0.668c0.001,0,0.001,0,0.001,0c0.501,0,0.969-0.25,1.247-0.667l19.051-28.521
					C79.112,50.586,78.927,49.654,78.238,49.194z"/>
			</g>
		</g>
	</g>
</g>
</svg>
