<svg xmlns="http://www.w3.org/2000/svg" viewBox="0 0 90.709 90.709"><circle cx="45.354" cy="45.355" r="43.52" fill="#194093"/><path d="M45.354 2.835c23.483 0 42.52 19.037 42.52 42.52s-19.037 42.52-42.52 42.52-42.52-19.037-42.52-42.52 19.037-42.52 42.52-42.52m0-2C20.806.835.834 20.806.834 45.355s19.971 44.52 44.52 44.52 44.52-19.971 44.52-44.52S69.903.835 45.354.835h0z" fill="#252e78"/><path d="M45.354 80.493a1.5 1.5 0 0 1-1.248-.668l-4.74-7.11a1.5 1.5 0 0 1 2.496-1.664l3.493 5.24 6.692-10.018H35.873a1.5 1.5 0 0 1-1.248-.668l-4.74-7.11a1.5 1.5 0 0 1 1.248-2.332H58.8l2.745-4.11H26.391a1.5 1.5 0 0 1-1.248-.668l-4.747-7.119a1.5 1.5 0 0 1 2.496-1.664l4.302 6.451h37.157a1.5 1.5 0 0 1 1.247 2.333l-4.749 7.11a1.5 1.5 0 0 1-1.247.667H33.935l2.74 4.11h18.178a1.5 1.5 0 0 1 1.247 2.333l-9.499 14.22a1.5 1.5 0 0 1-1.247.667z" fill="#fff"/><path d="M25.186 34.924c2.765 0 5.198 1.357 6.723 3.424 1.525-2.067 3.957-3.424 6.723-3.424s5.198 1.357 6.723 3.424c1.525-2.067 3.957-3.424 6.723-3.424s5.198 1.357 6.723 3.424c1.525-2.067 3.957-3.424 6.723-3.424 2.76 0 5.188 1.353 6.714 3.413l.048-.942c0-14.873-12.057-26.929-26.929-26.929S18.425 22.522 18.425 37.395c0 .318.037.627.048.942 1.525-2.06 3.953-3.413 6.713-3.413z" fill="#f8c409"/><path d="M69.107 44.934H33.588a1.5 1.5 0 1 1 0-3h35.519a1.5 1.5 0 1 1 0 3z" fill="#fff"/></svg>