<?xml version="1.0" encoding="iso-8859-1"?>
<!-- Generator: Adobe Illustrator 22.1.0, SVG Export Plug-In . SVG Version: 6.00 Build 0)  -->
<svg version="1.1" xmlns="http://www.w3.org/2000/svg" xmlns:xlink="http://www.w3.org/1999/xlink" x="0px" y="0px"
	 viewBox="0 0 90.709 90.709" style="enable-background:new 0 0 90.709 90.709;" xml:space="preserve">
<g id="ratownik-1">
	<g>
		<g>
			<circle style="fill:#194093;" cx="45.354" cy="45.355" r="43.52"/>
			<g>
				<path style="fill:#252E78;" d="M45.354,2.835c23.483,0,42.52,19.037,42.52,42.52s-19.037,42.52-42.52,42.52
					s-42.52-19.037-42.52-42.52S21.871,2.835,45.354,2.835 M45.354,0.835c-24.548,0-44.52,19.971-44.52,44.52
					s19.971,44.52,44.52,44.52s44.52-19.971,44.52-44.52S69.903,0.835,45.354,0.835L45.354,0.835z"/>
			</g>
		</g>
	</g>
</g>
<g id="Warstwa_4">
	<g>
		<g>
			<path style="fill:#FFFFFF;" d="M65.237,31.906c-0.687-0.459-1.619-0.275-2.08,0.414L50.314,51.548l5.976-17.913
				c0.263-0.786-0.162-1.636-0.948-1.897c-0.785-0.266-1.636,0.161-1.897,0.948l-6.578,19.716l-0.012-19.241
				c0-0.828-0.671-1.5-1.5-1.5s-1.5,0.672-1.5,1.5l0.012,19.313l-6.601-19.787c-0.262-0.786-1.111-1.21-1.897-0.948
				c-0.786,0.262-1.21,1.111-0.948,1.897l5.965,17.882l-12.8-19.197c-0.46-0.689-1.391-0.878-2.08-0.416
				c-0.689,0.46-0.875,1.391-0.416,2.08l19.017,28.521c0.278,0.417,0.746,0.668,1.248,0.668h0c0.501,0,0.969-0.25,1.248-0.667
				l19.05-28.521C66.112,33.297,65.927,32.366,65.237,31.906z"/>
			<g>
				<g>
					<path style="fill:#F8C409;" d="M29.179,26.319c2.218,0,4.169,1.088,5.392,2.746c1.223-1.658,3.174-2.746,5.392-2.746
						s4.169,1.088,5.392,2.746c1.223-1.658,3.174-2.746,5.392-2.746s4.169,1.088,5.392,2.746c1.223-1.658,3.174-2.746,5.392-2.746
						c2.214,0,4.161,1.085,5.385,2.737c0.009-0.253,0.038-0.5,0.038-0.756c0-11.928-9.67-21.598-21.598-21.598
						s-21.598,9.67-21.598,21.598c0,0.255,0.029,0.503,0.038,0.756C25.018,27.404,26.965,26.319,29.179,26.319z"/>
				</g>
			</g>
		</g>
	</g>
	<polygon style="fill:#F8C409;" points="59.011,63.265 62.148,64.69 68.489,60.9 63.763,58.753 64.11,53.573 57.768,57.363 
		57.549,60.645 45.355,67.933 33.16,60.644 32.94,57.363 26.599,53.573 26.946,58.753 22.219,60.9 28.561,64.69 31.698,63.265 
		42.431,69.68 35.89,73.589 34.436,71.157 29.219,79.323 38.882,78.596 37.428,76.164 45.355,71.427 53.281,76.164 51.827,78.596 
		61.489,79.323 56.273,71.157 54.819,73.589 48.278,69.68 	"/>
</g>
</svg>
