<?xml version="1.0" encoding="iso-8859-1"?>
<!-- Generator: Adobe Illustrator 22.1.0, SVG Export Plug-In . SVG Version: 6.00 Build 0)  -->
<svg version="1.1" xmlns="http://www.w3.org/2000/svg" xmlns:xlink="http://www.w3.org/1999/xlink" x="0px" y="0px"
	 viewBox="0 0 90.709 90.709" style="enable-background:new 0 0 90.709 90.709;" xml:space="preserve">
<g id="ratownik-1">
	<g>
		<g>
			<circle style="fill:#194093;" cx="45.354" cy="45.355" r="43.52"/>
			<g>
				<path style="fill:#252E78;" d="M45.354,2.835c23.483,0,42.52,19.037,42.52,42.52s-19.037,42.52-42.52,42.52
					s-42.52-19.037-42.52-42.52S21.871,2.835,45.354,2.835 M45.354,0.835c-24.548,0-44.52,19.971-44.52,44.52
					s19.971,44.52,44.52,44.52s44.52-19.971,44.52-44.52S69.903,0.835,45.354,0.835L45.354,0.835z"/>
			</g>
		</g>
	</g>
</g>
<g id="Warstwa_4">
	<g>
		<g>
			<circle style="fill:#FFFFFF;" cx="45.354" cy="45.13" r="24.34"/>
		</g>
		<g>
			<path style="fill-rule:evenodd;clip-rule:evenodd;fill:#F8C409;" d="M63.269,60.777L49.65,45.603l4.523-4.489
				c1.337-1.327,1.341-3.488,0.009-4.82c-1.332-1.332-3.493-1.328-4.82,0.009l-4.489,4.523l-15.173-13.62
				c-1.507-1.195-2.729-1.241-3.216,0.607c-0.377,2.509,0.542,5.248,2.426,8.142c2.764,4.062,5.528,8.124,8.293,12.185l-0.226,0.214
				c0,0-3.784,4.937-7.49,9.868l-5.957-2.688l-2.16,2.16l3.552,7.871l7.871,3.552l2.16-2.16l-2.687-5.955
				c4.938-3.71,9.869-7.491,9.869-7.491l0.213-0.227c2.705,1.841,10.326,7.027,12.184,8.292c2.895,1.884,5.634,2.803,8.142,2.426
				C64.519,63.515,64.473,62.293,63.269,60.777z"/>
		</g>
	</g>
</g>
</svg>
