<?xml version="1.0" encoding="iso-8859-1"?>
<!-- Generator: Adobe Illustrator 22.1.0, SVG Export Plug-In . SVG Version: 6.00 Build 0)  -->
<svg version="1.1" xmlns="http://www.w3.org/2000/svg" xmlns:xlink="http://www.w3.org/1999/xlink" x="0px" y="0px"
	 viewBox="0 0 90.709 90.709" style="enable-background:new 0 0 90.709 90.709;" xml:space="preserve">
<g id="ratownik-1">
	<g>
		<g>
			<circle style="fill:#194093;" cx="45.354" cy="45.355" r="43.52"/>
			<g>
				<path style="fill:#252E78;" d="M45.354,2.835c23.483,0,42.52,19.037,42.52,42.52s-19.037,42.52-42.52,42.52
					s-42.52-19.037-42.52-42.52S21.871,2.835,45.354,2.835 M45.354,0.835c-24.548,0-44.52,19.971-44.52,44.52
					s19.971,44.52,44.52,44.52s44.52-19.971,44.52-44.52S69.903,0.835,45.354,0.835L45.354,0.835z"/>
			</g>
		</g>
	</g>
</g>
<g id="Warstwa_4">
	<path style="fill:#FFFFFF;" d="M63.278,24.903c-7.122-0.241-13.525,3.094-17.514,8.38c-3.622-5.544-9.785-9.306-16.906-9.547
		C17.24,23.341,7.503,32.44,7.109,44.057s8.704,21.355,20.322,21.749c7.122,0.242,13.525-3.094,17.514-8.38
		c3.622,5.544,9.785,9.306,16.906,9.547c11.617,0.394,21.355-8.704,21.749-20.322S74.896,25.297,63.278,24.903z"/>
	<g>
		<path style="fill-rule:evenodd;clip-rule:evenodd;fill:#F8C409;" d="M57.867,54.647L47.551,43.154l3.426-3.4
			c1.013-1.005,1.016-2.642,0.007-3.651c-1.009-1.009-2.646-1.006-3.651,0.007l-3.4,3.426L32.44,29.22
			c-1.142-0.905-2.067-0.94-2.436,0.459c-0.285,1.9,0.411,3.975,1.837,6.167c2.094,3.076,4.187,6.153,6.281,9.229l-0.171,0.162
			c0,0-2.866,3.739-5.673,7.475l-4.512-2.036l-1.636,1.636l2.69,5.962l5.962,2.69l1.636-1.636l-2.035-4.51
			c3.74-2.81,7.475-5.674,7.475-5.674l0.162-0.172c2.049,1.394,7.821,5.322,9.228,6.28c2.193,1.427,4.267,2.123,6.167,1.837
			C58.813,56.721,58.778,55.795,57.867,54.647z"/>
	</g>
</g>
</svg>
