<?xml version="1.0" encoding="iso-8859-1"?>
<!-- Generator: Adobe Illustrator 22.1.0, SVG Export Plug-In . SVG Version: 6.00 Build 0)  -->
<svg version="1.1" xmlns="http://www.w3.org/2000/svg" xmlns:xlink="http://www.w3.org/1999/xlink" x="0px" y="0px"
	 viewBox="0 0 90.709 90.709" style="enable-background:new 0 0 90.709 90.709;" xml:space="preserve">
<g id="ratownik-1">
	<g>
		<g>
			<circle style="fill:#194093;" cx="45.354" cy="45.355" r="43.52"/>
			<g>
				<path style="fill:#252E78;" d="M45.354,2.835c23.483,0,42.52,19.037,42.52,42.52s-19.037,42.52-42.52,42.52
					s-42.52-19.037-42.52-42.52S21.871,2.835,45.354,2.835 M45.354,0.835c-24.548,0-44.52,19.971-44.52,44.52
					s19.971,44.52,44.52,44.52s44.52-19.971,44.52-44.52S69.903,0.835,45.354,0.835L45.354,0.835z"/>
			</g>
		</g>
	</g>
</g>
<g id="Warstwa_4">
	<g>
		<path style="fill:#F8C409;" d="M71.5,26.332H58.498l-3.672-5.325H35.882l-3.672,5.325h-2.472v-2.235c0-1.071-0.868-1.94-1.94-1.94
			h-5.694c-1.071,0-1.939,0.868-1.939,1.94v2.235h-0.954c-3.172,0-5.746,2.573-5.746,5.746v27.194c0,3.172,2.573,5.746,5.746,5.746
			H71.5c3.172,0,5.743-2.573,5.743-5.746V32.078C77.243,28.906,74.672,26.332,71.5,26.332z M60.362,56.089
			c0.912,1.148,0.947,2.074-0.452,2.443c-1.183,0.178-2.434-0.026-3.738-0.548c-2.889,2.541-6.667,4.094-10.817,4.094
			c-2.289,0-4.468-0.472-6.447-1.319l0.005,0.011l-1.636,1.636l-5.962-2.69l-2.69-5.962l1.636-1.636l0.011,0.005
			c-0.847-1.979-1.319-4.158-1.319-6.447c0-4.15,1.553-7.928,4.094-10.817c-0.523-1.304-0.726-2.555-0.548-3.738
			c0.369-1.399,1.295-1.364,2.436-0.459l1.443,1.296c2.58-1.692,5.661-2.683,8.976-2.683c9.059,0,16.402,7.343,16.402,16.402
			c0,3.316-0.992,6.397-2.684,8.977L60.362,56.089z"/>
		<path style="fill:#FFFFFF;" d="M40.445,46.679l0.171-0.162c-2.094-3.076-4.187-6.153-6.281-9.229
			c-0.539-0.828-0.972-1.638-1.289-2.429c-2.541,2.889-4.094,6.667-4.094,10.817c0,2.29,0.472,4.468,1.319,6.447l4.501,2.031
			C37.58,50.418,40.445,46.679,40.445,46.679z"/>
		<path style="fill:#FFFFFF;" d="M44.514,50.414l-0.162,0.172c0,0-3.735,2.864-7.475,5.674l2.03,4.499
			c1.979,0.847,4.158,1.319,6.447,1.319c4.15,0,7.928-1.553,10.817-4.094c-0.791-0.317-1.601-0.75-2.429-1.289
			C52.335,55.736,46.562,51.808,44.514,50.414z"/>
		<path style="fill:#FFFFFF;" d="M45.354,29.274c-3.316,0-6.396,0.992-8.976,2.683l10.049,9.02l3.4-3.426
			c1.005-1.013,2.642-1.016,3.651-0.007c1.009,1.009,1.006,2.646-0.007,3.651l-3.426,3.4l9.027,10.056
			c1.692-2.58,2.684-5.661,2.684-8.977C61.756,36.617,54.413,29.274,45.354,29.274z"/>
	</g>
</g>
</svg>
