<svg xmlns="http://www.w3.org/2000/svg" viewBox="0 0 90.709 90.709"><circle cx="45.354" cy="45.355" r="43.52" fill="#194093"/><path d="M45.354 2.835c23.483 0 42.52 19.037 42.52 42.52s-19.037 42.52-42.52 42.52-42.52-19.037-42.52-42.52 19.037-42.52 42.52-42.52m0-2C20.806.835.834 20.806.834 45.355s19.971 44.52 44.52 44.52 44.52-19.971 44.52-44.52S69.903.835 45.354.835h0z" fill="#252e78"/><path d="M63.278 24.903c-7.122-.241-13.525 3.094-17.514 8.38-3.622-5.544-9.785-9.306-16.906-9.547A21.05 21.05 0 0 0 7.109 44.057c-.394 11.617 8.704 21.355 20.322 21.749 7.122.242 13.525-3.094 17.514-8.38 3.622 5.544 9.785 9.306 16.906 9.547 11.617.394 21.355-8.704 21.749-20.322a21.05 21.05 0 0 0-20.322-21.748z" fill="#fff"/><path d="M57.867 54.647L47.551 43.154l3.426-3.4c1.013-1.005 1.016-2.642.007-3.651s-2.646-1.006-3.651.007l-3.4 3.426L32.44 29.22c-1.142-.905-2.067-.94-2.436.459-.285 1.9.411 3.975 1.837 6.167l6.281 9.229-.171.162-5.673 7.475-4.512-2.036-1.636 1.636 2.69 5.962 5.962 2.69 1.636-1.636-2.035-4.51 7.475-5.674.162-.172 9.228 6.28c2.193 1.427 4.267 2.123 6.167 1.837 1.398-.368 1.363-1.294.452-2.442z" fill-rule="evenodd" fill="#f8c409"/></svg>