<svg xmlns="http://www.w3.org/2000/svg" viewBox="0 0 90.709 90.709"><circle cx="45.354" cy="45.355" r="43.52" fill="#194093"/><path d="M45.354 2.835c23.483 0 42.52 19.037 42.52 42.52s-19.037 42.52-42.52 42.52-42.52-19.037-42.52-42.52 19.037-42.52 42.52-42.52m0-2C20.806.835.834 20.806.834 45.355s19.971 44.52 44.52 44.52 44.52-19.971 44.52-44.52S69.903.835 45.354.835h0z" fill="#252e78"/><path d="M71.5 26.332H58.498l-3.672-5.325H35.882l-3.672 5.325h-2.472v-2.235a1.94 1.94 0 0 0-1.94-1.94h-5.694a1.94 1.94 0 0 0-1.939 1.94v2.235h-.954a5.75 5.75 0 0 0-5.746 5.746v27.194a5.75 5.75 0 0 0 5.746 5.746H71.5c3.172 0 5.743-2.573 5.743-5.746V32.078c0-3.172-2.571-5.746-5.743-5.746zM60.362 56.089c.912 1.148.947 2.074-.452 2.443-1.183.178-2.434-.026-3.738-.548a16.32 16.32 0 0 1-10.817 4.094c-2.289 0-4.468-.472-6.447-1.319l.005.011-1.636 1.636-5.962-2.69-2.69-5.962 1.636-1.636.011.005c-.847-1.979-1.319-4.158-1.319-6.447a16.32 16.32 0 0 1 4.094-10.817c-.523-1.304-.726-2.555-.548-3.738.369-1.399 1.295-1.364 2.436-.459l1.443 1.296a16.31 16.31 0 0 1 8.976-2.683c9.059 0 16.402 7.343 16.402 16.402 0 3.316-.992 6.397-2.684 8.977l1.29 1.435z" fill="#f8c409"/><path d="M40.445 46.679l.171-.162-6.281-9.229c-.539-.828-.972-1.638-1.289-2.429a16.32 16.32 0 0 0-4.094 10.817c0 2.29.472 4.468 1.319 6.447l4.501 2.031 5.673-7.475zm4.069 3.735l-.162.172-7.475 5.674 2.03 4.499c1.979.847 4.158 1.319 6.447 1.319a16.32 16.32 0 0 0 10.817-4.094c-.791-.317-1.601-.75-2.429-1.289l-9.228-6.281zm.84-21.14c-3.316 0-6.396.992-8.976 2.683l10.049 9.02 3.4-3.426c1.005-1.013 2.642-1.016 3.651-.007s1.006 2.646-.007 3.651l-3.426 3.4 9.027 10.056c1.692-2.58 2.684-5.661 2.684-8.977 0-9.057-7.343-16.4-16.402-16.4z" fill="#fff"/></svg>