<svg xmlns="http://www.w3.org/2000/svg" viewBox="0 0 90.709 90.709"><circle cx="45.354" cy="45.355" r="43.52" fill="#194093"/><path d="M45.354 2.835c23.483 0 42.52 19.037 42.52 42.52s-19.037 42.52-42.52 42.52-42.52-19.037-42.52-42.52 19.037-42.52 42.52-42.52m0-2C20.806.835.834 20.806.834 45.355s19.971 44.52 44.52 44.52 44.52-19.971 44.52-44.52S69.903.835 45.354.835h0z" fill="#252e78"/><circle cx="45.354" cy="45.13" r="24.34" fill="#fff"/><path d="M63.269 60.777L49.65 45.603l4.523-4.489c1.337-1.327 1.341-3.488.009-4.82s-3.493-1.328-4.82.009l-4.489 4.523L29.7 27.206c-1.507-1.195-2.729-1.241-3.216.607-.377 2.509.542 5.248 2.426 8.142l8.293 12.185-.226.214-7.49 9.868-5.957-2.688-2.16 2.16 3.552 7.871 7.871 3.552 2.16-2.16-2.687-5.955 9.869-7.491.213-.227 12.184 8.292c2.895 1.884 5.634 2.803 8.142 2.426 1.845-.487 1.799-1.709.595-3.225z" fill-rule="evenodd" fill="#f8c409"/></svg>