<svg xmlns="http://www.w3.org/2000/svg" viewBox="0 0 90.709 90.709"><path d="M45.354 88.874c-23.997 0-43.52-19.522-43.52-43.52s19.523-43.52 43.52-43.52 43.52 19.523 43.52 43.521-19.523 43.519-43.52 43.519z" fill="#194093"/><path d="M45.354 2.835c23.483 0 42.52 19.037 42.52 42.52s-19.037 42.52-42.52 42.52-42.52-19.037-42.52-42.52 19.037-42.52 42.52-42.52m0-2C20.806.835.834 20.806.834 45.355s19.971 44.52 44.52 44.52 44.52-19.971 44.52-44.52S69.903.835 45.354.835h0z" fill="#252e78"/><path d="M64.582 60.629c-.109.646-10.166-11.772-9.78-12.011a42.15 42.15 0 0 0-6.531-4.314 12.79 12.79 0 0 0-9.462-1.046l-2.322.646c-3.763-2.105-11.016-6.469-11.016-6.469l-1.967-3.317-4.638-7.823-4.352-2.049 3.757 10.692L8.15 40.271s4.834 3.376 9.212 1.597l3.747-1.584 14.647 9.32-16.906 9.31c-2.315 1.275-9.783 6.345-3.555 6.748 5.848.378 17.614-4.001 28.915-9.199 1.24 1.019 2.974 2.169 5.127 3.685 5.415 3.81 13.497 8.279 16.044 6.383 1.803-1.34.746-2.556-.799-5.902zM79.474 28.83c-.698-3.596-9.481.716-11.689 2.052L48.822 42.36c.129.064.266.112.394.18 2.43 1.302 4.732 2.823 6.84 4.519a42.57 42.57 0 0 1 2.362 2.051c11.025-7.466 21.833-16.276 21.056-20.28zm-51.128 7.982l2.59-1.407c2.943-1.677-1.713-6.24-1.713-6.24L24.4 31.706l2.53 4.267 1.416.839z" fill="#fff"/><path d="M54.803 48.618c-1.694 1.048-2.864 2.607-2.551 4.171.596 4.772 6.561 13.122 11.333 9.544.578-.482.889-1.058.998-1.704-1.607-3.481-4.77-7.979-9.78-12.011z" fill="#f8c409"/></svg>