<?xml version="1.0" encoding="iso-8859-1"?>
<!-- Generator: Adobe Illustrator 22.1.0, SVG Export Plug-In . SVG Version: 6.00 Build 0)  -->
<svg version="1.1" xmlns="http://www.w3.org/2000/svg" xmlns:xlink="http://www.w3.org/1999/xlink" x="0px" y="0px"
	 viewBox="0 0 90.709 90.709" style="enable-background:new 0 0 90.709 90.709;" xml:space="preserve">
<g id="ratownik-1">
	<g>
		<g>
			<path style="fill:#194093;" d="M45.354,88.874c-23.997,0-43.52-19.522-43.52-43.52S21.357,1.834,45.354,1.834
				s43.52,19.523,43.52,43.521S69.351,88.874,45.354,88.874z"/>
			<g>
				<path style="fill:#252E78;" d="M45.354,2.835c23.483,0,42.52,19.037,42.52,42.52s-19.037,42.52-42.52,42.52
					s-42.52-19.037-42.52-42.52S21.871,2.835,45.354,2.835 M45.354,0.835c-24.548,0-44.52,19.971-44.52,44.52
					s19.971,44.52,44.52,44.52s44.52-19.971,44.52-44.52S69.903,0.835,45.354,0.835L45.354,0.835z"/>
			</g>
		</g>
	</g>
</g>
<g id="Warstwa_4">
	<g>
		<g>
			<path style="fill:#FFFFFF;" d="M64.582,60.629c-0.109,0.646-10.166-11.772-9.78-12.011c-1.905-1.533-4.076-2.999-6.531-4.314
				c-2.9-1.553-6.293-1.928-9.462-1.046l-2.322,0.646c-3.763-2.105-11.016-6.469-11.016-6.469l-1.967-3.317l-4.638-7.823
				l-4.352-2.049l3.757,10.692L8.15,40.271c0,0,4.834,3.376,9.212,1.597c1.426-0.58,2.689-1.119,3.747-1.584
				c0.285,0.187,9.086,5.707,14.647,9.32c-5.315,2.927-12.808,7.053-16.906,9.31c-2.315,1.275-9.783,6.345-3.555,6.748
				c5.848,0.378,17.614-4.001,28.915-9.199c1.24,1.019,2.974,2.169,5.127,3.685c5.415,3.81,13.497,8.279,16.044,6.383
				C67.184,65.191,66.127,63.975,64.582,60.629z"/>
			<path style="fill:#FFFFFF;" d="M79.474,28.83c-0.698-3.596-9.481,0.716-11.689,2.052c-3.266,1.977-11.544,6.988-18.963,11.478
				c0.129,0.064,0.266,0.112,0.394,0.18c2.43,1.302,4.732,2.823,6.84,4.519c0.849,0.683,1.631,1.369,2.362,2.051
				C69.443,41.644,80.251,32.834,79.474,28.83z"/>
			<path style="fill:#FFFFFF;" d="M28.346,36.812c0.85-0.443,1.727-0.915,2.59-1.407c2.943-1.677-1.713-6.24-1.713-6.24L24.4,31.706
				l2.53,4.267L28.346,36.812z"/>
		</g>
		<g>
			<path style="fill:#F8C409;" d="M54.803,48.618c-1.694,1.048-2.864,2.607-2.551,4.171c0.596,4.772,6.561,13.122,11.333,9.544
				c0.578-0.482,0.889-1.058,0.998-1.704C62.976,57.148,59.813,52.65,54.803,48.618z"/>
		</g>
	</g>
</g>
</svg>
