<?xml version="1.0" encoding="utf-8"?>
<!-- Generator: Adobe Illustrator 24.2.0, SVG Export Plug-In . SVG Version: 6.00 Build 0)  -->
<svg version="1.1" id="Layer_1" xmlns="http://www.w3.org/2000/svg" x="0px" y="0px"
	 viewBox="0 0 87.87 87.87" style="enable-background:new 0 0 87.87 87.87;" xml:space="preserve">
<style type="text/css">
	.st0{fill:none;stroke:#231F20;stroke-width:3.763;stroke-linecap:round;stroke-linejoin:round;stroke-miterlimit:10;}
	.st1{clip-path:url(#SVGID_2_);fill:#231F20;}
	
		.st2{clip-path:url(#SVGID_2_);fill:none;stroke:#231F20;stroke-width:2;stroke-linecap:round;stroke-linejoin:round;stroke-miterlimit:10;}
</style>
<line class="st0" x1="34.7" y1="41.69" x2="36.38" y2="34.82"/>
<line class="st0" x1="38.12" y1="54.08" x2="39.8" y2="47.21"/>
<line class="st0" x1="47.8" y1="52.2" x2="43.3" y2="46.74"/>
<line class="st0" x1="49.26" y1="60.97" x2="47.8" y2="52.2"/>
<line class="st0" x1="31.28" y1="59.48" x2="38" y2="54.11"/>
<line class="st0" x1="36.34" y1="34.48" x2="43.3" y2="33.26"/>
<line class="st0" x1="47.41" y1="33.52" x2="52.15" y2="38.76"/>
<line class="st0" x1="56.76" y1="34.89" x2="52.42" y2="38.98"/>
<g>
	<defs>
		<rect id="SVGID_1_" y="0" width="87.87" height="87.87"/>
	</defs>
	<clipPath id="SVGID_2_">
		<use xlink:href="#SVGID_1_"  style="overflow:visible;"/>
	</clipPath>
	<path class="st1" d="M37.97,47.05l2.95-15.28c0,0,2.1-0.41,3.9-0.56c0.69-0.06,3.27,0.56,3.27,0.56l-3.39,15.62L37.97,47.05z"/>
	<path class="st1" d="M49.24,24.82c0.56,2.04-0.63,4.15-2.67,4.72c-2.04,0.56-4.15-0.63-4.72-2.67c-0.56-2.04,0.63-4.15,2.67-4.72
		C46.57,21.59,48.68,22.78,49.24,24.82"/>
	<path class="st1" d="M48.37,77.09l1.18,8.92c-1.85,0.24-3.74,0.37-5.61,0.37c-1.82,0-3.65-0.12-5.44-0.35l1.15-8.93
		C42.51,77.47,45.49,77.47,48.37,77.09 M69.8,10.28c-2.94-2.26-6.16-4.13-9.58-5.55l-3.46,8.31c2.69,1.12,5.23,2.59,7.55,4.37
		L69.8,10.28z M4.77,60.31c1.43,3.41,3.3,6.63,5.57,9.57l7.12-5.5c-1.79-2.31-3.26-4.85-4.39-7.53L4.77,60.31z M18.19,77.67
		c2.95,2.25,6.18,4.11,9.6,5.52l3.43-8.32c-2.69-1.11-5.24-2.57-7.56-4.35L18.19,77.67z M56.78,74.82l3.46,8.31
		c3.41-1.42,6.64-3.29,9.57-5.56l-5.49-7.13C62.01,72.23,59.47,73.7,56.78,74.82 M86.02,38.39l-8.92,1.17
		c0.19,1.44,0.28,2.91,0.28,4.38c0,1.45-0.09,2.92-0.28,4.36l8.93,1.16c0.24-1.82,0.35-3.68,0.35-5.51
		C86.38,42.08,86.26,40.22,86.02,38.39 M70.49,64.27l7.14,5.48c2.26-2.94,4.12-6.17,5.54-9.59l-8.32-3.44
		C73.74,59.41,72.27,61.95,70.49,64.27 M83.16,27.69c-1.42-3.42-3.28-6.64-5.54-9.58l-7.14,5.48c1.78,2.32,3.25,4.86,4.37,7.55
		L83.16,27.69z M10.5,43.94c0-18.44,15-33.44,33.44-33.44c1.47,0,2.95,0.1,4.41,0.29l1.17-8.92C47.67,1.62,45.8,1.5,43.94,1.5
		C20.54,1.5,1.5,20.54,1.5,43.94c0,1.86,0.12,3.74,0.36,5.58l8.92-1.18C10.59,46.89,10.5,45.41,10.5,43.94"/>
	<line class="st2" x1="21.99" y1="64.79" x2="65.89" y2="64.79"/>
</g>
</svg>
