<?xml version="1.0" encoding="utf-8"?>
<!-- Generator: Adobe Illustrator 24.2.0, SVG Export Plug-In . SVG Version: 6.00 Build 0)  -->
<svg version="1.1" id="Layer_1" xmlns="http://www.w3.org/2000/svg" x="0px" y="0px"
	 viewBox="0 0 87.87 87.87" style="enable-background:new 0 0 87.87 87.87;" xml:space="preserve">
<style type="text/css">
	.st0{clip-path:url(#SVGID_2_);fill:#231F20;}
	
		.st1{clip-path:url(#SVGID_2_);fill:none;stroke:#231F20;stroke-width:2;stroke-linecap:round;stroke-linejoin:round;stroke-miterlimit:10;}
</style>
<g>
	<defs>
		<rect id="SVGID_1_" y="0" width="87.87" height="87.87"/>
	</defs>
	<clipPath id="SVGID_2_">
		<use xlink:href="#SVGID_1_"  style="overflow:visible;"/>
	</clipPath>
	<path class="st0" d="M43.94,1.5C20.54,1.5,1.5,20.54,1.5,43.94c0,23.4,19.04,42.44,42.44,42.44c23.4,0,42.44-19.04,42.44-42.44
		C86.38,20.54,67.34,1.5,43.94,1.5 M43.94,77.38c-18.44,0-33.44-15-33.44-33.44c0-18.44,15-33.44,33.44-33.44
		c18.44,0,33.44,15,33.44,33.44C77.38,62.37,62.38,77.38,43.94,77.38"/>
	<line class="st1" x1="21.99" y1="64.79" x2="65.89" y2="64.79"/>
	<path class="st0" d="M60.93,30.41c-0.92-0.48-2.05-0.13-2.53,0.79l-1.72,3.29l-4.05-2.58l0.01-0.01c0,0-0.08-0.05-0.23-0.12
		l-0.03-0.02c-0.03-0.02-0.07-0.03-0.11-0.05c-0.68-0.36-2.12-1.11-2.63-1.21c-0.53-0.1-1.08-0.18-1.61-0.25
		c-0.07-0.01-0.15-0.04-0.22-0.04l-0.69-0.07c-0.8-0.09-1.37-0.13-1.37-0.13v0l-4.94-0.48c-0.99-0.1-1.86,0.59-2.02,1.56l-0.73,1.31
		H32.2c-0.52,0-0.94,0.42-0.94,0.94c0,0.52,0.42,0.94,0.94,0.94H37l-1.5,2.69c-0.51,0.9-0.18,2.05,0.72,2.55
		c0.29,0.16,0.6,0.24,0.91,0.24c0.66,0,1.3-0.35,1.64-0.96l3.02-5.4l2.17,0.21l-4.22,8.51H27.33c-0.52,0-0.94,0.42-0.94,0.94
		c0,0.52,0.42,0.94,0.94,0.94h11.4l-2.7,4.84l-8.15,0.16c-1.03,0.02-1.86,0.88-1.84,1.91c0.02,1.02,0.86,1.84,1.87,1.84h0.04
		l8.56-0.17c0.11,0,0.21-0.02,0.31-0.04c0.1,0.01,0.2,0.04,0.3,0.04c0.66,0,1.3-0.35,1.64-0.96l3.34-5.98
		c0.1,0.33,0.28,0.64,0.56,0.89l4.78,4.18l-0.4,9.55c-0.04,1.03,0.76,1.91,1.8,1.95c0.03,0,0.05,0,0.08,0c1,0,1.83-0.79,1.87-1.8
		l0.42-10.24c0.01-0.36-0.08-0.69-0.23-0.98c-0.1-0.32-0.28-0.62-0.55-0.85l-4.4-3.85l4.84-9.22l4.86,3.09
		c0.17,0.27,0.4,0.5,0.7,0.66c0.28,0.14,0.57,0.21,0.87,0.21c0.68,0,1.33-0.37,1.66-1.01l2.75-5.26
		C62.21,32.02,61.85,30.89,60.93,30.41"/>
	<path class="st0" d="M51.76,29.36c2.11,0,3.82-1.71,3.82-3.82c0-2.11-1.71-3.82-3.82-3.82c-2.11,0-3.82,1.71-3.82,3.82
		C47.94,27.65,49.65,29.36,51.76,29.36"/>
	<path class="st0" d="M35.26,27.31h8.65c0.52,0,0.94-0.42,0.94-0.94c0-0.52-0.42-0.94-0.94-0.94h-8.65c-0.52,0-0.94,0.42-0.94,0.94
		C34.32,26.89,34.74,27.31,35.26,27.31"/>
</g>
</svg>
