<svg xmlns="http://www.w3.org/2000/svg" viewBox="0 0 87.87 87.87" width="117.16" height="117.16" ><defs><clipPath id="A"><path d="M0 0h87.87v87.87H0z"/></clipPath></defs><g clip-path="url(#A)"><path d="M39.71 77.16l-1.15 8.94c1.8.23 3.63.35 5.45.35 1.88 0 3.77-.13 5.62-.37l-1.18-8.94a34.09 34.09 0 0 1-8.74.02zm30.22-66.95a42.21 42.21 0 0 0-9.6-5.56l-3.46 8.33a33.18 33.18 0 0 1 7.56 4.38l5.5-7.15zM4.78 60.33a42.16 42.16 0 0 0 5.58 9.58l7.13-5.51a33.37 33.37 0 0 1-4.39-7.55l-8.32 3.48zm13.44 17.4a42.23 42.23 0 0 0 9.62 5.53l3.43-8.34a33.17 33.17 0 0 1-7.57-4.36l-5.48 7.17zm38.67-2.86l3.47 8.32c3.42-1.42 6.65-3.3 9.59-5.57l-5.5-7.14c-2.33 1.79-4.87 3.27-7.56 4.39zm29.29-36.49l-8.94 1.17c.19 1.44.28 2.92.28 4.39 0 1.46-.1 2.93-.28 4.37l8.94 1.16c.24-1.82.36-3.68.36-5.52a42.83 42.83 0 0 0-.36-5.57zM70.62 64.3l7.15 5.49c2.26-2.95 4.13-6.18 5.55-9.61l-8.33-3.45c-1.12 2.7-2.59 5.24-4.37 7.57zm12.69-36.65c-1.42-3.42-3.29-6.65-5.55-9.6l-7.15 5.49c1.78 2.32 3.26 4.87 4.38 7.56l8.32-3.45zm-72.8 16.28c0-18.47 15.03-33.5 33.5-33.5 1.48 0 2.96.1 4.41.29l1.17-8.94c-1.84-.24-3.72-.36-5.59-.36C20.57 1.41 1.5 20.48 1.5 43.93c0 1.87.12 3.75.36 5.59l8.94-1.18c-.19-1.45-.29-2.93-.29-4.41zm13.03-15.47v30.59h41.18V28.46H23.54zm32.09 5.01L44.13 43.7l-11.5-10.22 23-.01zM28.55 54.04V36.55L44.13 50.4l15.58-13.85v17.49H28.55z"/></g></svg>