<svg xmlns="http://www.w3.org/2000/svg" viewBox="0 0 87.87 87.87" width="117.16" height="117.16" ><defs><clipPath id="A"><path d="M0 0h87.87v87.87H0z"/></clipPath></defs><g clip-path="url(#A)"><path d="M4.74 60.24a42.7 42.7 0 0 0 5.55 9.59l7.15-5.5a33.71 33.71 0 0 1-4.38-7.55l-8.32 3.46zm13.39 17.42a42.48 42.48 0 0 0 9.59 5.55l3.46-8.33a33.96 33.96 0 0 1-7.56-4.37l-5.49 7.15zM44.02 1.41C20.57 1.41 1.5 20.48 1.5 43.93c0 1.87.12 3.75.36 5.58l8.94-1.18c-.19-1.45-.29-2.93-.29-4.41 0-18.47 15.03-33.5 33.5-33.5s33.5 15.03 33.5 33.5-15.03 33.5-33.5 33.5a34.14 34.14 0 0 1-4.41-.29l-1.17 8.94a43.33 43.33 0 0 0 5.58.36c23.45 0 42.52-19.07 42.52-42.52.01-23.43-19.07-42.5-42.51-42.5zm9.045 37.088l8.01-8.01 10.697 10.697-8.01 8.01zm-36.809 2.675l10.697-10.697 8.01 8.01-10.697 10.697zM59.88 28.99l-3.55-3.54-12.31 12.32L31.7 25.45l-3.54 3.54 12.32 12.32-15.56 15.55 3.54 3.55 15.56-15.56 15.55 15.56 3.54-3.55-15.55-15.55 12.32-12.32z"/></g></svg>