<svg xmlns="http://www.w3.org/2000/svg" viewBox="0 0 87.87 87.87" width="117.16" height="117.16" ><defs><clipPath id="A"><path d="M0 0h87.87v87.87H0z"/></clipPath></defs><g clip-path="url(#A)"><path d="M44.02 1.41C20.57 1.41 1.5 20.48 1.5 43.93c0 23.44 19.07 42.52 42.52 42.52s42.52-19.07 42.52-42.52S67.46 1.41 44.02 1.41zm0 76.02c-18.47 0-33.5-15.03-33.5-33.5s15.03-33.5 33.5-33.5 33.5 15.03 33.5 33.5-15.03 33.5-33.5 33.5zm-2.13-48.3c0-1.09-.89-1.98-1.98-1.98h-1.46c-1.09 0-1.98.89-1.98 1.98v3.22h5.42v-3.22zm10.71 4.64h-1.22V20.42c0-1.13-1.04-2.05-2.31-2.05s-2.31.92-2.31 2.05v13.34H35.31a2.35 2.35 0 0 0-2.35 2.36v12.73a2.35 2.35 0 0 0 2.35 2.35h.22v15.92a2.35 2.35 0 0 0 2.35 2.35h12.15a2.35 2.35 0 0 0 2.35-2.35V51.21h.22a2.35 2.35 0 0 0 2.35-2.35V36.12c.01-1.3-1.04-2.35-2.35-2.35zm-1.62 9.59c0 .46-.38.84-.84.84H37.78c-.46 0-.84-.38-.84-.84v-4.17c0-.46.38-.84.84-.84h12.36c.46 0 .84.38.84.84v4.17z"/></g></svg>