<svg xmlns="http://www.w3.org/2000/svg" viewBox="0 0 87.87 87.87" width="117.16" height="117.16" ><defs><clipPath id="A"><path d="M0 0h87.87v87.87H0z"/></clipPath></defs><g clip-path="url(#A)"><path d="M44.3 38.03c-3.82 0-6.92 3.1-6.92 6.92 0 2.97 1.88 5.5 4.52 6.48v16.6h4.8v-16.6c2.64-.98 4.52-3.51 4.52-6.48 0-3.82-3.1-6.92-6.92-6.92zm-.28-11.15c-9.16 0-16.61 7.45-16.61 16.61h4.8a11.83 11.83 0 0 1 11.81-11.81 11.83 11.83 0 0 1 11.81 11.81h4.8c0-9.16-7.45-16.61-16.61-16.61zm0-9.56c-14.43 0-26.17 11.74-26.17 26.17h4.8c0-11.78 9.59-21.37 21.37-21.37s21.37 9.59 21.37 21.37h4.8c0-14.43-11.74-26.17-26.17-26.17zm0-15.91C20.57 1.41 1.5 20.48 1.5 43.93c0 23.44 19.07 42.52 42.52 42.52s42.52-19.07 42.52-42.52S67.46 1.41 44.02 1.41zm0 76.02c-18.47 0-33.5-15.03-33.5-33.5s15.03-33.5 33.5-33.5 33.5 15.03 33.5 33.5-15.03 33.5-33.5 33.5z"/></g></svg>