<svg xmlns="http://www.w3.org/2000/svg" viewBox="0 0 87.87 87.87" width="117.16" height="117.16"  xmlns:v="https://vecta.io/nano"><defs><clipPath id="A"><path d="M0 0h87.87v87.87H0z"/></clipPath></defs><g clip-path="url(#A)" fill="#231f20"><path d="M34.37 60.31h19.14v6H34.37v-6z"/><path d="M40.94 56.85h6V62h-6v-5.15zm-1.3 20.25l-1.15 8.93a42.84 42.84 0 0 0 5.44.35c1.88 0 3.76-.13 5.61-.37l-1.18-8.92c-2.87.38-5.85.38-8.72.01zM69.8 10.28c-2.94-2.26-6.16-4.13-9.58-5.55l-3.46 8.31a33.67 33.67 0 0 1 7.55 4.37l5.49-7.13zM4.77 60.31c1.43 3.41 3.3 6.63 5.57 9.57l7.12-5.5c-1.79-2.31-3.26-4.85-4.39-7.53l-8.3 3.46zm13.42 17.36a42.65 42.65 0 0 0 9.6 5.52l3.43-8.32a33.28 33.28 0 0 1-7.56-4.35l-5.47 7.15zm38.59-2.85l3.46 8.31a42.23 42.23 0 0 0 9.57-5.56l-5.49-7.13a33.05 33.05 0 0 1-7.54 4.38zm29.24-36.43l-8.92 1.17a33.56 33.56 0 0 1 .28 4.38 33.48 33.48 0 0 1-.28 4.36l8.93 1.16c.24-1.82.35-3.68.35-5.51a42.79 42.79 0 0 0-.36-5.56zM70.49 64.27l7.14 5.48c2.26-2.94 4.12-6.17 5.54-9.59l-8.32-3.44c-1.11 2.69-2.58 5.23-4.36 7.55zm12.67-36.58c-1.42-3.42-3.28-6.64-5.54-9.58l-7.14 5.48a33.67 33.67 0 0 1 4.37 7.55l8.31-3.45zM10.5 43.94c0-18.44 15-33.44 33.44-33.44a34.26 34.26 0 0 1 4.41.29l1.17-8.92c-1.85-.25-3.72-.37-5.58-.37C20.54 1.5 1.5 20.54 1.5 43.94a43.33 43.33 0 0 0 .36 5.58l8.92-1.18a33.98 33.98 0 0 1-.28-4.4z"/><path d="M21.55 23.05h44.78v34.78H21.55V23.05zm3 3h38.78v28.78H24.55V26.05z" fill-rule="evenodd"/><path d="M29.25 39.93c0-1.39.22-2.43.66-3.12s1.1-1.04 1.99-1.04 1.55.35 1.99 1.04.66 1.73.66 3.13c0 1.39-.22 2.43-.66 3.12s-1.1 1.04-1.99 1.04c-.88 0-1.55-.35-1.99-1.04-.44-.7-.66-1.74-.66-3.13zm2.65-2.81c-.36 0-.63.22-.8.67s-.25 1.16-.25 2.15l.02.83 1.85-2.95c0-.01-.01-.02-.01-.03-.17-.45-.44-.67-.81-.67zm-.8 4.96c.17.45.43.67.8.67s.64-.22.81-.67.25-1.16.25-2.14l-.04-1-1.88 2.99.06.15zm4.64.46h1.77v-5.2l-1.65.4v-1.42l1.66-.4h1.53v6.62h1.78v1.4h-5.09v-1.4zm5.79-2.61c0-1.39.22-2.43.66-3.12s1.1-1.04 1.99-1.04 1.55.35 1.99 1.04.66 1.73.66 3.13c0 1.39-.22 2.43-.66 3.12s-1.1 1.04-1.99 1.04c-.88 0-1.55-.35-1.99-1.04-.44-.7-.66-1.74-.66-3.13zm2.65-2.81c-.37 0-.63.22-.8.67s-.25 1.16-.25 2.15l.02.83L45 37.82c0-.01-.01-.02-.01-.03-.18-.45-.44-.67-.81-.67zm-.8 4.96c.17.45.43.67.8.67s.64-.22.81-.67.25-1.16.25-2.14l-.04-1-1.88 2.99.06.15zm4.64.46h1.77v-5.2l-1.65.4v-1.42l1.66-.4h1.53v6.62h1.77v1.4h-5.08v-1.4zm6.13 0h1.78v-5.2l-1.65.4v-1.42l1.66-.4h1.53v6.62h1.77v1.4h-5.09v-1.4z"/></g></svg>