<svg xmlns="http://www.w3.org/2000/svg" viewBox="0 0 87.87 87.87" width="117.16" height="117.16"  xmlns:v="https://vecta.io/nano"><defs><clipPath id="A"><path d="M0 0h87.87v87.87H0z"/></clipPath></defs><g clip-path="url(#A)" fill="#231f20"><path d="M4.74 60.22a42.53 42.53 0 0 0 5.54 9.57l7.14-5.49c-1.78-2.32-3.25-4.85-4.37-7.54l-8.31 3.46zm13.35 17.39a42.53 42.53 0 0 0 9.57 5.54l3.45-8.31c-2.69-1.12-5.22-2.58-7.54-4.37l-5.48 7.14zM43.94 1.5C20.54 1.5 1.5 20.54 1.5 43.94a43.06 43.06 0 0 0 .36 5.57l8.92-1.17c-.19-1.45-.29-2.93-.29-4.4 0-18.44 15-33.44 33.44-33.44s33.44 15 33.44 33.44-15 33.44-33.44 33.44c-1.47 0-2.95-.1-4.4-.29l-1.17 8.92c1.84.24 3.71.36 5.57.36 23.4 0 42.44-19.04 42.44-42.44C86.38 20.54 67.34 1.5 43.94 1.5zm-5.11 36.22l-6.99 2.51 6.99 2.48v2.19l-9.29-3.65v-2.07l9.29-3.66v2.2zm7.88-4.98h1.94l-6.9 14.79H39.8l6.91-14.79zm2.92 4.98v-2.2l9.29 3.66v2.07l-9.29 3.65v-2.19l6.99-2.48-6.99-2.51z"/><path d="M21.55 23.05h44.78v34.78H21.55V23.05zm3 3h38.78v28.78H24.55V26.05z" fill-rule="evenodd"/><path d="M34.37 60.31h19.14v6H34.37v-6z"/><path d="M40.94 56.85h6V62h-6v-5.15z"/></g></svg>