<svg xmlns="http://www.w3.org/2000/svg" viewBox="0 0 87.87 87.87" width="117.16" height="117.16"  xmlns:v="https://vecta.io/nano"><defs><clipPath id="A"><path d="M0 0h87.87v87.87H0z"/></clipPath></defs><g clip-path="url(#A)" fill="#231f20"><path d="M43.94 1.5C20.54 1.5 1.5 20.54 1.5 43.94s19.04 42.44 42.44 42.44 42.44-19.04 42.44-42.44S67.34 1.5 43.94 1.5zm0 75.88c-18.44 0-33.44-15-33.44-33.44s15-33.44 33.44-33.44 33.44 15 33.44 33.44c0 18.43-15.01 33.44-33.44 33.44zm-5.65-38.52h11.3v9.93h-11.3v-9.93z"/><g fill-rule="evenodd"><path d="M40.12 37.84v-3.11a3.82 3.82 0 1 1 7.64 0v3.11m-9.64 0v-3.11c0-1.54.61-3.02 1.7-4.12 1.1-1.09 2.58-1.7 4.12-1.7s3.02.61 4.12 1.7c1.09 1.1 1.7 2.58 1.7 4.12v3.11M21.55 23.05h44.78v34.78H21.55V23.05zm3 3h38.78v28.78H24.55V26.05z"/></g><path d="M34.37 60.31h19.14v6H34.37v-6z"/><path d="M40.94 56.85h6V62h-6v-5.15z"/></g></svg>