<svg xmlns="http://www.w3.org/2000/svg" viewBox="0 0 87.87 87.87" width="117.16" height="117.16" ><defs><clipPath id="A"><path d="M0 0h87.87v87.87H0z"/></clipPath></defs><g clip-path="url(#A)" fill="#231f20"><path d="M43.94 1.5C20.54 1.5 1.5 20.54 1.5 43.94s19.04 42.44 42.44 42.44 42.44-19.04 42.44-42.44S67.34 1.5 43.94 1.5zm0 75.88c-18.44 0-33.44-15-33.44-33.44s15-33.44 33.44-33.44 33.44 15 33.44 33.44c0 18.43-15.01 33.44-33.44 33.44z"/><path d="M21.55 23.05h44.78v34.78H21.55V23.05zm3 3h38.78v28.78H24.55V26.05z" fill-rule="evenodd"/><path d="M32.71 47.4l.28-1.74c.04-.21-.04-.34-.15-.53-.35-.56-.81-.34-1.26-.28l-1.13.18c-.11.02-.17-.01-.23-.1-.62-.94-1.03-1.97-1.28-3.07-.03-.14.01-.22.12-.3l1.44-1.04c.11-.08.15-.15.14-.28-.02-.24.06-.52-.04-.71s-.36-.29-.55-.43l-1.01-.74c-.1-.07-.12-.14-.09-.25A9.24 9.24 0 0 1 30.24 35c.08-.13.18-.1.28-.08l1.79.27c.07.01.16-.03.22-.08.11-.09.2-.23.32-.31.2-.14.2-.31.17-.52l-.27-1.65c-.02-.12.02-.18.12-.24a9.19 9.19 0 0 1 3.05-1.27c.14-.03.22 0 .3.12l1.07 1.47c.04.06.13.08.21.11.05.02.11-.01.16 0 .46.1.74-.12.97-.5.23-.39.52-.73.79-1.1.06-.08.12-.13.23-.1a8.96 8.96 0 0 1 3.14 1.31c.05.03.09.13.08.2l-.29 1.83c-.02.12.01.19.09.26.11.1.24.2.33.33.12.18.27.18.45.15l1.67-.27a.26.26 0 0 1 .29.14c.6.94 1.02 1.95 1.25 3.04.03.12.01.19-.1.27l-1.46 1.07c-.07.05-.09.16-.13.24-.01.03.01.08 0 .12-.1.47.12.76.51 1 .38.23.72.52 1.08.78.1.07.12.14.1.25-.24 1.11-.67 2.14-1.28 3.09-.07.1-.14.12-.25.1l-1.85-.29c-.05-.01-.13.02-.17.06-.11.1-.19.23-.32.31-.23.15-.24.35-.19.59l.26 1.63c.01.06-.04.17-.1.21-.95.63-1.99 1.05-3.1 1.3-.12.02-.18-.02-.25-.11l-1.04-1.44c-.08-.11-.16-.16-.3-.15-.24.02-.52-.05-.71.05s-.29.36-.43.55l-.72.99c-.07.1-.14.14-.27.11-1.09-.24-2.11-.65-3.05-1.27-.1-.06-.14-.14-.18-.17zm5.06-11.33c-2.08-.02-3.85 1.73-3.88 3.82-.02 2.14 1.71 3.91 3.84 3.93 2.12.02 3.89-1.72 3.91-3.85s-1.72-3.88-3.87-3.9zM50.36 46.5l-.08-1.23c-.01-.15-.08-.23-.18-.33-.32-.33-.6-.11-.9 0l-.74.3c-.07.03-.12.02-.17-.04a6.63 6.63 0 0 1-1.34-1.89c-.04-.09-.03-.15.04-.22l.82-.92c.06-.07.08-.13.05-.21-.05-.16-.04-.36-.14-.47-.09-.11-.29-.14-.44-.21l-.8-.35c-.08-.03-.1-.08-.1-.16-.01-.79.13-1.56.4-2.31.04-.1.1-.09.18-.1l1.26-.09c.05 0 .11-.05.14-.09.06-.08.1-.18.17-.26.12-.12.09-.24.03-.38l-.43-1.08c-.03-.08-.01-.12.04-.18a6.36 6.36 0 0 1 1.88-1.33c.09-.04.15-.03.22.03l.95.83c.04.03.1.04.16.04.04 0 .07-.02.11-.02.33 0 .48-.19.58-.49s.25-.58.37-.86c.03-.07.06-.1.14-.11a6.19 6.19 0 0 1 2.33.41c.04.01.08.08.08.12l.08 1.29c0 .08.04.13.1.16.09.05.19.1.27.17.11.1.21.08.33.03l1.09-.44c.09-.04.15-.02.22.05.55.54.99 1.17 1.31 1.87.04.08.03.13-.03.2l-.83.95c-.04.04-.04.12-.05.18 0 .03.02.05.02.08 0 .34.2.5.5.6.29.1.57.24.85.36.08.03.1.08.1.16a6.61 6.61 0 0 1-.4 2.29c-.02.12-.07.15-.15.15l-1.3.08c-.04 0-.08.03-.11.07-.06.08-.1.19-.17.26-.13.14-.11.27-.04.43l.42 1.07c.02.04 0 .12-.04.16-.55.57-1.19 1.02-1.91 1.35-.07.03-.13.02-.19-.04l-.93-.82c-.07-.06-.13-.09-.22-.06-.16.05-.36.04-.47.14-.11.09-.14.29-.21.44l-.34.78c-.03.08-.08.11-.16.12-.78 0-1.53-.12-2.26-.4-.04-.02-.08-.06-.11-.08zm1.7-8.45c-1.42.31-2.35 1.76-2.05 3.18.31 1.46 1.75 2.39 3.21 2.08a2.71 2.71 0 0 0 2.06-3.21c-.31-1.44-1.75-2.37-3.22-2.05zM34.37 60.31h19.14v6H34.37v-6z"/><path d="M40.94 56.85h6V62h-6v-5.15z"/></g></svg>