<svg xmlns="http://www.w3.org/2000/svg" viewBox="0 0 87.87 87.87" width="117.16" height="117.16"  xmlns:v="https://vecta.io/nano"><defs><clipPath id="A"><path d="M0 0h87.87v87.87H0z"/></clipPath></defs><g clip-path="url(#A)" fill="#231f20"><path d="M43.94 1.5C20.54 1.5 1.5 20.54 1.5 43.94s19.04 42.44 42.44 42.44 42.44-19.04 42.44-42.44S67.34 1.5 43.94 1.5zm0 75.88c-18.44 0-33.44-15-33.44-33.44s15-33.44 33.44-33.44 33.44 15 33.44 33.44c0 18.43-15.01 33.44-33.44 33.44z"/><path d="M21.55 23.05h44.78v34.78H21.55V23.05zm3 3h38.78v28.78H24.55V26.05z" fill-rule="evenodd"/><path d="M52.55 31.61a12.176 12.176 0 1 0-17.22 17.22 12.17 12.17 0 0 0 17.22 0 12.19 12.19 0 0 0 0-17.22zm-.51 15.49a12.42 12.42 0 0 0-1.82-1.35c.42-1.47.67-3.08.73-4.75h3.58c-.16 2.26-1.03 4.38-2.49 6.1zM33.34 41h3.58c.06 1.67.31 3.29.73 4.75a12.42 12.42 0 0 0-1.82 1.35c-1.46-1.72-2.33-3.84-2.49-6.1zm2.5-7.65a12.42 12.42 0 0 0 1.82 1.35c-.42 1.46-.67 3.08-.73 4.75h-3.58c.15-2.26 1.02-4.38 2.49-6.1zm7.32 1.51a10.39 10.39 0 0 1-3.62-.92c.66-1.69 1.87-3.72 3.62-4.23v5.15zm0 1.55v3.04h-4.69c.05-1.42.25-2.78.59-4.02a12.19 12.19 0 0 0 4.1.98zm0 4.59v3.04c-1.43.09-2.81.42-4.1.99-.33-1.24-.53-2.6-.59-4.02h4.69V41zm0 4.59v5.15c-1.75-.5-2.96-2.53-3.62-4.23 1.14-.52 2.36-.83 3.62-.92zm1.55 0c1.26.09 2.49.4 3.62.92-.66 1.69-1.87 3.72-3.62 4.23v-5.15zm0-1.55V41h4.69c-.05 1.42-.26 2.78-.59 4.02a11.9 11.9 0 0 0-4.1-.98zm0-4.59v-3.04c1.43-.09 2.81-.42 4.1-.99a18.9 18.9 0 0 1 .59 4.02h-4.69v.01zm0-4.59v-5.15c1.75.5 2.96 2.53 3.62 4.23-1.13.51-2.35.83-3.62.92zm3.49-4.37c.99.44 1.92 1.03 2.75 1.76a11.43 11.43 0 0 1-1.25.95c-.39-.97-.88-1.9-1.5-2.71zm-10.03 2.7c-.44-.28-.85-.6-1.25-.95.83-.73 1.76-1.32 2.75-1.76-.62.82-1.11 1.75-1.5 2.71zm0 14.07c.39.96.88 1.89 1.5 2.7-.99-.44-1.92-1.03-2.75-1.76a12.37 12.37 0 0 1 1.25-.94zm11.53 0c.44.28.85.6 1.25.95-.83.73-1.76 1.32-2.75 1.76.62-.82 1.11-1.75 1.5-2.71zm1.25-7.81c-.06-1.67-.31-3.29-.73-4.75a12.42 12.42 0 0 0 1.82-1.35c1.47 1.72 2.33 3.84 2.5 6.1h-3.59zM34.37 60.31h19.14v6H34.37v-6z"/><path d="M40.94 56.85h6V62h-6v-5.15z"/></g></svg>