<svg xmlns="http://www.w3.org/2000/svg" viewBox="0 0 87.87 87.87" width="117.16" height="117.16" ><defs><clipPath id="A"><path d="M0 0h87.87v87.87H0z"/></clipPath></defs><g clip-path="url(#A)"><path d="M4.74 60.22a42.53 42.53 0 0 0 5.54 9.57l7.13-5.49c-1.78-2.32-3.25-4.85-4.37-7.54l-8.3 3.46zm13.35 17.39a42.53 42.53 0 0 0 9.57 5.54l3.45-8.31c-2.69-1.12-5.22-2.58-7.54-4.37l-5.48 7.14zM43.94 1.5C20.54 1.5 1.5 20.54 1.5 43.94a43.06 43.06 0 0 0 .36 5.57l8.92-1.17c-.19-1.45-.29-2.93-.29-4.4 0-18.44 15-33.44 33.44-33.44s33.44 15 33.44 33.44-15 33.44-33.44 33.44c-1.47 0-2.95-.1-4.4-.29l-1.17 8.92c1.84.24 3.71.36 5.57.36 23.4 0 42.44-19.04 42.44-42.44C86.38 20.54 67.34 1.5 43.94 1.5zm23.35 29.15c-.11-.11-.25-.16-.4-.15-3.52.25-12.25 1.38-17.35 6.47-.18.16-2.06 1.89-3.81 4.66-2.4 3.79-3.37 7.72-2.81 11.36a.5.5 0 0 0 .41.42c.21.04.42-.05.54-.23 2.81-4.52 7.05-10 12.58-13.71-5.15 4.95-8.79 10.16-11 15.06a.5.5 0 0 0 .02.46c.08.14.22.24.38.26a8.07 8.07 0 0 0 1.11.07c3.53 0 7.05-2.15 9.38-3.96 2.66-2.06 5.21-4.78 6.83-7.29 2.43-3.75 3.94-8.38 4.27-13.02.01-.15-.04-.29-.15-.4zM35.85 45.13c-4.87-4.85-13.18-5.93-16.54-6.17a.49.49 0 0 0-.52.52c.31 4.43 1.76 8.84 4.07 12.41 1.54 2.38 3.98 4.98 6.51 6.95 2.22 1.72 5.57 3.77 8.94 3.77a7.45 7.45 0 0 0 1.06-.07.47.47 0 0 0 .36-.25.52.52 0 0 0 .02-.44c-2.1-4.67-5.57-9.64-10.48-14.35 5.27 3.54 9.31 8.76 11.98 13.07.11.17.31.26.51.22a.48.48 0 0 0 .38-.4c.53-3.47-.39-7.21-2.67-10.83-1.66-2.63-3.45-4.28-3.62-4.43zm2.63-12.22c-3.24-3.23-8.78-3.95-11.01-4.11-.09-.01-.19.03-.25.09-.07.07-.1.16-.09.25.21 2.95 1.17 5.88 2.71 8.27 1.03 1.59 2.65 3.31 4.34 4.62 1.48 1.14 3.71 2.51 5.95 2.51a5.52 5.52 0 0 0 .71-.05c.1-.01.19-.08.24-.16a.33.33 0 0 0 .01-.29c-1.4-3.11-3.71-6.42-6.98-9.56 3.51 2.36 6.2 5.84 7.98 8.71.07.12.21.17.34.15.13-.03.24-.14.26-.27.35-2.31-.26-4.8-1.78-7.21-1.12-1.75-2.31-2.85-2.43-2.95z"/></g></svg>