<svg xmlns="http://www.w3.org/2000/svg" viewBox="0 0 87.87 87.87" width="117.16" height="117.16" ><defs><clipPath id="A"><path d="M0 0h87.87v87.87H0z"/></clipPath></defs><g clip-path="url(#A)"><path d="M43.94 1.5C20.54 1.5 1.5 20.54 1.5 43.94s19.04 42.44 42.44 42.44 42.44-19.04 42.44-42.44S67.34 1.5 43.94 1.5zm0 75.88c-18.44 0-33.44-15-33.44-33.44s15-33.44 33.44-33.44 33.44 15 33.44 33.44c0 18.43-15 33.44-33.44 33.44zm14.59-27.85c-2.45.15-5.67 2.6-8.78 4-3.81 1.72-9.73.34-9.73.34.91-.43 4.63-1.31 5.38-1.64 3.98-1.75 3.64-5.4 1.75-5.37-2.5.04-3.97.66-8.96 1.34-3.79.51-8.26.33-10.41 1.15-3.03 1.16-7.91 8.95-7.91 8.95l7.55 7.31s4.67-4.6 6.95-4.6c5.18 0 5.39-.07 10.2-.33 2.04-.11 2.47-.19 3.64-.59 6.24-2.11 12.93-7.72 13.06-8.4.26-1.57-1.45-2.25-2.74-2.16h0zM48.11 38.21a.31.31 0 0 0 .33-.14c1.73-2.79 4.35-6.17 7.77-8.47-3.18 3.06-5.43 6.27-6.79 9.3-.04.09-.04.2.01.28.05.09.13.15.23.16a5.09 5.09 0 0 0 .69.05c2.18 0 4.35-1.33 5.79-2.44 1.64-1.27 3.22-2.96 4.22-4.5 1.5-2.32 2.44-5.17 2.64-8.04.01-.09-.03-.18-.09-.25a.29.29 0 0 0-.25-.09c-2.17.15-7.56.85-10.72 4-.11.1-1.27 1.17-2.35 2.88-1.48 2.34-2.08 4.77-1.73 7.02.02.11.12.21.25.24h0zm-8.62 3.35c1.37 1.06 3.44 2.33 5.52 2.33a4.63 4.63 0 0 0 .65-.04c.09-.01.18-.07.22-.15.05-.08.05-.18.01-.27-1.3-2.89-3.44-5.95-6.47-8.87 3.25 2.19 5.75 5.41 7.4 8.08a.31.31 0 0 0 .32.14c.12-.03.22-.12.24-.25.33-2.14-.24-4.46-1.65-6.69-1.03-1.63-2.14-2.65-2.24-2.74-3.01-3-8.14-3.66-10.21-3.81-.09-.01-.17.03-.23.09s-.09.15-.09.23c.19 2.74 1.09 5.46 2.52 7.67.94 1.46 2.44 3.07 4.01 4.28h0zm2.96-10.38c.91.71 2.29 1.55 3.68 1.55.15 0 .29-.01.44-.03.06-.01.12-.05.15-.1.03-.06.03-.12.01-.18-.86-1.92-2.29-3.96-4.31-5.91 2.17 1.46 3.83 3.61 4.93 5.38.04.07.13.11.21.09s.15-.08.16-.17c.22-1.43-.16-2.97-1.1-4.45-.69-1.08-1.42-1.76-1.49-1.82-2-2-5.42-2.44-6.8-2.54-.06 0-.12.02-.16.06s-.06.1-.06.16c.13 1.82.72 3.63 1.68 5.11.61.97 1.62 2.04 2.66 2.85h0z"/></g></svg>