<svg xmlns="http://www.w3.org/2000/svg" viewBox="0 0 87.87 87.87" width="117.16" height="117.16" ><defs><clipPath id="A"><path d="M0 0h87.87v87.87H0z"/></clipPath></defs><g clip-path="url(#A)"><path d="M39.56 77.1l-1.14 8.93a42.84 42.84 0 0 0 5.44.35c1.88 0 3.76-.13 5.61-.37l-1.18-8.92c-2.87.38-5.86.38-8.73.01zm30.16-66.82c-2.94-2.26-6.16-4.13-9.58-5.55l-3.46 8.31a33.67 33.67 0 0 1 7.55 4.37l5.49-7.13zM4.69 60.3c1.43 3.41 3.3 6.63 5.57 9.57l7.12-5.5c-1.79-2.31-3.26-4.85-4.39-7.53l-8.3 3.46zm13.42 17.37a42.65 42.65 0 0 0 9.6 5.52l3.43-8.32a33.28 33.28 0 0 1-7.56-4.35l-5.47 7.15zm38.59-2.85l3.46 8.31a42.57 42.57 0 0 0 9.57-5.55l-5.49-7.13c-2.31 1.78-4.85 3.25-7.54 4.37zm29.24-36.43l-8.92 1.17a33.56 33.56 0 0 1 .28 4.38 35.33 35.33 0 0 1-.28 4.36l8.93 1.15c.24-1.82.36-3.67.36-5.51-.01-1.86-.13-3.72-.37-5.55zM70.41 64.26l7.14 5.48c2.26-2.94 4.12-6.17 5.54-9.59l-8.32-3.44a32.83 32.83 0 0 1-4.36 7.55zm12.67-36.57c-1.42-3.42-3.28-6.64-5.54-9.58l-7.14 5.48a33.67 33.67 0 0 1 4.37 7.55l8.31-3.45zM10.42 43.93c0-18.44 15-33.44 33.44-33.44 1.47 0 2.95.1 4.4.29l1.17-8.92c-1.84-.24-3.71-.36-5.58-.36-23.4 0-42.44 19.04-42.44 42.44 0 1.87.12 3.74.36 5.58l8.92-1.17a36.17 36.17 0 0 1-.27-4.42zm51.91.64h-5.15l3.04 12.28H27.66l3.04-12.28h-5.15l-4.27 17.28H66.6l-4.27-17.28zm-18.39-.62c10.31 0 18.34-9.55 18.68-9.96l1.32-1.59-1.32-1.6c-.34-.41-8.37-9.96-18.68-9.96S25.6 30.39 25.26 30.8l-1.32 1.6 1.32 1.59c.34.4 8.37 9.96 18.68 9.96zm0-18.11c5.71 0 10.85 4.18 13.3 6.56-2.45 2.37-7.59 6.55-13.3 6.55-5.72 0-10.86-4.19-13.31-6.56 2.45-2.38 7.57-6.55 13.31-6.55z"/><circle vector-effect="non-scaling-stroke" cx="43.94" cy="32.42" r="4.13"/></g></svg>