<svg xmlns="http://www.w3.org/2000/svg" viewBox="0 0 87.87 87.87" width="117.16" height="117.16" ><defs><clipPath id="A"><path d="M0 0h87.87v87.87H0z"/></clipPath></defs><g clip-path="url(#A)"><path d="M43.94 1.5C20.54 1.5 1.5 20.54 1.5 43.94s19.04 42.44 42.44 42.44 42.44-19.04 42.44-42.44S67.34 1.5 43.94 1.5zm0 75.88c-18.44 0-33.44-15-33.44-33.44s15-33.44 33.44-33.44 33.44 15 33.44 33.44-15 33.44-33.44 33.44zm-6.25-39.17l-2.9 5.28 5.29-2.89 3.86 13.23L47.8 40.6l5.28 2.89-2.9-5.28 13.24-3.86-13.24-3.86 2.9-5.28-5.28 2.89-3.86-13.24-3.86 13.24-5.29-2.89 2.9 5.28-13.24 3.86 13.24 3.86zm23.38 3.67h-5.15l4.29 17.39H27.66l4.3-17.39h-5.15l-5.54 22.39H66.6l-5.53-22.39z"/></g></svg>