<svg xmlns="http://www.w3.org/2000/svg" viewBox="0 0 87.87 87.87" width="117.16" height="117.16" ><defs><clipPath id="A"><path d="M0 0h87.87v87.87H0z"/></clipPath></defs><g clip-path="url(#A)"><path d="M43.94 1.5C20.54 1.5 1.5 20.54 1.5 43.94s19.04 42.44 42.44 42.44 42.44-19.04 42.44-42.44S67.34 1.5 43.94 1.5zm0 75.88c-18.44 0-33.44-15-33.44-33.44s15-33.44 33.44-33.44 33.44 15 33.44 33.44-15 33.44-33.44 33.44zm-.11-34.24l1.89-2.2c1.38-1.6 8.25-9.82 8.25-14.73a10.16 10.16 0 0 0-10.15-10.15 10.16 10.16 0 0 0-10.15 10.15c0 4.91 6.88 13.13 8.25 14.73l1.91 2.2zm0-22.06c2.84 0 5.15 2.31 5.15 5.15 0 1.65-2.42 5.6-5.15 9.14-2.73-3.53-5.15-7.48-5.15-9.14a5.15 5.15 0 0 1 5.15-5.15zm16.96 19.67h-4.64l-.48.12 4.44 17.95H27.55l4.44-17.95-.48-.12h-4.64l-5.7 23.07h45.32l-5.7-23.07zm-19 4.2h4v4h-4zm0 8h4v4h-4z"/></g></svg>