<svg xmlns="http://www.w3.org/2000/svg" viewBox="0 0 87.87 87.87" width="117.16" height="117.16"  xmlns:v="https://vecta.io/nano"><defs><clipPath id="A"><path d="M0 0h87.87v87.87H0z"/></clipPath></defs><g clip-path="url(#A)" fill="#231f20"><path d="M39.64 77.1l-1.15 8.93a42.84 42.84 0 0 0 5.44.35c1.88 0 3.76-.13 5.61-.37l-1.18-8.92c-2.87.38-5.85.38-8.72.01zM69.8 10.28c-2.94-2.26-6.16-4.13-9.58-5.55l-3.46 8.31a33.67 33.67 0 0 1 7.55 4.37l5.49-7.13zM4.77 60.31c1.43 3.41 3.3 6.63 5.57 9.57l7.12-5.5c-1.79-2.31-3.26-4.85-4.39-7.53l-8.3 3.46zm13.42 17.36a42.65 42.65 0 0 0 9.6 5.52l3.43-8.32a33.28 33.28 0 0 1-7.56-4.35l-5.47 7.15zm38.59-2.85l3.46 8.31a42.23 42.23 0 0 0 9.57-5.56l-5.49-7.13a33.05 33.05 0 0 1-7.54 4.38zm29.24-36.43l-8.92 1.17a33.56 33.56 0 0 1 .28 4.38 33.48 33.48 0 0 1-.28 4.36l8.93 1.15c.24-1.82.35-3.67.35-5.51a42.75 42.75 0 0 0-.36-5.55zM70.49 64.27l7.14 5.48c2.26-2.94 4.12-6.17 5.54-9.59l-8.32-3.44c-1.11 2.69-2.58 5.23-4.36 7.55zm12.67-36.58c-1.42-3.42-3.28-6.64-5.54-9.58l-7.14 5.48a33.67 33.67 0 0 1 4.37 7.55l8.31-3.45zM10.5 43.94c0-18.44 15-33.44 33.44-33.44a34.26 34.26 0 0 1 4.41.29l1.17-8.92c-1.85-.25-3.72-.37-5.58-.37C20.54 1.5 1.5 20.54 1.5 43.94c0 1.87.12 3.74.36 5.58l8.92-1.17c-.19-1.46-.28-2.94-.28-4.41zm33.73-19.32H26.55l-3.5 8.12h8.22v30.34h5.82V32.74h7.14v-8.12zm16.21 31.47c-.13-.71-.75-1.23-1.48-1.23h-.26l-.48-1.98 4.61-2.78-5.78-2.63 2.05-1.24 2.52-1.52-5.78-2.63 4.56-2.76-5.78-2.63 4.56-2.76-5.78-2.63 2.05-1.23 2.52-1.52-10.29-4.91v31.22a1.5 1.5 0 0 0-1.31 1.48v7.69a1.5 1.5 0 0 0 1.5 1.5h12.54c.44 0 .87-.2 1.15-.54.29-.34.4-.79.32-1.23l-1.44-7.67zm-11.09 6.46v-4.69h8.37l.87 4.69h-9.24z"/></g></svg>