<svg xmlns="http://www.w3.org/2000/svg" viewBox="0 0 87.87 87.87" width="117.16" height="117.16" ><defs><clipPath id="A"><path d="M0 0h87.87v87.87H0z"/></clipPath></defs><g clip-path="url(#A)"><path d="M4.74 60.22a42.53 42.53 0 0 0 5.54 9.57l7.13-5.49c-1.78-2.32-3.25-4.85-4.37-7.54l-8.3 3.46zM18.1 77.61a42.53 42.53 0 0 0 9.57 5.54l3.45-8.31c-2.69-1.12-5.22-2.58-7.54-4.37l-5.48 7.14zM43.94 1.5C20.54 1.5 1.5 20.54 1.5 43.94a43.06 43.06 0 0 0 .36 5.57l8.92-1.17c-.19-1.45-.29-2.93-.29-4.4 0-18.44 15-33.44 33.44-33.44s33.44 15 33.44 33.44-15 33.44-33.44 33.44c-1.47 0-2.95-.1-4.4-.29l-1.17 8.92c1.84.24 3.71.36 5.57.36 23.4 0 42.44-19.04 42.44-42.44C86.38 20.54 67.34 1.5 43.94 1.5zm0 20.41L21.84 38.2v20.33h44.19V38.2L43.94 21.91zm-17.1 18.81l14.6-10.76v23.57h-14.6V40.72zm34.19 12.81H46.44V29.96l14.59 10.76v12.81z"/></g></svg>