<svg xmlns="http://www.w3.org/2000/svg" viewBox="0 0 87.87 87.87" width="117.16" height="117.16" ><defs><clipPath id="A"><path d="M0 0h87.87v87.87H0z"/></clipPath></defs><g clip-path="url(#A)" fill="#231f20"><path d="M4.73 60.22a42.53 42.53 0 0 0 5.54 9.57l7.13-5.49c-1.78-2.32-3.25-4.85-4.37-7.54l-8.3 3.46zM18.09 77.6a42.53 42.53 0 0 0 9.57 5.54l3.45-8.31c-2.69-1.12-5.22-2.58-7.54-4.37l-5.48 7.14zM43.93 1.5C20.53 1.5 1.5 20.54 1.5 43.94a43.06 43.06 0 0 0 .36 5.57l8.92-1.17c-.19-1.45-.29-2.93-.29-4.4 0-18.44 15-33.44 33.44-33.44s33.44 15 33.44 33.44-15 33.44-33.44 33.44c-1.47 0-2.95-.1-4.4-.29l-1.17 8.92c1.84.24 3.71.36 5.57.36 23.4 0 42.44-19.04 42.44-42.44C86.38 20.54 67.34 1.5 43.93 1.5z"/><path d="M36.506 64.078l-.113-24.788H25.22c-4.26 0-4.98-9.86-4.98-9.86h16.108l-.008-1.69s2.4-4.88 2.4-5.42-.19-1.16-.93-1.16-.7 1.12-.7 1.12-.66-.08-.66-1.47c0-1.4 1.06-1.9 1.7-1.9h7.2c2.21 0 2.71 1.55 2.71 1.55l3.48 7.28v1.69h16.09s-.72 9.86-4.98 9.86H51.54v24.788h8.685v5.964h-32.58v-5.964h8.861zM43.93 43.03s-3.91 3.31-3.91 4.9v8.41c0 1.59 3.91 4.89 3.91 4.89s3.91-3.31 3.91-4.89v-8.41c.01-1.59-3.91-4.9-3.91-4.9h0zm-17.06-10h33.67v2.19H26.87v-2.19z" fill-rule="evenodd"/></g></svg>