<svg xmlns="http://www.w3.org/2000/svg" viewBox="0 0 87.87 87.87" width="117.16" height="117.16" ><defs><clipPath id="A"><path d="M0 0h87.87v87.87H0z"/></clipPath></defs><g clip-path="url(#A)" fill="#231f20"><path d="M43.94 1.5C20.54 1.5 1.5 20.54 1.5 43.94s19.04 42.44 42.44 42.44 42.44-19.04 42.44-42.44S67.34 1.5 43.94 1.5zm0 75.88c-18.44 0-33.44-15-33.44-33.44s15-33.44 33.44-33.44 33.44 15 33.44 33.44c0 18.43-15 33.44-33.44 33.44zm0-28.4s-2.21 1.87-2.21 2.77v4.76c0 .9 2.21 2.77 2.21 2.77s2.21-1.87 2.21-2.77v-4.76c0-.9-2.21-2.77-2.21-2.77z"/><path d="M54.902 64.104L51.816 49.8h2.294c1.897 0 2.532-3.056 2.66-4.58h1.86c2.531 0 3.615-3.109 3.881-5.93h1.329c4.71 0 5.51-9.86 5.51-9.86H51.54v-1.69l-3.48-7.27s-.5-1.55-2.71-1.55h-7.2c-.64 0-1.7.5-1.7 1.9 0 1.39.66 1.47.66 1.47s-.04-1.12.7-1.12.93.62.93 1.16-2.4 5.42-2.4 5.42l.001 1.75H18.53s.8 9.86 5.51 9.86h1.319c.266 2.821 1.35 5.93 3.881 5.93h1.87c.128 1.524.763 4.58 2.66 4.58h2.292l-3.078 14.234h-5.331v5.952h32.574v-5.952h-5.325zM26.87 33.03h33.67v2.19H26.87v-2.19zm5.85 6.17h21.97v2.19H32.72V39.2zm11.22 5.83s-3.91 3.31-3.91 4.9v8.41c0 1.59 3.91 4.89 3.91 4.89s3.91-3.31 3.91-4.89v-8.41c0-1.59-3.91-4.9-3.91-4.9h0z" fill-rule="evenodd"/></g></svg>