<svg xmlns="http://www.w3.org/2000/svg" viewBox="0 0 87.87 87.87" width="117.16" height="117.16" ><defs><clipPath id="A"><path d="M0 0h87.87v87.87H0z"/></clipPath></defs><g clip-path="url(#A)"><path d="M43.94 1.5C20.54 1.5 1.5 20.54 1.5 43.94s19.04 42.44 42.44 42.44 42.44-19.04 42.44-42.44S67.34 1.5 43.94 1.5zm0 75.88c-18.44 0-33.44-15-33.44-33.44s15-33.44 33.44-33.44 33.44 15 33.44 33.44c0 18.43-15 33.44-33.44 33.44zm5.31-49.36l-4.93 3.63-9.95-7.33-15.99 11.8v14.19h11.47v10.08h38.81V42.33L49.25 28.02zM20.38 48.31V37.13l13.99-10.31 8.26 6.09-12.79 9.42v5.98h-9.46zm14.47-3.46l11.9-8.77v19.31h-11.9V44.85zm28.8 10.53h-11.9v-19.3l11.9 8.77v10.53z"/></g></svg>