<?xml version="1.0" encoding="UTF-8"?>
<svg version="1.1" viewBox="0 0 755.91 755.91" xml:space="preserve" xmlns="http://www.w3.org/2000/svg"><defs><clipPath id="a"><path d="M 0,566.929 H 566.929 V 0 H 0 Z"/></clipPath></defs><g transform="matrix(1.3333 0 0 -1.3333 0 755.91)"><g transform="translate(283.46 566.93)"><path d="m0 0-283.46-283.46 283.46-283.46 283.46 283.46z" fill="#afca0b"/></g><g clip-path="url(#a)"><g transform="translate(293.46 202.25)"><path d="m0 0h-3.612v-122.41c10.216 9.263 29.116 29.576 29.116 53.19 0 10.982-4.099 21.255-9.508 30.038-6.838 12.147-12.515 25.313-15.996 39.186" fill="#fff"/></g><g transform="translate(273.46 202.25)"><path d="m0 0c-3.483-13.873-9.16-27.039-16-39.186-5.404-8.783-9.506-19.056-9.506-30.038 0-23.618 18.907-43.934 29.121-53.195v122.42z" fill="#85a315"/></g><g transform="translate(219.04 386.21)"><path d="m0 0c0-25.561 12.216-49.01 26.014-67.343 13.613-19.083 25.561-41.778 30.138-66.474h1.885v234.92c-16.245-13.779-58.037-53.815-58.037-101.1" fill="#85a315"/></g><g transform="translate(291.74 252.39)"><path d="m0 0c4.569 24.696 16.518 47.391 30.136 66.474 13.798 18.333 26.013 41.782 26.013 67.343 0 47.276-41.78 87.311-58.035 101.1v-234.92z" fill="#fff"/></g><g transform="translate(262.89 202.25)"><path d="m0 0h-7.58c-5.748 0-10.998 2.142-15.033 5.645-3.133-7.621-7.811-14.281-13.562-19.423-1.497-1.221-3.475-2.006-5.462-2.006-5.016 0-9.078 4.572-9.078 10.211 0 2.486 0.761 4.781 2.07 6.552-3.021 1.556-6.405 2.443-9.943 2.443-13.162 0-23.832-12.003-23.832-26.811 0-6.24 1.895-11.981 5.072-16.533 6.416-9.448 16.322-15.73 27.557-16.417 14.769 0.799 27.761 9.206 35.951 21.817 6.194 10.433 10.911 22.067 13.84 34.522" fill="#85a315"/></g><g transform="translate(175.16 261.59)"><path d="m0 0c2.064 13.224 12.819 22.283 24.498 21.028 19.416-0.897 35.782-15.074 42.124-34.674 3.799 2.783 8.468 4.449 13.527 4.449h9.393c-4.79 30.263-20.019 56.462-41.355 73.711-11.398 10.385-25.238 17.741-40.71 20.797-28.974 5.718-56.588-16.074-61.669-48.676-5.085-32.6 14.285-63.664 43.26-69.385 10.234-2.018 20.358-0.774 29.318 3.334-12.355 2.44-20.551 15.517-18.386 29.416" fill="#85a315"/></g><g transform="translate(445.96 298.22)"><path d="m0 0c-5.085 32.602-32.697 54.394-61.676 48.676-15.468-3.056-29.309-10.412-40.705-20.798-21.339-17.248-36.57-43.447-41.357-73.711h9.392c5.061 0 9.728-1.666 13.531-4.449 6.34 19.601 22.705 33.778 42.123 34.675 11.678 1.254 22.434-7.805 24.498-21.028 2.165-13.9-6.032-26.976-18.386-29.416 8.962-4.109 19.083-5.352 29.317-3.334 28.978 5.72 48.346 36.785 43.263 69.385" fill="#fff"/></g><g transform="translate(362.63 205.67)"><path d="m0 0c-3.54 0-6.929-0.887-9.948-2.442 1.311-1.772 2.073-4.067 2.073-6.553 0-5.639-4.064-10.211-9.079-10.211-1.984 0-3.964 0.785-5.461 2.006-5.751 5.142-10.43 11.803-13.563 19.423-4.035-3.503-9.285-5.645-15.035-5.645h-7.575c2.926-12.455 7.644-24.089 13.835-34.522 8.194-12.611 21.186-21.018 35.954-21.817 11.231 0.687 21.138 6.969 27.557 16.417 3.177 4.552 5.071 10.293 5.071 16.533 0 14.808-10.669 26.811-23.829 26.811" fill="#fff"/></g><g transform="translate(255.31 245.29)"><path d="m0 0c-8.727 0-15.869-7.142-15.869-15.87v-4.207c0-8.73 7.142-15.873 15.869-15.873h21.767v35.95z" fill="#85a315"/></g><g transform="translate(311.61 209.34)"><path d="m0 0c8.731 0 15.871 7.144 15.871 15.873v4.207c0 8.729-7.14 15.87-15.871 15.87h-21.763v-35.95z" fill="#fff"/></g></g></g></svg>
