<?xml version="1.0" encoding="UTF-8"?>
<svg version="1.1" viewBox="0 0 755.91 755.91" xml:space="preserve" xmlns="http://www.w3.org/2000/svg"><defs><clipPath id="a"><path d="M 0,566.929 H 566.929 V 0 H 0 Z"/></clipPath></defs><g transform="matrix(1.3333 0 0 -1.3333 0 755.91)"><g transform="translate(283.46 566.93)"><path d="m0 0-283.46-283.46 283.46-283.46 283.46 283.46z" fill="#194093"/></g><g clip-path="url(#a)"><g transform="translate(447.24 230.68)"><path d="m0 0c-8.396-34.072-26.966-65.934-56.255-89.642-28.518-23.084-62.472-34.624-96.608-36.254l7.827 23.37c25.28 3.794 50.249 14.264 72.841 32.569 23.439 18.99 39.165 42.227 47.962 67.188z" fill="#27b4e7"/></g><g transform="translate(428.58 309.99)"><path d="m0 0c-10.208 52.722-45.899 101.5-100.37 124.8 70.433-14.511 112.17-70.172 122-132.05z" fill="#27b4e7"/></g><g transform="translate(224.76 115.18)"><path d="m0 0c-60.477 21.541-108.47 74.709-108.06 148.33 11.761-59.815 54.082-105.79 105.5-125.9z" fill="#27b4e7"/></g><g transform="translate(293.6 275.76)"><path d="m0 0 33.092-40.865 170.46 19.471z" fill="#27b4e7"/></g><g transform="translate(57.866 300.54)"><path d="m0 0 162.69-54.486 40.865 33.092z" fill="#fff"/></g><g transform="translate(229.73 333.35)"><path d="m0 0-170.46-19.471 203.55-21.393z" fill="#27b4e7"/></g><g transform="translate(294.63 504.47)"><path d="m0 0-54.486-162.69 33.092-40.866z" fill="#fff"/></g><g transform="translate(261.79 63.779)"><path d="m0 0 54.485 162.68-33.091 40.864z" fill="#fff"/></g><g transform="translate(327.44 332.61)"><path d="m0 0-19.47 170.46-21.394-203.55z" fill="#27b4e7"/></g><g transform="translate(498.56 267.7)"><path d="m0 0-162.68 54.485-40.864-33.091z" fill="#fff"/></g><g transform="translate(228.99 235.64)"><path d="m0 0 19.471-170.46 21.394 203.55z" fill="#27b4e7"/></g></g></g></svg>
