<?xml version="1.0" encoding="UTF-8"?>
<svg version="1.1" viewBox="0 0 755.91 755.91" xml:space="preserve" xmlns="http://www.w3.org/2000/svg"><defs><clipPath id="a"><path d="M 0,566.929 H 566.929 V 0 H 0 Z"/></clipPath></defs><g transform="matrix(1.3333 0 0 -1.3333 0 755.91)"><g transform="translate(283.46 566.93)"><path d="m0 0-283.46-283.46 283.46-283.46 283.46 283.46z" fill="#e30613"/></g><g clip-path="url(#a)"><g transform="translate(224.23 272.7)"><path d="m0 0c-16.62 21.965-35.062 33.729-41.068 70.52-6.364-19.716-9.245-39.496-9.245-55.409 0-46.125 35.617-72.356 82.599-80.374-0.604 23.376-14.625 41.922-32.286 65.263" fill="#fff"/></g><g transform="translate(193.46 382.7)"><path d="m0 0c0-67.878 84.524-108.92 84.589-176.76 0.032 1e-3 0.063 2e-3 0.095 3e-3 84.201 70.652-41.954 122.29-41.956 249.78-19.934-25.612-39.1-44.855-42.728-73.023" fill="#fff"/></g><g transform="translate(296.94 520.95)"><path d="m0 0c-14.354-13.276-39.256-38.719-39.256-65.228 0-49.607 21.465-83.756 40.404-120.3 13.85-26.721 26.931-39.847 29.889-64.99 2.488-21.143-2.371-40.14-14.783-57.494 36.651 14.089 62.458 35.603 62.458 74.863 0 51.944-108.6 129.36-78.712 233.14" fill="#fff"/></g><g transform="translate(265.36 154.44)"><path d="m0 0v-67.1l36.21-1e-3v67.101l-18.105 18.104z" fill="#9c1006"/></g><g transform="translate(313.96 160.86)"><path d="m0 0 44.888-44.887 25.603 25.604-44.887 44.887h-25.604z" fill="#9c1006"/></g><g transform="translate(182.48 141.58)"><path d="m0 0 44.887 44.888h25.604v-25.605l-44.887-44.887z" fill="#9c1006"/></g></g></g></svg>
