<?xml version="1.0" encoding="UTF-8"?>
<svg version="1.1" viewBox="0 0 755.91 755.91" xml:space="preserve" xmlns="http://www.w3.org/2000/svg"><defs><clipPath id="a"><path d="M 0,566.929 H 566.929 V 0 H 0 Z"/></clipPath></defs><g transform="matrix(1.3333 0 0 -1.3333 0 755.91)"><g transform="translate(283.46 566.93)"><path d="m0 0-283.46-283.46 283.46-283.46 283.46 283.46z" fill="#f8c40b"/></g><g clip-path="url(#a)"><g transform="translate(213.36 108.95)"><path d="m0 0c7.284 16.018 16.433 25.425 29.579 38.326-0.51 0.051-1.019 0.075-1.527 0.075-7.973 0-15.424-6.025-18.045-9.643-0.486 10.227-1.451 20.626-6.395 31.044zm-40.213 105.12c-6.516 11.17-13.002 16.793-20.37 21.209 13.86-21.872 18.27-42.173 18.32-64.233 10.553 20.221 12.481 62.469 18.984 76.32-9.567-9.303-11.229-22.856-16.934-33.296m-6.033 161.04c21.927 0.987 33.722 8.779 34.13 9.001 0.511-7.926 8.317-13.359 16.007-13.359 7.536 0 14.96 5.218 15.296 18.422 6.133-0.469 12.373-1.13 18.81-1.158-6.729 3.569-21.399 10.097-34.83 10.097-10.069 0-17.731-5.506-20.695-7.557-6.234-4.317-28.771-15.446-28.718-15.446m42.645 46.249c16.782 0 38.6-7.427 48.129-17.6 0.951-3.405 1.719-6.905 1.703-10.06-0.011-1.548-0.481-2.993-1.079-3.372-0.289-0.203-2.387 0.418-9.743-5.895-3.257-2.794-7.435-8.776-6.284-12.921 6.485 11.575 16.008 13.053 16.701 13.338 5.168 2.123 4.311 7.429 3.89 9.282-0.972 4.279-4.04 8.257-5.188 9.628 4.403 0.526 14.575-0.503 22.377-2.186 27.789-5.993 36.457-35.902 38.052-51.304 0 0-11.907 0.792-15.493 4.379-7.157 6.574-18.55 7.245-21.435 7.222-10.91-0.085-22.733-3.494-32.078-4.54-9.332-1.045-16.787-0.255-20.976 0.23 5.851-4.661 15.328-7.651 24.326-7.641 10.714 0.012 28.775 5.013 35.242 5.012 8.139 0 14.284-3.341 14.711-3.539-17.875-14.447-31.93-15.329-49.047-22.766-5.512-2.381-29.978-40.879-18.092-74.796 16.393-46.782 52.21-105.67 45.73-201.57-0.31-4.598-1.03-8.963-1.96-12.97l-181.48 181.48c2.633 7.26 5.013 15.629 7.314 26.502-8.983-3.316-15.955-7.134-21.667-12.149 1.882 32.729 19.819 46.639 28.389 80.451-3.712-1.582-9.284-4.628-15.274-4.628-1.576 0-3.183 0.211-4.791 0.715 12.88 17.063 18.281 43.619 60.935 86.235 16.914 16.905 37.958 23.463 57.087 23.462" fill="#fff"/></g><g transform="translate(267.61 317.16)"><path d="m 0,0 v -74.274 c 10.641,0.822 21.236,0.804 31.707,-0.004 V 12.883 C 22.458,7.57 2.045,0.724 0,0" fill="#f6a119"/></g><g transform="translate(283.46 531.88)"><path d="m0 0-15.853-15.853v-96.725c5.149-0.4 23.904-0.924 31.707-8.266v104.99z" fill="#f6a119"/></g><g transform="translate(448.89 366.45)"><path d="m0 0-78.355-142.16c9.598-4.439 18.853-9.609 27.683-15.459l74.012 134.28z" fill="#f6a119"/></g><g transform="translate(376.18 439.16)"><path d="m0 0-53.438-199.44c10.419-2.018 20.638-4.836 30.576-8.396l48.751 181.94z" fill="#f6a119"/></g><g transform="translate(408.96 160.55)"><path d="m0 0c-6.021 6.047-56.875 57.99-139.93 51.609 16.243-40.797 32.354-94.096 27.637-163.9z" fill="#f6a119"/></g><g transform="translate(512.71 305.19)"><path d="m0 0-102.52-102.52c7.457-5.685 14.556-11.882 21.221-18.577l101.2 101.2z" fill="#f6a119"/></g></g></g></svg>
