<?xml version="1.0" encoding="UTF-8" standalone="no"?>
<svg xmlns="http://www.w3.org/2000/svg" style="isolation:isolate" viewBox="0 0 698 658" width="698pt" height="658pt"><defs><clipPath id="_clipPath_H0pOgmr33TpCTKjshYfuvqaBQmcKp0Pc"><rect width="698" height="658"/></clipPath></defs><g clip-path="url(#_clipPath_H0pOgmr33TpCTKjshYfuvqaBQmcKp0Pc)"><path d=" M 367.4 35.3 C 368.9 37.2 370 39.1 370 39.7 C 370 40.2 371.9 40.6 374.1 40.6 C 378.4 40.5 381 42.7 382.4 47.5 C 382.9 49.3 382.6 49.6 379.4 49.6 C 373.3 49.6 369.3 56.3 371.6 62.4 C 372.1 63.7 373.7 62.6 379 57.6 C 386.5 50.5 394 47 401.5 47 C 408.9 47 409 47.6 403.4 53.3 C 397.4 59.6 393.6 67.2 391.4 77.2 C 389.6 85.3 388.1 87 381.6 89 C 377.2 90.3 361.9 90.5 345.8 89.4 L 336 88.7 L 336 85.1 C 336 79.5 333.3 68.4 330.6 62.4 C 329.2 59.4 325.7 54.5 322.8 51.4 L 317.5 45.8 L 325 46.2 C 334.6 46.7 340.5 49.5 348.1 57.2 C 353.5 62.6 354 62.9 354.9 61.1 C 356.7 57.8 356.1 55 353.1 51.9 C 351.1 49.9 349.2 49 347 49 C 344.2 49 343.9 48.8 344.6 46.7 C 346.1 41.6 350.6 38.5 354.4 40 C 356 40.6 357 40.6 357 40 C 357 38.8 363 32 364.1 32 C 364.5 32 366 33.5 367.4 35.3 L 367.4 35.3 L 367.4 35.3 Z " fill="rgb(235,235,235)"/><path d=" M 245.4 70.8 L 249.2 72.5 L 245.4 75 C 238.1 79.7 236.2 88.1 240 98.3 C 242.7 105.5 246.9 109.5 250.7 108.5 C 255.5 107.3 261.9 106.8 263.7 107.4 C 265 107.9 264.5 108.7 261.2 111.5 C 258.8 113.6 256.5 116.9 255.4 119.5 C 252.9 126.3 254.5 130.4 263.4 140 C 267.4 144.3 270.9 148.9 271.2 150.2 C 271.7 153 270.5 157.1 268.7 158.2 C 268 158.6 262 159 255.4 159 C 238.2 159 238.8 158.3 238.9 177.8 C 239 186.1 239.5 194.1 240 195.5 C 241.1 198.4 247.8 201.9 252.3 202 C 255.5 202 258.5 200.6 267.2 195 C 273.9 190.6 277.8 190 280.4 192.9 C 281.3 193.9 283.1 198.6 284.4 203.4 C 285.6 208.1 287.5 212.9 288.5 214 C 292.4 218.3 307.3 218.9 315.2 214.9 C 319.8 212.5 324.5 206.8 326.5 201.1 C 328.8 194.4 328.6 194.2 323.1 194.8 C 320.4 195 317.5 194.8 316.5 194.3 C 315 193.4 315.4 192.9 319.1 190.7 C 326.1 186.6 333.8 179.3 339.1 171.7 C 341.8 167.8 344 164.3 344 163.8 C 344 163.4 343.1 163 342 163 C 339.2 163 333.8 160.1 334.5 159 C 334.8 158.6 336.3 157.9 337.9 157.5 C 341.8 156.7 345 153 345.7 148.7 C 346.2 145.4 345.9 144.6 342.4 141.3 C 340.2 139.2 336.3 136 333.7 134.2 C 329 131.1 327.1 128.6 328.4 127.3 C 328.8 126.9 332.3 127.6 336.3 128.7 C 340.2 129.9 343.6 130.7 343.8 130.6 C 343.9 130.4 341.4 128.9 338.1 127.1 C 329.3 122.5 323.4 123.1 321.5 129 C 320.7 131.6 319.9 131.5 316.6 128.5 C 312.8 125 312.9 118.3 316.9 113.8 L 319.8 110.5 L 329.8 110.5 L 339.7 110.5 L 339.2 105.8 C 338.9 102.2 339.1 101 340.1 101 C 340.9 101.1 346.2 101.5 352 102 C 357.8 102.6 367.7 103 374.1 103.1 C 387.4 103.2 392.6 101.7 397.3 96.1 L 399.9 92.9 L 400.6 95.4 C 402 101.3 395 108.5 385.3 111.2 C 377.7 113.2 377.2 115.6 383 121.1 C 385.6 123.6 388.8 125.4 391.6 126.1 L 396.1 127.3 L 393.3 129.1 C 391.8 130.2 389 131 387.2 131 L 384 131 L 388.2 134.7 C 392.5 138.7 395.9 144.9 396 148.9 L 396 151.4 L 392.8 148.3 C 388.6 144.4 385.9 143 382.1 143 C 377.8 143 376.6 145.7 377.9 152.1 C 380.1 162.2 386.6 171.3 393.8 174.3 L 397.2 175.7 L 393.9 177 C 389.8 178.7 385 178.6 381.2 176.8 L 378.3 175.3 L 380.7 187.9 C 385.1 211.1 386.9 214.8 395.1 217 C 400.4 218.5 411.9 217.6 416 215.5 C 418.9 214 420.9 210 423 201.3 C 424.5 194.5 427.3 191 430.9 191 C 432.4 191 436.4 192.8 439.8 195 C 449.9 201.5 451.9 202.3 456.3 201.6 C 461.8 200.7 465.9 198.3 467 195.4 C 467.6 194 468 185.9 468 177.5 C 468 158.2 468.7 159 451.7 159 C 438.9 159 436.6 158.4 435.6 154.6 C 434.6 150.7 436.7 147 444 139.5 C 454.6 128.5 455.3 121.2 446.4 112.4 C 443.1 109 442.4 107.8 443.5 107.4 C 445 106.8 450.9 107.3 456.6 108.5 C 459.3 109.1 460.1 108.7 462.9 105.3 C 466.2 101.3 469 93.7 469 88.6 C 468.9 83.5 465.6 77.5 461.4 75 L 457.6 72.6 L 461.6 70.8 C 466.8 68.5 476.3 68.5 481.5 70.9 C 483.7 71.9 487.2 74.6 489.4 77 C 493.2 81.2 493.2 81.3 492.7 87.9 C 492.3 92.9 491.1 97 487.6 104.6 C 482.8 115.1 480.9 122.2 481.8 126.5 C 482.5 130.4 484.2 129.5 487.9 123.2 C 498.7 104.9 505 98 510.6 98 C 512.7 98 512.9 98.3 512.3 101.2 C 510.9 108.6 507.6 115.1 502 121.9 C 498.7 125.8 496.2 129 496.4 129 C 496.7 129 499 127.7 501.7 126.1 C 504.3 124.5 515.7 117.7 527 111 C 538.3 104.2 550.4 96.7 553.9 94.3 C 557.4 91.9 560.9 90.1 561.7 90.4 C 563.9 91.3 566.3 98 565.6 101.8 C 563.7 113.8 544.9 132.9 529.1 139.1 C 524.5 140.9 525.1 141.4 531.5 141 C 533.2 140.9 538.3 139.1 543 137 C 550.7 133.4 563.2 130.4 565.1 131.5 C 566.4 132.3 564.9 135.7 562.2 138.3 C 559.4 140.9 556.7 142.4 543.9 148.4 C 539.8 150.3 535.5 152.9 534.4 154.1 L 532.5 156.3 L 544 155.7 C 563.9 154.8 573.5 150.7 594 134.5 C 608.7 122.8 615.8 118.7 625.2 116.5 C 630.9 115.2 638 114.5 638 115.3 C 638 115.5 637.3 118.1 636.4 121.1 C 633.6 130.6 628 139.9 619.7 148.6 C 608.2 160.8 594.6 169.2 575.9 175.8 C 566.9 179 546.3 183.9 541.4 184.1 C 538.8 184.2 538.9 184.3 542.6 185.5 C 548.4 187.3 566 189.1 571.7 188.4 L 576.5 187.9 L 573 190.9 C 568.1 195.3 559.9 198.1 550.2 198.7 C 545.7 199 542.2 199.5 542.5 199.8 C 544.3 201.6 559.4 203.1 580 203.6 C 602 204.2 617.7 203.4 651.4 200.3 L 658.3 199.7 L 657.6 202.6 C 655 213 642.4 221.6 623.8 225.4 C 609.8 228.3 584.3 230.3 559.3 230.4 L 535.1 230.5 L 537.6 233.1 C 539 234.5 543.6 237.4 547.8 239.6 C 555.2 243.3 568 254.3 568 256.9 C 568 258.5 559.8 258.3 554.8 256.5 C 552.4 255.7 546.9 253.1 542.6 250.6 C 531.7 244.4 525.1 243.1 529.6 248.1 C 532.9 251.8 550.2 262.8 560.1 267.4 C 579.2 276.5 614 284.1 637.7 284.4 C 651.6 284.5 651.5 284.4 645.8 292.7 C 638.3 303.8 622.8 308.8 602.2 306.9 C 590.3 305.8 580.4 303.2 559.1 295.6 C 542.4 289.6 533.6 287 524.5 285.5 L 520.5 284.9 L 531.2 295 C 539.9 303.2 542.6 306.4 545.5 312.2 C 547.4 316.1 548.8 319.5 548.5 319.8 C 546.6 321.8 513 301.1 501.8 291 C 495 284.9 494.1 286.3 499.6 294.6 C 504.2 301.6 517.4 313.9 532 324.9 C 557.6 344.2 581 356.1 601 360.1 C 609.1 361.7 623.7 360.7 632 358.1 C 635.6 357 638.6 356 638.8 356 C 638.9 356 638.3 357.7 637.5 359.7 C 629.3 379.3 593.9 385.6 558.3 373.8 C 545.3 369.5 530.7 362 513.5 350.6 C 496.7 339.4 490.4 334.4 466 313.1 C 455.4 303.8 445.4 295.9 442.5 294.5 C 439.8 293.2 437.3 292.3 437.1 292.5 C 436.5 293.2 451.6 312.3 460.5 322 C 473.7 336.6 481.7 342.9 500.3 353.6 L 517.2 363.3 L 514.9 365.1 C 511.9 367.3 505.5 369 499.7 369 C 489.4 369 469 361.3 446.5 348.8 C 427.9 338.5 415.4 329.4 402.7 316.9 L 390.8 305.4 L 388.5 308.4 C 385 313.1 382.1 319.4 381.4 323.7 C 380.4 330.5 385 338.1 395.7 347.2 C 404.5 354.6 411.6 357.9 422.3 359.5 C 433.9 361.2 438.2 363.1 451.7 372.1 C 463.7 380.2 470 383 476 383 C 478.2 383 480 383.3 480 383.7 C 480 384.2 479.3 387.4 478.4 391 C 476.8 397.9 473 405.3 470.4 406.8 C 467.2 408.6 504.6 429.9 512.2 430.7 C 517.9 431.2 523 428.2 528.7 421 C 537.1 410.3 542 405.2 545.7 403.5 C 551.1 400.9 556.9 400.5 561.5 402.4 C 564.1 403.5 565.7 403.7 566.4 403 C 569.1 400.3 574.3 402.9 577.9 409 C 580.6 413.5 580.6 413.7 577.1 413.2 C 573.3 412.7 566.3 416.5 564.4 420.2 C 562.3 424.3 559.3 425.8 547.1 429 C 541 430.6 535 432.5 533.8 433.1 C 530.9 434.5 527 438.1 527 439.2 C 527 442.1 547.9 436.6 560 430.5 C 569.4 425.7 577.4 426.6 579.9 432.7 C 580.6 434.4 582.2 436.3 583.6 437 C 587.9 439.3 591.2 448.7 589.4 453.4 C 588.9 454.6 588.3 454.3 586.6 451.7 C 583.3 446.7 576 447 576 452.1 C 576 459.3 561.3 458 557.8 450.5 L 556.7 448 L 541.6 448 L 526.5 448 L 541.7 463.2 C 560.8 482.5 561.8 484.4 555.9 489.4 C 554 491.1 552.9 492.8 553 494.2 C 553.5 499.5 552.8 501.4 549.6 504.6 C 547.7 506.5 545.8 508 545.4 508 C 544.9 508 544.5 505.9 544.4 503.4 C 544.3 497.4 541.7 494.2 535.5 492.2 C 528.4 489.8 526.8 486.6 526.5 474.2 C 526.3 463.2 525.1 460.1 519.5 455.1 C 516.3 452.3 515.2 451.9 511.2 452.2 C 507.2 452.5 506.4 452.9 504.7 455.8 C 503.7 457.6 502 463.9 501 469.8 C 500 475.7 498.6 481.8 497.9 483.3 C 496.3 486.9 492.2 489 487 489 C 483.3 489 483 489.2 482.8 491.7 C 482.6 496.6 483.2 500.5 484.3 501.9 C 485.3 503.1 485 503.2 482.5 502.6 C 473.1 500.3 469.5 496.4 469.4 488.3 C 469.4 484.9 468.8 482.4 467.7 481.2 C 466.8 480.2 465.8 478 465.4 476.4 C 464.5 471.6 467.8 468.7 483 461 C 496.8 453.9 503 449.1 503 445.2 C 503 442.2 498.3 438.7 479.6 427.6 C 463.7 418.1 461.5 417.1 460.7 418.7 C 456 426.9 444.7 433.6 433.8 434.7 L 427.4 435.2 L 427.8 430.9 C 428.4 425 426.4 414.1 422.9 404.6 C 417.4 389.5 401.2 363.2 392 354.6 C 386.5 349.4 383.9 348.9 377.4 351.9 C 368.5 356 363.4 366.6 364.2 379.5 C 365.3 395.6 373.2 400.7 382.6 391.3 L 386.3 387.6 L 385.7 393.3 C 384.7 403 379.3 409.3 370.7 410.7 L 366.8 411.3 L 367.2 417.2 C 367.7 423.8 369.8 427.4 375 430.4 C 379.1 432.8 388.9 433 394.1 430.8 C 399.3 428.5 405.7 422.5 409.1 416.5 L 412 411.5 L 412 415 C 412 419 409.9 427.4 408 431 C 403.7 439.5 392.8 446 382.7 446 L 377.5 446.1 L 386 454.1 C 398.4 465.8 407.2 472.7 410.3 473.5 C 418.6 475.6 431 464.1 431 454.4 C 431 450.6 433.2 452.7 435.9 459.1 C 438.8 465.8 438.9 474.3 436.1 480.6 C 434.9 483.2 434.1 485.4 434.2 485.4 C 438.1 486.8 444.7 491.1 446.7 493.4 C 453.1 501 457.7 518.7 454.8 524.6 C 453.9 526.5 452.7 527.5 451.3 527.4 C 449.4 527.4 449.3 527.5 450.6 530.7 C 451.4 532.5 452 536.2 452 539 C 452 543.3 451.5 544.5 448.4 547.9 C 442.2 554.8 428.9 557.4 420.5 553.4 C 415.5 551.1 409.1 544.4 405.6 538 C 404.1 535.2 403 533 403.2 533 C 403.4 533 405.3 533.7 407.5 534.5 C 413.6 536.7 418.4 536.4 421.6 533.7 C 423.9 531.7 424.4 530.3 424.8 525.1 C 425.6 514 421.1 507.1 412.7 506.8 C 409.9 506.7 408.6 507.4 405.6 510.7 C 400.7 516.2 394.7 517.7 387.2 515.4 C 386.5 515.2 388.3 512.8 391.4 509.8 C 397.2 504.1 398.8 500 397.6 493.6 C 396.9 489.8 386.3 473.9 375.4 460.4 C 364 446.3 364.6 446.2 365.2 462.2 C 365.6 475.2 365.8 476.1 368.6 480.6 C 372 486.1 376.8 489 382.7 489 L 387 489 L 387 493 C 387 496 386.3 497.8 384.1 500.2 C 381.5 503.2 380.6 503.5 374.1 503.8 C 370.2 504 367 504.4 367 504.7 C 367 506.4 370 509.5 376.7 514.7 C 392.8 527.2 401.7 539.4 404.1 552.4 C 406.8 567.4 397.8 578.7 381.4 580.9 C 378.4 581.3 376 581.5 376 581.3 C 376 581 377.1 578.9 378.5 576.6 C 385.6 564.4 382.5 546.9 371.1 534.7 C 366.6 529.9 361.3 526.3 360.3 527.4 C 359.3 528.4 362.8 574.2 364.2 578.3 C 365.8 583.5 371.7 589.8 376.2 591.4 L 380 592.6 L 376.9 595.6 C 374.4 598 373 598.5 369.2 598.5 C 366.6 598.5 363.7 598.1 362.8 597.6 C 361.2 596.9 361 597.4 361 602.7 C 361 609.4 359 616.9 355.9 622 L 353.8 625.4 L 351.5 622.6 C 348.2 618.5 346 610.7 346 603.3 C 346 597.5 345.8 596.9 344.3 597.5 C 338.2 599.9 330.2 598.2 328 594 C 327.2 592.6 327.6 592.1 329.9 591.7 C 336.6 590.3 342 582.8 343.9 572.5 C 345.1 565.4 347.5 528.1 346.7 527.4 C 345.8 526.4 340 530 336.2 534 C 328.4 542 323.2 555.8 324.5 565.2 C 324.9 568 326.5 572.7 328.1 575.7 C 329.7 578.7 331 581.3 331 581.4 C 331 582 320.2 580.1 317.5 579 C 305.7 574.5 300.4 564.3 303 551.3 C 305.5 539.3 313.8 527.9 328.9 515.8 C 336.9 509.4 340 506.4 340 504.9 C 340 504.4 337.4 504 334.3 504 C 325.3 504 320.9 500.6 319.5 492.7 L 318.9 489 L 323.6 489 C 329.8 489 334.2 486.7 337.7 481.8 C 340.4 477.9 340.5 477.1 341 463.3 C 341.3 455.4 341.3 449 341 449 C 339.3 449.2 315.5 481 311.6 488.4 C 306.9 497.3 309 505.5 317.7 512.2 L 321.2 514.9 L 317.3 515.9 C 311.4 517.5 306.2 515.8 301.5 510.9 C 298.4 507.5 296.9 506.6 294.4 506.7 C 285.8 506.9 281.6 513.1 282.2 524.2 C 282.5 530.4 282.9 531.5 285.3 533.6 C 288.6 536.4 292.8 536.7 298.9 534.5 C 301.1 533.7 303 533.4 303 533.8 C 303 535.6 296.8 544.9 293.5 548.2 C 286.3 555.3 277.7 557.1 267.4 553.6 C 258.9 550.7 255 546.1 255 538.7 C 255 536.1 255.6 532.5 256.4 530.7 C 257.7 527.6 257.6 527.4 255.7 527.4 C 254.4 527.5 253 526.4 252.1 524.8 C 250.8 522.5 250.7 521 251.7 514.1 C 253.7 500.5 260.5 490.1 269.4 486.9 C 271.4 486.2 272.9 485.3 272.7 485 C 268 477 267.4 467.5 270.9 459.3 C 273.9 452.5 276 450.6 276 454.6 C 276.1 461.4 282.1 469.5 289.2 472.4 C 294.4 474.6 296.1 474.4 300.8 471.2 C 306.1 467.7 328 448.1 328 446.9 C 328 446.4 326 446 323.5 446 C 308.8 446 296.8 434.1 295.5 417.9 C 294.9 411.6 294.9 411.5 296.4 414.8 C 298.9 420.2 307.7 428.7 312.9 430.7 C 319 433 327.8 432.9 332 430.4 C 337.2 427.4 339.3 423.8 339.8 417 L 340.2 411 L 337.4 411 C 333.2 410.9 328.1 408 324.8 403.9 C 322.5 401 321.7 398.9 321.3 394.1 L 320.7 387.9 L 324.2 391.4 C 330.6 397.8 337.1 397.4 340.5 390.5 C 343.5 384.5 343.3 370.3 340.2 363.5 C 338.9 360.8 336.9 357.4 335.7 356.1 C 333 353.1 326.4 350.1 322.7 350 C 317.2 350 306.6 362.3 295.1 382.1 C 284 401.3 278.3 418.2 279.2 430.1 L 279.5 435.2 L 273.5 434.7 C 263.7 433.7 258.2 431.3 251.9 425.1 C 248.8 422 246.1 418.9 245.9 418.2 C 245.6 417.3 239.6 420.3 227.5 427.5 C 208.7 438.6 204 442.2 204 445.2 C 204 449 210.1 453.9 223.9 461 C 231.5 464.9 238.4 468.8 239.3 469.8 C 242 472.8 242.2 476.2 239.8 480 C 238.3 482.4 237.6 485.1 237.6 488.7 C 237.5 496 233.3 500.4 224.3 502.6 C 222 503.2 221.9 503.1 222.9 501.2 C 223.5 500.1 224 496.9 224 494.1 L 224 489 L 220 489 C 211.2 489 208.1 484.9 206.1 470.9 C 204.8 462 203.6 457.6 201.5 454.4 C 200.3 452.5 199.1 452 195.5 452 C 191.9 452 190.4 452.6 187.4 455.2 C 181.9 460.1 180 465 180 474.8 C 180 485.1 178.2 489.6 173.3 491.7 C 171.4 492.4 169.5 492.8 169 492.5 C 168.6 492.2 167 493.4 165.6 495 C 163.4 497.7 162.5 500.3 161.7 507 C 161.5 508 160.3 507.4 157.5 504.9 C 153.9 501.5 153.6 500.9 153.7 496.1 C 153.7 493.3 153.4 491 152.9 491 C 150.9 491 148 486.8 148 483.9 C 148 481.2 150.2 478.5 164.2 464.4 L 180.4 448 L 165.2 448 L 150.1 448 L 148.5 451.1 C 144.9 457.9 131 459.2 131 452.7 C 131 449.7 129.2 448 126.1 448 C 123.3 448 119 451.6 119 453.9 C 119 455.3 118.9 455.3 118 454 C 115.4 450 118.7 439.6 123.3 437.1 C 124.7 436.3 126.4 434.4 126.9 432.8 C 127.6 430.9 129.1 429.4 131.4 428.5 C 136.1 426.5 137.5 426.6 144.5 429.6 C 163.5 437.8 180 442.1 180 439.1 C 180 437.6 174 433.5 169.5 431.8 C 167.3 431 162.1 429.5 158 428.5 C 148.3 426.2 145.3 424.6 142.9 420.6 C 140.5 416.4 133.8 412.7 129.9 413.2 C 128.3 413.5 127 413.4 127 413 C 127 412.7 128.3 410.3 130 407.7 C 133.1 402.7 137 400.9 140.1 402.8 C 141.5 403.7 142.8 403.6 145.7 402.4 C 150.2 400.5 156.2 401.1 161.9 404 C 165.7 405.9 170.2 410.6 177.2 419.9 C 186.1 431.8 193 433.4 206 426.6 C 212.1 423.4 235.3 409.7 236.9 408.3 C 237.2 408.2 236.4 407 235.3 405.7 C 232.3 402.5 229.4 396.2 228.1 390.2 C 226.6 382.9 226.5 383 230.9 383 C 237 383 242.2 380.7 256.2 371.5 C 269.9 362.6 274.8 360.6 286.5 359.1 C 293.7 358.2 300.5 355.4 307 350.6 C 312.4 346.5 320.8 338 323.2 334.1 C 327.3 327.5 325.5 317.8 318.3 308.4 L 316 305.3 L 307.2 314.2 C 292.2 329.6 272.3 343.4 247.3 355.5 C 225.1 366.4 213.7 369.8 203.4 368.7 C 197.8 368.1 190.7 365.2 190.7 363.5 C 190.7 363 197.5 358.7 205.7 354 C 224.5 343.3 225.5 342.6 236.9 331.6 C 249.1 319.7 271 293.7 269.8 292.5 C 269.6 292.3 267.2 293.1 264.5 294.4 C 261.5 295.8 251.9 303.4 241 313 C 218.7 332.6 209.1 340.1 192.3 351.3 C 161.1 372.1 134.5 381.1 108.5 379.7 C 98.5 379.1 87.2 376.4 82.1 373.2 C 77.6 370.4 71.9 364.6 69.8 360.7 C 68.8 358.5 68 356.6 68.2 356.4 C 68.4 356.2 71.5 357.1 75 358.2 C 80.3 360 83.8 360.4 94.5 360.4 C 106.9 360.4 108 360.2 118.3 356.7 C 143.9 348 175.1 327.7 198.1 305 C 205.8 297.4 211 290.2 211 287 C 211 286.3 208.4 288.2 205.3 291 C 194 301 160.4 321.7 158.5 319.8 C 158.2 319.5 159.5 316.2 161.4 312.4 C 165 305.3 171.1 298.2 181 289.7 L 186.5 284.9 L 182 285.6 C 174.1 286.7 163.7 289.8 146.9 295.9 C 126.9 303.1 116.6 305.8 104.8 306.9 C 82.3 309 67.1 303.4 59.1 290 C 58 288.1 57 286 57 285.5 C 57 284.9 61.9 284.4 69.3 284.3 C 89 284.1 120.7 278 138.4 271.2 C 148.4 267.3 163 259.1 171.5 252.7 C 184.4 243 180.1 242.2 163.3 251.1 C 153.6 256.3 150.8 257.3 145.4 257.8 C 140.8 258.1 139 257.9 139 257.1 C 139 254.1 150.4 244.1 159 239.5 C 163.8 236.9 168.9 233.7 170.2 232.3 L 172.5 229.8 L 159.5 230.5 C 145.7 231.2 115.1 229.8 96.4 227.5 C 78.6 225.3 68.4 222.1 59.4 215.9 C 54.6 212.6 49 205 49 201.7 C 49 199.9 49.5 199.8 56.3 200.4 C 108.3 205.1 145.8 205.2 161.1 200.7 L 165.5 199.4 L 157 198.8 C 147.1 198.1 138.9 195.3 134 191 L 130.5 187.9 L 135 188.4 C 140.7 189 158.8 187.3 164.3 185.5 C 168.2 184.3 168.3 184.2 165.5 184.1 C 163.9 184 158.5 183.1 153.5 182.1 C 109.6 172.8 79.4 150.5 70.6 121.1 C 69.7 118.1 69 115.5 69 115.3 C 69 114.5 76.1 115.2 81.8 116.5 C 92.5 119 97.9 122.3 118.5 138.9 C 132.6 150.3 148.6 156 166.1 156 C 174 156 174.2 155.9 172.7 154.2 C 171 152.3 168.6 151.1 155 144.7 C 147.2 141 142.4 136.9 141.8 133.5 C 141.5 131.7 142 131.5 146 131.8 C 151.9 132.3 158.5 134.2 164.7 137.4 C 171 140.5 177.6 142.1 180.3 141.1 C 182.2 140.4 182.1 140.3 179.4 139.6 C 173.7 138.2 162.4 130.5 154.5 122.6 C 142.1 110.2 138.4 100.8 143 93.2 C 144.1 91.5 145.3 90 145.6 90 C 145.9 90 152.1 93.8 159.4 98.4 C 178.4 110.5 210.2 129.2 209.3 127.7 C 208.9 127.1 206.6 124 204.1 121 C 199.2 114.9 195.5 107.4 194.7 101.7 C 194.2 98.3 194.3 98 196.4 98 C 201.9 98 207.3 104 218.4 122.3 C 221.1 126.6 223.6 129.7 224.2 129.4 C 224.8 129 225.1 126.2 224.7 122.1 C 224.4 117.1 223 112.7 219.2 104 C 214.4 93.1 213.6 90.1 213.9 83.8 C 214 80.2 220.3 73.2 225.5 70.9 C 230.7 68.5 240.2 68.5 245.4 70.8 L 245.4 70.8 L 245.4 70.8 Z " fill="rgb(235,235,235)"/></g></svg>