<?xml version="1.0" encoding="utf-8"?>
<!-- Generator: Adobe Illustrator 24.2.0, SVG Export Plug-In . SVG Version: 6.00 Build 0)  -->
<svg version="1.1" xmlns="http://www.w3.org/2000/svg" x="0px" y="0px"
	 viewBox="0 0 87.87 87.87" style="enable-background:new 0 0 87.87 87.87;" xml:space="preserve">
<g id="Warstwa_3">
</g>
<g id="Warstwa_2">
	<g>
		<g>
			<g>
				<g>
					<g>
						<g>
							<path d="M4.74,60.22c1.42,3.42,3.29,6.64,5.55,9.59l7.15-5.5c-1.78-2.32-3.26-4.86-4.38-7.55L4.74,60.22z"/>
						</g>
						<g>
							<path d="M18.13,77.64c2.94,2.26,6.17,4.13,9.59,5.55l3.46-8.33c-2.69-1.12-5.23-2.59-7.55-4.37L18.13,77.64z"/>
						</g>
						<g>
							<path d="M44.01,1.39C20.57,1.39,1.5,20.47,1.5,43.91c0,1.87,0.12,3.75,0.36,5.58l8.94-1.18c-0.19-1.45-0.29-2.93-0.29-4.41
								c0-18.47,15.03-33.5,33.5-33.5c18.48,0,33.51,15.03,33.51,33.5c0,18.47-15.03,33.5-33.51,33.5c-1.47,0-2.96-0.1-4.41-0.29
								l-1.17,8.94c1.84,0.24,3.72,0.36,5.58,0.36c23.45,0,42.52-19.07,42.52-42.51C86.54,20.47,67.46,1.39,44.01,1.39z"/>
						</g>
					</g>
				</g>
			</g>
		</g>
	</g>
	<g>
		<g>
			<path d="M56.7,66.67H31.33V56.6H21.26V31.22h10.07V21.15H56.7v10.07h10.07V56.6H56.7V66.67z M34.33,63.67H53.7V53.6h10.07V34.22
				H53.7V24.15H34.33v10.07H24.26V53.6h10.07V63.67z"/>
		</g>
		<path d="M54.39,37.73c-0.15-1.79-2.93-2.59-5.68-2.59c-1.79,0-3.59,0.34-4.67,1.08c-1.08-0.73-2.89-1.08-4.68-1.08
			c-2.74,0-5.51,0.8-5.68,2.59h-1.07v14h22.85v-14H54.39z M52.41,37.88v0.03C52.4,37.9,52.4,37.89,52.41,37.88L52.41,37.88z
			 M52.41,37.98l0,10.48c-2.07-0.78-5.26-0.78-7.35-0.01l0-10.49c0.31-0.28,1.58-0.81,3.66-0.81C50.86,37.14,52.15,37.7,52.41,37.98
			z M35.67,37.97c0.26-0.28,1.55-0.84,3.69-0.84c2.08,0,3.34,0.53,3.66,0.81l0,10.5c-2.08-0.77-5.28-0.77-7.35,0.01L35.67,37.97z"/>
	</g>
</g>
</svg>
