<?xml version="1.0" encoding="utf-8"?>
<!-- Generator: Adobe Illustrator 24.2.0, SVG Export Plug-In . SVG Version: 6.00 Build 0)  -->
<svg version="1.1" xmlns="http://www.w3.org/2000/svg" x="0px" y="0px"
	 viewBox="0 0 87.87 87.87" style="enable-background:new 0 0 87.87 87.87;" xml:space="preserve">
<g id="Warstwa_3">
	<g>
		<g>
			<g>
				<g>
					<g>
						<path d="M44.02,1.4C20.57,1.4,1.5,20.47,1.5,43.92c0,23.44,19.07,42.52,42.52,42.52c23.45,0,42.52-19.07,42.52-42.52
							C86.54,20.47,67.46,1.4,44.02,1.4z M44.02,77.42c-18.47,0-33.5-15.03-33.5-33.5c0-18.47,15.03-33.5,33.5-33.5
							c18.47,0,33.5,15.03,33.5,33.5C77.52,62.39,62.49,77.42,44.02,77.42z"/>
					</g>
				</g>
			</g>
		</g>
		<g>
			<g>
				<path d="M56.7,66.68H31.33V56.6H21.26V31.23h10.07V21.16H56.7v10.07h10.07V56.6H56.7V66.68z M34.33,63.68H53.7V53.6h10.07V34.23
					H53.7V24.16H34.33v10.07H24.26V53.6h10.07V63.68z"/>
			</g>
			<g>
				<g>
					<path d="M35.97,37.77l-3.93,12.52h2.9l0.77-2.98h3.82l0.77,2.98h3l-3.93-12.52H35.97z M36.28,45.11l0.3-1.16
						c0.35-1.25,0.68-2.72,0.99-4.04h0.08c0.33,1.31,0.67,2.79,1.02,4.04l0.3,1.16H36.28z"/>
				</g>
				<g>
					<path d="M53.88,48.01v-0.08c0.83-0.85,1.82-2.45,1.82-4.51c0-3.48-2.28-5.89-5.69-5.89s-5.69,2.41-5.69,5.89
						c0,2.07,0.99,3.66,1.82,4.51v0.08h-2.12v2.28h5.13v-2.04c-1.29-1.2-1.93-2.59-1.93-4.55c0-2.18,1.05-3.72,2.79-3.72
						c1.74,0,2.79,1.54,2.79,3.72c0,1.95-0.64,3.34-1.93,4.55v2.04h5.13v-2.28H53.88z"/>
				</g>
			</g>
		</g>
	</g>
</g>
<g id="Warstwa_2">
</g>
</svg>
