<svg xmlns="http://www.w3.org/2000/svg" viewBox="0 0 87.87 87.87" ><path d="M39.64 77.1l-1.14 8.93a42.84 42.84 0 0 0 5.44.35c1.88 0 3.76-.13 5.61-.37l-1.18-8.92c-2.88.38-5.86.38-8.73.01zM69.8 10.28c-2.94-2.26-6.16-4.13-9.58-5.55l-3.46 8.31a33.67 33.67 0 0 1 7.55 4.37l5.49-7.13zM4.77 60.31c1.43 3.41 3.3 6.63 5.57 9.57l7.12-5.5c-1.79-2.31-3.26-4.85-4.39-7.53l-8.3 3.46zm13.42 17.36a42.65 42.65 0 0 0 9.6 5.52l3.43-8.32a33.28 33.28 0 0 1-7.56-4.35l-5.47 7.15zm38.59-2.85l3.46 8.31a42.57 42.57 0 0 0 9.57-5.55l-5.49-7.13c-2.31 1.78-4.85 3.25-7.54 4.37zm29.24-36.43l-8.92 1.17a33.56 33.56 0 0 1 .28 4.38c0 1.46-.1 2.92-.28 4.36l8.93 1.15c.24-1.82.36-3.67.36-5.51-.01-1.86-.13-3.72-.37-5.55zM70.49 64.27l7.14 5.48c2.26-2.94 4.12-6.17 5.54-9.59l-8.32-3.44c-1.11 2.69-2.58 5.23-4.36 7.55zm12.67-36.58c-1.42-3.42-3.28-6.64-5.54-9.58l-7.14 5.48a33.67 33.67 0 0 1 4.37 7.55l8.31-3.45zM10.5 43.94c0-18.44 15-33.44 33.44-33.44 1.47 0 2.95.1 4.4.29l1.17-8.92c-1.84-.25-3.71-.37-5.57-.37C20.54 1.5 1.5 20.54 1.5 43.94c0 1.87.12 3.74.36 5.58l8.92-1.17c-.19-1.46-.28-2.94-.28-4.41zm21.77-1.59l-1.08 1.29 1.08 1.29c.23.27 5.67 6.64 12.67 6.64s12.44-6.37 12.67-6.64l1.08-1.29-1.08-1.29c-.23-.27-5.67-6.65-12.67-6.65s-12.44 6.38-12.67 6.65zm12.67 5.22c-3.48 0-6.65-2.39-8.33-3.93 1.69-1.55 4.85-3.93 8.33-3.93s6.64 2.38 8.33 3.93c-1.7 1.54-4.88 3.93-8.33 3.93zm-2.98-3.93a2.97 2.97 0 0 0 2.97 2.97c1.65 0 2.98-1.33 2.98-2.97 0-1.65-1.33-2.98-2.98-2.98-1.64 0-2.97 1.33-2.97 2.98zM67.19 28.3l-.26-4.12-3.53 2.15c-3.46 2.11-6.7 3.17-9.64 3.17-4.53 0-6.83-2.56-6.91-2.65l-1.57-1.87-1.91 1.52c-.04.03-3.82 2.94-8.61 2.94-2.84 0-5.54-1.03-8-3.06L23 23.27l-.31 4.88c-.02.34-.51 8.42 1.78 17.43 3.13 12.33 9.96 20.41 19.75 23.35l.72.22.72-.22c9.79-2.94 16.62-10.99 19.75-23.27 2.28-8.98 1.8-17.02 1.78-17.36zM44.94 63.92C30.59 59.05 28.07 41.23 27.7 32.86a16.51 16.51 0 0 0 7.07 1.58c4.32 0 7.92-1.66 9.95-2.84 1.73 1.28 4.75 2.9 9.04 2.9 2.7 0 5.53-.64 8.44-1.91-.32 8.14-2.68 26.39-17.26 31.33z"/></svg>