<svg xmlns="http://www.w3.org/2000/svg" viewBox="0 0 87.87 87.87" ><path d="M4.73 60.22a42.53 42.53 0 0 0 5.54 9.57l7.13-5.49c-1.78-2.32-3.25-4.85-4.37-7.54l-8.3 3.46zm13.36 17.39a42.53 42.53 0 0 0 9.57 5.54l3.45-8.31c-2.69-1.12-5.22-2.58-7.54-4.37l-5.48 7.14zM43.94 1.5C20.54 1.5 1.5 20.54 1.5 43.94a43.06 43.06 0 0 0 .36 5.57l8.92-1.17c-.19-1.45-.29-2.93-.29-4.4 0-18.44 15-33.44 33.44-33.44s33.44 15 33.44 33.44-15 33.44-33.44 33.44c-1.47 0-2.95-.1-4.4-.29l-1.17 8.92c1.84.24 3.71.36 5.57.36 23.4 0 42.44-19.04 42.44-42.44C86.38 20.54 67.34 1.5 43.94 1.5zm1 35.36L42 42.8l-6.55.95 4.74 4.63-1.12 6.53 5.87-3.09 5.86 3.09-1.12-6.53 4.75-4.63-6.56-.95zm22.25-8.56l-.26-4.12-3.53 2.15c-3.46 2.11-6.7 3.17-9.63 3.17-4.53 0-6.83-2.56-6.91-2.65l-1.57-1.87-1.91 1.52c-.04.03-3.82 2.94-8.61 2.94-2.84 0-5.54-1.03-8-3.06L23 23.28l-.31 4.88c-.02.34-.51 8.42 1.78 17.43C27.6 57.92 34.43 66 44.22 68.94l.72.22.72-.22C55.45 66 62.28 57.95 65.41 45.67c2.28-8.99 1.8-17.03 1.78-17.37zM44.94 63.92C30.59 59.05 28.07 41.23 27.7 32.86c2.24 1.05 4.6 1.58 7.07 1.58 4.32 0 7.92-1.65 9.95-2.84 1.73 1.28 4.75 2.9 9.04 2.9 2.7 0 5.53-.64 8.44-1.91-.32 8.14-2.68 26.39-17.26 31.33z"/></svg>