<svg xmlns="http://www.w3.org/2000/svg" viewBox="0 0 87.87 87.87" ><path d="M67.19 28.3l-.26-4.12-3.53 2.15c-3.46 2.11-6.7 3.17-9.64 3.17-4.53 0-6.83-2.56-6.91-2.65l-1.57-1.87-1.91 1.52c-.04.03-3.82 2.94-8.61 2.94-2.84 0-5.54-1.03-8-3.06L23 23.27l-.31 4.88c-.02.34-.51 8.42 1.78 17.43 3.13 12.33 9.96 20.41 19.75 23.35l.72.22.72-.22c9.79-2.94 16.62-10.99 19.75-23.27 2.28-8.98 1.8-17.02 1.78-17.36zM50.8 54.91l-5.86-3.08-5.86 3.08 1.12-6.53-4.75-4.63L42 42.8l2.93-5.94 2.93 5.94 6.56.95-4.74 4.63 1.12 6.53zM43.94 1.5C20.54 1.5 1.5 20.54 1.5 43.94s19.04 42.44 42.44 42.44 42.44-19.04 42.44-42.44S67.34 1.5 43.94 1.5zm0 75.88c-18.44 0-33.44-15-33.44-33.44s15-33.44 33.44-33.44 33.44 15 33.44 33.44c0 18.43-15 33.44-33.44 33.44z"/></svg>