<svg xmlns="http://www.w3.org/2000/svg" viewBox="0 0 87.87 87.87" width="117.16" height="117.16" ><defs><clipPath id="A"><path d="M0 0h87.87v87.87H0z"/></clipPath></defs><g clip-path="url(#A)"><path d="M39.71 78.14l-1.15 8.94c1.8.23 3.63.35 5.45.35 1.88 0 3.77-.13 5.62-.37l-1.18-8.94c-2.87.39-5.86.39-8.74.02zM69.93 10.2a42.21 42.21 0 0 0-9.6-5.56l-3.46 8.33a33.18 33.18 0 0 1 7.56 4.38l5.5-7.15zM4.78 60.31a42.16 42.16 0 0 0 5.58 9.58l7.13-5.51a33.37 33.37 0 0 1-4.39-7.55l-8.32 3.48zm13.44 17.4a42.23 42.23 0 0 0 9.62 5.53l3.43-8.34a33.17 33.17 0 0 1-7.57-4.36l-5.48 7.17zm38.67-2.85l3.47 8.32c3.42-1.42 6.65-3.3 9.59-5.57l-5.5-7.14a34.04 34.04 0 0 1-7.56 4.39zm29.29-36.5l-8.94 1.17c.19 1.44.28 2.92.28 4.39 0 1.46-.1 2.92-.28 4.36l8.94 1.16c.24-1.82.36-3.68.36-5.52 0-1.86-.12-3.73-.36-5.56zM70.62 64.28l7.15 5.49c2.26-2.95 4.13-6.18 5.55-9.61l-8.33-3.45c-1.12 2.7-2.59 5.25-4.37 7.57zm12.69-36.64c-1.42-3.42-3.29-6.65-5.55-9.6l-7.15 5.49c1.78 2.32 3.26 4.87 4.38 7.56l8.32-3.45zm-72.8 16.27c0-18.47 15.03-33.5 33.5-33.5 1.48 0 2.96.1 4.41.29l1.17-8.94c-1.84-.24-3.72-.36-5.59-.36C20.57 1.39 1.5 20.47 1.5 43.91c0 1.87.12 3.75.36 5.59l8.94-1.18c-.19-1.45-.29-2.93-.29-4.41zm56.17 17.65l-9.12-9.12a20.96 20.96 0 0 0 3.98-12.3c0-11.65-9.48-21.13-21.13-21.13s-21.13 9.48-21.13 21.13 9.48 21.13 21.13 21.13c4.59 0 8.83-1.49 12.3-3.98l9.12 9.12 4.85-4.85zm-43.4-21.42c0-9.45 7.69-17.13 17.13-17.13s17.13 7.69 17.13 17.13-7.69 17.13-17.13 17.13-17.13-7.68-17.13-17.13zM40.2 38.3c-2.69 0-7.51 3.92-7.51 8.77 0 4.84 3.36 1.26 7.51 1.26s7.51 3.58 7.51-1.26c0-4.85-4.82-8.77-7.51-8.77zm10.42-2.47c-1.11-.64-2.74.09-3.63 1.63s-.71 3.31.4 3.95 2.74-.09 3.63-1.63.71-3.31-.4-3.95zm-13.23.97c1.4-.38 2.12-2.25 1.6-4.19s-2.08-3.21-3.48-2.83-2.12 2.25-1.6 4.19 2.08 3.21 3.48 2.83zm5.62 0c1.4.38 2.96-.89 3.48-2.83s-.2-3.82-1.6-4.2-2.96.89-3.48 2.83.2 3.82 1.6 4.2zm-9.6.65c-.89-1.54-2.51-2.27-3.63-1.63-1.11.64-1.29 2.41-.4 3.96.89 1.54 2.51 2.27 3.63 1.63 1.11-.65 1.29-2.42.4-3.96z"/></g></svg>