<svg xmlns="http://www.w3.org/2000/svg" viewBox="0 0 87.87 87.87" width="117.16" height="117.16"><defs><clipPath id="A"><path d="M0 0h87.87v87.87H0z"/></clipPath><path id="B" d="M34.65 26.67c-2.38 0-6.63 3.46-6.63 7.73s2.96 1.11 6.63 1.11c3.66 0 6.62 3.16 6.62-1.11s-4.25-7.73-6.62-7.73z"/></defs><g clip-path="url(#A)"><path d="M4.74 60.22a42.53 42.53 0 0 0 5.54 9.57l7.13-5.49c-1.78-2.32-3.25-4.85-4.37-7.54l-8.3 3.46zm13.35 17.39a42.53 42.53 0 0 0 9.57 5.54l3.45-8.31c-2.69-1.12-5.22-2.58-7.54-4.37l-5.48 7.14zM43.94 1.5C20.54 1.5 1.5 20.54 1.5 43.94a43.06 43.06 0 0 0 .36 5.57l8.92-1.17c-.19-1.45-.29-2.93-.29-4.4 0-18.44 15-33.44 33.44-33.44s33.44 15 33.44 33.44-15 33.44-33.44 33.44c-1.47 0-2.95-.1-4.4-.29l-1.17 8.92c1.84.24 3.71.36 5.57.36 23.4 0 42.44-19.04 42.44-42.44C86.38 20.54 67.34 1.5 43.94 1.5z"/><use xlink:href="#B"/><path d="M40.2 22.85c-.46 1.71-1.83 2.83-3.07 2.5s-1.87-1.99-1.41-3.7 1.83-2.83 3.07-2.5c1.23.33 1.87 1.99 1.41 3.7zm-6.62-1.2c.46 1.71-.17 3.37-1.41 3.7s-2.61-.79-3.07-2.5.17-3.37 1.41-3.7 2.61.79 3.07 2.5zm-8.12 2.84c.98-.57 2.41.08 3.2 1.43.78 1.36.62 2.92-.36 3.49s-2.42-.08-3.2-1.43c-.78-1.36-.62-2.92.36-3.49zm15.18 1.44c.79-1.36 2.22-2 3.2-1.43s1.14 2.13.35 3.49c-.78 1.36-2.22 2-3.2 1.43-.98-.58-1.14-2.13-.35-3.49zM57.3 41.55c-2.38 0-6.63 3.46-6.63 7.73s2.96 1.11 6.63 1.11c3.66 0 6.62 3.16 6.62-1.11.01-4.27-4.24-7.73-6.62-7.73zm5.55-3.82c-.46 1.71-1.83 2.83-3.07 2.5s-1.87-1.99-1.41-3.7 1.83-2.83 3.07-2.5 1.87 1.99 1.41 3.7zm-6.62-1.2c.46 1.71-.17 3.37-1.41 3.7s-2.61-.79-3.07-2.5.17-3.37 1.41-3.7 2.61.79 3.07 2.5zm-8.11 2.84c.98-.57 2.41.08 3.2 1.43.78 1.36.62 2.92-.36 3.49s-2.42-.08-3.2-1.43c-.79-1.36-.62-2.93.36-3.49zm15.17 1.43c.79-1.36 2.22-2 3.2-1.43s1.14 2.13.35 3.49c-.78 1.36-2.22 2-3.2 1.43-.97-.57-1.13-2.13-.35-3.49zM37.22 58.78c-2.38 0-6.63 3.46-6.63 7.73s2.96 1.11 6.63 1.11c3.66 0 6.62 3.16 6.62-1.11s-4.25-7.73-6.62-7.73zm5.55-3.82c-.46 1.71-1.83 2.83-3.07 2.5s-1.87-1.99-1.41-3.7 1.83-2.83 3.07-2.5c1.23.33 1.87 1.99 1.41 3.7zm-6.62-1.2c.46 1.71-.17 3.37-1.41 3.7s-2.61-.79-3.07-2.5.17-3.37 1.41-3.7 2.61.79 3.07 2.5zm-8.12 2.84c.98-.57 2.41.08 3.2 1.43.78 1.36.62 2.92-.36 3.49s-2.42-.08-3.2-1.43c-.78-1.36-.62-2.92.36-3.49zm15.18 1.44c.79-1.36 2.22-2 3.2-1.43s1.14 2.13.35 3.49c-.78 1.36-2.22 2-3.2 1.43-.98-.58-1.14-2.14-.35-3.49z"/></g></svg>