<svg xmlns="http://www.w3.org/2000/svg" viewBox="0 0 87.87 87.87" ><path d="M44.02 1.39C20.57 1.39 1.5 20.47 1.5 43.92c0 23.44 19.07 42.52 42.52 42.52s42.52-19.08 42.52-42.52c0-23.45-19.08-42.53-42.52-42.53zm0 76.03c-18.47 0-33.5-15.03-33.5-33.5s15.03-33.5 33.5-33.5 33.5 15.03 33.5 33.5-15.03 33.5-33.5 33.5zm18.21-14.37c-2.65-1.06-9.8-.73-9.8-.73s-.07-2.18-.99-7.15c-1.69-6.19-7.67-11.85-10.31-14.11a19.53 19.53 0 0 1-.69-.9c-.1-.14-.15-.34-.17-.52-.14-1.23-.38-2.44-.81-3.59-.26-.7-.45-1.4-.5-2.14-.04-.56-.21-1.12-.32-1.72.27-.13.56-.24.83-.4.39-.23.78-.46 1.13-.75.36-.29.35-.52.06-.89-.49-.62-1.19-.93-1.9-1.19-.71-.27-1.29-.68-1.78-1.27-.44-.54-.92-1.05-1.4-1.56-.27-.28-.59-.48-1-.52-.44-.04-.81-.23-1.07-.6l-1.83-2.54c-.47-.69-.9-1.42-1.34-2.13-.15-.24-.31-.25-.48-.04-.33.4-.68.8-.96 1.23-.33.51-.29 1.11-.26 1.69.01.16-.01.33-.02.53-.43-.19-.99-.59-1.21-.78-.2-.17-.37-.04-.51.11-.61.65-.67 1.92-.04 2.56.66.67.99 1.48 1.22 2.36.2.79.44 1.58.55 2.39.2 1.5.21 3-.48 4.42-.35.72-.53 1.51-.27 2.3.12.38.22.75.28 1.13-.26.98-1.83 7.32.13 11.25.39.91.78 1.2.78 1.2l-.26 10.99s.46 2.33-1.46 2.13-2.58 1.99-2.58 1.99l3.58.07c-1.55.25-2 1.48-2.05 1.64h4.59c2.31-1.43 4.41-11.52 4.41-11.52a76.35 76.35 0 0 0 3.11 3.18c-.66 2.12.79 3.84 2.71 5.69-3.91-1.13-4.3 1.85-4.3 2.52 0 .05.01.09.02.13h9.41c.23-.04.44-.08.63-.13 1.79-.46 4.7-1.32 4.7-1.32s2.98.73 4.57.86.86-.6 3.91-.13c3.05.46 6.95-1.92 6.95-1.92s-.26-.13-.86-.13c-.61-.04-1.28-.63-3.92-1.69zM50.39 40.72c0 4.27 2.96 1.11 6.63 1.11 3.66 0 6.62 3.16 6.62-1.11s-4.25-7.73-6.62-7.73c-2.38 0-6.63 3.46-6.63 7.73zm9.11-9.05c1.24.33 2.61-.79 3.07-2.5s-.17-3.37-1.41-3.7-2.61.79-3.07 2.5.17 3.36 1.41 3.7zm-8.83 4.06c.98-.57 1.14-2.13.36-3.49s-2.22-2-3.2-1.43-1.14 2.13-.36 3.49c.79 1.35 2.22 1.99 3.2 1.43zm15.54-4.92c-.98-.57-2.41.08-3.2 1.43-.79 1.36-.63 2.92.36 3.49.98.57 2.41-.08 3.2-1.43.77-1.36.62-2.92-.36-3.49zm-11.67.86c1.24-.33 1.87-1.98 1.41-3.7-.46-1.71-1.83-2.83-3.07-2.5s-1.87 1.99-1.41 3.7 1.83 2.83 3.07 2.5z"/></svg>