<svg xmlns="http://www.w3.org/2000/svg" viewBox="0 0 87.87 87.87" width="117.16" height="117.16"  xmlns:v="https://vecta.io/nano"><defs><clipPath id="A"><path d="M0 0h87.87v87.87H0z"/></clipPath></defs><g clip-path="url(#A)" fill="#231f20"><path d="M39.64 77.1l-1.15 8.93c1.804.232 3.621.349 5.44.35 1.88 0 3.76-.13 5.61-.37l-1.18-8.92c-2.87.38-5.85.38-8.72.01zM69.8 10.28c-2.94-2.26-6.16-4.13-9.58-5.55l-3.46 8.31a33.66 33.66 0 0 1 7.55 4.37l5.49-7.13zM4.77 60.31c1.43 3.41 3.3 6.63 5.57 9.57l7.12-5.5c-1.79-2.31-3.26-4.85-4.39-7.53l-8.3 3.46zm13.42 17.36a42.68 42.68 0 0 0 9.6 5.52l3.43-8.32c-2.7-1.112-5.242-2.575-7.56-4.35l-5.47 7.15zm38.59-2.85l3.46 8.31c3.42-1.425 6.638-3.295 9.57-5.56l-5.49-7.13a33.05 33.05 0 0 1-7.54 4.38m29.24-36.43l-8.92 1.17c.189 1.452.282 2.915.28 4.38.002 1.458-.092 2.914-.28 4.36l8.93 1.16c.24-1.82.35-3.68.35-5.51.001-1.859-.119-3.716-.36-5.56M70.49 64.27l7.14 5.48c2.26-2.94 4.12-6.17 5.54-9.59l-8.32-3.44c-1.11 2.69-2.58 5.23-4.36 7.55zm12.67-36.58c-1.42-3.42-3.28-6.64-5.54-9.58l-7.14 5.48a33.66 33.66 0 0 1 4.37 7.55l8.31-3.45zM10.5 43.94c0-18.44 15-33.44 33.44-33.44 1.475.002 2.948.099 4.41.29l1.17-8.92c-1.85-.25-3.72-.37-5.58-.37C20.54 1.5 1.5 20.54 1.5 43.94c0 1.866.12 3.73.36 5.58l8.92-1.18a34.07 34.07 0 0 1-.28-4.4m57.37 7.84l-.65 2.14-.35-.42-21.47-28-.31-.44v-3.34h-.97v3.78c.05-.03.71 1.46.71 1.46l6.01 27.13.61 2.68 15.53-2.06-.54 1.92.92.27 1.44-4.87-.93-.25"/><path d="M44.23 29.58c.04-.2.07-.43.04-.63l-.58-2.67L23 54.56l-.84-2.78-.93.27 1.44 4.86.92-.27-.35-1.28 15.53 1.7.1-.25 1.4-7.09 2.12-10.98 1.84-9.16zm.58 2.17L41.18 50.1h7.77l-4.06-18.36c-.03.01-.06.01-.08.01"/></g></svg>