<svg xmlns="http://www.w3.org/2000/svg" viewBox="0 0 87.87 87.87" width="117.16" height="117.16"  xmlns:v="https://vecta.io/nano"><defs><clipPath id="A"><path d="M0 0h87.87v87.87H0z"/></clipPath></defs><g clip-path="url(#A)" fill-rule="evenodd" fill="#231f20"><path d="M56.537 64.409c-1.346 2.173-3.781 3.171-6.207 3.171q-1.286 0-4.814-.808l-8.518-2.303-.458-.249c-.971-.503-1.702-1.578-1.88-3.275.697.056 1.248.131 1.64.225l5.7 1.54 3.369.942q2.96.72 4.901.808c1.061.068 4.439.042 6.267-.051zm1.114-.674c3.276-.307 6.405-.255 7.349-.235v-3c-1.025-.024-3.778.008-6.83.24l-3.844.478-2.026.312q-2.013.494-5.827 1.756l.337.074c1.07.25 2.79.44 3.86.49l6.981-.115zM57.64 60.5l.011-.5-2.991-.323c.034.228 0 .306 0 .573 0 .207.017.302 0 .49.874-.147 2.147-.167 2.98-.24zm.458-.823L65 59.92v-3a91.33 91.33 0 0 1-5.207-.145l-9.123-.145q-1.07.05-3.86.49-.261.058-.261.058l5.811 1.732.679.135 5.059.632zM50 56l6.544.071c-1.361-2.144-3.791-3.141-6.204-3.141h0q-1.272 0-4.818.794l-5.434 1.461-3.989 1.095c-.694.681-1.325 1.7-1.449 3.296h0c.716-.065 1.279-.147 1.67-.246l5.08-1.39q.786-.226 2.358-.67Q47.233 56.272 50 56zm-19.29.796l-7.96.094v3l7.511-.077a12.12 12.12 0 0 1 .449-3.017h0zm-.448 3.897c-3.142-.04-6.416.024-7.522.047v3l8.002-.033c-.284-.925-.449-1.94-.48-3.014h0zM4.73 60.22a42.53 42.53 0 0 0 5.54 9.57l7.14-5.49c-1.78-2.32-3.25-4.85-4.37-7.54l-8.31 3.46zM18.09 77.6a42.53 42.53 0 0 0 9.57 5.54l3.45-8.31c-2.69-1.12-5.22-2.58-7.54-4.37l-5.48 7.14zM43.93 1.5C20.53 1.5 1.5 20.54 1.5 43.94c-.001 1.862.12 3.723.36 5.57l8.92-1.17c-.19-1.45-.29-2.93-.29-4.4 0-18.44 15-33.44 33.44-33.44s33.44 15 33.44 33.44c0 18.43-15 33.44-33.44 33.44-1.47 0-2.95-.1-4.4-.29l-1.17 8.92c1.84.24 3.71.36 5.57.36 23.4 0 42.44-19.04 42.44-42.44C86.38 20.54 67.34 1.5 43.93 1.5h0zm20.73 40.76l-.59 1.94-.31-.38-19.45-25.38-.28-.39v-3.03h-.88v3.42c.05-.02.64 1.32.64 1.32l5.45 24.59.55 2.43 14.08-1.86-.49 1.74.83.25 1.3-4.41a17.86 17.86 0 0 1-.85-.24h0zM43.23 22.14c.04-.18.07-.39.03-.57l-.53-2.42-18.75 25.64-.76-2.52-.84.24 1.3 4.41.83-.24-.32-1.16 14.07 1.54c.04-.11.08-.17.09-.23l1.27-6.43 1.92-9.95 1.69-8.31zm1.253 31.23c-2.435-.819-4.552-1.45-6.193-1.45-3.65 0-7.33 2.56-7.33 8.29s3.68 8.29 7.33 8.29c1.638 0 3.765-.595 6.217-1.395h0l-5.679-1.636a5.44 5.44 0 0 1-.548.031c-2.09 0-4.33-1.39-4.33-5.29s2.23-5.29 4.33-5.29a4.75 4.75 0 0 1 .488.027l5.715-1.577zm1.006 13.41"/></g></svg>