<svg xmlns="http://www.w3.org/2000/svg" viewBox="0 0 87.87 87.87" width="117.16" height="117.16"  xmlns:v="https://vecta.io/nano"><defs><clipPath id="A"><path d="M0 0h87.87v87.87H0z"/></clipPath></defs><g clip-path="url(#A)" fill="#231f20"><path d="M43.94 1.5C20.54 1.5 1.5 20.54 1.5 43.94s19.04 42.44 42.44 42.44 42.44-19.04 42.44-42.44S67.34 1.5 43.94 1.5zm0 75.88c-18.44 0-33.44-15-33.44-33.44s15-33.44 33.44-33.44 33.44 15 33.44 33.44c0 18.43-15.01 33.44-33.44 33.44zM29.77 29.71c7.94-6.52 19.85-6.55 27.81-.01-9.32.95-18.46.93-27.81.01zm8.72 10.99c4.91.18 9.93.16 15.01 0l1.12 7.08c-4.15.26-7.65.39-11.8.39-.18-1.58-.53-3.01-1.22-4.21-.67-1.17-1.89-2.58-3.11-3.26zm18.98-1.99c-3.03.47-8.35.65-12.91.65v-7.43h1.94c4.8-.01 8.99-.38 8.99-.38l1.98 7.16zm-14.62-6.83l-.03 7.47c-4.99.01-8.4-.21-13.11-.67l2.14-7.32 5.29.31 5.71.21zm-5.4 27.74l-2.4-.3v-1.94l-.01-6.37c-.03-2.04-1.58-3.58-3.58-3.61-.955-.021-1.878.339-2.566 1.002A3.58 3.58 0 0 0 27.8 50.93l-.02 6.27v1.24l-2.37-.27.06-8.22c0-3.34 3.35-5.3 6.7-4.94 2.83.31 5.32 2.72 5.33 6.04v7.71c.01.26-.03.52-.05.86zm18.71-12.11l-1.11-7.01c3.96-.35 6.29-.95 9.73-1.47 1.28 2.51 1.91 6.56 1.91 6.56l-2.07.56c-2.76.77-5.58 1.19-8.46 1.36zm-6.67 1.99l9.88-.69v6.51l-9.88.81V49.5zm-16.6-8.94c-4.13 2.01-8.18 6.02-8.18 6.02l-4.02-1.14c.58-3.23 2.04-6.4 2.04-6.4s6.84 1.33 10.16 1.52zm6.21 18.85v-7.76c0-3.12-1.15-8.22-8.18-7.96 3.83-3.53 7.48-1.57 9.06 1.01.78 1.28 1.15 2.42 1.19 3.9.06 2.15.08 5.69.05 8.09.02 1.08-.6 1.43-2.12 2.72zm22.01-4.32l-.21-6.48 5.97-1.48c.42 2.79 0 6.13 0 6.13l-5.76 1.83zm-18.32-5.47h4.96v6.44h-4.96v-6.44zm21.37-12.14l-5.02.93-1.89-6.95 2.38-.28s2.84 2.81 4.53 6.3zm-40.9.06c1.45-3.73 4.57-6.57 4.57-6.57l2.7.3-2.31 7.17-4.96-.9zm-2.75 9.7l3.53.84v6.37c-.83-.31-3.47-1.1-3.5-1.33-.29-2.75-.34-4.12-.03-5.88z"/></g></svg>