<svg xmlns="http://www.w3.org/2000/svg" viewBox="0 0 87.87 87.87" width="117.16" height="117.16" ><defs><clipPath id="A"><path d="M0 0h87.87v87.87H0z"/></clipPath></defs><g clip-path="url(#A)"><path d="M43.94 1.5C20.54 1.5 1.5 20.54 1.5 43.94s19.04 42.44 42.44 42.44 42.44-19.04 42.44-42.44S67.34 1.5 43.94 1.5zm0 75.88c-18.44 0-33.44-15-33.44-33.44s15-33.44 33.44-33.44 33.44 15 33.44 33.44c0 18.43-15 33.44-33.44 33.44zm20.72-35.11l-.59 1.94-.31-.38-19.45-25.38-.28-.4v-3.03h-.88v3.42c.05-.02.64 1.32.64 1.32l5.45 24.59.55 2.43 14.08-1.86-.49 1.74.83.25 1.3-4.41-.85-.23M43.23 22.14c.04-.18.07-.39.03-.57l-.53-2.42-18.75 25.64-.76-2.52-.84.24 1.3 4.41.83-.24-.32-1.16 14.07 1.54c.04-.11.08-.17.09-.23l1.27-6.43 1.92-9.95 1.69-8.31zm12.23 40.61l-1-2.38-10.53 4.18-10.53-4.18-.99 2.38 8.03 3.19-8.03 3.19 1.01 2.37 10.51-4.18 10.51 4.18 1.01-2.37-8.03-3.19 8.04-3.19M45.11 41.29v2.81c0 2.87 1.36 5.2 3.09 7.33 1.65 2.03 1.66 4.15.33 6.21-1.17 1.81-2.65 3.43-4.02 5.17-.28-.3-.38-.38-.37-.41.97-3.02.07-5.67-1.92-7.87-2.42-2.68-2.23-5.41-.62-8.28l3.13-5.11c.13.04.25.09.38.15" fill="#231f20"/></g></svg>