<?xml version="1.0" encoding="iso-8859-1"?>
<!-- Generator: Adobe Illustrator 22.1.0, SVG Export Plug-In . SVG Version: 6.00 Build 0)  -->
<svg version="1.1" xmlns="http://www.w3.org/2000/svg" xmlns:xlink="http://www.w3.org/1999/xlink" x="0px" y="0px"
	 viewBox="0 0 90.709 90.709" style="enable-background:new 0 0 90.709 90.709;" xml:space="preserve">
<g id="ratownik-1">
	<g>
		<g>
			<circle style="fill:#194093;" cx="45.354" cy="45.355" r="43.52"/>
			<g>
				<path style="fill:#252E78;" d="M45.354,2.835c23.483,0,42.52,19.037,42.52,42.52s-19.037,42.52-42.52,42.52
					s-42.52-19.037-42.52-42.52S21.871,2.835,45.354,2.835 M45.354,0.835c-24.548,0-44.52,19.971-44.52,44.52
					s19.971,44.52,44.52,44.52s44.52-19.971,44.52-44.52S69.903,0.835,45.354,0.835L45.354,0.835z"/>
			</g>
		</g>
	</g>
</g>
<g id="Warstwa_4">
	<g>
		<polygon style="fill:#F8C409;" points="28.787,64.043 22.199,70.631 36.363,61.706 35.375,57.455 		"/>
		<polygon style="fill:#F8C409;" points="20.078,22.199 29.003,36.363 33.254,35.375 		"/>
		<polygon style="fill:#F8C409;" points="64.043,61.922 70.631,68.51 61.705,54.346 57.455,55.334 		"/>
		<polygon style="fill:#F8C409;" points="68.511,20.077 54.346,29.003 55.334,33.254 		"/>
		<polygon style="fill:#FFFFFF;" points="29.134,54.138 20.077,68.511 33.447,55.141 		"/>
		<polygon style="fill:#FFFFFF;" points="54.138,61.574 68.51,70.631 55.141,57.262 		"/>
		<polygon style="fill:#FFFFFF;" points="36.571,29.135 22.199,20.078 35.568,33.447 		"/>
		<polygon style="fill:#FFFFFF;" points="61.574,36.571 70.631,22.199 57.262,35.568 		"/>
		<polygon style="fill:#F8C409;" points="46.854,48.976 46.854,56.984 46.854,78.599 46.854,82.501 53.054,55.175 52.642,54.763 		
			"/>
		<polygon style="fill:#F8C409;" points="41.733,46.854 33.724,46.854 12.11,46.854 8.208,46.854 35.534,53.054 35.946,52.642 		"/>
		<polygon style="fill:#F8C409;" points="48.976,43.854 56.985,43.854 78.599,43.854 82.502,43.854 55.175,37.655 54.763,38.067 		
			"/>
		<polygon style="fill:#F8C409;" points="43.854,41.733 43.854,33.724 43.854,12.11 43.854,8.206 37.654,35.533 38.067,35.946 		"/>
		<polygon style="fill:#FFFFFF;" points="43.854,78.599 43.854,56.985 43.854,48.976 37.655,55.176 43.854,82.503 		"/>
		<polygon style="fill:#FFFFFF;" points="78.599,46.854 56.984,46.854 48.976,46.854 55.175,53.054 82.501,46.854 		"/>
		<polygon style="fill:#FFFFFF;" points="12.11,43.854 33.724,43.854 41.733,43.854 35.534,37.655 8.206,43.854 		"/>
		<polygon style="fill:#FFFFFF;" points="46.854,12.11 46.854,33.724 46.854,41.733 53.054,35.534 46.854,8.207 		"/>
	</g>
</g>
</svg>
