<svg xmlns="http://www.w3.org/2000/svg" viewBox="0 0 90.709 90.709"><circle cx="45.354" cy="45.355" r="43.52" fill="#194093"/><path d="M45.354 2.835c23.483 0 42.52 19.037 42.52 42.52s-19.037 42.52-42.52 42.52-42.52-19.037-42.52-42.52 19.037-42.52 42.52-42.52m0-2C20.806.835.834 20.806.834 45.355s19.971 44.52 44.52 44.52 44.52-19.971 44.52-44.52S69.903.835 45.354.835h0z" fill="#252e78"/><path d="M28.787 64.043l-6.588 6.588 14.164-8.925-.988-4.251zm-8.709-41.844l8.925 14.164 4.251-.988zm43.965 39.723l6.588 6.588-8.926-14.164-4.25.988zm4.468-41.845l-14.165 8.926.988 4.251z" fill="#f8c409"/><path d="M29.134 54.138l-9.057 14.373 13.37-13.37zm25.004 7.436l14.372 9.057-13.369-13.369zM36.571 29.135l-14.372-9.057 13.369 13.369zm25.003 7.436l9.057-14.372-13.369 13.369z" fill="#fff"/><path d="M46.854 48.976v8.008 21.615 3.902l6.2-27.326-.412-.412zm-5.121-2.122h-8.009H12.11 8.208l27.326 6.2.412-.412zm7.243-3h8.009 21.614 3.903l-27.327-6.199-.412.412zm-5.122-2.121v-8.009V12.11 8.206l-6.2 27.327.413.413z" fill="#f8c409"/><path d="M43.854 78.599V56.985v-8.009l-6.199 6.2 6.199 27.327zm34.745-31.745H56.984h-8.008l6.199 6.2 27.326-6.2zm-66.489-3h21.614 8.009l-6.199-6.199-27.328 6.199zM46.854 12.11v21.614 8.009l6.2-6.199-6.2-27.327z" fill="#fff"/></svg>