<svg xmlns="http://www.w3.org/2000/svg" viewBox="0 0 90.709 90.709"><path d="M45.354 88.874c-23.997 0-43.52-19.522-43.52-43.52s19.522-43.52 43.52-43.52 43.521 19.522 43.521 43.52-19.524 43.52-43.521 43.52z" fill="#194093"/><path d="M45.354 2.835c23.483 0 42.52 19.037 42.52 42.52s-19.037 42.52-42.52 42.52-42.52-19.037-42.52-42.52 19.037-42.52 42.52-42.52m0-2C20.806.835.834 20.806.834 45.355s19.971 44.52 44.52 44.52 44.52-19.971 44.52-44.52S69.903.835 45.354.835h0z" fill="#252e78"/><path d="M73.51 58.512l-6.5 14.686-33-8.232-15.551-11.387-1.783-29.398 23.167-7.124h7.4l-5.735 5.565 24.835-1.558 4.95 14.569-3.617 4.7 2.788 2.266z" fill="#fff"/><path d="M42.225 55.647v-9.949c0-.531-.266-.796-.796-.796h-1.375v-5.246h5.789c.916 0 1.586.212 2.008.633s.633 1.092.633 2.008v9.949c0 .531.265.796.796.796h1.375v5.246h-5.789c-.916 0-1.586-.211-2.008-.633s-.633-1.091-.633-2.008zm.47-18.161V32.42h5.246v5.065h-5.246z" fill="#f8c409"/></svg>