<?xml version="1.0" encoding="iso-8859-1"?>
<!-- Generator: Adobe Illustrator 22.1.0, SVG Export Plug-In . SVG Version: 6.00 Build 0)  -->
<svg version="1.1" xmlns="http://www.w3.org/2000/svg" xmlns:xlink="http://www.w3.org/1999/xlink" x="0px" y="0px"
	 viewBox="0 0 90.709 90.709" style="enable-background:new 0 0 90.709 90.709;" xml:space="preserve">
<g id="ratownik-1">
	<g>
		<g>
			<path style="fill:#194093;" d="M45.354,88.874c-23.997,0-43.52-19.522-43.52-43.52s19.522-43.52,43.52-43.52
				s43.521,19.522,43.521,43.52S69.351,88.874,45.354,88.874z"/>
			<g>
				<path style="fill:#252E78;" d="M45.354,2.835c23.483,0,42.52,19.037,42.52,42.52s-19.037,42.52-42.52,42.52
					c-23.483,0-42.52-19.037-42.52-42.52S21.871,2.835,45.354,2.835 M45.354,0.835c-24.548,0-44.52,19.971-44.52,44.52
					s19.971,44.52,44.52,44.52s44.52-19.971,44.52-44.52S69.903,0.835,45.354,0.835L45.354,0.835z"/>
			</g>
		</g>
	</g>
</g>
<g id="Warstwa_4">
	<g>
		<polygon style="fill:#FFFFFF;" points="73.51,58.512 67.01,73.198 34.01,64.966 18.459,53.579 16.676,24.181 39.843,17.057 
			47.243,17.057 41.508,22.622 66.343,21.064 71.293,35.633 67.676,40.333 70.464,42.599 		"/>
		<g>
			<path style="fill:#F8C409;" d="M42.225,55.647v-9.949c0-0.531-0.266-0.796-0.796-0.796h-1.375v-5.246h5.789
				c0.916,0,1.586,0.212,2.008,0.633c0.421,0.422,0.633,1.092,0.633,2.008v9.949c0,0.531,0.265,0.796,0.796,0.796h1.375v5.246
				h-5.789c-0.916,0-1.586-0.211-2.008-0.633C42.435,57.233,42.225,56.564,42.225,55.647z M42.695,37.486V32.42h5.246v5.065H42.695z
				"/>
		</g>
	</g>
</g>
</svg>
