<svg xmlns="http://www.w3.org/2000/svg" viewBox="0 0 90.709 90.709"><circle transform="matrix(.9239 -.3827 .3827 .9239 -13.9041 20.8088)" cx="45.354" cy="45.355" r="43.52" fill="#194093"/><path d="M45.354 2.835c23.483 0 42.52 19.037 42.52 42.52s-19.037 42.52-42.52 42.52-42.52-19.037-42.52-42.52 19.037-42.52 42.52-42.52m0-2C20.806.835.834 20.806.834 45.355s19.971 44.52 44.52 44.52 44.52-19.971 44.52-44.52S69.903.835 45.354.835h0z" fill="#252e78"/><path d="M14.845 53.097h0 0s-1.12 2.135-1.003 4.055c.158 2.59 2.052 3.666 6.439 5.35 2.161.83 5.505 1.799 8.78 2.328 3.129.506 19.456-.148 19.456-.148l1.112-3.012 9.265-1.165.594 3.771s13.228-2.066 13.828-2.557c.584-2.989.745-5.973.079-7.527-21.897 4.009-48.446 8.063-58.55-1.095z" fill="#fff"/><path d="M73.395 54.193l.029-.005c1.536-4.13.403-12.211-1.983-22.125 1.804-.253 1.804-9.273-.522-9.214-6.483 1.339-11.492.556-17.598-.742.882 2.759-.373 5.295-1.75 7.212l1.698.827a1.69 1.69 0 0 1 .778 2.256c-.292.6-.893.948-1.518.948-.248 0-.5-.055-.738-.17L49.4 32.015c-.735.948-1.898 2.104-2.734 2.899l3.108 2.267c.754.549.918 1.605.369 2.357-.331.454-.844.693-1.364.693a1.68 1.68 0 0 1-.993-.324l-4.468-3.26a34.29 34.29 0 0 1-3.226 2.496l4.161 4.16c.659.659.659 1.727 0 2.386-.33.329-.761.494-1.193.494s-.863-.165-1.193-.494l-4.7-4.699a62.39 62.39 0 0 1-3.343 1.805l2.97 5.144c.484.84.198 1.912-.642 2.397a1.74 1.74 0 0 1-.876.235c-.605 0-1.196-.314-1.521-.877l-3.108-5.382c-1.538.696-3.157 1.38-4.859 2.061-6.471-.775-10.526 1.014-10.943 6.724h0c10.104 9.158 36.653 5.104 58.55 1.096z" fill="#f8c409"/><path d="M51.571 29.318c1.377-1.917 2.632-4.453 1.75-7.212-.098-.308-.221-.618-.375-.931-.572-1.235-2.622-2.951-3.845-2.981-.792-.02-.099 3.983-1.18 9.346l3.65 1.778zm-4.906 5.596c.836-.794 1.999-1.951 2.734-2.899l-2.354-1.146a26.52 26.52 0 0 1-1.304 3.234c-.017.036-.026.071-.041.107l.965.704z" fill="#fff"/></svg>