<?xml version="1.0" encoding="iso-8859-1"?>
<!-- Generator: Adobe Illustrator 22.1.0, SVG Export Plug-In . SVG Version: 6.00 Build 0)  -->
<svg version="1.1" xmlns="http://www.w3.org/2000/svg" xmlns:xlink="http://www.w3.org/1999/xlink" x="0px" y="0px"
	 viewBox="0 0 90.709 90.709" style="enable-background:new 0 0 90.709 90.709;" xml:space="preserve">
<g id="ratownik-1">
	<g>
		<g>
			
				<ellipse transform="matrix(0.9239 -0.3827 0.3827 0.9239 -13.9041 20.8088)" style="fill:#194093;" cx="45.354" cy="45.355" rx="43.52" ry="43.52"/>
			<g>
				<path style="fill:#252E78;" d="M45.354,2.835c23.483,0,42.52,19.037,42.52,42.52s-19.037,42.52-42.52,42.52
					s-42.52-19.037-42.52-42.52S21.871,2.835,45.354,2.835 M45.354,0.835c-24.548,0-44.52,19.971-44.52,44.52
					s19.971,44.52,44.52,44.52s44.52-19.971,44.52-44.52S69.903,0.835,45.354,0.835L45.354,0.835z"/>
			</g>
		</g>
	</g>
</g>
<g id="Warstwa_4">
	<g>
		<path style="fill:#FFFFFF;" d="M14.845,53.097L14.845,53.097L14.845,53.097c0,0-1.12,2.135-1.003,4.055
			c0.158,2.59,2.052,3.666,6.439,5.35c2.161,0.83,5.505,1.799,8.78,2.328c3.129,0.506,19.456-0.148,19.456-0.148l1.112-3.012
			l9.265-1.165l0.594,3.771c0,0,13.228-2.066,13.828-2.557c0.584-2.989,0.745-5.973,0.079-7.527
			C51.498,58.201,24.949,62.255,14.845,53.097z"/>
		<path style="fill:#F8C409;" d="M73.395,54.193c0.01-0.002,0.019-0.003,0.029-0.005c1.536-4.13,0.403-12.211-1.983-22.125
			c1.804-0.253,1.804-9.273-0.522-9.214c-6.483,1.339-11.492,0.556-17.598-0.742c0.882,2.759-0.373,5.295-1.75,7.212l1.698,0.827
			c0.837,0.408,1.185,1.418,0.778,2.256c-0.292,0.6-0.893,0.948-1.518,0.948c-0.248,0-0.5-0.055-0.738-0.17l-2.391-1.165
			c-0.735,0.948-1.898,2.104-2.734,2.899l3.108,2.267c0.754,0.549,0.918,1.605,0.369,2.357c-0.331,0.454-0.844,0.693-1.364,0.693
			c-0.345,0-0.693-0.105-0.993-0.324l-4.468-3.26c-0.984,0.864-2.059,1.695-3.226,2.496l4.161,4.16c0.659,0.659,0.659,1.727,0,2.386
			c-0.33,0.329-0.761,0.494-1.193,0.494c-0.432,0-0.863-0.165-1.193-0.494l-4.7-4.699c-1.056,0.615-2.171,1.215-3.343,1.805
			l2.97,5.144c0.484,0.84,0.198,1.912-0.642,2.397c-0.276,0.16-0.578,0.235-0.876,0.235c-0.605,0-1.196-0.314-1.521-0.877
			l-3.108-5.382c-1.538,0.696-3.157,1.38-4.859,2.061c-6.471-0.775-10.526,1.014-10.943,6.724l0,0
			C24.949,62.255,51.498,58.201,73.395,54.193z"/>
		<path style="fill:#FFFFFF;" d="M51.571,29.318c1.377-1.917,2.632-4.453,1.75-7.212c-0.098-0.308-0.221-0.618-0.375-0.931
			c-0.572-1.235-2.622-2.951-3.845-2.981c-0.792-0.02-0.099,3.983-1.18,9.346L51.571,29.318z"/>
		<path style="fill:#FFFFFF;" d="M46.665,34.914c0.836-0.794,1.999-1.951,2.734-2.899l-2.354-1.146
			c-0.349,1.056-0.774,2.138-1.304,3.234c-0.017,0.036-0.026,0.071-0.041,0.107L46.665,34.914z"/>
	</g>
</g>
</svg>
