<svg xmlns="http://www.w3.org/2000/svg" viewBox="0 0 90.709 90.709"><circle cx="45.354" cy="45.355" r="43.52" fill="#194093"/><path d="M45.354 2.835c23.483 0 42.52 19.037 42.52 42.52s-19.037 42.52-42.52 42.52-42.52-19.037-42.52-42.52 19.037-42.52 42.52-42.52m0-2C20.806.835.834 20.806.834 45.355s19.971 44.52 44.52 44.52 44.52-19.971 44.52-44.52S69.903.835 45.354.835h0z" fill="#252e78"/><path d="M42.597 79.088V70.32c0-.468-.234-.701-.701-.701h-1.212v-4.623h5.102c.808 0 1.397.187 1.77.558s.558.962.558 1.77v8.768c0 .468.233.701.701.701h1.212v4.623h-5.102c-.808 0-1.397-.186-1.77-.558s-.558-.963-.558-1.77zm.414-16.005v-4.464h4.623v4.464h-4.623z" fill="#fff"/><path d="M74.768 54.307H15.941a1.5 1.5 0 1 1 0-3h58.827a1.5 1.5 0 1 1 0 3z" fill="#f8c409"/><path d="M62.71 41.091V22.792h-6v18.299h-8.356V22.792h-6v18.299h-8.355V22.792h-6v18.299h-5.078v6h44.866v-6z" fill="#fff"/><path d="M67.787 25.413H22.922L45.426 9.294z" fill="#f8c409"/></svg>