<svg xmlns="http://www.w3.org/2000/svg" viewBox="0 0 90.709 90.709"><circle cx="45.354" cy="45.355" r="43.52" fill="#194093"/><path d="M45.354 2.835c23.483 0 42.52 19.037 42.52 42.52s-19.037 42.52-42.52 42.52-42.52-19.037-42.52-42.52 19.037-42.52 42.52-42.52m0-2C20.806.835.834 20.806.834 45.355s19.971 44.52 44.52 44.52 44.52-19.971 44.52-44.52S69.903.835 45.354.835h0z" fill="#252e78"/><path d="M42.597 79.088V70.32c0-.468-.234-.701-.701-.701h-1.212v-4.623h5.102c.808 0 1.397.187 1.77.558s.558.962.558 1.77v8.768c0 .468.233.701.701.701h1.212v4.623h-5.102c-.808 0-1.397-.186-1.77-.558s-.558-.963-.558-1.77zm.414-16.005v-4.464h4.623v4.464h-4.623z" fill="#fff"/><path d="M74.768 54.307H15.941a1.5 1.5 0 1 1 0-3h58.827a1.5 1.5 0 1 1 0 3z" fill="#f8c409"/><g fill="#fff"><path d="M19.728 46.994h3.481V34.479h5.532v12.515h3.481V23.156H19.728z"/><path d="M32.222 23.156v-.097h-.056zm-12.494-.097v.097l.056-.097zm35.405 8.087v15.848H70.98V31.146H55.133zm11.431 11.431H59.55v-7.014h7.014v7.014zm-31.342 4.417h17.002V16.063H35.222v30.931zm2.855-26.622H49.37v3.826H38.077v-3.826zm0 8.732H49.37v3.826H38.077v-3.826zm0 8.732H49.37v3.826H38.077v-3.826z"/></g><path d="M25.975 12.336l-6.191 10.723-.056.097h12.494l-.056-.097zm37.082 10.886c-4.376 0-7.924 3.548-7.924 7.924H70.98c0-4.376-3.547-7.924-7.923-7.924z" fill="#f8c409"/></svg>