<?xml version="1.0" encoding="iso-8859-1"?>
<!-- Generator: Adobe Illustrator 22.1.0, SVG Export Plug-In . SVG Version: 6.00 Build 0)  -->
<svg version="1.1" xmlns="http://www.w3.org/2000/svg" xmlns:xlink="http://www.w3.org/1999/xlink" x="0px" y="0px"
	 viewBox="0 0 90.709 90.709" style="enable-background:new 0 0 90.709 90.709;" xml:space="preserve">
<g id="ratownik-1">
	<g>
		<g>
			<circle style="fill:#194093;" cx="45.354" cy="45.355" r="43.52"/>
			<g>
				<path style="fill:#252E78;" d="M45.354,2.835c23.483,0,42.52,19.037,42.52,42.52s-19.037,42.52-42.52,42.52
					s-42.52-19.037-42.52-42.52S21.871,2.835,45.354,2.835 M45.354,0.835c-24.548,0-44.52,19.971-44.52,44.52
					s19.971,44.52,44.52,44.52s44.52-19.971,44.52-44.52S69.903,0.835,45.354,0.835L45.354,0.835z"/>
			</g>
		</g>
	</g>
</g>
<g id="Warstwa_4">
	<g>
		<g>
			<g>
				<path style="fill:#FFFFFF;" d="M42.597,79.088V70.32c0-0.468-0.234-0.701-0.701-0.701h-1.212v-4.623h5.102
					c0.808,0,1.397,0.187,1.77,0.558c0.371,0.372,0.558,0.962,0.558,1.77v8.768c0,0.468,0.233,0.701,0.701,0.701h1.212v4.623h-5.102
					c-0.808,0-1.397-0.186-1.77-0.558S42.597,79.895,42.597,79.088z M43.011,63.083v-4.464h4.623v4.464H43.011z"/>
			</g>
		</g>
		<g>
			<path style="fill:#F8C409;" d="M74.768,54.307H15.941c-0.828,0-1.5-0.672-1.5-1.5s0.672-1.5,1.5-1.5h58.827
				c0.828,0,1.5,0.672,1.5,1.5S75.596,54.307,74.768,54.307z"/>
		</g>
		<g>
			<polygon style="fill:#FFFFFF;" points="19.728,46.994 23.209,46.994 23.209,34.479 28.741,34.479 28.741,46.994 32.222,46.994 
				32.222,23.156 19.728,23.156 			"/>
			<polygon style="fill:#FFFFFF;" points="32.222,23.156 32.222,23.059 32.166,23.059 			"/>
			<polygon style="fill:#FFFFFF;" points="19.728,23.059 19.728,23.156 19.784,23.059 			"/>
			<path style="fill:#FFFFFF;" d="M55.133,31.146v15.848H70.98V31.146H55.133z M66.564,42.577h-7.014v-7.014h7.014V42.577z"/>
			<path style="fill:#FFFFFF;" d="M35.222,46.994h17.002V16.063H35.222V46.994z M38.077,20.372H49.37v3.826H38.077V20.372z
				 M38.077,29.104H49.37v3.826H38.077V29.104z M38.077,37.836H49.37v3.826H38.077V37.836z"/>
			<polygon style="fill:#F8C409;" points="25.975,12.336 19.784,23.059 19.728,23.156 32.222,23.156 32.166,23.059 			"/>
			<path style="fill:#F8C409;" d="M63.057,23.222c-4.376,0-7.924,3.548-7.924,7.924H70.98C70.98,26.77,67.433,23.222,63.057,23.222z
				"/>
		</g>
	</g>
</g>
</svg>
