<svg xmlns="http://www.w3.org/2000/svg" viewBox="0 0 90.709 90.709"><circle cx="45.354" cy="45.354" r="43.52" fill="#194093"/><path d="M45.354 2.835c23.483 0 42.52 19.037 42.52 42.52s-19.037 42.52-42.52 42.52-42.52-19.037-42.52-42.52 19.037-42.52 42.52-42.52m0-2C20.806.835.834 20.806.834 45.355s19.971 44.52 44.52 44.52 44.52-19.971 44.52-44.52S69.903.835 45.354.835h0z" fill="#252e78"/><path d="M63.736 61.644c-7.079 0-12.839-5.759-12.839-12.839s5.76-12.838 12.839-12.838 12.839 5.759 12.839 12.838-5.76 12.839-12.839 12.839zm0-22.677c-5.425 0-9.839 4.414-9.839 9.838s4.414 9.839 9.839 9.839 9.839-4.414 9.839-9.839-4.414-9.838-9.839-9.838zM26.973 61.644c-7.079 0-12.839-5.759-12.839-12.839s5.76-12.838 12.839-12.838 12.838 5.759 12.838 12.838-5.759 12.839-12.838 12.839zm0-22.677c-5.425 0-9.839 4.414-9.839 9.838s4.414 9.839 9.839 9.839 9.838-4.414 9.838-9.839-4.414-9.838-9.838-9.838z" fill="#fff"/><path d="M65.203 48.086l-8.889-15.398 3.385-5.811a1.5 1.5 0 0 0-1.296-2.254h-7.65a1.5 1.5 0 1 0 0 3h5.04l-2.075 3.563H35.93a1.5 1.5 0 0 0-1.299.75l-9.324 16.151c-.269.464-.269 1.036 0 1.5a1.5 1.5 0 0 0 1.299.75h18.649a1.5 1.5 0 0 0 1.299-.75l8.026-13.901 8.025 13.901a1.5 1.5 0 0 0 1.3.75c.255 0 .513-.065.749-.202a1.5 1.5 0 0 0 .549-2.049zM35.93 35.685l6.727 11.651H29.203l6.727-11.651zm9.325 10.151l-6.727-11.651h13.454l-6.727 11.651zM34.954 30.043l4.352-1.15a2.2 2.2 0 0 0-.563-4.329H27.84a5.67 5.67 0 0 0 7.114 5.479z" fill="#f8c409"/></svg>