<?xml version="1.0" encoding="iso-8859-1"?>
<!-- Generator: Adobe Illustrator 22.1.0, SVG Export Plug-In . SVG Version: 6.00 Build 0)  -->
<svg version="1.1" xmlns="http://www.w3.org/2000/svg" xmlns:xlink="http://www.w3.org/1999/xlink" x="0px" y="0px"
	 viewBox="0 0 90.709 90.709" style="enable-background:new 0 0 90.709 90.709;" xml:space="preserve">
<g id="ratownik-1">
	<g>
		<g>
			<circle style="fill:#194093;" cx="45.354" cy="45.354" r="43.52"/>
			<g>
				<path style="fill:#252E78;" d="M45.354,2.835c23.483,0,42.52,19.037,42.52,42.52s-19.037,42.52-42.52,42.52
					s-42.52-19.037-42.52-42.52S21.871,2.835,45.354,2.835 M45.354,0.835c-24.548,0-44.52,19.971-44.52,44.52
					s19.971,44.52,44.52,44.52s44.52-19.971,44.52-44.52S69.903,0.835,45.354,0.835L45.354,0.835z"/>
			</g>
		</g>
	</g>
</g>
<g id="Warstwa_4">
	<g>
		<g>
			<path style="fill:#FFFFFF;" d="M63.736,61.644c-7.079,0-12.839-5.759-12.839-12.839c0-7.079,5.76-12.838,12.839-12.838
				s12.839,5.759,12.839,12.838C76.575,55.885,70.815,61.644,63.736,61.644z M63.736,38.967c-5.425,0-9.839,4.414-9.839,9.838
				c0,5.425,4.414,9.839,9.839,9.839s9.839-4.414,9.839-9.839C73.575,43.381,69.161,38.967,63.736,38.967z"/>
		</g>
		<g>
			<path style="fill:#FFFFFF;" d="M26.973,61.644c-7.079,0-12.839-5.759-12.839-12.839c0-7.079,5.76-12.838,12.839-12.838
				s12.838,5.759,12.838,12.838C39.811,55.885,34.052,61.644,26.973,61.644z M26.973,38.967c-5.425,0-9.839,4.414-9.839,9.838
				c0,5.425,4.414,9.839,9.839,9.839s9.838-4.414,9.838-9.839C36.811,43.381,32.397,38.967,26.973,38.967z"/>
		</g>
		<g>
			<path style="fill:#F8C409;" d="M65.203,48.086l-8.889-15.398l3.385-5.811c0.271-0.464,0.272-1.037,0.005-1.502
				c-0.268-0.465-0.764-0.752-1.301-0.752h-7.65c-0.828,0-1.5,0.671-1.5,1.5s0.672,1.5,1.5,1.5h5.04l-2.075,3.563H35.93
				c-0.536,0-1.031,0.286-1.299,0.75l-9.324,16.151c-0.269,0.464-0.269,1.036,0,1.5c0.268,0.464,0.763,0.75,1.299,0.75h18.649
				c0.536,0,1.031-0.286,1.299-0.75l8.026-13.901l8.025,13.901c0.277,0.481,0.782,0.75,1.3,0.75c0.255,0,0.513-0.065,0.749-0.202
				C65.372,49.721,65.617,48.803,65.203,48.086z M35.93,35.685l6.727,11.651H29.203L35.93,35.685z M45.255,45.836l-6.727-11.651
				h13.454L45.255,45.836z"/>
			<path style="fill:#F8C409;" d="M34.954,30.043l4.352-1.15c0.966-0.255,1.638-1.129,1.638-2.128c0-1.215-0.985-2.201-2.201-2.201
				H27.84C27.84,28.282,31.36,30.992,34.954,30.043z"/>
		</g>
	</g>
</g>
</svg>
