<?xml version="1.0" encoding="iso-8859-1"?>
<!-- Generator: Adobe Illustrator 22.1.0, SVG Export Plug-In . SVG Version: 6.00 Build 0)  -->
<svg version="1.1" xmlns="http://www.w3.org/2000/svg" xmlns:xlink="http://www.w3.org/1999/xlink" x="0px" y="0px"
	 viewBox="0 0 90.709 90.709" style="enable-background:new 0 0 90.709 90.709;" xml:space="preserve">
<g id="ratownik-1">
	<g>
		<g>
			<circle style="fill:#194093;" cx="45.354" cy="45.355" r="43.52"/>
			<g>
				<path style="fill:#252E78;" d="M45.354,2.835c23.483,0,42.52,19.037,42.52,42.52s-19.037,42.52-42.52,42.52
					s-42.52-19.037-42.52-42.52S21.871,2.835,45.354,2.835 M45.354,0.835c-24.548,0-44.52,19.971-44.52,44.52
					s19.971,44.52,44.52,44.52s44.52-19.971,44.52-44.52S69.903,0.835,45.354,0.835L45.354,0.835z"/>
			</g>
		</g>
	</g>
</g>
<g id="Warstwa_4">
	<g>
		<path style="fill:#F8C409;" d="M61.78,34.233c-0.513,1.047-1.571,1.679-2.693,1.679c-0.253,0-0.509-0.032-0.763-0.099
			c-0.46-0.121-0.913-0.182-1.346-0.182c-1.612,0-3.041,0.74-4.012,1.881L70.63,49.96l12.106,3.575
			c0.574-2.637,0.886-5.372,0.886-8.181c0-4.329-0.729-8.484-2.054-12.365L66.345,20.219l-8.715,3.206l-4.178,4.318
			c2.712,0.162,5.277,1.112,7.461,2.79C62.046,31.403,62.409,32.95,61.78,34.233z"/>
		<path style="fill:#F8C409;" d="M25.178,58.075v-4.674c0-0.976,0.475-1.891,1.273-2.453l12.578-8.856
			c-0.014-0.254-0.021-0.508-0.021-0.762c0-3.031,1.007-5.825,2.688-8.09l-7.572-5.336L16.43,42.584l-8.751-3.908
			c-0.382,2.17-0.593,4.399-0.593,6.678c0,8.067,2.502,15.546,6.763,21.716l11.482-8.092C25.241,58.692,25.178,58.392,25.178,58.075
			z"/>
		<path style="fill:#F8C409;" d="M51.746,40.322c-0.023,0.2-0.061,0.395-0.061,0.6c0,2.451,1.731,4.622,4.117,5.162
			c1.459,0.33,2.452,1.685,2.328,3.175l-0.036,0.43v8.386v1.878l4.01,0.177c0.459,0.02,0.906,0.145,1.309,0.366l7.115,3.897
			l7.755,0.455c1.553-2.618,2.803-5.435,3.701-8.406l-12.678-3.744L51.746,40.322z"/>
		<path style="fill:#F8C409;" d="M61.972,63.127l-3.878-0.171v6.204l9.566,7.279c3.355-2.412,6.302-5.35,8.722-8.698l-6.703-0.393
			L61.972,63.127z"/>
		<path style="fill:#F8C409;" d="M33.824,75.527c0-5.833,1.522-10.796,3.165-14.452h-8.812c-0.184,0-0.362-0.022-0.536-0.054
			L15.65,69.473c4.871,5.992,11.519,10.475,19.14,12.66C34.165,80.038,33.824,77.822,33.824,75.527z"/>
		<path style="fill:#FFFFFF;" d="M55.094,58.075v-8.51l0.046-0.554c-3.695-0.836-6.455-4.14-6.455-8.088
			c0-4.58,3.713-8.292,8.292-8.292c0.73,0,1.434,0.104,2.108,0.281c-1.791-1.376-4.025-2.203-6.458-2.203
			c-5.866,0-10.621,4.755-10.621,10.621c0,0.746,0.078,1.473,0.225,2.176l-14.055,9.896v4.674h13.824
			c-1.75,2.74-5.177,9.162-5.177,17.452c0,2.626,0.517,5.126,1.431,7.427c2.302,0.432,4.672,0.668,7.099,0.668
			c7.187,0,13.909-1.985,19.654-5.431l-9.914-7.544V58.075z M40.638,50.239c0-1.565,1.269-2.835,2.835-2.835
			s2.835,1.269,2.835,2.835c0,1.566-1.269,2.835-2.835,2.835S40.638,51.804,40.638,50.239z"/>
	</g>
</g>
</svg>
