<svg xmlns="http://www.w3.org/2000/svg" viewBox="0 0 90.709 90.709"><circle cx="45.354" cy="45.355" r="43.52" fill="#194093"/><path d="M45.354 2.835c23.483 0 42.52 19.037 42.52 42.52s-19.037 42.52-42.52 42.52-42.52-19.037-42.52-42.52 19.037-42.52 42.52-42.52m0-2C20.806.835.834 20.806.834 45.355s19.971 44.52 44.52 44.52 44.52-19.971 44.52-44.52S69.903.835 45.354.835h0z" fill="#252e78"/><path d="M61.78 34.233a3 3 0 0 1-2.693 1.679 2.99 2.99 0 0 1-.763-.099c-.46-.121-.913-.182-1.346-.182-1.612 0-3.041.74-4.012 1.881L70.63 49.96l12.106 3.575c.574-2.637.886-5.372.886-8.181a38.19 38.19 0 0 0-2.054-12.365l-15.223-12.77-8.715 3.206-4.178 4.318a13.48 13.48 0 0 1 7.461 2.79 3 3 0 0 1 .867 3.7zM25.178 58.075v-4.674a3 3 0 0 1 1.273-2.453l12.578-8.856-.021-.762c0-3.031 1.007-5.825 2.688-8.09l-7.572-5.336-17.694 14.68-8.751-3.908c-.382 2.17-.593 4.399-.593 6.678a38.08 38.08 0 0 0 6.763 21.716l11.482-8.092c-.09-.286-.153-.586-.153-.903zm26.568-17.753c-.023.2-.061.395-.061.6a5.33 5.33 0 0 0 4.117 5.162 3 3 0 0 1 2.328 3.175l-.036.43v8.386 1.878l4.01.177a2.99 2.99 0 0 1 1.309.366l7.115 3.897 7.755.455a38.05 38.05 0 0 0 3.701-8.406l-12.678-3.744-17.56-12.376zm10.226 22.805l-3.878-.171v6.204l9.566 7.279c3.355-2.412 6.302-5.35 8.722-8.698l-6.703-.393-7.707-4.221zm-28.148 12.4c0-5.833 1.522-10.796 3.165-14.452h-8.812a2.95 2.95 0 0 1-.536-.054L15.65 69.473c4.871 5.992 11.519 10.475 19.14 12.66a23.07 23.07 0 0 1-.966-6.606z" fill="#f8c409"/><path d="M55.094 58.075v-8.51l.046-.554c-3.695-.836-6.455-4.14-6.455-8.088 0-4.58 3.713-8.292 8.292-8.292.73 0 1.434.104 2.108.281a10.56 10.56 0 0 0-6.458-2.203c-5.866 0-10.621 4.755-10.621 10.621 0 .746.078 1.473.225 2.176l-14.055 9.896v4.674H42c-1.75 2.74-5.177 9.162-5.177 17.452a20.06 20.06 0 0 0 1.431 7.427 38.44 38.44 0 0 0 7.099.668c7.187 0 13.909-1.985 19.654-5.431l-9.914-7.544V58.075zm-14.456-7.836c0-1.565 1.269-2.835 2.835-2.835s2.835 1.269 2.835 2.835-1.269 2.835-2.835 2.835-2.835-1.27-2.835-2.835z" fill="#fff"/></svg>