<?xml version="1.0" encoding="iso-8859-1"?>
<!-- Generator: Adobe Illustrator 22.1.0, SVG Export Plug-In . SVG Version: 6.00 Build 0)  -->
<svg version="1.1" xmlns="http://www.w3.org/2000/svg" xmlns:xlink="http://www.w3.org/1999/xlink" x="0px" y="0px"
	 viewBox="0 0 90.709 90.709" style="enable-background:new 0 0 90.709 90.709;" xml:space="preserve">
<g id="ratownik-1">
	<g>
		<g>
			<circle style="fill:#194093;" cx="45.354" cy="45.355" r="43.52"/>
			<g>
				<path style="fill:#252E78;" d="M45.354,2.835c23.483,0,42.52,19.037,42.52,42.52c0,23.483-19.037,42.52-42.52,42.52
					c-23.483,0-42.52-19.037-42.52-42.52C2.835,21.871,21.871,2.835,45.354,2.835 M45.354,0.835c-24.548,0-44.52,19.972-44.52,44.52
					s19.972,44.52,44.52,44.52s44.52-19.972,44.52-44.52S69.903,0.835,45.354,0.835L45.354,0.835z"/>
			</g>
		</g>
	</g>
</g>
<g id="Warstwa_4">
	<g>
		<path style="fill:#F8C409;" d="M32.359,54.255c0,0,16.817-20.392,17.025-20.77l1.962,2.189l-3.751,9.385l5.975-7.351l3.026,2.858
			L27.407,72.209l22.855-18.392l-3.832,12.391L30.543,80.648c4.556,1.914,9.56,2.974,14.812,2.974c0.575,0,1.145-0.018,1.713-0.043
			l11.363-9.42l8.308-4.051c-1.838,3.102-6.192,8.669-6.192,8.669l16.63-12.168c4.069-6.08,6.445-13.39,6.445-21.255
			c0-0.007,0-0.014,0-0.02l-2.696-0.056l-8.951,2.627l-7.745-1.387l14.729-6.899l-3.301-7.59l-15.998-6.131l-13.967-9.05v13.418
			C41.75,38.637,32.359,54.255,32.359,54.255z"/>
		<path style="fill:#F8C409;" d="M10.484,61.113l8.923-8.172L32.232,35.24l-9,2.956L10.043,60.12
			C10.183,60.455,10.335,60.784,10.484,61.113z"/>
		<path style="fill:#F8C409;" d="M14.297,67.699c1.47,2.039,3.133,3.928,4.968,5.639l8.524-17.331L14.297,67.699z"/>
		<g>
			<path style="fill:#FFFFFF;" d="M66.738,70.109l-8.308,4.051l-11.363,9.42c12.558-0.554,23.542-7.156,30.109-16.969l-16.63,12.168
				C60.546,78.778,64.9,73.211,66.738,70.109z"/>
		</g>
		<g>
			<path style="fill:#FFFFFF;" d="M7.135,43.459c-0.031,0.628-0.048,1.26-0.048,1.896c0,5.234,1.054,10.222,2.956,14.766
				l13.189-21.924l0,0L7.135,43.459z"/>
		</g>
		<g>
			<path style="fill:#FFFFFF;" d="M10.484,61.113c1.054,2.329,2.333,4.533,3.812,6.585l13.491-11.692l-8.524,17.331
				c3.276,3.056,7.085,5.548,11.278,7.31l15.887-14.439l3.832-12.391L27.407,72.209l29.189-31.643l-3.026-2.858l-5.975,7.351
				l3.751-9.385l-1.962-2.189c-0.208,0.378-17.025,20.77-17.025,20.77s9.391-15.618,13.332-23.989V16.848l-2.793,7.007L32.232,35.24
				L19.408,52.941L10.484,61.113z"/>
		</g>
		<g>
			<path style="fill:#FFFFFF;" d="M71.974,47.905l8.951-2.627l2.696,0.056c-0.001-1.093-0.057-2.172-0.148-3.242l-4.517-2.473
				l-14.729,6.899L71.974,47.905z"/>
		</g>
	</g>
</g>
</svg>
