<svg xmlns="http://www.w3.org/2000/svg" viewBox="0 0 90.709 90.709"><circle cx="45.354" cy="45.355" r="43.52" fill="#194093"/><path d="M45.354 2.835c23.483 0 42.52 19.037 42.52 42.52s-19.037 42.52-42.52 42.52-42.52-19.037-42.52-42.52 19.037-42.52 42.52-42.52m0-2C20.806.835.834 20.807.834 45.355s19.972 44.52 44.52 44.52 44.52-19.972 44.52-44.52S69.903.835 45.354.835h0z" fill="#252e78"/><path d="M32.359 54.255l17.025-20.77 1.962 2.189-3.751 9.385 5.975-7.351 3.026 2.858-29.189 31.643 22.855-18.392-3.832 12.391-15.887 14.44c4.556 1.914 9.56 2.974 14.812 2.974.575 0 1.145-.018 1.713-.043l11.363-9.42 8.308-4.051c-1.838 3.102-6.192 8.669-6.192 8.669l16.63-12.168c4.069-6.08 6.445-13.39 6.445-21.255v-.02l-2.696-.056-8.951 2.627-7.745-1.387 14.729-6.899-3.301-7.59-15.998-6.131-13.967-9.05v13.418c-3.943 8.371-13.334 23.989-13.334 23.989zm-21.875 6.858l8.923-8.172L32.232 35.24l-9 2.956L10.043 60.12l.441.993zm3.813 6.586a38.46 38.46 0 0 0 4.968 5.639l8.524-17.331-13.492 11.692z" fill="#f8c409"/><path d="M66.738 70.109L58.43 74.16l-11.363 9.42c12.558-.554 23.542-7.156 30.109-16.969l-16.63 12.168c0-.001 4.354-5.568 6.192-8.67zM7.135 43.459l-.048 1.896c0 5.234 1.054 10.222 2.956 14.766l13.189-21.924h0L7.135 43.459zm3.349 17.654a38.19 38.19 0 0 0 3.812 6.585l13.491-11.692-8.524 17.331c3.276 3.056 7.085 5.548 11.278 7.31l15.887-14.439 3.832-12.391-22.853 18.392 29.189-31.643-3.026-2.858-5.975 7.351 3.751-9.385-1.962-2.189c-.208.378-17.025 20.77-17.025 20.77s9.391-15.618 13.332-23.989V16.848l-2.793 7.007L32.232 35.24 19.408 52.941l-8.924 8.172zm61.49-13.208l8.951-2.627 2.696.056-.148-3.242-4.517-2.473-14.729 6.899 7.747 1.387z" fill="#fff"/></svg>