<?xml version="1.0" encoding="utf-8"?>
<!-- Generator: Adobe Illustrator 24.2.0, SVG Export Plug-In . SVG Version: 6.00 Build 0)  -->
<svg version="1.1" id="Warstwa_2" xmlns="http://www.w3.org/2000/svg" x="0px" y="0px"
	 viewBox="0 0 87.87 87.87" style="enable-background:new 0 0 87.87 87.87;" xml:space="preserve">
<g>
	<g>
		<path d="M39.64,77.17l-1.14,8.93c1.79,0.23,3.62,0.35,5.44,0.35c1.88,0,3.76-0.13,5.61-0.37l-1.18-8.92
			C45.5,77.53,42.51,77.54,39.64,77.17z"/>
		<path d="M69.8,10.35c-2.94-2.26-6.16-4.13-9.58-5.55l-3.46,8.31c2.69,1.12,5.23,2.59,7.55,4.37L69.8,10.35z"/>
		<path d="M4.77,60.37c1.43,3.41,3.3,6.63,5.57,9.57l7.12-5.5c-1.79-2.31-3.26-4.85-4.39-7.53L4.77,60.37z"/>
		<path d="M18.19,77.74c2.95,2.25,6.18,4.11,9.6,5.52l3.43-8.32c-2.69-1.11-5.24-2.57-7.56-4.35L18.19,77.74z"/>
		<path d="M56.78,74.89l3.46,8.31c3.41-1.42,6.63-3.29,9.57-5.55l-5.49-7.13C62.01,72.29,59.47,73.77,56.78,74.89z"/>
		<path d="M86.02,38.46l-8.92,1.17c0.19,1.44,0.28,2.91,0.28,4.38c0,1.45-0.1,2.92-0.28,4.36l8.93,1.15
			c0.24-1.82,0.36-3.67,0.36-5.51C86.38,42.15,86.26,40.28,86.02,38.46z"/>
		<path d="M70.49,64.33l7.14,5.48c2.26-2.94,4.12-6.17,5.54-9.59l-8.32-3.44C73.74,59.47,72.27,62.01,70.49,64.33z"/>
		<path d="M83.16,27.76c-1.42-3.42-3.28-6.64-5.54-9.58l-7.14,5.48c1.78,2.32,3.25,4.86,4.37,7.55L83.16,27.76z"/>
		<path d="M10.5,44c0-18.44,15-33.44,33.44-33.44c1.47,0,2.95,0.1,4.4,0.29l1.17-8.92c-1.84-0.24-3.71-0.36-5.58-0.36
			C20.54,1.56,1.5,20.6,1.5,44c0,1.87,0.12,3.74,0.36,5.58l8.92-1.17C10.59,46.96,10.5,45.47,10.5,44z"/>
	</g>
	<g>
		<g>
			<path d="M57.08,52.05l-3.74-3.32c2.03-2.29,3.15-5.22,3.15-8.28c0-6.88-5.6-12.47-12.47-12.47c-6.88,0-12.47,5.59-12.47,12.47
				c0,2.9,1.02,5.72,2.86,7.95l-3.85,3.19c-2.59-3.12-4.01-7.08-4.01-11.14c0-9.63,7.84-17.47,17.47-17.47
				c9.63,0,17.47,7.84,17.47,17.47C61.49,44.73,59.93,48.85,57.08,52.05z"/>
		</g>
		<g>
			<rect x="34.49" y="52.24" width="19.06" height="5"/>
		</g>
		<g>
			<rect x="37.98" y="60.03" width="12.08" height="5"/>
		</g>
	</g>
</g>
</svg>
