<?xml version="1.0" encoding="utf-8"?>
<!-- Generator: Adobe Illustrator 24.2.0, SVG Export Plug-In . SVG Version: 6.00 Build 0)  -->
<svg version="1.1" id="Warstwa_3" xmlns="http://www.w3.org/2000/svg" x="0px" y="0px"
	 viewBox="0 0 87.87 87.87" style="enable-background:new 0 0 87.87 87.87;" xml:space="preserve">
<g>
	<g>
		<path d="M4.74,60.12c1.42,3.41,3.28,6.63,5.54,9.57l7.13-5.49c-1.78-2.32-3.25-4.85-4.37-7.54L4.74,60.12z"/>
		<path d="M18.09,77.51c2.94,2.26,6.16,4.12,9.57,5.54l3.45-8.31c-2.69-1.12-5.22-2.58-7.54-4.37L18.09,77.51z"/>
		<path d="M43.94,1.4C20.54,1.4,1.5,20.44,1.5,43.84c0,1.86,0.12,3.74,0.36,5.57l8.92-1.17c-0.19-1.45-0.29-2.93-0.29-4.4
			c0-18.44,15-33.44,33.44-33.44c18.44,0,33.44,15,33.44,33.44c0,18.44-15,33.44-33.44,33.44c-1.47,0-2.95-0.1-4.4-0.29l-1.17,8.92
			c1.84,0.24,3.71,0.36,5.57,0.36c23.4,0,42.44-19.04,42.44-42.44C86.38,20.44,67.34,1.4,43.94,1.4z"/>
	</g>
	<g>
		<polygon points="28.26,34.64 37.17,34.64 37.17,29.64 23.26,29.64 23.26,62.87 54.89,62.87 54.89,57.87 28.26,57.87 		"/>
		<path d="M74.05,38.42H59.14c-0.74,0-1.33-0.6-1.33-1.33V21.33c0-2.39-1.95-4.33-4.34-4.33h-4.31c-2.39,0-4.33,1.94-4.33,4.33v4.69
			h-2.06v17.47h1.78v11.12h3.56V43.49h1.78V26.03h-2.06v-4.69c0-0.74,0.6-1.33,1.33-1.33h4.31c0.74,0,1.34,0.6,1.34,1.33v15.75
			c0,2.39,1.94,4.33,4.33,4.33h15.29C74.36,40.41,74.23,39.4,74.05,38.42z"/>
	</g>
</g>
</svg>
