<?xml version="1.0" encoding="utf-8"?>
<!-- Generator: Adobe Illustrator 24.2.0, SVG Export Plug-In . SVG Version: 6.00 Build 0)  -->
<svg version="1.1" id="Warstwa_2" xmlns="http://www.w3.org/2000/svg" x="0px" y="0px"
	 viewBox="0 0 87.87 87.87" style="enable-background:new 0 0 87.87 87.87;" xml:space="preserve">
<g>
	<g>
		<g>
			<g>
				<g>
					<path d="M4.74,60.23c1.42,3.42,3.29,6.64,5.55,9.59l7.15-5.5c-1.78-2.32-3.26-4.86-4.38-7.55L4.74,60.23z"/>
					<path d="M18.13,77.65c2.94,2.26,6.17,4.13,9.59,5.55l3.46-8.33c-2.69-1.12-5.23-2.59-7.55-4.37L18.13,77.65z"/>
					<path d="M44.01,1.4C20.57,1.4,1.5,20.48,1.5,43.92c0,1.87,0.12,3.75,0.36,5.58l8.94-1.18c-0.19-1.45-0.29-2.93-0.29-4.41
						c0-18.47,15.03-33.5,33.5-33.5c18.48,0,33.51,15.03,33.51,33.5c0,18.47-15.03,33.5-33.51,33.5c-1.47,0-2.96-0.1-4.41-0.29
						l-1.17,8.94c1.84,0.24,3.72,0.36,5.58,0.36c23.45,0,42.52-19.07,42.52-42.51C86.54,20.48,67.46,1.4,44.01,1.4z"/>
				</g>
			</g>
		</g>
	</g>
	<path d="M49.32,62.07c-2.15,0-3.9-1.75-3.9-3.9v-4.43c4.91-1.04,8.59-5.39,8.59-10.61v-5.82h1.38v-3h-4.8V23.14h-3.5v11.17h-7.85
		V23.14h-3.5v11.17h-4.8v3h1.38v5.82c0,5.22,3.69,9.57,8.59,10.61v4.43c0,4.63,3.77,8.4,8.4,8.4h8.56v-4.5H49.32z"/>
</g>
</svg>
