<?xml version="1.0" encoding="utf-8"?>
<!-- Generator: Adobe Illustrator 24.2.0, SVG Export Plug-In . SVG Version: 6.00 Build 0)  -->
<svg version="1.1" id="Warstwa_3" xmlns="http://www.w3.org/2000/svg" x="0px" y="0px"
	 viewBox="0 0 87.87 87.87" style="enable-background:new 0 0 87.87 87.87;" xml:space="preserve">
<g>
	<g>
		<path d="M44.02,1.4C20.57,1.4,1.5,20.47,1.5,43.92c0,23.44,19.07,42.52,42.52,42.52c23.45,0,42.52-19.07,42.52-42.52
			C86.54,20.47,67.46,1.4,44.02,1.4z M44.02,77.42c-18.47,0-33.5-15.03-33.5-33.5c0-18.47,15.03-33.5,33.5-33.5
			c18.47,0,33.5,15.03,33.5,33.5C77.52,62.39,62.49,77.42,44.02,77.42z"/>
	</g>
	<path d="M67.35,39.34h-1.44v-6.45h-2v6.45h-1.44v13.61h1.59v7.04h-5.86v-7.04h1.3V39.34h-1.44v-6.45h-2v6.45h-1.44v13.61h1.59v7.04
		h-6.1V25.13H25.38v36.85h23.3h1.42h6.44h1.66h7.86v-9.04h1.3V39.34z M43.7,53.32L33.54,43.15c1.19-0.84,2.64-1.33,4.2-1.33
		c4.03,0,7.3,3.27,7.3,7.3C45.04,50.69,44.54,52.13,43.7,53.32z M30.43,49.12c0-1.57,0.5-3.01,1.34-4.2l10.17,10.17
		c-1.19,0.84-2.64,1.33-4.2,1.33C33.7,56.42,30.43,53.15,30.43,49.12z M45.94,33.9h-16.4v-4.27h16.4V33.9z"/>
</g>
</svg>
