<?xml version="1.0" encoding="utf-8"?>
<!-- Generator: Adobe Illustrator 24.2.0, SVG Export Plug-In . SVG Version: 6.00 Build 0)  -->
<svg version="1.1" id="Warstwa_2" xmlns="http://www.w3.org/2000/svg" x="0px" y="0px"
	 viewBox="0 0 87.87 87.87" style="enable-background:new 0 0 87.87 87.87;" xml:space="preserve">
<g>
	<g>
		<g>
			<g>
				<path d="M44.02,1.4C20.57,1.4,1.5,20.47,1.5,43.92c0,23.44,19.07,42.52,42.52,42.52c23.45,0,42.52-19.07,42.52-42.52
					C86.54,20.47,67.46,1.4,44.02,1.4z M44.02,77.42c-18.47,0-33.5-15.03-33.5-33.5c0-18.47,15.03-33.5,33.5-33.5
					c18.47,0,33.5,15.03,33.5,33.5C77.52,62.39,62.49,77.42,44.02,77.42z"/>
			</g>
		</g>
	</g>
	<g>
		<g>
			<path d="M44.02,42.35c-1.45,0-2.63-1.17-2.63-2.63V24.01c0-1.45,1.18-2.63,2.63-2.63s2.63,1.17,2.63,2.63v15.72
				C46.64,41.18,45.47,42.35,44.02,42.35z"/>
		</g>
		<g>
			<path d="M50.56,26.36l-0.33-0.12v6.29l0.13,0.07c4.42,2.36,7.17,6.92,7.17,11.91c0,7.45-6.06,13.51-13.51,13.51
				c-7.45,0-13.51-6.06-13.51-13.51c0-4.99,2.75-9.55,7.17-11.91l0.13-0.07v-6.29l-0.33,0.12c-7.65,2.76-12.78,10.06-12.78,18.15
				c0,10.66,8.67,19.33,19.33,19.33s19.33-8.67,19.33-19.33C63.34,36.41,58.21,29.12,50.56,26.36z"/>
		</g>
	</g>
</g>
</svg>
