<?xml version="1.0" encoding="utf-8"?>
<!-- Generator: Adobe Illustrator 24.2.0, SVG Export Plug-In . SVG Version: 6.00 Build 0)  -->
<svg version="1.1" id="Warstwa_3" xmlns="http://www.w3.org/2000/svg" x="0px" y="0px"
	 viewBox="0 0 87.87 87.87" style="enable-background:new 0 0 87.87 87.87;" xml:space="preserve">
<g>
	<path d="M43.94,1.4C20.54,1.4,1.5,20.44,1.5,43.84c0,23.4,19.04,42.44,42.44,42.44c23.4,0,42.44-19.04,42.44-42.44
		C86.38,20.44,67.34,1.4,43.94,1.4z M43.94,77.28c-18.44,0-33.44-15-33.44-33.44c0-18.44,15-33.44,33.44-33.44
		c18.44,0,33.44,15,33.44,33.44C77.38,62.28,62.38,77.28,43.94,77.28z"/>
	<path d="M68.85,39.15v-3h-8.64v-4.6H51.7v-8.76h-3v8.76h-9.39v-8.76h-3v8.76h-8.52v4.6h-8.77v3h8.77v9.39h-8.77v3h8.77v4.6h8.52
		v8.76h3v-8.76h9.39v8.76h3v-8.76h8.52v-4.6h8.64v-3h-8.64v-9.39H68.85z M55.22,51.14H32.79v-14.6h22.43V51.14z"/>
</g>
</svg>
