<?xml version="1.0" encoding="utf-8"?>
<!-- Generator: Adobe Illustrator 24.2.0, SVG Export Plug-In . SVG Version: 6.00 Build 0)  -->
<svg version="1.1" xmlns="http://www.w3.org/2000/svg" x="0px" y="0px"
	 viewBox="0 0 87.87 87.87" style="enable-background:new 0 0 87.87 87.87;" xml:space="preserve">
<g id="Warstwa_3">
	<g>
		<g>
			<g>
				<g>
					<g>
						<g>
							<path d="M39.71,77.14l-1.15,8.94c1.8,0.23,3.63,0.35,5.45,0.35c1.88,0,3.77-0.13,5.62-0.37l-1.18-8.94
								C45.58,77.51,42.59,77.51,39.71,77.14z"/>
						</g>
						<g>
							<path d="M69.93,10.2c-2.94-2.27-6.18-4.14-9.6-5.56l-3.46,8.33c2.7,1.12,5.24,2.59,7.56,4.38L69.93,10.2z"/>
						</g>
						<g>
							<path d="M4.78,60.31c1.43,3.42,3.3,6.64,5.58,9.58l7.13-5.51c-1.79-2.32-3.27-4.86-4.39-7.55L4.78,60.31z"/>
						</g>
						<g>
							<path d="M18.22,77.71c2.95,2.26,6.19,4.12,9.62,5.53l3.43-8.34c-2.7-1.11-5.25-2.58-7.57-4.36L18.22,77.71z"/>
						</g>
						<g>
							<path d="M56.89,74.86l3.47,8.32c3.42-1.42,6.65-3.3,9.59-5.57l-5.5-7.14C62.12,72.26,59.58,73.73,56.89,74.86z"/>
						</g>
						<g>
							<path d="M86.18,38.36l-8.94,1.17c0.19,1.44,0.28,2.92,0.28,4.39c0,1.46-0.1,2.92-0.28,4.36l8.94,1.16
								c0.24-1.82,0.36-3.68,0.36-5.52C86.54,42.06,86.42,40.19,86.18,38.36z"/>
						</g>
						<g>
							<path d="M70.62,64.28l7.15,5.49c2.26-2.95,4.13-6.18,5.55-9.61l-8.33-3.45C73.87,59.41,72.4,61.96,70.62,64.28z"/>
						</g>
						<g>
							<path d="M83.31,27.64c-1.42-3.42-3.29-6.65-5.55-9.6l-7.15,5.49c1.78,2.32,3.26,4.87,4.38,7.56L83.31,27.64z"/>
						</g>
						<g>
							<path d="M10.51,43.91c0-18.47,15.03-33.5,33.5-33.5c1.48,0,2.96,0.1,4.41,0.29l1.17-8.94c-1.84-0.24-3.72-0.36-5.59-0.36
								C20.57,1.39,1.5,20.47,1.5,43.91c0,1.87,0.12,3.75,0.36,5.59l8.94-1.18C10.61,46.87,10.51,45.39,10.51,43.91z"/>
						</g>
					</g>
				</g>
			</g>
		</g>
		<path d="M69.33,56.38c-7.56-2.7-8.61-9.56-9.65-13.12c0.69,0.74,1.28,1.31,2.74,3.67c-0.04-3.3-6.33-17.59-12.4-20.6
			C44,23.35,38.47,23.99,33.8,28.75c-3,0.37-6.82,1.21-8.36,2.95c-2.67,3.01-1.18,6.62-0.95,7.13c0.59-2.28,4.93-4.55,6.44-3.71
			c0.09,0.05,0.19,0.06,0.3,0.06c0.18,0.35,0.44,0.66,0.78,0.91c2.78,2.06,5.04,4.16,5.57,7.25c0.57,3.34,0.31,4.69-2.68,10.68
			c-1.29,2.59-1.67,4.91-1.62,6.86l-0.01,0c0,0,0,0.08,0.01,0.2c0.09,2.01,0.65,3.62,1.16,4.69c0.01,0,0.02,0,0.03,0
			c0.73,1.8,1.9,3.87,3.79,5.84c-0.36-3.36,0.84-3.36,0.84-3.36s0.84,1.32,3.6,2.16c-0.96-3.24,0.48-5.04,0.48-5.04
			s2.28,4.08,5.76,4.92c-1.68-2.64-0.36-5.52-0.36-5.52c1.8,2.16,4.8,2.4,6.36,2.64c-2.64-2.76-2.03-4.55-2.03-4.55
			s4.01,2.37,8.69,1.65c-1.08-0.48-3.6-2.8-2.64-3.94c0.67-0.79,3.42-1.52,5.76,0.58c-0.09-1.37-1.01-2.87-1.45-3.52
			C67.66,57.86,68.2,57.01,69.33,56.38z"/>
	</g>
</g>
<g id="Warstwa_2">
</g>
</svg>
