<?xml version="1.0" encoding="utf-8"?>
<!-- Generator: Adobe Illustrator 24.2.0, SVG Export Plug-In . SVG Version: 6.00 Build 0)  -->
<svg version="1.1" xmlns="http://www.w3.org/2000/svg" x="0px" y="0px"
	 viewBox="0 0 87.87 87.87" style="enable-background:new 0 0 87.87 87.87;" xml:space="preserve">
<g id="Warstwa_3">
	<g>
		<g>
			<g>
				<g>
					<g>
						<g>
							<g>
								<path d="M4.74,60.23c1.42,3.42,3.29,6.64,5.55,9.59l7.15-5.5c-1.78-2.32-3.26-4.86-4.38-7.55L4.74,60.23z"/>
								<path d="M18.13,77.65c2.94,2.26,6.17,4.13,9.59,5.55l3.46-8.33c-2.69-1.12-5.23-2.59-7.55-4.37L18.13,77.65z"/>
								<path d="M44.01,1.4C20.57,1.4,1.5,20.48,1.5,43.92c0,1.87,0.12,3.75,0.36,5.58l8.94-1.18c-0.19-1.45-0.29-2.93-0.29-4.41
									c0-18.47,15.03-33.5,33.5-33.5c18.48,0,33.51,15.03,33.51,33.5c0,18.47-15.03,33.5-33.51,33.5c-1.47,0-2.96-0.1-4.41-0.29
									l-1.17,8.94c1.84,0.24,3.72,0.36,5.58,0.36c23.45,0,42.52-19.07,42.52-42.51C86.54,20.48,67.46,1.4,44.01,1.4z"/>
							</g>
						</g>
					</g>
				</g>
			</g>
		</g>
		<g>
			<g>
				<path d="M27.96,32.83c0,0-7.47,0.79-6.75,3.63c0.71,2.84,1.95,6.22,5.53,8.68c-0.53-2.68,0.52-3.55,1.3-3.86
					c1.58-0.63,3.64-0.62,5.48,3.9c1.39,3.4,0.88,5.24-0.57,5.94c-0.75,0.36-1.92,0.68-3.16-0.97c-1.52-2.03-0.03,4.46,0.73,5.51
					s1.35,1.8,2.47,1.97c1.12,0.17,4.72-2.48,5.28-2.86c1.71-1.19,3.99-0.69,4.83,0.72c0.5,0.85,3.56,12.62,3.19,14.02
					c12.04,0.51,21.43-8.85,22.58-18.34c-4.45-7.5-8.79-12.49-14.62-16.66c2.26-0.59,4.39-0.4,5.11,0.14
					c-1.41-2.31-7.26-4.52-10.18-3.8c-4.29-1.73-12.19-2.41-16.34-1.09C28.86,31.06,27.96,32.83,27.96,32.83z"/>
			</g>
		</g>
	</g>
</g>
<g id="Warstwa_2">
</g>
</svg>
