<?xml version="1.0" encoding="utf-8"?>
<!-- Generator: Adobe Illustrator 24.2.0, SVG Export Plug-In . SVG Version: 6.00 Build 0)  -->
<svg version="1.1" xmlns="http://www.w3.org/2000/svg" x="0px" y="0px"
	 viewBox="0 0 87.87 87.87" style="enable-background:new 0 0 87.87 87.87;" xml:space="preserve">
<g id="Warstwa_3">
	<g>
		<g>
			<g>
				<g>
					<g>
						<path d="M44.02,1.4C20.57,1.4,1.5,20.47,1.5,43.92c0,23.44,19.07,42.52,42.52,42.52c23.45,0,42.52-19.07,42.52-42.52
							C86.54,20.47,67.46,1.4,44.02,1.4z M44.02,77.42c-18.47,0-33.5-15.03-33.5-33.5c0-18.47,15.03-33.5,33.5-33.5
							c18.47,0,33.5,15.03,33.5,33.5C77.52,62.39,62.49,77.42,44.02,77.42z"/>
					</g>
				</g>
			</g>
		</g>
		<path d="M42.8,69.79c-0.51-0.97-1.07-1.99-1.17-3.09c0.05,0,0.11,0,0.16,0.01c-0.06-0.16-0.12-0.31-0.18-0.47
			c0-0.08,0.01-0.17,0.02-0.25c0.02-0.23-0.11-0.39-0.28-0.45c-0.09-0.25-0.19-0.5-0.28-0.75c-0.06-0.17-0.13-0.34-0.16-0.52
			c-0.34-2.38-1.68-4.16-3.36-5.78c-1.23-1.18-1.67-2.77-1.72-4.41c-0.11-3.24-1.58-5.93-3.38-8.46c-0.96-1.36-2.15-2.56-3.28-3.79
			c-1.25-1.37-2.63-2.52-4.46-3.1c-1.75-0.55-2.87-2.89-2.38-4.66c0.11-0.41,0.3-0.81,0.82-0.69c0.59,0.13,0.97-0.08,1.27-0.57
			c0.08-0.13,0.22-0.22,0.34-0.33c0.45,0.37,0.39,1.22,1.34,1.15c-0.18-0.37-0.3-0.69-0.47-0.98c-0.61-1.03-1.25-2.08-1.15-3.32
			c0.09-1.06,0.34-2.1,0.55-3.14c0.11-0.54,0.42-0.68,0.92-0.38c1.48,0.87,2.94,1.77,4.46,2.57c1.89,0.99,3.83,1.89,5.75,2.84
			c0.84,0.42,1.68,0.41,2.51,0.05c0.78-0.33,1.55-0.27,2.31-0.02c1.35,0.46,2.71,0.92,4.03,1.47c1.44,0.6,2.89,0.79,4.43,0.59
			c1.54-0.2,3.1-0.32,4.59,0.33c0.87,0.38,1.11,0.78,0.74,1.66c-0.36,0.85-0.84,1.65-1.33,2.43c-0.34,0.55-0.76,1.04-1.12,1.52
			c0.79,0.98,1.62,1.83,2.24,2.81c0.82,1.3,1.83,2.38,2.97,3.39c1.89,1.68,3.48,3.64,4.91,5.73c0.21,0.31,0.49,0.62,0.81,0.78
			c1.02,0.51,2.08,0.94,3.1,1.4c0.03-0.06,0.07-0.12,0.1-0.18c0.65,0.24,1.25,0.69,1.83,1.03c0.7,0.41,1.44,0.75,2.2,1.04
			c-1.13,2.08-2.52,4.05-4.17,5.91c-4.03,4.54-9.01,7.57-14.88,9.14c-0.17,0.05-0.34,0.13-0.5,0.19l-4.42,0.74
			c-0.98,0.01-1.96,0.05-2.93,0.05C43.32,70.78,43.06,70.28,42.8,69.79z"/>
	</g>
</g>
<g id="Warstwa_2">
</g>
</svg>
