<?xml version="1.0" encoding="utf-8"?>
<!-- Generator: Adobe Illustrator 24.2.0, SVG Export Plug-In . SVG Version: 6.00 Build 0)  -->
<svg version="1.1" id="Warstwa_4" xmlns="http://www.w3.org/2000/svg" x="0px" y="0px"
	 viewBox="0 0 87.87 87.87" style="enable-background:new 0 0 87.87 87.87;" xml:space="preserve">
<g>
	<g>
		<g>
			<g>
				<g>
					<g>
						<path d="M4.74,60.23c1.42,3.42,3.29,6.64,5.55,9.59l7.15-5.5c-1.78-2.32-3.26-4.86-4.38-7.55L4.74,60.23z"/>
					</g>
					<g>
						<path d="M18.13,77.65c2.94,2.26,6.17,4.13,9.59,5.55l3.46-8.33c-2.69-1.12-5.23-2.59-7.55-4.37L18.13,77.65z"/>
					</g>
					<g>
						<path d="M44.01,1.4C20.57,1.4,1.5,20.48,1.5,43.92c0,1.87,0.12,3.75,0.36,5.58l8.94-1.18c-0.19-1.45-0.29-2.93-0.29-4.41
							c0-18.47,15.03-33.5,33.5-33.5c18.48,0,33.51,15.03,33.51,33.5c0,18.47-15.03,33.5-33.51,33.5c-1.47,0-2.96-0.1-4.41-0.29
							l-1.17,8.94c1.84,0.24,3.72,0.36,5.58,0.36c23.45,0,42.52-19.07,42.52-42.51C86.54,20.48,67.46,1.4,44.01,1.4z"/>
					</g>
				</g>
			</g>
		</g>
	</g>
	<g>
		<path d="M44.02,56.55c-3.25,0-5.88,2.63-5.88,5.88c0,3.25,2.63,5.88,5.88,5.88s5.88-2.63,5.88-5.88
			C49.89,59.18,47.26,56.55,44.02,56.55z M44.02,65.8c-1.86,0-3.38-1.51-3.38-3.38c0-1.86,1.51-3.38,3.38-3.38
			c1.86,0,3.38,1.51,3.38,3.38C47.39,64.29,45.88,65.8,44.02,65.8z"/>
		<path d="M44.02,33.28c3.25,0,5.88-2.63,5.88-5.88c0-3.25-2.63-5.88-5.88-5.88s-5.88,2.63-5.88,5.88
			C38.14,30.65,40.77,33.28,44.02,33.28z M44.02,24.03c1.86,0,3.38,1.51,3.38,3.38c0,1.86-1.51,3.38-3.38,3.38
			c-1.86,0-3.38-1.51-3.38-3.38C40.64,25.55,42.16,24.03,44.02,24.03z"/>
		<ellipse transform="matrix(0.9732 -0.2298 0.2298 0.9732 -9.6108 7.2917)" cx="26.51" cy="44.92" rx="5.6" ry="5.6"/>
		<ellipse transform="matrix(0.7071 -0.7071 0.7071 0.7071 -13.7409 56.6618)" cx="61.53" cy="44.92" rx="5.6" ry="5.6"/>
		<polygon points="60.47,30.63 57.64,27.8 43.98,41.46 30.31,27.8 27.48,30.63 41.15,44.29 27.48,57.95 30.31,60.78 43.98,47.12 
			57.64,60.78 60.47,57.95 46.8,44.29 		"/>
	</g>
</g>
</svg>
