<?xml version="1.0" encoding="utf-8"?>
<!-- Generator: Adobe Illustrator 24.2.0, SVG Export Plug-In . SVG Version: 6.00 Build 0)  -->
<svg version="1.1" xmlns="http://www.w3.org/2000/svg" x="0px" y="0px"
	 viewBox="0 0 87.87 87.87" style="enable-background:new 0 0 87.87 87.87;" xml:space="preserve">
<g id="Warstwa_3">
</g>
<g id="Warstwa_2">
	<g>
		<g>
			<path d="M44.02,1.4C20.57,1.4,1.5,20.47,1.5,43.92c0,23.44,19.07,42.52,42.52,42.52c23.45,0,42.52-19.07,42.52-42.52
				C86.54,20.47,67.46,1.4,44.02,1.4z M44.02,77.42c-18.47,0-33.5-15.03-33.5-33.5c0-18.47,15.03-33.5,33.5-33.5
				c18.47,0,33.5,15.03,33.5,33.5C77.52,62.39,62.49,77.42,44.02,77.42z"/>
		</g>
		<g>
			<rect x="31.15" y="60.95" width="25.73" height="3.7"/>
			<path d="M51.81,30.66c-2.32,0-4.47,0.68-6.29,1.84v-5.45h3.22v-3h-3.22v-3.22h-3v3.22H39.3v3h3.22v5.45
				c-1.82-1.16-3.97-1.84-6.29-1.84c-6.49,0-11.76,5.27-11.76,11.76c0,4.75,2.82,8.83,6.87,10.69v5.27H56.7V53.1
				c4.05-1.86,6.87-5.94,6.87-10.69C63.57,35.92,58.3,30.66,51.81,30.66z"/>
		</g>
	</g>
</g>
</svg>
