<?xml version="1.0" encoding="utf-8"?>
<!-- Generator: Adobe Illustrator 24.2.0, SVG Export Plug-In . SVG Version: 6.00 Build 0)  -->
<svg version="1.1" id="Warstwa_3" xmlns="http://www.w3.org/2000/svg" x="0px" y="0px"
	 viewBox="0 0 87.87 87.87" style="enable-background:new 0 0 87.87 87.87;" xml:space="preserve">
<g>
	<g>
		<path d="M44.02,1.4C20.57,1.4,1.5,20.47,1.5,43.92c0,23.44,19.07,42.52,42.52,42.52c23.45,0,42.52-19.07,42.52-42.52
			C86.54,20.47,67.46,1.4,44.02,1.4z M44.02,77.42c-18.47,0-33.5-15.03-33.5-33.5c0-18.47,15.03-33.5,33.5-33.5
			c18.47,0,33.5,15.03,33.5,33.5C77.52,62.39,62.49,77.42,44.02,77.42z"/>
	</g>
</g>
<g>
	<polygon points="49.96,24.48 46.96,24.48 46.96,63.35 42.36,63.35 42.36,24.48 39.36,24.48 39.36,63.35 31.18,63.35 31.18,66.35 
		58.3,66.35 58.3,63.35 49.96,63.35 	"/>
	<path d="M51.63,24.48v20.43l19.35-10.17L51.63,24.48z M58.23,36.9c-1.27,0-2.3-1.03-2.3-2.3s1.03-2.3,2.3-2.3
		c1.27,0,2.3,1.03,2.3,2.3S59.5,36.9,58.23,36.9z"/>
	<path d="M37.84,24.48L18.49,34.65l19.35,10.26V24.48z M36.09,42l-13.85-7.34l13.85-7.28V42z"/>
	<circle cx="31.24" cy="34.6" r="2.3"/>
</g>
</svg>
