<?xml version="1.0" encoding="utf-8"?>
<!-- Generator: Adobe Illustrator 24.2.0, SVG Export Plug-In . SVG Version: 6.00 Build 0)  -->
<svg version="1.1" id="Warstwa_3" xmlns="http://www.w3.org/2000/svg" x="0px" y="0px"
	 viewBox="0 0 87.87 87.87" style="enable-background:new 0 0 87.87 87.87;" xml:space="preserve">
<g>
	<path d="M44.02,1.4C20.57,1.4,1.5,20.47,1.5,43.92c0,23.44,19.07,42.52,42.52,42.52c23.45,0,42.52-19.07,42.52-42.52
		C86.54,20.47,67.46,1.4,44.02,1.4z M44.02,77.42c-18.47,0-33.5-15.03-33.5-33.5c0-18.47,15.03-33.5,33.5-33.5
		c18.47,0,33.5,15.03,33.5,33.5C77.52,62.39,62.49,77.42,44.02,77.42z"/>
</g>
<g>
	<path d="M34.46,50.61c0,1.9,1.54,3.44,3.44,3.44s3.44-1.54,3.44-3.44c0-1.9-1.54-3.44-3.44-3.44S34.46,48.7,34.46,50.61z"/>
	<path d="M52.04,16.87L32.62,36.29h-9.04v28.64h28.64v-9.15l19.36-19.36L52.04,16.87z M48.22,60.93H27.59V40.29h8.79l11.85,11.85
		V60.93z M49.31,27.86c1.35-1.35,3.53-1.35,4.87,0c1.35,1.35,1.35,3.53,0,4.87s-3.53,1.35-4.87,0
		C47.97,31.39,47.97,29.21,49.31,27.86z M49.9,44.96c-1.35-1.35-1.35-3.53,0-4.87c1.35-1.35,3.53-1.35,4.87,0
		c1.35,1.35,1.35,3.53,0,4.87S51.25,46.3,49.9,44.96z"/>
</g>
</svg>
