<svg xmlns="http://www.w3.org/2000/svg" viewBox="0 0 117.16 117.16" width="156.213" height="156.213"  xmlns:v="https://vecta.io/nano"><defs><clipPath id="A"><path d="M0 0h117.16v117.16H0z"/></clipPath></defs><g clip-path="url(#A)" fill="#231f20"><path d="M52.853 102.8l-1.533 11.907c2.405.309 4.828.465 7.253.466a58.23 58.23 0 0 0 7.48-.493l-1.573-11.893c-3.827.506-7.8.506-11.627.013zm40.214-89.093a56.52 56.52 0 0 0-12.774-7.4l-4.613 11.08c3.594 1.497 6.978 3.456 10.067 5.826l7.32-9.506zM6.36 80.413c1.907 4.547 4.4 8.84 7.427 12.76l9.493-7.333a44.79 44.79 0 0 1-5.853-10.04L6.36 80.413zm17.893 23.147a56.9 56.9 0 0 0 12.8 7.36l4.574-11.093c-3.6-1.483-6.989-3.433-10.08-5.8l-7.294 9.533zm51.454-3.8l4.613 11.08c4.56-1.901 8.85-4.393 12.76-7.413l-7.32-9.507c-3.078 2.382-6.459 4.346-10.053 5.84h0zm38.986-48.573l-11.893 1.56c.252 1.936.376 3.887.373 5.84.003 1.944-.122 3.885-.373 5.813l11.907 1.547c.32-2.427.466-4.907.466-7.347a56.89 56.89 0 0 0-.48-7.413h0zM93.987 85.693l9.52 7.307a56.59 56.59 0 0 0 7.386-12.787L99.8 75.627c-1.48 3.586-3.44 6.973-5.813 10.066zM110.88 36.92c-1.893-4.56-4.373-8.853-7.387-12.773l-9.52 7.306A44.87 44.87 0 0 1 99.8 41.52l11.08-4.6zM14 58.587C14 34 34 14 58.587 14a45.53 45.53 0 0 1 5.88.387l1.56-11.894C63.56 2.16 61.067 2 58.587 2 27.387 2 2 27.387 2 58.587c0 2.487.16 4.973.48 7.44l11.893-1.574A45.3 45.3 0 0 1 14 58.587h0zm16.093 3.146c.694 9.294 12.8 16.68 27.627 16.68s26.933-7.4 27.627-16.68H30.093z"/><path d="M88.2 44.587l-18.893-6.36-11.454-9.414L46.4 38.227l-18.907 6.36 4 7.28-1.56 5.173H85.76l-1.56-5.173 4-7.28zm-23.76-.88c-.333-.694-1.12-1.24-2.427-1.24-.693 0-1.346.306-1.88.84l.174-.96c.053-.4.093-.747.066-1.014a4.84 4.84 0 0 0-.493-1.92c-.28-.56-.68-1.08-1.24-1.746-.053-.04-.12-.04-.147 0-.56.666-.96 1.186-1.24 1.746s-.426 1.147-.493 1.92c-.013.267.013.614.067 1.014l.173.973c-.533-.533-1.173-.84-1.88-.84-1.307 0-2.093.547-2.427 1.24-.147.312-.211.656-.186 1s.137.671.32.96c.386.627 1.133 1.04 2.133.893.053 0 .093-.053.08-.106 0-.027-.013-.04-.027-.054-.146-.186-.2-.373-.213-.546a.63.63 0 0 1 .133-.4c.08-.12.214-.214.374-.267.226-.08.52-.093.853 0 .387.107.68.413.88.787.253.453.373 1.026.373 1.533a3.83 3.83 0 0 1-.08.8h0c-.052.242-.137.475-.253.693h0c-.173.32-.4.507-.653.6a1.08 1.08 0 0 1-.534.067c-.16-.027-.306-.08-.413-.173-.093-.08-.147-.174-.16-.28 0-.054-.053-.094-.107-.094h-.04a.67.67 0 0 0-.493.36 1.16 1.16 0 0 0-.107.64h0a.12.12 0 0 0 .014.067c.053.333.2.573.4.76.173.147.373.24.586.293s.44.054.68.014c.414-.067.814-.267 1.094-.574l.16-.213c.08.547.146.947.266 1.32.134.413.347.773.707 1.24 0 .013.013.013.013.027.04.026.107.026.134-.014.36-.48.573-.84.706-1.253.12-.36.187-.76.267-1.307.053.08.107.147.16.214.28.306.68.506 1.093.573.227.04.454.04.68-.013.214-.054.427-.147.587-.294.2-.173.347-.426.4-.76 0-.026.013-.04.013-.066h0c.027-.227-.013-.467-.106-.64a.69.69 0 0 0-.494-.36h-.04c-.053 0-.106.026-.106.093-.014.107-.067.2-.16.28a.83.83 0 0 1-.414.173 1.06 1.06 0 0 1-.533-.066c-.24-.094-.48-.294-.653-.6h0a3.25 3.25 0 0 1-.254-.694h0c-.053-.253-.08-.52-.08-.8A3.29 3.29 0 0 1 60.067 46c.2-.373.493-.667.88-.787.333-.093.626-.093.866 0a.77.77 0 0 1 .374.267c.08.107.133.253.133.4 0 .173-.067.36-.213.547-.014.013-.027.026-.027.053-.013.053.027.107.08.107 1 .146 1.747-.267 2.133-.894.185-.288.295-.618.32-.96a1.88 1.88 0 0 0-.173-1.026h0z" fill-rule="evenodd"/></g></svg>