<svg xmlns="http://www.w3.org/2000/svg" viewBox="0 0 156.213 156.213" width="208.284" height="208.284"  xmlns:v="https://vecta.io/nano"><defs><clipPath id="A"><path d="M0 0h156.213v156.213H0z"/></clipPath></defs><g clip-path="url(#A)"><mask id="B" x="-200%" y="-200%" width="400%" height="400%"><path d="M-312.426-312.426h624.852v624.852h-624.852z" fill="#fff"/><path d="M59.342 118.293l29.309-29.309"/></mask><path mask="url(#B)" vector-effect="non-scaling-stroke" stroke-width="4" stroke="#231f20" stroke-opacity="1000000" stroke-miterlimit="10" d="M59.342 118.293l29.309-29.309"/><g fill="#231f20"><path d="M49.973 65.387c.711 9.422 12.978 16.923 28.018 16.923s27.306-7.501 28.018-16.923H49.973z"/><path d="M108.889 48.017l-19.165-6.453-11.608-9.547-11.609 9.547-19.164 6.453 4.053 7.379-1.583 5.244h56.604l-1.6-5.244 4.072-7.379zm-24.107-.906c-.338-.694-1.138-1.244-2.453-1.244-.712 0-1.369.32-1.903.853l.178-.977c.053-.41.089-.766.072-1.032-.054-.782-.214-1.387-.499-1.955s-.693-1.103-1.261-1.779l-.019-.017c-.035-.036-.107-.036-.141.017-.57.676-.979 1.21-1.263 1.779s-.426 1.155-.497 1.955c-.019.266.017.622.071 1.032l.177.977c-.533-.533-1.191-.853-1.901-.853-1.334 0-2.116.55-2.454 1.244-.152.316-.22.665-.196 1.013a1.99 1.99 0 0 0 .32.979c.391.621 1.156 1.048 2.17.906.053-.018.088-.053.088-.106 0-.019-.018-.036-.018-.054a.9.9 0 0 1-.213-.552.71.71 0 0 1 .143-.408c.088-.106.213-.213.373-.266.231-.09.533-.107.871 0 .39.106.676.408.889.8.246.478.374 1.008.373 1.546a4.15 4.15 0 0 1-.089.818c-.051.247-.135.486-.249.71-.178.32-.408.516-.658.606a1.19 1.19 0 0 1-.55.07c-.16-.017-.32-.089-.427-.177-.087-.072-.144-.174-.16-.285 0-.054-.053-.088-.107-.088h-.036a.64.64 0 0 0-.497.373c-.107.177-.143.408-.107.657 0 .018 0 .054.018.071.053.339.196.587.409.765a1.41 1.41 0 0 0 .604.302 1.74 1.74 0 0 0 .676.018c.427-.072.835-.266 1.101-.586l.16-.214c.072.568.143.96.267 1.334.142.408.356.781.729 1.261.053.053.124.036.16 0 .373-.48.587-.853.729-1.261.124-.374.195-.766.267-1.334.053.071.107.16.16.214.292.312.679.518 1.101.586a1.74 1.74 0 0 0 .676-.018c.231-.054.427-.142.587-.302.221-.2.365-.47.409-.765 0-.017 0-.053.018-.071.02-.225-.018-.45-.107-.657-.107-.196-.267-.339-.516-.373h-.035c-.053 0-.106.034-.106.088-.017.111-.074.212-.16.285-.122.1-.271.163-.427.177a1.22 1.22 0 0 1-.552-.07c-.289-.11-.525-.326-.657-.606a2.79 2.79 0 0 1-.25-.71c-.053-.25-.088-.534-.088-.818 0-.498.124-1.085.374-1.546.213-.374.497-.676.888-.8.282-.099.59-.099.872 0 .16.053.284.16.373.266.085.119.129.263.124.408 0 .179-.071.356-.213.552-.018.018-.018.035-.018.054 0 .053.035.106.088.106 1.014.16 1.76-.266 2.17-.906.177-.286.302-.623.32-.979.036-.337-.018-.693-.178-1.013h0z" fill-rule="evenodd"/><path d="M8.409 107.057c2.528 6.076 5.839 11.796 9.848 17.013l12.676-9.76c-3.164-4.124-5.777-8.621-7.769-13.404l-14.755 6.151zm23.751 30.899a75.6 75.6 0 0 0 17.013 9.848l6.134-14.774c-4.783-1.99-9.28-4.586-13.404-7.768l-9.743 12.694zM78.097 2.667c-41.6 0-75.43 33.849-75.43 75.449-.001 3.311.213 6.618.64 9.901l15.857-2.08a60.52 60.52 0 0 1-.515-7.821c0-32.783 26.667-59.449 59.448-59.449s59.449 26.666 59.449 59.449-26.666 59.448-59.449 59.448a60.52 60.52 0 0 1-7.821-.515l-2.08 15.857c3.283.427 6.59.641 9.901.64 41.6 0 75.449-33.849 75.449-75.449.018-41.581-33.83-75.43-75.449-75.43zM100.8 116.07l-23.609-8.96L91.84 92.462l8.96 23.608z"/></g></g></svg>