<svg xmlns="http://www.w3.org/2000/svg" viewBox="0 0 117.16 117.16" width="156.213" height="156.213" ><defs><clipPath id="A"><path d="M0 0h117.16v117.16H0z"/></clipPath></defs><g clip-path="url(#A)" fill="#231f20"><path d="M58.587 2C27.387 2 2 27.387 2 58.587s25.387 56.586 56.587 56.586 56.586-25.386 56.586-56.586S89.787 2 58.587 2zm0 101.173C34 103.173 14 83.173 14 58.587S34 14 58.587 14s44.586 20 44.586 44.587c0 24.573-20 44.586-44.586 44.586zM37.48 49.04c.533 7.067 9.733 12.693 21.013 12.693s20.48-5.626 21.014-12.693H37.48z"/><path d="M81.667 36.013l-14.374-4.84-8.706-7.16-8.707 7.16-14.373 4.84 3.04 5.534-1.187 3.933h42.453l-1.2-3.933 3.054-5.534zm-18.08-.68c-.254-.52-.854-.933-1.84-.933-.534 0-1.027.24-1.427.64l.133-.733c.04-.307.067-.574.054-.774-.04-.586-.16-1.04-.374-1.466s-.52-.827-.946-1.334c-.04-.04-.094-.04-.12 0-.427.507-.734.907-.947 1.334s-.32.866-.373 1.466c-.014.2.013.467.053.774l.133.733c-.4-.4-.893-.64-1.426-.64-1 0-1.587.413-1.84.933-.114.237-.165.499-.147.76a1.49 1.49 0 0 0 .24.734c.293.466.867.786 1.627.68.04-.014.066-.04.066-.08 0-.014-.013-.027-.013-.04-.107-.134-.16-.28-.16-.414a.53.53 0 0 1 .107-.306c.066-.08.16-.16.28-.2.173-.067.4-.08.653 0 .293.08.507.306.667.6a2.53 2.53 0 0 1 .28 1.16c0 .213-.027.413-.067.613h0a2.1 2.1 0 0 1-.187.533c-.133.24-.306.387-.493.454-.133.053-.28.066-.413.053-.12-.013-.24-.067-.32-.133a.34.34 0 0 1-.12-.214c0-.04-.04-.066-.08-.066-.2.026-.334.133-.4.28-.08.133-.107.306-.08.493h0c0 .013 0 .04.013.053.04.254.147.44.307.574a1.05 1.05 0 0 0 .453.226c.16.04.333.04.507.014.32-.054.626-.2.826-.44l.12-.16c.054.426.107.72.2 1 .107.306.267.586.547.946.04.04.093.027.12 0 .28-.36.44-.64.547-.946.093-.28.146-.574.2-1 .04.053.08.12.12.16.219.234.509.389.826.44.174.026.347.026.507-.014.173-.04.32-.106.44-.226.166-.15.274-.353.307-.574 0-.013 0-.04.013-.053h0c.015-.169-.013-.338-.08-.493-.08-.147-.2-.254-.387-.28h-.026c-.04 0-.08.026-.08.066a.35.35 0 0 1-.12.214c-.091.075-.203.122-.32.133a.92.92 0 0 1-.414-.053c-.217-.082-.394-.244-.493-.454a2.1 2.1 0 0 1-.187-.533h0c-.04-.187-.066-.4-.066-.613 0-.374.093-.814.28-1.16.16-.28.373-.507.666-.6a.99.99 0 0 1 .654 0c.12.04.213.12.28.2.064.089.097.197.093.306 0 .134-.053.267-.16.414-.013.013-.013.026-.013.04 0 .04.026.08.066.08.76.12 1.32-.2 1.627-.68.133-.214.227-.467.24-.734.027-.253-.013-.52-.133-.76h0z" fill-rule="evenodd"/><path d="M81.547 78.253c-.454-1.88-2.107-3.186-4.04-3.186-.328-.001-.655.04-.974.12-.381.095-.745.248-1.08.453a11.77 11.77 0 0 0-2.746-4.413c-2.227-2.254-5.214-3.507-8.387-3.534l-9.8-.08-.013 1.76-4.24-.013.013-1.747-12.973-.08-.067 12.707 15.147.08c.173 2.867 1.373 5.547 3.413 7.613 2.24 2.254 5.213 3.507 8.387 3.534h.066c5.374 0 9.947-3.614 11.4-8.547.56.28 1.2.453 1.867.453a3.99 3.99 0 0 0 .973-.12c1.073-.253 2-.925 2.574-1.866.56-.934.733-2.054.48-3.134h0zM64.24 87.2h-.04c-2.04-.013-3.947-.813-5.373-2.253a7.56 7.56 0 0 1-2.2-5.4 7.51 7.51 0 0 1 .08-1.027l.346-2.427L41.533 76l.027-4.16 5.987.04-.014 1.76 11.227.04.013-1.747 5.52.04a7.54 7.54 0 0 1 5.374 2.267 7.56 7.56 0 0 1 2.2 5.4 7.64 7.64 0 0 1-7.627 7.56h0zm15.347-6.693c-.341.555-.887.953-1.52 1.106a2.43 2.43 0 0 1-2.054-.466 11.05 11.05 0 0 0 .107-1.494c.001-.764-.066-1.527-.2-2.28.28-.24.627-.426 1.013-.52.189-.042.381-.064.574-.066 1.133 0 2.106.773 2.373 1.88a2.36 2.36 0 0 1-.293 1.84z"/><path d="M39.52 69.587l9.667 1.213c.253.08 6.386.08 6.733 0s7.827-.573 7.827-.573l5.546 1.626c.254.24 3.107 3.347 3.107 3.347l.933 6.467-2.586 4.906-3.107 2.16h-6.733l-4.214-2.68-1.826-4.386-.694-3.894-15.186-.346.533-7.84z"/></g></svg>