<?xml version="1.0" encoding="utf-8"?>
<!-- Generator: Adobe Illustrator 24.2.0, SVG Export Plug-In . SVG Version: 6.00 Build 0)  -->
<svg version="1.1" id="Layer_1" xmlns="http://www.w3.org/2000/svg" x="0px" y="0px"
	 viewBox="0 0 87.87 87.87" style="enable-background:new 0 0 87.87 87.87;" xml:space="preserve">
<style type="text/css">
	.st0{clip-path:url(#SVGID_2_);fill:#231F20;}
	.st1{clip-path:url(#SVGID_2_);fill:none;stroke:#231F20;stroke-width:3;stroke-miterlimit:10;}
</style>
<g>
	<defs>
		<rect id="SVGID_1_" y="0" width="87.87" height="87.87"/>
	</defs>
	<clipPath id="SVGID_2_">
		<use xlink:href="#SVGID_1_"  style="overflow:visible;"/>
	</clipPath>
	<path class="st0" d="M4.74,60.22c1.42,3.41,3.28,6.63,5.54,9.57l7.14-5.49c-1.78-2.32-3.25-4.85-4.37-7.54L4.74,60.22z"/>
	<path class="st0" d="M18.09,77.61c2.94,2.26,6.16,4.12,9.57,5.54l3.45-8.31c-2.69-1.12-5.22-2.58-7.54-4.37L18.09,77.61z"/>
	<path class="st0" d="M43.94,1.5C20.54,1.5,1.5,20.54,1.5,43.94c0,1.86,0.12,3.74,0.36,5.57l8.92-1.17
		c-0.19-1.45-0.29-2.93-0.29-4.4c0-18.44,15-33.44,33.44-33.44c18.44,0,33.44,15,33.44,33.44c0,18.44-15,33.44-33.44,33.44
		c-1.47,0-2.95-0.1-4.4-0.29l-1.17,8.92c1.84,0.24,3.71,0.36,5.57,0.36c23.4,0,42.44-19.04,42.44-42.44
		C86.38,20.54,67.34,1.5,43.94,1.5"/>
	<rect x="38.64" y="19.36" class="st1" width="12.17" height="9.71"/>
	<rect x="42.31" y="28.15" class="st0" width="4.83" height="9.31"/>
	<path class="st0" d="M44.73,42.89c-4.57,0-8.29,3.72-8.29,8.29c0,4.57,3.72,8.29,8.29,8.29s8.29-3.72,8.29-8.29
		C53.02,46.6,49.3,42.89,44.73,42.89 M44.73,55.69c-2.49,0-4.51-2.02-4.51-4.51c0-2.49,2.02-4.51,4.51-4.51
		c2.49,0,4.51,2.02,4.51,4.51C49.24,53.66,47.21,55.69,44.73,55.69"/>
	<path class="st0" d="M55.59,41.36l-2.45-4.56H36.18l-2.5,4.56h-9.2v23.74h36.08V41.36H55.59z M56.78,61.33H28.26V45.14h7.66
		l2.5-4.56h12.46l2.45,4.56h3.46V61.33z"/>
</g>
</svg>
