<?xml version="1.0" encoding="utf-8"?>
<!-- Generator: Adobe Illustrator 24.2.0, SVG Export Plug-In . SVG Version: 6.00 Build 0)  -->
<svg version="1.1" id="Layer_1" xmlns="http://www.w3.org/2000/svg" xmlns:xlink="http://www.w3.org/1999/xlink" x="0px" y="0px"
	 viewBox="0 0 87.87 87.87" style="enable-background:new 0 0 87.87 87.87;" xml:space="preserve">
<style type="text/css">
	.st0{clip-path:url(#SVGID_2_);fill:#231F20;}
</style>
<g>
	<defs>
		<rect id="SVGID_1_" y="0" width="87.87" height="87.87"/>
	</defs>
	<clipPath id="SVGID_2_">
		<use xlink:href="#SVGID_1_"  style="overflow:visible;"/>
	</clipPath>
	<path class="st0" d="M43.94,1.5C20.54,1.5,1.5,20.54,1.5,43.94c0,23.4,19.04,42.44,42.44,42.44c23.4,0,42.44-19.04,42.44-42.44
		C86.38,20.54,67.34,1.5,43.94,1.5 M43.94,77.38c-18.44,0-33.44-15-33.44-33.44c0-18.44,15-33.44,33.44-33.44
		c18.44,0,33.44,15,33.44,33.44C77.38,62.37,62.38,77.38,43.94,77.38"/>
	<path class="st0" d="M45.85,26.44c-3.97,0-7.19,3.23-7.19,7.19s3.23,7.19,7.19,7.19c3.97,0,7.19-3.23,7.19-7.19
		S49.82,26.44,45.85,26.44 M45.85,37.54c-2.16,0-3.91-1.75-3.91-3.91s1.76-3.91,3.91-3.91c2.16,0,3.91,1.76,3.91,3.91
		S48.01,37.54,45.85,37.54"/>
	<path class="st0" d="M55.28,25.12l-2.12-3.96H38.44l-2.17,3.96h-7.98v20.6h31.3v-20.6H55.28z M56.31,42.44H31.56V28.4h6.64
		l2.17-3.96h10.81l2.12,3.96h3V42.44z"/>
	<polygon class="st0" points="44.29,45.64 50,67.71 53.38,67.71 47.11,43.46 44.29,44.19 41.47,43.46 35.2,67.71 38.58,67.71 	"/>
</g>
</svg>
