<svg xmlns="http://www.w3.org/2000/svg" viewBox="0 0 87.87 87.87" width="117.16" height="117.16" ><defs><clipPath id="A"><path d="M0 0h87.87v87.87H0z"/></clipPath></defs><g clip-path="url(#A)"><path d="M39.99 77.17l-1.15 8.94c1.8.23 3.63.35 5.45.35 1.88 0 3.77-.13 5.62-.37l-1.18-8.94a34.09 34.09 0 0 1-8.74.02zM70.2 10.22a42.21 42.21 0 0 0-9.6-5.56l-3.46 8.33a33.18 33.18 0 0 1 7.56 4.38l5.5-7.15zM5.06 60.34a42.16 42.16 0 0 0 5.58 9.58l7.13-5.51a33.37 33.37 0 0 1-4.39-7.55l-8.32 3.48zm13.44 17.4a42.23 42.23 0 0 0 9.62 5.53l3.43-8.34a33.17 33.17 0 0 1-7.57-4.36l-5.48 7.17zm38.66-2.86l3.47 8.32c3.42-1.42 6.65-3.3 9.59-5.57l-5.5-7.14a33.22 33.22 0 0 1-7.56 4.39zm29.3-36.5l-8.94 1.17c.19 1.44.28 2.92.28 4.39 0 1.46-.1 2.92-.28 4.36l8.94 1.16c.24-1.82.36-3.68.36-5.52a44.75 44.75 0 0 0-.36-5.56zM70.9 64.31l7.15 5.49c2.26-2.95 4.13-6.18 5.55-9.61l-8.33-3.45c-1.12 2.7-2.59 5.24-4.37 7.57zm12.69-36.65c-1.42-3.42-3.29-6.65-5.55-9.6l-7.15 5.49c1.78 2.32 3.26 4.87 4.38 7.56l8.32-3.45zm-72.8 16.28c0-18.47 15.03-33.5 33.5-33.5 1.48 0 2.96.1 4.41.29l1.17-8.94c-1.84-.24-3.72-.36-5.59-.36-23.44 0-42.52 19.07-42.52 42.52 0 1.87.12 3.75.36 5.59l8.94-1.18c-.17-1.46-.27-2.95-.27-4.42zm50.19-5.9l-6.45-2.26 6.26-2.48-1.28-3.16-7.84 3.1 3.41-8.4h-22.5l5.11 10.36-1.18 1.35-.89 1.03-.09.12c-3.26 4.17-6.24 10.09-5.9 17.64.03.65.1 1.14.19 1.7l.06.41c.75 4.91 6.83 8.48 14.47 8.48h.29c6.8-.08 12.71-3.29 14.1-7.66.01-.04.02-.07.03-.11.2-.74.38-1.6.44-2.82.3-6.58-1.93-11.93-4.67-15.96l5.3 1.85 1.14-3.19zm-11.43-9.79l-2.2 6.1-6.12.07-2.9-6.16h11.22v-.01zm5 26.89c-.03.73-.13 1.23-.28 1.81-.72 2.1-4.8 4.36-9.8 4.39h-.12c-5.49 0-9.53-2.36-9.86-4.54l-.06-.42c-.08-.51-.12-.82-.14-1.24-.37-8.14 3.97-14.05 7.4-17.42l5.47.01c3.44 3.38 7.76 9.29 7.39 17.41z"/></g></svg>