<svg xmlns="http://www.w3.org/2000/svg" viewBox="0 0 87.87 87.87" width="117.16" height="117.16" ><defs><clipPath id="A"><path d="M0 0h87.87v87.87H0z"/></clipPath></defs><g clip-path="url(#A)"><path d="M45.38 24.65H27.13l-3.61 8.37H32v31.31h6.01V33.02h7.37v-8.37zM5.02 60.25a42.7 42.7 0 0 0 5.55 9.59l7.15-5.5a33.71 33.71 0 0 1-4.38-7.55l-8.32 3.46zM18.4 77.66a42.48 42.48 0 0 0 9.59 5.55l3.46-8.33a33.67 33.67 0 0 1-7.55-4.37l-5.5 7.15zM44.29 1.42c-23.44 0-42.52 19.07-42.52 42.52 0 1.87.12 3.75.36 5.58l8.94-1.18c-.19-1.45-.29-2.93-.29-4.41 0-18.47 15.03-33.5 33.5-33.5 18.48 0 33.51 15.03 33.51 33.5s-15.03 33.5-33.51 33.5a34.14 34.14 0 0 1-4.41-.29l-1.17 8.94a43.33 43.33 0 0 0 5.58.36c23.45 0 42.52-19.07 42.52-42.51.02-23.44-19.06-42.51-42.51-42.51zm24.92 39.93c-.45-2.91-2.01-5.48-4.39-7.23s-5.3-2.46-8.21-2.01-5.48 2.01-7.23 4.39c-1.74 2.38-2.46 5.29-2.01 8.2a11.02 11.02 0 0 0-3.41 3.05c-1.75 2.38-2.46 5.3-2.01 8.21.82 5.34 5.51 9.37 10.91 9.37a10.69 10.69 0 0 0 1.69-.13c2.91-.45 5.48-2.01 7.23-4.39 1.74-2.38 2.46-5.29 2.01-8.2a11.02 11.02 0 0 0 3.41-3.05 10.99 10.99 0 0 0 2.01-8.21zM53.99 61.6c-4.03.62-7.82-2.16-8.44-6.19-.44-2.85.82-5.58 3.03-7.15.91-.65 1.98-1.11 3.16-1.29.09-.01.18-.01.27-.02.29-.03.58-.07.86-.07 2.6 0 4.94 1.39 6.27 3.5.52.83.89 1.77 1.04 2.78.04.25.06.5.08.74a7.44 7.44 0 0 1-6.27 7.7zm8.59-12.55a11.02 11.02 0 0 0-3.19-3.68c-2.38-1.75-5.3-2.46-8.21-2.01-.1.01-.19.04-.29.06-.2-3.75 2.48-7.12 6.26-7.7a7.27 7.27 0 0 1 1.13-.09c3.62 0 6.76 2.7 7.31 6.28.45 2.84-.81 5.56-3.01 7.14zm-8.09-.09v10.63h-2.11v-5.82l.05-1.72h-.02c-.01 0-.46.53-.85.93l-.76.76-1.31-1.26 3.52-3.52h1.48z"/></g></svg>