<svg xmlns="http://www.w3.org/2000/svg" viewBox="0 0 87.87 87.87" width="117.16" height="117.16" ><defs><clipPath id="A"><path d="M0 0h87.87v87.87H0z"/></clipPath></defs><g clip-path="url(#A)"><path d="M43.94 1.45C20.5 1.45 1.42 20.52 1.42 43.97c0 23.44 19.07 42.52 42.52 42.52s42.52-19.07 42.52-42.52S67.38 1.45 43.94 1.45zm0 76.02c-18.47 0-33.5-15.03-33.5-33.5s15.03-33.5 33.5-33.5 33.5 15.03 33.5 33.5-15.03 33.5-33.5 33.5zm-7.81-42.21c-3.33-.21-6.62.74-9.36 2.75a14.22 14.22 0 0 0-5.7 9.38c-.58 3.78.35 7.57 2.61 10.66 2.27 3.09 5.6 5.12 9.38 5.7.73.11 1.46.17 2.19.17.09 0 .17-.01.26-.01v.01h24.4v-5.53H46.52c.72-.92 1.34-1.92 1.83-3.01h11.56v-5.53H49.57c.02-1.02-.07-2.02-.26-3.01h10.6v-5.53H46.95c-.05-.07-.09-.15-.14-.21-.78-1.07-1.7-1.99-2.7-2.79h15.81v-5.53H36.13v2.48zm7.05 8.5a9.55 9.55 0 0 1 1.51 3.09c.28.97.41 1.98.38 3.01a10.03 10.03 0 0 1-.1 1.22 9.82 9.82 0 0 1-1.79 4.31 10.01 10.01 0 0 1-3.58 3.01c-1.25.62-2.64.98-4.09 1.02a9.5 9.5 0 0 1-1.76-.1c-5.37-.83-9.06-5.86-8.23-11.23.73-4.76 4.91-8.35 9.73-8.35a10.7 10.7 0 0 1 1.5.11 9.66 9.66 0 0 1 3.84 1.47c.99.64 1.87 1.46 2.59 2.44zm-7.05-1.03h-.81l-4.54 4.54 1.68 1.62.98-.98 1.1-1.19h.02c.02 0-.06 1.25-.06 2.21v7.49h2.72v-13.7h-1.09v.01z"/></g></svg>