<svg xmlns="http://www.w3.org/2000/svg" viewBox="0 0 87.87 87.87" width="117.16" height="117.16" ><defs><clipPath id="A"><path d="M0 0h87.87v87.87H0z"/></clipPath></defs><g clip-path="url(#A)"><path d="M43.94 1.42C20.5 1.42 1.42 20.49 1.42 43.94c0 23.44 19.07 42.52 42.52 42.52s42.52-19.07 42.52-42.52S67.38 1.42 43.94 1.42zm0 76.02c-18.47 0-33.5-15.03-33.5-33.5s15.03-33.5 33.5-33.5 33.5 15.03 33.5 33.5-15.03 33.5-33.5 33.5zm10.78-50.06h-5v3.15H38.16v-3.15h-5v3.15h-10.8v26.82h10.8v3.15h5v-3.15h11.56v3.15h5v-3.15h10.8V30.53h-10.8v-3.15zM33.16 53.22h-6.68V34.65h6.68v18.57zm16.56 0H38.16V34.65h11.56v18.57zm11.67-18.57v18.57h-6.68V34.65h6.68zm-18.73 8.8l-.96 4.69 4.47-.05-.92-4.68a2.24 2.24 0 0 0 .94-1.83 2.26 2.26 0 0 0-4.52 0 2.29 2.29 0 0 0 .99 1.87z"/></g></svg>