<?xml version="1.0" encoding="utf-8"?>
<!-- Generator: Adobe Illustrator 24.2.0, SVG Export Plug-In . SVG Version: 6.00 Build 0)  -->
<svg version="1.1" xmlns="http://www.w3.org/2000/svg" x="0px" y="0px"
	 viewBox="0 0 87.87 87.87" style="enable-background:new 0 0 87.87 87.87;" xml:space="preserve">
<g id="Warstwa_3">
</g>
<g id="Warstwa_2">
	<g>
		<g>
			<g>
				<g>
					<g>
						<g>
							<path d="M4.74,60.23c1.42,3.42,3.29,6.64,5.55,9.59l7.15-5.5c-1.78-2.32-3.26-4.86-4.38-7.55L4.74,60.23z"/>
						</g>
						<g>
							<path d="M18.13,77.65c2.94,2.26,6.17,4.13,9.59,5.55l3.46-8.33c-2.69-1.12-5.23-2.59-7.55-4.37L18.13,77.65z"/>
						</g>
						<g>
							<path d="M44.01,1.4C20.57,1.4,1.5,20.48,1.5,43.92c0,1.87,0.12,3.75,0.36,5.58l8.94-1.18c-0.19-1.45-0.29-2.93-0.29-4.41
								c0-18.47,15.03-33.5,33.5-33.5c18.48,0,33.51,15.03,33.51,33.5c0,18.47-15.03,33.5-33.51,33.5c-1.47,0-2.96-0.1-4.41-0.29
								l-1.17,8.94c1.84,0.24,3.72,0.36,5.58,0.36c23.45,0,42.52-19.07,42.52-42.51C86.54,20.48,67.46,1.4,44.01,1.4z"/>
						</g>
					</g>
				</g>
			</g>
		</g>
		<g>
			<rect x="24.58" y="51.35" width="38.88" height="4"/>
		</g>
		<g>
			<rect x="24.58" y="58.83" width="38.88" height="4"/>
		</g>
		<g>
			<g>
				<path d="M60.6,40.35c-0.24-0.59-0.63-1.11-1.15-1.56c-0.53-0.45-1.21-0.8-2.05-1.06c-0.84-0.26-1.85-0.39-3.03-0.39h-2.66v-4.43
					h8.6v-2.79H48.04v17.72h6.33c1.04,0,1.97-0.13,2.79-0.4s1.51-0.65,2.07-1.14c0.56-0.49,0.99-1.08,1.29-1.77
					c0.3-0.69,0.45-1.46,0.45-2.3C60.97,41.57,60.85,40.94,60.6,40.35z M57.21,43.53c-0.09,0.29-0.25,0.55-0.48,0.78
					s-0.53,0.4-0.92,0.53c-0.38,0.13-0.86,0.2-1.44,0.2h-2.66v-4.87h2.66c0.59,0,1.07,0.06,1.45,0.17c0.38,0.11,0.69,0.28,0.91,0.5
					c0.22,0.22,0.38,0.47,0.48,0.78c0.09,0.3,0.14,0.64,0.14,1C57.35,42.93,57.3,43.24,57.21,43.53z"/>
			</g>
			<g>
				<path d="M33.71,25.18c0-0.33,0.08-0.58,0.25-0.75c0.17-0.17,0.42-0.25,0.75-0.25c0.24,0,0.47,0.05,0.71,0.14
					c0.23,0.09,0.54,0.23,0.92,0.42c0.04,0.02,0.07,0.04,0.1,0.05c0.03,0.01,0.06,0.03,0.1,0.05l0.04,0.01
					c0.26,0.13,0.5,0.25,0.74,0.34c0.23,0.1,0.48,0.17,0.75,0.24c0.27,0.06,0.54,0.09,0.83,0.09c0.97,0,1.7-0.39,2.18-1.17
					c0.48-0.78,0.72-1.95,0.72-3.5v-0.34h-2.98v0.29c0,0.36-0.08,0.64-0.25,0.82c-0.17,0.19-0.42,0.28-0.75,0.28
					c-0.15,0-0.32-0.04-0.52-0.11c-0.19-0.07-0.46-0.19-0.82-0.35c-0.05-0.03-0.1-0.05-0.15-0.08c-0.05-0.02-0.1-0.04-0.15-0.06
					l-0.04-0.03c-0.52-0.23-0.96-0.41-1.35-0.53c-0.38-0.12-0.77-0.19-1.16-0.19c-0.97,0-1.7,0.38-2.19,1.14
					c-0.49,0.76-0.73,1.9-0.73,3.43v0.36h2.98V25.18z"/>
			</g>
			<g>
				<path d="M35.03,27.01l-7.97,20.83h4.23l1.17-3.34h7.63l1.17,3.34h4.23l-7.97-20.83H35.03z M33.79,40.72l2.49-7.11l2.49,7.11
					H33.79z"/>
			</g>
		</g>
	</g>
</g>
</svg>
