<?xml version="1.0" encoding="utf-8"?>
<!-- Generator: Adobe Illustrator 24.2.0, SVG Export Plug-In . SVG Version: 6.00 Build 0)  -->
<svg version="1.1" xmlns="http://www.w3.org/2000/svg" x="0px" y="0px"
	 viewBox="0 0 87.87 87.87" style="enable-background:new 0 0 87.87 87.87;" xml:space="preserve">
<g id="Warstwa_3">
</g>
<g id="Warstwa_2">
	<g>
		<g>
			<path d="M44.02,1.4C20.57,1.4,1.5,20.47,1.5,43.92c0,23.44,19.07,42.52,42.52,42.52c23.45,0,42.52-19.07,42.52-42.52
				C86.54,20.47,67.46,1.4,44.02,1.4z M44.02,77.42c-18.47,0-33.5-15.03-33.5-33.5c0-18.47,15.03-33.5,33.5-33.5
				c18.47,0,33.5,15.03,33.5,33.5C77.52,62.39,62.49,77.42,44.02,77.42z"/>
		</g>
		<g>
			<path d="M21.38,26.11v31.46l15.45-0.11l7.2,13.28l6.91-13.28l15.71,0.11V26.11H21.38z M62.86,53.75l-14.21-0.1l-4.69,9.01
				l-4.89-9.01l-13.91,0.1V29.9h37.7V53.75z"/>
			<path d="M53.24,50.9c0.58-0.19,1.07-0.46,1.47-0.8c0.4-0.35,0.7-0.76,0.91-1.25c0.21-0.49,0.32-1.03,0.32-1.63
				c0-0.47-0.09-0.92-0.26-1.34c-0.17-0.42-0.45-0.79-0.82-1.1c-0.37-0.32-0.85-0.57-1.45-0.75c-0.59-0.18-1.31-0.28-2.15-0.28
				h-1.89V40.6h6.09v-1.97h-8.69v12.55h4.48C52,51.18,52.66,51.09,53.24,50.9z M49.37,45.74h1.89c0.42,0,0.76,0.04,1.03,0.12
				c0.27,0.08,0.49,0.2,0.64,0.35c0.16,0.15,0.27,0.34,0.34,0.55c0.07,0.21,0.1,0.45,0.1,0.71c0,0.23-0.03,0.45-0.1,0.66
				c-0.07,0.21-0.18,0.39-0.34,0.55c-0.16,0.16-0.38,0.28-0.65,0.38c-0.27,0.09-0.61,0.14-1.02,0.14h-1.89V45.74z"/>
			<path d="M36.63,35.13c0-0.24,0.06-0.41,0.18-0.53c0.12-0.12,0.3-0.18,0.53-0.18c0.17,0,0.34,0.03,0.5,0.1
				c0.17,0.06,0.38,0.16,0.65,0.3c0.03,0.01,0.05,0.03,0.07,0.04c0.02,0.01,0.04,0.02,0.07,0.04l0.03,0.01
				c0.18,0.1,0.36,0.18,0.52,0.24c0.17,0.07,0.34,0.12,0.53,0.17c0.19,0.04,0.39,0.07,0.59,0.07c0.69,0,1.21-0.28,1.55-0.83
				c0.34-0.55,0.51-1.38,0.51-2.48v-0.24h-2.11v0.2c0,0.26-0.06,0.45-0.18,0.58c-0.12,0.13-0.3,0.2-0.53,0.2
				c-0.11,0-0.23-0.03-0.37-0.08c-0.14-0.05-0.33-0.13-0.58-0.25c-0.03-0.02-0.07-0.04-0.11-0.06c-0.04-0.02-0.07-0.03-0.11-0.05
				l-0.03-0.02c-0.37-0.16-0.68-0.29-0.95-0.38c-0.27-0.09-0.54-0.13-0.82-0.13c-0.69,0-1.21,0.27-1.55,0.81
				c-0.35,0.54-0.52,1.35-0.52,2.43v0.25h2.11V35.13z"/>
			<path d="M35.74,48.82h5.4l0.83,2.36h2.99l-5.64-14.75h-1.77l-5.64,14.75h2.99L35.74,48.82z M38.45,41.11l1.76,5.03h-3.53
				L38.45,41.11z"/>
		</g>
	</g>
</g>
</svg>
