<svg xmlns="http://www.w3.org/2000/svg" viewBox="0 0 90.709 90.709"><circle cx="45.354" cy="45.354" r="43.52" fill="#194093"/><path d="M45.354 2.835c23.483 0 42.52 19.037 42.52 42.52s-19.037 42.52-42.52 42.52-42.52-19.037-42.52-42.52 19.037-42.52 42.52-42.52m0-2C20.806.835.834 20.806.834 45.355s19.971 44.52 44.52 44.52 44.52-19.971 44.52-44.52S69.903.835 45.354.835h0z" fill="#252e78"/><path d="M46.854 24.236v34.225a30.65 30.65 0 0 0 11.741-2.943 13.46 13.46 0 0 1-11.741 10.996V77.49c4.437-1.318 17.169-6.282 21.983-20.807 2.449-7.388 2.762-34.431 2.762-34.431s-14.13 1.818-24.745 1.984zM59.92 44.17c-2.984 1.143-6.531.632-8.309-.826.439-2.308 2.895-5.149 5.881-6.292s6.453.051 8.086 1.1c-.535 2.033-2.672 4.876-5.658 6.018zM45.354 77.883h.001-.001z" fill="#f8c409"/><path d="M34.024 65.606c.875-4.907 4.85-8.73 9.83-9.38V24.237c-11.142-.159-24.744-1.985-24.744-1.985s.313 27.042 2.761 34.431c4.683 14.13 17.583 19.364 21.982 20.771v-14.36a26.23 26.23 0 0 0-9.829 2.512zM25.13 38.153c1.631-1.049 5.1-2.243 8.086-1.1s5.441 3.984 5.881 6.292c-1.776 1.458-5.324 1.969-8.308.826s-5.121-3.986-5.659-6.018zm20.224 39.73h0 0z" fill="#fff"/></svg>