<?xml version="1.0" encoding="iso-8859-1"?>
<!-- Generator: Adobe Illustrator 22.1.0, SVG Export Plug-In . SVG Version: 6.00 Build 0)  -->
<svg version="1.1" xmlns="http://www.w3.org/2000/svg" xmlns:xlink="http://www.w3.org/1999/xlink" x="0px" y="0px"
	 viewBox="0 0 90.709 90.709" style="enable-background:new 0 0 90.709 90.709;" xml:space="preserve">
<g id="ratownik-1">
	<g>
		<g>
			<path style="fill:#194093;" d="M45.354,88.874c-23.997,0-43.52-19.522-43.52-43.52S21.357,1.834,45.354,1.834
				s43.52,19.523,43.52,43.521S69.351,88.874,45.354,88.874z"/>
			<g>
				<path style="fill:#252E78;" d="M45.354,2.835c23.483,0,42.52,19.037,42.52,42.52s-19.037,42.52-42.52,42.52
					s-42.52-19.037-42.52-42.52S21.871,2.835,45.354,2.835 M45.354,0.835c-24.548,0-44.52,19.971-44.52,44.52
					s19.971,44.52,44.52,44.52s44.52-19.971,44.52-44.52S69.903,0.835,45.354,0.835L45.354,0.835z"/>
			</g>
		</g>
	</g>
</g>
<g id="Warstwa_4">
	<g>
		<g>
			<polygon style="fill:#FECA0D;" points="39.961,17.052 39.961,24.327 70.479,24.193 72.353,22.408 72.353,18.837 70.479,17.052 
							"/>
			<polygon style="fill:#FFFFFF;" points="32.623,18.962 32.623,22.417 25.988,20.689 39.961,24.327 39.961,17.052 			"/>
			<polygon style="fill:#FECA0D;" points="32.623,18.962 32.623,18.962 25.988,20.689 32.623,22.417 			"/>
		</g>
		<g>
			<polygon style="fill:#FFFFFF;" points="49.043,36.402 49.043,39.536 46.643,39.536 46.643,36.402 32.34,36.402 32.34,46.561 
				39.395,46.561 39.395,48.961 32.34,48.961 32.34,58.136 46.643,58.136 46.643,48.961 44.473,48.961 44.473,46.561 46.643,46.561 
				46.643,44.661 49.043,44.661 49.043,58.136 52.658,58.136 62.347,48.447 62.347,36.402 			"/>
			<path style="fill:#FFFFFF;" d="M24.578,56.208h-1.2c-2.771,0-5.024,2.254-5.024,5.025c0,2.771,2.254,5.024,5.024,5.024h21.158
				l5.722-5.722H29.94V34.001h34.808v12.045l5.683-5.683v-12.3H24.578L24.578,56.208z"/>
			<path style="fill:#FFFFFF;" d="M22.177,53.905l0.001-32.852c-3.316,0.248-5.932,3.011-5.932,6.391l0,31.73
				C17.034,56.452,19.336,54.369,22.177,53.905z"/>
			<path style="fill:#FECA0D;" d="M73.643,40.545L45.354,68.834h28.289V40.545z M68.009,53.247V63.2h-9.953L68.009,53.247z"/>
			<polygon style="fill:#FFFFFF;" points="68.009,63.2 68.009,53.247 58.056,63.2 			"/>
		</g>
	</g>
</g>
</svg>
