<svg xmlns="http://www.w3.org/2000/svg" viewBox="0 0 90.709 90.709"><path d="M45.354 88.874c-23.997 0-43.52-19.522-43.52-43.52s19.523-43.52 43.52-43.52 43.52 19.523 43.52 43.521-19.523 43.519-43.52 43.519z" fill="#194093"/><path d="M45.354 2.835c23.483 0 42.52 19.037 42.52 42.52s-19.037 42.52-42.52 42.52-42.52-19.037-42.52-42.52 19.037-42.52 42.52-42.52m0-2C20.806.835.834 20.806.834 45.355s19.971 44.52 44.52 44.52 44.52-19.971 44.52-44.52S69.903.835 45.354.835h0z" fill="#252e78"/><path d="M39.961 17.052v7.275l30.518-.134 1.874-1.785v-3.571l-1.874-1.785z" fill="#feca0d"/><path d="M32.623 18.962v3.455l-6.635-1.728 13.973 3.638v-7.275z" fill="#fff"/><path d="M32.623 18.962h0l-6.635 1.727 6.635 1.728z" fill="#feca0d"/><path d="M49.043 36.402v3.134h-2.4v-3.134H32.34v10.159h7.055v2.4H32.34v9.175h14.303v-9.175h-2.17v-2.4h2.17v-1.9h2.4v13.475h3.615l9.689-9.689V36.402zM24.578 56.208h-1.2a5.03 5.03 0 0 0-5.024 5.025 5.03 5.03 0 0 0 5.024 5.024h21.158l5.722-5.722H29.94V34.001h34.808v12.045l5.683-5.683v-12.3H24.578v28.145zm-2.401-2.303l.001-32.852c-3.316.248-5.932 3.011-5.932 6.391v31.73c.788-2.722 3.09-4.805 5.931-5.269z" fill="#fff"/><path d="M73.643 40.545L45.354 68.834h28.289V40.545zm-5.634 12.702V63.2h-9.953l9.953-9.953z" fill="#feca0d"/><path d="M68.009 63.2v-9.953L58.056 63.2z" fill="#fff"/></svg>