<svg xmlns="http://www.w3.org/2000/svg" viewBox="0 0 90.709 90.709"><defs><path id="B" d="M58.217 56.031h-27.92c-.882 0-1.597-.715-1.597-1.597s.715-1.597 1.597-1.597h27.92c.882 0 1.597.715 1.597 1.597s-.715 1.597-1.597 1.597z"/></defs><path d="M45.354 88.874c-23.997 0-43.52-19.522-43.52-43.52s19.524-43.52 43.52-43.52 43.52 19.523 43.52 43.521-19.523 43.519-43.52 43.519z" fill="#194093"/><path d="M45.354 2.835c23.483 0 42.52 19.037 42.52 42.52s-19.037 42.52-42.52 42.52-42.52-19.037-42.52-42.52 19.037-42.52 42.52-42.52m0-2C20.806.835.834 20.806.834 45.355s19.971 44.52 44.52 44.52 44.52-19.971 44.52-44.52S69.903.835 45.354.835h0z" fill="#252e78"/><path d="M36.274 36.338l33.844-9.068-3.229-12.052-45.59 12.216-1.478 8.904V69.37a3.16 3.16 0 0 0 3.16 3.16h43.205a3.16 3.16 0 0 0 3.16-3.16V36.338H36.274zm27.464 3.247l-4.449 5.827h-8l4.449-5.827h8zm-16.375 0l-4.449 5.827h-8l4.449-5.827h8zm12.01-18.992l5.962 4.597-7.727 2.071-5.962-4.597 7.727-2.071zm-15.817 4.238l5.962 4.597-7.727 2.071-5.962-4.597 7.727-2.071zm20.578 42.395H25.033V48.815h39.102v18.411z" fill="#fff"/><path d="M27.893 45.976H17.82V26.7h10.073l7.59 9.638z" fill="#f8c409"/><g fill="#fff"><use xlink:href="#B"/><use xlink:href="#B" y="6.367"/></g></svg>