<?xml version="1.0" encoding="iso-8859-1"?>
<!-- Generator: Adobe Illustrator 22.1.0, SVG Export Plug-In . SVG Version: 6.00 Build 0)  -->
<svg version="1.1" xmlns="http://www.w3.org/2000/svg" xmlns:xlink="http://www.w3.org/1999/xlink" x="0px" y="0px"
	 viewBox="0 0 90.709 90.709" style="enable-background:new 0 0 90.709 90.709;" xml:space="preserve">
<g id="ratownik-1">
	<g>
		<g>
			<path style="fill:#194093;" d="M45.354,88.874c-23.997,0-43.52-19.522-43.52-43.52S21.358,1.834,45.354,1.834
				s43.52,19.523,43.52,43.521S69.351,88.874,45.354,88.874z"/>
			<g>
				<path style="fill:#252E78;" d="M45.354,2.835c23.483,0,42.52,19.037,42.52,42.52s-19.037,42.52-42.52,42.52
					s-42.52-19.037-42.52-42.52S21.871,2.835,45.354,2.835 M45.354,0.835c-24.548,0-44.52,19.971-44.52,44.52
					s19.971,44.52,44.52,44.52s44.52-19.971,44.52-44.52S69.903,0.835,45.354,0.835L45.354,0.835z"/>
			</g>
		</g>
	</g>
</g>
<g id="Warstwa_4">
	<g>
		<g>
			<polygon style="fill:none;" points="59.289,45.411 63.738,39.585 55.738,39.585 51.289,45.411 			"/>
			<polygon style="fill:none;" points="65.335,25.19 59.373,20.593 51.645,22.663 57.607,27.261 			"/>
			<polygon style="fill:none;" points="42.914,45.411 47.363,39.585 39.363,39.585 34.914,45.411 			"/>
			<polygon style="fill:none;" points="49.518,29.428 43.556,24.831 35.828,26.902 41.79,31.499 			"/>
			<path style="fill:#FFFFFF;" d="M36.274,36.338l33.844-9.068l-3.229-12.052L21.299,27.434l-1.478,8.904l0,33.032
				c0,1.745,1.415,3.16,3.16,3.16h43.205c1.745,0,3.16-1.415,3.16-3.16V36.338H36.274z M63.738,39.585l-4.449,5.827h-8l4.449-5.827
				H63.738z M47.363,39.585l-4.449,5.827h-8l4.449-5.827H47.363z M59.373,20.593l5.962,4.597l-7.727,2.071l-5.962-4.597
				L59.373,20.593z M43.556,24.831l5.962,4.597l-7.727,2.071l-5.962-4.597L43.556,24.831z M64.134,67.226H25.033V48.815h39.102
				V67.226z"/>
		</g>
		<g>
			<polygon style="fill:#F8C409;" points="27.893,45.976 17.82,45.976 17.82,26.7 27.893,26.7 35.483,36.338 			"/>
		</g>
		<g>
			<g>
				<path style="fill:#FFFFFF;" d="M58.217,56.031h-27.92c-0.882,0-1.597-0.715-1.597-1.597s0.715-1.597,1.597-1.597h27.92
					c0.882,0,1.597,0.715,1.597,1.597S59.099,56.031,58.217,56.031z"/>
			</g>
			<g>
				<path style="fill:#FFFFFF;" d="M58.217,62.398h-27.92c-0.882,0-1.597-0.715-1.597-1.597s0.715-1.597,1.597-1.597h27.92
					c0.882,0,1.597,0.715,1.597,1.597S59.099,62.398,58.217,62.398z"/>
			</g>
		</g>
	</g>
</g>
</svg>
