<?xml version="1.0" encoding="iso-8859-1"?>
<!-- Generator: Adobe Illustrator 22.1.0, SVG Export Plug-In . SVG Version: 6.00 Build 0)  -->
<svg version="1.1" xmlns="http://www.w3.org/2000/svg" xmlns:xlink="http://www.w3.org/1999/xlink" x="0px" y="0px"
	 viewBox="0 0 90.709 90.709" style="enable-background:new 0 0 90.709 90.709;" xml:space="preserve">
<g id="ratownik-1">
	<g>
		<g>
			<path style="fill:#194093;" d="M45.354,88.874c-23.997,0-43.52-19.522-43.52-43.52S21.357,1.834,45.354,1.834
				s43.521,19.523,43.521,43.521S69.351,88.874,45.354,88.874z"/>
			<g>
				<path style="fill:#252E78;" d="M45.354,2.835c23.483,0,42.52,19.037,42.52,42.52s-19.037,42.52-42.52,42.52
					c-23.483,0-42.52-19.037-42.52-42.52S21.871,2.835,45.354,2.835 M45.354,0.835c-24.548,0-44.52,19.971-44.52,44.52
					s19.971,44.52,44.52,44.52s44.52-19.971,44.52-44.52S69.903,0.835,45.354,0.835L45.354,0.835z"/>
			</g>
		</g>
	</g>
</g>
<g id="Warstwa_4">
	<g>
		<g>
			<path style="fill:#F8C409;" d="M71.5,26.332H58.498l-3.672-5.325H35.882l-3.672,5.325h-2.472v-2.235
				c0-1.071-0.868-1.939-1.939-1.939h-5.694c-1.071,0-1.94,0.868-1.94,1.939v2.235h-0.953c-3.172,0-5.746,2.573-5.746,5.746v27.194
				c0,3.172,2.573,5.746,5.746,5.746H71.5c3.172,0,5.743-2.573,5.743-5.746V32.078C77.243,28.906,74.672,26.332,71.5,26.332z"/>
		</g>
		<circle style="fill:#FFFFFF;" cx="45.253" cy="45.676" r="16.402"/>
		<g>
			<circle style="fill:#194093;" cx="45.253" cy="45.676" r="12.531"/>
		</g>
		<circle style="fill:#FFFFFF;" cx="41.744" cy="41.234" r="3.965"/>
	</g>
</g>
</svg>
