<svg xmlns="http://www.w3.org/2000/svg" viewBox="0 0 90.709 90.709"><path d="M45.354 88.874c-23.997 0-43.52-19.522-43.52-43.52s19.523-43.52 43.52-43.52 43.521 19.523 43.521 43.521-19.524 43.519-43.521 43.519z" fill="#194093"/><path d="M45.354 2.835c23.483 0 42.52 19.037 42.52 42.52s-19.037 42.52-42.52 42.52-42.52-19.037-42.52-42.52 19.037-42.52 42.52-42.52m0-2C20.806.835.834 20.806.834 45.355s19.971 44.52 44.52 44.52 44.52-19.971 44.52-44.52S69.903.835 45.354.835h0z" fill="#252e78"/><path d="M71.5 26.332H58.498l-3.672-5.325H35.882l-3.672 5.325h-2.472v-2.235a1.94 1.94 0 0 0-1.939-1.939h-5.694a1.94 1.94 0 0 0-1.94 1.939v2.235h-.953a5.75 5.75 0 0 0-5.746 5.746v27.194a5.75 5.75 0 0 0 5.746 5.746H71.5c3.172 0 5.743-2.573 5.743-5.746V32.078c0-3.172-2.571-5.746-5.743-5.746z" fill="#f8c409"/><circle cx="45.253" cy="45.676" r="16.402" fill="#fff"/><circle cx="45.253" cy="45.676" r="12.531" fill="#194093"/><circle cx="41.744" cy="41.234" r="3.965" fill="#fff"/></svg>