<?xml version="1.0" encoding="iso-8859-1"?>
<!-- Generator: Adobe Illustrator 22.1.0, SVG Export Plug-In . SVG Version: 6.00 Build 0)  -->
<svg version="1.1" xmlns="http://www.w3.org/2000/svg" xmlns:xlink="http://www.w3.org/1999/xlink" x="0px" y="0px"
	 viewBox="0 0 90.709 90.709" style="enable-background:new 0 0 90.709 90.709;" xml:space="preserve">
<g id="ratownik-1">
	<g>
		<g>
			<path style="fill:#194093;" d="M45.354,88.874c-23.997,0-43.52-19.522-43.52-43.52S21.357,1.834,45.354,1.834
				s43.52,19.523,43.52,43.521S69.351,88.874,45.354,88.874z"/>
			<g>
				<path style="fill:#252E78;" d="M45.354,2.835c23.483,0,42.52,19.037,42.52,42.52s-19.037,42.52-42.52,42.52
					s-42.52-19.037-42.52-42.52S21.871,2.835,45.354,2.835 M45.354,0.835c-24.548,0-44.52,19.971-44.52,44.52
					s19.971,44.52,44.52,44.52s44.52-19.971,44.52-44.52S69.903,0.835,45.354,0.835L45.354,0.835z"/>
			</g>
		</g>
	</g>
</g>
<g id="Warstwa_4">
	<g>
		<g>
			<path style="fill:#FECA0D;" d="M54.536,48.417c-0.159-0.423-0.531-0.991-0.531-0.991s-0.573,1.406-1.551,0.51
				c-0.09-0.674-0.181-1.436-0.407-2.322c-1.029-4.038-5.119-6.597-9.156-5.945c0.416,0.671,0.738,1.419,0.944,2.225
				c0.478,1.873,0.25,3.759-0.514,5.379c-0.899,1.906-3.701,1.95-4.622,0.055c-0.322-0.662-0.568-1.367-0.74-2.102
				c-1.558,1.746-2.505,4.05-2.505,6.575c0,4.689,3.266,8.609,7.646,9.623c-0.92-0.595-1.557-1.509-1.586-2.747
				c-0.076-3.361,3.119-2.895,3.688-6.907c0.039-0.273,0.052-1.275,0.052-1.275s0.968,0.533,1.245,0.729
				c1.73,1.226,4.657,3.853,4.24,7.369c-0.082,0.692-0.322,1.28-0.67,1.772C53.767,58.328,56.655,54.051,54.536,48.417"/>
			<g>
				<path style="fill:none;" d="M55.817,60.631c-0.669,0.669-1.403,1.275-2.19,1.807C54.414,61.906,55.147,61.3,55.817,60.631z"/>
				<path style="fill:none;" d="M60.15,50.169L60.15,50.169c0,2.554-0.647,4.956-1.786,7.053
					C59.503,55.125,60.15,52.722,60.15,50.169z"/>
				<path style="fill:none;" d="M53.001,62.818c0.209-0.126,0.424-0.244,0.625-0.38C53.425,62.574,53.21,62.691,53.001,62.818
					C53.001,62.818,53.001,62.818,53.001,62.818z"/>
				<path style="fill:none;" d="M30.558,50.169c0,2.554,0.647,4.956,1.786,7.053C31.205,55.125,30.558,52.722,30.558,50.169
					L30.558,50.169z"/>
				<path style="fill:none;" d="M34.892,60.631c0.669,0.669,1.403,1.275,2.19,1.807C36.295,61.906,35.561,61.3,34.892,60.631z"/>
				<path style="fill:none;" d="M37.707,62.818L37.707,62.818c-0.209-0.126-0.424-0.244-0.625-0.38
					C37.284,62.574,37.499,62.691,37.707,62.818z"/>
				<path style="fill:#FFFFFF;" d="M55.044,69.086c0.825-0.644,1.365-1.636,1.365-2.763c0-0.748-0.237-1.438-0.635-2.008
					c4.343-3.207,7.176-8.346,7.176-14.146c0-7.072-4.203-13.166-10.233-15.96V10.841v-2.8h-2.8h-9.125h-2.8v2.8v23.368
					c-6.031,2.794-10.233,8.888-10.233,15.96c0,5.801,2.834,10.939,7.176,14.146c-0.398,0.57-0.635,1.26-0.635,2.008
					c0,1.127,0.54,2.119,1.365,2.763c-3.582,2.243-5.972,6.213-5.972,10.751h31.324C61.016,75.299,58.626,71.329,55.044,69.086z
					 M32.344,57.221c-1.139-2.096-1.786-4.499-1.786-7.053v0l0,0c0-2.554,0.647-4.956,1.786-7.053
					c0.683-1.258,1.544-2.406,2.548-3.41c1.633-1.633,3.65-2.88,5.9-3.609V10.841h9.125v25.257c2.25,0.729,4.266,1.976,5.9,3.609
					c1.004,1.004,1.865,2.152,2.548,3.41c1.139,2.096,1.786,4.499,1.786,7.053l0,0v0c0,2.554-0.647,4.956-1.786,7.053
					c-0.683,1.258-1.544,2.406-2.548,3.41c-0.669,0.669-1.403,1.275-2.19,1.807c-0.202,0.136-0.417,0.253-0.625,0.38c0,0,0,0,0,0
					c-0.037-0.001-0.072-0.011-0.109-0.011H37.816c-0.037,0-0.072,0.01-0.109,0.011h0c-0.209-0.126-0.424-0.244-0.625-0.38
					c-0.787-0.532-1.52-1.137-2.19-1.807C33.888,59.627,33.028,58.479,32.344,57.221z"/>
			</g>
		</g>
		<path style="fill:#FECA0D;" d="M13.647,65.376c0,0,3.95-1.121,4.887-2.058s2.058-4.887,2.058-4.887s1.121,3.95,2.058,4.887
			s4.887,2.058,4.887,2.058s-3.95,1.121-4.887,2.058c-0.937,0.937-2.058,4.887-2.058,4.887s-1.121-3.95-2.058-4.887
			C17.596,66.497,13.647,65.376,13.647,65.376z"/>
		<path style="fill:#FECA0D;" d="M62.171,29.564c0,0,3.95-1.121,4.887-2.058c0.937-0.937,2.058-4.887,2.058-4.887
			s1.121,3.95,2.058,4.887c0.937,0.937,4.887,2.058,4.887,2.058s-3.95,1.121-4.887,2.058c-0.937,0.937-2.058,4.887-2.058,4.887
			s-1.121-3.95-2.058-4.887C66.121,30.685,62.171,29.564,62.171,29.564z"/>
	</g>
</g>
</svg>
