<svg xmlns="http://www.w3.org/2000/svg" viewBox="0 0 90.709 90.709"><defs><path id="B" d="M13.647 65.376s3.95-1.121 4.887-2.058 2.058-4.887 2.058-4.887 1.121 3.95 2.058 4.887 4.887 2.058 4.887 2.058-3.95 1.121-4.887 2.058-2.058 4.887-2.058 4.887-1.121-3.95-2.058-4.887-4.887-2.058-4.887-2.058z"/></defs><path d="M45.354 88.874c-23.997 0-43.52-19.522-43.52-43.52s19.523-43.52 43.52-43.52 43.52 19.523 43.52 43.521-19.523 43.519-43.52 43.519z" fill="#194093"/><path d="M45.354 2.835c23.483 0 42.52 19.037 42.52 42.52s-19.037 42.52-42.52 42.52-42.52-19.037-42.52-42.52 19.037-42.52 42.52-42.52m0-2C20.806.835.834 20.806.834 45.355s19.971 44.52 44.52 44.52 44.52-19.971 44.52-44.52S69.903.835 45.354.835h0z" fill="#252e78"/><path d="M54.536 48.417c-.159-.423-.531-.991-.531-.991s-.573 1.406-1.551.51l-.407-2.322c-1.029-4.038-5.119-6.597-9.156-5.945a7.96 7.96 0 0 1 .944 2.225c.478 1.873.25 3.759-.514 5.379-.899 1.906-3.701 1.95-4.622.055a10.02 10.02 0 0 1-.74-2.102 9.84 9.84 0 0 0-2.505 6.575c0 4.689 3.266 8.609 7.646 9.623-.92-.595-1.557-1.509-1.586-2.747-.076-3.361 3.119-2.895 3.688-6.907.039-.273.052-1.275.052-1.275s.968.533 1.245.729c1.73 1.226 4.657 3.853 4.24 7.369-.082.692-.322 1.28-.67 1.772 3.698-2.037 6.586-6.314 4.467-11.948" fill="#feca0d"/><path d="M55.044 69.086c.825-.644 1.365-1.636 1.365-2.763 0-.748-.237-1.438-.635-2.008 4.343-3.207 7.176-8.346 7.176-14.146 0-7.072-4.203-13.166-10.233-15.96V10.841v-2.8h-2.8-9.125-2.8v2.8 23.368c-6.031 2.794-10.233 8.888-10.233 15.96 0 5.801 2.834 10.939 7.176 14.146-.398.57-.635 1.26-.635 2.008 0 1.127.54 2.119 1.365 2.763-3.582 2.243-5.972 6.213-5.972 10.751h31.324c-.001-4.538-2.391-8.508-5.973-10.751zm-22.7-11.865c-1.139-2.096-1.786-4.499-1.786-7.053h0 0a14.73 14.73 0 0 1 1.786-7.053 14.84 14.84 0 0 1 2.548-3.41 14.79 14.79 0 0 1 5.9-3.609V10.841h9.125v25.257a14.8 14.8 0 0 1 5.9 3.609 14.84 14.84 0 0 1 2.548 3.41c1.139 2.096 1.786 4.499 1.786 7.053h0 0a14.73 14.73 0 0 1-1.786 7.053 14.84 14.84 0 0 1-2.548 3.41 14.9 14.9 0 0 1-2.19 1.807c-.202.136-.417.253-.625.38-.037-.001-.072-.011-.109-.011H37.816c-.037 0-.072.01-.109.011h0c-.209-.126-.424-.244-.625-.38a14.89 14.89 0 0 1-2.19-1.807 14.92 14.92 0 0 1-2.548-3.412z" fill="#fff"/><g fill="#feca0d"><use xlink:href="#B"/><use xlink:href="#B" x="48.524" y="-35.812"/></g></svg>