<svg xmlns="http://www.w3.org/2000/svg" viewBox="0 0 90.709 90.709"><circle cx="45.354" cy="45.354" r="43.52" fill="#194093"/><path d="M45.354 2.835c23.483 0 42.52 19.037 42.52 42.52s-19.037 42.52-42.52 42.52-42.52-19.037-42.52-42.52 19.037-42.52 42.52-42.52m0-2C20.806.835.834 20.806.834 45.355s19.971 44.52 44.52 44.52 44.52-19.971 44.52-44.52S69.903.835 45.354.835h0z" fill="#252e78"/><path d="M51.941 22.394H38.768a1.5 1.5 0 1 1 0-3h13.174a1.5 1.5 0 1 1-.001 3zm.5-5.109H38.268a1.5 1.5 0 1 1 0-3h14.174a1.5 1.5 0 1 1-.001 3zm.5-5.109H37.768a1.5 1.5 0 1 1 0-3h15.174a1.5 1.5 0 1 1-.001 3z" fill="#fff"/><path d="M56.311 56.277c.023-2.441 2.666-4.675 1.872-8.862-1.661-5.087-5.846-6.919-8.988-7.567l-.407-17.462 2.316-11.234c.251-1.897-.962-3.681-2.818-4.145h-5.861c-1.857.464-3.07 2.247-2.819 4.144l2.309 11.234-.405 17.462c-3.142.648-7.327 2.48-8.988 7.568-.793 4.187 1.85 6.42 1.874 8.862.032 3.315-6.017 6.435-5.933 15.142.12 12.48 15.482 12.24 16.892 12.192 1.41.048 16.772.285 16.89-12.195.084-8.705-5.966-11.823-5.934-15.139zm-6.697 4.309a6.06 6.06 0 0 1-4.203 1.722h-.061c-3.275 0-5.965-2.583-5.996-5.757-.03-3.207 2.636-5.842 5.943-5.874 3.336 0 6.025 2.583 6.056 5.758.016 1.564-.602 3.039-1.739 4.151z" fill="#feca0d"/><path d="M45.359 52.177c2.464 0 4.472 1.904 4.495 4.272.023 2.383-1.973 4.335-4.458 4.359h-.046c-2.464 0-4.472-1.904-4.495-4.272-.023-2.383 1.973-4.335 4.458-4.359h.046m0-3h-.015-.061c-4.135.04-7.468 3.354-7.429 7.388.039 3.994 3.401 7.243 7.495 7.243h.015.061c1.979-.019 3.84-.783 5.238-2.15 1.432-1.4 2.21-3.26 2.191-5.238-.039-3.994-3.401-7.243-7.495-7.243h0zm4.495 25.933h-9a1.5 1.5 0 1 1 0-3h9a1.5 1.5 0 1 1 0 3z" fill="#fff"/></svg>