<?xml version="1.0" encoding="iso-8859-1"?>
<!-- Generator: Adobe Illustrator 22.1.0, SVG Export Plug-In . SVG Version: 6.00 Build 0)  -->
<svg version="1.1" xmlns="http://www.w3.org/2000/svg" xmlns:xlink="http://www.w3.org/1999/xlink" x="0px" y="0px"
	 viewBox="0 0 90.709 90.709" style="enable-background:new 0 0 90.709 90.709;" xml:space="preserve">
<g id="ratownik-1">
	<g>
		<g>
			<circle style="fill:#194093;" cx="45.354" cy="45.354" r="43.52"/>
			<g>
				<path style="fill:#252E78;" d="M45.354,2.835c23.483,0,42.52,19.037,42.52,42.52s-19.037,42.52-42.52,42.52
					s-42.52-19.037-42.52-42.52S21.871,2.835,45.354,2.835 M45.354,0.835c-24.548,0-44.52,19.971-44.52,44.52
					s19.971,44.52,44.52,44.52s44.52-19.971,44.52-44.52S69.903,0.835,45.354,0.835L45.354,0.835z"/>
			</g>
		</g>
	</g>
</g>
<g id="Warstwa_4">
	<g>
		<g>
			<g>
				<path style="fill:#FFFFFF;" d="M51.941,22.394H38.768c-0.828,0-1.5-0.671-1.5-1.5s0.672-1.5,1.5-1.5h13.174
					c0.828,0,1.5,0.671,1.5,1.5S52.769,22.394,51.941,22.394z"/>
			</g>
			<g>
				<path style="fill:#FFFFFF;" d="M52.441,17.285H38.268c-0.828,0-1.5-0.671-1.5-1.5s0.672-1.5,1.5-1.5h14.174
					c0.828,0,1.5,0.671,1.5,1.5S53.269,17.285,52.441,17.285z"/>
			</g>
			<g>
				<path style="fill:#FFFFFF;" d="M52.941,12.176H37.768c-0.828,0-1.5-0.671-1.5-1.5s0.672-1.5,1.5-1.5h15.174
					c0.828,0,1.5,0.671,1.5,1.5S53.769,12.176,52.941,12.176z"/>
			</g>
		</g>
		<g>
			<path style="fill:#FECA0D;" d="M56.311,56.277c0.023-2.441,2.666-4.675,1.872-8.862c-1.661-5.087-5.846-6.919-8.988-7.567
				l-0.407-17.462l2.316-11.234c0.251-1.897-0.962-3.681-2.818-4.145h-5.861c-1.857,0.464-3.07,2.247-2.819,4.144l2.309,11.234
				l-0.405,17.462c-3.142,0.648-7.327,2.48-8.988,7.568c-0.793,4.187,1.85,6.42,1.874,8.862c0.032,3.315-6.017,6.435-5.933,15.142
				c0.12,12.48,15.482,12.24,16.892,12.192c1.41,0.048,16.772,0.285,16.89-12.195C62.329,62.711,56.279,59.593,56.311,56.277z
				 M49.614,60.586c-1.12,1.095-2.613,1.707-4.203,1.722h-0.061c-3.275,0-5.965-2.583-5.996-5.757
				c-0.03-3.207,2.636-5.842,5.943-5.874c3.336,0,6.025,2.583,6.056,5.758C51.369,57.999,50.751,59.474,49.614,60.586z"/>
			<g>
				<path style="fill:#FFFFFF;" d="M45.359,52.177c2.464,0,4.472,1.904,4.495,4.272c0.023,2.383-1.973,4.335-4.458,4.359
					c-0.015,0-0.031,0-0.046,0c-2.464,0-4.472-1.904-4.495-4.272c-0.023-2.383,1.973-4.335,4.458-4.359
					C45.328,52.177,45.343,52.177,45.359,52.177 M45.359,49.177h-0.015l-0.061,0c-4.135,0.04-7.468,3.354-7.429,7.388
					c0.039,3.994,3.401,7.243,7.495,7.243h0.015l0.061,0c1.979-0.019,3.84-0.783,5.238-2.15c1.432-1.4,2.21-3.26,2.191-5.238
					C52.815,52.426,49.453,49.177,45.359,49.177L45.359,49.177z"/>
			</g>
		</g>
		<g>
			<path style="fill:#FFFFFF;" d="M49.854,75.11h-9c-0.828,0-1.5-0.671-1.5-1.5s0.672-1.5,1.5-1.5h9c0.828,0,1.5,0.671,1.5,1.5
				S50.683,75.11,49.854,75.11z"/>
		</g>
	</g>
</g>
</svg>
