<svg xmlns="http://www.w3.org/2000/svg" viewBox="0 0 90.709 90.709"><circle transform="matrix(.9239 -.3827 .3827 .9239 -13.9041 20.8088)" cx="45.354" cy="45.355" r="43.52" fill="#194093"/><path d="M45.354 2.835c23.483 0 42.52 19.037 42.52 42.52s-19.037 42.52-42.52 42.52-42.52-19.037-42.52-42.52 19.037-42.52 42.52-42.52m0-2C20.806.835.834 20.806.834 45.355s19.971 44.52 44.52 44.52 44.52-19.971 44.52-44.52S69.903.835 45.354.835h0z" fill="#252e78"/><path d="M46.854 52.565c1.905.632 3.289 2.408 3.289 4.525a4.79 4.79 0 0 1-4.788 4.788 4.79 4.79 0 0 1-4.788-4.788c0-2.117 1.383-3.893 3.288-4.525V32.011l-12.12 22.788 5.202 16.855h16.835l5.202-16.855-12.12-22.79v20.556zM35.578 74.332h19.553v7.734H35.578z" fill="#fff"/><path d="M58.114 25.848h10.485c.603 1.552 2.101 2.656 3.866 2.656 2.295 0 4.156-1.861 4.156-4.156s-1.861-4.156-4.156-4.156c-1.765 0-3.263 1.104-3.866 2.656H49.077v-2.273h-7.546v2.273H22.11c-.603-1.552-2.101-2.656-3.866-2.656-2.295 0-4.156 1.861-4.156 4.156s1.861 4.156 4.156 4.156c1.765 0 3.263-1.104 3.866-2.656h10.385c-8.466 4.2-14.59 12.422-15.864 22.154h-2.527v7.546h7.546v-7.546h-1.996a25.99 25.99 0 0 1 21.878-21.877v1.995h7.546v-1.995C60.36 27.777 69.302 36.72 70.955 48.001H68.96v7.546h7.546v-7.546h-2.527c-1.276-9.731-7.4-17.954-15.865-22.153z" fill="#f8c409"/></svg>