<?xml version="1.0" encoding="iso-8859-1"?>
<!-- Generator: Adobe Illustrator 22.1.0, SVG Export Plug-In . SVG Version: 6.00 Build 0)  -->
<svg version="1.1" xmlns="http://www.w3.org/2000/svg" xmlns:xlink="http://www.w3.org/1999/xlink" x="0px" y="0px"
	 viewBox="0 0 90.709 90.709" style="enable-background:new 0 0 90.709 90.709;" xml:space="preserve">
<g id="ratownik-1">
	<g>
		<g>
			
				<ellipse transform="matrix(0.9239 -0.3827 0.3827 0.9239 -13.9041 20.8088)" style="fill:#194093;" cx="45.354" cy="45.355" rx="43.52" ry="43.52"/>
			<g>
				<path style="fill:#252E78;" d="M45.354,2.835c23.483,0,42.52,19.037,42.52,42.52s-19.037,42.52-42.52,42.52
					s-42.52-19.037-42.52-42.52S21.871,2.835,45.354,2.835 M45.354,0.835c-24.548,0-44.52,19.971-44.52,44.52
					s19.971,44.52,44.52,44.52s44.52-19.971,44.52-44.52S69.903,0.835,45.354,0.835L45.354,0.835z"/>
			</g>
		</g>
	</g>
</g>
<g id="Warstwa_4">
	<g>
		<path style="fill:#FFFFFF;" d="M46.854,52.565c1.905,0.632,3.289,2.408,3.289,4.525c0,2.645-2.144,4.788-4.788,4.788
			c-2.645,0-4.788-2.144-4.788-4.788c0-2.117,1.383-3.893,3.288-4.525V32.011l-12.12,22.788l5.202,16.855h16.835l5.202-16.855
			l-12.12-22.79V52.565z"/>
		<rect x="35.578" y="74.332" style="fill:#FFFFFF;" width="19.553" height="7.734"/>
		<path style="fill:#F8C409;" d="M58.114,25.848h10.485c0.603,1.552,2.101,2.656,3.866,2.656c2.295,0,4.156-1.861,4.156-4.156
			c0-2.295-1.861-4.156-4.156-4.156c-1.765,0-3.263,1.104-3.866,2.656H49.077v-2.273h-7.546v2.273H22.11
			c-0.603-1.552-2.101-2.656-3.866-2.656c-2.295,0-4.156,1.861-4.156,4.156c0,2.295,1.861,4.156,4.156,4.156
			c1.765,0,3.263-1.104,3.866-2.656h10.385c-8.466,4.2-14.59,12.422-15.864,22.154h-2.527v7.546h7.546v-7.546h-1.996
			C21.307,36.72,30.25,27.778,41.532,26.125v1.995h7.546v-1.995c11.282,1.652,20.224,10.595,21.877,21.876h-1.995v7.546h7.546
			v-7.546h-2.527C72.703,38.27,66.579,30.047,58.114,25.848z"/>
	</g>
</g>
</svg>
