<svg xmlns="http://www.w3.org/2000/svg" viewBox="0 0 90.709 90.709"><defs><path id="B" d="M40.607 21.592a2.91 2.91 0 0 1-2.908 2.908 2.91 2.91 0 0 1-2.908-2.908 2.91 2.91 0 0 1 2.908-2.908 2.91 2.91 0 0 1 2.908 2.908"/></defs><path d="M45.354 88.874c-23.997 0-43.52-19.523-43.52-43.52s19.522-43.52 43.52-43.52 43.521 19.523 43.521 43.52-19.524 43.52-43.521 43.52z" fill="#194093"/><path d="M45.354 2.835c23.483 0 42.52 19.037 42.52 42.52s-19.037 42.52-42.52 42.52-42.52-19.037-42.52-42.52 19.037-42.52 42.52-42.52m0-2C20.806.835.834 20.806.834 45.355s19.971 44.52 44.52 44.52 44.52-19.971 44.52-44.52S69.903.835 45.354.835h0z" fill="#252e78"/><path d="M45.354 83.622a38.4 38.4 0 0 0 7.417-.725l-.048-15.054H37.924v15.052c2.405.473 4.887.727 7.43.727zm-.006-74.773l.681.015c8.565.37 15.209 7.613 14.839 16.178-.36 8.337-7.232 14.854-15.497 14.854a15.54 15.54 0 0 1-.681-.015c-8.565-.37-15.209-7.613-14.839-16.178.36-8.338 7.232-14.854 15.497-14.854" fill="#fff"/><path d="M62.149 24.552c.31-9.202-6.846-16.957-16.065-17.354a16.81 16.81 0 0 0-17.515 16.066c-.012.277.004.548.006.822 6.923-1.551 12.581-6.441 15.201-12.893 3.011 7.413 10.03 12.767 18.373 13.359z" fill="#f8c409"/><g fill="#194093"><use xlink:href="#B"/><path d="M45.36 35.004a5.31 5.31 0 0 1-5.303-5.303 1.5 1.5 0 1 1 3 0c0 1.27 1.033 2.303 2.303 2.303s2.303-1.033 2.303-2.303a1.5 1.5 0 1 1 3 0 5.31 5.31 0 0 1-5.303 5.303z"/><use xlink:href="#B" x="15.322"/></g><path d="M70.294 34.259c-.636-4.173-5.704-4.082-9.023-.4l-.684.701c-3.288 4.904-8.88 8.134-15.228 8.134-5.612 0-10.629-2.53-13.99-6.504a19 19 0 0 1-1.984-1.763c-3.444-3.56-8.511-3.471-9 .725s3.48 10.156 14.854 11.563c0 0-.004.023-.014.059.014-.059-6.22 23.247-6.22 23.247 0 2.577 7.394 6.72 16.123 6.72 7.099 0 16.554-3.017 16.554-6.72l-5.817-23.674c11.311-1.813 15.068-7.912 14.429-12.088z" fill="#f8c409"/></svg>