<?xml version="1.0" encoding="iso-8859-1"?>
<!-- Generator: Adobe Illustrator 22.1.0, SVG Export Plug-In . SVG Version: 6.00 Build 0)  -->
<svg version="1.1" xmlns="http://www.w3.org/2000/svg" xmlns:xlink="http://www.w3.org/1999/xlink" x="0px" y="0px"
	 viewBox="0 0 90.709 90.709" style="enable-background:new 0 0 90.709 90.709;" xml:space="preserve">
<g id="ratownik-1">
	<g>
		<g>
			<path style="fill:#194093;" d="M45.354,88.874c-23.997,0-43.52-19.523-43.52-43.52s19.522-43.52,43.52-43.52
				s43.521,19.523,43.521,43.52S69.351,88.874,45.354,88.874z"/>
			<g>
				<path style="fill:#252E78;" d="M45.354,2.835c23.483,0,42.52,19.037,42.52,42.52s-19.037,42.52-42.52,42.52
					c-23.483,0-42.52-19.037-42.52-42.52S21.871,2.835,45.354,2.835 M45.354,0.835c-24.548,0-44.52,19.971-44.52,44.52
					s19.971,44.52,44.52,44.52s44.52-19.971,44.52-44.52S69.903,0.835,45.354,0.835L45.354,0.835z"/>
			</g>
		</g>
	</g>
</g>
<g id="Warstwa_4">
	<g>
		<path style="fill:#FFFFFF;" d="M45.354,83.622c2.538,0,5.017-0.253,7.417-0.725l-0.048-15.054H37.924v15.052
			C40.329,83.368,42.811,83.622,45.354,83.622z"/>
		<g>
			<g>
				<g>
					<path style="fill:#FFFFFF;" d="M45.348,8.849c0.226,0,0.453,0.005,0.681,0.015c8.565,0.37,15.209,7.613,14.839,16.178
						c-0.36,8.337-7.232,14.854-15.497,14.854c-0.226,0-0.453-0.005-0.681-0.015c-8.565-0.37-15.209-7.613-14.839-16.178
						C30.211,15.365,37.083,8.849,45.348,8.849"/>
				</g>
			</g>
			<g>
				<path style="fill:#F8C409;" d="M62.149,24.552c0.31-9.202-6.846-16.957-16.065-17.354c-9.273-0.4-17.115,6.793-17.515,16.066
					c-0.012,0.277,0.004,0.548,0.006,0.822c6.923-1.551,12.581-6.441,15.201-12.893C46.787,18.606,53.806,23.96,62.149,24.552z"/>
			</g>
			<g>
				<g>
					<g>
						<path style="fill:#194093;" d="M40.607,21.592c0,1.606-1.302,2.908-2.908,2.908c-1.606,0-2.908-1.302-2.908-2.908
							c0-1.606,1.302-2.908,2.908-2.908C39.305,18.683,40.607,19.986,40.607,21.592"/>
					</g>
					<g>
						<path style="fill:#194093;" d="M45.36,35.004c-2.924,0-5.303-2.379-5.303-5.303c0-0.829,0.672-1.5,1.5-1.5s1.5,0.671,1.5,1.5
							c0,1.27,1.033,2.303,2.303,2.303s2.303-1.033,2.303-2.303c0-0.829,0.672-1.5,1.5-1.5s1.5,0.671,1.5,1.5
							C50.662,32.625,48.284,35.004,45.36,35.004z"/>
					</g>
					<g>
						<path style="fill:#194093;" d="M55.929,21.592c0,1.606-1.302,2.908-2.908,2.908c-1.606,0-2.908-1.302-2.908-2.908
							c0-1.606,1.302-2.908,2.908-2.908C54.627,18.683,55.929,19.986,55.929,21.592"/>
					</g>
				</g>
			</g>
			<g>
				<path style="fill:#F8C409;" d="M70.294,34.259c-0.636-4.173-5.704-4.082-9.023-0.4c-0.218,0.242-0.452,0.471-0.684,0.701
					c-3.288,4.904-8.88,8.134-15.228,8.134c-5.612,0-10.629-2.53-13.99-6.504c-0.692-0.539-1.368-1.126-1.984-1.763
					c-3.444-3.56-8.511-3.471-9,0.725c-0.489,4.193,3.48,10.156,14.854,11.563c0,0-0.004,0.023-0.014,0.059
					c0.014-0.059-6.22,23.247-6.22,23.247c0,2.577,7.394,6.72,16.123,6.72c7.099,0,16.554-3.017,16.554-6.72l-5.817-23.674
					C67.176,44.534,70.933,38.435,70.294,34.259z"/>
			</g>
		</g>
	</g>
</g>
</svg>
