<?xml version="1.0" encoding="iso-8859-1"?>
<!-- Generator: Adobe Illustrator 22.1.0, SVG Export Plug-In . SVG Version: 6.00 Build 0)  -->
<svg version="1.1" xmlns="http://www.w3.org/2000/svg" xmlns:xlink="http://www.w3.org/1999/xlink" x="0px" y="0px"
	 viewBox="0 0 90.709 90.709" style="enable-background:new 0 0 90.709 90.709;" xml:space="preserve">
<g id="ratownik-1">
	<g>
		<g>
			<circle style="fill:#194093;" cx="45.354" cy="45.355" r="43.52"/>
			<g>
				<path style="fill:#252E78;" d="M45.354,2.835c23.483,0,42.52,19.037,42.52,42.52s-19.037,42.52-42.52,42.52
					s-42.52-19.037-42.52-42.52S21.871,2.835,45.354,2.835 M45.354,0.835c-24.548,0-44.52,19.971-44.52,44.52
					s19.971,44.52,44.52,44.52s44.52-19.971,44.52-44.52S69.903,0.835,45.354,0.835L45.354,0.835z"/>
			</g>
		</g>
	</g>
</g>
<g id="Warstwa_4">
	<g>
		<path style="fill:#FFFFFF;" d="M59.113,51.82c0.336,0.561,0.562,1.369,0.541,2.584c-0.022,1.258-1.456,2.823-3.821,4.549
			c-1.59,1.161-3.732,1.938-5.966,0.916c-1.66-0.759-1.961-2.764-1.671-4.542c0.204-1.245,3.414-15.473,3.414-15.473
			c-0.103-0.126-0.203-0.256-0.297-0.391c-1.09-1.569-1.53-3.473-1.164-5.347C51.884,25.22,60.87,24.69,60.87,24.69
			s-0.122,2.254-0.162,3.005c-0.035,0.64,0.373,1.433,0.892,2.254l0,0c0.368-0.361,0.719-0.74,1.043-1.145
			c4.317-5.398,1.605-12.66-3.917-15.974C58.2,12.512,54.645,9.92,47.742,10.5c-5.711,0.48-11.067,2.069-15.571,5.629
			C25.02,21.78,20.41,30.341,18.87,39.328c-0.969,5.643-0.759,11.596,1.418,16.887c3.288,7.989,11.196,13.931,19.798,14.716
			c13.303,1.214,20.832-8.394,22.282-10.577c1.536-2.315,2.646-4.992,2.647-7.768c0.001-5.128-4.249-6.991-5.058-7.286L59.113,51.82
			z"/>
		<circle style="fill:#F8C409;" cx="36.316" cy="59.417" r="5.768"/>
		
			<ellipse transform="matrix(0.3827 -0.9239 0.9239 0.3827 -24.3802 52.5401)" style="fill:#F8C409;" cx="27.126" cy="44.514" rx="5.768" ry="5.768"/>
		<path style="fill:#F8C409;" d="M49.047,80.382c0.222,0.04,0.442,0.059,0.659,0.059c1.731,0,3.264-1.223,3.579-2.968l1.36-9.885
			c-2.242,1.323-4.69,2.295-7.228,2.862l-1.326,5.727C45.737,78.141,47.06,80.024,49.047,80.382z"/>
		<path style="fill:#F8C409;" d="M51.883,50.564l-2.015,9.304c0.765,0.361,1.626,0.545,2.464,0.491
			c1.168-0.074,2.39-0.651,3.502-1.407l0.955-7.629L51.883,50.564z"/>
		<path style="fill:#FFFFFF;" d="M55.918,42.42c-0.75-0.135-1.458-0.388-2.111-0.738l-1.409,6.506l4.661,0.797l0.88-6.517
			c-0.248,0.026-0.492,0.066-0.746,0.066C56.767,42.535,56.339,42.496,55.918,42.42z"/>
		<path style="fill:#F8C409;" d="M52.234,34.491c-0.493,2.735,1.325,5.352,4.06,5.845c0.302,0.054,0.602,0.081,0.898,0.081
			c2.388,0,4.508-1.707,4.946-4.14c0.493-2.735-3.719-5.489-3.546-8.695C55.366,28.544,52.727,31.756,52.234,34.491z"/>
		
			<ellipse transform="matrix(0.1602 -0.9871 0.9871 0.1602 0.7239 57.3195)" style="fill:#F8C409;" cx="34.047" cy="28.234" rx="5.768" ry="5.768"/>
		
			<ellipse transform="matrix(0.1602 -0.9871 0.9871 0.1602 21.5814 65.1518)" style="fill:#F8C409;" cx="49.079" cy="19.893" rx="5.768" ry="5.768"/>
	</g>
</g>
</svg>
