<svg xmlns="http://www.w3.org/2000/svg" viewBox="0 0 90.709 90.709"><circle transform="matrix(.9239 -.3827 .3827 .9239 -13.904 20.8088)" cx="45.354" cy="45.354" r="43.52" fill="#194093"/><path d="M45.354 2.835c23.483 0 42.52 19.037 42.52 42.52s-19.037 42.52-42.52 42.52-42.52-19.037-42.52-42.52 19.037-42.52 42.52-42.52m0-2C20.806.835.834 20.806.834 45.355s19.971 44.52 44.52 44.52 44.52-19.971 44.52-44.52S69.903.835 45.354.835h0z" fill="#252e78"/><path d="M35.241 49.493c0-2.934-1.382-5.396-3.893-6.932-1.474-.902-3.198-1.378-4.704-1.378l-1.142-8.021c1.109-1.09 4.963-4.519 5.913-8.487.288-1.2 1.005-4.545-.129-7.772-.473-1.346-2.479-3.55-3.488-3.528-6.735.145-7.078 7.445-6.572 12.841l.722 5.609c-6.158 5.38-10.882 9.404-10.882 17.668 0 6.665 5.422 12.087 12.087 12.087a11.95 11.95 0 0 0 2.685-.314s.458 3.091.544 4.137c.144 1.739-.323 2.953-1.387 3.609-.911.561-2.015.589-2.616.472.899-.665 1.488-1.724 1.488-2.929a3.66 3.66 0 0 0-3.657-3.657c-1.941 0-3.738 1.513-3.645 3.424.189 3.869 2.423 5.202 3.869 5.975.665.356 3.52 1.309 6.446-.543 1.203-.761 3.142-2.674 2.815-6.624-.104-1.264-.298-3.044-.55-5.155 3.637-2.086 6.096-5.999 6.096-10.482zm-8.047-4.37c2.032.613 4.063 2.476 4.063 5.309 0 2.475-1.435 4.554-2.614 5.495l-1.449-10.804zM23.3 41.974c-.708.32-2.798 1.279-3.657 4.174-1.159 3.906 1.162 5.925 2.164 6.536.49.311 1.14-.784.873-1.085-.561-.657-.845-1.443-.933-2.211-.307-2.671 1.527-3.628 2.02-3.844l1.598 12.118c-9.693 1.821-10.55-8.799-10.457-9.676.047-.897-.451-4.573 7.608-11.975l.784 5.963zm4.86-18.085c-.283 1.304-1.628 3.789-3.238 5.072-.961-8.342.559-11.26 2.283-12.118.547.867 1.793 3.176.955 7.046z" fill="#f8c409"/><path d="M50.779 19.693v20.81c-.949-.04-2.034.2-3.08.744-2.301 1.197-3.527 3.393-2.74 4.907s3.291 1.771 5.591.575c1.872-.973 3.107-2.611 3.16-3.997h.037V24.889l12.76-2.59v14.218c-.895.003-1.893.24-2.86.743-2.301 1.196-3.527 3.393-2.74 4.907s3.291 1.772 5.591.576c1.92-.999 3.088-2.694 2.965-4.108h.012v-1.317-21.101l-18.696 3.476zm5.69 47.885c-.676-4.587-5.18-7.818-7.637-9.265-.633-.537-1.077-1.277-1.35-2.069-.153-.442-.438-3.72-.438-3.72H43.91V74.61c-1.052-.024-2.243.249-3.392.847-2.612 1.358-4.005 3.853-3.111 5.572s3.153 2.095 5.765.737c1.722-.896 3.674-2.419 3.674-4.599V61.429c2.078-.024 4.043 1.604 5.149 2.725.64.743 1.178 1.566 1.531 2.454.388 1.211.427 2.394.251 3.485-.426 1.706-1.626 3.455-3.623 5.223l1.716 1.938c3.536-3.131 5.083-6.387 4.599-9.676z" fill="#fff"/></svg>