<?xml version="1.0" encoding="iso-8859-1"?>
<!-- Generator: Adobe Illustrator 22.1.0, SVG Export Plug-In . SVG Version: 6.00 Build 0)  -->
<svg version="1.1" xmlns="http://www.w3.org/2000/svg" xmlns:xlink="http://www.w3.org/1999/xlink" x="0px" y="0px"
	 viewBox="0 0 90.709 90.709" style="enable-background:new 0 0 90.709 90.709;" xml:space="preserve">
<g id="ratownik-1">
	<g>
		<g>
			
				<ellipse transform="matrix(0.9239 -0.3827 0.3827 0.9239 -13.904 20.8088)" style="fill:#194093;" cx="45.354" cy="45.354" rx="43.52" ry="43.52"/>
			<g>
				<path style="fill:#252E78;" d="M45.354,2.835c23.483,0,42.52,19.037,42.52,42.52s-19.037,42.52-42.52,42.52
					s-42.52-19.037-42.52-42.52S21.871,2.835,45.354,2.835 M45.354,0.835c-24.548,0-44.52,19.971-44.52,44.52
					s19.971,44.52,44.52,44.52s44.52-19.971,44.52-44.52S69.903,0.835,45.354,0.835L45.354,0.835z"/>
			</g>
		</g>
	</g>
</g>
<g id="Warstwa_4">
	<g>
		<g>
			<path style="fill:#F8C409;" d="M35.241,49.493c0-2.934-1.382-5.396-3.893-6.932c-1.474-0.902-3.198-1.378-4.704-1.378
				c-0.4-2.847-0.792-5.589-1.142-8.021c1.109-1.09,4.963-4.519,5.913-8.487c0.288-1.2,1.005-4.545-0.129-7.772
				c-0.473-1.346-2.479-3.55-3.488-3.528c-6.735,0.145-7.078,7.445-6.572,12.841c0.367,3.203,0.722,5.609,0.722,5.609
				c-6.158,5.38-10.882,9.404-10.882,17.668c0,6.665,5.422,12.087,12.087,12.087c0.924,0,1.82-0.115,2.685-0.314
				c0,0,0.458,3.091,0.544,4.137c0.144,1.739-0.323,2.953-1.387,3.609c-0.911,0.561-2.015,0.589-2.616,0.472
				c0.899-0.665,1.488-1.724,1.488-2.929c0-2.019-1.637-3.657-3.657-3.657c-1.941,0-3.738,1.513-3.645,3.424
				c0.189,3.869,2.423,5.202,3.869,5.975c0.665,0.356,3.52,1.309,6.446-0.543c1.203-0.761,3.142-2.674,2.815-6.624
				c-0.104-1.264-0.298-3.044-0.55-5.155C32.782,57.889,35.241,53.976,35.241,49.493z M27.194,45.123
				c2.032,0.613,4.063,2.476,4.063,5.309c0,2.475-1.435,4.554-2.614,5.495C28.217,52.603,27.711,48.857,27.194,45.123z M23.3,41.974
				c-0.708,0.32-2.798,1.279-3.657,4.174c-1.159,3.906,1.162,5.925,2.164,6.536c0.49,0.311,1.14-0.784,0.873-1.085
				c-0.561-0.657-0.845-1.443-0.933-2.211c-0.307-2.671,1.527-3.628,2.02-3.844l1.598,12.118c-9.693,1.821-10.55-8.799-10.457-9.676
				c0.047-0.897-0.451-4.573,7.608-11.975L23.3,41.974z M28.16,23.889c-0.283,1.304-1.628,3.789-3.238,5.072
				c-0.961-8.342,0.559-11.26,2.283-12.118C27.752,17.71,28.998,20.019,28.16,23.889z"/>
		</g>
		<path style="fill:#FFFFFF;" d="M50.779,19.693v20.81c-0.949-0.04-2.034,0.2-3.08,0.744c-2.301,1.197-3.527,3.393-2.74,4.907
			c0.788,1.514,3.291,1.771,5.591,0.575c1.872-0.973,3.107-2.611,3.16-3.997h0.037V24.889l12.76-2.59v14.218
			c-0.895,0.003-1.893,0.24-2.86,0.743c-2.301,1.196-3.527,3.393-2.74,4.907c0.788,1.514,3.291,1.772,5.591,0.576
			c1.92-0.999,3.088-2.694,2.965-4.108h0.012v-1.317V16.217L50.779,19.693z"/>
		<g>
			<path style="fill:#FFFFFF;" d="M56.469,67.578c-0.676-4.587-5.18-7.818-7.637-9.265c-0.633-0.537-1.077-1.277-1.35-2.069
				c-0.153-0.442-0.438-3.72-0.438-3.72H43.91V74.61c-1.052-0.024-2.243,0.249-3.392,0.847c-2.612,1.358-4.005,3.853-3.111,5.572
				c0.894,1.719,3.153,2.095,5.765,0.737c1.722-0.896,3.674-2.419,3.674-4.599c0-14.456,0-15.738,0-15.738
				c2.078-0.024,4.043,1.604,5.149,2.725c0.64,0.743,1.178,1.566,1.531,2.454c0.388,1.211,0.427,2.394,0.251,3.485
				c-0.426,1.706-1.626,3.455-3.623,5.223l1.716,1.938C55.406,74.123,56.953,70.867,56.469,67.578z"/>
		</g>
	</g>
</g>
</svg>
