<?xml version="1.0" encoding="iso-8859-1"?>
<!-- Generator: Adobe Illustrator 22.1.0, SVG Export Plug-In . SVG Version: 6.00 Build 0)  -->
<svg version="1.1" xmlns="http://www.w3.org/2000/svg" xmlns:xlink="http://www.w3.org/1999/xlink" x="0px" y="0px"
	 viewBox="0 0 90.709 90.709" style="enable-background:new 0 0 90.709 90.709;" xml:space="preserve">
<g id="ratownik-1">
	<g>
		<g>
			<circle style="fill:#194093;" cx="45.354" cy="45.354" r="43.52"/>
			<g>
				<path style="fill:#252E78;" d="M45.354,2.835c23.483,0,42.52,19.037,42.52,42.52s-19.037,42.52-42.52,42.52
					s-42.52-19.037-42.52-42.52S21.871,2.835,45.354,2.835 M45.354,0.835c-24.548,0-44.52,19.971-44.52,44.52
					s19.971,44.52,44.52,44.52s44.52-19.971,44.52-44.52S69.903,0.835,45.354,0.835L45.354,0.835z"/>
			</g>
		</g>
	</g>
</g>
<g id="Warstwa_4">
	<g>
		<g>
			<path style="fill:#FFFFFF;" d="M74.736,66.202c-0.258-0.429-13.935-27.879-18.135-36.01l-12.513,7.534
				c5.271,7.667,22.623,32.429,22.928,32.935c0.35,0.581,2.2,2.837,5.727,0.714C76.268,69.253,75.031,66.693,74.736,66.202z
				 M60.065,50.835c-1.59,0.918-3.958-0.205-5.288-2.509c-1.33-2.304-1.119-4.916,0.471-5.834c1.59-0.918,3.958,0.205,5.288,2.509
				C61.866,47.305,61.656,49.917,60.065,50.835z"/>
			<g>
				<path style="fill:#FECA0D;" d="M35.503,8.827c-6.44,3.878-8.797,11.951-5.684,18.614l24.794-14.928
					C50.182,6.643,41.944,4.949,35.503,8.827z"/>
			</g>
			<g>
				<path style="fill:#FECA0D;" d="M56.969,17.181L32.841,31.708c1.994,1.95,4.477,3.248,7.123,3.815l17.042-10.261
					C57.743,22.658,57.759,19.856,56.969,17.181z"/>
			</g>
		</g>
		<g>
			<path style="fill:#FECA0D;" d="M43.064,59.595c-0.759-5.152-5.818-8.782-8.578-10.407c-0.711-0.603-1.209-1.435-1.517-2.324
				c-0.172-0.497-0.492-4.179-0.492-4.179h-3.52v24.809c-1.182-0.027-2.519,0.28-3.81,0.951c-2.934,1.526-4.499,4.328-3.495,6.259
				c1.004,1.931,3.542,2.353,6.476,0.828c1.935-1.006,4.126-2.717,4.126-5.166c0-16.238,0-17.678,0-17.678
				c2.334-0.028,4.541,1.802,5.783,3.061c0.718,0.835,1.323,1.759,1.72,2.757c0.436,1.36,0.479,2.689,0.282,3.915
				c-0.478,1.917-1.826,3.881-4.07,5.867l1.927,2.177C41.87,66.947,43.608,63.29,43.064,59.595z"/>
		</g>
	</g>
</g>
</svg>
