<svg xmlns="http://www.w3.org/2000/svg" viewBox="0 0 90.709 90.709"><circle cx="45.354" cy="45.354" r="43.52" fill="#194093"/><path d="M45.354 2.835c23.483 0 42.52 19.037 42.52 42.52s-19.037 42.52-42.52 42.52-42.52-19.037-42.52-42.52 19.037-42.52 42.52-42.52m0-2C20.806.835.834 20.806.834 45.355s19.971 44.52 44.52 44.52 44.52-19.971 44.52-44.52S69.903.835 45.354.835h0z" fill="#252e78"/><path d="M74.736 66.202c-.258-.429-13.935-27.879-18.135-36.01l-12.513 7.534 22.928 32.935c.35.581 2.2 2.837 5.727.714s2.288-4.682 1.993-5.173zM60.065 50.835c-1.59.918-3.958-.205-5.288-2.509s-1.119-4.916.471-5.834 3.958.205 5.288 2.509 1.12 4.916-.471 5.834z" fill="#fff"/><path d="M35.503 8.827c-6.44 3.878-8.797 11.951-5.684 18.614l24.794-14.928c-4.431-5.87-12.669-7.564-19.11-3.686zm21.466 8.354L32.841 31.708a14.54 14.54 0 0 0 7.123 3.815l17.042-10.261c.737-2.604.753-5.406-.037-8.081zM43.064 59.595c-.759-5.152-5.818-8.782-8.578-10.407-.711-.603-1.209-1.435-1.517-2.324-.172-.497-.492-4.179-.492-4.179h-3.52v24.809c-1.182-.027-2.519.28-3.81.951-2.934 1.526-4.499 4.328-3.495 6.259s3.542 2.353 6.476.828c1.935-1.006 4.126-2.717 4.126-5.166V52.688c2.334-.028 4.541 1.802 5.783 3.061.718.835 1.323 1.759 1.72 2.757.436 1.36.479 2.689.282 3.915-.478 1.917-1.826 3.881-4.07 5.867l1.927 2.177c3.974-3.518 5.712-7.175 5.168-10.87z" fill="#feca0d"/></svg>