<?xml version="1.0" encoding="iso-8859-1"?>
<!-- Generator: Adobe Illustrator 22.1.0, SVG Export Plug-In . SVG Version: 6.00 Build 0)  -->
<svg version="1.1" xmlns="http://www.w3.org/2000/svg" xmlns:xlink="http://www.w3.org/1999/xlink" x="0px" y="0px"
	 viewBox="0 0 90.709 90.709" style="enable-background:new 0 0 90.709 90.709;" xml:space="preserve">
<g id="ratownik-1">
	<g>
		<g>
			<path style="fill:#194093;" d="M45.354,88.874c-23.997,0-43.52-19.522-43.52-43.52S21.357,1.834,45.354,1.834
				s43.52,19.523,43.52,43.521S69.352,88.874,45.354,88.874z"/>
			<g>
				<path style="fill:#252E78;" d="M45.354,2.835c23.483,0,42.52,19.037,42.52,42.52s-19.037,42.52-42.52,42.52
					s-42.52-19.037-42.52-42.52S21.871,2.835,45.354,2.835 M45.354,0.835c-24.548,0-44.52,19.971-44.52,44.52
					s19.971,44.52,44.52,44.52s44.52-19.971,44.52-44.52S69.903,0.835,45.354,0.835L45.354,0.835z"/>
			</g>
		</g>
	</g>
</g>
<g id="Warstwa_4">
	<g>
		<g>
			<path style="fill:#FFFFFF;" d="M67.721,62.573L38.728,36.057c-0.457,0.751-0.992,1.462-1.621,2.107
				c-0.7,0.717-1.481,1.32-2.314,1.827l26.516,28.993c1.745,1.908,4.729,1.975,6.558,0.146
				C69.696,67.302,69.629,64.318,67.721,62.573z"/>
			<path style="fill:#FECA0D;" d="M34.959,36.069c3.346-3.431,3.278-8.926-0.154-12.272c-1.645-1.604-4.339-1.668-7.186-1.668
				c-0.247,0-0.496,0-0.745,0c-2.865,0-5.804-0.064-7.918-1.666c-1.741,5.541,0.298,12.413,3.729,15.76
				c1.688,1.646,3.874,2.466,6.059,2.466C31.003,38.689,33.259,37.813,34.959,36.069z"/>
		</g>
		<g>
			<polygon style="fill:#FECA0D;" points="22.392,63.372 22.306,66.959 25.806,70.46 29.394,70.373 60.132,39.635 53.13,32.634 			
				"/>
			<polygon style="fill:#FFFFFF;" points="67.575,28.446 64.188,25.059 55.12,30.381 55.252,30.513 62.253,37.514 			"/>
			<polygon style="fill:#FECA0D;" points="67.575,28.446 72.385,20.249 64.188,25.059 64.188,25.059 67.575,28.446 			"/>
		</g>
	</g>
</g>
</svg>
