<svg xmlns="http://www.w3.org/2000/svg" viewBox="0 0 90.709 90.709"><path d="M45.354 88.874c-23.997 0-43.52-19.522-43.52-43.52s19.523-43.52 43.52-43.52 43.52 19.523 43.52 43.521-19.522 43.519-43.52 43.519z" fill="#194093"/><path d="M45.354 2.835c23.483 0 42.52 19.037 42.52 42.52s-19.037 42.52-42.52 42.52-42.52-19.037-42.52-42.52 19.037-42.52 42.52-42.52m0-2C20.806.835.834 20.806.834 45.355s19.971 44.52 44.52 44.52 44.52-19.971 44.52-44.52S69.903.835 45.354.835h0z" fill="#252e78"/><path d="M67.721 62.573L38.728 36.057a11.76 11.76 0 0 1-1.621 2.107c-.7.717-1.481 1.32-2.314 1.827l26.516 28.993a4.54 4.54 0 1 0 6.412-6.411z" fill="#fff"/><path d="M34.959 36.069a8.68 8.68 0 0 0-.154-12.272c-1.645-1.604-4.339-1.668-7.186-1.668h-.745c-2.865 0-5.804-.064-7.918-1.666-1.741 5.541.298 12.413 3.729 15.76a8.65 8.65 0 0 0 12.274-.154zM22.392 63.372l-.086 3.587 3.5 3.501 3.588-.087 30.738-30.738-7.002-7.001z" fill="#feca0d"/><path d="M67.575 28.446l-3.387-3.387-9.068 5.322.132.132 7.001 7.001z" fill="#fff"/><path d="M67.575 28.446l4.81-8.197-8.197 4.81h0l3.387 3.387z" fill="#feca0d"/></svg>