<svg xmlns="http://www.w3.org/2000/svg" viewBox="0 0 90.709 90.709"><path d="M45.354 88.874c-23.997 0-43.52-19.522-43.52-43.52s19.523-43.52 43.52-43.52 43.52 19.523 43.52 43.521-19.522 43.519-43.52 43.519z" fill="#194093"/><path d="M45.354 2.835c23.483 0 42.52 19.037 42.52 42.52s-19.037 42.52-42.52 42.52-42.52-19.037-42.52-42.52 19.037-42.52 42.52-42.52m0-2C20.806.835.834 20.806.834 45.355s19.971 44.52 44.52 44.52 44.52-19.971 44.52-44.52S69.903.835 45.354.835h0z" fill="#252e78"/><path d="M47.854 76.104v-41.81a2.5 2.5 0 1 0-5 0v41.81c-4.827.323-8.425 1.558-8.425 3.036 0 1.724 4.891 3.121 10.925 3.121S56.28 80.864 56.28 79.14c0-1.478-3.599-2.713-8.426-3.036z" fill="#fff"/><path d="M50.321 31.983a1.6 1.6 0 1 1 0-3.2h5.187v-4.027h-5.187a1.6 1.6 0 1 1 0-3.2h5.187v-4.027h-5.187a1.6 1.6 0 0 1 0-3.2h5.187v-1.033c0-2.667-2.182-4.85-4.85-4.85H40.05c-2.667 0-4.85 2.182-4.85 4.85v1.033h5.187a1.6 1.6 0 0 1 0 3.2H35.2v4.027h5.187a1.6 1.6 0 1 1 0 3.2H35.2v4.027h5.187a1.6 1.6 0 1 1 0 3.2H35.2V33.4c0 2.667 2.182 4.85 4.85 4.85h1.897v2.414a1.63 1.63 0 0 0 1.627 1.627h3.56a1.63 1.63 0 0 0 1.627-1.627V38.25h1.897c2.667 0 4.85-2.182 4.85-4.85v-1.417h-5.187z" fill="#feca0d"/></svg>