<?xml version="1.0" encoding="iso-8859-1"?>
<!-- Generator: Adobe Illustrator 22.1.0, SVG Export Plug-In . SVG Version: 6.00 Build 0)  -->
<svg version="1.1" xmlns="http://www.w3.org/2000/svg" xmlns:xlink="http://www.w3.org/1999/xlink" x="0px" y="0px"
	 viewBox="0 0 90.709 90.709" style="enable-background:new 0 0 90.709 90.709;" xml:space="preserve">
<g id="ratownik-1">
	<g>
		<g>
			<path style="fill:#194093;" d="M45.354,88.874c-23.997,0-43.52-19.522-43.52-43.52S21.357,1.834,45.354,1.834
				s43.52,19.523,43.52,43.521S69.352,88.874,45.354,88.874z"/>
			<g>
				<path style="fill:#252E78;" d="M45.354,2.835c23.483,0,42.52,19.037,42.52,42.52s-19.037,42.52-42.52,42.52
					s-42.52-19.037-42.52-42.52S21.871,2.835,45.354,2.835 M45.354,0.835c-24.548,0-44.52,19.971-44.52,44.52
					s19.971,44.52,44.52,44.52s44.52-19.971,44.52-44.52S69.903,0.835,45.354,0.835L45.354,0.835z"/>
			</g>
		</g>
	</g>
</g>
<g id="Warstwa_4">
	<g>
		<path style="fill:#FFFFFF;" d="M47.854,76.104v-41.81c0-1.381-1.119-2.5-2.5-2.5s-2.5,1.119-2.5,2.5v41.81
			c-4.827,0.323-8.425,1.558-8.425,3.036c0,1.724,4.891,3.121,10.925,3.121S56.28,80.864,56.28,79.14
			C56.28,77.662,52.681,76.427,47.854,76.104z"/>
		<path style="fill:#FECA0D;" d="M50.321,31.983c-0.884,0-1.6-0.716-1.6-1.6s0.716-1.6,1.6-1.6h5.187v-4.027h-5.187
			c-0.884,0-1.6-0.716-1.6-1.6s0.716-1.6,1.6-1.6h5.187v-4.027h-5.187c-0.884,0-1.6-0.716-1.6-1.6c0-0.884,0.716-1.6,1.6-1.6h5.187
			v-1.033c0-2.667-2.182-4.85-4.85-4.85H40.05c-2.667,0-4.85,2.182-4.85,4.85v1.033h5.187c0.884,0,1.6,0.716,1.6,1.6
			c0,0.884-0.716,1.6-1.6,1.6H35.2v4.027h5.187c0.884,0,1.6,0.716,1.6,1.6s-0.716,1.6-1.6,1.6H35.2v4.027h5.187
			c0.884,0,1.6,0.716,1.6,1.6s-0.716,1.6-1.6,1.6H35.2V33.4c0,2.667,2.182,4.85,4.85,4.85h1.897v2.414
			c0,0.895,0.732,1.627,1.627,1.627h3.56c0.895,0,1.627-0.732,1.627-1.627V38.25h1.897c2.667,0,4.85-2.182,4.85-4.85v-1.417H50.321z
			"/>
	</g>
</g>
</svg>
