<?xml version="1.0" encoding="iso-8859-1"?>
<!-- Generator: Adobe Illustrator 22.1.0, SVG Export Plug-In . SVG Version: 6.00 Build 0)  -->
<svg version="1.1" xmlns="http://www.w3.org/2000/svg" xmlns:xlink="http://www.w3.org/1999/xlink" x="0px" y="0px"
	 viewBox="0 0 90.709 90.709" style="enable-background:new 0 0 90.709 90.709;" xml:space="preserve">
<g id="ratownik-1">
	<g>
		<g>
			<path style="fill:#194093;" d="M45.354,88.874c-23.997,0-43.52-19.522-43.52-43.52S21.357,1.834,45.354,1.834
				s43.52,19.523,43.52,43.521S69.351,88.874,45.354,88.874z"/>
			<g>
				<path style="fill:#252E78;" d="M45.354,2.835c23.483,0,42.52,19.037,42.52,42.52s-19.037,42.52-42.52,42.52
					s-42.52-19.037-42.52-42.52S21.871,2.835,45.354,2.835 M45.354,0.835c-24.548,0-44.52,19.971-44.52,44.52
					s19.971,44.52,44.52,44.52s44.52-19.971,44.52-44.52S69.903,0.835,45.354,0.835L45.354,0.835z"/>
			</g>
		</g>
	</g>
</g>
<g id="Warstwa_4">
	<g>
		<path style="fill:#FFFFFF;" d="M18.545,26.738l-0.929-0.593c-1.465,1.153-2.477,3.575-2.477,6.385
			c0,3.692,1.743,6.725,3.971,7.071c0.131,0.034,0.269,0.053,0.426,0.035c0.197,0,0.389-0.028,0.578-0.068
			c1.61-0.191,3.368-0.423,5.209-0.683c0.694-0.098,1.401-0.201,2.113-0.306C26.631,33.973,23.655,29.998,18.545,26.738z"/>
		<path style="fill:#FFFFFF;" d="M40.847,52.208c-1.546-4.664-1.743-21.736-1.743-21.736s9.384,1.261,16.568,1.261
			c1.184,0,2.462-0.039,3.762-0.103c-1.413-6.687-5.325-11.503-9.942-11.503c0,0-24.359,3.155-29.334,4.081
			c3.682,2.349,10.513,7.606,10.513,16.988c0,4.482-1.348,12.096-1.193,19.076c0.127,5.724,7.123,15.447,9.526,16.101
			c3.22,0.876,6.203,1.243,8.936,1.243c14.113,0,21.638-9.779,21.638-9.779c-0.074,0.003-0.15,0.004-0.224,0.004
			c-2.846,0-6.08-1.776-8.424-4.316c-2.716,1.491-4.959,2.003-5.259,2.067C55.672,65.592,44.435,63.034,40.847,52.208z"/>
		<path style="fill:#F8C409;" d="M59.434,31.63c-1.301,0.064-2.578,0.103-3.762,0.103c-7.184,0-16.568-1.261-16.568-1.261
			s0.198,17.072,1.743,21.736c3.588,10.826,14.825,13.384,14.825,13.384c0.3-0.064,2.543-0.576,5.259-2.067
			c0.833-0.457,1.709-1.008,2.588-1.665c2.723-2.034,5.468-5.096,6.977-9.652c1.546-4.664,1.743-21.736,1.743-21.736
			s-4.661,0.6-9.776,0.972C61.461,31.517,60.441,31.581,59.434,31.63z M43.876,40.959c1.041-0.669,3.254-1.431,5.16-0.702
			s3.472,2.542,3.752,4.015c-1.133,0.93-3.398,1.078-5.301,0.349C45.581,43.892,44.218,42.256,43.876,40.959z M48.326,53.549
			c6.74,2.81,8.43,2.701,14.901,0.328C60.647,61.899,51.388,61.835,48.326,53.549z M67.675,40.959
			c-0.341,1.297-1.706,2.932-3.611,3.661c-1.904,0.729-4.167,0.581-5.301-0.349c0.28-1.473,1.847-3.286,3.752-4.015
			C64.42,39.528,66.633,40.29,67.675,40.959z"/>
	</g>
</g>
</svg>
