<svg xmlns="http://www.w3.org/2000/svg" viewBox="0 0 90.709 90.709"><path d="M45.354 88.874c-23.997 0-43.52-19.522-43.52-43.52s19.523-43.52 43.52-43.52 43.52 19.523 43.52 43.521-19.523 43.519-43.52 43.519z" fill="#194093"/><path d="M45.354 2.835c23.483 0 42.52 19.037 42.52 42.52s-19.037 42.52-42.52 42.52-42.52-19.037-42.52-42.52 19.037-42.52 42.52-42.52m0-2C20.806.835.834 20.806.834 45.355s19.971 44.52 44.52 44.52 44.52-19.971 44.52-44.52S69.903.835 45.354.835h0z" fill="#252e78"/><path d="M18.545 26.738l-.929-.593c-1.465 1.153-2.477 3.575-2.477 6.385 0 3.692 1.743 6.725 3.971 7.071.131.034.269.053.426.035.197 0 .389-.028.578-.068l5.209-.683 2.113-.306c-.805-4.606-3.781-8.581-8.891-11.841zm22.302 25.47c-1.546-4.664-1.743-21.736-1.743-21.736s9.384 1.261 16.568 1.261c1.184 0 2.462-.039 3.762-.103-1.413-6.687-5.325-11.503-9.942-11.503l-29.334 4.081c3.682 2.349 10.513 7.606 10.513 16.988 0 4.482-1.348 12.096-1.193 19.076.127 5.724 7.123 15.447 9.526 16.101 3.22.876 6.203 1.243 8.936 1.243 14.113 0 21.638-9.779 21.638-9.779a5.58 5.58 0 0 1-.224.004c-2.846 0-6.08-1.776-8.424-4.316-2.716 1.491-4.959 2.003-5.259 2.067.001 0-11.236-2.558-14.824-13.384z" fill="#fff"/><path d="M59.434 31.63l-3.762.103c-7.184 0-16.568-1.261-16.568-1.261s.198 17.072 1.743 21.736c3.588 10.826 14.825 13.384 14.825 13.384.3-.064 2.543-.576 5.259-2.067.833-.457 1.709-1.008 2.588-1.665 2.723-2.034 5.468-5.096 6.977-9.652 1.546-4.664 1.743-21.736 1.743-21.736s-4.661.6-9.776.972l-3.029.186zm-15.558 9.329c1.041-.669 3.254-1.431 5.16-.702s3.472 2.542 3.752 4.015c-1.133.93-3.398 1.078-5.301.349s-3.269-2.365-3.611-3.662zm4.45 12.59c6.74 2.81 8.43 2.701 14.901.328-2.58 8.022-11.839 7.958-14.901-.328zm19.349-12.59c-.341 1.297-1.706 2.932-3.611 3.661s-4.167.581-5.301-.349c.28-1.473 1.847-3.286 3.752-4.015s4.118.034 5.16.703z" fill="#f8c409"/></svg>