<svg xmlns="http://www.w3.org/2000/svg" viewBox="0 0 90.709 90.709"><path d="M45.354 88.874c-23.997 0-43.52-19.522-43.52-43.52s19.523-43.52 43.52-43.52 43.52 19.523 43.52 43.521-19.523 43.519-43.52 43.519z" fill="#194093"/><path d="M45.354 2.835c23.483 0 42.52 19.037 42.52 42.52s-19.037 42.52-42.52 42.52-42.52-19.037-42.52-42.52 19.037-42.52 42.52-42.52m0-2C20.806.835.834 20.806.834 45.355s19.971 44.52 44.52 44.52 44.52-19.971 44.52-44.52S69.903.835 45.354.835h0z" fill="#252e78"/><path d="M52.842 35.651l4.743 4.743-32.194 32.194-4.743-4.743zm-5.129-9.253l11.986-11.986 19.126 19.126-11.986 11.986zm-14.974 7.301l-8.282-16.698-11.574 11.574 16.698 8.281 7.85 7.849 3.157-3.157z" fill="#fff"/><path d="M67.492 63.846L43.439 42.813l-4.743 4.743 21.033 24.053c1.694 1.914 4.651 2.005 6.458.197l1.502-1.502c1.807-1.807 1.717-4.764-.197-6.458z" fill="#feca0d"/></svg>