<?xml version="1.0" encoding="iso-8859-1"?>
<!-- Generator: Adobe Illustrator 22.1.0, SVG Export Plug-In . SVG Version: 6.00 Build 0)  -->
<svg version="1.1" xmlns="http://www.w3.org/2000/svg" xmlns:xlink="http://www.w3.org/1999/xlink" x="0px" y="0px"
	 viewBox="0 0 90.709 90.709" style="enable-background:new 0 0 90.709 90.709;" xml:space="preserve">
<g id="ratownik-1">
	<g>
		<g>
			<path style="fill:#194093;" d="M45.354,88.874c-23.997,0-43.52-19.522-43.52-43.52S21.357,1.834,45.354,1.834
				s43.52,19.523,43.52,43.521S69.351,88.874,45.354,88.874z"/>
			<g>
				<path style="fill:#252E78;" d="M45.354,2.835c23.483,0,42.52,19.037,42.52,42.52s-19.037,42.52-42.52,42.52
					s-42.52-19.037-42.52-42.52S21.871,2.835,45.354,2.835 M45.354,0.835c-24.548,0-44.52,19.971-44.52,44.52
					s19.971,44.52,44.52,44.52s44.52-19.971,44.52-44.52S69.903,0.835,45.354,0.835L45.354,0.835z"/>
			</g>
		</g>
	</g>
</g>
<g id="Warstwa_4">
	<g>
		<g>
			
				<rect x="35.762" y="31.356" transform="matrix(0.7071 0.7071 -0.7071 0.7071 49.7261 -11.8078)" style="fill:#FFFFFF;" width="6.708" height="45.529"/>
			
				<rect x="54.794" y="16.443" transform="matrix(0.7071 -0.7071 0.7071 0.7071 -2.6588 53.5157)" style="fill:#FFFFFF;" width="16.951" height="27.049"/>
		</g>
		<g>
			<polygon style="fill:#FFFFFF;" points="32.739,33.699 24.457,17.001 12.883,28.575 29.581,36.856 37.431,44.705 40.588,41.548 
							"/>
			<g>
				<path style="fill:#FECA0D;" d="M67.492,63.846L43.439,42.813l-4.743,4.743l21.033,24.053c1.694,1.914,4.651,2.005,6.458,0.197
					l1.502-1.502C69.496,68.497,69.406,65.54,67.492,63.846z"/>
			</g>
		</g>
	</g>
</g>
</svg>
