<svg xmlns="http://www.w3.org/2000/svg" viewBox="0 0 90.709 90.709"><path d="M45.354 88.874c-23.997 0-43.52-19.522-43.52-43.52s19.523-43.52 43.52-43.52 43.521 19.523 43.521 43.521-19.524 43.519-43.521 43.519z" fill="#194093"/><path d="M45.354 2.835c23.483 0 42.52 19.037 42.52 42.52s-19.037 42.52-42.52 42.52-42.52-19.037-42.52-42.52 19.037-42.52 42.52-42.52m0-2C20.806.835.834 20.806.834 45.355s19.971 44.52 44.52 44.52 44.52-19.971 44.52-44.52S69.903.835 45.354.835h0z" fill="#252e78"/><path d="M32.658 34.619h-6.166v44.027c1.955 1.11 4.016 2.054 6.166 2.81V34.619zm8.586 0h-6.166v47.596c1.995.555 4.053.959 6.166 1.184v-48.78zm8.585 0h-6.166v6.861l6.166.643v-7.504zm-5.596 28.449c-.215-.649-.403-1.545-.569-2.595v23.106l1.691.043c1.515 0 3.006-.098 4.475-.269V71.49c-2.256-1.996-4.372-4.727-5.597-8.422zm-2.64-37.732h-6.865c-.3 2.609-1.559 4.92-3.413 6.587h13.691c-1.854-1.667-3.113-3.978-3.413-6.587zm-17.116-8.999l-.167-.008a7.8 7.8 0 0 0-7.797 7.797 7.8 7.8 0 0 0 7.797 7.797 7.8 7.8 0 0 0 7.797-7.797 7.9 7.9 0 0 0-.103-1.21h2.725 6.865 2.725c-.062.395-.103.797-.103 1.21a7.8 7.8 0 0 0 7.797 7.797 7.8 7.8 0 0 0 7.797-7.797 7.8 7.8 0 0 0-7.797-7.797c-.108 0-.213.012-.319.016l-6.687-.016h-13.69-6.838zm4.086 7.789c0 2.349-1.904 4.253-4.253 4.253s-4.253-1.904-4.253-4.253 1.904-4.253 4.253-4.253 4.253 1.904 4.253 4.253zm27.701 0c0 2.349-1.904 4.253-4.253 4.253s-4.253-1.904-4.253-4.253 1.904-4.253 4.253-4.253 4.253 1.904 4.253 4.253z" fill="#fff"/><path d="M75.626 41.332s-9.795 1.261-16.568 1.261c-2.975 0-6.321-.217-9.229-.47l-6.166-.643-1.174-.148s.147 12.644 1.174 19.141c.166 1.05.354 1.946.569 2.595 1.225 3.695 3.341 6.425 5.596 8.421 4.354 3.852 9.229 4.963 9.229 4.963.677-.144 11.237-2.558 14.825-13.384 1.546-4.664 1.744-21.736 1.744-21.736zM47.261 51.82c1.041-.669 3.254-1.431 5.16-.702s3.472 2.542 3.752 4.015c-1.133.93-3.398 1.078-5.301.349s-3.268-2.365-3.611-3.662zm4.451 12.589c6.74 2.81 8.43 2.701 14.901.328-2.58 8.022-11.839 7.958-14.901-.328zm15.738-8.928c-1.904.729-4.167.581-5.301-.349.28-1.473 1.847-3.286 3.752-4.015s4.118.033 5.16.702c-.342 1.298-1.706 2.933-3.611 3.662z" fill="#f8c409"/></svg>