<?xml version="1.0" encoding="iso-8859-1"?>
<!-- Generator: Adobe Illustrator 22.1.0, SVG Export Plug-In . SVG Version: 6.00 Build 0)  -->
<svg version="1.1" xmlns="http://www.w3.org/2000/svg" xmlns:xlink="http://www.w3.org/1999/xlink" x="0px" y="0px"
	 viewBox="0 0 90.709 90.709" style="enable-background:new 0 0 90.709 90.709;" xml:space="preserve">
<g id="ratownik-1">
	<g>
		<g>
			<path style="fill:#194093;" d="M45.354,88.874c-23.997,0-43.52-19.522-43.52-43.52S21.357,1.834,45.354,1.834
				s43.521,19.523,43.521,43.521S69.351,88.874,45.354,88.874z"/>
			<g>
				<path style="fill:#252E78;" d="M45.354,2.835c23.483,0,42.52,19.037,42.52,42.52s-19.037,42.52-42.52,42.52
					c-23.483,0-42.52-19.037-42.52-42.52S21.871,2.835,45.354,2.835 M45.354,0.835c-24.548,0-44.52,19.971-44.52,44.52
					s19.971,44.52,44.52,44.52s44.52-19.971,44.52-44.52S69.903,0.835,45.354,0.835L45.354,0.835z"/>
			</g>
		</g>
	</g>
</g>
<g id="Warstwa_4">
	<g>
		<path style="fill:#FFFFFF;" d="M32.658,34.619h-6.166v44.027c1.955,1.11,4.016,2.054,6.166,2.81V34.619z"/>
		<path style="fill:#FFFFFF;" d="M41.244,34.619h-6.166v47.596c1.995,0.555,4.053,0.959,6.166,1.184V34.619z"/>
		<path style="fill:#FFFFFF;" d="M49.829,34.619h-6.166v6.861c1.293,0.157,3.542,0.414,6.166,0.643V34.619z"/>
		<path style="fill:#FFFFFF;" d="M44.233,63.068c-0.215-0.649-0.403-1.545-0.569-2.595v23.106c0.561,0.024,1.124,0.043,1.691,0.043
			c1.515,0,3.006-0.098,4.475-0.269V71.49C47.574,69.494,45.458,66.763,44.233,63.068z"/>
		<path style="fill:#FFFFFF;" d="M41.593,25.336h-6.865c-0.3,2.609-1.559,4.92-3.413,6.587h13.691
			C43.152,30.256,41.893,27.945,41.593,25.336z"/>
		<path style="fill:#FFFFFF;" d="M24.477,16.337c-0.056-0.001-0.111-0.008-0.167-0.008c-4.306,0-7.797,3.491-7.797,7.797
			s3.491,7.797,7.797,7.797s7.797-3.491,7.797-7.797c0-0.413-0.042-0.815-0.103-1.21h2.725h6.865h2.725
			c-0.062,0.395-0.103,0.797-0.103,1.21c0,4.306,3.491,7.797,7.797,7.797s7.797-3.491,7.797-7.797s-3.491-7.797-7.797-7.797
			c-0.108,0-0.213,0.012-0.319,0.016c-0.001-0.006-0.002-0.01-0.004-0.016h-6.683h-13.69h-6.838
			C24.477,16.332,24.477,16.334,24.477,16.337z M28.563,24.126c0,2.349-1.904,4.253-4.253,4.253s-4.253-1.904-4.253-4.253
			c0-2.349,1.904-4.253,4.253-4.253S28.563,21.777,28.563,24.126z M56.264,24.126c0,2.349-1.904,4.253-4.253,4.253
			c-2.349,0-4.253-1.904-4.253-4.253c0-2.349,1.904-4.253,4.253-4.253C54.36,19.873,56.264,21.777,56.264,24.126z"/>
		<path style="fill:#F8C409;" d="M75.626,41.332c0,0-9.795,1.261-16.568,1.261c-2.975,0-6.321-0.217-9.229-0.47
			c-2.624-0.229-4.873-0.485-6.166-0.643c-0.733-0.089-1.174-0.148-1.174-0.148s0.147,12.644,1.174,19.141
			c0.166,1.05,0.354,1.946,0.569,2.595c1.225,3.695,3.341,6.425,5.596,8.421c4.354,3.852,9.229,4.963,9.229,4.963
			c0.677-0.144,11.237-2.558,14.825-13.384C75.428,58.404,75.626,41.332,75.626,41.332z M47.261,51.82
			c1.041-0.669,3.254-1.431,5.16-0.702s3.472,2.542,3.752,4.015c-1.133,0.93-3.398,1.078-5.301,0.349
			C48.967,54.752,47.604,53.117,47.261,51.82z M51.712,64.409c6.74,2.81,8.43,2.701,14.901,0.328
			C64.033,72.759,54.774,72.695,51.712,64.409z M67.45,55.481c-1.904,0.729-4.167,0.581-5.301-0.349
			c0.28-1.473,1.847-3.286,3.752-4.015c1.905-0.729,4.118,0.033,5.16,0.702C70.719,53.117,69.355,54.752,67.45,55.481z"/>
	</g>
</g>
</svg>
