<svg xmlns="http://www.w3.org/2000/svg" viewBox="0 0 90.709 90.709"><path d="M45.354 88.874c-23.997 0-43.52-19.522-43.52-43.52s19.524-43.52 43.52-43.52 43.52 19.523 43.52 43.521-19.523 43.519-43.52 43.519z" fill="#194093"/><path d="M45.354 2.835c23.483 0 42.52 19.037 42.52 42.52s-19.037 42.52-42.52 42.52-42.52-19.037-42.52-42.52 19.037-42.52 42.52-42.52m0-2C20.806.835.834 20.806.834 45.355s19.971 44.52 44.52 44.52 44.52-19.971 44.52-44.52S69.903.835 45.354.835h0z" fill="#252e78"/><path d="M45.354 62.851L24.136 74.006l4.052-23.627-17.166-16.733 23.723-3.447L45.354 8.702l10.61 21.497 23.723 3.447L62.52 50.379l4.053 23.627z" fill="#feca0d"/><path d="M56.205 43.462c-.762-5.171-5.84-8.815-8.611-10.446-.714-.605-1.214-1.44-1.522-2.333-.173-.499-.494-4.195-.494-4.195h-3.534V51.39c-1.186-.027-2.529.281-3.825.955-2.945 1.532-4.516 4.344-3.508 6.282s3.555 2.362 6.5.831c1.942-1.01 4.142-2.728 4.142-5.186V36.528c2.343-.028 4.558 1.809 5.805 3.073.721.838 1.328 1.765 1.727 2.767.437 1.365.481 2.699.283 3.93-.48 1.924-1.833 3.895-4.085 5.889l1.934 2.185c3.989-3.53 5.734-7.201 5.188-10.91z" fill="#fff"/></svg>