<?xml version="1.0" encoding="iso-8859-1"?>
<!-- Generator: Adobe Illustrator 22.1.0, SVG Export Plug-In . SVG Version: 6.00 Build 0)  -->
<svg version="1.1" xmlns="http://www.w3.org/2000/svg" xmlns:xlink="http://www.w3.org/1999/xlink" x="0px" y="0px"
	 viewBox="0 0 90.709 90.709" style="enable-background:new 0 0 90.709 90.709;" xml:space="preserve">
<g id="ratownik-1">
	<g>
		<g>
			<path style="fill:#194093;" d="M45.354,88.874c-23.997,0-43.52-19.522-43.52-43.52S21.358,1.834,45.354,1.834
				s43.52,19.523,43.52,43.521S69.351,88.874,45.354,88.874z"/>
			<g>
				<path style="fill:#252E78;" d="M45.354,2.835c23.483,0,42.52,19.037,42.52,42.52s-19.037,42.52-42.52,42.52
					s-42.52-19.037-42.52-42.52S21.871,2.835,45.354,2.835 M45.354,0.835c-24.548,0-44.52,19.971-44.52,44.52
					s19.971,44.52,44.52,44.52s44.52-19.971,44.52-44.52S69.903,0.835,45.354,0.835L45.354,0.835z"/>
			</g>
		</g>
	</g>
</g>
<g id="Warstwa_4">
	<g>
		<g>
			<polygon style="fill:#FECA0D;" points="45.354,62.851 24.136,74.006 28.188,50.379 11.022,33.646 34.745,30.199 45.354,8.702 
				55.964,30.199 79.687,33.646 62.52,50.379 66.573,74.006 			"/>
		</g>
		<g>
			<path style="fill:#FFFFFF;" d="M56.205,43.462c-0.762-5.171-5.84-8.815-8.611-10.446c-0.714-0.605-1.214-1.44-1.522-2.333
				c-0.173-0.499-0.494-4.195-0.494-4.195h-3.534v24.902c-1.186-0.027-2.529,0.281-3.825,0.955
				c-2.945,1.532-4.516,4.344-3.508,6.282c1.008,1.938,3.555,2.362,6.5,0.831c1.942-1.01,4.142-2.728,4.142-5.186
				c0-16.299,0-17.744,0-17.744c2.343-0.028,4.558,1.809,5.805,3.073c0.721,0.838,1.328,1.765,1.727,2.767
				c0.437,1.365,0.481,2.699,0.283,3.93c-0.48,1.924-1.833,3.895-4.085,5.889l1.934,2.185
				C55.006,50.842,56.751,47.171,56.205,43.462z"/>
		</g>
	</g>
</g>
</svg>
