<?xml version="1.0" encoding="UTF-8" standalone="no"?>
<svg xmlns="http://www.w3.org/2000/svg" style="isolation:isolate" viewBox="0 0 266 266" width="266pt" height="266pt"><defs><clipPath id="_clipPath_avfuqJCTPGbQgvzWzFbsoBsq97GHkhyD"><rect width="266" height="266"/></clipPath></defs><g clip-path="url(#_clipPath_avfuqJCTPGbQgvzWzFbsoBsq97GHkhyD)"><path d=" M 138.228 164.952 L 138.248 167.025 L 138.248 167.105 C 138.248 167.105 138.248 167.105 138.248 167.105 C 138.238 176.799 139.733 186.443 142.673 195.687 C 143.865 199.462 145.229 203.188 146.765 206.843 C 148.159 210.158 149.765 213.383 151.594 216.487 C 151.23 219.292 150.846 222.096 150.442 224.89 C 150.109 227.173 149.735 229.446 149.321 231.72 C 148.947 233.743 148.513 235.746 148.018 237.739 C 147.563 239.581 147.028 241.414 146.411 243.207 C 145.169 246.772 143.593 250.217 141.693 253.482 C 140.633 255.294 139.511 257.067 138.329 258.789 C 136.632 261.253 134.854 263.657 133.005 266 C 131.146 263.657 129.368 261.253 127.671 258.789 C 126.489 257.067 125.367 255.294 124.307 253.482 C 122.407 250.217 120.831 246.772 119.589 243.207 C 118.972 241.414 118.437 239.581 117.982 237.739 C 117.487 235.746 117.053 233.743 116.679 231.72 C 116.265 229.446 115.891 227.173 115.558 224.89 C 115.154 222.096 114.77 219.292 114.406 216.487 C 116.235 213.383 117.841 210.158 119.235 206.843 C 120.771 203.188 122.135 199.462 123.327 195.687 C 126.267 186.443 127.762 176.799 127.752 167.105 C 127.752 167.105 127.752 167.105 127.752 167.105 L 127.752 167.025 L 127.772 164.952 C 127.782 158.973 127.307 152.994 126.358 147.096 C 125.479 141.527 124.125 136.039 122.337 130.682 C 120.67 125.684 118.558 120.837 116.033 116.21 C 113.638 111.814 110.799 107.678 107.567 103.852 C 106.779 100.347 106.051 96.842 105.354 93.317 C 104.718 90.092 104.132 86.857 103.606 83.613 C 103.132 80.678 102.748 77.734 102.434 74.78 C 102.162 72.246 102.02 69.702 102 67.148 C 102 66.137 102.03 65.115 102.111 64.104 C 102.333 60.969 102.677 57.845 103.152 54.74 C 103.586 51.896 104.152 49.082 104.859 46.298 C 106.193 41.07 108.082 36.013 110.486 31.186 C 111.719 28.742 113.062 26.359 114.507 24.045 C 116.043 21.592 117.679 19.188 119.387 16.845 C 121.256 14.301 123.185 11.797 125.175 9.334 C 127.731 6.179 130.338 3.075 133.005 0 C 135.662 3.075 138.269 6.179 140.825 9.334 C 142.815 11.797 144.744 14.301 146.613 16.845 C 148.321 19.188 149.957 21.592 151.493 24.045 C 152.938 26.359 154.281 28.742 155.514 31.186 C 157.918 36.013 159.807 41.07 161.141 46.298 C 161.848 49.082 162.414 51.896 162.848 54.74 C 163.323 57.845 163.667 60.969 163.889 64.104 C 163.97 65.115 164 66.137 164 67.148 C 163.98 69.702 163.838 72.246 163.566 74.78 C 163.252 77.734 162.868 80.678 162.394 83.613 C 161.868 86.857 161.282 90.092 160.646 93.317 C 159.949 96.842 159.211 100.347 158.433 103.852 C 155.19 107.678 152.352 111.814 149.967 116.21 C 147.442 120.837 145.33 125.684 143.663 130.682 C 141.875 136.039 140.521 141.527 139.643 147.096 C 138.693 152.994 138.218 158.973 138.228 164.952 Z " fill="rgb(225,225,225)"/><path d=" M 106.79 194.85 C 108.64 191.2 110.03 187.33 110.92 183.33 L 110.93 183.27 C 110.93 183.27 110.93 183.26 110.93 183.26 C 111.92 178.87 112.41 174.39 112.4 169.9 C 112.39 165.51 111.87 161.14 110.84 156.88 C 110.32 154.69 109.67 152.54 108.88 150.44 C 108.11 148.38 107.19 146.38 106.13 144.45 C 105.29 142.93 104.34 141.48 103.29 140.09 C 102.29 138.77 101.17 137.54 99.95 136.42 C 98.77 135.33 97.49 134.38 96.11 133.57 C 94.74 132.77 93.28 132.14 91.76 131.68 C 89.33 130.95 86.81 130.56 84.28 130.54 C 82.09 130.52 79.91 130.89 77.85 131.63 C 76.67 132.06 75.55 132.65 74.53 133.38 C 73.6 134.04 72.78 134.84 72.1 135.75 C 70.82 137.45 70.12 139.52 70.12 141.65 L 70.12 141.67 C 70.14 143.07 70.4 144.45 70.9 145.75 C 71.5 147.31 72.33 148.78 73.37 150.1 C 73.77 150.56 74.03 151.12 74.11 151.73 C 74.11 151.76 74.11 151.79 74.12 151.82 L 74.13 152.06 C 74.14 152.09 74.14 152.12 74.14 152.14 C 74.14 152.88 73.88 153.6 73.4 154.17 C 72.93 154.73 72.26 155.1 71.53 155.22 C 69.18 155.57 66.8 155.75 64.42 155.76 C 61.05 155.77 57.68 155.36 54.4 154.54 C 51.4 153.78 48.51 152.64 45.79 151.14 C 40.72 148.31 36.43 144.26 33.31 139.35 C 30.04 134.23 28.11 128.37 27.69 122.32 C 27.63 121.48 27.6 120.64 27.6 119.8 C 27.59 114.5 28.79 109.28 31.1 104.52 C 32.66 101.35 34.7 98.43 37.14 95.87 C 39.82 93.1 42.9 90.75 46.28 88.9 C 50.15 86.8 54.29 85.25 58.59 84.27 C 61.01 83.71 63.47 83.3 65.95 83.03 C 68.67 82.74 71.4 82.59 74.14 82.6 C 78.18 82.6 82.19 83.18 86.07 84.33 C 89.95 85.48 93.67 87.14 97.13 89.26 C 100.72 91.46 104.06 94.07 107.07 97.02 C 110.26 100.15 113.14 103.57 115.67 107.25 C 118.34 111.12 120.68 115.21 122.66 119.47 C 124.77 123.98 126.53 128.65 127.92 133.44 C 129.4 138.49 130.51 143.63 131.24 148.84 C 132.02 154.31 132.4 159.83 132.4 165.36 C 132.4 170.58 132.01 175.8 131.24 180.96 C 130.47 186.1 129.31 191.17 127.78 196.14 C 126.83 199.27 125.77 202.36 124.62 205.42 C 123.6 208.12 122.47 210.77 121.22 213.37 C 120.11 215.69 118.85 217.94 117.47 220.11 C 116.22 222.06 114.83 223.9 113.3 225.63 C 110.77 228.42 107.75 230.72 104.4 232.42 C 101.03 234.15 97.42 235.34 93.68 235.94 C 91.86 236.23 90.03 236.38 88.19 236.38 C 85.94 236.39 83.7 236.15 81.5 235.66 C 79.52 235.23 77.6 234.56 75.78 233.68 C 73.96 232.79 72.27 231.67 70.75 230.33 C 68.86 228.66 67.28 226.67 66.08 224.46 C 64.77 221.99 63.88 219.33 63.46 216.57 C 63.46 216.56 63.45 216.55 63.45 216.55 L 63.29 215.36 L 63.28 215.3 C 63.28 215.29 63.28 215.28 63.28 215.28 C 63.19 214.43 63.14 213.59 63.14 212.74 C 63.14 211.09 63.32 209.45 63.69 207.85 C 64.04 206.31 64.6 204.82 65.35 203.43 C 66.3 201.65 67.61 200.1 69.22 198.88 C 70.91 197.64 72.87 196.81 74.95 196.49 C 75.2 196.45 75.45 196.42 75.7 196.39 C 75.73 196.39 75.75 196.38 75.78 196.38 L 75.95 196.37 C 75.98 196.37 76.01 196.37 76.04 196.37 C 76.79 196.38 77.52 196.67 78.08 197.18 C 78.64 197.7 78.99 198.4 79.06 199.15 C 79.13 199.87 79.36 200.55 79.72 201.17 C 80.12 201.86 80.63 202.47 81.24 202.98 C 82.08 203.69 83.04 204.27 84.06 204.69 C 85.22 205.17 86.44 205.49 87.69 205.66 C 88.43 205.76 89.18 205.81 89.93 205.81 C 92.1 205.81 94.24 205.41 96.26 204.63 C 98.35 203.82 100.27 202.64 101.94 201.14 C 103.89 199.37 105.52 197.26 106.75 194.93 C 106.76 194.9 106.77 194.88 106.79 194.85 Z " fill="rgb(235,235,235)"/><path d=" M 159.21 194.85 C 159.23 194.88 159.24 194.9 159.25 194.93 C 160.48 197.26 162.11 199.37 164.06 201.14 C 165.73 202.64 167.65 203.82 169.74 204.63 C 171.76 205.41 173.9 205.81 176.07 205.81 C 176.82 205.81 177.57 205.76 178.31 205.66 C 179.56 205.49 180.78 205.17 181.94 204.69 C 182.96 204.27 183.92 203.69 184.76 202.98 C 185.37 202.47 185.88 201.86 186.28 201.17 C 186.64 200.55 186.87 199.87 186.94 199.15 C 187.01 198.4 187.36 197.7 187.92 197.18 C 188.48 196.67 189.21 196.38 189.96 196.37 C 189.99 196.37 190.02 196.37 190.05 196.37 L 190.22 196.38 C 190.25 196.38 190.27 196.39 190.3 196.39 C 190.55 196.42 190.8 196.45 191.05 196.49 C 193.13 196.81 195.09 197.64 196.78 198.88 C 198.39 200.1 199.7 201.65 200.65 203.43 C 201.4 204.82 201.96 206.31 202.31 207.85 C 202.68 209.45 202.86 211.09 202.86 212.74 C 202.86 213.59 202.81 214.43 202.72 215.28 C 202.72 215.28 202.72 215.29 202.72 215.3 L 202.71 215.36 L 202.55 216.55 C 202.55 216.55 202.54 216.56 202.54 216.57 C 202.12 219.33 201.23 221.99 199.92 224.46 C 198.72 226.67 197.14 228.66 195.25 230.33 C 193.73 231.67 192.04 232.79 190.22 233.68 C 188.4 234.56 186.48 235.23 184.5 235.66 C 182.3 236.15 180.06 236.39 177.81 236.38 C 175.97 236.38 174.14 236.23 172.32 235.94 C 168.58 235.34 164.97 234.15 161.6 232.42 C 158.25 230.72 155.23 228.42 152.7 225.63 C 151.17 223.9 149.78 222.06 148.53 220.11 C 147.15 217.94 145.89 215.69 144.78 213.37 C 143.53 210.77 142.4 208.12 141.38 205.42 C 140.23 202.36 139.17 199.27 138.22 196.14 C 136.69 191.17 135.53 186.1 134.76 180.96 C 133.99 175.8 133.6 170.58 133.6 165.36 C 133.6 159.83 133.98 154.31 134.76 148.84 C 135.49 143.63 136.6 138.49 138.08 133.44 C 139.47 128.65 141.23 123.98 143.34 119.47 C 145.32 115.21 147.66 111.12 150.33 107.25 C 152.86 103.57 155.74 100.15 158.93 97.02 C 161.94 94.07 165.28 91.46 168.87 89.26 C 172.33 87.14 176.05 85.48 179.93 84.33 C 183.81 83.18 187.82 82.6 191.86 82.6 C 194.6 82.59 197.33 82.74 200.05 83.03 C 202.53 83.3 204.99 83.71 207.41 84.27 C 211.71 85.25 215.85 86.8 219.72 88.9 C 223.1 90.75 226.18 93.1 228.86 95.87 C 231.3 98.43 233.34 101.34 234.9 104.52 C 237.21 109.28 238.41 114.5 238.4 119.8 C 238.4 120.64 238.37 121.48 238.31 122.32 C 237.89 128.38 235.96 134.23 232.69 139.35 C 229.57 144.26 225.28 148.31 220.21 151.14 C 217.49 152.64 214.6 153.78 211.6 154.54 C 208.32 155.36 204.95 155.77 201.58 155.76 C 199.2 155.75 196.82 155.57 194.47 155.22 C 193.74 155.1 193.07 154.73 192.6 154.17 C 192.12 153.6 191.86 152.88 191.86 152.14 C 191.86 152.12 191.86 152.09 191.87 152.06 L 191.88 151.82 C 191.89 151.79 191.89 151.76 191.89 151.73 C 191.97 151.12 192.23 150.56 192.63 150.1 C 193.67 148.78 194.5 147.31 195.1 145.75 C 195.6 144.45 195.86 143.07 195.88 141.67 L 195.88 141.65 C 195.88 139.52 195.18 137.45 193.9 135.75 C 193.22 134.84 192.4 134.04 191.47 133.38 C 190.45 132.65 189.33 132.06 188.15 131.63 C 186.09 130.89 183.91 130.52 181.72 130.54 C 179.19 130.56 176.67 130.95 174.24 131.68 C 172.72 132.14 171.26 132.77 169.89 133.57 C 168.51 134.38 167.23 135.33 166.05 136.42 C 164.83 137.54 163.71 138.77 162.71 140.09 C 161.66 141.48 160.71 142.93 159.87 144.45 C 158.81 146.38 157.89 148.38 157.12 150.44 C 156.33 152.54 155.68 154.69 155.16 156.88 C 154.13 161.14 153.61 165.51 153.6 169.9 C 153.59 174.39 154.08 178.87 155.07 183.26 C 155.07 183.26 155.07 183.27 155.07 183.27 L 155.08 183.33 C 155.97 187.33 157.36 191.2 159.21 194.85 Z " fill="rgb(235,235,235)"/><path d=" M 179.369 169.9 L 179.369 186.75 C 179.369 189.173 177.148 191.14 174.412 191.14 L 91.588 191.14 C 88.852 191.14 86.631 189.173 86.631 186.75 L 86.631 169.9 L 179.369 169.9 L 179.369 169.9 Z " fill="rgb(215,0,0)"/><path d=" M 179.369 170.11 L 179.369 153.26 C 179.369 150.837 177.148 148.87 174.412 148.87 L 91.588 148.87 C 88.852 148.87 86.631 150.837 86.631 153.26 L 86.631 170.11 L 179.369 170.11 L 179.369 170.11 Z " fill="rgb(255,255,255)"/></g></svg>