<?xml version="1.0" encoding="UTF-8" standalone="no"?>
<svg
   xmlns:dc="http://purl.org/dc/elements/1.1/"
   xmlns:cc="http://creativecommons.org/ns#"
   xmlns:rdf="http://www.w3.org/1999/02/22-rdf-syntax-ns#"
   xmlns:svg="http://www.w3.org/2000/svg"
   xmlns="http://www.w3.org/2000/svg"
   viewBox="0 0 803.85333 722"
   height="722"
   width="803.85333"
   xml:space="preserve"
   id="svg2"
   version="1.1"><metadata
     id="metadata8"><rdf:RDF><cc:Work
         rdf:about=""><dc:format>image/svg+xml</dc:format><dc:type
           rdf:resource="http://purl.org/dc/dcmitype/StillImage" /></cc:Work></rdf:RDF></metadata><defs
     id="defs6" /><g
     transform="matrix(1.3333333,0,0,-1.3333333,0,722)"
     id="g10"><g
       transform="scale(0.1)"
       id="g12"><path
         id="path14"
         style="fill:#e51b24;fill-opacity:1;fill-rule:nonzero;stroke:none"
         d="m 6028.26,2701.9 c 0,0 -1.17,13.99 -8.32,70.09 -190.04,1490.67 -1463.17,2643 -3005.5,2643 C 1472.13,5414.99 198.977,4262.66 8.9375,2771.99 1.78125,2715.89 0.609375,2701.9 0.609375,2701.9 -3.97266,2647.1 17.6953,2565.13 48.7695,2519.75 L 975.406,1166.45 C 1386.57,468.457 2145.74,0 3014.44,0 3883.2,0 4642.4,468.516 5053.55,1166.57 l 926.56,1353.18 c 31.07,45.38 52.74,127.35 48.15,182.15" /><path
         id="path16"
         style="fill:#fee60e;fill-opacity:1;fill-rule:evenodd;stroke:none"
         d="m 5427.11,3096.32 c -1.58,-12.72 5.29,-16.94 6.05,-27.28 -5.37,-2.7 -7.69,-8.47 -18.15,-6.07 -4.03,9.14 -9.82,16.47 -9.11,30.32 9.57,-1.47 10.71,5.48 21.21,3.03" /><path
         id="path18"
         style="fill:#fee60e;fill-opacity:1;fill-rule:nonzero;stroke:none"
         d="m 773.305,3166.92 -400.539,160.3 77.679,194.16 c 17.489,43.7 39.75,72.31 66.84,85.88 27.11,13.56 59.844,12.65 98.305,-2.72 24.484,-9.79 42.785,-23.08 55.047,-39.85 12.172,-16.78 17.449,-35.98 15.73,-57.58 13.16,14.92 27.539,23.53 43.141,25.8 15.625,2.25 37.097,-1.42 64.371,-11.08 l 47.941,-17.31 c 0.399,-0.12 0.934,-0.36 1.641,-0.65 24.152,-9.02 40.734,-9.66 49.703,-1.9 l 12.262,-4.9 -36.117,-90.27 c -6.793,-0.67 -14.625,-0.12 -23.489,1.65 -8.851,1.75 -19.097,4.74 -30.668,8.94 l -42.578,15.79 c -25.172,9.01 -43.824,11.07 -55.91,6.11 -12.082,-4.93 -22.504,-18.37 -31.273,-40.32 l -34.946,-87.29 155.848,-62.36 z m -192.473,172.61 38.742,96.82 c 8.418,21.02 10.352,38.18 5.77,51.48 -4.543,13.3 -16.008,23.6 -34.324,30.92 -17.387,6.96 -32.512,7.44 -45.317,1.43 -12.816,-6.02 -23.031,-18.55 -30.648,-37.58 l -40.285,-100.63 106.062,-42.44" /><path
         id="path20"
         style="fill:#fee60e;fill-opacity:1;fill-rule:nonzero;stroke:none"
         d="m 787.512,3735.45 c -57.356,39.65 -92.039,86.71 -104.098,141.23 -12.066,54.5 0.219,108.24 36.856,161.25 36.683,53.01 82.683,83.55 138.128,91.64 55.446,8.11 111.778,-7.61 168.932,-47.16 57.18,-39.53 91.81,-86.66 103.81,-141.36 12.04,-54.73 -0.26,-108.59 -36.9,-161.6 -36.66,-52.99 -82.65,-83.47 -137.974,-91.39 -55.313,-7.94 -111.555,7.87 -168.754,47.39 z m 51.453,74.46 c 39.043,-26.98 75.367,-39.26 108.93,-36.84 33.613,2.42 61.165,19.19 82.705,50.36 21.78,31.47 27.89,63.45 18.43,95.88 -9.53,32.42 -33.79,62.16 -72.819,89.13 -39.043,26.98 -75.391,39.2 -109.106,36.63 -33.726,-2.59 -61.46,-19.61 -83.203,-51.11 -21.562,-31.16 -27.55,-62.85 -18.023,-95.07 9.523,-32.22 33.898,-61.88 73.086,-88.98" /><path
         id="path22"
         style="fill:#fee60e;fill-opacity:1;fill-rule:nonzero;stroke:none"
         d="m 1438.4,4191.7 -64.34,-61.09 -110.74,116.58 -299.976,88.36 78.786,74.84 195,-71.34 -66.28,193.56 73.52,69.78 83.3,-294.08 110.73,-116.61" /><path
         id="path24"
         style="fill:#fee60e;fill-opacity:1;fill-rule:nonzero;stroke:none"
         d="m 1460.55,4756.84 85.91,55.95 365.8,-276.63 -78.03,-50.83 -73.01,58.39 -140.13,-91.31 24.64,-89.87 -78.3,-51 z m 90.34,-44.28 50.22,-186.49 100.35,65.39 z" /><path
         id="path26"
         style="fill:#fee60e;fill-opacity:1;fill-rule:nonzero;stroke:none"
         d="m 2022.37,4585.39 -161.81,399.95 82.28,33.29 131.92,-326.1 195.24,78.97 29.87,-73.85 -277.5,-112.26" /><path
         id="path28"
         style="fill:#fee60e;fill-opacity:1;fill-rule:nonzero;stroke:none"
         d="m 2660.44,4783.21 -35.25,430 208.44,17.08 c 46.91,3.84 82.48,-3.34 106.68,-21.54 24.23,-18.2 38.03,-47.91 41.41,-89.18 2.14,-26.27 -1.58,-48.62 -11.12,-67.03 -9.57,-18.41 -24.38,-31.68 -44.5,-39.79 19.23,-5.1 33.35,-14.12 42.36,-27.11 8.97,-12.99 15.24,-33.8 18.78,-62.51 l 5.9,-50.65 c 0.04,-0.4 0.09,-0.98 0.13,-1.77 2.7,-25.64 9.53,-40.75 20.48,-45.33 l 1.09,-13.13 -96.93,-7.95 c -3.6,5.78 -6.61,13 -8.99,21.75 -2.36,8.72 -4.25,19.19 -5.65,31.41 l -4.9,45.17 c -3.14,26.57 -9.61,44.17 -19.43,52.76 -9.84,8.61 -26.51,11.94 -50.03,10 l -93.73,-7.67 13.71,-167.28 z m 68.62,249.26 103.92,8.49 c 22.55,1.85 38.79,7.8 48.65,17.81 9.85,10.02 13.98,24.84 12.36,44.5 -1.52,18.7 -7.86,32.41 -18.93,41.22 -11.12,8.78 -26.88,12.33 -47.33,10.68 l -108,-8.86 9.33,-113.84" /><path
         id="path30"
         style="fill:#fee60e;fill-opacity:1;fill-rule:nonzero;stroke:none"
         d="m 3325.29,5220.54 101.71,-12.88 100.06,-447.59 -92.37,11.71 -17.93,91.72 -165.92,21.03 -39.36,-84.48 -92.67,11.73 z m 40.28,-92.23 -82.37,-174.67 118.85,-15.05 z" /><path
         id="path32"
         style="fill:#fee60e;fill-opacity:1;fill-rule:nonzero;stroke:none"
         d="m 3644.03,4729.47 143.74,406.78 87.54,-30.94 66.42,-337.84 98.74,279.49 82.57,-29.18 -143.75,-406.79 -86.45,30.55 -67.49,338.24 -98.77,-279.5 -82.55,29.19" /><path
         id="path34"
         style="fill:#fee60e;fill-opacity:1;fill-rule:nonzero;stroke:none"
         d="m 4417.68,4416.29 c -25.16,-9.73 -49.07,-13.36 -71.7,-11.03 -22.7,2.38 -45.65,10.95 -68.89,25.74 -50.92,32.35 -80.95,76.23 -90.05,131.65 -9.08,55.39 4.65,111.87 41.2,169.38 36.86,58 82.06,94.41 135.65,109.18 53.55,14.78 106.58,5.51 158.97,-27.79 45.68,-29.02 75.99,-63.61 90.95,-103.78 14.94,-40.15 13.02,-81.1 -5.83,-122.75 l -76.4,48.52 c 7.44,21.89 7.16,42.3 -0.82,61.26 -7.96,18.95 -23.4,35.69 -46.31,50.26 -30.51,19.36 -61.52,23.43 -93.1,12.13 -31.59,-11.3 -59.9,-36.63 -84.91,-76.03 -25.17,-39.54 -35.76,-76.29 -31.87,-110.23 3.89,-33.93 21.65,-60.93 53.27,-81.07 23.75,-15.07 48.04,-20.68 72.94,-16.83 24.88,3.87 46.97,16.74 66.26,38.75 l -82.54,52.48 39.56,62.3 150.8,-95.83 -125.2,-197.05 -50.17,31.91 18.19,48.83" /><path
         id="path36"
         style="fill:#fee60e;fill-opacity:1;fill-rule:nonzero;stroke:none"
         d="m 4573.01,4231.64 303.23,306.88 222.93,-220.24 -52.69,-53.35 -160.62,158.71 -64.66,-65.42 146.86,-145.13 -51.89,-52.5 -146.85,145.12 -78.04,-78.96 168.13,-166.14 -55.99,-56.67 -230.41,227.7" /><path
         id="path38"
         style="fill:#fee60e;fill-opacity:1;fill-rule:nonzero;stroke:none"
         d="m 4894.72,3892.64 359.3,238.87 115.78,-174.16 c 26.04,-39.2 36.97,-73.78 32.76,-103.79 -4.21,-30 -23.56,-56.46 -58.03,-79.38 -21.94,-14.59 -43.33,-22.15 -64.03,-22.72 -20.76,-0.5 -39.55,6.04 -56.36,19.71 4.86,-19.3 3.77,-36.01 -3.23,-50.13 -7.02,-14.18 -22.22,-29.74 -45.64,-46.72 l -41.46,-29.69 c -0.33,-0.2 -0.83,-0.54 -1.47,-0.96 -21.15,-14.76 -31.07,-28.03 -29.78,-39.85 l -11,-7.29 -53.83,80.99 c 3.32,5.93 8.2,12.08 14.67,18.38 6.49,6.28 14.74,13.03 24.76,20.15 l 37.2,26.11 c 21.73,15.62 33.95,29.81 36.77,42.55 2.78,12.75 -2.4,28.99 -15.47,48.65 l -52.05,78.3 -139.77,-92.93 z m 251.35,60.52 57.71,-86.83 c 12.55,-18.85 25.58,-30.19 39.11,-33.95 13.53,-3.8 28.51,-0.22 44.93,10.69 15.63,10.37 24.57,22.54 26.91,36.5 2.32,13.99 -2.17,29.52 -13.55,46.59 l -60.01,90.25 -95.1,-63.25" /><path
         id="path40"
         style="fill:#fee60e;fill-opacity:1;fill-rule:nonzero;stroke:none"
         d="m 5274.16,3531.53 32.43,-81.36 c -20.72,-11.81 -33.39,-27.29 -38.08,-46.42 -4.71,-19.09 -1.45,-42.7 9.75,-70.82 9.56,-23.94 21.04,-40.29 34.38,-49.04 13.38,-8.75 28.4,-9.8 45.09,-3.14 24.29,9.66 30.53,52.63 18.66,128.82 l -0.43,2.67 c -0.38,1.94 -0.87,5.02 -1.47,9.19 -6.72,40.62 -8.2,70.94 -4.4,90.93 3.45,17.8 11.34,33.42 23.71,46.98 12.33,13.55 28.97,24.48 49.83,32.78 39,15.56 74.16,14.22 105.48,-3.98 31.34,-18.2 56.98,-52.34 76.92,-102.4 18.65,-46.8 22.15,-87.79 10.57,-123.02 -11.62,-35.22 -37.28,-61.56 -76.97,-79.06 l -31.53,79.16 c 18.83,9.19 30.62,22.52 35.43,40 4.8,17.48 2.23,38.62 -7.63,63.47 -8.6,21.6 -19.46,36.57 -32.56,44.88 -13.11,8.36 -27.45,9.42 -43.05,3.19 -21.24,-8.47 -28.03,-37.54 -20.43,-87.27 2.07,-13.5 3.61,-24.02 4.73,-31.54 4.19,-32.19 6.68,-55.22 7.36,-69.13 0.73,-13.92 0.35,-26.39 -1.12,-37.49 -2.57,-19.94 -9.72,-36.99 -21.44,-51.13 -11.68,-14.1 -27.98,-25.32 -48.82,-33.65 -41.72,-16.61 -79.67,-15.45 -113.82,3.51 -34.15,18.98 -61.4,54.04 -81.81,105.2 -20.1,50.43 -24.17,94.62 -12.21,132.62 12.01,37.96 39.12,66.67 81.43,86.05" /><path
         id="path42"
         style="fill:#fee60e;fill-opacity:1;fill-rule:nonzero;stroke:none"
         d="m 5471.34,3094.51 c -3.34,12.6 -9.35,23.34 -18.05,32.22 -8.7,8.87 -19.25,15.08 -31.63,18.62 -6.7,1.86 -13.28,2.85 -19.81,2.94 -6.52,0.1 -13.02,-0.69 -19.44,-2.4 -9.17,-2.42 -17.52,-6.46 -25.01,-12.12 -7.48,-5.63 -13.66,-12.62 -18.56,-20.9 -5.08,-8.57 -8.31,-17.6 -9.66,-27.12 -1.39,-9.54 -0.87,-18.98 1.6,-28.37 2.45,-9.2 6.54,-17.63 12.36,-25.3 5.78,-7.65 12.91,-14 21.25,-18.99 8.26,-5 17.15,-8.17 26.6,-9.44 9.46,-1.29 18.96,-0.65 28.55,1.88 9.42,2.51 17.91,6.55 25.44,12.16 7.54,5.65 13.72,12.56 18.55,20.8 5.1,8.56 8.32,17.6 9.63,27.15 1.34,9.57 0.77,19.17 -1.82,28.87 z m -28.59,-35.92 c -2.31,-6.58 -7.16,-10.86 -14.59,-12.82 -5.15,-1.35 -9.95,-1.01 -14.41,1.05 -4.42,2.07 -8.03,5.61 -10.76,10.59 l -30.24,-26.66 -5.56,21.15 27.94,23.31 -2.44,9.38 -31.9,-8.45 -5.01,18.88 77.87,20.59 8.08,-30.53 c 2.94,-11.09 3.25,-19.94 1.02,-26.49" /><path
         id="path44"
         style="fill:#ffffff;fill-opacity:1;fill-rule:nonzero;stroke:none"
         d="m 5218.77,2384.99 c 0,-1215.03 -984.96,-2200.002 -2200,-2200.002 -1215.02,0 -2199.997,984.972 -2199.997,2200.002 0,1215.03 984.977,2200 2199.997,2200 1215.04,0 2200,-984.97 2200,-2200" /><path
         id="path46"
         style="fill:#fee60e;fill-opacity:1;fill-rule:nonzero;stroke:none"
         d="m 4468.77,2384.99 c 0,-800.81 -649.19,-1450.002 -1449.99,-1450.002 -800.81,0 -1450,649.192 -1450,1450.002 0,800.81 649.19,1450 1450,1450 800.8,0 1449.99,-649.19 1449.99,-1450" /><path
         id="path48"
         style="fill:#2151a8;fill-opacity:1;fill-rule:nonzero;stroke:none"
         d="m 2178.79,4324.98 230,-1360 530,-140 50,450 -810,1050" /><path
         id="path50"
         style="fill:#2151a8;fill-opacity:1;fill-rule:nonzero;stroke:none"
         d="m 3858.76,444.988 -229.98,1360.002 -530,140.01 -50,-450.01 809.98,-1050.002" /><path
         id="path52"
         style="fill:#2151a8;fill-opacity:1;fill-rule:nonzero;stroke:none"
         d="m 3818.96,4341.74 -811.79,-1115.11 270.34,-476.88 356.76,278.79 184.69,1313.2" /><path
         id="path54"
         style="fill:#2151a8;fill-opacity:1;fill-rule:nonzero;stroke:none"
         d="M 2218.59,428.242 3030.41,1543.34 2760.07,2020.22 2403.29,1741.43 2218.59,428.242" /><path
         id="path56"
         style="fill:#2151a8;fill-opacity:1;fill-rule:nonzero;stroke:none"
         d="m 4958.77,3224.98 -1360.01,-230 -140,-530 450,-50 1050.01,810" /><path
         id="path58"
         style="fill:#2151a8;fill-opacity:1;fill-rule:nonzero;stroke:none"
         d="m 1078.78,1545 1360,229.98 140.01,530 -450.01,50.01 -1050,-809.99" /><path
         id="path60"
         style="fill:#2151a8;fill-opacity:1;fill-rule:nonzero;stroke:none"
         d="M 4975.53,1584.8 3860.4,2396.6 3383.53,2126.25 3662.32,1769.49 4975.53,1584.8" /><path
         id="path62"
         style="fill:#2151a8;fill-opacity:1;fill-rule:nonzero;stroke:none"
         d="m 1062.03,3185.17 1115.1,-811.81 476.89,270.34 -278.79,356.77 -1313.2,184.7" /><path
         id="path64"
         style="fill:#e51b24;fill-opacity:1;fill-rule:nonzero;stroke:none"
         d="m 1990.4,1356.62 c 134.8,269.1 210.88,630.41 210.88,1028.38 0,397.96 -76.08,759.26 -210.88,1028.36 269.1,-134.78 630.41,-210.87 1028.38,-210.87 397.96,0 759.27,76.09 1028.37,210.87 -134.79,-269.1 -210.87,-630.4 -210.87,-1028.36 0,-397.97 76.08,-759.28 210.87,-1028.38 -269.1,134.79 -630.41,210.88 -1028.37,210.88 -397.97,0 -759.28,-76.09 -1028.38,-210.88 v 0" /><path
         id="path66"
         style="fill:#231e1f;fill-opacity:1;fill-rule:nonzero;stroke:none"
         d="M 4979.86,2406.62 3415.09,2755.59 3028.74,4487.91 2648.16,2781.35 915.867,2394.99 2622.4,2014.41 3008.76,282.078 l 380.6,1706.572 1732.32,386.34 -141.82,31.63 v 0" /><path
         id="path68"
         style="fill:#fee60e;fill-opacity:1;fill-rule:nonzero;stroke:none"
         d="M 3008.78,2359.94 V 430.93 l -353.43,1584.72 z" /><path
         id="path70"
         style="fill:#fee60e;fill-opacity:1;fill-rule:nonzero;stroke:none"
         d="M 3028.78,2410.04 V 4339.06 L 3382.2,2754.32 Z" /><path
         id="path72"
         style="fill:#fee60e;fill-opacity:1;fill-rule:nonzero;stroke:none"
         d="m 3043.83,2374.99 h 1929 L 3388.11,2021.56 Z" /><path
         id="path74"
         style="fill:#fee60e;fill-opacity:1;fill-rule:nonzero;stroke:none"
         d="M 2993.73,2394.99 H 1064.72 l 1584.73,353.43 z" /></g></g></svg>