<?xml version="1.0" encoding="UTF-8" standalone="no"?><!-- Generator: Gravit.io --><svg xmlns="http://www.w3.org/2000/svg" xmlns:xlink="http://www.w3.org/1999/xlink" style="isolation:isolate" viewBox="0 0 207.2 264.4" width="207.2pt" height="264.4pt"><defs><clipPath id="_clipPath_9IQEyvYLDZiuZgRwpOV2F4DDunynS8xD"><rect width="207.2" height="264.4"/></clipPath></defs><g clip-path="url(#_clipPath_9IQEyvYLDZiuZgRwpOV2F4DDunynS8xD)"><path d=" M 103.605 1.597 C 122.69 24.072 130.864 37.421 132.787 63.552 C 133.435 72.355 130.837 87.187 127.49 102.509 C 115.213 117.118 107.376 139.308 107.376 164.159 C 107.376 164.849 107.384 165.538 107.397 166.224 L 107.397 166.3 C 107.397 176.541 109.016 186.317 111.845 195.26 C 114.417 203.387 117.29 210.262 120.558 215.904 C 117.595 238.686 115.827 246.664 103.605 262.761 C 91.383 246.664 89.615 238.686 86.652 215.904 C 89.92 210.262 92.793 203.387 95.364 195.26 C 98.194 186.317 99.813 176.541 99.813 166.3 L 99.813 166.224 C 99.826 165.538 99.833 164.849 99.833 164.159 C 99.833 139.308 91.997 117.118 79.719 102.509 C 76.373 87.187 73.775 72.355 74.423 63.552 C 76.345 37.421 84.519 24.072 103.605 1.597 Z " fill-rule="evenodd" fill="rgb(255,255,255)"/><path d=" M 104.876 0.555 C 114.489 11.877 121.365 20.92 126.106 30.477 C 130.874 40.089 133.45 50.146 134.428 63.437 C 134.761 67.964 134.267 73.992 133.264 80.824 C 132.271 87.596 130.778 95.17 129.099 102.857 C 129.029 103.177 128.872 103.455 128.656 103.67 C 122.58 110.932 117.614 120.119 114.194 130.603 C 110.879 140.765 109.024 152.141 109.024 164.159 L 109.023 165.18 C 109.026 165.5 109.031 165.837 109.038 166.192 L 109.038 166.259 L 109.038 166.3 L 109.044 166.3 C 109.044 171.241 109.427 176.069 110.144 180.741 C 110.889 185.593 111.998 190.284 113.415 194.765 C 114.697 198.817 116.04 202.522 117.452 205.877 C 118.869 209.241 120.374 212.309 121.98 215.08 C 122.181 215.428 122.241 215.819 122.176 216.186 C 120.685 227.648 119.488 235.403 117.111 242.367 C 114.711 249.396 111.14 255.548 104.911 263.751 C 104.364 264.472 103.335 264.614 102.614 264.067 C 102.482 263.967 102.37 263.851 102.278 263.724 C 96.062 255.534 92.496 249.388 90.099 242.367 C 87.717 235.389 86.52 227.617 85.024 216.116 C 84.976 215.743 85.057 215.383 85.232 215.081 L 85.23 215.08 C 86.835 212.309 88.341 209.241 89.757 205.877 C 91.17 202.522 92.512 198.817 93.795 194.765 C 95.212 190.284 96.321 185.593 97.066 180.741 C 97.783 176.07 98.166 171.241 98.166 166.3 L 98.172 166.3 L 98.172 166.224 L 98.172 166.192 L 98.172 166.192 C 98.179 165.837 98.184 165.499 98.187 165.18 L 98.186 164.159 C 98.186 152.141 96.331 140.765 93.015 130.603 C 89.579 120.068 84.581 110.842 78.465 103.564 C 78.287 103.353 78.171 103.109 78.117 102.856 L 78.111 102.857 C 76.432 95.17 74.939 87.596 73.945 80.824 C 72.943 73.991 72.449 67.964 72.782 63.437 C 73.76 50.146 76.336 40.089 81.104 30.477 C 85.848 20.915 92.728 11.867 102.35 0.536 C 102.937 -0.157 103.974 -0.244 104.667 0.343 C 104.744 0.408 104.814 0.48 104.876 0.555 Z  M 123.159 31.931 C 118.769 23.082 112.413 14.597 103.605 4.142 C 94.797 14.596 88.44 23.082 84.051 31.931 C 79.481 41.144 77.008 50.828 76.063 63.668 C 75.749 67.942 76.23 73.734 77.201 80.348 C 78.163 86.911 79.611 94.276 81.244 101.778 C 87.515 109.335 92.629 118.817 96.142 129.586 C 99.565 140.078 101.48 151.8 101.48 164.159 L 101.469 165.206 C 101.465 165.573 101.46 165.923 101.453 166.251 L 101.453 166.3 L 101.46 166.3 C 101.46 171.4 101.064 176.393 100.321 181.23 C 99.548 186.262 98.4 191.121 96.934 195.756 C 95.645 199.83 94.265 203.627 92.781 207.151 C 91.385 210.469 89.911 213.499 88.352 216.243 C 89.785 227.222 90.953 234.692 93.213 241.312 C 95.322 247.489 98.411 252.989 103.605 260.026 C 108.799 252.989 111.888 247.489 113.997 241.312 C 116.256 234.692 117.425 227.222 118.858 216.243 C 117.299 213.5 115.825 210.469 114.428 207.151 C 112.945 203.627 111.564 199.83 110.275 195.756 C 108.809 191.12 107.662 186.261 106.889 181.229 C 106.146 176.392 105.75 171.4 105.75 166.3 L 105.756 166.3 L 105.756 166.293 L 105.756 166.245 C 105.75 165.918 105.745 165.569 105.741 165.206 L 105.729 164.159 C 105.729 151.8 107.645 140.078 111.068 129.586 C 114.581 118.817 119.694 109.335 125.966 101.778 C 127.599 94.276 129.046 86.911 130.009 80.348 C 130.98 73.734 131.461 67.942 131.147 63.668 C 130.202 50.828 127.729 41.144 123.159 31.931 Z  M 109.038 166.231 L 109.038 166.259" fill="rgb(44,46,53)"/><path d=" M 103.605 244.238 L 103.559 244.238 C 102.825 234.265 102.396 222.605 102.415 208.472 L 102.415 65.828 C 102.392 37.513 103.436 22.815 103.536 20.396 L 103.605 20.396 L 103.673 20.396 C 103.774 22.815 104.818 37.513 104.795 65.828 L 104.795 208.472 C 104.814 222.605 104.385 234.265 103.651 244.238 L 103.605 244.238 Z " fill="rgb(44,46,53)"/><path d=" M 162.334 84.629 C 224.832 84.629 213.882 158.37 165.369 151.085 C 176.22 137.096 163.531 121.839 143.973 127.643 C 128.611 132.203 121.283 152.616 121.283 168.823 C 121.283 178.864 123.523 188.085 127.263 195.325 C 137.015 213.677 159.353 209.292 160.465 198.397 C 167.985 199.204 171.23 207.088 169.948 215.009 C 166.422 236.807 137.917 236.272 125.672 222.488 C 120.283 216.422 115.942 207.21 111.935 194.15 C 109.106 184.929 107.487 174.848 107.487 164.289 C 107.487 120.294 132.043 84.629 162.334 84.629 Z " fill-rule="evenodd" fill="rgb(255,255,255)"/><path d=" M 162.334 82.931 C 184.76 82.931 198.093 92.237 203.841 104.067 C 206.462 109.461 207.498 115.365 207.094 121.15 C 206.69 126.933 204.852 132.604 201.726 137.532 C 194.987 148.156 182.297 155.34 165.137 152.764 C 164.238 152.632 163.613 151.774 163.741 150.847 C 163.79 150.49 163.944 150.175 164.166 149.93 C 166.602 146.752 167.707 143.544 167.714 140.612 C 167.72 138.105 166.922 135.778 165.472 133.836 C 163.989 131.849 161.82 130.248 159.12 129.243 C 155.184 127.776 150.135 127.58 144.424 129.275 C 137.877 131.218 132.861 136.298 129.33 142.707 C 125.027 150.516 122.93 160.266 122.93 168.823 C 122.93 173.626 123.455 178.228 124.417 182.495 L 124.43 182.557 C 125.425 186.946 126.879 190.979 128.701 194.511 L 128.704 194.509 C 131.591 199.942 135.64 203.231 139.852 204.862 C 142.963 206.067 146.167 206.374 149.055 205.977 C 151.881 205.589 154.386 204.528 156.174 202.983 C 157.669 201.691 158.643 200.061 158.831 198.224 C 158.923 197.294 159.73 196.617 160.632 196.712 C 160.835 196.733 161.062 196.765 161.309 196.805 C 165.232 197.439 168.085 199.78 169.839 203.018 C 171.523 206.126 172.165 210.061 171.736 214.057 L 171.73 214.106 C 171.687 214.502 171.633 214.898 171.57 215.288 C 170.659 220.917 168.191 225.183 164.78 228.213 C 161.941 230.735 158.47 232.38 154.719 233.228 C 151.034 234.06 147.058 234.121 143.138 233.487 C 136.058 232.342 129.148 228.904 124.462 223.629 C 121.657 220.472 119.137 216.522 116.812 211.691 C 114.508 206.906 112.389 201.259 110.365 194.661 C 108.898 189.882 107.751 184.872 106.978 179.684 C 106.236 174.697 105.84 169.549 105.84 164.289 C 105.84 141.936 112.097 121.671 122.213 106.979 C 132.443 92.121 146.625 82.931 162.334 82.931 Z  M 200.906 105.579 C 195.671 94.804 183.311 86.327 162.334 86.327 C 147.752 86.327 134.51 94.97 124.89 108.943 C 115.155 123.081 109.134 142.647 109.134 164.289 C 109.134 169.383 109.517 174.362 110.234 179.18 C 110.979 184.183 112.088 189.02 113.505 193.639 C 115.487 200.1 117.543 205.591 119.758 210.192 C 121.952 214.748 124.298 218.439 126.882 221.348 C 131.053 226.043 137.256 229.111 143.64 230.144 C 147.153 230.712 150.718 230.657 154.024 229.91 C 157.263 229.179 160.235 227.78 162.631 225.652 C 165.483 223.118 167.553 219.517 168.327 214.731 C 168.381 214.396 168.427 214.063 168.462 213.736 L 168.467 213.685 C 168.823 210.369 168.317 207.151 166.969 204.663 C 165.84 202.577 164.094 201.005 161.751 200.354 C 161.161 202.376 159.947 204.148 158.285 205.584 C 156.032 207.531 152.933 208.86 149.48 209.334 C 146.088 209.8 142.333 209.442 138.693 208.033 C 133.805 206.14 129.125 202.358 125.821 196.141 L 125.824 196.139 L 125.815 196.121 C 123.852 192.321 122.29 188.006 121.23 183.334 L 121.213 183.264 C 120.192 178.739 119.636 173.877 119.636 168.823 C 119.636 159.749 121.876 149.378 126.473 141.035 C 130.403 133.902 136.058 128.227 143.523 126.011 C 149.932 124.109 155.686 124.361 160.24 126.058 C 163.538 127.287 166.214 129.277 168.072 131.766 C 169.963 134.3 171.003 137.337 170.996 140.612 C 170.988 143.544 170.138 146.651 168.3 149.729 C 182.643 151 193.233 144.723 198.972 135.675 C 201.791 131.23 203.448 126.12 203.812 120.911 C 204.175 115.703 203.25 110.403 200.906 105.579 Z " fill="rgb(44,46,53)"/><path d=" M 111.38 148.006 C 108.015 159.939 108.453 172.92 111.426 184.662 C 125.088 238.637 169.782 228.03 161.824 199.625 C 167.025 226.49 126.784 234.507 114.023 184.101 C 111.141 172.712 110.709 160.145 113.957 148.624 C 118.076 129.59 137.15 103.11 160.654 105.526 C 184.584 108.325 189.155 133.125 174.211 147.288 C 193.1 134.375 186.177 101.58 156.227 102.815 C 135.399 103.678 116.568 125.23 111.38 148.006 Z " fill="rgb(44,46,53)"/><path d=" M 44.844 84.629 C -17.654 84.629 -6.704 158.37 41.809 151.085 C 30.958 137.096 43.647 121.839 63.205 127.643 C 78.567 132.203 85.895 152.616 85.895 168.823 C 85.895 178.864 83.655 188.085 79.916 195.325 C 70.163 213.677 47.825 209.292 46.713 198.397 C 39.193 199.204 35.948 207.088 37.23 215.009 C 40.756 236.807 69.262 236.272 81.506 222.488 C 86.895 216.422 91.236 207.21 95.243 194.15 C 98.073 184.929 99.691 174.848 99.691 164.289 C 99.691 120.294 75.135 84.629 44.844 84.629 Z " fill-rule="evenodd" fill="rgb(255,255,255)"/><path d=" M 44.844 86.327 C 23.868 86.327 11.508 94.804 6.272 105.579 C 3.928 110.403 3.003 115.703 3.367 120.911 C 3.73 126.12 5.387 131.23 8.206 135.675 C 13.946 144.723 24.536 151 38.878 149.729 C 37.04 146.651 36.19 143.544 36.183 140.612 C 36.175 137.337 37.215 134.3 39.107 131.766 C 40.965 129.277 43.641 127.287 46.938 126.058 C 51.492 124.361 57.246 124.109 63.655 126.011 C 71.12 128.227 76.775 133.902 80.705 141.035 C 85.302 149.378 87.542 159.749 87.542 168.823 C 87.542 173.877 86.987 178.739 85.965 183.264 L 85.948 183.334 C 84.888 188.006 83.326 192.321 81.363 196.121 L 81.354 196.139 L 81.357 196.141 C 78.053 202.358 73.373 206.14 68.485 208.033 C 64.845 209.442 61.09 209.8 57.698 209.334 C 54.245 208.86 51.146 207.531 48.893 205.584 C 47.232 204.148 46.017 202.376 45.427 200.354 C 43.084 201.005 41.339 202.577 40.209 204.663 C 38.862 207.151 38.355 210.369 38.711 213.685 L 38.716 213.736 C 38.751 214.063 38.797 214.396 38.851 214.731 C 39.625 219.517 41.695 223.118 44.547 225.652 C 46.943 227.78 49.915 229.179 53.154 229.91 C 56.46 230.657 60.025 230.712 63.538 230.144 C 69.922 229.111 76.125 226.043 80.297 221.348 C 82.88 218.439 85.226 214.748 87.42 210.192 C 89.635 205.591 91.691 200.1 93.673 193.639 C 95.091 189.02 96.199 184.183 96.944 179.18 C 97.662 174.362 98.044 169.383 98.044 164.289 C 98.044 142.647 92.023 123.081 82.288 108.943 C 72.668 94.97 59.426 86.327 44.844 86.327 Z  M 3.337 104.067 C 9.085 92.237 22.418 82.931 44.844 82.931 C 60.553 82.931 74.736 92.121 84.965 106.979 C 95.081 121.671 101.339 141.936 101.339 164.289 C 101.339 169.549 100.943 174.697 100.2 179.684 C 99.427 184.872 98.28 189.882 96.813 194.661 C 94.789 201.259 92.67 206.906 90.367 211.691 C 88.041 216.523 85.521 220.472 82.716 223.629 C 78.03 228.904 71.12 232.342 64.04 233.487 C 60.12 234.121 56.144 234.06 52.459 233.228 C 48.708 232.38 45.237 230.735 42.398 228.213 C 38.987 225.183 36.519 220.917 35.608 215.288 C 35.545 214.898 35.492 214.502 35.448 214.106 L 35.442 214.057 C 35.014 210.061 35.656 206.126 37.339 203.018 C 39.093 199.78 41.946 197.439 45.869 196.805 C 46.116 196.765 46.343 196.733 46.546 196.712 C 47.448 196.617 48.255 197.294 48.348 198.224 C 48.535 200.061 49.509 201.691 51.004 202.983 C 52.792 204.528 55.297 205.589 58.123 205.977 C 61.011 206.374 64.215 206.067 67.327 204.862 C 71.539 203.231 75.587 199.942 78.474 194.509 L 78.477 194.511 C 80.299 190.979 81.754 186.946 82.748 182.557 L 82.761 182.495 C 83.724 178.228 84.248 173.626 84.248 168.823 C 84.248 160.266 82.151 150.516 77.848 142.707 C 74.317 136.298 69.301 131.218 62.755 129.275 C 57.043 127.58 51.994 127.776 48.058 129.243 C 45.358 130.248 43.189 131.849 41.706 133.836 C 40.256 135.778 39.459 138.105 39.465 140.612 C 39.472 143.544 40.576 146.752 43.012 149.93 C 43.234 150.175 43.388 150.49 43.437 150.847 C 43.565 151.774 42.94 152.632 42.041 152.764 C 24.881 155.34 12.191 148.156 5.452 137.532 C 2.326 132.604 0.488 126.933 0.085 121.15 C -0.319 115.365 0.716 109.461 3.337 104.067 Z " fill="rgb(44,46,53)"/><path d=" M 95.799 148.006 C 99.163 159.939 98.725 172.92 95.752 184.662 C 82.09 238.637 37.396 228.03 45.354 199.625 C 40.153 226.49 80.395 234.507 93.155 184.101 C 96.038 172.712 96.47 160.145 93.221 148.624 C 89.102 129.59 70.028 103.11 46.524 105.526 C 22.594 108.325 18.023 133.125 32.967 147.288 C 14.078 134.375 21.002 101.58 50.951 102.815 C 71.779 103.678 90.611 125.23 95.799 148.006 Z " fill="rgb(44,46,53)"/><path d=" M 65.324 196.917 C 69.716 192.009 72.539 190.119 79.125 189.217 C 86.641 188.403 94.207 189.409 101.687 190.122 C 112.957 191.151 121.37 191.596 132.607 189.132 C 139.146 187.468 143.868 185.426 149.517 181.763 C 155.763 177.465 159.839 172.164 164.347 166.146 C 156.537 160.656 148.727 155.166 140.916 149.676 C 138.604 152.761 136.518 155.037 133.313 157.24 C 130.765 158.893 128.698 159.763 125.748 160.513 C 118.573 162.086 111.742 161.465 104.501 160.804 C 94.19 159.82 85.953 160.006 75.485 161.138 C 69.261 161.991 64.613 163.288 58.942 166.005 C 52.636 169.25 48.462 172.618 43.77 177.863 L 65.324 196.917 Z " fill="rgb(44,46,53)"/><path d=" M 55.169 185.388 C 58.305 182.13 61.027 180.015 65.077 177.938 C 69.24 175.946 72.636 175.032 77.205 174.406 C 86.286 173.424 94.179 174.397 103.172 175.256 C 112.371 176.094 119.841 175.507 128.989 173.501 C 133.635 172.319 136.957 170.895 140.97 168.292 C 145.151 165.422 147.942 162.628 151.068 158.681 L 141.357 151.7 C 139.106 154.543 137.216 156.459 134.204 158.525 C 131.485 160.288 129.273 161.223 126.125 162.024 C 118.711 163.649 111.825 163.034 104.347 162.353 C 94.187 161.382 85.995 161.566 75.685 162.681 C 69.65 163.508 65.154 164.758 59.655 167.393 C 54.222 170.179 50.523 173.018 46.315 177.388 C 49.267 180.054 52.218 182.721 55.169 185.388 Z " fill="rgb(255,255,255)"/><path d=" M 65.187 194.44 C 67.102 192.449 68.738 191.14 71.212 189.871 C 73.847 188.609 76.032 188.07 78.925 187.673 C 86.564 186.847 94.239 187.848 101.842 188.574 C 112.903 189.582 121.203 190.04 132.229 187.622 C 138.572 186.008 143.148 184.031 148.627 180.477 C 154.119 176.709 158.169 171.779 162.274 166.595 L 152.33 159.62 C 149.09 163.711 146.193 166.602 141.861 169.577 C 137.673 172.293 134.213 173.777 129.365 175.011 C 119.992 177.066 112.44 177.664 103.017 176.804 C 94.18 175.962 86.323 174.984 77.405 175.949 C 73.03 176.549 69.777 177.417 65.79 179.326 C 61.923 181.31 59.329 183.328 56.334 186.44 C 59.284 189.106 62.236 191.773 65.187 194.44 Z " fill="rgb(255,46,23)"/></g></svg>