<?xml version="1.0" ?>
<svg height="80" viewBox="0 0 196 80" width="196" xmlns="http://www.w3.org/2000/svg">
  <path d="M73.91,66.09l-5.51,-52.01l-0.5,-4.6l-4.59,0.48L10.79,15.42c-2.53,0.26 -4.39,2.55 -4.12,5.09l5.51,52.01c0.27,2.53 2.56,4.39 5.09,4.13l52.51,-5.47C72.32,70.91 74.18,68.62 73.91,66.09zM26.62,53.12c-0.28,-0.41 -0.36,-0.9 -0.23,-1.37l2.55,-9.8c-0.32,0.06 -0.6,0.16 -0.82,0.32c-0.51,0.35 -0.78,0.95 -0.77,1.68c0.01,0.98 -0.8,1.78 -1.84,1.79c-1.04,0.03 -1.89,-0.75 -1.9,-1.74c-0.03,-1.88 0.8,-3.54 2.29,-4.58c1.62,-1.12 3.73,-1.36 5.95,-0.66c0.93,0.29 1.47,1.21 1.24,2.11l-2.5,9.58c0.37,-0.05 0.85,-0.11 1.5,-0.14c1.04,-0.06 1.92,0.69 1.98,1.66c0.06,0.98 -0.74,1.82 -1.76,1.88c-0.64,0.02 -1.06,0.09 -1.42,0.14c-0.45,0.06 -0.83,0.12 -1.27,0.12c-0.47,0 -1,-0.05 -1.76,-0.2C27.33,53.81 26.9,53.52 26.62,53.12zM34.64,39.95c-0.37,-0.91 0.1,-1.93 1.07,-2.29c0.96,-0.35 2.05,0.1 2.42,1.01c0.67,1.64 1.04,3.73 1.19,5.92c0.73,-0.19 1.44,-0.38 2.15,-0.56c0.26,-1.83 0.69,-3.63 1.39,-5.17c0.41,-0.9 1.51,-1.31 2.46,-0.92c0.95,0.39 1.39,1.43 0.97,2.33c-0.37,0.81 -0.67,1.78 -0.89,2.92c1.06,-0.18 2.11,-0.32 3.18,-0.39c1.04,-0.07 1.92,0.67 1.99,1.64c0.06,0.97 -0.71,1.82 -1.74,1.89c-1.27,0.08 -2.56,0.28 -3.88,0.55c-0.1,1.75 -0.08,3.43 0.06,5.47c0.07,0.98 -0.71,1.64 -1.74,1.64h-0.13c-0.97,0 -1.8,-0.47 -1.87,-1.4c-0.09,-1.34 -0.17,-3.01 -0.11,-4.96c-0.58,0.16 -1.16,0.37 -1.77,0.54c-0.04,1.62 -0.16,3.21 -0.33,4.57c-0.13,0.96 -1.06,1.68 -2.09,1.56c-1.03,-0.13 -1.76,-0.99 -1.63,-1.97c0.14,-1.03 0.23,-2.08 0.27,-3.12c-0.26,0.07 -0.53,0.14 -0.8,0.2c-1,0.24 -2.02,-0.33 -2.27,-1.27c-0.26,-0.95 0.34,-1.92 1.35,-2.17c0.59,-0.14 1.16,-0.28 1.73,-0.43C35.52,43.26 35.18,41.27 34.64,39.95zM52.75,42.92c-0.56,-0.81 -1.63,-1.2 -3.01,-1.12c-1.03,0.06 -1.92,-0.68 -1.99,-1.65c-0.06,-0.98 0.72,-1.82 1.76,-1.88c2.73,-0.16 5.05,0.83 6.36,2.7c1.21,1.75 1.34,4.03 0.31,5.93c-1.08,2.01 -3.18,3.35 -5.93,3.85l-0.1,1.7C50.11,53.39 49.28,54 48.3,54h-0.1c-1.03,0 -1.84,-0.76 -1.77,-1.73l0.18,-3.25c0.05,-0.91 0.81,-1.59 1.77,-1.64c2.18,-0.1 3.81,-0.85 4.47,-2.08C53.27,44.5 53.23,43.61 52.75,42.92zM49.68,61.64c-0.49,0.41 -1.49,1.08 -2.93,1.21c0.07,0.65 0.02,1.32 -0.13,1.98c-0.56,2.34 -2.53,4.54 -5.54,5.82C40.83,70.76 40.57,71 40.31,71h-0.06c-0.28,0 -0.56,-0.23 -0.83,-0.36c-3,-1.28 -4.95,-3.38 -5.52,-5.72c-0.15,-0.67 -0.2,-1.4 -0.13,-2.06c-1.34,-0.07 -2.29,-0.58 -2.87,-0.98c-1.66,-1.17 -2.5,-3.31 -2.14,-5.44c0.16,-0.98 1.12,-1.63 2.14,-1.48c1.02,0.16 1.72,1.05 1.55,2.03c-0.14,0.82 0.14,1.66 0.68,2.03c0.81,0.57 2.17,0.09 2.91,-0.26c0.79,-0.36 1.76,-0.15 2.3,0.51c0.54,0.66 0.51,1.6 -0.06,2.23c-0.67,0.75 -0.94,1.65 -0.73,2.54c0.26,1.07 1.2,2.07 2.69,2.85c1.51,-0.78 2.46,-1.77 2.71,-2.85c0.21,-0.86 -0.05,-1.74 -0.72,-2.48c-0.57,-0.65 -0.59,-1.6 -0.02,-2.26c0.57,-0.66 1.55,-0.85 2.34,-0.45c1.12,0.56 1.98,0.63 2.58,0.18c0.65,-0.49 0.82,-1.36 0.76,-1.61c-0.37,-0.91 0.11,-1.93 1.07,-2.28c0.97,-0.35 2.05,0.1 2.43,1.02C52.09,57.86 51.34,60.26 49.68,61.64zM62.64,47.12c-1.1,3.75 -4.19,6.49 -8.49,7.51c-0.15,0.05 -0.3,0.06 -0.46,0.06c-0.84,0 -1.6,-0.54 -1.81,-1.34c-0.25,-0.94 0.35,-1.9 1.35,-2.14c3,-0.71 5.05,-2.52 5.79,-5.04c0.79,-2.7 -0.05,-5.73 -2.15,-7.7c-2.18,-2.05 -5.39,-2.64 -9.06,-1.69c-0.76,0.19 -1.57,-0.08 -2.02,-0.69c-0.46,-0.6 -0.46,-1.42 -0.01,-2.03c1.3,-1.77 1.59,-4.35 0.79,-6.92c-0.96,-3.03 -3.24,-5.5 -6.33,-6.87c-3.08,1.37 -5.37,3.84 -6.33,6.87c-0.81,2.57 -0.52,5.15 0.79,6.92c0.46,0.61 0.45,1.43 -0.02,2.04c-0.47,0.61 -1.29,0.87 -2.05,0.66c-6.27,-1.76 -9.88,0.93 -11.18,4.02c-1.23,2.96 -0.67,6.97 2.79,8.59c0.93,0.43 1.3,1.49 0.84,2.38c-0.46,0.86 -1.59,1.22 -2.5,0.79c-4.8,-2.26 -6.77,-7.86 -4.61,-13.05c1.55,-3.7 5.55,-7.31 12.09,-6.78c-0.51,-2.05 -0.44,-4.34 0.27,-6.58c1.35,-4.27 4.68,-7.7 9.15,-9.39c0.25,-0.11 0.51,-0.14 0.76,-0.13c0.25,-0.01 0.51,0.03 0.76,0.13c4.47,1.69 7.81,5.13 9.15,9.39c0.72,2.28 0.79,4.61 0.24,6.67c3.57,-0.17 6.73,0.91 9.13,3.16C62.57,38.81 63.78,43.2 62.64,47.12z" fill="#000"/>
  <path d="M169.32,46.76c3.38,-0.36 6.33,1.77 6.68,5.15c0.35,3.4 -2.08,6.07 -5.46,6.43c-3.36,0.35 -6.3,-1.75 -6.66,-5.15C163.52,49.8 165.96,47.11 169.32,46.76M170.29,55.99c1.8,-0.19 3.15,-1.73 2.93,-3.79c-0.22,-2.04 -1.86,-3.29 -3.66,-3.1c-1.78,0.19 -3.13,1.75 -2.91,3.79C166.87,54.95 168.51,56.18 170.29,55.99zM154.9,48.27c2.56,-0.27 3.57,1.21 3.57,1.21l0.04,-0.01c0,0 -0.01,-0.13 -0.03,-0.28c-0.05,-0.5 0.24,-1.05 1.11,-1.15l2.56,-0.27l0.25,2.34l-0.85,0.09c-0.28,0.03 -0.46,0.2 -0.43,0.48l0.8,7.61c0.4,3.8 -2.4,5.54 -5.28,5.84c-1.39,0.15 -2.9,-0.09 -4.03,-0.54l0.62,-2.26c0,0 1.44,0.59 3.13,0.41c1.67,-0.17 3.05,-1.04 2.84,-3.04l-0.05,-0.52c-0.03,-0.26 -0.04,-0.59 -0.04,-0.59l-0.04,0.01c-0.55,1 -1.46,1.6 -2.93,1.75c-3.17,0.33 -5.24,-2.04 -5.55,-5.07C150.26,51.26 151.71,48.61 154.9,48.27zM158.71,53.46c-0.26,-2.52 -1.59,-3.06 -3.09,-2.9c-1.67,0.17 -2.45,1.49 -2.26,3.35c0.2,1.93 1.33,3.26 3.11,3.07C157.79,56.85 158.97,55.96 158.71,53.46zM143.54,49.47c3.17,-0.33 5.14,1.81 5.45,4.73c0.03,0.32 0.04,1.02 0.04,1.02l-7.63,0.8c0.42,1.93 1.96,2.8 3.63,2.62c1.78,-0.19 2.97,-1.56 2.97,-1.56l1.35,1.79c0,0 -1.52,1.85 -4.27,2.14c-3.66,0.38 -6.22,-2.02 -6.55,-5.16C138.17,52.44 140.22,49.81 143.54,49.47zM146.08,53.6c-0.18,-1.32 -1.19,-2.13 -2.32,-2.01c-1.41,0.15 -2.32,1.1 -2.48,2.52L146.08,53.6zM132.95,53.69c-0.04,-0.33 -0.22,-0.46 -0.53,-0.43l-0.87,0.09l-0.25,-2.34l2.62,-0.28c1.02,-0.1 1.5,0.3 1.61,1.32l0.71,6.79c0.03,0.31 0.22,0.46 0.53,0.43l0.87,-0.09l0.24,2.32l-2.62,0.27c-1.02,0.11 -1.5,-0.28 -1.61,-1.32L132.95,53.69zM132.33,46.52l2.38,-0.25l0.27,2.54l-2.39,0.25L132.33,46.52zM120.33,50.63c-0.03,-0.33 -0.22,-0.46 -0.53,-0.43l-0.87,0.09l-0.25,-2.34l2.62,-0.28c1.02,-0.1 1.5,0.09 1.61,1.1l0.74,6.98l0.82,-0.09c0.35,-0.04 0.8,-0.15 1,-0.52l1.89,-3.73l3.06,-0.32l-2.36,4.46c-0.4,0.74 -0.73,0.95 -0.73,0.95l0,0.04c0,0 0.41,0.11 0.87,0.79l1.51,2.25c0.21,0.31 0.43,0.37 0.95,0.32l0.74,-0.08l0.25,2.32l-2.04,0.21c-0.93,0.1 -1.32,-0.01 -1.84,-0.77l-2.21,-3.28c-0.26,-0.37 -0.71,-0.34 -1.06,-0.31l-0.61,0.06l0.51,4.84l-2.75,0.29L120.33,50.63zM111.27,60.75c0,0 1.58,1.48 3.47,1.28c0.85,-0.09 1.46,-0.5 1.38,-1.24c-0.16,-1.56 -5.99,-0.93 -6.37,-4.5c-0.23,-2.21 1.65,-3.44 3.95,-3.68c1.5,-0.16 3.93,0.09 4.12,1.89l0.12,1.15l-2.43,0.26l-0.06,-0.54c-0.06,-0.52 -0.87,-0.7 -1.47,-0.63c-0.98,0.1 -1.61,0.52 -1.54,1.17c0.18,1.73 6.02,0.77 6.41,4.46c0.22,2.08 -1.49,3.58 -3.9,3.83c-3.03,0.32 -4.8,-1.49 -4.8,-1.49L111.27,60.75zM103.9,52.36c-0.04,-0.32 -0.22,-0.46 -0.53,-0.43l-0.87,0.09l-0.25,-2.34l2.62,-0.27c1.02,-0.11 1.52,0.3 1.63,1.32l1.17,11.13c0.03,0.3 0.22,0.46 0.53,0.43l0.85,-0.09l0.25,2.32l-2.6,0.27c-1.04,0.11 -1.52,-0.28 -1.63,-1.32L103.9,52.36zM95.7,54.49c3.38,-0.36 6.32,1.77 6.68,5.15c0.36,3.4 -2.08,6.07 -5.46,6.43c-3.36,0.35 -6.3,-1.75 -6.66,-5.15C89.91,57.54 92.35,54.85 95.7,54.49zM96.68,63.73c1.8,-0.19 3.15,-1.74 2.93,-3.79c-0.22,-2.04 -1.86,-3.29 -3.66,-3.1c-1.78,0.19 -3.13,1.75 -2.91,3.79C93.26,62.69 94.9,63.92 96.68,63.73zM78.25,54.64l-1.41,0.15l-0.25,-2.41l7.05,-0.74c2.88,-0.31 5.11,1.5 5.43,4.49c0.32,2.99 -1.48,5.29 -4.37,5.59l-2.8,0.29l0.56,5.31l-2.84,0.3L78.25,54.64zM83.92,59.35c1.61,-0.17 2.41,-1.31 2.24,-2.91c-0.17,-1.58 -1.18,-2.51 -2.74,-2.34l-2.32,0.24l0.55,5.25L83.92,59.35zM187.71,28.63l0.35,-0.04l-0.01,-0.09c-0.17,-1.58 -0.86,-2.1 -2.27,-1.96c-0.5,0.05 -1.46,0.29 -1.39,0.89l0.06,0.59l-2.56,0.27l-0.12,-1.17c-0.22,-2.06 2.67,-2.58 3.82,-2.7c3.69,-0.39 4.97,1.43 5.23,3.9l0.43,4.12c0.03,0.3 0.22,0.46 0.53,0.43l0.87,-0.09l0.25,2.32l-2.47,0.26c-1.02,0.1 -1.47,-0.42 -1.54,-1.07c-0.03,-0.28 -0.03,-0.48 -0.03,-0.48l-0.05,0c0,0 -0.64,2.04 -3.13,2.3c-1.98,0.21 -3.9,-0.84 -4.14,-3.05C181.17,29.6 185.91,28.82 187.71,28.63zM186.12,33.91c1.47,-0.16 2.35,-1.83 2.21,-3.17l-0.03,-0.26l-0.48,0.05c-1.43,0.15 -3.69,0.58 -3.53,2.12C184.38,33.39 184.99,34.02 186.12,33.91zM163.41,29.78c-0.14,-0.31 -0.32,-0.36 -0.65,-0.33l-0.3,0.03l-0.25,-2.34l1.89,-0.2c0.91,-0.1 1.37,0.14 1.68,0.96l2.27,5.97c0.21,0.57 0.34,1.15 0.34,1.15l0.04,-0c0,0 0.03,-0.59 0.14,-1.2l1.28,-7.43l2.43,-0.26l2.82,7.01c0.23,0.57 0.36,1.14 0.36,1.14l0.04,-0c0,0 0,-0.59 0.09,-1.19l0.96,-6.31c0.13,-0.87 0.53,-1.2 1.44,-1.29l1.89,-0.2l0.25,2.34l-0.31,0.03c-0.32,0.03 -0.47,0.12 -0.56,0.45l-1.77,8.6l-3.1,0.33l-2.55,-6.11c-0.23,-0.57 -0.38,-1.16 -0.38,-1.16l-0.04,0c0,0 -0.04,0.62 -0.16,1.22l-1.2,6.51l-3.12,0.33L163.41,29.78zM156.26,29.98l-1.43,0.15l-0.23,-2.19l1.5,-0.16l-0.32,-3.02l2.69,-0.28l0.32,3.02l2.52,-0.26l0.23,2.19l-2.52,0.26l0.47,4.47c0.19,1.82 1.65,1.93 2.41,1.85c0.31,-0.03 0.5,-0.1 0.5,-0.1l0.25,2.41c0,0 -0.34,0.1 -0.84,0.15c-1.54,0.16 -4.64,0.03 -5.03,-3.68L156.26,29.98zM146.68,36.41c0,0 1.58,1.48 3.47,1.28c0.85,-0.09 1.46,-0.5 1.38,-1.24c-0.16,-1.56 -5.99,-0.93 -6.37,-4.5c-0.23,-2.21 1.65,-3.44 3.95,-3.68c1.5,-0.16 3.93,0.09 4.12,1.89l0.12,1.15l-2.43,0.25l-0.06,-0.54c-0.05,-0.52 -0.86,-0.7 -1.47,-0.64c-0.98,0.1 -1.61,0.52 -1.54,1.17c0.18,1.73 6.02,0.77 6.41,4.46c0.22,2.08 -1.49,3.58 -3.89,3.83c-3.04,0.32 -4.81,-1.49 -4.81,-1.49L146.68,36.41zM137.21,32.62c-0.04,-0.33 -0.22,-0.46 -0.53,-0.43l-0.87,0.09l-0.25,-2.34l2.52,-0.26c0.98,-0.1 1.52,0.26 1.62,1.19l0.07,0.65c0.04,0.41 0.03,0.7 0.03,0.7l0.04,-0c0.33,-1.63 1.52,-3.03 3.21,-3.21c0.24,-0.02 0.5,-0.01 0.5,-0.01l0.28,2.71c0,0 -0.28,-0.01 -0.68,0.03c-1.17,0.12 -2.45,0.94 -2.77,2.64c-0.09,0.56 -0.12,1.17 -0.05,1.82l0.46,4.38l-2.73,0.29L137.21,32.62zM129.32,30.34c3.16,-0.33 5.14,1.8 5.45,4.73c0.04,0.32 0.04,1.02 0.04,1.02l-7.63,0.8c0.42,1.93 1.96,2.8 3.63,2.62c1.78,-0.19 2.97,-1.56 2.97,-1.56l1.35,1.79c0,0 -1.52,1.85 -4.27,2.14c-3.66,0.38 -6.22,-2.02 -6.55,-5.17C123.95,33.31 126,30.69 129.32,30.34zM131.86,34.48c-0.18,-1.32 -1.19,-2.13 -2.32,-2.02c-1.41,0.15 -2.32,1.1 -2.47,2.52L131.86,34.48zM118.08,31.52c1.43,-0.15 4.07,0.17 4.27,2.07l0.14,1.3l-2.43,0.25l-0.06,-0.61c-0.06,-0.61 -1,-0.77 -1.68,-0.7c-1.91,0.2 -3.12,1.8 -2.91,3.79c0.24,2.26 2.03,3.23 3.81,3.04c1.89,-0.2 3.12,-1.84 3.12,-1.84l1.35,1.79c0,0 -1.44,2.17 -4.45,2.48c-3.64,0.38 -6.26,-1.95 -6.59,-5.16C112.32,34.82 114.29,31.92 118.08,31.52zM104.94,36.01c-0.03,-0.33 -0.22,-0.46 -0.53,-0.43l-0.87,0.09l-0.25,-2.34l2.52,-0.26c0.98,-0.1 1.52,0.26 1.62,1.19l0.07,0.65c0.04,0.41 0.03,0.7 0.03,0.7l0.04,-0c0.33,-1.64 1.52,-3.03 3.21,-3.21c0.24,-0.02 0.5,-0.01 0.5,-0.01l0.28,2.71c0,0 -0.28,-0.02 -0.68,0.03c-1.17,0.12 -2.45,0.94 -2.77,2.64c-0.09,0.56 -0.12,1.17 -0.05,1.83l0.46,4.38l-2.73,0.28L104.94,36.01zM98.42,38.01l0.35,-0.04l-0.01,-0.09c-0.17,-1.58 -0.86,-2.1 -2.27,-1.95c-0.5,0.05 -1.46,0.28 -1.4,0.89l0.06,0.58l-2.56,0.27l-0.12,-1.17c-0.22,-2.06 2.67,-2.58 3.82,-2.7c3.69,-0.39 4.97,1.43 5.23,3.9l0.43,4.12c0.03,0.3 0.22,0.46 0.53,0.43l0.87,-0.09l0.24,2.32l-2.47,0.26c-1.02,0.11 -1.47,-0.41 -1.54,-1.06c-0.03,-0.28 -0.03,-0.48 -0.03,-0.48l-0.04,0c0,0 -0.64,2.04 -3.13,2.3c-1.98,0.21 -3.9,-0.84 -4.14,-3.05C91.88,38.99 96.62,38.2 98.42,38.01zM96.83,43.29c1.47,-0.15 2.35,-1.83 2.21,-3.17l-0.03,-0.26l-0.48,0.05c-1.43,0.15 -3.69,0.59 -3.53,2.13C95.09,42.77 95.7,43.41 96.83,43.29zM76.15,34.72c-0.03,-0.31 -0.22,-0.46 -0.53,-0.43l-0.93,0.1l-0.25,-2.41l2.78,-0.29c1.04,-0.11 1.52,0.3 1.63,1.32l0.53,5.05l6.79,-0.71l-0.53,-5.05c-0.11,-1.02 0.3,-1.52 1.32,-1.63l2.78,-0.29l0.25,2.41l-0.93,0.1c-0.3,0.03 -0.46,0.22 -0.43,0.53l1.32,12.51l-2.84,0.3l-0.68,-6.46l-6.79,0.71l0.68,6.46l-2.84,0.3L76.15,34.72zM146.1,6.68c-0.04,-0.32 -0.22,-0.46 -0.53,-0.43l-0.87,0.09l-0.25,-2.34l2.62,-0.28c1.02,-0.1 1.5,0.08 1.61,1.1l0.73,6.98l0.82,-0.09c0.35,-0.04 0.8,-0.15 1,-0.52l1.89,-3.73l3.06,-0.32l-2.36,4.46c-0.41,0.74 -0.73,0.95 -0.73,0.95l0,0.04c0,0 0.41,0.11 0.87,0.78l1.51,2.25c0.21,0.31 0.43,0.37 0.95,0.32l0.74,-0.08l0.24,2.32l-2.04,0.21c-0.93,0.1 -1.32,-0.01 -1.83,-0.77l-2.21,-3.27c-0.26,-0.37 -0.72,-0.34 -1.06,-0.31l-0.61,0.06l0.51,4.84l-2.76,0.29L146.1,6.68zM138.75,8.72c3.16,-0.33 5.14,1.81 5.45,4.73c0.03,0.32 0.04,1.02 0.04,1.02l-7.64,0.8c0.42,1.93 1.96,2.8 3.63,2.62c1.78,-0.19 2.97,-1.56 2.97,-1.56l1.35,1.79c0,0 -1.52,1.85 -4.27,2.14c-3.66,0.38 -6.22,-2.02 -6.55,-5.17C133.38,11.7 135.43,9.07 138.75,8.72zM141.29,12.86c-0.18,-1.32 -1.19,-2.13 -2.32,-2.02c-1.41,0.15 -2.32,1.1 -2.48,2.52L141.29,12.86zM123.2,20.31l4.44,-6.76c0.43,-0.68 0.82,-1.12 0.82,-1.12l-0,-0.04c0,0 -0.32,0.08 -1.01,0.15l-2,0.21c-0.3,0.03 -0.46,0.22 -0.43,0.53l0.07,0.63l-2.49,0.26l-0.21,-1.98c-0.11,-1.02 0.28,-1.52 1.32,-1.63l8.11,-0.85l0.16,1.5l-4.44,6.76c-0.43,0.66 -0.83,1.12 -0.83,1.12l0,0.04c0,0 0.32,-0.1 1.03,-0.18l2.43,-0.25c0.3,-0.03 0.46,-0.2 0.43,-0.53l-0.06,-0.61l2.49,-0.26l0.2,1.95c0.11,1.04 -0.28,1.52 -1.3,1.63l-8.59,0.9L123.2,20.31zM117.22,15.42l0.3,-0.03l-0.01,-0.09c-0.17,-1.58 -0.86,-2.1 -2.27,-1.95c-0.5,0.05 -1.46,0.28 -1.4,0.89l0.06,0.58l-2.56,0.27l-0.12,-1.17c-0.22,-2.04 2.66,-2.58 3.82,-2.7c3.69,-0.39 4.97,1.43 5.23,3.9l0.44,4.12c0.03,0.3 0.22,0.46 0.53,0.43l0.87,-0.09l0.24,2.32c-0.38,0.39 -1.1,1.19 -1.04,1.82c0.08,0.69 1.15,0.67 1.15,0.67l-0.44,2.11c0,0 -2.69,0.04 -2.89,-1.8c-0.12,-1.11 0.61,-1.97 1.18,-2.54l-0,-0.04l-0.54,0.06c-0.98,0.1 -1.39,-0.51 -1.44,-1.01l-0.01,-0.11c-0.03,-0.24 -0,-0.44 -0,-0.44l-0.04,0c0,0 -0.6,2.04 -3.18,2.31c-2.02,0.21 -3.87,-0.91 -4.09,-3.06C110.64,16.37 115.38,15.61 117.22,15.42zM115.59,20.7c1.47,-0.16 2.35,-1.83 2.21,-3.17l-0.03,-0.26l-0.48,0.05c-1.43,0.15 -3.69,0.61 -3.53,2.12C113.85,20.18 114.46,20.81 115.59,20.7zM105.16,15.37c-0.03,-0.32 -0.22,-0.46 -0.53,-0.43l-0.87,0.09l-0.25,-2.34l2.62,-0.28c1.02,-0.11 1.5,0.3 1.61,1.32l0.71,6.79c0.03,0.3 0.22,0.46 0.53,0.43l0.87,-0.09l0.24,2.32l-2.62,0.28c-1.02,0.11 -1.5,-0.28 -1.61,-1.32L105.16,15.37zM104.54,8.2l2.38,-0.25l0.27,2.54l-2.39,0.25L104.54,8.2zM86.29,17.26c-0.14,-0.31 -0.32,-0.36 -0.65,-0.33l-0.3,0.03l-0.25,-2.34l1.89,-0.2c0.91,-0.09 1.37,0.14 1.68,0.96l2.27,5.97c0.21,0.57 0.34,1.15 0.34,1.15l0.04,-0c0,0 0.03,-0.6 0.14,-1.2l1.28,-7.43l2.43,-0.26l2.82,7c0.23,0.57 0.36,1.14 0.36,1.14l0.04,-0c0,0 0,-0.59 0.09,-1.19l0.96,-6.3c0.13,-0.87 0.53,-1.2 1.44,-1.29l1.89,-0.2l0.25,2.34l-0.3,0.03c-0.32,0.03 -0.47,0.12 -0.56,0.46l-1.77,8.6l-3.1,0.33l-2.55,-6.11c-0.23,-0.57 -0.39,-1.17 -0.39,-1.17l-0.04,0c0,0 -0.05,0.62 -0.16,1.22l-1.2,6.51l-3.12,0.33L86.29,17.26zM73.47,25.21l5.89,-10.53c0.54,-0.93 1.02,-1.51 1.02,-1.51l-0,-0.04c0,0 -0.45,0.09 -1.17,0.17l-3.73,0.39c-0.3,0.03 -0.46,0.22 -0.43,0.53l0.1,0.93l-2.58,0.27l-0.25,-2.34c-0.11,-1.02 0.28,-1.52 1.32,-1.63l10,-1.05l0.19,1.78l-5.89,10.55c-0.54,0.96 -1.02,1.51 -1.02,1.51l0,0.04c0,0 0.45,-0.09 1.17,-0.17l4.2,-0.44c0.31,-0.03 0.46,-0.22 0.43,-0.53l-0.1,-0.93l2.56,-0.27l0.25,2.34c0.11,1.04 -0.28,1.52 -1.32,1.63L73.65,27.01L73.47,25.21z" fill="#000"/>
</svg>
