<svg xmlns="http://www.w3.org/2000/svg" viewBox="0 0 87.87 87.87" width="117.16" height="117.16" ><defs><clipPath id="A"><path d="M0 0h87.87v87.87H0z"/></clipPath></defs><g clip-path="url(#A)"><path d="M39.64 77.1l-1.14 8.93a42.84 42.84 0 0 0 5.44.35c1.88 0 3.76-.13 5.61-.37l-1.18-8.92c-2.88.38-5.86.38-8.73.01zM69.8 10.28c-2.94-2.26-6.16-4.13-9.58-5.55l-3.46 8.31a33.67 33.67 0 0 1 7.55 4.37l5.49-7.13zM4.77 60.3c1.43 3.41 3.3 6.63 5.57 9.57l7.12-5.5c-1.79-2.31-3.26-4.85-4.39-7.53l-8.3 3.46zm13.42 17.37a42.65 42.65 0 0 0 9.6 5.52l3.43-8.32a33.28 33.28 0 0 1-7.56-4.35l-5.47 7.15zm38.59-2.85l3.46 8.31a42.57 42.57 0 0 0 9.57-5.55l-5.49-7.13c-2.31 1.78-4.85 3.25-7.54 4.37zm29.24-36.43l-8.92 1.17a33.56 33.56 0 0 1 .28 4.38c0 1.46-.1 2.92-.28 4.36l8.93 1.15c.24-1.82.36-3.67.36-5.51-.01-1.86-.13-3.72-.37-5.55zM70.49 64.27l7.14 5.48c2.26-2.94 4.12-6.17 5.54-9.59l-8.32-3.44c-1.11 2.69-2.58 5.23-4.36 7.55zm12.67-36.58c-1.42-3.42-3.28-6.64-5.54-9.58l-7.14 5.48a33.67 33.67 0 0 1 4.37 7.55l8.31-3.45zM10.5 43.94c0-18.44 15-33.44 33.44-33.44 1.47 0 2.95.1 4.4.29l1.17-8.92c-1.84-.25-3.71-.37-5.57-.37C20.54 1.5 1.5 20.54 1.5 43.94c0 1.87.12 3.74.36 5.58l8.92-1.17c-.19-1.46-.28-2.94-.28-4.41z"/><g fill-rule="evenodd"><path d="M41.02 32.17c-1.04-.03-2.05.08-3.02.46-1.38.54-2.19 1.53-2.44 3.01-.2 1.23-.05 2.41.48 3.53.25.53.6 1.04 1.01 1.46l3.17 2.96c1.32 1.32 2.16 2.86 2.2 4.81.04 1.83-.64 3.33-1.8 4.68l-2.35 2.97c-.97 1.44-1.23 3.08-1 4.81.1.76.21 1.5.53 2.21.57 1.28 1.55 2.08 2.86 2.49 1.42.45 2.89.61 4.33.21 1.73-.49 2.8-1.75 3.47-3.38.4-.97.52-1.99.54-3.04.04-2.2.52-4.32 1.44-6.33l2.44-5.27c.58-1.32.96-2.71 1.04-4.17L54 41.3c-.05-1.67-.56-3.19-1.59-4.52-1.26-1.63-2.96-2.62-4.83-3.37-1.46-.59-3-.9-4.55-1.12-.66-.08-1.34-.08-2.01-.12zm-1.55-5.43c.01-1.59-.43-2.84-1.32-3.94-.82-1.01-2.32-1.19-3.27-.31-.62.57-.92 1.37-1.04 2.21-.16 1.12-.02 2.19.43 3.23.41.97 1.01 1.78 2.03 2.16.93.34 1.96-.09 2.49-.95.48-.8.71-1.65.68-2.4zm1.12-.3c.07 1.04.35 1.94 1.1 2.67.82.8 1.99.49 2.49-.26.85-1.29.74-3.36-.34-4.5-1.01-1.07-2.32-.74-2.89.58-.2.48-.25 1.01-.36 1.51zm5.01 1.47c.13.47.21.96.4 1.41.24.59.72.96 1.37.97.64 0 1.03-.44 1.28-.98.49-1.05.48-2.11-.11-3.13-.57-.98-1.75-1.03-2.4-.04-.37.54-.47 1.12-.54 1.77zm3.37 2.06c.16.39.25.84.5 1.18.54.72 1.15.53 1.68.03.72-.69.95-1.9.47-2.78-.54-1.01-1.37-.8-2-.12-.4.44-.55 1.06-.55 1.65-.03.01-.07.02-.1.04zm2.43 2.11c.16.38.26.81.49 1.14.47.68 1.13.44 1.49-.01.44-.56.46-1.72-.01-2.3-.26-.32-.61-.6-.99-.41-.31.15-.56.49-.76.8-.13.2-.11.49-.15.74-.03.02-.05.03-.07.04z"/></g></g></svg>