<svg xmlns="http://www.w3.org/2000/svg" viewBox="0 0 87.87 87.87" width="117.16" height="117.16" ><defs><clipPath id="A"><path d="M0 0h87.87v87.87H0z"/></clipPath></defs><g clip-path="url(#A)"><path d="M4.74 60.22a42.53 42.53 0 0 0 5.54 9.57l7.13-5.49c-1.78-2.32-3.25-4.85-4.37-7.54l-8.3 3.46zm13.35 17.39a42.53 42.53 0 0 0 9.57 5.54l3.45-8.31c-2.69-1.12-5.22-2.58-7.54-4.37l-5.48 7.14zM43.94 1.5C20.54 1.5 1.5 20.54 1.5 43.94a43.06 43.06 0 0 0 .36 5.57l8.92-1.17c-.19-1.45-.29-2.93-.29-4.4 0-18.44 15-33.44 33.44-33.44s33.44 15 33.44 33.44-15 33.44-33.44 33.44c-1.47 0-2.95-.1-4.4-.29l-1.17 8.92c1.84.24 3.71.36 5.57.36 23.4 0 42.44-19.04 42.44-42.44C86.38 20.54 67.34 1.5 43.94 1.5z"/><g fill-rule="evenodd"><path d="M57.4 48.52c-.83-1.07-1.94-1.72-3.17-2.21-.96-.38-1.96-.59-2.98-.73-.44-.06-.88-.06-1.32-.08-.68-.02-1.34.05-1.98.3-.9.36-1.44 1.01-1.6 1.98a3.89 3.89 0 0 0 .31 2.31c.16.35.39.68.66.95l2.08 1.94c.86.87 1.42 1.88 1.45 3.16.03 1.2-.42 2.18-1.18 3.07l-1.54 1.95c-.64.95-.81 2.02-.65 3.15.07.5.14.99.34 1.45.37.84 1.01 1.36 1.87 1.63.93.29 1.89.4 2.84.13 1.13-.32 1.84-1.15 2.27-2.21.26-.64.34-1.3.35-1.99.03-1.44.34-2.83.95-4.15l1.6-3.46c.38-.87.63-1.78.68-2.73l.05-1.49c-.02-1.1-.35-2.1-1.03-2.97zm-8.93-5.02c.32-.52.47-1.08.45-1.58 0-1.04-.28-1.86-.87-2.58-.54-.66-1.52-.78-2.14-.2-.41.38-.6.9-.68 1.45a3.95 3.95 0 0 0 .28 2.12c.27.64.66 1.16 1.33 1.41.61.23 1.29-.05 1.63-.62zm3.54-.19c.56-.85.49-2.2-.22-2.95-.67-.7-1.52-.49-1.89.38-.13.31-.16.66-.24.99.04.68.23 1.27.72 1.75.53.53 1.3.33 1.63-.17zm2.09.94c.42 0 .67-.29.84-.64.32-.69.31-1.38-.07-2.05-.37-.64-1.14-.68-1.58-.03-.23.35-.3.73-.34 1.16.08.31.14.63.26.92.15.39.46.64.89.64zm1.37.57c.35.47.75.35 1.1.02.47-.45.62-1.25.31-1.82-.36-.66-.9-.53-1.31-.08-.26.29-.36.7-.36 1.08-.02.01-.05.02-.07.03.11.25.17.55.33.77zm1.32.58c-.02.01-.03.02-.04.03.1.25.17.53.32.75.31.44.74.29.97-.01.29-.37.3-1.13 0-1.51-.17-.21-.4-.39-.65-.27-.2.1-.37.32-.5.52-.09.14-.07.33-.1.49zM37.98 28.05c-.63-.25-1.3-.33-1.98-.3l-1.32.08c-1.02.14-2.02.35-2.98.73-1.22.49-2.34 1.14-3.16 2.21-.68.87-1.01 1.87-1.04 2.96-.01.5.02 1 .05 1.49.05.95.3 1.87.68 2.73l1.6 3.46c.61 1.32.92 2.7.95 4.15.01.69.09 1.36.35 1.99.44 1.06 1.14 1.89 2.28 2.21.94.27 1.9.16 2.84-.13.86-.27 1.5-.8 1.87-1.63.21-.46.28-.95.35-1.45.15-1.13-.02-2.2-.65-3.15-.46-.68-1-1.32-1.54-1.95-.76-.89-1.21-1.87-1.18-3.07.03-1.28.58-2.29 1.44-3.15l2.08-1.94a3.45 3.45 0 0 0 .66-.95 3.89 3.89 0 0 0 .31-2.31c-.17-.97-.71-1.62-1.61-1.98zm2.05-6.65c-.63-.58-1.61-.46-2.14.2-.58.72-.87 1.54-.87 2.58-.02.49.13 1.05.45 1.58.34.57 1.02.85 1.63.63.67-.25 1.06-.78 1.33-1.41a3.95 3.95 0 0 0 .28-2.12c-.08-.56-.27-1.08-.68-1.46zm-4.47 4.35c.49-.48.68-1.07.72-1.75-.08-.33-.11-.68-.24-.99-.37-.87-1.23-1.08-1.89-.38-.71.75-.78 2.1-.22 2.95.32.49 1.09.69 1.63.17zm-3.72.76c.43 0 .74-.25.9-.63.12-.3.17-.62.26-.92-.05-.42-.11-.81-.34-1.16-.43-.65-1.21-.62-1.58.03a2.08 2.08 0 0 0-.07 2.05c.16.34.41.63.83.63zm-1.38.57c.16-.22.22-.51.33-.77-.02-.01-.05-.02-.07-.03 0-.39-.1-.8-.36-1.08-.41-.45-.96-.58-1.31.08-.31.58-.16 1.37.31 1.82.35.33.75.45 1.1-.02zm-1.59 1.36c.15-.22.22-.5.32-.75-.02-.01-.03-.02-.04-.03-.03-.16-.02-.36-.1-.48-.13-.2-.29-.43-.5-.52-.25-.12-.48.06-.65.27-.31.38-.29 1.14 0 1.51.23.29.67.44.97 0z"/></g></g></svg>