<svg xmlns="http://www.w3.org/2000/svg" viewBox="0 0 87.87 87.87" width="117.16" height="117.16"  xmlns:v="https://vecta.io/nano"><defs><clipPath id="A"><path d="M0 0h87.87v87.87H0z"/></clipPath></defs><g clip-path="url(#A)" fill="#1d1d1b"><path d="M43.94 1.5C20.54 1.5 1.5 20.54 1.5 43.94s19.04 42.44 42.44 42.44 42.44-19.04 42.44-42.44S67.34 1.5 43.94 1.5zm0 75.88c-18.44 0-33.44-15-33.44-33.44s15-33.44 33.44-33.44 33.44 15 33.44 33.44c0 18.43-15 33.44-33.44 33.44zm0-9.64c-13.12 0-23.8-10.68-23.8-23.8s10.68-23.8 23.8-23.8 23.8 10.68 23.8 23.8-10.68 23.8-23.8 23.8zm0-44.6c-11.47 0-20.8 9.33-20.8 20.8s9.33 20.8 20.8 20.8 20.8-9.33 20.8-20.8-9.33-20.8-20.8-20.8zm6.83 20.8a6.84 6.84 0 0 1-6.84 6.84c-3.77 0-6.83-3.06-6.83-6.84 0-3.77 3.06-6.83 6.83-6.83 3.78-.01 6.84 3.05 6.84 6.83z"/></g></svg>