<svg xmlns="http://www.w3.org/2000/svg" viewBox="0 0 87.87 87.87" ><path d="M43.94 1.5C20.54 1.5 1.5 20.54 1.5 43.94s19.04 42.44 42.44 42.44 42.44-19.04 42.44-42.44S67.34 1.5 43.94 1.5zm0 75.88c-18.44 0-33.44-15-33.44-33.44s15-33.44 33.44-33.44 33.44 15 33.44 33.44c0 18.43-15 33.44-33.44 33.44zm17.01-29.46V22.4H26.93v25.52h14.51V60.8l-3.75-3.75-3.54 3.54 9.83 9.83 9.74-9.74-3.54-3.54-3.75 3.75V47.92h14.52zM41.33 35.37l-9.4 6.42V28.95l9.4 6.42zm-6.45-8.04H53.1l-9.11 6.22-9.11-6.22zm21.07 1.69v12.69l-9.3-6.35 9.3-6.34zm-20.36 13.9l8.4-5.74 8.4 5.74h-16.8z"/></svg>